<svg width="21" height="25" viewBox="0 0 21 25" fill="none" xmlns="http://www.w3.org/2000/svg">
<path d="M18.0833 2.68003V21.3856H2.91667V2.68003H18.0833ZM19.275 0.0078125H1.725C1.18333 0.0078125 0.75 0.542257 0.75 1.21031V22.8553C0.75 23.3898 1.18333 24.0578 1.725 24.0578H19.275C19.7083 24.0578 20.25 23.3898 20.25 22.8553V1.21031C20.25 0.542257 19.7083 0.0078125 19.275 0.0078125ZM9.41667 5.35226H15.9167V8.02448H9.41667V5.35226ZM9.41667 10.6967H15.9167V13.3689H9.41667V10.6967ZM9.41667 16.0411H15.9167V18.7134H9.41667V16.0411ZM5.08333 5.35226H7.25V8.02448H5.08333V5.35226ZM5.08333 10.6967H7.25V13.3689H5.08333V10.6967ZM5.08333 16.0411H7.25V18.7134H5.08333V16.0411Z" fill="#F4677F"/>
</svg>
