<svg width="22" height="24" viewBox="0 0 22 24" fill="none" xmlns="http://www.w3.org/2000/svg">
<path d="M6.70312 7.71875C6.70312 7.34579 6.82659 6.9881 7.04636 6.72438C7.26613 6.46066 7.5642 6.3125 7.875 6.3125H14.125C14.4358 6.3125 14.7339 6.46066 14.9536 6.72438C15.1734 6.9881 15.2969 7.34579 15.2969 7.71875C15.2969 8.09171 15.1734 8.4494 14.9536 8.71312C14.7339 8.97684 14.4358 9.125 14.125 9.125H7.875C7.5642 9.125 7.26613 8.97684 7.04636 8.71312C6.82659 8.4494 6.70312 8.09171 6.70312 7.71875ZM7.875 13.8125H14.125C14.4358 13.8125 14.7339 13.6643 14.9536 13.4006C15.1734 13.1369 15.2969 12.7792 15.2969 12.4063C15.2969 12.0333 15.1734 11.6756 14.9536 11.4119C14.7339 11.1482 14.4358 11 14.125 11H7.875C7.5642 11 7.26613 11.1482 7.04636 11.4119C6.82659 11.6756 6.70312 12.0333 6.70312 12.4063C6.70312 12.7792 6.82659 13.1369 7.04636 13.4006C7.26613 13.6643 7.5642 13.8125 7.875 13.8125ZM21.5469 2.5625V17.5625C21.5443 18.1832 21.3377 18.7775 20.972 19.2164C20.6063 19.6553 20.111 19.9032 19.5938 19.9063H14.0078L12.6797 22.5664C12.5068 22.9163 12.2611 23.2061 11.9666 23.4075C11.6721 23.6089 11.339 23.7148 11 23.7148C10.6621 23.7162 10.3299 23.6108 10.0368 23.4092C9.7436 23.2076 9.49987 22.9169 9.33008 22.5664L7.99219 19.9063H2.40625C1.88904 19.9032 1.39375 19.6553 1.02802 19.2164C0.662291 18.7775 0.455692 18.1832 0.453125 17.5625V2.5625C0.455692 1.94185 0.662291 1.34749 1.02802 0.908622C1.39375 0.469749 1.88904 0.22183 2.40625 0.21875H19.5938C20.111 0.22183 20.6063 0.469749 20.972 0.908622C21.3377 1.34749 21.5443 1.94185 21.5469 2.5625ZM19.2031 3.03125H2.79688V17.0938H8.2168C8.55315 17.0946 8.88362 17.1997 9.17618 17.3989C9.46875 17.598 9.7135 17.8845 9.88672 18.2305L11 20.457L12.1133 18.2305C12.2872 17.8853 12.5321 17.5994 12.8245 17.4004C13.1169 17.2014 13.447 17.0958 13.7832 17.0938H19.2031V3.03125Z" fill="#3EB449"/>
</svg>
