<svg width="24" height="24" viewBox="0 0 24 24" fill="none" xmlns="http://www.w3.org/2000/svg">
<path fill-rule="evenodd" clip-rule="evenodd" d="M17.0031 10.3334H16.5028V8.49891C16.5028 6.01207 14.4868 3.99609 12 3.99609C9.51318 3.99609 7.4972 6.01207 7.4972 8.49891V10.3334H6.99689C6.26005 10.3334 5.66272 10.9307 5.66272 11.6676V18.6719C5.66272 19.4088 6.26005 20.0061 6.99689 20.0061H17.0031C17.74 20.0061 18.3373 19.4088 18.3373 18.6719V11.6676C18.3373 10.9307 17.74 10.3334 17.0031 10.3334ZM10.6658 14.3359C10.6629 13.6877 11.1263 13.1312 11.7644 13.0167C12.4024 12.9022 13.0304 13.2629 13.253 13.8716C13.4756 14.4804 13.2285 15.1612 12.6671 15.4853V17.0042C12.6671 17.3726 12.3684 17.6713 12 17.6713C11.6316 17.6713 11.3329 17.3726 11.3329 17.0042V15.4853C10.9214 15.2486 10.6672 14.8106 10.6658 14.3359ZM12 5.6638C10.4342 5.6638 9.16491 6.93312 9.16491 8.49891V9.99984C9.16491 10.1841 9.31424 10.3334 9.49845 10.3334H14.5016C14.6858 10.3334 14.8351 10.1841 14.8351 9.99984V8.49891C14.8351 6.93312 13.5658 5.6638 12 5.6638Z" fill="#FAFAFA"/>
<mask id="mask0_4391_2301" style="mask-type:alpha" maskUnits="userSpaceOnUse" x="5" y="3" width="14" height="18">
<path fill-rule="evenodd" clip-rule="evenodd" d="M17.0031 10.3334H16.5028V8.49891C16.5028 6.01207 14.4868 3.99609 12 3.99609C9.51318 3.99609 7.4972 6.01207 7.4972 8.49891V10.3334H6.99689C6.26005 10.3334 5.66272 10.9307 5.66272 11.6676V18.6719C5.66272 19.4088 6.26005 20.0061 6.99689 20.0061H17.0031C17.74 20.0061 18.3373 19.4088 18.3373 18.6719V11.6676C18.3373 10.9307 17.74 10.3334 17.0031 10.3334ZM10.6658 14.3359C10.6629 13.6877 11.1263 13.1312 11.7644 13.0167C12.4024 12.9022 13.0304 13.2629 13.253 13.8716C13.4756 14.4804 13.2285 15.1612 12.6671 15.4853V17.0042C12.6671 17.3726 12.3684 17.6713 12 17.6713C11.6316 17.6713 11.3329 17.3726 11.3329 17.0042V15.4853C10.9214 15.2486 10.6672 14.8106 10.6658 14.3359ZM12 5.6638C10.4342 5.6638 9.16491 6.93312 9.16491 8.49891V9.99984C9.16491 10.1841 9.31424 10.3334 9.49845 10.3334H14.5016C14.6858 10.3334 14.8351 10.1841 14.8351 9.99984V8.49891C14.8351 6.93312 13.5658 5.6638 12 5.6638Z" fill="white"/>
</mask>
<g mask="url(#mask0_4391_2301)">
</g>
</svg>
