<svg width="23" height="26" viewBox="0 0 23 26" fill="none" xmlns="http://www.w3.org/2000/svg">
<path d="M12.6962 12.75H14.3033C14.3033 12.1458 14.3569 11.7029 14.464 11.4212C14.5712 11.1404 14.8212 10.7708 15.214 10.3125C15.7497 9.6875 16.1069 9.18208 16.2854 8.79625C16.464 8.41125 16.5533 7.95833 16.5533 7.4375C16.5533 6.5 16.2719 5.73458 15.709 5.14125C15.1469 4.54708 14.4104 4.25 13.4997 4.25C12.7676 4.25 12.1294 4.48958 11.5851 4.96875C11.0401 5.44792 10.6604 6.08333 10.4462 6.875L11.8926 7.5625C12.0533 7.04167 12.2722 6.65083 12.5494 6.39C12.8258 6.13 13.1426 6 13.4997 6C13.9283 6 14.2765 6.14042 14.5444 6.42125C14.8122 6.70292 14.9462 7.08333 14.9462 7.5625C14.9462 7.85417 14.8747 8.13 14.7319 8.39C14.589 8.65083 14.339 8.97917 13.9819 9.375C13.3926 9.97917 13.0312 10.4529 12.8976 10.7962C12.7633 11.1404 12.6962 11.7917 12.6962 12.75ZM13.4997 16.75C13.8033 16.75 14.0669 16.62 14.2904 16.36C14.5133 16.0992 14.6247 15.7917 14.6247 15.4375C14.6247 15.0833 14.5133 14.7758 14.2904 14.515C14.0669 14.255 13.8033 14.125 13.4997 14.125C13.1962 14.125 12.9329 14.255 12.7101 14.515C12.4865 14.7758 12.3747 15.0833 12.3747 15.4375C12.3747 15.7917 12.4865 16.0992 12.7101 16.36C12.9329 16.62 13.1962 16.75 13.4997 16.75ZM4.92829 20.5V0.5H22.0712V20.5H4.92829ZM7.07115 18H19.9283V3H7.07115V18ZM0.642578 25.5V5.5H2.78544V23H17.7854V25.5H0.642578Z" fill="#FAB317"/>
</svg>
