<svg width="200" height="50" viewBox="0 0 200 50" fill="none" xmlns="http://www.w3.org/2000/svg">
<path d="M125.245 18.6689C125.053 16.4988 125.032 14.5769 124.066 12.5219C123.291 10.8719 122.424 9.2019 121.247 7.7569C117.633 3.3459 111.984 1.3799 106.099 1.1789C96.4501 0.850899 87.0574 6.47889 83.8316 14.837C83.3104 16.1858 82.453 17.3238 81.4839 18.4C81.3821 18.3439 81.3252 18.1939 81.3252 17.9349C81.3252 15.6289 78.4706 18.2079 78.0238 18.8349C72.2369 26.9589 73.483 40.3238 83.1264 45.5209C87.0858 47.6548 91.4745 48.6798 96.0296 49.0129C100.172 49.3129 104.659 48.7449 107.784 46.025C110.491 43.6699 111.414 40.1729 113.676 37.5849C113.272 38.3245 113.056 39.1382 113.045 39.9649C113.053 41.35 116.878 40.7939 120.79 34.681C124.461 28.9459 125.681 23.631 125.245 18.6689Z" fill="#43A7FF"/>
<path opacity="0.7" d="M125.245 18.6689C125.053 16.4988 125.032 14.5769 124.066 12.5219C123.291 10.8719 122.424 9.2019 121.247 7.7569C117.633 3.3459 111.984 1.3799 106.099 1.1789C96.4501 0.850899 87.0574 6.47889 83.8316 14.837C83.3104 16.1858 82.453 17.3238 81.4839 18.4C81.3821 18.3439 81.3252 18.1939 81.3252 17.9349C81.3252 15.6289 78.4706 18.2079 78.0238 18.8349C72.2369 26.9589 73.483 40.3238 83.1264 45.5209C87.0858 47.6548 91.4745 48.6798 96.0296 49.0129C100.172 49.3129 104.659 48.7449 107.784 46.025C110.491 43.6699 111.414 40.1729 113.676 37.5849C113.272 38.3245 113.056 39.1382 113.045 39.9649C113.053 41.35 116.878 40.7939 120.79 34.681C124.461 28.9459 125.681 23.631 125.245 18.6689Z" fill="white"/>
<path d="M121.728 38.0001C121.735 38.0001 121.813 37.4821 121.813 37.449C121.822 37.062 121.594 36.311 121.141 36.1701C121.066 36.1485 120.986 36.1416 120.908 36.1499C120.83 36.1581 120.755 36.1814 120.687 36.2182C120.619 36.2548 120.561 36.3042 120.515 36.3629C120.47 36.4217 120.439 36.4886 120.424 36.5591C120.347 36.8591 120.533 37.1911 120.738 37.4131C120.975 37.6751 121.726 38.0001 121.728 38.0001Z" fill="#263238"/>
<path d="M113.349 38.742C113.704 38.842 114.528 38.734 114.528 38.734C114.528 38.734 114.287 38.259 114.268 38.234C114.041 37.9069 113.392 37.398 112.934 37.506C112.858 37.5259 112.788 37.5602 112.728 37.6065C112.668 37.6528 112.619 37.7102 112.585 37.775C112.55 37.8396 112.531 37.9102 112.529 37.9821C112.526 38.054 112.541 38.1255 112.57 38.192C112.687 38.4759 113.046 38.659 113.349 38.742Z" fill="#263238"/>
<path d="M117.617 44.5801C117.696 44.7141 117.776 44.8491 117.846 44.9801C117.892 45.0722 117.942 45.1582 117.983 45.2532L118.108 45.5292C118.18 45.7082 118.255 45.8921 118.321 46.0671C118.367 46.1892 118.41 46.3061 118.452 46.4241C118.367 46.2951 118.193 46.0472 118.177 46.0241C117.911 45.7241 117.203 45.2852 116.761 45.4412C116.688 45.4688 116.623 45.51 116.569 45.5623C116.515 45.6146 116.473 45.6766 116.447 45.7444C116.421 45.8122 116.411 45.8843 116.418 45.956C116.424 46.0276 116.447 46.0972 116.485 46.1602C116.636 46.4332 117.017 46.5772 117.328 46.6292C117.671 46.6852 118.392 46.5212 118.482 46.5001C118.551 46.6951 118.618 46.8852 118.677 47.0662C118.787 47.3861 118.872 47.6801 118.947 47.9402H119.262C119.175 47.6611 119.07 47.3402 118.944 46.9892C118.874 46.7892 118.795 46.5801 118.712 46.3652C118.922 46.2607 119.125 46.1452 119.32 46.0191C119.591 46.2311 120.245 46.4421 120.329 46.4691C120.27 46.6691 120.21 46.8592 120.151 47.0392C120.041 47.3741 119.932 47.6772 119.834 47.9392H120.153C120.237 47.6912 120.328 47.4152 120.42 47.1092C120.482 46.9092 120.543 46.6931 120.603 46.4712C120.694 46.4792 121.436 46.5342 121.765 46.4282C122.063 46.3282 122.413 46.1282 122.514 45.8421C122.54 45.7744 122.551 45.7023 122.545 45.6305C122.538 45.5588 122.516 45.4891 122.478 45.4258C122.441 45.3627 122.389 45.3074 122.326 45.2636C122.264 45.2199 122.192 45.1888 122.115 45.1722C121.651 45.0842 121.03 45.6201 120.821 45.9561C120.809 45.9761 120.701 46.2051 120.636 46.3501C120.66 46.2602 120.684 46.1722 120.708 46.0782C120.756 45.8931 120.798 45.7071 120.844 45.5071L120.9 45.2131C120.922 45.1131 120.93 45.0131 120.946 44.9061C120.975 44.6662 120.994 44.4231 121.006 44.1772C121.183 44.2152 121.816 44.3421 122.128 44.2871C122.44 44.2321 122.818 44.0871 122.966 43.8111C123.003 43.7477 123.025 43.6779 123.031 43.6062C123.037 43.5346 123.026 43.4625 122.999 43.3949C122.972 43.3273 122.93 43.2657 122.876 43.2138C122.821 43.162 122.755 43.1212 122.682 43.0941C122.244 42.9431 121.536 43.3871 121.273 43.6941C121.257 43.7131 121.095 43.9501 121.009 44.0821C121.015 43.9342 121.022 43.7821 121.022 43.6361C121.022 43.2041 121.013 42.7662 121.003 42.3291C121.003 42.1951 121.003 42.0621 120.996 41.9292C121.06 41.9441 121.807 42.1092 122.157 42.0491C122.468 41.9941 122.847 41.8491 122.994 41.5731C123.032 41.5097 123.054 41.4399 123.06 41.3683C123.066 41.2965 123.055 41.2244 123.028 41.1567C123.002 41.0889 122.96 41.0271 122.905 40.9751C122.851 40.9231 122.785 40.8824 122.712 40.8551C122.267 40.7042 121.564 41.1491 121.303 41.4551C121.282 41.4782 121.05 41.8191 120.996 41.9082C120.996 41.6141 120.991 41.3212 121.002 41.0321C121.016 40.6419 121.057 40.2528 121.125 39.8671C121.155 39.8741 121.935 40.0501 122.293 39.9881C122.604 39.9342 122.982 39.7881 123.131 39.5121C123.168 39.4487 123.191 39.379 123.196 39.3072C123.202 39.2356 123.191 39.1636 123.164 39.0961C123.138 39.0285 123.095 38.9667 123.041 38.9149C122.986 38.8631 122.921 38.8222 122.848 38.7951C122.403 38.6431 121.701 39.0881 121.438 39.3951C121.421 39.4152 121.244 39.6751 121.163 39.8001L121.137 39.7912C121.218 39.4053 121.337 39.0268 121.491 38.6602C121.573 38.4602 121.664 38.2671 121.757 38.0842C121.898 38.1301 122.548 38.3361 122.877 38.3131C123.207 38.2902 123.587 38.1811 123.768 37.9241C123.812 37.8648 123.843 37.7976 123.857 37.7268C123.871 37.656 123.869 37.5832 123.851 37.5132C123.832 37.4433 123.798 37.3776 123.75 37.3205C123.702 37.2635 123.641 37.2163 123.571 37.1821C123.149 36.9871 122.397 37.3592 122.1 37.6342C122.083 37.6491 121.937 37.8171 121.833 37.9412C121.876 37.8592 121.919 37.7741 121.962 37.6962C122.124 37.4041 122.29 37.1462 122.443 36.9181C122.529 36.7891 122.61 36.6741 122.688 36.5671C122.852 36.5472 123.517 36.4561 123.792 36.2991C124.066 36.1421 124.354 35.8842 124.385 35.5792C124.395 35.5078 124.388 35.4353 124.365 35.3664C124.342 35.2977 124.304 35.234 124.252 35.1798C124.201 35.1255 124.137 35.0818 124.065 35.0515C123.994 35.0213 123.916 35.0051 123.838 35.0042C123.363 35.0092 122.884 35.6551 122.758 36.0241C122.748 36.0561 122.641 36.5731 122.648 36.5722H122.658C122.582 36.6722 122.501 36.7832 122.415 36.9042C122.259 37.1292 122.087 37.3852 121.915 37.6751C121.729 37.9861 121.563 38.3067 121.418 38.6352C121.253 39.0025 121.125 39.3822 121.033 39.7701C121.033 39.7701 121.033 39.7792 121.033 39.7842C121.019 39.6582 120.968 39.3061 120.96 39.2842C120.857 38.9102 120.413 38.2412 119.942 38.2131C119.863 38.2106 119.785 38.2231 119.712 38.25C119.639 38.2769 119.573 38.3176 119.518 38.3692C119.464 38.4209 119.422 38.4825 119.395 38.55C119.368 38.6176 119.357 38.6895 119.362 38.7611C119.375 39.0671 119.654 39.3431 119.91 39.5092C120.201 39.6962 120.962 39.8251 121.022 39.8352C120.94 40.2314 120.888 40.6324 120.865 41.0352C120.849 41.2701 120.843 41.5071 120.838 41.7451C120.823 41.6361 120.808 41.5392 120.803 41.5261C120.701 41.1511 120.256 40.4821 119.786 40.4542C119.707 40.4514 119.629 40.4639 119.556 40.4907C119.482 40.5177 119.416 40.5583 119.362 40.6102C119.307 40.662 119.265 40.7237 119.238 40.7914C119.211 40.8592 119.2 40.9312 119.206 41.0032C119.218 41.3082 119.497 41.5852 119.753 41.7501C120.01 41.9152 120.662 42.0402 120.833 42.0701C120.833 42.1611 120.833 42.2532 120.833 42.3441C120.833 42.7811 120.833 43.2181 120.822 43.6441C120.822 43.7951 120.808 43.9441 120.798 44.0921C120.784 43.9921 120.771 43.9152 120.767 43.9022C120.663 43.5272 120.22 42.8592 119.749 42.8311C119.67 42.8285 119.592 42.8409 119.519 42.8677C119.446 42.8945 119.38 42.9352 119.325 42.9868C119.27 43.0385 119.228 43.1002 119.201 43.1678C119.174 43.2354 119.163 43.3074 119.169 43.3791C119.181 43.6852 119.461 43.9611 119.716 44.1272C119.971 44.2931 120.561 44.4051 120.765 44.4412C120.75 44.5931 120.736 44.7412 120.714 44.8921C120.696 44.9921 120.686 45.0921 120.663 45.1921C120.64 45.2921 120.621 45.3921 120.6 45.4861C120.552 45.6712 120.504 45.8621 120.453 46.0421C120.418 46.1671 120.383 46.2861 120.344 46.4051C120.35 46.2551 120.356 45.9611 120.353 45.9361C120.303 45.5993 120.16 45.2794 119.937 45.0071C119.934 44.9692 119.926 44.9318 119.915 44.8951C119.896 44.8254 119.862 44.7602 119.813 44.7035C119.765 44.6469 119.704 44.6001 119.634 44.5663C119.565 44.5326 119.488 44.5125 119.41 44.5075C119.331 44.5025 119.252 44.5125 119.178 44.5371C118.74 44.6972 118.544 45.4582 118.572 45.8441C118.572 45.8662 118.622 46.1111 118.656 46.2662C118.621 46.1782 118.588 46.0921 118.547 46.0022C118.476 45.8231 118.399 45.6472 118.316 45.4571L118.185 45.1832C118.144 45.0912 118.087 44.9981 118.038 44.9051C117.918 44.6902 117.786 44.4772 117.648 44.2662C117.819 44.2082 118.423 43.9951 118.65 43.7931C118.876 43.5912 119.103 43.2772 119.061 42.9741C119.054 42.9025 119.031 42.8331 118.992 42.7702C118.954 42.7075 118.901 42.6528 118.838 42.6097C118.775 42.5667 118.703 42.5363 118.626 42.5205C118.549 42.5047 118.469 42.5039 118.392 42.5181C117.93 42.6181 117.613 43.3412 117.576 43.7261C117.576 43.7501 117.582 44.0261 117.59 44.1821C117.505 44.0561 117.422 43.9291 117.332 43.8041C117.073 43.4421 116.799 43.0832 116.526 42.7231C116.443 42.6131 116.361 42.5032 116.279 42.3921C116.34 42.3722 117.064 42.1342 117.319 41.9071C117.545 41.7071 117.773 41.3912 117.73 41.0881C117.723 41.0164 117.699 40.947 117.661 40.8842C117.622 40.8215 117.57 40.7667 117.507 40.7237C117.444 40.6807 117.371 40.6504 117.294 40.6346C117.218 40.6188 117.138 40.618 117.061 40.6321C116.599 40.7321 116.281 41.4551 116.245 41.8402C116.245 41.8691 116.255 42.2701 116.264 42.3722C116.083 42.1292 115.905 41.8852 115.74 41.6381C115.515 41.3062 115.314 40.9611 115.139 40.6051C115.168 40.5951 115.924 40.3491 116.186 40.1171C116.412 39.9171 116.639 39.6011 116.597 39.2981C116.589 39.2265 116.566 39.1571 116.527 39.0944C116.489 39.0315 116.437 38.9769 116.373 38.934C116.31 38.891 116.238 38.8607 116.161 38.8451C116.084 38.8294 116.005 38.8287 115.927 38.8431C115.465 38.9431 115.148 39.6652 115.112 40.0501C115.112 40.0751 115.119 40.3811 115.127 40.5272L115.101 40.5321C114.939 40.166 114.813 39.7871 114.726 39.4001C114.672 39.1892 114.633 38.9852 114.6 38.7861C114.746 38.7532 115.413 38.5981 115.672 38.4121C115.932 38.2261 116.185 37.9451 116.18 37.6392C116.182 37.5673 116.167 37.4959 116.136 37.4297C116.105 37.3636 116.059 37.3042 116.002 37.2551C115.944 37.2062 115.876 37.1688 115.801 37.1456C115.727 37.1223 115.648 37.1136 115.569 37.1201C115.099 37.1701 114.694 37.8592 114.613 38.2381C114.613 38.2582 114.589 38.4731 114.577 38.6292C114.564 38.5392 114.549 38.4462 114.538 38.3592C114.496 38.0342 114.48 37.7342 114.468 37.4681C114.462 37.3171 114.46 37.1801 114.46 37.0522C114.585 36.9522 115.084 36.5412 115.219 36.2722C115.354 36.0032 115.438 35.6421 115.279 35.3722C115.244 35.3081 115.194 35.2516 115.133 35.2062C115.073 35.1609 115.002 35.1276 114.926 35.1088C114.85 35.0899 114.771 35.0859 114.694 35.0967C114.616 35.1076 114.542 35.1333 114.476 35.1722C114.082 35.4142 114.073 36.1951 114.191 36.5662C114.202 36.5981 114.425 37.0832 114.432 37.0782L114.439 37.0722C114.439 37.1951 114.439 37.3272 114.439 37.4722C114.439 37.7381 114.454 38.0402 114.488 38.3671C114.521 38.7201 114.576 39.0709 114.653 39.4181C114.738 39.8072 114.859 40.1886 115.018 40.5582L115.024 40.5712C114.937 40.4712 114.68 40.2061 114.658 40.1871C114.345 39.9272 113.573 39.5871 113.163 39.8071C113.095 39.8445 113.038 39.8944 112.993 39.9536C112.948 40.0127 112.918 40.0797 112.903 40.1504C112.889 40.2211 112.891 40.2937 112.909 40.3636C112.927 40.4335 112.962 40.4991 113.009 40.5561C113.204 40.8051 113.604 40.8951 113.92 40.9022C114.277 40.9111 114.989 40.6352 115.046 40.6131C115.217 40.9856 115.415 41.347 115.639 41.6951C115.769 41.8951 115.907 42.1001 116.047 42.3001C115.968 42.2171 115.897 42.1441 115.886 42.1342C115.573 41.8741 114.801 41.5342 114.389 41.7542C114.322 41.7913 114.264 41.841 114.22 41.8998C114.175 41.9586 114.145 42.0254 114.13 42.0958C114.116 42.1662 114.117 42.2384 114.135 42.3081C114.153 42.3778 114.187 42.4431 114.235 42.5001C114.428 42.7491 114.829 42.8391 115.146 42.8462C115.462 42.8532 116.077 42.6311 116.241 42.5691L116.403 42.8001C116.667 43.1662 116.932 43.5292 117.18 43.8921C117.268 44.0212 117.349 44.1501 117.431 44.2791C117.36 44.2051 117.301 44.1441 117.29 44.1352C116.978 43.8751 116.206 43.5402 115.794 43.7551C115.727 43.7926 115.669 43.8424 115.624 43.9015C115.579 43.9607 115.549 44.0278 115.534 44.0984C115.52 44.1691 115.522 44.2417 115.54 44.3116C115.558 44.3815 115.593 44.4472 115.641 44.5041C115.836 44.7532 116.236 44.8431 116.553 44.8501C116.869 44.8571 117.425 44.6522 117.617 44.5801Z" fill="#263238"/>
<path opacity="0.3" d="M113.349 38.742C113.704 38.842 114.528 38.734 114.528 38.734C114.528 38.734 114.287 38.259 114.268 38.234C114.041 37.9069 113.392 37.398 112.934 37.506C112.858 37.5259 112.788 37.5602 112.728 37.6065C112.668 37.6528 112.619 37.7102 112.585 37.775C112.55 37.8396 112.531 37.9102 112.529 37.9821C112.526 38.054 112.541 38.1255 112.57 38.192C112.687 38.4759 113.046 38.659 113.349 38.742Z" fill="#263238"/>
<path opacity="0.3" d="M121.728 38.0001C121.735 38.0001 121.813 37.4821 121.813 37.449C121.822 37.062 121.594 36.311 121.141 36.1701C121.066 36.1485 120.986 36.1416 120.908 36.1499C120.83 36.1581 120.755 36.1814 120.687 36.2182C120.619 36.2548 120.561 36.3042 120.515 36.3629C120.47 36.4217 120.439 36.4886 120.424 36.5591C120.347 36.8591 120.533 37.1911 120.738 37.4131C120.975 37.6751 121.726 38.0001 121.728 38.0001Z" fill="#263238"/>
<path opacity="0.3" d="M117.617 44.5801C117.696 44.7141 117.776 44.8491 117.846 44.9801C117.892 45.0722 117.942 45.1582 117.983 45.2532L118.108 45.5292C118.18 45.7082 118.255 45.8921 118.321 46.0671C118.367 46.1892 118.41 46.3061 118.452 46.4241C118.367 46.2951 118.193 46.0472 118.177 46.0241C117.911 45.7241 117.203 45.2852 116.761 45.4412C116.688 45.4688 116.623 45.51 116.569 45.5623C116.515 45.6146 116.473 45.6766 116.447 45.7444C116.421 45.8122 116.411 45.8843 116.418 45.956C116.424 46.0276 116.447 46.0972 116.485 46.1602C116.636 46.4332 117.017 46.5772 117.328 46.6292C117.671 46.6852 118.392 46.5212 118.482 46.5001C118.551 46.6951 118.618 46.8852 118.677 47.0662C118.787 47.3861 118.872 47.6801 118.947 47.9402H119.262C119.175 47.6611 119.07 47.3402 118.944 46.9892C118.874 46.7892 118.795 46.5801 118.712 46.3652C118.922 46.2607 119.125 46.1452 119.32 46.0191C119.591 46.2311 120.245 46.4421 120.329 46.4691C120.27 46.6691 120.21 46.8592 120.151 47.0392C120.041 47.3741 119.932 47.6772 119.834 47.9392H120.153C120.237 47.6912 120.328 47.4152 120.42 47.1092C120.482 46.9092 120.543 46.6931 120.603 46.4712C120.694 46.4792 121.436 46.5342 121.765 46.4282C122.063 46.3282 122.413 46.1282 122.514 45.8421C122.54 45.7744 122.551 45.7023 122.545 45.6305C122.538 45.5588 122.516 45.4891 122.478 45.4258C122.441 45.3627 122.389 45.3074 122.326 45.2636C122.264 45.2199 122.192 45.1888 122.115 45.1722C121.651 45.0842 121.03 45.6201 120.821 45.9561C120.809 45.9761 120.701 46.2051 120.636 46.3501C120.66 46.2602 120.684 46.1722 120.708 46.0782C120.756 45.8931 120.798 45.7071 120.844 45.5071L120.9 45.2131C120.922 45.1131 120.93 45.0131 120.946 44.9061C120.975 44.6662 120.994 44.4231 121.006 44.1772C121.183 44.2152 121.816 44.3421 122.128 44.2871C122.44 44.2321 122.818 44.0871 122.966 43.8111C123.003 43.7477 123.025 43.6779 123.031 43.6062C123.037 43.5346 123.026 43.4625 122.999 43.3949C122.972 43.3273 122.93 43.2657 122.876 43.2138C122.821 43.162 122.755 43.1212 122.682 43.0941C122.244 42.9431 121.536 43.3871 121.273 43.6941C121.257 43.7131 121.095 43.9501 121.009 44.0821C121.015 43.9342 121.022 43.7821 121.022 43.6361C121.022 43.2041 121.013 42.7662 121.003 42.3291C121.003 42.1951 121.003 42.0621 120.996 41.9292C121.06 41.9441 121.807 42.1092 122.157 42.0491C122.468 41.9941 122.847 41.8491 122.994 41.5731C123.032 41.5097 123.054 41.4399 123.06 41.3683C123.066 41.2965 123.055 41.2244 123.028 41.1567C123.002 41.0889 122.96 41.0271 122.905 40.9751C122.851 40.9231 122.785 40.8824 122.712 40.8551C122.267 40.7042 121.564 41.1491 121.303 41.4551C121.282 41.4782 121.05 41.8191 120.996 41.9082C120.996 41.6141 120.991 41.3212 121.002 41.0321C121.016 40.6419 121.057 40.2528 121.125 39.8671C121.155 39.8741 121.935 40.0501 122.293 39.9881C122.604 39.9342 122.982 39.7881 123.131 39.5121C123.168 39.4487 123.191 39.379 123.196 39.3072C123.202 39.2356 123.191 39.1636 123.164 39.0961C123.138 39.0285 123.095 38.9667 123.041 38.9149C122.986 38.8631 122.921 38.8222 122.848 38.7951C122.403 38.6431 121.701 39.0881 121.438 39.3951C121.421 39.4152 121.244 39.6751 121.163 39.8001L121.137 39.7912C121.218 39.4053 121.337 39.0268 121.491 38.6602C121.573 38.4602 121.664 38.2671 121.757 38.0842C121.898 38.1301 122.548 38.3361 122.877 38.3131C123.207 38.2902 123.587 38.1811 123.768 37.9241C123.812 37.8648 123.843 37.7976 123.857 37.7268C123.871 37.656 123.869 37.5832 123.851 37.5132C123.832 37.4433 123.798 37.3776 123.75 37.3205C123.702 37.2635 123.641 37.2163 123.571 37.1821C123.149 36.9871 122.397 37.3592 122.1 37.6342C122.083 37.6491 121.937 37.8171 121.833 37.9412C121.876 37.8592 121.919 37.7741 121.962 37.6962C122.124 37.4041 122.29 37.1462 122.443 36.9181C122.529 36.7891 122.61 36.6741 122.688 36.5671C122.852 36.5472 123.517 36.4561 123.792 36.2991C124.066 36.1421 124.354 35.8842 124.385 35.5792C124.395 35.5078 124.388 35.4353 124.365 35.3664C124.342 35.2977 124.304 35.234 124.252 35.1798C124.201 35.1255 124.137 35.0818 124.065 35.0515C123.994 35.0213 123.916 35.0051 123.838 35.0042C123.363 35.0092 122.884 35.6551 122.758 36.0241C122.748 36.0561 122.641 36.5731 122.648 36.5722H122.658C122.582 36.6722 122.501 36.7832 122.415 36.9042C122.259 37.1292 122.087 37.3852 121.915 37.6751C121.729 37.9861 121.563 38.3067 121.418 38.6352C121.253 39.0025 121.125 39.3822 121.033 39.7701C121.033 39.7701 121.033 39.7792 121.033 39.7842C121.019 39.6582 120.968 39.3061 120.96 39.2842C120.857 38.9102 120.413 38.2412 119.942 38.2131C119.863 38.2106 119.785 38.2231 119.712 38.25C119.639 38.2769 119.573 38.3176 119.518 38.3692C119.464 38.4209 119.422 38.4825 119.395 38.55C119.368 38.6176 119.357 38.6895 119.362 38.7611C119.375 39.0671 119.654 39.3431 119.91 39.5092C120.201 39.6962 120.962 39.8251 121.022 39.8352C120.94 40.2314 120.888 40.6324 120.865 41.0352C120.849 41.2701 120.843 41.5071 120.838 41.7451C120.823 41.6361 120.808 41.5392 120.803 41.5261C120.701 41.1511 120.256 40.4821 119.786 40.4542C119.707 40.4514 119.629 40.4639 119.556 40.4907C119.482 40.5177 119.416 40.5583 119.362 40.6102C119.307 40.662 119.265 40.7237 119.238 40.7914C119.211 40.8592 119.2 40.9312 119.206 41.0032C119.218 41.3082 119.497 41.5852 119.753 41.7501C120.01 41.9152 120.662 42.0402 120.833 42.0701C120.833 42.1611 120.833 42.2532 120.833 42.3441C120.833 42.7811 120.833 43.2181 120.822 43.6441C120.822 43.7951 120.808 43.9441 120.798 44.0921C120.784 43.9921 120.771 43.9152 120.767 43.9022C120.663 43.5272 120.22 42.8592 119.749 42.8311C119.67 42.8285 119.592 42.8409 119.519 42.8677C119.446 42.8945 119.38 42.9352 119.325 42.9868C119.27 43.0385 119.228 43.1002 119.201 43.1678C119.174 43.2354 119.163 43.3074 119.169 43.3791C119.181 43.6852 119.461 43.9611 119.716 44.1272C119.971 44.2931 120.561 44.4051 120.765 44.4412C120.75 44.5931 120.736 44.7412 120.714 44.8921C120.696 44.9921 120.686 45.0921 120.663 45.1921C120.64 45.2921 120.621 45.3921 120.6 45.4861C120.552 45.6712 120.504 45.8621 120.453 46.0421C120.418 46.1671 120.383 46.2861 120.344 46.4051C120.35 46.2551 120.356 45.9611 120.353 45.9361C120.303 45.5993 120.16 45.2794 119.937 45.0071C119.934 44.9692 119.926 44.9318 119.915 44.8951C119.896 44.8254 119.862 44.7602 119.813 44.7035C119.765 44.6469 119.704 44.6001 119.634 44.5663C119.565 44.5326 119.488 44.5125 119.41 44.5075C119.331 44.5025 119.252 44.5125 119.178 44.5371C118.74 44.6972 118.544 45.4582 118.572 45.8441C118.572 45.8662 118.622 46.1111 118.656 46.2662C118.621 46.1782 118.588 46.0921 118.547 46.0022C118.476 45.8231 118.399 45.6472 118.316 45.4571L118.185 45.1832C118.144 45.0912 118.087 44.9981 118.038 44.9051C117.918 44.6902 117.786 44.4772 117.648 44.2662C117.819 44.2082 118.423 43.9951 118.65 43.7931C118.876 43.5912 119.103 43.2772 119.061 42.9741C119.054 42.9025 119.031 42.8331 118.992 42.7702C118.954 42.7075 118.901 42.6528 118.838 42.6097C118.775 42.5667 118.703 42.5363 118.626 42.5205C118.549 42.5047 118.469 42.5039 118.392 42.5181C117.93 42.6181 117.613 43.3412 117.576 43.7261C117.576 43.7501 117.582 44.0261 117.59 44.1821C117.505 44.0561 117.422 43.9291 117.332 43.8041C117.073 43.4421 116.799 43.0832 116.526 42.7231C116.443 42.6131 116.361 42.5032 116.279 42.3921C116.34 42.3722 117.064 42.1342 117.319 41.9071C117.545 41.7071 117.773 41.3912 117.73 41.0881C117.723 41.0164 117.699 40.947 117.661 40.8842C117.622 40.8215 117.57 40.7667 117.507 40.7237C117.444 40.6807 117.371 40.6504 117.294 40.6346C117.218 40.6188 117.138 40.618 117.061 40.6321C116.599 40.7321 116.281 41.4551 116.245 41.8402C116.245 41.8691 116.255 42.2701 116.264 42.3722C116.083 42.1292 115.905 41.8852 115.74 41.6381C115.515 41.3062 115.314 40.9611 115.139 40.6051C115.168 40.5951 115.924 40.3491 116.186 40.1171C116.412 39.9171 116.639 39.6011 116.597 39.2981C116.589 39.2265 116.566 39.1571 116.527 39.0944C116.489 39.0315 116.437 38.9769 116.373 38.934C116.31 38.891 116.238 38.8607 116.161 38.8451C116.084 38.8294 116.005 38.8287 115.927 38.8431C115.465 38.9431 115.148 39.6652 115.112 40.0501C115.112 40.0751 115.119 40.3811 115.127 40.5272L115.101 40.5321C114.939 40.166 114.813 39.7871 114.726 39.4001C114.672 39.1892 114.633 38.9852 114.6 38.7861C114.746 38.7532 115.413 38.5981 115.672 38.4121C115.932 38.2261 116.185 37.9451 116.18 37.6392C116.182 37.5673 116.167 37.4959 116.136 37.4297C116.105 37.3636 116.059 37.3042 116.002 37.2551C115.944 37.2062 115.876 37.1688 115.801 37.1456C115.727 37.1223 115.648 37.1136 115.569 37.1201C115.099 37.1701 114.694 37.8592 114.613 38.2381C114.613 38.2582 114.589 38.4731 114.577 38.6292C114.564 38.5392 114.549 38.4462 114.538 38.3592C114.496 38.0342 114.48 37.7342 114.468 37.4681C114.462 37.3171 114.46 37.1801 114.46 37.0522C114.585 36.9522 115.084 36.5412 115.219 36.2722C115.354 36.0032 115.438 35.6421 115.279 35.3722C115.244 35.3081 115.194 35.2516 115.133 35.2062C115.073 35.1609 115.002 35.1276 114.926 35.1088C114.85 35.0899 114.771 35.0859 114.694 35.0967C114.616 35.1076 114.542 35.1333 114.476 35.1722C114.082 35.4142 114.073 36.1951 114.191 36.5662C114.202 36.5981 114.425 37.0832 114.432 37.0782L114.439 37.0722C114.439 37.1951 114.439 37.3272 114.439 37.4722C114.439 37.7381 114.454 38.0402 114.488 38.3671C114.521 38.7201 114.576 39.0709 114.653 39.4181C114.738 39.8072 114.859 40.1886 115.018 40.5582L115.024 40.5712C114.937 40.4712 114.68 40.2061 114.658 40.1871C114.345 39.9272 113.573 39.5871 113.163 39.8071C113.095 39.8445 113.038 39.8944 112.993 39.9536C112.948 40.0127 112.918 40.0797 112.903 40.1504C112.889 40.2211 112.891 40.2937 112.909 40.3636C112.927 40.4335 112.962 40.4991 113.009 40.5561C113.204 40.8051 113.604 40.8951 113.92 40.9022C114.277 40.9111 114.989 40.6352 115.046 40.6131C115.217 40.9856 115.415 41.347 115.639 41.6951C115.769 41.8951 115.907 42.1001 116.047 42.3001C115.968 42.2171 115.897 42.1441 115.886 42.1342C115.573 41.8741 114.801 41.5342 114.389 41.7542C114.322 41.7913 114.264 41.841 114.22 41.8998C114.175 41.9586 114.145 42.0254 114.13 42.0958C114.116 42.1662 114.117 42.2384 114.135 42.3081C114.153 42.3778 114.187 42.4431 114.235 42.5001C114.428 42.7491 114.829 42.8391 115.146 42.8462C115.462 42.8532 116.077 42.6311 116.241 42.5691L116.403 42.8001C116.667 43.1662 116.932 43.5292 117.18 43.8921C117.268 44.0212 117.349 44.1501 117.431 44.2791C117.36 44.2051 117.301 44.1441 117.29 44.1352C116.978 43.8751 116.206 43.5402 115.794 43.7551C115.727 43.7926 115.669 43.8424 115.624 43.9015C115.579 43.9607 115.549 44.0278 115.534 44.0984C115.52 44.1691 115.522 44.2417 115.54 44.3116C115.558 44.3815 115.593 44.4472 115.641 44.5041C115.836 44.7532 116.236 44.8431 116.553 44.8501C116.869 44.8571 117.425 44.6522 117.617 44.5801Z" fill="#263238"/>
<path d="M84.123 42.042C84.123 42.042 84.1734 41.735 84.1745 41.715C84.1745 41.4859 84.0409 41.04 83.7748 40.9561C83.7302 40.9427 83.683 40.938 83.6364 40.9427C83.5897 40.9474 83.5447 40.9611 83.5043 40.983C83.4639 41.0049 83.4292 41.0344 83.4024 41.0696C83.3756 41.1048 83.3573 41.1449 83.3489 41.1871C83.304 41.364 83.4157 41.5621 83.5361 41.6941C83.6774 41.8491 84.123 42.042 84.123 42.042Z" fill="#263238"/>
<path d="M79.1507 42.4829C79.361 42.5408 79.8504 42.4779 79.8504 42.4769C79.8504 42.4758 79.707 42.1959 79.696 42.1769C79.5614 41.9829 79.177 41.6769 78.9044 41.7447C78.8588 41.7558 78.8164 41.7755 78.7799 41.8027C78.7435 41.8299 78.7139 41.864 78.6931 41.9027C78.6723 41.9413 78.6609 41.9834 78.6596 42.0265C78.6582 42.0695 78.667 42.1122 78.6854 42.1519C78.7576 42.3238 78.9766 42.4329 79.1507 42.4829Z" fill="#263238"/>
<path d="M81.6845 45.9484C81.7316 46.0284 81.7787 46.1083 81.8203 46.1874C81.8477 46.2414 81.8772 46.2924 81.9013 46.3494C81.9254 46.4064 81.9506 46.4594 81.9758 46.5133C82.0185 46.6193 82.0634 46.7284 82.1017 46.8323C82.1302 46.9044 82.1553 46.9744 82.1805 47.0443C82.1291 46.9674 82.0261 46.8203 82.0163 46.8094C81.8586 46.6304 81.4381 46.3703 81.1764 46.4624C81.1332 46.4788 81.0943 46.5034 81.0622 46.5346C81.03 46.5657 81.0054 46.6026 80.9899 46.643C80.9744 46.6833 80.9684 46.7262 80.9722 46.7688C80.9761 46.8115 80.9897 46.8529 81.0122 46.8904C81.102 47.0523 81.3286 47.1374 81.5126 47.1684C81.7163 47.2013 82.1444 47.1044 82.198 47.0914C82.2397 47.2073 82.278 47.3203 82.3075 47.4273C82.371 47.6174 82.4236 47.7924 82.4685 47.9464H82.6557C82.6032 47.7804 82.5462 47.5914 82.4674 47.3823C82.4258 47.2643 82.3787 47.1393 82.3284 47.0114C82.4534 46.9497 82.5741 46.8808 82.6897 46.8054C82.8507 46.9314 83.2372 47.0573 83.2897 47.0734C83.2536 47.1904 83.2186 47.3044 83.1802 47.4114C83.1156 47.6114 83.051 47.7904 82.993 47.9464H83.1813C83.2317 47.7994 83.2908 47.6354 83.3412 47.4544C83.3773 47.3354 83.4135 47.2073 83.4507 47.0754C83.5043 47.0754 83.9445 47.1124 84.1394 47.0494C84.3168 46.9924 84.5249 46.8744 84.5851 46.7013C84.6019 46.661 84.609 46.6178 84.6059 46.5747C84.6027 46.5315 84.5894 46.4896 84.5668 46.4516C84.5443 46.4136 84.513 46.3805 84.4751 46.3545C84.4373 46.3287 84.3937 46.3105 84.3475 46.3013C84.0726 46.2484 83.7036 46.5674 83.581 46.7664C83.5733 46.7784 83.5098 46.9143 83.4715 47.0004C83.4857 46.9464 83.5011 46.8943 83.5153 46.8383C83.5438 46.7294 83.5679 46.6184 83.5952 46.4994C83.6062 46.4424 83.6182 46.3833 83.6292 46.3254C83.6401 46.2674 83.6467 46.2044 83.6555 46.1424C83.6741 46.0004 83.685 45.8564 83.6916 45.7104C83.8011 45.7323 84.1723 45.8104 84.3573 45.7754C84.5424 45.7404 84.7669 45.6564 84.8555 45.4934C84.8784 45.4559 84.8923 45.4143 84.8961 45.3714C84.8999 45.3287 84.8936 45.2857 84.8776 45.2453C84.8616 45.2048 84.8363 45.1681 84.8034 45.1374C84.7705 45.1068 84.7308 45.0829 84.6869 45.0674C84.423 44.9773 84.0059 45.2414 83.8504 45.4214C83.8405 45.4323 83.7409 45.5734 83.6938 45.6513C83.6938 45.5633 83.7014 45.4763 83.7014 45.3874C83.7014 45.1304 83.7014 44.8703 83.6894 44.6114V44.3734C83.7266 44.3814 84.1712 44.4804 84.3781 44.4434C84.5621 44.4114 84.7877 44.3244 84.8753 44.1614C84.8982 44.124 84.9121 44.0825 84.9159 44.0397C84.9198 43.9969 84.9136 43.9538 84.8977 43.9135C84.8818 43.8731 84.8567 43.8364 84.8239 43.8057C84.7911 43.7749 84.7515 43.7509 84.7077 43.7354C84.4438 43.6453 84.0266 43.9094 83.8712 44.0893C83.8591 44.1034 83.7212 44.3054 83.6894 44.3583C83.6894 44.1844 83.6894 44.0104 83.6894 43.8383C83.6974 43.6068 83.7219 43.3761 83.7628 43.1474C83.7803 43.1474 84.2434 43.2554 84.4559 43.2184C84.6398 43.1864 84.8654 43.0994 84.953 42.9364C84.9759 42.899 84.9898 42.8575 84.9937 42.8147C84.9975 42.7719 84.9913 42.7288 84.9754 42.6885C84.9596 42.6481 84.9344 42.6114 84.9016 42.5807C84.8689 42.5499 84.8292 42.5259 84.7855 42.5104C84.5216 42.4203 84.1044 42.6844 83.9478 42.8643C83.938 42.8763 83.8383 43.0304 83.7847 43.1044L83.7693 43.0994C83.8177 42.8702 83.8881 42.6453 83.9796 42.4273C84.0288 42.3073 84.0825 42.1944 84.1372 42.0864C84.2216 42.1133 84.607 42.2354 84.803 42.2214C84.999 42.2073 85.2234 42.1434 85.3308 41.9914C85.358 41.9564 85.3767 41.9166 85.3856 41.8744C85.3945 41.8323 85.3934 41.7889 85.3824 41.7473C85.3714 41.7055 85.3508 41.6664 85.3218 41.6328C85.2929 41.599 85.2564 41.5712 85.2147 41.5513C84.964 41.4354 84.5172 41.6513 84.3387 41.8184C84.3289 41.8273 84.2424 41.9273 84.1799 42.0013C84.2062 41.9523 84.2314 41.9013 84.2577 41.8564C84.3529 41.6823 84.4526 41.5294 84.5424 41.3943C84.5938 41.3174 84.642 41.2494 84.688 41.1854C84.7855 41.1734 85.1797 41.1193 85.345 41.0263C85.5103 40.9333 85.6801 40.7804 85.6976 40.5994C85.7042 40.5566 85.7006 40.5131 85.6871 40.4716C85.6736 40.4302 85.6505 40.392 85.6193 40.3596C85.5881 40.327 85.5496 40.3011 85.5064 40.2835C85.4632 40.2659 85.4164 40.2569 85.3691 40.2573C85.0877 40.2573 84.803 40.6443 84.7285 40.8633C84.722 40.8823 84.6595 41.1893 84.6639 41.1883H84.6705C84.6245 41.2494 84.5763 41.3143 84.526 41.3883C84.4329 41.5214 84.3289 41.6734 84.2292 41.8464C84.1184 42.0305 84.0197 42.2205 83.9336 42.4154C83.8359 42.6335 83.7597 42.859 83.7058 43.0893C83.7058 43.0893 83.7058 43.0953 83.7058 43.0974C83.6982 43.0224 83.6675 42.8143 83.6631 42.7974C83.6018 42.5744 83.3346 42.1773 83.0587 42.1614C83.0118 42.159 82.9649 42.166 82.9212 42.1816C82.8774 42.1973 82.8379 42.2213 82.8052 42.2522C82.7725 42.2829 82.7474 42.3198 82.7317 42.3603C82.7159 42.4006 82.7098 42.4436 82.7138 42.4864C82.7214 42.6684 82.8868 42.8323 83.0423 42.9304C83.2153 43.0414 83.6664 43.1184 83.6993 43.1244C83.6511 43.3599 83.62 43.5981 83.6062 43.8374C83.5974 43.9763 83.593 44.1174 83.5909 44.2583C83.581 44.1934 83.5722 44.1364 83.57 44.1284C83.5087 43.9054 83.2416 43.5083 82.9656 43.4924C82.9187 43.49 82.8718 43.497 82.8281 43.5126C82.7844 43.5283 82.7448 43.5523 82.7121 43.5832C82.6794 43.6139 82.6544 43.6508 82.6386 43.6913C82.6228 43.7316 82.6167 43.7747 82.6207 43.8174C82.6284 43.9994 82.7937 44.1633 82.9492 44.2614C83.1047 44.3594 83.4879 44.4333 83.5898 44.4513C83.5898 44.5054 83.5898 44.5594 83.5898 44.6133C83.5898 44.8734 83.5898 45.1323 83.5832 45.3874C83.5832 45.4763 83.5744 45.5654 83.569 45.6534C83.5602 45.5953 83.5525 45.5474 83.5503 45.5404C83.489 45.3174 83.2273 44.9203 82.9459 44.9044C82.8991 44.9022 82.8523 44.9093 82.8087 44.9249C82.7651 44.9407 82.7257 44.9647 82.6932 44.9956C82.6606 45.0263 82.6356 45.0631 82.6199 45.1034C82.6042 45.1438 82.5981 45.1867 82.6021 45.2294C82.6098 45.4114 82.7751 45.5754 82.9306 45.6734C83.0861 45.7714 83.4321 45.8383 83.5525 45.8604C83.5438 45.9504 83.535 46.0404 83.5219 46.1273C83.512 46.1874 83.5065 46.2444 83.4923 46.3034C83.4781 46.3624 83.4671 46.4203 83.454 46.4784C83.4266 46.5874 83.3981 46.7013 83.3675 46.8083C83.3467 46.8823 83.3259 46.9525 83.304 47.0234C83.304 46.9344 83.3116 46.7604 83.304 46.7453C83.2754 46.545 83.1905 46.3548 83.0576 46.1934C83.0553 46.171 83.0509 46.149 83.0445 46.1273C83.0338 46.0855 83.0135 46.0463 82.9848 46.0124C82.9562 45.9783 82.9199 45.9504 82.8783 45.9302C82.8368 45.9101 82.7911 45.8984 82.7442 45.8959C82.6973 45.8934 82.6503 45.8999 82.6065 45.9154C82.3459 46.0104 82.2309 46.4614 82.2473 46.6904C82.2473 46.7044 82.2769 46.8494 82.2966 46.9404C82.2758 46.8883 82.2572 46.8404 82.2353 46.7844C82.1926 46.6784 82.1466 46.5734 82.0984 46.4614L82.0294 46.3004C82.0053 46.2453 81.9714 46.1904 81.9418 46.1344C81.8717 46.0073 81.7929 45.8814 81.7108 45.7554C81.8126 45.7214 82.1707 45.5953 82.3053 45.4754C82.44 45.3554 82.5747 45.1684 82.5506 44.9883C82.547 44.9456 82.5334 44.9041 82.5107 44.8666C82.488 44.829 82.4568 44.7963 82.4192 44.7707C82.3815 44.7452 82.3383 44.7273 82.2924 44.7182C82.2465 44.7092 82.199 44.7093 82.1532 44.7184C81.8783 44.7763 81.69 45.2064 81.6692 45.4354C81.6692 45.4494 81.6692 45.6154 81.6768 45.7064C81.6265 45.6314 81.5772 45.5554 81.5235 45.4814C81.3703 45.2664 81.2071 45.0534 81.045 44.8404L80.8983 44.6404C80.9345 44.6284 81.3648 44.4874 81.5159 44.3523C81.667 44.2174 81.7852 44.0464 81.7601 43.8664C81.755 43.8242 81.7405 43.7836 81.7173 43.747C81.6941 43.7103 81.6628 43.6784 81.6255 43.6534C81.5881 43.6284 81.5454 43.6108 81.5001 43.6016C81.4549 43.5925 81.408 43.5921 81.3626 43.6004C81.0888 43.6583 80.8994 44.0893 80.8786 44.3174C80.8786 44.3344 80.8786 44.5734 80.8896 44.6333C80.7801 44.4893 80.6706 44.3443 80.5786 44.1984C80.4449 44.0011 80.3257 43.796 80.2216 43.5844C80.2391 43.5784 80.6881 43.4323 80.8436 43.2953C80.9772 43.1754 81.1118 42.9883 81.0878 42.8083C81.0841 42.7656 81.0705 42.7241 81.0478 42.6865C81.0252 42.649 80.9939 42.6164 80.9563 42.5907C80.9186 42.5652 80.8754 42.5473 80.8295 42.5382C80.7836 42.5293 80.7361 42.5293 80.6903 42.5383C80.4154 42.5964 80.2271 43.0263 80.2063 43.2554C80.2063 43.2703 80.2063 43.4554 80.2151 43.5383H80.1986C80.1003 43.3231 80.0234 43.1002 79.9687 42.8724C79.9358 42.7474 79.9128 42.6263 79.8931 42.5073C79.9807 42.4883 80.376 42.3953 80.5304 42.2854C80.6848 42.1754 80.8348 42.0083 80.8315 41.8273C80.8332 41.7844 80.8247 41.7417 80.8068 41.702C80.7888 41.6624 80.7618 41.6268 80.7274 41.5974C80.693 41.5682 80.6522 41.5459 80.6076 41.5323C80.5631 41.5187 80.5158 41.5139 80.4691 41.5184C80.1899 41.5484 79.9501 41.9573 79.9019 42.1823C79.9019 42.1943 79.8866 42.3214 79.88 42.4143C79.8723 42.3604 79.8625 42.3054 79.8559 42.2544C79.8318 42.0614 79.822 41.8833 79.8143 41.7254C79.8143 41.6354 79.8143 41.5544 79.8143 41.4784C79.8888 41.4184 80.1855 41.1784 80.2654 41.0154C80.3453 40.8523 80.3957 40.6414 80.3016 40.4814C80.2807 40.4431 80.2512 40.4093 80.2151 40.3821C80.1789 40.355 80.1369 40.335 80.0918 40.3235C80.0467 40.3121 79.9994 40.3096 79.9531 40.3159C79.9068 40.3223 79.8625 40.3374 79.8231 40.3604C79.5909 40.5044 79.5843 40.9674 79.6555 41.1883C79.6555 41.2073 79.7935 41.4953 79.7979 41.4883C79.7979 41.5614 79.7979 41.6404 79.7979 41.7254C79.7979 41.8844 79.8066 42.0624 79.8263 42.2573C79.8456 42.467 79.8785 42.6754 79.9249 42.8814C79.975 43.1124 80.0483 43.3386 80.1439 43.5573V43.5654C80.0913 43.5073 79.9402 43.3484 79.9249 43.3374C79.7387 43.1833 79.281 42.9844 79.0369 43.1114C78.9964 43.1332 78.9615 43.1625 78.9345 43.1977C78.9075 43.2328 78.8891 43.2728 78.8804 43.315C78.8718 43.3572 78.8732 43.4005 78.8845 43.4421C78.8958 43.4839 78.9168 43.5227 78.946 43.5564C79.0555 43.7044 79.2986 43.7564 79.4869 43.7624C79.6982 43.7674 80.1209 43.6034 80.1548 43.5904C80.2567 43.8117 80.3753 44.0261 80.5096 44.2323C80.5862 44.3534 80.6673 44.4734 80.7505 44.5914C80.7045 44.5424 80.6618 44.4994 80.6552 44.4914C80.4691 44.3374 80.0114 44.1383 79.7672 44.2654C79.7267 44.2871 79.6918 44.3166 79.6648 44.3516C79.6378 44.3868 79.6194 44.4268 79.6108 44.4689C79.6022 44.5111 79.6036 44.5545 79.6149 44.5962C79.6262 44.6378 79.6471 44.6768 79.6763 44.7104C79.7858 44.8583 80.0289 44.9104 80.2172 44.9164C80.4056 44.9224 80.7647 44.7883 80.8666 44.7513C80.8994 44.7964 80.9312 44.8424 80.9629 44.8874C81.1206 45.1044 81.2772 45.3203 81.425 45.5354C81.4765 45.6114 81.5246 45.6883 81.5739 45.7654C81.5323 45.7214 81.4962 45.6854 81.4907 45.6804C81.3046 45.5254 80.8458 45.3263 80.6016 45.4544C80.5608 45.4761 80.5257 45.5054 80.4985 45.5406C80.4713 45.5758 80.4527 45.6159 80.4439 45.6582C80.4352 45.7005 80.4366 45.7441 80.4479 45.7858C80.4592 45.8276 80.4803 45.8667 80.5096 45.9004C80.6191 46.0474 80.8622 46.1004 81.0505 46.1054C81.2389 46.1104 81.5706 45.9914 81.6845 45.9484Z" fill="#263238"/>
<path opacity="0.3" d="M79.1507 42.4829C79.361 42.5408 79.8504 42.4779 79.8504 42.4769C79.8504 42.4758 79.707 42.1959 79.696 42.1769C79.5614 41.9829 79.177 41.6769 78.9044 41.7447C78.8588 41.7558 78.8164 41.7755 78.7799 41.8027C78.7435 41.8299 78.7139 41.864 78.6931 41.9027C78.6723 41.9413 78.6609 41.9834 78.6596 42.0265C78.6582 42.0695 78.667 42.1122 78.6854 42.1519C78.7576 42.3238 78.9766 42.4329 79.1507 42.4829Z" fill="#263238"/>
<path opacity="0.3" d="M84.123 42.042C84.123 42.042 84.1734 41.735 84.1745 41.715C84.1745 41.4859 84.0409 41.04 83.7748 40.9561C83.7302 40.9427 83.683 40.938 83.6364 40.9427C83.5897 40.9474 83.5447 40.9611 83.5043 40.983C83.4639 41.0049 83.4292 41.0344 83.4024 41.0696C83.3756 41.1048 83.3573 41.1449 83.3489 41.1871C83.304 41.364 83.4157 41.5621 83.5361 41.6941C83.6774 41.8491 84.123 42.042 84.123 42.042Z" fill="#263238"/>
<path opacity="0.3" d="M81.6845 45.9484C81.7316 46.0284 81.7787 46.1083 81.8203 46.1874C81.8477 46.2414 81.8772 46.2924 81.9013 46.3494C81.9254 46.4064 81.9506 46.4594 81.9758 46.5133C82.0185 46.6193 82.0634 46.7284 82.1017 46.8323C82.1302 46.9044 82.1553 46.9744 82.1805 47.0443C82.1291 46.9674 82.0261 46.8203 82.0163 46.8094C81.8586 46.6304 81.4381 46.3703 81.1764 46.4624C81.1332 46.4788 81.0943 46.5034 81.0622 46.5346C81.03 46.5657 81.0054 46.6026 80.9899 46.643C80.9744 46.6833 80.9684 46.7262 80.9722 46.7688C80.9761 46.8115 80.9897 46.8529 81.0122 46.8904C81.102 47.0523 81.3286 47.1374 81.5126 47.1684C81.7163 47.2013 82.1444 47.1044 82.198 47.0914C82.2397 47.2073 82.278 47.3203 82.3075 47.4273C82.371 47.6174 82.4236 47.7924 82.4685 47.9464H82.6557C82.6032 47.7804 82.5462 47.5914 82.4674 47.3823C82.4258 47.2643 82.3787 47.1393 82.3284 47.0114C82.4534 46.9497 82.5741 46.8808 82.6897 46.8054C82.8507 46.9314 83.2372 47.0573 83.2897 47.0734C83.2536 47.1904 83.2186 47.3044 83.1802 47.4114C83.1156 47.6114 83.051 47.7904 82.993 47.9464H83.1813C83.2317 47.7994 83.2908 47.6354 83.3412 47.4544C83.3773 47.3354 83.4135 47.2073 83.4507 47.0754C83.5043 47.0754 83.9445 47.1124 84.1394 47.0494C84.3168 46.9924 84.5249 46.8744 84.5851 46.7013C84.6019 46.661 84.609 46.6178 84.6059 46.5747C84.6027 46.5315 84.5894 46.4896 84.5668 46.4516C84.5443 46.4136 84.513 46.3805 84.4751 46.3545C84.4373 46.3287 84.3937 46.3105 84.3475 46.3013C84.0726 46.2484 83.7036 46.5674 83.581 46.7664C83.5733 46.7784 83.5098 46.9143 83.4715 47.0004C83.4857 46.9464 83.5011 46.8943 83.5153 46.8383C83.5438 46.7294 83.5679 46.6184 83.5952 46.4994C83.6062 46.4424 83.6182 46.3833 83.6292 46.3254C83.6401 46.2674 83.6467 46.2044 83.6555 46.1424C83.6741 46.0004 83.685 45.8564 83.6916 45.7104C83.8011 45.7323 84.1723 45.8104 84.3573 45.7754C84.5424 45.7404 84.7669 45.6564 84.8555 45.4934C84.8784 45.4559 84.8923 45.4143 84.8961 45.3714C84.8999 45.3287 84.8936 45.2857 84.8776 45.2453C84.8616 45.2048 84.8363 45.1681 84.8034 45.1374C84.7705 45.1068 84.7308 45.0829 84.6869 45.0674C84.423 44.9773 84.0059 45.2414 83.8504 45.4214C83.8405 45.4323 83.7409 45.5734 83.6938 45.6513C83.6938 45.5633 83.7014 45.4763 83.7014 45.3874C83.7014 45.1304 83.7014 44.8703 83.6894 44.6114V44.3734C83.7266 44.3814 84.1712 44.4804 84.3781 44.4434C84.5621 44.4114 84.7877 44.3244 84.8753 44.1614C84.8982 44.124 84.9121 44.0825 84.9159 44.0397C84.9198 43.9969 84.9136 43.9538 84.8977 43.9135C84.8818 43.8731 84.8567 43.8364 84.8239 43.8057C84.7911 43.7749 84.7515 43.7509 84.7077 43.7354C84.4438 43.6453 84.0266 43.9094 83.8712 44.0893C83.8591 44.1034 83.7212 44.3054 83.6894 44.3583C83.6894 44.1844 83.6894 44.0104 83.6894 43.8383C83.6974 43.6068 83.7219 43.3761 83.7628 43.1474C83.7803 43.1474 84.2434 43.2554 84.4559 43.2184C84.6398 43.1864 84.8654 43.0994 84.953 42.9364C84.9759 42.899 84.9898 42.8575 84.9937 42.8147C84.9975 42.7719 84.9913 42.7288 84.9754 42.6885C84.9596 42.6481 84.9344 42.6114 84.9016 42.5807C84.8689 42.5499 84.8292 42.5259 84.7855 42.5104C84.5216 42.4203 84.1044 42.6844 83.9478 42.8643C83.938 42.8763 83.8383 43.0304 83.7847 43.1044L83.7693 43.0994C83.8177 42.8702 83.8881 42.6453 83.9796 42.4273C84.0288 42.3073 84.0825 42.1944 84.1372 42.0864C84.2216 42.1133 84.607 42.2354 84.803 42.2214C84.999 42.2073 85.2234 42.1434 85.3308 41.9914C85.358 41.9564 85.3767 41.9166 85.3856 41.8744C85.3945 41.8323 85.3934 41.7889 85.3824 41.7473C85.3714 41.7055 85.3508 41.6664 85.3218 41.6328C85.2929 41.599 85.2564 41.5712 85.2147 41.5513C84.964 41.4354 84.5172 41.6513 84.3387 41.8184C84.3289 41.8273 84.2424 41.9273 84.1799 42.0013C84.2062 41.9523 84.2314 41.9013 84.2577 41.8564C84.3529 41.6823 84.4526 41.5294 84.5424 41.3943C84.5938 41.3174 84.642 41.2494 84.688 41.1854C84.7855 41.1734 85.1797 41.1193 85.345 41.0263C85.5103 40.9333 85.6801 40.7804 85.6976 40.5994C85.7042 40.5566 85.7006 40.5131 85.6871 40.4716C85.6736 40.4302 85.6505 40.392 85.6193 40.3596C85.5881 40.327 85.5496 40.3011 85.5064 40.2835C85.4632 40.2659 85.4164 40.2569 85.3691 40.2573C85.0877 40.2573 84.803 40.6443 84.7285 40.8633C84.722 40.8823 84.6595 41.1893 84.6639 41.1883H84.6705C84.6245 41.2494 84.5763 41.3143 84.526 41.3883C84.4329 41.5214 84.3289 41.6734 84.2292 41.8464C84.1184 42.0305 84.0197 42.2205 83.9336 42.4154C83.8359 42.6335 83.7597 42.859 83.7058 43.0893C83.7058 43.0893 83.7058 43.0953 83.7058 43.0974C83.6982 43.0224 83.6675 42.8143 83.6631 42.7974C83.6018 42.5744 83.3346 42.1773 83.0587 42.1614C83.0118 42.159 82.9649 42.166 82.9212 42.1816C82.8774 42.1973 82.8379 42.2213 82.8052 42.2522C82.7725 42.2829 82.7474 42.3198 82.7317 42.3603C82.7159 42.4006 82.7098 42.4436 82.7138 42.4864C82.7214 42.6684 82.8868 42.8323 83.0423 42.9304C83.2153 43.0414 83.6664 43.1184 83.6993 43.1244C83.6511 43.3599 83.62 43.5981 83.6062 43.8374C83.5974 43.9763 83.593 44.1174 83.5909 44.2583C83.581 44.1934 83.5722 44.1364 83.57 44.1284C83.5087 43.9054 83.2416 43.5083 82.9656 43.4924C82.9187 43.49 82.8718 43.497 82.8281 43.5126C82.7844 43.5283 82.7448 43.5523 82.7121 43.5832C82.6794 43.6139 82.6544 43.6508 82.6386 43.6913C82.6228 43.7316 82.6167 43.7747 82.6207 43.8174C82.6284 43.9994 82.7937 44.1633 82.9492 44.2614C83.1047 44.3594 83.4879 44.4333 83.5898 44.4513C83.5898 44.5054 83.5898 44.5594 83.5898 44.6133C83.5898 44.8734 83.5898 45.1323 83.5832 45.3874C83.5832 45.4763 83.5744 45.5654 83.569 45.6534C83.5602 45.5953 83.5525 45.5474 83.5503 45.5404C83.489 45.3174 83.2273 44.9203 82.9459 44.9044C82.8991 44.9022 82.8523 44.9093 82.8087 44.9249C82.7651 44.9407 82.7257 44.9647 82.6932 44.9956C82.6606 45.0263 82.6356 45.0631 82.6199 45.1034C82.6042 45.1438 82.5981 45.1867 82.6021 45.2294C82.6098 45.4114 82.7751 45.5754 82.9306 45.6734C83.0861 45.7714 83.4321 45.8383 83.5525 45.8604C83.5438 45.9504 83.535 46.0404 83.5219 46.1273C83.512 46.1874 83.5065 46.2444 83.4923 46.3034C83.4781 46.3624 83.4671 46.4203 83.454 46.4784C83.4266 46.5874 83.3981 46.7013 83.3675 46.8083C83.3467 46.8823 83.3259 46.9525 83.304 47.0234C83.304 46.9344 83.3116 46.7604 83.304 46.7453C83.2754 46.545 83.1905 46.3548 83.0576 46.1934C83.0553 46.171 83.0509 46.149 83.0445 46.1273C83.0338 46.0855 83.0135 46.0463 82.9848 46.0124C82.9562 45.9783 82.9199 45.9504 82.8783 45.9302C82.8368 45.9101 82.7911 45.8984 82.7442 45.8959C82.6973 45.8934 82.6503 45.8999 82.6065 45.9154C82.3459 46.0104 82.2309 46.4614 82.2473 46.6904C82.2473 46.7044 82.2769 46.8494 82.2966 46.9404C82.2758 46.8883 82.2572 46.8404 82.2353 46.7844C82.1926 46.6784 82.1466 46.5734 82.0984 46.4614L82.0294 46.3004C82.0053 46.2453 81.9714 46.1904 81.9418 46.1344C81.8717 46.0073 81.7929 45.8814 81.7108 45.7554C81.8126 45.7214 82.1707 45.5953 82.3053 45.4754C82.44 45.3554 82.5747 45.1684 82.5506 44.9883C82.547 44.9456 82.5334 44.9041 82.5107 44.8666C82.488 44.829 82.4568 44.7963 82.4192 44.7707C82.3815 44.7452 82.3383 44.7273 82.2924 44.7182C82.2465 44.7092 82.199 44.7093 82.1532 44.7184C81.8783 44.7763 81.69 45.2064 81.6692 45.4354C81.6692 45.4494 81.6692 45.6154 81.6768 45.7064C81.6265 45.6314 81.5772 45.5554 81.5235 45.4814C81.3703 45.2664 81.2071 45.0534 81.045 44.8404L80.8983 44.6404C80.9345 44.6284 81.3648 44.4874 81.5159 44.3523C81.667 44.2174 81.7852 44.0464 81.7601 43.8664C81.755 43.8242 81.7405 43.7836 81.7173 43.747C81.6941 43.7103 81.6628 43.6784 81.6255 43.6534C81.5881 43.6284 81.5454 43.6108 81.5001 43.6016C81.4549 43.5925 81.408 43.5921 81.3626 43.6004C81.0888 43.6583 80.8994 44.0893 80.8786 44.3174C80.8786 44.3344 80.8786 44.5734 80.8896 44.6333C80.7801 44.4893 80.6706 44.3443 80.5786 44.1984C80.4449 44.0011 80.3257 43.796 80.2216 43.5844C80.2391 43.5784 80.6881 43.4323 80.8436 43.2953C80.9772 43.1754 81.1118 42.9883 81.0878 42.8083C81.0841 42.7656 81.0705 42.7241 81.0478 42.6865C81.0252 42.649 80.9939 42.6164 80.9563 42.5907C80.9186 42.5652 80.8754 42.5473 80.8295 42.5382C80.7836 42.5293 80.7361 42.5293 80.6903 42.5383C80.4154 42.5964 80.2271 43.0263 80.2063 43.2554C80.2063 43.2703 80.2063 43.4554 80.2151 43.5383H80.1986C80.1003 43.3231 80.0234 43.1002 79.9687 42.8724C79.9358 42.7474 79.9128 42.6263 79.8931 42.5073C79.9807 42.4883 80.376 42.3953 80.5304 42.2854C80.6848 42.1754 80.8348 42.0083 80.8315 41.8273C80.8332 41.7844 80.8247 41.7417 80.8068 41.702C80.7888 41.6624 80.7618 41.6268 80.7274 41.5974C80.693 41.5682 80.6522 41.5459 80.6076 41.5323C80.5631 41.5187 80.5158 41.5139 80.4691 41.5184C80.1899 41.5484 79.9501 41.9573 79.9019 42.1823C79.9019 42.1943 79.8866 42.3214 79.88 42.4143C79.8723 42.3604 79.8625 42.3054 79.8559 42.2544C79.8318 42.0614 79.822 41.8833 79.8143 41.7254C79.8143 41.6354 79.8143 41.5544 79.8143 41.4784C79.8888 41.4184 80.1855 41.1784 80.2654 41.0154C80.3453 40.8523 80.3957 40.6414 80.3016 40.4814C80.2807 40.4431 80.2512 40.4093 80.2151 40.3821C80.1789 40.355 80.1369 40.335 80.0918 40.3235C80.0467 40.3121 79.9994 40.3096 79.9531 40.3159C79.9068 40.3223 79.8625 40.3374 79.8231 40.3604C79.5909 40.5044 79.5843 40.9674 79.6555 41.1883C79.6555 41.2073 79.7935 41.4953 79.7979 41.4883C79.7979 41.5614 79.7979 41.6404 79.7979 41.7254C79.7979 41.8844 79.8066 42.0624 79.8263 42.2573C79.8456 42.467 79.8785 42.6754 79.9249 42.8814C79.975 43.1124 80.0483 43.3386 80.1439 43.5573V43.5654C80.0913 43.5073 79.9402 43.3484 79.9249 43.3374C79.7387 43.1833 79.281 42.9844 79.0369 43.1114C78.9964 43.1332 78.9615 43.1625 78.9345 43.1977C78.9075 43.2328 78.8891 43.2728 78.8804 43.315C78.8718 43.3572 78.8732 43.4005 78.8845 43.4421C78.8958 43.4839 78.9168 43.5227 78.946 43.5564C79.0555 43.7044 79.2986 43.7564 79.4869 43.7624C79.6982 43.7674 80.1209 43.6034 80.1548 43.5904C80.2567 43.8117 80.3753 44.0261 80.5096 44.2323C80.5862 44.3534 80.6673 44.4734 80.7505 44.5914C80.7045 44.5424 80.6618 44.4994 80.6552 44.4914C80.4691 44.3374 80.0114 44.1383 79.7672 44.2654C79.7267 44.2871 79.6918 44.3166 79.6648 44.3516C79.6378 44.3868 79.6194 44.4268 79.6108 44.4689C79.6022 44.5111 79.6036 44.5545 79.6149 44.5962C79.6262 44.6378 79.6471 44.6768 79.6763 44.7104C79.7858 44.8583 80.0289 44.9104 80.2172 44.9164C80.4056 44.9224 80.7647 44.7883 80.8666 44.7513C80.8994 44.7964 80.9312 44.8424 80.9629 44.8874C81.1206 45.1044 81.2772 45.3203 81.425 45.5354C81.4765 45.6114 81.5246 45.6883 81.5739 45.7654C81.5323 45.7214 81.4962 45.6854 81.4907 45.6804C81.3046 45.5254 80.8458 45.3263 80.6016 45.4544C80.5608 45.4761 80.5257 45.5054 80.4985 45.5406C80.4713 45.5758 80.4527 45.6159 80.4439 45.6582C80.4352 45.7005 80.4366 45.7441 80.4479 45.7858C80.4592 45.8276 80.4803 45.8667 80.5096 45.9004C80.6191 46.0474 80.8622 46.1004 81.0505 46.1054C81.2389 46.1104 81.5706 45.9914 81.6845 45.9484Z" fill="#263238"/>
<g opacity="0.2">
<path d="M108.834 19.1574C108.857 19.1675 109.081 17.6574 109.083 17.5574C109.107 16.4384 108.434 14.2634 107.137 13.8575C106.203 13.5635 105.276 14.1396 105.057 14.9824C104.838 15.8444 105.385 16.8115 105.969 17.4545C106.656 18.2125 108.833 19.1564 108.834 19.1574Z" fill="black"/>
<path d="M84.5806 21.3C85.6098 21.5841 87.9947 21.276 87.9969 21.275C88.021 21.275 87.2961 19.901 87.2402 19.819C86.5833 18.874 84.7098 17.399 83.3805 17.712C82.4235 17.942 81.9986 18.8901 82.3271 19.7C82.6622 20.532 83.7046 21.062 84.5806 21.3Z" fill="black"/>
<path d="M96.9341 38.1999C97.1639 38.5878 97.394 38.9768 97.5976 39.3629C97.729 39.6299 97.8768 39.8778 97.9929 40.1528L98.3542 40.9528C98.5634 41.4698 98.7824 42.0008 98.9718 42.5099C99.1065 42.8628 99.228 43.2008 99.3518 43.5419C99.1043 43.1698 98.6028 42.4518 98.5535 42.3958C97.787 41.5249 95.735 40.2568 94.455 40.7068C93.5331 41.0318 93.2297 42.0179 93.6579 42.7909C94.0959 43.5799 95.1986 43.9979 96.0986 44.1458C97.0906 44.3088 99.1776 43.8349 99.4371 43.7739C99.6398 44.3388 99.8303 44.8888 100.001 45.4109C100.308 46.3388 100.566 47.1888 100.784 47.9429H101.695C101.443 47.1338 101.14 46.2088 100.777 45.1898C100.575 44.6159 100.339 44.0068 100.103 43.3828C100.71 43.0814 101.298 42.7475 101.863 42.3828C102.65 42.9969 104.542 43.6109 104.786 43.6878C104.614 44.2609 104.441 44.8159 104.268 45.3378C103.95 46.3078 103.639 47.1828 103.354 47.9458H104.274C104.519 47.2289 104.782 46.4278 105.049 45.5458C105.226 44.9648 105.404 44.3409 105.579 43.6989C105.842 43.7198 107.988 43.8818 108.94 43.5739C109.803 43.2948 110.817 42.7198 111.11 41.8739C111.395 41.0479 110.922 40.1198 109.954 39.9349C108.612 39.6789 106.814 41.2349 106.208 42.2059C106.172 42.2628 105.86 42.9249 105.672 43.3458C105.742 43.0828 105.813 42.8289 105.881 42.5568C106.02 42.0219 106.143 41.4838 106.275 40.9049L106.438 40.0518C106.499 39.7689 106.524 39.4619 106.569 39.1638C106.656 38.4708 106.709 37.7638 106.744 37.0528C107.257 37.1638 109.088 37.5309 109.992 37.3739C110.895 37.2169 111.988 36.7898 112.417 35.9969C112.837 35.2198 112.527 34.2369 111.598 33.9198C110.312 33.4818 108.278 34.7689 107.518 35.6458C107.47 35.7008 107.002 36.3869 106.752 36.7679C106.769 36.3398 106.79 35.9119 106.792 35.4789C106.799 34.2258 106.764 32.9588 106.734 31.6939C106.724 31.3068 106.721 30.9208 106.715 30.5338C106.897 30.5749 109.063 31.0549 110.075 30.8789C110.974 30.7229 112.071 30.2948 112.5 29.5018C112.92 28.7249 112.61 27.7419 111.68 27.4258C110.395 26.9869 108.361 28.2739 107.6 29.1518C107.543 29.2179 106.871 30.2049 106.713 30.4638C106.701 29.6128 106.698 28.7638 106.732 27.9278C106.771 26.7979 106.891 25.6717 107.09 24.5559C107.174 24.5758 109.432 25.0859 110.468 24.9059C111.367 24.7489 112.465 24.3208 112.893 23.5278C113.314 22.7518 113.003 21.7679 112.074 21.4518C110.792 21.0138 108.76 22.2999 107.993 23.1789C107.943 23.2359 107.43 23.9879 107.196 24.3508L107.123 24.3258C107.356 23.2081 107.698 22.1117 108.146 21.0499C108.383 20.4629 108.646 19.9128 108.912 19.3838C109.321 19.5179 111.202 20.1138 112.153 20.0448C113.066 19.9799 114.208 19.6648 114.731 18.9198C115.241 18.1898 115.047 17.1809 114.164 16.7739C112.94 16.2088 110.764 17.2838 109.903 18.0799C109.856 18.1229 109.433 18.6119 109.13 18.9708C109.256 18.7338 109.381 18.4869 109.505 18.2619C109.974 17.4159 110.459 16.6679 110.895 16.0088C111.147 15.6359 111.381 15.3028 111.606 14.9929C112.083 14.9328 114.004 14.6708 114.8 14.2179C115.576 13.7759 116.431 13.0179 116.519 12.1339C116.603 11.2719 115.923 10.4579 114.934 10.4679C113.562 10.4819 112.173 12.3519 111.81 13.4209C111.779 13.5129 111.47 15.0088 111.495 15.0068H111.523C111.304 15.3008 111.068 15.6179 110.821 15.9689C110.367 16.6208 109.862 17.3619 109.373 18.2018C108.834 19.1014 108.353 20.0289 107.933 20.9799C107.456 22.0426 107.084 23.1419 106.821 24.2648C106.821 24.2778 106.821 24.2919 106.814 24.3059C106.773 23.9398 106.623 22.9229 106.602 22.8458C106.302 21.7609 105.024 19.8249 103.655 19.7458C102.67 19.6879 101.94 20.4679 101.975 21.3328C102.01 22.2169 102.82 23.0179 103.57 23.4979C104.415 24.0379 106.616 24.4119 106.791 24.4409C106.554 25.5897 106.402 26.7515 106.334 27.9189C106.292 28.5979 106.271 29.2838 106.26 29.9719C106.214 29.6578 106.17 29.3719 106.159 29.3379C105.859 28.2528 104.581 26.3169 103.212 26.2379C102.226 26.1789 101.498 26.9588 101.533 27.8249C101.568 28.7088 102.377 29.5088 103.127 29.9888C103.877 30.4689 105.755 30.8278 106.252 30.9148C106.252 31.1789 106.247 31.4429 106.247 31.7068C106.247 32.9729 106.247 34.2369 106.215 35.4768C106.202 35.9138 106.172 36.3439 106.144 36.7768C106.102 36.4979 106.065 36.2628 106.055 36.2268C105.755 35.1419 104.477 33.2068 103.109 33.1268C102.123 33.0689 101.394 33.8479 101.429 34.7138C101.464 35.5979 102.274 36.3989 103.023 36.8778C103.749 37.3419 105.471 37.6778 106.06 37.7888C106.017 38.2279 105.974 38.6689 105.909 39.0888C105.859 39.3778 105.832 39.6588 105.763 39.9469C105.694 40.2349 105.641 40.5159 105.581 40.7958C105.443 41.3318 105.304 41.8859 105.155 42.4059C105.054 42.7679 104.951 43.1119 104.85 43.4578C104.867 43.0229 104.883 42.1719 104.876 42.0999C104.798 41.3599 104.355 40.1909 103.671 39.4099C103.661 39.3003 103.639 39.1918 103.607 39.0859C103.347 38.2528 102.391 37.7169 101.473 38.0508C100.197 38.5138 99.6375 40.7159 99.7208 41.8318C99.7208 41.8979 99.8653 42.6068 99.9617 43.0539C99.8609 42.7989 99.7667 42.5539 99.6606 42.2898C99.4525 41.7739 99.2292 41.2628 98.9915 40.7138C98.8656 40.4518 98.7396 40.1878 98.6116 39.9198C98.4835 39.6518 98.3258 39.3849 98.1834 39.1138C97.8385 38.4919 97.4564 37.8768 97.0556 37.2648C97.5505 37.0979 99.2991 36.4818 99.9572 35.8958C100.615 35.3099 101.271 34.4028 101.149 33.5249C101.03 32.6659 100.174 32.0039 99.2104 32.2068C97.8736 32.4878 96.9549 34.5869 96.8508 35.7018C96.8442 35.7708 96.8673 36.5789 96.8902 37.0219C96.6461 36.6559 96.404 36.2898 96.1445 35.9268C95.3945 34.8789 94.5984 33.8398 93.81 32.7999C93.5692 32.4809 93.3327 32.1609 93.094 31.8419C93.2702 31.7838 95.3672 31.0929 96.104 30.4369C96.761 29.8528 97.418 28.9439 97.2954 28.0659C97.1771 27.2068 96.3209 26.5448 95.3572 26.7479C94.0204 27.0289 93.1017 29.1268 92.9976 30.2419C92.9888 30.3258 93.025 31.4888 93.0501 31.7838C92.5257 31.0838 92.011 30.3739 91.5336 29.6599C90.8841 28.6975 90.3033 27.6976 89.7948 26.6669C89.878 26.6398 92.0691 25.9278 92.8246 25.2559C93.4815 24.6729 94.1385 23.7629 94.0149 22.8849C93.8966 22.0258 93.0403 21.3638 92.0779 21.5669C90.7398 21.8479 89.8211 23.9469 89.7172 25.0609C89.7105 25.1349 89.7368 26.0208 89.7598 26.4409L89.6842 26.4568C89.206 25.4041 88.8325 24.314 88.5684 23.1999C88.4118 22.5909 88.2991 21.9999 88.2039 21.4229C88.6276 21.3278 90.5558 20.8768 91.3081 20.3409C92.0297 19.8258 92.7917 18.9878 92.7775 18.1039C92.7623 17.2378 91.9913 16.4939 91.0092 16.5989C89.647 16.7439 88.4808 18.7379 88.2433 19.8359C88.2301 19.8948 88.172 20.5159 88.1338 20.9679C88.0955 20.7068 88.0505 20.4379 88.0243 20.1869C87.9037 19.2458 87.8567 18.3768 87.8216 17.6078C87.8064 17.1698 87.801 16.7739 87.801 16.4078C88.1634 16.1179 89.6065 14.9309 89.9975 14.1518C90.3774 13.3919 90.6314 12.3269 90.1715 11.5519C89.7215 10.7899 88.6627 10.4519 87.8436 10.9599C86.7081 11.6599 86.6796 13.9229 87.0223 14.9979C87.0519 15.0898 87.698 16.4979 87.7177 16.4789L87.7395 16.4609C87.732 16.8179 87.7275 17.2008 87.7329 17.6189C87.7494 18.3898 87.7757 19.2629 87.8743 20.2099C87.9686 21.2314 88.1279 22.2472 88.3517 23.2518C88.5956 24.3785 88.9496 25.483 89.4093 26.5518C89.4149 26.5648 89.4226 26.5768 89.428 26.5898C89.1729 26.3059 88.4327 25.5328 88.3691 25.4789C87.4637 24.7249 85.2277 23.7549 84.0375 24.3789C83.179 24.8278 83.0432 25.8439 83.5995 26.5489C84.1557 27.2539 85.3219 27.5289 86.2373 27.5489C87.2687 27.5739 89.3294 26.7768 89.4926 26.7129C89.9894 27.7901 90.5645 28.8358 91.2139 29.8429C91.5884 30.4318 91.9804 31.0148 92.391 31.5939C92.1632 31.3549 91.953 31.1419 91.9246 31.1159C91.019 30.3609 88.7831 29.3909 87.5929 30.0159C86.7343 30.4638 86.5986 31.4809 87.1549 32.1849C87.7188 32.9049 88.8772 33.1648 89.7926 33.1849C90.7081 33.2049 92.4929 32.5599 92.9593 32.3849C93.117 32.6059 93.2725 32.8278 93.4324 33.0479C94.1989 34.1049 94.9653 35.1568 95.6825 36.2088C95.9366 36.5799 96.1708 36.9539 96.4074 37.3268C96.2037 37.1138 96.0307 36.9369 96.0011 36.9128C95.0956 36.1588 92.8607 35.1879 91.6705 35.8129C90.8121 36.2609 90.6762 37.2778 91.2325 37.9818C91.7965 38.7018 92.9549 38.9619 93.8692 38.9818C94.7441 38.9999 96.3866 38.4099 96.9341 38.1999Z" fill="black"/>
<path opacity="0.3" d="M84.5806 21.3C85.6098 21.5841 87.9947 21.276 87.9969 21.275C88.021 21.275 87.2961 19.901 87.2402 19.819C86.5833 18.874 84.7098 17.399 83.3805 17.712C82.4235 17.942 81.9986 18.8901 82.3271 19.7C82.6622 20.532 83.7046 21.062 84.5806 21.3Z" fill="black"/>
<path opacity="0.3" d="M108.834 19.1574C108.857 19.1675 109.081 17.6574 109.083 17.5574C109.107 16.4384 108.434 14.2634 107.137 13.8575C106.203 13.5635 105.276 14.1396 105.057 14.9824C104.838 15.8444 105.385 16.8115 105.969 17.4545C106.656 18.2125 108.833 19.1564 108.834 19.1574Z" fill="black"/>
<path opacity="0.3" d="M96.9341 38.1999C97.1639 38.5878 97.394 38.9768 97.5976 39.3629C97.729 39.6299 97.8768 39.8778 97.9929 40.1528L98.3542 40.9528C98.5634 41.4698 98.7824 42.0008 98.9718 42.5099C99.1065 42.8628 99.228 43.2008 99.3518 43.5419C99.1043 43.1698 98.6028 42.4518 98.5535 42.3958C97.787 41.5249 95.735 40.2568 94.455 40.7068C93.5331 41.0318 93.2297 42.0179 93.6579 42.7909C94.0959 43.5799 95.1986 43.9979 96.0986 44.1458C97.0906 44.3088 99.1776 43.8349 99.4371 43.7739C99.6398 44.3388 99.8303 44.8888 100.001 45.4109C100.308 46.3388 100.566 47.1888 100.784 47.9429H101.695C101.443 47.1338 101.14 46.2088 100.777 45.1898C100.575 44.6159 100.339 44.0068 100.103 43.3828C100.71 43.0814 101.298 42.7475 101.863 42.3828C102.65 42.9969 104.542 43.6109 104.786 43.6878C104.614 44.2609 104.441 44.8159 104.268 45.3378C103.95 46.3078 103.639 47.1828 103.354 47.9458H104.274C104.519 47.2289 104.782 46.4278 105.049 45.5458C105.226 44.9648 105.404 44.3409 105.579 43.6989C105.842 43.7198 107.988 43.8818 108.94 43.5739C109.803 43.2948 110.817 42.7198 111.11 41.8739C111.395 41.0479 110.922 40.1198 109.954 39.9349C108.612 39.6789 106.814 41.2349 106.208 42.2059C106.172 42.2628 105.86 42.9249 105.672 43.3458C105.742 43.0828 105.813 42.8289 105.881 42.5568C106.02 42.0219 106.143 41.4838 106.275 40.9049L106.438 40.0518C106.499 39.7689 106.524 39.4619 106.569 39.1638C106.656 38.4708 106.709 37.7638 106.744 37.0528C107.257 37.1638 109.088 37.5309 109.992 37.3739C110.895 37.2169 111.988 36.7898 112.417 35.9969C112.837 35.2198 112.527 34.2369 111.598 33.9198C110.312 33.4818 108.278 34.7689 107.518 35.6458C107.47 35.7008 107.002 36.3869 106.752 36.7679C106.769 36.3398 106.79 35.9119 106.792 35.4789C106.799 34.2258 106.764 32.9588 106.734 31.6939C106.724 31.3068 106.721 30.9208 106.715 30.5338C106.897 30.5749 109.063 31.0549 110.075 30.8789C110.974 30.7229 112.071 30.2948 112.5 29.5018C112.92 28.7249 112.61 27.7419 111.68 27.4258C110.395 26.9869 108.361 28.2739 107.6 29.1518C107.543 29.2179 106.871 30.2049 106.713 30.4638C106.701 29.6128 106.698 28.7638 106.732 27.9278C106.771 26.7979 106.891 25.6717 107.09 24.5559C107.174 24.5758 109.432 25.0859 110.468 24.9059C111.367 24.7489 112.465 24.3208 112.893 23.5278C113.314 22.7518 113.003 21.7679 112.074 21.4518C110.792 21.0138 108.76 22.2999 107.993 23.1789C107.943 23.2359 107.43 23.9879 107.196 24.3508L107.123 24.3258C107.356 23.2081 107.698 22.1117 108.146 21.0499C108.383 20.4629 108.646 19.9128 108.912 19.3838C109.321 19.5179 111.202 20.1138 112.153 20.0448C113.066 19.9799 114.208 19.6648 114.731 18.9198C115.241 18.1898 115.047 17.1809 114.164 16.7739C112.94 16.2088 110.764 17.2838 109.903 18.0799C109.856 18.1229 109.433 18.6119 109.13 18.9708C109.256 18.7338 109.381 18.4869 109.505 18.2619C109.974 17.4159 110.459 16.6679 110.895 16.0088C111.147 15.6359 111.381 15.3028 111.606 14.9929C112.083 14.9328 114.004 14.6708 114.8 14.2179C115.576 13.7759 116.431 13.0179 116.519 12.1339C116.603 11.2719 115.923 10.4579 114.934 10.4679C113.562 10.4819 112.173 12.3519 111.81 13.4209C111.779 13.5129 111.47 15.0088 111.495 15.0068H111.523C111.304 15.3008 111.068 15.6179 110.821 15.9689C110.367 16.6208 109.862 17.3619 109.373 18.2018C108.834 19.1014 108.353 20.0289 107.933 20.9799C107.456 22.0426 107.084 23.1419 106.821 24.2648C106.821 24.2778 106.821 24.2919 106.814 24.3059C106.773 23.9398 106.623 22.9229 106.602 22.8458C106.302 21.7609 105.024 19.8249 103.655 19.7458C102.67 19.6879 101.94 20.4679 101.975 21.3328C102.01 22.2169 102.82 23.0179 103.57 23.4979C104.415 24.0379 106.616 24.4119 106.791 24.4409C106.554 25.5897 106.402 26.7515 106.334 27.9189C106.292 28.5979 106.271 29.2838 106.26 29.9719C106.214 29.6578 106.17 29.3719 106.159 29.3379C105.859 28.2528 104.581 26.3169 103.212 26.2379C102.226 26.1789 101.498 26.9588 101.533 27.8249C101.568 28.7088 102.377 29.5088 103.127 29.9888C103.877 30.4689 105.755 30.8278 106.252 30.9148C106.252 31.1789 106.247 31.4429 106.247 31.7068C106.247 32.9729 106.247 34.2369 106.215 35.4768C106.202 35.9138 106.172 36.3439 106.144 36.7768C106.102 36.4979 106.065 36.2628 106.055 36.2268C105.755 35.1419 104.477 33.2068 103.109 33.1268C102.123 33.0689 101.394 33.8479 101.429 34.7138C101.464 35.5979 102.274 36.3989 103.023 36.8778C103.749 37.3419 105.471 37.6778 106.06 37.7888C106.017 38.2279 105.974 38.6689 105.909 39.0888C105.859 39.3778 105.832 39.6588 105.763 39.9469C105.694 40.2349 105.641 40.5159 105.581 40.7958C105.443 41.3318 105.304 41.8859 105.155 42.4059C105.054 42.7679 104.951 43.1119 104.85 43.4578C104.867 43.0229 104.883 42.1719 104.876 42.0999C104.798 41.3599 104.355 40.1909 103.671 39.4099C103.661 39.3003 103.639 39.1918 103.607 39.0859C103.347 38.2528 102.391 37.7169 101.473 38.0508C100.197 38.5138 99.6375 40.7159 99.7208 41.8318C99.7208 41.8979 99.8653 42.6068 99.9617 43.0539C99.8609 42.7989 99.7667 42.5539 99.6606 42.2898C99.4525 41.7739 99.2292 41.2628 98.9915 40.7138C98.8656 40.4518 98.7396 40.1878 98.6116 39.9198C98.4835 39.6518 98.3258 39.3849 98.1834 39.1138C97.8385 38.4919 97.4564 37.8768 97.0556 37.2648C97.5505 37.0979 99.2991 36.4818 99.9572 35.8958C100.615 35.3099 101.271 34.4028 101.149 33.5249C101.03 32.6659 100.174 32.0039 99.2104 32.2068C97.8736 32.4878 96.9549 34.5869 96.8508 35.7018C96.8442 35.7708 96.8673 36.5789 96.8902 37.0219C96.6461 36.6559 96.404 36.2898 96.1445 35.9268C95.3945 34.8789 94.5984 33.8398 93.81 32.7999C93.5692 32.4809 93.3327 32.1609 93.094 31.8419C93.2702 31.7838 95.3672 31.0929 96.104 30.4369C96.761 29.8528 97.418 28.9439 97.2954 28.0659C97.1771 27.2068 96.3209 26.5448 95.3572 26.7479C94.0204 27.0289 93.1017 29.1268 92.9976 30.2419C92.9888 30.3258 93.025 31.4888 93.0501 31.7838C92.5257 31.0838 92.011 30.3739 91.5336 29.6599C90.8841 28.6975 90.3033 27.6976 89.7948 26.6669C89.878 26.6398 92.0691 25.9278 92.8246 25.2559C93.4815 24.6729 94.1385 23.7629 94.0149 22.8849C93.8966 22.0258 93.0403 21.3638 92.0779 21.5669C90.7398 21.8479 89.8211 23.9469 89.7172 25.0609C89.7105 25.1349 89.7368 26.0208 89.7598 26.4409L89.6842 26.4568C89.206 25.4041 88.8325 24.314 88.5684 23.1999C88.4118 22.5909 88.2991 21.9999 88.2039 21.4229C88.6276 21.3278 90.5558 20.8768 91.3081 20.3409C92.0297 19.8258 92.7917 18.9878 92.7775 18.1039C92.7623 17.2378 91.9913 16.4939 91.0092 16.5989C89.647 16.7439 88.4808 18.7379 88.2433 19.8359C88.2301 19.8948 88.172 20.5159 88.1338 20.9679C88.0955 20.7068 88.0505 20.4379 88.0243 20.1869C87.9037 19.2458 87.8567 18.3768 87.8216 17.6078C87.8064 17.1698 87.801 16.7739 87.801 16.4078C88.1634 16.1179 89.6065 14.9309 89.9975 14.1518C90.3774 13.3919 90.6314 12.3269 90.1715 11.5519C89.7215 10.7899 88.6627 10.4519 87.8436 10.9599C86.7081 11.6599 86.6796 13.9229 87.0223 14.9979C87.0519 15.0898 87.698 16.4979 87.7177 16.4789L87.7395 16.4609C87.732 16.8179 87.7275 17.2008 87.7329 17.6189C87.7494 18.3898 87.7757 19.2629 87.8743 20.2099C87.9686 21.2314 88.1279 22.2472 88.3517 23.2518C88.5956 24.3785 88.9496 25.483 89.4093 26.5518C89.4149 26.5648 89.4226 26.5768 89.428 26.5898C89.1729 26.3059 88.4327 25.5328 88.3691 25.4789C87.4637 24.7249 85.2277 23.7549 84.0375 24.3789C83.179 24.8278 83.0432 25.8439 83.5995 26.5489C84.1557 27.2539 85.3219 27.5289 86.2373 27.5489C87.2687 27.5739 89.3294 26.7768 89.4926 26.7129C89.9894 27.7901 90.5645 28.8358 91.2139 29.8429C91.5884 30.4318 91.9804 31.0148 92.391 31.5939C92.1632 31.3549 91.953 31.1419 91.9246 31.1159C91.019 30.3609 88.7831 29.3909 87.5929 30.0159C86.7343 30.4638 86.5986 31.4809 87.1549 32.1849C87.7188 32.9049 88.8772 33.1648 89.7926 33.1849C90.7081 33.2049 92.4929 32.5599 92.9593 32.3849C93.117 32.6059 93.2725 32.8278 93.4324 33.0479C94.1989 34.1049 94.9653 35.1568 95.6825 36.2088C95.9366 36.5799 96.1708 36.9539 96.4074 37.3268C96.2037 37.1138 96.0307 36.9369 96.0011 36.9128C95.0956 36.1588 92.8607 35.1879 91.6705 35.8129C90.8121 36.2609 90.6762 37.2778 91.2325 37.9818C91.7965 38.7018 92.9549 38.9619 93.8692 38.9818C94.7441 38.9999 96.3866 38.4099 96.9341 38.1999Z" fill="black"/>
</g>
<path d="M85.7446 5.03203C85.7446 5.03203 85.2059 3.76602 83.282 3.62602C81.3581 3.48602 81.1271 5.38304 80.7428 5.66403C80.3584 5.94503 79.5876 5.17203 78.8178 5.45304C78.3507 5.63052 77.9686 5.95471 77.7404 6.36703C77.7404 6.36703 77.0483 6.08602 76.5863 6.15602C76.1242 6.22602 75.5854 6.85602 75.5854 6.85602H88.5927C88.5927 6.85602 88.5927 5.65602 87.6696 5.23903C86.7466 4.82203 86.3611 5.73203 86.13 5.66102C85.899 5.59003 85.7446 5.03203 85.7446 5.03203Z" stroke="#263238" stroke-width="0.139665" stroke-miterlimit="10"/>
<path d="M123.05 14.3581C123.05 14.3581 122.592 13.2821 120.955 13.1581C119.319 13.0341 119.122 14.6571 118.795 14.9001C118.468 15.1431 117.81 14.4811 117.158 14.7201C116.761 14.8712 116.436 15.1472 116.242 15.4981C116.242 15.4981 115.652 15.2592 115.256 15.3181C114.86 15.3771 114.405 15.9181 114.405 15.9181H125.465C125.465 15.9181 125.465 14.9021 124.679 14.5431C123.894 14.1842 123.566 14.9621 123.365 14.9021C123.165 14.8421 123.05 14.3581 123.05 14.3581Z" stroke="#263238" stroke-width="0.139665" stroke-miterlimit="10"/>
<path d="M86.6052 34.1082C86.6052 34.1082 85.9602 32.5922 83.6542 32.4241C81.3482 32.2561 81.0723 34.5292 80.6113 34.8662C80.1503 35.2032 79.2283 34.2772 78.3064 34.6142C77.7467 34.8261 77.2887 35.2142 77.0154 35.7082C77.0154 35.7082 76.1854 35.3722 75.6314 35.4561C75.0773 35.5402 74.4335 36.3001 74.4335 36.3001H90.0171C90.0171 36.3001 90.0171 34.8681 88.9112 34.3631C87.8052 33.8582 87.3432 34.9522 87.0672 34.8681C86.7914 34.7842 86.6052 34.1082 86.6052 34.1082Z" stroke="#263238" stroke-width="0.139665" stroke-miterlimit="10"/>
<path d="M120.072 29.6053C122.93 29.6053 125.247 27.4894 125.247 24.8793C125.247 22.2692 122.93 20.1533 120.072 20.1533C117.214 20.1533 114.897 22.2692 114.897 24.8793C114.897 27.4894 117.214 29.6053 120.072 29.6053Z" stroke="#263238" stroke-width="0.139665" stroke-miterlimit="10"/>
<path d="M120.072 29.6053C121.715 29.6053 123.047 27.4894 123.047 24.8793C123.047 22.2692 121.715 20.1533 120.072 20.1533C118.429 20.1533 117.097 22.2692 117.097 24.8793C117.097 27.4894 118.429 29.6053 120.072 29.6053Z" stroke="#263238" stroke-width="0.139665" stroke-miterlimit="10"/>
<path d="M120.072 20.1533V29.6053" stroke="#263238" stroke-width="0.139665" stroke-miterlimit="10"/>
<path d="M117.035 21.072H123.078" stroke="#263238" stroke-width="0.139665" stroke-miterlimit="10"/>
<path d="M117.035 28.7419H123.078" stroke="#263238" stroke-width="0.139665" stroke-miterlimit="10"/>
<path d="M115.293 22.958H124.819" stroke="#263238" stroke-width="0.139665" stroke-miterlimit="10"/>
<path d="M115.293 26.7312H124.819" stroke="#263238" stroke-width="0.139665" stroke-miterlimit="10"/>
<path d="M114.918 24.8452H125.194" stroke="#263238" stroke-width="0.139665" stroke-miterlimit="10"/>
<path d="M119.005 3.84888H106.884C106.463 3.84888 106.121 4.16093 106.121 4.54587V5.77587C106.121 6.16082 106.463 6.47287 106.884 6.47287H119.005C119.427 6.47287 119.769 6.16082 119.769 5.77587V4.54587C119.769 4.16093 119.427 3.84888 119.005 3.84888Z" stroke="#263238" stroke-width="0.139665" stroke-miterlimit="10"/>
<path d="M116.441 3.84033V6.52433" stroke="#263238" stroke-width="0.139665" stroke-miterlimit="10"/>
<path d="M119.452 5.91439L118.669 5.37739C118.777 5.1864 118.802 4.96555 118.74 4.75836C118.678 4.55116 118.534 4.37266 118.335 4.25805C118.136 4.14343 117.897 4.10101 117.666 4.13914C117.434 4.17728 117.227 4.2932 117.085 4.46407C116.942 4.63493 116.875 4.84836 116.896 5.06224C116.917 5.27612 117.026 5.47498 117.199 5.61958C117.373 5.76419 117.6 5.84408 117.835 5.84348C118.071 5.84289 118.297 5.76188 118.47 5.61639L119.255 6.15439C119.284 6.17373 119.318 6.18425 119.354 6.18439C119.388 6.18439 119.422 6.17449 119.45 6.15608C119.478 6.13767 119.498 6.11169 119.509 6.08182C119.52 6.05196 119.521 6.01971 119.51 5.98967C119.5 5.95961 119.48 5.93329 119.452 5.91439ZM117.838 5.5434C117.718 5.54359 117.601 5.51133 117.501 5.45067C117.402 5.39003 117.324 5.30373 117.278 5.20271C117.232 5.10168 117.22 4.99046 117.243 4.88312C117.266 4.77579 117.324 4.67715 117.409 4.59971C117.493 4.52228 117.601 4.46951 117.719 4.44809C117.836 4.42667 117.958 4.43756 118.069 4.47939C118.179 4.52122 118.274 4.5921 118.341 4.68306C118.407 4.77401 118.443 4.88098 118.443 4.99039C118.442 5.13681 118.378 5.27715 118.265 5.38077C118.152 5.4844 117.998 5.54287 117.838 5.5434Z" stroke="#263238" stroke-width="0.139665" stroke-miterlimit="10"/>
<path d="M84.3419 16.084L81.2377 13.961C81.6609 13.207 81.7596 12.3356 81.5142 11.5186C81.2688 10.7015 80.6972 9.99796 79.9121 9.54666C79.1269 9.09538 78.1851 8.92904 77.2724 9.08043C76.3596 9.23184 75.542 9.69 74.9807 10.3646C74.4195 11.0392 74.1553 11.8814 74.2402 12.7251C74.3251 13.5688 74.753 14.3528 75.4395 14.9227C76.126 15.4926 77.0213 15.807 77.949 15.8038C78.8768 15.8007 79.7696 15.4805 80.4515 14.906L83.5568 17.033C83.6247 17.0837 83.7031 17.1213 83.7873 17.1436C83.8715 17.1658 83.9597 17.1724 84.0467 17.1628C84.1337 17.1531 84.2177 17.1276 84.2937 17.0876C84.3696 17.0475 84.4359 16.9939 84.4885 16.9299C84.5412 16.866 84.5791 16.7928 84.6001 16.7151C84.621 16.6373 84.6246 16.5566 84.6105 16.4776C84.5964 16.3985 84.5649 16.3229 84.518 16.2554C84.4711 16.1876 84.4097 16.1294 84.3375 16.084H84.3419ZM77.9506 14.6169C77.4766 14.6172 77.0133 14.489 76.6191 14.2486C76.225 14.0083 75.9177 13.6666 75.7363 13.2668C75.5548 12.8669 75.5072 12.4269 75.5997 12.0024C75.6921 11.5779 75.9203 11.1879 76.2554 10.8818C76.5905 10.5758 77.0175 10.3674 77.4823 10.283C77.9472 10.1986 78.429 10.242 78.8668 10.4077C79.3046 10.5735 79.6788 10.8541 79.942 11.214C80.2051 11.574 80.3455 11.9972 80.3453 12.43C80.3444 13.0098 80.0918 13.5656 79.6429 13.9756C79.194 14.3855 78.5854 14.6162 77.9506 14.6169Z" stroke="#263238" stroke-width="0.139665" stroke-miterlimit="10"/>
<path d="M99.6628 19.4248C93.7335 19.4248 88.7021 22.4918 86.9218 26.7458C86.9058 26.7847 86.904 26.8275 86.9166 26.8674C86.9293 26.9073 86.9556 26.9425 86.9917 26.9678L91.9772 30.4678C92.0142 30.4931 92.059 30.5072 92.1053 30.5078H92.9046C92.9329 30.5076 92.961 30.5023 92.987 30.4921C93.013 30.4819 93.0366 30.4671 93.0561 30.4484C93.0758 30.4298 93.091 30.4078 93.1011 30.3836C93.1113 30.3594 93.1159 30.3336 93.1149 30.3078C93.1149 30.2539 93.1149 30.1998 93.1149 30.1458C93.1149 27.2578 96.0472 24.9159 99.666 24.9159C103.285 24.9159 106.217 27.2578 106.217 30.1458C106.217 33.0337 103.285 35.3738 99.6628 35.3738C99.1065 35.3737 98.5519 35.317 98.0093 35.2048C97.9595 35.1939 97.9085 35.1886 97.8572 35.1888C97.7435 35.1892 97.6318 35.2146 97.5313 35.2629C97.4307 35.3113 97.3445 35.3811 97.28 35.4664C97.2155 35.5519 97.1744 35.6502 97.1606 35.7532C97.1466 35.8562 97.1603 35.9607 97.2002 36.0578L97.9283 37.8198V41.8578H105.932V40.1878C105.931 40.0241 105.979 39.8634 106.072 39.7233C106.165 39.5832 106.298 39.4692 106.457 39.3938C110.429 37.5308 113.095 34.0868 113.095 30.1448C113.093 24.2238 107.08 19.4248 99.6628 19.4248Z" fill="#263238" stroke="#263238" stroke-width="0.139665" stroke-miterlimit="10"/>
<path d="M105.929 42.6489H97.9261V47.947H105.929V42.6489Z" fill="#263238" stroke="#263238" stroke-width="0.139665" stroke-miterlimit="10"/>
<path d="M111.998 30.1448C111.998 24.2238 105.985 19.4248 98.5677 19.4248C92.644 19.4248 87.618 22.4849 85.8322 26.7328C85.8163 26.7747 85.816 26.8202 85.8315 26.8621C85.8469 26.9041 85.8772 26.9402 85.9176 26.9647L91.6925 30.3108C91.7244 30.3303 91.7617 30.3414 91.8001 30.343C91.8385 30.3446 91.8767 30.3365 91.9105 30.3198C91.9443 30.303 91.9725 30.2782 91.9919 30.2478C92.0115 30.2175 92.0214 30.1829 92.0209 30.1478C92.0209 27.2599 94.9543 24.9178 98.5722 24.9178C102.19 24.9178 105.123 27.2599 105.123 30.1478C105.123 33.0358 102.19 35.3738 98.5677 35.3738C98.2563 35.374 97.9451 35.3562 97.636 35.3208C97.5367 35.3087 97.4358 35.3161 97.3399 35.3425C97.244 35.3689 97.1554 35.4138 97.08 35.474C97.0046 35.5342 96.9443 35.6085 96.9028 35.6917C96.8615 35.7749 96.8399 35.8653 96.8399 35.9568V37.8198H96.8311V41.8578H104.834V40.1878C104.834 40.0241 104.883 39.8635 104.975 39.7235C105.068 39.5835 105.201 39.4694 105.36 39.3938C109.331 37.5308 111.998 34.0868 111.998 30.1448Z" fill="#43A7FF" stroke="#263238" stroke-width="0.139665" stroke-miterlimit="10"/>
<path d="M104.834 42.6489H96.8313V47.947H104.834V42.6489Z" fill="#43A7FF" stroke="#263238" stroke-width="0.139665" stroke-miterlimit="10"/>
<path d="M97.8648 9.07983C97.8648 9.07983 97.0742 9.39983 96.7151 9.54884C96.5115 9.63777 96.2998 9.71004 96.0822 9.76483L96.6855 10.0538L98.3849 9.80983L97.8648 9.07983Z" fill="white" stroke="#263238" stroke-width="0.139665" stroke-miterlimit="10"/>
<path d="M95.3452 9.41293C95.2356 9.31701 95.1451 9.2043 95.078 9.07993C94.9991 8.90793 94.8405 8.98892 94.8405 9.11594C94.8456 9.23937 94.8906 9.35866 94.9696 9.45892C95.009 9.47693 95.424 9.53993 95.424 9.53993L95.3452 9.41293Z" stroke="#263238" stroke-width="0.139665" stroke-miterlimit="10"/>
<path d="M98.1802 10.179L98.3476 11.045C98.3476 11.045 98.0191 12.764 97.9556 13.753C97.8922 14.742 97.8461 15.386 97.9085 15.644C97.9709 15.902 98.7845 18.4091 98.7845 18.4091C98.7845 18.4091 98.6433 18.567 98.6433 18.6091C98.6433 18.651 98.6279 18.8091 98.6279 18.8091C98.5045 18.9216 98.3732 19.0268 98.2349 19.124C98.063 19.239 97.7017 19.339 97.7651 19.454C97.8286 19.569 98.2512 19.454 98.7221 19.454C99.193 19.454 99.5215 19.511 99.6944 19.3971C99.8674 19.283 99.7098 18.8519 99.7098 18.8519C99.7098 18.8519 99.7262 18.552 99.7415 18.4651C99.7568 18.3781 99.5378 17.9351 99.5532 17.806C99.5686 17.6769 99.1788 15.1 99.1788 15.1L99.9627 12.45C99.9627 12.45 101.249 15.43 101.407 15.573C101.565 15.7161 103.681 18.181 103.681 18.181C103.681 18.181 103.54 18.324 103.587 18.3959C103.625 18.4507 103.667 18.5031 103.713 18.5531C103.713 18.5531 103.555 18.8531 103.461 18.983C103.367 19.113 103.101 19.183 103.148 19.27C103.195 19.357 103.681 19.37 103.805 19.3411C103.929 19.312 104.432 18.811 104.571 18.711C104.71 18.611 104.979 18.424 104.979 18.295C104.979 18.1661 104.713 18.0091 104.696 17.9661C104.68 17.923 104.649 17.737 104.555 17.679C104.464 17.6265 104.37 17.5788 104.272 17.536C104.21 17.507 102.641 15.014 102.641 15.014C102.641 15.014 101.936 11.175 101.747 10.731C101.559 10.287 100.489 9.01001 100.489 9.01001L98.1802 10.179Z" fill="#263238" stroke="#263238" stroke-width="0.139665" stroke-miterlimit="10"/>
<path d="M96.472 7.79988C96.472 7.79988 96.6789 8.66688 96.9406 8.89389C97.2023 9.12089 97.7257 9.18289 97.7257 9.18289L98.1801 10.1769C98.1801 10.1769 99.8325 9.71089 100.494 9.00688C100.494 9.00688 99.7273 7.88789 99.1579 7.17089C98.5885 6.45388 98.8273 6.32988 98.029 5.89988C97.2308 5.46988 96.5826 6.06388 96.5826 6.06388C96.5826 6.06388 95.9771 6.09089 96.472 7.79988Z" fill="#B5EB2E" stroke="#263238" stroke-width="0.139665" stroke-miterlimit="10"/>
<path d="M95.4965 3.62702C95.4965 3.62702 95.3354 3.32702 94.292 3.47901C93.9486 3.51614 93.6282 3.65605 93.381 3.87695C93.1337 4.09783 92.9735 4.38724 92.9254 4.70002C92.8837 5.00002 92.9254 4.98601 92.8247 5.06101C92.724 5.13601 92.2772 5.08702 92.3561 5.52702C92.4349 5.96702 93.0043 5.71502 93.0864 5.86601C93.1233 5.9442 93.1844 6.01084 93.2622 6.05774C93.34 6.10464 93.4311 6.12975 93.5244 6.13002C93.7576 6.14301 93.9787 5.89101 94.0061 5.79101C94.0335 5.69101 94.2678 5.60202 94.6807 5.82901C95.0935 6.05601 95.6442 6.45702 96.2234 6.01702C96.8027 5.57702 96.0472 4.01601 95.4965 3.62702Z" fill="#263238" stroke="#263238" stroke-width="0.139665" stroke-miterlimit="10"/>
<path d="M93.3328 5.49982C93.378 5.63751 93.4363 5.77135 93.5068 5.89982C93.5934 6.03583 93.9153 6.16083 93.9284 6.36383C93.9416 6.56683 93.866 6.70383 93.9284 6.73783C93.9909 6.77183 94.2875 6.69283 94.2875 6.69283C94.2875 6.69283 94.9445 7.09283 95.1055 7.03183C95.2664 6.97083 95.5763 6.57883 95.5763 6.57883L96.277 7.03383L96.472 7.79982L96.7206 7.43482C96.7206 7.43482 96.2519 6.91883 96.4173 6.49183L96.5826 6.06383C96.5826 6.06383 95.527 5.93083 95.3902 5.77283C95.2533 5.61482 95.0058 5.21783 94.7836 5.16083C94.5613 5.10383 94.4737 5.38783 94.4977 5.45583C94.5219 5.52383 94.1266 5.51183 93.878 5.42183L93.6305 5.33083C93.5681 5.31083 93.3328 5.39982 93.3328 5.49982Z" fill="white" stroke="#263238" stroke-width="0.139665" stroke-miterlimit="10"/>
<path d="M93.8036 5.96696C93.8036 5.96696 93.7916 5.76696 93.9778 5.74097" stroke="#263238" stroke-width="0.139665" stroke-miterlimit="10"/>
<path d="M94.1441 6.03575C94.2054 6.08176 94.2296 6.14575 94.1988 6.17974C94.1682 6.21375 94.0893 6.20375 94.0346 6.15875C93.9798 6.11375 93.9481 6.04775 93.9787 6.01474C94.0094 5.98176 94.0872 5.98974 94.1441 6.03575Z" fill="#263238"/>
<path d="M94.6095 6.69962C94.6095 6.69962 94.6839 6.65462 94.6226 6.47363" stroke="#263238" stroke-width="0.139665" stroke-miterlimit="10"/>
<path d="M95.1307 5.43481C95.1307 5.43481 95.3038 5.60481 95.2402 5.69481C95.2091 5.74426 95.1665 5.78691 95.1154 5.81981C95.1154 5.81981 95.2775 5.96681 95.2895 6.0578" fill="white"/>
<path d="M95.1307 5.43481C95.1307 5.43481 95.3038 5.60481 95.2402 5.69481C95.2091 5.74426 95.1665 5.78691 95.1154 5.81981C95.1154 5.81981 95.2775 5.96681 95.2895 6.0578" stroke="#263238" stroke-width="0.139665" stroke-miterlimit="10"/>
<path d="M94.6072 4.98593C94.6072 4.98593 95.2183 5.34993 95.5412 5.80493C95.8642 6.25993 96.784 6.23593 97.1092 5.98593C97.4345 5.73593 97.4946 5.49393 97.7453 5.55093C97.9962 5.60793 98.5984 5.79593 98.9903 5.53293C99.3824 5.26993 99.0889 4.74694 99.4875 4.84194C99.7008 4.89528 99.9272 4.88526 100.134 4.81336C100.341 4.74145 100.517 4.61137 100.637 4.44194C100.907 4.05993 101.114 3.40793 100.359 2.55593C99.781 1.89993 98.9149 2.07194 98.6553 2.10493C98.3958 2.13793 98.4812 1.87793 97.6338 1.87793C96.7578 1.87793 96.3449 2.55894 96.2879 2.74894C96.2311 2.93894 96.4676 3.06793 95.7898 2.85593C95.112 2.64394 94.7814 2.87894 94.7934 3.19694C94.8054 3.51493 94.04 3.62394 93.8966 3.67493" fill="#263238"/>
<path d="M94.6072 4.98593C94.6072 4.98593 95.2183 5.34993 95.5412 5.80493C95.8642 6.25993 96.784 6.23593 97.1092 5.98593C97.4345 5.73593 97.4946 5.49393 97.7453 5.55093C97.9962 5.60793 98.5984 5.79593 98.9903 5.53293C99.3824 5.26993 99.0889 4.74694 99.4875 4.84194C99.7008 4.89528 99.9272 4.88526 100.134 4.81336C100.341 4.74145 100.517 4.61137 100.637 4.44194C100.907 4.05993 101.114 3.40793 100.359 2.55593C99.781 1.89993 98.9149 2.07194 98.6553 2.10493C98.3958 2.13793 98.4812 1.87793 97.6338 1.87793C96.7578 1.87793 96.3449 2.55894 96.2879 2.74894C96.2311 2.93894 96.4676 3.06793 95.7898 2.85593C95.112 2.64394 94.7814 2.87894 94.7934 3.19694C94.8054 3.51493 94.04 3.62394 93.8966 3.67493" stroke="#263238" stroke-width="0.139665" stroke-miterlimit="10"/>
<path d="M102.425 11.5388C102.393 11.5389 102.361 11.5355 102.33 11.5288L93.8231 9.52376C93.7877 9.51581 93.7541 9.50155 93.7247 9.48181C93.6952 9.46206 93.6703 9.43718 93.6514 9.40864C93.6324 9.38007 93.6198 9.3484 93.6142 9.31538C93.6086 9.28238 93.6103 9.24869 93.6189 9.21626C93.6276 9.18382 93.6433 9.15327 93.6649 9.12634C93.6865 9.09942 93.7138 9.07664 93.7451 9.05932C93.7764 9.042 93.811 9.03048 93.8472 9.02541C93.8833 9.02034 93.9202 9.02182 93.9557 9.02975L102.518 10.8218C102.612 10.8434 102.695 10.8955 102.75 10.9685C102.804 11.0414 102.828 11.1302 102.817 11.2181C102.805 11.306 102.759 11.3871 102.687 11.4461C102.614 11.5052 102.521 11.5381 102.424 11.5388H102.425Z" fill="#8F8F8F" stroke="#263238" stroke-width="0.139665" stroke-miterlimit="10"/>
<path d="M98.882 10.1909L98.6204 10.3669C98.5612 10.4601 98.4873 10.545 98.4014 10.6189C98.3051 10.6819 98.2503 10.7189 98.3467 10.7569C98.4431 10.7949 98.6752 10.7069 98.6752 10.7069C98.6752 10.7069 98.5919 11.0339 98.6609 11.0589C98.7299 11.0839 98.8799 11.0969 98.9225 11.0469C98.9519 11.0138 98.9894 10.9877 99.032 10.9709C99.032 10.9709 99.0727 11.0209 99.3211 10.9589C99.5697 10.8969 99.5829 10.5059 99.6102 10.3299C99.6376 10.1539 100.739 7.93986 100.808 7.65085C100.877 7.36186 100.808 7.18486 100.712 7.13486C100.615 7.08486 97.8649 6.30486 97.5364 6.27986C97.2079 6.25486 96.8477 6.67986 97.0403 7.09686C97.233 7.51385 98.004 7.65085 98.2108 7.67585C98.4178 7.70085 99.6343 7.83885 99.6343 7.83885C99.6343 7.83885 99.3869 8.98385 99.3322 9.39885C99.3028 9.70684 99.141 9.99165 98.882 10.1909Z" fill="white" stroke="#263238" stroke-width="0.139665" stroke-miterlimit="10"/>
<path d="M94.9204 9.60014C94.8983 9.72242 94.8884 9.84625 94.8909 9.97014C94.9106 10.0151 95.0683 10.0961 95.1099 9.96115C95.1514 9.82615 95.159 9.60014 95.09 9.56115C95.0211 9.52215 94.9796 9.51315 94.9204 9.60014Z" fill="white" stroke="#263238" stroke-width="0.139665" stroke-miterlimit="10"/>
<path d="M95.1821 9.74056C95.1879 9.8644 95.2055 9.98752 95.2346 10.1086C95.2643 10.1486 95.4362 10.1996 95.445 10.0596C95.4536 9.91956 95.4143 9.69656 95.3355 9.67456C95.2566 9.65255 95.2161 9.64156 95.1821 9.74056Z" fill="white" stroke="#263238" stroke-width="0.139665" stroke-miterlimit="10"/>
<path d="M95.4341 9.77668C95.4404 9.90048 95.4578 10.0236 95.4866 10.1447C95.5162 10.1847 95.6891 10.2357 95.6979 10.0957C95.7067 9.95569 95.6662 9.73269 95.5884 9.71069C95.5106 9.68869 95.4724 9.67769 95.4341 9.77668Z" fill="white" stroke="#263238" stroke-width="0.139665" stroke-miterlimit="10"/>
<path d="M95.7164 9.82603C95.7213 9.93135 95.7364 10.0361 95.7614 10.139C95.7865 10.173 95.9332 10.216 95.9409 10.097C95.9486 9.97802 95.9135 9.78903 95.8501 9.76903C95.7865 9.74903 95.7493 9.74103 95.7164 9.82603Z" fill="white" stroke="#263238" stroke-width="0.139665" stroke-miterlimit="10"/>
<path d="M94.1299 9.6247L94.1539 9.1947L93.8254 8.75071C93.6064 8.20571 92.2214 7.74271 91.2325 7.52071C90.2438 7.29871 89.0765 7.44871 88.562 7.68671C88.0473 7.9247 87.9302 8.06871 87.9302 8.06871L87.8985 8.6397C87.7582 9.28672 89.0371 10.0637 90.7563 10.3747C92.4754 10.6857 93.9821 10.4127 94.1222 9.7647C94.132 9.7186 94.1345 9.67148 94.1299 9.6247ZM92.6429 9.6997C91.6355 9.83672 90.7147 9.73571 89.9131 9.41571C89.404 9.19942 88.9236 8.93103 88.4809 8.61571C88.6998 8.1647 89.876 7.9947 91.2183 8.23771C92.4908 8.46771 93.4729 8.9897 93.5813 9.46171C93.2845 9.58658 92.9677 9.66694 92.6429 9.6997Z" fill="#8F8F8F" stroke="#263238" stroke-width="0.139665" stroke-miterlimit="10"/>
<path d="M91.2961 7.4598C89.5781 7.14879 88.0704 7.42179 87.9302 8.06879C87.7901 8.7158 89.069 9.49379 90.788 9.80379C92.5071 10.1138 94.0138 9.84179 94.1541 9.1948C94.2941 8.5478 93.0152 7.7708 91.2961 7.4598ZM93.6197 9.04879C93.5102 9.55679 92.2707 9.7608 90.8527 9.50479C89.4346 9.24879 88.3747 8.62879 88.4853 8.1208C88.596 7.6128 89.8344 7.40879 91.2524 7.6648C92.6703 7.9208 93.7292 8.5408 93.6197 9.04879Z" fill="white" stroke="#263238" stroke-width="0.139665" stroke-miterlimit="10"/>
<path d="M115.048 47.946H126.259" stroke="#263238" stroke-width="0.139665" stroke-miterlimit="10"/>
<path d="M74.4094 47.946H114.147" stroke="#263238" stroke-width="0.139665" stroke-miterlimit="10"/>
</svg>
