    <svg width="200" height="50" viewBox="0 0 392 358" fill="none" xmlns="http://www.w3.org/2000/svg">
<path d="M376.751 133.67C375.379 118.132 375.23 104.371 368.315 89.6571C362.764 77.8431 356.555 65.8859 348.127 55.5397C322.255 23.957 281.809 9.8804 239.669 8.44124C170.583 6.09276 103.331 46.3892 80.2344 106.233C76.5026 115.891 70.3638 124.039 63.4254 131.744C62.6963 131.343 62.2886 130.269 62.2886 128.414C62.2886 111.903 41.8498 130.369 38.651 134.858C-2.78335 193.026 6.13857 288.719 75.1854 325.93C103.535 341.209 134.958 348.548 167.572 350.933C197.231 353.081 229.359 349.014 251.734 329.539C271.115 312.677 277.724 287.638 293.921 269.108C291.026 274.404 289.483 280.23 289.406 286.149C289.46 296.066 316.846 292.085 344.858 248.316C371.138 207.253 379.879 169.198 376.751 133.67Z" fill="#3498DB"/>
<path opacity="0.7" d="M376.751 133.67C375.379 118.132 375.23 104.371 368.315 89.6571C362.764 77.8431 356.555 65.8859 348.127 55.5397C322.255 23.957 281.809 9.8804 239.669 8.44124C170.583 6.09276 103.331 46.3892 80.2344 106.233C76.5026 115.891 70.3638 124.039 63.4254 131.744C62.6963 131.343 62.2886 130.269 62.2886 128.414C62.2886 111.903 41.8498 130.369 38.651 134.858C-2.78335 193.026 6.13858 288.719 75.1854 325.93C103.535 341.209 134.958 348.548 167.572 350.933C197.231 353.081 229.359 349.014 251.734 329.539C271.115 312.677 277.724 287.638 293.921 269.108C291.026 274.404 289.483 280.23 289.406 286.149C289.46 296.066 316.846 292.085 344.858 248.316C371.138 207.253 379.879 169.198 376.751 133.67Z" fill="white"/>
<path d="M351.569 272.081C351.624 272.081 352.181 268.372 352.181 268.135C352.243 265.364 350.613 259.987 347.367 258.978C346.829 258.823 346.262 258.774 345.702 258.833C345.142 258.892 344.602 259.059 344.117 259.322C343.632 259.584 343.214 259.938 342.889 260.358C342.564 260.779 342.34 261.258 342.232 261.763C341.683 263.911 343.016 266.288 344.482 267.878C346.183 269.754 351.561 272.081 351.569 272.081Z" fill="#263238"/>
<path d="M291.578 277.393C294.118 278.109 300.021 277.336 300.021 277.336C300.021 277.336 298.297 273.935 298.156 273.756C296.533 271.414 291.884 267.77 288.606 268.543C288.065 268.686 287.562 268.931 287.131 269.263C286.7 269.594 286.351 270.005 286.105 270.469C285.859 270.932 285.724 271.437 285.706 271.952C285.689 272.467 285.79 272.979 286.004 273.455C286.835 275.488 289.406 276.799 291.578 277.393Z" fill="#263238"/>
<path d="M322.138 319.193C322.703 320.152 323.275 321.119 323.777 322.057C324.106 322.716 324.467 323.332 324.757 324.012L325.651 325.988C326.168 327.27 326.709 328.587 327.18 329.84C327.509 330.714 327.815 331.551 328.12 332.396C327.509 331.472 326.262 329.697 326.145 329.532C324.24 327.384 319.175 324.241 316.008 325.358C315.487 325.556 315.019 325.851 314.632 326.225C314.245 326.6 313.949 327.044 313.763 327.529C313.576 328.015 313.504 328.531 313.55 329.044C313.597 329.557 313.761 330.055 314.032 330.506C315.114 332.461 317.842 333.492 320.069 333.864C322.523 334.265 327.689 333.091 328.332 332.94C328.826 334.336 329.304 335.697 329.728 336.993C330.512 339.284 331.123 341.389 331.664 343.251H333.914C333.295 341.253 332.542 338.955 331.64 336.442C331.139 335.01 330.574 333.513 329.978 331.974C331.48 331.226 332.933 330.399 334.33 329.496C336.274 331.014 340.954 332.525 341.558 332.718C341.135 334.15 340.704 335.511 340.28 336.8C339.496 339.198 338.712 341.368 338.014 343.244H340.296C340.9 341.468 341.55 339.492 342.209 337.301C342.648 335.869 343.087 334.322 343.518 332.733C344.169 332.79 349.484 333.184 351.836 332.425C353.969 331.709 356.478 330.277 357.199 328.229C357.388 327.744 357.463 327.228 357.42 326.714C357.376 326.2 357.214 325.701 356.945 325.248C356.676 324.796 356.305 324.4 355.857 324.087C355.409 323.774 354.894 323.551 354.345 323.432C351.021 322.802 346.576 326.639 345.078 329.045C344.992 329.188 344.216 330.828 343.753 331.866C343.926 331.222 344.098 330.592 344.271 329.919C344.616 328.594 344.914 327.262 345.243 325.83L345.643 323.725C345.8 323.009 345.862 322.293 345.972 321.527C346.184 319.809 346.317 318.069 346.403 316.308C347.673 316.58 352.205 317.489 354.439 317.095C356.674 316.701 359.378 315.663 360.437 313.687C360.702 313.233 360.861 312.733 360.901 312.22C360.942 311.707 360.864 311.191 360.673 310.707C360.481 310.223 360.18 309.782 359.79 309.41C359.4 309.039 358.928 308.747 358.406 308.553C355.27 307.472 350.198 310.651 348.316 312.849C348.199 312.985 347.038 314.682 346.427 315.627C346.466 314.568 346.521 313.479 346.521 312.434C346.521 309.341 346.45 306.205 346.38 303.076C346.38 302.116 346.38 301.164 346.333 300.212C346.787 300.319 352.142 301.501 354.643 301.071C356.87 300.677 359.582 299.639 360.641 297.663C360.908 297.209 361.068 296.709 361.109 296.196C361.151 295.682 361.074 295.166 360.884 294.681C360.693 294.196 360.393 293.753 360.002 293.381C359.612 293.009 359.14 292.717 358.618 292.522C355.435 291.441 350.402 294.627 348.528 296.818C348.379 296.983 346.717 299.424 346.333 300.062C346.333 297.956 346.293 295.859 346.372 293.789C346.476 290.995 346.772 288.209 347.258 285.448C347.469 285.498 353.052 286.758 355.615 286.314C357.842 285.928 360.554 284.882 361.621 282.906C361.886 282.452 362.045 281.953 362.085 281.439C362.126 280.926 362.048 280.411 361.856 279.927C361.665 279.443 361.364 279.001 360.974 278.63C360.583 278.259 360.112 277.966 359.59 277.772C356.407 276.684 351.382 279.87 349.5 282.068C349.375 282.212 348.104 284.073 347.524 284.968L347.344 284.904C347.923 282.141 348.771 279.431 349.876 276.806C350.464 275.374 351.115 273.992 351.781 272.682C352.793 273.011 357.442 274.486 359.802 274.321C362.162 274.157 364.882 273.376 366.176 271.536C366.495 271.111 366.714 270.63 366.816 270.123C366.919 269.616 366.903 269.095 366.771 268.594C366.639 268.093 366.392 267.623 366.048 267.214C365.704 266.806 365.269 266.468 364.772 266.223C361.746 264.827 356.36 267.491 354.235 269.46C354.118 269.567 353.067 270.77 352.322 271.658C352.636 271.071 352.942 270.462 353.248 269.904C354.408 267.813 355.6 265.966 356.689 264.333C357.309 263.409 357.889 262.586 358.445 261.82C359.621 261.677 364.38 261.025 366.348 259.901C368.316 258.777 370.378 256.93 370.597 254.746C370.668 254.235 370.62 253.716 370.456 253.223C370.292 252.731 370.016 252.275 369.646 251.887C369.276 251.498 368.82 251.185 368.309 250.968C367.797 250.752 367.241 250.636 366.677 250.629C363.283 250.665 359.849 255.29 358.947 257.932C358.877 258.161 358.108 261.863 358.163 261.856H358.234C357.685 262.572 357.105 263.367 356.493 264.233C355.372 265.844 354.141 267.677 352.91 269.753C351.581 271.98 350.393 274.275 349.351 276.627C348.175 279.257 347.254 281.976 346.599 284.753C346.599 284.753 346.599 284.818 346.599 284.854C346.497 283.952 346.129 281.431 346.074 281.274C345.337 278.596 342.154 273.806 338.783 273.605C338.22 273.587 337.659 273.677 337.137 273.869C336.615 274.062 336.142 274.353 335.751 274.723C335.36 275.093 335.059 275.534 334.866 276.017C334.674 276.501 334.595 277.016 334.635 277.529C334.722 279.72 336.721 281.696 338.555 282.885C340.641 284.224 346.09 285.147 346.521 285.219C345.934 288.056 345.556 290.927 345.392 293.811C345.282 295.493 345.235 297.19 345.204 298.894C345.094 298.114 344.984 297.42 344.953 297.326C344.216 294.641 341.033 289.851 337.669 289.651C337.105 289.631 336.543 289.721 336.019 289.913C335.495 290.106 335.022 290.397 334.63 290.768C334.238 291.139 333.936 291.581 333.743 292.066C333.551 292.551 333.473 293.067 333.514 293.582C333.6 295.766 335.6 297.749 337.434 298.93C339.269 300.112 343.941 301.007 345.164 301.221C345.164 301.873 345.164 302.532 345.164 303.183C345.164 306.312 345.164 309.441 345.086 312.491C345.086 313.572 344.984 314.639 344.914 315.699C344.812 314.983 344.718 314.432 344.694 314.339C343.949 311.654 340.774 306.871 337.403 306.67C336.839 306.651 336.278 306.74 335.755 306.932C335.231 307.124 334.758 307.415 334.366 307.785C333.974 308.155 333.672 308.597 333.479 309.081C333.287 309.565 333.208 310.08 333.248 310.594C333.334 312.785 335.341 314.761 337.168 315.95C338.994 317.138 343.22 317.94 344.678 318.198C344.569 319.286 344.467 320.346 344.31 321.427C344.184 322.143 344.114 322.859 343.949 323.575C343.785 324.291 343.644 325.007 343.495 325.68C343.15 327.005 342.812 328.372 342.444 329.661C342.193 330.556 341.942 331.408 341.66 332.26C341.707 331.186 341.746 329.081 341.731 328.902C341.373 326.49 340.347 324.2 338.751 322.25C338.726 321.979 338.674 321.711 338.595 321.448C338.458 320.949 338.209 320.482 337.862 320.076C337.515 319.671 337.078 319.336 336.581 319.094C336.084 318.853 335.536 318.709 334.974 318.673C334.412 318.637 333.848 318.709 333.318 318.885C330.182 320.031 328.779 325.48 328.975 328.243C328.975 328.401 329.336 330.155 329.579 331.265C329.328 330.635 329.092 330.019 328.795 329.375C328.285 328.093 327.736 326.833 327.14 325.472L326.207 323.511C325.909 322.852 325.502 322.186 325.149 321.52C324.294 319.981 323.346 318.456 322.358 316.945C323.581 316.53 327.909 315.004 329.532 313.558C331.154 312.112 332.777 309.864 332.479 307.694C332.429 307.181 332.26 306.684 331.985 306.234C331.71 305.785 331.334 305.393 330.882 305.085C330.43 304.777 329.912 304.559 329.362 304.446C328.812 304.333 328.242 304.327 327.689 304.429C324.381 305.145 322.107 310.322 321.848 313.078C321.848 313.25 321.888 315.226 321.942 316.343C321.339 315.441 320.743 314.532 320.1 313.637C318.242 311.045 316.282 308.475 314.33 305.897C313.734 305.109 313.146 304.322 312.558 303.527C312.997 303.384 318.179 301.68 320.006 300.054C321.621 298.622 323.252 296.36 322.946 294.19C322.895 293.677 322.727 293.18 322.452 292.73C322.177 292.281 321.801 291.889 321.349 291.581C320.897 291.273 320.379 291.056 319.829 290.943C319.279 290.83 318.709 290.824 318.156 290.925C314.847 291.641 312.574 296.818 312.315 299.575C312.315 299.782 312.385 302.653 312.448 303.384C311.155 301.644 309.877 299.897 308.701 298.128C307.089 295.752 305.652 293.281 304.396 290.732C304.6 290.66 310.018 288.899 311.892 287.238C313.507 285.806 315.137 283.543 314.832 281.374C314.781 280.861 314.613 280.364 314.337 279.915C314.062 279.465 313.686 279.074 313.234 278.767C312.782 278.459 312.264 278.242 311.714 278.13C311.164 278.018 310.594 278.013 310.041 278.116C306.733 278.832 304.459 284.002 304.2 286.758C304.2 286.937 304.255 289.128 304.31 290.174L304.122 290.209C302.961 287.588 302.063 284.875 301.441 282.104C301.049 280.594 300.774 279.133 300.539 277.708C301.582 277.472 306.356 276.362 308.215 275.03C310.073 273.698 311.884 271.686 311.852 269.496C311.862 268.981 311.754 268.47 311.533 267.996C311.313 267.523 310.985 267.097 310.573 266.746C310.16 266.396 309.671 266.128 309.138 265.962C308.605 265.795 308.039 265.733 307.478 265.779C304.106 266.137 301.206 271.071 300.633 273.784C300.633 273.928 300.461 275.467 300.375 276.584C300.28 275.94 300.171 275.274 300.092 274.651C299.794 272.324 299.677 270.176 299.591 268.271C299.551 267.19 299.536 266.209 299.536 265.293C300.429 264.577 304.004 261.634 304.969 259.708C305.933 257.782 306.537 255.197 305.4 253.264C305.147 252.805 304.791 252.401 304.355 252.076C303.92 251.751 303.414 251.513 302.872 251.378C302.329 251.243 301.762 251.214 301.206 251.292C300.65 251.37 300.118 251.554 299.645 251.832C296.831 253.565 296.76 259.156 297.607 261.813C297.685 262.042 299.285 265.515 299.332 265.479L299.387 265.436C299.387 266.316 299.387 267.262 299.387 268.3C299.387 270.204 299.489 272.367 299.732 274.708C299.968 277.235 300.364 279.747 300.916 282.233C301.521 285.019 302.394 287.75 303.526 290.396L303.573 290.489C302.946 289.773 301.112 287.875 300.955 287.739C298.712 285.878 293.185 283.443 290.245 285.018C289.764 285.286 289.35 285.643 289.029 286.067C288.709 286.49 288.49 286.97 288.387 287.476C288.283 287.982 288.297 288.502 288.429 289.003C288.56 289.503 288.805 289.973 289.148 290.381C290.543 292.164 293.405 292.808 295.671 292.859C298.226 292.923 303.322 290.947 303.73 290.789C304.955 293.456 306.375 296.044 307.979 298.536C308.904 299.968 309.892 301.436 310.896 302.868C310.331 302.274 309.822 301.751 309.743 301.68C307.501 299.818 301.974 297.384 299.026 298.959C298.547 299.225 298.134 299.581 297.815 300.002C297.495 300.423 297.276 300.901 297.172 301.405C297.068 301.909 297.081 302.426 297.21 302.925C297.339 303.424 297.581 303.892 297.921 304.3C299.308 306.083 302.178 306.727 304.444 306.778C306.709 306.828 311.115 305.238 312.284 304.794L313.444 306.448C315.333 309.069 317.231 311.668 319.01 314.267C319.637 315.191 320.218 316.114 320.806 317.038C320.296 316.508 319.873 316.071 319.794 316.007C317.56 314.145 312.033 311.747 309.085 313.286C308.603 313.554 308.189 313.911 307.869 314.334C307.549 314.758 307.33 315.238 307.226 315.744C307.123 316.25 307.137 316.77 307.268 317.27C307.399 317.771 307.644 318.241 307.987 318.649C309.383 320.432 312.252 321.076 314.518 321.126C316.784 321.176 320.766 319.709 322.138 319.193Z" fill="#263238"/>
<path opacity="0.3" d="M291.578 277.393C294.118 278.109 300.021 277.336 300.021 277.336C300.021 277.336 298.297 273.935 298.156 273.756C296.533 271.414 291.884 267.77 288.606 268.543C288.065 268.686 287.562 268.931 287.131 269.263C286.7 269.594 286.351 270.005 286.105 270.469C285.859 270.932 285.724 271.437 285.706 271.952C285.689 272.467 285.79 272.979 286.004 273.455C286.835 275.488 289.406 276.799 291.578 277.393Z" fill="#263238"/>
<path opacity="0.3" d="M351.569 272.081C351.624 272.081 352.181 268.372 352.181 268.135C352.243 265.364 350.613 259.987 347.367 258.978C346.829 258.823 346.262 258.774 345.702 258.833C345.142 258.892 344.602 259.059 344.117 259.322C343.632 259.584 343.214 259.938 342.889 260.358C342.564 260.779 342.34 261.258 342.232 261.763C341.683 263.911 343.016 266.288 344.482 267.878C346.183 269.754 351.561 272.081 351.569 272.081Z" fill="#263238"/>
<path opacity="0.3" d="M322.138 319.193C322.703 320.152 323.275 321.119 323.777 322.057C324.106 322.716 324.467 323.332 324.757 324.012L325.651 325.988C326.168 327.27 326.709 328.587 327.18 329.84C327.509 330.714 327.815 331.551 328.12 332.396C327.509 331.472 326.262 329.697 326.145 329.532C324.24 327.384 319.175 324.241 316.008 325.358C315.487 325.556 315.019 325.851 314.632 326.225C314.245 326.6 313.949 327.044 313.763 327.529C313.576 328.015 313.504 328.531 313.55 329.044C313.597 329.557 313.761 330.055 314.032 330.506C315.114 332.461 317.842 333.492 320.069 333.864C322.523 334.265 327.689 333.091 328.332 332.94C328.826 334.336 329.304 335.697 329.728 336.993C330.512 339.284 331.123 341.389 331.664 343.251H333.914C333.295 341.253 332.542 338.955 331.64 336.442C331.139 335.01 330.574 333.513 329.978 331.974C331.48 331.226 332.933 330.399 334.33 329.496C336.274 331.014 340.954 332.525 341.558 332.718C341.135 334.15 340.704 335.511 340.28 336.8C339.496 339.198 338.712 341.368 338.014 343.244H340.296C340.9 341.468 341.55 339.492 342.209 337.301C342.648 335.869 343.087 334.322 343.518 332.733C344.169 332.79 349.484 333.184 351.836 332.425C353.969 331.709 356.478 330.277 357.199 328.229C357.388 327.744 357.463 327.228 357.42 326.714C357.376 326.2 357.214 325.701 356.945 325.248C356.676 324.796 356.305 324.4 355.857 324.087C355.409 323.774 354.894 323.551 354.345 323.432C351.021 322.802 346.576 326.639 345.078 329.045C344.992 329.188 344.216 330.828 343.753 331.866C343.926 331.222 344.098 330.592 344.271 329.919C344.616 328.594 344.914 327.262 345.243 325.83L345.643 323.725C345.8 323.009 345.862 322.293 345.972 321.527C346.184 319.809 346.317 318.069 346.403 316.308C347.673 316.58 352.205 317.489 354.439 317.095C356.674 316.701 359.378 315.663 360.437 313.687C360.702 313.233 360.861 312.733 360.901 312.22C360.942 311.707 360.864 311.191 360.673 310.707C360.481 310.223 360.18 309.782 359.79 309.41C359.4 309.039 358.928 308.747 358.406 308.553C355.27 307.472 350.198 310.651 348.316 312.849C348.199 312.985 347.038 314.682 346.427 315.627C346.466 314.568 346.521 313.479 346.521 312.434C346.521 309.341 346.45 306.205 346.38 303.076C346.38 302.116 346.38 301.164 346.333 300.212C346.787 300.319 352.142 301.501 354.643 301.071C356.87 300.677 359.582 299.639 360.641 297.663C360.908 297.209 361.068 296.709 361.109 296.196C361.151 295.682 361.074 295.166 360.884 294.681C360.693 294.196 360.393 293.753 360.002 293.381C359.612 293.009 359.14 292.717 358.618 292.522C355.435 291.441 350.402 294.627 348.528 296.818C348.379 296.983 346.717 299.424 346.333 300.062C346.333 297.956 346.293 295.859 346.372 293.789C346.476 290.995 346.772 288.209 347.258 285.448C347.469 285.498 353.052 286.758 355.615 286.314C357.842 285.928 360.554 284.882 361.621 282.906C361.886 282.452 362.045 281.953 362.085 281.439C362.126 280.926 362.048 280.411 361.856 279.927C361.665 279.443 361.364 279.001 360.974 278.63C360.583 278.259 360.112 277.966 359.59 277.772C356.407 276.684 351.382 279.87 349.5 282.068C349.375 282.212 348.104 284.073 347.524 284.968L347.344 284.904C347.923 282.141 348.771 279.431 349.876 276.806C350.464 275.374 351.115 273.992 351.781 272.682C352.793 273.011 357.442 274.486 359.802 274.321C362.162 274.157 364.882 273.376 366.176 271.536C366.495 271.111 366.714 270.63 366.816 270.123C366.919 269.616 366.903 269.095 366.771 268.594C366.639 268.093 366.392 267.623 366.048 267.214C365.704 266.806 365.269 266.468 364.772 266.223C361.746 264.827 356.36 267.491 354.235 269.46C354.118 269.567 353.067 270.77 352.322 271.658C352.636 271.071 352.942 270.462 353.248 269.904C354.408 267.813 355.6 265.966 356.689 264.333C357.309 263.409 357.889 262.586 358.445 261.82C359.621 261.677 364.38 261.025 366.348 259.901C368.316 258.777 370.378 256.93 370.597 254.746C370.668 254.235 370.62 253.716 370.456 253.223C370.292 252.731 370.016 252.275 369.646 251.887C369.276 251.498 368.82 251.185 368.309 250.968C367.797 250.752 367.241 250.636 366.677 250.629C363.283 250.665 359.849 255.29 358.947 257.932C358.877 258.161 358.108 261.863 358.163 261.856H358.234C357.685 262.572 357.105 263.367 356.493 264.233C355.372 265.844 354.141 267.677 352.91 269.753C351.581 271.98 350.393 274.275 349.351 276.627C348.175 279.257 347.254 281.976 346.599 284.753C346.599 284.753 346.599 284.818 346.599 284.854C346.497 283.952 346.129 281.431 346.074 281.274C345.337 278.596 342.154 273.806 338.783 273.605C338.22 273.587 337.659 273.677 337.137 273.869C336.615 274.062 336.142 274.353 335.751 274.723C335.36 275.093 335.059 275.534 334.866 276.017C334.674 276.501 334.595 277.016 334.635 277.529C334.722 279.72 336.721 281.696 338.555 282.885C340.641 284.224 346.09 285.147 346.521 285.219C345.934 288.056 345.556 290.927 345.392 293.811C345.282 295.493 345.235 297.19 345.204 298.894C345.094 298.114 344.984 297.42 344.953 297.326C344.216 294.641 341.033 289.851 337.669 289.651C337.105 289.631 336.543 289.721 336.019 289.913C335.495 290.106 335.022 290.397 334.63 290.768C334.238 291.139 333.936 291.581 333.743 292.066C333.551 292.551 333.473 293.067 333.514 293.582C333.6 295.766 335.6 297.749 337.434 298.93C339.269 300.112 343.941 301.007 345.164 301.221C345.164 301.873 345.164 302.532 345.164 303.183C345.164 306.312 345.164 309.441 345.086 312.491C345.086 313.572 344.984 314.639 344.914 315.699C344.812 314.983 344.718 314.432 344.694 314.339C343.949 311.654 340.774 306.871 337.403 306.67C336.839 306.651 336.278 306.74 335.755 306.932C335.231 307.124 334.758 307.415 334.366 307.785C333.974 308.155 333.672 308.597 333.479 309.081C333.287 309.565 333.208 310.08 333.248 310.594C333.334 312.785 335.341 314.761 337.168 315.95C338.994 317.138 343.22 317.94 344.678 318.198C344.569 319.286 344.467 320.346 344.31 321.427C344.184 322.143 344.114 322.859 343.949 323.575C343.785 324.291 343.644 325.007 343.495 325.68C343.15 327.005 342.812 328.372 342.444 329.661C342.193 330.556 341.942 331.408 341.66 332.26C341.707 331.186 341.746 329.081 341.731 328.902C341.373 326.49 340.347 324.2 338.751 322.25C338.726 321.979 338.674 321.711 338.595 321.448C338.458 320.949 338.209 320.482 337.862 320.076C337.515 319.671 337.078 319.336 336.581 319.094C336.084 318.853 335.536 318.709 334.974 318.673C334.412 318.637 333.848 318.709 333.318 318.885C330.182 320.031 328.779 325.48 328.975 328.243C328.975 328.401 329.336 330.155 329.579 331.265C329.328 330.635 329.092 330.019 328.795 329.375C328.285 328.093 327.736 326.833 327.14 325.472L326.207 323.511C325.909 322.852 325.502 322.186 325.149 321.52C324.294 319.981 323.346 318.456 322.358 316.945C323.581 316.53 327.909 315.004 329.532 313.558C331.154 312.112 332.777 309.864 332.479 307.694C332.429 307.181 332.26 306.684 331.985 306.234C331.71 305.785 331.334 305.393 330.882 305.085C330.43 304.777 329.912 304.559 329.362 304.446C328.812 304.333 328.242 304.327 327.689 304.429C324.381 305.145 322.107 310.322 321.848 313.078C321.848 313.25 321.888 315.226 321.942 316.343C321.339 315.441 320.743 314.532 320.1 313.637C318.242 311.045 316.282 308.475 314.33 305.897C313.734 305.109 313.146 304.322 312.558 303.527C312.997 303.384 318.179 301.68 320.006 300.054C321.621 298.622 323.252 296.36 322.946 294.19C322.895 293.677 322.727 293.18 322.452 292.73C322.177 292.281 321.801 291.889 321.349 291.581C320.897 291.273 320.379 291.056 319.829 290.943C319.279 290.83 318.709 290.824 318.156 290.925C314.847 291.641 312.574 296.818 312.315 299.575C312.315 299.782 312.385 302.653 312.448 303.384C311.155 301.644 309.877 299.897 308.701 298.128C307.089 295.752 305.652 293.281 304.396 290.732C304.6 290.66 310.018 288.899 311.892 287.238C313.507 285.806 315.137 283.543 314.832 281.374C314.781 280.861 314.613 280.364 314.337 279.915C314.062 279.465 313.686 279.074 313.234 278.767C312.782 278.459 312.264 278.242 311.714 278.13C311.164 278.018 310.594 278.013 310.041 278.116C306.733 278.832 304.459 284.002 304.2 286.758C304.2 286.937 304.255 289.128 304.31 290.174L304.122 290.209C302.961 287.588 302.063 284.875 301.441 282.104C301.049 280.594 300.774 279.133 300.539 277.708C301.582 277.472 306.356 276.362 308.215 275.03C310.073 273.698 311.884 271.686 311.852 269.496C311.862 268.981 311.754 268.47 311.533 267.996C311.313 267.523 310.985 267.097 310.573 266.746C310.16 266.396 309.671 266.128 309.138 265.962C308.605 265.795 308.039 265.733 307.478 265.779C304.106 266.137 301.206 271.071 300.633 273.784C300.633 273.928 300.461 275.467 300.375 276.584C300.28 275.94 300.171 275.274 300.092 274.651C299.794 272.324 299.677 270.176 299.591 268.271C299.551 267.19 299.536 266.209 299.536 265.293C300.429 264.577 304.004 261.634 304.969 259.708C305.933 257.782 306.537 255.197 305.4 253.264C305.147 252.805 304.791 252.401 304.355 252.076C303.92 251.751 303.414 251.513 302.872 251.378C302.329 251.243 301.762 251.214 301.206 251.292C300.65 251.37 300.118 251.554 299.645 251.832C296.831 253.565 296.76 259.156 297.607 261.813C297.685 262.042 299.285 265.515 299.332 265.479L299.387 265.436C299.387 266.316 299.387 267.262 299.387 268.3C299.387 270.204 299.489 272.367 299.732 274.708C299.968 277.235 300.364 279.747 300.916 282.233C301.521 285.019 302.394 287.75 303.526 290.396L303.573 290.489C302.946 289.773 301.112 287.875 300.955 287.739C298.712 285.878 293.185 283.443 290.245 285.018C289.764 285.286 289.35 285.643 289.029 286.067C288.709 286.49 288.49 286.97 288.387 287.476C288.283 287.982 288.297 288.502 288.429 289.003C288.56 289.503 288.805 289.973 289.148 290.381C290.543 292.164 293.405 292.808 295.671 292.859C298.226 292.923 303.322 290.947 303.73 290.789C304.955 293.456 306.375 296.044 307.979 298.536C308.904 299.968 309.892 301.436 310.896 302.868C310.331 302.274 309.822 301.751 309.743 301.68C307.501 299.818 301.974 297.384 299.026 298.959C298.547 299.225 298.134 299.581 297.815 300.002C297.495 300.423 297.276 300.901 297.172 301.405C297.068 301.909 297.081 302.426 297.21 302.925C297.339 303.424 297.581 303.892 297.921 304.3C299.308 306.083 302.178 306.727 304.444 306.778C306.709 306.828 311.115 305.238 312.284 304.794L313.444 306.448C315.333 309.069 317.231 311.668 319.01 314.267C319.637 315.191 320.218 316.114 320.806 317.038C320.296 316.508 319.873 316.071 319.794 316.007C317.56 314.145 312.033 311.747 309.085 313.286C308.603 313.554 308.189 313.911 307.869 314.334C307.549 314.758 307.33 315.238 307.226 315.744C307.123 316.25 307.137 316.77 307.268 317.27C307.399 317.771 307.644 318.241 307.987 318.649C309.383 320.432 312.252 321.076 314.518 321.126C316.784 321.176 320.766 319.709 322.138 319.193Z" fill="#263238"/>
<path d="M82.3206 301.02C82.3206 301.02 82.6812 298.822 82.689 298.679C82.689 297.039 81.7326 293.846 79.8274 293.245C79.5082 293.149 79.1701 293.116 78.836 293.149C78.5019 293.183 78.1795 293.281 77.8905 293.438C77.6015 293.595 77.3526 293.806 77.1606 294.058C76.9687 294.31 76.8381 294.597 76.7777 294.899C76.4562 296.166 77.2559 297.584 78.1183 298.529C79.1297 299.639 82.3206 301.02 82.3206 301.02Z" fill="#263238"/>
<path d="M46.719 304.178C48.2243 304.593 51.7287 304.142 51.7287 304.135C51.7287 304.127 50.7017 302.123 50.6233 301.987C49.659 300.598 46.9071 298.407 44.955 298.893C44.6289 298.972 44.325 299.113 44.064 299.308C43.803 299.503 43.591 299.747 43.4423 300.024C43.2936 300.3 43.2117 300.602 43.2021 300.91C43.1926 301.218 43.2556 301.524 43.387 301.808C43.9044 303.039 45.4724 303.82 46.719 304.178Z" fill="#263238"/>
<path d="M64.8611 328.99C65.1982 329.563 65.5353 330.135 65.8332 330.701C66.0292 331.088 66.2409 331.453 66.4134 331.861C66.5859 332.269 66.7662 332.649 66.9465 333.035C67.2523 333.794 67.5737 334.575 67.8481 335.319C68.0519 335.835 68.2323 336.336 68.4126 336.837C68.0441 336.286 67.3071 335.233 67.2366 335.155C66.1076 333.873 63.0971 332.011 61.2233 332.67C60.9139 332.788 60.6351 332.964 60.405 333.187C60.1749 333.41 59.9987 333.674 59.8878 333.963C59.7769 334.252 59.7338 334.559 59.7613 334.864C59.7888 335.17 59.8862 335.466 60.0473 335.735C60.6902 336.894 62.3131 337.503 63.6302 337.725C65.0884 337.961 68.1539 337.267 68.538 337.174C68.8359 338.004 69.1103 338.813 69.322 339.579C69.7767 340.94 70.1531 342.193 70.4745 343.296H71.8151C71.4388 342.107 71.0311 340.754 70.4667 339.257C70.1687 338.412 69.8316 337.517 69.471 336.601C70.3662 336.159 71.2303 335.666 72.0582 335.126C73.2107 336.028 75.9782 336.93 76.3545 337.045C76.0958 337.883 75.8449 338.699 75.5705 339.465C75.1079 340.897 74.6454 342.179 74.2299 343.296H75.5783C75.939 342.243 76.3623 341.069 76.723 339.773C76.9817 338.921 77.2404 338.004 77.507 337.059C77.8911 337.059 81.0428 337.324 82.4383 336.873C83.7084 336.465 85.198 335.62 85.6292 334.381C85.7498 334.092 85.8005 333.783 85.778 333.474C85.7554 333.165 85.6601 332.865 85.4986 332.593C85.337 332.321 85.113 332.084 84.842 331.898C84.5709 331.713 84.2591 331.583 83.9279 331.517C81.9601 331.138 79.318 333.422 78.4399 334.847C78.3851 334.933 77.9303 335.906 77.6559 336.522C77.7579 336.136 77.8676 335.763 77.9695 335.362C78.1734 334.582 78.3459 333.787 78.5419 332.935C78.6203 332.527 78.7065 332.104 78.7849 331.689C78.8633 331.274 78.9103 330.823 78.9731 330.379C79.1063 329.362 79.1847 328.331 79.2318 327.286C80.0158 327.443 82.6735 328.002 83.9985 327.751C85.3235 327.501 86.9307 326.899 87.5657 325.732C87.7297 325.464 87.8286 325.166 87.8558 324.859C87.8831 324.553 87.8379 324.245 87.7234 323.956C87.609 323.666 87.4279 323.403 87.1924 323.183C86.9569 322.964 86.6724 322.793 86.3583 322.682C84.4689 322.037 81.4819 323.928 80.3686 325.217C80.298 325.295 79.5846 326.305 79.2475 326.863C79.2475 326.233 79.3023 325.61 79.3023 324.973C79.3023 323.133 79.3023 321.271 79.2161 319.417V317.713C79.4827 317.77 82.6657 318.479 84.1475 318.214C85.4646 317.985 87.0796 317.362 87.7068 316.195C87.871 315.927 87.9703 315.63 87.998 315.324C88.0258 315.017 87.9813 314.709 87.8676 314.42C87.7539 314.131 87.5737 313.868 87.339 313.648C87.1043 313.428 86.8207 313.256 86.5073 313.145C84.6179 312.5 81.6308 314.391 80.5175 315.679C80.4313 315.78 79.4435 317.226 79.2161 317.605C79.2161 316.36 79.2161 315.114 79.2161 313.882C79.2731 312.224 79.4486 310.572 79.7414 308.935C79.8668 308.935 83.1831 309.708 84.7041 309.443C86.0212 309.214 87.6363 308.591 88.2635 307.424C88.4276 307.156 88.5269 306.859 88.5547 306.553C88.5824 306.246 88.5379 305.938 88.4242 305.649C88.3106 305.36 88.1303 305.097 87.8956 304.877C87.661 304.657 87.3774 304.485 87.0639 304.374C85.1745 303.729 82.1875 305.62 81.0663 306.908C80.9958 306.994 80.2823 308.097 79.8982 308.627L79.7884 308.591C80.1349 306.95 80.6386 305.34 81.2937 303.779C81.6465 302.92 82.0307 302.111 82.4227 301.338C83.0263 301.531 85.786 302.405 87.1894 302.305C88.5927 302.204 90.1999 301.746 90.9683 300.658C91.1632 300.407 91.297 300.122 91.3608 299.82C91.4246 299.519 91.4169 299.208 91.3381 298.91C91.2594 298.611 91.1114 298.331 90.9043 298.09C90.6971 297.848 90.4355 297.649 90.1372 297.507C88.3419 296.677 85.1431 298.223 83.8652 299.419C83.7947 299.483 83.1753 300.199 82.7284 300.729C82.9166 300.378 83.0969 300.013 83.2851 299.691C83.9671 298.445 84.6806 297.35 85.3235 296.383C85.6919 295.832 86.0369 295.345 86.3662 294.887C87.0639 294.801 89.8863 294.414 91.0702 293.748C92.254 293.082 93.4692 291.987 93.5947 290.691C93.6421 290.385 93.6165 290.073 93.5198 289.776C93.423 289.48 93.2573 289.206 93.034 288.974C92.8106 288.741 92.535 288.555 92.2258 288.429C91.9167 288.303 91.5813 288.239 91.2426 288.242C89.2278 288.242 87.1894 291.013 86.6563 292.581C86.6092 292.717 86.1623 294.915 86.1937 294.908H86.2407C85.9115 295.345 85.5665 295.81 85.2059 296.34C84.5395 297.293 83.7947 298.381 83.0812 299.62C82.288 300.938 81.5811 302.298 80.9644 303.694C80.2648 305.255 79.7191 306.87 79.3337 308.519C79.3337 308.519 79.3337 308.562 79.3337 308.577C79.2788 308.04 79.0593 306.55 79.0279 306.429C78.5889 304.832 76.6759 301.989 74.7003 301.875C74.3644 301.858 74.0287 301.908 73.7156 302.02C73.4025 302.132 73.1193 302.304 72.8853 302.525C72.6512 302.745 72.4717 303.009 72.3588 303.299C72.2458 303.588 72.2021 303.896 72.2307 304.202C72.2855 305.505 73.4694 306.679 74.5827 307.381C75.8214 308.176 79.0515 308.727 79.2867 308.77C78.9419 310.456 78.7193 312.162 78.6203 313.875C78.5575 314.87 78.5262 315.88 78.5105 316.889C78.4399 316.424 78.3772 316.016 78.3615 315.959C77.9225 314.362 76.0095 311.519 74.0339 311.405C73.698 311.388 73.3623 311.438 73.0492 311.55C72.7361 311.662 72.4529 311.834 72.2189 312.055C71.9848 312.275 71.8053 312.539 71.6924 312.829C71.5794 313.118 71.5357 313.426 71.5643 313.732C71.6191 315.035 72.803 316.209 73.9163 316.911C75.0295 317.613 77.7735 318.142 78.5027 318.271C78.5027 318.658 78.5027 319.045 78.5027 319.431C78.5027 321.293 78.5027 323.147 78.4556 324.973C78.4556 325.61 78.3929 326.248 78.3537 326.878C78.291 326.462 78.2361 326.119 78.2204 326.069C77.7814 324.472 75.9076 321.629 73.8927 321.515C73.5576 321.499 73.2226 321.55 72.9105 321.662C72.5984 321.775 72.3162 321.947 72.083 322.168C71.8499 322.388 71.671 322.651 71.5586 322.94C71.4461 323.229 71.4026 323.536 71.431 323.842C71.4859 325.145 72.6697 326.319 73.783 327.021C74.8963 327.723 77.3737 328.202 78.2361 328.36C78.1734 329.004 78.1107 329.649 78.0166 330.271C77.946 330.701 77.9068 331.109 77.8049 331.532C77.703 331.954 77.6246 332.369 77.5305 332.785C77.3345 333.565 77.1307 334.381 76.9111 335.147C76.7622 335.677 76.6132 336.179 76.4564 336.687C76.4564 336.05 76.5113 334.804 76.4564 334.696C76.2519 333.262 75.6442 331.9 74.6924 330.744C74.6763 330.584 74.6448 330.426 74.5983 330.271C74.5221 329.972 74.3765 329.691 74.1713 329.448C73.9661 329.204 73.7062 329.004 73.4089 328.86C73.1117 328.716 72.7841 328.632 72.4483 328.614C72.1125 328.596 71.7763 328.643 71.4623 328.754C69.5964 329.434 68.7732 332.663 68.8908 334.303C68.8908 334.403 69.1025 335.441 69.2436 336.093C69.0947 335.72 68.9614 335.377 68.8046 334.976C68.4988 334.217 68.1695 333.465 67.8246 332.663L67.3307 331.51C67.1582 331.116 66.9151 330.723 66.7035 330.322C66.2017 329.412 65.6372 328.51 65.0492 327.608C65.7783 327.365 68.342 326.462 69.3063 325.603C70.2707 324.744 71.235 323.405 71.0625 322.116C71.0366 321.81 70.9392 321.513 70.7768 321.244C70.6144 320.975 70.3909 320.741 70.1212 320.558C69.8515 320.375 69.542 320.247 69.2134 320.182C68.8849 320.117 68.545 320.118 68.2166 320.183C66.2487 320.598 64.9003 323.677 64.7513 325.317C64.7513 325.417 64.7513 326.606 64.8062 327.257C64.4455 326.72 64.0927 326.176 63.7086 325.646C62.611 324.107 61.4428 322.582 60.2825 321.057L59.2319 319.625C59.4907 319.539 62.5718 318.529 63.6537 317.562C64.7356 316.596 65.5823 315.372 65.402 314.083C65.366 313.781 65.2617 313.49 65.0958 313.228C64.9299 312.965 64.706 312.737 64.4383 312.558C64.1706 312.379 63.865 312.253 63.541 312.187C63.2169 312.122 62.8815 312.119 62.5561 312.178C60.5961 312.593 59.2398 315.679 59.0908 317.312C59.0908 317.434 59.0908 319.145 59.1692 319.574C58.3852 318.543 57.6012 317.505 56.9427 316.46C55.9856 315.047 55.1318 313.579 54.3868 312.064C54.5123 312.021 57.7267 310.975 58.8399 309.994C59.7964 309.135 60.7607 307.796 60.5883 306.507C60.5624 306.201 60.4649 305.904 60.3026 305.635C60.1402 305.366 59.9166 305.133 59.647 304.949C59.3773 304.766 59.0677 304.638 58.7392 304.573C58.4106 304.509 58.0707 304.509 57.7423 304.574C55.7745 304.99 54.426 308.068 54.2771 309.708C54.2771 309.815 54.2771 311.14 54.3398 311.734H54.2222C53.5183 310.193 52.9673 308.597 52.5758 306.966C52.3406 306.071 52.1759 305.204 52.0348 304.352C52.662 304.216 55.4923 303.55 56.5977 302.763C57.7031 301.975 58.7772 300.779 58.7537 299.483C58.7656 299.176 58.7052 298.87 58.5766 298.586C58.448 298.302 58.2542 298.047 58.0082 297.837C57.7622 297.628 57.4698 297.468 57.1507 297.371C56.8317 297.273 56.4933 297.239 56.1587 297.271C54.1595 297.486 52.4425 300.414 52.0975 302.025C52.0975 302.111 51.9878 303.021 51.9407 303.686C51.8859 303.3 51.8153 302.906 51.7683 302.541C51.5958 301.159 51.5252 299.884 51.4703 298.753C51.4703 298.109 51.4703 297.529 51.4703 296.985C52.0035 296.555 54.1281 294.837 54.7004 293.67C55.2727 292.502 55.6334 290.992 54.9591 289.846C54.8095 289.572 54.5985 289.33 54.3398 289.135C54.0811 288.941 53.7804 288.798 53.4574 288.716C53.1343 288.634 52.796 288.616 52.4645 288.661C52.133 288.707 51.8157 288.815 51.5331 288.98C49.871 290.011 49.8239 293.326 50.3335 294.908C50.3335 295.044 51.3214 297.106 51.3527 297.056C51.3527 297.579 51.3527 298.145 51.3527 298.753C51.3527 299.892 51.4155 301.166 51.5566 302.562C51.6945 304.063 51.9301 305.555 52.2622 307.03C52.6212 308.684 53.1461 310.304 53.8302 311.87V311.928C53.4539 311.512 52.3719 310.374 52.2622 310.295C50.9294 309.192 47.6523 307.768 45.9039 308.677C45.614 308.833 45.364 309.043 45.1708 309.295C44.9776 309.546 44.8457 309.833 44.784 310.135C44.7223 310.437 44.7323 310.747 44.8133 311.045C44.8942 311.344 45.0442 311.622 45.2532 311.863C46.0372 312.923 47.7777 313.295 49.1262 313.338C50.6393 313.374 53.6655 312.2 53.9086 312.107C54.6381 313.691 55.4869 315.226 56.4487 316.703C56.9975 317.57 57.5777 318.429 58.1735 319.274C57.8443 318.923 57.5385 318.615 57.4915 318.558C56.1587 317.455 52.8815 316.03 51.1332 316.94C50.8433 317.095 50.5932 317.306 50.4 317.557C50.2069 317.809 50.075 318.095 50.0133 318.397C49.9516 318.699 49.9616 319.01 50.0425 319.308C50.1235 319.606 50.2735 319.885 50.4825 320.126C51.2665 321.185 53.007 321.558 54.3555 321.601C55.7039 321.644 58.2755 320.684 59.0046 320.419C59.2398 320.742 59.4671 321.071 59.6945 321.393C60.8235 322.947 61.9446 324.493 63.003 326.033C63.3715 326.577 63.7164 327.128 64.0692 327.68C63.7713 327.365 63.5126 327.107 63.4734 327.071C62.1406 325.961 58.8556 324.536 57.1073 325.453C56.8155 325.608 56.5637 325.818 56.3689 326.07C56.1742 326.322 56.041 326.609 55.9785 326.912C55.9161 327.215 55.9257 327.527 56.0068 327.826C56.088 328.125 56.2387 328.405 56.4487 328.646C57.2327 329.699 58.9732 330.078 60.3217 330.114C61.6702 330.15 64.0457 329.298 64.8611 328.99Z" fill="#263238"/>
<path opacity="0.3" d="M46.719 304.178C48.2243 304.593 51.7287 304.142 51.7287 304.135C51.7287 304.127 50.7017 302.123 50.6233 301.987C49.659 300.598 46.9071 298.407 44.955 298.893C44.6289 298.972 44.325 299.113 44.064 299.308C43.803 299.503 43.591 299.747 43.4423 300.024C43.2936 300.3 43.2117 300.602 43.2021 300.91C43.1926 301.218 43.2556 301.524 43.387 301.808C43.9044 303.039 45.4724 303.82 46.719 304.178Z" fill="#263238"/>
<path opacity="0.3" d="M82.3206 301.02C82.3206 301.02 82.6812 298.822 82.689 298.679C82.689 297.039 81.7326 293.846 79.8274 293.245C79.5082 293.149 79.1701 293.116 78.836 293.149C78.5019 293.183 78.1795 293.281 77.8905 293.438C77.6015 293.595 77.3526 293.806 77.1606 294.058C76.9687 294.31 76.8381 294.597 76.7777 294.899C76.4562 296.166 77.2559 297.584 78.1183 298.529C79.1297 299.639 82.3206 301.02 82.3206 301.02Z" fill="#263238"/>
<path opacity="0.3" d="M64.8611 328.99C65.1982 329.563 65.5353 330.135 65.8332 330.701C66.0292 331.088 66.2409 331.453 66.4134 331.861C66.5859 332.269 66.7662 332.649 66.9465 333.035C67.2523 333.794 67.5737 334.575 67.8481 335.319C68.0519 335.835 68.2323 336.336 68.4126 336.837C68.0441 336.286 67.3071 335.233 67.2366 335.155C66.1076 333.873 63.0971 332.011 61.2233 332.67C60.9139 332.788 60.6351 332.964 60.405 333.187C60.1749 333.41 59.9987 333.674 59.8878 333.963C59.7769 334.252 59.7338 334.559 59.7613 334.864C59.7888 335.17 59.8862 335.466 60.0473 335.735C60.6902 336.894 62.3131 337.503 63.6302 337.725C65.0884 337.961 68.1539 337.267 68.538 337.174C68.8359 338.004 69.1103 338.813 69.322 339.579C69.7767 340.94 70.1531 342.193 70.4745 343.296H71.8151C71.4388 342.107 71.0311 340.754 70.4667 339.257C70.1687 338.412 69.8316 337.517 69.471 336.601C70.3662 336.159 71.2303 335.666 72.0582 335.126C73.2107 336.028 75.9782 336.93 76.3545 337.045C76.0958 337.883 75.8449 338.699 75.5705 339.465C75.1079 340.897 74.6454 342.179 74.2299 343.296H75.5783C75.939 342.243 76.3623 341.069 76.723 339.773C76.9817 338.921 77.2404 338.004 77.507 337.059C77.8911 337.059 81.0428 337.324 82.4383 336.873C83.7084 336.465 85.198 335.62 85.6292 334.381C85.7498 334.092 85.8005 333.783 85.778 333.474C85.7554 333.165 85.6601 332.865 85.4986 332.593C85.337 332.321 85.113 332.084 84.842 331.898C84.5709 331.713 84.2591 331.583 83.9279 331.517C81.9601 331.138 79.318 333.422 78.4399 334.847C78.3851 334.933 77.9303 335.906 77.6559 336.522C77.7579 336.136 77.8676 335.763 77.9695 335.362C78.1734 334.582 78.3459 333.787 78.5419 332.935C78.6203 332.527 78.7065 332.104 78.7849 331.689C78.8633 331.274 78.9103 330.823 78.9731 330.379C79.1063 329.362 79.1847 328.331 79.2318 327.286C80.0158 327.443 82.6735 328.002 83.9985 327.751C85.3235 327.501 86.9307 326.899 87.5657 325.732C87.7297 325.464 87.8286 325.166 87.8558 324.859C87.8831 324.553 87.8379 324.245 87.7234 323.956C87.609 323.666 87.4279 323.403 87.1924 323.183C86.9569 322.964 86.6724 322.793 86.3583 322.682C84.4689 322.037 81.4819 323.928 80.3686 325.217C80.298 325.295 79.5846 326.305 79.2475 326.863C79.2475 326.233 79.3023 325.61 79.3023 324.973C79.3023 323.133 79.3023 321.271 79.2161 319.417V317.713C79.4827 317.77 82.6657 318.479 84.1475 318.214C85.4646 317.985 87.0796 317.362 87.7068 316.195C87.871 315.927 87.9703 315.63 87.998 315.324C88.0258 315.017 87.9813 314.709 87.8676 314.42C87.7539 314.131 87.5737 313.868 87.339 313.648C87.1043 313.428 86.8207 313.256 86.5073 313.145C84.6179 312.5 81.6308 314.391 80.5175 315.679C80.4313 315.78 79.4435 317.226 79.2161 317.605C79.2161 316.36 79.2161 315.114 79.2161 313.882C79.2731 312.224 79.4486 310.572 79.7414 308.935C79.8668 308.935 83.1831 309.708 84.7041 309.443C86.0212 309.214 87.6363 308.591 88.2635 307.424C88.4276 307.156 88.5269 306.859 88.5547 306.553C88.5824 306.246 88.5379 305.938 88.4242 305.649C88.3106 305.36 88.1303 305.097 87.8956 304.877C87.661 304.657 87.3774 304.485 87.0639 304.374C85.1745 303.729 82.1875 305.62 81.0663 306.908C80.9958 306.994 80.2823 308.097 79.8982 308.627L79.7884 308.591C80.1349 306.95 80.6386 305.34 81.2937 303.779C81.6465 302.92 82.0307 302.111 82.4227 301.338C83.0263 301.531 85.786 302.405 87.1894 302.305C88.5927 302.204 90.1999 301.746 90.9683 300.658C91.1632 300.407 91.297 300.122 91.3608 299.82C91.4246 299.519 91.4169 299.208 91.3381 298.91C91.2594 298.611 91.1114 298.331 90.9043 298.09C90.6971 297.848 90.4355 297.649 90.1372 297.507C88.3419 296.677 85.1431 298.223 83.8652 299.419C83.7947 299.483 83.1753 300.199 82.7284 300.729C82.9166 300.378 83.0969 300.013 83.2851 299.691C83.9671 298.445 84.6806 297.35 85.3235 296.383C85.6919 295.832 86.0369 295.345 86.3662 294.887C87.0639 294.801 89.8863 294.414 91.0702 293.748C92.254 293.082 93.4692 291.987 93.5947 290.691C93.6421 290.385 93.6165 290.073 93.5198 289.776C93.423 289.48 93.2573 289.206 93.034 288.974C92.8106 288.741 92.535 288.555 92.2258 288.429C91.9167 288.303 91.5813 288.239 91.2426 288.242C89.2278 288.242 87.1894 291.013 86.6563 292.581C86.6092 292.717 86.1623 294.915 86.1937 294.908H86.2407C85.9115 295.345 85.5665 295.81 85.2059 296.34C84.5395 297.293 83.7947 298.381 83.0812 299.62C82.288 300.938 81.5811 302.298 80.9644 303.694C80.2648 305.255 79.7191 306.87 79.3337 308.519C79.3337 308.519 79.3337 308.562 79.3337 308.577C79.2788 308.04 79.0593 306.55 79.0279 306.429C78.5889 304.832 76.6759 301.989 74.7003 301.875C74.3644 301.858 74.0287 301.908 73.7156 302.02C73.4025 302.132 73.1193 302.304 72.8853 302.525C72.6512 302.745 72.4717 303.009 72.3588 303.299C72.2458 303.588 72.2021 303.896 72.2307 304.202C72.2855 305.505 73.4694 306.679 74.5827 307.381C75.8214 308.176 79.0515 308.727 79.2867 308.77C78.9419 310.456 78.7193 312.162 78.6203 313.875C78.5575 314.87 78.5262 315.88 78.5105 316.889C78.4399 316.424 78.3772 316.016 78.3615 315.959C77.9225 314.362 76.0095 311.519 74.0339 311.405C73.698 311.388 73.3623 311.438 73.0492 311.55C72.7361 311.662 72.4529 311.834 72.2189 312.055C71.9848 312.275 71.8053 312.539 71.6924 312.829C71.5794 313.118 71.5357 313.426 71.5643 313.732C71.6191 315.035 72.803 316.209 73.9163 316.911C75.0295 317.613 77.7735 318.142 78.5027 318.271C78.5027 318.658 78.5027 319.045 78.5027 319.431C78.5027 321.293 78.5027 323.147 78.4556 324.973C78.4556 325.61 78.3929 326.248 78.3537 326.878C78.291 326.462 78.2361 326.119 78.2204 326.069C77.7814 324.472 75.9076 321.629 73.8927 321.515C73.5576 321.499 73.2226 321.55 72.9105 321.662C72.5984 321.775 72.3162 321.947 72.083 322.168C71.8499 322.388 71.671 322.651 71.5586 322.94C71.4461 323.229 71.4026 323.536 71.431 323.842C71.4859 325.145 72.6697 326.319 73.783 327.021C74.8963 327.723 77.3737 328.202 78.2361 328.36C78.1734 329.004 78.1107 329.649 78.0166 330.271C77.946 330.701 77.9068 331.109 77.8049 331.532C77.703 331.954 77.6246 332.369 77.5305 332.785C77.3345 333.565 77.1307 334.381 76.9111 335.147C76.7622 335.677 76.6132 336.179 76.4564 336.687C76.4564 336.05 76.5113 334.804 76.4564 334.696C76.2519 333.262 75.6442 331.9 74.6924 330.744C74.6763 330.584 74.6448 330.426 74.5983 330.271C74.5221 329.972 74.3765 329.691 74.1713 329.448C73.9661 329.204 73.7062 329.004 73.4089 328.86C73.1117 328.716 72.7841 328.632 72.4483 328.614C72.1125 328.596 71.7763 328.643 71.4623 328.754C69.5964 329.434 68.7732 332.663 68.8908 334.303C68.8908 334.403 69.1025 335.441 69.2436 336.093C69.0947 335.72 68.9614 335.377 68.8046 334.976C68.4988 334.217 68.1695 333.465 67.8246 332.663L67.3307 331.51C67.1582 331.116 66.9151 330.723 66.7035 330.322C66.2017 329.412 65.6372 328.51 65.0492 327.608C65.7783 327.365 68.342 326.462 69.3063 325.603C70.2707 324.744 71.235 323.405 71.0625 322.116C71.0366 321.81 70.9392 321.513 70.7768 321.244C70.6144 320.975 70.3909 320.741 70.1212 320.558C69.8515 320.375 69.542 320.247 69.2134 320.182C68.8849 320.117 68.545 320.118 68.2166 320.183C66.2487 320.598 64.9003 323.677 64.7513 325.317C64.7513 325.417 64.7513 326.606 64.8062 327.257C64.4455 326.72 64.0927 326.176 63.7086 325.646C62.611 324.107 61.4428 322.582 60.2825 321.057L59.2319 319.625C59.4907 319.539 62.5718 318.529 63.6537 317.562C64.7356 316.596 65.5823 315.372 65.402 314.083C65.366 313.781 65.2617 313.49 65.0958 313.228C64.9299 312.965 64.706 312.737 64.4383 312.558C64.1706 312.379 63.865 312.253 63.541 312.187C63.2169 312.122 62.8815 312.119 62.5561 312.178C60.5961 312.593 59.2398 315.679 59.0908 317.312C59.0908 317.434 59.0908 319.145 59.1692 319.574C58.3852 318.543 57.6012 317.505 56.9427 316.46C55.9856 315.047 55.1318 313.579 54.3868 312.064C54.5123 312.021 57.7267 310.975 58.8399 309.994C59.7964 309.135 60.7607 307.796 60.5883 306.507C60.5624 306.201 60.4649 305.904 60.3026 305.635C60.1402 305.366 59.9166 305.133 59.647 304.949C59.3773 304.766 59.0677 304.638 58.7392 304.573C58.4106 304.509 58.0707 304.509 57.7423 304.574C55.7745 304.99 54.426 308.068 54.2771 309.708C54.2771 309.815 54.2771 311.14 54.3398 311.734H54.2222C53.5183 310.193 52.9673 308.597 52.5758 306.966C52.3406 306.071 52.1759 305.204 52.0348 304.352C52.662 304.216 55.4923 303.55 56.5977 302.763C57.7031 301.975 58.7772 300.779 58.7537 299.483C58.7656 299.176 58.7052 298.87 58.5766 298.586C58.448 298.302 58.2542 298.047 58.0082 297.837C57.7622 297.628 57.4698 297.468 57.1507 297.371C56.8317 297.273 56.4933 297.239 56.1587 297.271C54.1595 297.486 52.4425 300.414 52.0975 302.025C52.0975 302.111 51.9878 303.021 51.9407 303.686C51.8859 303.3 51.8153 302.906 51.7683 302.541C51.5958 301.159 51.5252 299.884 51.4703 298.753C51.4703 298.109 51.4703 297.529 51.4703 296.985C52.0035 296.555 54.1281 294.837 54.7004 293.67C55.2727 292.502 55.6334 290.992 54.9591 289.846C54.8095 289.572 54.5985 289.33 54.3398 289.135C54.0811 288.941 53.7804 288.798 53.4574 288.716C53.1343 288.634 52.796 288.616 52.4645 288.661C52.133 288.707 51.8157 288.815 51.5331 288.98C49.871 290.011 49.8239 293.326 50.3335 294.908C50.3335 295.044 51.3214 297.106 51.3527 297.056C51.3527 297.579 51.3527 298.145 51.3527 298.753C51.3527 299.892 51.4155 301.166 51.5566 302.562C51.6945 304.063 51.9301 305.555 52.2622 307.03C52.6212 308.684 53.1461 310.304 53.8302 311.87V311.928C53.4539 311.512 52.3719 310.374 52.2622 310.295C50.9294 309.192 47.6523 307.768 45.9039 308.677C45.614 308.833 45.364 309.043 45.1708 309.295C44.9776 309.546 44.8457 309.833 44.784 310.135C44.7223 310.437 44.7323 310.747 44.8133 311.045C44.8942 311.344 45.0442 311.622 45.2532 311.863C46.0372 312.923 47.7777 313.295 49.1262 313.338C50.6393 313.374 53.6655 312.2 53.9086 312.107C54.6381 313.691 55.4869 315.226 56.4487 316.703C56.9975 317.57 57.5777 318.429 58.1735 319.274C57.8443 318.923 57.5385 318.615 57.4915 318.558C56.1587 317.455 52.8815 316.03 51.1332 316.94C50.8433 317.095 50.5932 317.306 50.4 317.557C50.2069 317.809 50.075 318.095 50.0133 318.397C49.9516 318.699 49.9616 319.01 50.0425 319.308C50.1235 319.606 50.2735 319.885 50.4825 320.126C51.2665 321.185 53.007 321.558 54.3555 321.601C55.7039 321.644 58.2755 320.684 59.0046 320.419C59.2398 320.742 59.4671 321.071 59.6945 321.393C60.8235 322.947 61.9446 324.493 63.003 326.033C63.3715 326.577 63.7164 327.128 64.0692 327.68C63.7713 327.365 63.5126 327.107 63.4734 327.071C62.1406 325.961 58.8556 324.536 57.1073 325.453C56.8155 325.608 56.5637 325.818 56.3689 326.07C56.1742 326.322 56.041 326.609 55.9785 326.912C55.9161 327.215 55.9257 327.527 56.0068 327.826C56.088 328.125 56.2387 328.405 56.4487 328.646C57.2327 329.699 58.9732 330.078 60.3217 330.114C61.6702 330.15 64.0457 329.298 64.8611 328.99Z" fill="#263238"/>
<g opacity="0.2">
<path d="M259.253 137.168C259.417 137.24 261.017 126.428 261.032 125.712C261.205 117.7 256.391 102.127 247.101 99.2205C240.413 97.1154 233.773 101.24 232.205 107.275C230.637 113.447 234.557 120.371 238.735 124.975C243.659 130.402 259.245 137.161 259.253 137.168Z" fill="black"/>
<path d="M85.5969 152.508C92.9665 154.542 110.042 152.336 110.058 152.329C110.23 152.329 105.04 142.491 104.64 141.904C99.9363 135.138 86.5221 124.577 77.0043 126.818C70.1521 128.465 67.1102 135.253 69.4622 141.052C71.8613 147.009 79.3249 150.804 85.5969 152.508Z" fill="black"/>
<path d="M174.048 273.511C175.694 276.289 177.341 279.074 178.799 281.838C179.74 283.75 180.798 285.525 181.629 287.494L184.216 293.222C185.714 296.924 187.282 300.726 188.638 304.371C189.603 306.898 190.473 309.318 191.359 311.76C189.587 309.096 185.996 303.955 185.643 303.554C180.155 297.318 165.463 288.239 156.298 291.461C149.697 293.788 147.525 300.848 150.591 306.383C153.727 312.032 161.622 315.025 168.066 316.084C175.169 317.251 190.112 313.858 191.97 313.421C193.421 317.466 194.785 321.404 196.008 325.142C198.203 331.786 200.053 337.872 201.613 343.271H208.136C206.333 337.478 204.161 330.855 201.566 323.559C200.116 319.45 198.43 315.089 196.737 310.621C201.087 308.463 205.294 306.072 209.336 303.461C214.973 307.858 228.52 312.254 230.269 312.805C229.038 316.908 227.799 320.882 226.56 324.619C224.279 331.564 222.052 337.829 220.014 343.292H226.599C228.356 338.159 230.237 332.423 232.15 326.108C233.42 321.948 234.69 317.481 235.945 312.884C237.826 313.034 253.193 314.194 260.014 311.989C266.191 309.991 273.451 305.874 275.545 299.817C277.591 293.903 274.204 287.258 267.273 285.934C257.662 284.101 244.788 295.242 240.453 302.194C240.194 302.602 237.96 307.342 236.611 310.356C237.113 308.473 237.623 306.655 238.109 304.707C239.104 300.877 239.982 297.024 240.931 292.879L242.099 286.771C242.53 284.745 242.711 282.547 243.032 280.413C243.659 275.451 244.036 270.389 244.287 265.298C247.963 266.093 261.072 268.721 267.54 267.597C274.008 266.473 281.832 263.415 284.906 257.738C287.916 252.174 285.69 245.136 279.041 242.866C269.837 239.73 255.27 248.945 249.829 255.224C249.484 255.618 246.137 260.53 244.341 263.258C244.467 260.193 244.616 257.129 244.631 254.029C244.679 245.057 244.428 235.985 244.216 226.928C244.145 224.157 244.122 221.393 244.083 218.622C245.384 218.916 260.892 222.353 268.136 221.093C274.572 219.976 282.428 216.911 285.501 211.233C288.504 205.67 286.285 198.632 279.629 196.369C270.425 193.226 255.866 202.441 250.417 208.727C250.01 209.2 245.196 216.267 244.067 218.121C243.981 212.028 243.957 205.949 244.2 199.963C244.481 191.873 245.338 183.809 246.764 175.82C247.368 175.963 263.534 179.615 270.95 178.326C277.387 177.202 285.251 174.137 288.316 168.459C291.327 162.903 289.1 155.858 282.452 153.595C273.271 150.459 258.72 159.667 253.232 165.961C252.871 166.369 249.202 171.753 247.524 174.352L246.999 174.173C248.667 166.17 251.118 158.32 254.322 150.717C256.023 146.514 257.905 142.576 259.81 138.788C262.742 139.748 276.203 144.015 283.016 143.521C289.555 143.056 297.732 140.8 301.471 135.466C305.125 130.239 303.737 123.015 297.418 120.101C288.653 116.055 273.067 123.752 266.905 129.452C266.568 129.76 263.542 133.261 261.37 135.831C262.271 134.134 263.165 132.366 264.059 130.755C267.415 124.698 270.888 119.342 274.008 114.623C275.811 111.953 277.489 109.568 279.096 107.349C282.514 106.919 296.266 105.043 301.965 101.8C307.524 98.6351 313.647 93.2079 314.274 86.8784C314.878 80.7065 310.009 74.8783 302.93 74.9499C293.106 75.0501 283.157 88.4393 280.562 96.0934C280.335 96.7521 278.124 107.463 278.304 107.449H278.508C276.94 109.554 275.247 111.824 273.475 114.337C270.229 119.005 266.615 124.311 263.11 130.325C259.251 136.766 255.809 143.407 252.801 150.216C249.386 157.825 246.721 165.696 244.835 173.736C244.835 173.829 244.835 173.93 244.788 174.03C244.498 171.409 243.424 164.128 243.267 163.576C241.119 155.808 231.97 141.946 222.17 141.38C215.114 140.965 209.892 146.55 210.143 152.743C210.394 159.073 216.188 164.808 221.558 168.245C227.611 172.111 243.369 174.789 244.624 174.997C242.927 183.222 241.835 191.541 241.354 199.899C241.049 204.761 240.9 209.672 240.821 214.599C240.492 212.35 240.178 210.303 240.1 210.059C237.952 202.29 228.803 188.429 218.995 187.863C211.939 187.441 206.725 193.025 206.976 199.226C207.227 205.555 213.021 211.283 218.391 214.72C223.761 218.157 237.207 220.727 240.766 221.35C240.766 223.241 240.727 225.131 240.727 227.021C240.727 236.086 240.727 245.136 240.5 254.014C240.406 257.143 240.194 260.222 239.99 263.322C239.692 261.325 239.426 259.642 239.355 259.384C237.207 251.616 228.058 237.761 218.258 237.188C211.202 236.773 205.98 242.351 206.231 248.551C206.482 254.881 212.284 260.616 217.646 264.045C222.844 267.368 235.176 269.773 239.387 270.568C239.081 273.712 238.775 276.869 238.312 279.876C237.952 281.945 237.756 283.957 237.262 286.02C236.768 288.082 236.392 290.094 235.96 292.098C234.973 295.936 233.977 299.903 232.911 303.626C232.189 306.218 231.452 308.681 230.723 311.158C230.849 308.044 230.966 301.951 230.911 301.435C230.355 296.137 227.18 287.767 222.287 282.175C222.212 281.39 222.057 280.613 221.825 279.855C219.967 273.89 213.123 270.053 206.545 272.444C197.411 275.759 193.405 291.526 194.001 299.516C194.001 299.989 195.036 305.065 195.726 308.266C195.004 306.44 194.33 304.686 193.57 302.795C192.08 299.101 190.481 295.442 188.779 291.511C187.878 289.635 186.976 287.745 186.059 285.826C185.142 283.907 184.013 281.996 182.993 280.055C180.524 275.602 177.788 271.198 174.918 266.816C178.462 265.621 190.982 261.21 195.694 257.014C200.406 252.819 205.102 246.324 204.224 240.038C203.377 233.888 197.247 229.148 190.347 230.601C180.775 232.613 174.197 247.642 173.452 255.625C173.405 256.119 173.57 261.905 173.734 265.077C171.986 262.456 170.253 259.835 168.395 257.236C163.025 249.733 157.325 242.293 151.68 234.847C149.956 232.563 148.262 230.272 146.553 227.988C147.815 227.572 162.829 222.625 168.105 217.928C172.809 213.746 177.513 207.238 176.635 200.952C175.788 194.801 169.658 190.061 162.758 191.515C153.186 193.527 146.608 208.548 145.863 216.532C145.8 217.133 146.059 225.46 146.239 227.572C142.484 222.56 138.799 217.477 135.381 212.365C130.73 205.474 126.572 198.315 122.931 190.935C123.527 190.741 139.215 185.643 144.624 180.832C149.328 176.658 154.032 170.142 153.147 163.856C152.3 157.705 146.169 152.965 139.278 154.419C129.697 156.431 123.119 171.46 122.375 179.436C122.327 179.966 122.516 186.309 122.68 189.317L122.139 189.431C118.715 181.893 116.041 174.088 114.15 166.111C113.029 161.751 112.222 157.519 111.54 153.388C114.574 152.707 128.38 149.478 133.766 145.641C138.933 141.953 144.389 135.953 144.287 129.624C144.178 123.423 138.658 118.096 131.626 118.848C121.873 119.886 113.523 134.163 111.822 142.025C111.728 142.447 111.312 146.894 111.038 150.13C110.764 148.261 110.442 146.335 110.254 144.538C109.391 137.8 109.054 131.578 108.803 126.072C108.694 122.936 108.655 120.101 108.655 117.48C111.25 115.404 121.583 106.905 124.382 101.327C127.102 95.8857 128.921 88.2603 125.628 82.7113C122.406 77.2554 114.825 74.8353 108.96 78.4726C100.83 83.4846 100.626 99.6877 103.08 107.385C103.292 108.043 107.918 118.125 108.059 117.989L108.215 117.86C108.161 120.416 108.129 123.158 108.168 126.151C108.286 131.671 108.474 137.922 109.18 144.703C109.855 152.017 110.996 159.29 112.598 166.483C114.345 174.55 116.879 182.458 120.171 190.111C120.211 190.204 120.266 190.29 120.305 190.383C118.478 188.35 113.178 182.815 112.723 182.429C106.24 177.03 90.2305 170.085 81.7085 174.553C75.5619 177.767 74.5897 185.042 78.5725 190.09C82.5552 195.138 90.9048 197.107 97.459 197.25C104.844 197.429 119.599 191.722 120.767 191.264C124.324 198.977 128.442 206.464 133.092 213.675C135.773 217.892 138.58 222.066 141.52 226.212C139.889 224.501 138.384 222.976 138.18 222.79C131.696 217.384 115.687 210.439 107.165 214.914C101.018 218.121 100.046 225.403 104.029 230.444C108.067 235.599 116.361 237.46 122.915 237.604C129.47 237.747 142.249 233.129 145.589 231.876C146.718 233.458 147.831 235.047 148.976 236.623C154.464 244.191 159.952 251.723 165.087 259.255C166.906 261.912 168.583 264.59 170.277 267.26C168.819 265.735 167.58 264.468 167.368 264.296C160.885 258.897 144.883 251.945 136.361 256.42C130.215 259.628 129.242 266.909 133.225 271.95C137.263 277.105 145.557 278.967 152.104 279.11C158.368 279.239 170.128 275.015 174.048 273.511Z" fill="black"/>
<path opacity="0.3" d="M85.5969 152.508C92.9665 154.542 110.042 152.336 110.058 152.329C110.23 152.329 105.04 142.491 104.64 141.904C99.9363 135.138 86.5221 124.577 77.0043 126.818C70.1521 128.465 67.1102 135.253 69.4622 141.052C71.8613 147.009 79.3249 150.804 85.5969 152.508Z" fill="black"/>
<path opacity="0.3" d="M259.253 137.168C259.417 137.24 261.017 126.428 261.032 125.712C261.205 117.7 256.391 102.127 247.101 99.2205C240.413 97.1154 233.773 101.24 232.205 107.275C230.637 113.447 234.557 120.371 238.735 124.975C243.659 130.402 259.245 137.161 259.253 137.168Z" fill="black"/>
<path opacity="0.3" d="M174.048 273.511C175.694 276.289 177.341 279.074 178.799 281.838C179.74 283.75 180.798 285.525 181.629 287.494L184.216 293.222C185.714 296.924 187.282 300.726 188.638 304.371C189.603 306.898 190.473 309.318 191.359 311.76C189.587 309.096 185.996 303.955 185.643 303.554C180.155 297.318 165.463 288.239 156.298 291.461C149.697 293.788 147.525 300.848 150.591 306.383C153.727 312.032 161.622 315.025 168.066 316.084C175.169 317.251 190.112 313.858 191.97 313.421C193.421 317.466 194.785 321.404 196.008 325.142C198.203 331.786 200.053 337.872 201.613 343.271H208.136C206.333 337.478 204.161 330.855 201.566 323.559C200.116 319.45 198.43 315.089 196.737 310.621C201.087 308.463 205.294 306.072 209.336 303.461C214.973 307.858 228.52 312.254 230.269 312.805C229.038 316.908 227.799 320.882 226.56 324.619C224.279 331.564 222.052 337.829 220.014 343.292H226.599C228.356 338.159 230.237 332.423 232.15 326.108C233.42 321.948 234.69 317.481 235.945 312.884C237.826 313.034 253.193 314.194 260.014 311.989C266.191 309.991 273.451 305.874 275.545 299.817C277.591 293.903 274.204 287.258 267.273 285.934C257.662 284.101 244.788 295.242 240.453 302.194C240.194 302.602 237.96 307.342 236.611 310.356C237.113 308.473 237.623 306.655 238.109 304.707C239.104 300.877 239.982 297.024 240.931 292.879L242.099 286.771C242.53 284.745 242.711 282.547 243.032 280.413C243.659 275.451 244.036 270.389 244.287 265.298C247.963 266.093 261.072 268.721 267.54 267.597C274.008 266.473 281.832 263.415 284.906 257.738C287.916 252.174 285.69 245.136 279.041 242.866C269.837 239.73 255.27 248.945 249.829 255.224C249.484 255.618 246.137 260.53 244.341 263.258C244.467 260.193 244.616 257.129 244.631 254.029C244.679 245.057 244.428 235.985 244.216 226.928C244.145 224.157 244.122 221.393 244.083 218.622C245.384 218.916 260.892 222.353 268.136 221.093C274.572 219.976 282.428 216.911 285.501 211.233C288.504 205.67 286.285 198.632 279.629 196.369C270.425 193.226 255.866 202.441 250.417 208.727C250.01 209.2 245.196 216.267 244.067 218.121C243.981 212.028 243.957 205.949 244.2 199.963C244.481 191.873 245.338 183.809 246.764 175.82C247.368 175.963 263.534 179.615 270.95 178.326C277.387 177.202 285.251 174.137 288.316 168.459C291.327 162.903 289.1 155.858 282.452 153.595C273.271 150.459 258.72 159.667 253.232 165.961C252.871 166.369 249.202 171.753 247.524 174.352L246.999 174.173C248.667 166.17 251.118 158.32 254.322 150.717C256.023 146.514 257.905 142.576 259.81 138.788C262.742 139.748 276.203 144.015 283.016 143.521C289.555 143.056 297.732 140.8 301.471 135.466C305.125 130.239 303.737 123.015 297.418 120.101C288.653 116.055 273.067 123.752 266.905 129.452C266.568 129.76 263.542 133.261 261.37 135.831C262.271 134.134 263.165 132.366 264.059 130.755C267.415 124.698 270.888 119.342 274.008 114.623C275.811 111.953 277.489 109.568 279.096 107.349C282.514 106.919 296.266 105.043 301.965 101.8C307.524 98.6351 313.647 93.2079 314.274 86.8784C314.878 80.7065 310.009 74.8783 302.93 74.9499C293.106 75.0501 283.157 88.4393 280.562 96.0934C280.335 96.7521 278.124 107.463 278.304 107.449H278.508C276.94 109.554 275.247 111.824 273.475 114.337C270.229 119.005 266.615 124.311 263.11 130.325C259.251 136.766 255.809 143.407 252.801 150.216C249.386 157.825 246.721 165.696 244.835 173.736C244.835 173.829 244.835 173.93 244.788 174.03C244.498 171.409 243.424 164.128 243.267 163.576C241.119 155.808 231.97 141.946 222.17 141.38C215.114 140.965 209.892 146.55 210.143 152.743C210.394 159.073 216.188 164.808 221.558 168.245C227.611 172.111 243.369 174.789 244.624 174.997C242.927 183.222 241.835 191.541 241.354 199.899C241.049 204.761 240.9 209.672 240.821 214.599C240.492 212.35 240.178 210.303 240.1 210.059C237.952 202.29 228.803 188.429 218.995 187.863C211.939 187.441 206.725 193.025 206.976 199.226C207.227 205.555 213.021 211.283 218.391 214.72C223.761 218.157 237.207 220.727 240.766 221.35C240.766 223.241 240.727 225.131 240.727 227.021C240.727 236.086 240.727 245.136 240.5 254.014C240.406 257.143 240.194 260.222 239.99 263.322C239.692 261.325 239.426 259.642 239.355 259.384C237.207 251.616 228.058 237.761 218.258 237.188C211.202 236.773 205.98 242.351 206.231 248.551C206.482 254.881 212.284 260.616 217.646 264.045C222.844 267.368 235.176 269.773 239.387 270.568C239.081 273.712 238.775 276.869 238.312 279.876C237.952 281.945 237.756 283.957 237.262 286.02C236.768 288.082 236.392 290.094 235.96 292.098C234.973 295.936 233.977 299.903 232.911 303.626C232.189 306.218 231.452 308.681 230.723 311.158C230.849 308.044 230.966 301.951 230.911 301.435C230.355 296.137 227.18 287.767 222.287 282.175C222.212 281.39 222.057 280.613 221.825 279.855C219.967 273.89 213.123 270.053 206.545 272.444C197.411 275.759 193.405 291.526 194.001 299.516C194.001 299.989 195.036 305.065 195.726 308.266C195.004 306.44 194.33 304.686 193.57 302.795C192.08 299.101 190.481 295.442 188.779 291.511C187.878 289.635 186.976 287.745 186.059 285.826C185.142 283.907 184.013 281.996 182.993 280.055C180.524 275.602 177.788 271.198 174.918 266.816C178.462 265.621 190.982 261.21 195.694 257.014C200.406 252.819 205.102 246.324 204.224 240.038C203.377 233.888 197.247 229.148 190.347 230.601C180.775 232.613 174.197 247.642 173.452 255.625C173.405 256.119 173.57 261.905 173.734 265.077C171.986 262.456 170.253 259.835 168.395 257.236C163.025 249.733 157.325 242.293 151.68 234.847C149.956 232.563 148.262 230.272 146.553 227.988C147.815 227.572 162.829 222.625 168.105 217.928C172.809 213.746 177.513 207.238 176.635 200.952C175.788 194.801 169.658 190.061 162.758 191.515C153.186 193.527 146.608 208.548 145.863 216.532C145.8 217.133 146.059 225.46 146.239 227.572C142.484 222.56 138.799 217.477 135.381 212.365C130.73 205.474 126.572 198.315 122.931 190.935C123.527 190.741 139.215 185.643 144.624 180.832C149.328 176.658 154.032 170.142 153.147 163.856C152.3 157.705 146.169 152.965 139.278 154.419C129.697 156.431 123.119 171.46 122.375 179.436C122.327 179.966 122.516 186.309 122.68 189.317L122.139 189.431C118.715 181.893 116.041 174.088 114.15 166.111C113.029 161.751 112.222 157.519 111.54 153.388C114.574 152.707 128.38 149.478 133.766 145.641C138.933 141.953 144.389 135.953 144.287 129.624C144.178 123.423 138.658 118.096 131.626 118.848C121.873 119.886 113.523 134.163 111.822 142.025C111.728 142.447 111.312 146.894 111.038 150.13C110.764 148.261 110.442 146.335 110.254 144.538C109.391 137.8 109.054 131.578 108.803 126.072C108.694 122.936 108.655 120.101 108.655 117.48C111.25 115.404 121.583 106.905 124.382 101.327C127.102 95.8857 128.921 88.2603 125.628 82.7113C122.406 77.2554 114.825 74.8353 108.96 78.4726C100.83 83.4846 100.626 99.6877 103.08 107.385C103.292 108.043 107.918 118.125 108.059 117.989L108.215 117.86C108.161 120.416 108.129 123.158 108.168 126.151C108.286 131.671 108.474 137.922 109.18 144.703C109.855 152.017 110.996 159.29 112.598 166.483C114.345 174.55 116.879 182.458 120.171 190.111C120.211 190.204 120.266 190.29 120.305 190.383C118.478 188.35 113.178 182.815 112.723 182.429C106.24 177.03 90.2305 170.085 81.7085 174.553C75.5619 177.767 74.5897 185.042 78.5725 190.09C82.5552 195.138 90.9048 197.107 97.459 197.25C104.844 197.429 119.599 191.722 120.767 191.264C124.324 198.977 128.442 206.464 133.092 213.675C135.773 217.892 138.58 222.066 141.52 226.212C139.889 224.501 138.384 222.976 138.18 222.79C131.696 217.384 115.687 210.439 107.165 214.914C101.018 218.121 100.046 225.403 104.029 230.444C108.067 235.599 116.361 237.46 122.915 237.604C129.47 237.747 142.249 233.129 145.589 231.876C146.718 233.458 147.831 235.047 148.976 236.623C154.464 244.191 159.952 251.723 165.087 259.255C166.906 261.912 168.583 264.59 170.277 267.26C168.819 265.735 167.58 264.468 167.368 264.296C160.885 258.897 144.883 251.945 136.361 256.42C130.215 259.628 129.242 266.909 133.225 271.95C137.263 277.105 145.557 278.967 152.104 279.11C158.368 279.239 170.128 275.015 174.048 273.511Z" fill="black"/>
</g>
<path d="M93.9309 36.0299C93.9309 36.0299 90.0736 26.9653 76.2988 25.9629C62.5239 24.9605 60.8696 38.5431 58.1178 40.555C55.366 42.567 49.8466 37.0323 44.3351 39.0443C40.9909 40.3151 38.2546 42.6363 36.6205 45.5885C36.6205 45.5885 31.6656 43.5765 28.3572 44.0777C25.0487 44.5789 21.1914 49.0897 21.1914 49.0897H114.323C114.323 49.0897 114.323 40.4977 107.714 37.512C101.105 34.5263 98.3448 41.0419 96.6906 40.5335C95.0364 40.0252 93.9309 36.0299 93.9309 36.0299Z" stroke="#263238" stroke-miterlimit="10"/>
<path d="M361.039 102.804C361.039 102.804 357.762 95.1002 346.041 94.2124C334.321 93.3245 332.917 104.945 330.573 106.685C328.229 108.425 323.517 103.685 318.852 105.396C316.007 106.478 313.68 108.454 312.29 110.967C312.29 110.967 308.072 109.256 305.234 109.678C302.396 110.1 299.143 113.974 299.143 113.974H378.327C378.327 113.974 378.327 106.699 372.705 104.129C367.084 101.559 364.732 107.129 363.297 106.699C361.863 106.27 361.039 102.804 361.039 102.804Z" stroke="#263238" stroke-miterlimit="10"/>
<path d="M100.093 244.215C100.093 244.215 95.475 233.36 78.964 232.157C62.453 230.954 60.4773 247.229 57.1766 249.642C53.876 252.055 47.2747 245.425 40.6734 247.838C36.6659 249.355 33.3865 252.134 31.4301 255.671C31.4301 255.671 25.4874 253.265 21.5203 253.866C17.5533 254.468 12.9434 259.909 12.9434 259.909H124.522C124.522 259.909 124.522 249.656 116.604 246.04C108.685 242.425 105.377 250.258 103.401 249.656C101.426 249.055 100.093 244.215 100.093 244.215Z" stroke="#263238" stroke-miterlimit="10"/>
<path d="M339.715 211.973C360.178 211.973 376.767 196.823 376.767 178.135C376.767 159.447 360.178 144.297 339.715 144.297C319.252 144.297 302.663 159.447 302.663 178.135C302.663 196.823 319.252 211.973 339.715 211.973Z" stroke="#263238" stroke-miterlimit="10"/>
<path d="M339.715 211.973C351.48 211.973 361.017 196.823 361.017 178.135C361.017 159.447 351.48 144.297 339.715 144.297C327.951 144.297 318.414 159.447 318.414 178.135C318.414 196.823 327.951 211.973 339.715 211.973Z" stroke="#263238" stroke-miterlimit="10"/>
<path d="M339.715 144.297V211.973" stroke="#263238" stroke-miterlimit="10"/>
<path d="M317.967 150.875H361.236" stroke="#263238" stroke-miterlimit="10"/>
<path d="M317.967 205.793H361.236" stroke="#263238" stroke-miterlimit="10"/>
<path d="M305.501 164.379H373.701" stroke="#263238" stroke-miterlimit="10"/>
<path d="M305.501 191.395H373.701" stroke="#263238" stroke-miterlimit="10"/>
<path d="M302.812 177.891H376.391" stroke="#263238" stroke-miterlimit="10"/>
<path d="M332.078 27.5586H245.29C242.272 27.5586 239.825 29.7929 239.825 32.5491V41.3559C239.825 44.1121 242.272 46.3464 245.29 46.3464H332.078C335.096 46.3464 337.543 44.1121 337.543 41.3559V32.5491C337.543 29.7929 335.096 27.5586 332.078 27.5586Z" stroke="#263238" stroke-miterlimit="10"/>
<path d="M313.717 27.4961V46.7135" stroke="#263238" stroke-miterlimit="10"/>
<path d="M335.277 42.3476L329.672 38.5027C330.442 37.1352 330.623 35.5539 330.18 34.0704C329.737 32.5869 328.701 31.3088 327.277 30.4882C325.853 29.6675 324.144 29.3638 322.487 29.6368C320.83 29.9099 319.345 30.7399 318.325 31.9633C317.305 33.1867 316.823 34.7148 316.976 36.2462C317.128 37.7776 317.903 39.2014 319.148 40.2368C320.393 41.2722 322.018 41.8442 323.701 41.8399C325.385 41.8357 327.006 41.2556 328.245 40.2139L333.866 44.066C334.07 44.2045 334.317 44.2798 334.572 44.2808C334.818 44.2808 335.059 44.2099 335.259 44.0781C335.459 43.9463 335.609 43.7603 335.687 43.5464C335.765 43.3326 335.768 43.1017 335.694 42.8866C335.621 42.6714 335.475 42.4829 335.277 42.3476ZM323.721 39.6913C322.863 39.6927 322.024 39.4617 321.31 39.0274C320.596 38.5932 320.039 37.9753 319.71 37.252C319.381 36.5286 319.294 35.7323 319.46 34.9637C319.626 34.1952 320.039 33.489 320.645 32.9345C321.251 32.3801 322.023 32.0023 322.865 31.8489C323.706 31.6955 324.578 31.7735 325.371 32.073C326.163 32.3725 326.841 32.88 327.318 33.5313C327.794 34.1825 328.049 34.9484 328.049 35.7318C328.047 36.7801 327.59 37.785 326.779 38.5269C325.968 39.2689 324.869 39.6875 323.721 39.6913Z" stroke="#263238" stroke-miterlimit="10"/>
<path d="M83.8882 115.161L61.6618 99.9603C64.6921 94.562 65.3985 88.3229 63.6417 82.4726C61.8849 76.6223 57.7923 71.5851 52.1705 68.3538C46.5488 65.1226 39.8056 63.9316 33.2701 65.0156C26.7345 66.0997 20.8806 69.3801 16.8621 74.2104C12.8435 79.0407 10.9518 85.0705 11.5598 91.1114C12.1678 97.1522 15.2314 102.766 20.1468 106.846C25.0622 110.927 31.4728 113.178 38.1152 113.155C44.7577 113.133 51.1501 110.84 56.0327 106.727L78.2669 121.956C78.7528 122.319 79.314 122.588 79.9168 122.748C80.5196 122.907 81.1515 122.954 81.7746 122.885C82.3976 122.816 82.999 122.633 83.5426 122.347C84.0862 122.06 84.5608 121.676 84.9378 121.218C85.3148 120.76 85.5864 120.236 85.7365 119.68C85.8865 119.123 85.9118 118.545 85.8109 117.979C85.7099 117.413 85.4847 116.872 85.149 116.388C84.8132 115.903 84.3736 115.486 83.8568 115.161H83.8882ZM38.1261 104.657C34.7327 104.659 31.4151 103.741 28.5929 102.02C25.7708 100.299 23.5709 97.8525 22.2716 94.9897C20.9723 92.1268 20.6319 88.9762 21.2936 85.9367C21.9552 82.8971 23.5891 80.105 25.9886 77.9136C28.3881 75.7222 31.4453 74.23 34.7736 73.6258C38.1019 73.0215 41.5516 73.3324 44.6864 74.519C47.8212 75.7056 50.5002 77.7147 52.3845 80.292C54.2688 82.8694 55.2737 85.8993 55.2722 88.9984C55.2659 93.1496 53.4575 97.1292 50.2433 100.065C47.0292 103 42.6716 104.652 38.1261 104.657Z" stroke="#263238" stroke-miterlimit="10"/>
<path d="M193.586 139.082C151.132 139.082 115.107 161.042 102.36 191.5C102.246 191.779 102.233 192.085 102.323 192.371C102.414 192.657 102.602 192.909 102.861 193.09L138.557 218.15C138.822 218.331 139.143 218.432 139.474 218.436H145.197C145.4 218.435 145.601 218.397 145.787 218.324C145.973 218.251 146.142 218.145 146.282 218.011C146.423 217.878 146.532 217.72 146.604 217.547C146.677 217.374 146.71 217.189 146.703 217.004C146.703 216.618 146.703 216.231 146.703 215.844C146.703 195.166 167.698 178.398 193.609 178.398C219.521 178.398 240.516 195.166 240.516 215.844C240.516 236.522 219.521 253.277 193.586 253.277C189.603 253.276 185.632 252.87 181.747 252.067C181.39 251.989 181.025 251.951 180.658 251.952C179.844 251.955 179.044 252.137 178.324 252.483C177.604 252.829 176.987 253.329 176.525 253.94C176.063 254.552 175.769 255.256 175.67 255.993C175.57 256.731 175.668 257.479 175.954 258.174L181.167 270.79V299.702H238.47V287.745C238.464 286.573 238.812 285.422 239.476 284.419C240.14 283.416 241.094 282.6 242.233 282.06C270.669 268.721 289.759 244.062 289.759 215.837C289.743 173.443 246.694 139.082 193.586 139.082Z" fill="#263238" stroke="#263238" stroke-miterlimit="10"/>
<path d="M238.454 305.367H181.151V343.301H238.454V305.367Z" fill="#263238" stroke="#263238" stroke-miterlimit="10"/>
<path d="M281.903 215.837C281.903 173.443 238.854 139.082 185.745 139.082C143.331 139.082 107.345 160.992 94.5584 191.407C94.4445 191.707 94.4428 192.033 94.5534 192.333C94.6641 192.634 94.8809 192.892 95.1699 193.068L136.518 217.026C136.747 217.165 137.014 217.245 137.289 217.256C137.564 217.268 137.837 217.21 138.079 217.09C138.321 216.97 138.523 216.792 138.662 216.575C138.802 216.358 138.873 216.11 138.87 215.859C138.87 195.181 159.873 178.412 185.777 178.412C211.68 178.412 232.684 195.181 232.684 215.859C232.684 236.537 211.68 253.277 185.745 253.277C183.515 253.278 181.287 253.151 179.074 252.897C178.363 252.811 177.64 252.864 176.954 253.053C176.267 253.242 175.633 253.563 175.093 253.994C174.553 254.425 174.121 254.957 173.824 255.553C173.528 256.149 173.374 256.796 173.374 257.451V270.79H173.311V299.702H230.614V287.745C230.61 286.573 230.959 285.423 231.622 284.421C232.286 283.418 233.239 282.601 234.377 282.06C262.813 268.721 281.903 244.062 281.903 215.837Z" fill="#3498DB" stroke="#263238" stroke-miterlimit="10"/>
<path d="M230.614 305.367H173.312V343.301H230.614V305.367Z" fill="#3498DB" stroke="#263238" stroke-miterlimit="10"/>
<path d="M180.712 65.0117C180.712 65.0117 175.051 67.3029 172.48 68.3698C171.022 69.0065 169.506 69.524 167.948 69.9163L172.268 71.9856L184.436 70.2385L180.712 65.0117Z" fill="white" stroke="#263238" stroke-miterlimit="10"/>
<path d="M162.672 67.3963C161.887 66.7095 161.239 65.9025 160.759 65.012C160.194 63.7805 159.058 64.3604 159.058 65.2698C159.095 66.1536 159.417 67.0077 159.983 67.7256C160.265 67.8545 163.236 68.3056 163.236 68.3056L162.672 67.3963Z" stroke="#263238" stroke-miterlimit="10"/>
<path d="M182.97 72.8818L184.169 79.0823C184.169 79.0823 181.817 91.3904 181.362 98.4716C180.908 105.553 180.578 110.164 181.025 112.011C181.472 113.858 187.297 131.809 187.297 131.809C187.297 131.809 186.286 132.94 186.286 133.241C186.286 133.541 186.176 134.673 186.176 134.673C185.292 135.479 184.352 136.232 183.362 136.928C182.131 137.751 179.544 138.467 179.998 139.291C180.453 140.114 183.479 139.291 186.85 139.291C190.222 139.291 192.574 139.699 193.812 138.883C195.051 138.066 193.922 134.98 193.922 134.98C193.922 134.98 194.04 132.832 194.149 132.21C194.259 131.587 192.691 128.415 192.801 127.491C192.911 126.567 190.12 108.116 190.12 108.116L195.733 89.1421C195.733 89.1421 204.945 110.479 206.074 111.503C207.203 112.527 222.358 130.176 222.358 130.176C222.358 130.176 221.346 131.2 221.684 131.715C221.958 132.107 222.259 132.482 222.585 132.84C222.585 132.84 221.456 134.988 220.782 135.918C220.108 136.849 218.203 137.35 218.54 137.973C218.877 138.596 222.358 138.689 223.244 138.482C224.13 138.274 227.736 134.687 228.732 133.971C229.727 133.255 231.648 131.916 231.648 130.992C231.648 130.069 229.743 128.945 229.626 128.637C229.508 128.329 229.288 126.997 228.614 126.582C227.961 126.206 227.286 125.864 226.591 125.558C226.145 125.35 214.91 107.5 214.91 107.5C214.91 107.5 209.861 80.0131 208.512 76.8341C207.164 73.655 199.504 64.5117 199.504 64.5117L182.97 72.8818Z" fill="#263238" stroke="#263238" stroke-miterlimit="10"/>
<path d="M170.74 55.8476C170.74 55.8476 172.221 62.0553 174.095 63.6807C175.969 65.306 179.716 65.7499 179.716 65.7499L182.97 72.8669C182.97 72.8669 194.801 69.5304 199.536 64.4897C199.536 64.4897 194.048 56.4777 189.971 51.344C185.894 46.2102 187.604 45.3224 181.888 42.2436C176.173 39.1648 171.532 43.4178 171.532 43.4178C171.532 43.4178 167.196 43.6112 170.74 55.8476Z" fill="#B5EB2E" stroke="#263238" stroke-miterlimit="10"/>
<path d="M163.755 25.969C163.755 25.969 162.602 23.821 155.131 24.9093C152.672 25.1751 150.378 26.1769 148.608 27.7585C146.838 29.34 145.691 31.4122 145.346 33.6517C145.048 35.7997 145.346 35.6994 144.625 36.2364C143.904 36.7734 140.705 36.4226 141.27 39.573C141.834 42.7234 145.911 40.9191 146.499 42.0002C146.763 42.56 147.201 43.0372 147.758 43.373C148.315 43.7088 148.967 43.8886 149.635 43.8905C151.305 43.9835 152.888 42.1792 153.084 41.4632C153.28 40.7472 154.958 40.11 157.914 41.7353C160.87 43.3606 164.813 46.2318 168.96 43.0814C173.108 39.931 167.698 28.7542 163.755 25.969Z" fill="#263238" stroke="#263238" stroke-miterlimit="10"/>
<path d="M148.263 39.3794C148.587 40.3652 149.004 41.3235 149.509 42.2434C150.129 43.2172 152.434 44.1122 152.528 45.5657C152.622 47.0192 152.081 48.0001 152.528 48.2435C152.975 48.487 155.099 47.9213 155.099 47.9213C155.099 47.9213 159.803 50.7853 160.956 50.3486C162.108 49.9118 164.327 47.1051 164.327 47.1051L169.344 50.3629L170.74 55.8474L172.52 53.234C172.52 53.234 169.164 49.5395 170.348 46.4822L171.532 43.4177C171.532 43.4177 163.974 42.4654 162.994 41.3341C162.014 40.2028 160.242 37.3603 158.651 36.9522C157.059 36.5441 156.432 38.5775 156.604 39.0644C156.777 39.5513 153.947 39.4654 152.167 38.821L150.395 38.1694C149.948 38.0262 148.263 38.6634 148.263 39.3794Z" fill="white" stroke="#263238" stroke-miterlimit="10"/>
<path d="M151.634 42.7236C151.634 42.7236 151.548 41.2916 152.881 41.1055" stroke="#263238" stroke-miterlimit="10"/>
<path d="M154.072 43.2163C154.511 43.5457 154.684 44.0039 154.464 44.2473C154.245 44.4908 153.68 44.4192 153.288 44.097C152.896 43.7748 152.669 43.3022 152.888 43.0659C153.108 42.8297 153.665 42.8869 154.072 43.2163Z" fill="#263238"/>
<path d="M157.404 47.9697C157.404 47.9697 157.937 47.6475 157.498 46.3516" stroke="#263238" stroke-miterlimit="10"/>
<path d="M161.136 38.9141C161.136 38.9141 162.375 40.1313 161.92 40.7757C161.697 41.1297 161.392 41.4351 161.026 41.6707C161.026 41.6707 162.187 42.7232 162.273 43.3747" fill="white"/>
<path d="M161.136 38.9141C161.136 38.9141 162.375 40.1313 161.92 40.7757C161.697 41.1297 161.392 41.4351 161.026 41.6707C161.026 41.6707 162.187 42.7232 162.273 43.3747" stroke="#263238" stroke-miterlimit="10"/>
<path d="M157.388 35.6986C157.388 35.6986 161.763 38.3048 164.075 41.5626C166.388 44.8204 172.974 44.6486 175.302 42.8586C177.631 41.0686 178.062 39.3359 179.857 39.744C181.653 40.1521 185.965 41.4982 188.771 39.6151C191.578 37.732 189.477 33.9874 192.331 34.6676C193.858 35.0495 195.479 34.9778 196.959 34.463C198.439 33.9481 199.701 33.0167 200.563 31.8036C202.491 29.0684 203.973 24.4001 198.571 18.2998C194.432 13.6028 188.231 14.8344 186.372 15.0706C184.514 15.3069 185.126 13.4453 179.058 13.4453C172.786 13.4453 169.83 18.3213 169.422 19.6817C169.015 21.0421 170.708 21.9657 165.855 20.4478C161.002 18.9299 158.635 20.6125 158.721 22.8894C158.807 25.1662 153.327 25.9467 152.3 26.3118" fill="#263238"/>
<path d="M157.388 35.6986C157.388 35.6986 161.763 38.3048 164.075 41.5626C166.388 44.8204 172.974 44.6486 175.302 42.8586C177.631 41.0686 178.062 39.3359 179.857 39.744C181.653 40.1521 185.965 41.4982 188.771 39.6151C191.578 37.732 189.477 33.9874 192.331 34.6676C193.858 35.0495 195.479 34.9778 196.959 34.463C198.439 33.9481 199.701 33.0167 200.563 31.8036C202.491 29.0684 203.973 24.4001 198.571 18.2998C194.432 13.6028 188.231 14.8344 186.372 15.0706C184.514 15.3069 185.126 13.4453 179.058 13.4453C172.786 13.4453 169.83 18.3213 169.422 19.6817C169.015 21.0421 170.708 21.9657 165.855 20.4478C161.002 18.9299 158.635 20.6125 158.721 22.8894C158.807 25.1662 153.327 25.9467 152.3 26.3118" stroke="#263238" stroke-miterlimit="10"/>
<path d="M213.365 82.6183C213.136 82.6192 212.907 82.5952 212.683 82.5467L151.774 68.1909C151.52 68.134 151.28 68.0319 151.069 67.8905C150.858 67.7491 150.68 67.571 150.544 67.3666C150.408 67.1621 150.318 66.9353 150.278 66.6989C150.238 66.4626 150.25 66.2214 150.312 65.9892C150.374 65.7569 150.486 65.5382 150.641 65.3454C150.796 65.1526 150.991 64.9895 151.215 64.8655C151.439 64.7415 151.687 64.659 151.946 64.6227C152.205 64.5864 152.469 64.597 152.723 64.6538L214.032 77.4846C214.705 77.6392 215.294 78.0127 215.687 78.5351C216.08 79.0575 216.252 79.693 216.169 80.3225C216.087 80.952 215.755 81.5325 215.238 81.9551C214.72 82.3777 214.052 82.6135 213.357 82.6183H213.365Z" fill="#8F8F8F" stroke="#263238" stroke-miterlimit="10"/>
<path d="M187.995 72.9673L186.122 74.2275C185.698 74.8952 185.169 75.503 184.554 76.0318C183.864 76.4829 183.472 76.7478 184.162 77.0199C184.852 77.292 186.514 76.6619 186.514 76.6619C186.514 76.6619 185.918 79.0032 186.412 79.1822C186.906 79.3612 187.98 79.4543 188.285 79.0963C188.495 78.8597 188.764 78.673 189.069 78.5521C189.069 78.5521 189.36 78.9101 191.139 78.4662C192.919 78.0223 193.013 75.2227 193.209 73.9626C193.405 72.7024 201.292 56.8502 201.786 54.7809C202.28 52.7117 201.786 51.4444 201.096 51.0864C200.406 50.7284 180.712 45.1436 178.36 44.9646C176.008 44.7856 173.429 47.8286 174.808 50.8143C176.188 53.8 181.708 54.7809 183.189 54.9599C184.671 55.1389 193.381 56.127 193.381 56.127C193.381 56.127 191.61 64.3252 191.218 67.2966C191.008 69.5018 189.849 71.541 187.995 72.9673Z" fill="white" stroke="#263238" stroke-miterlimit="10"/>
<path d="M159.63 68.7367C159.472 69.6122 159.401 70.4988 159.419 71.3859C159.56 71.7081 160.689 72.2881 160.987 71.3215C161.284 70.3549 161.339 68.7367 160.845 68.4575C160.351 68.1783 160.054 68.1138 159.63 68.7367Z" fill="white" stroke="#263238" stroke-miterlimit="10"/>
<path d="M161.504 69.7432C161.545 70.6299 161.671 71.5115 161.88 72.3781C162.092 72.6645 163.323 73.0297 163.386 72.0273C163.448 71.0249 163.166 69.4282 162.602 69.2707C162.037 69.1131 161.747 69.0344 161.504 69.7432Z" fill="white" stroke="#263238" stroke-miterlimit="10"/>
<path d="M163.308 70.001C163.353 70.8874 163.478 71.7687 163.684 72.6359C163.896 72.9223 165.134 73.2875 165.197 72.2851C165.26 71.2827 164.97 69.686 164.413 69.5285C163.856 69.371 163.582 69.2922 163.308 70.001Z" fill="white" stroke="#263238" stroke-miterlimit="10"/>
<path d="M165.33 70.354C165.365 71.1081 165.473 71.858 165.652 72.595C165.832 72.8385 166.882 73.1464 166.937 72.2943C166.992 71.4423 166.741 70.0891 166.287 69.9459C165.832 69.8027 165.565 69.7454 165.33 70.354Z" fill="white" stroke="#263238" stroke-miterlimit="10"/>
<path d="M153.97 68.9125L154.142 65.8337L151.79 62.6547C150.222 58.7525 140.305 55.4374 133.225 53.8479C126.146 52.2584 117.788 53.3324 114.104 55.0365C110.419 56.7405 109.58 57.7716 109.58 57.7716L109.353 61.8599C108.349 66.4925 117.506 72.0558 129.815 74.2825C142.124 76.5093 152.912 74.5546 153.915 69.9149C153.985 69.5848 154.003 69.2474 153.97 68.9125ZM143.323 69.4495C136.11 70.4305 129.517 69.7073 123.778 67.4161C120.133 65.8675 116.693 63.9458 113.523 61.6881C115.091 58.4589 123.512 57.2417 133.123 58.9816C142.234 60.6284 149.266 64.3659 150.042 67.7455C147.917 68.6395 145.649 69.2149 143.323 69.4495Z" fill="#8F8F8F" stroke="#263238" stroke-miterlimit="10"/>
<path d="M133.68 53.4122C121.379 51.1854 110.584 53.1401 109.58 57.7726C108.577 62.4052 117.734 67.9756 130.042 70.1952C142.351 72.4148 153.139 70.4673 154.143 65.8348C155.146 61.2023 145.989 55.639 133.68 53.4122ZM150.317 64.7894C149.533 68.4267 140.658 69.8874 130.505 68.0544C120.352 66.2214 112.763 61.7822 113.555 58.145C114.347 54.5077 123.214 53.047 133.367 54.88C143.519 56.713 151.101 61.1522 150.317 64.7894Z" fill="white" stroke="#263238" stroke-miterlimit="10"/>
<path d="M303.745 343.293H384.011" stroke="#263238" stroke-miterlimit="10"/>
<path d="M12.7715 343.293H297.293" stroke="#263238" stroke-miterlimit="10"/>
</svg>
