<svg width="28" height="28" viewBox="0 0 28 28" fill="none" xmlns="http://www.w3.org/2000/svg">
<path fill-rule="evenodd" clip-rule="evenodd" d="M9.33008 9.06122L7.17488 9.04972C6.9765 9.04972 6.81569 8.88891 6.81569 8.69053V8.52242C6.81569 7.92728 7.29814 7.44482 7.89328 7.44482H8.61168C9.20682 7.44482 9.68928 7.92728 9.68928 8.52242V8.70202C9.68928 8.9004 9.52846 9.06122 9.33008 9.06122ZM20.7842 9.77962H19.8388C19.684 9.77412 19.5477 9.67607 19.4932 9.53105L19.4925 9.52943C19.0487 8.59314 18.5896 7.62442 17.5916 7.62442H13.9997C13.2303 7.62442 12.8244 8.18334 12.0894 9.19843C12.0409 9.26506 11.9981 9.32623 11.9592 9.38181C11.7771 9.64206 11.6808 9.77962 11.4831 9.77962H7.17273C5.69068 9.77962 5.37889 10.6482 5.37889 11.3766V18.8393C5.34513 19.3257 5.53236 19.8015 5.88858 20.1344C6.2448 20.4674 6.73208 20.6221 7.21512 20.5556H20.7842C21.2672 20.6221 21.7545 20.4674 22.1107 20.1344C22.467 19.8015 22.6542 19.3257 22.6204 18.8393V11.3766C22.6204 10.6482 22.3022 9.77962 20.7842 9.77962ZM15.9753 17.5024C17.4631 17.5024 18.6692 16.2962 18.6692 14.8084C18.6692 13.3205 17.4631 12.1144 15.9753 12.1144C14.4874 12.1144 13.2813 13.3205 13.2813 14.8084C13.2813 16.2962 14.4874 17.5024 15.9753 17.5024ZM15.9753 18.9392C18.2566 18.9392 20.106 17.0898 20.106 14.8084C20.1037 12.528 18.2556 10.68 15.9753 10.6776C13.6939 10.6776 11.8445 12.527 11.8445 14.8084C11.8445 17.0898 13.6939 18.9392 15.9753 18.9392ZM8.97088 12.4736C8.97088 12.9696 8.56883 13.3716 8.07288 13.3716C7.57693 13.3716 7.17489 12.9696 7.17489 12.4736C7.17489 11.9777 7.57693 11.5756 8.07288 11.5756C8.56883 11.5756 8.97088 11.9777 8.97088 12.4736Z" fill="#A3A3A3"/>
<mask id="mask0_7253_73827" style="mask-type:alpha" maskUnits="userSpaceOnUse" x="5" y="7" width="18" height="14">
<path fill-rule="evenodd" clip-rule="evenodd" d="M9.33008 9.06122L7.17488 9.04972C6.9765 9.04972 6.81569 8.88891 6.81569 8.69053V8.52242C6.81569 7.92728 7.29814 7.44482 7.89328 7.44482H8.61168C9.20682 7.44482 9.68928 7.92728 9.68928 8.52242V8.70202C9.68928 8.9004 9.52846 9.06122 9.33008 9.06122ZM20.7842 9.77962H19.8388C19.684 9.77412 19.5477 9.67607 19.4932 9.53105L19.4925 9.52943C19.0487 8.59314 18.5896 7.62442 17.5916 7.62442H13.9997C13.2303 7.62442 12.8244 8.18334 12.0894 9.19843C12.0409 9.26506 11.9981 9.32623 11.9592 9.38181C11.7771 9.64206 11.6808 9.77962 11.4831 9.77962H7.17273C5.69068 9.77962 5.37889 10.6482 5.37889 11.3766V18.8393C5.34513 19.3257 5.53236 19.8015 5.88858 20.1344C6.2448 20.4674 6.73208 20.6221 7.21512 20.5556H20.7842C21.2672 20.6221 21.7545 20.4674 22.1107 20.1344C22.467 19.8015 22.6542 19.3257 22.6204 18.8393V11.3766C22.6204 10.6482 22.3022 9.77962 20.7842 9.77962ZM15.9753 17.5024C17.4631 17.5024 18.6692 16.2962 18.6692 14.8084C18.6692 13.3205 17.4631 12.1144 15.9753 12.1144C14.4874 12.1144 13.2813 13.3205 13.2813 14.8084C13.2813 16.2962 14.4874 17.5024 15.9753 17.5024ZM15.9753 18.9392C18.2566 18.9392 20.106 17.0898 20.106 14.8084C20.1037 12.528 18.2556 10.68 15.9753 10.6776C13.6939 10.6776 11.8445 12.527 11.8445 14.8084C11.8445 17.0898 13.6939 18.9392 15.9753 18.9392ZM8.97088 12.4736C8.97088 12.9696 8.56883 13.3716 8.07288 13.3716C7.57693 13.3716 7.17489 12.9696 7.17489 12.4736C7.17489 11.9777 7.57693 11.5756 8.07288 11.5756C8.56883 11.5756 8.97088 11.9777 8.97088 12.4736Z" fill="white"/>
</mask>
<g mask="url(#mask0_7253_73827)">
</g>
</svg>
