<svg width="140" height="140" viewBox="0 0 140 140" fill="none" xmlns="http://www.w3.org/2000/svg">
<circle cx="70" cy="70" r="68" fill="white" stroke="#106FA4" stroke-width="4"/>
<path d="M65.8221 35C61.454 35 57.2649 36.7352 54.1762 39.8239C51.0875 42.9126 49.3523 47.1017 49.3523 51.4698C49.3523 55.8378 51.0875 60.027 54.1762 63.1156C57.2649 66.2043 61.454 67.9395 65.8221 67.9395C70.1901 67.9395 74.3793 66.2043 77.468 63.1156C80.5566 60.027 82.2918 55.8378 82.2918 51.4698C82.2918 47.1017 80.5566 42.9126 77.468 39.8239C74.3793 36.7352 70.1901 35 65.8221 35ZM53.4698 51.4698C53.4698 48.1937 54.7712 45.0519 57.0877 42.7354C59.4042 40.4188 62.546 39.1174 65.8221 39.1174C69.0981 39.1174 72.24 40.4188 74.5565 42.7354C76.873 45.0519 78.1744 48.1937 78.1744 51.4698C78.1744 54.7458 76.873 57.8877 74.5565 60.2042C72.24 62.5207 69.0981 63.8221 65.8221 63.8221C62.546 63.8221 59.4042 62.5207 57.0877 60.2042C54.7712 57.8877 53.4698 54.7458 53.4698 51.4698ZM45.2719 72.057C44.1876 72.0526 43.113 72.2624 42.1098 72.6742C41.1067 73.0861 40.1947 73.6919 39.4262 74.457C38.6577 75.222 38.0478 76.1313 37.6315 77.1325C37.2151 78.1338 37.0005 79.2074 37 80.2918C37 87.2544 40.4298 92.5042 45.7907 95.9258C50.2293 98.7544 55.969 100.331 62.2193 100.76L63.4546 96.704C57.299 96.4075 51.9175 94.9499 48.0059 92.4506C43.6826 89.692 41.1174 85.6857 41.1174 80.2918C41.1174 78.0149 42.9621 76.1744 45.2719 76.1744H64.171C64.9245 74.7004 65.8344 73.321 66.8803 72.057H45.2719ZM102.879 86.468C102.88 89.6931 102.038 92.8624 100.439 95.6627C98.8388 98.463 96.5358 100.797 93.7573 102.435C90.9788 104.072 87.821 104.956 84.5962 104.998C81.3715 105.041 78.1914 104.241 75.3704 102.678L68.0002 104.918C67.7086 105.005 67.3989 105.012 67.1039 104.937C66.809 104.862 66.5396 104.709 66.3245 104.494C66.1093 104.279 65.9563 104.01 65.8816 103.715C65.807 103.42 65.8134 103.11 65.9003 102.818L68.1402 95.4522C66.7708 92.9785 65.9857 90.2241 65.845 87.4001C65.7044 84.5761 66.2119 81.7574 67.3288 79.1598C68.4456 76.5622 70.1422 74.2547 72.2885 72.414C74.4348 70.5732 76.9739 69.2482 79.7113 68.5402C82.4488 67.8322 85.3119 67.7602 88.0815 68.3295C90.8511 68.8989 93.4537 70.0946 95.6898 71.825C97.926 73.5554 99.7365 75.7746 100.983 78.3127C102.229 80.8508 102.877 83.6405 102.879 86.468ZM76.1157 80.2918C75.5697 80.2918 75.046 80.5087 74.6599 80.8948C74.2739 81.2809 74.057 81.8046 74.057 82.3506C74.057 82.8966 74.2739 83.4202 74.6599 83.8063C75.046 84.1924 75.5697 84.4093 76.1157 84.4093H92.5854C93.1314 84.4093 93.6551 84.1924 94.0412 83.8063C94.4273 83.4202 94.6442 82.8966 94.6442 82.3506C94.6442 81.8046 94.4273 81.2809 94.0412 80.8948C93.6551 80.5087 93.1314 80.2918 92.5854 80.2918H76.1157ZM74.057 90.5854C74.057 91.1314 74.2739 91.6551 74.6599 92.0412C75.046 92.4273 75.5697 92.6442 76.1157 92.6442H84.3506C84.8966 92.6442 85.4202 92.4273 85.8063 92.0412C86.1924 91.6551 86.4093 91.1314 86.4093 90.5854C86.4093 90.0394 86.1924 89.5158 85.8063 89.1297C85.4202 88.7436 84.8966 88.5267 84.3506 88.5267H76.1157C75.5697 88.5267 75.046 88.7436 74.6599 89.1297C74.2739 89.5158 74.057 90.0394 74.057 90.5854Z" fill="#106FA4"/>
</svg>
