<svg width="22" height="22" viewBox="0 0 22 22" fill="none" xmlns="http://www.w3.org/2000/svg">
<path d="M11.0003 0.166992C5.03116 0.166992 0.166992 5.03116 0.166992 11.0003C0.166992 16.9695 5.03116 21.8337 11.0003 21.8337C16.9695 21.8337 21.8337 16.9695 21.8337 11.0003C21.8337 5.03116 16.9695 0.166992 11.0003 0.166992ZM15.7128 14.8678C15.6586 14.9601 15.5865 15.0408 15.5009 15.105C15.4152 15.1692 15.3176 15.2158 15.2138 15.242C15.11 15.2682 15.002 15.2736 14.8961 15.2577C14.7902 15.2418 14.6885 15.205 14.597 15.1495L11.2387 13.1453C10.4045 12.647 9.78699 11.5528 9.78699 10.5887V6.14699C9.78699 5.70283 10.1553 5.33449 10.5995 5.33449C11.0437 5.33449 11.412 5.70283 11.412 6.14699V10.5887C11.412 10.9787 11.737 11.5528 12.0728 11.7478L15.4312 13.752C15.8212 13.9795 15.9512 14.4778 15.7128 14.8678Z" fill="#0B568D"/>
</svg>
