<svg width="71" height="70" viewBox="0 0 71 70" fill="none" xmlns="http://www.w3.org/2000/svg">
<path d="M60.2602 22.2704H63.6395C65.3273 22.2704 66.946 22.9409 68.1395 24.1343C69.3329 25.3278 70.0034 26.9465 70.0034 28.6343V41.3622C70.0034 43.0501 69.3329 44.6687 68.1395 45.8622C66.946 47.0557 65.3273 47.7262 63.6395 47.7262H60.2602C59.4845 53.8779 56.4904 59.5351 51.8399 63.636C47.1894 67.737 41.2021 69.9999 35.0017 70V63.6361C40.0652 63.6361 44.9213 61.6246 48.5017 58.0442C52.0821 54.4638 54.0936 49.6077 54.0936 44.5442V25.4524C54.0936 20.3889 52.0821 15.5328 48.5017 11.9524C44.9213 8.37198 40.0652 6.36052 35.0017 6.36052C29.9382 6.36052 25.0822 8.37198 21.5017 11.9524C17.9213 15.5328 15.9099 20.3889 15.9099 25.4524V47.7262H6.36395C4.67612 47.7262 3.05743 47.0557 1.86396 45.8622C0.670486 44.6687 0 43.0501 0 41.3622V28.6343C0 26.9465 0.670486 25.3278 1.86396 24.1343C3.05743 22.9409 4.67612 22.2704 6.36395 22.2704H9.7432C10.5197 16.1193 13.5141 10.463 18.1645 6.36267C22.815 2.26239 28.8018 0 35.0017 0C41.2016 0 47.1885 2.26239 51.8389 6.36267C56.4893 10.463 59.4837 16.1193 60.2602 22.2704ZM6.36395 28.6343V41.3622H9.54592V28.6343H6.36395ZM60.4575 28.6343V41.3622H63.6395V28.6343H60.4575ZM21.5101 47.0421L24.883 41.6454C27.9157 43.5452 31.4232 44.55 35.0017 44.5442C38.5803 44.55 42.0877 43.5452 45.1204 41.6454L48.4933 47.0421C44.4498 49.5754 39.7732 50.9155 35.0017 50.9082C30.2302 50.9155 25.5536 49.5754 21.5101 47.0421Z" fill="#3EB449"/>
</svg>
