<svg
            width="8"
            height="14"
            viewBox="0 0 8 14"
            fill="none"
            xmlns="http://www.w3.org/2000/svg"
          >
            <path
              d="M0.27668 13.7233C0.0922266 13.5389 0 13.3205 0 13.0681C0 12.8158 0.0922266 12.5977 0.27668 12.4137L5.68116 7.00922L0.258234 1.5863C0.0860781 1.41414 0 1.19895 0 0.940711C0 0.682477 0.0922266 0.461133 0.27668 0.27668C0.461133 0.0922266 0.679526 0 0.931858 0C1.18419 0 1.40234 0.0922266 1.5863 0.27668L7.78393 6.49275C7.85771 6.56653 7.91009 6.64646 7.94108 6.73254C7.97207 6.81862 7.98732 6.91085 7.98682 7.00922C7.98682 7.1076 7.97133 7.19982 7.94034 7.2859C7.90935 7.37198 7.85722 7.45191 7.78393 7.52569L1.56785 13.7418C1.3957 13.9139 1.18345 14 0.93112 14C0.678788 14 0.460641 13.9078 0.27668 13.7233Z"
              fill="#106FA4"
            />
          </svg>