<svg
          width="38"
          height="70"
          viewBox="0 0 38 70"
          fill="none"
          xmlns="http://www.w3.org/2000/svg"
        >
          <path
            d="M11.5824 47.6406C10.1389 47.344 9.02655 46.5826 8.24541 45.3565C7.46428 44.1303 7.27477 42.8377 7.67689 41.4785C8.37637 38.9894 9.42891 36.9176 10.8345 35.2631C12.2401 33.6087 14.2595 32.0176 16.8928 30.49C19.8037 28.8314 22.0702 27.3375 23.6923 26.0084C25.3144 24.6792 26.3341 22.9931 26.7514 20.95C27.2581 18.484 26.8518 16.2692 25.5326 14.3056C24.2135 12.342 22.0791 11.0572 19.1295 10.4512C17.2048 10.0557 15.4816 10.1255 13.96 10.6603C12.4384 11.1952 11.1345 11.9767 10.0482 13.0047C8.95893 14.0346 7.75516 14.6336 6.43685 14.8015C5.11853 14.9694 3.9362 14.6952 2.88987 13.9787C1.63006 13.093 0.887256 11.906 0.661444 10.4179C0.435632 8.92968 0.805987 7.65803 1.77251 6.60289C4.07288 4.25465 6.88204 2.4811 10.2 1.28223C13.5179 0.0833667 17.1618 -0.108251 21.1315 0.70738C27.4469 2.00498 31.943 4.76171 34.6199 8.97759C37.2967 13.1935 38.1269 17.7684 37.1107 22.7024C36.4928 25.7097 35.3184 28.1489 33.5875 30.0198C31.8565 31.8908 29.3287 33.8939 26.0039 36.0292C23.5634 37.5337 21.7986 38.8009 20.7094 39.8309C19.6202 40.8608 18.7645 42.1268 18.1425 43.6288C17.5929 45.0831 16.7081 46.1863 15.4878 46.9386C14.2676 47.6908 12.9658 47.9249 11.5824 47.6406ZM7.0433 69.275C5.05844 68.8672 3.50402 67.8106 2.38002 66.1053C1.25602 64.4 0.898887 62.5564 1.30861 60.5744C1.71643 58.5896 2.773 57.0351 4.47832 55.9111C6.18364 54.7871 8.02727 54.43 10.0092 54.8397C11.9941 55.2475 13.5485 56.3041 14.6725 58.0094C15.7965 59.7148 16.1536 61.5584 15.7439 63.5403C15.3361 65.5252 14.2795 67.0796 12.5742 68.2036C10.8689 69.3276 9.02525 69.6848 7.0433 69.275Z"
            fill="#FAB317"
          />
        </svg>