<svg width="28" height="28" viewBox="0 0 28 28" fill="none" xmlns="http://www.w3.org/2000/svg">
<path d="M22.4585 5.86804C22.3518 5.77895 22.2044 5.75649 22.076 5.80977L4.89189 12.9075C4.75138 12.9661 4.66049 13.1041 4.66213 13.2563C4.66377 13.4086 4.75762 13.5446 4.89936 13.6001L9.63021 15.4373C9.74644 15.4826 9.87761 15.4669 9.97987 15.3955L16.2558 10.9321C16.4152 10.8169 16.6366 10.845 16.7622 10.9964C16.8878 11.1477 16.8744 11.3706 16.7317 11.5059L11.5018 16.5453C11.4287 16.6157 11.3875 16.7128 11.3875 16.8143V21.8447C11.388 22.0131 11.501 22.1603 11.6634 22.2042C11.8259 22.2482 11.9977 22.1781 12.083 22.033L14.4492 17.9798C14.5006 17.8924 14.6121 17.8616 14.701 17.9103L19.0538 20.3012C19.1572 20.3581 19.2813 20.3629 19.3888 20.314C19.4962 20.2652 19.5742 20.1684 19.5992 20.0531L22.5877 6.23115C22.6139 6.09561 22.5644 5.95657 22.4585 5.86804Z" fill="#106FA4"/>
<mask id="mask0_7253_73828" style="mask-type:alpha" maskUnits="userSpaceOnUse" x="4" y="5" width="19" height="18">
<path d="M22.4585 5.86804C22.3518 5.77895 22.2044 5.75649 22.076 5.80977L4.89189 12.9075C4.75138 12.9661 4.66049 13.1041 4.66213 13.2563C4.66377 13.4086 4.75762 13.5446 4.89936 13.6001L9.63021 15.4373C9.74644 15.4826 9.87761 15.4669 9.97987 15.3955L16.2558 10.9321C16.4152 10.8169 16.6366 10.845 16.7622 10.9964C16.8878 11.1477 16.8744 11.3706 16.7317 11.5059L11.5018 16.5453C11.4287 16.6157 11.3875 16.7128 11.3875 16.8143V21.8447C11.388 22.0131 11.501 22.1603 11.6634 22.2042C11.8259 22.2482 11.9977 22.1781 12.083 22.033L14.4492 17.9798C14.5006 17.8924 14.6121 17.8616 14.701 17.9103L19.0538 20.3012C19.1572 20.3581 19.2813 20.3629 19.3888 20.314C19.4962 20.2652 19.5742 20.1684 19.5992 20.0531L22.5877 6.23115C22.6139 6.09561 22.5644 5.95657 22.4585 5.86804Z" fill="white"/>
</mask>
<g mask="url(#mask0_7253_73828)">
</g>
</svg>
