<svg width="312" height="312" viewBox="0 0 312 312" fill="none" xmlns="http://www.w3.org/2000/svg">
<path d="M281.624 129.618C277.256 121.842 269.674 115.178 260.52 113.961C251.104 112.713 241.869 117.318 234.481 123.041C227.06 128.763 220.721 135.764 215.761 143.714C212.872 148.369 209.92 153.773 204.485 155.289C199.368 156.712 193.989 154.041 189.865 150.809C185.74 147.576 182.033 143.633 177.06 141.792C164.106 136.993 149.654 148.5 136.201 145.18C124.613 142.322 119.066 130.204 111.865 121.062C99.9712 106.012 79.3043 97.313 59.848 100.47C40.3917 103.628 25.5842 136.332 22.9072 155.008L289.411 154.921C287.739 146.235 286.011 137.386 281.624 129.618Z" fill="#EBEBEB"/>
<path d="M73.2263 62.158C73.4634 60.417 71.0111 58.9881 69.1641 58.8383C68.2824 58.874 67.3998 58.7985 66.537 58.6137C64.7337 57.9897 64.041 55.6497 62.2502 54.9071C60.9335 54.3517 59.4172 54.8447 58.1442 55.4874C56.8713 56.1301 55.6045 56.9413 54.1756 57.0287C52.9276 57.1098 51.586 56.6481 50.5002 57.2533C49.6953 57.7089 49.2522 58.6386 48.5222 59.1877C47.7494 59.6738 46.8515 59.9232 45.9388 59.9053C45.0317 59.8832 44.1283 60.0292 43.2743 60.3359C42.8508 60.5011 42.492 60.7987 42.2514 61.1844C42.0107 61.5701 41.9011 62.0232 41.9389 62.4762L73.2263 62.158Z" fill="#F5F5F5"/>
<path d="M156.144 78.7127C156.381 76.9717 153.929 75.5428 152.082 75.393C151.2 75.4287 150.317 75.3532 149.455 75.1684C147.651 74.5444 146.959 72.2044 145.168 71.4618C143.851 70.9064 142.335 71.3994 141.062 72.0421C139.789 72.6848 138.522 73.496 137.093 73.5896C135.845 73.6645 134.503 73.209 133.424 73.8143C132.613 74.2636 132.176 75.1933 131.446 75.7487C130.668 76.2256 129.769 76.4683 128.856 76.4476C127.949 76.4243 127.045 76.5725 126.192 76.8844C125.769 77.0493 125.411 77.3459 125.171 77.7303C124.93 78.1147 124.82 78.5664 124.856 79.0184L156.144 78.7127Z" fill="#F5F5F5"/>
<path d="M292.095 77.6877C292.525 74.5677 288.107 71.9781 284.781 71.7098C283.196 71.585 281.555 71.8284 280.051 71.3042C276.8 70.1685 275.502 65.969 272.326 64.6274C269.955 63.629 267.228 64.5213 264.926 65.6757C262.623 66.8301 260.352 68.2903 257.787 68.4588C255.553 68.5961 253.126 67.7724 251.166 68.8644C249.712 69.6756 248.951 71.3604 247.603 72.3463C246.255 73.3322 244.577 73.5194 242.948 73.5943C241.32 73.6692 239.629 73.7004 238.143 74.3805C236.658 75.0607 235.435 76.6269 235.741 78.2306L292.095 77.6877Z" fill="#EBEBEB"/>
<path d="M163.825 46.6259C164.368 42.6635 158.783 39.4063 154.578 39.0693C152.575 38.9071 150.497 39.2128 148.6 38.5514C144.488 37.1162 142.846 31.8059 138.834 30.1149C135.833 28.8669 132.382 29.9776 129.474 31.4378C126.566 32.8979 123.696 34.745 120.432 34.9447C117.606 35.1256 114.536 34.0773 112.065 35.4626C110.193 36.4859 109.257 38.5826 107.559 39.8306C105.862 41.0786 103.734 41.3157 101.669 41.428C99.6032 41.5403 97.4754 41.5591 95.5972 42.4202C93.7189 43.2813 92.1714 45.2656 92.5583 47.2936L163.825 46.6259Z" fill="#EBEBEB"/>
<path d="M11.625 227.373L13.6093 209.171L126.822 216.578C129.276 216.74 131.701 215.966 133.608 214.412C135.514 212.859 136.762 210.64 137.099 208.204L144.481 154.752H170.146L181.247 209.421C181.708 211.696 182.968 213.732 184.799 215.159C186.63 216.586 188.912 217.311 191.231 217.202L297.585 212.335V231.442L204.204 247.354C202.021 247.57 199.904 248.226 197.98 249.281C196.057 250.337 194.367 251.77 193.012 253.496C191.657 255.221 190.664 257.202 190.095 259.321C189.525 261.44 189.389 263.652 189.696 265.824L194.064 296.962H128.238L130.903 268.451C131.396 263.185 129.868 257.928 126.63 253.747C123.391 249.565 118.684 246.771 113.462 245.931L11.625 227.373Z" fill="#E0E0E0"/>
<path d="M162.209 204.017H156L157.473 177.359L160.168 177.366L162.209 204.017Z" fill="#F5F5F5"/>
<path d="M164.443 265.543H156L157.504 232.533L162.121 232.546L164.443 265.543Z" fill="#F5F5F5"/>
<path d="M202.5 233.887L201.901 228.726L234.799 225.85L235.691 229.275L202.5 233.887Z" fill="#F5F5F5"/>
<path d="M269.181 226.792L268.588 221.631L297.579 219.092V222.842L269.181 226.792Z" fill="#F5F5F5"/>
<path d="M117.705 230.811L118.304 225.65L85.407 222.768L84.5146 226.2L117.705 230.811Z" fill="#F5F5F5"/>
<path d="M44.8155 222.768L45.2897 218.65L13.0227 214.531L12.6108 218.294L44.8155 222.768Z" fill="#F5F5F5"/>
<path d="M200.129 205.415H194.763V42.6754C194.763 41.9638 195.045 41.2813 195.549 40.7781C196.052 40.2749 196.734 39.9922 197.446 39.9922C198.157 39.9938 198.839 40.2771 199.341 40.7799C199.844 41.2827 200.127 41.9643 200.129 42.6754V205.415Z" fill="#263238"/>
<path d="M172 108.514L186.869 107.135L223.629 126.922L221.171 131.483L216.534 131.465L219.623 134.366L216.26 140.612L179.737 120.956L172 108.514Z" fill="#106FA4"/>
<path opacity="0.3" d="M172 108.514L186.869 107.135L223.629 126.922L221.171 131.483L216.534 131.465L219.623 134.366L216.26 140.612L179.737 120.956L172 108.514Z" fill="black"/>
<path d="M171.544 106.623L182.039 105.649C183.221 105.539 184.408 105.78 185.453 106.342L220.609 125.262L218.15 129.829H213.514L216.603 132.731L213.239 138.971L178.133 120.076C177.209 119.577 176.43 118.846 175.874 117.955L170.352 109.044C170.208 108.815 170.125 108.553 170.111 108.283C170.097 108.013 170.152 107.743 170.272 107.501C170.391 107.258 170.571 107.05 170.794 106.896C171.016 106.743 171.274 106.648 171.544 106.623Z" fill="#106FA4"/>
<g opacity="0.2">
<path d="M211.73 138.199C211.602 137.664 211.391 137.152 211.106 136.682C210.225 135.467 209.109 134.442 207.823 133.668C203.757 130.82 199.415 128.387 194.863 126.405C192.198 125.238 189.578 124.327 187.219 123.428C185.112 122.664 183.052 121.779 181.048 120.776C179.697 120.095 178.41 119.293 177.204 118.38C176.773 118.062 176.467 117.756 176.249 117.6C176.134 117.513 176.029 117.412 175.937 117.301C175.937 117.301 176.411 117.663 177.279 118.274C178.504 119.146 179.801 119.914 181.154 120.571C183.162 121.541 185.222 122.402 187.325 123.148C189.684 124.028 192.317 124.932 194.994 126.105C199.566 128.096 203.913 130.569 207.961 133.481C209.253 134.281 210.363 135.344 211.218 136.601C211.431 136.958 211.583 137.348 211.667 137.756C211.695 137.86 211.711 137.966 211.717 138.074C211.73 138.161 211.736 138.199 211.73 138.199Z" fill="black"/>
<path d="M172.792 106.705C172.629 107.372 172.612 108.066 172.742 108.739C172.903 109.525 173.226 110.269 173.691 110.923C174.321 111.779 175.069 112.542 175.912 113.188C178.1 114.907 180.392 116.489 182.776 117.925C185.466 119.559 188.517 121.194 191.755 122.848L208.341 131.322C210.432 132.414 212.142 133.294 213.333 133.924L214.687 134.648C214.847 134.728 215.001 134.817 215.149 134.916C214.979 134.861 214.814 134.79 214.656 134.704L213.277 134.036L208.217 131.54L191.618 123.116C188.38 121.456 185.322 119.809 182.633 118.124C180.241 116.672 177.948 115.062 175.769 113.307C174.916 112.64 174.165 111.852 173.541 110.967C173.075 110.289 172.76 109.519 172.617 108.708C172.523 108.197 172.523 107.672 172.617 107.161C172.662 107.004 172.721 106.851 172.792 106.705Z" fill="black"/>
<path d="M187.244 113.5C187.127 113.362 187.023 113.213 186.932 113.057C186.646 112.623 186.336 112.207 186.002 111.809C184.779 110.375 183.259 109.223 181.547 108.433C180.988 108.164 180.402 107.955 179.8 107.809C179.162 107.647 178.492 107.678 177.872 107.896C177.548 108.006 177.257 108.196 177.026 108.448C176.795 108.7 176.631 109.006 176.549 109.338C176.481 110.077 176.705 110.814 177.173 111.391C178.97 113.98 181.821 116.089 184.979 117.88C185.771 118.329 186.564 118.773 187.35 119.172C188.098 119.587 188.93 119.826 189.784 119.871C190.184 119.891 190.584 119.818 190.951 119.659C191.319 119.5 191.646 119.259 191.905 118.953C192.356 118.318 192.539 117.532 192.417 116.763C192.295 116.017 192.033 115.302 191.643 114.654C191.275 114.03 190.869 113.406 190.476 112.826C189.738 111.759 188.902 110.763 187.98 109.849C186.632 108.531 185.084 107.434 183.394 106.598C182.77 106.305 182.321 106.099 181.99 105.974C181.824 105.911 181.661 105.838 181.503 105.756C181.678 105.793 181.849 105.845 182.015 105.912C182.503 106.08 182.982 106.274 183.45 106.492C185.179 107.292 186.763 108.373 188.136 109.693C189.086 110.604 189.947 111.602 190.707 112.676C191.107 113.256 191.518 113.862 191.899 114.548C192.31 115.224 192.59 115.971 192.723 116.751C192.859 117.603 192.655 118.475 192.155 119.178C191.866 119.521 191.503 119.793 191.093 119.974C190.683 120.154 190.238 120.239 189.79 120.22C188.882 120.184 187.996 119.936 187.2 119.496C186.395 119.091 185.609 118.648 184.81 118.198C181.634 116.401 178.745 114.261 176.923 111.596C176.425 110.948 176.201 110.131 176.299 109.319C176.393 108.942 176.579 108.595 176.842 108.309C177.105 108.024 177.435 107.809 177.803 107.684C178.475 107.453 179.199 107.424 179.887 107.603C180.503 107.746 181.101 107.955 181.672 108.227C183.887 109.251 185.749 110.91 187.019 112.994C187.104 113.158 187.179 113.327 187.244 113.5Z" fill="black"/>
<path d="M219.548 127.34C219.548 127.371 219.043 127.128 218.088 126.934C216.726 126.718 215.338 126.718 213.976 126.934C212.248 127.128 210.232 127.664 207.855 127.689C206.619 127.696 205.392 127.484 204.229 127.065C202.988 126.614 201.819 125.983 200.76 125.193C198.742 123.65 197.028 121.746 195.705 119.577C194.631 117.819 193.664 115.998 192.81 114.123C192.055 112.539 191.437 111.266 190.975 110.379L190.451 109.381C190.381 109.27 190.324 109.15 190.283 109.025C190.368 109.126 190.444 109.234 190.507 109.35C190.651 109.568 190.844 109.893 191.088 110.317C191.581 111.172 192.236 112.432 193.016 114.005C193.894 115.856 194.875 117.656 195.955 119.396C197.271 121.522 198.963 123.391 200.947 124.912C202.926 126.446 205.346 127.301 207.848 127.352C210.145 127.352 212.216 126.841 213.945 126.672C215.33 126.482 216.737 126.528 218.107 126.809C218.476 126.893 218.837 127.008 219.186 127.153C219.315 127.198 219.437 127.261 219.548 127.34Z" fill="black"/>
<path d="M206.675 121.056C206.547 121.022 206.421 120.976 206.301 120.919C206.064 120.819 205.721 120.663 205.278 120.438C204.835 120.214 204.317 119.927 203.724 119.552C203.424 119.369 203.112 119.161 202.788 118.928C202.411 118.713 202.09 118.411 201.852 118.049C201.778 117.931 201.745 117.793 201.759 117.655C201.773 117.517 201.832 117.388 201.927 117.287C202.035 117.203 202.162 117.146 202.296 117.122C202.431 117.098 202.57 117.108 202.701 117.15C203.187 117.281 203.643 117.443 204.136 117.612C205.109 117.955 206.139 118.367 207.193 118.86C208.297 119.37 209.372 119.941 210.413 120.569C211.012 120.871 211.529 121.314 211.917 121.861C212.024 122.017 212.093 122.196 212.121 122.383C212.148 122.57 212.133 122.761 212.076 122.941C212.019 123.122 211.921 123.287 211.791 123.424C211.661 123.561 211.501 123.667 211.324 123.733C210.674 123.96 209.98 124.037 209.296 123.958C208.648 123.926 208.003 123.843 207.368 123.708C206.165 123.466 205.001 123.056 203.911 122.491C202.366 121.694 200.996 120.594 199.884 119.257C198.771 117.921 197.938 116.374 197.434 114.71C197.321 114.35 197.232 113.983 197.166 113.612C197.133 113.483 197.117 113.351 197.116 113.219C197.147 113.219 197.247 113.749 197.559 114.673C197.997 115.974 198.628 117.203 199.431 118.317C200.635 119.963 202.21 121.302 204.03 122.223C205.098 122.767 206.236 123.162 207.412 123.396C208.029 123.522 208.655 123.602 209.284 123.633C209.915 123.71 210.555 123.642 211.156 123.434C211.293 123.379 211.415 123.295 211.516 123.187C211.616 123.079 211.691 122.95 211.736 122.81C211.775 122.674 211.783 122.532 211.76 122.393C211.738 122.253 211.685 122.121 211.605 122.005C211.246 121.502 210.771 121.093 210.22 120.813C209.189 120.189 208.126 119.619 207.037 119.103C205.995 118.61 204.978 118.192 204.017 117.855C203.537 117.68 203.056 117.506 202.619 117.387C202.527 117.353 202.429 117.34 202.331 117.351C202.234 117.362 202.14 117.396 202.058 117.449C201.998 117.514 201.962 117.596 201.955 117.683C201.948 117.77 201.971 117.857 202.02 117.93C202.24 118.266 202.535 118.546 202.881 118.747C203.193 118.985 203.505 119.19 203.786 119.371C204.367 119.752 204.885 120.058 205.309 120.295C205.733 120.532 206.07 120.713 206.301 120.832C206.435 120.889 206.561 120.965 206.675 121.056Z" fill="black"/>
</g>
<path d="M230.256 93.2872L230.175 93.2185L219.66 86.9785L178.014 84.0645L177.653 89.2312L181.584 91.7272L177.428 92.5321L176.929 99.6083L215.941 102.335C217.471 102.442 219.003 102.147 220.384 101.48L228.103 97.7363C229.725 96.9563 230.256 95.1467 230.256 93.2872Z" fill="#106FA4"/>
<path opacity="0.3" d="M230.256 93.2872L230.175 93.2185L219.66 86.9785L178.014 84.0645L177.653 89.2312L181.584 91.7272L177.428 92.5321L176.929 99.6083L215.941 102.335C217.471 102.442 219.003 102.147 220.384 101.48L228.103 97.7363C228.821 97.2494 229.398 96.5817 229.776 95.8006C230.154 95.0195 230.32 94.1526 230.256 93.2872Z" fill="black"/>
<path d="M229.632 92.4512L221.283 86.0177C220.344 85.2892 219.211 84.8549 218.026 84.7697L178.196 81.9805L177.834 87.1534L181.765 89.612L177.609 90.4169L177.11 97.4931L216.884 100.282C217.932 100.355 218.982 100.153 219.929 99.6958L229.357 95.1344C229.599 95.0153 229.807 94.8367 229.961 94.6153C230.115 94.3939 230.21 94.137 230.237 93.8688C230.265 93.6006 230.224 93.3297 230.118 93.0818C230.012 92.8338 229.845 92.6168 229.632 92.4512Z" fill="#106FA4"/>
<g opacity="0.2">
<path d="M178.77 97.6748C178.77 97.6748 178.77 97.6373 178.832 97.5812C178.896 97.4941 178.967 97.4127 179.045 97.3378C179.336 97.0426 179.673 96.7961 180.043 96.6077C181.438 95.9917 182.949 95.6811 184.473 95.6967C189.451 95.3912 194.447 95.6234 199.375 96.3893C202.264 96.8261 204.991 97.4689 207.437 97.9868C209.613 98.4795 211.815 98.8524 214.032 99.1037C215.526 99.2686 217.031 99.3124 218.531 99.2348C219.592 99.1786 220.179 99.0913 220.185 99.1287C220.047 99.1699 219.904 99.1971 219.761 99.2098C219.348 99.2827 218.931 99.3327 218.513 99.3596C217.006 99.4972 215.489 99.4972 213.982 99.3596C211.753 99.1358 209.538 98.7837 207.349 98.305C204.853 97.7996 202.17 97.1693 199.3 96.7325C194.392 95.9809 189.421 95.7196 184.461 95.9525C182.967 95.9214 181.481 96.1909 180.093 96.745C179.606 96.9842 179.16 97.2979 178.77 97.6748Z" fill="black"/>
<path d="M228.521 91.834C228.495 92.0111 228.449 92.1848 228.384 92.3519C228.197 92.8367 227.922 93.283 227.573 93.6685C227.015 94.2735 226.337 94.7559 225.582 95.085C224.586 95.4963 223.535 95.7611 222.462 95.8713C219.681 96.1918 216.881 96.3252 214.082 96.2706C210.931 96.2332 207.468 95.9961 203.842 95.6466L185.303 93.8557L179.687 93.2692L178.158 93.0945C177.982 93.0824 177.806 93.0552 177.634 93.0133C177.811 92.9968 177.988 92.9968 178.165 93.0133L179.7 93.1257L185.316 93.6061L203.867 95.3034C207.486 95.6341 210.937 95.8775 214.082 95.9274C216.867 95.9975 219.654 95.8891 222.425 95.6029C223.494 95.5079 224.545 95.2621 225.545 94.8729C226.286 94.5699 226.956 94.115 227.511 93.5375C227.963 93.0465 228.307 92.4662 228.521 91.834Z" fill="black"/>
<path d="M212.665 89.8553C212.815 89.7558 212.972 89.6662 213.133 89.587C213.598 89.3618 214.075 89.1639 214.562 88.9942C216.368 88.3851 218.287 88.1868 220.178 88.4138C220.815 88.4828 221.442 88.6187 222.05 88.8194C222.728 89.0342 223.327 89.4445 223.773 89.9988C224.017 90.3015 224.181 90.6608 224.25 91.0436C224.318 91.4264 224.289 91.8203 224.166 92.189C223.809 92.9257 223.177 93.4927 222.406 93.7678C219.436 95.0158 215.854 95.309 212.204 95.1281C211.286 95.0844 210.388 95.0407 209.496 94.9534C208.591 94.9006 207.712 94.6401 206.925 94.1921C206.536 93.969 206.203 93.6593 205.953 93.287C205.703 92.9148 205.543 92.49 205.483 92.0455C205.437 91.1846 205.731 90.3401 206.301 89.693C206.828 89.1036 207.463 88.6206 208.173 88.2703C208.84 87.9209 209.508 87.6463 210.163 87.3468C211.372 86.8471 212.626 86.4627 213.907 86.1986C215.773 85.8143 217.691 85.7468 219.579 85.999C220.092 86.0614 220.6 86.153 221.102 86.2735C221.28 86.306 221.456 86.3541 221.626 86.417C221.446 86.4007 221.267 86.3736 221.089 86.3359C220.746 86.2735 220.228 86.1924 219.567 86.1238C217.691 85.9262 215.795 86.0273 213.951 86.4233C212.682 86.7008 211.442 87.0935 210.244 87.5964C209.62 87.8772 208.934 88.1767 208.279 88.5199C207.605 88.8597 207.002 89.3233 206.5 89.8865C205.985 90.4717 205.718 91.2353 205.758 92.0143C205.814 92.412 205.962 92.7912 206.189 93.1224C206.417 93.4537 206.717 93.7279 207.068 93.9238C207.813 94.3424 208.643 94.5857 209.496 94.6351C210.375 94.7162 211.28 94.7599 212.191 94.8036C215.817 94.9846 219.355 94.7225 222.25 93.4932C222.951 93.254 223.531 92.7502 223.866 92.0892C223.976 91.765 224.003 91.4181 223.943 91.0809C223.883 90.7438 223.738 90.4273 223.523 90.161C223.115 89.6447 222.564 89.2605 221.938 89.0566C221.354 88.8529 220.749 88.7147 220.135 88.6447C218.265 88.3954 216.364 88.5551 214.562 89.1127C213.938 89.3124 213.452 89.5183 213.127 89.6494C212.979 89.73 212.824 89.7988 212.665 89.8553Z" fill="black"/>
<path d="M177.965 84.3153C178.097 84.311 178.229 84.3236 178.358 84.3527C178.732 84.4148 179.1 84.5109 179.456 84.6398C180.763 85.132 181.976 85.8431 183.044 86.7426C184.436 87.8222 185.896 89.3447 187.837 90.5802C189.98 91.874 192.483 92.4429 194.975 92.2026C197.477 91.9837 199.917 91.3091 202.176 90.2121C204.019 89.3168 205.811 88.3189 207.542 87.2231C209.04 86.3121 210.269 85.5945 211.137 85.139C211.573 84.9081 211.917 84.7396 212.148 84.6335C212.263 84.5667 212.387 84.5143 212.516 84.4775C212.412 84.5606 212.299 84.6317 212.179 84.6897L211.199 85.2513C210.35 85.738 209.146 86.4993 207.667 87.4228C205.943 88.5486 204.154 89.5697 202.307 90.4804C200.028 91.6083 197.558 92.3024 195.025 92.5271C193.71 92.6272 192.387 92.5326 191.1 92.2463C189.896 91.9791 188.749 91.5017 187.712 90.8361C185.734 89.5881 184.292 88.0156 182.932 86.9236C181.892 86.02 180.715 85.2889 179.444 84.7583C178.959 84.5836 178.466 84.4357 177.965 84.3153Z" fill="black"/>
<path d="M192.192 85.875C192.323 85.8626 192.455 85.8626 192.585 85.875C192.841 85.875 193.209 85.9312 193.709 85.9562C194.208 85.9811 194.794 85.9998 195.487 85.9874C195.836 85.9874 196.205 85.9874 196.598 85.9374C196.997 85.9452 197.394 85.8642 197.758 85.7003C197.839 85.6661 197.905 85.6053 197.946 85.528C197.987 85.4508 198 85.3618 197.983 85.276C197.946 85.1138 197.758 84.9952 197.546 84.9203C197.109 84.7893 196.61 84.6832 196.117 84.5709C195.113 84.3525 194.033 84.1653 192.885 84.0217C191.737 83.8782 190.532 83.7971 189.278 83.7722C188.665 83.7097 188.045 83.7997 187.475 84.0342C187.345 84.0927 187.229 84.1788 187.135 84.2865C187.041 84.3943 186.972 84.5211 186.932 84.6582C186.899 84.7986 186.898 84.9443 186.927 85.0854C186.956 85.2265 187.015 85.3596 187.1 85.4757C187.499 85.9713 188.005 86.3702 188.579 86.6426C189.131 86.9562 189.707 87.2254 190.302 87.4475C191.42 87.8777 192.591 88.1548 193.783 88.2712C195.815 88.4608 197.863 88.1701 199.761 87.4226C201.041 86.9154 202.236 86.2168 203.306 85.3509C204.067 84.7269 204.435 84.34 204.454 84.3587C204.473 84.3774 204.379 84.471 204.204 84.6645C203.961 84.9543 203.7 85.2293 203.424 85.4882C202.111 86.6281 200.582 87.4919 198.928 88.0279C197.273 88.5639 195.528 88.7613 193.796 88.6082C192.572 88.4997 191.369 88.2247 190.22 87.7907C189.613 87.5637 189.024 87.2882 188.461 86.967C187.84 86.6812 187.295 86.2538 186.87 85.719C186.758 85.565 186.682 85.3888 186.645 85.2025C186.609 85.0162 186.613 84.8241 186.657 84.6395C186.71 84.4599 186.8 84.2937 186.923 84.1526C187.046 84.0115 187.198 83.8987 187.369 83.8221C187.986 83.5649 188.657 83.4641 189.322 83.5288C190.539 83.5537 191.753 83.6454 192.96 83.8034C194.114 83.9531 195.206 84.1528 196.211 84.3837C196.723 84.5022 197.191 84.6083 197.671 84.7581C197.803 84.7931 197.925 84.8597 198.026 84.952C198.127 85.0444 198.205 85.1598 198.251 85.2885C198.279 85.424 198.261 85.5651 198.2 85.6893C198.139 85.8136 198.039 85.914 197.914 85.9749C197.522 86.1499 197.095 86.2332 196.666 86.2182C196.267 86.2182 195.893 86.2182 195.543 86.2182C194.844 86.2182 194.245 86.1746 193.759 86.1309C193.272 86.0872 192.891 86.0373 192.635 85.9936C192.483 85.9762 192.333 85.9362 192.192 85.875Z" fill="black"/>
</g>
<path d="M170.727 65.4379L183.456 73.2504L225.171 71.7528L224.99 66.5736L220.821 64.5331L224.871 63.2976L224.615 56.209L183.169 57.6941L170.727 65.4379Z" fill="#106FA4"/>
<path opacity="0.3" d="M170.727 65.4379L183.456 73.2504L225.171 71.7528L224.99 66.5736L220.821 64.5331L224.871 63.2976L224.615 56.209L183.169 57.6941L170.727 65.4379Z" fill="black"/>
<path d="M169.478 66.9366L178.464 72.4465C179.475 73.0692 180.647 73.3776 181.834 73.3326L221.732 71.9036L221.545 66.7244L217.377 64.6902L221.426 63.4422L221.177 56.3535L181.334 57.7887C180.282 57.8255 179.258 58.1374 178.364 58.6935L169.472 64.2284C169.241 64.3715 169.051 64.5712 168.92 64.8085C168.788 65.0458 168.719 65.3128 168.72 65.5842C168.72 65.8556 168.79 66.1223 168.923 66.359C169.056 66.5957 169.247 66.7945 169.478 66.9366Z" fill="#106FA4"/>
<g opacity="0.2">
<path d="M219.486 56.373C219.473 56.4093 219.454 56.4431 219.429 56.4729C219.377 56.5652 219.316 56.6529 219.248 56.735C218.988 57.0594 218.678 57.3414 218.331 57.5711C217.008 58.326 215.541 58.7937 214.026 58.9439C209.107 59.7714 204.113 60.0685 199.131 59.83C196.21 59.699 193.452 59.3433 190.944 59.0875C188.727 58.8253 186.499 58.6815 184.267 58.6569C182.765 58.6494 181.264 58.7642 179.78 59.0001C178.732 59.1686 178.158 59.3183 178.146 59.2809C178.28 59.2318 178.418 59.1901 178.557 59.1561C178.832 59.0875 179.231 58.9689 179.755 58.8753C181.243 58.5908 182.753 58.4405 184.267 58.426C186.508 58.4119 188.747 58.5264 190.975 58.7692C193.471 59.0126 196.242 59.3558 199.143 59.4868C204.105 59.7185 209.079 59.4531 213.988 58.6943C215.482 58.5678 216.935 58.1434 218.262 57.4463C218.721 57.1511 219.133 56.7894 219.486 56.373Z" fill="black"/>
<path d="M170.626 67.4368C170.631 67.2572 170.658 67.079 170.708 66.9064C170.842 66.4052 171.069 65.9334 171.375 65.5148C171.864 64.8515 172.487 64.2987 173.204 63.8924C174.158 63.3764 175.181 63.0002 176.242 62.7755C178.972 62.1791 181.738 61.7622 184.523 61.5275C187.643 61.2342 191.137 61.1032 194.775 61.047L213.408 60.8411H219.055H220.59C220.769 60.8264 220.948 60.8264 221.127 60.8411C220.949 60.87 220.77 60.8846 220.59 60.8848L219.055 60.9284L213.439 61.047L194.813 61.3153C191.175 61.3715 187.718 61.49 184.585 61.7708C181.798 62.0153 179.028 62.4342 176.292 63.0251C175.247 63.2338 174.237 63.5888 173.291 64.0796C172.586 64.4601 171.968 64.9828 171.475 65.6147C171.066 66.155 170.777 66.7761 170.626 67.4368Z" fill="black"/>
<path d="M186.576 67.7049C186.44 67.824 186.294 67.9305 186.139 68.0231C185.703 68.3006 185.248 68.5487 184.779 68.7657C183.043 69.5668 181.149 69.9678 179.238 69.9388C178.608 69.9338 177.981 69.8648 177.366 69.7329C176.672 69.5903 176.035 69.245 175.537 68.7407C175.262 68.465 175.061 68.1244 174.952 67.7504C174.843 67.3763 174.829 66.9808 174.913 66.6004C175.191 65.8307 175.761 65.2009 176.498 64.8469C179.313 63.2682 182.851 62.6255 186.482 62.4133C187.4 62.3634 188.298 62.3135 189.197 62.301C190.101 62.2598 191.002 62.4285 191.83 62.794C192.241 62.974 192.605 63.246 192.893 63.589C193.182 63.932 193.389 64.3367 193.496 64.7721C193.632 65.6243 193.428 66.4959 192.928 67.1994C192.464 67.84 191.881 68.3864 191.212 68.8093C190.588 69.2337 189.964 69.5956 189.34 69.9388C188.185 70.5656 186.973 71.0817 185.721 71.4801C183.906 72.0553 182.008 72.3252 180.105 72.2788C179.59 72.2693 179.075 72.2318 178.564 72.1665C178.385 72.1551 178.207 72.1258 178.033 72.0791C178.212 72.0666 178.391 72.0666 178.57 72.0791C178.92 72.0791 179.437 72.1353 180.105 72.1353C181.99 72.1307 183.862 71.8296 185.652 71.2429C186.887 70.8365 188.08 70.3142 189.216 69.6829C189.84 69.3397 190.464 68.9716 191.088 68.5535C191.724 68.1489 192.277 67.6256 192.716 67.0122C193.165 66.3739 193.348 65.5865 193.228 64.8157C193.129 64.4269 192.941 64.066 192.681 63.7609C192.42 63.4558 192.093 63.2146 191.724 63.0561C190.937 62.7179 190.083 62.5643 189.228 62.6068C188.348 62.6068 187.443 62.6692 186.532 62.7191C182.907 62.9313 179.419 63.5615 176.667 65.0903C175.992 65.399 175.467 65.9621 175.207 66.6565C175.134 66.9896 175.146 67.3356 175.242 67.6627C175.338 67.9898 175.515 68.2875 175.756 68.5285C176.216 68.9996 176.804 69.3251 177.447 69.4645C178.049 69.6033 178.664 69.6766 179.281 69.6829C181.166 69.7306 183.039 69.3709 184.773 68.6284C185.242 68.424 185.7 68.1949 186.145 67.942C186.284 67.854 186.428 67.7748 186.576 67.7049Z" fill="black"/>
<path d="M221.695 69.576C221.564 69.5883 221.432 69.5883 221.301 69.576C220.923 69.5535 220.547 69.4971 220.178 69.4075C218.825 69.0548 217.542 68.4746 216.384 67.6915C214.887 66.768 213.264 65.4077 211.218 64.3843C208.95 63.3241 206.401 63.0221 203.948 63.5232C201.494 64.0097 199.15 64.9379 197.028 66.2625C195.289 67.3478 193.612 68.529 192.005 69.8006C190.613 70.8677 189.465 71.7101 188.648 72.2529C188.242 72.5275 187.917 72.7334 187.699 72.8769C187.589 72.9527 187.472 73.0175 187.35 73.0704C187.445 72.977 187.55 72.8934 187.662 72.8208L188.579 72.1593C189.371 71.5853 190.488 70.7179 191.861 69.6321C193.451 68.3291 195.118 67.1227 196.853 66.0192C199 64.6601 201.38 63.7102 203.873 63.2174C205.172 62.9765 206.499 62.9302 207.811 63.0801C209.036 63.2231 210.226 63.5778 211.33 64.1285C213.427 65.1893 215.024 66.5745 216.49 67.5105C217.63 68.2871 218.885 68.8788 220.209 69.264C221.152 69.5385 221.701 69.5385 221.695 69.576Z" fill="black"/>
<path d="M207.368 69.5263C207.237 69.5343 207.105 69.5343 206.974 69.5263C206.719 69.5263 206.35 69.5263 205.851 69.5638C205.352 69.6012 204.765 69.6387 204.079 69.726C203.736 69.7697 203.368 69.8259 202.981 69.8945C202.582 69.9251 202.196 70.0468 201.851 70.2502C201.775 70.2922 201.715 70.3591 201.683 70.4397C201.65 70.5203 201.645 70.6098 201.67 70.6932C201.72 70.7779 201.789 70.8496 201.871 70.9028C201.953 70.9559 202.047 70.9888 202.145 70.999C202.588 71.0863 203.099 71.1425 203.605 71.1987C204.622 71.311 205.72 71.3859 206.868 71.3983C208.076 71.4205 209.284 71.3788 210.488 71.2735C211.104 71.2675 211.709 71.1134 212.253 70.8243C212.376 70.7521 212.482 70.6547 212.563 70.5385C212.645 70.4223 212.701 70.2899 212.728 70.1503C212.743 70.0077 212.729 69.8633 212.685 69.7267C212.641 69.5901 212.568 69.4644 212.472 69.3579C212.024 68.9069 211.48 68.5634 210.881 68.3532C210.299 68.0989 209.698 67.8903 209.084 67.7292C207.925 67.4212 206.731 67.2701 205.533 67.2799C203.492 67.3032 201.487 67.81 199.68 68.7588C198.46 69.3946 197.345 70.2132 196.373 71.1862C195.686 71.8788 195.356 72.3156 195.331 72.2969C195.395 72.18 195.47 72.0693 195.555 71.9662C195.779 71.6629 196.021 71.3733 196.279 71.0988C197.467 69.8292 198.898 68.8107 200.486 68.1033C202.074 67.3959 203.788 67.0141 205.527 66.9804C206.754 66.9598 207.978 67.1068 209.165 67.4172C209.793 67.5784 210.409 67.787 211.005 68.0412C211.654 68.2701 212.242 68.6459 212.721 69.1395C212.848 69.2801 212.943 69.4468 212.999 69.6278C213.055 69.8089 213.071 70 213.046 70.1878C213.016 70.374 212.944 70.551 212.836 70.7056C212.728 70.8601 212.587 70.9882 212.422 71.0801C211.833 71.3984 211.176 71.5696 210.506 71.5793C209.294 71.6818 208.078 71.7172 206.862 71.6854C205.695 71.6854 204.591 71.5793 203.567 71.4545C203.049 71.3859 202.569 71.3297 202.076 71.2299C201.943 71.2086 201.816 71.1555 201.708 71.0751C201.599 70.9948 201.511 70.8895 201.452 70.7681C201.411 70.6357 201.414 70.4932 201.463 70.3633C201.512 70.2333 201.602 70.1233 201.72 70.0505C202.1 69.8278 202.528 69.6994 202.968 69.6761C203.355 69.6137 203.73 69.57 204.079 69.5326C204.772 69.4639 205.371 69.4327 205.864 69.4265C206.357 69.4203 206.737 69.4265 206.993 69.4265C207.122 69.4419 207.248 69.4755 207.368 69.5263Z" fill="black"/>
</g>
<path d="M278.741 154.752C278.741 154.839 224.278 154.914 157.111 154.914C89.9436 154.914 35.4746 154.808 35.4746 154.752C35.4746 154.696 89.9248 154.59 157.111 154.59C224.297 154.59 278.741 154.627 278.741 154.752Z" fill="#263238"/>
<path d="M41.9139 256.708C41.8577 256.708 41.6331 255.784 41.1775 254.305C40.5798 252.382 39.8415 250.505 38.9686 248.689C38.0922 246.874 37.0827 245.127 35.9484 243.46C35.0748 242.181 34.482 241.42 34.5257 241.389C34.6999 241.532 34.8569 241.696 34.9937 241.875C35.2807 242.206 35.6739 242.699 36.1356 243.329C37.3303 244.973 38.3745 246.721 39.2556 248.552C40.1408 250.382 40.8552 252.289 41.3897 254.249C41.5956 255.004 41.7391 255.616 41.814 256.046C41.8723 256.262 41.9058 256.484 41.9139 256.708Z" fill="#263238"/>
<path d="M46.0199 259.398C45.9388 259.398 44.3601 254.181 42.5068 247.692C40.6535 241.202 39.2183 235.917 39.3119 235.873C39.4055 235.83 40.9718 241.09 42.8251 247.58C44.6783 254.069 46.1073 259.373 46.0199 259.398Z" fill="#263238"/>
<path d="M49.3768 245.332C49.3397 246.044 49.2584 246.752 49.1334 247.454C48.9649 248.758 48.7715 250.574 48.6654 252.57C48.5593 254.567 48.5531 256.389 48.5843 257.706C48.623 258.417 48.623 259.129 48.5843 259.84C48.518 259.658 48.4822 259.466 48.4782 259.272C48.4283 258.904 48.3846 258.374 48.3409 257.712C48.2392 255.994 48.2392 254.27 48.3409 252.552C48.4312 250.832 48.6208 249.12 48.9088 247.422C49.0211 246.767 49.1272 246.243 49.2145 245.887C49.245 245.696 49.2995 245.51 49.3768 245.332Z" fill="#263238"/>
<path d="M227.429 138.285C227.516 138.285 228.646 141.923 229.925 146.466C231.204 151.009 232.221 154.715 232.14 154.74C232.059 154.765 230.923 151.102 229.613 146.559C228.302 142.017 227.341 138.31 227.429 138.285Z" fill="#263238"/>
<path d="M234.842 139.445C234.892 139.445 234.655 140.294 234.387 141.667C234.032 143.448 233.824 145.255 233.763 147.071C233.711 148.885 233.809 150.701 234.056 152.499C234.243 153.885 234.43 154.727 234.374 154.74C234.286 154.555 234.223 154.36 234.187 154.159C234.041 153.625 233.922 153.083 233.831 152.537C233.196 148.912 233.308 145.196 234.162 141.617C234.284 141.075 234.434 140.54 234.611 140.013C234.657 139.813 234.735 139.621 234.842 139.445Z" fill="#263238"/>
<path d="M239.454 142.36C239.497 142.391 239.067 142.984 238.474 144.057C237.707 145.424 237.079 146.864 236.602 148.357C236.14 149.854 235.835 151.395 235.691 152.956C235.579 154.16 235.585 154.909 235.529 154.909C235.478 154.739 235.455 154.562 235.46 154.385C235.435 153.904 235.435 153.423 235.46 152.943C235.624 149.753 236.59 146.656 238.268 143.939C238.521 143.529 238.796 143.134 239.092 142.753C239.31 142.491 239.435 142.348 239.454 142.36Z" fill="#263238"/>
<path d="M198.7 197.965C198.369 196.717 199.206 195.407 200.148 194.483C201.09 193.56 202.207 192.723 202.694 191.5C203.486 189.51 202.425 186.939 203.773 185.26C204.566 184.287 205.995 183.962 206.7 182.92C207.022 182.341 207.234 181.706 207.324 181.048C208.075 177.748 209.698 174.71 212.023 172.25C212.172 175.194 211.525 178.123 210.151 180.73C209.511 181.717 209.039 182.803 208.753 183.944C208.453 185.816 209.508 187.781 209.046 189.628C208.516 191.75 206.132 193.166 206.02 195.35C205.926 197.222 207.536 198.814 207.417 200.654C207.318 201.439 207.036 202.189 206.594 202.845C205.165 205.216 203.074 206.851 199.898 206.795L196.011 206.932L198.7 197.965Z" fill="#106FA4"/>
<g opacity="0.3">
<path d="M198.7 197.965C198.369 196.717 199.206 195.407 200.148 194.483C201.09 193.56 202.207 192.723 202.694 191.5C203.486 189.51 202.425 186.939 203.773 185.26C204.566 184.287 205.995 183.962 206.7 182.92C207.022 182.341 207.234 181.706 207.324 181.048C208.075 177.748 209.698 174.71 212.023 172.25C212.172 175.194 211.525 178.123 210.151 180.73C209.511 181.717 209.039 182.803 208.753 183.944C208.453 185.816 209.508 187.781 209.046 189.628C208.516 191.75 206.132 193.166 206.02 195.35C205.926 197.222 207.536 198.814 207.417 200.654C207.318 201.439 207.036 202.189 206.594 202.845C205.165 205.216 203.074 206.851 199.898 206.795L196.011 206.932L198.7 197.965Z" fill="black"/>
</g>
<path d="M195.256 207.069C194.903 207.131 194.542 207.131 194.189 207.069C193.764 207.002 193.346 206.896 192.941 206.751C192.378 206.551 191.851 206.263 191.381 205.896C191.105 205.664 190.891 205.369 190.757 205.035C190.641 204.659 190.58 204.268 190.576 203.874C190.565 203.457 190.534 203.041 190.482 202.626C190.408 202.183 190.247 201.759 190.008 201.378C189.552 200.573 188.791 199.812 188.541 198.72C188.353 197.586 188.389 196.427 188.647 195.307C188.93 194.103 188.9 192.846 188.56 191.657C188.142 190.44 187.312 189.342 186.863 187.969C186.413 186.596 186.632 185.092 186.545 183.601C186.517 182.855 186.345 182.122 186.039 181.442C185.721 180.749 185.284 180.1 184.947 179.376C184.254 177.91 184.136 176.256 183.942 174.628C183.855 173.804 183.761 172.974 183.668 172.132C183.611 171.286 183.465 170.45 183.231 169.636C182.97 168.815 182.659 168.01 182.301 167.227C182.118 166.824 181.967 166.406 181.852 165.979C181.786 165.536 181.744 165.091 181.727 164.644C181.686 163.746 181.719 162.846 181.827 161.954C181.933 161.056 182.095 160.163 182.195 159.265V159.109V158.928L182.351 159.009C183.176 159.43 183.893 160.034 184.448 160.775C184.986 161.501 185.418 162.299 185.733 163.146C186.29 164.805 186.695 166.512 186.944 168.244C187.189 169.894 187.73 171.486 188.541 172.943C188.966 173.635 189.484 174.272 189.933 174.946C190.418 175.602 190.748 176.359 190.9 177.161C191.131 178.808 190.226 180.25 190.413 181.71C190.503 182.425 190.746 183.112 191.125 183.725C191.474 184.349 191.892 184.924 192.285 185.504C192.687 186.07 193.036 186.671 193.327 187.301C193.602 187.916 193.764 188.576 193.808 189.248C193.901 190.558 193.714 191.806 193.808 192.992C193.911 194.11 194.235 195.196 194.763 196.187C195.237 197.148 195.761 198.009 196.198 198.851C196.416 199.269 196.622 199.681 196.784 200.099C196.942 200.502 197.057 200.92 197.128 201.347C197.246 202.082 197.257 202.831 197.159 203.569C197.058 204.599 196.671 205.58 196.042 206.402C195.947 206.524 195.843 206.639 195.73 206.745C195.652 206.824 195.566 206.895 195.474 206.957C195.33 207.063 195.249 207.113 195.249 207.113C195.531 206.898 195.785 206.649 196.004 206.37C196.605 205.546 196.97 204.573 197.059 203.556C197.147 202.83 197.13 202.094 197.009 201.372C196.937 200.96 196.822 200.556 196.666 200.168C196.491 199.742 196.293 199.325 196.073 198.92C195.63 198.09 195.106 197.229 194.625 196.268C194.081 195.259 193.742 194.152 193.627 193.011C193.527 191.813 193.708 190.565 193.627 189.267C193.584 188.62 193.425 187.986 193.159 187.395C192.871 186.776 192.524 186.187 192.123 185.635C191.73 185.061 191.312 184.481 190.95 183.844C190.557 183.206 190.304 182.491 190.207 181.747C190.02 180.194 190.919 178.74 190.688 177.211C190.538 176.443 190.218 175.718 189.752 175.089C189.309 174.428 188.791 173.791 188.354 173.08C187.521 171.6 186.967 169.98 186.719 168.3C186.468 166.585 186.065 164.896 185.515 163.252C185.21 162.427 184.79 161.65 184.267 160.943C183.738 160.231 183.053 159.651 182.264 159.246L182.439 159.146V159.302C182.339 160.213 182.177 161.105 182.07 161.992C181.963 162.871 181.929 163.758 181.971 164.644C181.987 165.078 182.027 165.511 182.089 165.941C182.199 166.357 182.346 166.762 182.526 167.152C182.883 167.945 183.195 168.758 183.462 169.586C183.695 170.413 183.841 171.262 183.899 172.119C183.992 172.955 184.086 173.785 184.173 174.615C184.361 176.25 184.485 177.885 185.147 179.301C185.477 180 185.914 180.655 186.239 181.367C186.554 182.073 186.73 182.834 186.757 183.607C186.844 185.105 186.644 186.571 187.05 187.9C187.456 189.229 188.298 190.327 188.735 191.588C189.082 192.808 189.11 194.098 188.816 195.332C188.559 196.428 188.517 197.564 188.691 198.677C188.916 199.719 189.652 200.474 190.12 201.304C190.363 201.702 190.528 202.142 190.607 202.601C190.656 203.016 190.683 203.432 190.688 203.849C190.688 204.234 190.743 204.616 190.85 204.985C190.989 205.304 191.203 205.584 191.474 205.803C191.932 206.168 192.446 206.457 192.997 206.657C193.401 206.81 193.819 206.924 194.245 207.001C194.506 207.046 194.771 207.071 195.037 207.076L195.256 207.069Z" fill="#263238"/>
<path d="M182.969 161.248C182.988 161.285 183 161.325 183.006 161.367C183.006 161.46 183.056 161.579 183.094 161.716C183.168 162.022 183.262 162.49 183.406 163.064C183.549 163.638 183.911 164.312 184.211 165.098C184.569 166 184.88 166.921 185.14 167.856C185.434 168.892 185.696 170.046 185.97 171.276C186.209 172.594 186.629 173.873 187.218 175.076C187.536 175.7 187.892 176.324 188.179 177.048C188.459 177.766 188.648 178.516 188.741 179.282C188.937 180.863 189.217 182.434 189.577 183.987C190.357 187.169 191.099 190.227 191.78 192.972L193.652 200.298C194.163 202.376 194.581 204.042 194.9 205.246C195.037 205.82 195.143 206.27 195.218 206.594L195.293 206.95C195.293 207.025 195.293 207.068 195.293 207.068C195.276 207.032 195.261 206.994 195.249 206.956L195.149 206.607C195.062 206.282 194.943 205.839 194.787 205.271L193.489 200.342C192.947 198.257 192.304 195.78 191.617 193.028C190.931 190.277 190.182 187.225 189.396 184.037C189.032 182.478 188.753 180.901 188.56 179.313C188.473 178.567 188.293 177.835 188.023 177.135C187.749 176.455 187.399 175.818 187.075 175.182C186.481 173.961 186.061 172.663 185.827 171.326C185.558 170.078 185.309 168.936 185.022 167.9C184.735 166.864 184.441 165.947 184.142 165.148C183.842 164.349 183.518 163.688 183.368 163.089C183.218 162.49 183.162 162.041 183.1 161.729C183.1 161.585 183.056 161.466 183.037 161.373C183.007 161.336 182.983 161.294 182.969 161.248Z" fill="#263238"/>
<path d="M194.569 207.082C192.03 205.572 191.3 200.992 192.36 198.234C193.421 195.476 195.275 192.948 195.562 190.009C195.78 187.751 195.044 185.429 195.562 183.22C196.273 180.238 199.187 177.923 199.15 174.859C199.15 173.136 198.151 171.52 198.232 169.804C198.326 167.695 199.942 166.023 200.947 164.188C202.482 161.349 202.582 157.986 203.106 154.828C203.63 151.671 204.847 148.226 207.667 146.66C208.085 149.362 208.797 151.215 208.578 154.884C208.497 156.201 206.968 158.722 206.756 161.605C206.631 163.327 206.55 165.056 206.444 166.784C206.425 168.468 206.15 170.138 205.627 171.739C205.165 172.943 204.429 174.041 204.085 175.283C203.461 177.623 204.285 180.15 203.767 182.521C203.324 184.531 201.939 186.265 201.652 188.293C201.252 191.151 203.106 194.122 202.157 196.848C201.689 198.203 200.572 199.288 200.285 200.686C200.036 201.772 200.285 202.92 200.079 204.012C199.724 205.765 196.379 207.132 194.588 207.02" fill="#106FA4"/>
<path d="M206.975 149.293C206.982 149.345 206.982 149.397 206.975 149.449C206.975 149.561 206.943 149.705 206.918 149.892C206.862 150.285 206.794 150.859 206.663 151.596C206.532 152.332 206.138 153.187 205.833 154.198C205.527 155.208 205.209 156.369 204.897 157.673C204.585 158.977 204.366 160.425 204.11 161.973C203.906 163.646 203.469 165.282 202.813 166.834C202.451 167.645 202.051 168.462 201.752 169.33C201.461 170.219 201.28 171.141 201.215 172.075C201.073 174.061 200.825 176.038 200.473 177.997C199.693 182.003 198.956 185.822 198.276 189.298C197.596 192.773 196.928 195.881 196.404 198.508C195.88 201.135 195.418 203.225 195.112 204.71C194.956 205.428 194.832 205.99 194.744 206.389C194.707 206.57 194.669 206.713 194.644 206.826C194.636 206.877 194.621 206.928 194.601 206.976C194.597 206.926 194.597 206.876 194.601 206.826C194.601 206.707 194.644 206.564 194.676 206.383C194.757 205.977 194.863 205.409 194.994 204.685C195.287 203.2 195.705 201.085 196.242 198.445C196.778 195.806 197.384 192.692 198.076 189.229C198.769 185.766 199.48 181.934 200.254 177.928C200.607 175.977 200.855 174.009 200.997 172.032C201.066 171.078 201.252 170.137 201.552 169.23C201.864 168.344 202.27 167.526 202.625 166.734C203.282 165.203 203.721 163.588 203.93 161.935C204.198 160.381 204.447 158.94 204.753 157.63C205.017 156.454 205.34 155.291 205.72 154.148C206.045 153.131 206.444 152.276 206.594 151.571C206.744 150.865 206.819 150.266 206.894 149.88L206.975 149.436V149.293Z" fill="#263238"/>
<path d="M249.275 265.581C249.882 265.871 250.424 266.279 250.869 266.783C251.314 267.287 251.653 267.876 251.865 268.514C252.281 269.796 252.398 271.155 252.208 272.489C251.915 275.066 250.455 277.668 248.876 279.734C246.704 277.862 246.205 274.529 246.055 272.838C245.818 270.161 247.023 265.182 249.275 265.581Z" fill="#106FA4"/>
<path d="M251.397 283.989C251.25 283.251 251.3 282.488 251.542 281.776C251.784 281.064 252.21 280.428 252.776 279.933C253.35 279.449 254.015 279.085 254.732 278.861C255.449 278.637 256.203 278.558 256.95 278.628C257.297 278.625 257.641 278.698 257.958 278.84C258.274 278.982 258.556 279.191 258.785 279.452C258.954 279.735 259.043 280.059 259.043 280.388C259.043 280.718 258.954 281.041 258.785 281.324C258.457 281.886 257.985 282.351 257.418 282.672C255.546 283.851 253.5 284.65 251.372 284.014" fill="#106FA4"/>
<path d="M248.614 291.896C248.625 291.718 248.65 291.54 248.689 291.366L248.951 289.931C249.197 288.337 249.696 286.793 250.43 285.357C251.195 283.923 252.328 282.72 253.712 281.869C254.135 281.62 254.585 281.421 255.053 281.276C255.18 281.235 255.309 281.204 255.44 281.182C255.486 281.174 255.532 281.174 255.578 281.182C254.95 281.388 254.348 281.662 253.78 282C252.444 282.87 251.35 284.063 250.598 285.469C249.874 286.89 249.363 288.41 249.082 289.981C248.951 290.605 248.845 291.066 248.764 291.397C248.73 291.568 248.68 291.735 248.614 291.896Z" fill="#263238"/>
<path d="M248.695 269.457C248.706 269.534 248.706 269.611 248.695 269.688C248.695 269.856 248.695 270.081 248.739 270.349C248.739 270.93 248.801 271.766 248.833 272.795C248.901 274.861 248.951 277.719 248.939 280.876C248.926 284.034 248.851 286.885 248.764 288.951C248.72 289.98 248.683 290.823 248.645 291.397C248.645 291.665 248.614 291.89 248.602 292.058C248.6 292.136 248.59 292.214 248.57 292.289C248.564 292.212 248.564 292.135 248.57 292.058C248.57 291.884 248.57 291.665 248.57 291.391C248.57 290.767 248.608 289.962 248.633 288.945C248.683 286.879 248.739 284.027 248.751 280.87C248.764 277.713 248.751 274.867 248.702 272.802C248.702 271.785 248.67 270.93 248.664 270.356V269.688C248.665 269.61 248.675 269.532 248.695 269.457Z" fill="#263238"/>
<path d="M247.64 285.556C247.377 283.995 246.747 282.519 245.8 281.249C244.854 279.98 243.62 278.954 242.199 278.255C241.469 277.906 240.521 277.675 239.928 278.218C239.335 278.761 239.466 279.728 239.753 280.477C240.387 282.038 241.47 283.377 242.865 284.323C244.26 285.27 245.905 285.781 247.59 285.793" fill="#106FA4"/>
<path d="M242.548 280.695C242.707 280.752 242.862 280.821 243.01 280.901C243.187 280.983 243.36 281.075 243.528 281.176C243.721 281.301 243.958 281.419 244.189 281.594C244.453 281.769 244.707 281.959 244.951 282.162C245.231 282.393 245.5 282.639 245.756 282.898C246.339 283.494 246.854 284.153 247.291 284.864C247.714 285.584 248.053 286.35 248.302 287.147C248.401 287.522 248.501 287.871 248.557 288.208C248.619 288.52 248.663 288.834 248.688 289.151C248.703 289.41 248.703 289.671 248.688 289.931C248.702 290.128 248.702 290.326 248.688 290.523C248.685 290.691 248.666 290.858 248.632 291.023C248.589 291.023 248.632 290.305 248.532 289.151C248.5 288.84 248.45 288.532 248.383 288.227C248.313 287.877 248.223 287.531 248.114 287.191C247.622 285.619 246.767 284.185 245.618 283.004C245.373 282.744 245.112 282.498 244.838 282.268C244.589 282.043 244.333 281.862 244.102 281.687C243.185 281.032 242.53 280.733 242.548 280.695Z" fill="#263238"/>
<path d="M230.255 246.33C230.216 246.436 230.164 246.537 230.099 246.63C229.975 246.855 229.812 247.129 229.613 247.46C229.413 247.791 229.132 248.252 228.851 248.777C228.571 249.301 228.227 249.875 227.884 250.542C227.185 251.853 226.424 253.463 225.657 255.272C224.842 257.249 224.128 259.265 223.516 261.313C222.892 263.497 222.418 265.612 222.062 267.553C221.707 269.493 221.507 271.259 221.388 272.744C221.313 273.487 221.289 274.161 221.251 274.747C221.214 275.334 221.195 275.852 221.182 276.27C221.17 276.688 221.182 276.975 221.182 277.231C221.186 277.342 221.173 277.454 221.145 277.562C221.121 277.453 221.111 277.342 221.114 277.231C221.114 276.975 221.114 276.657 221.114 276.264C221.114 275.871 221.114 275.334 221.114 274.741C221.114 274.148 221.114 273.493 221.207 272.726C221.327 270.975 221.536 269.232 221.831 267.503C222.196 265.386 222.675 263.29 223.267 261.225C223.881 259.167 224.608 257.144 225.444 255.166C226.231 253.344 227.017 251.747 227.747 250.436C228.096 249.775 228.452 249.188 228.758 248.689C229.064 248.19 229.332 247.747 229.569 247.397C229.806 247.048 229.962 246.817 230.112 246.605C230.262 246.393 230.255 246.324 230.255 246.33Z" fill="#263238"/>
<path d="M220.403 255.328C220.419 255.607 220.407 255.888 220.365 256.164C220.309 256.788 220.234 257.537 220.153 258.448C219.966 260.37 219.729 263.035 219.529 265.974C219.33 268.913 219.211 271.59 219.13 273.518L219.024 275.808C219.03 276.091 219.005 276.373 218.949 276.65C218.903 276.372 218.887 276.09 218.899 275.808C218.899 275.265 218.899 274.485 218.899 273.511C218.899 271.577 219.005 268.9 219.205 265.955C219.404 263.01 219.679 260.339 219.922 258.423C220.047 257.462 220.153 256.688 220.241 256.152C220.27 255.873 220.325 255.597 220.403 255.328Z" fill="#263238"/>
<path d="M210.837 263.49C211.003 263.602 211.154 263.734 211.287 263.883C211.675 264.266 212.042 264.67 212.385 265.094C213.522 266.493 214.465 268.04 215.187 269.693C215.908 271.344 216.399 273.087 216.647 274.872C216.725 275.412 216.773 275.955 216.79 276.501C216.816 276.708 216.816 276.917 216.79 277.125C216.734 277.125 216.678 276.282 216.441 274.934C215.82 271.422 214.374 268.107 212.223 265.262C211.38 264.145 210.794 263.528 210.837 263.49Z" fill="#263238"/>
<path d="M249.057 160.705C249.164 160.791 249.262 160.887 249.35 160.992L250.149 161.853L250.716 162.477C250.922 162.714 251.128 162.983 251.34 163.263C251.79 163.838 252.326 164.468 252.838 165.229L253.662 166.402C253.943 166.814 254.198 167.263 254.485 167.719C255.078 168.624 255.602 169.647 256.176 170.708C258.585 175.39 260.15 180.459 260.8 185.684C260.919 186.888 261.062 188.03 261.087 189.103C261.087 189.646 261.144 190.164 261.144 190.663V192.099C261.144 193.01 261.062 193.833 261.012 194.557C261.012 194.919 260.963 195.262 260.931 195.568C260.9 195.874 260.85 196.155 260.813 196.41C260.744 196.891 260.688 197.278 260.638 197.571C260.629 197.709 260.602 197.846 260.557 197.977C260.549 197.839 260.549 197.702 260.557 197.565C260.588 197.265 260.626 196.878 260.669 196.398C260.669 196.142 260.725 195.861 260.757 195.555C260.788 195.25 260.794 194.931 260.813 194.545C260.844 193.827 260.919 193.003 260.894 192.092V190.663C260.894 190.17 260.838 189.652 260.813 189.122C260.782 188.049 260.632 186.919 260.501 185.721C259.819 180.54 258.268 175.511 255.914 170.845C255.347 169.784 254.835 168.761 254.261 167.862C253.98 167.407 253.724 166.951 253.45 166.539C253.175 166.128 252.907 165.735 252.651 165.36C252.158 164.593 251.634 163.956 251.197 163.376C250.979 163.089 250.779 162.814 250.573 162.577L250.024 161.953L249.275 161.055C249.189 160.947 249.116 160.83 249.057 160.705Z" fill="#263238"/>
<path d="M267.696 173.023C267.639 173.339 267.558 173.65 267.452 173.953C267.271 174.577 267.022 175.401 266.729 176.449C265.201 182 264.313 187.707 264.083 193.459C264.039 194.564 264.014 195.456 264.002 196.074C264.014 196.395 263.997 196.717 263.952 197.035C263.895 196.72 263.87 196.4 263.877 196.08C263.877 195.456 263.833 194.564 263.877 193.453C263.977 187.669 264.871 181.927 266.535 176.387C266.86 175.326 267.159 174.477 267.359 173.891C267.445 173.592 267.557 173.302 267.696 173.023Z" fill="#263238"/>
<path d="M269.043 185.24C268.259 186.677 267.573 188.166 266.99 189.696C266.517 191.26 266.15 192.855 265.892 194.469C265.822 193.987 265.822 193.497 265.892 193.015C266.023 191.849 266.281 190.7 266.66 189.59C267.037 188.477 267.537 187.409 268.151 186.407C268.388 185.976 268.689 185.582 269.043 185.24Z" fill="#263238"/>
<path d="M90.8736 275.732L90.0187 295.994L79.0737 295.744L79.8974 275.445L90.8736 275.732Z" fill="#106FA4"/>
<path d="M84.646 295.108C84.5524 295.108 84.7209 290.665 85.0204 285.199C85.3199 279.733 85.6444 275.302 85.7318 275.309C85.8191 275.315 85.6569 279.751 85.3511 285.218C85.0454 290.684 84.7333 295.114 84.646 295.108Z" fill="#263238"/>
<path d="M90.0749 294.595L79.1361 294.314L79.0737 295.743L90.0187 295.993L90.0749 294.595Z" fill="#263238"/>
<path d="M79.3359 289.262C79.4123 289.102 79.5158 288.956 79.6417 288.831C79.9477 288.466 80.2883 288.132 80.6588 287.833C81.2121 287.383 81.8253 287.014 82.4809 286.734C83.6241 286.235 84.8976 286.116 86.1134 286.396C87.3291 286.676 88.4227 287.339 89.2326 288.288C89.5419 288.664 89.7923 289.085 89.9751 289.536C90.056 289.694 90.1068 289.865 90.1249 290.042C89.8175 289.483 89.4581 288.954 89.0516 288.463C88.0133 287.334 86.5712 286.661 85.0393 286.591C83.505 286.568 82.0094 287.073 80.8023 288.02C79.8726 288.725 79.3796 289.299 79.3359 289.262Z" fill="#263238"/>
<g opacity="0.3">
<path d="M79.6601 281.225L79.5728 283.459L90.5364 283.652L90.6113 281.973L79.6601 281.225Z" fill="black"/>
</g>
<path d="M116.626 276.943L116.096 289.279C116.096 289.279 128.451 293.959 128.576 296.249L104.633 296.075L104.676 276.824L116.626 276.943Z" fill="#106FA4"/>
<path d="M108.857 288.232C108.624 288.299 108.424 288.451 108.296 288.657C108.168 288.863 108.121 289.11 108.164 289.349C108.225 289.584 108.373 289.786 108.579 289.915C108.784 290.044 109.031 290.089 109.269 290.042C109.515 289.969 109.725 289.807 109.859 289.588C109.993 289.369 110.04 289.108 109.993 288.856C109.953 288.732 109.889 288.617 109.805 288.518C109.72 288.42 109.617 288.339 109.5 288.28C109.384 288.222 109.257 288.188 109.127 288.18C108.998 288.171 108.867 288.189 108.745 288.232" fill="#E0E0E0"/>
<path d="M104.626 296.068V294.146L127.802 295.02C127.802 295.02 128.869 295.494 128.744 296.268L104.626 296.068Z" fill="#263238"/>
<path d="M116.308 289.354C116.308 289.472 115.715 289.522 115.134 289.897C114.554 290.271 114.242 290.764 114.13 290.714C114.018 290.664 114.205 289.99 114.916 289.547C115.627 289.104 116.339 289.248 116.308 289.354Z" fill="#263238"/>
<path d="M118.835 290.422C118.835 290.534 118.348 290.734 117.943 291.227C117.537 291.72 117.418 292.25 117.319 292.244C117.219 292.238 117.131 291.57 117.649 290.996C118.167 290.422 118.829 290.309 118.835 290.422Z" fill="#263238"/>
<path d="M120.245 293.46C120.139 293.46 119.977 292.892 120.289 292.249C120.601 291.607 121.144 291.357 121.194 291.457C121.244 291.557 120.901 291.894 120.657 292.424C120.414 292.954 120.364 293.447 120.245 293.46Z" fill="#263238"/>
<path d="M116.12 286.514C116.071 286.62 115.496 286.452 114.872 286.514C114.248 286.577 113.681 286.758 113.624 286.658C113.568 286.558 114.061 286.14 114.872 286.102C115.684 286.065 116.177 286.414 116.12 286.514Z" fill="#263238"/>
<path d="M116.57 283.857C116.174 283.967 115.756 283.967 115.36 283.857C114.929 283.774 114.51 283.64 114.112 283.458C113.871 283.352 113.64 283.226 113.419 283.084C113.284 283.007 113.162 282.91 113.057 282.797C112.981 282.713 112.934 282.606 112.925 282.493C112.916 282.38 112.945 282.268 113.007 282.173C113.065 282.089 113.142 282.021 113.233 281.974C113.323 281.927 113.423 281.903 113.525 281.904C113.679 281.908 113.832 281.931 113.98 281.973C114.237 282.038 114.488 282.125 114.729 282.235C115.136 282.423 115.511 282.674 115.84 282.978C116.395 283.496 116.583 283.939 116.539 283.964C116.495 283.988 116.214 283.627 115.653 283.196C115.322 282.945 114.962 282.735 114.58 282.572C114.355 282.479 114.123 282.404 113.887 282.347C113.631 282.279 113.413 282.279 113.35 282.391C113.288 282.503 113.35 282.453 113.35 282.528C113.426 282.61 113.515 282.68 113.612 282.734C113.813 282.869 114.021 282.992 114.236 283.102C114.61 283.292 115.001 283.446 115.403 283.564C115.799 283.634 116.189 283.732 116.57 283.857Z" fill="#263238"/>
<path d="M116.414 284.025C116.184 283.682 116.074 283.271 116.102 282.859C116.083 282.411 116.143 281.963 116.277 281.536C116.357 281.283 116.461 281.038 116.589 280.806C116.653 280.643 116.759 280.499 116.896 280.39C117.032 280.28 117.195 280.209 117.369 280.182C117.476 280.186 117.579 280.22 117.668 280.281C117.756 280.342 117.825 280.426 117.868 280.525C117.931 280.665 117.971 280.815 117.986 280.968C118.041 281.328 118.022 281.696 117.931 282.049C117.84 282.401 117.678 282.732 117.456 283.021C116.982 283.645 116.489 283.782 116.483 283.745C116.476 283.707 116.851 283.458 117.219 282.859C117.431 282.516 117.566 282.13 117.612 281.729C117.643 281.497 117.643 281.262 117.612 281.03C117.575 280.774 117.481 280.569 117.381 280.593C117.281 280.618 117.057 280.781 116.957 280.987C116.837 281.184 116.737 281.393 116.657 281.611C116.519 281.998 116.437 282.404 116.414 282.815C116.358 283.57 116.476 284.007 116.414 284.025Z" fill="#263238"/>
<g opacity="0.3">
<path d="M104.62 284.219L104.645 286.958H116.195V284.475L104.62 284.219Z" fill="black"/>
</g>
<path d="M97.9806 198.45L94.4426 232.558L91.9029 283.92H78.3496L77.9814 174.607L116.788 177.372L124.831 234.724L117.868 284.924H102.998L106.473 237.195L97.9806 198.45Z" fill="#263238"/>
<path d="M97.9683 198.432C98.7665 199.378 99.6501 200.249 100.608 201.034C101.488 201.902 102.445 202.689 103.466 203.386C102.671 202.439 101.789 201.568 100.832 200.784C99.9508 199.915 98.9922 199.128 97.9683 198.432Z" fill="#455A64"/>
<path d="M98.0246 197.769C98.0796 196.313 98.0547 194.855 97.9497 193.401C97.9458 191.942 97.8624 190.484 97.7001 189.033C97.5297 190.483 97.5004 191.946 97.6128 193.401C97.6093 194.867 97.7472 196.33 98.0246 197.769Z" fill="#455A64"/>
<path d="M93.5379 185.041C93.4653 185.033 93.3921 185.033 93.3195 185.041L92.6518 185.004L90.0809 184.879L80.8956 184.492H80.7334V184.648C80.7334 187.519 80.7334 190.763 80.7334 194.189V194.489L80.8395 194.532L86.8174 196.922H86.8736H86.9297L92.215 195.088L92.2961 195.057V194.969C92.683 191.993 93.0075 189.515 93.2384 187.737C93.3382 186.907 93.4193 186.239 93.4817 185.746C93.5157 185.521 93.5365 185.294 93.5441 185.066C93.5253 185.129 93.5128 185.194 93.5067 185.26C93.5067 185.409 93.4505 185.584 93.4131 185.796C93.332 186.296 93.2259 186.969 93.0948 187.812C92.8328 189.559 92.4708 192.005 92.0216 194.932L92.1152 194.819L86.8174 196.617H86.9297L80.958 194.208L81.0641 194.364V194.177C81.0641 190.751 81.0641 187.506 81.0641 184.636L80.9081 184.792L89.9936 185.016L92.6081 185.06H93.5628L93.5379 185.041Z" fill="#455A64"/>
<path d="M113.106 185.202H112.907H112.283L109.955 185.133L101.575 184.934H101.419V185.09C101.513 187.923 101.612 191.18 101.725 194.656V194.687L101.793 194.737L102.767 195.361L107.678 198.562L107.765 198.618L107.852 198.568L113.387 195.192L113.456 195.148V195.067C113.35 192.097 113.262 189.62 113.2 187.841C113.169 187.018 113.138 186.35 113.119 185.857C113.1 185.364 113.075 185.171 113.069 185.177C113.061 185.243 113.061 185.31 113.069 185.377V185.951C113.069 186.456 113.069 187.13 113.069 187.972C113.069 189.726 113.131 192.178 113.175 195.111L113.244 194.992L107.684 198.325H107.859L102.96 195.099L101.993 194.475L102.068 194.612C101.943 191.136 101.825 187.873 101.718 185.04L101.569 185.196L109.862 185.239H112.851L113.106 185.202Z" fill="#455A64"/>
<path d="M82.1685 200.653C82.7823 200.699 83.3994 200.681 84.0093 200.597C85.1387 200.516 86.6987 200.36 88.4147 200.135C90.1307 199.91 91.6782 199.667 92.7827 199.461C93.392 199.381 93.9919 199.241 94.5736 199.043C93.9601 199.051 93.3484 199.111 92.7453 199.224L88.3773 199.804L84.0093 200.36C83.3885 200.405 82.7727 200.504 82.1685 200.653Z" fill="#455A64"/>
<path d="M82.4868 238.673C82.4868 238.673 82.543 238.866 82.8051 239.103C83.1986 239.415 83.6883 239.58 84.1903 239.571C84.935 239.553 85.6509 239.28 86.2183 238.797C86.898 238.232 87.5246 237.605 88.0903 236.925C89.1209 235.725 90.0379 234.432 90.8297 233.063C91.1864 232.511 91.4755 231.918 91.6908 231.297C91.3087 231.825 90.9546 232.373 90.63 232.938C89.7832 234.247 88.8493 235.498 87.8345 236.682C87.2906 237.343 86.6937 237.959 86.0499 238.523C85.5401 238.976 84.8957 239.25 84.2153 239.303C83.7557 239.333 83.2984 239.215 82.9111 238.966C82.6179 238.816 82.5118 238.654 82.4868 238.673Z" fill="#455A64"/>
<path d="M109.257 239.871C109.257 239.871 109.257 240.045 109.438 240.307C109.677 240.671 109.997 240.975 110.374 241.194C110.94 241.527 111.588 241.698 112.246 241.686C113.043 241.653 113.816 241.407 114.486 240.975C115.656 240.165 116.587 239.055 117.182 237.762C117.471 237.259 117.695 236.723 117.849 236.164C117.521 236.638 117.227 237.134 116.969 237.649C116.338 238.861 115.424 239.904 114.305 240.688C113.688 241.092 112.976 241.329 112.24 241.374C111.638 241.397 111.04 241.264 110.505 240.988C110.011 240.713 109.584 240.331 109.257 239.871Z" fill="#455A64"/>
<path d="M108.389 234.723C108.718 235 109.097 235.212 109.506 235.347C110.468 235.751 111.496 235.98 112.539 236.021C113.595 236.07 114.652 235.928 115.659 235.602C116.077 235.491 116.47 235.303 116.819 235.047C115.449 235.467 114.022 235.678 112.589 235.671C111.148 235.573 109.732 235.253 108.389 234.723Z" fill="#455A64"/>
<path d="M97.4817 115.546L82.8613 115.365L84.4962 103.346C84.4962 103.346 83.4978 103.14 83.4292 97.9113C83.3605 92.6822 83.1109 83.7964 83.1109 83.7964C86.1952 82.5171 89.5581 82.0579 92.8725 82.4636C96.1868 82.8693 99.3397 84.126 102.024 86.1114L102.829 86.7354L97.4817 115.546Z" fill="#FFBE9D"/>
<path d="M101.132 93.1196C101.226 93.0822 104.876 92.0588 104.733 95.6156C104.589 99.1724 100.92 98.3363 100.92 98.2302C100.92 98.1241 101.132 93.1196 101.132 93.1196Z" fill="#FFBE9D"/>
<path d="M83.7412 92.3521C83.6476 92.3147 80.3529 91.4598 80.4652 95.0291C80.5775 98.5984 84.2779 97.756 84.2841 97.6499C84.2903 97.5438 83.7412 92.3521 83.7412 92.3521Z" fill="#FFBE9D"/>
<path d="M102.336 92.7193C101.787 95.7145 101.893 97.2869 101.382 99.29C100.57 102.454 98.9418 104.906 95.9903 106.466C93.0388 108.026 89.0389 108.02 86.5055 105.842C84.7396 104.344 83.4916 102.66 83.2295 100.407C82.9674 98.1543 82.7116 94.1669 82.6929 91.9143C82.6929 87.8333 82.3809 83.9333 82.3809 83.9333L94.4553 81.8242L101.319 85.7679L102.336 92.7193Z" fill="#263238"/>
<path d="M89.8564 108.269C90.5327 108.517 91.2632 108.58 91.9718 108.45C92.69 108.43 93.3891 108.214 93.9936 107.826C93.9936 107.738 93.07 108.007 91.9344 108.125C90.7987 108.244 89.8876 108.175 89.8564 108.269Z" fill="#263238"/>
<path d="M101.75 97.8114C102.099 94.7413 102.33 91.2344 102.829 87.9959C103.017 86.7479 103.453 85.0319 103.354 83.8088C103.317 82.571 103.046 81.3514 102.555 80.2146C102.188 79.5118 101.668 78.9006 101.033 78.4264C100.398 77.9522 99.6638 77.6271 98.8858 77.4752C98.1 77.3296 97.2919 77.3575 96.518 77.5569C95.7441 77.7563 95.0231 78.1224 94.4055 78.6296C93.9402 77.9952 93.3019 77.5083 92.5671 77.2272C91.8323 76.9461 91.032 76.8827 90.2621 77.0447C89.5032 77.2189 88.813 77.6142 88.2788 78.1807C87.7445 78.7471 87.3902 79.4593 87.2607 80.2271C86.8125 79.8397 86.2564 79.5991 85.6672 79.5377C85.0781 79.4764 84.4843 79.5972 83.9659 79.8839C83.47 80.1825 83.0848 80.6345 82.8687 81.1716C82.6525 81.7086 82.6171 82.3014 82.7679 82.8603C82.3391 82.931 81.9338 83.104 81.5862 83.3648C81.2386 83.6255 80.959 83.9662 80.7711 84.3579C80.5972 84.7488 80.5244 85.177 80.5593 85.6034C80.5942 86.0297 80.7357 86.4404 80.9707 86.7978C81.5323 87.6277 82.5432 88.0832 83.1547 88.8757C83.5039 89.3336 83.7082 89.8853 83.7416 90.4601C83.7749 91.0349 83.6358 91.6066 83.3419 92.1018" fill="#263238"/>
<path d="M84.9766 86.736C84.9958 86.8554 85.0429 86.9687 85.1138 87.0667C85.2862 87.3717 85.5251 87.6341 85.8127 87.8342C86.2708 88.1609 86.8228 88.3296 87.3852 88.3147C87.7498 88.3032 88.1085 88.2196 88.4405 88.0685C88.7726 87.9175 89.0714 87.7021 89.3196 87.4348L89.0638 87.3662C89.1565 87.7784 89.354 88.1598 89.6371 88.4735C89.9202 88.7872 90.2794 89.0226 90.6799 89.1571C91.1267 89.324 91.6071 89.381 92.0806 89.3235C92.5541 89.2659 93.0068 89.0954 93.4006 88.8264C94.106 88.3596 94.6438 87.6797 94.9356 86.8857L94.6423 86.9232C94.9524 87.3614 95.3615 87.7204 95.8364 87.9709C96.3113 88.2213 96.8386 88.3562 97.3754 88.3646C97.8001 88.3741 98.2224 88.299 98.6177 88.1436C99.013 87.9883 99.3734 87.7558 99.678 87.4598C100.071 87.0863 100.358 86.6145 100.508 86.0932C100.574 85.9117 100.6 85.7179 100.583 85.5254C100.583 85.5254 100.527 85.7251 100.402 86.062C100.214 86.5401 99.9171 86.9675 99.5345 87.31C98.9466 87.8375 98.1773 88.1171 97.3879 88.09C96.8961 88.0732 96.4148 87.9428 95.9818 87.709C95.5488 87.4751 95.1757 87.1442 94.8919 86.7422L94.7172 86.4739L94.5987 86.7734C94.3239 87.4978 93.8312 88.1192 93.1884 88.5518C92.8395 88.7919 92.4383 88.9449 92.0181 88.9981C91.598 89.0513 91.1712 89.0031 90.7735 88.8575C90.4217 88.7437 90.1045 88.5427 89.8514 88.2732C89.5982 88.0037 89.4174 87.6745 89.3258 87.3163L89.2759 87.0168L89.07 87.2476C88.6766 87.6844 88.1417 87.9683 87.5596 88.0493C86.9774 88.1304 86.3853 88.0034 85.8876 87.6907C85.5245 87.435 85.215 87.1106 84.9766 86.736Z" fill="#455A64"/>
<path d="M85.0019 85.3074C85.0714 84.8395 85.2463 84.3935 85.5135 84.0032C85.8211 83.5919 86.2624 83.3007 86.7615 83.1795C87.0752 83.1082 87.4001 83.1013 87.7165 83.1593C88.0329 83.2172 88.3343 83.3387 88.6023 83.5165L88.8956 83.7224L88.8644 83.373C88.8356 83.0249 88.8781 82.6745 88.9892 82.3434C89.1104 81.9792 89.3046 81.6437 89.56 81.3572C89.8153 81.0707 90.1265 80.8393 90.4743 80.6773C91.0641 80.4212 91.7213 80.3642 92.3463 80.515C92.9256 80.6796 93.4608 80.9717 93.9126 81.3699C93.9126 81.3699 93.8439 81.2014 93.6131 80.9706C93.2698 80.6549 92.8573 80.424 92.4087 80.2966C91.654 80.0648 90.8385 80.1391 90.138 80.5033C89.4375 80.8675 88.9084 81.4926 88.6647 82.2435C88.5414 82.6172 88.4968 83.0124 88.5337 83.4042L88.7958 83.2544C88.4879 83.0526 88.1413 82.9173 87.7781 82.8572C87.4149 82.797 87.0432 82.8133 86.6867 82.905C86.1234 83.0501 85.6342 83.3992 85.3139 83.8846C85.1048 84.1911 84.9761 84.5451 84.9395 84.9142C84.9457 85.1701 84.9831 85.3074 85.0019 85.3074Z" fill="#455A64"/>
<path d="M92.7017 85.4065C92.7454 85.4065 92.7017 85.2068 92.7017 84.9198C92.7382 84.54 92.8691 84.1754 93.0823 83.859C93.3257 83.4908 93.6127 83.1164 93.7812 82.9105C93.9497 82.7046 94.1369 82.8606 94.1681 82.8419C94.1993 82.8232 94.1681 82.7608 94.087 82.6984C94.016 82.6596 93.9354 82.6419 93.8547 82.6475C93.774 82.653 93.6965 82.6815 93.6315 82.7296C93.477 82.8506 93.3368 82.9888 93.2134 83.1414C93.0585 83.3137 92.9167 83.4972 92.7891 83.6905C92.5427 84.0578 92.4283 84.4978 92.4646 84.9385C92.5145 85.263 92.6643 85.4252 92.7017 85.4065Z" fill="#455A64"/>
<path d="M99.8403 80.9139C99.8777 80.9139 99.8403 80.6331 99.6156 80.2899C99.4774 80.0615 99.2871 79.8691 99.0603 79.7283C98.768 79.5469 98.4212 79.474 98.0806 79.5224C97.4975 79.6224 96.9738 79.9388 96.6142 80.4085C96.3459 80.7392 96.2211 80.9638 96.2523 80.9888C96.2835 81.0138 96.4894 80.839 96.7889 80.5645C97.1517 80.1951 97.6168 79.943 98.1243 79.8406C98.3715 79.8162 98.6208 79.8569 98.8474 79.9587C99.074 80.0605 99.27 80.2199 99.4159 80.421C99.6967 80.7018 99.8403 80.9326 99.8403 80.9139Z" fill="#455A64"/>
<path d="M97.9687 96.0958C99.0782 94.7273 99.6879 93.0214 99.6972 91.2598C99.5973 91.2598 99.4039 92.383 98.9296 93.7121C98.4554 95.0412 97.9 96.0209 97.9687 96.0958Z" fill="#455A64"/>
<path d="M96.3647 96.9312C96.7768 96.4595 97.0813 95.9038 97.2571 95.3026C97.5347 94.7455 97.686 94.134 97.7001 93.5117C97.3729 94.0341 97.1189 94.5989 96.9451 95.1903C96.6676 95.7391 96.4721 96.3257 96.3647 96.9312Z" fill="#455A64"/>
<path d="M86.1869 97.1758C86.0158 98.2343 86.1613 99.3197 86.605 100.296C86.9597 101.333 87.6105 102.244 88.477 102.917C87.8958 102.049 87.3866 101.134 86.9544 100.183C86.6178 99.2033 86.3611 98.1974 86.1869 97.1758Z" fill="#455A64"/>
<path d="M84.5648 94.5664C84.1772 95.457 84.0939 96.4504 84.3277 97.3931C84.4537 98.3628 84.8917 99.2652 85.5757 99.964C85.195 99.1163 84.8881 98.2374 84.6584 97.337C84.5439 96.4182 84.5125 95.4909 84.5648 94.5664Z" fill="#455A64"/>
<path d="M65.0149 144.6V159.576C65.0149 159.576 76.2469 184.399 76.2469 184.018C76.2469 183.637 80.2592 168.349 80.2592 168.349L75.7415 156.425L75.3172 148.637L66.0445 130.092C66.0445 130.092 63.742 142.572 64.1164 143.321C64.3468 143.792 64.6501 144.223 65.0149 144.6Z" fill="#106FA4"/>
<path d="M79.0051 114.858C79.0051 114.858 68.7964 120.156 67.536 121.791C66.2755 123.426 66.0259 130.109 66.0259 130.109L79.0051 156.067L79.6291 166.526C79.6291 166.526 75.7228 174.669 75.7228 180.36V180.984L75.0988 188.796L90.6988 190.181C90.6988 190.181 91.5849 185.895 91.5849 186.275C91.5849 186.656 92.7206 190.181 92.7206 190.181H118.56L117.606 172.978L113.207 146.42C113.207 146.42 115.079 131.188 115.172 130.633C115.334 129.647 131.696 122.39 131.696 122.39L139.402 118.228C140.385 117.693 141.207 116.903 141.78 115.941C142.353 114.979 142.657 113.881 142.659 112.762C142.656 111.605 142.331 110.471 141.72 109.488C141.11 108.506 140.238 107.712 139.202 107.196L117.456 96.4316L112.395 104.943L119.022 109.199L123.771 112.487L110.598 113.735C110.598 113.735 108.258 110.678 107.254 110.678C106.249 110.678 98.1806 112.55 98.1806 112.55L98.3054 110.534C98.3054 110.534 96.1651 108.138 93.7689 108.263C91.3728 108.387 81.2889 111.289 81.2889 111.289L79.0051 114.858Z" fill="#106FA4"/>
<path d="M115.64 99.4832L109.968 96.1823L101.338 91.5023C101.338 91.5023 98.4924 89.3432 97.3692 89.4056C96.8921 89.4925 96.4387 89.6791 96.0386 89.9533C95.6386 90.2275 95.301 90.5831 95.0479 90.9968C94.998 91.2527 95.466 91.7269 96.1898 91.5272C96.427 91.4648 97.0884 90.9843 97.4378 91.0592C98.107 91.2176 98.686 91.635 99.0478 92.2199C99.0925 92.2775 99.12 92.3466 99.1271 92.4191C99.1343 92.4917 99.1208 92.5648 99.0881 92.6301C99.0555 92.6953 99.0051 92.75 98.9428 92.7878C98.8805 92.8256 98.8087 92.8451 98.7358 92.8439C98.7358 92.8439 93.8498 91.5959 92.0278 92.5943C91.8129 92.6987 91.6439 92.8785 91.553 93.0994C91.4621 93.3203 91.4556 93.5669 91.5348 93.7923C91.6658 94.1106 92.0153 94.4163 92.8702 94.2291C94.5862 93.8984 97.4191 95.2151 97.4191 95.2151C97.4191 95.2151 91.0793 95.0091 89.9935 95.552C89.563 95.7642 89.095 97.1495 90.3866 97.293C91.9092 97.4552 94.9106 97.3928 94.9106 97.3928C94.9106 97.3928 97.7436 97.7859 97.2881 98.3163C96.8326 98.8467 92.4833 98.8904 92.1526 98.9403C91.8218 98.9903 90.3492 98.9403 90.4303 100.138C90.474 100.819 91.747 101.249 93.3943 101.193C94.7921 101.149 99.1289 101.062 99.6343 101.854C100.14 102.647 99.7966 103.221 99.3972 103.421C98.1286 103.733 96.8369 103.941 95.5346 104.045C94.9606 104.045 94.2055 105.105 95.6033 105.442C97.1259 105.817 98.4113 105.511 99.7279 105.511C101.045 105.511 102.729 105.617 106.423 104.169C106.423 104.169 108.919 103.04 112.314 104.987L115.64 99.4832Z" fill="#FFBE9D"/>
<path d="M97.5441 112.675C97.5441 112.768 93.5692 113.299 88.6396 113.923C83.71 114.547 79.6977 114.933 79.6914 114.84C79.6852 114.746 83.6663 114.216 88.6021 113.592C93.538 112.968 97.5378 112.587 97.5441 112.675Z" fill="#263238"/>
<path d="M96.6582 167.856C96.7223 167.733 96.7953 167.614 96.8766 167.501L97.563 166.508C98.187 165.654 99.0169 164.399 100.059 162.827C101.101 161.254 102.255 159.37 103.497 157.211C104.739 155.052 105.993 152.674 107.285 150.11C108.577 147.545 109.631 145.055 110.573 142.765C111.516 140.475 112.277 138.397 112.882 136.613C113.487 134.828 113.962 133.405 114.267 132.401C114.417 131.933 114.536 131.552 114.629 131.252C114.669 131.118 114.719 130.986 114.779 130.859C114.766 130.999 114.739 131.137 114.698 131.271C114.617 131.571 114.517 131.958 114.386 132.438C114.118 133.455 113.687 134.934 113.101 136.688C112.514 138.441 111.765 140.575 110.848 142.878C109.931 145.18 108.832 147.682 107.578 150.253C106.324 152.824 105.007 155.245 103.759 157.361C102.511 159.476 101.307 161.385 100.252 162.939C99.1979 164.493 98.318 165.729 97.6816 166.558L96.9515 167.519C96.8675 167.643 96.7691 167.756 96.6582 167.856Z" fill="#263238"/>
<path d="M75.5047 184.043C75.4963 183.926 75.4963 183.81 75.5047 183.693C75.5047 183.444 75.5608 183.107 75.5983 182.695C75.6919 181.828 75.8728 180.561 76.1536 178.982C76.9506 174.734 78.0665 170.552 79.492 166.471V166.533C79.3548 164.362 79.2112 162.022 79.0677 159.594C78.9928 158.39 78.9242 157.205 78.8556 156.075V156.138C76.0788 150.727 73.7824 145.879 72.2162 142.36C71.43 140.606 70.8309 139.177 70.4316 138.191C70.2506 137.717 70.1008 137.336 69.9885 137.049C69.9428 136.922 69.9094 136.79 69.8887 136.656C69.9631 136.777 70.0258 136.904 70.0759 137.037L70.5688 138.154C71.0056 139.121 71.6296 140.538 72.4408 142.278C74.057 145.767 76.3908 150.603 79.1676 156.006V156.038C79.2362 157.167 79.3111 158.353 79.3797 159.557C79.5295 161.984 79.6668 164.324 79.7916 166.496V166.527C78.3591 170.588 77.2102 174.743 76.3533 178.963C76.0413 180.536 75.8354 181.796 75.7293 182.658L75.5796 183.65C75.5777 183.784 75.5523 183.917 75.5047 184.043Z" fill="#263238"/>
<path d="M92.4526 178.949C92.3266 180.872 92.0953 182.786 91.7599 184.684C91.53 186.594 91.1925 188.49 90.749 190.362C90.8715 188.441 91.1027 186.529 91.4417 184.634C91.672 182.722 92.0095 180.824 92.4526 178.949Z" fill="#263238"/>
<path d="M110.942 125.979C110.811 125.845 110.7 125.694 110.611 125.53C110.417 125.23 110.155 124.781 109.856 124.213C109.085 122.724 108.472 121.157 108.027 119.54C107.579 117.923 107.299 116.265 107.191 114.591C107.154 113.967 107.148 113.431 107.16 113.075C107.152 112.888 107.168 112.702 107.21 112.52C107.266 112.52 107.285 113.306 107.422 114.572C107.759 117.877 108.651 121.1 110.062 124.107C110.387 124.716 110.681 125.34 110.942 125.979Z" fill="#263238"/>
<g opacity="0.3">
<path d="M97.3447 166.663C97.9869 166.934 98.6833 167.051 99.3788 167.006C100.074 166.96 100.749 166.753 101.351 166.401C102.545 165.682 103.591 164.742 104.433 163.63C110.983 155.675 114.251 145.52 113.569 135.238C109.883 146.207 104.59 156.568 97.8626 165.983" fill="black"/>
</g>
<g opacity="0.3">
<path d="M70.4 137.953C69.8548 137.301 69.1556 136.795 68.3657 136.48C67.9985 136.336 67.5897 136.34 67.2254 136.491C66.861 136.643 66.5697 136.93 66.4126 137.292C66.3449 137.714 66.4013 138.148 66.5749 138.539C67.7792 142.09 69.0209 145.722 71.3797 148.636C71.8046 149.107 72.3042 149.506 72.8585 149.815C73.4201 150.171 74.9489 150.483 75.1611 149.878C75.2706 149.363 75.2706 148.832 75.1611 148.318C75.1611 148.318 71.7977 141.454 70.1691 137.928" fill="black"/>
</g>
<g opacity="0.3">
<path d="M123.634 112.481C125.135 112.835 126.701 112.807 128.189 112.4C125.849 110.628 122.797 110.241 119.89 109.848L123.634 112.481Z" fill="black"/>
</g>
<path d="M133.268 112.743C132.784 112.791 132.297 112.791 131.814 112.743L128.332 112.643L124.85 112.587C124.366 112.608 123.881 112.581 123.402 112.506C123.875 112.397 124.359 112.347 124.844 112.356C125.736 112.312 126.972 112.287 128.338 112.319C129.705 112.35 130.94 112.431 131.833 112.512C132.318 112.533 132.8 112.61 133.268 112.743Z" fill="#263238"/>
<path d="M68.6406 154.752C68.6406 154.715 68.9713 154.939 69.4456 155.301C70.0368 155.786 70.6867 156.195 71.38 156.518C72.0728 156.818 72.8361 156.918 73.5827 156.805C74.1505 156.699 74.4625 156.487 74.4937 156.537C74.5249 156.587 74.2379 156.855 73.6326 157.03C72.8385 157.224 72.0025 157.149 71.2552 156.818C70.5309 156.484 69.8684 156.031 69.2958 155.476C68.8715 155.033 68.6406 154.752 68.6406 154.752Z" fill="#263238"/>
<path opacity="0.3" d="M92.4519 180.129L95.522 190.213H92.7389L91.4473 185.676L92.4519 180.129Z" fill="black"/>
</svg>
