<svg width="24" height="24" viewBox="0 0 24 24" fill="none" xmlns="http://www.w3.org/2000/svg">
<g id="Bold / floppy-disk">
<path id="Icons / Bold / floppy-disk" fill-rule="evenodd" clip-rule="evenodd" d="M7.94025 3.9961H18.671C19.4078 3.9961 20.0051 4.59342 20.0051 5.33026V18.6719C20.0051 19.4088 19.4078 20.0061 18.671 20.0061H5.32928C4.59244 20.0061 3.99512 19.4088 3.99512 18.6719V7.9419C3.99567 7.58798 4.1362 7.24865 4.38603 6.99797L6.99699 4.38767C7.24644 4.13633 7.58613 3.99531 7.94025 3.9961ZM16.6697 5.66381C16.6697 5.4796 16.5204 5.33026 16.3362 5.33026H8.33116C8.14695 5.33026 7.99762 5.4796 7.99762 5.66381V8.33214C7.99762 8.88477 8.44561 9.33276 8.99824 9.33276H15.6691C16.2217 9.33276 16.6697 8.88477 16.6697 8.33214V5.66381ZM7.33053 18.6719C7.14632 18.6719 6.99699 18.5226 6.99699 18.3384V13.0017C6.99699 12.4491 7.44499 12.0011 7.99762 12.0011H16.6697C17.2223 12.0011 17.6703 12.4491 17.6703 13.0017V18.3384C17.6703 18.5226 17.521 18.6719 17.3368 18.6719H7.33053ZM14.0014 7.83249V6.83187C14.0014 6.55555 14.2254 6.33156 14.5017 6.33156C14.778 6.33156 15.002 6.55555 15.002 6.83187V7.83249C15.002 8.10881 14.778 8.33281 14.5017 8.33281C14.2254 8.33281 14.0014 8.10881 14.0014 7.83249ZM8.6647 14.8369H13.0007C13.2771 14.8369 13.5011 14.6129 13.5011 14.3366C13.5011 14.0602 13.2771 13.8362 13.0007 13.8362H8.6647C8.38839 13.8362 8.16439 14.0602 8.16439 14.3366C8.16439 14.6129 8.38839 14.8369 8.6647 14.8369ZM16.0026 17.5052H8.6647C8.38839 17.5052 8.16439 17.2812 8.16439 17.0049C8.16439 16.7286 8.38839 16.5046 8.6647 16.5046H16.0026C16.2789 16.5046 16.5029 16.7286 16.5029 17.0049C16.5029 17.2812 16.2789 17.5052 16.0026 17.5052Z" fill="#E9F6FD"/>
<mask id="mask0_17226_19347" style="mask-type:alpha" maskUnits="userSpaceOnUse" x="3" y="3" width="18" height="18">
<path id="Icons / Bold / floppy-disk_2" fill-rule="evenodd" clip-rule="evenodd" d="M7.94025 3.9961H18.671C19.4078 3.9961 20.0051 4.59342 20.0051 5.33026V18.6719C20.0051 19.4088 19.4078 20.0061 18.671 20.0061H5.32928C4.59244 20.0061 3.99512 19.4088 3.99512 18.6719V7.9419C3.99567 7.58798 4.1362 7.24865 4.38603 6.99797L6.99699 4.38767C7.24644 4.13633 7.58613 3.99531 7.94025 3.9961ZM16.6697 5.66381C16.6697 5.4796 16.5204 5.33026 16.3362 5.33026H8.33116C8.14695 5.33026 7.99762 5.4796 7.99762 5.66381V8.33214C7.99762 8.88477 8.44561 9.33276 8.99824 9.33276H15.6691C16.2217 9.33276 16.6697 8.88477 16.6697 8.33214V5.66381ZM7.33053 18.6719C7.14632 18.6719 6.99699 18.5226 6.99699 18.3384V13.0017C6.99699 12.4491 7.44499 12.0011 7.99762 12.0011H16.6697C17.2223 12.0011 17.6703 12.4491 17.6703 13.0017V18.3384C17.6703 18.5226 17.521 18.6719 17.3368 18.6719H7.33053ZM14.0014 7.83249V6.83187C14.0014 6.55555 14.2254 6.33156 14.5017 6.33156C14.778 6.33156 15.002 6.55555 15.002 6.83187V7.83249C15.002 8.10881 14.778 8.33281 14.5017 8.33281C14.2254 8.33281 14.0014 8.10881 14.0014 7.83249ZM8.6647 14.8369H13.0007C13.2771 14.8369 13.5011 14.6129 13.5011 14.3366C13.5011 14.0602 13.2771 13.8362 13.0007 13.8362H8.6647C8.38839 13.8362 8.16439 14.0602 8.16439 14.3366C8.16439 14.6129 8.38839 14.8369 8.6647 14.8369ZM16.0026 17.5052H8.6647C8.38839 17.5052 8.16439 17.2812 8.16439 17.0049C8.16439 16.7286 8.38839 16.5046 8.6647 16.5046H16.0026C16.2789 16.5046 16.5029 16.7286 16.5029 17.0049C16.5029 17.2812 16.2789 17.5052 16.0026 17.5052Z" fill="white"/>
</mask>
<g mask="url(#mask0_17226_19347)">
</g>
</g>
</svg>
