<svg width="18" height="18" viewBox="0 0 18 18" fill="none" xmlns="http://www.w3.org/2000/svg">
<path fill-rule="evenodd" clip-rule="evenodd" d="M16.0889 10.915L11.0011 16.0049L8.49951 16.5052L8.99982 14.0036L14.0903 8.91377C14.3548 8.64886 14.7137 8.5 15.088 8.5C15.4622 8.5 15.8212 8.64886 16.0856 8.91377L16.0916 8.91911C16.6419 9.47105 16.6407 10.3645 16.0889 10.915Z" stroke="white" stroke-width="1.5"/>
<path d="M6.4958 14.5042H2.4933C1.94067 14.5042 1.49268 14.0562 1.49268 13.5036V2.49672C1.49268 1.94409 1.94067 1.49609 2.4933 1.49609H12.4996C13.0522 1.49609 13.5002 1.94409 13.5002 2.49672V6.99953" stroke="white" stroke-width="1.5"/>
<path d="M6.49561 4.49609H10.4981" stroke="white" stroke-width="1.5"/>
<path d="M4.49463 7.5H10.4984" stroke="white" stroke-width="1.5"/>
<path d="M4.49463 10.5H9.49775" stroke="white" stroke-width="1.5"/>
</svg>
