<svg width="40" height="41" viewBox="0 0 40 41" fill="none" xmlns="http://www.w3.org/2000/svg">
<path fill-rule="evenodd" clip-rule="evenodd" d="M14.4418 11.3383C14.4418 8.57556 16.6814 6.33594 19.4441 6.33594C22.2068 6.33594 24.4465 8.57556 24.4465 11.3383C24.4465 14.101 22.2068 16.3406 19.4441 16.3406C16.6814 16.3406 14.4418 14.101 14.4418 11.3383ZM19.4441 8.83594C18.0621 8.83594 16.9418 9.95627 16.9418 11.3383C16.9418 12.7203 18.0621 13.8406 19.4441 13.8406C20.8261 13.8406 21.9465 12.7203 21.9465 11.3383C21.9465 9.95627 20.8261 8.83594 19.4441 8.83594Z" fill="#2C97EB"/>
<path fill-rule="evenodd" clip-rule="evenodd" d="M14.0974 17.4993C17.1297 14.745 21.7583 14.745 24.7906 17.4993L23.1097 19.3499C21.0307 17.4615 17.8573 17.4615 15.7783 19.3499L14.0974 17.4993Z" fill="#2C97EB"/>
<path fill-rule="evenodd" clip-rule="evenodd" d="M16.8805 8.85547C18.0324 9.91793 19.5428 10.5068 21.1099 10.5045L21.1127 10.5045C21.7005 10.5049 22.2854 10.4226 22.8503 10.2598L23.5425 12.6621C22.7525 12.8897 21.9343 13.005 21.1122 13.0045C18.9162 13.0074 16.7998 12.182 15.1855 10.6932L16.8805 8.85547ZM21.1122 13.0045C21.1117 13.0045 21.1112 13.0045 21.1107 13.0045L21.1117 11.7545L21.1136 13.0045C21.1131 13.0045 21.1126 13.0045 21.1122 13.0045Z" fill="#2C97EB"/>
<path fill-rule="evenodd" clip-rule="evenodd" d="M22.2244 24.6781C22.2244 21.9154 24.464 19.6758 27.2267 19.6758C29.9894 19.6758 32.2291 21.9154 32.2291 24.6781C32.2291 27.4408 29.9894 29.6805 27.2267 29.6805C24.464 29.6805 22.2244 27.4408 22.2244 24.6781ZM27.2267 22.1758C25.8447 22.1758 24.7244 23.2961 24.7244 24.6781C24.7244 26.0601 25.8447 27.1805 27.2267 27.1805C28.6087 27.1805 29.7291 26.0601 29.7291 24.6781C29.7291 23.2961 28.6087 22.1758 27.2267 22.1758Z" fill="#2C97EB"/>
<path fill-rule="evenodd" clip-rule="evenodd" d="M20.9603 31.8313C22.4668 29.9015 24.7785 28.7734 27.2267 28.7734C29.6749 28.7734 31.9866 29.9015 33.4931 31.8313L31.5225 33.3697C30.4897 32.0467 28.905 31.2734 27.2267 31.2734C25.5484 31.2734 23.9637 32.0467 22.931 33.3697L20.9603 31.8313Z" fill="#2C97EB"/>
<path fill-rule="evenodd" clip-rule="evenodd" d="M24.6612 22.1953C26.2705 23.6732 28.5335 24.206 30.6332 23.6014L31.325 26.0038C28.3876 26.8496 25.2217 26.1042 22.9702 24.0367L24.6612 22.1953Z" fill="#2C97EB"/>
<path fill-rule="evenodd" clip-rule="evenodd" d="M7.77087 24.6781C7.77087 21.9154 10.0105 19.6758 12.7732 19.6758C15.5359 19.6758 17.7756 21.9154 17.7756 24.6781C17.7756 27.4408 15.5359 29.6805 12.7732 29.6805C10.0105 29.6805 7.77087 27.4408 7.77087 24.6781ZM12.7732 22.1758C11.3912 22.1758 10.2709 23.2961 10.2709 24.6781C10.2709 26.0601 11.3912 27.1805 12.7732 27.1805C14.1552 27.1805 15.2756 26.0601 15.2756 24.6781C15.2756 23.2961 14.1552 22.1758 12.7732 22.1758Z" fill="#2C97EB"/>
<path fill-rule="evenodd" clip-rule="evenodd" d="M6.50574 31.8313C8.01225 29.9015 10.3239 28.7734 12.7721 28.7734C15.2203 28.7734 17.532 29.9015 19.0385 31.8313L17.0679 33.3697C16.0351 32.0467 14.4504 31.2734 12.7721 31.2734C11.0938 31.2734 9.50912 32.0467 8.47636 33.3697L6.50574 31.8313Z" fill="#2C97EB"/>
<path fill-rule="evenodd" clip-rule="evenodd" d="M10.2077 22.1953C11.817 23.6732 14.08 24.206 16.1797 23.6014L16.8715 26.0038C13.9341 26.8496 10.7682 26.1042 8.51672 24.0367L10.2077 22.1953Z" fill="#2C97EB"/>
</svg>
