<svg width="41" height="41" viewBox="0 0 41 41" fill="none" xmlns="http://www.w3.org/2000/svg">
<path d="M30.0669 8.69957H28.1213C27.8143 8.69957 27.5654 8.45068 27.5654 8.14366V7.86571C27.5654 7.25168 27.0676 6.75391 26.4536 6.75391H23.1182C22.5041 6.75391 22.0063 7.25168 22.0063 7.86571V18.4279C22.0059 18.653 22.1414 18.8562 22.3494 18.9424C22.5574 19.0286 22.7968 18.9809 22.9558 18.8214L24.5891 17.1871C24.6412 17.1348 24.712 17.1054 24.7859 17.1054C24.8597 17.1054 24.9305 17.1348 24.9827 17.1871L26.6159 18.8214C26.7749 18.9809 27.0144 19.0286 27.2223 18.9424C27.4303 18.8562 27.5658 18.653 27.5654 18.4279V11.4791C27.5654 11.1721 27.8143 10.9232 28.1213 10.9232H29.511C29.8181 10.9232 30.0669 11.1721 30.0669 11.4791V30.6577C30.0669 30.9647 29.8181 31.2136 29.511 31.2136H15.6135C15.3064 31.2136 15.0576 30.9647 15.0576 30.6577V11.4791C15.0576 11.1721 15.3064 10.9232 15.6135 10.9232H20.0607C20.2142 10.9232 20.3386 10.7987 20.3386 10.6452V8.97752C20.3386 8.82401 20.2142 8.69957 20.0607 8.69957H11.7221C10.4941 8.69957 9.49854 9.69511 9.49854 10.9232V31.2136C9.49854 32.4417 10.4941 33.4372 11.7221 33.4372H30.0669C31.295 33.4372 32.2906 32.4417 32.2906 31.2136V10.9232C32.2906 9.69511 31.295 8.69957 30.0669 8.69957Z" fill="#3EB449"/>
<mask id="mask0_4709_24985" style="mask-type:alpha" maskUnits="userSpaceOnUse" x="9" y="6" width="24" height="28">
<path d="M30.0669 8.69957H28.1213C27.8143 8.69957 27.5654 8.45068 27.5654 8.14366V7.86571C27.5654 7.25168 27.0676 6.75391 26.4536 6.75391H23.1182C22.5041 6.75391 22.0063 7.25168 22.0063 7.86571V18.4279C22.0059 18.653 22.1414 18.8562 22.3494 18.9424C22.5574 19.0286 22.7968 18.9809 22.9558 18.8214L24.5891 17.1871C24.6412 17.1348 24.712 17.1054 24.7859 17.1054C24.8597 17.1054 24.9305 17.1348 24.9827 17.1871L26.6159 18.8214C26.7749 18.9809 27.0144 19.0286 27.2223 18.9424C27.4303 18.8562 27.5658 18.653 27.5654 18.4279V11.4791C27.5654 11.1721 27.8143 10.9232 28.1213 10.9232H29.511C29.8181 10.9232 30.0669 11.1721 30.0669 11.4791V30.6577C30.0669 30.9647 29.8181 31.2136 29.511 31.2136H15.6135C15.3064 31.2136 15.0576 30.9647 15.0576 30.6577V11.4791C15.0576 11.1721 15.3064 10.9232 15.6135 10.9232H20.0607C20.2142 10.9232 20.3386 10.7987 20.3386 10.6452V8.97752C20.3386 8.82401 20.2142 8.69957 20.0607 8.69957H11.7221C10.4941 8.69957 9.49854 9.69511 9.49854 10.9232V31.2136C9.49854 32.4417 10.4941 33.4372 11.7221 33.4372H30.0669C31.295 33.4372 32.2906 32.4417 32.2906 31.2136V10.9232C32.2906 9.69511 31.295 8.69957 30.0669 8.69957Z" fill="white"/>
</mask>
<g mask="url(#mask0_4709_24985)">
</g>
</svg>
