<svg width="312" height="312" viewBox="0 0 312 312" fill="none" xmlns="http://www.w3.org/2000/svg">
<path d="M281.623 129.619C277.255 121.844 269.673 115.18 260.519 113.963C251.103 112.715 241.868 117.32 234.48 123.042C227.059 128.765 220.72 135.766 215.76 143.716C212.871 148.371 209.919 153.775 204.484 155.291C199.367 156.714 193.988 154.043 189.864 150.811C185.739 147.578 182.032 143.635 177.059 141.794C164.105 136.995 149.653 148.502 136.2 145.182C124.612 142.324 119.065 130.206 111.864 121.064C99.9702 106.014 79.3034 97.315 59.847 100.472C40.3907 103.63 25.5833 136.334 22.9062 155.01L289.41 154.923C287.738 146.237 286.01 137.388 281.623 129.619Z" fill="#EBEBEB"/>
<path d="M73.2263 62.1638C73.4634 60.4229 71.0111 58.9939 69.1641 58.8442C68.2824 58.8799 67.3998 58.8044 66.537 58.6195C64.7337 57.9955 64.041 55.6555 62.2502 54.913C60.9335 54.3576 59.4172 54.8506 58.1442 55.4933C56.8713 56.136 55.6045 56.9472 54.1756 57.0346C52.9276 57.1157 51.586 56.6539 50.5002 57.2592C49.6953 57.7147 49.2522 58.6445 48.5222 59.1936C47.7494 59.6796 46.8515 59.9291 45.9388 59.9112C45.0317 59.889 44.1283 60.035 43.2743 60.3418C42.8508 60.507 42.492 60.8046 42.2514 61.1903C42.0107 61.576 41.9011 62.0291 41.9389 62.4821L73.2263 62.1638Z" fill="#F5F5F5"/>
<path d="M156.142 78.7185C156.379 76.9776 153.927 75.5486 152.08 75.3989C151.198 75.4346 150.315 75.3591 149.453 75.1742C147.649 74.5502 146.957 72.2102 145.166 71.4677C143.849 70.9123 142.333 71.4053 141.06 72.048C139.787 72.6907 138.52 73.5019 137.091 73.5955C135.843 73.6704 134.502 73.2149 133.422 73.8201C132.611 74.2694 132.174 75.1992 131.444 75.7545C130.666 76.2315 129.767 76.4741 128.854 76.4534C127.947 76.4302 127.043 76.5784 126.19 76.8902C125.767 77.0551 125.409 77.3518 125.169 77.7362C124.928 78.1206 124.818 78.5723 124.854 79.0243L156.142 78.7185Z" fill="#F5F5F5"/>
<path d="M292.094 77.6955C292.525 74.5755 288.107 71.9859 284.781 71.7176C283.196 71.5928 281.555 71.8362 280.051 71.312C276.8 70.1763 275.502 65.9768 272.326 64.6352C269.955 63.6368 267.228 64.5291 264.925 65.6835C262.622 66.8379 260.351 68.2981 257.786 68.4666C255.553 68.6039 253.125 67.7802 251.166 68.8722C249.712 69.6834 248.951 71.3682 247.603 72.3541C246.255 73.34 244.576 73.5272 242.948 73.6021C241.319 73.677 239.628 73.7082 238.143 74.3883C236.658 75.0685 235.435 76.6347 235.741 78.2384L292.094 77.6955Z" fill="#EBEBEB"/>
<path d="M163.825 46.6298C164.368 42.6674 158.783 39.4102 154.577 39.0732C152.574 38.911 150.496 39.2167 148.599 38.5553C144.487 37.1201 142.846 31.8098 138.834 30.1188C135.832 28.8708 132.381 29.9815 129.474 31.4417C126.566 32.9018 123.695 34.7489 120.432 34.9486C117.605 35.1295 114.535 34.0812 112.064 35.4665C110.192 36.4898 109.256 38.5865 107.559 39.8345C105.861 41.0825 103.734 41.3196 101.668 41.4319C99.6027 41.5442 97.4749 41.563 95.5967 42.4241C93.7184 43.2852 92.1709 45.2695 92.5578 47.2975L163.825 46.6298Z" fill="#EBEBEB"/>
<path d="M11.625 227.371L13.6093 209.169L126.822 216.576C129.276 216.738 131.701 215.964 133.608 214.41C135.514 212.857 136.762 210.638 137.099 208.202L144.481 154.75H170.146L181.247 209.419C181.708 211.694 182.968 213.73 184.799 215.157C186.63 216.584 188.912 217.309 191.231 217.2L297.585 212.333V231.44L204.204 247.352C202.021 247.568 199.904 248.224 197.98 249.279C196.057 250.335 194.367 251.768 193.012 253.494C191.657 255.219 190.664 257.2 190.095 259.319C189.525 261.438 189.389 263.65 189.696 265.822L194.064 296.96H128.238L130.903 268.449C131.396 263.183 129.868 257.926 126.63 253.745C123.391 249.563 118.684 246.769 113.462 245.929L11.625 227.371Z" fill="#E0E0E0"/>
<path d="M162.209 204.017H156L157.473 177.359L160.168 177.366L162.209 204.017Z" fill="#F5F5F5"/>
<path d="M164.443 265.541H156L157.504 232.531L162.121 232.544L164.443 265.541Z" fill="#F5F5F5"/>
<path d="M202.501 233.881L201.902 228.72L234.8 225.844L235.692 229.27L202.501 233.881Z" fill="#F5F5F5"/>
<path d="M269.181 226.794L268.588 221.633L297.579 219.094V222.844L269.181 226.794Z" fill="#F5F5F5"/>
<path d="M117.704 230.809L118.303 225.649L85.406 222.766L84.5137 226.198L117.704 230.809Z" fill="#F5F5F5"/>
<path d="M44.816 222.768L45.2902 218.65L13.0232 214.531L12.6113 218.294L44.816 222.768Z" fill="#F5F5F5"/>
<path d="M200.13 205.415H194.764V42.6754C194.764 41.9638 195.046 41.2813 195.55 40.7781C196.053 40.2749 196.735 39.9922 197.447 39.9922C198.158 39.9938 198.84 40.2771 199.342 40.7799C199.845 41.2827 200.128 41.9643 200.13 42.6754V205.415Z" fill="#263238"/>
<path d="M172 108.512L186.87 107.133L223.63 126.92L221.171 131.481L216.535 131.463L219.624 134.364L216.26 140.61L179.738 120.954L172 108.512Z" fill="#43A7FF"/>
<path opacity="0.3" d="M172 108.512L186.87 107.133L223.63 126.92L221.171 131.481L216.535 131.463L219.624 134.364L216.26 140.61L179.738 120.954L172 108.512Z" fill="black"/>
<path d="M171.544 106.625L182.04 105.651C183.221 105.541 184.409 105.782 185.453 106.344L220.609 125.264L218.151 129.831H213.514L216.603 132.733L213.24 138.973L178.134 120.078C177.209 119.579 176.431 118.848 175.875 117.957L170.352 109.046C170.208 108.817 170.126 108.555 170.112 108.285C170.097 108.014 170.153 107.745 170.272 107.503C170.392 107.26 170.571 107.052 170.794 106.898C171.017 106.744 171.275 106.65 171.544 106.625Z" fill="#43A7FF"/>
<g opacity="0.2">
<path d="M211.73 138.202C211.602 137.668 211.392 137.156 211.106 136.686C210.225 135.471 209.109 134.446 207.824 133.672C203.757 130.824 199.415 128.391 194.863 126.409C192.199 125.242 189.578 124.331 187.219 123.432C185.113 122.668 183.052 121.783 181.048 120.78C179.697 120.099 178.411 119.297 177.204 118.384C176.774 118.066 176.468 117.76 176.25 117.604C176.134 117.517 176.03 117.416 175.938 117.305C175.938 117.305 176.412 117.667 177.279 118.278C178.505 119.15 179.801 119.918 181.154 120.574C183.163 121.545 185.223 122.406 187.326 123.152C189.684 124.031 192.317 124.936 194.994 126.109C199.567 128.1 203.913 130.573 207.961 133.485C209.254 134.285 210.364 135.348 211.218 136.605C211.432 136.962 211.584 137.352 211.668 137.759C211.695 137.864 211.712 137.97 211.718 138.078C211.73 138.165 211.736 138.202 211.73 138.202Z" fill="black"/>
<path d="M172.792 106.703C172.629 107.37 172.612 108.064 172.742 108.737C172.903 109.523 173.226 110.267 173.691 110.921C174.321 111.777 175.069 112.54 175.912 113.186C178.1 114.906 180.392 116.487 182.776 117.923C185.466 119.558 188.517 121.192 191.755 122.846L208.341 131.32C210.432 132.412 212.142 133.292 213.333 133.922L214.687 134.646C214.847 134.726 215.001 134.815 215.149 134.914C214.979 134.859 214.814 134.788 214.656 134.702L213.277 134.034L208.217 131.538L191.618 123.114C188.38 121.454 185.322 119.807 182.633 118.122C180.241 116.67 177.948 115.06 175.769 113.305C174.916 112.638 174.165 111.85 173.541 110.965C173.075 110.287 172.76 109.517 172.617 108.706C172.523 108.195 172.523 107.67 172.617 107.159C172.662 107.002 172.721 106.85 172.792 106.703Z" fill="black"/>
<path d="M187.243 113.502C187.126 113.363 187.022 113.215 186.931 113.059C186.645 112.625 186.335 112.208 186.001 111.811C184.778 110.377 183.258 109.225 181.546 108.435C180.987 108.166 180.401 107.957 179.799 107.811C179.161 107.649 178.491 107.68 177.871 107.898C177.547 108.008 177.256 108.198 177.025 108.45C176.794 108.702 176.63 109.008 176.548 109.34C176.48 110.079 176.704 110.816 177.172 111.393C178.969 113.982 181.821 116.091 184.978 117.882C185.77 118.331 186.563 118.774 187.349 119.174C188.097 119.589 188.929 119.828 189.783 119.873C190.183 119.893 190.583 119.82 190.95 119.661C191.318 119.502 191.645 119.261 191.904 118.955C192.355 118.32 192.538 117.534 192.416 116.765C192.294 116.019 192.032 115.304 191.642 114.656C191.274 114.032 190.869 113.408 190.475 112.828C189.737 111.761 188.901 110.765 187.979 109.851C186.631 108.533 185.083 107.436 183.393 106.6C182.769 106.307 182.32 106.101 181.989 105.976C181.823 105.913 181.66 105.84 181.502 105.758C181.677 105.795 181.848 105.847 182.014 105.914C182.502 106.082 182.981 106.276 183.449 106.494C185.178 107.293 186.762 108.375 188.135 109.695C189.085 110.606 189.946 111.604 190.706 112.678C191.106 113.258 191.517 113.864 191.898 114.55C192.309 115.226 192.589 115.973 192.722 116.753C192.858 117.605 192.654 118.477 192.154 119.18C191.866 119.523 191.502 119.795 191.092 119.976C190.682 120.156 190.237 120.241 189.789 120.222C188.881 120.186 187.995 119.938 187.199 119.498C186.394 119.093 185.608 118.65 184.809 118.2C181.633 116.403 178.744 114.263 176.922 111.598C176.424 110.95 176.2 110.132 176.298 109.321C176.392 108.944 176.578 108.597 176.841 108.311C177.104 108.026 177.434 107.811 177.802 107.686C178.474 107.455 179.199 107.426 179.886 107.605C180.502 107.748 181.1 107.957 181.671 108.229C183.886 109.253 185.748 110.912 187.018 112.996C187.103 113.16 187.178 113.329 187.243 113.502Z" fill="black"/>
<path d="M219.549 127.346C219.549 127.377 219.043 127.133 218.089 126.94C216.726 126.724 215.339 126.724 213.976 126.94C212.248 127.133 210.232 127.67 207.855 127.695C206.619 127.702 205.392 127.49 204.23 127.071C202.988 126.62 201.819 125.989 200.76 125.199C198.742 123.656 197.028 121.752 195.706 119.583C194.631 117.825 193.664 116.004 192.81 114.129C192.055 112.544 191.438 111.271 190.976 110.385L190.452 109.387C190.381 109.276 190.324 109.156 190.283 109.031C190.369 109.132 190.444 109.24 190.508 109.356C190.651 109.574 190.845 109.899 191.088 110.323C191.581 111.178 192.236 112.438 193.016 114.011C193.894 115.861 194.876 117.661 195.955 119.402C197.272 121.528 198.963 123.397 200.947 124.918C202.926 126.452 205.346 127.307 207.849 127.358C210.145 127.358 212.217 126.846 213.945 126.678C215.33 126.488 216.738 126.534 218.107 126.815C218.476 126.899 218.837 127.014 219.187 127.158C219.315 127.204 219.437 127.267 219.549 127.346Z" fill="black"/>
<path d="M206.675 121.056C206.546 121.022 206.421 120.976 206.3 120.919C206.063 120.819 205.72 120.663 205.277 120.438C204.834 120.214 204.316 119.927 203.723 119.552C203.424 119.369 203.112 119.161 202.787 118.928C202.411 118.713 202.09 118.411 201.851 118.049C201.778 117.931 201.745 117.793 201.759 117.655C201.772 117.517 201.831 117.388 201.926 117.287C202.034 117.203 202.161 117.146 202.296 117.122C202.431 117.098 202.57 117.108 202.7 117.15C203.187 117.281 203.642 117.443 204.135 117.612C205.109 117.955 206.138 118.367 207.193 118.86C208.297 119.37 209.372 119.941 210.413 120.569C211.012 120.871 211.528 121.314 211.916 121.861C212.023 122.017 212.093 122.196 212.12 122.383C212.148 122.57 212.132 122.761 212.075 122.941C212.018 123.122 211.921 123.287 211.791 123.424C211.661 123.561 211.501 123.667 211.324 123.733C210.673 123.96 209.98 124.037 209.296 123.958C208.647 123.926 208.003 123.843 207.368 123.708C206.164 123.466 205.001 123.056 203.911 122.491C202.365 121.694 200.996 120.594 199.883 119.257C198.771 117.921 197.938 116.374 197.433 114.71C197.321 114.35 197.231 113.983 197.165 113.612C197.133 113.483 197.116 113.351 197.115 113.219C197.146 113.219 197.246 113.749 197.558 114.673C197.996 115.974 198.628 117.203 199.43 118.317C200.634 119.963 202.21 121.302 204.029 122.223C205.098 122.767 206.236 123.162 207.411 123.396C208.028 123.522 208.654 123.602 209.283 123.633C209.914 123.71 210.555 123.642 211.155 123.434C211.292 123.379 211.415 123.295 211.515 123.187C211.616 123.079 211.691 122.95 211.736 122.81C211.774 122.674 211.782 122.532 211.76 122.393C211.737 122.253 211.684 122.121 211.604 122.005C211.245 121.502 210.77 121.093 210.219 120.813C209.188 120.189 208.126 119.619 207.037 119.103C205.995 118.61 204.978 118.192 204.017 117.855C203.536 117.68 203.056 117.506 202.619 117.387C202.527 117.353 202.428 117.34 202.331 117.351C202.233 117.362 202.139 117.396 202.057 117.449C201.998 117.514 201.961 117.596 201.955 117.683C201.948 117.77 201.971 117.857 202.02 117.93C202.239 118.266 202.534 118.546 202.881 118.747C203.193 118.985 203.505 119.19 203.786 119.371C204.366 119.752 204.884 120.058 205.308 120.295C205.733 120.532 206.07 120.713 206.3 120.832C206.435 120.889 206.561 120.965 206.675 121.056Z" fill="black"/>
</g>
<path d="M230.257 93.2852L230.176 93.2166L219.661 86.9766L178.015 84.0625L177.654 89.2292L181.585 91.7252L177.429 92.5302L176.93 99.6063L215.942 102.333C217.472 102.44 219.004 102.145 220.385 101.478L228.104 97.7343C229.726 96.9543 230.257 95.1447 230.257 93.2852Z" fill="#43A7FF"/>
<path opacity="0.3" d="M230.257 93.2852L230.176 93.2166L219.661 86.9766L178.015 84.0625L177.654 89.2292L181.585 91.7252L177.429 92.5302L176.93 99.6063L215.942 102.333C217.472 102.44 219.004 102.145 220.385 101.478L228.104 97.7343C228.822 97.2474 229.399 96.5798 229.777 95.7987C230.155 95.0175 230.321 94.1506 230.257 93.2852Z" fill="black"/>
<path d="M229.633 92.4551L221.284 86.0217C220.346 85.2931 219.212 84.8588 218.027 84.7737L178.197 81.9844L177.835 87.1573L181.766 89.6159L177.611 90.4208L177.111 97.497L216.885 100.286C217.934 100.359 218.984 100.157 219.93 99.6997L229.359 95.1383C229.601 95.0192 229.808 94.8406 229.962 94.6192C230.116 94.3978 230.212 94.1409 230.239 93.8727C230.266 93.6045 230.225 93.3336 230.119 93.0857C230.013 92.8377 229.846 92.6207 229.633 92.4551Z" fill="#43A7FF"/>
<g opacity="0.2">
<path d="M178.77 97.6709C178.77 97.6709 178.77 97.6334 178.832 97.5773C178.896 97.4902 178.966 97.4088 179.044 97.3339C179.336 97.0387 179.673 96.7922 180.042 96.6038C181.437 95.9878 182.948 95.6772 184.473 95.6928C189.45 95.3873 194.446 95.6195 199.374 96.3854C202.263 96.8222 204.99 97.465 207.436 97.9829C209.613 98.4756 211.814 98.8484 214.032 99.0998C215.525 99.2647 217.03 99.3085 218.531 99.2309C219.592 99.1747 220.178 99.0874 220.184 99.1248C220.046 99.166 219.904 99.1932 219.76 99.2059C219.347 99.2788 218.931 99.3288 218.512 99.3557C217.005 99.4933 215.489 99.4933 213.982 99.3557C211.752 99.1319 209.538 98.7798 207.349 98.3011C204.853 97.7957 202.17 97.1654 199.299 96.7286C194.391 95.977 189.42 95.7157 184.46 95.9486C182.966 95.9175 181.481 96.187 180.092 96.7411C179.606 96.9803 179.159 97.294 178.77 97.6709Z" fill="black"/>
<path d="M228.522 91.8359C228.495 92.0131 228.449 92.1868 228.385 92.3539C228.197 92.8387 227.922 93.2849 227.573 93.6705C227.015 94.2755 226.337 94.7578 225.583 95.087C224.586 95.4983 223.535 95.7631 222.463 95.8732C219.682 96.1937 216.882 96.3271 214.083 96.2726C210.931 96.2351 207.468 95.998 203.843 95.6486L185.304 93.8577L179.688 93.2711L178.159 93.0964C177.982 93.0843 177.807 93.0572 177.635 93.0153C177.811 92.9987 177.989 92.9987 178.165 93.0153L179.7 93.1276L185.316 93.6081L203.868 95.3054C207.487 95.6361 210.938 95.8795 214.083 95.9294C216.868 95.9994 219.654 95.8911 222.425 95.6049C223.495 95.5098 224.545 95.264 225.545 94.8748C226.287 94.5718 226.956 94.1169 227.511 93.5395C227.963 93.0484 228.308 92.4681 228.522 91.8359Z" fill="black"/>
<path d="M212.665 89.8494C212.815 89.75 212.972 89.6604 213.133 89.5811C213.598 89.356 214.075 89.158 214.562 88.9883C216.368 88.3792 218.287 88.181 220.178 88.408C220.815 88.4769 221.442 88.6128 222.05 88.8136C222.728 89.0284 223.327 89.4387 223.773 89.9929C224.017 90.2956 224.181 90.6549 224.25 91.0377C224.318 91.4205 224.289 91.8145 224.166 92.1832C223.809 92.9199 223.177 93.4869 222.406 93.7619C219.436 95.0099 215.854 95.3032 212.204 95.1222C211.286 95.0785 210.388 95.0349 209.496 94.9475C208.591 94.8947 207.712 94.6342 206.925 94.1862C206.536 93.9631 206.203 93.6534 205.953 93.2812C205.703 92.9089 205.543 92.4841 205.483 92.0397C205.437 91.1788 205.731 90.3342 206.301 89.6872C206.828 89.0977 207.463 88.6148 208.173 88.2645C208.84 87.915 209.508 87.6405 210.163 87.3409C211.372 86.8413 212.626 86.4569 213.907 86.1928C215.773 85.8084 217.691 85.7409 219.579 85.9931C220.092 86.0555 220.6 86.1472 221.102 86.2677C221.28 86.3002 221.456 86.3482 221.626 86.4112C221.446 86.3949 221.267 86.3678 221.089 86.3301C220.746 86.2677 220.228 86.1865 219.567 86.1179C217.691 85.9203 215.795 86.0214 213.951 86.4174C212.682 86.695 211.442 87.0876 210.244 87.5905C209.62 87.8713 208.934 88.1709 208.279 88.5141C207.605 88.8538 207.002 89.3174 206.5 89.8806C205.985 90.4658 205.718 91.2295 205.758 92.0085C205.814 92.4062 205.962 92.7854 206.189 93.1166C206.417 93.4478 206.717 93.722 207.068 93.9179C207.813 94.3365 208.643 94.5798 209.496 94.6293C210.375 94.7104 211.28 94.7541 212.191 94.7977C215.817 94.9787 219.355 94.7166 222.25 93.4873C222.951 93.2482 223.531 92.7443 223.866 92.0833C223.976 91.7591 224.003 91.4122 223.943 91.0751C223.883 90.7379 223.738 90.4215 223.523 90.1552C223.115 89.6389 222.564 89.2546 221.938 89.0507C221.354 88.847 220.749 88.7089 220.135 88.6389C218.265 88.3895 216.364 88.5492 214.562 89.1069C213.938 89.3065 213.452 89.5125 213.127 89.6435C212.979 89.7241 212.824 89.7929 212.665 89.8494Z" fill="black"/>
<path d="M177.965 84.3133C178.097 84.309 178.229 84.3216 178.358 84.3508C178.732 84.4129 179.1 84.509 179.456 84.6378C180.763 85.13 181.976 85.8411 183.044 86.7407C184.436 87.8202 185.896 89.3428 187.837 90.5783C189.98 91.8721 192.483 92.441 194.975 92.2007C197.477 91.9818 199.917 91.3072 202.176 90.2101C204.019 89.3148 205.811 88.317 207.542 87.2212C209.04 86.3101 210.269 85.5925 211.137 85.137C211.573 84.9061 211.917 84.7376 212.148 84.6316C212.263 84.5648 212.387 84.5124 212.516 84.4756C212.412 84.5586 212.299 84.6298 212.179 84.6877L211.199 85.2493C210.35 85.736 209.146 86.4973 207.667 87.4208C205.943 88.5467 204.154 89.5677 202.307 90.4784C200.028 91.6064 197.558 92.3004 195.025 92.5252C193.71 92.6253 192.387 92.5306 191.1 92.2444C189.896 91.9772 188.749 91.4998 187.712 90.8341C185.734 89.5861 184.292 88.0136 182.932 86.9216C181.892 86.018 180.715 85.287 179.444 84.7564C178.959 84.5817 178.466 84.4338 177.965 84.3133Z" fill="black"/>
<path d="M192.193 85.8731C192.324 85.8606 192.455 85.8606 192.586 85.8731C192.842 85.8731 193.21 85.9292 193.709 85.9542C194.208 85.9792 194.795 85.9979 195.487 85.9854C195.837 85.9854 196.205 85.9854 196.598 85.9355C196.998 85.9433 197.394 85.8623 197.759 85.6984C197.839 85.6642 197.906 85.6034 197.946 85.5261C197.987 85.4488 198 85.3598 197.983 85.274C197.946 85.1118 197.759 84.9932 197.547 84.9184C197.11 84.7873 196.611 84.6812 196.118 84.5689C195.113 84.3505 194.034 84.1633 192.885 84.0198C191.737 83.8763 190.533 83.7952 189.279 83.7702C188.665 83.7077 188.046 83.7977 187.475 84.0323C187.345 84.0908 187.229 84.1769 187.135 84.2846C187.042 84.3923 186.972 84.5192 186.932 84.6563C186.9 84.7966 186.898 84.9423 186.927 85.0834C186.956 85.2246 187.016 85.3577 187.101 85.4737C187.499 85.9693 188.005 86.3683 188.58 86.6406C189.132 86.9543 189.707 87.2234 190.302 87.4456C191.42 87.8757 192.592 88.1528 193.784 88.2692C195.816 88.4588 197.863 88.1681 199.762 87.4206C201.041 86.9134 202.236 86.2149 203.306 85.3489C204.067 84.7249 204.436 84.338 204.454 84.3568C204.473 84.3755 204.379 84.4691 204.205 84.6625C203.961 84.9523 203.701 85.2274 203.425 85.4862C202.112 86.6261 200.582 87.4899 198.928 88.0259C197.274 88.562 195.529 88.7593 193.796 88.6062C192.573 88.4978 191.37 88.2227 190.221 87.7888C189.613 87.5617 189.025 87.2863 188.461 86.9651C187.841 86.6793 187.296 86.2518 186.87 85.7171C186.759 85.5631 186.682 85.3869 186.646 85.2005C186.609 85.0142 186.613 84.8222 186.658 84.6376C186.71 84.4579 186.801 84.2918 186.924 84.1506C187.047 84.0095 187.199 83.8967 187.369 83.8201C187.986 83.5629 188.657 83.4622 189.322 83.5268C190.539 83.5518 191.754 83.6434 192.96 83.8014C194.115 83.9512 195.207 84.1508 196.211 84.3817C196.723 84.5003 197.191 84.6064 197.671 84.7561C197.804 84.7912 197.926 84.8577 198.027 84.9501C198.128 85.0424 198.205 85.1579 198.252 85.2865C198.28 85.4221 198.262 85.5631 198.201 85.6874C198.14 85.8116 198.039 85.9121 197.915 85.9729C197.523 86.148 197.096 86.2312 196.667 86.2163C196.267 86.2163 195.893 86.2163 195.544 86.2163C194.845 86.2163 194.246 86.1726 193.759 86.1289C193.272 86.0852 192.892 86.0353 192.636 85.9916C192.483 85.9742 192.334 85.9343 192.193 85.8731Z" fill="black"/>
</g>
<path d="M170.727 65.4399L183.456 73.2524L225.171 71.7548L224.99 66.5756L220.821 64.5351L224.871 63.2996L224.615 56.2109L183.169 57.6961L170.727 65.4399Z" fill="#43A7FF"/>
<path opacity="0.3" d="M170.727 65.4399L183.456 73.2524L225.171 71.7548L224.99 66.5756L220.821 64.5351L224.871 63.2996L224.615 56.2109L183.169 57.6961L170.727 65.4399Z" fill="black"/>
<path d="M169.479 66.9346L178.465 72.4445C179.476 73.0672 180.648 73.3756 181.835 73.3306L221.733 71.9016L221.546 66.7224L217.378 64.6882L221.427 63.4402L221.178 56.3516L181.335 57.7868C180.283 57.8235 179.259 58.1355 178.365 58.6916L169.473 64.2264C169.242 64.3695 169.052 64.5692 168.921 64.8065C168.789 65.0438 168.72 65.3109 168.721 65.5823C168.721 65.8537 168.791 66.1204 168.924 66.3571C169.057 66.5938 169.248 66.7926 169.479 66.9346Z" fill="#43A7FF"/>
<g opacity="0.2">
<path d="M219.486 56.375C219.474 56.4113 219.455 56.4451 219.43 56.4748C219.378 56.5672 219.317 56.6549 219.249 56.7369C218.989 57.0613 218.679 57.3434 218.332 57.5731C217.009 58.3279 215.542 58.7957 214.026 58.9459C209.108 59.7734 204.114 60.0704 199.132 59.832C196.211 59.7009 193.453 59.3452 190.945 59.0894C188.728 58.8272 186.5 58.6835 184.268 58.6588C182.766 58.6513 181.265 58.7661 179.781 59.002C178.733 59.1705 178.159 59.3203 178.146 59.2828C178.281 59.2337 178.419 59.1921 178.558 59.158C178.833 59.0894 179.232 58.9708 179.756 58.8772C181.244 58.5928 182.754 58.4424 184.268 58.428C186.509 58.4138 188.748 58.5284 190.976 58.7712C193.472 59.0145 196.243 59.3577 199.144 59.4888C204.106 59.7205 209.08 59.455 213.989 58.6963C215.483 58.5697 216.936 58.1454 218.263 57.4483C218.722 57.1531 219.134 56.7914 219.486 56.375Z" fill="black"/>
<path d="M170.627 67.4348C170.631 67.2553 170.659 67.0771 170.708 66.9044C170.843 66.4033 171.069 65.9314 171.376 65.5129C171.864 64.8496 172.487 64.2967 173.204 63.8905C174.158 63.3744 175.182 62.9982 176.243 62.7735C178.973 62.1772 181.739 61.7603 184.523 61.5255C187.643 61.2323 191.138 61.1012 194.776 61.0451L213.408 60.8391H219.056H220.591C220.769 60.8245 220.949 60.8245 221.127 60.8391C220.95 60.8681 220.77 60.8827 220.591 60.8828L219.056 60.9265L213.44 61.0451L194.813 61.3134C191.175 61.3695 187.718 61.4881 184.586 61.7689C181.798 62.0134 179.028 62.4323 176.293 63.0231C175.248 63.2318 174.237 63.5869 173.291 64.0777C172.586 64.4581 171.968 64.9808 171.476 65.6127C171.067 66.1531 170.777 66.7742 170.627 67.4348Z" fill="black"/>
<path d="M186.576 67.7068C186.441 67.826 186.295 67.9325 186.14 68.025C185.703 68.3026 185.249 68.5506 184.779 68.7676C183.044 69.5688 181.15 69.9697 179.238 69.9407C178.609 69.9358 177.982 69.8668 177.366 69.7348C176.672 69.5922 176.036 69.247 175.538 68.7426C175.263 68.4669 175.061 68.1263 174.952 67.7523C174.843 67.3783 174.83 66.9828 174.914 66.6023C175.192 65.8326 175.761 65.2029 176.499 64.8489C179.313 63.2702 182.851 62.6274 186.483 62.4153C187.4 62.3654 188.299 62.3154 189.197 62.303C190.101 62.2617 191.003 62.4305 191.831 62.7959C192.241 62.976 192.605 63.248 192.894 63.5909C193.183 63.9339 193.389 64.3387 193.497 64.774C193.633 65.6263 193.429 66.4978 192.929 67.2014C192.464 67.842 191.882 68.3883 191.213 68.8113C190.589 69.2356 189.965 69.5975 189.341 69.9407C188.186 70.5676 186.974 71.0836 185.722 71.482C183.907 72.0573 182.009 72.3272 180.106 72.2807C179.59 72.2713 179.076 72.2338 178.564 72.1684C178.385 72.157 178.207 72.1278 178.034 72.081C178.213 72.0686 178.392 72.0686 178.571 72.081C178.92 72.081 179.438 72.1372 180.106 72.1372C181.99 72.1327 183.862 71.8315 185.653 71.2449C186.887 70.8385 188.08 70.3161 189.216 69.6849C189.84 69.3417 190.464 68.9735 191.088 68.5554C191.725 68.1508 192.278 67.6276 192.717 67.0142C193.165 66.3758 193.348 65.5885 193.228 64.8177C193.129 64.4288 192.942 64.0679 192.681 63.7628C192.42 63.4577 192.093 63.2166 191.724 63.058C190.938 62.7199 190.084 62.5662 189.228 62.6087C188.349 62.6087 187.444 62.6711 186.533 62.721C182.907 62.9332 179.419 63.5634 176.667 65.0922C175.993 65.401 175.468 65.964 175.207 66.6585C175.135 66.9915 175.147 67.3375 175.243 67.6646C175.339 67.9917 175.515 68.2895 175.756 68.5305C176.216 69.0015 176.804 69.327 177.447 69.4665C178.049 69.6053 178.664 69.6785 179.282 69.6849C181.167 69.7325 183.04 69.3728 184.773 68.6303C185.243 68.426 185.701 68.1968 186.146 67.9439C186.284 67.856 186.428 67.7768 186.576 67.7068Z" fill="black"/>
<path d="M221.695 69.5818C221.564 69.5941 221.432 69.5941 221.301 69.5818C220.923 69.5594 220.547 69.503 220.178 69.4134C218.825 69.0607 217.542 68.4804 216.384 67.6974C214.887 66.7738 213.264 65.4135 211.218 64.3902C208.95 63.3299 206.401 63.028 203.948 63.529C201.494 64.0156 199.15 64.9438 197.028 66.2684C195.289 67.3536 193.612 68.5348 192.005 69.8065C190.613 70.8735 189.465 71.7159 188.648 72.2588C188.242 72.5334 187.917 72.7393 187.699 72.8828C187.589 72.9585 187.472 73.0233 187.35 73.0762C187.445 72.9829 187.55 72.8993 187.662 72.8266L188.579 72.1652C189.371 71.5911 190.488 70.7238 191.861 69.638C193.451 68.335 195.118 67.1285 196.853 66.025C199 64.666 201.38 63.7161 203.873 63.2233C205.172 62.9824 206.499 62.9361 207.811 63.086C209.036 63.2289 210.226 63.5837 211.33 64.1343C213.427 65.1951 215.024 66.5804 216.49 67.5164C217.63 68.2929 218.885 68.8847 220.209 69.2698C221.152 69.5444 221.701 69.5444 221.695 69.5818Z" fill="black"/>
<path d="M207.369 69.5322C207.238 69.5402 207.107 69.5402 206.976 69.5322C206.72 69.5322 206.352 69.5322 205.853 69.5696C205.353 69.6071 204.767 69.6445 204.081 69.7319C203.737 69.7756 203.369 69.8317 202.982 69.9004C202.584 69.931 202.197 70.0527 201.853 70.256C201.777 70.298 201.717 70.3649 201.684 70.4456C201.651 70.5262 201.647 70.6157 201.672 70.6991C201.721 70.7837 201.79 70.8555 201.872 70.9086C201.955 70.9617 202.049 70.9947 202.146 71.0048C202.589 71.0922 203.101 71.1484 203.606 71.2045C204.623 71.3168 205.722 71.3917 206.87 71.4042C208.078 71.4263 209.286 71.3847 210.489 71.2794C211.105 71.2733 211.711 71.1193 212.255 70.8301C212.377 70.758 212.483 70.6606 212.565 70.5444C212.647 70.4281 212.703 70.2958 212.729 70.1562C212.745 70.0135 212.73 69.8692 212.686 69.7326C212.642 69.596 212.569 69.4703 212.473 69.3637C212.026 68.9128 211.482 68.5693 210.882 68.3591C210.3 68.1048 209.699 67.8962 209.085 67.7351C207.927 67.4271 206.733 67.2759 205.534 67.2858C203.494 67.309 201.488 67.8159 199.681 68.7647C198.462 69.4005 197.346 70.2191 196.374 71.192C195.688 71.8847 195.357 72.3215 195.332 72.3028C195.397 72.1859 195.472 72.0752 195.557 71.972C195.781 71.6688 196.022 71.3791 196.281 71.1047C197.469 69.8351 198.899 68.8165 200.487 68.1092C202.076 67.4018 203.79 67.02 205.528 66.9863C206.755 66.9657 207.979 67.1126 209.166 67.4231C209.795 67.5842 210.41 67.7928 211.007 68.0471C211.656 68.2759 212.243 68.6518 212.723 69.1453C212.85 69.286 212.945 69.4526 213.001 69.6337C213.057 69.8147 213.073 70.0058 213.047 70.1936C213.018 70.3799 212.946 70.5569 212.838 70.7114C212.73 70.866 212.588 70.994 212.423 71.086C211.834 71.4042 211.177 71.5755 210.508 71.5852C209.296 71.6876 208.079 71.7231 206.864 71.6912C205.697 71.6912 204.592 71.5852 203.569 71.4604C203.051 71.3917 202.57 71.3356 202.077 71.2357C201.944 71.2144 201.818 71.1614 201.709 71.081C201.601 71.0006 201.513 70.8953 201.453 70.774C201.412 70.6415 201.416 70.4991 201.465 70.3691C201.513 70.2392 201.604 70.1291 201.722 70.0564C202.102 69.8337 202.53 69.7053 202.97 69.682C203.357 69.6196 203.731 69.5759 204.081 69.5384C204.773 69.4698 205.372 69.4386 205.865 69.4324C206.358 69.4261 206.739 69.4324 206.995 69.4324C207.123 69.4478 207.25 69.4814 207.369 69.5322Z" fill="black"/>
</g>
<path d="M278.741 154.748C278.741 154.836 224.278 154.91 157.111 154.91C89.9436 154.91 35.4746 154.804 35.4746 154.748C35.4746 154.692 89.9248 154.586 157.111 154.586C224.297 154.586 278.741 154.623 278.741 154.748Z" fill="#263238"/>
<path d="M41.9139 256.702C41.8577 256.702 41.6331 255.778 41.1775 254.3C40.5798 252.376 39.8415 250.499 38.9686 248.684C38.0922 246.869 37.0827 245.121 35.9484 243.454C35.0748 242.175 34.482 241.414 34.5257 241.383C34.6999 241.527 34.8569 241.69 34.9937 241.87C35.2807 242.2 35.6739 242.693 36.1356 243.323C37.3303 244.967 38.3745 246.715 39.2556 248.546C40.1408 250.376 40.8552 252.283 41.3897 254.243C41.5956 254.999 41.7391 255.61 41.814 256.041C41.8723 256.257 41.9058 256.478 41.9139 256.702Z" fill="#263238"/>
<path d="M46.019 259.392C45.9379 259.392 44.3591 254.176 42.5059 247.686C40.6526 241.196 39.2174 235.911 39.311 235.867C39.4046 235.824 40.9708 241.084 42.8241 247.574C44.6774 254.063 46.1063 259.367 46.019 259.392Z" fill="#263238"/>
<path d="M49.3777 245.328C49.3406 246.04 49.2594 246.748 49.1344 247.45C48.9659 248.754 48.7725 250.57 48.6664 252.567C48.5603 254.563 48.5541 256.385 48.5853 257.702C48.624 258.413 48.624 259.125 48.5853 259.836C48.519 259.654 48.4831 259.462 48.4792 259.268C48.4293 258.9 48.3856 258.37 48.3419 257.708C48.2402 255.99 48.2402 254.266 48.3419 252.548C48.4322 250.829 48.6218 249.116 48.9097 247.419C49.0221 246.763 49.1281 246.239 49.2155 245.883C49.246 245.692 49.3005 245.506 49.3777 245.328Z" fill="#263238"/>
<path d="M227.429 138.281C227.517 138.281 228.646 141.919 229.925 146.462C231.205 151.005 232.222 154.711 232.141 154.736C232.059 154.761 230.924 151.098 229.613 146.555C228.303 142.013 227.342 138.306 227.429 138.281Z" fill="#263238"/>
<path d="M234.842 139.438C234.892 139.438 234.655 140.286 234.387 141.659C234.032 143.44 233.824 145.248 233.763 147.063C233.711 148.877 233.809 150.693 234.056 152.492C234.243 153.877 234.43 154.719 234.374 154.732C234.286 154.547 234.223 154.352 234.187 154.151C234.041 153.617 233.922 153.076 233.831 152.529C233.196 148.905 233.308 145.188 234.162 141.609C234.284 141.067 234.434 140.532 234.611 140.005C234.657 139.805 234.735 139.613 234.842 139.438Z" fill="#263238"/>
<path d="M239.454 142.36C239.498 142.391 239.067 142.984 238.474 144.057C237.707 145.424 237.08 146.864 236.602 148.357C236.141 149.854 235.835 151.395 235.691 152.956C235.579 154.16 235.585 154.909 235.529 154.909C235.478 154.739 235.455 154.562 235.46 154.385C235.435 153.904 235.435 153.423 235.46 152.943C235.624 149.753 236.59 146.656 238.268 143.939C238.522 143.529 238.797 143.134 239.092 142.753C239.311 142.491 239.435 142.348 239.454 142.36Z" fill="#263238"/>
<path d="M198.701 197.965C198.37 196.717 199.207 195.407 200.149 194.483C201.091 193.56 202.208 192.723 202.695 191.5C203.487 189.51 202.426 186.939 203.774 185.26C204.567 184.287 205.996 183.962 206.701 182.92C207.023 182.341 207.235 181.706 207.325 181.048C208.076 177.748 209.699 174.71 212.024 172.25C212.173 175.194 211.526 178.123 210.152 180.73C209.512 181.717 209.04 182.803 208.754 183.944C208.454 185.816 209.509 187.781 209.047 189.628C208.517 191.75 206.133 193.166 206.021 195.35C205.927 197.222 207.537 198.814 207.418 200.654C207.319 201.439 207.037 202.189 206.595 202.845C205.166 205.216 203.075 206.851 199.899 206.795L196.012 206.932L198.701 197.965Z" fill="#43A7FF"/>
<g opacity="0.3">
<path d="M198.701 197.965C198.37 196.717 199.207 195.407 200.149 194.483C201.091 193.56 202.208 192.723 202.695 191.5C203.487 189.51 202.426 186.939 203.774 185.26C204.567 184.287 205.996 183.962 206.701 182.92C207.023 182.341 207.235 181.706 207.325 181.048C208.076 177.748 209.699 174.71 212.024 172.25C212.173 175.194 211.526 178.123 210.152 180.73C209.512 181.717 209.04 182.803 208.754 183.944C208.454 185.816 209.509 187.781 209.047 189.628C208.517 191.75 206.133 193.166 206.021 195.35C205.927 197.222 207.537 198.814 207.418 200.654C207.319 201.439 207.037 202.189 206.595 202.845C205.166 205.216 203.075 206.851 199.899 206.795L196.012 206.932L198.701 197.965Z" fill="black"/>
</g>
<path d="M195.257 207.063C194.903 207.125 194.543 207.125 194.19 207.063C193.765 206.996 193.347 206.89 192.942 206.745C192.379 206.546 191.852 206.257 191.382 205.89C191.106 205.659 190.892 205.363 190.758 205.029C190.642 204.653 190.581 204.262 190.577 203.869C190.566 203.451 190.535 203.035 190.483 202.621C190.409 202.177 190.248 201.753 190.009 201.373C189.553 200.568 188.792 199.806 188.542 198.714C188.354 197.581 188.39 196.421 188.648 195.301C188.931 194.097 188.901 192.84 188.561 191.651C188.143 190.434 187.313 189.336 186.864 187.963C186.414 186.59 186.633 185.086 186.546 183.595C186.518 182.849 186.346 182.116 186.04 181.436C185.722 180.743 185.285 180.094 184.948 179.37C184.255 177.904 184.137 176.25 183.943 174.622C183.856 173.798 183.762 172.968 183.669 172.126C183.612 171.281 183.466 170.444 183.232 169.63C182.971 168.809 182.66 168.005 182.302 167.221C182.119 166.818 181.968 166.401 181.853 165.973C181.787 165.531 181.745 165.085 181.728 164.638C181.687 163.74 181.72 162.84 181.828 161.948C181.934 161.05 182.096 160.157 182.196 159.259V159.103V158.922L182.352 159.003C183.177 159.424 183.894 160.028 184.449 160.769C184.987 161.495 185.419 162.293 185.734 163.14C186.291 164.8 186.696 166.506 186.945 168.238C187.19 169.888 187.731 171.48 188.542 172.937C188.967 173.63 189.485 174.266 189.934 174.94C190.419 175.596 190.749 176.353 190.901 177.155C191.132 178.803 190.227 180.244 190.414 181.704C190.504 182.419 190.747 183.106 191.126 183.72C191.475 184.344 191.893 184.918 192.286 185.498C192.688 186.064 193.037 186.665 193.328 187.295C193.603 187.911 193.765 188.57 193.809 189.242C193.902 190.552 193.715 191.8 193.809 192.986C193.912 194.104 194.236 195.19 194.764 196.181C195.238 197.142 195.762 198.003 196.199 198.845C196.417 199.263 196.623 199.675 196.785 200.093C196.943 200.496 197.058 200.915 197.129 201.341C197.247 202.076 197.258 202.825 197.16 203.563C197.059 204.593 196.672 205.574 196.043 206.396C195.948 206.518 195.844 206.633 195.731 206.739C195.653 206.818 195.567 206.889 195.475 206.951C195.331 207.057 195.25 207.107 195.25 207.107C195.532 206.892 195.786 206.643 196.005 206.365C196.606 205.54 196.971 204.567 197.06 203.55C197.148 202.824 197.131 202.088 197.01 201.366C196.938 200.954 196.823 200.55 196.667 200.162C196.492 199.736 196.294 199.319 196.074 198.914C195.631 198.084 195.107 197.223 194.626 196.262C194.082 195.253 193.743 194.146 193.628 193.005C193.528 191.807 193.709 190.559 193.628 189.261C193.585 188.614 193.426 187.98 193.16 187.389C192.872 186.77 192.525 186.181 192.124 185.629C191.731 185.055 191.313 184.475 190.951 183.838C190.558 183.2 190.305 182.485 190.208 181.742C190.021 180.188 190.92 178.734 190.689 177.205C190.539 176.437 190.219 175.712 189.753 175.083C189.31 174.422 188.792 173.786 188.355 173.074C187.522 171.594 186.968 169.974 186.72 168.294C186.469 166.579 186.066 164.89 185.516 163.246C185.211 162.421 184.791 161.644 184.268 160.937C183.739 160.225 183.054 159.645 182.265 159.24L182.44 159.14V159.296C182.34 160.207 182.177 161.1 182.071 161.986C181.964 162.865 181.93 163.752 181.972 164.638C181.988 165.072 182.028 165.505 182.09 165.936C182.2 166.351 182.346 166.756 182.527 167.146C182.884 167.939 183.196 168.752 183.463 169.58C183.696 170.407 183.842 171.256 183.9 172.113C183.993 172.949 184.087 173.779 184.174 174.609C184.361 176.244 184.486 177.879 185.148 179.295C185.478 179.994 185.915 180.65 186.24 181.361C186.555 182.067 186.731 182.828 186.758 183.601C186.845 185.099 186.645 186.565 187.051 187.894C187.457 189.223 188.299 190.322 188.736 191.582C189.083 192.803 189.111 194.092 188.817 195.326C188.56 196.422 188.518 197.558 188.692 198.671C188.917 199.713 189.653 200.468 190.121 201.298C190.364 201.696 190.529 202.136 190.608 202.596C190.657 203.01 190.684 203.426 190.689 203.844C190.689 204.228 190.743 204.61 190.851 204.979C190.99 205.298 191.204 205.579 191.475 205.797C191.933 206.162 192.447 206.451 192.998 206.652C193.402 206.804 193.82 206.919 194.246 206.995C194.507 207.041 194.772 207.066 195.038 207.07L195.257 207.063Z" fill="#263238"/>
<path d="M182.969 161.242C182.988 161.279 183 161.319 183.006 161.361C183.006 161.454 183.056 161.573 183.094 161.71C183.168 162.016 183.262 162.484 183.406 163.058C183.549 163.632 183.911 164.306 184.211 165.092C184.569 165.994 184.88 166.915 185.14 167.85C185.434 168.886 185.696 170.041 185.97 171.27C186.209 172.588 186.629 173.867 187.218 175.07C187.536 175.694 187.892 176.318 188.179 177.042C188.459 177.76 188.648 178.511 188.741 179.276C188.937 180.858 189.217 182.428 189.577 183.981C190.357 187.163 191.099 190.221 191.78 192.966L193.652 200.292C194.163 202.37 194.581 204.036 194.9 205.24C195.037 205.815 195.143 206.264 195.218 206.588L195.293 206.944C195.293 207.019 195.293 207.063 195.293 207.063C195.276 207.026 195.261 206.989 195.249 206.95L195.149 206.601C195.062 206.276 194.943 205.833 194.787 205.265L193.489 200.336C192.947 198.252 192.304 195.774 191.617 193.023C190.931 190.271 190.182 187.219 189.396 184.031C189.032 182.472 188.753 180.895 188.56 179.307C188.473 178.561 188.293 177.83 188.023 177.129C187.749 176.449 187.399 175.813 187.075 175.176C186.481 173.955 186.061 172.657 185.827 171.32C185.558 170.072 185.309 168.93 185.022 167.894C184.735 166.858 184.441 165.941 184.142 165.142C183.842 164.343 183.518 163.682 183.368 163.083C183.218 162.484 183.162 162.035 183.1 161.723C183.1 161.579 183.056 161.461 183.037 161.367C183.007 161.33 182.983 161.288 182.969 161.242Z" fill="#263238"/>
<path d="M194.568 207.078C192.029 205.568 191.299 200.988 192.359 198.23C193.42 195.472 195.274 192.945 195.561 190.006C195.779 187.747 195.043 185.425 195.561 183.216C196.272 180.234 199.186 177.919 199.149 174.855C199.149 173.133 198.15 171.516 198.231 169.8C198.325 167.691 199.941 166.019 200.946 164.184C202.481 161.345 202.581 157.982 203.105 154.824C203.629 151.667 204.846 148.222 207.666 146.656C208.084 149.358 208.796 151.211 208.577 154.881C208.496 156.197 206.967 158.718 206.755 161.601C206.63 163.323 206.549 165.052 206.443 166.78C206.424 168.464 206.149 170.134 205.626 171.735C205.164 172.939 204.428 174.037 204.084 175.279C203.46 177.619 204.284 180.146 203.766 182.518C203.323 184.527 201.938 186.262 201.651 188.29C201.251 191.147 203.105 194.118 202.156 196.845C201.688 198.199 200.571 199.284 200.284 200.682C200.035 201.768 200.284 202.916 200.078 204.008C199.723 205.762 196.378 207.128 194.587 207.016" fill="#43A7FF"/>
<path d="M206.975 149.289C206.982 149.341 206.982 149.393 206.975 149.445C206.975 149.557 206.943 149.701 206.918 149.888C206.862 150.281 206.794 150.855 206.663 151.592C206.532 152.328 206.138 153.183 205.833 154.194C205.527 155.205 205.209 156.365 204.897 157.669C204.585 158.974 204.366 160.421 204.11 161.969C203.906 163.642 203.469 165.278 202.813 166.83C202.451 167.641 202.051 168.458 201.752 169.326C201.461 170.215 201.28 171.138 201.215 172.071C201.073 174.057 200.825 176.034 200.473 177.993C199.693 181.999 198.956 185.818 198.276 189.294C197.596 192.769 196.928 195.877 196.404 198.504C195.88 201.131 195.418 203.221 195.112 204.707C194.956 205.424 194.832 205.986 194.744 206.385C194.707 206.566 194.669 206.71 194.644 206.822C194.636 206.873 194.621 206.924 194.601 206.972C194.597 206.922 194.597 206.872 194.601 206.822C194.601 206.703 194.644 206.56 194.676 206.379C194.757 205.973 194.863 205.405 194.994 204.682C195.287 203.196 195.705 201.081 196.242 198.442C196.778 195.802 197.384 192.688 198.076 189.225C198.769 185.762 199.48 181.931 200.254 177.924C200.607 175.973 200.855 174.005 200.997 172.028C201.066 171.074 201.252 170.133 201.552 169.226C201.864 168.34 202.27 167.522 202.625 166.73C203.282 165.199 203.721 163.584 203.93 161.931C204.198 160.378 204.447 158.936 204.753 157.626C205.017 156.45 205.34 155.288 205.72 154.144C206.045 153.127 206.444 152.272 206.594 151.567C206.744 150.862 206.819 150.263 206.894 149.876L206.975 149.433V149.289Z" fill="#263238"/>
<path d="M249.275 265.577C249.882 265.867 250.424 266.276 250.869 266.779C251.314 267.283 251.652 267.872 251.864 268.51C252.28 269.792 252.398 271.151 252.207 272.485C251.914 275.062 250.454 277.664 248.875 279.73C246.704 277.858 246.205 274.525 246.055 272.834C245.818 270.157 247.022 265.178 249.275 265.577Z" fill="#43A7FF"/>
<path d="M251.397 283.987C251.25 283.249 251.3 282.486 251.542 281.774C251.784 281.062 252.21 280.426 252.776 279.931C253.35 279.447 254.015 279.083 254.732 278.859C255.449 278.635 256.203 278.556 256.95 278.626C257.297 278.623 257.641 278.696 257.958 278.838C258.274 278.98 258.556 279.189 258.785 279.45C258.954 279.733 259.043 280.057 259.043 280.386C259.043 280.716 258.954 281.039 258.785 281.322C258.457 281.884 257.985 282.349 257.418 282.67C255.546 283.849 253.5 284.648 251.372 284.012" fill="#43A7FF"/>
<path d="M248.613 291.892C248.624 291.714 248.649 291.536 248.688 291.362L248.95 289.927C249.196 288.333 249.695 286.789 250.429 285.353C251.194 283.92 252.327 282.716 253.711 281.865C254.134 281.616 254.584 281.417 255.053 281.272C255.179 281.231 255.309 281.2 255.44 281.178C255.485 281.17 255.532 281.17 255.577 281.178C254.95 281.384 254.347 281.658 253.78 281.996C252.444 282.866 251.349 284.059 250.598 285.465C249.873 286.886 249.362 288.406 249.081 289.977C248.95 290.601 248.844 291.062 248.763 291.393C248.729 291.564 248.679 291.731 248.613 291.892Z" fill="#263238"/>
<path d="M248.694 269.453C248.705 269.53 248.705 269.607 248.694 269.684C248.694 269.852 248.694 270.077 248.738 270.345C248.738 270.926 248.8 271.762 248.832 272.792C248.9 274.857 248.95 277.715 248.938 280.872C248.925 284.03 248.85 286.881 248.763 288.947C248.719 289.976 248.682 290.819 248.644 291.393C248.644 291.661 248.613 291.886 248.601 292.054C248.599 292.132 248.589 292.21 248.569 292.285C248.563 292.208 248.563 292.131 248.569 292.054C248.569 291.88 248.569 291.661 248.569 291.387C248.569 290.763 248.607 289.958 248.632 288.941C248.682 286.875 248.738 284.024 248.75 280.866C248.763 277.709 248.75 274.863 248.701 272.798C248.701 271.781 248.669 270.926 248.663 270.352V269.684C248.664 269.606 248.675 269.529 248.694 269.453Z" fill="#263238"/>
<path d="M247.64 285.552C247.377 283.991 246.746 282.515 245.8 281.245C244.854 279.976 243.62 278.95 242.199 278.251C241.469 277.902 240.52 277.671 239.927 278.214C239.334 278.757 239.466 279.724 239.753 280.473C240.387 282.035 241.47 283.373 242.865 284.32C244.26 285.266 245.904 285.777 247.59 285.789" fill="#43A7FF"/>
<path d="M242.549 280.688C242.708 280.744 242.863 280.813 243.011 280.893C243.188 280.976 243.361 281.067 243.529 281.168C243.722 281.293 243.959 281.411 244.19 281.586C244.454 281.762 244.708 281.951 244.952 282.154C245.232 282.385 245.501 282.631 245.757 282.89C246.34 283.486 246.855 284.145 247.292 284.856C247.715 285.576 248.054 286.342 248.302 287.14C248.402 287.514 248.502 287.864 248.558 288.2C248.62 288.512 248.664 288.826 248.689 289.143C248.704 289.403 248.704 289.663 248.689 289.923C248.703 290.12 248.703 290.318 248.689 290.516C248.686 290.683 248.667 290.85 248.633 291.015C248.59 291.015 248.633 290.297 248.533 289.143C248.501 288.832 248.451 288.524 248.384 288.219C248.314 287.869 248.224 287.523 248.115 287.183C247.623 285.611 246.768 284.177 245.619 282.996C245.374 282.736 245.113 282.49 244.839 282.26C244.59 282.035 244.334 281.854 244.103 281.68C243.186 281.024 242.53 280.725 242.549 280.688Z" fill="#263238"/>
<path d="M230.255 246.329C230.216 246.434 230.164 246.535 230.099 246.628C229.975 246.853 229.812 247.127 229.613 247.458C229.413 247.789 229.132 248.25 228.851 248.775C228.571 249.299 228.227 249.873 227.884 250.541C227.185 251.851 226.424 253.461 225.657 255.27C224.842 257.247 224.128 259.263 223.516 261.311C222.892 263.495 222.418 265.61 222.062 267.551C221.707 269.491 221.507 271.257 221.388 272.742C221.313 273.485 221.289 274.159 221.251 274.745C221.214 275.332 221.195 275.85 221.182 276.268C221.17 276.686 221.182 276.973 221.182 277.229C221.186 277.34 221.173 277.452 221.145 277.56C221.121 277.451 221.111 277.34 221.114 277.229C221.114 276.973 221.114 276.655 221.114 276.262C221.114 275.869 221.114 275.332 221.114 274.739C221.114 274.146 221.114 273.491 221.207 272.724C221.327 270.973 221.536 269.23 221.831 267.501C222.196 265.384 222.675 263.288 223.267 261.223C223.881 259.165 224.608 257.143 225.444 255.164C226.231 253.342 227.017 251.745 227.747 250.434C228.096 249.773 228.452 249.186 228.758 248.687C229.064 248.188 229.332 247.745 229.569 247.396C229.806 247.046 229.962 246.815 230.112 246.603C230.262 246.391 230.255 246.322 230.255 246.329Z" fill="#263238"/>
<path d="M220.402 255.328C220.419 255.607 220.406 255.888 220.365 256.164C220.309 256.788 220.234 257.537 220.153 258.448C219.966 260.37 219.728 263.035 219.529 265.974C219.329 268.913 219.21 271.59 219.129 273.518L219.023 275.808C219.029 276.091 219.004 276.373 218.948 276.65C218.903 276.372 218.886 276.09 218.898 275.808C218.898 275.265 218.898 274.485 218.898 273.511C218.898 271.577 219.005 268.9 219.204 265.955C219.404 263.01 219.678 260.339 219.922 258.423C220.047 257.462 220.153 256.688 220.24 256.152C220.27 255.873 220.324 255.597 220.402 255.328Z" fill="#263238"/>
<path d="M210.836 263.484C211.002 263.596 211.153 263.728 211.286 263.877C211.674 264.26 212.041 264.664 212.384 265.088C213.521 266.487 214.464 268.034 215.186 269.687C215.907 271.338 216.398 273.081 216.646 274.866C216.724 275.406 216.772 275.95 216.789 276.495C216.815 276.702 216.815 276.912 216.789 277.119C216.733 277.119 216.677 276.276 216.44 274.929C215.819 271.416 214.373 268.101 212.222 265.257C211.379 264.14 210.793 263.522 210.836 263.484Z" fill="#263238"/>
<path d="M249.057 160.703C249.164 160.789 249.262 160.885 249.35 160.99L250.149 161.851L250.716 162.475C250.922 162.712 251.128 162.981 251.34 163.262C251.79 163.836 252.326 164.466 252.838 165.227L253.662 166.4C253.943 166.812 254.198 167.261 254.485 167.717C255.078 168.622 255.602 169.645 256.176 170.706C258.585 175.388 260.15 180.457 260.8 185.682C260.919 186.886 261.062 188.028 261.087 189.101C261.087 189.644 261.144 190.162 261.144 190.661V192.097C261.144 193.008 261.062 193.831 261.012 194.555C261.012 194.917 260.963 195.26 260.931 195.566C260.9 195.872 260.85 196.153 260.813 196.408C260.744 196.889 260.688 197.276 260.638 197.569C260.629 197.707 260.602 197.844 260.557 197.975C260.549 197.837 260.549 197.7 260.557 197.563C260.588 197.263 260.626 196.876 260.669 196.396C260.669 196.14 260.725 195.859 260.757 195.554C260.788 195.248 260.794 194.93 260.813 194.543C260.844 193.825 260.919 193.001 260.894 192.09V190.661C260.894 190.168 260.838 189.65 260.813 189.12C260.782 188.047 260.632 186.917 260.501 185.719C259.819 180.538 258.268 175.509 255.914 170.843C255.347 169.782 254.835 168.759 254.261 167.86C253.98 167.405 253.724 166.949 253.45 166.538C253.175 166.126 252.907 165.733 252.651 165.358C252.158 164.591 251.634 163.954 251.197 163.374C250.979 163.087 250.779 162.812 250.573 162.575L250.024 161.951L249.275 161.053C249.189 160.945 249.116 160.828 249.057 160.703Z" fill="#263238"/>
<path d="M267.696 173.016C267.639 173.331 267.558 173.642 267.452 173.945C267.271 174.569 267.022 175.393 266.729 176.441C265.201 181.992 264.313 187.699 264.083 193.452C264.039 194.556 264.014 195.448 264.002 196.066C264.014 196.387 263.997 196.709 263.952 197.027C263.895 196.712 263.87 196.392 263.877 196.072C263.877 195.448 263.833 194.556 263.877 193.445C263.977 187.662 264.871 181.919 266.535 176.379C266.86 175.318 267.159 174.47 267.359 173.883C267.445 173.584 267.557 173.294 267.696 173.016Z" fill="#263238"/>
<path d="M269.043 185.234C268.259 186.671 267.573 188.16 266.99 189.69C266.517 191.254 266.15 192.849 265.892 194.463C265.822 193.981 265.822 193.492 265.892 193.009C266.023 191.843 266.281 190.694 266.66 189.584C267.037 188.471 267.537 187.403 268.151 186.401C268.388 185.97 268.689 185.576 269.043 185.234Z" fill="#263238"/>
<path d="M90.8721 275.732L90.0172 295.994L79.0723 295.744L79.8959 275.445L90.8721 275.732Z" fill="#43A7FF"/>
<path d="M84.645 295.104C84.5514 295.104 84.7199 290.661 85.0194 285.195C85.3189 279.729 85.6434 275.298 85.7308 275.305C85.8181 275.311 85.6559 279.748 85.3501 285.214C85.0444 290.68 84.7324 295.11 84.645 295.104Z" fill="#263238"/>
<path d="M90.0734 294.593L79.1347 294.312L79.0723 295.741L90.0172 295.991L90.0734 294.593Z" fill="#263238"/>
<path d="M79.334 289.256C79.4104 289.096 79.5138 288.95 79.6397 288.825C79.9458 288.46 80.2864 288.126 80.6569 287.827C81.2101 287.378 81.8234 287.008 82.4789 286.729C83.6221 286.229 84.8957 286.111 86.1114 286.39C87.3272 286.67 88.4207 287.333 89.2306 288.282C89.5399 288.658 89.7903 289.079 89.9732 289.53C90.054 289.688 90.1048 289.859 90.1229 290.036C89.8155 289.477 89.4562 288.948 89.0497 288.457C88.0114 287.328 86.5693 286.656 85.0373 286.585C83.5031 286.562 82.0075 287.067 80.8004 288.014C79.8706 288.719 79.3777 289.293 79.334 289.256Z" fill="#263238"/>
<g opacity="0.3">
<path d="M79.6596 281.219L79.5723 283.453L90.5359 283.646L90.6108 281.968L79.6596 281.219Z" fill="black"/>
</g>
<path d="M116.624 276.939L116.094 289.275C116.094 289.275 128.449 293.955 128.574 296.245L104.631 296.071L104.675 276.82L116.624 276.939Z" fill="#43A7FF"/>
<path d="M108.857 288.226C108.624 288.293 108.424 288.445 108.296 288.651C108.168 288.858 108.121 289.104 108.164 289.343C108.225 289.578 108.373 289.78 108.579 289.909C108.784 290.038 109.031 290.083 109.269 290.036C109.515 289.963 109.725 289.801 109.859 289.582C109.993 289.363 110.04 289.102 109.993 288.85C109.953 288.726 109.889 288.611 109.805 288.513C109.72 288.414 109.617 288.333 109.5 288.275C109.384 288.216 109.257 288.182 109.127 288.174C108.998 288.166 108.867 288.183 108.745 288.226" fill="#E0E0E0"/>
<path d="M104.625 296.063V294.141L127.8 295.014C127.8 295.014 128.867 295.488 128.743 296.262L104.625 296.063Z" fill="#263238"/>
<path d="M116.306 289.352C116.306 289.47 115.713 289.52 115.133 289.895C114.552 290.269 114.24 290.762 114.128 290.712C114.016 290.662 114.203 289.988 114.914 289.545C115.626 289.102 116.337 289.246 116.306 289.352Z" fill="#263238"/>
<path d="M118.834 290.414C118.834 290.526 118.348 290.726 117.942 291.219C117.537 291.712 117.418 292.242 117.318 292.236C117.218 292.23 117.131 291.562 117.649 290.988C118.167 290.414 118.828 290.302 118.834 290.414Z" fill="#263238"/>
<path d="M120.243 293.454C120.137 293.454 119.975 292.886 120.287 292.243C120.599 291.601 121.142 291.351 121.192 291.451C121.242 291.551 120.899 291.888 120.655 292.418C120.412 292.949 120.362 293.442 120.243 293.454Z" fill="#263238"/>
<path d="M116.119 286.508C116.07 286.614 115.495 286.446 114.871 286.508C114.247 286.571 113.68 286.752 113.623 286.652C113.567 286.552 114.06 286.134 114.871 286.097C115.683 286.059 116.176 286.409 116.119 286.508Z" fill="#263238"/>
<path d="M116.568 283.852C116.172 283.961 115.754 283.961 115.358 283.852C114.927 283.768 114.508 283.634 114.11 283.452C113.869 283.346 113.638 283.22 113.417 283.078C113.282 283.001 113.16 282.905 113.055 282.791C112.979 282.707 112.933 282.6 112.924 282.487C112.914 282.374 112.943 282.262 113.005 282.167C113.063 282.083 113.141 282.015 113.231 281.968C113.321 281.922 113.421 281.898 113.523 281.898C113.677 281.902 113.83 281.926 113.979 281.967C114.236 282.032 114.486 282.119 114.727 282.229C115.134 282.417 115.509 282.668 115.838 282.972C116.393 283.49 116.581 283.933 116.537 283.958C116.493 283.983 116.212 283.621 115.651 283.19C115.32 282.939 114.96 282.729 114.578 282.566C114.353 282.474 114.121 282.399 113.885 282.342C113.629 282.273 113.411 282.273 113.348 282.385C113.286 282.497 113.348 282.448 113.348 282.522C113.424 282.604 113.513 282.674 113.61 282.728C113.811 282.863 114.019 282.986 114.234 283.097C114.608 283.286 114.999 283.441 115.401 283.558C115.797 283.628 116.187 283.726 116.568 283.852Z" fill="#263238"/>
<path d="M116.412 284.024C116.182 283.68 116.072 283.269 116.1 282.857C116.081 282.409 116.141 281.961 116.275 281.534C116.355 281.281 116.459 281.036 116.587 280.804C116.651 280.641 116.757 280.497 116.894 280.388C117.03 280.278 117.194 280.207 117.367 280.18C117.474 280.184 117.578 280.218 117.666 280.279C117.754 280.34 117.824 280.424 117.866 280.523C117.929 280.663 117.969 280.813 117.984 280.966C118.039 281.326 118.02 281.694 117.929 282.047C117.838 282.399 117.676 282.73 117.454 283.019C116.98 283.643 116.487 283.78 116.481 283.743C116.474 283.705 116.849 283.456 117.217 282.857C117.429 282.514 117.564 282.128 117.61 281.727C117.641 281.495 117.641 281.26 117.61 281.028C117.573 280.772 117.479 280.567 117.379 280.592C117.279 280.616 117.055 280.779 116.955 280.985C116.835 281.182 116.735 281.391 116.655 281.609C116.517 281.996 116.435 282.402 116.412 282.813C116.356 283.568 116.474 284.005 116.412 284.024Z" fill="#263238"/>
<g opacity="0.3">
<path d="M104.619 284.219L104.644 286.958H116.194V284.475L104.619 284.219Z" fill="black"/>
</g>
<path d="M97.9797 198.445L94.4416 232.552L91.9019 283.914H78.3486L77.9805 174.602L116.787 177.366L124.83 234.718L117.867 284.919H102.997L106.472 237.189L97.9797 198.445Z" fill="#263238"/>
<path d="M97.9668 198.43C98.7651 199.376 99.6486 200.247 100.606 201.032C101.487 201.9 102.443 202.687 103.464 203.384C102.669 202.437 101.788 201.566 100.831 200.782C99.9493 199.913 98.9907 199.126 97.9668 198.43Z" fill="#455A64"/>
<path d="M98.0236 197.767C98.0787 196.311 98.0537 194.853 97.9487 193.399C97.9448 191.94 97.8615 190.482 97.6991 189.031C97.5287 190.481 97.4995 191.944 97.6118 193.399C97.6083 194.865 97.7462 196.328 98.0236 197.767Z" fill="#455A64"/>
<path d="M93.5369 185.033C93.4643 185.026 93.3911 185.026 93.3185 185.033L92.6508 184.996L90.0799 184.871L80.8947 184.484H80.7324V184.64C80.7324 187.511 80.7324 190.756 80.7324 194.181V194.481L80.8385 194.525L86.8164 196.914H86.8726H86.9287L92.214 195.08L92.2951 195.049V194.961C92.682 191.985 93.0065 189.508 93.2374 187.729C93.3372 186.899 93.4183 186.232 93.4807 185.739C93.5147 185.513 93.5355 185.286 93.5431 185.058C93.5244 185.122 93.5118 185.186 93.5057 185.252C93.5057 185.402 93.4495 185.576 93.4121 185.789C93.331 186.288 93.2249 186.962 93.0939 187.804C92.8318 189.551 92.4699 191.997 92.0206 194.924L92.1142 194.812L86.8164 196.609H86.9287L80.9571 194.2L81.0631 194.356V194.169C81.0631 190.743 81.0631 187.498 81.0631 184.628L80.9071 184.784L89.9926 185.009L92.6071 185.052H93.5619L93.5369 185.033Z" fill="#455A64"/>
<path d="M113.105 185.198H112.906H112.282L109.954 185.129L101.574 184.93H101.418V185.086C101.512 187.919 101.611 191.176 101.724 194.652V194.683L101.792 194.733L102.766 195.357L107.677 198.558L107.764 198.614L107.851 198.564L113.386 195.188L113.455 195.145V195.063C113.349 192.093 113.261 189.616 113.199 187.838C113.168 187.014 113.137 186.346 113.118 185.853C113.099 185.36 113.074 185.167 113.068 185.173C113.06 185.239 113.06 185.306 113.068 185.373V185.947C113.068 186.452 113.068 187.126 113.068 187.969C113.068 189.722 113.13 192.174 113.174 195.107L113.243 194.989L107.683 198.321H107.858L102.959 195.095L101.992 194.471L102.067 194.608C101.942 191.132 101.824 187.869 101.717 185.036L101.568 185.192L109.861 185.235H112.85L113.105 185.198Z" fill="#455A64"/>
<path d="M82.168 200.649C82.7818 200.695 83.3989 200.677 84.0088 200.593C85.1382 200.512 86.6982 200.356 88.4142 200.131C90.1302 199.906 91.6777 199.663 92.7822 199.457C93.3915 199.377 93.9914 199.237 94.5731 199.039C93.9596 199.047 93.3479 199.107 92.7448 199.22L88.3768 199.8L84.0088 200.356C83.388 200.402 82.7722 200.5 82.168 200.649Z" fill="#455A64"/>
<path d="M82.4863 238.673C82.4863 238.673 82.5425 238.866 82.8046 239.103C83.1981 239.415 83.6878 239.58 84.1898 239.571C84.9345 239.553 85.6505 239.28 86.2178 238.797C86.8975 238.232 87.5241 237.605 88.0898 236.925C89.1204 235.725 90.0375 234.432 90.8292 233.063C91.1859 232.511 91.475 231.918 91.6903 231.297C91.3082 231.825 90.9541 232.373 90.6295 232.938C89.7827 234.247 88.8488 235.498 87.834 236.682C87.2901 237.343 86.6932 237.959 86.0494 238.523C85.5396 238.976 84.8952 239.25 84.2148 239.303C83.7552 239.333 83.2979 239.215 82.9106 238.966C82.6174 238.816 82.5113 238.654 82.4863 238.673Z" fill="#455A64"/>
<path d="M109.256 239.863C109.256 239.863 109.256 240.038 109.437 240.3C109.676 240.664 109.996 240.967 110.373 241.186C110.939 241.519 111.587 241.69 112.245 241.679C113.042 241.645 113.815 241.4 114.485 240.967C115.655 240.157 116.586 239.047 117.181 237.754C117.47 237.252 117.694 236.715 117.848 236.156C117.52 236.63 117.226 237.126 116.969 237.641C116.337 238.854 115.423 239.896 114.304 240.68C113.687 241.084 112.975 241.321 112.239 241.367C111.637 241.389 111.039 241.256 110.504 240.98C110.01 240.705 109.583 240.324 109.256 239.863Z" fill="#455A64"/>
<path d="M108.389 234.719C108.718 234.996 109.097 235.208 109.506 235.343C110.468 235.748 111.495 235.976 112.538 236.017C113.595 236.066 114.652 235.924 115.658 235.599C116.076 235.487 116.47 235.299 116.819 235.043C115.448 235.464 114.022 235.674 112.588 235.667C111.148 235.569 109.731 235.25 108.389 234.719Z" fill="#455A64"/>
<path d="M97.4797 115.538L82.8594 115.357L84.4943 103.339C84.4943 103.339 83.4959 103.133 83.4272 97.9035C83.3586 92.6744 83.109 83.7886 83.109 83.7886C86.1933 82.5093 89.5562 82.0501 92.8705 82.4558C96.1849 82.8615 99.3378 84.1182 102.022 86.1036L102.827 86.7276L97.4797 115.538Z" fill="#FFBE9D"/>
<path d="M101.13 93.1177C101.224 93.0802 104.874 92.0569 104.731 95.6137C104.587 99.1705 100.918 98.3343 100.918 98.2282C100.918 98.1222 101.13 93.1177 101.13 93.1177Z" fill="#FFBE9D"/>
<path d="M83.7397 92.3502C83.6461 92.3127 80.3514 91.4578 80.4637 95.0271C80.5761 98.5964 84.2764 97.754 84.2826 97.6479C84.2889 97.5418 83.7397 92.3502 83.7397 92.3502Z" fill="#FFBE9D"/>
<path d="M102.334 92.7153C101.785 95.7105 101.891 97.283 101.38 99.2861C100.569 102.45 98.9399 104.902 95.9883 106.462C93.0368 108.022 89.037 108.016 86.5035 105.838C84.7376 104.34 83.4896 102.656 83.2275 100.403C82.9655 98.1504 82.7096 94.163 82.6909 91.9104C82.6909 87.8294 82.3789 83.9294 82.3789 83.9294L94.4533 81.8203L101.317 85.764L102.334 92.7153Z" fill="#263238"/>
<path d="M89.8555 108.265C90.5318 108.513 91.2622 108.576 91.9708 108.446C92.689 108.426 93.3881 108.21 93.9926 107.822C93.9926 107.735 93.0691 108.003 91.9334 108.121C90.7977 108.24 89.8867 108.171 89.8555 108.265Z" fill="#263238"/>
<path d="M101.748 97.8075C102.097 94.7374 102.328 91.2305 102.828 87.992C103.015 86.744 103.452 85.028 103.352 83.8049C103.315 82.5671 103.044 81.3475 102.553 80.2107C102.186 79.5079 101.666 78.8967 101.031 78.4225C100.396 77.9483 99.6618 77.6232 98.8838 77.4713C98.098 77.3257 97.2899 77.3536 96.516 77.553C95.7421 77.7524 95.0211 78.1185 94.4035 78.6257C93.9382 77.9913 93.3 77.5044 92.5652 77.2233C91.8303 76.9422 91.0301 76.8788 90.2602 77.0408C89.5013 77.215 88.8111 77.6103 88.2768 78.1768C87.7426 78.7432 87.3883 79.4554 87.2587 80.2232C86.8106 79.8358 86.2544 79.5952 85.6653 79.5338C85.0761 79.4725 84.4823 79.5933 83.964 79.88C83.4681 80.1786 83.0829 80.6306 82.8667 81.1676C82.6505 81.7047 82.6152 82.2975 82.7659 82.8564C82.3372 82.9271 81.9318 83.1001 81.5842 83.3608C81.2366 83.6216 80.957 83.9623 80.7691 84.354C80.5953 84.7449 80.5224 85.1731 80.5573 85.5995C80.5922 86.0258 80.7337 86.4365 80.9688 86.7939C81.5304 87.6238 82.5413 88.0793 83.1528 88.8718C83.5019 89.3297 83.7063 89.8814 83.7396 90.4562C83.773 91.031 83.6338 91.6027 83.34 92.0979" fill="#263238"/>
<path d="M84.9766 86.734C84.9958 86.8535 85.0429 86.9667 85.1138 87.0647C85.2862 87.3698 85.5251 87.6321 85.8127 87.8322C86.2708 88.159 86.8228 88.3276 87.3852 88.3127C87.7498 88.3013 88.1085 88.2176 88.4405 88.0666C88.7726 87.9156 89.0714 87.7002 89.3196 87.4329L89.0638 87.3642C89.1565 87.7765 89.354 88.1578 89.6371 88.4715C89.9202 88.7852 90.2794 89.0207 90.6799 89.1551C91.1267 89.322 91.6071 89.3791 92.0806 89.3215C92.5541 89.264 93.0068 89.0935 93.4006 88.8244C94.106 88.3576 94.6438 87.6777 94.9356 86.8838L94.6423 86.9212C94.9524 87.3595 95.3615 87.7184 95.8364 87.9689C96.3113 88.2194 96.8386 88.3543 97.3754 88.3626C97.8001 88.3721 98.2224 88.297 98.6177 88.1417C99.013 87.9863 99.3734 87.7539 99.678 87.4578C100.071 87.0844 100.358 86.6126 100.508 86.0913C100.574 85.9098 100.6 85.7159 100.583 85.5234C100.583 85.5234 100.527 85.7231 100.402 86.0601C100.214 86.5381 99.9171 86.9655 99.5345 87.3081C98.9466 87.8356 98.1773 88.1151 97.3879 88.0881C96.8961 88.0713 96.4148 87.9408 95.9818 87.707C95.5488 87.4732 95.1757 87.1423 94.8919 86.7402L94.7172 86.4719L94.5987 86.7714C94.3239 87.4959 93.8312 88.1172 93.1884 88.5498C92.8395 88.7899 92.4383 88.9429 92.0181 88.9961C91.598 89.0493 91.1712 89.0011 90.7735 88.8556C90.4217 88.7418 90.1045 88.5407 89.8514 88.2712C89.5982 88.0017 89.4174 87.6725 89.3258 87.3143L89.2759 87.0148L89.07 87.2457C88.6766 87.6824 88.1417 87.9663 87.5596 88.0474C86.9774 88.1284 86.3853 88.0014 85.8876 87.6887C85.5245 87.433 85.215 87.1087 84.9766 86.734Z" fill="#455A64"/>
<path d="M84.9999 85.2996C85.0694 84.8317 85.2444 84.3857 85.5116 83.9954C85.8192 83.5841 86.2605 83.2928 86.7596 83.1717C87.0732 83.1004 87.3981 83.0935 87.7145 83.1515C88.0309 83.2094 88.3323 83.3309 88.6004 83.5087L88.8937 83.7146L88.8625 83.3652C88.8337 83.017 88.8761 82.6667 88.9873 82.3356C89.1084 81.9714 89.3026 81.6358 89.558 81.3494C89.8134 81.0629 90.1245 80.8315 90.4724 80.6695C91.0622 80.4134 91.7193 80.3564 92.3444 80.5072C92.9237 80.6718 93.4588 80.9639 93.9106 81.3621C93.9106 81.3621 93.842 81.1936 93.6111 80.9628C93.2679 80.6471 92.8554 80.4162 92.4068 80.2888C91.6521 80.057 90.8365 80.1312 90.136 80.4955C89.4356 80.8597 88.9064 81.4848 88.6628 82.2357C88.5395 82.6094 88.4949 83.0046 88.5317 83.3964L88.7938 83.2466C88.4859 83.0448 88.1393 82.9095 87.7761 82.8494C87.413 82.7892 87.0412 82.8055 86.6847 82.8972C86.1215 83.0423 85.6323 83.3914 85.3119 83.8768C85.1029 84.1833 84.9741 84.5373 84.9375 84.9064C84.9437 85.1623 84.9812 85.2996 84.9999 85.2996Z" fill="#455A64"/>
<path d="M92.7007 85.4007C92.7444 85.4007 92.7007 85.201 92.7007 84.9139C92.7373 84.5342 92.8681 84.1695 93.0814 83.8531C93.3247 83.485 93.6118 83.1106 93.7802 82.9047C93.9487 82.6987 94.1359 82.8547 94.1671 82.836C94.1983 82.8173 94.1671 82.7549 94.086 82.6925C94.015 82.6537 93.9344 82.6361 93.8537 82.6416C93.773 82.6471 93.6955 82.6756 93.6305 82.7237C93.476 82.8448 93.3358 82.9829 93.2124 83.1356C93.0575 83.3078 92.9157 83.4914 92.7881 83.6847C92.5418 84.0519 92.4274 84.4919 92.4636 84.9327C92.5135 85.2571 92.6633 85.4194 92.7007 85.4007Z" fill="#455A64"/>
<path d="M99.8388 80.9061C99.8762 80.9061 99.8388 80.6253 99.6141 80.2821C99.476 80.0537 99.2856 79.8612 99.0588 79.7205C98.7665 79.5391 98.4197 79.4662 98.0791 79.5146C97.4961 79.6145 96.9723 79.931 96.6127 80.4007C96.3444 80.7314 96.2196 80.956 96.2508 80.981C96.282 81.0059 96.4879 80.8312 96.7874 80.5567C97.1502 80.1873 97.6153 79.9352 98.1228 79.8328C98.37 79.8084 98.6193 79.8491 98.846 79.9509C99.0726 80.0527 99.2686 80.2121 99.4145 80.4132C99.6953 80.694 99.8388 80.9248 99.8388 80.9061Z" fill="#455A64"/>
<path d="M97.9667 96.0938C99.0762 94.7254 99.6859 93.0195 99.6952 91.2578C99.5954 91.2578 99.4019 92.381 98.9277 93.7101C98.4534 95.0392 97.8981 96.0189 97.9667 96.0938Z" fill="#455A64"/>
<path d="M96.3633 96.9273C96.7753 96.4556 97.0798 95.8999 97.2556 95.2987C97.5332 94.7416 97.6845 94.1301 97.6987 93.5078C97.3715 94.0302 97.1174 94.595 96.9436 95.1864C96.6662 95.7352 96.4707 96.3218 96.3633 96.9273Z" fill="#455A64"/>
<path d="M86.1869 97.1719C86.0158 98.2304 86.1613 99.3158 86.605 100.292C86.9597 101.33 87.6105 102.241 88.477 102.913C87.8958 102.045 87.3866 101.131 86.9544 100.18C86.6178 99.1994 86.3611 98.1935 86.1869 97.1719Z" fill="#455A64"/>
<path d="M84.5643 94.5625C84.1767 95.4531 84.0934 96.4465 84.3272 97.3892C84.4532 98.3589 84.8912 99.2613 85.5752 99.9601C85.1946 99.1124 84.8877 98.2335 84.6579 97.3331C84.5434 96.4142 84.512 95.487 84.5643 94.5625Z" fill="#455A64"/>
<path d="M65.0139 144.594V159.57C65.0139 159.57 76.2459 184.393 76.2459 184.012C76.2459 183.631 80.2583 168.343 80.2583 168.343L75.7405 156.419L75.3162 148.631L66.0435 130.086C66.0435 130.086 63.741 142.566 64.1154 143.315C64.3459 143.786 64.6491 144.217 65.0139 144.594Z" fill="#43A7FF"/>
<path d="M79.0046 114.856C79.0046 114.856 68.796 120.154 67.5355 121.789C66.275 123.424 66.0254 130.107 66.0254 130.107L79.0046 156.065L79.6286 166.524C79.6286 166.524 75.7224 174.667 75.7224 180.358V180.982L75.0984 188.794L90.6984 190.179C90.6984 190.179 91.5844 185.893 91.5844 186.273C91.5844 186.654 92.7201 190.179 92.7201 190.179H118.56L117.605 172.976L113.206 146.418C113.206 146.418 115.078 131.186 115.172 130.631C115.334 129.645 131.695 122.388 131.695 122.388L139.402 118.226C140.385 117.691 141.206 116.901 141.779 115.939C142.352 114.978 142.656 113.879 142.659 112.76C142.655 111.603 142.33 110.469 141.72 109.486C141.109 108.504 140.237 107.71 139.202 107.194L117.455 96.4297L112.395 104.941L119.022 109.197L123.77 112.485L110.598 113.733C110.598 113.733 108.258 110.676 107.253 110.676C106.248 110.676 98.1801 112.548 98.1801 112.548L98.3049 110.532C98.3049 110.532 96.1646 108.136 93.7684 108.261C91.3723 108.386 81.2884 111.287 81.2884 111.287L79.0046 114.856Z" fill="#43A7FF"/>
<path d="M115.639 99.4774L109.967 96.1764L101.337 91.4964C101.337 91.4964 98.4914 89.3374 97.3682 89.3998C96.8911 89.4866 96.4377 89.6733 96.0377 89.9475C95.6376 90.2217 95.3 90.5773 95.047 90.991C94.997 91.2468 95.465 91.721 96.1889 91.5214C96.426 91.459 97.0874 90.9785 97.4369 91.0534C98.1061 91.2117 98.6851 91.6291 99.0468 92.214C99.0915 92.2716 99.119 92.3407 99.1261 92.4133C99.1333 92.4859 99.1198 92.559 99.0872 92.6242C99.0546 92.6894 99.0042 92.7441 98.9418 92.7819C98.8795 92.8198 98.8077 92.8392 98.7348 92.838C98.7348 92.838 93.8489 91.59 92.0268 92.5884C91.8119 92.6928 91.643 92.8726 91.5521 93.0935C91.4612 93.3145 91.4547 93.5611 91.5338 93.7865C91.6649 94.1047 92.0143 94.4105 92.8692 94.2233C94.5852 93.8926 97.4181 95.2092 97.4181 95.2092C97.4181 95.2092 91.0783 95.0033 89.9926 95.5462C89.562 95.7583 89.094 97.1436 90.3857 97.2871C91.9082 97.4494 94.9097 97.387 94.9097 97.387C94.9097 97.387 97.7426 97.7801 97.2871 98.3105C96.8316 98.8409 92.4823 98.8846 92.1516 98.9345C91.8209 98.9844 90.3482 98.9345 90.4293 100.133C90.473 100.813 91.746 101.243 93.3933 101.187C94.7911 101.143 99.1279 101.056 99.6333 101.849C100.139 102.641 99.7956 103.215 99.3962 103.415C98.1276 103.727 96.8359 103.935 95.5337 104.039C94.9596 104.039 94.2046 105.1 95.6023 105.437C97.1249 105.811 98.4103 105.505 99.727 105.505C101.044 105.505 102.728 105.611 106.422 104.164C106.422 104.164 108.918 103.034 112.313 104.981L115.639 99.4774Z" fill="#FFBE9D"/>
<path d="M97.5441 112.669C97.5441 112.762 93.5692 113.293 88.6396 113.917C83.71 114.541 79.6977 114.928 79.6914 114.834C79.6852 114.74 83.6663 114.21 88.6021 113.586C93.538 112.962 97.5378 112.581 97.5441 112.669Z" fill="#263238"/>
<path d="M96.6562 167.856C96.7203 167.733 96.7934 167.614 96.8748 167.501L97.5611 166.508C98.1851 165.654 99.0151 164.399 100.057 162.827C101.099 161.254 102.254 159.37 103.495 157.211C104.737 155.052 105.991 152.674 107.283 150.11C108.575 147.545 109.629 145.055 110.571 142.765C111.514 140.475 112.275 138.397 112.88 136.613C113.486 134.828 113.96 133.405 114.266 132.401C114.415 131.933 114.534 131.552 114.627 131.252C114.667 131.118 114.717 130.986 114.777 130.859C114.764 130.999 114.737 131.137 114.696 131.271C114.615 131.571 114.515 131.958 114.384 132.438C114.116 133.455 113.685 134.934 113.099 136.688C112.512 138.441 111.763 140.575 110.846 142.878C109.929 145.18 108.83 147.682 107.576 150.253C106.322 152.824 105.005 155.245 103.757 157.361C102.509 159.476 101.305 161.385 100.25 162.939C99.196 164.493 98.3162 165.729 97.6797 166.558L96.9496 167.519C96.8657 167.643 96.7671 167.756 96.6562 167.856Z" fill="#263238"/>
<path d="M75.5027 184.043C75.4944 183.926 75.4944 183.81 75.5027 183.693C75.5027 183.444 75.5589 183.107 75.5963 182.695C75.6899 181.828 75.8709 180.561 76.1517 178.982C76.9486 174.734 78.0646 170.552 79.4901 166.471V166.533C79.3528 164.362 79.2093 162.022 79.0658 159.594C78.9909 158.39 78.9222 157.205 78.8536 156.075V156.138C76.0768 150.727 73.7805 145.879 72.2142 142.36C71.428 140.606 70.829 139.177 70.4296 138.191C70.2486 137.717 70.0989 137.336 69.9866 137.049C69.9408 136.922 69.9074 136.79 69.8867 136.656C69.9612 136.777 70.0239 136.904 70.0739 137.037L70.5669 138.154C71.0037 139.121 71.6277 140.538 72.4389 142.278C74.055 145.767 76.3888 150.603 79.1656 156.006V156.038C79.2342 157.167 79.3091 158.353 79.3778 159.557C79.5275 161.984 79.6648 164.324 79.7896 166.496V166.527C78.3571 170.588 77.2083 174.743 76.3514 178.963C76.0394 180.536 75.8334 181.796 75.7274 182.658L75.5776 183.65C75.5757 183.784 75.5504 183.917 75.5027 184.043Z" fill="#263238"/>
<path d="M92.4516 178.945C92.3256 180.868 92.0944 182.782 91.7589 184.68C91.529 186.59 91.1915 188.486 90.748 190.358C90.8705 188.437 91.1017 186.525 91.4407 184.63C91.671 182.718 92.0085 180.82 92.4516 178.945Z" fill="#263238"/>
<path d="M110.94 125.975C110.809 125.841 110.698 125.69 110.609 125.526C110.415 125.226 110.153 124.777 109.854 124.209C109.083 122.72 108.47 121.153 108.026 119.536C107.577 117.919 107.297 116.261 107.189 114.587C107.152 113.963 107.146 113.427 107.158 113.071C107.15 112.884 107.166 112.698 107.208 112.516C107.264 112.516 107.283 113.302 107.42 114.569C107.757 117.873 108.649 121.096 110.06 124.103C110.385 124.712 110.679 125.337 110.94 125.975Z" fill="#263238"/>
<g opacity="0.3">
<path d="M97.3438 166.659C97.9858 166.93 98.6822 167.047 99.3777 167.002C100.073 166.956 100.748 166.749 101.35 166.397C102.544 165.678 103.59 164.738 104.432 163.626C110.982 155.671 114.25 145.516 113.568 135.234C109.882 146.203 104.589 156.564 97.8616 165.979" fill="black"/>
</g>
<g opacity="0.3">
<path d="M70.398 137.953C69.8528 137.301 69.1537 136.795 68.3638 136.48C67.9966 136.336 67.5877 136.34 67.2234 136.491C66.8591 136.643 66.5677 136.93 66.4107 137.292C66.343 137.714 66.3993 138.148 66.5729 138.539C67.7772 142.09 69.019 145.722 71.3777 148.636C71.8026 149.107 72.3023 149.506 72.8566 149.815C73.4182 150.171 74.947 150.483 75.1591 149.878C75.2687 149.363 75.2687 148.832 75.1591 148.318C75.1591 148.318 71.7958 141.454 70.1671 137.928" fill="black"/>
</g>
<g opacity="0.3">
<path d="M123.633 112.477C125.134 112.831 126.7 112.803 128.188 112.396C125.848 110.624 122.797 110.237 119.889 109.844L123.633 112.477Z" fill="black"/>
</g>
<path d="M133.268 112.735C132.784 112.783 132.297 112.783 131.814 112.735L128.332 112.635L124.85 112.579C124.366 112.6 123.881 112.573 123.402 112.498C123.875 112.39 124.359 112.339 124.844 112.348C125.736 112.305 126.972 112.28 128.338 112.311C129.705 112.342 130.94 112.423 131.833 112.504C132.318 112.525 132.8 112.602 133.268 112.735Z" fill="#263238"/>
<path d="M68.6387 154.746C68.6387 154.709 68.9694 154.933 69.4436 155.295C70.0349 155.78 70.6848 156.189 71.378 156.512C72.0708 156.813 72.8341 156.912 73.5808 156.799C74.1486 156.693 74.4606 156.481 74.4918 156.531C74.523 156.581 74.236 156.849 73.6307 157.024C72.8365 157.218 72.0005 157.143 71.2532 156.812C70.529 156.478 69.8665 156.025 69.2939 155.47C68.8696 155.027 68.6387 154.746 68.6387 154.746Z" fill="#263238"/>
<path opacity="0.3" d="M92.4519 180.125L95.522 190.209H92.7389L91.4473 185.672L92.4519 180.125Z" fill="black"/>
</svg>
