<svg width="312" height="312" viewBox="0 0 312 312" fill="none" xmlns="http://www.w3.org/2000/svg">
<path d="M281.624 129.619C277.256 121.844 269.674 115.18 260.52 113.963C251.104 112.715 241.869 117.32 234.48 123.042C227.06 128.765 220.721 135.766 215.76 143.716C212.871 148.371 209.92 153.775 204.485 155.291C199.368 156.714 193.989 154.043 189.864 150.811C185.74 147.578 182.033 143.635 177.06 141.794C164.106 136.995 149.654 148.502 136.2 145.182C124.613 142.324 119.065 130.206 111.864 121.064C99.971 106.014 79.3041 97.315 59.8478 100.472C40.3915 103.63 25.5839 136.334 22.907 155.01L289.411 154.923C287.739 146.237 286.01 137.388 281.624 129.619Z" fill="#EBEBEB"/>
<path d="M73.2263 62.156C73.4634 60.4151 71.0111 58.9861 69.1641 58.8364C68.2824 58.8721 67.3998 58.7966 66.537 58.6117C64.7337 57.9877 64.041 55.6477 62.2502 54.9052C60.9335 54.3498 59.4172 54.8428 58.1442 55.4855C56.8713 56.1282 55.6045 56.9394 54.1756 57.0268C52.9276 57.1079 51.586 56.6461 50.5002 57.2514C49.6953 57.7069 49.2522 58.6367 48.5222 59.1858C47.7494 59.6718 46.8515 59.9213 45.9388 59.9034C45.0317 59.8812 44.1283 60.0272 43.2743 60.334C42.8508 60.4992 42.492 60.7968 42.2514 61.1825C42.0107 61.5681 41.9011 62.0213 41.9389 62.4743L73.2263 62.156Z" fill="#F5F5F5"/>
<path d="M156.143 78.7107C156.381 76.9698 153.928 75.5408 152.081 75.391C151.2 75.4268 150.317 75.3513 149.454 75.1664C147.651 74.5424 146.958 72.2024 145.167 71.4598C143.851 70.9045 142.334 71.3974 141.061 72.0402C139.788 72.6829 138.522 73.4941 137.093 73.5877C135.845 73.6626 134.503 73.207 133.424 73.8123C132.612 74.2616 132.176 75.1914 131.446 75.7467C130.667 76.2237 129.768 76.4663 128.856 76.4456C127.948 76.4224 127.044 76.5705 126.191 76.8824C125.769 77.0473 125.411 77.3439 125.17 77.7284C124.93 78.1128 124.82 78.5645 124.856 79.0165L156.143 78.7107Z" fill="#F5F5F5"/>
<path d="M292.094 77.6877C292.525 74.5677 288.107 71.9781 284.781 71.7098C283.196 71.585 281.555 71.8284 280.051 71.3042C276.8 70.1685 275.502 65.969 272.326 64.6274C269.955 63.629 267.228 64.5213 264.925 65.6757C262.623 66.8301 260.351 68.2903 257.787 68.4588C255.553 68.5961 253.126 67.7724 251.166 68.8644C249.712 69.6756 248.951 71.3604 247.603 72.3463C246.255 73.3322 244.577 73.5194 242.948 73.5943C241.319 73.6692 239.628 73.7004 238.143 74.3805C236.658 75.0607 235.435 76.6269 235.741 78.2306L292.094 77.6877Z" fill="#EBEBEB"/>
<path d="M163.825 46.6259C164.368 42.6635 158.783 39.4063 154.577 39.0693C152.574 38.9071 150.496 39.2128 148.599 38.5514C144.487 37.1162 142.846 31.8059 138.834 30.1149C135.832 28.8669 132.382 29.9776 129.474 31.4378C126.566 32.8979 123.696 34.745 120.432 34.9447C117.605 35.1256 114.535 34.0773 112.064 35.4626C110.192 36.4859 109.256 38.5826 107.559 39.8306C105.862 41.0786 103.734 41.3157 101.668 41.428C99.6029 41.5403 97.475 41.5591 95.5968 42.4202C93.7186 43.2813 92.171 45.2656 92.5579 47.2936L163.825 46.6259Z" fill="#EBEBEB"/>
<path d="M11.6251 227.375L13.6094 209.173L126.822 216.58C129.276 216.742 131.701 215.968 133.608 214.414C135.515 212.861 136.762 210.642 137.099 208.206L144.481 154.754H170.146L181.247 209.423C181.708 211.698 182.968 213.733 184.799 215.161C186.63 216.588 188.912 217.313 191.231 217.204L297.586 212.337V231.444L204.204 247.356C202.021 247.572 199.904 248.228 197.981 249.283C196.057 250.339 194.367 251.772 193.012 253.498C191.657 255.223 190.664 257.204 190.095 259.323C189.525 261.442 189.389 263.654 189.696 265.826L194.064 296.964H128.238L130.903 268.453C131.396 263.187 129.868 257.93 126.63 253.749C123.391 249.567 118.684 246.773 113.462 245.933L11.6251 227.375Z" fill="#E0E0E0"/>
<path d="M162.209 204.021H156L157.473 177.363L160.168 177.37L162.209 204.021Z" fill="#F5F5F5"/>
<path d="M164.443 265.545H156L157.504 232.535L162.121 232.548L164.443 265.545Z" fill="#F5F5F5"/>
<path d="M202.5 233.889L201.901 228.728L234.799 225.852L235.691 229.277L202.5 233.889Z" fill="#F5F5F5"/>
<path d="M269.181 226.794L268.588 221.633L297.579 219.094V222.844L269.181 226.794Z" fill="#F5F5F5"/>
<path d="M117.705 230.813L118.304 225.652L85.4068 222.77L84.5145 226.202L117.705 230.813Z" fill="#F5F5F5"/>
<path d="M44.8157 222.768L45.29 218.65L13.0229 214.531L12.6111 218.294L44.8157 222.768Z" fill="#F5F5F5"/>
<path d="M200.129 205.415H194.763V42.6754C194.763 41.9638 195.046 41.2813 195.549 40.7781C196.052 40.2749 196.734 39.9922 197.446 39.9922C198.157 39.9938 198.839 40.2771 199.342 40.7799C199.844 41.2827 200.128 41.9643 200.129 42.6754V205.415Z" fill="#263238"/>
<path d="M171.999 108.512L186.869 107.133L223.629 126.92L221.171 131.481L216.534 131.463L219.623 134.364L216.26 140.61L179.737 120.954L171.999 108.512Z" fill="#106FA4"/>
<path opacity="0.3" d="M171.999 108.512L186.869 107.133L223.629 126.92L221.171 131.481L216.534 131.463L219.623 134.364L216.26 140.61L179.737 120.954L171.999 108.512Z" fill="black"/>
<path d="M171.544 106.625L182.04 105.651C183.221 105.541 184.408 105.782 185.453 106.344L220.609 125.264L218.15 129.831H213.514L216.603 132.733L213.24 138.973L178.133 120.078C177.209 119.579 176.43 118.848 175.874 117.957L170.352 109.046C170.208 108.817 170.125 108.555 170.111 108.285C170.097 108.014 170.153 107.745 170.272 107.503C170.392 107.26 170.571 107.052 170.794 106.898C171.016 106.744 171.275 106.65 171.544 106.625Z" fill="#106FA4"/>
<g opacity="0.2">
<path d="M211.729 138.195C211.602 137.66 211.391 137.148 211.105 136.678C210.225 135.464 209.109 134.439 207.823 133.664C203.757 130.816 199.415 128.383 194.863 126.401C192.198 125.234 189.577 124.323 187.219 123.425C185.112 122.66 183.052 121.775 181.047 120.773C179.697 120.091 178.41 119.289 177.204 118.376C176.773 118.058 176.467 117.752 176.249 117.596C176.134 117.509 176.029 117.408 175.937 117.297C175.937 117.297 176.411 117.659 177.278 118.27C178.504 119.142 179.8 119.91 181.153 120.567C183.162 121.537 185.222 122.398 187.325 123.144C189.684 124.024 192.317 124.928 194.994 126.102C199.566 128.092 203.913 130.565 207.96 133.477C209.253 134.277 210.363 135.34 211.218 136.597C211.431 136.954 211.583 137.344 211.667 137.752C211.694 137.856 211.711 137.962 211.717 138.07C211.729 138.157 211.736 138.195 211.729 138.195Z" fill="black"/>
<path d="M172.792 106.703C172.629 107.37 172.612 108.064 172.742 108.737C172.903 109.523 173.226 110.267 173.69 110.921C174.32 111.777 175.068 112.54 175.912 113.186C178.1 114.906 180.392 116.487 182.776 117.923C185.465 119.558 188.517 121.192 191.755 122.846L208.341 131.32C210.432 132.412 212.141 133.292 213.333 133.922L214.687 134.646C214.846 134.726 215.001 134.815 215.149 134.914C214.978 134.859 214.813 134.788 214.656 134.702L213.277 134.034L208.216 131.538L191.618 123.114C188.379 121.454 185.322 119.807 182.632 118.122C180.241 116.67 177.948 115.06 175.768 113.305C174.915 112.638 174.165 111.85 173.541 110.965C173.075 110.287 172.76 109.517 172.617 108.706C172.523 108.195 172.523 107.67 172.617 107.159C172.662 107.002 172.72 106.85 172.792 106.703Z" fill="black"/>
<path d="M187.244 113.498C187.127 113.36 187.022 113.211 186.932 113.055C186.646 112.621 186.335 112.205 186.002 111.807C184.778 110.373 183.258 109.221 181.547 108.431C180.988 108.162 180.402 107.953 179.799 107.807C179.162 107.646 178.491 107.676 177.871 107.894C177.548 108.004 177.257 108.194 177.026 108.446C176.795 108.698 176.63 109.004 176.548 109.336C176.481 110.075 176.705 110.812 177.172 111.389C178.969 113.978 181.821 116.087 184.979 117.878C185.771 118.328 186.564 118.771 187.35 119.17C188.097 119.585 188.93 119.824 189.783 119.869C190.184 119.889 190.583 119.816 190.951 119.657C191.319 119.498 191.645 119.257 191.905 118.952C192.355 118.316 192.539 117.53 192.417 116.761C192.295 116.016 192.032 115.3 191.643 114.652C191.275 114.028 190.869 113.404 190.476 112.824C189.737 111.757 188.902 110.761 187.98 109.847C186.632 108.529 185.084 107.432 183.394 106.596C182.77 106.303 182.32 106.097 181.99 105.972C181.823 105.909 181.661 105.836 181.503 105.754C181.678 105.791 181.849 105.843 182.015 105.91C182.503 106.078 182.982 106.272 183.45 106.49C185.179 107.29 186.763 108.371 188.136 109.691C189.086 110.602 189.947 111.6 190.707 112.674C191.106 113.254 191.518 113.86 191.899 114.546C192.31 115.222 192.589 115.969 192.722 116.749C192.859 117.601 192.655 118.473 192.155 119.176C191.866 119.519 191.503 119.791 191.093 119.972C190.683 120.152 190.237 120.237 189.79 120.218C188.882 120.182 187.995 119.934 187.2 119.494C186.395 119.089 185.609 118.646 184.81 118.196C181.634 116.399 178.745 114.259 176.923 111.595C176.424 110.946 176.2 110.129 176.299 109.317C176.392 108.94 176.579 108.593 176.842 108.307C177.105 108.022 177.435 107.807 177.803 107.682C178.474 107.451 179.199 107.423 179.887 107.601C180.502 107.744 181.101 107.953 181.671 108.225C183.887 109.249 185.748 110.908 187.019 112.992C187.104 113.156 187.179 113.325 187.244 113.498Z" fill="black"/>
<path d="M219.548 127.338C219.548 127.369 219.043 127.126 218.088 126.932C216.726 126.716 215.338 126.716 213.976 126.932C212.247 127.126 210.232 127.662 207.854 127.687C206.619 127.694 205.391 127.482 204.229 127.063C202.987 126.612 201.819 125.981 200.76 125.191C198.742 123.648 197.028 121.744 195.705 119.575C194.631 117.818 193.664 115.996 192.81 114.122C192.055 112.537 191.437 111.264 190.975 110.378L190.451 109.379C190.38 109.268 190.324 109.148 190.283 109.023C190.368 109.124 190.443 109.232 190.507 109.348C190.651 109.566 190.844 109.891 191.088 110.315C191.581 111.17 192.236 112.43 193.016 114.003C193.894 115.854 194.875 117.654 195.955 119.394C197.271 121.52 198.963 123.389 200.947 124.91C202.926 126.444 205.345 127.299 207.848 127.35C210.145 127.35 212.216 126.839 213.945 126.67C215.33 126.48 216.737 126.526 218.107 126.807C218.476 126.891 218.837 127.006 219.186 127.151C219.315 127.196 219.437 127.259 219.548 127.338Z" fill="black"/>
<path d="M206.675 121.056C206.546 121.022 206.421 120.976 206.301 120.919C206.064 120.819 205.72 120.663 205.277 120.438C204.834 120.214 204.316 119.927 203.724 119.552C203.424 119.369 203.112 119.161 202.788 118.928C202.411 118.713 202.09 118.411 201.852 118.049C201.778 117.931 201.745 117.793 201.759 117.655C201.772 117.517 201.831 117.388 201.926 117.287C202.034 117.203 202.161 117.146 202.296 117.122C202.431 117.098 202.57 117.108 202.7 117.15C203.187 117.281 203.642 117.443 204.135 117.612C205.109 117.955 206.138 118.367 207.193 118.86C208.297 119.37 209.372 119.941 210.413 120.569C211.012 120.871 211.528 121.314 211.917 121.861C212.023 122.017 212.093 122.196 212.121 122.383C212.148 122.57 212.133 122.761 212.076 122.941C212.018 123.122 211.921 123.287 211.791 123.424C211.661 123.561 211.501 123.667 211.324 123.733C210.673 123.96 209.98 124.037 209.296 123.958C208.648 123.926 208.003 123.843 207.368 123.708C206.164 123.466 205.001 123.056 203.911 122.491C202.365 121.694 200.996 120.594 199.883 119.257C198.771 117.921 197.938 116.374 197.434 114.71C197.321 114.35 197.231 113.983 197.165 113.612C197.133 113.483 197.116 113.351 197.115 113.219C197.147 113.219 197.246 113.749 197.558 114.673C197.997 115.974 198.628 117.203 199.43 118.317C200.634 119.963 202.21 121.302 204.029 122.223C205.098 122.767 206.236 123.162 207.411 123.396C208.029 123.522 208.654 123.602 209.283 123.633C209.914 123.71 210.555 123.642 211.155 123.434C211.292 123.379 211.415 123.295 211.515 123.187C211.616 123.079 211.691 122.95 211.736 122.81C211.774 122.674 211.782 122.532 211.76 122.393C211.737 122.253 211.684 122.121 211.605 122.005C211.245 121.502 210.77 121.093 210.219 120.813C209.188 120.189 208.126 119.619 207.037 119.103C205.995 118.61 204.978 118.192 204.017 117.855C203.536 117.68 203.056 117.506 202.619 117.387C202.527 117.353 202.428 117.34 202.331 117.351C202.233 117.362 202.14 117.396 202.057 117.449C201.998 117.514 201.962 117.596 201.955 117.683C201.948 117.77 201.971 117.857 202.02 117.93C202.24 118.266 202.534 118.546 202.881 118.747C203.193 118.985 203.505 119.19 203.786 119.371C204.366 119.752 204.884 120.058 205.309 120.295C205.733 120.532 206.07 120.713 206.301 120.832C206.435 120.889 206.561 120.965 206.675 121.056Z" fill="black"/>
</g>
<path d="M230.256 93.2891L230.175 93.2205L219.66 86.9805L178.015 84.0664L177.653 89.2331L181.584 91.7291L177.428 92.5341L176.929 99.6102L215.941 102.337C217.472 102.444 219.003 102.149 220.384 101.482L228.103 97.7382C229.726 96.9582 230.256 95.1486 230.256 93.2891Z" fill="#106FA4"/>
<path opacity="0.3" d="M230.256 93.2891L230.175 93.2205L219.66 86.9805L178.015 84.0664L177.653 89.2331L181.584 91.7291L177.428 92.5341L176.929 99.6102L215.941 102.337C217.472 102.444 219.003 102.149 220.384 101.482L228.103 97.7382C228.821 97.2513 229.399 96.5837 229.777 95.8026C230.155 95.0215 230.32 94.1545 230.256 93.2891Z" fill="black"/>
<path d="M229.632 92.4512L221.283 86.0177C220.344 85.2892 219.211 84.8549 218.026 84.7697L178.196 81.9805L177.834 87.1534L181.765 89.612L177.609 90.4169L177.11 97.4931L216.884 100.282C217.932 100.355 218.982 100.153 219.929 99.6958L229.357 95.1344C229.599 95.0153 229.807 94.8367 229.961 94.6153C230.115 94.3939 230.21 94.137 230.238 93.8688C230.265 93.6006 230.224 93.3297 230.118 93.0818C230.012 92.8338 229.845 92.6168 229.632 92.4512Z" fill="#106FA4"/>
<g opacity="0.2">
<path d="M178.77 97.6748C178.77 97.6748 178.77 97.6373 178.832 97.5812C178.896 97.4941 178.967 97.4127 179.044 97.3378C179.336 97.0426 179.673 96.7961 180.043 96.6077C181.438 95.9917 182.948 95.6811 184.473 95.6967C189.451 95.3912 194.447 95.6234 199.374 96.3893C202.263 96.8261 204.99 97.4689 207.436 97.9868C209.613 98.4795 211.815 98.8524 214.032 99.1037C215.526 99.2686 217.03 99.3124 218.531 99.2348C219.592 99.1786 220.178 99.0913 220.185 99.1287C220.046 99.1699 219.904 99.1971 219.76 99.2098C219.347 99.2827 218.931 99.3327 218.512 99.3596C217.005 99.4972 215.489 99.4972 213.982 99.3596C211.753 99.1358 209.538 98.7837 207.349 98.305C204.853 97.7996 202.17 97.1693 199.299 96.7325C194.391 95.9809 189.421 95.7196 184.461 95.9525C182.966 95.9214 181.481 96.1909 180.093 96.745C179.606 96.9842 179.16 97.2979 178.77 97.6748Z" fill="black"/>
<path d="M228.521 91.832C228.495 92.0092 228.449 92.1829 228.384 92.35C228.196 92.8348 227.921 93.281 227.573 93.6666C227.015 94.2716 226.337 94.7539 225.582 95.0831C224.586 95.4944 223.535 95.7592 222.462 95.8693C219.681 96.1898 216.881 96.3232 214.082 96.2687C210.931 96.2312 207.468 95.9941 203.842 95.6447L185.303 93.8538L179.687 93.2672L178.158 93.0925C177.982 93.0804 177.806 93.0533 177.634 93.0114C177.811 92.9948 177.988 92.9948 178.164 93.0114L179.7 93.1237L185.316 93.6042L203.867 95.3015C207.486 95.6322 210.937 95.8755 214.082 95.9255C216.867 95.9955 219.654 95.8872 222.425 95.601C223.494 95.5059 224.544 95.2601 225.545 94.8709C226.286 94.5679 226.956 94.113 227.51 93.5355C227.963 93.0445 228.307 92.4642 228.521 91.832Z" fill="black"/>
<path d="M212.665 89.8533C212.815 89.7539 212.972 89.6643 213.133 89.585C213.598 89.3599 214.075 89.1619 214.562 88.9922C216.368 88.3831 218.287 88.1849 220.178 88.4119C220.815 88.4808 221.442 88.6168 222.05 88.8175C222.728 89.0323 223.327 89.4426 223.773 89.9968C224.017 90.2995 224.181 90.6588 224.25 91.0416C224.318 91.4244 224.289 91.8184 224.166 92.1871C223.809 92.9238 223.177 93.4908 222.406 93.7658C219.436 95.0138 215.854 95.3071 212.204 95.1261C211.286 95.0824 210.388 95.0388 209.496 94.9514C208.591 94.8987 207.712 94.6381 206.925 94.1901C206.536 93.967 206.203 93.6573 205.953 93.2851C205.703 92.9128 205.543 92.488 205.483 92.0436C205.437 91.1827 205.731 90.3381 206.301 89.6911C206.828 89.1016 207.463 88.6187 208.173 88.2684C208.84 87.9189 209.508 87.6444 210.163 87.3448C211.372 86.8452 212.626 86.4608 213.907 86.1967C215.773 85.8124 217.691 85.7449 219.579 85.997C220.092 86.0594 220.6 86.1511 221.102 86.2716C221.28 86.3041 221.456 86.3521 221.626 86.4151C221.446 86.3988 221.267 86.3717 221.089 86.334C220.746 86.2716 220.228 86.1905 219.567 86.1218C217.691 85.9242 215.795 86.0253 213.951 86.4213C212.682 86.6989 211.442 87.0916 210.244 87.5945C209.62 87.8753 208.934 88.1748 208.279 88.518C207.605 88.8577 207.002 89.3213 206.5 89.8845C205.985 90.4698 205.718 91.2334 205.758 92.0124C205.814 92.4101 205.962 92.7893 206.189 93.1205C206.417 93.4517 206.717 93.7259 207.068 93.9218C207.813 94.3404 208.643 94.5837 209.496 94.6332C210.375 94.7143 211.28 94.758 212.191 94.8016C215.817 94.9826 219.355 94.7205 222.25 93.4913C222.951 93.2521 223.531 92.7482 223.866 92.0873C223.976 91.763 224.003 91.4162 223.943 91.079C223.883 90.7418 223.738 90.4254 223.523 90.1591C223.115 89.6428 222.564 89.2585 221.938 89.0546C221.354 88.8509 220.749 88.7128 220.135 88.6428C218.265 88.3934 216.364 88.5531 214.562 89.1108C213.938 89.3105 213.452 89.5164 213.127 89.6474C212.979 89.728 212.824 89.7969 212.665 89.8533Z" fill="black"/>
<path d="M177.965 84.3133C178.097 84.309 178.229 84.3216 178.358 84.3508C178.732 84.4129 179.1 84.509 179.456 84.6378C180.763 85.13 181.976 85.8411 183.044 86.7407C184.436 87.8202 185.896 89.3428 187.837 90.5783C189.98 91.8721 192.483 92.441 194.975 92.2007C197.477 91.9818 199.917 91.3072 202.176 90.2101C204.019 89.3148 205.811 88.317 207.542 87.2212C209.04 86.3101 210.269 85.5925 211.137 85.137C211.573 84.9061 211.917 84.7376 212.148 84.6316C212.263 84.5648 212.387 84.5124 212.516 84.4756C212.412 84.5586 212.299 84.6298 212.179 84.6877L211.199 85.2493C210.35 85.736 209.146 86.4973 207.667 87.4208C205.943 88.5467 204.154 89.5677 202.307 90.4784C200.028 91.6064 197.558 92.3004 195.025 92.5252C193.71 92.6253 192.387 92.5306 191.1 92.2444C189.896 91.9772 188.749 91.4998 187.712 90.8341C185.734 89.5861 184.292 88.0136 182.932 86.9216C181.892 86.018 180.715 85.287 179.444 84.7564C178.959 84.5817 178.466 84.4338 177.965 84.3133Z" fill="black"/>
<path d="M192.192 85.8731C192.323 85.8606 192.454 85.8606 192.585 85.8731C192.841 85.8731 193.209 85.9292 193.708 85.9542C194.208 85.9792 194.794 85.9979 195.487 85.9854C195.836 85.9854 196.204 85.9854 196.597 85.9355C196.997 85.9433 197.394 85.8623 197.758 85.6984C197.839 85.6642 197.905 85.6034 197.946 85.5261C197.987 85.4488 198 85.3598 197.983 85.274C197.945 85.1118 197.758 84.9932 197.546 84.9184C197.109 84.7873 196.61 84.6812 196.117 84.5689C195.112 84.3505 194.033 84.1633 192.885 84.0198C191.736 83.8763 190.532 83.7952 189.278 83.7702C188.664 83.7077 188.045 83.7977 187.475 84.0323C187.344 84.0908 187.228 84.1769 187.135 84.2846C187.041 84.3923 186.972 84.5192 186.932 84.6563C186.899 84.7966 186.897 84.9423 186.926 85.0834C186.956 85.2246 187.015 85.3577 187.1 85.4737C187.499 85.9693 188.004 86.3683 188.579 86.6406C189.131 86.9543 189.707 87.2234 190.301 87.4456C191.42 87.8757 192.591 88.1528 193.783 88.2692C195.815 88.4588 197.863 88.1681 199.761 87.4206C201.041 86.9134 202.236 86.2149 203.305 85.3489C204.067 84.7249 204.435 84.338 204.454 84.3568C204.472 84.3755 204.379 84.4691 204.204 84.6625C203.961 84.9523 203.7 85.2274 203.424 85.4862C202.111 86.6261 200.582 87.4899 198.927 88.0259C197.273 88.562 195.528 88.7593 193.796 88.6062C192.572 88.4978 191.369 88.2227 190.22 87.7888C189.613 87.5617 189.024 87.2863 188.461 86.9651C187.84 86.6793 187.295 86.2518 186.869 85.7171C186.758 85.5631 186.682 85.3869 186.645 85.2005C186.608 85.0142 186.613 84.8222 186.657 84.6376C186.709 84.4579 186.8 84.2918 186.923 84.1506C187.046 84.0095 187.198 83.8967 187.369 83.8201C187.985 83.5629 188.656 83.4622 189.322 83.5268C190.538 83.5518 191.753 83.6434 192.96 83.8014C194.114 83.9512 195.206 84.1508 196.211 84.3817C196.722 84.5003 197.19 84.6064 197.671 84.7561C197.803 84.7912 197.925 84.8577 198.026 84.9501C198.127 85.0424 198.204 85.1579 198.251 85.2865C198.279 85.4221 198.261 85.5631 198.2 85.6874C198.139 85.8116 198.038 85.9121 197.914 85.9729C197.522 86.148 197.095 86.2312 196.666 86.2163C196.267 86.2163 195.892 86.2163 195.543 86.2163C194.844 86.2163 194.245 86.1726 193.758 86.1289C193.272 86.0852 192.891 86.0353 192.635 85.9916C192.482 85.9742 192.333 85.9343 192.192 85.8731Z" fill="black"/>
</g>
<path d="M170.726 65.4399L183.456 73.2524L225.17 71.7548L224.989 66.5756L220.821 64.5351L224.871 63.2996L224.615 56.2109L183.169 57.6961L170.726 65.4399Z" fill="#106FA4"/>
<path opacity="0.3" d="M170.726 65.4399L183.456 73.2524L225.17 71.7548L224.989 66.5756L220.821 64.5351L224.871 63.2996L224.615 56.2109L183.169 57.6961L170.726 65.4399Z" fill="black"/>
<path d="M169.478 66.9346L178.464 72.4445C179.475 73.0672 180.647 73.3756 181.834 73.3306L221.732 71.9016L221.545 66.7224L217.377 64.6882L221.426 63.4402L221.177 56.3516L181.334 57.7868C180.282 57.8235 179.258 58.1355 178.364 58.6916L169.472 64.2264C169.242 64.3695 169.051 64.5692 168.92 64.8065C168.788 65.0438 168.719 65.3109 168.72 65.5823C168.72 65.8537 168.79 66.1204 168.923 66.3571C169.056 66.5938 169.247 66.7926 169.478 66.9346Z" fill="#106FA4"/>
<g opacity="0.2">
<path d="M219.486 56.3711C219.473 56.4074 219.454 56.4412 219.43 56.4709C219.377 56.5633 219.316 56.651 219.249 56.733C218.988 57.0574 218.678 57.3395 218.331 57.5692C217.008 58.324 215.541 58.7918 214.026 58.942C209.107 59.7695 204.113 60.0665 199.131 59.8281C196.211 59.697 193.452 59.3413 190.944 59.0855C188.728 58.8233 186.499 58.6796 184.267 58.6549C182.765 58.6474 181.264 58.7622 179.781 58.9981C178.732 59.1666 178.158 59.3164 178.146 59.2789C178.281 59.2298 178.418 59.1882 178.558 59.1541C178.832 59.0855 179.232 58.9669 179.756 58.8733C181.243 58.5889 182.753 58.4385 184.267 58.4241C186.508 58.4099 188.748 58.5245 190.975 58.7673C193.471 59.0106 196.242 59.3538 199.143 59.4849C204.106 59.7166 209.079 59.4511 213.988 58.6924C215.482 58.5658 216.935 58.1415 218.263 57.4444C218.721 57.1492 219.134 56.7875 219.486 56.3711Z" fill="black"/>
<path d="M170.627 67.4348C170.631 67.2553 170.658 67.0771 170.708 66.9044C170.842 66.4033 171.069 65.9314 171.375 65.5129C171.864 64.8496 172.487 64.2967 173.204 63.8905C174.158 63.3744 175.181 62.9982 176.243 62.7735C178.973 62.1772 181.739 61.7603 184.523 61.5255C187.643 61.2323 191.137 61.1012 194.775 61.0451L213.408 60.8391H219.055H220.59C220.769 60.8245 220.948 60.8245 221.127 60.8391C220.949 60.8681 220.77 60.8827 220.59 60.8828L219.055 60.9265L213.439 61.0451L194.813 61.3134C191.175 61.3695 187.718 61.4881 184.585 61.7689C181.798 62.0134 179.028 62.4323 176.292 63.0231C175.247 63.2318 174.237 63.5869 173.291 64.0777C172.586 64.4581 171.968 64.9808 171.475 65.6127C171.066 66.1531 170.777 66.7742 170.627 67.4348Z" fill="black"/>
<path d="M186.576 67.7029C186.44 67.8221 186.294 67.9286 186.139 68.0211C185.703 68.2987 185.248 68.5467 184.779 68.7637C183.043 69.5649 181.149 69.9658 179.238 69.9368C178.608 69.9318 177.981 69.8629 177.366 69.7309C176.672 69.5883 176.035 69.243 175.537 68.7387C175.262 68.463 175.061 68.1224 174.952 67.7484C174.843 67.3744 174.83 66.9789 174.913 66.5984C175.191 65.8287 175.761 65.199 176.498 64.845C179.313 63.2663 182.851 62.6235 186.482 62.4114C187.4 62.3615 188.298 62.3115 189.197 62.2991C190.101 62.2578 191.002 62.4265 191.83 62.792C192.241 62.9721 192.605 63.2441 192.894 63.587C193.182 63.93 193.389 64.3348 193.496 64.7701C193.632 65.6224 193.428 66.4939 192.928 67.1975C192.464 67.8381 191.881 68.3844 191.212 68.8074C190.588 69.2317 189.964 69.5936 189.34 69.9368C188.185 70.5637 186.974 71.0797 185.721 71.4781C183.906 72.0534 182.008 72.3233 180.105 72.2768C179.59 72.2674 179.075 72.2299 178.564 72.1645C178.385 72.1531 178.207 72.1239 178.033 72.0771C178.212 72.0647 178.391 72.0647 178.57 72.0771C178.92 72.0771 179.437 72.1333 180.105 72.1333C181.99 72.1288 183.862 71.8276 185.653 71.241C186.887 70.8346 188.08 70.3122 189.216 69.681C189.84 69.3378 190.464 68.9696 191.088 68.5515C191.724 68.1469 192.277 67.6237 192.716 67.0103C193.165 66.3719 193.348 65.5846 193.228 64.8138C193.129 64.4249 192.942 64.064 192.681 63.7589C192.42 63.4538 192.093 63.2127 191.724 63.0541C190.937 62.716 190.083 62.5623 189.228 62.6048C188.348 62.6048 187.443 62.6672 186.532 62.7171C182.907 62.9293 179.419 63.5595 176.667 65.0883C175.992 65.3971 175.468 65.9601 175.207 66.6546C175.134 66.9876 175.146 67.3336 175.242 67.6607C175.338 67.9878 175.515 68.2855 175.756 68.5266C176.216 68.9976 176.804 69.3231 177.447 69.4626C178.049 69.6014 178.664 69.6746 179.281 69.681C181.166 69.7286 183.039 69.3689 184.773 68.6264C185.242 68.4221 185.7 68.1929 186.145 67.94C186.284 67.8521 186.428 67.7729 186.576 67.7029Z" fill="black"/>
<path d="M221.695 69.574C221.564 69.5863 221.432 69.5863 221.302 69.574C220.923 69.5516 220.547 69.4952 220.178 69.4056C218.826 69.0529 217.543 68.4726 216.385 67.6896C214.887 66.766 213.265 65.4057 211.218 64.3824C208.95 63.3221 206.401 63.0202 203.948 63.5212C201.495 64.0078 199.15 64.936 197.028 66.2606C195.289 67.3458 193.612 68.527 192.005 69.7987C190.613 70.8657 189.465 71.7081 188.648 72.251C188.242 72.5256 187.918 72.7315 187.699 72.875C187.589 72.9507 187.472 73.0155 187.35 73.0684C187.445 72.9751 187.55 72.8915 187.662 72.8188L188.579 72.1574C189.372 71.5833 190.489 70.716 191.861 69.6302C193.452 68.3272 195.119 67.1207 196.853 66.0172C199 64.6582 201.38 63.7083 203.873 63.2155C205.172 62.9745 206.499 62.9283 207.811 63.0782C209.036 63.2211 210.227 63.5758 211.33 64.1265C213.427 65.1873 215.024 66.5726 216.491 67.5086C217.63 68.2851 218.885 68.8769 220.21 69.262C221.152 69.5366 221.701 69.5366 221.695 69.574Z" fill="black"/>
<path d="M207.368 69.5244C207.237 69.5323 207.106 69.5323 206.975 69.5244C206.719 69.5244 206.351 69.5244 205.851 69.5618C205.352 69.5993 204.766 69.6367 204.079 69.7241C203.736 69.7677 203.368 69.8239 202.981 69.8925C202.582 69.9232 202.196 70.0449 201.852 70.2482C201.775 70.2902 201.716 70.3571 201.683 70.4377C201.65 70.5184 201.646 70.6079 201.671 70.6913C201.72 70.7759 201.789 70.8477 201.871 70.9008C201.954 70.9539 202.047 70.9869 202.145 70.997C202.588 71.0844 203.1 71.1405 203.605 71.1967C204.622 71.309 205.72 71.3839 206.869 71.3964C208.076 71.4185 209.284 71.3768 210.488 71.2716C211.104 71.2655 211.71 71.1114 212.254 70.8223C212.376 70.7502 212.482 70.6528 212.564 70.5366C212.645 70.4203 212.701 70.288 212.728 70.1484C212.744 70.0057 212.729 69.8613 212.685 69.7248C212.641 69.5882 212.568 69.4625 212.472 69.3559C212.024 68.905 211.48 68.5615 210.881 68.3513C210.299 68.097 209.698 67.8883 209.084 67.7273C207.926 67.4192 206.731 67.2681 205.533 67.278C203.493 67.3012 201.487 67.808 199.68 68.7569C198.46 69.3927 197.345 70.2112 196.373 71.1842C195.686 71.8769 195.356 72.3137 195.331 72.2949C195.395 72.1781 195.471 72.0674 195.555 71.9642C195.779 71.661 196.021 71.3713 196.279 71.0969C197.467 69.8273 198.898 68.8087 200.486 68.1013C202.074 67.394 203.788 67.0122 205.527 66.9785C206.754 66.9579 207.978 67.1048 209.165 67.4153C209.793 67.5764 210.409 67.785 211.006 68.0393C211.655 68.2681 212.242 68.644 212.722 69.1375C212.849 69.2782 212.943 69.4448 213 69.6259C213.056 69.8069 213.071 69.998 213.046 70.1858C213.016 70.372 212.945 70.5491 212.837 70.7036C212.728 70.8582 212.587 70.9862 212.422 71.0781C211.833 71.3964 211.176 71.5677 210.506 71.5773C209.295 71.6798 208.078 71.7152 206.862 71.6834C205.695 71.6834 204.591 71.5773 203.568 71.4525C203.05 71.3839 202.569 71.3277 202.076 71.2279C201.943 71.2066 201.816 71.1536 201.708 71.0732C201.599 70.9928 201.512 70.8875 201.452 70.7661C201.411 70.6337 201.415 70.4913 201.463 70.3613C201.512 70.2314 201.602 70.1213 201.721 70.0485C202.101 69.8259 202.529 69.6975 202.969 69.6741C203.355 69.6117 203.73 69.5681 204.079 69.5306C204.772 69.462 205.371 69.4308 205.864 69.4245C206.357 69.4183 206.737 69.4245 206.993 69.4245C207.122 69.44 207.248 69.4736 207.368 69.5244Z" fill="black"/>
</g>
<path d="M278.741 154.752C278.741 154.839 224.278 154.914 157.111 154.914C89.9433 154.914 35.4744 154.808 35.4744 154.752C35.4744 154.696 89.9246 154.59 157.111 154.59C224.297 154.59 278.741 154.627 278.741 154.752Z" fill="#263238"/>
<path d="M41.9141 256.71C41.8579 256.71 41.6333 255.786 41.1778 254.307C40.58 252.384 39.8417 250.507 38.9688 248.691C38.0924 246.876 37.0829 245.129 35.9487 243.462C35.0751 242.183 34.4823 241.422 34.5259 241.391C34.7001 241.534 34.8572 241.698 34.9939 241.877C35.281 242.208 35.6741 242.701 36.1359 243.331C37.3305 244.975 38.3748 246.723 39.2559 248.554C40.141 250.383 40.8554 252.291 41.3899 254.251C41.5959 255.006 41.7394 255.618 41.8143 256.048C41.8725 256.264 41.906 256.486 41.9141 256.71Z" fill="#263238"/>
<path d="M46.0201 259.396C45.939 259.396 44.3602 254.18 42.507 247.69C40.6537 241.2 39.2185 235.915 39.3121 235.871C39.4057 235.828 40.9719 241.088 42.8252 247.578C44.6785 254.067 46.1074 259.371 46.0201 259.396Z" fill="#263238"/>
<path d="M49.3771 245.332C49.34 246.044 49.2587 246.752 49.1338 247.454C48.9653 248.758 48.7718 250.574 48.6658 252.57C48.5597 254.567 48.5535 256.389 48.5847 257.706C48.6233 258.417 48.6233 259.129 48.5847 259.84C48.5184 259.658 48.4825 259.466 48.4786 259.272C48.4287 258.904 48.385 258.374 48.3413 257.712C48.2396 255.994 48.2396 254.27 48.3413 252.552C48.4316 250.832 48.6212 249.12 48.9091 247.422C49.0214 246.767 49.1275 246.243 49.2149 245.887C49.2454 245.696 49.2999 245.51 49.3771 245.332Z" fill="#263238"/>
<path d="M227.429 138.285C227.517 138.285 228.646 141.923 229.925 146.466C231.205 151.009 232.222 154.715 232.141 154.74C232.059 154.765 230.924 151.102 229.613 146.559C228.303 142.017 227.342 138.31 227.429 138.285Z" fill="#263238"/>
<path d="M234.842 139.445C234.892 139.445 234.655 140.294 234.387 141.667C234.033 143.448 233.824 145.255 233.763 147.071C233.712 148.885 233.81 150.701 234.056 152.499C234.243 153.885 234.431 154.727 234.374 154.74C234.287 154.555 234.224 154.36 234.187 154.159C234.041 153.625 233.922 153.083 233.832 152.537C233.196 148.912 233.309 145.196 234.162 141.617C234.284 141.075 234.434 140.54 234.612 140.013C234.658 139.813 234.736 139.621 234.842 139.445Z" fill="#263238"/>
<path d="M239.454 142.36C239.497 142.391 239.067 142.984 238.474 144.057C237.707 145.424 237.08 146.864 236.602 148.357C236.14 149.854 235.835 151.395 235.691 152.956C235.579 154.16 235.585 154.909 235.529 154.909C235.478 154.739 235.455 154.562 235.46 154.385C235.435 153.904 235.435 153.423 235.46 152.943C235.624 149.753 236.59 146.656 238.268 143.939C238.522 143.529 238.796 143.134 239.092 142.753C239.31 142.491 239.435 142.348 239.454 142.36Z" fill="#263238"/>
<path d="M198.7 197.965C198.37 196.717 199.206 195.407 200.148 194.483C201.09 193.56 202.207 192.723 202.694 191.5C203.486 189.51 202.426 186.939 203.773 185.26C204.566 184.287 205.995 183.962 206.7 182.92C207.023 182.341 207.234 181.706 207.324 181.048C208.075 177.748 209.698 174.71 212.023 172.25C212.172 175.194 211.525 178.123 210.151 180.73C209.511 181.717 209.039 182.803 208.753 183.944C208.453 185.816 209.508 187.781 209.046 189.628C208.516 191.75 206.132 193.166 206.02 195.35C205.926 197.222 207.536 198.814 207.418 200.654C207.318 201.439 207.036 202.189 206.594 202.845C205.165 205.216 203.075 206.851 199.898 206.795L196.011 206.932L198.7 197.965Z" fill="#106FA4"/>
<g opacity="0.3">
<path d="M198.7 197.965C198.37 196.717 199.206 195.407 200.148 194.483C201.09 193.56 202.207 192.723 202.694 191.5C203.486 189.51 202.426 186.939 203.773 185.26C204.566 184.287 205.995 183.962 206.7 182.92C207.023 182.341 207.234 181.706 207.324 181.048C208.075 177.748 209.698 174.71 212.023 172.25C212.172 175.194 211.525 178.123 210.151 180.73C209.511 181.717 209.039 182.803 208.753 183.944C208.453 185.816 209.508 187.781 209.046 189.628C208.516 191.75 206.132 193.166 206.02 195.35C205.926 197.222 207.536 198.814 207.418 200.654C207.318 201.439 207.036 202.189 206.594 202.845C205.165 205.216 203.075 206.851 199.898 206.795L196.011 206.932L198.7 197.965Z" fill="black"/>
</g>
<path d="M195.256 207.067C194.903 207.129 194.542 207.129 194.189 207.067C193.764 207 193.346 206.894 192.941 206.749C192.378 206.549 191.852 206.261 191.381 205.894C191.106 205.662 190.891 205.367 190.757 205.033C190.641 204.657 190.58 204.266 190.576 203.873C190.566 203.455 190.534 203.039 190.482 202.625C190.408 202.181 190.247 201.757 190.008 201.377C189.553 200.572 188.791 199.81 188.542 198.718C188.354 197.584 188.39 196.425 188.648 195.305C188.93 194.101 188.9 192.844 188.56 191.655C188.142 190.438 187.312 189.34 186.863 187.967C186.414 186.594 186.632 185.09 186.545 183.599C186.517 182.853 186.346 182.12 186.039 181.44C185.721 180.747 185.284 180.098 184.947 179.374C184.255 177.908 184.136 176.254 183.943 174.626C183.855 173.802 183.762 172.972 183.668 172.13C183.611 171.285 183.465 170.448 183.231 169.634C182.97 168.813 182.66 168.009 182.302 167.225C182.118 166.822 181.968 166.405 181.852 165.977C181.786 165.534 181.745 165.089 181.728 164.642C181.686 163.744 181.719 162.844 181.827 161.952C181.933 161.054 182.096 160.161 182.196 159.263V159.107V158.926L182.352 159.007C183.176 159.428 183.893 160.032 184.448 160.773C184.986 161.499 185.419 162.297 185.734 163.144C186.29 164.803 186.695 166.51 186.944 168.242C187.189 169.892 187.73 171.484 188.542 172.941C188.966 173.633 189.484 174.27 189.933 174.944C190.418 175.6 190.749 176.357 190.9 177.159C191.131 178.806 190.226 180.248 190.414 181.708C190.504 182.423 190.746 183.11 191.125 183.724C191.474 184.348 191.892 184.922 192.286 185.502C192.687 186.068 193.036 186.669 193.328 187.299C193.602 187.914 193.765 188.574 193.808 189.246C193.902 190.556 193.715 191.804 193.808 192.99C193.911 194.108 194.236 195.194 194.763 196.185C195.237 197.146 195.761 198.007 196.198 198.849C196.417 199.267 196.622 199.679 196.785 200.097C196.942 200.5 197.057 200.919 197.128 201.345C197.247 202.08 197.257 202.829 197.159 203.567C197.058 204.597 196.671 205.578 196.042 206.4C195.947 206.522 195.843 206.637 195.73 206.743C195.652 206.822 195.566 206.893 195.474 206.955C195.331 207.061 195.25 207.111 195.25 207.111C195.531 206.896 195.785 206.647 196.005 206.368C196.605 205.544 196.97 204.571 197.059 203.554C197.147 202.828 197.131 202.092 197.009 201.37C196.938 200.958 196.823 200.554 196.666 200.166C196.491 199.74 196.293 199.323 196.073 198.918C195.63 198.088 195.106 197.227 194.626 196.266C194.081 195.257 193.742 194.15 193.627 193.009C193.527 191.811 193.708 190.563 193.627 189.265C193.584 188.618 193.426 187.984 193.159 187.393C192.872 186.774 192.525 186.185 192.123 185.633C191.73 185.059 191.312 184.479 190.95 183.842C190.557 183.204 190.304 182.489 190.208 181.745C190.021 180.192 190.919 178.738 190.688 177.209C190.538 176.441 190.218 175.716 189.752 175.087C189.309 174.426 188.791 173.789 188.354 173.078C187.522 171.598 186.967 169.978 186.72 168.298C186.468 166.583 186.065 164.894 185.515 163.25C185.21 162.425 184.79 161.648 184.267 160.941C183.739 160.229 183.053 159.649 182.264 159.244L182.439 159.144V159.3C182.339 160.211 182.177 161.104 182.071 161.99C181.963 162.869 181.929 163.756 181.971 164.642C181.987 165.076 182.027 165.509 182.089 165.94C182.2 166.355 182.346 166.76 182.526 167.15C182.883 167.943 183.195 168.756 183.462 169.584C183.695 170.411 183.842 171.26 183.899 172.117C183.993 172.953 184.086 173.783 184.174 174.613C184.361 176.248 184.486 177.883 185.147 179.299C185.478 179.998 185.915 180.653 186.239 181.365C186.555 182.071 186.731 182.832 186.757 183.605C186.844 185.103 186.645 186.569 187.05 187.898C187.456 189.227 188.298 190.325 188.735 191.586C189.082 192.806 189.11 194.096 188.816 195.33C188.559 196.426 188.517 197.562 188.691 198.675C188.916 199.717 189.652 200.472 190.12 201.302C190.363 201.7 190.528 202.14 190.607 202.6C190.657 203.014 190.684 203.43 190.688 203.848C190.688 204.232 190.743 204.614 190.85 204.983C190.99 205.302 191.204 205.582 191.474 205.801C191.932 206.166 192.447 206.455 192.997 206.656C193.402 206.808 193.819 206.922 194.245 206.999C194.507 207.044 194.772 207.069 195.037 207.074L195.256 207.067Z" fill="#263238"/>
<path d="M182.969 161.25C182.988 161.287 183.001 161.327 183.007 161.369C183.007 161.462 183.057 161.581 183.094 161.718C183.169 162.024 183.263 162.492 183.406 163.066C183.55 163.64 183.912 164.314 184.211 165.1C184.57 166.002 184.88 166.923 185.141 167.858C185.434 168.894 185.696 170.048 185.971 171.278C186.209 172.596 186.629 173.875 187.219 175.078C187.537 175.702 187.893 176.326 188.18 177.05C188.459 177.768 188.648 178.518 188.741 179.284C188.938 180.865 189.217 182.436 189.577 183.989C190.357 187.171 191.1 190.229 191.78 192.974L193.652 200.3C194.164 202.378 194.582 204.044 194.9 205.248C195.037 205.822 195.144 206.272 195.218 206.596L195.293 206.952C195.293 207.027 195.293 207.07 195.293 207.07C195.276 207.034 195.262 206.996 195.25 206.958L195.15 206.609C195.062 206.284 194.944 205.841 194.788 205.273L193.49 200.344C192.947 198.259 192.304 195.782 191.618 193.03C190.932 190.278 190.183 187.227 189.396 184.038C189.033 182.48 188.753 180.903 188.56 179.315C188.474 178.569 188.294 177.837 188.024 177.137C187.749 176.457 187.4 175.82 187.075 175.184C186.482 173.963 186.062 172.665 185.827 171.328C185.559 170.08 185.309 168.938 185.022 167.902C184.735 166.866 184.442 165.949 184.142 165.15C183.843 164.351 183.518 163.69 183.369 163.091C183.219 162.492 183.163 162.042 183.1 161.73C183.1 161.587 183.057 161.468 183.038 161.375C183.007 161.338 182.984 161.296 182.969 161.25Z" fill="#263238"/>
<path d="M194.569 207.082C192.03 205.572 191.3 200.992 192.36 198.234C193.421 195.476 195.275 192.948 195.562 190.009C195.78 187.751 195.044 185.429 195.562 183.22C196.273 180.238 199.187 177.923 199.15 174.859C199.15 173.136 198.151 171.52 198.232 169.804C198.326 167.695 199.942 166.023 200.947 164.188C202.482 161.349 202.582 157.986 203.106 154.828C203.63 151.671 204.847 148.226 207.667 146.66C208.085 149.362 208.797 151.215 208.578 154.884C208.497 156.201 206.968 158.722 206.756 161.605C206.631 163.327 206.55 165.056 206.444 166.784C206.425 168.468 206.15 170.138 205.627 171.739C205.165 172.943 204.429 174.041 204.085 175.283C203.461 177.623 204.285 180.15 203.767 182.521C203.324 184.531 201.939 186.265 201.652 188.293C201.252 191.151 203.106 194.122 202.157 196.848C201.689 198.203 200.572 199.288 200.285 200.686C200.036 201.772 200.285 202.92 200.079 204.012C199.724 205.765 196.379 207.132 194.588 207.02" fill="#106FA4"/>
<path d="M206.975 149.293C206.982 149.345 206.982 149.397 206.975 149.449C206.975 149.561 206.943 149.705 206.918 149.892C206.862 150.285 206.794 150.859 206.663 151.596C206.532 152.332 206.138 153.187 205.833 154.198C205.527 155.208 205.209 156.369 204.897 157.673C204.585 158.977 204.366 160.425 204.11 161.973C203.906 163.646 203.469 165.282 202.812 166.834C202.451 167.645 202.051 168.462 201.752 169.33C201.461 170.219 201.28 171.141 201.215 172.075C201.073 174.061 200.825 176.038 200.472 177.997C199.692 182.003 198.956 185.822 198.276 189.298C197.596 192.773 196.928 195.881 196.404 198.508C195.88 201.135 195.418 203.225 195.112 204.71C194.956 205.428 194.832 205.99 194.744 206.389C194.707 206.57 194.669 206.713 194.644 206.826C194.636 206.877 194.621 206.928 194.601 206.976C194.597 206.926 194.597 206.876 194.601 206.826C194.601 206.707 194.644 206.564 194.676 206.383C194.757 205.977 194.863 205.409 194.994 204.685C195.287 203.2 195.705 201.085 196.242 198.445C196.778 195.806 197.384 192.692 198.076 189.229C198.769 185.766 199.48 181.934 200.254 177.928C200.607 175.977 200.854 174.009 200.997 172.032C201.066 171.078 201.252 170.137 201.552 169.23C201.864 168.344 202.27 167.526 202.625 166.734C203.282 165.203 203.721 163.588 203.929 161.935C204.198 160.381 204.447 158.94 204.753 157.63C205.017 156.454 205.34 155.291 205.72 154.148C206.045 153.131 206.444 152.276 206.594 151.571C206.744 150.865 206.819 150.266 206.893 149.88L206.975 149.436V149.293Z" fill="#263238"/>
<path d="M249.276 265.581C249.882 265.871 250.425 266.279 250.87 266.783C251.315 267.287 251.653 267.876 251.865 268.514C252.281 269.796 252.398 271.155 252.208 272.489C251.915 275.066 250.455 277.668 248.876 279.734C246.705 277.862 246.205 274.529 246.056 272.838C245.819 270.161 247.023 265.182 249.276 265.581Z" fill="#106FA4"/>
<path d="M251.397 283.991C251.25 283.253 251.301 282.49 251.543 281.778C251.785 281.066 252.21 280.43 252.776 279.935C253.351 279.451 254.016 279.087 254.732 278.863C255.449 278.639 256.203 278.56 256.951 278.63C257.298 278.627 257.641 278.699 257.958 278.842C258.275 278.984 258.557 279.193 258.785 279.454C258.954 279.737 259.043 280.061 259.043 280.39C259.043 280.72 258.954 281.043 258.785 281.326C258.457 281.888 257.985 282.353 257.419 282.674C255.547 283.853 253.5 284.652 251.372 284.016" fill="#106FA4"/>
<path d="M248.614 291.896C248.625 291.718 248.65 291.54 248.689 291.366L248.951 289.931C249.197 288.337 249.696 286.793 250.43 285.357C251.195 283.923 252.328 282.72 253.712 281.869C254.135 281.62 254.585 281.421 255.054 281.276C255.18 281.235 255.31 281.204 255.441 281.182C255.486 281.174 255.533 281.174 255.578 281.182C254.951 281.388 254.348 281.662 253.781 282C252.445 282.87 251.35 284.063 250.598 285.469C249.874 286.89 249.363 288.41 249.082 289.981C248.951 290.605 248.845 291.066 248.764 291.397C248.73 291.568 248.68 291.735 248.614 291.896Z" fill="#263238"/>
<path d="M248.695 269.457C248.706 269.534 248.706 269.611 248.695 269.688C248.695 269.856 248.695 270.081 248.739 270.349C248.739 270.93 248.801 271.766 248.832 272.795C248.901 274.861 248.951 277.719 248.939 280.876C248.926 284.034 248.851 286.885 248.764 288.951C248.72 289.98 248.683 290.823 248.645 291.397C248.645 291.665 248.614 291.89 248.602 292.058C248.6 292.136 248.59 292.214 248.57 292.289C248.564 292.212 248.564 292.135 248.57 292.058C248.57 291.884 248.57 291.665 248.57 291.391C248.57 290.767 248.608 289.962 248.633 288.945C248.683 286.879 248.739 284.027 248.751 280.87C248.764 277.713 248.751 274.867 248.701 272.802C248.701 271.785 248.67 270.93 248.664 270.356V269.688C248.665 269.61 248.675 269.532 248.695 269.457Z" fill="#263238"/>
<path d="M247.641 285.556C247.377 283.995 246.747 282.519 245.801 281.249C244.855 279.98 243.62 278.954 242.199 278.255C241.469 277.906 240.521 277.675 239.928 278.218C239.335 278.761 239.466 279.728 239.753 280.477C240.388 282.038 241.471 283.377 242.866 284.323C244.261 285.27 245.905 285.781 247.591 285.793" fill="#106FA4"/>
<path d="M242.549 280.695C242.708 280.752 242.862 280.821 243.011 280.901C243.188 280.983 243.361 281.075 243.528 281.176C243.722 281.301 243.959 281.419 244.19 281.594C244.454 281.769 244.708 281.959 244.951 282.162C245.232 282.393 245.501 282.639 245.756 282.898C246.34 283.494 246.854 284.153 247.291 284.864C247.714 285.584 248.053 286.35 248.302 287.147C248.402 287.522 248.502 287.871 248.558 288.208C248.62 288.52 248.663 288.834 248.689 289.151C248.703 289.41 248.703 289.671 248.689 289.931C248.702 290.128 248.702 290.326 248.689 290.523C248.686 290.691 248.667 290.858 248.633 291.023C248.589 291.023 248.633 290.305 248.533 289.151C248.5 288.84 248.45 288.532 248.383 288.227C248.313 287.877 248.224 287.531 248.115 287.191C247.622 285.619 246.767 284.185 245.619 283.004C245.373 282.744 245.113 282.498 244.839 282.268C244.589 282.043 244.333 281.862 244.103 281.687C243.185 281.032 242.53 280.733 242.549 280.695Z" fill="#263238"/>
<path d="M230.256 246.332C230.217 246.438 230.164 246.539 230.1 246.632C229.975 246.857 229.813 247.131 229.613 247.462C229.414 247.793 229.133 248.254 228.852 248.778C228.571 249.303 228.228 249.877 227.885 250.544C227.186 251.855 226.425 253.465 225.657 255.274C224.843 257.251 224.128 259.267 223.517 261.315C222.893 263.499 222.419 265.614 222.063 267.555C221.707 269.495 221.508 271.261 221.389 272.746C221.314 273.489 221.289 274.163 221.252 274.749C221.214 275.336 221.196 275.854 221.183 276.272C221.171 276.69 221.183 276.977 221.183 277.233C221.187 277.344 221.174 277.456 221.146 277.564C221.122 277.455 221.111 277.344 221.114 277.233C221.114 276.977 221.114 276.659 221.114 276.266C221.114 275.873 221.114 275.336 221.114 274.743C221.114 274.15 221.114 273.495 221.208 272.728C221.328 270.977 221.536 269.234 221.832 267.505C222.197 265.388 222.676 263.292 223.267 261.227C223.881 259.169 224.608 257.146 225.445 255.168C226.231 253.346 227.017 251.749 227.748 250.438C228.097 249.777 228.453 249.19 228.758 248.691C229.064 248.192 229.332 247.749 229.57 247.399C229.807 247.05 229.963 246.819 230.112 246.607C230.262 246.395 230.256 246.326 230.256 246.332Z" fill="#263238"/>
<path d="M220.403 255.328C220.42 255.607 220.407 255.888 220.366 256.164C220.309 256.788 220.235 257.537 220.153 258.448C219.966 260.37 219.729 263.035 219.529 265.974C219.33 268.913 219.211 271.59 219.13 273.518L219.024 275.808C219.03 276.091 219.005 276.373 218.949 276.65C218.904 276.372 218.887 276.09 218.899 275.808C218.899 275.265 218.899 274.485 218.899 273.511C218.899 271.577 219.005 268.9 219.205 265.955C219.405 263.01 219.679 260.339 219.923 258.423C220.047 257.462 220.153 256.688 220.241 256.152C220.271 255.873 220.325 255.597 220.403 255.328Z" fill="#263238"/>
<path d="M210.837 263.492C211.003 263.604 211.154 263.736 211.286 263.885C211.675 264.268 212.042 264.672 212.385 265.096C213.522 266.495 214.464 268.042 215.186 269.695C215.908 271.346 216.399 273.089 216.647 274.874C216.725 275.414 216.773 275.957 216.79 276.503C216.816 276.71 216.816 276.919 216.79 277.127C216.734 277.127 216.678 276.284 216.441 274.936C215.819 271.424 214.374 268.109 212.222 265.264C211.38 264.147 210.793 263.53 210.837 263.492Z" fill="#263238"/>
<path d="M249.057 160.707C249.164 160.793 249.262 160.889 249.35 160.994L250.149 161.855L250.717 162.479C250.923 162.716 251.129 162.985 251.341 163.265C251.79 163.84 252.327 164.47 252.839 165.231L253.662 166.404C253.943 166.816 254.199 167.265 254.486 167.721C255.079 168.626 255.603 169.649 256.177 170.71C258.585 175.392 260.15 180.461 260.801 185.686C260.919 186.89 261.063 188.032 261.088 189.105C261.088 189.648 261.144 190.166 261.144 190.665V192.1C261.144 193.012 261.063 193.835 261.013 194.559C261.013 194.921 260.963 195.264 260.932 195.57C260.901 195.876 260.851 196.156 260.813 196.412C260.745 196.893 260.688 197.28 260.639 197.573C260.63 197.711 260.602 197.848 260.557 197.979C260.549 197.841 260.549 197.704 260.557 197.567C260.589 197.267 260.626 196.88 260.67 196.4C260.67 196.144 260.726 195.863 260.757 195.557C260.788 195.252 260.795 194.933 260.813 194.547C260.844 193.829 260.919 193.005 260.894 192.094V190.665C260.894 190.172 260.838 189.654 260.813 189.124C260.782 188.051 260.632 186.921 260.501 185.723C259.82 180.542 258.269 175.513 255.915 170.847C255.347 169.786 254.835 168.763 254.261 167.864C253.98 167.409 253.725 166.953 253.45 166.541C253.176 166.13 252.907 165.736 252.651 165.362C252.158 164.595 251.634 163.958 251.197 163.378C250.979 163.091 250.779 162.816 250.573 162.579L250.024 161.955L249.276 161.056C249.19 160.949 249.116 160.832 249.057 160.707Z" fill="#263238"/>
<path d="M267.696 173.023C267.639 173.339 267.558 173.65 267.453 173.953C267.272 174.577 267.022 175.401 266.729 176.449C265.201 182 264.313 187.707 264.083 193.459C264.039 194.564 264.014 195.456 264.002 196.074C264.014 196.395 263.998 196.717 263.952 197.035C263.896 196.72 263.871 196.4 263.877 196.08C263.877 195.456 263.833 194.564 263.877 193.453C263.977 187.669 264.872 181.927 266.535 176.387C266.86 175.326 267.159 174.477 267.359 173.891C267.445 173.592 267.558 173.302 267.696 173.023Z" fill="#263238"/>
<path d="M269.044 185.242C268.259 186.679 267.573 188.168 266.991 189.698C266.518 191.262 266.151 192.857 265.893 194.471C265.823 193.989 265.823 193.499 265.893 193.017C266.024 191.851 266.281 190.702 266.66 189.591C267.037 188.479 267.538 187.411 268.152 186.409C268.389 185.978 268.69 185.584 269.044 185.242Z" fill="#263238"/>
<path d="M90.8731 275.732L90.0182 295.994L79.0732 295.744L79.8969 275.445L90.8731 275.732Z" fill="#106FA4"/>
<path d="M84.6456 295.108C84.552 295.108 84.7205 290.665 85.02 285.199C85.3195 279.733 85.644 275.302 85.7314 275.309C85.8187 275.315 85.6565 279.751 85.3507 285.218C85.045 290.684 84.733 295.114 84.6456 295.108Z" fill="#263238"/>
<path d="M90.0744 294.597L79.1356 294.316L79.0732 295.745L90.0182 295.995L90.0744 294.597Z" fill="#263238"/>
<path d="M79.3353 289.26C79.4117 289.1 79.5152 288.954 79.6411 288.829C79.9471 288.464 80.2877 288.13 80.6582 287.831C81.2114 287.382 81.8247 287.012 82.4803 286.732C83.6235 286.233 84.897 286.114 86.1127 286.394C87.3285 286.674 88.4221 287.337 89.232 288.286C89.5413 288.662 89.7917 289.083 89.9745 289.534C90.0554 289.692 90.1061 289.863 90.1243 290.04C89.8169 289.481 89.4575 288.952 89.051 288.461C88.0127 287.332 86.5706 286.66 85.0387 286.589C83.5044 286.566 82.0088 287.071 80.8017 288.018C79.872 288.723 79.379 289.297 79.3353 289.26Z" fill="#263238"/>
<g opacity="0.3">
<path d="M79.6599 281.223L79.5725 283.457L90.5362 283.65L90.6111 281.971L79.6599 281.223Z" fill="black"/>
</g>
<path d="M116.626 276.943L116.095 289.279C116.095 289.279 128.45 293.959 128.575 296.249L104.632 296.075L104.676 276.824L116.626 276.943Z" fill="#106FA4"/>
<path d="M108.857 288.23C108.623 288.297 108.423 288.449 108.295 288.655C108.167 288.861 108.121 289.108 108.164 289.347C108.225 289.582 108.373 289.784 108.579 289.913C108.784 290.042 109.031 290.087 109.269 290.04C109.515 289.967 109.725 289.805 109.859 289.586C109.993 289.367 110.04 289.106 109.993 288.854C109.953 288.73 109.889 288.615 109.805 288.516C109.72 288.418 109.617 288.337 109.5 288.279C109.384 288.22 109.257 288.186 109.127 288.178C108.997 288.169 108.867 288.187 108.745 288.23" fill="#E0E0E0"/>
<path d="M104.626 296.07V294.148L127.801 295.022C127.801 295.022 128.869 295.496 128.744 296.27L104.626 296.07Z" fill="#263238"/>
<path d="M116.307 289.356C116.307 289.474 115.715 289.524 115.134 289.899C114.554 290.273 114.242 290.766 114.13 290.716C114.017 290.666 114.204 289.992 114.916 289.549C115.627 289.106 116.339 289.25 116.307 289.356Z" fill="#263238"/>
<path d="M118.835 290.422C118.835 290.534 118.348 290.734 117.942 291.227C117.537 291.72 117.418 292.25 117.318 292.244C117.218 292.238 117.131 291.57 117.649 290.996C118.167 290.422 118.828 290.309 118.835 290.422Z" fill="#263238"/>
<path d="M120.245 293.462C120.139 293.462 119.976 292.894 120.288 292.251C120.6 291.609 121.143 291.359 121.193 291.459C121.243 291.559 120.9 291.896 120.657 292.426C120.413 292.956 120.363 293.449 120.245 293.462Z" fill="#263238"/>
<path d="M116.12 286.516C116.07 286.622 115.496 286.454 114.872 286.516C114.248 286.579 113.68 286.76 113.624 286.66C113.568 286.56 114.061 286.142 114.872 286.104C115.683 286.067 116.176 286.416 116.12 286.516Z" fill="#263238"/>
<path d="M116.569 283.855C116.173 283.965 115.755 283.965 115.359 283.855C114.929 283.772 114.51 283.638 114.111 283.456C113.871 283.35 113.639 283.224 113.418 283.082C113.284 283.005 113.161 282.908 113.056 282.795C112.98 282.711 112.934 282.604 112.925 282.491C112.916 282.378 112.945 282.266 113.006 282.171C113.064 282.087 113.142 282.019 113.232 281.972C113.322 281.926 113.423 281.902 113.524 281.902C113.678 281.906 113.831 281.929 113.98 281.971C114.237 282.036 114.487 282.123 114.729 282.233C115.135 282.421 115.51 282.672 115.839 282.976C116.395 283.494 116.582 283.937 116.538 283.962C116.495 283.987 116.214 283.625 115.652 283.194C115.321 282.943 114.961 282.733 114.579 282.57C114.354 282.478 114.123 282.402 113.886 282.345C113.63 282.277 113.412 282.277 113.35 282.389C113.287 282.501 113.35 282.451 113.35 282.526C113.426 282.608 113.514 282.678 113.612 282.732C113.812 282.867 114.021 282.99 114.236 283.1C114.61 283.29 115 283.445 115.403 283.562C115.798 283.632 116.188 283.73 116.569 283.855Z" fill="#263238"/>
<path d="M116.413 284.024C116.183 283.68 116.074 283.269 116.101 282.857C116.083 282.409 116.142 281.961 116.276 281.534C116.356 281.281 116.461 281.036 116.588 280.804C116.652 280.641 116.758 280.497 116.895 280.388C117.032 280.278 117.195 280.207 117.368 280.18C117.475 280.184 117.579 280.218 117.667 280.279C117.756 280.34 117.825 280.424 117.867 280.523C117.931 280.663 117.971 280.813 117.986 280.966C118.041 281.326 118.022 281.694 117.931 282.047C117.839 282.399 117.678 282.73 117.456 283.019C116.981 283.643 116.488 283.78 116.482 283.743C116.476 283.705 116.85 283.456 117.218 282.857C117.431 282.514 117.565 282.128 117.612 281.727C117.643 281.495 117.643 281.26 117.612 281.028C117.574 280.772 117.481 280.567 117.381 280.592C117.281 280.616 117.056 280.779 116.956 280.985C116.836 281.182 116.736 281.391 116.657 281.609C116.518 281.996 116.436 282.402 116.413 282.813C116.357 283.568 116.476 284.005 116.413 284.024Z" fill="#263238"/>
<g opacity="0.3">
<path d="M104.62 284.219L104.645 286.958H116.195V284.475L104.62 284.219Z" fill="black"/>
</g>
<path d="M97.9805 198.449L94.4424 232.556L91.9028 283.918H78.3495L77.9813 174.605L116.788 177.37L124.831 234.722L117.867 284.922H102.997L106.473 237.193L97.9805 198.449Z" fill="#263238"/>
<path d="M97.968 198.43C98.7663 199.376 99.6499 200.247 100.608 201.032C101.488 201.9 102.444 202.687 103.465 203.384C102.67 202.437 101.789 201.566 100.832 200.782C99.9506 199.913 98.9919 199.126 97.968 198.43Z" fill="#455A64"/>
<path d="M98.0241 197.771C98.0792 196.315 98.0542 194.857 97.9492 193.403C97.9453 191.944 97.862 190.486 97.6996 189.035C97.5292 190.485 97.4999 191.948 97.6123 193.403C97.6088 194.869 97.7467 196.332 98.0241 197.771Z" fill="#455A64"/>
<path d="M93.5376 185.041C93.465 185.033 93.3918 185.033 93.3192 185.041L92.6515 185.004L90.0807 184.879L80.8954 184.492H80.7332V184.648C80.7332 187.519 80.7332 190.763 80.7332 194.189V194.489L80.8392 194.532L86.8172 196.922H86.8733H86.9295L92.2148 195.088L92.2959 195.057V194.969C92.6828 191.993 93.0072 189.515 93.2381 187.737C93.338 186.907 93.4191 186.239 93.4815 185.746C93.5154 185.521 93.5363 185.294 93.5439 185.066C93.5251 185.129 93.5125 185.194 93.5064 185.26C93.5064 185.409 93.4503 185.584 93.4128 185.796C93.3317 186.296 93.2256 186.969 93.0946 187.812C92.8325 189.559 92.4706 192.005 92.0213 194.932L92.1149 194.819L86.8172 196.617H86.9295L80.9578 194.208L81.0639 194.364V194.177C81.0639 190.751 81.0639 187.506 81.0639 184.636L80.9079 184.792L89.9933 185.016L92.6079 185.06H93.5626L93.5376 185.041Z" fill="#455A64"/>
<path d="M113.106 185.202H112.907H112.283L109.955 185.133L101.575 184.934H101.419V185.09C101.512 187.923 101.612 191.18 101.724 194.656V194.687L101.793 194.737L102.767 195.361L107.677 198.562L107.765 198.618L107.852 198.568L113.387 195.192L113.456 195.148V195.067C113.35 192.097 113.262 189.62 113.2 187.841C113.169 187.018 113.137 186.35 113.119 185.857C113.1 185.364 113.075 185.171 113.069 185.177C113.06 185.243 113.06 185.31 113.069 185.377V185.951C113.069 186.456 113.069 187.13 113.069 187.972C113.069 189.726 113.131 192.178 113.175 195.111L113.243 194.992L107.684 198.325H107.858L102.96 195.099L101.993 194.475L102.068 194.612C101.943 191.136 101.824 187.873 101.718 185.04L101.568 185.196L109.861 185.239H112.85L113.106 185.202Z" fill="#455A64"/>
<path d="M82.1683 200.653C82.7822 200.699 83.3993 200.681 84.0091 200.597C85.1386 200.516 86.6986 200.36 88.4146 200.135C90.1306 199.91 91.6781 199.667 92.7826 199.461C93.3919 199.381 93.9918 199.241 94.5735 199.043C93.96 199.051 93.3483 199.111 92.7451 199.224L88.3771 199.804L84.0091 200.36C83.3884 200.405 82.7726 200.504 82.1683 200.653Z" fill="#455A64"/>
<path d="M82.4866 238.673C82.4866 238.673 82.5427 238.866 82.8048 239.103C83.1983 239.415 83.688 239.58 84.1901 239.571C84.9348 239.553 85.6507 239.28 86.2181 238.797C86.8978 238.232 87.5244 237.605 88.0901 236.925C89.1207 235.725 90.0377 234.432 90.8294 233.063C91.1861 232.511 91.4752 231.918 91.6906 231.297C91.3085 231.825 90.9544 232.373 90.6298 232.938C89.783 234.247 88.849 235.498 87.8342 236.682C87.2903 237.343 86.6935 237.959 86.0496 238.523C85.5398 238.976 84.8954 239.25 84.2151 239.303C83.7554 239.333 83.2982 239.215 82.9109 238.966C82.6176 238.816 82.5115 238.654 82.4866 238.673Z" fill="#455A64"/>
<path d="M109.256 239.871C109.256 239.871 109.256 240.045 109.437 240.307C109.676 240.671 109.996 240.975 110.373 241.194C110.94 241.527 111.588 241.698 112.245 241.686C113.042 241.653 113.815 241.407 114.485 240.975C115.655 240.165 116.586 239.055 117.181 237.762C117.47 237.259 117.694 236.723 117.849 236.164C117.52 236.638 117.226 237.134 116.969 237.649C116.337 238.861 115.424 239.904 114.304 240.688C113.687 241.092 112.975 241.329 112.239 241.374C111.637 241.397 111.039 241.264 110.504 240.988C110.01 240.713 109.584 240.331 109.256 239.871Z" fill="#455A64"/>
<path d="M108.389 234.723C108.718 235 109.097 235.212 109.506 235.347C110.468 235.751 111.495 235.98 112.538 236.021C113.595 236.07 114.652 235.928 115.658 235.602C116.076 235.491 116.47 235.303 116.819 235.047C115.448 235.467 114.022 235.678 112.588 235.671C111.148 235.573 109.731 235.253 108.389 234.723Z" fill="#455A64"/>
<path d="M97.4813 115.546L82.861 115.365L84.4958 103.346C84.4958 103.346 83.4974 103.14 83.4288 97.9113C83.3602 92.6822 83.1106 83.7964 83.1106 83.7964C86.1948 82.5171 89.5578 82.0579 92.8721 82.4636C96.1864 82.8693 99.3393 84.126 102.024 86.1114L102.829 86.7354L97.4813 115.546Z" fill="#FFBE9D"/>
<path d="M101.132 93.1177C101.225 93.0802 104.876 92.0569 104.732 95.6137C104.589 99.1705 100.92 98.3343 100.92 98.2282C100.92 98.1222 101.132 93.1177 101.132 93.1177Z" fill="#FFBE9D"/>
<path d="M83.7408 92.3502C83.6472 92.3127 80.3525 91.4578 80.4648 95.0271C80.5772 98.5964 84.2775 97.754 84.2837 97.6479C84.29 97.5418 83.7408 92.3502 83.7408 92.3502Z" fill="#FFBE9D"/>
<path d="M102.336 92.7193C101.787 95.7145 101.893 97.2869 101.381 99.29C100.57 102.454 98.9415 104.906 95.9899 106.466C93.0384 108.026 89.0386 108.02 86.5051 105.842C84.7392 104.344 83.4912 102.66 83.2291 100.407C82.9671 98.1543 82.7112 94.1669 82.6925 91.9143C82.6925 87.8333 82.3805 83.9333 82.3805 83.9333L94.4549 81.8242L101.319 85.7679L102.336 92.7193Z" fill="#263238"/>
<path d="M89.856 108.269C90.5322 108.517 91.2627 108.58 91.9713 108.45C92.6895 108.43 93.3886 108.214 93.9931 107.826C93.9931 107.738 93.0696 108.007 91.9339 108.125C90.7982 108.244 89.8872 108.175 89.856 108.269Z" fill="#263238"/>
<path d="M101.749 97.8114C102.099 94.7413 102.33 91.2344 102.829 87.9959C103.016 86.7479 103.453 85.0319 103.353 83.8088C103.317 82.571 103.046 81.3514 102.554 80.2146C102.188 79.5118 101.668 78.9006 101.032 78.4264C100.397 77.9522 99.6633 77.6271 98.8853 77.4752C98.0995 77.3296 97.2914 77.3575 96.5175 77.5569C95.7436 77.7563 95.0226 78.1224 94.405 78.6296C93.9397 77.9952 93.3014 77.5083 92.5666 77.2272C91.8318 76.9461 91.0315 76.8827 90.2616 77.0447C89.5027 77.2189 88.8125 77.6142 88.2783 78.1807C87.7441 78.7471 87.3897 79.4593 87.2602 80.2271C86.8121 79.8397 86.2559 79.5991 85.6668 79.5377C85.0776 79.4764 84.4838 79.5972 83.9655 79.8839C83.4695 80.1825 83.0843 80.6345 82.8682 81.1716C82.652 81.7086 82.6166 82.3014 82.7674 82.8603C82.3387 82.931 81.9333 83.104 81.5857 83.3648C81.2381 83.6255 80.9585 83.9662 80.7706 84.3579C80.5967 84.7488 80.5239 85.177 80.5588 85.6034C80.5937 86.0297 80.7352 86.4404 80.9703 86.7978C81.5319 87.6277 82.5427 88.0832 83.1543 88.8757C83.5034 89.3336 83.7077 89.8853 83.7411 90.4601C83.7744 91.0349 83.6353 91.6066 83.3415 92.1018" fill="#263238"/>
<path d="M84.9763 86.734C84.9956 86.8535 85.0426 86.9667 85.1136 87.0647C85.286 87.3698 85.5249 87.6321 85.8125 87.8322C86.2705 88.159 86.8225 88.3276 87.385 88.3127C87.7496 88.3013 88.1083 88.2176 88.4403 88.0666C88.7723 87.9156 89.0711 87.7002 89.3194 87.4329L89.0635 87.3642C89.1563 87.7765 89.3538 88.1578 89.6369 88.4715C89.9199 88.7852 90.2791 89.0207 90.6797 89.1551C91.1265 89.322 91.6069 89.3791 92.0803 89.3215C92.5538 89.264 93.0065 89.0935 93.4003 88.8244C94.1057 88.3576 94.6436 87.6777 94.9354 86.8838L94.6421 86.9212C94.9522 87.3595 95.3613 87.7184 95.8362 87.9689C96.3111 88.2194 96.8384 88.3543 97.3752 88.3626C97.7998 88.3721 98.2221 88.297 98.6174 88.1417C99.0127 87.9863 99.3732 87.7539 99.6778 87.4578C100.071 87.0844 100.358 86.6126 100.508 86.0913C100.574 85.9098 100.6 85.7159 100.583 85.5234C100.583 85.5234 100.526 85.7231 100.402 86.0601C100.214 86.5381 99.9168 86.9655 99.5342 87.3081C98.9463 87.8356 98.1771 88.1151 97.3877 88.0881C96.8958 88.0713 96.4146 87.9408 95.9815 87.707C95.5485 87.4732 95.1755 87.1423 94.8917 86.7402L94.717 86.4719L94.5984 86.7714C94.3237 87.4959 93.8309 88.1172 93.1882 88.5498C92.8393 88.7899 92.438 88.9429 92.0179 88.9961C91.5977 89.0493 91.171 89.0011 90.7733 88.8556C90.4215 88.7418 90.1043 88.5407 89.8511 88.2712C89.598 88.0017 89.4172 87.6725 89.3256 87.3143L89.2757 87.0148L89.0698 87.2457C88.6764 87.6824 88.1415 87.9663 87.5593 88.0474C86.9772 88.1284 86.3851 88.0014 85.8874 87.6887C85.5243 87.433 85.2147 87.1087 84.9763 86.734Z" fill="#455A64"/>
<path d="M85.0012 85.3074C85.0707 84.8395 85.2457 84.3935 85.5129 84.0032C85.8205 83.5919 86.2618 83.3007 86.7609 83.1795C87.0746 83.1082 87.3995 83.1013 87.7159 83.1593C88.0323 83.2172 88.3337 83.3387 88.6017 83.5165L88.895 83.7224L88.8638 83.373C88.835 83.0249 88.8775 82.6745 88.9886 82.3434C89.1098 81.9792 89.304 81.6437 89.5594 81.3572C89.8147 81.0707 90.1259 80.8393 90.4737 80.6773C91.0635 80.4212 91.7207 80.3642 92.3457 80.515C92.925 80.6796 93.4602 80.9717 93.912 81.3699C93.912 81.3699 93.8433 81.2014 93.6124 80.9706C93.2692 80.6549 92.8567 80.424 92.4081 80.2966C91.6534 80.0648 90.8378 80.1391 90.1374 80.5033C89.4369 80.8675 88.9078 81.4926 88.6641 82.2435C88.5408 82.6172 88.4962 83.0124 88.5331 83.4042L88.7952 83.2544C88.4873 83.0526 88.1406 82.9173 87.7775 82.8572C87.4143 82.797 87.0426 82.8133 86.686 82.905C86.1228 83.0501 85.6336 83.3992 85.3132 83.8846C85.1042 84.1911 84.9755 84.5451 84.9388 84.9142C84.9451 85.1701 84.9825 85.3074 85.0012 85.3074Z" fill="#455A64"/>
<path d="M92.7015 85.4046C92.7451 85.4046 92.7015 85.2049 92.7015 84.9179C92.738 84.5381 92.8688 84.1734 93.0821 83.8571C93.3255 83.4889 93.6125 83.1145 93.781 82.9086C93.9495 82.7027 94.1367 82.8587 94.1679 82.8399C94.1991 82.8212 94.1679 82.7588 94.0867 82.6964C94.0157 82.6577 93.9351 82.64 93.8544 82.6455C93.7737 82.6511 93.6963 82.6795 93.6312 82.7276C93.4768 82.8487 93.3365 82.9869 93.2131 83.1395C93.0583 83.3117 92.9164 83.4953 92.7888 83.6886C92.5425 84.0558 92.4281 84.4958 92.4643 84.9366C92.5143 85.2611 92.664 85.4233 92.7015 85.4046Z" fill="#455A64"/>
<path d="M99.84 80.9139C99.8774 80.9139 99.84 80.6331 99.6154 80.2899C99.4772 80.0615 99.2869 79.8691 99.06 79.7283C98.7677 79.5469 98.4209 79.474 98.0803 79.5224C97.4973 79.6224 96.9736 79.9388 96.6139 80.4085C96.3456 80.7392 96.2208 80.9638 96.252 80.9888C96.2832 81.0138 96.4891 80.839 96.7886 80.5645C97.1514 80.1951 97.6165 79.943 98.124 79.8406C98.3712 79.8162 98.6206 79.8569 98.8472 79.9587C99.0738 80.0605 99.2698 80.2199 99.4157 80.421C99.6965 80.7018 99.84 80.9326 99.84 80.9139Z" fill="#455A64"/>
<path d="M97.9679 96.0938C99.0774 94.7254 99.6871 93.0195 99.6964 91.2578C99.5966 91.2578 99.4031 92.381 98.9289 93.7101C98.4547 95.0392 97.8993 96.0189 97.9679 96.0938Z" fill="#455A64"/>
<path d="M96.3643 96.9312C96.7763 96.4595 97.0808 95.9038 97.2566 95.3026C97.5342 94.7455 97.6855 94.134 97.6996 93.5117C97.3724 94.0341 97.1184 94.5989 96.9446 95.1903C96.6672 95.7391 96.4716 96.3257 96.3643 96.9312Z" fill="#455A64"/>
<path d="M86.1869 97.1758C86.0158 98.2343 86.1613 99.3197 86.605 100.296C86.9597 101.333 87.6105 102.244 88.477 102.917C87.8958 102.049 87.3866 101.134 86.9544 100.183C86.6178 99.2033 86.3611 98.1974 86.1869 97.1758Z" fill="#455A64"/>
<path d="M84.5645 94.5664C84.1768 95.457 84.0935 96.4504 84.3273 97.3931C84.4533 98.3628 84.8914 99.2652 85.5753 99.964C85.1947 99.1163 84.8878 98.2374 84.6581 97.337C84.5435 96.4182 84.5122 95.4909 84.5645 94.5664Z" fill="#455A64"/>
<path d="M65.0146 144.598V159.574C65.0146 159.574 76.2466 184.397 76.2466 184.016C76.2466 183.635 80.2589 168.347 80.2589 168.347L75.7411 156.423L75.3168 148.635L66.0442 130.09C66.0442 130.09 63.7416 142.57 64.116 143.319C64.3465 143.79 64.6497 144.221 65.0146 144.598Z" fill="#106FA4"/>
<path d="M79.0046 114.86C79.0046 114.86 68.796 120.158 67.5355 121.793C66.275 123.428 66.0254 130.111 66.0254 130.111L79.0046 156.069L79.6286 166.528C79.6286 166.528 75.7224 174.671 75.7224 180.362V180.986L75.0984 188.798L90.6984 190.183C90.6984 190.183 91.5844 185.896 91.5844 186.277C91.5844 186.658 92.7201 190.183 92.7201 190.183H118.56L117.605 172.98L113.206 146.422C113.206 146.422 115.078 131.19 115.172 130.635C115.334 129.649 131.695 122.392 131.695 122.392L139.402 118.23C140.385 117.695 141.206 116.905 141.779 115.943C142.352 114.981 142.656 113.883 142.659 112.764C142.655 111.607 142.33 110.473 141.72 109.49C141.109 108.507 140.237 107.714 139.202 107.198L117.455 96.4336L112.395 104.945L119.022 109.201L123.77 112.489L110.598 113.737C110.598 113.737 108.258 110.68 107.253 110.68C106.248 110.68 98.1801 112.552 98.1801 112.552L98.3049 110.536C98.3049 110.536 96.1646 108.14 93.7684 108.265C91.3723 108.389 81.2884 111.291 81.2884 111.291L79.0046 114.86Z" fill="#106FA4"/>
<path d="M115.64 99.4852L109.968 96.1842L101.338 91.5042C101.338 91.5042 98.4922 89.3452 97.369 89.4076C96.8918 89.4944 96.4384 89.6811 96.0384 89.9553C95.6384 90.2295 95.3008 90.5851 95.0477 90.9988C94.9978 91.2546 95.4658 91.7289 96.1896 91.5292C96.4267 91.4668 97.0882 90.9863 97.4376 91.0612C98.1068 91.2195 98.6858 91.637 99.0475 92.2218C99.0922 92.2794 99.1197 92.3485 99.1269 92.4211C99.134 92.4937 99.1205 92.5668 99.0879 92.632C99.0553 92.6972 99.0049 92.7519 98.9426 92.7897C98.8802 92.8276 98.8084 92.847 98.7355 92.8458C98.7355 92.8458 93.8496 91.5978 92.0275 92.5962C91.8127 92.7006 91.6437 92.8804 91.5528 93.1013C91.4619 93.3223 91.4554 93.5689 91.5346 93.7943C91.6656 94.1125 92.015 94.4183 92.8699 94.2311C94.5859 93.9004 97.4189 95.217 97.4189 95.217C97.4189 95.217 91.079 95.0111 89.9933 95.554C89.5627 95.7661 89.0947 97.1514 90.3864 97.2949C91.909 97.4572 94.9104 97.3948 94.9104 97.3948C94.9104 97.3948 97.7434 97.7879 97.2878 98.3183C96.8323 98.8487 92.483 98.8924 92.1523 98.9423C91.8216 98.9922 90.349 98.9423 90.4301 100.14C90.4738 100.821 91.7467 101.251 93.3941 101.195C94.7918 101.151 99.1286 101.064 99.6341 101.856C100.14 102.649 99.7963 103.223 99.397 103.423C98.1284 103.734 96.8367 103.943 95.5344 104.047C94.9603 104.047 94.2053 105.107 95.603 105.444C97.1256 105.819 98.411 105.513 99.7277 105.513C101.044 105.513 102.729 105.619 106.423 104.171C106.423 104.171 108.919 103.042 112.314 104.989L115.64 99.4852Z" fill="#FFBE9D"/>
<path d="M97.5437 112.676C97.5437 112.77 93.5688 113.3 88.6392 113.924C83.7096 114.548 79.6973 114.935 79.691 114.842C79.6848 114.748 83.6659 114.218 88.6018 113.594C93.5376 112.97 97.5375 112.589 97.5437 112.676Z" fill="#263238"/>
<path d="M96.6576 167.856C96.7217 167.733 96.7947 167.614 96.876 167.501L97.5624 166.508C98.1864 165.654 99.0163 164.399 100.058 162.827C101.1 161.254 102.255 159.37 103.497 157.211C104.738 155.052 105.993 152.674 107.284 150.11C108.576 147.545 109.631 145.055 110.573 142.765C111.515 140.475 112.276 138.397 112.882 136.613C113.487 134.828 113.961 133.405 114.267 132.401C114.417 131.933 114.535 131.552 114.629 131.252C114.668 131.118 114.718 130.986 114.779 130.859C114.766 130.999 114.738 131.137 114.697 131.271C114.616 131.571 114.516 131.958 114.385 132.438C114.117 133.455 113.687 134.934 113.1 136.688C112.513 138.441 111.765 140.575 110.847 142.878C109.93 145.18 108.832 147.682 107.578 150.253C106.323 152.824 105.007 155.245 103.759 157.361C102.511 159.476 101.306 161.385 100.252 162.939C99.1973 164.493 98.3174 165.729 97.681 166.558L96.9509 167.519C96.8669 167.643 96.7685 167.756 96.6576 167.856Z" fill="#263238"/>
<path d="M75.5039 184.043C75.4956 183.926 75.4956 183.81 75.5039 183.693C75.5039 183.444 75.5601 183.107 75.5975 182.695C75.6911 181.828 75.8721 180.561 76.1529 178.982C76.9498 174.734 78.0658 170.552 79.4913 166.471V166.533C79.354 164.362 79.2105 162.022 79.067 159.594C78.9921 158.39 78.9235 157.205 78.8548 156.075V156.138C76.078 150.727 73.7817 145.879 72.2155 142.36C71.4292 140.606 70.8302 139.177 70.4308 138.191C70.2499 137.717 70.1001 137.336 69.9878 137.049C69.9421 136.922 69.9086 136.79 69.8879 136.656C69.9624 136.777 70.0251 136.904 70.0751 137.037L70.5681 138.154C71.0049 139.121 71.6289 140.538 72.4401 142.278C74.0563 145.767 76.39 150.603 79.1668 156.006V156.038C79.2355 157.167 79.3103 158.353 79.379 159.557C79.5287 161.984 79.666 164.324 79.7908 166.496V166.527C78.3583 170.588 77.2095 174.743 76.3526 178.963C76.0406 180.536 75.8347 181.796 75.7286 182.658L75.5788 183.65C75.5769 183.784 75.5516 183.917 75.5039 184.043Z" fill="#263238"/>
<path d="M92.4518 178.949C92.3258 180.872 92.0946 182.786 91.7592 184.684C91.5292 186.594 91.1917 188.49 90.7483 190.362C90.8707 188.441 91.102 186.529 91.4409 184.634C91.6713 182.722 92.0088 180.824 92.4518 178.949Z" fill="#263238"/>
<path d="M110.941 125.979C110.811 125.845 110.699 125.694 110.61 125.53C110.417 125.23 110.155 124.781 109.855 124.213C109.084 122.724 108.471 121.157 108.027 119.54C107.578 117.923 107.298 116.265 107.191 114.591C107.153 113.967 107.147 113.431 107.16 113.075C107.151 112.888 107.168 112.702 107.209 112.52C107.266 112.52 107.284 113.306 107.422 114.572C107.758 117.877 108.651 121.1 110.061 124.107C110.386 124.716 110.68 125.34 110.941 125.979Z" fill="#263238"/>
<g opacity="0.3">
<path d="M97.344 166.663C97.9861 166.934 98.6826 167.051 99.378 167.006C100.073 166.96 100.749 166.753 101.35 166.401C102.544 165.682 103.591 164.742 104.433 163.63C110.983 155.675 114.25 145.52 113.568 135.238C109.882 146.207 104.589 156.568 97.8619 165.983" fill="black"/>
</g>
<g opacity="0.3">
<path d="M70.3996 137.953C69.8544 137.301 69.1553 136.795 68.3654 136.48C67.9982 136.336 67.5893 136.34 67.225 136.491C66.8607 136.643 66.5693 136.93 66.4123 137.292C66.3445 137.714 66.4009 138.148 66.5745 138.539C67.7788 142.09 69.0206 145.722 71.3793 148.636C71.8042 149.107 72.3038 149.506 72.8582 149.815C73.4198 150.171 74.9486 150.483 75.1607 149.878C75.2703 149.363 75.2703 148.832 75.1607 148.318C75.1607 148.318 71.7974 141.454 70.1687 137.928" fill="black"/>
</g>
<g opacity="0.3">
<path d="M123.633 112.481C125.134 112.835 126.701 112.807 128.188 112.4C125.848 110.628 122.797 110.241 119.889 109.848L123.633 112.481Z" fill="black"/>
</g>
<path d="M133.268 112.743C132.784 112.791 132.297 112.791 131.814 112.743L128.332 112.643L124.85 112.587C124.366 112.608 123.881 112.581 123.402 112.506C123.875 112.397 124.359 112.347 124.844 112.356C125.736 112.312 126.972 112.287 128.338 112.319C129.705 112.35 130.94 112.431 131.832 112.512C132.318 112.533 132.8 112.61 133.268 112.743Z" fill="#263238"/>
<path d="M68.64 154.75C68.64 154.713 68.9707 154.937 69.445 155.299C70.0362 155.784 70.6861 156.193 71.3794 156.516C72.0722 156.816 72.8355 156.916 73.5821 156.803C74.1499 156.697 74.4619 156.485 74.4931 156.535C74.5243 156.585 74.2373 156.853 73.632 157.028C72.8379 157.222 72.0019 157.147 71.2546 156.816C70.5303 156.482 69.8678 156.029 69.2952 155.474C68.8709 155.031 68.64 154.75 68.64 154.75Z" fill="#263238"/>
<path opacity="0.3" d="M92.4518 180.129L95.5219 190.213H92.7388L91.4471 185.676L92.4518 180.129Z" fill="black"/>
</svg>
