<svg width="41" height="41" viewBox="0 0 41 41" fill="none" xmlns="http://www.w3.org/2000/svg">
<path fill-rule="evenodd" clip-rule="evenodd" d="M25.7922 23.8555H19.9553V21.3555H25.7922V23.8555Z" fill="#EA3D6C"/>
<path fill-rule="evenodd" clip-rule="evenodd" d="M25.7922 28.8594H19.9553V26.3594H25.7922V28.8594Z" fill="#EA3D6C"/>
<path fill-rule="evenodd" clip-rule="evenodd" d="M16.6198 23.4414C17.0799 23.4414 17.4529 23.0684 17.4529 22.6083C17.4529 22.1482 17.0799 21.7753 16.6198 21.7753C16.1597 21.7753 15.7867 22.1482 15.7867 22.6083C15.7867 23.0684 16.1597 23.4414 16.6198 23.4414ZM14.9529 22.6083C14.9529 21.6877 15.6992 20.9414 16.6198 20.9414C17.5404 20.9414 18.2867 21.6877 18.2867 22.6083C18.2867 23.529 17.5404 24.2753 16.6198 24.2753C15.6992 24.2753 14.9529 23.529 14.9529 22.6083Z" fill="#EA3D6C"/>
<path fill-rule="evenodd" clip-rule="evenodd" d="M25.7922 18.8555H19.9553V16.3555H25.7922V18.8555Z" fill="#EA3D6C"/>
<path fill-rule="evenodd" clip-rule="evenodd" d="M16.6198 18.4375C17.0799 18.4375 17.4529 18.0645 17.4529 17.6044C17.4529 17.1443 17.0799 16.7714 16.6198 16.7714C16.1597 16.7714 15.7867 17.1443 15.7867 17.6044C15.7867 18.0645 16.1597 18.4375 16.6198 18.4375ZM14.9529 17.6044C14.9529 16.6838 15.6992 15.9375 16.6198 15.9375C17.5404 15.9375 18.2867 16.6838 18.2867 17.6044C18.2867 18.525 17.5404 19.2714 16.6198 19.2714C15.6992 19.2714 14.9529 18.525 14.9529 17.6044Z" fill="#EA3D6C"/>
<path fill-rule="evenodd" clip-rule="evenodd" d="M16.6198 28.4414C17.0799 28.4414 17.4529 28.0684 17.4529 27.6083C17.4529 27.1482 17.0799 26.7753 16.6198 26.7753C16.1597 26.7753 15.7867 27.1482 15.7867 27.6083C15.7867 28.0684 16.1597 28.4414 16.6198 28.4414ZM14.9529 27.6083C14.9529 26.6877 15.6992 25.9414 16.6198 25.9414C17.5404 25.9414 18.2867 26.6877 18.2867 27.6083C18.2867 28.529 17.5404 29.2753 16.6198 29.2753C15.6992 29.2753 14.9529 28.529 14.9529 27.6083Z" fill="#EA3D6C"/>
<path fill-rule="evenodd" clip-rule="evenodd" d="M20.7891 8.84766C19.1768 8.84766 17.8698 10.1547 17.8698 11.7669V13.0169H12.4505C12.2199 13.0169 12.0328 13.2039 12.0328 13.4346V30.9456C12.0328 31.1763 12.2199 31.3633 12.4505 31.3633H29.1276C29.3583 31.3633 29.5453 31.1763 29.5453 30.9456V13.4346C29.5453 13.2039 29.3583 13.0169 29.1276 13.0169H23.7084V11.7669C23.7084 10.1547 22.4014 8.84766 20.7891 8.84766ZM15.5147 10.5169C16.079 8.12656 18.2263 6.34766 20.7891 6.34766C23.3519 6.34766 25.4991 8.12656 26.0635 10.5169H29.1276C30.739 10.5169 32.0453 11.8232 32.0453 13.4346V30.9456C32.0453 32.557 30.739 33.8633 29.1276 33.8633H12.4505C10.8391 33.8633 9.53284 32.557 9.53284 30.9456V13.4346C9.53284 11.8232 10.8391 10.5169 12.4505 10.5169H15.5147Z" fill="#EA3D6C"/>
<path fill-rule="evenodd" clip-rule="evenodd" d="M20.7891 12.1836C21.2492 12.1836 21.6221 11.8106 21.6221 11.3505C21.6221 10.8904 21.2492 10.5174 20.7891 10.5174C20.329 10.5174 19.956 10.8904 19.956 11.3505C19.956 11.8106 20.329 12.1836 20.7891 12.1836ZM19.1221 11.3505C19.1221 10.4299 19.8684 9.68359 20.7891 9.68359C21.7097 9.68359 22.456 10.4299 22.456 11.3505C22.456 12.2711 21.7097 13.0174 20.7891 13.0174C19.8684 13.0174 19.1221 12.2711 19.1221 11.3505Z" fill="#EA3D6C"/>
</svg>
