<svg width="41" height="41" viewBox="0 0 41 41" fill="none" xmlns="http://www.w3.org/2000/svg">
<path fill-rule="evenodd" clip-rule="evenodd" d="M11.7222 12.5864H12.0001V12.5886C12.4606 12.5886 12.834 12.9619 12.834 13.4224C12.834 13.883 12.4606 14.2563 12.0001 14.2563H9.2206C8.76007 14.2563 8.38674 13.883 8.38674 13.4224C8.38674 12.9619 8.76007 12.5886 9.2206 12.5886H9.49855C9.65206 12.5886 9.7765 12.4642 9.7765 12.3106V8.97523C9.77709 8.90113 9.74807 8.82985 9.69588 8.77725C9.64369 8.72464 9.57265 8.69505 9.49855 8.69505H9.2206C8.76007 8.69505 8.38674 8.32172 8.38674 7.8612C8.38674 7.40067 8.76007 7.02734 9.2206 7.02734H9.91547C10.7593 7.02857 11.443 7.71229 11.4442 8.55608V12.3106C11.4454 12.4633 11.5695 12.5864 11.7222 12.5864ZM32.8465 11.7547H16.1694C15.5553 11.7547 15.0576 11.257 15.0576 10.6429C15.0576 10.0289 15.5553 9.53113 16.1694 9.53113H32.8465C33.4605 9.53113 33.9583 10.0289 33.9583 10.6429C33.9583 11.257 33.4605 11.7547 32.8465 11.7547ZM16.1694 18.9815H32.8465C33.4605 18.9815 33.9583 19.4792 33.9583 20.0933C33.9583 20.7073 33.4605 21.2051 32.8465 21.2051H16.1694C15.5553 21.2051 15.0576 20.7073 15.0576 20.0933C15.0576 19.4792 15.5553 18.9815 16.1694 18.9815ZM32.8465 28.4318H16.1694C15.5553 28.4318 15.0576 28.9296 15.0576 29.5436C15.0576 30.1577 15.5553 30.6554 16.1694 30.6554H32.8465C33.4605 30.6554 33.9583 30.1577 33.9583 29.5436C33.9583 28.9296 33.4605 28.4318 32.8465 28.4318ZM7.86308 27.578C8.12299 26.6047 9.00479 25.9277 10.0122 25.928V25.9258C10.8324 25.9262 11.5858 26.3782 11.9723 27.1016C12.3588 27.8251 12.3157 28.7026 11.86 29.3846C11.7978 29.4783 11.7978 29.6001 11.86 29.6937C12.3492 30.4246 12.3617 31.3751 11.8919 32.1185C11.422 32.862 10.5582 33.2587 9.68808 33.1305C8.818 33.0023 8.10522 32.3733 7.86975 31.526C7.78006 31.2357 7.85533 30.9197 8.06622 30.701C8.27711 30.4823 8.59024 30.3956 8.88356 30.4747C9.17689 30.5538 9.40397 30.7862 9.47631 31.0813C9.55389 31.3579 9.82953 31.5299 10.1121 31.4779C10.3947 31.4259 10.5911 31.1672 10.5652 30.881C10.5393 30.5948 10.2995 30.3756 10.0122 30.3753C9.55168 30.3753 9.17835 30.0019 9.17835 29.5414C9.17835 29.0809 9.55168 28.7076 10.0122 28.7076C10.3003 28.7074 10.5406 28.4872 10.5658 28.2002C10.5909 27.9132 10.3926 27.6545 10.1089 27.6043C9.82518 27.554 9.55011 27.7289 9.4752 28.0071C9.35669 28.4523 8.89974 28.7171 8.45456 28.5986C8.00939 28.4801 7.74457 28.0231 7.86308 27.578ZM12.2781 18.7013C12.2781 17.4732 11.2825 16.4777 10.0544 16.4777C8.82638 16.4777 7.83084 17.4732 7.83084 18.7013C7.83084 19.1618 8.20417 19.5352 8.66469 19.5352C9.12522 19.5352 9.49855 19.1618 9.49855 18.7013C9.49855 18.3943 9.74743 18.1454 10.0544 18.1454C10.3615 18.1454 10.6104 18.3943 10.6104 18.7013C10.6103 18.9621 10.5212 19.215 10.358 19.4184L8.01317 22.3491C7.81256 22.5995 7.77336 22.9427 7.91235 23.2318C8.05135 23.521 8.34389 23.7047 8.66469 23.7044H11.4442C11.9047 23.7044 12.2781 23.3311 12.2781 22.8706C12.2781 22.41 11.9047 22.0367 11.4442 22.0367H10.9784C10.8712 22.0375 10.7733 21.9763 10.7269 21.8797C10.6805 21.7832 10.694 21.6685 10.7616 21.5853L11.6666 20.4602C12.0631 19.9597 12.2786 19.3398 12.2781 18.7013Z" fill="#F9B400"/>
<mask id="mask0_4709_24973" style="mask-type:alpha" maskUnits="userSpaceOnUse" x="7" y="7" width="27" height="27">
<path fill-rule="evenodd" clip-rule="evenodd" d="M11.7222 12.5864H12.0001V12.5886C12.4606 12.5886 12.834 12.9619 12.834 13.4224C12.834 13.883 12.4606 14.2563 12.0001 14.2563H9.2206C8.76007 14.2563 8.38674 13.883 8.38674 13.4224C8.38674 12.9619 8.76007 12.5886 9.2206 12.5886H9.49855C9.65206 12.5886 9.7765 12.4642 9.7765 12.3106V8.97523C9.77709 8.90113 9.74807 8.82985 9.69588 8.77725C9.64369 8.72464 9.57265 8.69505 9.49855 8.69505H9.2206C8.76007 8.69505 8.38674 8.32172 8.38674 7.8612C8.38674 7.40067 8.76007 7.02734 9.2206 7.02734H9.91547C10.7593 7.02857 11.443 7.71229 11.4442 8.55608V12.3106C11.4454 12.4633 11.5695 12.5864 11.7222 12.5864ZM32.8465 11.7547H16.1694C15.5553 11.7547 15.0576 11.257 15.0576 10.6429C15.0576 10.0289 15.5553 9.53113 16.1694 9.53113H32.8465C33.4605 9.53113 33.9583 10.0289 33.9583 10.6429C33.9583 11.257 33.4605 11.7547 32.8465 11.7547ZM16.1694 18.9815H32.8465C33.4605 18.9815 33.9583 19.4792 33.9583 20.0933C33.9583 20.7073 33.4605 21.2051 32.8465 21.2051H16.1694C15.5553 21.2051 15.0576 20.7073 15.0576 20.0933C15.0576 19.4792 15.5553 18.9815 16.1694 18.9815ZM32.8465 28.4318H16.1694C15.5553 28.4318 15.0576 28.9296 15.0576 29.5436C15.0576 30.1577 15.5553 30.6554 16.1694 30.6554H32.8465C33.4605 30.6554 33.9583 30.1577 33.9583 29.5436C33.9583 28.9296 33.4605 28.4318 32.8465 28.4318ZM7.86308 27.578C8.12299 26.6047 9.00479 25.9277 10.0122 25.928V25.9258C10.8324 25.9262 11.5858 26.3782 11.9723 27.1016C12.3588 27.8251 12.3157 28.7026 11.86 29.3846C11.7978 29.4783 11.7978 29.6001 11.86 29.6937C12.3492 30.4246 12.3617 31.3751 11.8919 32.1185C11.422 32.862 10.5582 33.2587 9.68808 33.1305C8.818 33.0023 8.10522 32.3733 7.86975 31.526C7.78006 31.2357 7.85533 30.9197 8.06622 30.701C8.27711 30.4823 8.59024 30.3956 8.88356 30.4747C9.17689 30.5538 9.40397 30.7862 9.47631 31.0813C9.55389 31.3579 9.82953 31.5299 10.1121 31.4779C10.3947 31.4259 10.5911 31.1672 10.5652 30.881C10.5393 30.5948 10.2995 30.3756 10.0122 30.3753C9.55168 30.3753 9.17835 30.0019 9.17835 29.5414C9.17835 29.0809 9.55168 28.7076 10.0122 28.7076C10.3003 28.7074 10.5406 28.4872 10.5658 28.2002C10.5909 27.9132 10.3926 27.6545 10.1089 27.6043C9.82518 27.554 9.55011 27.7289 9.4752 28.0071C9.35669 28.4523 8.89974 28.7171 8.45456 28.5986C8.00939 28.4801 7.74457 28.0231 7.86308 27.578ZM12.2781 18.7013C12.2781 17.4732 11.2825 16.4777 10.0544 16.4777C8.82638 16.4777 7.83084 17.4732 7.83084 18.7013C7.83084 19.1618 8.20417 19.5352 8.66469 19.5352C9.12522 19.5352 9.49855 19.1618 9.49855 18.7013C9.49855 18.3943 9.74743 18.1454 10.0544 18.1454C10.3615 18.1454 10.6104 18.3943 10.6104 18.7013C10.6103 18.9621 10.5212 19.215 10.358 19.4184L8.01317 22.3491C7.81256 22.5995 7.77336 22.9427 7.91235 23.2318C8.05135 23.521 8.34389 23.7047 8.66469 23.7044H11.4442C11.9047 23.7044 12.2781 23.3311 12.2781 22.8706C12.2781 22.41 11.9047 22.0367 11.4442 22.0367H10.9784C10.8712 22.0375 10.7733 21.9763 10.7269 21.8797C10.6805 21.7832 10.694 21.6685 10.7616 21.5853L11.6666 20.4602C12.0631 19.9597 12.2786 19.3398 12.2781 18.7013Z" fill="white"/>
</mask>
<g mask="url(#mask0_4709_24973)">
</g>
</svg>
