<svg width="47" height="46" viewBox="0 0 47 46" fill="none" xmlns="http://www.w3.org/2000/svg">
<path d="M38.6042 37.8971V36.0013C38.6042 34.8638 37.8458 34.1055 36.7083 34.1055H10.1667C9.02916 34.1055 8.27082 34.8638 8.27082 36.0013V37.8971H6.37499C5.23749 37.8971 4.47916 38.6555 4.47916 39.793V41.6888H42.3958V39.793C42.3958 38.6555 41.6375 37.8971 40.5 37.8971H38.6042Z" fill="#ED3768"/>
<path d="M42.3958 13.2508V15.1466C42.3958 16.2841 41.6375 17.0424 40.5 17.0424H34.8125C35.95 17.0424 36.7083 17.8008 36.7083 18.9383C36.7083 20.0758 35.95 20.8341 34.8125 20.8341V30.3133C35.95 30.3133 36.7083 31.0716 36.7083 32.2091V34.1049H29.125V32.2091C29.125 31.0716 29.8833 30.3133 31.0208 30.3133V20.8341C29.8833 20.8341 29.125 20.0758 29.125 18.9383C29.125 17.8008 29.8833 17.0424 31.0208 17.0424H25.3333C26.4708 17.0424 27.2292 17.8008 27.2292 18.9383C27.2292 20.0758 26.4708 20.8341 25.3333 20.8341V30.3133C26.4708 30.3133 27.2292 31.0716 27.2292 32.2091V34.1049H19.6458V32.2091C19.6458 31.0716 20.4042 30.3133 21.5417 30.3133V20.8341C20.4042 20.8341 19.6458 20.0758 19.6458 18.9383C19.6458 17.8008 20.4042 17.0424 21.5417 17.0424H15.8542C16.9917 17.0424 17.75 17.8008 17.75 18.9383C17.75 20.0758 16.9917 20.8341 15.8542 20.8341V30.3133C16.9917 30.3133 17.75 31.0716 17.75 32.2091V34.1049H10.1667V32.2091C10.1667 31.0716 10.925 30.3133 12.0625 30.3133V20.8341C10.925 20.8341 10.1667 20.0758 10.1667 18.9383C10.1667 17.8008 10.925 17.0424 12.0625 17.0424H6.37499C5.23749 17.0424 4.47916 16.2841 4.47916 15.1466V13.2508L21.5417 4.71953C22.6792 4.15078 24.1958 4.15078 25.5229 4.71953L42.3958 13.2508ZM23.4375 7.56328C21.9208 7.56328 20.5937 8.89036 20.5937 10.407C20.5937 11.9237 21.9208 13.2508 23.4375 13.2508C24.9542 13.2508 26.2812 11.9237 26.2812 10.407C26.2812 8.89036 24.9542 7.56328 23.4375 7.56328Z" fill="#ED3768"/>
</svg>
