<svg width="46" height="47" viewBox="0 0 46 47" fill="none" xmlns="http://www.w3.org/2000/svg">
<g clip-path="url(#clip0_4150_25063)">
<path opacity="0.3" d="M39.8729 25.2076C38.7354 25.2076 37.9771 24.4492 37.9771 23.3117C37.9771 22.1742 38.7354 21.4159 39.8729 21.4159H41.5792C40.6313 12.5055 33.6167 5.3013 24.7063 4.54297V6.24922C24.7063 7.38672 23.9479 8.14505 22.8104 8.14505C21.6729 8.14505 20.9146 7.38672 20.9146 6.24922V4.54297C12.0041 5.49089 4.8 12.5055 4.04167 21.4159H5.7479C6.8854 21.4159 7.64373 22.1742 7.64373 23.3117C7.64373 24.4492 6.8854 25.2076 5.7479 25.2076H4.04167C4.98958 34.118 12.0041 41.3221 20.9146 42.0805V40.3742C20.9146 39.2367 21.6729 38.4784 22.8104 38.4784C23.9479 38.4784 24.7063 39.2367 24.7063 40.3742V42.0805C33.6167 41.1326 40.8208 34.118 41.5792 25.2076H39.8729Z" fill="#3EB449"/>
<path d="M32.2896 21.414H26.0333C25.6542 20.8453 25.275 20.4661 24.7063 20.0869V11.9349C24.7063 10.7974 23.9479 10.0391 22.8104 10.0391C21.6729 10.0391 20.9146 10.7974 20.9146 11.9349V20.0869C20.3458 20.4661 19.9667 20.8453 19.5875 21.414H19.0187C17.8812 21.414 17.1229 22.1724 17.1229 23.3099C17.1229 24.4474 17.8812 25.2057 19.0187 25.2057H19.5875C19.9667 25.7744 20.3458 26.1536 20.9146 26.5328V27.1015C20.9146 28.239 21.6729 28.9974 22.8104 28.9974C23.9479 28.9974 24.7063 28.239 24.7063 27.1015V26.5328C25.275 26.1536 25.6542 25.7744 26.0333 25.2057H32.2896C33.4271 25.2057 34.1854 24.4474 34.1854 23.3099C34.1854 22.1724 33.4271 21.414 32.2896 21.414Z" fill="#3EB449"/>
</g>
<defs>
<clipPath id="clip0_4150_25063">
<rect width="45.5" height="45.5" fill="white" transform="translate(0.25 0.75)"/>
</clipPath>
</defs>
</svg>
