<svg width="60" height="61" viewBox="0 0 60 61" fill="none" xmlns="http://www.w3.org/2000/svg">
<path d="M49.5956 29.7735C49.5928 27.7023 47.9144 26.0239 45.8432 26.0211H34.6262C34.4991 26.0213 34.3789 25.9635 34.2997 25.8641C34.2204 25.7648 34.1908 25.6347 34.2193 25.5108C34.87 22.9285 35.2721 20.2898 35.4201 17.6309C35.4922 16.2396 35.0419 14.8716 34.1576 13.7952C33.4207 12.955 32.36 12.4696 31.2424 12.461C30.3807 12.4178 29.5387 12.7279 28.9108 13.3196C28.2828 13.9114 27.9234 14.7335 27.9154 15.5963C27.9789 21.9806 23.0308 27.296 16.6583 27.6889H11.6552C10.9644 27.6889 10.4044 28.2488 10.4044 28.9396V43.949C10.4044 44.6398 10.9644 45.1998 11.6552 45.1998C19.2133 45.1998 21.6765 46.2588 23.8495 47.1894C25.7639 48.1195 27.8721 48.5809 30 48.5352H40.8401C42.1363 48.5345 43.3404 47.8653 44.0254 46.7648C44.7103 45.6643 44.779 44.2884 44.2072 43.1252C46.0382 42.1945 46.7813 39.9652 45.8749 38.122C47.7059 37.1914 48.449 34.962 47.5426 33.1189C48.8019 32.4788 49.5952 31.1861 49.5956 29.7735Z" fill="#106FA4"/>
<mask id="mask0_5589_5241" style="mask-type:alpha" maskUnits="userSpaceOnUse" x="10" y="12" width="40" height="37">
<path d="M49.5956 29.7735C49.5928 27.7023 47.9144 26.0239 45.8432 26.0211H34.6262C34.4991 26.0213 34.3789 25.9635 34.2997 25.8641C34.2204 25.7648 34.1908 25.6347 34.2193 25.5108C34.87 22.9285 35.2721 20.2898 35.4201 17.6309C35.4922 16.2396 35.0419 14.8716 34.1576 13.7952C33.4207 12.955 32.36 12.4696 31.2424 12.461C30.3807 12.4178 29.5387 12.7279 28.9108 13.3196C28.2828 13.9114 27.9234 14.7335 27.9154 15.5963C27.9789 21.9806 23.0308 27.296 16.6583 27.6889H11.6552C10.9644 27.6889 10.4044 28.2488 10.4044 28.9396V43.949C10.4044 44.6398 10.9644 45.1998 11.6552 45.1998C19.2133 45.1998 21.6765 46.2588 23.8495 47.1894C25.7639 48.1195 27.8721 48.5809 30 48.5352H40.8401C42.1363 48.5345 43.3404 47.8653 44.0254 46.7648C44.7103 45.6643 44.779 44.2884 44.2072 43.1252C46.0382 42.1945 46.7813 39.9652 45.8749 38.122C47.7059 37.1914 48.449 34.962 47.5426 33.1189C48.8019 32.4788 49.5952 31.1861 49.5956 29.7735Z" fill="white"/>
</mask>
<g mask="url(#mask0_5589_5241)">
</g>
</svg>
