<svg width="66" height="66" viewBox="0 0 66 66" fill="none" xmlns="http://www.w3.org/2000/svg">
<g filter="url(#filter0_d_4150_24923)">
<path d="M25.838 6.16757C25.5895 5.75341 25.142 5.5 24.659 5.5H11.366C10.2972 5.5 9.63708 6.66596 10.187 7.58243L25.037 32.3324C25.2855 32.7466 25.733 33 26.216 33H39.509C40.5778 33 41.2379 31.834 40.688 30.9176L25.838 6.16757Z" fill="#C52229"/>
<path fill-rule="evenodd" clip-rule="evenodd" d="M24.6591 4.125H11.3661C9.22852 4.125 7.90821 6.45692 9.00798 8.28986L23.858 33.0399C24.355 33.8682 25.2501 34.375 26.2161 34.375H39.5091C41.6466 34.375 42.9669 32.0431 41.8672 30.2101L27.0172 5.46014C26.5202 4.63182 25.625 4.125 24.6591 4.125ZM24.6591 5.5C25.142 5.5 25.5896 5.75341 25.8381 6.16757L40.6881 30.9176C41.238 31.834 40.5778 33 39.5091 33H26.2161C25.7331 33 25.2855 32.7466 25.037 32.3324L10.187 7.58243C9.63715 6.66596 10.2973 5.5 11.3661 5.5H24.6591Z" fill="#9B0F15"/>
<path d="M40.162 6.16757C40.4105 5.75341 40.858 5.5 41.341 5.5H54.634C55.7028 5.5 56.3629 6.66596 55.813 7.58243L40.963 32.3324C40.7146 32.7466 40.267 33 39.784 33H26.491C25.4222 33 24.7621 31.834 25.312 30.9176L40.162 6.16757Z" fill="#F1333B"/>
<path fill-rule="evenodd" clip-rule="evenodd" d="M41.3411 4.125H54.634C56.7716 4.125 58.0919 6.45692 56.9921 8.28986L42.1421 33.0399C41.6452 33.8682 40.75 34.375 39.784 34.375H26.4911C24.3535 34.375 23.0332 32.0431 24.133 30.2101L38.983 5.46014C39.4799 4.63182 40.3751 4.125 41.3411 4.125ZM41.3411 5.5C40.8581 5.5 40.4105 5.75341 40.162 6.16757L25.312 30.9176C24.7621 31.834 25.4223 33 26.4911 33H39.784C40.267 33 40.7146 32.7466 40.9631 32.3324L55.8131 7.58243C56.363 6.66596 55.7028 5.5 54.634 5.5H41.3411Z" fill="#9B0F15"/>
<path fill-rule="evenodd" clip-rule="evenodd" d="M41.5952 6.28057C41.9236 6.47123 42.0352 6.89197 41.8445 7.22033L35.657 17.8766C35.4664 18.2049 35.0456 18.3166 34.7173 18.1259C34.3889 17.9352 34.2773 17.5145 34.4679 17.1861L40.6554 6.5299C40.8461 6.20154 41.2668 6.08991 41.5952 6.28057Z" fill="#FE666D"/>
<path fill-rule="evenodd" clip-rule="evenodd" d="M11.3423 6.28057C11.0139 6.47123 10.9023 6.89197 11.093 7.22033L17.2805 17.8766C17.4711 18.2049 17.8919 18.3166 18.2202 18.1259C18.5486 17.9352 18.6602 17.5145 18.4696 17.1861L12.2821 6.5299C12.0914 6.20154 11.6706 6.08991 11.3423 6.28057Z" fill="#DF3840"/>
<path d="M24.4062 7.75586C24.4062 8.24234 24.0215 8.63672 23.5469 8.63672C23.0723 8.63672 22.6875 8.24234 22.6875 7.75586C22.6875 7.26937 23.0723 6.875 23.5469 6.875C24.0215 6.875 24.4062 7.26937 24.4062 7.75586Z" fill="#AA161D"/>
<path d="M21.388 7.9707C21.388 8.57584 20.9094 9.06641 20.319 9.06641C19.7286 9.06641 19.25 8.57584 19.25 7.9707C19.25 7.36556 19.7286 6.875 20.319 6.875C20.9094 6.875 21.388 7.36556 21.388 7.9707Z" fill="#AA161D"/>
<path d="M24.0625 11.1074C24.0625 11.7126 23.5839 12.2031 22.9935 12.2031C22.4032 12.2031 21.9246 11.7126 21.9246 11.1074C21.9246 10.5023 22.4032 10.0117 22.9935 10.0117C23.5839 10.0117 24.0625 10.5023 24.0625 11.1074Z" fill="#AA161D"/>
<path d="M26.5065 9.61426C26.5065 9.91683 26.2672 10.1621 25.972 10.1621C25.6768 10.1621 25.4375 9.91683 25.4375 9.61426C25.4375 9.31169 25.6768 9.06641 25.972 9.06641C26.2672 9.06641 26.5065 9.31169 26.5065 9.61426Z" fill="#AA161D"/>
<path d="M20.8535 10.5596C20.8535 10.8621 20.6142 11.1074 20.319 11.1074C20.0238 11.1074 19.7845 10.8621 19.7845 10.5596C19.7845 10.257 20.0238 10.0117 20.319 10.0117C20.6142 10.0117 20.8535 10.257 20.8535 10.5596Z" fill="#AA161D"/>
<path d="M17.875 7.20801C17.875 7.51058 17.6357 7.75586 17.3405 7.75586C17.0453 7.75586 16.806 7.51058 16.806 7.20801C16.806 6.90544 17.0453 6.66016 17.3405 6.66016C17.6357 6.66016 17.875 6.90544 17.875 7.20801Z" fill="#AA161D"/>
<path d="M25.9721 13.4385C25.9721 13.741 25.7328 13.9863 25.4376 13.9863C25.1424 13.9863 24.9031 13.741 24.9031 13.4385C24.9031 13.1359 25.1424 12.8906 25.4376 12.8906C25.7328 12.8906 25.9721 13.1359 25.9721 13.4385Z" fill="#AA161D"/>
<path d="M23.2221 13.9854C23.2221 14.2879 22.9828 14.5332 22.6876 14.5332C22.3924 14.5332 22.1531 14.2879 22.1531 13.9854C22.1531 13.6828 22.3924 13.4375 22.6876 13.4375C22.9828 13.4375 23.2221 13.6828 23.2221 13.9854Z" fill="#AA161D"/>
<path d="M28.5522 12.001C28.5522 12.4934 28.1628 12.8926 27.6824 12.8926C27.2019 12.8926 26.8125 12.4934 26.8125 12.001C26.8125 11.5086 27.2019 11.1094 27.6824 11.1094C28.1628 11.1094 28.5522 11.5086 28.5522 12.001Z" fill="#AA161D"/>
<path d="M29.6862 14.5322C29.6862 14.8348 29.4469 15.0801 29.1517 15.0801C28.8565 15.0801 28.6172 14.8348 28.6172 14.5322C28.6172 14.2297 28.8565 13.9844 29.1517 13.9844C29.4469 13.9844 29.6862 14.2297 29.6862 14.5322Z" fill="#AA161D"/>
<path d="M51.5625 41.9375C51.5625 52.1893 43.2518 60.5 33 60.5C22.7482 60.5 14.4375 52.1893 14.4375 41.9375C14.4375 31.6857 22.7482 23.375 33 23.375C43.2518 23.375 51.5625 31.6857 51.5625 41.9375Z" fill="#BCCCD2"/>
<path fill-rule="evenodd" clip-rule="evenodd" d="M52.9375 41.9375C52.9375 52.9487 44.0112 61.875 33 61.875C21.9888 61.875 13.0625 52.9487 13.0625 41.9375C13.0625 30.9263 21.9888 22 33 22C44.0112 22 52.9375 30.9263 52.9375 41.9375ZM33 60.5C43.2518 60.5 51.5625 52.1893 51.5625 41.9375C51.5625 31.6857 43.2518 23.375 33 23.375C22.7482 23.375 14.4375 31.6857 14.4375 41.9375C14.4375 52.1893 22.7482 60.5 33 60.5Z" fill="#81A5B0"/>
<path fill-rule="evenodd" clip-rule="evenodd" d="M15.8125 42.625C15.4328 42.625 15.125 42.3172 15.125 41.9375C15.125 32.0654 23.1279 24.0625 33 24.0625C33.3797 24.0625 33.6875 24.3703 33.6875 24.75C33.6875 25.1297 33.3797 25.4375 33 25.4375C23.8873 25.4375 16.5 32.8248 16.5 41.9375C16.5 42.3172 16.1922 42.625 15.8125 42.625Z" fill="#D0DEE3"/>
<path fill-rule="evenodd" clip-rule="evenodd" d="M50.1875 41.25C50.5672 41.25 50.875 41.5578 50.875 41.9375C50.875 51.8096 42.8721 59.8125 33 59.8125C32.6203 59.8125 32.3125 59.5047 32.3125 59.125C32.3125 58.7453 32.6203 58.4375 33 58.4375C42.1127 58.4375 49.5 51.0502 49.5 41.9375C49.5 41.5578 49.8078 41.25 50.1875 41.25Z" fill="#A2B9C1"/>
<path d="M46.75 41.9375C46.75 49.5314 40.5939 55.6875 33 55.6875C25.4061 55.6875 19.25 49.5314 19.25 41.9375C19.25 34.3436 25.4061 28.1875 33 28.1875C40.5939 28.1875 46.75 34.3436 46.75 41.9375Z" fill="#C7D4D8"/>
<path fill-rule="evenodd" clip-rule="evenodd" d="M48.125 41.9375C48.125 50.2908 41.3533 57.0625 33 57.0625C24.6467 57.0625 17.875 50.2908 17.875 41.9375C17.875 33.5842 24.6467 26.8125 33 26.8125C41.3533 26.8125 48.125 33.5842 48.125 41.9375ZM33 55.6875C40.5939 55.6875 46.75 49.5314 46.75 41.9375C46.75 34.3436 40.5939 28.1875 33 28.1875C25.4061 28.1875 19.25 34.3436 19.25 41.9375C19.25 49.5314 25.4061 55.6875 33 55.6875Z" fill="#81A5B0"/>
<path fill-rule="evenodd" clip-rule="evenodd" d="M33 53.625C39.4548 53.625 44.6875 48.3923 44.6875 41.9375C44.6875 41.5578 44.9953 41.25 45.375 41.25C45.7547 41.25 46.0625 41.5578 46.0625 41.9375C46.0625 49.1517 40.2142 55 33 55C32.6203 55 32.3125 54.6922 32.3125 54.3125C32.3125 53.9328 32.6203 53.625 33 53.625Z" fill="#B5C3C8"/>
<path fill-rule="evenodd" clip-rule="evenodd" d="M33 30.25C26.5452 30.25 21.3125 35.4827 21.3125 41.9375C21.3125 42.3172 21.0047 42.625 20.625 42.625C20.2453 42.625 19.9375 42.3172 19.9375 41.9375C19.9375 34.7233 25.7858 28.875 33 28.875C33.3797 28.875 33.6875 29.1828 33.6875 29.5625C33.6875 29.9422 33.3797 30.25 33 30.25Z" fill="#D9EAEF"/>
<path d="M37.0176 45.626V47.4387H28.9932V45.8918L32.7878 41.8232C33.1692 41.3989 33.47 41.0256 33.6902 40.7034C33.9104 40.3757 34.0688 40.083 34.1655 39.8252C34.2676 39.562 34.3186 39.3123 34.3186 39.0759C34.3186 38.7214 34.2595 38.418 34.1414 38.1655C34.0232 37.9077 33.8486 37.709 33.6177 37.5693C33.3921 37.4297 33.1128 37.3599 32.7798 37.3599C32.4253 37.3599 32.1191 37.4458 31.8613 37.6177C31.6089 37.7896 31.4155 38.0286 31.2812 38.3347C31.1523 38.6409 31.0879 38.9873 31.0879 39.374H28.7595C28.7595 38.6758 28.926 38.0366 29.259 37.4565C29.592 36.8711 30.062 36.4065 30.6689 36.0627C31.2759 35.7136 31.9956 35.5391 32.8281 35.5391C33.6499 35.5391 34.3428 35.6733 34.9067 35.9419C35.4761 36.2051 35.9058 36.5864 36.1958 37.0859C36.4912 37.5801 36.6389 38.1709 36.6389 38.8584C36.6389 39.2451 36.5771 39.6238 36.4536 39.9944C36.3301 40.3596 36.1528 40.7249 35.9219 41.0901C35.6963 41.45 35.4224 41.8152 35.1001 42.1858C34.7778 42.5564 34.4207 42.9404 34.0286 43.3379L31.9902 45.626H37.0176Z" fill="#D9EAEF"/>
<path fill-rule="evenodd" clip-rule="evenodd" d="M37.0176 44.251C37.777 44.251 38.3926 44.8666 38.3926 45.626V47.4387C38.3926 48.1981 37.777 48.8137 37.0176 48.8137H28.9932C28.2338 48.8137 27.6182 48.1981 27.6182 47.4387V45.8918C27.6182 45.5437 27.7502 45.2086 27.9876 44.954L31.7735 40.8949C32.1246 40.5036 32.3792 40.1842 32.552 39.9319C32.734 39.6605 32.8315 39.4666 32.8781 39.3424L32.8835 39.3281C32.9358 39.1933 32.9436 39.1127 32.9436 39.0759C32.9436 38.8699 32.9089 38.7759 32.896 38.7484L32.8938 38.7436C32.8737 38.7397 32.8371 38.7349 32.7798 38.7349C32.6822 38.7349 32.6419 38.7514 32.6291 38.7586C32.6099 38.7726 32.5795 38.8011 32.5445 38.8779C32.4992 38.9893 32.4629 39.1474 32.4629 39.374C32.4629 40.1334 31.8473 40.749 31.0879 40.749H28.7595C28.0001 40.749 27.3845 40.1334 27.3845 39.374C27.3845 38.4475 27.6082 37.5714 28.0652 36.7743C28.5246 35.9676 29.1752 35.3294 29.9874 34.8685C30.8382 34.3802 31.8022 34.1641 32.8281 34.1641C33.7898 34.1641 34.6952 34.3199 35.4908 34.6971C36.2876 35.067 36.9376 35.629 37.3805 36.3879C37.823 37.1316 38.0139 37.9739 38.0139 38.8584C38.0139 39.3944 37.9278 39.9198 37.7581 40.4292L37.7561 40.4349C37.594 40.9142 37.3672 41.3769 37.0855 41.8227C36.8169 42.2508 36.4991 42.6724 36.1377 43.088C35.8087 43.4664 35.4489 43.8541 35.0591 44.251H37.0176ZM34.0286 43.3379C34.4207 42.9404 34.7778 42.5564 35.1001 42.1858C35.4224 41.8152 35.6963 41.45 35.9219 41.0901C36.1528 40.7249 36.3301 40.3596 36.4536 39.9944C36.5771 39.6238 36.6389 39.2451 36.6389 38.8584C36.6389 38.1709 36.4912 37.5801 36.1958 37.0859C35.9058 36.5864 35.4761 36.2051 34.9067 35.9419C34.3428 35.6733 33.6499 35.5391 32.8281 35.5391C31.9956 35.5391 31.2759 35.7136 30.6689 36.0627C30.062 36.4065 29.592 36.8711 29.259 37.4565C29.1583 37.632 29.0728 37.8128 29.0026 37.999C28.8405 38.4286 28.7595 38.8869 28.7595 39.374H31.0879C31.0879 38.9873 31.1523 38.6409 31.2812 38.3347C31.4155 38.0286 31.6089 37.7896 31.8613 37.6177C32.1191 37.4458 32.4253 37.3599 32.7798 37.3599C33.1128 37.3599 33.3921 37.4297 33.6177 37.5693C33.8486 37.709 34.0232 37.9077 34.1414 38.1655C34.2595 38.418 34.3186 38.7214 34.3186 39.0759C34.3186 39.3123 34.2676 39.562 34.1655 39.8252C34.0688 40.083 33.9104 40.3757 33.6902 40.7034C33.47 41.0256 33.1692 41.3989 32.7878 41.8232L28.9932 45.8918V47.4387H37.0176V45.626H31.9902L34.0286 43.3379Z" fill="#81A5B0"/>
</g>
<defs>
<filter id="filter0_d_4150_24923" x="0" y="0" width="68" height="68" filterUnits="userSpaceOnUse" color-interpolation-filters="sRGB">
<feFlood flood-opacity="0" result="BackgroundImageFix"/>
<feColorMatrix in="SourceAlpha" type="matrix" values="0 0 0 0 0 0 0 0 0 0 0 0 0 0 0 0 0 0 127 0" result="hardAlpha"/>
<feOffset dx="2" dy="2"/>
<feColorMatrix type="matrix" values="0 0 0 0 0.637788 0 0 0 0 0.545996 0 0 0 0 0.47948 0 0 0 0.2 0"/>
<feBlend mode="normal" in2="BackgroundImageFix" result="effect1_dropShadow_4150_24923"/>
<feBlend mode="normal" in="SourceGraphic" in2="effect1_dropShadow_4150_24923" result="shape"/>
</filter>
</defs>
</svg>
