<svg width="67" height="66" viewBox="0 0 67 66" fill="none" xmlns="http://www.w3.org/2000/svg">
<g filter="url(#filter0_d_4150_24931)">
<path d="M26.338 6.16757C26.0895 5.75341 25.642 5.5 25.159 5.5H11.866C10.7972 5.5 10.1371 6.66596 10.687 7.58243L25.537 32.3324C25.7855 32.7466 26.233 33 26.716 33H40.009C41.0778 33 41.7379 31.834 41.188 30.9176L26.338 6.16757Z" fill="#C52229"/>
<path fill-rule="evenodd" clip-rule="evenodd" d="M25.159 4.125H11.866C9.72846 4.125 8.40815 6.45692 9.50792 8.28986L24.3579 33.0399C24.8549 33.8682 25.75 34.375 26.716 34.375H40.009C42.1466 34.375 43.4669 32.0431 42.3671 30.2101L27.5171 5.46014C27.0201 4.63182 26.125 4.125 25.159 4.125ZM25.159 5.5C25.642 5.5 26.0896 5.75341 26.3381 6.16757L41.1881 30.9176C41.7379 31.834 41.0778 33 40.009 33H26.716C26.233 33 25.7855 32.7466 25.537 32.3324L10.687 7.58243C10.1371 6.66596 10.7972 5.5 11.866 5.5H25.159Z" fill="#9B0F15"/>
<path d="M40.662 6.16757C40.9105 5.75341 41.358 5.5 41.841 5.5H55.134C56.2028 5.5 56.8629 6.66596 56.313 7.58243L41.463 32.3324C41.2146 32.7466 40.767 33 40.284 33H26.991C25.9222 33 25.2621 31.834 25.812 30.9176L40.662 6.16757Z" fill="#F1333B"/>
<path fill-rule="evenodd" clip-rule="evenodd" d="M41.841 4.125H55.134C57.2715 4.125 58.5918 6.45692 57.4921 8.28986L42.6421 33.0399C42.1451 33.8682 41.25 34.375 40.284 34.375H26.991C24.8534 34.375 23.5331 32.0431 24.6329 30.2101L39.4829 5.46014C39.9799 4.63182 40.875 4.125 41.841 4.125ZM41.841 5.5C41.358 5.5 40.9104 5.75341 40.6619 6.16757L25.8119 30.9176C25.2621 31.834 25.9222 33 26.991 33H40.284C40.767 33 41.2145 32.7466 41.463 32.3324L56.313 7.58243C56.8629 6.66596 56.2028 5.5 55.134 5.5H41.841Z" fill="#9B0F15"/>
<path fill-rule="evenodd" clip-rule="evenodd" d="M42.0952 6.28057C42.4236 6.47123 42.5352 6.89197 42.3445 7.22033L36.157 17.8766C35.9664 18.2049 35.5456 18.3166 35.2173 18.1259C34.8889 17.9352 34.7773 17.5145 34.9679 17.1861L41.1554 6.5299C41.3461 6.20154 41.7668 6.08991 42.0952 6.28057Z" fill="#FE666D"/>
<path fill-rule="evenodd" clip-rule="evenodd" d="M11.8423 6.28057C11.5139 6.47123 11.4023 6.89197 11.593 7.22033L17.7805 17.8766C17.9711 18.2049 18.3919 18.3166 18.7202 18.1259C19.0486 17.9352 19.1602 17.5145 18.9696 17.1861L12.7821 6.5299C12.5914 6.20154 12.1706 6.08991 11.8423 6.28057Z" fill="#DF3840"/>
<path d="M24.9063 7.75586C24.9063 8.24234 24.5215 8.63672 24.0469 8.63672C23.5723 8.63672 23.1875 8.24234 23.1875 7.75586C23.1875 7.26937 23.5723 6.875 24.0469 6.875C24.5215 6.875 24.9063 7.26937 24.9063 7.75586Z" fill="#AA161D"/>
<path d="M21.888 7.9707C21.888 8.57584 21.4094 9.06641 20.819 9.06641C20.2286 9.06641 19.75 8.57584 19.75 7.9707C19.75 7.36556 20.2286 6.875 20.819 6.875C21.4094 6.875 21.888 7.36556 21.888 7.9707Z" fill="#AA161D"/>
<path d="M24.5625 11.1074C24.5625 11.7126 24.0839 12.2031 23.4935 12.2031C22.9032 12.2031 22.4246 11.7126 22.4246 11.1074C22.4246 10.5023 22.9032 10.0117 23.4935 10.0117C24.0839 10.0117 24.5625 10.5023 24.5625 11.1074Z" fill="#AA161D"/>
<path d="M27.0065 9.61426C27.0065 9.91683 26.7672 10.1621 26.472 10.1621C26.1768 10.1621 25.9375 9.91683 25.9375 9.61426C25.9375 9.31169 26.1768 9.06641 26.472 9.06641C26.7672 9.06641 27.0065 9.31169 27.0065 9.61426Z" fill="#AA161D"/>
<path d="M21.3535 10.5596C21.3535 10.8621 21.1142 11.1074 20.819 11.1074C20.5238 11.1074 20.2845 10.8621 20.2845 10.5596C20.2845 10.257 20.5238 10.0117 20.819 10.0117C21.1142 10.0117 21.3535 10.257 21.3535 10.5596Z" fill="#AA161D"/>
<path d="M18.375 7.20801C18.375 7.51058 18.1357 7.75586 17.8405 7.75586C17.5453 7.75586 17.306 7.51058 17.306 7.20801C17.306 6.90544 17.5453 6.66016 17.8405 6.66016C18.1357 6.66016 18.375 6.90544 18.375 7.20801Z" fill="#AA161D"/>
<path d="M26.472 13.4385C26.472 13.741 26.2327 13.9863 25.9375 13.9863C25.6423 13.9863 25.403 13.741 25.403 13.4385C25.403 13.1359 25.6423 12.8906 25.9375 12.8906C26.2327 12.8906 26.472 13.1359 26.472 13.4385Z" fill="#AA161D"/>
<path d="M23.722 13.9854C23.722 14.2879 23.4827 14.5332 23.1875 14.5332C22.8923 14.5332 22.653 14.2879 22.653 13.9854C22.653 13.6828 22.8923 13.4375 23.1875 13.4375C23.4827 13.4375 23.722 13.6828 23.722 13.9854Z" fill="#AA161D"/>
<path d="M29.0522 12.001C29.0522 12.4934 28.6628 12.8926 28.1824 12.8926C27.7019 12.8926 27.3125 12.4934 27.3125 12.001C27.3125 11.5086 27.7019 11.1094 28.1824 11.1094C28.6628 11.1094 29.0522 11.5086 29.0522 12.001Z" fill="#AA161D"/>
<path d="M30.1862 14.5322C30.1862 14.8348 29.9469 15.0801 29.6517 15.0801C29.3565 15.0801 29.1172 14.8348 29.1172 14.5322C29.1172 14.2297 29.3565 13.9844 29.6517 13.9844C29.9469 13.9844 30.1862 14.2297 30.1862 14.5322Z" fill="#AA161D"/>
<path d="M52.0625 41.9375C52.0625 52.1893 43.7518 60.5 33.5 60.5C23.2482 60.5 14.9375 52.1893 14.9375 41.9375C14.9375 31.6857 23.2482 23.375 33.5 23.375C43.7518 23.375 52.0625 31.6857 52.0625 41.9375Z" fill="#FFBB0D"/>
<path fill-rule="evenodd" clip-rule="evenodd" d="M53.4375 41.9375C53.4375 52.9487 44.5112 61.875 33.5 61.875C22.4888 61.875 13.5625 52.9487 13.5625 41.9375C13.5625 30.9263 22.4888 22 33.5 22C44.5112 22 53.4375 30.9263 53.4375 41.9375ZM33.5 60.5C43.7518 60.5 52.0625 52.1893 52.0625 41.9375C52.0625 31.6857 43.7518 23.375 33.5 23.375C23.2482 23.375 14.9375 31.6857 14.9375 41.9375C14.9375 52.1893 23.2482 60.5 33.5 60.5Z" fill="#E89B05"/>
<path fill-rule="evenodd" clip-rule="evenodd" d="M16.3125 42.625C15.9328 42.625 15.625 42.3172 15.625 41.9375C15.625 32.0654 23.6279 24.0625 33.5 24.0625C33.8797 24.0625 34.1875 24.3703 34.1875 24.75C34.1875 25.1297 33.8797 25.4375 33.5 25.4375C24.3873 25.4375 17 32.8248 17 41.9375C17 42.3172 16.6922 42.625 16.3125 42.625Z" fill="#E8AA0A"/>
<path fill-rule="evenodd" clip-rule="evenodd" d="M50.6875 41.25C51.0672 41.25 51.375 41.5578 51.375 41.9375C51.375 51.8096 43.3721 59.8125 33.5 59.8125C33.1203 59.8125 32.8125 59.5047 32.8125 59.125C32.8125 58.7453 33.1203 58.4375 33.5 58.4375C42.6127 58.4375 50 51.0502 50 41.9375C50 41.5578 50.3078 41.25 50.6875 41.25Z" fill="#E8AA0A"/>
<path d="M47.25 41.9375C47.25 49.5314 41.0939 55.6875 33.5 55.6875C25.9061 55.6875 19.75 49.5314 19.75 41.9375C19.75 34.3436 25.9061 28.1875 33.5 28.1875C41.0939 28.1875 47.25 34.3436 47.25 41.9375Z" fill="#FFDD28"/>
<path fill-rule="evenodd" clip-rule="evenodd" d="M48.625 41.9375C48.625 50.2908 41.8533 57.0625 33.5 57.0625C25.1467 57.0625 18.375 50.2908 18.375 41.9375C18.375 33.5842 25.1467 26.8125 33.5 26.8125C41.8533 26.8125 48.625 33.5842 48.625 41.9375ZM33.5 55.6875C41.0939 55.6875 47.25 49.5314 47.25 41.9375C47.25 34.3436 41.0939 28.1875 33.5 28.1875C25.9061 28.1875 19.75 34.3436 19.75 41.9375C19.75 49.5314 25.9061 55.6875 33.5 55.6875Z" fill="#E89B05"/>
<path fill-rule="evenodd" clip-rule="evenodd" d="M33.5 53.625C39.9548 53.625 45.1875 48.3923 45.1875 41.9375C45.1875 41.5578 45.4953 41.25 45.875 41.25C46.2547 41.25 46.5625 41.5578 46.5625 41.9375C46.5625 49.1517 40.7142 55 33.5 55C33.1203 55 32.8125 54.6922 32.8125 54.3125C32.8125 53.9328 33.1203 53.625 33.5 53.625Z" fill="#ECC704"/>
<path fill-rule="evenodd" clip-rule="evenodd" d="M33.5 30.25C27.0452 30.25 21.8125 35.4827 21.8125 41.9375C21.8125 42.3172 21.5047 42.625 21.125 42.625C20.7453 42.625 20.4375 42.3172 20.4375 41.9375C20.4375 34.7233 26.2858 28.875 33.5 28.875C33.8797 28.875 34.1875 29.1828 34.1875 29.5625C34.1875 29.9422 33.8797 30.25 33.5 30.25Z" fill="#FFEF9C"/>
<path d="M35.1409 47.438H32.8125V38.4629L30.033 39.325V37.4316L34.8911 35.6914H35.1409V47.438Z" fill="#FFEF9C"/>
<path fill-rule="evenodd" clip-rule="evenodd" d="M36.5159 47.438C36.5159 48.1974 35.9003 48.813 35.1409 48.813H32.8125C32.0531 48.813 31.4375 48.1974 31.4375 47.438V40.329L30.4403 40.6382C30.023 40.7677 29.569 40.6911 29.2173 40.4319C28.8656 40.1727 28.658 39.7618 28.658 39.325V37.4316C28.658 36.851 29.0227 36.333 29.5693 36.1372L34.4274 34.3969C34.5762 34.3437 34.7331 34.3164 34.8911 34.3164H35.1409C35.9003 34.3164 36.5159 34.932 36.5159 35.6914V47.438ZM32.8125 38.4629V47.438H35.1409V35.6914H34.8911L30.033 37.4316V39.325L32.8125 38.4629Z" fill="#E89B05"/>
</g>
<defs>
<filter id="filter0_d_4150_24931" x="0.5" y="0" width="68" height="68" filterUnits="userSpaceOnUse" color-interpolation-filters="sRGB">
<feFlood flood-opacity="0" result="BackgroundImageFix"/>
<feColorMatrix in="SourceAlpha" type="matrix" values="0 0 0 0 0 0 0 0 0 0 0 0 0 0 0 0 0 0 127 0" result="hardAlpha"/>
<feOffset dx="2" dy="2"/>
<feColorMatrix type="matrix" values="0 0 0 0 0.637788 0 0 0 0 0.545996 0 0 0 0 0.47948 0 0 0 0.2 0"/>
<feBlend mode="normal" in2="BackgroundImageFix" result="effect1_dropShadow_4150_24931"/>
<feBlend mode="normal" in="SourceGraphic" in2="effect1_dropShadow_4150_24931" result="shape"/>
</filter>
</defs>
</svg>
