<svg width="66" height="66" viewBox="0 0 66 66" fill="none" xmlns="http://www.w3.org/2000/svg">
<g filter="url(#filter0_d_4150_24915)">
<path d="M25.838 6.16757C25.5895 5.75341 25.142 5.5 24.659 5.5H11.366C10.2972 5.5 9.63708 6.66596 10.187 7.58243L25.037 32.3324C25.2855 32.7466 25.733 33 26.216 33H39.509C40.5778 33 41.2379 31.834 40.688 30.9176L25.838 6.16757Z" fill="#C52229"/>
<path fill-rule="evenodd" clip-rule="evenodd" d="M24.659 4.125H11.366C9.22846 4.125 7.90815 6.45692 9.00792 8.28986L23.8579 33.0399C24.3549 33.8682 25.25 34.375 26.216 34.375H39.509C41.6466 34.375 42.9669 32.0431 41.8671 30.2101L27.0171 5.46014C26.5201 4.63182 25.625 4.125 24.659 4.125ZM24.659 5.5C25.142 5.5 25.5896 5.75341 25.8381 6.16757L40.6881 30.9176C41.2379 31.834 40.5778 33 39.509 33H26.216C25.733 33 25.2855 32.7466 25.037 32.3324L10.187 7.58243C9.63708 6.66596 10.2972 5.5 11.366 5.5H24.659Z" fill="#9B0F15"/>
<path d="M40.162 6.16757C40.4105 5.75341 40.858 5.5 41.341 5.5H54.634C55.7028 5.5 56.3629 6.66596 55.813 7.58243L40.963 32.3324C40.7146 32.7466 40.267 33 39.784 33H26.491C25.4222 33 24.7621 31.834 25.312 30.9176L40.162 6.16757Z" fill="#F1333B"/>
<path fill-rule="evenodd" clip-rule="evenodd" d="M41.341 4.125H54.634C56.7715 4.125 58.0918 6.45692 56.9921 8.28986L42.1421 33.0399C41.6451 33.8682 40.75 34.375 39.784 34.375H26.491C24.3534 34.375 23.0331 32.0431 24.1329 30.2101L38.9829 5.46014C39.4799 4.63182 40.375 4.125 41.341 4.125ZM41.341 5.5C40.858 5.5 40.4104 5.75341 40.1619 6.16757L25.3119 30.9176C24.7621 31.834 25.4222 33 26.491 33H39.784C40.267 33 40.7145 32.7466 40.963 32.3324L55.813 7.58243C56.3629 6.66596 55.7028 5.5 54.634 5.5H41.341Z" fill="#9B0F15"/>
<path fill-rule="evenodd" clip-rule="evenodd" d="M41.5952 6.28057C41.9236 6.47123 42.0352 6.89197 41.8445 7.22033L35.657 17.8766C35.4664 18.2049 35.0456 18.3166 34.7173 18.1259C34.3889 17.9352 34.2773 17.5145 34.4679 17.1861L40.6554 6.5299C40.8461 6.20154 41.2668 6.08991 41.5952 6.28057Z" fill="#FE666D"/>
<path fill-rule="evenodd" clip-rule="evenodd" d="M11.3423 6.28057C11.0139 6.47123 10.9023 6.89197 11.093 7.22033L17.2805 17.8766C17.4711 18.2049 17.8919 18.3166 18.2202 18.1259C18.5486 17.9352 18.6602 17.5145 18.4696 17.1861L12.2821 6.5299C12.0914 6.20154 11.6706 6.08991 11.3423 6.28057Z" fill="#DF3840"/>
<path d="M24.4062 7.75586C24.4062 8.24234 24.0215 8.63672 23.5469 8.63672C23.0723 8.63672 22.6875 8.24234 22.6875 7.75586C22.6875 7.26937 23.0723 6.875 23.5469 6.875C24.0215 6.875 24.4062 7.26937 24.4062 7.75586Z" fill="#AA161D"/>
<path d="M21.388 7.9707C21.388 8.57584 20.9094 9.06641 20.319 9.06641C19.7286 9.06641 19.25 8.57584 19.25 7.9707C19.25 7.36556 19.7286 6.875 20.319 6.875C20.9094 6.875 21.388 7.36556 21.388 7.9707Z" fill="#AA161D"/>
<path d="M24.0625 11.1074C24.0625 11.7126 23.5839 12.2031 22.9935 12.2031C22.4032 12.2031 21.9246 11.7126 21.9246 11.1074C21.9246 10.5023 22.4032 10.0117 22.9935 10.0117C23.5839 10.0117 24.0625 10.5023 24.0625 11.1074Z" fill="#AA161D"/>
<path d="M26.5065 9.61426C26.5065 9.91683 26.2672 10.1621 25.972 10.1621C25.6768 10.1621 25.4375 9.91683 25.4375 9.61426C25.4375 9.31169 25.6768 9.06641 25.972 9.06641C26.2672 9.06641 26.5065 9.31169 26.5065 9.61426Z" fill="#AA161D"/>
<path d="M20.8535 10.5596C20.8535 10.8621 20.6142 11.1074 20.319 11.1074C20.0238 11.1074 19.7845 10.8621 19.7845 10.5596C19.7845 10.257 20.0238 10.0117 20.319 10.0117C20.6142 10.0117 20.8535 10.257 20.8535 10.5596Z" fill="#AA161D"/>
<path d="M17.875 7.20801C17.875 7.51058 17.6357 7.75586 17.3405 7.75586C17.0453 7.75586 16.806 7.51058 16.806 7.20801C16.806 6.90544 17.0453 6.66016 17.3405 6.66016C17.6357 6.66016 17.875 6.90544 17.875 7.20801Z" fill="#AA161D"/>
<path d="M25.972 13.4385C25.972 13.741 25.7327 13.9863 25.4375 13.9863C25.1423 13.9863 24.903 13.741 24.903 13.4385C24.903 13.1359 25.1423 12.8906 25.4375 12.8906C25.7327 12.8906 25.972 13.1359 25.972 13.4385Z" fill="#AA161D"/>
<path d="M23.222 13.9854C23.222 14.2879 22.9827 14.5332 22.6875 14.5332C22.3923 14.5332 22.153 14.2879 22.153 13.9854C22.153 13.6828 22.3923 13.4375 22.6875 13.4375C22.9827 13.4375 23.222 13.6828 23.222 13.9854Z" fill="#AA161D"/>
<path d="M28.5522 12.001C28.5522 12.4934 28.1628 12.8926 27.6824 12.8926C27.2019 12.8926 26.8125 12.4934 26.8125 12.001C26.8125 11.5086 27.2019 11.1094 27.6824 11.1094C28.1628 11.1094 28.5522 11.5086 28.5522 12.001Z" fill="#AA161D"/>
<path d="M29.6862 14.5322C29.6862 14.8348 29.4469 15.0801 29.1517 15.0801C28.8565 15.0801 28.6172 14.8348 28.6172 14.5322C28.6172 14.2297 28.8565 13.9844 29.1517 13.9844C29.4469 13.9844 29.6862 14.2297 29.6862 14.5322Z" fill="#AA161D"/>
<path d="M51.5625 41.9375C51.5625 52.1893 43.2518 60.5 33 60.5C22.7482 60.5 14.4375 52.1893 14.4375 41.9375C14.4375 31.6857 22.7482 23.375 33 23.375C43.2518 23.375 51.5625 31.6857 51.5625 41.9375Z" fill="#DCA16A"/>
<path fill-rule="evenodd" clip-rule="evenodd" d="M52.9375 41.9375C52.9375 52.9487 44.0112 61.875 33 61.875C21.9888 61.875 13.0625 52.9487 13.0625 41.9375C13.0625 30.9263 21.9888 22 33 22C44.0112 22 52.9375 30.9263 52.9375 41.9375ZM33 60.5C43.2518 60.5 51.5625 52.1893 51.5625 41.9375C51.5625 31.6857 43.2518 23.375 33 23.375C22.7482 23.375 14.4375 31.6857 14.4375 41.9375C14.4375 52.1893 22.7482 60.5 33 60.5Z" fill="#C38144"/>
<path fill-rule="evenodd" clip-rule="evenodd" d="M15.8125 42.625C15.4328 42.625 15.125 42.3172 15.125 41.9375C15.125 32.0654 23.1279 24.0625 33 24.0625C33.3797 24.0625 33.6875 24.3703 33.6875 24.75C33.6875 25.1297 33.3797 25.4375 33 25.4375C23.8873 25.4375 16.5 32.8248 16.5 41.9375C16.5 42.3172 16.1922 42.625 15.8125 42.625Z" fill="#F0B57F"/>
<path fill-rule="evenodd" clip-rule="evenodd" d="M50.1875 41.25C50.5672 41.25 50.875 41.5578 50.875 41.9375C50.875 51.8096 42.8721 59.8125 33 59.8125C32.6203 59.8125 32.3125 59.5047 32.3125 59.125C32.3125 58.7453 32.6203 58.4375 33 58.4375C42.1127 58.4375 49.5 51.0502 49.5 41.9375C49.5 41.5578 49.8078 41.25 50.1875 41.25Z" fill="#CF945D"/>
<path d="M46.75 41.9375C46.75 49.5314 40.5939 55.6875 33 55.6875C25.4061 55.6875 19.25 49.5314 19.25 41.9375C19.25 34.3436 25.4061 28.1875 33 28.1875C40.5939 28.1875 46.75 34.3436 46.75 41.9375Z" fill="#F7BA82"/>
<path fill-rule="evenodd" clip-rule="evenodd" d="M48.125 41.9375C48.125 50.2908 41.3533 57.0625 33 57.0625C24.6467 57.0625 17.875 50.2908 17.875 41.9375C17.875 33.5842 24.6467 26.8125 33 26.8125C41.3533 26.8125 48.125 33.5842 48.125 41.9375ZM33 55.6875C40.5939 55.6875 46.75 49.5314 46.75 41.9375C46.75 34.3436 40.5939 28.1875 33 28.1875C25.4061 28.1875 19.25 34.3436 19.25 41.9375C19.25 49.5314 25.4061 55.6875 33 55.6875Z" fill="#C38144"/>
<path fill-rule="evenodd" clip-rule="evenodd" d="M33 53.625C39.4548 53.625 44.6875 48.3923 44.6875 41.9375C44.6875 41.5578 44.9953 41.25 45.375 41.25C45.7547 41.25 46.0625 41.5578 46.0625 41.9375C46.0625 49.1517 40.2142 55 33 55C32.6203 55 32.3125 54.6922 32.3125 54.3125C32.3125 53.9328 32.6203 53.625 33 53.625Z" fill="#E6A66C"/>
<path fill-rule="evenodd" clip-rule="evenodd" d="M33 30.25C26.5452 30.25 21.3125 35.4827 21.3125 41.9375C21.3125 42.3172 21.0047 42.625 20.625 42.625C20.2453 42.625 19.9375 42.3172 19.9375 41.9375C19.9375 34.7233 25.7858 28.875 33 28.875C33.3797 28.875 33.6875 29.1828 33.6875 29.5625C33.6875 29.9422 33.3797 30.25 33 30.25Z" fill="#FFD5AE"/>
<path d="M31.3699 40.5664H32.6106C33.0081 40.5664 33.3357 40.4993 33.5935 40.365C33.8513 40.2253 34.042 40.032 34.1655 39.7849C34.2944 39.5325 34.3589 39.2397 34.3589 38.9067C34.3589 38.606 34.2998 38.3401 34.1816 38.1091C34.0688 37.8728 33.8943 37.6902 33.658 37.5613C33.4216 37.427 33.1235 37.3599 32.7637 37.3599C32.479 37.3599 32.2158 37.4163 31.9741 37.5291C31.7324 37.6418 31.5391 37.8003 31.394 38.0044C31.249 38.2085 31.1765 38.4556 31.1765 38.7456H28.8481C28.8481 38.1011 29.02 37.5398 29.3638 37.0618C29.7129 36.5837 30.1802 36.2104 30.7656 35.9419C31.3511 35.6733 31.9956 35.5391 32.6992 35.5391C33.4941 35.5391 34.1897 35.668 34.7859 35.9258C35.3821 36.1782 35.8467 36.5515 36.1797 37.0457C36.5127 37.5398 36.6792 38.1521 36.6792 38.8826C36.6792 39.2532 36.5933 39.613 36.4214 39.9622C36.2495 40.3059 36.0024 40.6174 35.6802 40.8967C35.3633 41.1707 34.9766 41.3909 34.52 41.5574C34.0635 41.7185 33.5505 41.7991 32.9812 41.7991H31.3699V40.5664ZM31.3699 42.3308V41.1304H32.9812C33.6204 41.1304 34.1816 41.2029 34.665 41.3479C35.1484 41.4929 35.554 41.7024 35.8816 41.9763C36.2092 42.2449 36.4563 42.5645 36.6228 42.9351C36.7893 43.3003 36.8726 43.7058 36.8726 44.1516C36.8726 44.6995 36.7678 45.1882 36.5583 45.6179C36.3489 46.0422 36.0535 46.4021 35.6721 46.6975C35.2961 46.9929 34.8557 47.2185 34.3508 47.3743C33.8459 47.5247 33.2954 47.5999 32.6992 47.5999C32.2051 47.5999 31.719 47.5327 31.241 47.3984C30.7683 47.2588 30.3386 47.052 29.9519 46.7781C29.5706 46.4988 29.2644 46.1497 29.0334 45.7307C28.8079 45.3064 28.6951 44.8042 28.6951 44.2241H31.0234C31.0234 44.5249 31.0986 44.7935 31.249 45.0298C31.3994 45.2661 31.6062 45.4514 31.8694 45.5857C32.1379 45.72 32.436 45.7871 32.7637 45.7871C33.1343 45.7871 33.4512 45.72 33.7144 45.5857C33.9829 45.446 34.187 45.2527 34.3267 45.0056C34.4717 44.7532 34.5442 44.4604 34.5442 44.1274C34.5442 43.6978 34.4663 43.354 34.3105 43.0962C34.1548 42.833 33.9319 42.6396 33.6418 42.5161C33.3518 42.3926 33.0081 42.3308 32.6106 42.3308H31.3699Z" fill="#FFD5AE"/>
<path fill-rule="evenodd" clip-rule="evenodd" d="M30.0688 40.1206H28.8481C28.0888 40.1206 27.4731 39.505 27.4731 38.7456C27.4731 37.8417 27.7195 36.9932 28.2474 36.259L28.2534 36.2508C28.7531 35.5665 29.4126 35.0498 30.1923 34.6921C30.9737 34.3337 31.8162 34.1641 32.6992 34.1641C33.639 34.1641 34.5256 34.3161 35.3268 34.6617C36.1441 35.0087 36.8261 35.5445 37.3199 36.2772C37.8375 37.0452 38.0542 37.9407 38.0542 38.8826C38.0542 39.4743 37.9151 40.0411 37.655 40.5695L37.6512 40.5771C37.5194 40.8407 37.361 41.0864 37.1793 41.3145C37.4649 41.6248 37.6992 41.9767 37.8754 42.368C38.1312 42.9303 38.2476 43.5322 38.2476 44.1516C38.2476 44.8777 38.1078 45.5774 37.7943 46.2204L37.7913 46.2266C37.4884 46.8402 37.0591 47.3615 36.518 47.7816C35.9971 48.19 35.4037 48.4884 34.7562 48.6882L34.7434 48.692C34.0956 48.885 33.4111 48.9749 32.6992 48.9749C32.0788 48.9749 31.4676 48.8903 30.8691 48.7222L30.8514 48.7171C30.2396 48.5363 29.6721 48.2649 29.1571 47.9001L29.1395 47.8874C28.5947 47.4884 28.1557 46.9865 27.8293 46.3945L27.8194 46.3762C27.4683 45.7159 27.3201 44.983 27.3201 44.2241C27.3201 43.4647 27.9357 42.8491 28.6951 42.8491H30.0959C30.0308 42.6892 29.9949 42.5142 29.9949 42.3308V40.5664C29.9949 40.4104 30.0209 40.2604 30.0688 40.1206ZM32.2974 43.7058C32.3625 43.8658 32.3984 44.0408 32.3984 44.2241C32.3984 44.259 32.4026 44.2759 32.4039 44.2804C32.405 44.2842 32.4059 44.2867 32.4091 44.2916C32.42 44.3088 32.4362 44.3305 32.4893 44.3583C32.5496 44.3876 32.6333 44.4121 32.7637 44.4121C32.9618 44.4121 33.0543 44.3778 33.0855 44.3629C33.1108 44.3492 33.1211 44.3398 33.1232 44.3378C33.125 44.3361 33.1265 44.3346 33.1296 44.329L33.1344 44.3207C33.1433 44.3051 33.1692 44.2552 33.1692 44.1274C33.1692 43.8953 33.1327 43.8079 33.1302 43.8014L33.1273 43.7965C33.126 43.7944 33.125 43.7928 33.1242 43.7917C33.1242 43.7917 33.1243 43.7917 33.1242 43.7917C33.1215 43.79 33.1148 43.7862 33.103 43.7811C33.0215 43.7464 32.8695 43.7058 32.6106 43.7058H32.2974ZM31.8694 45.5857C31.6062 45.4514 31.3994 45.2661 31.249 45.0298C31.0986 44.7935 31.0234 44.5249 31.0234 44.2241H28.6951C28.6951 44.7453 28.7861 45.2037 28.9683 45.5991C28.9888 45.6438 29.0106 45.6877 29.0334 45.7307C29.2644 46.1497 29.5706 46.4988 29.9519 46.7781C30.3386 47.052 30.7683 47.2588 31.241 47.3984C31.719 47.5327 32.2051 47.5999 32.6992 47.5999C33.2954 47.5999 33.8459 47.5247 34.3508 47.3743C34.8557 47.2185 35.2961 46.9929 35.6721 46.6975C36.0535 46.4021 36.3489 46.0422 36.5583 45.6179C36.7678 45.1882 36.8726 44.6995 36.8726 44.1516C36.8726 43.7058 36.7893 43.3003 36.6228 42.9351C36.5097 42.6833 36.3594 42.4551 36.1719 42.2504C36.0834 42.1538 35.9867 42.0624 35.8816 41.9763C35.6008 41.7415 35.2628 41.5541 34.8675 41.414C35.1762 41.2707 35.4471 41.0982 35.6802 40.8967C35.8374 40.7605 35.9767 40.6165 36.0982 40.4649C36.2256 40.3058 36.3334 40.1382 36.4214 39.9622C36.5933 39.613 36.6792 39.2532 36.6792 38.8826C36.6792 38.1521 36.5127 37.5398 36.1797 37.0457C35.8467 36.5515 35.3821 36.1782 34.7859 35.9258C34.1897 35.668 33.4941 35.5391 32.6992 35.5391C31.9956 35.5391 31.3511 35.6733 30.7656 35.9419C30.1802 36.2104 29.7129 36.5837 29.3638 37.0618C29.2923 37.1611 29.2283 37.2641 29.1717 37.3706C28.956 37.7767 28.8481 38.235 28.8481 38.7456H31.1765C31.1765 38.4556 31.249 38.2085 31.394 38.0044C31.5391 37.8003 31.7324 37.6418 31.9741 37.5291C32.2158 37.4163 32.479 37.3599 32.7637 37.3599C33.1235 37.3599 33.4216 37.427 33.658 37.5613C33.8943 37.6902 34.0688 37.8728 34.1816 38.1091C34.2998 38.3401 34.3589 38.606 34.3589 38.9067C34.3589 39.2397 34.2944 39.5325 34.1655 39.7849C34.1575 39.8009 34.1492 39.8167 34.1407 39.8323C34.017 40.0568 33.8346 40.2344 33.5935 40.365C33.5811 40.3715 33.5685 40.3778 33.5557 40.384C33.3912 40.4634 33.1997 40.5169 32.9812 40.5445C32.8653 40.5591 32.7417 40.5664 32.6106 40.5664H31.3699V42.3308H32.6106C32.7398 42.3308 32.8633 42.3373 32.9812 42.3504C33.2259 42.3775 33.4461 42.4327 33.6418 42.5161C33.667 42.5268 33.6916 42.538 33.7157 42.5498C33.9524 42.6651 34.1406 42.8309 34.2803 43.0472C34.2906 43.0633 34.3007 43.0796 34.3105 43.0962C34.4663 43.354 34.5442 43.6978 34.5442 44.1274C34.5442 44.4604 34.4717 44.7532 34.3267 45.0056C34.187 45.2527 33.9829 45.446 33.7144 45.5857C33.4512 45.72 33.1343 45.7871 32.7637 45.7871C32.436 45.7871 32.1379 45.72 31.8694 45.5857ZM32.9451 39.151C32.9119 39.1632 32.813 39.1914 32.6106 39.1914H32.4776C32.5223 39.0611 32.5479 38.9219 32.5512 38.7772C32.5526 38.7765 32.5541 38.7758 32.5556 38.7751C32.6031 38.7529 32.6661 38.7349 32.7637 38.7349C32.8732 38.7349 32.9359 38.7465 32.9652 38.7541C32.9731 38.7777 32.9839 38.8246 32.9839 38.9067C32.9839 39.0463 32.9601 39.1183 32.9451 39.151Z" fill="#C28044"/>
</g>
<defs>
<filter id="filter0_d_4150_24915" x="0" y="0" width="68" height="68" filterUnits="userSpaceOnUse" color-interpolation-filters="sRGB">
<feFlood flood-opacity="0" result="BackgroundImageFix"/>
<feColorMatrix in="SourceAlpha" type="matrix" values="0 0 0 0 0 0 0 0 0 0 0 0 0 0 0 0 0 0 127 0" result="hardAlpha"/>
<feOffset dx="2" dy="2"/>
<feColorMatrix type="matrix" values="0 0 0 0 0.637788 0 0 0 0 0.545996 0 0 0 0 0.47948 0 0 0 0.2 0"/>
<feBlend mode="normal" in2="BackgroundImageFix" result="effect1_dropShadow_4150_24915"/>
<feBlend mode="normal" in="SourceGraphic" in2="effect1_dropShadow_4150_24915" result="shape"/>
</filter>
</defs>
</svg>
