<svg width="24" height="24" viewBox="0 0 24 24" fill="none" xmlns="http://www.w3.org/2000/svg">
<path fill-rule="evenodd" clip-rule="evenodd" d="M14.0012 6.51234C14.0012 7.06497 13.1053 7.51297 12 7.51297C10.8947 7.51297 9.99875 7.06497 9.99875 6.51234C9.99875 5.95971 10.8947 5.51172 12 5.51172C13.1053 5.51172 14.0012 5.95971 14.0012 6.51234ZM14.0012 10.1813C14.0012 10.7339 13.1053 11.1819 12 11.1819C10.8947 11.1819 9.99875 10.7339 9.99875 10.1813C9.99875 9.62867 10.8947 9.18068 12 9.18068C13.1053 9.18068 14.0012 9.62867 14.0012 10.1813ZM16.336 9.18068C17.4413 9.18068 18.3373 8.73268 18.3373 8.18005C18.3373 7.62742 17.4413 7.17943 16.336 7.17943C15.2308 7.17943 14.3348 7.62742 14.3348 8.18005C14.3348 8.73268 15.2308 9.18068 16.336 9.18068ZM9.99875 8.18005C9.99875 8.73268 9.10276 9.18068 7.9975 9.18068C6.89224 9.18068 5.99625 8.73268 5.99625 8.18005C5.99625 7.62742 6.89224 7.17943 7.9975 7.17943C9.10276 7.17943 9.99875 7.62742 9.99875 8.18005ZM4.59537 15.6647L11.0321 18.4665C11.1351 18.5115 11.254 18.5015 11.3481 18.4399C11.4422 18.3783 11.499 18.2734 11.499 18.161V12.8243C11.4992 12.6915 11.4206 12.5712 11.2989 12.5181L4.46195 9.54157C4.35876 9.49653 4.2398 9.5066 4.14564 9.56834C4.05148 9.63008 3.99483 9.73516 3.995 9.84776V14.7468C3.99467 15.145 4.23044 15.5055 4.59537 15.6647ZM12.5003 18.157V12.8203C12.5001 12.6875 12.5787 12.5672 12.7004 12.5141L19.538 9.54157C19.6412 9.49653 19.7602 9.5066 19.8544 9.56834C19.9485 9.63008 20.0052 9.73516 20.005 9.84776V14.7435C20.0051 15.1414 19.7693 15.5016 19.4046 15.6607L12.9673 18.4625C12.8642 18.5075 12.7454 18.4975 12.6512 18.4359C12.5571 18.3743 12.5004 18.2694 12.5003 18.157Z" fill="#106FA4"/>
<mask id="mask0_5559_4824" style="mask-type:alpha" maskUnits="userSpaceOnUse" x="3" y="5" width="18" height="14">
<path fill-rule="evenodd" clip-rule="evenodd" d="M14.0012 6.51234C14.0012 7.06497 13.1053 7.51297 12 7.51297C10.8947 7.51297 9.99875 7.06497 9.99875 6.51234C9.99875 5.95971 10.8947 5.51172 12 5.51172C13.1053 5.51172 14.0012 5.95971 14.0012 6.51234ZM14.0012 10.1813C14.0012 10.7339 13.1053 11.1819 12 11.1819C10.8947 11.1819 9.99875 10.7339 9.99875 10.1813C9.99875 9.62867 10.8947 9.18068 12 9.18068C13.1053 9.18068 14.0012 9.62867 14.0012 10.1813ZM16.336 9.18068C17.4413 9.18068 18.3373 8.73268 18.3373 8.18005C18.3373 7.62742 17.4413 7.17943 16.336 7.17943C15.2308 7.17943 14.3348 7.62742 14.3348 8.18005C14.3348 8.73268 15.2308 9.18068 16.336 9.18068ZM9.99875 8.18005C9.99875 8.73268 9.10276 9.18068 7.9975 9.18068C6.89224 9.18068 5.99625 8.73268 5.99625 8.18005C5.99625 7.62742 6.89224 7.17943 7.9975 7.17943C9.10276 7.17943 9.99875 7.62742 9.99875 8.18005ZM4.59537 15.6647L11.0321 18.4665C11.1351 18.5115 11.254 18.5015 11.3481 18.4399C11.4422 18.3783 11.499 18.2734 11.499 18.161V12.8243C11.4992 12.6915 11.4206 12.5712 11.2989 12.5181L4.46195 9.54157C4.35876 9.49653 4.2398 9.5066 4.14564 9.56834C4.05148 9.63008 3.99483 9.73516 3.995 9.84776V14.7468C3.99467 15.145 4.23044 15.5055 4.59537 15.6647ZM12.5003 18.157V12.8203C12.5001 12.6875 12.5787 12.5672 12.7004 12.5141L19.538 9.54157C19.6412 9.49653 19.7602 9.5066 19.8544 9.56834C19.9485 9.63008 20.0052 9.73516 20.005 9.84776V14.7435C20.0051 15.1414 19.7693 15.5016 19.4046 15.6607L12.9673 18.4625C12.8642 18.5075 12.7454 18.4975 12.6512 18.4359C12.5571 18.3743 12.5004 18.2694 12.5003 18.157Z" fill="white"/>
</mask>
<g mask="url(#mask0_5559_4824)">
</g>
</svg>
