<svg width="40" height="40" viewBox="0 0 40 40" fill="none" xmlns="http://www.w3.org/2000/svg">
<path fill-rule="evenodd" clip-rule="evenodd" d="M33.3415 20.0018C33.3415 27.3702 27.3683 33.3435 19.9999 33.3435C12.6348 33.3355 6.66617 27.3669 6.6582 20.0018C6.6582 12.6334 12.6315 6.66016 19.9999 6.66016C27.3683 6.66016 33.3415 12.6334 33.3415 20.0018ZM24.6972 21.4739C25.0748 21.3218 25.3295 20.9642 25.3499 20.5577C25.3299 20.1508 25.0751 19.7927 24.6972 19.6405L17.9319 16.2573C17.5836 16.0446 17.1452 16.0459 16.7981 16.2605C16.451 16.4752 16.254 16.8668 16.2887 17.2735V23.8398C16.2684 24.2437 16.4622 24.6286 16.799 24.8526C16.9621 24.9529 17.1501 25.0053 17.3415 25.0038C17.5472 25.0013 17.7494 24.9507 17.9319 24.856L24.6972 21.4739Z" fill="#3EB449"/>
<mask id="mask0_4546_242" style="mask-type:alpha" maskUnits="userSpaceOnUse" x="6" y="6" width="28" height="28">
<path fill-rule="evenodd" clip-rule="evenodd" d="M33.3415 20.0018C33.3415 27.3702 27.3683 33.3435 19.9999 33.3435C12.6348 33.3355 6.66617 27.3669 6.6582 20.0018C6.6582 12.6334 12.6315 6.66016 19.9999 6.66016C27.3683 6.66016 33.3415 12.6334 33.3415 20.0018ZM24.6972 21.4739C25.0748 21.3218 25.3295 20.9642 25.3499 20.5577C25.3299 20.1508 25.0751 19.7927 24.6972 19.6405L17.9319 16.2573C17.5836 16.0446 17.1452 16.0459 16.7981 16.2605C16.451 16.4752 16.254 16.8668 16.2887 17.2735V23.8398C16.2684 24.2437 16.4622 24.6286 16.799 24.8526C16.9621 24.9529 17.1501 25.0053 17.3415 25.0038C17.5472 25.0013 17.7494 24.9507 17.9319 24.856L24.6972 21.4739Z" fill="white"/>
</mask>
<g mask="url(#mask0_4546_242)">
</g>
</svg>
