<svg width="30" height="30" viewBox="0 0 30 30" fill="none" xmlns="http://www.w3.org/2000/svg">
<path d="M15.9375 2.4415V11.0144C15.9375 11.0765 15.9622 11.1361 16.0061 11.1801C16.0501 11.224 16.1097 11.2487 16.1719 11.2487H24.7447C24.7679 11.2487 24.7905 11.2419 24.8098 11.2291C24.8291 11.2162 24.8441 11.198 24.853 11.1766C24.8619 11.1552 24.8643 11.1317 24.8598 11.109C24.8553 11.0862 24.8443 11.0653 24.8279 11.0489L16.1373 2.3583C16.1209 2.34197 16.1 2.33088 16.0773 2.32642C16.0545 2.32195 16.031 2.32432 16.0096 2.33322C15.9883 2.34213 15.97 2.35716 15.9572 2.37643C15.9443 2.3957 15.9375 2.41834 15.9375 2.4415Z" fill="#EE2D24"/>
<path d="M14.5312 13.125C14.4069 13.125 14.2877 13.0756 14.1998 12.9877C14.1119 12.8998 14.0625 12.7806 14.0625 12.6562V1.875H5.39062C5.20414 1.875 5.0253 1.94908 4.89344 2.08094C4.76158 2.2128 4.6875 2.39164 4.6875 2.57812V27.4219C4.6875 27.6084 4.76158 27.7872 4.89344 27.9191C5.0253 28.0509 5.20414 28.125 5.39062 28.125H24.6094C24.7959 28.125 24.9747 28.0509 25.1066 27.9191C25.2384 27.7872 25.3125 27.6084 25.3125 27.4219V13.125H14.5312ZM20.625 22.5H9.375V20.625H20.625V22.5ZM20.625 17.8125H9.375V15.9375H20.625V17.8125Z" fill="#EE2D24"/>
</svg>
