<svg width="26" height="26" viewBox="0 0 26 26" fill="none" xmlns="http://www.w3.org/2000/svg">
<path d="M2.16232 9.20837H12.454" stroke="#737373" stroke-width="2.5" stroke-miterlimit="10" stroke-linecap="round" stroke-linejoin="round"/>
<path opacity="0.4" d="M6.49567 17.875H8.66233M11.3707 17.875H15.704" stroke="#737373" stroke-width="2.5" stroke-miterlimit="10" stroke-linecap="round" stroke-linejoin="round"/>
<path d="M23.829 13.0325V17.4525C23.829 21.255 22.8648 22.2083 19.019 22.2083H6.97232C3.12649 22.2083 2.16232 21.255 2.16232 17.4525V8.54746C2.16232 4.74496 3.12649 3.79163 6.97232 3.79163H15.704" stroke="#737373" stroke-width="2.5" stroke-linecap="round" stroke-linejoin="round"/>
<path d="M20.6657 4.47527L16.6465 8.49444C16.4948 8.6461 16.3432 8.94944 16.3107 9.1661L16.094 10.7044C16.0182 11.2569 16.4082 11.6469 16.9607 11.5711L18.499 11.3544C18.7157 11.3219 19.019 11.1703 19.1707 11.0186L23.1898 6.99944C23.8832 6.3061 24.2082 5.50444 23.1898 4.4861C22.1607 3.45694 21.359 3.78194 20.6657 4.47527Z" stroke="#737373" stroke-width="2.5" stroke-miterlimit="10" stroke-linecap="round" stroke-linejoin="round"/>
<path d="M20.0926 5.04834C20.4393 6.27251 21.3926 7.22584 22.6059 7.56167" stroke="#737373" stroke-width="2.5" stroke-miterlimit="10" stroke-linecap="round" stroke-linejoin="round"/>
</svg>
