<svg width="22" height="22" viewBox="0 0 22 22" fill="none" xmlns="http://www.w3.org/2000/svg">
<path d="M10.9974 0.164062C5.02823 0.164062 0.164062 5.02823 0.164062 10.9974C0.164062 16.9666 5.02823 21.8307 10.9974 21.8307C16.9666 21.8307 21.8307 16.9666 21.8307 10.9974C21.8307 5.02823 16.9666 0.164062 10.9974 0.164062ZM15.7099 14.8649C15.6557 14.9572 15.5836 15.0378 15.4979 15.1021C15.4123 15.1663 15.3147 15.2129 15.2109 15.2391C15.1071 15.2653 14.9991 15.2706 14.8932 15.2547C14.7873 15.2388 14.6856 15.2021 14.5941 15.1466L11.2357 13.1424C10.4016 12.6441 9.78406 11.5499 9.78406 10.5857V6.14406C9.78406 5.6999 10.1524 5.33156 10.5966 5.33156C11.0407 5.33156 11.4091 5.6999 11.4091 6.14406V10.5857C11.4091 10.9757 11.7341 11.5499 12.0699 11.7449L15.4282 13.7491C15.8182 13.9766 15.9482 14.4749 15.7099 14.8649Z" fill="#43A7FF"/>
</svg>
