<svg width="26" height="26" viewBox="0 0 26 26" fill="none" xmlns="http://www.w3.org/2000/svg">
<path d="M13 2.16675C7.03082 2.16675 2.16666 7.03091 2.16666 13.0001C2.16666 18.9692 7.03082 23.8334 13 23.8334C18.9692 23.8334 23.8333 18.9692 23.8333 13.0001C23.8333 7.03091 18.9692 2.16675 13 2.16675ZM17.7125 16.8676C17.6582 16.9599 17.5862 17.0405 17.5005 17.1048C17.4149 17.169 17.3173 17.2156 17.2135 17.2418C17.1097 17.268 17.0017 17.2733 16.8958 17.2574C16.7899 17.2415 16.6882 17.2048 16.5967 17.1492L13.2383 15.1451C12.4042 14.6467 11.7867 13.5526 11.7867 12.5884V8.14675C11.7867 7.70258 12.155 7.33425 12.5992 7.33425C13.0433 7.33425 13.4117 7.70258 13.4117 8.14675V12.5884C13.4117 12.9784 13.7367 13.5526 14.0725 13.7476L17.4308 15.7517C17.8208 15.9792 17.9508 16.4776 17.7125 16.8676Z" fill="#0B568D"/>
</svg>
