<svg width="21" height="21" viewBox="0 0 21 21" fill="none" xmlns="http://www.w3.org/2000/svg">
<path d="M9.1 12.3L6.925 10.125C6.74167 9.94167 6.51667 9.85 6.25 9.85C5.98333 9.85 5.75 9.95 5.55 10.15C5.36667 10.3333 5.275 10.5667 5.275 10.85C5.275 11.1333 5.36667 11.3667 5.55 11.55L8.4 14.4C8.58333 14.5833 8.81667 14.675 9.1 14.675C9.38333 14.675 9.61667 14.5833 9.8 14.4L15.475 8.725C15.6583 8.54167 15.75 8.31667 15.75 8.05C15.75 7.78333 15.65 7.55 15.45 7.35C15.2667 7.16667 15.0333 7.075 14.75 7.075C14.4667 7.075 14.2333 7.16667 14.05 7.35L9.1 12.3ZM10.5 20.5C9.11667 20.5 7.81667 20.2373 6.6 19.712C5.38333 19.1867 4.325 18.4743 3.425 17.575C2.525 16.675 1.81267 15.6167 1.288 14.4C0.763333 13.1833 0.500667 11.8833 0.5 10.5C0.5 9.11667 0.762667 7.81667 1.288 6.6C1.81333 5.38333 2.52567 4.325 3.425 3.425C4.325 2.525 5.38333 1.81267 6.6 1.288C7.81667 0.763333 9.11667 0.500667 10.5 0.5C11.8833 0.5 13.1833 0.762667 14.4 1.288C15.6167 1.81333 16.675 2.52567 17.575 3.425C18.475 4.325 19.1877 5.38333 19.713 6.6C20.2383 7.81667 20.5007 9.11667 20.5 10.5C20.5 11.8833 20.2373 13.1833 19.712 14.4C19.1867 15.6167 18.4743 16.675 17.575 17.575C16.675 18.475 15.6167 19.1877 14.4 19.713C13.1833 20.2383 11.8833 20.5007 10.5 20.5Z" fill="#3EB449"/>
</svg>
