<svg width="24" height="24" viewBox="0 0 24 24" fill="none" xmlns="http://www.w3.org/2000/svg">
<path d="M11.9066 14.6251C12.6028 14.6251 13.2705 14.3485 13.7628 13.8562C14.2551 13.3639 14.5316 12.6963 14.5316 12.0001C14.5316 11.9232 14.5281 11.847 14.5216 11.7718L11.6783 14.615C11.7536 14.6216 11.8295 14.6251 11.9066 14.6251ZM20.5954 3.88038L19.5941 2.88007C19.559 2.84493 19.5113 2.8252 19.4616 2.8252C19.4119 2.8252 19.3642 2.84493 19.3291 2.88007L16.7669 5.44296C15.3534 4.72062 13.7646 4.35944 12.0004 4.35944C7.49569 4.35944 4.13475 6.70554 1.91757 11.3977C1.82845 11.5864 1.78223 11.7925 1.78223 12.0012C1.78223 12.2099 1.82845 12.416 1.91757 12.6048C2.8035 14.4708 3.8703 15.9666 5.11796 17.0919L2.6385 19.5704C2.60337 19.6055 2.58363 19.6532 2.58363 19.7029C2.58363 19.7526 2.60337 19.8003 2.6385 19.8355L3.63905 20.836C3.67421 20.8711 3.72188 20.8909 3.77159 20.8909C3.8213 20.8909 3.86897 20.8711 3.90413 20.836L20.5954 4.14569C20.6128 4.12828 20.6266 4.1076 20.6361 4.08484C20.6455 4.06208 20.6504 4.03768 20.6504 4.01304C20.6504 3.9884 20.6455 3.964 20.6361 3.94124C20.6266 3.91847 20.6128 3.8978 20.5954 3.88038ZM7.78163 12.0001C7.78156 11.2876 7.96605 10.5872 8.3171 9.96723C8.66816 9.34723 9.17381 8.82873 9.78482 8.46225C10.3958 8.09576 11.0913 7.89378 11.8036 7.87598C12.5159 7.85818 13.2206 8.02518 13.8491 8.36069L12.7096 9.50022C12.25 9.35307 11.7588 9.33535 11.2898 9.449C10.8209 9.56265 10.3923 9.80329 10.0511 10.1445C9.70985 10.4857 9.46922 10.9143 9.35556 11.3833C9.24191 11.8523 9.25963 12.3435 9.40679 12.803L8.26725 13.9426C7.94747 13.3451 7.78063 12.6777 7.78163 12.0001Z" fill="#9CA3AF"/>
<path d="M22.083 11.3954C21.258 9.65791 20.2761 8.24111 19.1372 7.14502L15.7589 10.5235C16.0437 11.2679 16.1068 12.0789 15.9406 12.8584C15.7745 13.6379 15.3862 14.3526 14.8226 14.9162C14.259 15.4798 13.5443 15.8681 12.7648 16.0343C11.9853 16.2004 11.1743 16.1373 10.4299 15.8525L7.56445 18.718C8.89383 19.3331 10.3724 19.6407 12.0002 19.6407C16.5049 19.6407 19.8659 17.2946 22.083 12.6024C22.1722 12.4137 22.2184 12.2076 22.2184 11.9989C22.2184 11.7902 22.1722 11.5841 22.083 11.3954Z" fill="#9CA3AF"/>
</svg>
