<svg width="85" height="85" viewBox="0 0 85 85" fill="none" xmlns="http://www.w3.org/2000/svg">
<rect width="85" height="85" rx="40" fill="#FBCB50"/>
<g clip-path="url(#clip0_9390_79851)">
<path d="M46.6797 52.7734H25.0354C24.261 52.7734 23.6367 52.1576 23.6367 51.3937V28.2898C23.6367 27.5259 24.261 26.9102 25.0354 26.9102H59.9634C60.7378 26.9102 61.3621 27.5259 61.3621 28.2898V51.3937C61.3621 52.1576 60.7378 52.7734 59.9634 52.7734H57.0791" stroke="white" stroke-width="3" stroke-miterlimit="10"/>
<path d="M29.6602 33.7695H56.1486" stroke="white" stroke-width="3" stroke-miterlimit="10" stroke-linecap="round" stroke-linejoin="round"/>
<path d="M29.6602 39.8418H41.1658" stroke="white" stroke-width="3" stroke-miterlimit="10" stroke-linecap="round" stroke-linejoin="round"/>
<path d="M51.8648 49.281C54.7844 49.281 57.1513 46.9463 57.1513 44.0663C57.1513 41.1863 54.7844 38.8516 51.8648 38.8516C48.945 38.8516 46.5781 41.1863 46.5781 44.0663C46.5781 46.9463 48.945 49.281 51.8648 49.281Z" stroke="white" stroke-width="3" stroke-miterlimit="10"/>
<path d="M47.8647 47.4727L45.826 57.7463C45.7785 57.9879 46.0393 58.1671 46.2527 58.0502L51.1521 55.283C51.5866 55.0336 52.1241 55.0336 52.5666 55.283L57.466 58.0502C57.6793 58.175 57.9401 57.9879 57.8927 57.7463L55.8539 47.4727" stroke="white" stroke-width="3" stroke-miterlimit="10"/>
</g>
<defs>
<clipPath id="clip0_9390_79851">
<rect width="39.3125" height="32.7383" fill="white" transform="translate(22.8438 26.1309)"/>
</clipPath>
</defs>
</svg>
