<svg width="86" height="85" viewBox="0 0 86 85" fill="none" xmlns="http://www.w3.org/2000/svg">
<rect x="0.5" width="85" height="85" rx="42.5" fill="#6AD26A"/>
<path fill-rule="evenodd" clip-rule="evenodd" d="M44.3506 57.2236C47.7429 54.3515 51.8966 52.527 56.3066 51.9719C57.3816 51.8303 58.185 50.9137 58.1846 49.8294V34.6832C58.1864 34.0525 57.9144 33.4521 57.439 33.0376C56.9636 32.6231 56.3318 32.4354 55.7072 32.5231C51.5179 33.1701 47.5882 34.9602 44.3506 37.6965C43.5538 38.3149 42.4392 38.3149 41.6424 37.6965C38.4055 34.9623 34.4774 33.1737 30.2898 32.5271C29.666 32.4396 29.0348 32.6268 28.5596 33.0403C28.0844 33.4539 27.8119 34.0532 27.8125 34.6832V49.8294C27.812 50.9137 28.6154 51.8303 29.6904 51.9719C34.1019 52.5262 38.2571 54.3508 41.6505 57.2236C42.4453 57.8392 43.5558 57.8392 44.3506 57.2236Z" stroke="white" stroke-width="3"/>
<path d="M53.8271 27.3125C50.3464 28.184 47.107 29.8291 44.3498 32.1254C43.5529 32.7438 42.4384 32.7438 41.6416 32.1254C38.8885 29.831 35.6538 28.1864 32.1777 27.3139" stroke="white" stroke-width="3"/>
<path d="M43 38.1582V57.684" stroke="white" stroke-width="3"/>
</svg>
