<svg width="86" height="85" viewBox="0 0 86 85" fill="none" xmlns="http://www.w3.org/2000/svg">
<rect x="0.5" width="85" height="85" rx="40" fill="#FAB317"/>
<g clip-path="url(#clip0_9390_79869)">
<path d="M42.9989 42.9103C46.709 42.9103 49.7166 39.9262 49.7166 36.2452C49.7166 32.5641 46.709 29.5801 42.9989 29.5801C39.2888 29.5801 36.2812 32.5641 36.2812 36.2452C36.2812 39.9262 39.2888 42.9103 42.9989 42.9103Z" stroke="white" stroke-width="3" stroke-miterlimit="10"/>
<path d="M52.2423 59.5893H33.76C33.2949 59.5893 32.916 59.2132 32.916 58.7518V52.9242C32.916 47.3956 37.4289 42.918 43.0012 42.918C48.5733 42.918 53.0863 47.3956 53.0863 52.9242V58.7604C53.0863 59.2132 52.7073 59.5893 52.2423 59.5893Z" stroke="white" stroke-width="3" stroke-miterlimit="10"/>
<path d="M45.8516 29.9988C46.73 27.3328 49.2621 25.4102 52.242 25.4102C55.9539 25.4102 58.9597 28.3924 58.9597 32.0752C58.9597 35.7581 55.9539 38.7403 52.242 38.7403C51.243 38.7403 50.2956 38.5267 49.443 38.1336" stroke="white" stroke-width="3" stroke-miterlimit="10"/>
<path d="M48.9844 39.2778C50.0093 38.936 51.103 38.748 52.2399 38.748C57.8121 38.748 62.325 43.2255 62.325 48.7541V54.5904C62.325 55.0518 61.946 55.4278 61.481 55.4278H53.2389" stroke="white" stroke-width="3" stroke-miterlimit="10"/>
<path d="M40.148 29.9988C39.2609 27.3328 36.7375 25.4102 33.7575 25.4102C30.0456 25.4102 27.0312 28.3924 27.0312 32.0752C27.0312 35.7581 30.037 38.7403 33.7489 38.7403C34.748 38.7403 35.6954 38.5267 36.548 38.1336" stroke="white" stroke-width="3" stroke-miterlimit="10"/>
<path d="M37.0145 39.2778C35.9896 38.936 34.8958 38.748 33.759 38.748C28.1867 38.748 23.6738 43.2255 23.6738 48.7541V54.5904C23.6738 55.0518 24.0528 55.4278 24.5178 55.4278H32.7599" stroke="white" stroke-width="3" stroke-miterlimit="10"/>
</g>
<defs>
<clipPath id="clip0_9390_79869">
<rect width="40.375" height="42.5" fill="white" transform="translate(22.8125 21.25)"/>
</clipPath>
</defs>
</svg>
