<svg width="86" height="85" viewBox="0 0 86 85" fill="none" xmlns="http://www.w3.org/2000/svg">
<rect x="0.5" width="85" height="85" rx="40" fill="#106FA4"/>
<g clip-path="url(#clip0_9390_79833)">
<path d="M54.9259 52.5161L53.0032 58.5845H32.9976L31.0749 52.5161H54.9259ZM55.3015 50.7773H30.6993C29.6798 50.7773 28.9554 51.7337 29.2595 52.6813L31.3521 59.2887C31.5399 59.906 32.1302 60.3233 32.7919 60.3233H53.2178C53.8796 60.3233 54.4698 59.906 54.6576 59.2887L56.7503 52.6813C57.0454 51.7337 56.3211 50.7773 55.3015 50.7773Z" fill="white"/>
<path d="M33.1836 51.517C33.1836 48.6827 35.5535 46.3789 38.4689 46.3789H47.5282C50.4437 46.3789 52.8135 48.6827 52.8135 51.517" stroke="white" stroke-width="3" stroke-miterlimit="10"/>
<path d="M42.6211 55.5508H43.3813" stroke="white" stroke-width="3" stroke-miterlimit="10" stroke-linecap="round" stroke-linejoin="round"/>
<path d="M47.4405 46.3776V44.8039C47.4405 44.0389 47.7268 43.3086 48.2186 42.7087C49.3097 41.3872 50.0609 39.9179 50.3291 37.7184C50.3739 37.3445 50.6958 37.049 51.0803 37.049C51.5186 37.049 51.8673 36.7012 51.8673 36.2752V35.5884C51.8673 35.1623 51.5096 34.8146 51.0714 34.8146H51.0624C50.669 34.8146 50.3559 34.5277 50.3113 34.1539C49.7299 29.2679 46.6715 25.5469 43.0048 25.5469C39.3292 25.5469 36.2797 29.2679 35.6715 34.1539C35.6268 34.5277 35.3049 34.8233 34.9203 34.8233H34.9024C34.4016 34.8233 33.9902 35.2232 33.9902 35.7101V36.1535C33.9902 36.6404 34.4016 37.0402 34.9024 37.0402C35.2959 37.0402 35.6089 37.3272 35.6536 37.7097C35.9219 39.9093 36.6821 41.3872 37.7642 42.7087C38.256 43.3086 38.5422 44.0476 38.5422 44.8127V46.3776" stroke="white" stroke-width="3" stroke-miterlimit="10"/>
<path d="M34.9922 34.8243H41.61C42.9515 34.8243 44.1856 33.8767 44.275 32.5813C44.3019 32.164 44.2661 31.312 44.4092 30.9208C44.4897 30.7034 44.8474 30.773 44.9189 30.999L45.6702 34.0071C45.8311 34.5026 46.3051 34.8331 46.8327 34.8331H50.8929" stroke="white" stroke-width="3" stroke-miterlimit="10"/>
</g>
<defs>
<clipPath id="clip0_9390_79833">
<rect width="27.625" height="42.5" fill="white" transform="translate(29.1875 21.25)"/>
</clipPath>
</defs>
</svg>
