<svg width="86" height="85" viewBox="0 0 86 85" fill="none" xmlns="http://www.w3.org/2000/svg">
<rect x="0.5" width="85" height="85" rx="42.5" fill="#F4677F"/>
<path fill-rule="evenodd" clip-rule="evenodd" d="M26.2949 41.4838C26.2949 37.2924 29.6928 33.8945 33.8842 33.8945H52.1175C56.3089 33.8945 59.7068 37.2924 59.7068 41.4838V49.5917C59.7068 53.7832 56.3089 57.181 52.1175 57.181H33.8842C29.6928 57.181 26.2949 53.7832 26.2949 49.5917V41.4838ZM33.8842 36.9302C31.3693 36.9302 29.3306 38.9689 29.3306 41.4838V49.5917C29.3306 52.1066 31.3693 54.1453 33.8842 54.1453H52.1175C54.6323 54.1453 56.671 52.1066 56.671 49.5917V41.4838C56.671 38.969 54.6323 36.9302 52.1175 36.9302H33.8842Z" fill="white"/>
<path fill-rule="evenodd" clip-rule="evenodd" d="M34.3945 55.6629V35.4121H37.4302V55.6629H34.3945Z" fill="white"/>
<path fill-rule="evenodd" clip-rule="evenodd" d="M48.5703 55.6629V35.4121H51.606V55.6629H48.5703Z" fill="white"/>
<path fill-rule="evenodd" clip-rule="evenodd" d="M36.4199 31.3613C36.4199 29.4046 38.0061 27.8184 39.9629 27.8184H46.0381C47.9948 27.8184 49.581 29.4046 49.581 31.3613V35.4114H46.5453V31.3613C46.5453 31.0812 46.3182 30.8541 46.0381 30.8541H39.9629C39.6827 30.8541 39.4556 31.0812 39.4556 31.3613V35.4114H36.4199V31.3613Z" fill="white"/>
</svg>
