<svg width="24" height="24" viewBox="0 0 24 24" fill="none" xmlns="http://www.w3.org/2000/svg">
<path fill-rule="evenodd" clip-rule="evenodd" d="M3.99414 4.99562C3.99414 4.44299 4.44214 3.995 4.99477 3.995C5.5474 3.995 5.99539 4.44299 5.99539 4.99562V19.0044C5.99539 19.557 5.5474 20.005 4.99477 20.005C4.44214 20.005 3.99414 19.557 3.99414 19.0044V4.99562ZM18.5139 5.37853C18.8584 5.20186 19.2718 5.22744 19.5919 5.44523C19.8533 5.63527 20.0069 5.93988 20.0041 6.26308V16.216C20.0041 16.835 19.5986 17.0645 19.1503 17.2353C18.0783 17.6998 16.929 17.9604 15.7615 18.0037C14.6186 17.9268 13.4911 17.6977 12.4087 17.3227C10.3161 16.7103 9.61565 16.5635 8.11138 16.7363C7.82791 16.769 7.54395 16.6791 7.33092 16.4893C7.11788 16.2995 6.99604 16.0277 6.99602 15.7423V5.72274C6.99514 5.21948 7.36819 4.79387 7.86723 4.72879C9.5843 4.50732 10.3601 4.66208 12.5995 5.31582C13.6206 5.67004 14.6836 5.88958 15.7615 5.96889C16.7064 5.93435 17.6379 5.73454 18.5139 5.37853Z" fill="#EE2D24"/>
<mask id="mask0_13228_8795" style="mask-type:alpha" maskUnits="userSpaceOnUse" x="3" y="3" width="18" height="18">
<path fill-rule="evenodd" clip-rule="evenodd" d="M3.99414 4.99562C3.99414 4.44299 4.44214 3.995 4.99477 3.995C5.5474 3.995 5.99539 4.44299 5.99539 4.99562V19.0044C5.99539 19.557 5.5474 20.005 4.99477 20.005C4.44214 20.005 3.99414 19.557 3.99414 19.0044V4.99562ZM18.5139 5.37853C18.8584 5.20186 19.2718 5.22744 19.5919 5.44523C19.8533 5.63527 20.0069 5.93988 20.0041 6.26308V16.216C20.0041 16.835 19.5986 17.0645 19.1503 17.2353C18.0783 17.6998 16.929 17.9604 15.7615 18.0037C14.6186 17.9268 13.4911 17.6977 12.4087 17.3227C10.3161 16.7103 9.61565 16.5635 8.11138 16.7363C7.82791 16.769 7.54395 16.6791 7.33092 16.4893C7.11788 16.2995 6.99604 16.0277 6.99602 15.7423V5.72274C6.99514 5.21948 7.36819 4.79387 7.86723 4.72879C9.5843 4.50732 10.3601 4.66208 12.5995 5.31582C13.6206 5.67004 14.6836 5.88958 15.7615 5.96889C16.7064 5.93435 17.6379 5.73454 18.5139 5.37853Z" fill="white"/>
</mask>
<g mask="url(#mask0_13228_8795)">
</g>
</svg>
