<svg width="29" height="29" viewBox="0 0 29 29" fill="none" xmlns="http://www.w3.org/2000/svg">
<path d="M5.76769 7.86043C5.76769 7.16396 6.04437 6.49601 6.53685 6.00353C7.02933 5.51105 7.69728 5.23438 8.39375 5.23438H22.3994C23.0959 5.23438 23.7638 5.51105 24.2563 6.00353C24.7488 6.49601 25.0255 7.16396 25.0255 7.86043V16.614C25.0255 17.3104 24.7488 17.9784 24.2563 18.4709C23.7638 18.9634 23.0959 19.24 22.3994 19.24H15.3966V12.2372C15.3966 11.0764 14.9355 9.96316 14.1147 9.14236C13.2938 8.32156 12.1806 7.86043 11.0198 7.86043H6.64304C6.34105 7.86043 6.0478 7.89895 5.76769 7.97073V7.86043ZM25.9008 22.7414H15.3966V20.9907H25.9008C26.133 20.9907 26.3556 21.083 26.5198 21.2471C26.6839 21.4113 26.7762 21.6339 26.7762 21.8661C26.7762 22.0982 26.6839 22.3209 26.5198 22.4851C26.3556 22.6492 26.133 22.7414 25.9008 22.7414ZM5.76769 9.61114C5.07122 9.61114 4.40327 9.88781 3.91079 10.3803C3.41831 10.8728 3.14163 11.5407 3.14163 12.2372V22.7414C3.14163 23.4379 3.41831 24.1059 3.91079 24.5983C4.40327 25.0908 5.07122 25.3675 5.76769 25.3675H11.0198C11.7163 25.3675 12.3842 25.0908 12.8767 24.5983C13.3692 24.1059 13.6459 23.4379 13.6459 22.7414V12.2372C13.6459 11.5407 13.3692 10.8728 12.8767 10.3803C12.3842 9.88781 11.7163 9.61114 11.0198 9.61114H5.76769ZM8.39375 22.7414C8.16159 22.7414 7.93894 22.6492 7.77478 22.4851C7.61062 22.3209 7.5184 22.0982 7.5184 21.8661C7.5184 21.6339 7.61062 21.4113 7.77478 21.2471C7.93894 21.083 8.16159 20.9907 8.39375 20.9907C8.62591 20.9907 8.84856 21.083 9.01272 21.2471C9.17688 21.4113 9.2691 21.6339 9.2691 21.8661C9.2691 22.0982 9.17688 22.3209 9.01272 22.4851C8.84856 22.6492 8.62591 22.7414 8.39375 22.7414Z" fill="#262626"/>
</svg>
