  <svg width="37" height="36" viewBox="0 0 37 36" fill="none" xmlns="http://www.w3.org/2000/svg">
    <rect x="0.5" width="36" height="36" rx="8" fill="#106FA4" />
    <path
      d="M12.7031 25.6273V21.4837H14.9216V25.6273H12.7031ZM16.6084 25.6273V16.2217C16.1072 16.5762 15.7039 17.0071 15.3983 17.5143C15.0927 18.0216 14.9399 18.7274 14.9399 19.6319H13.5465C13.5465 17.8474 14.0018 16.5365 14.9124 15.6992C15.823 14.8619 17.0789 14.4433 18.6801 14.4433C19.9758 14.4433 20.9628 14.1805 21.6412 13.6549C22.3195 13.1293 22.6587 12.2493 22.6587 11.0148H24.0521C24.0521 12.237 23.7863 13.2302 23.2546 13.9941C22.7229 14.758 21.9131 15.2928 20.8253 15.5984V25.6273H19.4319V20.897H18.0018V25.6273H16.6084ZM18.6801 13.3432C18.2768 13.3432 17.9284 13.1965 17.6351 12.9032C17.3417 12.6098 17.1951 12.2615 17.1951 11.8581C17.1951 11.4426 17.3387 11.0911 17.6259 10.8039C17.9132 10.5167 18.2585 10.373 18.6618 10.373C19.0652 10.373 19.4135 10.5167 19.7069 10.8039C20.0002 11.0911 20.1469 11.4426 20.1469 11.8581C20.1469 12.2615 20.0033 12.6098 19.716 12.9032C19.4288 13.1965 19.0835 13.3432 18.6801 13.3432Z"
      fill="#FAFAFA"
    />
  </svg>

