  <svg width="37" height="36" viewBox="0 0 37 36" fill="none" xmlns="http://www.w3.org/2000/svg">
    <rect x="0.5" width="36" height="36" rx="8" fill="#FBCB50" />
    <path
      d="M10.873 21.0167V11.6335C10.873 11.381 10.9735 11.1485 11.1743 10.9362C11.3752 10.7238 11.6076 10.6177 11.8716 10.6177H21.0827C21.3467 10.6177 21.5791 10.721 21.78 10.9276C21.9809 11.1342 22.0813 11.3695 22.0813 11.6335V18.0382C22.0813 18.3022 21.9809 18.5375 21.78 18.7441C21.5791 18.9507 21.3467 19.054 21.0827 19.054H13.8344L11.5962 21.3094C11.4584 21.4472 11.3035 21.4787 11.1313 21.4041C10.9591 21.3295 10.873 21.2004 10.873 21.0167ZM15.1429 23.1C14.8789 23.1 14.6464 22.9938 14.4456 22.7815C14.2447 22.5691 14.1443 22.3367 14.1443 22.0842V20.087H23.1143V13.8889H25.1459C25.3984 13.8889 25.6251 13.9951 25.826 14.2074C26.0269 14.4198 26.1273 14.6579 26.1273 14.9219V24.9422C26.1273 25.1258 26.0412 25.2578 25.869 25.3382C25.6969 25.4185 25.5419 25.3898 25.4042 25.2521L23.2693 23.1H15.1429Z"
      fill="white"
    />
  </svg>

