<svg width="20" height="20" viewBox="0 0 20 20" fill="none" xmlns="http://www.w3.org/2000/svg">
<path d="M8.94742 1.5789C8.94742 1.5789 8.94742 0.526264 10.0001 0.526264C11.0527 0.526264 11.0527 1.5789 11.0527 1.5789V2.63153C11.0527 2.63153 11.0527 3.68416 10.0001 3.68416C8.94742 3.68416 8.94742 2.63153 8.94742 2.63153V1.5789ZM18.4211 8.94732C18.4211 8.94732 19.4737 8.94732 19.4737 9.99995C19.4737 11.0526 18.4211 11.0526 18.4211 11.0526H17.3685C17.3685 11.0526 16.3158 11.0526 16.3158 9.99995C16.3158 8.94732 17.3685 8.94732 17.3685 8.94732H18.4211ZM2.63163 8.94732C2.63163 8.94732 3.68426 8.94732 3.68426 9.99995C3.68426 11.0526 2.63163 11.0526 2.63163 11.0526H1.579C1.579 11.0526 0.526367 11.0526 0.526367 9.99995C0.526367 8.94732 1.579 8.94732 1.579 8.94732H2.63163ZM5.32689 4.36521C5.32689 4.36521 6.0711 5.10942 5.32689 5.85363C4.58268 6.59784 3.83847 5.85363 3.83847 5.85363L3.09374 5.10942C3.09374 5.10942 2.34952 4.36521 3.09374 3.62047C3.83847 2.87626 4.58268 3.62047 4.58268 3.62047L5.32689 4.36521ZM16.3795 15.4173C16.3795 15.4173 17.1237 16.1615 16.3795 16.9057C15.6353 17.6499 14.8911 16.9057 14.8911 16.9057L14.1469 16.1615C14.1469 16.1615 13.4027 15.4173 14.1469 14.6731C14.8911 13.9289 15.6353 14.6731 15.6353 14.6731L16.3795 15.4173ZM16.1622 5.85311C16.1622 5.85311 15.4179 6.59732 14.6737 5.85311C13.9295 5.1089 14.6737 4.36468 14.6737 4.36468L15.4179 3.62047C15.4179 3.62047 16.1622 2.87626 16.9064 3.62047C17.6506 4.36469 16.9064 5.1089 16.9064 5.1089L16.1622 5.85311ZM5.10953 16.9057C5.10953 16.9057 4.36531 17.6499 3.6211 16.9057C2.87689 16.1615 3.6211 15.4173 3.6211 15.4173L4.36531 14.6731C4.36531 14.6731 5.10953 13.9289 5.85374 14.6731C6.59795 15.4173 5.85374 16.1615 5.85374 16.1615L5.10953 16.9057ZM8.94742 17.3684C8.94742 17.3684 8.94742 16.3157 10.0001 16.3157C11.0527 16.3157 11.0527 17.3684 11.0527 17.3684V18.421C11.0527 18.421 11.0527 19.4736 10.0001 19.4736C8.94742 19.4736 8.94742 18.421 8.94742 18.421V17.3684ZM15.2632 9.99995C15.2632 7.09311 12.9064 4.73679 10.0001 4.73679C7.09321 4.73679 4.73689 7.09311 4.73689 9.99995C4.73689 12.9063 7.09321 15.2631 10.0001 15.2631C12.9064 15.2631 15.2632 12.9063 15.2632 9.99995Z" fill="url(#paint0_linear_12943_12515)"/>
<defs>
<linearGradient id="paint0_linear_12943_12515" x1="10.0001" y1="19.4736" x2="10.0001" y2="0.526264" gradientUnits="userSpaceOnUse">
<stop stop-color="#FFAF00"/>
<stop offset="1" stop-color="#FF9900"/>
</linearGradient>
</defs>
</svg>
