<svg width="20" height="20" viewBox="0 0 20 20" fill="none" xmlns="http://www.w3.org/2000/svg">
<path opacity="0.34" fill-rule="evenodd" clip-rule="evenodd" d="M1.85005 1.85005C2.42527 1.27483 3.23732 1.04199 4.16699 1.04199H5.83366C6.76333 1.04199 7.57538 1.27483 8.1506 1.85005C8.72582 2.42527 8.95866 3.23732 8.95866 4.16699V5.83366C8.95866 6.76333 8.72582 7.57538 8.1506 8.1506C7.57538 8.72582 6.76333 8.95866 5.83366 8.95866H4.16699C3.23732 8.95866 2.42527 8.72582 1.85005 8.1506C1.27483 7.57538 1.04199 6.76333 1.04199 5.83366V4.16699C1.04199 3.23732 1.27483 2.42527 1.85005 1.85005ZM2.73393 2.73393C2.47582 2.99205 2.29199 3.43 2.29199 4.16699V5.83366C2.29199 6.57065 2.47582 7.0086 2.73393 7.26672C2.99205 7.52483 3.43 7.70866 4.16699 7.70866H5.83366C6.57065 7.70866 7.0086 7.52483 7.26672 7.26672C7.52483 7.0086 7.70866 6.57065 7.70866 5.83366V4.16699C7.70866 3.43 7.52483 2.99205 7.26672 2.73393C7.0086 2.47582 6.57065 2.29199 5.83366 2.29199H4.16699C3.43 2.29199 2.99205 2.47582 2.73393 2.73393Z" fill="#106FA4"/>
<path fill-rule="evenodd" clip-rule="evenodd" d="M11.8501 1.85005C12.4253 1.27483 13.2373 1.04199 14.167 1.04199H15.8337C16.7633 1.04199 17.5754 1.27483 18.1506 1.85005C18.7258 2.42527 18.9587 3.23732 18.9587 4.16699V5.83366C18.9587 6.76333 18.7258 7.57538 18.1506 8.1506C17.5754 8.72582 16.7633 8.95866 15.8337 8.95866H14.167C13.2373 8.95866 12.4253 8.72582 11.8501 8.1506C11.2748 7.57538 11.042 6.76333 11.042 5.83366V4.16699C11.042 3.23732 11.2748 2.42527 11.8501 1.85005ZM12.7339 2.73393C12.4758 2.99205 12.292 3.43 12.292 4.16699V5.83366C12.292 6.57065 12.4758 7.0086 12.7339 7.26672C12.9921 7.52483 13.43 7.70866 14.167 7.70866H15.8337C16.5707 7.70866 17.0086 7.52483 17.2667 7.26672C17.5248 7.0086 17.7087 6.57065 17.7087 5.83366V4.16699C17.7087 3.43 17.5248 2.99205 17.2667 2.73393C17.0086 2.47582 16.5707 2.29199 15.8337 2.29199H14.167C13.43 2.29199 12.9921 2.47582 12.7339 2.73393Z" fill="#FAB317"/>
<path opacity="0.34" fill-rule="evenodd" clip-rule="evenodd" d="M11.8501 11.8501C12.4253 11.2748 13.2373 11.042 14.167 11.042H15.8337C16.7633 11.042 17.5754 11.2748 18.1506 11.8501C18.7258 12.4253 18.9587 13.2373 18.9587 14.167V15.8337C18.9587 16.7633 18.7258 17.5754 18.1506 18.1506C17.5754 18.7258 16.7633 18.9587 15.8337 18.9587H14.167C13.2373 18.9587 12.4253 18.7258 11.8501 18.1506C11.2748 17.5754 11.042 16.7633 11.042 15.8337V14.167C11.042 13.2373 11.2748 12.4253 11.8501 11.8501ZM12.7339 12.7339C12.4758 12.9921 12.292 13.43 12.292 14.167V15.8337C12.292 16.5707 12.4758 17.0086 12.7339 17.2667C12.9921 17.5248 13.43 17.7087 14.167 17.7087H15.8337C16.5707 17.7087 17.0086 17.5248 17.2667 17.2667C17.5248 17.0086 17.7087 16.5707 17.7087 15.8337V14.167C17.7087 13.43 17.5248 12.9921 17.2667 12.7339C17.0086 12.4758 16.5707 12.292 15.8337 12.292H14.167C13.43 12.292 12.9921 12.4758 12.7339 12.7339Z" fill="#3EB449"/>
<path fill-rule="evenodd" clip-rule="evenodd" d="M1.85005 11.8501C2.42527 11.2748 3.23732 11.042 4.16699 11.042H5.83366C6.76333 11.042 7.57538 11.2748 8.1506 11.8501C8.72582 12.4253 8.95866 13.2373 8.95866 14.167V15.8337C8.95866 16.7633 8.72582 17.5754 8.1506 18.1506C7.57538 18.7258 6.76333 18.9587 5.83366 18.9587H4.16699C3.23732 18.9587 2.42527 18.7258 1.85005 18.1506C1.27483 17.5754 1.04199 16.7633 1.04199 15.8337V14.167C1.04199 13.2373 1.27483 12.4253 1.85005 11.8501ZM2.73393 12.7339C2.47582 12.9921 2.29199 13.43 2.29199 14.167V15.8337C2.29199 16.5707 2.47582 17.0086 2.73393 17.2667C2.99205 17.5248 3.43 17.7087 4.16699 17.7087H5.83366C6.57065 17.7087 7.0086 17.5248 7.26672 17.2667C7.52483 17.0086 7.70866 16.5707 7.70866 15.8337V14.167C7.70866 13.43 7.52483 12.9921 7.26672 12.7339C7.0086 12.4758 6.57065 12.292 5.83366 12.292H4.16699C3.43 12.292 2.99205 12.4758 2.73393 12.7339Z" fill="#EE2D24"/>
</svg>
