<svg width="31" height="31" viewBox="0 0 31 31" fill="none" xmlns="http://www.w3.org/2000/svg">
<rect x="0.585938" y="0.25" width="30" height="30" rx="12.35" fill="#F5F5F5"/>
<g clip-path="url(#clip0_990_10445)">
<path opacity="0.3" d="M21.1845 16.1978H14.8334C14.8334 15.6291 14.4543 15.2499 13.8855 15.2499C13.3167 15.2499 12.9375 15.6291 12.9375 16.1978H10.3782L12.9375 11.8374V7.66659C12.3688 7.66659 11.9896 7.28742 11.9896 6.71867C11.9896 6.14992 12.3688 5.77075 12.9375 5.77075H18.6251C19.1938 5.77075 19.573 6.14992 19.573 6.71867C19.573 7.28742 19.1938 7.66659 18.6251 7.66659V11.8374L21.1845 16.1978ZM16.7293 12.4062C16.1605 12.4062 15.7813 12.7853 15.7813 13.3541C15.7813 13.9228 16.1605 14.302 16.7293 14.302C17.298 14.302 17.6772 13.9228 17.6772 13.3541C17.6772 12.7853 17.298 12.4062 16.7293 12.4062Z" fill="#106FA4"/>
<path d="M22.1323 24.7292H9.33542C7.62917 24.7292 6.49168 22.8334 7.34481 21.3167L10.2833 16.198H12.8427C12.8427 16.7667 13.2219 17.1459 13.7906 17.1459C14.3593 17.1459 14.7385 16.7667 14.7385 16.198H21.0896L24.0282 21.3167C24.9761 22.8334 23.9334 24.7292 22.1323 24.7292ZM17.6771 18.0938C16.6344 18.0938 15.7813 18.947 15.7813 19.9897C15.7813 21.0324 16.6344 21.8855 17.6771 21.8855C18.7198 21.8855 19.573 21.0324 19.573 19.9897C19.573 18.947 18.7198 18.0938 17.6771 18.0938Z" fill="#106FA4"/>
</g>
<defs>
<clipPath id="clip0_990_10445">
<rect width="22.75" height="22.75" fill="white" transform="translate(4.21094 3.875)"/>
</clipPath>
</defs>
</svg>
