<svg width="24" height="13" viewBox="0 0 24 13" fill="none" xmlns="http://www.w3.org/2000/svg">
<path d="M23.1834 0.683305C23.0284 0.527091 22.8441 0.4031 22.641 0.318485C22.4379 0.233871 22.22 0.190308 22 0.190308C21.78 0.190308 21.5622 0.233871 21.3591 0.318485C21.156 0.4031 20.9716 0.527091 20.8167 0.683305L13.1834 8.31664C13.0284 8.47285 12.8441 8.59684 12.641 8.68146C12.4379 8.76607 12.22 8.80964 12 8.80964C11.78 8.80964 11.5622 8.76607 11.3591 8.68146C11.156 8.59684 10.9716 8.47285 10.8167 8.31664L3.18335 0.683305C3.02841 0.527091 2.84408 0.4031 2.64098 0.318485C2.43788 0.233871 2.22004 0.190308 2.00002 0.190308C1.78 0.190308 1.56216 0.233871 1.35906 0.318485C1.15596 0.4031 0.971624 0.527091 0.816685 0.683305C0.506267 0.995576 0.332031 1.418 0.332031 1.8583C0.332031 2.29861 0.506267 2.72103 0.816685 3.0333L8.46669 10.6833C9.40419 11.6196 10.675 12.1456 12 12.1456C13.325 12.1456 14.5958 11.6196 15.5334 10.6833L23.1834 3.0333C23.4938 2.72103 23.668 2.29861 23.668 1.8583C23.668 1.418 23.4938 0.995576 23.1834 0.683305Z" fill="#737373"/>
</svg>
