<svg width="37" height="37" viewBox="0 0 37 37" fill="none" xmlns="http://www.w3.org/2000/svg">
<g filter="url(#filter0_d_990_10497)">
<path d="M14.1794 4.06725C14.0439 3.84135 13.7997 3.70312 13.5363 3.70312H6.28558C5.70261 3.70312 5.34252 4.3391 5.64246 4.839L13.7425 18.339C13.878 18.5649 14.1221 18.7031 14.3856 18.7031H21.6363C22.2193 18.7031 22.5793 18.0671 22.2794 17.5673L14.1794 4.06725Z" fill="#C52229"/>
<path fill-rule="evenodd" clip-rule="evenodd" d="M13.5364 2.95312H6.28564C5.1197 2.95312 4.39953 4.22508 4.9994 5.22487L13.0994 18.7249C13.3705 19.1767 13.8587 19.4531 14.3856 19.4531H21.6364C22.8023 19.4531 23.5225 18.1812 22.9226 17.1814L14.8226 3.68138C14.5515 3.22957 14.0633 2.95312 13.5364 2.95312ZM13.5364 3.70312C13.7998 3.70312 14.0439 3.84135 14.1795 4.06725L22.2795 17.5673C22.5794 18.0671 22.2193 18.7031 21.6364 18.7031H14.3856C14.1222 18.7031 13.8781 18.5649 13.7425 18.339L5.64252 4.839C5.34259 4.3391 5.70267 3.70312 6.28564 3.70312H13.5364Z" fill="#9B0F15"/>
<path d="M21.9925 4.06725C22.128 3.84135 22.3721 3.70312 22.6356 3.70312H29.8863C30.4693 3.70312 30.8294 4.3391 30.5294 4.839L22.4294 18.339C22.2939 18.5649 22.0497 18.7031 21.7863 18.7031H14.5356C13.9526 18.7031 13.5925 18.0671 13.8925 17.5673L21.9925 4.06725Z" fill="#F1333B"/>
<path fill-rule="evenodd" clip-rule="evenodd" d="M22.6355 2.95312H29.8862C31.0522 2.95312 31.7723 4.22508 31.1725 5.22487L23.0725 18.7249C22.8014 19.1767 22.3131 19.4531 21.7862 19.4531H14.5355C13.3696 19.4531 12.6494 18.1812 13.2493 17.1814L21.3493 3.68138C21.6204 3.22957 22.1086 2.95312 22.6355 2.95312ZM22.6355 3.70312C22.3721 3.70312 22.1279 3.84135 21.9924 4.06725L13.8924 17.5673C13.5925 18.0671 13.9525 18.7031 14.5355 18.7031H21.7862C22.0497 18.7031 22.2938 18.5649 22.4294 18.339L30.5294 4.839C30.8293 4.3391 30.4692 3.70312 29.8862 3.70312H22.6355Z" fill="#9B0F15"/>
<path fill-rule="evenodd" clip-rule="evenodd" d="M22.7743 4.12877C22.9534 4.23276 23.0143 4.46226 22.9103 4.64137L19.5353 10.4539C19.4313 10.633 19.2018 10.6939 19.0227 10.5899C18.8436 10.4859 18.7827 10.2564 18.8867 10.0773L22.2617 4.26476C22.3657 4.08566 22.5952 4.02477 22.7743 4.12877Z" fill="#FE666D"/>
<path fill-rule="evenodd" clip-rule="evenodd" d="M6.27257 4.12877C6.09347 4.23276 6.03258 4.46226 6.13658 4.64137L9.51158 10.4539C9.61558 10.633 9.84507 10.6939 10.0242 10.5899C10.2033 10.4859 10.2642 10.2564 10.1602 10.0773L6.78517 4.26476C6.68118 4.08566 6.45168 4.02477 6.27257 4.12877Z" fill="#DF3840"/>
<path d="M13.3984 4.93359C13.3984 5.19895 13.1886 5.41406 12.9297 5.41406C12.6708 5.41406 12.4609 5.19895 12.4609 4.93359C12.4609 4.66824 12.6708 4.45312 12.9297 4.45312C13.1886 4.45312 13.3984 4.66824 13.3984 4.93359Z" fill="#AA161D"/>
<path d="M11.7521 5.05078C11.7521 5.38086 11.491 5.64844 11.169 5.64844C10.847 5.64844 10.5859 5.38086 10.5859 5.05078C10.5859 4.7207 10.847 4.45312 11.169 4.45312C11.491 4.45312 11.7521 4.7207 11.7521 5.05078Z" fill="#AA161D"/>
<path d="M13.2111 6.76172C13.2111 7.0918 12.95 7.35938 12.628 7.35938C12.306 7.35938 12.0449 7.0918 12.0449 6.76172C12.0449 6.43164 12.306 6.16406 12.628 6.16406C12.95 6.16406 13.2111 6.43164 13.2111 6.76172Z" fill="#AA161D"/>
<path d="M14.544 5.94727C14.544 6.1123 14.4135 6.24609 14.2525 6.24609C14.0915 6.24609 13.9609 6.1123 13.9609 5.94727C13.9609 5.78223 14.0915 5.64844 14.2525 5.64844C14.4135 5.64844 14.544 5.78223 14.544 5.94727Z" fill="#AA161D"/>
<path d="M11.4605 6.46289C11.4605 6.62793 11.33 6.76172 11.169 6.76172C11.008 6.76172 10.8774 6.62793 10.8774 6.46289C10.8774 6.29785 11.008 6.16406 11.169 6.16406C11.33 6.16406 11.4605 6.29785 11.4605 6.46289Z" fill="#AA161D"/>
<path d="M9.83601 4.63477C9.83601 4.7998 9.70548 4.93359 9.54447 4.93359C9.38346 4.93359 9.25293 4.7998 9.25293 4.63477C9.25293 4.46973 9.38346 4.33594 9.54447 4.33594C9.70548 4.33594 9.83601 4.46973 9.83601 4.63477Z" fill="#AA161D"/>
<path d="M14.2525 8.0332C14.2525 8.19824 14.122 8.33203 13.961 8.33203C13.8 8.33203 13.6694 8.19824 13.6694 8.0332C13.6694 7.86816 13.8 7.73438 13.961 7.73438C14.122 7.73438 14.2525 7.86816 14.2525 8.0332Z" fill="#AA161D"/>
<path d="M12.7525 8.33203C12.7525 8.49707 12.622 8.63086 12.461 8.63086C12.3 8.63086 12.1694 8.49707 12.1694 8.33203C12.1694 8.16699 12.3 8.0332 12.461 8.0332C12.622 8.0332 12.7525 8.16699 12.7525 8.33203Z" fill="#AA161D"/>
<path d="M15.6599 7.24805C15.6599 7.51664 15.4474 7.73438 15.1854 7.73438C14.9234 7.73438 14.7109 7.51664 14.7109 7.24805C14.7109 6.97946 14.9234 6.76172 15.1854 6.76172C15.4474 6.76172 15.6599 6.97946 15.6599 7.24805Z" fill="#AA161D"/>
<path d="M16.2784 8.63086C16.2784 8.7959 16.1479 8.92969 15.9869 8.92969C15.8258 8.92969 15.6953 8.7959 15.6953 8.63086C15.6953 8.46582 15.8258 8.33203 15.9869 8.33203C16.1479 8.33203 16.2784 8.46582 16.2784 8.63086Z" fill="#AA161D"/>
<path d="M28.2109 23.5781C28.2109 29.17 23.6778 33.7031 18.0859 33.7031C12.4941 33.7031 7.96094 29.17 7.96094 23.5781C7.96094 17.9862 12.4941 13.4531 18.0859 13.4531C23.6778 13.4531 28.2109 17.9862 28.2109 23.5781Z" fill="#BCCCD2"/>
<path fill-rule="evenodd" clip-rule="evenodd" d="M28.9609 23.5781C28.9609 29.5842 24.092 34.4531 18.0859 34.4531C12.0798 34.4531 7.21094 29.5842 7.21094 23.5781C7.21094 17.572 12.0798 12.7031 18.0859 12.7031C24.092 12.7031 28.9609 17.572 28.9609 23.5781ZM18.0859 33.7031C23.6778 33.7031 28.2109 29.17 28.2109 23.5781C28.2109 17.9862 23.6778 13.4531 18.0859 13.4531C12.4941 13.4531 7.96094 17.9862 7.96094 23.5781C7.96094 29.17 12.4941 33.7031 18.0859 33.7031Z" fill="#81A5B0"/>
<path fill-rule="evenodd" clip-rule="evenodd" d="M8.71094 23.9531C8.50383 23.9531 8.33594 23.7852 8.33594 23.5781C8.33594 18.1933 12.7012 13.8281 18.0859 13.8281C18.293 13.8281 18.4609 13.996 18.4609 14.2031C18.4609 14.4102 18.293 14.5781 18.0859 14.5781C13.1154 14.5781 9.08594 18.6076 9.08594 23.5781C9.08594 23.7852 8.91804 23.9531 8.71094 23.9531Z" fill="#D0DEE3"/>
<path fill-rule="evenodd" clip-rule="evenodd" d="M27.4609 23.2031C27.668 23.2031 27.8359 23.371 27.8359 23.5781C27.8359 28.9629 23.4707 33.3281 18.0859 33.3281C17.8788 33.3281 17.7109 33.1602 17.7109 32.9531C17.7109 32.746 17.8788 32.5781 18.0859 32.5781C23.0565 32.5781 27.0859 28.5487 27.0859 23.5781C27.0859 23.371 27.2538 23.2031 27.4609 23.2031Z" fill="#A2B9C1"/>
<path d="M25.5859 23.5781C25.5859 27.7203 22.2281 31.0781 18.0859 31.0781C13.9438 31.0781 10.5859 27.7203 10.5859 23.5781C10.5859 19.436 13.9438 16.0781 18.0859 16.0781C22.2281 16.0781 25.5859 19.436 25.5859 23.5781Z" fill="#C7D4D8"/>
<path fill-rule="evenodd" clip-rule="evenodd" d="M26.3359 23.5781C26.3359 28.1345 22.6423 31.8281 18.0859 31.8281C13.5296 31.8281 9.83594 28.1345 9.83594 23.5781C9.83594 19.0218 13.5296 15.3281 18.0859 15.3281C22.6423 15.3281 26.3359 19.0218 26.3359 23.5781ZM18.0859 31.0781C22.2281 31.0781 25.5859 27.7203 25.5859 23.5781C25.5859 19.436 22.2281 16.0781 18.0859 16.0781C13.9438 16.0781 10.5859 19.436 10.5859 23.5781C10.5859 27.7203 13.9438 31.0781 18.0859 31.0781Z" fill="#81A5B0"/>
<path fill-rule="evenodd" clip-rule="evenodd" d="M18.0859 29.9531C21.6068 29.9531 24.4609 27.0989 24.4609 23.5781C24.4609 23.371 24.6288 23.2031 24.8359 23.2031C25.043 23.2031 25.2109 23.371 25.2109 23.5781C25.2109 27.5132 22.021 30.7031 18.0859 30.7031C17.8788 30.7031 17.7109 30.5352 17.7109 30.3281C17.7109 30.121 17.8788 29.9531 18.0859 29.9531Z" fill="#B5C3C8"/>
<path fill-rule="evenodd" clip-rule="evenodd" d="M18.0859 17.2031C14.5651 17.2031 11.7109 20.0573 11.7109 23.5781C11.7109 23.7852 11.543 23.9531 11.3359 23.9531C11.1288 23.9531 10.9609 23.7852 10.9609 23.5781C10.9609 19.6431 14.1509 16.4531 18.0859 16.4531C18.293 16.4531 18.4609 16.621 18.4609 16.8281C18.4609 17.0352 18.293 17.2031 18.0859 17.2031Z" fill="#D9EAEF"/>
<path d="M20.2773 25.5894V26.5781H15.9004V25.7344L17.9702 23.5151C18.1782 23.2837 18.3423 23.0801 18.4624 22.9043C18.5825 22.7256 18.6689 22.5659 18.7217 22.4253C18.7773 22.2817 18.8052 22.1455 18.8052 22.0166C18.8052 21.8232 18.7729 21.6577 18.7085 21.52C18.644 21.3794 18.5488 21.271 18.4229 21.1948C18.2998 21.1187 18.1475 21.0806 17.9658 21.0806C17.7725 21.0806 17.6055 21.1274 17.4648 21.2212C17.3271 21.3149 17.2217 21.4453 17.1484 21.6123C17.0781 21.7793 17.043 21.9683 17.043 22.1792H15.7729C15.7729 21.7983 15.8638 21.4497 16.0454 21.1333C16.2271 20.814 16.4834 20.5605 16.8145 20.373C17.1455 20.1826 17.5381 20.0874 17.9922 20.0874C18.4404 20.0874 18.8184 20.1606 19.126 20.3071C19.4365 20.4507 19.6709 20.6587 19.8291 20.9312C19.9902 21.2007 20.0708 21.5229 20.0708 21.8979C20.0708 22.1089 20.0371 22.3154 19.9697 22.5176C19.9023 22.7168 19.8057 22.916 19.6797 23.1152C19.5566 23.3115 19.4072 23.5107 19.2314 23.7129C19.0557 23.915 18.8608 24.1245 18.647 24.3413L17.5352 25.5894H20.2773Z" fill="#D9EAEF"/>
<path fill-rule="evenodd" clip-rule="evenodd" d="M20.2773 24.8394C20.6916 24.8394 21.0273 25.1751 21.0273 25.5894V26.5781C21.0273 26.9923 20.6916 27.3281 20.2773 27.3281H15.9004C15.4862 27.3281 15.1504 26.9923 15.1504 26.5781V25.7344C15.1504 25.5445 15.2224 25.3617 15.3519 25.2228L17.4169 23.0087C17.6084 22.7954 17.7473 22.6211 17.8416 22.4835C17.9409 22.3355 17.994 22.2297 18.0194 22.162L18.0224 22.1541C18.0509 22.0806 18.0552 22.0367 18.0552 22.0166C18.0552 21.9042 18.0362 21.8529 18.0292 21.838L18.028 21.8353C18.0171 21.8332 17.9971 21.8306 17.9658 21.8306C17.9126 21.8306 17.8906 21.8396 17.8836 21.8435C17.8732 21.8512 17.8566 21.8667 17.8375 21.9086C17.8128 21.9694 17.793 22.0556 17.793 22.1792C17.793 22.5934 17.4572 22.9292 17.043 22.9292H15.7729C15.3587 22.9292 15.0229 22.5934 15.0229 22.1792C15.0229 21.6738 15.1449 21.196 15.3942 20.7612C15.6448 20.3212 15.9997 19.9731 16.4427 19.7217C16.9068 19.4553 17.4326 19.3374 17.9922 19.3374C18.5167 19.3374 19.0106 19.4224 19.4445 19.6281C19.8792 19.8299 20.2337 20.1364 20.4753 20.5504C20.7166 20.9561 20.8208 21.4155 20.8208 21.8979C20.8208 22.1903 20.7738 22.4769 20.6812 22.7547L20.6802 22.7579C20.5918 23.0193 20.468 23.2717 20.3144 23.5148C20.1679 23.7483 19.9945 23.9783 19.7974 24.205C19.6179 24.4114 19.4217 24.6229 19.2091 24.8394H20.2773ZM18.647 24.3413C18.8608 24.1245 19.0557 23.915 19.2314 23.7129C19.4072 23.5107 19.5566 23.3115 19.6797 23.1152C19.8057 22.916 19.9023 22.7168 19.9697 22.5176C20.0371 22.3154 20.0708 22.1089 20.0708 21.8979C20.0708 21.5229 19.9902 21.2007 19.8291 20.9312C19.6709 20.6587 19.4365 20.4507 19.126 20.3071C18.8184 20.1606 18.4404 20.0874 17.9922 20.0874C17.5381 20.0874 17.1455 20.1826 16.8145 20.373C16.4834 20.5605 16.2271 20.814 16.0454 21.1333C15.9905 21.229 15.9439 21.3276 15.9055 21.4292C15.8171 21.6635 15.7729 21.9135 15.7729 22.1792H17.043C17.043 21.9683 17.0781 21.7793 17.1484 21.6123C17.2217 21.4453 17.3271 21.3149 17.4648 21.2212C17.6055 21.1274 17.7725 21.0806 17.9658 21.0806C18.1475 21.0806 18.2998 21.1187 18.4229 21.1948C18.5488 21.271 18.644 21.3794 18.7085 21.52C18.7729 21.6577 18.8052 21.8232 18.8052 22.0166C18.8052 22.1455 18.7773 22.2817 18.7217 22.4253C18.6689 22.5659 18.5825 22.7256 18.4624 22.9043C18.3423 23.0801 18.1782 23.2837 17.9702 23.5151L15.9004 25.7344V26.5781H20.2773V25.5894H17.5352L18.647 24.3413Z" fill="#81A5B0"/>
</g>
<defs>
<filter id="filter0_d_990_10497" x="0.0859375" y="0.703125" width="38" height="38" filterUnits="userSpaceOnUse" color-interpolation-filters="sRGB">
<feFlood flood-opacity="0" result="BackgroundImageFix"/>
<feColorMatrix in="SourceAlpha" type="matrix" values="0 0 0 0 0 0 0 0 0 0 0 0 0 0 0 0 0 0 127 0" result="hardAlpha"/>
<feOffset dx="2" dy="2"/>
<feColorMatrix type="matrix" values="0 0 0 0 0.637788 0 0 0 0 0.545996 0 0 0 0 0.47948 0 0 0 0.2 0"/>
<feBlend mode="normal" in2="BackgroundImageFix" result="effect1_dropShadow_990_10497"/>
<feBlend mode="normal" in="SourceGraphic" in2="effect1_dropShadow_990_10497" result="shape"/>
</filter>
</defs>
</svg>
