<svg width="37" height="37" viewBox="0 0 37 37" fill="none" xmlns="http://www.w3.org/2000/svg">
<g filter="url(#filter0_d_990_10503)">
<path d="M14.1794 3.536C14.0439 3.3101 13.7997 3.17188 13.5363 3.17188H6.28558C5.70261 3.17188 5.34252 3.80785 5.64246 4.30775L13.7425 17.8077C13.878 18.0337 14.1221 18.1719 14.3856 18.1719H21.6363C22.2193 18.1719 22.5793 17.5359 22.2794 17.036L14.1794 3.536Z" fill="#C52229"/>
<path fill-rule="evenodd" clip-rule="evenodd" d="M13.5364 2.42188H6.28564C5.1197 2.42188 4.39953 3.69383 4.9994 4.69362L13.0994 18.1936C13.3705 18.6454 13.8587 18.9219 14.3856 18.9219H21.6364C22.8023 18.9219 23.5225 17.6499 22.9226 16.6501L14.8226 3.15013C14.5515 2.69832 14.0633 2.42188 13.5364 2.42188ZM13.5364 3.17188C13.7998 3.17188 14.0439 3.3101 14.1795 3.536L22.2795 17.036C22.5794 17.5359 22.2193 18.1719 21.6364 18.1719H14.3856C14.1222 18.1719 13.8781 18.0337 13.7425 17.8077L5.64252 4.30775C5.34259 3.80785 5.70267 3.17188 6.28564 3.17188H13.5364Z" fill="#9B0F15"/>
<path d="M21.9925 3.536C22.128 3.3101 22.3721 3.17188 22.6356 3.17188H29.8863C30.4693 3.17188 30.8294 3.80785 30.5294 4.30775L22.4294 17.8077C22.2939 18.0337 22.0497 18.1719 21.7863 18.1719H14.5356C13.9526 18.1719 13.5925 17.5359 13.8925 17.036L21.9925 3.536Z" fill="#F1333B"/>
<path fill-rule="evenodd" clip-rule="evenodd" d="M22.6355 2.42188H29.8862C31.0522 2.42188 31.7723 3.69383 31.1725 4.69362L23.0725 18.1936C22.8014 18.6454 22.3131 18.9219 21.7862 18.9219H14.5355C13.3696 18.9219 12.6494 17.6499 13.2493 16.6501L21.3493 3.15013C21.6204 2.69832 22.1086 2.42188 22.6355 2.42188ZM22.6355 3.17188C22.3721 3.17188 22.1279 3.3101 21.9924 3.536L13.8924 17.036C13.5925 17.5359 13.9525 18.1719 14.5355 18.1719H21.7862C22.0497 18.1719 22.2938 18.0337 22.4294 17.8077L30.5294 4.30775C30.8293 3.80785 30.4692 3.17188 29.8862 3.17188H22.6355Z" fill="#9B0F15"/>
<path fill-rule="evenodd" clip-rule="evenodd" d="M22.7743 3.59752C22.9534 3.70151 23.0143 3.93101 22.9103 4.11012L19.5353 9.92262C19.4313 10.1017 19.2018 10.1626 19.0227 10.0586C18.8436 9.95461 18.7827 9.72512 18.8867 9.54601L22.2617 3.73351C22.3657 3.55441 22.5952 3.49352 22.7743 3.59752Z" fill="#FE666D"/>
<path fill-rule="evenodd" clip-rule="evenodd" d="M6.27257 3.59752C6.09347 3.70151 6.03258 3.93101 6.13658 4.11012L9.51158 9.92262C9.61558 10.1017 9.84507 10.1626 10.0242 10.0586C10.2033 9.95461 10.2642 9.72512 10.1602 9.54601L6.78517 3.73351C6.68118 3.55441 6.45168 3.49352 6.27257 3.59752Z" fill="#DF3840"/>
<path d="M13.3984 4.40234C13.3984 4.6677 13.1886 4.88281 12.9297 4.88281C12.6708 4.88281 12.4609 4.6677 12.4609 4.40234C12.4609 4.13699 12.6708 3.92188 12.9297 3.92188C13.1886 3.92188 13.3984 4.13699 13.3984 4.40234Z" fill="#AA161D"/>
<path d="M11.7521 4.51953C11.7521 4.84961 11.491 5.11719 11.169 5.11719C10.847 5.11719 10.5859 4.84961 10.5859 4.51953C10.5859 4.18945 10.847 3.92188 11.169 3.92188C11.491 3.92188 11.7521 4.18945 11.7521 4.51953Z" fill="#AA161D"/>
<path d="M13.2111 6.23047C13.2111 6.56055 12.95 6.82812 12.628 6.82812C12.306 6.82812 12.0449 6.56055 12.0449 6.23047C12.0449 5.90039 12.306 5.63281 12.628 5.63281C12.95 5.63281 13.2111 5.90039 13.2111 6.23047Z" fill="#AA161D"/>
<path d="M14.544 5.41602C14.544 5.58105 14.4135 5.71484 14.2525 5.71484C14.0915 5.71484 13.9609 5.58105 13.9609 5.41602C13.9609 5.25098 14.0915 5.11719 14.2525 5.11719C14.4135 5.11719 14.544 5.25098 14.544 5.41602Z" fill="#AA161D"/>
<path d="M11.4605 5.93164C11.4605 6.09668 11.33 6.23047 11.169 6.23047C11.008 6.23047 10.8774 6.09668 10.8774 5.93164C10.8774 5.7666 11.008 5.63281 11.169 5.63281C11.33 5.63281 11.4605 5.7666 11.4605 5.93164Z" fill="#AA161D"/>
<path d="M9.83601 4.10352C9.83601 4.26855 9.70548 4.40234 9.54447 4.40234C9.38346 4.40234 9.25293 4.26855 9.25293 4.10352C9.25293 3.93848 9.38346 3.80469 9.54447 3.80469C9.70548 3.80469 9.83601 3.93848 9.83601 4.10352Z" fill="#AA161D"/>
<path d="M14.2525 7.50195C14.2525 7.66699 14.122 7.80078 13.961 7.80078C13.8 7.80078 13.6694 7.66699 13.6694 7.50195C13.6694 7.33691 13.8 7.20312 13.961 7.20312C14.122 7.20312 14.2525 7.33691 14.2525 7.50195Z" fill="#AA161D"/>
<path d="M12.7525 7.80078C12.7525 7.96582 12.622 8.09961 12.461 8.09961C12.3 8.09961 12.1694 7.96582 12.1694 7.80078C12.1694 7.63574 12.3 7.50195 12.461 7.50195C12.622 7.50195 12.7525 7.63574 12.7525 7.80078Z" fill="#AA161D"/>
<path d="M15.6599 6.7168C15.6599 6.98539 15.4474 7.20312 15.1854 7.20312C14.9234 7.20312 14.7109 6.98539 14.7109 6.7168C14.7109 6.44821 14.9234 6.23047 15.1854 6.23047C15.4474 6.23047 15.6599 6.44821 15.6599 6.7168Z" fill="#AA161D"/>
<path d="M16.2784 8.09961C16.2784 8.26465 16.1479 8.39844 15.9869 8.39844C15.8258 8.39844 15.6953 8.26465 15.6953 8.09961C15.6953 7.93457 15.8258 7.80078 15.9869 7.80078C16.1479 7.80078 16.2784 7.93457 16.2784 8.09961Z" fill="#AA161D"/>
<path d="M28.2109 23.0469C28.2109 28.6388 23.6778 33.1719 18.0859 33.1719C12.4941 33.1719 7.96094 28.6388 7.96094 23.0469C7.96094 17.455 12.4941 12.9219 18.0859 12.9219C23.6778 12.9219 28.2109 17.455 28.2109 23.0469Z" fill="#DCA16A"/>
<path fill-rule="evenodd" clip-rule="evenodd" d="M28.9609 23.0469C28.9609 29.053 24.092 33.9219 18.0859 33.9219C12.0798 33.9219 7.21094 29.053 7.21094 23.0469C7.21094 17.0408 12.0798 12.1719 18.0859 12.1719C24.092 12.1719 28.9609 17.0408 28.9609 23.0469ZM18.0859 33.1719C23.6778 33.1719 28.2109 28.6388 28.2109 23.0469C28.2109 17.455 23.6778 12.9219 18.0859 12.9219C12.4941 12.9219 7.96094 17.455 7.96094 23.0469C7.96094 28.6388 12.4941 33.1719 18.0859 33.1719Z" fill="#C38144"/>
<path fill-rule="evenodd" clip-rule="evenodd" d="M8.71094 23.4219C8.50383 23.4219 8.33594 23.254 8.33594 23.0469C8.33594 17.6621 12.7012 13.2969 18.0859 13.2969C18.293 13.2969 18.4609 13.4648 18.4609 13.6719C18.4609 13.879 18.293 14.0469 18.0859 14.0469C13.1154 14.0469 9.08594 18.0763 9.08594 23.0469C9.08594 23.254 8.91804 23.4219 8.71094 23.4219Z" fill="#F0B57F"/>
<path fill-rule="evenodd" clip-rule="evenodd" d="M27.4609 22.6719C27.668 22.6719 27.8359 22.8398 27.8359 23.0469C27.8359 28.4317 23.4707 32.7969 18.0859 32.7969C17.8788 32.7969 17.7109 32.629 17.7109 32.4219C17.7109 32.2148 17.8788 32.0469 18.0859 32.0469C23.0565 32.0469 27.0859 28.0174 27.0859 23.0469C27.0859 22.8398 27.2538 22.6719 27.4609 22.6719Z" fill="#CF945D"/>
<path d="M25.5859 23.0469C25.5859 27.189 22.2281 30.5469 18.0859 30.5469C13.9438 30.5469 10.5859 27.189 10.5859 23.0469C10.5859 18.9047 13.9438 15.5469 18.0859 15.5469C22.2281 15.5469 25.5859 18.9047 25.5859 23.0469Z" fill="#F7BA82"/>
<path fill-rule="evenodd" clip-rule="evenodd" d="M26.3359 23.0469C26.3359 27.6032 22.6423 31.2969 18.0859 31.2969C13.5296 31.2969 9.83594 27.6032 9.83594 23.0469C9.83594 18.4905 13.5296 14.7969 18.0859 14.7969C22.6423 14.7969 26.3359 18.4905 26.3359 23.0469ZM18.0859 30.5469C22.2281 30.5469 25.5859 27.189 25.5859 23.0469C25.5859 18.9047 22.2281 15.5469 18.0859 15.5469C13.9438 15.5469 10.5859 18.9047 10.5859 23.0469C10.5859 27.189 13.9438 30.5469 18.0859 30.5469Z" fill="#C38144"/>
<path fill-rule="evenodd" clip-rule="evenodd" d="M18.0859 29.4219C21.6068 29.4219 24.4609 26.5677 24.4609 23.0469C24.4609 22.8398 24.6288 22.6719 24.8359 22.6719C25.043 22.6719 25.2109 22.8398 25.2109 23.0469C25.2109 26.9819 22.021 30.1719 18.0859 30.1719C17.8788 30.1719 17.7109 30.004 17.7109 29.7969C17.7109 29.5898 17.8788 29.4219 18.0859 29.4219Z" fill="#E6A66C"/>
<path fill-rule="evenodd" clip-rule="evenodd" d="M18.0859 16.6719C14.5651 16.6719 11.7109 19.5261 11.7109 23.0469C11.7109 23.254 11.543 23.4219 11.3359 23.4219C11.1288 23.4219 10.9609 23.254 10.9609 23.0469C10.9609 19.1118 14.1509 15.9219 18.0859 15.9219C18.293 15.9219 18.4609 16.0898 18.4609 16.2969C18.4609 16.504 18.293 16.6719 18.0859 16.6719Z" fill="#FFD5AE"/>
<path d="M17.1968 22.2983H17.8735C18.0903 22.2983 18.269 22.2617 18.4097 22.1885C18.5503 22.1123 18.6543 22.0068 18.7217 21.8721C18.792 21.7344 18.8271 21.5747 18.8271 21.3931C18.8271 21.229 18.7949 21.084 18.7305 20.958C18.6689 20.8291 18.5737 20.7295 18.4448 20.6592C18.3159 20.5859 18.1533 20.5493 17.957 20.5493C17.8018 20.5493 17.6582 20.5801 17.5264 20.6416C17.3945 20.7031 17.2891 20.7896 17.21 20.9009C17.1309 21.0122 17.0913 21.147 17.0913 21.3052H15.8213C15.8213 20.9536 15.915 20.6475 16.1025 20.3867C16.293 20.126 16.5479 19.9224 16.8672 19.7759C17.1865 19.6294 17.5381 19.5562 17.9219 19.5562C18.3555 19.5562 18.7349 19.6265 19.0601 19.7671C19.3853 19.9048 19.6387 20.1084 19.8203 20.3779C20.002 20.6475 20.0928 20.9814 20.0928 21.3799C20.0928 21.582 20.0459 21.7783 19.9521 21.9688C19.8584 22.1562 19.7236 22.3262 19.5479 22.4785C19.375 22.6279 19.1641 22.748 18.915 22.8389C18.666 22.9268 18.3862 22.9707 18.0757 22.9707H17.1968V22.2983ZM17.1968 23.2607V22.606H18.0757C18.4243 22.606 18.7305 22.6455 18.9941 22.7246C19.2578 22.8037 19.479 22.918 19.6577 23.0674C19.8364 23.2139 19.9712 23.3882 20.062 23.5903C20.1528 23.7896 20.1982 24.0107 20.1982 24.2539C20.1982 24.5527 20.1411 24.8193 20.0269 25.0537C19.9126 25.2852 19.7515 25.4814 19.5435 25.6426C19.3384 25.8037 19.0981 25.9268 18.8228 26.0117C18.5474 26.0938 18.2471 26.1348 17.9219 26.1348C17.6523 26.1348 17.3872 26.0981 17.1265 26.0249C16.8687 25.9487 16.6343 25.8359 16.4233 25.6865C16.2153 25.5342 16.0483 25.3438 15.9224 25.1152C15.7993 24.8838 15.7378 24.6099 15.7378 24.2935H17.0078C17.0078 24.4575 17.0488 24.604 17.1309 24.7329C17.2129 24.8618 17.3257 24.9629 17.4692 25.0361C17.6157 25.1094 17.7783 25.146 17.957 25.146C18.1592 25.146 18.332 25.1094 18.4756 25.0361C18.6221 24.96 18.7334 24.8545 18.8096 24.7197C18.8887 24.582 18.9282 24.4224 18.9282 24.2407C18.9282 24.0063 18.8857 23.8188 18.8008 23.6782C18.7158 23.5347 18.5942 23.4292 18.436 23.3618C18.2778 23.2944 18.0903 23.2607 17.8735 23.2607H17.1968Z" fill="#FFD5AE"/>
<path fill-rule="evenodd" clip-rule="evenodd" d="M16.4871 22.0552H15.8213C15.4071 22.0552 15.0713 21.7194 15.0713 21.3052C15.0713 20.8121 15.2057 20.3493 15.4936 19.9489L15.4969 19.9444C15.7695 19.5711 16.1292 19.2893 16.5545 19.0942C16.9807 18.8987 17.4402 18.8062 17.9219 18.8062C18.4345 18.8062 18.9181 18.8891 19.3551 19.0776C19.8009 19.2668 20.1729 19.5591 20.4423 19.9588C20.7246 20.3777 20.8428 20.8661 20.8428 21.3799C20.8428 21.7027 20.7669 22.0118 20.625 22.3L20.623 22.3042C20.5511 22.448 20.4647 22.582 20.3656 22.7064C20.5213 22.8757 20.6491 23.0676 20.7453 23.281C20.8847 23.5877 20.9482 23.916 20.9482 24.2539C20.9482 24.65 20.872 25.0316 20.701 25.3824L20.6994 25.3857C20.5341 25.7204 20.3 26.0048 20.0048 26.2339C19.7207 26.4567 19.3971 26.6194 19.0439 26.7284L19.0369 26.7305C18.6835 26.8358 18.3102 26.8848 17.9219 26.8848C17.5834 26.8848 17.2501 26.8387 16.9236 26.747L16.914 26.7442C16.5803 26.6456 16.2707 26.4975 15.9898 26.2985L15.9802 26.2916C15.683 26.074 15.4436 25.8002 15.2656 25.4773L15.2601 25.4673C15.0687 25.1072 14.9878 24.7074 14.9878 24.2935C14.9878 23.8792 15.3236 23.5435 15.7378 23.5435H16.5019C16.4664 23.4562 16.4468 23.3608 16.4468 23.2607V22.2983C16.4468 22.2132 16.461 22.1314 16.4871 22.0552ZM17.7027 24.0107C17.7382 24.098 17.7578 24.1934 17.7578 24.2935C17.7578 24.3125 17.7601 24.3217 17.7608 24.3241C17.7614 24.3262 17.7619 24.3276 17.7636 24.3303C17.7696 24.3397 17.7784 24.3515 17.8074 24.3666C17.8403 24.3826 17.8859 24.396 17.957 24.396C18.0651 24.396 18.1156 24.3773 18.1326 24.3691C18.1464 24.3617 18.152 24.3565 18.1531 24.3554C18.1541 24.3545 18.1549 24.3537 18.1566 24.3507L18.1592 24.3461C18.1641 24.3376 18.1782 24.3104 18.1782 24.2407C18.1782 24.1141 18.1583 24.0664 18.1569 24.0629L18.1553 24.0602C18.1547 24.0591 18.1541 24.0582 18.1537 24.0576C18.1537 24.0576 18.1537 24.0576 18.1537 24.0576C18.1522 24.0567 18.1486 24.0546 18.1421 24.0518C18.0977 24.0329 18.0147 24.0107 17.8735 24.0107H17.7027ZM17.4692 25.0361C17.3257 24.9629 17.2129 24.8618 17.1309 24.7329C17.0488 24.604 17.0078 24.4575 17.0078 24.2935H15.7378C15.7378 24.5778 15.7875 24.8278 15.8868 25.0435C15.898 25.0678 15.9099 25.0917 15.9224 25.1152C16.0483 25.3438 16.2153 25.5342 16.4233 25.6865C16.6343 25.8359 16.8687 25.9487 17.1265 26.0249C17.3872 26.0981 17.6523 26.1348 17.9219 26.1348C18.2471 26.1348 18.5474 26.0938 18.8228 26.0117C19.0981 25.9268 19.3384 25.8037 19.5435 25.6426C19.7515 25.4814 19.9126 25.2852 20.0269 25.0537C20.1411 24.8193 20.1982 24.5527 20.1982 24.2539C20.1982 24.0107 20.1528 23.7896 20.062 23.5903C20.0003 23.453 19.9183 23.3285 19.8161 23.2169C19.7678 23.1642 19.715 23.1144 19.6577 23.0674C19.5045 22.9393 19.3202 22.8371 19.1046 22.7607C19.273 22.6825 19.4207 22.5884 19.5479 22.4785C19.6336 22.4042 19.7096 22.3257 19.7759 22.243C19.8454 22.1562 19.9041 22.0648 19.9521 21.9688C20.0459 21.7783 20.0928 21.582 20.0928 21.3799C20.0928 20.9814 20.002 20.6475 19.8203 20.3779C19.6387 20.1084 19.3853 19.9048 19.0601 19.7671C18.7349 19.6265 18.3555 19.5562 17.9219 19.5562C17.5381 19.5562 17.1865 19.6294 16.8672 19.7759C16.5479 19.9224 16.293 20.126 16.1025 20.3867C16.0636 20.4409 16.0287 20.4971 15.9978 20.5552C15.8801 20.7767 15.8213 21.0267 15.8213 21.3052H17.0913C17.0913 21.147 17.1309 21.0122 17.21 20.9009C17.2891 20.7896 17.3945 20.7031 17.5264 20.6416C17.6582 20.5801 17.8018 20.5493 17.957 20.5493C18.1533 20.5493 18.3159 20.5859 18.4448 20.6592C18.5737 20.7295 18.6689 20.8291 18.7305 20.958C18.7949 21.084 18.8271 21.229 18.8271 21.3931C18.8271 21.5747 18.792 21.7344 18.7217 21.8721C18.7173 21.8808 18.7128 21.8894 18.7081 21.8979C18.6407 22.0204 18.5412 22.1172 18.4097 22.1885C18.4029 22.192 18.396 22.1955 18.389 22.1988C18.2993 22.2422 18.1949 22.2714 18.0757 22.2864C18.0124 22.2944 17.9451 22.2983 17.8735 22.2983H17.1968V23.2607H17.8735C17.944 23.2607 18.0114 23.2643 18.0757 23.2714C18.2091 23.2862 18.3293 23.3163 18.436 23.3618C18.4497 23.3676 18.4631 23.3738 18.4763 23.3802C18.6054 23.4431 18.7081 23.5335 18.7843 23.6515C18.7899 23.6603 18.7954 23.6692 18.8008 23.6782C18.8857 23.8188 18.9282 24.0063 18.9282 24.2407C18.9282 24.4224 18.8887 24.582 18.8096 24.7197C18.7334 24.8545 18.6221 24.96 18.4756 25.0361C18.332 25.1094 18.1592 25.146 17.957 25.146C17.7783 25.146 17.6157 25.1094 17.4692 25.0361ZM18.056 21.5263C18.0379 21.5329 17.9839 21.5483 17.8735 21.5483H17.801C17.8254 21.4772 17.8393 21.4013 17.8411 21.3224C17.8419 21.322 17.8427 21.3216 17.8435 21.3212C17.8695 21.3091 17.9038 21.2993 17.957 21.2993C18.0168 21.2993 18.051 21.3057 18.067 21.3098C18.0713 21.3227 18.0771 21.3483 18.0771 21.3931C18.0771 21.4692 18.0642 21.5084 18.056 21.5263Z" fill="#C28044"/>
</g>
<defs>
<filter id="filter0_d_990_10503" x="0.0859375" y="0.171875" width="38" height="38" filterUnits="userSpaceOnUse" color-interpolation-filters="sRGB">
<feFlood flood-opacity="0" result="BackgroundImageFix"/>
<feColorMatrix in="SourceAlpha" type="matrix" values="0 0 0 0 0 0 0 0 0 0 0 0 0 0 0 0 0 0 127 0" result="hardAlpha"/>
<feOffset dx="2" dy="2"/>
<feColorMatrix type="matrix" values="0 0 0 0 0.637788 0 0 0 0 0.545996 0 0 0 0 0.47948 0 0 0 0.2 0"/>
<feBlend mode="normal" in2="BackgroundImageFix" result="effect1_dropShadow_990_10503"/>
<feBlend mode="normal" in="SourceGraphic" in2="effect1_dropShadow_990_10503" result="shape"/>
</filter>
</defs>
</svg>
