<svg width="24" height="24" viewBox="0 0 24 24" fill="none" xmlns="http://www.w3.org/2000/svg">
<path d="M16.8031 13.601C15.9362 13.6017 15.107 13.9555 14.5067 14.5808L10.9889 12.8217C11.0191 12.6561 11.036 12.4885 11.0395 12.3202C11.036 12.152 11.0191 11.9843 10.9889 11.8188L14.5067 10.0596C15.5734 11.1559 17.2673 11.3427 18.5472 10.5053C19.8272 9.66783 20.3345 8.04094 19.7573 6.62444C19.1801 5.20794 17.6802 4.39895 16.1795 4.69465C14.6787 4.99035 13.5979 6.30785 13.6011 7.83744C13.6046 8.00587 13.6215 8.17376 13.6517 8.33951L10.134 10.0974C9.22771 9.15745 7.84145 8.86195 6.63061 9.35061C5.41978 9.83927 4.62695 11.0142 4.62695 12.3199C4.62695 13.6256 5.41978 14.8006 6.63061 15.2892C7.84145 15.7779 9.22771 15.4824 10.134 14.5424L13.6517 16.301C13.6215 16.4667 13.6046 16.6346 13.6011 16.803C13.6011 18.5715 15.0347 20.005 16.8031 20.005C18.5715 20.005 20.0051 18.5715 20.0051 16.803C20.0051 15.0346 18.5715 13.601 16.8031 13.601Z" fill="#106FA4"/>
<mask id="mask0_13228_13947" style="mask-type:alpha" maskUnits="userSpaceOnUse" x="4" y="4" width="17" height="17">
<path d="M16.8031 13.601C15.9362 13.6017 15.107 13.9555 14.5067 14.5808L10.9889 12.8217C11.0191 12.6561 11.036 12.4885 11.0395 12.3202C11.036 12.152 11.0191 11.9843 10.9889 11.8188L14.5067 10.0596C15.5734 11.1559 17.2673 11.3427 18.5472 10.5053C19.8272 9.66783 20.3345 8.04094 19.7573 6.62444C19.1801 5.20794 17.6802 4.39895 16.1795 4.69465C14.6787 4.99035 13.5979 6.30785 13.6011 7.83744C13.6046 8.00587 13.6215 8.17376 13.6517 8.33951L10.134 10.0974C9.22771 9.15745 7.84145 8.86195 6.63061 9.35061C5.41978 9.83927 4.62695 11.0142 4.62695 12.3199C4.62695 13.6256 5.41978 14.8006 6.63061 15.2892C7.84145 15.7779 9.22771 15.4824 10.134 14.5424L13.6517 16.301C13.6215 16.4667 13.6046 16.6346 13.6011 16.803C13.6011 18.5715 15.0347 20.005 16.8031 20.005C18.5715 20.005 20.0051 18.5715 20.0051 16.803C20.0051 15.0346 18.5715 13.601 16.8031 13.601Z" fill="white"/>
</mask>
<g mask="url(#mask0_13228_13947)">
</g>
</svg>
