<svg width="172" height="158" viewBox="0 0 172 158" fill="none" xmlns="http://www.w3.org/2000/svg">
<path d="M29.6469 92.4347L4.91309 97.0635L8.61373 116.838L33.3475 112.209L29.6469 92.4347Z" fill="#F5F5F5"/>
<path d="M29.6534 92.4404L29.5335 92.4695L29.1699 92.5386L27.8285 92.8003L22.7646 93.7709L4.93371 97.1517L5.00278 97.0499C6.09336 102.935 7.37297 109.682 8.71437 116.822L8.60168 116.742L33.3214 112.133L33.2596 112.227C32.169 106.273 31.2529 101.34 30.6168 97.8824C30.3041 96.1557 30.0569 94.7997 29.8897 93.8836C29.8061 93.4219 29.7443 93.0693 29.7007 92.8221C29.6571 92.5749 29.6389 92.4586 29.6389 92.4586C29.6389 92.4586 29.668 92.5749 29.7116 92.8221L29.9188 93.8655C30.0969 94.7924 30.355 96.1411 30.6858 97.8642C31.3438 101.329 32.2817 106.276 33.4159 112.245L33.4341 112.322L33.3541 112.34L8.61986 116.957L8.52534 116.975L8.50716 116.877C7.17666 109.737 5.91523 102.99 4.81738 97.1008V97.0172L4.90463 96.999L22.8046 93.691L27.854 92.7676L29.1881 92.5277L29.5262 92.4695L29.6534 92.4404Z" fill="#E0E0E0"/>
<path d="M28.9943 93.8436L5.99707 98.1475L9.23162 115.431L32.2289 111.127L28.9943 93.8436Z" fill="#EBEBEB"/>
<path d="M9.22363 115.438L15.2472 103.19L21.4781 108.981L24.1827 104.757L32.2202 111.137L9.22363 115.438Z" fill="#E0E0E0"/>
<path d="M22.0883 100.551C22.1553 100.909 22.1147 101.279 21.9714 101.614C21.8282 101.949 21.5888 102.235 21.2835 102.434C20.9782 102.633 20.6208 102.737 20.2563 102.733C19.8919 102.729 19.5368 102.617 19.236 102.411C18.9352 102.205 18.7022 101.915 18.5663 101.577C18.4305 101.239 18.398 100.868 18.473 100.511C18.5479 100.154 18.7269 99.8278 18.9874 99.5729C19.2478 99.3179 19.578 99.1459 19.9362 99.0786C20.1742 99.0339 20.4187 99.0365 20.6556 99.0863C20.8926 99.1361 21.1175 99.232 21.3173 99.3688C21.5172 99.5055 21.6881 99.6803 21.8204 99.8831C21.9527 100.086 22.0437 100.313 22.0883 100.551Z" fill="#E0E0E0"/>
<path d="M66.705 9.58906L54.042 79.5469L105.839 88.9226L118.502 18.9648L66.705 9.58906Z" fill="#FAFAFA"/>
<path d="M105.837 88.9252C105.837 88.9252 105.855 88.8089 105.892 88.5908L106.066 87.6056C106.219 86.7404 106.448 85.4608 106.742 83.7995C107.342 80.4696 108.215 75.6057 109.32 69.4475L118.408 18.9539L118.481 19.0557L66.6964 9.68762L66.8091 9.60765C62.0832 35.7051 57.6955 59.8796 54.1257 79.5608L54.0639 79.4699L91.6996 86.326L102.144 88.2382L104.892 88.7471C105.514 88.8598 105.837 88.9252 105.837 88.9252L104.907 88.7653L102.169 88.2781L91.7251 86.4205L54.0275 79.6372H53.9512V79.5608C57.5101 59.8723 61.8833 35.6979 66.6019 9.60038V9.50586H66.7L118.517 18.8812L118.604 18.8994V18.983C114.834 39.7039 111.65 57.2004 109.411 69.513L106.793 83.8359C106.488 85.4899 106.255 86.7441 106.095 87.6238C106.015 88.0491 105.957 88.3727 105.917 88.5944L105.837 88.9252Z" fill="#E0E0E0"/>
<path d="M93.0722 20.9622L71.0801 16.9814L67.6121 36.1405L89.6043 40.1213L93.0722 20.9622Z" fill="#E0E0E0"/>
<path d="M110.613 24.1374L96.5332 21.5889L96.0806 24.0893L110.16 26.6378L110.613 24.1374Z" fill="#E0E0E0"/>
<path d="M107.367 47.3697L67.1816 40.0957L66.729 42.5961L106.914 49.8701L107.367 47.3697Z" fill="#E0E0E0"/>
<path d="M106.573 51.77L66.3877 44.4961L65.9351 46.9965L106.121 54.2704L106.573 51.77Z" fill="#E0E0E0"/>
<path d="M105.777 56.1714L65.5918 48.8975L65.1392 51.3979L105.325 58.6718L105.777 56.1714Z" fill="#E0E0E0"/>
<path d="M104.976 60.5718L64.791 53.2979L64.3384 55.7983L104.524 63.0722L104.976 60.5718Z" fill="#E0E0E0"/>
<path d="M104.181 64.9693L63.9951 57.6953L63.5425 60.1957L103.728 67.4697L104.181 64.9693Z" fill="#E0E0E0"/>
<path d="M101.45 80.0581L61.2646 72.7842L60.8121 75.2846L100.997 82.5585L101.45 80.0581Z" fill="#E0E0E0"/>
<path d="M85.2613 66.0908L63.2012 62.0977L62.7486 64.5981L84.8087 68.5912L85.2613 66.0908Z" fill="#E0E0E0"/>
<path d="M109.882 28.1853L95.8027 25.6367L95.3501 28.1371L109.43 30.6857L109.882 28.1853Z" fill="#E0E0E0"/>
<path d="M108.616 32.2835L94.5938 29.708L94.1364 32.1982L108.159 34.7737L108.616 32.2835Z" fill="#E0E0E0"/>
<path d="M103.019 35.2961L94.3369 33.7246L93.8843 36.225L102.566 37.7965L103.019 35.2961Z" fill="#E0E0E0"/>
<path d="M129.259 9.26626L124.791 9.44802L124.308 10.6985C124.17 11.0243 124.096 11.3736 124.09 11.7273C124.085 11.8837 124.124 12.0383 124.203 12.1738C124.281 12.3092 124.395 12.4202 124.533 12.4944C124.937 12.6231 125.36 12.681 125.784 12.6652V13.0287L121.625 13.1814V12.8179C122.048 12.7447 122.432 12.5292 122.716 12.2072C123.146 11.6111 123.485 10.9544 123.723 10.2587L127.805 0H127.983L132.96 10.1787C133.444 11.1481 133.827 11.754 134.108 11.9963C134.369 12.1966 134.689 12.303 135.017 12.2981V12.6398L128.899 12.887V12.5416H129.154C129.512 12.5583 129.867 12.4726 130.179 12.2944C130.245 12.2439 130.297 12.1773 130.33 12.1009C130.363 12.0246 130.376 11.941 130.368 11.8582C130.362 11.7415 130.339 11.6263 130.299 11.5165C130.299 11.462 130.179 11.2293 129.99 10.8294L129.259 9.26626ZM128.914 8.5901L126.856 4.30777L125.089 8.74278L128.914 8.5901Z" fill="#E0E0E0"/>
<path d="M137.719 35.68L117.286 42.5049L122.743 58.8415L143.176 52.0167L137.719 35.68Z" fill="#F5F5F5"/>
<path d="M137.326 36.9533L118.331 43.2979L123.1 57.576L142.095 51.2314L137.326 36.9533Z" fill="#EBEBEB"/>
<path d="M123.102 57.5824L126.773 46.4912L132.735 50.6718L134.531 46.7711L142.096 51.2389L123.102 57.5824Z" fill="#E0E0E0"/>
<path d="M132.262 43.4483C132.361 43.7443 132.37 44.063 132.288 44.364C132.206 44.6651 132.037 44.9351 131.801 45.1398C131.565 45.3444 131.274 45.4747 130.965 45.5139C130.655 45.5532 130.341 45.4998 130.062 45.3604C129.782 45.2211 129.551 45.002 129.396 44.731C129.241 44.46 129.17 44.1492 129.192 43.8379C129.214 43.5265 129.328 43.2287 129.519 42.9821C129.711 42.7355 129.971 42.5511 130.267 42.4523C130.463 42.3862 130.671 42.3596 130.877 42.3739C131.084 42.3882 131.286 42.4432 131.471 42.5358C131.657 42.6283 131.822 42.7566 131.958 42.9132C132.094 43.0698 132.197 43.2516 132.262 43.4483Z" fill="#E0E0E0"/>
<path d="M138.287 16.682L133.285 42.2217L165.228 48.4771L170.23 22.9375L138.287 16.682Z" fill="#F5F5F5"/>
<path d="M170.236 22.9384L170.08 22.913L169.629 22.833L167.892 22.5022L161.348 21.2444L138.275 16.7694L138.377 16.7003C136.89 24.3016 135.189 33.0153 133.386 42.238L133.309 42.1216L165.249 48.3997L165.154 48.4615C166.677 40.7766 167.939 34.404 168.822 29.9508C169.269 27.7224 169.618 25.9738 169.858 24.7778C169.978 24.1817 170.069 23.7273 170.135 23.411C170.2 23.0947 170.236 22.9384 170.236 22.9384C170.236 22.9384 170.211 23.0947 170.153 23.4001C170.095 23.7054 170.011 24.1635 169.898 24.7524C169.669 25.9448 169.335 27.6897 168.91 29.9145C168.044 34.3858 166.805 40.7802 165.314 48.4942L165.296 48.5742H165.22L133.259 42.3179L133.164 42.2998L133.182 42.2052C135 32.9862 136.705 24.2725 138.195 16.6712L138.213 16.584L138.297 16.6022L161.421 21.168L167.935 22.4695L169.655 22.833L170.091 22.9239L170.236 22.9384Z" fill="#E0E0E0"/>
<path d="M139.076 18.5063L134.705 40.8281L164.404 46.6441L168.776 24.3223L139.076 18.5063Z" fill="#EBEBEB"/>
<path d="M134.705 40.831L147.796 28.9873L152.521 38.9261L157.789 35.1382L164.405 46.6474L134.705 40.831Z" fill="#E0E0E0"/>
<path d="M157.283 29.0782C157.193 29.5413 156.968 29.9672 156.636 30.3022C156.303 30.6372 155.879 30.8661 155.417 30.96C154.955 31.0539 154.475 31.0086 154.038 30.8297C153.602 30.6509 153.228 30.3466 152.964 29.9553C152.701 29.564 152.559 29.1034 152.558 28.6316C152.556 28.1598 152.694 27.6981 152.955 27.305C153.216 26.9118 153.587 26.6048 154.022 26.4228C154.458 26.2409 154.937 26.1921 155.4 26.2826C155.708 26.3423 156 26.4619 156.261 26.6348C156.522 26.8076 156.747 27.0302 156.921 27.2899C157.096 27.5495 157.218 27.8411 157.28 28.148C157.342 28.4548 157.343 28.7709 157.283 29.0782Z" fill="#E0E0E0"/>
<path d="M15.3818 2.52272L17.0322 21.7823L24.5027 23.8071L38.9928 22.124L36.9534 0.443359L15.3818 2.52272Z" fill="#F5F5F5"/>
<path d="M19.3108 20.0518L17.0352 21.7821C17.9001 22.5321 18.9115 23.0941 20.0052 23.4325C21.4672 23.8393 22.9936 23.9627 24.502 23.7961C24.502 23.7961 21.0521 23.2108 19.3108 20.0518Z" fill="#EBEBEB"/>
<path d="M35.2082 7.53559C35.2082 7.57194 31.5439 7.95364 27.018 8.39351C22.4921 8.83337 18.8132 9.16054 18.8096 9.12056C18.8059 9.08057 22.4739 8.6916 27.0034 8.26264C31.533 7.83368 35.2046 7.48833 35.2082 7.53559Z" fill="#E0E0E0"/>
<path d="M35.423 10.4873C35.423 10.5236 31.7587 10.909 27.2328 11.3488C22.7069 11.7887 19.0281 12.1122 19.0244 12.0759C19.0208 12.0395 22.6888 11.6542 27.2183 11.2143C31.7478 10.7744 35.4194 10.4436 35.423 10.4873Z" fill="#E0E0E0"/>
<path d="M35.768 13.1014C35.768 13.1378 32.1037 13.5231 27.5778 13.9593C23.0519 14.3956 19.3767 14.7264 19.373 14.6864C19.3694 14.6464 23.0337 14.2683 27.5633 13.8285C32.0928 13.3886 35.7644 13.0651 35.768 13.1014Z" fill="#E0E0E0"/>
<path d="M35.9973 15.6278C35.9973 15.6605 32.3329 16.0458 27.8034 16.4857C23.2739 16.9255 19.6023 17.2527 19.5986 17.2127C19.595 17.1727 23.263 16.791 27.7925 16.3548C32.322 15.9186 35.9936 15.5914 35.9973 15.6278Z" fill="#E0E0E0"/>
<path d="M171.57 157.635C171.57 157.686 133.255 157.73 86.0035 157.73C38.7525 157.73 0.429688 157.686 0.429688 157.635C0.429688 157.584 38.7343 157.537 86.0035 157.537C133.273 157.537 171.57 157.581 171.57 157.635Z" fill="#263238"/>
<path d="M10.7275 36.0183L26.0538 123.781L90.6813 113.635L93.6767 106.397L76.1912 25.2471L15.6133 28.8605L10.7275 36.0183Z" fill="#E0E0E0"/>
<path opacity="0.3" d="M26.0538 123.781L30.6451 116.746L15.3189 28.9805L10.7275 36.0183L26.0538 123.781Z" fill="black"/>
<path d="M15.3193 28.9799L30.6456 116.746L93.6772 106.396L77.7512 20.0771L15.3193 28.9799Z" fill="#FAFAFA"/>
<path d="M15.3193 28.984L77.7403 20.0049H77.8166V20.0776C82.2843 44.1829 87.8172 74.0611 93.7717 106.378L93.7899 106.477L93.6918 106.495L92.6521 106.666L30.6601 116.844H30.5729V116.757C21.5574 64.9221 15.4538 29.7546 15.3193 28.984C15.4538 29.7583 21.6301 64.9112 30.7328 116.732L30.631 116.663L92.6193 106.484L93.659 106.313L93.5791 106.426C87.6245 74.1047 82.1207 44.2266 77.6748 20.103L77.7621 20.1648L15.3193 28.984Z" fill="#263238"/>
<path d="M65.8568 70.544C66.6383 64.663 62.5044 59.2619 56.6234 58.4804C50.7423 57.6988 45.3412 61.8327 44.5597 67.7138C43.7781 73.5948 47.9121 78.9959 53.7931 79.7775C59.6741 80.559 65.0752 76.4251 65.8568 70.544Z" fill="#106FA4"/>
<path d="M50.2791 71.9456L49.792 68.852L60.5051 67.1543L60.9631 70.0625C60.9631 70.0625 60.3088 72.5636 55.9756 73.247C51.6423 73.9304 50.2791 71.9456 50.2791 71.9456Z" fill="white"/>
<path d="M48.1016 68.8698L55.7465 70.2294L62.3772 66.4996L54.7214 65.2891L48.1016 68.8698Z" fill="white"/>
<path d="M69.4919 38.8619L31.5059 44.8647C31.0399 44.9383 30.7218 45.3758 30.7955 45.8419L30.9237 46.6534C30.9973 47.1194 31.4348 47.4375 31.9009 47.3638L69.8868 41.361C70.3528 41.2874 70.6709 40.8499 70.5973 40.3839L70.469 39.5724C70.3954 39.1064 69.9579 38.7883 69.4919 38.8619Z" fill="#E0E0E0"/>
<path d="M63.4816 45.1809L39.3917 48.9877C38.9256 49.0614 38.6076 49.4989 38.6812 49.9649L38.8094 50.7764C38.8831 51.2424 39.3206 51.5605 39.7866 51.4869L63.8766 47.68C64.3426 47.6064 64.6607 47.1689 64.587 46.7029L64.4588 45.8914C64.3852 45.4253 63.9477 45.1072 63.4816 45.1809Z" fill="#E0E0E0"/>
<path d="M72.1594 99.0295L48.0694 102.836C47.6034 102.91 47.2853 103.348 47.3589 103.814L47.4872 104.625C47.5608 105.091 47.9983 105.409 48.4643 105.336L72.5543 101.529C73.0203 101.455 73.3384 101.018 73.2648 100.551L73.1365 99.74C73.0629 99.274 72.6254 98.9559 72.1594 99.0295Z" fill="#E0E0E0"/>
<path d="M90.4306 108.836L90.1252 108.894L89.2237 109.051L85.7374 109.632L72.7923 111.755L29.0602 118.862L28.9657 118.88V118.786C28.355 115.314 27.7115 111.679 27.0572 107.975C23.5383 88.0717 20.3683 70.0627 18.0745 57.0157C16.9367 50.4941 16.0169 45.2193 15.3771 41.5695C15.0645 39.7519 14.8209 38.3305 14.6501 37.3672C14.5701 36.8873 14.5083 36.5238 14.4647 36.2766C14.4211 36.0294 14.4102 35.9131 14.4102 35.9131C14.4102 35.9131 14.4392 36.0403 14.4865 36.2766C14.5338 36.5129 14.5992 36.891 14.6864 37.3672C14.8609 38.3305 15.1154 39.7446 15.4462 41.5623C16.0969 45.1975 17.0384 50.4832 18.2017 56.9976C20.5101 70.0408 23.7019 88.0499 27.2244 107.949C27.8788 111.65 28.5186 115.289 29.1329 118.76L29.0202 118.681L72.7669 111.635L85.7193 109.571L89.2091 109.022L90.1143 108.884L90.4306 108.836Z" fill="#263238"/>
<path d="M85.6364 112.136L85.3493 112.195L84.4986 112.344L81.2051 112.904L68.9615 114.947L27.4106 121.824H27.3161V121.734L24.9277 108.767C21.3688 89.1363 18.148 71.378 15.8141 58.5165C14.6581 52.0894 13.7202 46.8837 13.0732 43.2848C12.7569 41.489 12.5061 40.0931 12.3461 39.1406C12.2661 38.6717 12.2007 38.3118 12.1607 38.05C12.1207 37.7883 12.1025 37.6865 12.1025 37.6865C12.1025 37.6865 12.1316 37.8065 12.1789 38.05L12.3861 39.1406C12.5606 40.0894 12.8223 41.4817 13.1568 43.2739L15.9559 58.4947C18.3043 71.3562 21.5469 89.1144 25.1277 108.734C25.9347 113.18 26.7272 117.531 27.4869 121.715L27.3779 121.639L68.9324 114.827L81.1833 112.838L84.4804 112.311L85.3347 112.18L85.6364 112.136Z" fill="#263238"/>
<path d="M16.8423 66.1475L15.4209 68.1541L18.8708 88.8351L20.9247 89.533L16.8423 66.1475Z" fill="#263238"/>
<path d="M26.6863 64.4253L16.8457 66.1445L20.9311 89.5285L30.7717 87.8093L26.6863 64.4253Z" fill="#263238"/>
<path d="M26.9998 63.5186L26.3588 63.6305C25.9929 63.6943 25.7481 64.0427 25.8119 64.4086L29.9457 88.0941C30.0096 88.46 30.3579 88.7049 30.7238 88.641L31.3649 88.5291C31.7308 88.4653 31.9756 88.1169 31.9117 87.751L27.778 64.0655C27.7141 63.6996 27.3657 63.4547 26.9998 63.5186Z" fill="#263238"/>
<path d="M15.1411 83.0659C14.0507 83.0615 12.9987 82.6626 12.1795 81.943C11.3603 81.2233 10.8292 80.2315 10.6843 79.1507C10.5593 78.2274 10.7235 77.288 11.1543 76.4618C11.5851 75.6356 12.2613 74.9632 13.09 74.5371C13.9186 74.111 14.8589 73.9522 15.7816 74.0825C16.7042 74.2128 17.5637 74.6258 18.242 75.2646L24.3856 71.7748C24.5032 71.7081 24.6351 71.6707 24.7702 71.6656C24.9052 71.6606 25.0396 71.6881 25.1618 71.7458C25.284 71.8035 25.3906 71.8898 25.4725 71.9973C25.5544 72.1049 25.6093 72.2305 25.6325 72.3637L27.0866 80.6848C27.1105 80.8172 27.1023 80.9534 27.0626 81.082C27.0229 81.2105 26.9529 81.3277 26.8584 81.4235C26.764 81.5194 26.648 81.5911 26.52 81.6327C26.3921 81.6744 26.256 81.6846 26.1232 81.6627L19.1872 80.5721C18.8117 81.3237 18.2342 81.9558 17.5196 82.3976C16.8049 82.8393 15.9813 83.0733 15.1411 83.0732V83.0659ZM15.1411 74.7739C14.9586 74.7727 14.7763 74.7861 14.5958 74.8139C13.6179 74.9728 12.739 75.5031 12.1424 76.2941C11.5457 77.0851 11.2773 78.0758 11.3932 79.0598C11.5033 79.8827 11.8812 80.6465 12.4686 81.2332C13.056 81.82 13.8202 82.197 14.6433 82.3062C15.4663 82.4154 16.3024 82.2506 17.0224 81.8373C17.7425 81.4241 18.3065 80.7853 18.6273 80.0195L18.7364 79.7578L26.2396 80.9683C26.2574 80.9722 26.2758 80.9711 26.2931 80.9654C26.3104 80.9596 26.3258 80.9494 26.3377 80.9356C26.3506 80.9231 26.3603 80.9076 26.366 80.8905C26.3717 80.8734 26.3732 80.8553 26.3704 80.8375L24.9163 72.5127C24.9128 72.4946 24.9051 72.4776 24.8937 72.463C24.8823 72.4485 24.8677 72.4369 24.8509 72.4291C24.8346 72.4208 24.8165 72.4165 24.7982 72.4165C24.7799 72.4165 24.7618 72.4208 24.7455 72.4291L18.1111 76.1807L17.9148 75.9735C17.5594 75.598 17.131 75.2992 16.6559 75.0954C16.1808 74.8916 15.669 74.7872 15.152 74.7884L15.1411 74.7739Z" fill="#455A64"/>
<path d="M29.9004 87.7846C29.8763 87.7088 29.8592 87.6309 29.8495 87.5519C29.8168 87.3774 29.7768 87.1557 29.7223 86.883C29.6132 86.276 29.4606 85.4289 29.2715 84.4111C28.908 82.3063 28.3845 79.4344 27.8174 76.2608C27.2503 73.0873 26.7668 70.2081 26.4033 68.0961C26.2324 67.0709 26.0943 66.2312 25.9962 65.6205C25.9525 65.3442 25.9198 65.1188 25.8944 64.9443C25.8774 64.8667 25.87 64.7874 25.8726 64.708C25.8973 64.7829 25.9167 64.8594 25.9307 64.937C25.9671 65.1115 26.0143 65.3333 26.0689 65.6059C26.1852 66.213 26.3451 67.06 26.5378 68.0743C26.9268 70.1572 27.4466 73.04 27.9919 76.2245C28.5372 79.409 29.0461 82.299 29.3878 84.3893C29.5623 85.4362 29.6932 86.2832 29.7805 86.8685C29.8204 87.163 29.8568 87.3884 29.8713 87.5483C29.8907 87.6256 29.9005 87.7049 29.9004 87.7846Z" fill="#455A64"/>
<path d="M20.7286 89.6124C20.707 89.5347 20.69 89.4559 20.6777 89.3762C20.6449 89.2053 20.605 88.9836 20.5541 88.7073C20.4414 88.1002 20.2887 87.2532 20.0997 86.2389C19.7361 84.1305 19.2127 81.2586 18.6456 78.0851C18.0785 74.9115 17.5986 72.0324 17.2314 69.9239C17.0606 68.8951 16.9224 68.0554 16.8243 67.4483C16.7807 67.1684 16.748 66.9466 16.7225 66.7722C16.7055 66.6934 16.6981 66.6128 16.7007 66.5322C16.7282 66.6078 16.7489 66.6856 16.7625 66.7649C16.7952 66.9394 16.8425 67.1611 16.897 67.4338C17.0133 68.0409 17.1733 68.8879 17.3659 69.8985C17.7549 71.9851 18.2748 74.8642 18.82 78.0523C19.3653 81.2405 19.8743 84.1232 20.2196 86.2135C20.3905 87.2604 20.525 88.1075 20.6086 88.6964C20.6486 88.9908 20.6849 89.2162 20.6995 89.3725C20.7189 89.451 20.7286 89.5316 20.7286 89.6124Z" fill="#455A64"/>
<path d="M62.3704 66.5C62.2121 66.6211 62.0443 66.7293 61.8687 66.8235L60.4655 67.6487C59.2731 68.3394 57.6191 69.281 55.7869 70.3134L55.7542 70.3316H55.7215H55.6451C53.5549 69.968 51.6464 69.6045 50.3013 69.3537L48.6836 69.0374C48.4834 69.0066 48.2863 68.958 48.0947 68.892C48.2972 68.9011 48.4989 68.9242 48.6982 68.9611L50.3231 69.2192C51.6973 69.4446 53.5949 69.7717 55.6815 70.1425H55.7542H55.6888C57.5246 69.1137 59.1895 68.1904 60.4146 67.5288L61.8505 66.7581C62.0155 66.6562 62.1895 66.5698 62.3704 66.5Z" fill="#263238"/>
<path d="M67.8889 108.884H98.883V125.148H67.8889C66.1872 125.148 64.5552 124.472 63.3519 123.268C62.1487 122.065 61.4727 120.433 61.4727 118.731V115.296C61.4727 113.594 62.1487 111.962 63.3519 110.759C64.5552 109.556 66.1872 108.88 67.8889 108.88V108.884Z" fill="#106FA4"/>
<path d="M90.7803 108.884H156.16C156.443 108.884 156.714 108.996 156.913 109.196C157.113 109.396 157.225 109.666 157.225 109.949V110.52C157.225 110.802 157.113 111.073 156.913 111.273C156.714 111.473 156.443 111.585 156.16 111.585H90.7803V108.884Z" fill="#106FA4"/>
<path d="M90.7803 122.45H156.16C156.3 122.45 156.439 122.478 156.568 122.531C156.697 122.585 156.815 122.663 156.913 122.762C157.012 122.861 157.091 122.978 157.144 123.108C157.198 123.237 157.225 123.375 157.225 123.515V124.086C157.225 124.369 157.113 124.639 156.913 124.839C156.714 125.039 156.443 125.151 156.16 125.151H90.7803V122.45Z" fill="#106FA4"/>
<path d="M155.237 122.45H98.1967C97.4832 122.45 96.7766 122.309 96.1175 122.036C95.4583 121.763 94.8594 121.362 94.3551 120.858C93.8507 120.353 93.4507 119.754 93.178 119.095C92.9053 118.435 92.7651 117.729 92.7656 117.015C92.7656 115.575 93.3378 114.193 94.3564 113.175C95.3749 112.156 96.7563 111.584 98.1967 111.584H155.237C154.482 113.296 154.091 115.146 154.091 117.017C154.091 118.888 154.482 120.738 155.237 122.45Z" fill="#F5F5F5"/>
<path opacity="0.3" d="M92.7649 125.152H68.0161C66.2807 125.152 64.6163 124.462 63.3892 123.235C62.1621 122.008 61.4727 120.344 61.4727 118.608V115.376C61.4727 113.654 62.1567 112.003 63.3743 110.785C64.5919 109.568 66.2433 108.884 67.9652 108.884H93.3793C87.4938 112.454 87.9337 120.996 92.7649 125.152Z" fill="black"/>
<path d="M148.308 117.521C148.308 117.576 136.599 117.619 122.16 117.619C107.721 117.619 96.0117 117.576 96.0117 117.521C96.0117 117.466 107.717 117.423 122.16 117.423C136.603 117.423 148.308 117.466 148.308 117.521Z" fill="#263238"/>
<path d="M153.688 119.934C153.688 119.989 141.979 120.033 127.54 120.033C113.101 120.033 101.392 119.989 101.392 119.934C101.392 119.88 113.097 119.84 127.54 119.84C141.983 119.84 153.688 119.883 153.688 119.934Z" fill="#263238"/>
<path d="M152.104 114.096C152.104 114.151 140.395 114.194 125.956 114.194C111.516 114.194 99.8037 114.151 99.8037 114.096C99.8037 114.042 111.509 113.998 125.956 113.998C140.402 113.998 152.104 114.049 152.104 114.096Z" fill="#263238"/>
<path d="M89.9007 124.009C89.9007 124.064 84.4187 124.107 77.6608 124.107C70.9029 124.107 65.4209 124.064 65.4209 124.009C65.4209 123.955 70.8992 123.911 77.6608 123.911C84.4224 123.911 89.9007 123.955 89.9007 124.009Z" fill="#263238"/>
<path d="M89.9007 110.236C89.9007 110.29 84.4187 110.334 77.6608 110.334C70.9029 110.334 65.4209 110.29 65.4209 110.236C65.4209 110.181 70.8992 110.138 77.6608 110.138C84.4224 110.138 89.9007 110.181 89.9007 110.236Z" fill="#263238"/>
<path d="M54.2063 136.566H95.9717V157.513H54.2063C52.5046 157.513 50.8726 156.837 49.6693 155.633C48.466 154.43 47.79 152.798 47.79 151.097V142.983C47.79 141.281 48.466 139.649 49.6693 138.446C50.8726 137.242 52.5046 136.566 54.2063 136.566Z" fill="#106FA4"/>
<path d="M85.5352 136.566H170.029C170.312 136.566 170.583 136.679 170.783 136.878C170.982 137.078 171.094 137.349 171.094 137.632V138.98C171.094 139.263 170.982 139.534 170.783 139.733C170.583 139.933 170.312 140.045 170.029 140.045H85.5352V136.566Z" fill="#106FA4"/>
<path d="M85.5352 154.037H170.029C170.312 154.037 170.583 154.149 170.783 154.349C170.982 154.549 171.094 154.82 171.094 155.102V156.451C171.094 156.733 170.982 157.004 170.783 157.204C170.583 157.404 170.312 157.516 170.029 157.516H85.5352V154.037Z" fill="#106FA4"/>
<path d="M168.542 154.037H95.088C93.2327 154.036 91.4537 153.298 90.1421 151.986C88.8305 150.674 88.0937 148.894 88.0938 147.039C88.0938 146.121 88.2747 145.211 88.6262 144.363C88.9776 143.514 89.4928 142.743 90.1423 142.093C90.7918 141.444 91.5628 140.929 92.4114 140.577C93.26 140.226 94.1695 140.045 95.088 140.045H168.542C167.568 142.249 167.064 144.631 167.064 147.041C167.064 149.45 167.568 151.833 168.542 154.037Z" fill="#F5F5F5"/>
<path opacity="0.3" d="M88.0871 157.512H54.1229C53.2915 157.512 52.4682 157.349 51.7001 157.03C50.932 156.712 50.2341 156.245 49.6464 155.657C49.0586 155.069 48.5925 154.371 48.2747 153.603C47.9568 152.835 47.7935 152.011 47.7939 151.18V143.131C47.7939 141.396 48.4833 139.732 49.7105 138.504C50.9376 137.277 52.602 136.588 54.3374 136.588H88.8723C81.3001 141.161 81.8672 152.165 88.0871 157.512Z" fill="black"/>
<path d="M159.618 147.69C159.618 147.744 144.539 147.788 125.945 147.788C107.35 147.788 92.2676 147.744 92.2676 147.69C92.2676 147.635 107.343 147.592 125.945 147.592C144.546 147.592 159.618 147.635 159.618 147.69Z" fill="#263238"/>
<path d="M166.55 150.798C166.55 150.852 151.471 150.896 132.873 150.896C114.275 150.896 99.1963 150.852 99.1963 150.798C99.1963 150.743 114.272 150.703 132.873 150.703C151.475 150.703 166.55 150.765 166.55 150.798Z" fill="#263238"/>
<path d="M164.521 144.803C164.521 144.858 149.446 144.901 130.848 144.901C112.25 144.901 97.1709 144.858 97.1709 144.803C97.1709 144.749 112.246 144.705 130.848 144.705C149.449 144.705 164.521 144.749 164.521 144.803Z" fill="#263238"/>
<path d="M84.397 156.044C84.397 156.098 77.341 156.142 68.6345 156.142C59.9281 156.142 52.8721 156.098 52.8721 156.044C52.8721 155.989 59.9281 155.949 68.6345 155.949C77.341 155.949 84.397 155.993 84.397 156.044Z" fill="#263238"/>
<path d="M84.397 138.307C84.397 138.358 77.341 138.402 68.6345 138.402C59.9281 138.402 52.8721 138.358 52.8721 138.307C52.8721 138.256 59.9281 138.209 68.6345 138.209C77.341 138.209 84.397 138.253 84.397 138.307Z" fill="#263238"/>
<path d="M74.0696 124.649H108.481V136.646H74.0696C72.8162 136.646 71.6142 136.148 70.7279 135.262C69.8417 134.375 69.3438 133.173 69.3438 131.92V129.375C69.3438 128.122 69.8417 126.92 70.7279 126.034C71.6142 125.147 72.8162 124.649 74.0696 124.649Z" fill="#455A64"/>
<path d="M100.003 124.649H168.404C168.7 124.649 168.984 124.767 169.193 124.976C169.402 125.186 169.52 125.469 169.52 125.765V126.362C169.52 126.658 169.402 126.941 169.193 127.151C168.984 127.36 168.7 127.478 168.404 127.478H100.003V124.653V124.649Z" fill="#455A64"/>
<path d="M100.003 133.817H168.404C168.7 133.817 168.984 133.935 169.193 134.144C169.402 134.354 169.52 134.637 169.52 134.933V135.53C169.52 135.826 169.402 136.109 169.193 136.319C168.984 136.528 168.7 136.646 168.404 136.646H100.003V133.821V133.817Z" fill="#455A64"/>
<path d="M167.43 133.818H105.267C104.426 133.818 103.62 133.484 103.025 132.89C102.43 132.296 102.095 131.489 102.094 130.648C102.094 129.807 102.428 128.999 103.023 128.404C103.618 127.809 104.426 127.475 105.267 127.475H167.43C165.84 129.59 165.84 131.705 167.43 133.818Z" fill="#F5F5F5"/>
<path opacity="0.3" d="M102.075 136.642H74.0837C73.4585 136.642 72.8395 136.519 72.2619 136.28C71.6843 136.04 71.1596 135.689 70.7177 135.247C70.2757 134.805 69.9253 134.28 69.6864 133.702C69.4475 133.124 69.3247 132.505 69.3252 131.88V129.51C69.3247 128.872 69.45 128.24 69.6938 127.65C69.9377 127.06 70.2954 126.525 70.7464 126.073C71.1974 125.622 71.733 125.264 72.3225 125.019C72.912 124.775 73.5438 124.649 74.1819 124.649H102.722C96.5605 127.281 97.0222 133.581 102.075 136.642Z" fill="black"/>
<path d="M160.192 130.146C160.192 130.201 147.942 130.244 132.834 130.244C117.725 130.244 105.475 130.201 105.475 130.146C105.475 130.092 117.722 130.052 132.834 130.052C147.945 130.052 160.192 130.095 160.192 130.146Z" fill="#263238"/>
<path d="M165.823 131.862C165.823 131.916 153.572 131.96 138.464 131.96C123.356 131.96 111.105 131.916 111.105 131.862C111.105 131.807 123.353 131.764 138.464 131.764C153.576 131.764 165.823 131.8 165.823 131.862Z" fill="#263238"/>
<path d="M99.0867 135.45C99.0867 135.504 93.3539 135.548 86.2797 135.548C79.2055 135.548 73.4727 135.504 73.4727 135.45C73.4727 135.395 79.2055 135.352 86.2797 135.352C93.3539 135.352 99.0867 135.395 99.0867 135.45Z" fill="#263238"/>
<path d="M99.0867 126.064C99.0867 126.118 93.3539 126.158 86.2797 126.158C79.2055 126.158 73.4727 126.118 73.4727 126.064C73.4727 126.009 79.2055 125.966 86.2797 125.966C93.3539 125.966 99.0867 126.009 99.0867 126.064Z" fill="#263238"/>
<path d="M168.702 124.65C168.702 124.704 147.665 124.748 121.723 124.748C95.7822 124.748 74.7305 124.704 74.7305 124.65C74.7305 124.595 95.7604 124.552 121.712 124.552C147.665 124.552 168.702 124.592 168.702 124.65Z" fill="#263238"/>
<path d="M130.979 113.918V120.432L133.237 118.986L135.753 120.432V113.918H130.979Z" fill="#106FA4"/>
<path d="M153.921 49.2578L142.554 58.7276L125.265 92.8845L136.043 97.7557L152.86 64.2569L153.921 49.2578Z" fill="#171717"/>
<g opacity="0.7">
<path d="M152.86 64.2461C152.729 64.2787 152.591 64.2804 152.459 64.251C152.326 64.2216 152.202 64.162 152.097 64.0768C151.991 63.9917 151.907 63.8832 151.85 63.76C151.793 63.6367 151.766 63.502 151.77 63.3664C151.411 63.7838 150.931 64.0783 150.396 64.2085C149.861 64.3387 149.299 64.298 148.789 64.0922C148.278 63.8864 147.845 63.5258 147.551 63.061C147.256 62.5963 147.114 62.0509 147.146 61.5015C146.667 61.7594 146.128 61.8853 145.584 61.8663C145.04 61.8472 144.511 61.684 144.051 61.3932C143.592 61.1024 143.217 60.6946 142.967 60.2115C142.717 59.7285 142.599 59.1875 142.627 58.6442L153.896 49.2471L152.86 64.2461Z" fill="white"/>
</g>
<path d="M149.349 53.0676C149.349 53.0676 149.523 55.8958 153.486 55.4014L153.922 49.2578L149.349 53.0676Z" fill="#171717"/>
<path d="M147.16 61.5122L130.492 95.0619L125.265 92.8808L142.554 58.7094L142.641 58.6367C142.615 59.0922 142.695 59.5475 142.874 59.9672C143.112 60.5182 143.5 60.9916 143.993 61.3341C144.599 61.7477 145.334 61.9272 146.062 61.8394C146.445 61.7981 146.817 61.6873 147.16 61.5122Z" fill="#FAB317"/>
<path opacity="0.7" d="M151.799 63.377L134.677 97.1303L136.058 97.7555L152.86 64.2458C152.632 64.2872 152.397 64.2425 152.2 64.1202C152.003 63.9979 151.859 63.8069 151.795 63.5842C151.79 63.5151 151.791 63.4457 151.799 63.377Z" fill="#FAB317"/>
<path d="M147.072 58.2556C147.037 58.2973 147.016 58.3498 147.014 58.4046C147.015 58.484 147.045 58.5604 147.098 58.6188C147.152 58.6773 147.226 58.7137 147.305 58.7209C147.563 58.7323 147.817 58.6609 148.032 58.5173C148.167 58.4377 148.275 58.3185 148.341 58.1756C148.377 58.0982 148.393 58.013 148.387 57.9278C148.382 57.8426 148.354 57.7603 148.308 57.6885C148.248 57.6141 148.173 57.5533 148.088 57.51C148.003 57.4668 147.909 57.4421 147.814 57.4376C147.603 57.4192 147.392 57.4315 147.185 57.474C146.722 57.551 146.28 57.7231 145.887 57.9793C145.782 58.0438 145.692 58.1301 145.623 58.2323C145.554 58.3345 145.508 58.4503 145.487 58.5718C145.482 58.699 145.508 58.8257 145.563 58.9404C145.618 59.0552 145.701 59.1546 145.803 59.2298C146.042 59.3671 146.306 59.4552 146.58 59.4889C146.853 59.5226 147.131 59.5013 147.396 59.4261C147.922 59.3155 148.407 59.0623 148.799 58.6943C149.191 58.3263 149.474 57.8576 149.617 57.3395C149.641 57.2249 149.639 57.1062 149.61 56.9927C149.581 56.8792 149.526 56.7739 149.45 56.6851C149.295 56.5201 149.103 56.3953 148.89 56.3216C148.506 56.1809 148.102 56.1 147.694 56.0817C147.098 56.0503 146.502 56.1393 145.942 56.3434C145.745 56.4161 145.578 56.4852 145.494 56.5324C145.411 56.5797 145.342 56.6051 145.342 56.6051C145.528 56.4873 145.725 56.3886 145.931 56.3107C146.493 56.0957 147.093 55.998 147.694 56.0235C148.111 56.0375 148.523 56.116 148.915 56.2562C149.14 56.3334 149.342 56.4645 149.504 56.6379C149.59 56.7362 149.651 56.853 149.684 56.9792C149.717 57.1053 149.72 57.2374 149.693 57.3649C149.505 58.0396 149.09 58.6286 148.518 59.0321C147.945 59.4356 147.251 59.6288 146.552 59.5788C146.266 59.564 145.99 59.4682 145.756 59.3025C145.639 59.2218 145.545 59.1128 145.481 58.9857C145.418 58.8586 145.387 58.7175 145.393 58.5755C145.415 58.4428 145.466 58.3164 145.541 58.2048C145.616 58.0932 145.714 57.999 145.829 57.9284C146.232 57.667 146.685 57.4925 147.159 57.4158C147.374 57.3755 147.593 57.3657 147.81 57.3867C147.913 57.3929 148.014 57.4211 148.106 57.4694C148.197 57.5177 148.277 57.5849 148.341 57.6666C148.391 57.747 148.421 57.8387 148.426 57.9333C148.432 58.0279 148.414 58.1225 148.374 58.2083C148.303 58.3605 148.188 58.4874 148.043 58.5718C147.822 58.7144 147.56 58.782 147.298 58.7645C147.212 58.7562 147.134 58.716 147.077 58.6519C147.02 58.5878 146.99 58.5047 146.992 58.4191C147.01 58.2846 147.072 58.2519 147.072 58.2556Z" fill="white"/>
<path d="M153.173 58.0664C153.173 58.0664 153.006 58.041 152.708 58.0664C152.283 58.0943 151.868 58.2054 151.486 58.3936C150.924 58.6816 150.398 59.0328 149.916 59.4405C149.329 59.9568 148.661 60.372 147.938 60.6693C147.193 60.9255 146.388 60.9559 145.626 60.7565C145.005 60.5926 144.435 60.278 143.965 59.8404C143.646 59.5385 143.382 59.1844 143.183 58.7935C143.108 58.6564 143.044 58.5128 142.994 58.3645C143.015 58.3983 143.033 58.4335 143.049 58.4699C143.081 58.5426 143.136 58.6481 143.209 58.7789C143.422 59.1465 143.69 59.4788 144.005 59.7641C144.471 60.1885 145.034 60.4929 145.644 60.6511C146.394 60.8394 147.182 60.8066 147.913 60.5566C148.626 60.2634 149.287 59.8557 149.868 59.3497C150.355 58.94 150.89 58.5909 151.461 58.31C151.849 58.1215 152.272 58.0162 152.704 58.001C152.862 58.0027 153.02 58.0247 153.173 58.0664Z" fill="white"/>
<path d="M153.107 61.4724C152.898 61.2611 152.621 61.132 152.325 61.1088C151.607 61.1025 150.892 61.208 150.206 61.4215C149.511 61.6088 148.834 61.8595 148.185 62.1703C147.934 62.2903 147.737 62.3957 147.599 62.4648C147.531 62.508 147.46 62.5445 147.385 62.5738C147.448 62.5243 147.515 62.4794 147.585 62.4393C147.716 62.3594 147.912 62.243 148.159 62.1194C148.805 61.7895 149.483 61.5288 150.184 61.3415C150.569 61.2361 150.96 61.1535 151.354 61.0943C151.677 61.0353 152.006 61.0219 152.332 61.0543C152.555 61.0781 152.767 61.1637 152.943 61.3015C153.006 61.3503 153.061 61.4078 153.107 61.4724Z" fill="white"/>
<path d="M148.389 63.8826C148.499 63.7676 148.621 63.6641 148.752 63.5736C149.076 63.3356 149.448 63.1718 149.843 63.0938C150.04 63.0535 150.244 63.0577 150.44 63.1061C150.635 63.1546 150.818 63.246 150.973 63.3737C151.066 63.4523 151.144 63.5472 151.202 63.6536C151.224 63.6918 151.239 63.7337 151.246 63.7772C151.162 63.6411 151.058 63.5185 150.937 63.4137C150.783 63.2977 150.606 63.216 150.418 63.174C150.23 63.132 150.035 63.1306 149.846 63.1701C149.468 63.2497 149.108 63.4029 148.789 63.6209C148.66 63.7158 148.527 63.8032 148.389 63.8826Z" fill="white"/>
<path d="M153.47 56.0124C153.454 56.0303 153.436 56.0461 153.416 56.0596C153.379 56.0851 153.325 56.1251 153.248 56.1723C153.16 56.235 153.06 56.2794 152.954 56.3032C152.811 56.3286 152.664 56.3199 152.525 56.2778C152.216 56.2087 151.871 56.0524 151.482 55.9142C151.06 55.771 150.627 55.6628 150.188 55.5907C149.382 55.4738 148.569 55.4191 147.756 55.4271H147.029C146.938 55.4363 146.847 55.4363 146.756 55.4271L147.029 55.4053L147.756 55.3798C148.572 55.3541 149.39 55.4015 150.198 55.5216C150.644 55.5921 151.082 55.704 151.507 55.8561C151.9 55.9942 152.234 56.1542 152.54 56.2196C152.653 56.2608 152.775 56.2753 152.896 56.262C153.016 56.2488 153.132 56.2082 153.234 56.1433C153.31 56.0957 153.389 56.0521 153.47 56.0124Z" fill="white"/>
<path d="M165.518 86.8818V116.658C165.525 116.715 165.552 116.768 165.596 116.806C165.639 116.844 165.694 116.865 165.752 116.865C165.81 116.865 165.865 116.844 165.908 116.806C165.952 116.768 165.979 116.715 165.987 116.658V86.8818C165.979 86.8247 165.952 86.7721 165.908 86.734C165.865 86.6958 165.81 86.6748 165.752 86.6748C165.694 86.6748 165.639 86.6958 165.596 86.734C165.552 86.7721 165.525 86.8247 165.518 86.8818Z" fill="#106FA4"/>
<path d="M167.429 110.097C167.429 110.43 167.331 110.754 167.146 111.031C166.962 111.307 166.699 111.522 166.393 111.649C166.086 111.776 165.748 111.809 165.422 111.745C165.096 111.68 164.797 111.52 164.562 111.285C164.327 111.05 164.167 110.751 164.103 110.425C164.038 110.099 164.071 109.762 164.198 109.455C164.325 109.148 164.541 108.886 164.817 108.701C165.093 108.516 165.418 108.418 165.75 108.418C166.195 108.418 166.622 108.595 166.937 108.91C167.252 109.225 167.429 109.652 167.429 110.097Z" fill="#106FA4"/>
<path d="M165.284 110.965C165.284 110.965 164.059 112.191 163.692 115.779C163.325 119.367 163.245 121.159 163.245 121.159L166.546 121.362V118.796C166.546 118.916 167.2 120.712 167.2 120.712L169.81 119.854C169.81 119.854 168.883 110.315 165.284 110.965Z" fill="#106FA4"/>
<path d="M148.116 89.3184H92.0605V109.527H148.116V89.3184Z" fill="#263238"/>
<path d="M167.805 85.8428H71.9248V89.3217H167.805V85.8428Z" fill="#263238"/>
<path opacity="0.3" d="M92.0605 103.794C92.0605 103.794 109.088 97.6866 120.088 95.4327C131.089 93.1788 148.116 93.9277 148.116 93.9277V89.3291H92.0605V103.794Z" fill="black"/>
<path opacity="0.3" d="M106.605 85.8428H71.9248V89.3217H106.605V85.8428Z" fill="black"/>
<path d="M167.11 89.3289C167.11 89.3834 145.789 89.427 119.488 89.427C93.187 89.427 71.8662 89.3834 71.8662 89.3289C71.8662 89.2744 93.1797 89.2344 119.488 89.2344C145.796 89.2344 167.11 89.2671 167.11 89.3289Z" fill="#455A64"/>
<path d="M106.55 89.3469C106.419 88.1728 106.419 86.9877 106.55 85.8135C106.676 86.9879 106.676 88.1725 106.55 89.3469Z" fill="#455A64"/>
<path d="M114.544 109.53C114.493 109.53 114.449 105.586 114.449 100.722C114.449 95.8576 114.493 91.917 114.544 91.917C114.595 91.917 114.642 95.8576 114.642 100.722C114.642 105.586 114.598 109.53 114.544 109.53Z" fill="#455A64"/>
<path d="M33.4525 134.347L39.8978 131.745L44.82 118.887L51.3816 122.267C51.3816 122.267 50.7491 123.536 49.3931 126.681C48.866 127.891 47.132 131.276 46.4267 132.922C45.7741 134.445 44.6991 135.749 43.3288 136.68C41.9586 137.611 40.3505 138.13 38.6946 138.175L32.6455 138.332L33.4525 134.347Z" fill="#FFBF9D"/>
<path d="M30.2498 131.861L29.2901 130.836C29.1036 130.714 28.8841 130.651 28.6612 130.658L25.5785 130.752C25.2907 130.78 25.0129 130.872 24.7655 131.022C24.5182 131.172 24.3078 131.375 24.1498 131.617L23.0265 133.526C23.0265 133.526 22.274 134.831 22.3686 135.151C22.4106 135.284 22.5004 135.396 22.6206 135.467C22.7408 135.537 22.8828 135.561 23.0193 135.533C23.0193 135.533 23.1283 136.136 23.3283 136.26C23.444 136.318 23.5704 136.352 23.6997 136.36C23.829 136.368 23.9586 136.35 24.0808 136.307C24.1338 136.421 24.2201 136.517 24.3283 136.582C24.4366 136.647 24.5619 136.678 24.6879 136.67C24.7419 136.665 24.7954 136.656 24.8478 136.641C25.2113 136.529 25.3786 135.82 25.3786 135.82L26.9417 135.533C26.9417 135.533 29.1883 137.034 29.9808 138.015C30.7733 138.997 32.8454 138.248 32.8454 138.248L33.6197 134.54L30.2498 131.861Z" fill="#FFBF9D"/>
<path d="M27.9775 132.301C27.7582 132.369 27.5308 132.407 27.3013 132.414C26.876 132.461 26.2762 132.479 25.5964 132.566L25.6691 132.512C25.5522 132.763 25.4186 133.006 25.2692 133.239C24.8587 133.89 24.3595 134.481 23.786 134.995C23.5607 135.221 23.299 135.408 23.0117 135.547C23.0117 135.522 23.2844 135.304 23.6915 134.893C24.2261 134.361 24.7004 133.773 25.1056 133.137C25.2547 132.893 25.3892 132.653 25.5019 132.41L25.5237 132.363H25.5746C26.2689 132.286 26.8687 132.294 27.294 132.279C27.522 132.263 27.751 132.27 27.9775 132.301Z" fill="#FF9A6C"/>
<path d="M28.0467 133.774C27.8648 133.862 27.6671 133.914 27.465 133.926C26.963 133.996 26.4527 133.979 25.9564 133.875L26.0691 133.814C26.0037 134.004 25.9285 134.191 25.8437 134.373C25.5626 134.953 25.1684 135.471 24.6841 135.897C24.495 136.084 24.27 136.231 24.0225 136.329C24.2019 136.141 24.3912 135.963 24.5896 135.795C25.0377 135.359 25.4067 134.848 25.6801 134.286C25.7642 134.112 25.8382 133.934 25.9019 133.752L25.931 133.672H26.0109C26.6818 133.797 27.3666 133.832 28.0467 133.774Z" fill="#FF9A6C"/>
<path d="M31.9649 134.533L29.213 133.253C28.8437 133.048 28.4347 132.924 28.0134 132.89C27.5628 132.929 27.128 133.075 26.7447 133.315L25.2615 134.078C25.1815 134.122 25.0943 134.173 25.0688 134.257C25.0434 134.34 25.1125 134.486 25.1961 134.569C25.5789 134.931 26.08 135.143 26.6066 135.164C27.1332 135.185 27.6497 135.015 28.0606 134.685C28.2615 135.341 28.5752 135.956 28.9876 136.503C29.1985 136.777 29.4766 136.993 29.795 137.128C30.1133 137.264 30.4613 137.315 30.8053 137.277" fill="#FFBF9D"/>
<path d="M30.7982 137.314C30.7753 137.325 30.7508 137.332 30.7255 137.336C30.6517 137.354 30.5761 137.364 30.5001 137.365C30.2113 137.366 29.9267 137.296 29.6713 137.161C29.2756 136.954 28.9401 136.649 28.697 136.274C28.3953 135.793 28.1513 135.278 27.97 134.74L28.1081 134.773C27.8873 134.958 27.6319 135.098 27.3568 135.184C27.0816 135.27 26.7921 135.301 26.505 135.274C26.1928 135.253 25.8884 135.168 25.6107 135.024C25.4685 134.948 25.3355 134.857 25.2145 134.751C25.1489 134.697 25.0891 134.636 25.0363 134.569C25.0021 134.528 24.9774 134.479 24.9642 134.427C24.951 134.375 24.9496 134.32 24.96 134.267C24.9718 134.224 24.9924 134.184 25.0206 134.149C25.0487 134.114 25.0838 134.085 25.1236 134.064C25.189 134.024 25.2435 133.998 25.3017 133.966L25.6434 133.791L26.3159 133.428C26.7337 133.183 27.1791 132.989 27.6428 132.85C28.088 132.769 28.5471 132.84 28.9479 133.05C29.3114 133.217 29.6749 133.384 29.9657 133.533L31.4198 134.26C31.6025 134.342 31.7787 134.438 31.9469 134.547C31.7546 134.49 31.5673 134.417 31.3871 134.329L29.8967 133.671L28.8715 133.213C28.502 133.024 28.0796 132.964 27.6719 133.042C27.2246 133.182 26.7952 133.374 26.3923 133.613L25.7234 133.977L25.3817 134.155C25.2653 134.213 25.1417 134.271 25.1345 134.329C25.1272 134.387 25.2181 134.529 25.3308 134.62C25.4418 134.716 25.5638 134.799 25.6943 134.867C25.9485 134.999 26.2267 135.078 26.5122 135.1C27.0434 135.152 27.5735 134.992 27.9881 134.656L28.0827 134.576L28.1227 134.693C28.2921 135.222 28.5201 135.73 28.8024 136.209C29.025 136.571 29.3349 136.873 29.704 137.085C30.0394 137.264 30.4191 137.343 30.7982 137.314Z" fill="#FF9A6C"/>
<path d="M67.7511 98.515C67.7766 96.4502 68.1146 94.3927 68.0201 92.3351C67.9256 90.2776 67.3985 88.1218 65.9589 86.6423C64.5194 85.1628 62.0074 84.6029 60.3352 85.7844L59.9717 87.5438C60.6333 95.5051 60.5461 103.593 61.2077 111.555C61.2949 112.602 62.1419 113.55 62.6181 114.485C63.0944 115.419 64.0504 116.193 65.0974 116.128C66.4679 116.044 67.3658 114.656 67.7911 113.347C69.3543 108.617 67.6893 103.506 67.7511 98.515Z" fill="#263238"/>
<path d="M62.7848 87.8097C62.5091 87.2851 62.1548 86.8058 61.7342 86.3883C61.5221 86.1807 61.2657 86.0238 60.9843 85.9293C60.7029 85.8349 60.4037 85.8054 60.1093 85.843C59.9706 85.8603 59.8386 85.9127 59.726 85.9955C59.6133 86.0782 59.5238 86.1884 59.4658 86.3156C59.3749 86.5773 59.5713 86.93 59.8475 86.9045L59.9057 86.9554C60.5237 87.5031 61.1526 88.0375 61.7924 88.5586C61.9451 88.701 62.1241 88.8121 62.3195 88.8857C62.4177 88.9215 62.5241 88.9289 62.6263 88.9071C62.7285 88.8852 62.8225 88.835 62.8975 88.7621C63.1265 88.5077 62.9593 88.1041 62.7848 87.8097Z" fill="#106FA4"/>
<path d="M63.9521 89.8376C61.8946 87.322 59.1318 85.8715 55.8818 85.8388C54.0642 85.8061 53.2899 86.2023 51.9703 86.5441C50.649 86.8631 49.4811 87.6348 48.6695 88.7252C47.7352 90.0521 46.95 91.5389 46.7719 93.1566C46.539 94.8094 46.4599 96.4803 46.5356 98.1478C46.6119 99.8234 47.1504 101.445 48.0915 102.834L52.3229 103.561C54.6604 103.641 57.0306 103.717 59.3099 103.197C61.5892 102.677 63.7994 101.438 65.0172 99.4419C66.7113 96.6501 66.006 92.3496 63.9521 89.8376Z" fill="#263238"/>
<path d="M60.1896 89.8084L54.5477 87.5654L53.0718 87.7363C49.7565 87.7363 47.4663 91.4079 47.4444 94.0907C47.4226 97.0789 47.5099 100.721 47.9825 102.921C48.9385 107.345 52.7083 107.712 52.7083 107.712C52.7083 107.712 52.632 110.071 52.6029 111.554L61.2439 110.933L61.6765 91.3243C61.6634 90.9314 61.5034 90.5577 61.2281 90.277C60.9528 89.9963 60.5822 89.8291 60.1896 89.8084Z" fill="#FFBF9D"/>
<path d="M54.6164 101.885C54.5815 101.659 54.4651 101.453 54.2892 101.307C54.1292 101.169 53.9283 101.087 53.7174 101.075C53.5066 101.062 53.2975 101.12 53.1223 101.238C52.9405 101.378 52.7992 101.564 52.713 101.776C52.6267 101.989 52.5986 102.221 52.6315 102.448C52.7287 102.585 52.8539 102.699 52.9987 102.783C53.1435 102.867 53.3047 102.919 53.4713 102.935C53.5233 102.939 53.5755 102.939 53.6276 102.935C53.8973 102.941 54.1584 102.84 54.3546 102.655C54.4534 102.555 54.5282 102.433 54.5735 102.3C54.6188 102.166 54.6334 102.025 54.6164 101.885Z" fill="#FF9A6C"/>
<path d="M48.9385 97.8684C48.9442 98.0178 49.0083 98.1591 49.1171 98.2617C49.2258 98.3644 49.3706 98.4203 49.5201 98.4173C49.5933 98.4187 49.666 98.4056 49.7341 98.3787C49.8021 98.3518 49.8642 98.3117 49.9166 98.2606C49.969 98.2096 50.0108 98.1486 50.0394 98.0813C50.0681 98.0139 50.0831 97.9415 50.0836 97.8684C50.0761 97.7189 50.0109 97.5782 49.9017 97.4758C49.7926 97.3734 49.6479 97.3174 49.4983 97.3194C49.4253 97.318 49.3528 97.3311 49.2849 97.3581C49.217 97.385 49.1552 97.4252 49.1031 97.4763C49.051 97.5274 49.0095 97.5884 48.9813 97.6557C48.953 97.7231 48.9385 97.7953 48.9385 97.8684Z" fill="#263238"/>
<path d="M48.4545 95.5848C48.5272 95.6539 48.9453 95.3122 49.5451 95.2794C50.1449 95.2467 50.6357 95.5303 50.6938 95.4503C50.752 95.3703 50.6429 95.2831 50.4394 95.1522C50.1627 94.9822 49.8401 94.9022 49.516 94.9232C49.1959 94.939 48.8891 95.0561 48.6399 95.2576C48.4727 95.414 48.4145 95.5521 48.4545 95.5848Z" fill="#263238"/>
<path d="M52.4102 100.416C52.0804 100.33 51.7406 100.287 51.3996 100.289C51.2433 100.289 51.0906 100.26 51.0579 100.151C51.0382 99.9902 51.066 99.8272 51.1379 99.682C51.2651 99.293 51.3996 98.8859 51.5378 98.4569C52.0903 96.7193 52.4829 95.2906 52.4102 95.2688C52.3375 95.247 51.8359 96.6393 51.2833 98.3806L50.9198 99.6093C50.8303 99.8042 50.8135 100.025 50.8725 100.231C50.8977 100.285 50.9351 100.333 50.9818 100.37C51.0285 100.407 51.0831 100.433 51.1415 100.445C51.2299 100.464 51.3203 100.472 51.4105 100.467C51.7446 100.49 52.0802 100.473 52.4102 100.416Z" fill="#263238"/>
<path d="M52.7005 107.708C54.8038 107.625 56.8426 106.959 58.5896 105.785C58.5896 105.785 57.1682 108.966 52.6787 108.795L52.7005 107.708Z" fill="#FF9A6C"/>
<path d="M54.2462 100.74C54.148 100.74 54.1807 101.409 53.6355 101.914C53.0902 102.42 52.374 102.387 52.374 102.482C52.374 102.576 52.5412 102.602 52.8393 102.594C53.2325 102.579 53.6074 102.424 53.8972 102.158C54.1746 101.904 54.3427 101.552 54.3661 101.177C54.3734 100.897 54.2934 100.737 54.2462 100.74Z" fill="#263238"/>
<path d="M48.6617 93.4298C48.7744 93.5716 49.2397 93.448 49.7923 93.4625C50.3449 93.477 50.8102 93.597 50.9265 93.4625C50.9774 93.3934 50.9083 93.2517 50.7084 93.099C50.438 92.9233 50.122 92.831 49.7996 92.8336C49.4771 92.8249 49.159 92.9095 48.8835 93.0772C48.6836 93.2153 48.6145 93.3571 48.6617 93.4298Z" fill="#263238"/>
<path d="M55.6599 97.7155C55.6629 97.8648 55.6077 98.0094 55.5059 98.1187C55.4041 98.228 55.2637 98.2933 55.1146 98.3008C55.0419 98.3078 54.9685 98.3002 54.8988 98.2784C54.8291 98.2567 54.7644 98.2213 54.7085 98.1742C54.6526 98.1271 54.6067 98.0694 54.5735 98.0044C54.5402 97.9394 54.5202 97.8683 54.5148 97.7955C54.5117 97.6464 54.5663 97.5019 54.6672 97.3922C54.7682 97.2824 54.9076 97.2159 55.0564 97.2066C55.1296 97.1996 55.2035 97.2073 55.2736 97.2292C55.3438 97.2512 55.4089 97.2869 55.4651 97.3343C55.5213 97.3817 55.5675 97.4398 55.6009 97.5053C55.6344 97.5707 55.6544 97.6422 55.6599 97.7155Z" fill="#263238"/>
<path d="M56.7865 95.3447C56.7174 95.421 56.2776 95.1084 55.6596 95.1193C55.0416 95.1302 54.5981 95.4501 54.529 95.3738C54.4599 95.2974 54.5654 95.2066 54.7617 95.0575C55.0243 94.8682 55.3394 94.7652 55.6632 94.7631C55.9839 94.7559 56.2985 94.8515 56.5611 95.0357C56.7538 95.1775 56.8229 95.312 56.7865 95.3447Z" fill="#263238"/>
<path d="M56.4162 93.3748C56.2999 93.5166 55.82 93.3748 55.2493 93.3748C54.6785 93.3748 54.1914 93.4875 54.0787 93.3421C54.0278 93.2731 54.1042 93.1313 54.3114 92.9786C54.5987 92.8103 54.9274 92.726 55.2602 92.735C55.5907 92.7313 55.9152 92.8234 56.1944 93.0004C56.4016 93.1604 56.4707 93.3058 56.4162 93.3748Z" fill="#263238"/>
<path d="M60.916 98.8204C60.916 98.4896 61.2396 97.6862 61.5667 97.6171C62.4355 97.4318 64.0169 97.4136 64.155 99.6383C64.3441 102.681 61.2468 102.241 61.2468 102.154C61.2468 102.067 60.9705 99.9692 60.916 98.8204Z" fill="#FFBF9D"/>
<path d="M62.0068 100.991C62.0068 100.991 62.0614 101.027 62.1522 101.06C62.2804 101.112 62.4239 101.112 62.5521 101.06C62.8648 100.922 63.1047 100.395 63.0865 99.8456C63.0776 99.5845 63.0105 99.3286 62.8902 99.0967C62.8561 99.0031 62.7994 98.9193 62.7253 98.8527C62.6511 98.7861 62.5617 98.7388 62.4649 98.715C62.4034 98.7029 62.3396 98.7126 62.2845 98.7424C62.2295 98.7723 62.1865 98.8205 62.1631 98.8786C62.1268 98.9658 62.1632 99.0276 62.1341 99.0313C62.105 99.0349 62.065 98.984 62.0832 98.8568C62.0952 98.7805 62.1339 98.711 62.1922 98.6605C62.2311 98.626 62.2767 98.5998 62.3261 98.5836C62.3755 98.5673 62.4276 98.5613 62.4794 98.566C62.6061 98.5812 62.7266 98.6296 62.8287 98.7062C62.9308 98.7827 63.0109 98.8848 63.0611 99.0022C63.2063 99.2577 63.2873 99.5446 63.2974 99.8383C63.3155 100.453 63.0356 101.045 62.6067 101.198C62.5265 101.227 62.4408 101.238 62.3559 101.23C62.2711 101.221 62.1891 101.194 62.1159 101.151C62.0068 101.067 62.0068 100.998 62.0068 100.991Z" fill="#FF9A6C"/>
<path d="M61.6837 97.6243L60.9167 98.4168C57.5795 95.2214 51.0579 87.2238 51.425 87.7C52.9461 87.1347 54.585 86.9609 56.1908 87.1947C58.6737 87.6164 63.3777 88.8597 63.305 91.7861C63.2323 94.7124 61.6837 97.6243 61.6837 97.6243Z" fill="#263238"/>
<path d="M66.1036 96.9625C66.0937 96.9029 66.0779 96.8445 66.0563 96.788C66.0009 96.6225 65.9316 96.462 65.8491 96.3082C65.5341 95.745 65.0999 95.2574 64.5768 94.8795C63.8056 94.3257 62.9448 93.9088 62.0321 93.6472C61.0142 93.3164 59.8691 93.0583 58.7422 92.5566C57.6795 92.1138 56.6718 91.549 55.7395 90.8735C54.977 90.3213 54.2664 89.7007 53.6165 89.0195C53.1805 88.5588 52.7715 88.0732 52.3914 87.5654L52.0861 87.1437C52.052 87.0928 52.013 87.0453 51.9697 87.002C51.9952 87.0579 52.0256 87.1114 52.0606 87.1619C52.1224 87.2637 52.2133 87.4127 52.3405 87.5981C52.7045 88.1241 53.1041 88.6246 53.5365 89.0959C54.9714 90.656 56.7276 91.8863 58.684 92.702C59.7669 93.1124 60.8698 93.4679 61.9885 93.7672C62.8972 94.0148 63.7575 94.4143 64.5332 94.9486C65.0507 95.3123 65.4875 95.7788 65.8164 96.3191C66.0054 96.7154 66.0854 96.9625 66.1036 96.9625Z" fill="#455A64"/>
<path d="M65.2173 97.432C65.2273 97.2044 65.1876 96.9774 65.101 96.7667C64.8714 96.1853 64.4725 95.6863 63.9559 95.3344C63.1828 94.8364 62.3174 94.4989 61.4112 94.342C60.3269 94.1247 59.2699 93.7882 58.2595 93.3387C57.2533 92.8796 56.3081 92.2971 55.4458 91.6047C54.7442 91.0367 54.099 90.4024 53.5191 89.7107C53.1241 89.2415 52.7598 88.7473 52.4285 88.2312L52.1704 87.8058C52.1438 87.7547 52.1108 87.707 52.0723 87.6641C52.0925 87.7179 52.1168 87.7702 52.145 87.8204L52.3776 88.2639C52.687 88.7937 53.0345 89.3003 53.4173 89.7798C53.9903 90.4898 54.6347 91.139 55.3404 91.7174C56.2078 92.4236 57.1619 93.0161 58.1795 93.4805C59.1989 93.9353 60.2675 94.2708 61.364 94.4802C62.2538 94.6284 63.1059 94.9495 63.8723 95.4253C64.3791 95.7589 64.7782 96.2325 65.021 96.7885C65.1061 96.9965 65.1718 97.2119 65.2173 97.432Z" fill="#455A64"/>
<path d="M61.582 102.779C61.582 102.757 61.8401 102.725 62.2909 102.605C62.9229 102.422 63.5048 102.098 63.9922 101.656C64.7062 100.988 65.2486 100.157 65.5735 99.2349C65.9887 98.1108 66.2124 96.925 66.2352 95.7269C66.2489 95.1078 66.199 94.489 66.0861 93.8802C65.7811 92.3488 65.0619 90.9305 64.0067 89.7796C63.3863 89.1208 62.702 88.5253 61.9637 88.002C61.9637 88.002 62.0255 88.0238 62.1346 88.0892C62.2436 88.1546 62.4 88.2419 62.5926 88.38C63.1448 88.7588 63.6543 89.1964 64.1122 89.6851C64.7978 90.4092 65.3526 91.2468 65.7517 92.1607C65.9831 92.7027 66.1596 93.2666 66.2788 93.8438C66.3957 94.4656 66.4481 95.0979 66.4351 95.7305C66.4133 96.9511 66.1808 98.1588 65.748 99.3003C65.4039 100.244 64.8335 101.089 64.0867 101.761C63.577 102.205 62.9688 102.52 62.3127 102.681C62.1342 102.722 61.9533 102.751 61.7711 102.768C61.7084 102.777 61.6452 102.781 61.582 102.779Z" fill="#455A64"/>
<path d="M65.4528 140.189L47.4656 142.803C40.7076 144.715 33.5898 145.275 26.1484 144.621L53.2202 157.25L64.0896 157.417C64.0896 157.417 67.3977 157.417 67.9757 154.531C68.5537 151.644 69.1971 142.854 69.1971 142.854C69.1971 142.854 67.0487 140.993 65.4528 140.189Z" fill="#263238"/>
<g opacity="0.3">
<path d="M65.3985 147.762C65.6959 149.563 65.8031 151.391 65.7184 153.215C66.2709 152.608 66.6778 151.884 66.9084 151.097C67.1389 150.309 67.187 149.48 67.0489 148.671C66.8926 147.784 66.5218 146.806 66.9871 146.032C67.2997 145.512 68.1249 144.916 68.0049 144.323C68.0049 144.323 67.2779 144.323 66.6272 144.298C66.1001 144.276 65.0059 144.243 65.0059 144.243C65.4767 145.374 65.5784 146.625 65.2967 147.817" fill="black"/>
</g>
<path d="M52.6315 110.813L61.3706 109.868L62.9701 111.322L56.732 114.994L53.9801 116.419L51.261 115.594L50.3994 113.972L52.6315 110.813Z" fill="#FFBF9D"/>
<path d="M40.8496 121.454C40.8496 121.454 43.5906 116.197 44.2667 115.048C45.4228 113.089 47.5821 111.98 47.5821 111.98L52.6315 110.813C52.6315 110.813 52.108 113.358 55.2488 113.518C59.2476 113.74 61.7305 109.908 61.7305 109.908C61.7305 109.908 66.2891 110.377 67.5469 110.904C68.8047 111.431 72.3673 112.925 72.8907 117.659L74.1122 125.391L64.4788 126.118L64.6096 136.413L60.5163 139.761C60.5163 139.761 48.7636 143.807 48.0111 144.072C47.6475 144.2 47.742 139.205 46.9023 134.922L45.3173 131.073C44.6757 129.535 44.2961 127.901 44.194 126.238C44.1322 125.147 44.1613 124.311 44.1613 124.311C44.1613 124.311 41.6894 123.464 40.8496 121.454Z" fill="#FAB317"/>
<path d="M48.4405 140.037L64.5919 135.192L64.4793 126.125L72.7022 125.5C72.7022 125.5 72.0478 130.197 71.9497 132.603C71.8116 136.068 70.1321 140.91 69.0415 141.935C67.9509 142.96 48.0225 144.08 48.0225 144.08L48.4405 140.037Z" fill="#FFBF9D"/>
<path d="M39.2798 142.887C39.3577 143.02 39.4814 143.121 39.6279 143.169C39.7744 143.218 39.9336 143.212 40.0759 143.152C40.4394 143.007 40.3413 142.273 40.3413 142.273L42.0607 141.851C42.0607 141.851 44.4346 143.138 45.3325 144.032C46.2304 144.926 48.2043 143.992 48.2043 143.992L48.6151 140.222L45.1871 137.572C45.1871 137.572 45.3979 137.732 45.1325 137.209C44.8672 136.685 43.8784 136.969 43.8784 136.969C43.7039 136.711 43.0386 136.667 43.0386 136.667L40.2504 137.209C39.9675 137.264 39.7004 137.381 39.469 137.553C39.2375 137.725 39.0474 137.946 38.9126 138.201L37.8693 140.175C37.8693 140.175 37.3458 141.578 37.4731 141.887C37.5279 142.015 37.6278 142.118 37.7538 142.177C37.8799 142.236 38.0232 142.247 38.1565 142.207C38.1565 142.207 38.3637 143.087 38.6 143.098C38.8387 143.068 39.0695 142.993 39.2798 142.876V142.887Z" fill="#FFBF9D"/>
<path d="M45.0558 139.761C45.0558 139.79 44.6922 139.782 44.0815 139.855C43.3038 139.954 42.5432 140.158 41.8204 140.462C41.4235 140.632 41.0407 140.832 40.6753 141.062C40.3518 141.276 40.01 141.462 39.9192 141.72C39.8995 141.775 39.8946 141.835 39.9048 141.893C39.915 141.951 39.94 142.005 39.9773 142.051C40.0348 142.126 40.1132 142.183 40.2027 142.214C40.3554 142.262 40.4463 142.214 40.4535 142.214C40.4608 142.214 40.3699 142.298 40.1845 142.265C40.0748 142.241 39.9755 142.182 39.901 142.098C39.8475 142.04 39.8099 141.97 39.7921 141.893C39.7742 141.817 39.7767 141.737 39.7992 141.662C39.8612 141.492 39.9727 141.345 40.1191 141.24C40.2645 141.127 40.4172 141.015 40.588 140.902C41.6295 140.22 42.8259 139.811 44.067 139.713C44.397 139.676 44.7309 139.691 45.0558 139.761Z" fill="#FF9A6C"/>
<path d="M45.394 141.538C45.394 141.589 44.2453 141.633 42.8494 141.822C41.4534 142.011 40.3338 142.273 40.3047 142.222C40.5354 142.111 40.7799 142.031 41.0317 141.986C41.6209 141.837 42.218 141.723 42.8203 141.644C43.423 141.562 44.0298 141.515 44.6379 141.502C44.8904 141.48 45.1448 141.492 45.394 141.538Z" fill="#FF9A6C"/>
<path d="M39.2901 142.815C39.2606 142.719 39.2411 142.62 39.2319 142.52C39.1945 142.247 39.1726 141.971 39.1665 141.695C39.1633 141.503 39.1755 141.311 39.2029 141.121C39.2365 140.897 39.3144 140.682 39.4319 140.488C39.6737 140.04 40.0024 139.644 40.3989 139.325C40.791 139.004 41.2267 138.741 41.693 138.543C42.0795 138.4 42.4826 138.306 42.8926 138.263C43.2562 138.223 43.5179 138.212 43.7142 138.201C43.8142 138.187 43.9159 138.187 44.0159 138.201C43.6564 138.284 43.2922 138.344 42.9254 138.383C42.5298 138.441 42.142 138.544 41.7694 138.689C41.3221 138.888 40.9039 139.147 40.5261 139.459C40.1493 139.762 39.8314 140.132 39.5882 140.55C39.3941 140.894 39.2974 141.285 39.3083 141.68C39.2792 142.382 39.3301 142.815 39.2901 142.815Z" fill="#FF9A6C"/>
<path d="M42.958 137.401C42.958 137.431 42.5399 137.474 41.8674 137.601C41.1949 137.729 40.1952 137.878 39.6862 138.816C39.1668 139.527 38.7472 140.306 38.4393 141.131C38.3434 141.482 38.2813 141.841 38.2539 142.204C38.22 142.108 38.2064 142.007 38.214 141.906C38.2074 141.632 38.2417 141.359 38.3157 141.095C38.5924 140.241 39.0048 139.437 39.5372 138.714C39.6786 138.495 39.8486 138.296 40.0425 138.121C40.2295 137.961 40.4454 137.837 40.6787 137.758C41.0609 137.625 41.4555 137.531 41.8565 137.478C42.219 137.406 42.5891 137.381 42.958 137.401Z" fill="#FF9A6C"/>
<path d="M44.6564 143.494C44.5934 143.461 44.5338 143.422 44.4782 143.378L43.9802 143.04C43.3526 142.626 42.7021 142.249 42.0317 141.909H42.0717L40.3559 142.342L40.4104 142.262C40.4268 142.404 40.4268 142.548 40.4104 142.691C40.3997 142.848 40.3427 142.998 40.2468 143.123C40.1872 143.186 40.1098 143.229 40.025 143.247C39.9469 143.274 39.8641 143.285 39.7815 143.279C39.6108 143.267 39.4499 143.195 39.3271 143.076C39.2973 143.045 39.2694 143.012 39.2435 142.978V142.952L39.3453 142.981L39.2907 143.007C39.2201 143.044 39.1472 143.077 39.0726 143.105C38.9966 143.135 38.9189 143.16 38.84 143.181C38.7984 143.194 38.7558 143.202 38.7127 143.207C38.6576 143.216 38.601 143.21 38.5491 143.189C38.4661 143.136 38.4004 143.06 38.3601 142.97C38.3198 142.895 38.2846 142.818 38.2547 142.738C38.1936 142.58 38.1438 142.419 38.1056 142.254L38.2111 142.316C38.0952 142.352 37.9718 142.355 37.8544 142.324C37.737 142.294 37.6302 142.232 37.5458 142.145C37.458 142.052 37.4065 141.931 37.4004 141.804C37.4001 141.689 37.4111 141.574 37.4331 141.462C37.5304 141.024 37.6591 140.594 37.8185 140.175L38.3746 139.121L38.7382 138.455C38.8459 138.225 38.9775 138.007 39.1308 137.805C39.2974 137.61 39.5013 137.451 39.7306 137.336C39.9542 137.233 40.1919 137.164 40.4358 137.132L43.0605 136.627H43.0823C43.2437 136.639 43.4033 136.668 43.5585 136.714C43.7233 136.751 43.8722 136.838 43.9838 136.965L43.8821 136.943C44.0206 136.867 44.1755 136.825 44.3338 136.821C44.492 136.817 44.6488 136.852 44.7909 136.921C45.0364 137.077 45.2153 137.318 45.2925 137.598L45.2671 137.565L47.63 139.382L48.2662 139.884C48.3428 139.94 48.4146 140.002 48.4806 140.07C48.3971 140.026 48.318 139.975 48.2444 139.917L47.5864 139.441L45.1871 137.674H45.1689V137.648C45.1013 137.405 44.9442 137.196 44.7291 137.063C44.6092 137.006 44.4772 136.978 44.3442 136.982C44.2113 136.987 44.0814 137.023 43.9657 137.089L43.9039 137.118L43.8639 137.067C43.7714 136.971 43.6524 136.905 43.5222 136.878C43.3772 136.838 43.2287 136.812 43.0787 136.801H43.1005L40.4758 137.318C40.2467 137.347 40.0235 137.412 39.8142 137.51C39.6079 137.613 39.4247 137.756 39.2762 137.932C39.133 138.126 39.0111 138.334 38.9127 138.554L38.5491 139.219C38.3565 139.582 38.1856 139.946 37.9929 140.273C37.843 140.684 37.7215 141.104 37.6294 141.531C37.6085 141.63 37.5976 141.731 37.5967 141.833C37.6016 141.92 37.6377 142.003 37.6985 142.065C37.761 142.128 37.8393 142.172 37.925 142.194C38.0108 142.216 38.1008 142.214 38.1856 142.189L38.2729 142.167V142.251C38.3128 142.407 38.3601 142.567 38.4146 142.716C38.4545 142.852 38.5269 142.977 38.6255 143.08C38.6492 143.087 38.6745 143.087 38.6982 143.08L38.8036 143.058C38.8771 143.041 38.9489 143.018 39.0181 142.989C39.0872 142.963 39.1562 142.93 39.2253 142.898L39.2762 142.876L39.3816 142.905V142.923C39.4014 142.951 39.4233 142.978 39.447 143.003C39.5148 143.075 39.6018 143.127 39.6977 143.151C39.7937 143.176 39.8946 143.172 39.9887 143.141C40.0467 143.131 40.1002 143.103 40.1414 143.061C40.2695 142.842 40.3171 142.585 40.2759 142.334V142.269H40.334L42.0572 141.862H42.079C42.7489 142.211 43.3939 142.605 44.0093 143.043C44.2238 143.199 44.3728 143.323 44.4928 143.407C44.5493 143.432 44.604 143.461 44.6564 143.494Z" fill="#FF9A6C"/>
<path d="M36.2585 145.828C36.2585 145.828 24.8619 142.247 21.2849 141.102C15.1049 139.103 11.0843 141.124 9.81199 143.327C8.16159 146.188 12.1204 151.768 13.6472 153.051C18.1658 156.85 25.9125 157.362 25.9125 157.362L53.7658 157.312L45.6483 146.268L36.2585 145.828Z" fill="#263238"/>
<path d="M37.9667 150.998C33.3253 151.538 28.6226 150.898 24.2945 149.136C23.5561 148.803 22.7958 148.52 22.0189 148.289C21.2508 148.096 20.4546 148.039 19.6668 148.122C19.3542 148.13 19.0464 148.201 18.7616 148.33C18.4768 148.459 18.221 148.644 18.0092 148.875C17.453 149.602 17.7365 150.649 18.0455 151.514C18.409 152.532 18.7726 153.571 19.4996 154.386C20.3248 155.334 21.5245 155.88 22.7277 156.258C25.0797 156.985 27.5626 157.214 30.0273 157.308L38.4902 156.847L37.9667 150.998Z" fill="#E0E0E0"/>
<path d="M21.6225 148.293C21.6781 148.361 21.7212 148.439 21.7497 148.522C21.848 148.739 21.9236 148.966 21.9751 149.198C22.1578 149.972 22.1257 150.78 21.8823 151.537C21.6388 152.294 21.1933 152.97 20.5937 153.491C20.4152 153.648 20.223 153.788 20.0193 153.909C19.8703 153.993 19.7867 154.029 19.7794 154.018C19.7722 154.008 20.0848 153.808 20.5065 153.397C21.0597 152.868 21.4722 152.209 21.7064 151.48C21.9407 150.752 21.9893 149.976 21.8479 149.224C21.7461 148.642 21.5934 148.304 21.6225 148.293Z" fill="#263238"/>
<path d="M65.3477 145.13C64.6861 143.254 64.5771 140.499 60.4947 139.176C56.4123 137.852 53.3296 140.39 51.2321 141.269C49.1345 142.149 37.6726 148.438 37.6726 148.438C37.6726 148.438 35.5132 152.288 36.1276 153.989C36.7419 155.691 39.5338 157.37 39.5338 157.37H52.3554C55.6634 157.37 61.807 157.257 61.807 157.257C62.6296 155.909 63.3666 154.51 64.0136 153.07L64.1227 152.517C64.1336 152.077 66.0057 147.006 65.3477 145.13Z" fill="#263238"/>
<path d="M58.2446 154.868C58.2279 154.933 58.1955 154.993 58.15 155.043C58.0257 155.187 57.8841 155.315 57.7283 155.425C57.1559 155.819 56.5473 156.159 55.9107 156.439C55.4759 156.641 55.0292 156.817 54.573 156.966C54.0448 157.132 53.5037 157.254 52.9553 157.329C51.704 157.454 50.4463 157.502 49.1891 157.475C46.5245 157.518 44.0998 157.62 42.3549 157.598C41.4788 157.598 40.7699 157.558 40.2828 157.507C40.0948 157.491 39.908 157.464 39.7229 157.428C39.6574 157.42 39.5928 157.405 39.5303 157.384C39.5303 157.366 39.7993 157.413 40.2864 157.438C40.7735 157.464 41.4824 157.482 42.3549 157.475C44.1034 157.475 46.5172 157.34 49.1891 157.297C50.4399 157.324 51.6912 157.28 52.9371 157.166C53.4758 157.1 54.0082 156.99 54.5293 156.839C54.9826 156.699 55.427 156.531 55.8598 156.337C56.492 156.071 57.1001 155.751 57.6775 155.381C57.8345 155.276 57.9795 155.154 58.1101 155.017C58.2118 154.93 58.2336 154.865 58.2446 154.868Z" fill="#263238"/>
<path d="M39.5342 157.369L39.3633 157.279C39.2543 157.217 39.0943 157.115 38.8871 156.98C38.2842 156.587 37.7195 156.138 37.2003 155.639C36.8243 155.278 36.5033 154.864 36.2479 154.41C35.9868 153.842 35.9204 153.203 36.0589 152.593C36.3706 151.131 36.8935 149.723 37.6111 148.412V148.394C39.7123 147.238 42.1225 145.926 44.7544 144.512C46.0704 143.806 47.4408 143.076 48.8659 142.33C49.5929 141.967 50.32 141.603 51.047 141.24C51.7741 140.876 52.5193 140.513 53.2718 140.12C54.3114 139.551 55.4264 139.131 56.5835 138.873C57.1519 138.76 57.7307 138.707 58.3103 138.717C58.8773 138.734 59.4406 138.815 59.9897 138.957C61.0544 139.219 62.054 139.697 62.927 140.36C63.3329 140.696 63.6923 141.085 63.9958 141.516C64.2748 141.941 64.5053 142.396 64.6828 142.872C64.8646 143.337 64.9918 143.806 65.1227 144.264C65.2727 144.709 65.3941 145.163 65.4862 145.624C65.5434 146.504 65.4699 147.387 65.2681 148.245C65.1045 149.063 64.9046 149.826 64.6974 150.535C64.5956 150.899 64.4938 151.237 64.3993 151.568C64.3048 151.898 64.1957 152.226 64.1448 152.516C64.1012 152.724 64.0685 152.88 64.0321 153.065C63.682 154.189 63.1871 155.262 62.5599 156.257C62.3377 156.613 62.0754 156.942 61.7783 157.239L61.8255 157.173C61.8655 157.126 61.9164 157.068 61.9782 156.988C62.1709 156.745 62.3505 156.493 62.5162 156.232C63.1218 155.23 63.5994 154.157 63.9376 153.036C64.1448 152.862 64.1048 152.691 64.043 152.484C64.1066 152.152 64.1891 151.824 64.2902 151.502L64.5847 150.473C64.781 149.746 64.9773 148.997 65.1373 148.187C65.3309 147.342 65.3995 146.474 65.3408 145.609C65.2452 145.158 65.1238 144.713 64.9773 144.275C64.8428 143.817 64.7119 143.352 64.5338 142.897C64.3603 142.432 64.1347 141.988 63.8613 141.574C63.5664 141.157 63.2167 140.782 62.8216 140.458C61.5143 139.478 59.9392 138.92 58.3066 138.859C57.7404 138.849 57.1748 138.902 56.6199 139.015C55.4764 139.269 54.3748 139.684 53.3481 140.247C52.6211 140.611 51.894 141.047 51.1124 141.371C50.3309 141.694 49.6583 142.08 48.9313 142.461C47.5099 143.188 46.1358 143.915 44.8198 144.642L37.6657 148.499L37.6911 148.47C36.9756 149.766 36.4503 151.158 36.1316 152.604C35.9881 153.193 36.0457 153.814 36.2952 154.367C36.5399 154.817 36.8512 155.227 37.2185 155.584C37.7283 156.087 38.2818 156.543 38.8726 156.948L39.3379 157.26C39.4687 157.329 39.5342 157.369 39.5342 157.369Z" fill="#263238"/>
<path d="M60.4004 152.611C60.4004 152.611 64.2211 153.069 63.883 154.938C63.5449 156.806 62.2944 157.435 62.2944 157.435L51.9121 157.457C51.9121 157.457 58.1102 157.028 60.4004 152.611Z" fill="#E0E0E0"/>
<path d="M60.7714 151.706C60.7706 151.888 60.7309 152.068 60.6551 152.233C60.5145 152.651 60.3056 153.043 60.0371 153.393C59.675 153.903 59.1686 154.293 58.583 154.512C59.0651 154.151 59.5075 153.739 59.9026 153.284C60.2359 152.783 60.5265 152.255 60.7714 151.706Z" fill="#263238"/>
<path d="M59.4626 152.437C59.4687 152.905 59.3428 153.367 59.0991 153.767C58.9125 154.192 58.6271 154.566 58.2666 154.858C58.2266 154.825 58.6011 154.341 58.9391 153.676C59.2772 153.011 59.3972 152.429 59.4626 152.437Z" fill="#263238"/>
<path d="M64.3187 156.916C64.2897 156.916 64.5369 156.428 64.8349 155.625C65.6176 153.527 65.8759 151.27 65.5874 149.049C65.4747 148.202 65.3439 147.682 65.373 147.675C65.4305 147.79 65.4721 147.912 65.4966 148.038C65.5864 148.367 65.658 148.701 65.711 149.038C66.0748 151.278 65.8132 153.575 64.9549 155.676C64.8253 155.986 64.6785 156.288 64.515 156.581C64.4631 156.7 64.3972 156.812 64.3187 156.916Z" fill="#455A64"/>
<g opacity="0.3">
<path d="M62.1593 151.604C62.1302 151.353 62.032 151.055 61.7957 151.004C61.4904 150.942 61.2832 151.291 61.1632 151.575C59.8254 154.618 55.5031 156.992 52.1914 157.308C53.7976 157.304 55.4009 157.173 56.9863 156.915C58.3383 156.713 59.6058 156.133 60.6434 155.243C61.1593 154.794 61.5645 154.232 61.8274 153.601C62.0904 152.97 62.204 152.286 62.1593 151.604Z" fill="black"/>
</g>
<path d="M36.8659 147.464C36.2328 147.286 35.6172 147.051 35.0265 146.762C34.4125 146.529 33.8211 146.241 33.2598 145.9C33.892 146.079 34.5075 146.313 35.0992 146.598C35.7133 146.832 36.3047 147.122 36.8659 147.464Z" fill="#263238"/>
<g opacity="0.2">
<path d="M40.5592 145.857C35.6152 144.912 30.6531 144.072 25.6728 143.338L21.9648 144.508C23.0045 146.442 25.0584 147.675 27.1923 148.184C29.3262 148.693 31.5546 148.573 33.7358 148.373C36.1423 148.151 38.6143 147.813 40.7082 146.606C40.8682 146.515 41.0499 146.377 41.0281 146.192C41.0063 146.006 40.7736 145.897 40.5592 145.857Z" fill="black"/>
</g>
<path d="M16.2247 131.134L22.4555 144.912C22.5816 145.193 22.7856 145.431 23.0434 145.6C23.3012 145.768 23.6018 145.858 23.9096 145.861L42.0859 146.097L44.3761 144.865L40.7881 144.603L35.2044 131.203C35.1174 130.995 34.9712 130.817 34.7838 130.691C34.5963 130.565 34.376 130.496 34.1501 130.495L16.7409 130.364C16.648 130.36 16.5559 130.381 16.4731 130.423C16.3903 130.465 16.3197 130.528 16.268 130.605C16.2163 130.682 16.1852 130.771 16.1776 130.864C16.17 130.957 16.1862 131.05 16.2247 131.134Z" fill="#E0E0E0"/>
<path d="M16.2243 131.134C16.1946 131.083 16.176 131.026 16.1698 130.967C16.1583 130.88 16.1678 130.791 16.1975 130.708C16.2272 130.625 16.2763 130.551 16.3406 130.491C16.44 130.398 16.5688 130.344 16.7042 130.338H18.3L25.5887 130.363L30.6563 130.389L33.4881 130.407H34.2152C34.4844 130.426 34.7399 130.534 34.9422 130.712C35.1372 130.895 35.2813 131.126 35.3603 131.381L35.6584 132.108C37.247 135.914 39.0028 140.124 40.864 144.574L40.7768 144.512L44.2412 144.766H44.3648L44.7283 144.792L44.4193 144.959L42.1291 146.191H42.1037H42.0782L28.3006 146.002L25.2252 145.959C24.7235 145.959 24.2437 145.959 23.7456 145.929C23.4969 145.9 23.2576 145.817 23.0447 145.685C22.8318 145.553 22.6504 145.376 22.5133 145.166C21.7026 143.461 21.0265 141.894 20.3685 140.44L17.3222 133.628C16.9586 132.832 16.6969 132.21 16.5079 131.777C16.417 131.574 16.3515 131.414 16.3006 131.298C16.2498 131.181 16.2352 131.13 16.2352 131.13C16.2663 131.182 16.2942 131.235 16.3188 131.29L16.5442 131.763C16.7405 132.188 17.0241 132.806 17.3912 133.581L20.4957 140.371C21.1537 141.8 21.8589 143.407 22.6514 145.064C22.7748 145.253 22.9385 145.413 23.1309 145.531C23.3232 145.649 23.5394 145.723 23.7638 145.748C24.2291 145.77 24.7344 145.766 25.2179 145.773L28.2933 145.81L42.071 145.977H42.0201L44.3103 144.741L44.3539 144.933H44.2303L40.7659 144.683H40.7041L40.6787 144.628C38.8283 140.171 37.0761 135.962 35.4911 132.152L35.1967 131.443C35.1319 131.212 35.0064 131.002 34.8332 130.836C34.6603 130.68 34.4402 130.587 34.2079 130.571H33.4809L30.649 130.545L25.5851 130.494L18.2891 130.407H17.1477H16.6969C16.6249 130.41 16.5542 130.427 16.4891 130.458C16.424 130.489 16.3658 130.533 16.3182 130.587C16.2706 130.641 16.2345 130.704 16.2121 130.772C16.1897 130.841 16.1815 130.913 16.188 130.985C16.1973 131.035 16.2094 131.085 16.2243 131.134Z" fill="#263238"/>
<path d="M40.2392 146.072C40.2054 146.024 40.1773 145.973 40.1556 145.919L39.9484 145.475C39.7667 145.061 39.5195 144.501 39.2214 143.825C38.6143 142.425 37.7891 140.492 36.9021 138.339C36.0151 136.187 35.2299 134.235 34.6882 132.814C34.4156 132.087 34.2011 131.523 34.0629 131.12C33.9975 130.934 33.9466 130.782 33.903 130.655C33.8826 130.6 33.868 130.544 33.8594 130.487C33.8926 130.534 33.9195 130.586 33.9394 130.64L34.1284 131.094C34.2992 131.516 34.5283 132.08 34.8045 132.767C35.3935 134.199 36.1896 136.133 37.0657 138.274C37.9418 140.415 38.7488 142.342 39.3377 143.774L40.0175 145.446C40.0866 145.632 40.1447 145.781 40.192 145.904C40.2172 145.957 40.2332 146.014 40.2392 146.072Z" fill="#263238"/>
<path d="M28.9702 137.813C28.9709 137.99 28.919 138.163 28.821 138.311C28.723 138.458 28.5834 138.574 28.4198 138.642C28.2563 138.71 28.0762 138.728 27.9023 138.693C27.7285 138.659 27.5689 138.574 27.4436 138.448C27.3183 138.323 27.233 138.164 27.1986 137.99C27.1643 137.816 27.1823 137.636 27.2504 137.472C27.3185 137.309 27.4337 137.169 27.5813 137.071C27.729 136.973 27.9024 136.921 28.0795 136.922C28.3158 136.922 28.5423 137.016 28.7093 137.183C28.8763 137.35 28.9702 137.576 28.9702 137.813Z" fill="white"/>
<path d="M46.6553 115.648C46.6844 115.648 46.4227 116.154 46.0555 116.968C45.0945 119.094 44.4667 121.355 44.1942 123.671C44.0852 124.562 44.0561 125.126 44.0234 125.126C44.0039 124.995 44.0039 124.863 44.0234 124.733C44.0234 124.482 44.0234 124.119 44.0743 123.668C44.2797 121.322 44.9182 119.034 45.9573 116.921C46.1573 116.517 46.3209 116.194 46.4626 115.983C46.5131 115.864 46.5778 115.752 46.6553 115.648Z" fill="#263238"/>
<path d="M74.1125 125.39C74.0476 125.41 73.9804 125.421 73.9126 125.423L73.3346 125.478L71.1752 125.659L63.792 126.216H63.6975V126.121C63.6357 125.14 63.5703 124.103 63.5048 123.042C63.3994 121.188 63.3085 119.407 63.2795 117.811C63.1855 116.373 63.5126 114.939 64.221 113.685C64.7073 112.839 65.4248 112.149 66.2895 111.696C66.5229 111.579 66.7662 111.483 67.0165 111.409C67.1035 111.382 67.1922 111.36 67.2819 111.344C67.2819 111.373 66.9184 111.449 66.3185 111.762C65.4849 112.23 64.7968 112.919 64.3301 113.754C63.6564 114.996 63.3548 116.406 63.4612 117.814C63.4976 119.418 63.5921 121.184 63.6975 123.038C63.763 124.1 63.8248 125.136 63.8866 126.114L63.7848 126.027L71.1752 125.539L73.3564 125.412L73.9344 125.39H74.1125Z" fill="#263238"/>
<path d="M55.9984 131.687C55.8863 131.665 55.7784 131.626 55.6785 131.571C55.5534 131.518 55.432 131.457 55.3149 131.389C55.1582 131.304 55.0064 131.211 54.8605 131.109C54.4738 130.848 54.1166 130.546 53.7954 130.207C53.4067 129.788 53.0654 129.327 52.7775 128.833C52.4998 128.334 52.2791 127.804 52.1196 127.256C51.993 126.807 51.915 126.346 51.8869 125.881C51.8762 125.703 51.8762 125.525 51.8869 125.347C51.8874 125.212 51.8972 125.077 51.916 124.944C51.9193 124.828 51.9414 124.714 51.9814 124.605C52.0178 124.605 51.956 125.096 52.0323 125.871C52.078 126.323 52.1669 126.769 52.2977 127.205C52.4649 127.737 52.6853 128.251 52.9557 128.739C53.234 129.22 53.5617 129.671 53.9335 130.084C54.2428 130.419 54.5823 130.724 54.9478 130.996C55.5658 131.458 56.0165 131.654 55.9984 131.687Z" fill="#263238"/>
</svg>
