<svg width="82" height="97" viewBox="0 0 82 97" fill="none" xmlns="http://www.w3.org/2000/svg">
<path d="M37.5635 17.5752L37.6279 17.6836L37.7363 17.748L54.335 27.6523L37.7363 37.5576L37.6279 37.623L37.5635 37.7314L27.6582 54.335L17.748 37.7363L17.6836 37.6279L17.5752 37.5635L0.974609 27.6523L17.5752 17.748L17.6836 17.6836L17.748 17.5752L27.6572 0.975586L37.5635 17.5752Z" fill="#FFD602" stroke="white"/>
<path d="M70.001 57.6934L70.0654 57.8018L70.1738 57.8662L81.0264 64.3457L70.1738 70.8213L70.0654 70.8857L70.001 70.9941L63.5205 81.8467L57.041 70.9941L56.9766 70.8857L56.8682 70.8213L46.0137 64.3457L56.8682 57.8662L56.9766 57.8018L57.041 57.6934L63.5205 46.834L70.001 57.6934Z" fill="#1469E1" stroke="white"/>
<path d="M31.6416 80.208L31.707 80.3164L31.8154 80.3809L38.4912 84.3672L31.8154 88.3447L31.707 88.4102L31.6416 88.5186L27.6592 95.2012L23.6729 88.5234L23.6074 88.415L23.499 88.3506L16.8262 84.3682L23.5 80.3809L23.6074 80.3164L23.6729 80.208L27.6592 73.5293L31.6416 80.208Z" fill="#FFD602" stroke="white"/>
</svg>
