<svg width="354" height="354" viewBox="0 0 354 354" fill="none" xmlns="http://www.w3.org/2000/svg">
<g clip-path="url(#clip0_79_1786)">
<path opacity="0.5" fill-rule="evenodd" clip-rule="evenodd" d="M320.499 217.358C322.997 206.262 325.701 194.253 330.114 181.013C342.095 145.071 325.613 124.088 299.407 90.7279C298.379 89.4184 297.335 88.0898 296.278 86.7405C282.903 70.5297 273.37 68.3321 258.1 64.8116C242.331 61.1763 220.443 56.1303 181.888 32.786C124.656 -1.8663 103.891 31.6909 84.9553 62.2924C78.7814 72.2699 72.8019 81.9332 65.8162 88.8157C56.2613 100.829 54.3436 113.528 52.2069 127.676C49.8423 143.334 47.2095 160.768 33.661 181.013C31.7595 183.854 29.4672 186.136 27.293 188.301C17.4589 198.093 10.0434 205.476 52.1653 251.272C71.5016 272.296 90.4618 289.205 108.164 301.87L266.284 299.222C279.466 291.384 291.318 281.964 299.806 270.838C312.081 254.749 315.95 237.566 320.499 217.358Z" fill="#A8CDE2"/>
<mask id="mask0_79_1786" style="mask-type:luminance" maskUnits="userSpaceOnUse" x="0" y="0" width="354" height="354">
<path d="M354 0H0V354H354V0Z" fill="white"/>
</mask>
<g mask="url(#mask0_79_1786)">
<path d="M354 270.742H0V270.919H354V270.742Z" fill="#67A5C8"/>
<path d="M307.121 278.273H283.672V278.45H307.121V278.273Z" fill="#67A5C8"/>
<path d="M221.653 278.188H215.5V278.365H221.653V278.188Z" fill="#67A5C8"/>
<path d="M318.532 282.133H304.945V282.31H318.532V282.133Z" fill="#67A5C8"/>
<path d="M81.1332 284.492H50.5547V284.669H81.1332V284.492Z" fill="#67A5C8"/>
<path d="M78.5051 276.758H74.0234V276.935H78.5051V276.758Z" fill="#67A5C8"/>
<path d="M175.906 277.516H132.789V277.693H175.906V277.516Z" fill="#67A5C8"/>
<path d="M167.798 239.168H31.0903C30.0193 239.166 28.9929 238.739 28.2363 237.981C27.4796 237.223 27.0547 236.196 27.0547 235.125V42.9526C27.064 41.8878 27.4931 40.8696 28.2487 40.1193C29.0043 39.369 30.0254 38.9471 31.0903 38.9453H167.798C168.87 38.9453 169.898 39.3712 170.657 40.1294C171.415 40.8875 171.841 41.9158 171.841 42.988V235.125C171.841 236.197 171.415 237.226 170.657 237.984C169.898 238.742 168.87 239.168 167.798 239.168ZM31.0903 39.0869C30.0663 39.0888 29.0848 39.4969 28.3614 40.2216C27.638 40.9464 27.2317 41.9286 27.2317 42.9526V235.125C27.2317 236.149 27.638 237.131 28.3614 237.856C29.0848 238.581 30.0663 238.989 31.0903 238.991H167.798C168.823 238.989 169.805 238.581 170.529 237.856C171.254 237.132 171.662 236.15 171.664 235.125V42.9526C171.662 41.9279 171.254 40.9458 170.529 40.2212C169.805 39.4967 168.823 39.0888 167.798 39.0869H31.0903Z" fill="#FAB317"/>
<path d="M320.937 239.168H184.222C183.151 239.166 182.124 238.739 181.366 237.982C180.608 237.224 180.182 236.197 180.18 235.125V42.9526C180.191 41.8871 180.621 40.869 181.378 40.1189C182.135 39.3688 183.157 38.9471 184.222 38.9453H320.937C322.001 38.949 323.02 39.3717 323.774 40.1218C324.528 40.8719 324.956 41.889 324.966 42.9526V235.125C324.966 236.195 324.542 237.221 323.787 237.979C323.032 238.736 322.007 239.164 320.937 239.168ZM184.222 39.0869C183.198 39.0888 182.216 39.4967 181.491 40.2212C180.766 40.9458 180.359 41.9279 180.357 42.9526V235.125C180.359 236.15 180.766 237.132 181.491 237.856C182.216 238.581 183.198 238.989 184.222 238.991H320.937C321.962 238.989 322.944 238.581 323.669 237.856C324.393 237.132 324.801 236.15 324.803 235.125V42.9526C324.801 41.9279 324.393 40.9458 323.669 40.2212C322.944 39.4967 321.962 39.0888 320.937 39.0869H184.222Z" fill="#67A5C8"/>
<path d="M303.652 68.2031H50.3438V173.617H303.652V68.2031Z" fill="#FEDBD7"/>
<path d="M298.703 168.674V73.1719H55.3069V168.674H298.703Z" fill="#FAFAFA"/>
<path d="M87.3438 168.666L112.308 73.1641H130.716L105.752 168.666H87.3438Z" fill="white"/>
<path d="M110.008 168.666L134.972 73.1641H143.206L118.242 168.666H110.008Z" fill="white"/>
<path d="M150.289 168.666L175.26 73.1641H193.668L168.697 168.666H150.289Z" fill="white"/>
<path d="M196.703 168.666L221.667 73.1641H229.908L204.937 168.666H196.703Z" fill="white"/>
<path d="M120.508 168.674V73.1719H119.248V168.674H120.508Z" fill="#A8CDE2"/>
<path d="M56.5624 168.674V73.1719H55.3022V168.674H56.5624Z" fill="#A8CDE2"/>
<path d="M119.25 168.674V73.1719H114.294V168.674H119.25Z" fill="#43A7FF"/>
<path d="M181.953 168.674V73.1719H180.693V168.674H181.953Z" fill="#A8CDE2"/>
<path d="M180.695 168.674V73.1719H175.739V168.674H180.695Z" fill="#FEDBD7"/>
<path d="M243.43 168.666V73.1641H242.169V168.666H243.43Z" fill="#A8CDE2"/>
<path d="M242.172 168.666V73.1641H237.216V168.666H242.172Z" fill="#43A7FF"/>
<path d="M304.914 173.617V68.2031H303.654V173.617H304.914Z" fill="#A8CDE2"/>
<path d="M307.746 60.9753H46.2537C45.9632 60.9735 45.685 60.8572 45.4796 60.6518C45.2742 60.4464 45.1581 60.1684 45.1563 59.8779C45.1562 59.5862 45.2716 59.3064 45.4772 59.0994C45.6828 58.8925 45.962 58.7753 46.2537 58.7734H307.746C308.038 58.7753 308.317 58.8925 308.523 59.0994C308.728 59.3064 308.844 59.5862 308.844 59.8779C308.842 60.1684 308.726 60.4464 308.52 60.6518C308.315 60.8572 308.037 60.9735 307.746 60.9753Z" fill="#FEDBD7"/>
<g opacity="0.6">
<path d="M100.778 56.6484H47.2812V248.991H100.778V56.6484Z" fill="#43A7FF"/>
<path d="M76.263 250.561H71.7812L73.0415 58.2189H75.0452L76.263 250.561Z" fill="#43A7FF"/>
<path d="M61.4165 250.561H59.25L59.8589 58.2189H60.8288L61.4165 250.561Z" fill="#43A7FF"/>
<path d="M91.151 250.561H88.9845L89.5934 58.2189H90.5633L91.151 250.561Z" fill="#43A7FF"/>
</g>
<g opacity="0.6">
<path d="M306.082 56.6484H252.586V248.991H306.082V56.6484Z" fill="#43A7FF"/>
<path d="M273.552 250.561H269.07L270.331 58.2189H272.334L273.552 250.561Z" fill="#43A7FF"/>
<path d="M263.659 250.561H261.5L262.102 58.2189H263.072L263.659 250.561Z" fill="#43A7FF"/>
<path d="M286.55 250.561H284.391L285 58.2189H285.962L286.55 250.561Z" fill="#43A7FF"/>
<path d="M297.566 250.561H295.406L296.008 58.2189H296.978L297.566 250.561Z" fill="#43A7FF"/>
</g>
<path d="M230.251 269.547H240.305V211.93H230.251V269.547Z" fill="#106FA4"/>
<path d="M113.693 269.547H234.117V211.93H113.693V269.547Z" fill="#FAB317"/>
<path d="M231.421 269.547H227.796H118.898V270.75H227.796H231.421H235.11V269.547H231.421Z" fill="#A8CDE2"/>
<path opacity="0.5" d="M117.131 238.773H230.688V215.523H117.131V238.773Z" fill="#FEF6D0"/>
<path opacity="0.5" d="M117.217 265.547H230.773V242.296H117.217V265.547Z" fill="#FEF6D0"/>
<path d="M134.338 227.157C134.338 227.663 134.188 228.157 133.908 228.577C133.627 228.998 133.228 229.325 132.761 229.519C132.294 229.712 131.78 229.763 131.284 229.664C130.788 229.566 130.333 229.322 129.975 228.965C129.618 228.607 129.374 228.152 129.276 227.656C129.177 227.16 129.228 226.646 129.421 226.179C129.615 225.712 129.942 225.313 130.362 225.032C130.783 224.751 131.277 224.602 131.782 224.602C132.118 224.602 132.45 224.668 132.761 224.796C133.071 224.925 133.352 225.113 133.59 225.35C133.827 225.587 134.015 225.869 134.144 226.179C134.272 226.489 134.338 226.822 134.338 227.157Z" fill="#A8CDE2"/>
<path d="M218.581 227.157C218.581 227.663 218.431 228.157 218.15 228.577C217.869 228.998 217.47 229.325 217.003 229.519C216.536 229.712 216.022 229.763 215.526 229.664C215.03 229.566 214.575 229.322 214.217 228.965C213.86 228.607 213.616 228.152 213.518 227.656C213.419 227.16 213.47 226.646 213.663 226.179C213.857 225.712 214.184 225.313 214.605 225.032C215.025 224.751 215.519 224.602 216.025 224.602C216.36 224.602 216.693 224.668 217.003 224.796C217.313 224.925 217.595 225.113 217.832 225.35C218.069 225.587 218.258 225.869 218.386 226.179C218.514 226.489 218.581 226.822 218.581 227.157Z" fill="#A8CDE2"/>
<path d="M131.782 256.706C133.194 256.706 134.338 255.561 134.338 254.15C134.338 252.738 133.194 251.594 131.782 251.594C130.371 251.594 129.227 252.738 129.227 254.15C129.227 255.561 130.371 256.706 131.782 256.706Z" fill="#A8CDE2"/>
<path d="M218.581 254.181C218.581 254.686 218.431 255.181 218.15 255.601C217.869 256.021 217.47 256.349 217.003 256.542C216.536 256.736 216.022 256.786 215.526 256.688C215.03 256.589 214.575 256.346 214.217 255.988C213.86 255.631 213.616 255.175 213.518 254.68C213.419 254.184 213.47 253.67 213.663 253.203C213.857 252.736 214.184 252.337 214.605 252.056C215.025 251.775 215.519 251.625 216.025 251.625C216.702 251.625 217.353 251.894 217.832 252.374C218.311 252.853 218.581 253.503 218.581 254.181Z" fill="#A8CDE2"/>
<path d="M176.463 227.157C176.463 227.663 176.313 228.157 176.033 228.577C175.752 228.998 175.353 229.325 174.886 229.519C174.419 229.712 173.905 229.763 173.409 229.664C172.913 229.566 172.458 229.322 172.1 228.965C171.743 228.607 171.499 228.152 171.401 227.656C171.302 227.16 171.353 226.646 171.546 226.179C171.74 225.712 172.067 225.313 172.487 225.032C172.908 224.751 173.402 224.602 173.907 224.602C174.243 224.602 174.575 224.668 174.886 224.796C175.196 224.925 175.477 225.113 175.715 225.35C175.952 225.587 176.14 225.869 176.269 226.179C176.397 226.489 176.463 226.822 176.463 227.157Z" fill="#A8CDE2"/>
<path d="M173.907 256.706C175.319 256.706 176.463 255.561 176.463 254.15C176.463 252.738 175.319 251.594 173.907 251.594C172.496 251.594 171.352 252.738 171.352 254.15C171.352 255.561 172.496 256.706 173.907 256.706Z" fill="#A8CDE2"/>
<path d="M226.671 202.141C226.671 204.736 225.64 207.224 223.805 209.059C221.97 210.894 219.481 211.925 216.886 211.925C214.291 211.925 211.802 210.894 209.967 209.059C208.132 207.224 207.102 204.736 207.102 202.141H226.671Z" fill="#43A7FF"/>
<path d="M149.309 200.375C149.309 203.434 148.094 206.367 145.931 208.53C143.768 210.693 140.834 211.908 137.776 211.908C134.717 211.908 131.783 210.693 129.62 208.53C127.457 206.367 126.242 203.434 126.242 200.375H149.309Z" fill="#106FA4"/>
<path d="M198.892 205.133C198.892 206.934 198.177 208.661 196.903 209.934C195.63 211.207 193.903 211.923 192.102 211.923C190.301 211.923 188.574 211.207 187.301 209.934C186.028 208.661 185.312 206.934 185.312 205.133H198.892Z" fill="#43A7FF"/>
<path d="M177.001 302.709C252.815 302.709 314.275 299.121 314.275 294.694C314.275 290.268 252.815 286.68 177.001 286.68C101.186 286.68 39.7266 290.268 39.7266 294.694C39.7266 299.121 101.186 302.709 177.001 302.709Z" fill="#F5F5F5"/>
<path d="M246.492 81.6785C244.984 80.1704 242.081 74.4569 244.863 71.7665C247.646 69.0761 250.124 71.5187 250.315 72.8285C250.506 74.1383 249.996 85.176 246.492 81.6785Z" fill="#263238"/>
<path d="M245.863 287.199L239.541 287.256L237.82 272.643L244.136 272.586L245.863 287.199Z" fill="#FF8B7B"/>
<path d="M239.528 286.525L246.423 286.461C246.551 286.463 246.674 286.505 246.776 286.581C246.877 286.658 246.952 286.764 246.99 286.886L248.661 292.486C248.705 292.616 248.717 292.755 248.697 292.892C248.676 293.028 248.623 293.157 248.541 293.268C248.46 293.379 248.353 293.469 248.23 293.53C248.106 293.591 247.97 293.622 247.832 293.619C245.347 293.619 241.736 293.484 238.628 293.513C234.975 293.513 233.347 293.768 229.056 293.81C226.465 293.81 225.516 291.219 226.614 290.978C231.478 289.852 233.991 289.704 238.062 287.034C238.49 286.725 239 286.548 239.528 286.525Z" fill="#263238"/>
<path opacity="0.2" d="M237.82 272.658L238.712 280.191L245.028 280.135L244.143 272.602L237.82 272.658Z" fill="black"/>
<path d="M236.92 287.651C237.602 287.639 238.28 287.556 238.945 287.403C238.976 287.399 239.005 287.383 239.027 287.36C239.049 287.337 239.062 287.307 239.065 287.276C239.068 287.245 239.061 287.215 239.046 287.188C239.031 287.161 239.008 287.14 238.98 287.127C238.683 286.978 236.028 285.711 235.299 286.157C235.231 286.2 235.176 286.26 235.139 286.331C235.102 286.402 235.083 286.481 235.086 286.561C235.085 286.697 235.114 286.832 235.173 286.954C235.232 287.077 235.319 287.185 235.426 287.269C235.869 287.556 236.394 287.69 236.92 287.651ZM238.435 287.198C237.069 287.439 236.028 287.389 235.603 287.049C235.529 286.992 235.471 286.917 235.433 286.832C235.395 286.747 235.378 286.654 235.384 286.561C235.379 286.532 235.384 286.502 235.396 286.476C235.409 286.449 235.429 286.427 235.454 286.412C235.851 286.171 237.352 286.738 238.435 287.198Z" fill="#106FA4"/>
<path d="M238.914 287.448C238.948 287.446 238.98 287.434 239.006 287.413C239.028 287.397 239.044 287.375 239.053 287.35C239.062 287.324 239.063 287.297 239.056 287.271C239.056 287.158 238.56 284.439 237.059 284.609C236.663 284.652 236.55 284.857 236.528 285.013C236.422 285.721 238.044 287.094 238.851 287.434L238.914 287.448ZM237.187 284.899C238.093 284.899 238.546 286.379 238.702 287.023C237.867 286.556 236.762 285.48 236.826 285.055C236.826 285.055 236.826 284.935 237.095 284.907L237.187 284.899Z" fill="#106FA4"/>
<path d="M241.391 113.59L240.74 114.298L240.131 114.9C239.728 115.297 239.31 115.672 238.892 116.04C238.062 116.786 237.212 117.494 236.343 118.164C234.591 119.557 232.746 120.83 230.821 121.973C229.851 122.547 228.853 123.092 227.84 123.609C226.828 124.125 225.759 124.572 224.683 125.025C222.476 125.905 220.177 126.534 217.829 126.901L217.305 126.979C216.965 127.023 216.622 127.044 216.279 127.042C215.49 127.035 214.71 126.881 213.978 126.589C213.251 126.298 212.586 125.873 212.017 125.336C211.563 124.903 211.168 124.413 210.841 123.878C210.389 123.101 210.048 122.264 209.829 121.393C209.657 120.718 209.532 120.032 209.454 119.339C209.325 118.143 209.289 116.938 209.347 115.736C209.397 114.589 209.489 113.484 209.616 112.401C209.885 110.227 210.268 108.153 210.735 106.029C211.202 103.905 211.733 101.944 212.42 99.8906L217.072 100.811C216.902 104.79 216.711 108.868 216.838 112.72C216.861 114.508 217.051 116.29 217.404 118.044C217.474 118.368 217.571 118.685 217.695 118.992C217.794 119.233 217.914 119.382 217.907 119.318C217.866 119.21 217.801 119.113 217.716 119.035C217.523 118.849 217.298 118.7 217.05 118.596C216.796 118.489 216.526 118.424 216.25 118.405C216.123 118.405 216.066 118.405 215.988 118.405H216.066L216.215 118.362C217.892 117.932 219.524 117.339 221.086 116.592C222.721 115.803 224.303 114.909 225.823 113.916C227.359 112.897 228.874 111.792 230.333 110.624C231.041 110.043 231.784 109.434 232.457 108.819L233.49 107.884L233.986 107.424L234.418 107.013L241.391 113.59Z" fill="#FF8B7B"/>
<path d="M245.138 111.082C244.897 104.405 239.418 102.083 232.55 106.635C229.522 108.555 226.608 110.647 223.82 112.901L228.259 127.16C228.259 127.16 236.755 124.463 241.669 119.167C244.975 115.57 245.223 113.354 245.138 111.082Z" fill="#263238"/>
<path opacity="0.2" d="M236.777 113.93C236.777 113.93 232.678 119.792 231.227 126.022C233.242 125.163 235.184 124.14 237.032 122.964L236.777 113.93Z" fill="black"/>
<path d="M216.834 102.92L219.213 97.5464L212.48 95.5781C212.48 95.5781 211.326 98.1482 211.984 102.559L216.834 102.92Z" fill="#FF8B7B"/>
<path d="M219.933 91.25L214.077 91.9509L212.484 95.583L219.217 97.5512L219.933 91.25Z" fill="#FF8B7B"/>
<path d="M236.824 159.49C236.824 159.49 232.477 195.924 231.996 215.422C231.5 235.678 235.472 276.537 235.472 276.537L246.878 276.296C246.878 276.296 248.252 232.556 249.908 212.512C251.707 190.663 256.238 159.094 256.238 159.094L236.824 159.49Z" fill="#106FA4"/>
<path opacity="0.6" d="M236.824 159.49C236.824 159.49 232.477 195.924 231.996 215.422C231.5 235.678 235.472 276.537 235.472 276.537L246.878 276.296C246.878 276.296 248.252 232.556 249.908 212.512C251.707 190.663 256.238 159.094 256.238 159.094L236.824 159.49Z" fill="white"/>
<path opacity="0.2" d="M250.403 169.798C245.305 181.034 246.672 206.132 249.567 216.894C249.674 215.329 249.787 213.849 249.9 212.483C251.083 198.082 253.44 179.469 254.934 168.445C253.546 166.435 251.996 166.279 250.403 169.798Z" fill="black"/>
<path d="M248.276 276.782L234.866 277.051L233.875 272.598L248.113 272.562L248.276 276.782Z" fill="#106FA4"/>
<path d="M274.036 287.199L267.72 287.256L266 272.643L272.315 272.586L274.036 287.199Z" fill="#FF8B7B"/>
<path d="M267.7 286.525L274.603 286.461C274.73 286.464 274.853 286.506 274.954 286.583C275.056 286.659 275.131 286.765 275.17 286.886L276.84 292.486C276.883 292.616 276.894 292.755 276.873 292.89C276.851 293.026 276.798 293.154 276.717 293.265C276.636 293.376 276.53 293.465 276.407 293.527C276.285 293.589 276.149 293.62 276.012 293.619C273.52 293.619 269.916 293.484 266.808 293.513C263.155 293.513 261.519 293.768 257.236 293.81C254.645 293.81 253.696 291.219 254.793 290.978C259.65 289.852 262.164 289.704 266.242 287.034C266.668 286.726 267.175 286.548 267.7 286.525Z" fill="#263238"/>
<path opacity="0.2" d="M266 272.658L266.885 280.191L273.207 280.135L272.322 272.602L266 272.658Z" fill="black"/>
<path d="M265.1 287.651C265.782 287.638 266.46 287.555 267.125 287.403C267.156 287.398 267.184 287.383 267.204 287.36C267.225 287.337 267.237 287.307 267.238 287.276C267.243 287.246 267.238 287.215 267.224 287.189C267.21 287.162 267.187 287.14 267.16 287.127C266.856 286.978 264.201 285.711 263.479 286.157C263.41 286.199 263.354 286.259 263.317 286.33C263.28 286.401 263.262 286.481 263.266 286.561C263.265 286.696 263.294 286.83 263.352 286.953C263.409 287.075 263.494 287.183 263.599 287.269C264.045 287.555 264.571 287.689 265.1 287.651ZM266.615 287.198C265.249 287.439 264.208 287.389 263.783 287.049C263.71 286.991 263.651 286.917 263.612 286.832C263.573 286.747 263.554 286.654 263.557 286.561C263.552 286.532 263.557 286.502 263.569 286.476C263.582 286.449 263.602 286.427 263.627 286.412C264.024 286.171 265.511 286.738 266.615 287.198Z" fill="#106FA4"/>
<path d="M267.086 287.448C267.107 287.448 267.129 287.442 267.148 287.433C267.168 287.423 267.185 287.409 267.199 287.393C267.213 287.376 267.224 287.357 267.23 287.336C267.236 287.315 267.237 287.293 267.234 287.271C267.234 287.158 266.739 284.439 265.238 284.609C264.841 284.652 264.728 284.857 264.7 285.013C264.601 285.721 266.222 287.094 267.029 287.434L267.086 287.448ZM265.365 284.899C266.264 284.899 266.725 286.379 266.88 287.023C266.045 286.556 264.933 285.48 264.997 285.055C264.997 285.055 264.997 284.935 265.266 284.907L265.365 284.899Z" fill="#106FA4"/>
<path d="M247.945 159.247C247.945 159.247 251.096 198.449 253.397 217.792C255.783 237.913 263.642 276.513 263.642 276.513L275.048 276.272C275.048 276.272 271.918 232.447 270.708 212.368C269.384 190.456 269.044 158.766 269.044 158.766L247.945 159.247Z" fill="#106FA4"/>
<path opacity="0.6" d="M247.945 159.247C247.945 159.247 251.096 198.449 253.397 217.792C255.783 237.913 263.642 276.513 263.642 276.513L275.048 276.272C275.048 276.272 271.918 232.447 270.708 212.368C269.384 190.456 269.044 158.766 269.044 158.766L247.945 159.247Z" fill="white"/>
<path d="M276.455 276.782L263.039 277.051L262.055 272.598L276.293 272.562L276.455 276.782Z" fill="#106FA4"/>
<path d="M236.031 104.891C236.031 104.891 231.365 122.208 236.817 159.484C246.998 159.265 264.096 158.868 269.045 158.776C269.172 153.587 265.342 128.141 269.824 103.609C266.6 103.052 263.339 102.735 260.068 102.66C255.279 102.486 250.485 102.59 245.709 102.972C242.438 103.359 239.202 104 236.031 104.891Z" fill="#263238"/>
<path opacity="0.2" d="M267.876 121.071L262.602 116.703C262.948 120.116 266.035 128.477 267.664 132.711C267.635 129.001 267.671 125.086 267.876 121.071Z" fill="black"/>
<path d="M249.003 114.931L243.247 126.323C243.125 126.562 243.083 126.834 243.125 127.099C243.168 127.364 243.294 127.608 243.484 127.797C243.675 127.986 243.92 128.11 244.186 128.15C244.451 128.191 244.722 128.146 244.96 128.022L248.72 125.955C248.924 125.845 249.155 125.795 249.387 125.81C249.618 125.825 249.841 125.905 250.03 126.04L253.732 128.709C253.945 128.864 254.202 128.946 254.465 128.943C254.728 128.941 254.983 128.854 255.193 128.695C255.402 128.536 255.555 128.314 255.629 128.062C255.702 127.809 255.693 127.54 255.602 127.293L251.276 115.13C251.2 114.898 251.059 114.694 250.868 114.543C250.678 114.391 250.447 114.299 250.205 114.278C249.963 114.257 249.719 114.308 249.506 114.424C249.292 114.54 249.117 114.717 249.003 114.931Z" fill="white"/>
<path d="M258.295 86.4922C257.488 91.1367 256.765 99.6185 260.065 102.628C260.065 102.628 259.102 106.833 250.316 108.292C244.411 106.394 245.706 102.967 245.706 102.967C250.832 101.622 250.613 97.806 249.643 94.2377L258.295 86.4922Z" fill="#FF8B7B"/>
<path opacity="0.2" d="M254.774 89.6406L249.648 94.2001C249.887 95.0314 250.053 95.8819 250.144 96.7419C252.112 96.4162 254.767 94.1931 254.93 92.1328C255.03 91.2995 254.978 90.4549 254.774 89.6406Z" fill="black"/>
<path d="M261.111 80.7764C259.405 86.8085 258.718 90.4264 254.951 92.8973C249.287 96.6073 242.342 92.1893 242.207 85.7536C242.08 79.9763 244.884 71.0768 251.411 69.944C252.845 69.6896 254.32 69.8056 255.697 70.2809C257.073 70.7561 258.305 71.575 259.277 72.6599C260.248 73.7447 260.927 75.0596 261.247 76.48C261.568 77.9004 261.521 79.3792 261.111 80.7764Z" fill="#FF8B7B"/>
<path d="M257.48 84.4747C256.687 82.5489 256.113 76.2052 259.419 74.6476C262.726 73.09 266.16 76.892 265.289 78.6903C263.951 81.4798 259.32 88.9351 257.48 84.4747Z" fill="#263238"/>
<path d="M259.456 76.8879C258.642 74.7639 248.936 73.5603 247.576 71.2734C245.962 68.5547 252.582 68.229 257.134 69.6096C261.134 70.8274 263.804 72.0027 263.336 74.9763C263.074 76.6613 259.456 76.8879 259.456 76.8879Z" fill="#263238"/>
<path d="M261.562 74.6959C261.562 74.6959 263.687 75.2765 264.848 73.7189C264.479 75.2623 262.674 76.8199 261.562 74.6959Z" fill="#263238"/>
<path d="M251.843 68.1463C248.926 65.8807 244.954 68.5428 245.329 71.4951C245.705 74.4475 255.539 76.6918 255.539 76.6918C255.539 76.6918 255.716 71.1553 251.843 68.1463Z" fill="#263238"/>
<path d="M245.336 71.5098C245.782 73.5771 247.29 75.1984 250.341 76.402C248.575 75.0961 247.237 73.2946 246.497 71.2266L245.336 71.5098Z" fill="#263238"/>
<path d="M251.456 80.4733C251.35 80.976 251.003 81.3229 250.677 81.2521C250.352 81.1813 250.175 80.714 250.281 80.2184C250.387 79.7228 250.741 79.3759 251.067 79.4467C251.392 79.5175 251.569 80.006 251.456 80.4733Z" fill="#263238"/>
<path d="M245.838 79.2522C245.725 79.7478 245.378 80.0947 245.052 80.0239C244.727 79.9531 244.55 79.4929 244.656 78.9973C244.762 78.5017 245.116 78.1548 245.442 78.2185C245.767 78.2822 245.944 78.7566 245.838 79.2522Z" fill="#263238"/>
<path d="M247.572 79.8906C246.648 81.2834 245.535 82.5414 244.266 83.6289C244.974 84.6413 246.552 84.5917 246.552 84.5917L247.572 79.8906Z" fill="#FF5652"/>
<path d="M247.699 86.2833C248.364 86.4484 249.059 86.4503 249.724 86.2888C250.39 86.1273 251.007 85.8072 251.522 85.3558C251.536 85.3419 251.548 85.3254 251.555 85.3072C251.563 85.2889 251.567 85.2694 251.567 85.2496C251.567 85.2298 251.563 85.2102 251.555 85.192C251.548 85.1737 251.536 85.1572 251.522 85.1434C251.493 85.1165 251.455 85.1016 251.416 85.1016C251.377 85.1016 251.339 85.1165 251.31 85.1434C250.826 85.5502 250.254 85.8383 249.64 85.9846C249.025 86.1309 248.385 86.1314 247.77 85.9859C247.73 85.9774 247.689 85.985 247.655 86.0069C247.622 86.0288 247.598 86.0633 247.589 86.1027C247.581 86.1422 247.588 86.1833 247.61 86.2172C247.632 86.251 247.667 86.2748 247.706 86.2833H247.699Z" fill="#263238"/>
<path d="M253.549 79.0228C253.604 79.0336 253.66 79.0295 253.712 79.0107C253.764 78.992 253.81 78.9593 253.845 78.9164C253.88 78.8734 253.903 78.8217 253.911 78.7668C253.918 78.712 253.911 78.656 253.889 78.605C253.698 78.169 253.406 77.7848 253.036 77.4844C252.667 77.1839 252.231 76.9759 251.765 76.8775C251.687 76.8673 251.607 76.8883 251.544 76.9359C251.48 76.9835 251.438 77.054 251.425 77.1324C251.419 77.171 251.421 77.2104 251.43 77.2483C251.439 77.2863 251.456 77.3221 251.479 77.3537C251.502 77.3852 251.531 77.4119 251.564 77.4323C251.598 77.4526 251.635 77.4662 251.673 77.4722C252.041 77.553 252.383 77.7204 252.673 77.9606C252.962 78.2008 253.19 78.5067 253.337 78.8528C253.357 78.8957 253.386 78.9334 253.423 78.9628C253.46 78.9923 253.503 79.0128 253.549 79.0228Z" fill="#263238"/>
<path d="M243.784 76.7823C243.84 76.7977 243.899 76.7957 243.953 76.7767C244.008 76.7578 244.055 76.7227 244.089 76.6761C244.313 76.3753 244.605 76.1315 244.94 75.9642C245.276 75.797 245.647 75.711 246.022 75.7132C246.101 75.7207 246.179 75.6966 246.24 75.6461C246.301 75.5957 246.34 75.523 246.347 75.4442C246.355 75.3653 246.331 75.2867 246.28 75.2256C246.23 75.1645 246.157 75.126 246.078 75.1185C245.603 75.1044 245.132 75.2052 244.704 75.4122C244.276 75.6193 243.905 75.9266 243.622 76.3079C243.596 76.3382 243.578 76.3733 243.567 76.411C243.555 76.4487 243.552 76.4883 243.557 76.5274C243.561 76.5665 243.574 76.6042 243.594 76.6383C243.613 76.6724 243.64 76.7021 243.671 76.7256C243.703 76.754 243.742 76.7735 243.784 76.7823Z" fill="#263238"/>
<path d="M271.368 108.438C272.656 110.689 273.732 112.87 274.851 115.114C275.97 117.358 276.975 119.617 277.931 121.925C278.887 124.233 279.814 126.576 280.621 129.005C281.46 131.427 282.169 133.892 282.745 136.389L283.177 138.322C283.366 139.23 283.447 140.157 283.418 141.083C283.358 142.805 282.976 144.501 282.292 146.082C281.09 148.746 279.38 151.151 277.258 153.162C275.365 154.989 273.303 156.632 271.099 158.068C270.029 158.776 268.925 159.428 267.813 160.051C266.702 160.674 265.597 161.247 264.358 161.792L262.008 157.679C262.864 156.971 263.806 156.263 264.684 155.498C265.562 154.734 266.419 153.955 267.268 153.176C268.909 151.654 270.431 150.009 271.821 148.255C273.057 146.752 274.016 145.04 274.653 143.2C274.872 142.515 274.958 141.794 274.908 141.076C274.887 140.788 274.832 140.503 274.745 140.227L274.263 138.641C272.833 134.242 271.13 129.936 269.166 125.748C268.196 123.624 267.162 121.5 266.128 119.376C265.095 117.252 264.004 115.128 262.949 113.11L271.368 108.438Z" fill="#FF8B7B"/>
<path d="M270.069 103.646C275.973 104.921 280.08 120.327 280.08 120.327L269.523 129.906C266.167 126.172 263.527 121.852 261.735 117.162C258.939 109.452 263.753 102.273 270.069 103.646Z" fill="#263238"/>
<path d="M263.29 156.953L256.5 157.024L260.748 163.87C260.748 163.87 265.584 162.674 266.016 160.245L263.29 156.953Z" fill="#FF8B7B"/>
<path d="M252.273 161.066L256.019 166.56L260.713 163.87L256.5 157.023L252.273 161.066Z" fill="#FF8B7B"/>
<path d="M262.962 86.2999C262.208 87.6878 260.936 88.7211 259.422 89.1744C257.412 89.762 256.385 87.9708 256.923 86.0662C257.412 84.3529 259.047 81.9811 261.058 82.2289C263.069 82.4767 263.862 84.5936 262.962 86.2999Z" fill="#FF8B7B"/>
<path d="M202.783 203.444L195.234 203.992L195.286 204.698L202.834 204.151L202.783 203.444Z" fill="#43A7FF"/>
<path d="M209.559 202.958L205.852 203.227L205.903 203.933L209.61 203.664L209.559 202.958Z" fill="#43A7FF"/>
<path d="M241.919 119.6L116.915 128.613C114.313 128.816 111.896 130.037 110.189 132.01C108.482 133.984 107.622 136.551 107.795 139.155L112.043 198.075C112.245 200.68 113.467 203.101 115.444 204.81C117.421 206.519 119.992 207.379 122.6 207.201L129.68 206.691C130.194 206.654 130.702 206.823 131.092 207.16C131.483 207.497 131.723 207.975 131.761 208.49L132.554 219.407C132.567 219.618 132.643 219.821 132.772 219.989C132.901 220.157 133.077 220.283 133.278 220.349C133.479 220.416 133.696 220.422 133.9 220.365C134.104 220.308 134.286 220.191 134.423 220.03L146.275 206.33C146.774 205.756 147.478 205.403 148.236 205.346L247.583 198.188C250.186 197.987 252.604 196.767 254.313 194.793C256.022 192.819 256.883 190.251 256.709 187.646L252.461 128.726C252.26 126.123 251.04 123.705 249.066 121.996C247.092 120.287 244.524 119.426 241.919 119.6Z" fill="#43A7FF"/>
<path opacity="0.2" d="M117.133 128.86C114.532 129.063 112.115 130.284 110.408 132.257C108.7 134.231 107.84 136.798 108.014 139.402L112.262 198.322C112.463 200.928 113.685 203.348 115.662 205.057C117.639 206.766 120.211 207.626 122.818 207.448L123.859 207.37C125.588 207.245 127.228 206.553 128.524 205.401C129.819 204.249 130.698 202.701 131.024 200.998L145.262 126.828L117.133 128.86Z" fill="black"/>
<path d="M115.401 109.452C115.369 110.488 115.424 111.525 115.564 112.553C109.148 114.695 102.307 115.237 95.6337 114.132C95.9541 112.921 96.1486 111.68 96.2143 110.429C95.9911 111.688 95.5528 112.9 94.9187 114.011C93.6584 113.77 92.9504 113.565 92.9504 113.565C92.9504 113.565 94.239 106.598 91.9167 101.529C89.5945 96.4599 90.7556 93.6279 92.5115 92.8278C95.7683 82.8167 108.01 84.3955 112.151 88.4595C117.405 93.6137 117.433 108.135 118.368 111.455C117.596 111.788 116.838 112.093 116.081 112.362C115.701 111.434 115.472 110.452 115.401 109.452Z" fill="#263238"/>
<path d="M120.473 125.031L121.11 127.049C121.343 127.757 121.577 128.465 121.818 129.138C122.292 130.554 122.788 131.97 123.319 133.329C123.85 134.688 124.36 136.119 124.912 137.506L125.733 139.63L125.938 140.154L125.988 140.274C125.9 140.198 125.8 140.138 125.691 140.097C125.535 140.041 125.471 140.097 125.57 140.097C125.741 140.097 125.91 140.071 126.073 140.02C126.627 139.844 127.159 139.607 127.659 139.312C128.866 138.608 130.021 137.818 131.114 136.947C132.261 136.055 133.387 135.099 134.491 134.115C135.595 133.131 136.707 132.104 137.776 131.099L139.95 132.94C139.043 134.242 138.088 135.432 137.118 136.642C136.148 137.853 135.057 138.986 133.939 140.112C132.787 141.287 131.534 142.358 130.193 143.312C129.426 143.849 128.603 144.3 127.737 144.657C127.187 144.877 126.611 145.025 126.023 145.096C125.225 145.195 124.415 145.086 123.673 144.777C122.863 144.432 122.174 143.856 121.69 143.121C121.584 142.958 121.485 142.795 121.407 142.646L121.216 142.264L120.961 141.747C120.628 141.039 120.253 140.331 119.963 139.666C119.319 138.25 118.674 136.834 118.087 135.418C117.499 134.002 116.926 132.543 116.38 131.085C116.125 130.377 115.871 129.605 115.63 128.862C115.389 128.118 115.156 127.389 114.922 126.518L120.473 125.031Z" fill="#FFC3BD"/>
<path d="M118.791 118.748C121.234 119.371 122.94 129.411 122.94 129.411L116.214 133.984C116.214 133.984 109.771 123.853 111.647 121.169C113.601 118.38 115.23 117.842 118.791 118.748Z" fill="#106FA4"/>
<path d="M118.791 118.748C121.234 119.371 122.94 129.411 122.94 129.411L116.214 133.984C116.214 133.984 109.771 123.853 111.647 121.169C113.601 118.38 115.23 117.842 118.791 118.748Z" fill="#106FA4"/>
<path opacity="0.4" d="M118.791 118.748C121.234 119.371 122.94 129.411 122.94 129.411L116.214 133.984C116.214 133.984 109.771 123.853 111.647 121.169C113.601 118.38 115.23 117.842 118.791 118.748Z" fill="white"/>
<path opacity="0.3" d="M118.569 120.992L120.445 131.11L116.664 133.672L118.569 120.992Z" fill="black"/>
<path d="M137.656 131.347L139.901 125.938L142.669 131.347C142.669 131.347 140.871 134.037 138.499 133.379L137.656 131.347Z" fill="#FFC3BD"/>
<path d="M142.376 125.375L145.931 126.805L142.674 131.343L139.898 125.934L142.376 125.375Z" fill="#FFC3BD"/>
<path d="M105.586 287.761H111.512L111.908 274.047H105.982L105.586 287.761Z" fill="#FFC3BD"/>
<path d="M65.8516 270.1L71.2961 272.423L78.4256 260.557L72.974 258.234L65.8516 270.1Z" fill="#FFC3BD"/>
<path d="M72.3453 271.612L66.6813 268.129C66.5844 268.067 66.468 268.042 66.3543 268.061C66.2407 268.079 66.1377 268.139 66.0653 268.228L62.6598 272.313C62.5751 272.42 62.5142 272.544 62.4813 272.676C62.4484 272.809 62.4443 272.947 62.4691 273.081C62.4939 273.215 62.5471 273.342 62.6252 273.454C62.7033 273.566 62.8044 273.66 62.9218 273.729C64.9184 274.912 65.9379 275.379 68.43 276.908C69.9664 277.857 72.1046 279.386 74.2215 280.689C76.3384 281.992 77.7615 279.981 76.9756 279.237C73.5418 275.959 73.6409 274.402 72.9966 272.462C72.8895 272.109 72.6581 271.807 72.3453 271.612Z" fill="#263238"/>
<path d="M111.709 287.07H105.061C104.946 287.069 104.835 287.109 104.748 287.183C104.661 287.258 104.604 287.361 104.587 287.474L103.829 292.741C103.811 292.877 103.822 293.014 103.861 293.144C103.901 293.275 103.969 293.395 104.06 293.497C104.151 293.598 104.263 293.679 104.388 293.733C104.513 293.787 104.648 293.814 104.785 293.81C107.107 293.775 108.226 293.633 111.157 293.633C112.955 293.633 116.679 293.825 119.164 293.825C121.649 293.825 121.777 291.368 120.743 291.141C116.106 290.143 114.279 288.77 112.714 287.46C112.437 287.213 112.08 287.074 111.709 287.07Z" fill="#263238"/>
<path opacity="0.2" d="M111.898 274.055L111.699 281.121H105.773L105.979 274.055H111.898Z" fill="black"/>
<path opacity="0.2" d="M72.9714 258.234L78.4159 260.55L74.7414 266.667L69.2969 264.344L72.9714 258.234Z" fill="black"/>
<path d="M118.793 118.751C118.793 118.751 121.625 119.742 115.961 154.484H91.8886C92.2922 144.699 92.3063 138.667 87.6406 118.581C91.0066 117.885 94.4187 117.436 97.85 117.236C101.487 116.973 105.138 116.973 108.774 117.236C113.476 117.661 118.793 118.751 118.793 118.751Z" fill="#106FA4"/>
<path opacity="0.4" d="M118.793 118.751C118.793 118.751 121.625 119.742 115.961 154.484H91.8886C92.2922 144.699 92.3063 138.667 87.6406 118.581C91.0066 117.885 94.4187 117.436 97.85 117.236C101.487 116.973 105.138 116.973 108.774 117.236C113.476 117.661 118.793 118.751 118.793 118.751Z" fill="white"/>
<path d="M97.8624 117.223C101.499 116.967 105.15 116.967 108.787 117.223C109.374 117.279 109.976 117.343 110.571 117.414C110.818 117.786 110.977 118.21 111.035 118.653C111.093 119.096 111.048 119.547 110.904 119.97C110.132 121.874 107.364 122.094 105.353 122.094C97.912 122.094 96.6516 117.747 96.6021 117.563L96.5312 117.301L97.8624 117.223Z" fill="white"/>
<path d="M98.9426 104.938C99.6506 108.478 100.323 114.892 97.8594 117.235C97.8594 117.235 98.8223 120.775 105.35 120.775C112.529 120.775 108.784 117.235 108.784 117.235C104.861 116.301 104.968 113.391 105.647 110.665L98.9426 104.938Z" fill="#FFC3BD"/>
<path d="M99.6618 102.438C98.8193 105.22 99.9875 111.804 101.722 114.353C98.3025 112.392 97.1484 106.416 97.1484 106.416L99.6618 102.438Z" fill="#263238"/>
<path opacity="0.2" d="M101.676 107.273L105.647 110.658C105.473 111.292 105.359 111.942 105.308 112.598C103.814 112.378 101.768 110.736 101.598 109.171C101.51 108.539 101.536 107.896 101.676 107.273Z" fill="black"/>
<path d="M95.7021 98.6613C97.0757 104.375 97.5288 106.825 100.97 109.281C106.145 112.97 112.864 110.039 113.225 104.028C113.551 98.6188 111.257 90.1865 105.203 88.8838C103.87 88.5893 102.483 88.6406 101.174 89.0327C99.8661 89.4249 98.6797 90.1449 97.7278 91.1245C96.7759 92.104 96.0901 93.3106 95.7356 94.6297C95.3811 95.9487 95.3696 97.3365 95.7021 98.6613Z" fill="#FFC3BD"/>
<path d="M115.964 154.483C115.964 154.483 120.63 200.092 120.212 218.146C119.809 236.922 112.927 279.742 112.927 279.742H104.927C104.927 279.742 106.194 238.006 105.486 219.562C104.714 199.455 98.3281 154.469 98.3281 154.469L115.964 154.483Z" fill="#106FA4"/>
<path opacity="0.4" d="M115.964 154.483C115.964 154.483 120.63 200.092 120.212 218.146C119.809 236.922 112.927 279.742 112.927 279.742H104.927C104.927 279.742 106.194 238.006 105.486 219.562C104.714 199.455 98.3281 154.469 98.3281 154.469L115.964 154.483Z" fill="black"/>
<path d="M104.259 280.035H113.647L114.341 277.04L103.82 276.672L104.259 280.035Z" fill="#106FA4"/>
<path opacity="0.2" d="M105.596 165.83C111.501 177.71 106.778 199.382 104.69 207.446C103.621 195.34 101.815 180.542 100.406 169.66C101.298 163.543 102.87 160.35 105.596 165.83Z" fill="black"/>
<path d="M109.613 154.477C109.613 154.477 104.161 201.913 100.048 217.113C95.1696 235.189 76.5988 265.965 76.5988 265.965L69.1719 262.808C69.1719 262.808 80.6627 227.861 84.401 218.338C92.366 198.019 85.5479 167.737 91.9128 154.477H109.613Z" fill="#106FA4"/>
<path opacity="0.4" d="M109.613 154.477C109.613 154.477 104.161 201.913 100.048 217.113C95.1696 235.189 76.5988 265.965 76.5988 265.965L69.1719 262.808C69.1719 262.808 80.6627 227.861 84.401 218.338C92.366 198.019 85.5479 167.737 91.9128 154.477H109.613Z" fill="black"/>
<path d="M68.1406 262.832L77.3588 266.755L79.5748 264.277L68.9407 259.172L68.1406 262.832Z" fill="#106FA4"/>
<path d="M104.784 98.734C104.869 99.2013 105.181 99.5412 105.492 99.4845C105.804 99.4279 105.981 99.0031 105.896 98.5358C105.811 98.0685 105.499 97.7287 105.188 97.7782C104.876 97.8278 104.664 98.2597 104.784 98.734Z" fill="#263238"/>
<path d="M110.068 97.8043C110.145 98.2716 110.464 98.6115 110.776 98.5548C111.087 98.4982 111.271 98.0734 111.186 97.6061C111.101 97.1388 110.79 96.799 110.478 96.8486C110.167 96.8981 109.983 97.33 110.068 97.8043Z" fill="#263238"/>
<path d="M110.344 96.906L111.413 96.375C111.413 96.375 110.988 97.3591 110.344 96.906Z" fill="#263238"/>
<path d="M108.797 98.8594C109.405 99.8586 110.148 100.769 111.006 101.564C110.796 101.777 110.542 101.941 110.262 102.046C109.982 102.151 109.683 102.195 109.385 102.173L108.797 98.8594Z" fill="#ED847E"/>
<path d="M107.252 104.385C107.521 104.385 107.788 104.361 108.052 104.314C108.073 104.314 108.092 104.308 108.11 104.299C108.128 104.29 108.144 104.277 108.157 104.262C108.17 104.246 108.179 104.227 108.184 104.208C108.189 104.188 108.19 104.168 108.186 104.148C108.182 104.128 108.175 104.109 108.163 104.092C108.152 104.076 108.137 104.062 108.119 104.051C108.102 104.041 108.083 104.034 108.062 104.032C108.042 104.03 108.022 104.032 108.003 104.038C107.42 104.154 106.818 104.131 106.245 103.97C105.673 103.809 105.147 103.514 104.711 103.111C104.684 103.085 104.649 103.07 104.611 103.07C104.574 103.07 104.539 103.085 104.512 103.111C104.499 103.123 104.488 103.139 104.48 103.156C104.473 103.173 104.469 103.191 104.469 103.21C104.469 103.229 104.473 103.247 104.48 103.264C104.488 103.281 104.499 103.296 104.512 103.309C105.251 104.01 106.234 104.396 107.252 104.385Z" fill="#263238"/>
<path d="M97.7071 95.3133C97.862 96.8189 98.0983 98.315 98.4151 99.795C98.4151 99.795 101.955 95.3133 102.543 92.9132C102.402 93.8581 102.128 94.7783 101.729 95.6461C101.729 95.6461 106.493 94.6053 106.961 91.4618C106.953 92.8691 106.796 94.2716 106.493 95.6461C106.493 95.6461 111.039 93.8619 110.621 90.8458C110.203 87.8298 103.222 86.6615 100.001 87.6811C96.7797 88.7006 93.629 92.007 94.5778 96.5523C95.5265 101.098 97.3461 102.804 97.3461 102.804C97.3461 102.804 96.0362 98.2232 97.7071 95.3133Z" fill="#263238"/>
<path d="M95.4555 102.97C95.8925 104.019 96.7276 104.852 97.7777 105.285C99.1937 105.852 100.036 104.641 99.7884 103.239C99.569 101.972 98.5707 100.16 97.1051 100.188C96.7844 100.202 96.4723 100.296 96.197 100.461C95.9217 100.626 95.6918 100.857 95.528 101.133C95.3643 101.409 95.272 101.722 95.2593 102.042C95.2466 102.363 95.3141 102.682 95.4555 102.97Z" fill="#FFC3BD"/>
<path d="M98.563 93.1328C97.855 95.9648 99.3276 102.478 101.183 104.935C97.6426 103.144 96.2266 97.2251 96.2266 97.2251L98.563 93.1328Z" fill="#263238"/>
<path d="M102.846 97.1291C102.882 97.1181 102.916 97.0999 102.945 97.0756C102.974 97.0513 102.998 97.0213 103.016 96.9875C103.165 96.6681 103.388 96.3887 103.666 96.1721C103.944 95.9555 104.27 95.8079 104.616 95.7414C104.689 95.7309 104.756 95.6927 104.802 95.6348C104.848 95.5769 104.87 95.5036 104.864 95.4299C104.86 95.3929 104.849 95.357 104.832 95.3243C104.814 95.2916 104.79 95.2629 104.761 95.2397C104.732 95.2166 104.698 95.1996 104.662 95.1897C104.626 95.1798 104.589 95.1772 104.552 95.1821C104.113 95.2583 103.698 95.439 103.344 95.7088C102.989 95.9786 102.704 96.3298 102.513 96.7326C102.489 96.7819 102.48 96.837 102.486 96.8914C102.493 96.9458 102.515 96.9971 102.551 97.039C102.586 97.081 102.633 97.1118 102.685 97.1278C102.737 97.1438 102.793 97.1443 102.846 97.1291Z" fill="#263238"/>
<path d="M112.003 94.9314C112.039 94.933 112.074 94.9268 112.107 94.9134C112.14 94.8999 112.17 94.8795 112.194 94.8536C112.246 94.8006 112.275 94.7295 112.275 94.6553C112.275 94.5812 112.246 94.51 112.194 94.4571C111.893 94.1303 111.518 93.8793 111.101 93.7243C110.684 93.5693 110.236 93.5147 109.794 93.565C109.757 93.5718 109.722 93.5858 109.691 93.6063C109.66 93.6267 109.633 93.6532 109.612 93.6841C109.591 93.7151 109.576 93.7499 109.568 93.7866C109.561 93.8232 109.561 93.861 109.568 93.8978C109.583 93.9694 109.626 94.0322 109.686 94.0731C109.747 94.1141 109.821 94.1299 109.893 94.1173C110.242 94.0783 110.595 94.1221 110.923 94.2451C111.252 94.3681 111.547 94.5669 111.784 94.8253C111.81 94.8582 111.844 94.8848 111.882 94.9032C111.919 94.9215 111.961 94.9312 112.003 94.9314Z" fill="#263238"/>
<path d="M90.5716 126.976C89.5874 130.084 88.6458 133.348 87.8458 136.563C87.0405 139.736 86.4515 142.96 86.0828 146.213L86.0262 146.807C86.0262 146.999 86.0262 147.041 86.0262 147.211C86.034 147.545 86.06 147.878 86.1041 148.209C86.1943 148.985 86.3242 149.755 86.4935 150.517C86.8262 152.096 87.2015 153.725 87.6829 155.339C88.1644 156.953 88.575 158.596 89.0564 160.224L90.4725 165.109L87.8458 166.192C86.2315 163.106 84.8297 159.962 83.5199 156.719C82.8898 155.091 82.2738 153.448 81.764 151.714C81.5092 150.85 81.2684 149.965 81.056 149.002C80.9552 148.492 80.8844 147.977 80.8438 147.459C80.8438 147.197 80.8438 146.807 80.8438 146.574V145.866C80.9037 144.062 81.0692 142.263 81.3392 140.478C81.5729 138.708 81.9198 136.98 82.295 135.26C83.0317 131.814 83.9775 128.417 85.127 125.086L90.5716 126.976Z" fill="#FFC3BD"/>
<path d="M87.6466 118.578C85.2394 119.286 82.3438 127.605 82.3438 127.605L91.6892 134.288C91.6892 134.288 95.1018 127.364 94.0894 124.249C93.0344 121.006 90.4007 117.742 87.6466 118.578Z" fill="#106FA4"/>
<path opacity="0.4" d="M87.6466 118.578C85.2394 119.286 82.3438 127.605 82.3438 127.605L91.6892 134.288C91.6892 134.288 95.1018 127.364 94.0894 124.249C93.0344 121.006 90.4007 117.742 87.6466 118.578Z" fill="white"/>
<path d="M74.7435 273.868C74.8586 273.827 74.9633 273.762 75.0502 273.676C75.1371 273.59 75.204 273.486 75.2461 273.372C75.2871 273.298 75.3085 273.215 75.3085 273.131C75.3085 273.047 75.2871 272.964 75.2461 272.89C74.8213 272.267 72.6761 272.317 72.4141 272.324C72.387 272.325 72.3605 272.333 72.338 272.348C72.3154 272.363 72.2976 272.384 72.2867 272.409C72.2729 272.431 72.2656 272.457 72.2656 272.483C72.2656 272.51 72.2729 272.535 72.2867 272.558C72.846 273.117 73.8939 274.03 74.6302 273.889L74.7435 273.868ZM72.754 272.579C73.6107 272.579 74.7576 272.699 74.9842 273.032C75.0036 273.064 75.0138 273.101 75.0138 273.138C75.0138 273.176 75.0036 273.212 74.9842 273.244C74.9529 273.33 74.901 273.406 74.833 273.467C74.7651 273.527 74.6833 273.57 74.5948 273.591C74.2054 273.691 73.5257 273.287 72.754 272.579Z" fill="#106FA4"/>
<path d="M73.3749 272.426C74.0263 272.221 74.7201 271.859 74.8688 271.456C74.9057 271.351 74.9063 271.237 74.8703 271.131C74.8343 271.026 74.764 270.936 74.6706 270.875C74.5881 270.807 74.4911 270.757 74.3868 270.732C74.2825 270.706 74.1738 270.704 74.0688 270.727C73.2262 270.875 72.32 272.32 72.2846 272.383C72.2722 272.405 72.2656 272.429 72.2656 272.454C72.2656 272.479 72.2722 272.503 72.2846 272.525C72.2973 272.546 72.315 272.563 72.3359 272.575C72.3569 272.588 72.3806 272.595 72.405 272.596C72.7348 272.586 73.0615 272.529 73.3749 272.426ZM74.0263 271.01H74.1183C74.1849 270.996 74.2537 270.997 74.3198 271.013C74.3859 271.029 74.4477 271.059 74.5006 271.102C74.6422 271.215 74.6281 271.3 74.6068 271.364C74.4652 271.753 73.3891 272.221 72.674 272.313C72.9993 271.768 73.4668 271.323 74.0263 271.024V271.01Z" fill="#106FA4"/>
<path d="M113.936 288.103C114.435 288.144 114.934 288.017 115.352 287.742C115.449 287.654 115.524 287.543 115.568 287.42C115.612 287.296 115.626 287.164 115.607 287.034C115.601 286.957 115.576 286.883 115.534 286.819C115.492 286.754 115.434 286.702 115.366 286.666C114.658 286.269 112.287 287.473 112.017 287.607C111.992 287.618 111.969 287.636 111.954 287.659C111.938 287.683 111.93 287.71 111.93 287.738C111.93 287.766 111.938 287.794 111.954 287.817C111.969 287.84 111.992 287.859 112.017 287.869C112.648 288.012 113.29 288.09 113.936 288.103ZM114.991 286.878C115.081 286.872 115.171 286.889 115.253 286.928C115.281 286.943 115.304 286.965 115.32 286.993C115.337 287.02 115.345 287.052 115.345 287.083C115.358 287.165 115.351 287.248 115.324 287.326C115.297 287.404 115.25 287.474 115.189 287.529C114.828 287.855 113.851 287.912 112.541 287.692C113.306 287.284 114.134 287.009 114.991 286.878Z" fill="#106FA4"/>
<path d="M112.103 287.903H112.159C112.867 287.584 114.283 286.31 114.156 285.637C114.156 285.474 114.014 285.283 113.625 285.241C113.485 285.225 113.344 285.238 113.21 285.28C113.076 285.321 112.952 285.39 112.846 285.481C112.138 286.104 111.968 287.697 111.961 287.761C111.96 287.786 111.966 287.811 111.977 287.833C111.988 287.855 112.004 287.874 112.025 287.889C112.048 287.903 112.076 287.908 112.103 287.903ZM113.519 285.503H113.604C113.858 285.503 113.88 285.637 113.88 285.665C113.951 286.069 113.002 287.082 112.28 287.513C112.336 286.841 112.601 286.202 113.037 285.687C113.167 285.569 113.336 285.503 113.512 285.503H113.519Z" fill="#106FA4"/>
<path d="M91.5584 153.068L90.9496 155.192C90.8646 155.355 91.0628 155.525 91.339 155.525H116.119C116.338 155.525 116.515 155.419 116.53 155.284L116.749 153.16C116.749 153.012 116.572 152.884 116.338 152.884H91.9549C91.8786 152.878 91.802 152.892 91.7326 152.924C91.6631 152.957 91.6032 153.006 91.5584 153.068Z" fill="#263238"/>
<path d="M94.8236 155.786H94.1651C94.0377 155.786 93.9386 155.722 93.9457 155.637L94.2501 152.805C94.2501 152.727 94.3775 152.656 94.505 152.656H95.1563C95.2909 152.656 95.3829 152.727 95.3758 152.805L95.0714 155.637C95.0714 155.75 94.9581 155.786 94.8236 155.786Z" fill="#106FA4"/>
<path opacity="0.4" d="M94.8236 155.786H94.1651C94.0377 155.786 93.9386 155.722 93.9457 155.637L94.2501 152.805C94.2501 152.727 94.3775 152.656 94.505 152.656H95.1563C95.2909 152.656 95.3829 152.727 95.3758 152.805L95.0714 155.637C95.0714 155.75 94.9581 155.786 94.8236 155.786Z" fill="black"/>
<path d="M114.246 155.786H113.595C113.467 155.786 113.368 155.722 113.375 155.637L113.687 152.805C113.687 152.727 113.807 152.656 113.935 152.656H114.586C114.721 152.656 114.82 152.727 114.806 152.805L114.501 155.637C114.494 155.75 114.381 155.786 114.246 155.786Z" fill="#106FA4"/>
<path opacity="0.4" d="M114.246 155.786H113.595C113.467 155.786 113.368 155.722 113.375 155.637L113.687 152.805C113.687 152.727 113.807 152.656 113.935 152.656H114.586C114.721 152.656 114.82 152.727 114.806 152.805L114.501 155.637C114.494 155.75 114.381 155.786 114.246 155.786Z" fill="black"/>
<path d="M104.536 155.786H103.885C103.75 155.786 103.651 155.722 103.665 155.637L103.97 152.805C103.97 152.727 104.09 152.656 104.225 152.656H104.876C105.004 152.656 105.103 152.727 105.096 152.805L104.791 155.637C104.784 155.75 104.664 155.786 104.536 155.786Z" fill="#106FA4"/>
<path opacity="0.4" d="M104.536 155.786H103.885C103.75 155.786 103.651 155.722 103.665 155.637L103.97 152.805C103.97 152.727 104.09 152.656 104.225 152.656H104.876C105.004 152.656 105.103 152.727 105.096 152.805L104.791 155.637C104.784 155.75 104.664 155.786 104.536 155.786Z" fill="black"/>
<path d="M105.023 97.8364L106.093 97.3125C106.093 97.3125 105.668 98.2966 105.023 97.8364Z" fill="#263238"/>
<path d="M90.2804 164.32L95.3567 168.214L89.4733 169.51C89.4733 169.51 86.974 166.678 87.8378 164.342L90.2804 164.32Z" fill="#FFC3BD"/>
<path d="M96.6015 173.032L91.6172 173.847L88.8984 168.735L95.3554 168.211L96.6015 173.032Z" fill="#FFC3BD"/>
</g>
<g clip-path="url(#clip1_79_1786)">
<path d="M163.782 153.447L169.583 152.843L172.192 177.908L166.391 178.511L163.782 153.447ZM155.005 179.697L149.204 180.3L146.595 155.236L152.396 154.632L155.005 179.697ZM165.751 168.19L153.505 169.465L152.995 164.559L165.241 163.285L165.751 168.19Z" fill="white"/>
<path d="M189.544 176.101L189.153 172.342L188.709 171.555L188.008 164.824C187.884 163.63 187.417 162.738 186.608 162.146C185.822 161.553 184.677 161.334 183.173 161.49C182.147 161.597 181.15 161.87 180.182 162.308C179.236 162.721 178.445 163.237 177.81 163.859L175.398 160.164C176.372 159.315 177.577 158.61 179.015 158.05C180.453 157.491 181.935 157.131 183.463 156.972C186.399 156.666 188.751 157.121 190.518 158.337C192.286 159.553 193.322 161.628 193.628 164.565L194.772 175.557L189.544 176.101ZM183.702 176.999C182.198 177.156 180.883 177.039 179.757 176.65C178.628 176.236 177.731 175.618 177.066 174.794C176.401 173.971 176.012 173.01 175.897 171.912C175.778 170.766 175.948 169.735 176.408 168.818C176.891 167.899 177.717 167.138 178.885 166.534C180.05 165.906 181.611 165.49 183.569 165.286L188.689 164.753L189.028 168.011L184.516 168.481C183.203 168.618 182.319 168.927 181.862 169.409C181.43 169.888 181.247 170.45 181.314 171.095C181.388 171.811 181.722 172.355 182.316 172.728C182.931 173.074 183.728 173.196 184.707 173.094C185.638 172.997 186.451 172.695 187.146 172.189C187.839 171.658 188.308 170.946 188.553 170.052L189.68 172.54C189.404 173.824 188.762 174.844 187.755 175.6C186.748 176.356 185.397 176.823 183.702 176.999Z" fill="white"/>
<path d="M199.828 175.031L197.062 148.462L202.648 147.881L205.413 174.449L199.828 175.031Z" fill="white"/>
<path d="M219.794 173.242C217.741 173.456 215.87 173.216 214.181 172.523C212.516 171.828 211.141 170.789 210.056 169.406C208.993 167.996 208.361 166.337 208.163 164.427C207.961 162.493 208.237 160.739 208.99 159.165C209.765 157.564 210.896 156.264 212.385 155.265C213.895 154.239 215.676 153.619 217.729 153.405C219.758 153.194 221.617 153.435 223.306 154.128C224.992 154.797 226.366 155.824 227.427 157.21C228.488 158.595 229.121 160.267 229.324 162.224C229.523 164.134 229.247 165.888 228.497 167.486C227.744 169.061 226.612 170.361 225.102 171.387C223.592 172.412 221.823 173.031 219.794 173.242ZM219.317 168.659C220.248 168.562 221.061 168.26 221.756 167.753C222.451 167.247 222.973 166.577 223.321 165.745C223.666 164.888 223.781 163.911 223.667 162.813C223.55 161.691 223.236 160.759 222.724 160.016C222.213 159.273 221.564 158.725 220.78 158.372C219.995 158.02 219.137 157.892 218.206 157.989C217.275 158.085 216.462 158.387 215.767 158.894C215.071 159.401 214.538 160.071 214.166 160.906C213.819 161.739 213.703 162.716 213.82 163.838C213.934 164.936 214.249 165.869 214.763 166.636C215.298 167.376 215.959 167.923 216.743 168.275C217.528 168.628 218.386 168.756 219.317 168.659Z" fill="white"/>
<path d="M233.549 162.726L230.735 146.477L237.395 145.784L237.989 162.263L233.549 162.726ZM236.704 171.482C235.702 171.586 234.845 171.35 234.133 170.772C233.421 170.195 233.02 169.464 232.928 168.581C232.833 167.674 233.077 166.889 233.66 166.225C234.24 165.537 235.031 165.141 236.033 165.037C237.06 164.93 237.916 165.154 238.601 165.71C239.308 166.24 239.708 166.959 239.803 167.866C239.895 168.749 239.652 169.546 239.074 170.258C238.521 170.967 237.731 171.375 236.704 171.482Z" fill="white"/>
</g>
</g>
<defs>
<clipPath id="clip0_79_1786">
<rect width="354" height="354" fill="white"/>
</clipPath>
<clipPath id="clip1_79_1786">
<rect width="93" height="32" fill="white" transform="translate(146.286 149.25) rotate(-2.75059)"/>
</clipPath>
</defs>
</svg>
