<svg width="316" height="43" viewBox="0 0 316 43" fill="none" xmlns="http://www.w3.org/2000/svg">
<path fill-rule="evenodd" clip-rule="evenodd" d="M17.7391 0.209223C0.0419311 1.03336 -1.96161 2.18699 3.04703 8.28562C8.55647 15.0435 20.0765 16.6923 109.564 19.4944C6.21925 21.4722 -3.29732 23.7797 0.876537 31.5266C6.21908 41.2515 40.4448 40.2625 207.065 40.5922C256.984 40.757 284.699 43.5591 298.89 42.8997C318.591 41.9108 313.749 34.3287 305.568 30.8673L310.076 30.0432C321.93 27.9004 314.751 14.3847 299.558 10.4289C286.201 6.96749 209.402 3.34095 135.442 2.68164C37.6067 2.02233 37.9406 -0.779743 17.7391 0.209223Z" fill="#FBCB50"/>
</svg>
