<svg width="1926" height="811" viewBox="0 0 1926 811" fill="none" xmlns="http://www.w3.org/2000/svg">
<g filter="url(#filter0_d_2323_87008)">
<path d="M1155.11 79.2106L1156.87 80.989L1155.11 79.2106ZM466.143 322.307L466.825 319.902C466.733 319.876 466.639 319.855 466.545 319.84L466.143 322.307ZM151.779 498.377L153.536 496.599L151.779 498.377ZM7.51562 785.546C6.16467 785.261 4.8385 786.126 4.55371 787.477C4.26892 788.828 5.13318 790.154 6.48413 790.439L7.51562 785.546ZM1921.26 624.86C1920.21 622.645 1919.16 620.417 1918.09 618.176L1913.57 620.331C1914.64 622.565 1915.7 624.787 1916.74 626.996L1921.26 624.86ZM1911.53 604.59C1909.34 600.102 1907.11 595.57 1904.84 590.997L1900.36 593.224C1902.63 597.785 1904.85 602.305 1907.04 606.781L1911.53 604.59ZM1898.09 577.553C1895.81 573.074 1893.51 568.56 1891.16 564.014L1886.72 566.308C1889.06 570.843 1891.36 575.346 1893.63 579.813L1898.09 577.553ZM1884.23 550.715C1881.89 546.254 1879.51 541.765 1877.09 537.251L1872.68 539.609C1875.09 544.112 1877.47 548.59 1879.81 553.041L1884.23 550.715ZM1869.98 524.065C1867.59 519.657 1865.16 515.228 1862.7 510.781L1858.32 513.201C1860.78 517.637 1863.2 522.056 1865.59 526.453L1869.98 524.065ZM1855.35 497.6C1852.9 493.242 1850.42 488.868 1847.92 484.482L1843.58 486.962C1846.08 491.338 1848.55 495.701 1850.99 500.049L1855.35 497.6ZM1840.34 471.329C1837.84 467.016 1835.31 462.692 1832.75 458.36L1828.45 460.901C1831 465.223 1833.52 469.536 1836.02 473.839L1840.34 471.329ZM1825.01 445.342C1822.43 441.045 1819.83 436.741 1817.21 432.434L1812.94 435.035C1815.56 439.333 1818.15 443.626 1820.72 447.913L1825.01 445.342ZM1809.31 419.575C1806.66 415.293 1803.98 411.009 1801.29 406.725L1797.05 409.388C1799.74 413.662 1802.41 417.936 1805.06 422.207L1809.31 419.575ZM1793.22 394.009C1790.5 389.772 1787.77 385.536 1785.02 381.303L1780.83 384.03C1783.57 388.252 1786.3 392.477 1789 396.704L1793.22 394.009ZM1776.73 368.676C1773.96 364.485 1771.17 360.299 1768.35 356.121L1764.21 358.913C1767.01 363.08 1769.8 367.255 1772.56 371.435L1776.73 368.676ZM1759.86 343.608C1757.01 339.46 1754.15 335.32 1751.28 331.192L1747.17 334.052C1750.04 338.169 1752.9 342.297 1755.73 346.434L1759.86 343.608ZM1742.58 318.839C1739.67 314.732 1736.73 310.637 1733.78 306.556L1729.73 309.487C1732.67 313.555 1735.6 317.638 1738.51 321.734L1742.58 318.839ZM1724.87 294.354C1721.88 290.302 1718.88 286.266 1715.86 282.248L1711.86 285.253C1714.87 289.258 1717.87 293.282 1720.85 297.322L1724.87 294.354ZM1706.71 270.201C1703.64 266.201 1700.55 262.221 1697.45 258.263L1693.52 261.346C1696.61 265.291 1699.68 269.258 1702.74 273.244L1706.71 270.201ZM1688.08 246.427C1684.92 242.479 1681.75 238.555 1678.56 234.657L1674.69 237.823C1677.87 241.707 1681.03 245.617 1684.18 249.551L1688.08 246.427ZM1668.95 223.042C1665.7 219.162 1662.43 215.31 1659.16 211.488L1655.36 214.743C1658.63 218.55 1661.88 222.387 1665.11 226.252L1668.95 223.042ZM1649.25 200.074C1645.92 196.289 1642.58 192.536 1639.22 188.817L1635.51 192.167C1638.85 195.869 1642.18 199.606 1645.49 203.376L1649.25 200.074ZM1628.98 177.62C1625.55 173.924 1622.11 170.266 1618.66 166.647L1615.04 170.099C1618.48 173.7 1621.9 177.341 1625.31 181.02L1628.98 177.62ZM1608.1 155.754C1604.55 152.144 1600.99 148.578 1597.42 145.058L1593.91 148.62C1597.46 152.122 1601.01 155.669 1604.54 159.26L1608.1 155.754ZM1586.58 134.561C1582.9 131.051 1579.2 127.591 1575.49 124.183L1572.11 127.865C1575.79 131.252 1579.47 134.692 1583.13 138.182L1586.58 134.561ZM1564.33 114.119C1560.5 110.734 1556.66 107.406 1552.82 104.138L1549.58 107.95C1553.4 111.195 1557.21 114.501 1561.02 117.864L1564.33 114.119ZM1541.22 94.4985C1537.26 91.287 1533.3 88.1408 1529.33 85.0626L1526.27 89.0145C1530.21 92.0685 1534.14 95.1907 1538.06 98.3786L1541.22 94.4985ZM1517.25 75.9327C1513.16 72.9229 1509.06 69.9872 1504.96 67.1288L1502.1 71.2325C1506.17 74.0649 1510.23 76.9748 1514.28 79.9592L1517.25 75.9327ZM1492.36 58.6227C1488.12 55.8486 1483.87 53.1592 1479.61 50.5577L1477.01 54.8239C1481.22 57.3978 1485.42 60.0598 1489.62 62.8068L1492.36 58.6227ZM1466.47 42.8226C1462.07 40.3279 1457.65 37.9304 1453.23 35.6336L1450.93 40.0706C1455.29 42.3389 1459.65 44.7078 1464.01 47.174L1466.47 42.8226ZM1439.54 28.8554C1434.95 26.6975 1430.36 24.6513 1425.76 22.7209L1423.82 27.3311C1428.35 29.2335 1432.88 31.251 1437.41 33.3799L1439.54 28.8554ZM1411.53 17.1267C1406.76 15.3794 1401.98 13.7604 1397.21 12.2744L1395.72 17.0488C1400.42 18.5096 1405.11 20.1019 1409.81 21.8217L1411.53 17.1267ZM1382.5 8.12689C1377.57 6.87958 1372.63 5.77863 1367.69 4.82898L1366.75 9.73895C1371.59 10.67 1376.43 11.7499 1381.28 12.9744L1382.5 8.12689ZM1352.63 2.40588C1347.58 1.75458 1342.53 1.26685 1337.48 0.947876L1337.17 5.93787C1342.1 6.24988 1347.04 6.72711 1351.99 7.36481L1352.63 2.40588ZM1322.24 0.502991C1317.16 0.529663 1312.09 0.732971 1307.02 1.11829L1307.4 6.10388C1312.35 5.72766 1317.3 5.52899 1322.27 5.50293L1322.24 0.502991ZM1291.85 2.82489C1286.86 3.56989 1281.88 4.49731 1276.9 5.61224L1278 10.4911C1282.85 9.40271 1287.71 8.49731 1292.58 7.77008L1291.85 2.82489ZM1262.07 9.50659C1257.29 10.9498 1252.51 12.5726 1247.75 14.3792L1249.52 19.0542C1254.18 17.2885 1258.84 15.7032 1263.52 14.2937L1262.07 9.50659ZM1233.55 20.3335C1229.05 22.4004 1224.56 24.6367 1220.09 27.046L1222.47 31.4476C1226.84 29.0877 1231.23 26.8987 1235.63 24.8766L1233.55 20.3335ZM1206.73 34.7896C1202.56 37.3819 1198.4 40.1301 1194.25 43.0371L1197.12 47.1315C1201.19 44.2767 1205.28 41.5797 1209.37 39.0373L1206.73 34.7896ZM1181.88 52.2161C1178.01 55.2477 1174.15 58.4221 1170.31 61.7418L1173.58 65.5253C1177.36 62.2567 1181.16 59.1332 1184.96 56.152L1181.88 52.2161ZM1158.98 71.9875C1157.1 73.7664 1155.23 75.5812 1153.35 77.4323L1156.87 80.989C1158.72 79.163 1160.57 77.3734 1162.42 75.6198L1158.98 71.9875ZM1153.35 77.4323C1151.53 79.2367 1149.7 81.0292 1147.87 82.81L1151.36 86.3915C1153.2 84.6025 1155.03 82.8016 1156.87 80.989L1153.35 77.4323ZM1136.89 93.3536C1133.22 96.8354 1129.54 100.27 1125.85 103.659L1129.24 107.339C1132.94 103.934 1136.64 100.483 1140.33 96.9846L1136.89 93.3536ZM1114.53 113.92C1110.75 117.292 1106.97 120.616 1103.19 123.893L1106.47 127.671C1110.27 124.378 1114.07 121.038 1117.86 117.65L1114.53 113.92ZM1091.58 133.805C1087.69 137.073 1083.8 140.291 1079.91 143.46L1083.07 147.336C1086.98 144.151 1090.89 140.917 1094.8 137.633L1091.58 133.805ZM1068.05 152.978C1064.05 156.132 1060.05 159.235 1056.06 162.288L1059.09 166.261C1063.11 163.192 1067.13 160.073 1071.14 156.903L1068.05 152.978ZM1043.93 171.405C1039.82 174.436 1035.72 177.415 1031.63 180.342L1034.53 184.411C1038.65 181.468 1042.77 178.473 1046.9 175.426L1043.93 171.405ZM1019.23 189.049C1015.02 191.948 1010.82 194.794 1006.63 197.588L1009.4 201.75C1013.62 198.941 1017.84 196.079 1022.06 193.164L1019.23 189.049ZM993.954 205.873C989.655 208.632 985.361 211.337 981.071 213.989L983.7 218.242C988.014 215.575 992.332 212.855 996.655 210.081L993.954 205.873ZM968.126 221.838C963.736 224.449 959.352 227.005 954.975 229.506L957.456 233.847C961.858 231.331 966.267 228.761 970.682 226.136L968.126 221.838ZM941.758 236.906C937.283 239.36 932.817 241.758 928.359 244.101L930.685 248.527C935.169 246.17 939.662 243.758 944.163 241.29L941.758 236.906ZM914.873 251.036C910.32 253.326 905.777 255.559 901.246 257.736L903.412 262.243C907.97 260.053 912.54 257.806 917.119 255.503L914.873 251.036ZM887.496 264.189C882.873 266.308 878.263 268.369 873.667 270.373L875.666 274.956C880.29 272.939 884.928 270.866 889.579 268.735L887.496 264.189ZM859.66 276.327C854.975 278.267 850.306 280.149 845.655 281.974L847.481 286.629C852.162 284.792 856.859 282.899 861.573 280.947L859.66 276.327ZM831.4 287.411C826.632 289.178 821.884 290.886 817.156 292.535L818.803 297.256C823.561 295.596 828.339 293.878 833.137 292.1L831.4 287.411ZM802.758 297.404C797.907 298.992 793.079 300.52 788.277 301.99L789.74 306.771C794.573 305.292 799.432 303.754 804.314 302.156L802.758 297.404ZM773.783 306.269C768.853 307.672 763.951 309.013 759.079 310.295L760.352 315.131C765.255 313.84 770.19 312.49 775.152 311.078L773.783 306.269ZM744.386 314.004C739.431 315.202 734.509 316.338 729.623 317.414L730.698 322.297C735.618 321.213 740.573 320.07 745.561 318.864L744.386 314.004ZM714.724 320.536C709.722 321.53 704.759 322.462 699.838 323.334L700.71 328.257C705.665 327.379 710.662 326.441 715.699 325.44L714.724 320.536ZM684.897 325.819C679.825 326.607 674.802 327.331 669.829 327.994L670.49 332.951C675.498 332.283 680.557 331.553 685.664 330.759L684.897 325.819ZM654.775 329.835C649.704 330.398 644.691 330.898 639.737 331.337L640.178 336.317C645.169 335.875 650.22 335.372 655.328 334.804L654.775 329.835ZM624.581 332.505C619.45 332.84 614.388 333.111 609.401 333.319L609.61 338.315C614.636 338.105 619.737 337.832 624.908 337.494L624.581 332.505ZM594.24 333.769C589.104 333.859 584.056 333.882 579.098 333.843L579.059 338.843C584.059 338.882 589.15 338.859 594.327 338.768L594.24 333.769ZM563.976 333.528C558.831 333.352 553.795 333.11 548.873 332.804L548.564 337.795C553.532 338.103 558.614 338.348 563.805 338.525L563.976 333.528ZM533.744 331.643C528.576 331.168 523.554 330.624 518.682 330.018L518.065 334.979C522.99 335.592 528.066 336.142 533.286 336.622L533.744 331.643ZM503.716 327.889C498.533 327.056 493.557 326.151 488.795 325.186L487.802 330.086C492.632 331.065 497.675 331.982 502.923 332.825L503.716 327.889ZM474.006 321.827C471.536 321.201 469.142 320.559 466.825 319.902L465.462 324.713C467.825 325.382 470.264 326.037 472.777 326.674L474.006 321.827ZM466.545 319.84C464.161 319.452 461.755 319.067 459.331 318.685L458.554 323.624C460.97 324.004 463.366 324.388 465.741 324.775L466.545 319.84ZM444.665 316.46C439.84 315.754 434.952 315.064 430.009 314.393L429.336 319.348C434.262 320.016 439.134 320.703 443.942 321.407L444.665 316.46ZM415.376 312.485C410.518 311.877 405.617 311.289 400.682 310.723L400.112 315.691C405.03 316.255 409.914 316.841 414.755 317.447L415.376 312.485ZM385.95 309.113C381.071 308.606 376.167 308.123 371.245 307.665L370.782 312.643C375.686 313.099 380.572 313.581 385.433 314.086L385.95 309.113ZM356.507 306.377C351.595 305.975 346.672 305.602 341.747 305.257L341.398 310.245C346.304 310.588 351.207 310.96 356.099 311.36L356.507 306.377ZM326.984 304.316C322.048 304.032 317.115 303.781 312.194 303.563L311.973 308.558C316.872 308.775 321.782 309.025 326.697 309.308L326.984 304.316ZM297.402 303.011C292.457 302.862 287.531 302.75 282.631 302.677L282.557 307.677C287.43 307.749 292.331 307.861 297.251 308.009L297.402 303.011ZM267.79 302.579C262.81 302.589 257.865 302.642 252.965 302.742L253.067 307.741C257.935 307.642 262.849 307.589 267.8 307.579L267.79 302.579ZM238.179 303.193C233.194 303.397 228.266 303.654 223.403 303.967L223.724 308.957C228.546 308.647 233.435 308.392 238.384 308.189L238.179 303.193ZM208.566 305.115C203.551 305.573 198.62 306.096 193.785 306.689L194.393 311.652C199.174 311.065 204.053 310.547 209.021 310.095L208.566 305.115ZM179.078 308.759C174.078 309.56 169.203 310.446 164.467 311.422L165.476 316.319C170.134 315.359 174.936 314.486 179.868 313.696L179.078 308.759ZM149.983 314.809C145.021 316.12 140.249 317.551 135.688 319.108L137.304 323.84C141.743 322.325 146.401 320.927 151.261 319.643L149.983 314.809ZM121.713 324.587C116.929 326.74 112.458 329.08 108.337 331.619L110.96 335.876C114.875 333.463 119.152 331.223 123.765 329.147L121.713 324.587ZM96.1263 340.674C92.213 344.207 88.8385 348.042 86.0725 352.199L90.2355 354.968C92.7467 351.194 95.8384 347.67 99.4766 344.386L96.1263 340.674ZM79.5236 366.155C78.1152 370.93 77.3829 376.001 77.3687 381.372L82.3687 381.385C82.3817 376.465 83.0515 371.868 84.3193 367.57L79.5236 366.155ZM79.0973 396.576C80.1222 401.212 81.6094 406.034 83.5759 411.046L88.2305 409.22C86.3486 404.423 84.9421 399.852 83.9794 395.497L79.0973 396.576ZM89.8412 424.628C92.0299 428.785 94.5192 433.064 97.3187 437.469L101.539 434.788C98.8053 430.487 96.3854 426.325 94.2654 422.299L89.8412 424.628ZM105.732 449.8C108.582 453.718 111.66 457.731 114.975 461.839L118.866 458.699C115.6 454.651 112.573 450.705 109.776 446.859L105.732 449.8ZM124.311 472.948C127.478 476.575 130.818 480.273 134.337 484.043L137.992 480.631C134.509 476.899 131.206 473.243 128.078 469.659L124.311 472.948ZM144.561 494.691C146.342 496.497 148.163 498.318 150.022 500.156L153.536 496.599C151.692 494.776 149.887 492.97 148.121 491.18L144.561 494.691ZM150.022 500.156C151.871 501.982 153.697 503.799 155.5 505.606L159.04 502.074C157.228 500.259 155.393 498.434 153.536 496.599L150.022 500.156ZM166.054 516.334C169.536 519.927 172.928 523.48 176.229 526.994L179.873 523.57C176.553 520.037 173.144 516.465 169.644 512.854L166.054 516.334ZM186.535 538.155C189.881 541.845 193.125 545.49 196.268 549.09L200.035 545.802C196.87 542.178 193.606 538.509 190.239 534.796L186.535 538.155ZM206.171 560.68C209.382 564.524 212.473 568.314 215.447 572.05L219.359 568.936C216.359 565.168 213.243 561.348 210.008 557.475L206.171 560.68ZM224.732 584.043C227.782 588.099 230.688 592.089 233.453 596.012L237.54 593.132C234.744 589.165 231.808 585.134 228.728 581.038L224.732 584.043ZM241.827 608.348C244.648 612.672 247.29 616.911 249.756 621.066L254.055 618.513C251.551 614.295 248.872 609.997 246.015 605.616L241.827 608.348ZM256.979 633.921C259.375 638.45 261.551 642.871 263.513 647.183L268.064 645.112C266.058 640.704 263.839 636.195 261.399 631.583L256.979 633.921ZM269.205 660.969C270.992 665.814 272.49 670.507 273.71 675.051L278.539 673.754C277.276 669.054 275.732 664.216 273.896 659.239L269.205 660.969ZM276.739 689.426C277.495 694.484 277.874 699.332 277.9 703.975L282.9 703.948C282.873 699.051 282.473 693.965 281.684 688.687L276.739 689.426ZM276.756 718.42C275.919 723.326 274.634 727.969 272.934 732.36L277.597 734.166C279.42 729.457 280.793 724.489 281.685 719.26L276.756 718.42ZM266.339 745.218C263.725 749.229 260.695 752.994 257.277 756.517L260.866 759.999C264.495 756.257 267.729 752.243 270.528 747.948L266.339 745.218ZM246.259 766.101C242.442 768.923 238.319 771.545 233.915 773.973L236.328 778.352C240.911 775.826 245.222 773.086 249.231 770.122L246.259 766.101ZM220.664 780.345C216.243 782.197 211.615 783.893 206.798 785.436L208.323 790.198C213.267 788.614 218.032 786.869 222.597 784.957L220.664 780.345ZM192.527 789.431C187.817 790.575 182.967 791.592 177.99 792.487L178.875 797.408C183.944 796.497 188.893 795.459 193.707 794.29L192.527 789.431ZM163.278 794.731C158.428 795.346 153.482 795.856 148.452 796.264L148.856 801.247C153.958 800.834 158.979 800.316 163.907 799.691L163.278 794.731ZM133.555 797.165C128.65 797.364 123.681 797.474 118.657 797.496L118.679 802.496C123.761 802.473 128.791 802.362 133.758 802.16L133.555 797.165ZM103.759 797.311C98.8289 797.169 93.8575 796.947 88.8546 796.648L88.5565 801.639C93.6095 801.941 98.6322 802.165 103.615 802.309L103.759 797.311ZM73.9603 795.539C69.0233 795.1 64.0651 794.588 59.0939 794.006L58.5128 798.973C63.5291 799.56 68.5333 800.076 73.5171 800.519L73.9603 795.539ZM44.2736 792.07C39.3595 791.361 34.4413 790.586 29.527 789.746L28.6847 794.675C33.6414 795.522 38.6025 796.304 43.5599 797.019L44.2736 792.07ZM14.8336 787.04C12.3909 786.558 9.95129 786.06 7.51562 785.546L6.48413 790.439C8.94067 790.957 11.4012 791.459 13.8649 791.946L14.8336 787.04Z" fill="#FFD601"/>
</g>
<defs>
<filter id="filter0_d_2323_87008" x="0.5" y="0.5" width="1924.76" height="809.992" filterUnits="userSpaceOnUse" color-interpolation-filters="sRGB">
<feFlood flood-opacity="0" result="BackgroundImageFix"/>
<feColorMatrix in="SourceAlpha" type="matrix" values="0 0 0 0 0 0 0 0 0 0 0 0 0 0 0 0 0 0 127 0" result="hardAlpha"/>
<feOffset dy="4"/>
<feGaussianBlur stdDeviation="2"/>
<feComposite in2="hardAlpha" operator="out"/>
<feColorMatrix type="matrix" values="0 0 0 0 0 0 0 0 0 0 0 0 0 0 0 0 0 0 0.25 0"/>
<feBlend mode="normal" in2="BackgroundImageFix" result="effect1_dropShadow_2323_87008"/>
<feBlend mode="normal" in="SourceGraphic" in2="effect1_dropShadow_2323_87008" result="shape"/>
</filter>
</defs>
</svg>
