<svg width="2014" height="811" viewBox="0 0 2014 811" fill="none" xmlns="http://www.w3.org/2000/svg">
<g filter="url(#filter0_d_2323_87008)">
<path d="M1207.95 79.2106L1206.24 77.3932L1207.95 79.2106ZM487.275 322.307L487.929 319.894C487.84 319.87 487.751 319.851 487.66 319.837L487.275 322.307ZM158.443 498.377L156.726 500.195L158.443 498.377ZM7.49385 785.542C6.14036 785.269 4.82198 786.145 4.54918 787.499C4.27638 788.852 5.15246 790.17 6.50595 790.443L7.49385 785.542ZM2007 625.928L2009.24 624.821C2008.16 622.632 2007.07 620.43 2005.96 618.217L2003.72 619.334L2001.49 620.451C2002.59 622.658 2003.68 624.853 2004.76 627.036L2007 625.928ZM1996.96 605.932L1999.19 604.797C1996.93 600.36 1994.62 595.88 1992.27 591.36L1990.05 592.513L1987.83 593.667C1990.18 598.175 1992.48 602.643 1994.73 607.068L1996.96 605.932ZM1983.1 579.263L1985.31 578.093C1982.96 573.664 1980.57 569.202 1978.15 564.707L1975.95 565.894L1973.75 567.081C1976.17 571.565 1978.55 576.016 1980.89 580.433L1983.1 579.263ZM1968.82 552.797L1971.01 551.594C1968.6 547.196 1966.15 542.77 1963.66 538.32L1961.48 539.539L1959.3 540.758C1961.78 545.198 1964.22 549.613 1966.63 554.001L1968.82 552.797ZM1954.15 526.523L1956.32 525.289C1953.86 520.946 1951.36 516.583 1948.83 512.201L1946.66 513.451L1944.5 514.701C1947.02 519.072 1949.51 523.425 1951.97 527.758L1954.15 526.523ZM1939.09 500.441L1941.25 499.175C1938.73 494.884 1936.18 490.578 1933.61 486.258L1931.46 487.539L1929.31 488.819C1931.88 493.128 1934.42 497.425 1936.93 501.706L1939.09 500.441ZM1923.66 474.559L1925.8 473.263C1923.23 469.019 1920.63 464.764 1918 460.5L1915.87 461.81L1913.74 463.121C1916.36 467.374 1918.95 471.619 1921.52 475.854L1923.66 474.559ZM1907.93 449.012L1910.05 447.686C1907.4 443.444 1904.72 439.196 1902.02 434.943L1899.91 436.283L1897.8 437.624C1900.5 441.867 1903.17 446.105 1905.81 450.337L1907.93 449.012ZM1891.82 423.648L1893.92 422.292C1891.2 418.072 1888.45 413.849 1885.68 409.626L1883.59 410.997L1881.5 412.368C1884.26 416.581 1887 420.794 1889.72 425.004L1891.82 423.648ZM1875.32 398.493L1877.4 397.107C1874.62 392.939 1871.82 388.772 1869 384.608L1866.93 386.011L1864.86 387.413C1867.67 391.566 1870.47 395.723 1873.24 399.88L1875.32 398.493ZM1858.44 373.579L1860.5 372.161C1857.66 368.041 1854.8 363.925 1851.92 359.815L1849.87 361.25L1847.82 362.684C1850.7 366.783 1853.55 370.888 1856.38 374.997L1858.44 373.579ZM1841.19 348.958L1843.22 347.507C1840.31 343.424 1837.39 339.349 1834.44 335.284L1832.41 336.751L1830.39 338.219C1833.33 342.273 1836.25 346.337 1839.15 350.408L1841.19 348.958ZM1823.54 324.619L1825.55 323.135C1822.57 319.096 1819.57 315.069 1816.56 311.054L1814.56 312.556L1812.56 314.058C1815.57 318.061 1818.56 322.077 1821.53 326.104L1823.54 324.619ZM1805.47 300.575L1807.45 299.055C1804.4 295.069 1801.34 291.098 1798.25 287.144L1796.28 288.682L1794.31 290.22C1797.38 294.162 1800.44 298.121 1803.48 302.094L1805.47 300.575ZM1786.97 276.87L1788.93 275.313C1785.8 271.379 1782.65 267.463 1779.49 263.566L1777.55 265.142L1775.61 266.717C1778.76 270.601 1781.9 274.504 1785.02 278.426L1786.97 276.87ZM1768.03 253.534L1769.96 251.939C1766.74 248.061 1763.51 244.205 1760.27 240.373L1758.36 241.988L1756.45 243.604C1759.69 247.422 1762.9 251.265 1766.11 255.129L1768.03 253.534ZM1748.59 230.567L1750.48 228.931C1747.19 225.134 1743.89 221.363 1740.58 217.619L1738.7 219.276L1736.83 220.933C1740.13 224.663 1743.42 228.42 1746.7 232.203L1748.59 230.567ZM1728.64 208.047L1730.49 206.367C1727.12 202.646 1723.73 198.955 1720.33 195.295L1718.5 196.997L1716.66 198.699C1720.05 202.344 1723.43 206.02 1726.79 209.726L1728.64 208.047ZM1708.17 186.038L1709.98 184.312C1706.5 180.663 1703.01 177.048 1699.5 173.47L1697.71 175.22L1695.93 176.97C1699.42 180.532 1702.9 184.13 1706.37 187.763L1708.17 186.038ZM1687.16 164.607L1688.92 162.832C1685.32 159.262 1681.71 155.732 1678.08 152.244L1676.35 154.045L1674.62 155.846C1678.22 159.317 1681.82 162.83 1685.4 166.382L1687.16 164.607ZM1665.47 143.734L1667.17 141.906C1663.48 138.459 1659.77 135.057 1656.05 131.702L1654.37 133.558L1652.7 135.415C1656.4 138.751 1660.09 142.134 1663.76 145.562L1665.47 143.734ZM1643.11 123.574L1644.75 121.689C1640.96 118.388 1637.16 115.138 1633.34 111.941L1631.74 113.856L1630.13 115.772C1633.92 118.949 1637.7 122.179 1641.47 125.46L1643.11 123.574ZM1620.05 104.252L1621.62 102.305C1617.7 99.1499 1613.78 96.0517 1609.84 93.0131L1608.31 94.9924L1606.78 96.9717C1610.69 99.9885 1614.59 103.065 1618.49 106.199L1620.05 104.252ZM1596.25 85.9002L1597.74 83.8872C1593.67 80.8896 1589.59 77.9576 1585.5 75.0937L1584.06 77.1414L1582.63 79.189C1586.68 82.0296 1590.73 84.9385 1594.77 87.9132L1596.25 85.9002ZM1571.65 68.677L1573.03 66.5936C1568.8 63.7863 1564.55 61.0541 1560.3 58.3998L1558.98 60.5203L1557.66 62.6407C1561.87 65.2702 1566.07 67.9777 1570.27 70.7605L1571.65 68.677ZM1546.18 52.7794L1547.44 50.6213C1543.04 48.046 1538.63 45.5568 1534.21 43.1568L1533.01 45.3536L1531.82 47.5505C1536.19 49.9247 1540.56 52.388 1544.92 54.9375L1546.18 52.7794ZM1519.79 38.453L1520.91 36.2174C1516.34 33.9265 1511.75 31.7341 1507.16 29.6435L1506.13 31.9186L1505.09 34.1936C1509.62 36.2581 1514.15 38.4242 1518.67 40.6885L1519.79 38.453ZM1492.43 25.9946L1493.38 23.6811C1488.65 21.742 1483.9 19.9145 1479.16 18.2026L1478.31 20.5542L1477.46 22.9058C1482.14 24.5931 1486.81 26.3951 1491.49 28.3082L1492.43 25.9946ZM1464.15 15.7971L1464.89 13.4097C1460.01 11.8931 1455.13 10.5024 1450.24 9.24171L1449.62 11.6624L1448.99 14.0831C1453.8 15.3229 1458.6 16.6913 1463.41 18.1844L1464.15 15.7971ZM1435.05 8.29595L1435.55 5.84627C1430.55 4.82799 1425.55 3.95002 1420.55 3.2168L1420.19 5.69033L1419.82 8.16386C1424.73 8.88337 1429.64 9.74531 1434.55 10.7456L1435.05 8.29595ZM1405.31 3.94424L1405.53 1.45383C1400.47 1.00906 1395.41 0.717642 1390.35 0.584194L1390.28 3.08332L1390.22 5.58246C1395.17 5.71316 1400.13 5.99865 1405.1 6.43466L1405.31 3.94424ZM1375.27 3.16075L1375.18 0.662466C1370.13 0.849665 1365.08 1.19951 1360.04 1.71654L1360.29 4.2035L1360.55 6.69045C1365.48 6.18463 1370.42 5.84226 1375.36 5.65904L1375.27 3.16075ZM1345.39 6.2327L1344.97 3.76811C1340.01 4.61103 1335.07 5.62069 1330.13 6.80137L1330.71 9.2328L1331.29 11.6642C1336.12 10.5093 1340.96 9.52174 1345.81 8.69728L1345.39 6.2327ZM1316.18 13.2202L1315.44 10.8324C1310.67 12.3119 1305.91 13.9563 1301.16 15.7693L1302.05 18.1048L1302.95 20.4404C1307.59 18.6652 1312.25 17.0558 1316.92 15.608L1316.18 13.2202ZM1288.12 23.9349L1287.08 21.6596C1282.57 23.7152 1278.06 25.928 1273.57 28.3015L1274.74 30.5116L1275.91 32.7217C1280.32 30.3937 1284.73 28.2244 1289.15 26.2101L1288.12 23.9349ZM1261.52 37.9969L1260.23 35.8571C1256.02 38.3989 1251.83 41.0862 1247.65 43.9218L1249.05 45.9909L1250.45 48.0599C1254.56 45.2726 1258.68 42.6325 1262.82 40.1367L1261.52 37.9969ZM1236.65 54.8713L1235.14 52.8758C1231.24 55.8245 1227.34 58.9066 1223.46 62.1245L1225.06 64.049L1226.65 65.9734C1230.48 62.8032 1234.31 59.7685 1238.16 56.8667L1236.65 54.8713ZM1213.64 73.9538L1211.96 72.1007C1210.05 73.8308 1208.14 75.5949 1206.24 77.3932L1207.95 79.2106L1209.67 81.028C1211.55 79.2535 1213.43 77.5133 1215.31 75.8069L1213.64 73.9538ZM1207.95 79.2106L1206.24 77.3932C1204.37 79.1518 1202.51 80.8992 1200.65 82.6353L1202.35 84.4645L1204.06 86.2937C1205.93 84.5497 1207.8 82.7945 1209.67 81.028L1207.95 79.2106ZM1191.14 94.771L1189.46 92.9183C1185.71 96.3091 1181.97 99.6554 1178.22 102.958L1179.87 104.834L1181.53 106.709C1185.29 103.392 1189.05 100.03 1192.81 96.6236L1191.14 94.771ZM1168.32 114.865L1166.7 112.965C1162.85 116.256 1159.01 119.5 1155.16 122.7L1156.76 124.622L1158.36 126.544C1162.22 123.329 1166.09 120.069 1169.95 116.764L1168.32 114.865ZM1144.96 134.286L1143.39 132.341C1139.44 135.53 1135.49 138.672 1131.53 141.768L1133.08 143.737L1134.62 145.705C1138.59 142.594 1142.56 139.436 1146.53 136.232L1144.96 134.286ZM1121.05 153.01L1119.54 151.019C1115.48 154.099 1111.43 157.132 1107.37 160.116L1108.85 162.13L1110.33 164.143C1114.41 161.144 1118.49 158.096 1122.56 155.001L1121.05 153.01ZM1096.59 171.009L1095.14 168.973C1090.99 171.937 1086.83 174.851 1082.68 177.717L1084.1 179.775L1085.51 181.833C1089.69 178.952 1093.87 176.023 1098.05 173.045L1096.59 171.009ZM1071.6 188.253L1070.21 186.174C1065.96 189.013 1061.7 191.801 1057.45 194.541L1058.81 196.642L1060.16 198.743C1064.44 195.99 1068.71 193.186 1072.99 190.333L1071.6 188.253ZM1046.04 204.735L1044.72 202.612C1040.38 205.312 1036.05 207.961 1031.72 210.56L1033.01 212.703L1034.29 214.846C1038.64 212.233 1043 209.571 1047.36 206.857L1046.04 204.735ZM1019.97 220.391L1018.71 218.228C1014.3 220.784 1009.89 223.288 1005.48 225.743L1006.7 227.926L1007.92 230.11C1012.34 227.643 1016.78 225.125 1021.22 222.555L1019.97 220.391ZM993.41 235.19L992.229 232.987C987.733 235.396 983.244 237.753 978.764 240.06L979.908 242.282L981.052 244.505C985.557 242.186 990.07 239.816 994.591 237.394L993.41 235.19ZM966.385 249.102L965.278 246.86C960.703 249.119 956.138 251.326 951.583 253.48L952.652 255.74L953.721 258C958.301 255.834 962.892 253.615 967.492 251.343L966.385 249.102ZM938.916 262.096L937.885 259.818C933.233 261.924 928.592 263.975 923.964 265.974L924.956 268.27L925.947 270.565C930.601 268.554 935.268 266.491 939.947 264.374L938.916 262.096ZM911.029 274.145L910.077 271.833C905.349 273.78 900.634 275.673 895.936 277.513L896.847 279.84L897.759 282.168C902.484 280.318 907.225 278.415 911.981 276.456L911.029 274.145ZM882.703 285.237L881.832 282.894C877.047 284.672 872.279 286.395 867.53 288.065L868.359 290.424L869.188 292.782C873.965 291.102 878.761 289.369 883.574 287.581L882.703 285.237ZM853.999 295.33L853.211 292.958C848.38 294.561 843.569 296.109 838.781 297.603L839.526 299.99L840.27 302.376C845.087 300.873 849.926 299.316 854.786 297.703L853.999 295.33ZM824.959 304.392L824.257 301.993C819.39 303.416 814.547 304.784 809.731 306.098L810.389 308.51L811.047 310.922C815.893 309.6 820.764 308.224 825.661 306.792L824.959 304.392ZM795.626 312.393L795.012 309.97C790.088 311.216 785.194 312.407 780.33 313.544L780.898 315.978L781.467 318.413C786.361 317.269 791.286 316.071 796.24 314.817L795.626 312.393ZM766.048 319.303L765.525 316.858C760.534 317.927 755.578 318.938 750.658 319.894L751.135 322.348L751.612 324.802C756.562 323.84 761.549 322.822 766.571 321.748L766.048 319.303ZM736.258 325.094L735.828 322.631C730.782 323.513 725.777 324.337 720.816 325.105L721.198 327.576L721.581 330.046C726.574 329.273 731.611 328.444 736.689 327.557L736.258 325.094ZM706.148 329.755L705.814 327.278C700.778 327.957 695.789 328.578 690.85 329.145L691.135 331.628L691.42 334.112C696.391 333.542 701.413 332.916 706.482 332.233L706.148 329.755ZM675.96 333.213L675.726 330.724C670.628 331.203 665.588 331.624 660.609 331.989L660.792 334.482L660.974 336.975C665.988 336.608 671.062 336.185 676.195 335.702L675.96 333.213ZM645.657 335.43L645.527 332.933C640.425 333.199 635.392 333.405 630.432 333.554L630.508 336.053L630.583 338.552C635.579 338.401 640.648 338.194 645.787 337.927L645.657 335.43ZM615.253 336.342L615.234 333.842C610.092 333.881 605.037 333.86 600.071 333.781L600.032 336.281L599.992 338.781C604.997 338.86 610.091 338.882 615.272 338.842L615.253 336.342ZM584.843 335.856L584.944 333.358C579.803 333.151 574.771 332.882 569.851 332.556L569.686 335.051L569.521 337.546C574.484 337.874 579.559 338.145 584.742 338.354L584.843 335.856ZM554.559 333.843L554.793 331.354C549.641 330.87 544.632 330.324 539.771 329.72L539.463 332.201L539.155 334.682C544.067 335.292 549.125 335.844 554.325 336.332L554.559 333.843ZM524.406 330.084L524.796 327.614C519.624 326.798 514.653 325.916 509.89 324.979L509.408 327.432L508.925 329.885C513.751 330.835 518.785 331.727 524.016 332.553L524.406 330.084ZM494.52 324.168L495.112 321.739C492.645 321.139 490.25 320.523 487.929 319.894L487.275 322.307L486.622 324.72C488.985 325.361 491.422 325.987 493.929 326.597L494.52 324.168ZM487.275 322.307L487.66 319.837C485.192 319.453 482.704 319.072 480.195 318.695L479.823 321.167L479.452 323.639C481.952 324.015 484.432 324.395 486.891 324.778L487.275 322.307ZM464.671 318.967L465.018 316.491C460.028 315.792 454.972 315.11 449.861 314.445L449.539 316.924L449.217 319.404C454.312 320.066 459.351 320.746 464.324 321.443L464.671 318.967ZM434.424 315.035L434.722 312.553C429.696 311.95 424.626 311.366 419.519 310.804L419.246 313.289L418.972 315.774C424.062 316.334 429.116 316.916 434.126 317.517L434.424 315.035ZM404.032 311.691L404.281 309.203C399.238 308.699 394.17 308.218 389.082 307.762L388.859 310.252L388.635 312.742C393.706 313.196 398.758 313.676 403.783 314.178L404.032 311.691ZM373.643 308.968L373.84 306.476C368.762 306.074 363.673 305.7 358.58 305.354L358.41 307.848L358.241 310.342C363.315 310.687 368.386 311.06 373.446 311.46L373.643 308.968ZM343.177 306.902L343.317 304.406C338.215 304.119 333.117 303.863 328.029 303.64L327.919 306.138L327.81 308.635C332.876 308.857 337.954 309.112 343.036 309.398L343.177 306.902ZM312.669 305.569L312.745 303.07C307.629 302.913 302.531 302.793 297.458 302.71L297.418 305.21L297.377 307.709C302.424 307.792 307.499 307.912 312.592 308.068L312.669 305.569ZM282.124 305.078L282.125 302.578C276.984 302.575 271.878 302.613 266.816 302.697L266.857 305.197L266.898 307.696C271.931 307.613 277.008 307.575 282.122 307.578L282.124 305.078ZM251.646 305.589L251.557 303.091C246.384 303.275 241.267 303.51 236.216 303.798L236.359 306.294L236.501 308.79C241.515 308.504 246.596 308.27 251.734 308.088L251.646 305.589ZM221.096 307.35L220.892 304.858C215.717 305.282 210.625 305.768 205.627 306.321L205.902 308.806L206.177 311.291C211.125 310.744 216.169 310.262 221.3 309.842L221.096 307.35ZM190.796 310.724L190.439 308.25C185.28 308.995 180.242 309.821 175.339 310.732L175.796 313.19L176.253 315.648C181.084 314.75 186.056 313.935 191.154 313.198L190.796 310.724ZM160.824 316.345L160.246 313.913C155.084 315.141 150.108 316.482 145.339 317.941L146.071 320.332L146.802 322.722C151.461 321.297 156.334 319.983 161.403 318.777L160.824 316.345ZM131.674 325.37L130.746 323.049C125.749 325.048 121.053 327.218 116.692 329.571L117.879 331.771L119.066 333.971C123.239 331.72 127.76 329.628 132.602 327.692L131.674 325.37ZM105 340.063L103.468 338.087C99.1184 341.458 95.3091 345.126 92.1127 349.113L94.0633 350.677L96.0138 352.241C98.9337 348.599 102.451 345.201 106.531 342.039L105 340.063ZM86.4389 363.784L84.1073 362.881C82.2291 367.735 81.1102 372.918 80.8066 378.435L83.3028 378.572L85.7991 378.71C86.0746 373.702 87.0867 369.037 88.7704 364.686L86.4389 363.784ZM84.4684 393.705L82.0159 394.19C82.9665 398.996 84.4468 404.003 86.4768 409.219L88.8065 408.312L91.1363 407.405C89.2002 402.431 87.8082 397.706 86.9209 393.219L84.4684 393.705ZM95.2234 422.096L93.0213 423.279C95.3195 427.555 97.9531 431.962 100.933 436.502L103.023 435.13L105.113 433.759C102.206 429.328 99.6481 425.048 97.4255 420.912L95.2234 422.096ZM111.858 447.626L109.863 449.133C112.867 453.11 116.12 457.184 119.627 461.356L121.541 459.748L123.455 458.139C119.999 454.028 116.801 450.022 113.852 446.119L111.858 447.626ZM131.375 470.969L129.527 472.653C132.879 476.331 136.418 480.082 140.149 483.907L141.938 482.162L143.728 480.416C140.035 476.629 136.535 472.919 133.223 469.285L131.375 470.969ZM152.692 492.875L150.952 494.67C152.835 496.495 154.759 498.337 156.726 500.195L158.443 498.377L160.16 496.56C158.208 494.717 156.299 492.89 154.432 491.08L152.692 492.875ZM158.443 498.377L156.726 500.195C158.57 501.937 160.393 503.67 162.194 505.394L163.923 503.588L165.651 501.782C163.842 500.05 162.012 498.309 160.16 496.56L158.443 498.377ZM174.499 513.852L172.745 515.634C176.198 519.032 179.565 522.394 182.848 525.722L184.628 523.966L186.407 522.21C183.107 518.865 179.722 515.485 176.253 512.07L174.499 513.852ZM195.039 534.693L193.23 536.419C196.593 539.943 199.859 543.426 203.028 546.869L204.867 545.176L206.707 543.482C203.516 540.017 200.23 536.512 196.848 532.967L195.039 534.693ZM214.824 556.209L212.95 557.864C216.195 561.536 219.327 565.159 222.347 568.733L224.257 567.12L226.166 565.506C223.121 561.902 219.965 558.251 216.697 554.553L214.824 556.209ZM233.681 578.56L231.731 580.124C234.79 583.937 237.717 587.692 240.516 591.391L242.509 589.882L244.502 588.373C241.674 584.636 238.718 580.844 235.631 576.995L233.681 578.56ZM251.297 601.898L249.254 603.338C252.105 607.381 254.795 611.35 257.329 615.247L259.425 613.885L261.521 612.523C258.951 608.57 256.226 604.548 253.34 600.457L251.297 601.898ZM267.134 626.334L264.979 627.601C267.536 631.953 269.887 636.208 272.037 640.367L274.258 639.219L276.479 638.071C274.285 633.827 271.89 629.493 269.289 625.068L267.134 626.334ZM280.536 652.358L278.245 653.36C280.243 657.928 281.982 662.37 283.472 666.685L285.835 665.869L288.198 665.053C286.662 660.604 284.874 656.039 282.827 651.357L280.536 652.358ZM289.921 679.842L287.488 680.418C288.646 685.302 289.457 690.003 289.94 694.528L292.426 694.262L294.912 693.996C294.405 689.249 293.556 684.339 292.354 679.265L289.921 679.842ZM292.873 708.897L290.376 708.769C290.126 713.681 289.445 718.354 288.362 722.796L290.791 723.388L293.22 723.98C294.38 719.221 295.104 714.237 295.37 709.024L292.873 708.897ZM285.904 737.139L283.648 736.062C281.623 740.304 279.168 744.308 276.312 748.08L278.305 749.589L280.298 751.098C283.351 747.066 285.984 742.774 288.16 738.215L285.904 737.139ZM268.435 760.386L266.744 758.544C263.34 761.67 259.603 764.598 255.554 767.333L256.954 769.405L258.353 771.476C262.59 768.614 266.525 765.534 270.126 762.228L268.435 760.386ZM244.374 776.811L243.232 774.587C239.089 776.715 234.717 778.687 230.133 780.508L231.055 782.832L231.978 785.155C236.7 783.28 241.219 781.241 245.516 779.035L244.374 776.811ZM217.252 787.675L216.515 785.286C212.012 786.676 207.351 787.943 202.548 789.088L203.128 791.52L203.708 793.952C208.61 792.783 213.376 791.488 217.989 790.064L217.252 787.675ZM188.788 794.513L188.344 792.053C183.66 792.899 178.867 793.644 173.975 794.29L174.302 796.768L174.629 799.247C179.595 798.592 184.467 797.835 189.233 796.973L188.788 794.513ZM159.774 798.371L159.55 795.881C154.799 796.308 149.971 796.648 145.077 796.905L145.208 799.401L145.339 801.898C150.292 801.638 155.182 801.293 159.997 800.861L159.774 798.371ZM130.594 799.918L130.547 797.418C125.741 797.509 120.884 797.524 115.982 797.465L115.952 799.965L115.922 802.464C120.873 802.524 125.783 802.509 130.641 802.418L130.594 799.918ZM101.3 799.576L101.402 797.078C96.5849 796.882 91.7353 796.619 86.8603 796.289L86.6917 798.784L86.5231 801.278C91.4417 801.611 96.336 801.876 101.198 802.074L101.3 799.576ZM72.1218 797.611L72.3538 795.122C67.5368 794.673 62.7028 794.162 57.859 793.59L57.5662 796.073L57.2733 798.556C62.157 799.132 67.0315 799.647 71.8897 800.1L72.1218 797.611ZM43.0452 794.185L43.397 791.709C38.5962 791.027 33.793 790.287 28.9941 789.491L28.5849 791.957L28.1758 794.424C33.0126 795.226 37.8541 795.972 42.6935 796.66L43.0452 794.185ZM14.178 789.396L14.6437 786.94C12.2573 786.488 9.87374 786.021 7.49385 785.542L6.9999 787.993L6.50595 790.443C8.9046 790.927 11.307 791.397 13.7122 791.853L14.178 789.396Z" fill="#FFD601"/>
</g>
<defs>
<filter id="filter0_d_2323_87008" x="0.5" y="0.585938" width="2012.74" height="809.914" filterUnits="userSpaceOnUse" color-interpolation-filters="sRGB">
<feFlood flood-opacity="0" result="BackgroundImageFix"/>
<feColorMatrix in="SourceAlpha" type="matrix" values="0 0 0 0 0 0 0 0 0 0 0 0 0 0 0 0 0 0 127 0" result="hardAlpha"/>
<feOffset dy="4"/>
<feGaussianBlur stdDeviation="2"/>
<feComposite in2="hardAlpha" operator="out"/>
<feColorMatrix type="matrix" values="0 0 0 0 0 0 0 0 0 0 0 0 0 0 0 0 0 0 0.25 0"/>
<feBlend mode="normal" in2="BackgroundImageFix" result="effect1_dropShadow_2323_87008"/>
<feBlend mode="normal" in="SourceGraphic" in2="effect1_dropShadow_2323_87008" result="shape"/>
</filter>
</defs>
</svg>
