<svg width="1920" height="423" viewBox="0 0 1920 423" fill="none" xmlns="http://www.w3.org/2000/svg">
<path opacity="0.13" d="M-110.156 249.211C135.33 245.005 155.071 206.438 314.67 225.915C474.268 245.393 619.971 306.286 796.79 262.865C973.608 219.444 1076.07 80.8346 1192.11 139.915C1308.15 198.996 1304.18 283.055 1404.87 273.672C1505.57 264.289 1618.01 171.882 1697.57 171.041C1766.07 170.329 1703.36 254.129 1891.61 249.082" stroke="#FFD601" stroke-opacity="0.7" stroke-width="15" stroke-miterlimit="10"/>
<path opacity="0.25" d="M-101.031 257.3C144.401 253.093 157.544 175.506 317.411 194.983C477.277 214.461 624.805 327.575 801.623 284.219C978.442 240.863 1075.22 64.5272 1191.15 123.608C1307.08 182.688 1267.6 295.673 1368.18 286.225C1468.77 276.777 1586.15 165.993 1676.81 167.74C1745.26 168.97 1728.26 283.313 1916.45 261.829" stroke="#FFD601" stroke-opacity="0.7" stroke-width="15" stroke-miterlimit="10"/>
<path opacity="0.38" d="M-92.3906 265.256C153.042 261.05 159.747 144.442 319.184 163.855C478.622 183.268 628.563 348.797 805.596 305.441C982.63 262.085 1073.24 48.0879 1189.33 107.168C1305.42 166.249 1230.1 308.094 1330.79 298.711C1431.49 289.328 1553.7 160.878 1655.36 164.243C1723.81 166.508 1752.51 312.365 1940.7 274.251" stroke="#FFD601" stroke-opacity="0.7" stroke-width="15" stroke-miterlimit="10"/>
<path opacity="0.5" d="M-83.5 273.284C161.932 269.013 161.879 113.449 321.423 132.862C480.967 152.275 633.001 370.091 809.605 326.994C986.209 283.896 1071.45 31.9788 1187.54 91.0594C1303.64 150.14 1192.64 320.911 1293.34 311.463C1394.03 302.015 1521.12 156.158 1633.88 161.141C1702.28 164.247 1776.74 341.748 1964.83 287.456" stroke="#FFD601" stroke-opacity="0.7" stroke-width="15" stroke-miterlimit="10"/>
<path opacity="0.63" d="M-74.6484 281.236C170.784 277.03 164.132 82.4458 323.73 101.859C483.328 121.272 637.4 391.373 814.165 347.758C990.93 304.144 1070.22 15.0822 1186.26 74.1628C1302.29 133.243 1155.79 333.005 1256.48 323.492C1357.17 313.98 1489.14 150.133 1612.96 157.186C1681.36 161.134 1801.47 370.342 1989.56 299.549" stroke="#FFD601" stroke-opacity="0.7" stroke-width="15" stroke-miterlimit="10"/>
<path opacity="0.75" d="M-65.7812 289.263C179.705 285.057 166.4 51.388 325.837 70.8658C485.275 90.3437 641.6 412.666 818.365 369.31C995.13 325.954 1068.57 -1.02752 1184.66 58.0531C1300.75 117.134 1118.52 345.691 1219.21 336.308C1319.91 326.925 1456.76 144.959 1591.62 154.148C1660.02 158.743 1825.84 400.048 2013.88 312.689" stroke="#FFD601" stroke-opacity="0.7" stroke-width="15" stroke-miterlimit="10"/>
<path opacity="0.88" d="M-56.8828 297.282C188.549 293.076 168.432 20.3863 328.245 39.8641C488.057 59.342 646.1 433.951 822.864 390.595C999.629 347.239 1067.28 -17.4046 1183.37 41.676C1299.46 100.757 1081.44 358.175 1182.24 348.792C1283.04 339.409 1424.72 139.259 1570.64 150.648C1639.04 156.019 1850.52 428.903 2038.55 325.366" stroke="#FFD601" stroke-opacity="0.7" stroke-width="15" stroke-miterlimit="10"/>
<path d="M-48.0469 305.315C197.385 301.044 170.884 -10.6015 330.482 8.87629C490.08 28.3541 650.429 455.378 827.194 411.893C1003.96 368.408 1065.81 -33.7678 1181.9 25.3128C1298 84.3934 1044.46 370.737 1145.16 361.289C1245.85 351.842 1392.57 133.509 1549.49 147.292C1617.84 153.245 1875.02 457.902 2062.99 338.058" stroke="#FFD601" stroke-opacity="0.7" stroke-width="15" stroke-miterlimit="10"/>
</svg>
