<svg width="421" height="409" viewBox="0 0 421 409" fill="none" xmlns="http://www.w3.org/2000/svg">
<g filter="url(#filter0_d_2524_129334)">
<path d="M118.567 245.655C108.187 222.486 73.0572 210.43 16 200.497C64.6658 192.245 96.5142 183.093 112.059 167.484C129.53 149.941 123.663 126.66 111.274 103.784C131.373 114.758 154.378 120.601 172.28 102.618C187.457 87.3931 197.113 57.3754 206.165 12C212.276 64.3144 222.496 98.7369 245.028 110.255C259.872 117.836 278.754 115.379 304.874 102.095C292.478 123.777 289.432 139.98 294.939 153.278C304.484 176.406 338.634 188.147 405 200.664C355.145 210.856 322.414 221.16 305.958 237.662C288.167 255.526 293.388 277.753 303.872 297.181C280.45 285.712 261.199 287.924 245.473 303.757C230.596 318.696 218.985 346.18 209.669 389C202.939 336.274 189.932 306.968 168.79 295.694C153.405 287.478 133.806 289 109.202 300.392C121.966 276.93 124.838 259.645 118.567 245.655Z" fill="#FFD602"/>
<path d="M205.916 18.2275C208.889 41.6996 212.811 61.3922 218.501 76.7734C224.58 93.2047 232.727 104.854 244.032 110.863L244.573 111.146C259.287 118.66 277.692 116.493 302.422 104.432C291.295 124.812 288.577 140.528 294.015 153.661V153.66C298.938 165.588 310.159 174.444 328.282 181.875C345.5 188.934 369.111 194.772 399.874 200.703C377.12 205.47 358.055 210.314 342.616 215.855C326.603 221.604 314.412 228.131 306.048 236.173L305.25 236.956V236.957C296.147 246.098 292.911 256.395 293.312 266.874C293.677 276.375 297.029 285.988 301.608 295.013C290.825 290.149 280.861 288.198 271.675 289.237C262.021 290.33 253.322 294.714 245.517 302.308L244.764 303.052C230.322 317.553 219.028 343.567 209.914 383.315C206.573 359.554 201.856 340.75 195.55 326.4C188.756 310.942 180.09 300.586 169.261 294.812H169.26C154.048 286.688 134.958 287.928 111.464 298.273C122.913 276.38 125.62 259.687 119.775 245.925L119.479 245.246C114.137 233.321 102.479 224.381 85.1709 217.189C69.0025 210.471 47.763 205.221 21.7852 200.509C43.6375 196.665 61.9545 192.581 76.7627 187.699C92.3098 182.574 104.078 176.547 112.012 168.932L112.768 168.189C121.733 159.188 124.712 148.685 123.861 137.558C123.085 127.404 119.121 116.741 113.676 106.188C122.962 110.956 132.841 114.518 142.545 115.059C153.136 115.648 163.489 112.632 172.558 103.751L172.988 103.324C180.725 95.5625 186.995 84.0954 192.46 68.9551C197.436 55.1682 201.763 38.2695 205.916 18.2275Z" stroke="white" stroke-width="2"/>
</g>
<defs>
<filter id="filter0_d_2524_129334" x="0.7" y="0.7" width="419.6" height="407.6" filterUnits="userSpaceOnUse" color-interpolation-filters="sRGB">
<feFlood flood-opacity="0" result="BackgroundImageFix"/>
<feColorMatrix in="SourceAlpha" type="matrix" values="0 0 0 0 0 0 0 0 0 0 0 0 0 0 0 0 0 0 127 0" result="hardAlpha"/>
<feOffset dy="4"/>
<feGaussianBlur stdDeviation="7.65"/>
<feComposite in2="hardAlpha" operator="out"/>
<feColorMatrix type="matrix" values="0 0 0 0 0 0 0 0 0 0 0 0 0 0 0 0 0 0 0.25 0"/>
<feBlend mode="normal" in2="BackgroundImageFix" result="effect1_dropShadow_2524_129334"/>
<feBlend mode="normal" in="SourceGraphic" in2="effect1_dropShadow_2524_129334" result="shape"/>
</filter>
</defs>
</svg>
