<svg width="630" height="143" viewBox="0 0 630 143" fill="none" xmlns="http://www.w3.org/2000/svg">
<path d="M-95 51.0987C-79.1667 32.7654 -31 10.5987 35 68.5987C117.5 141.099 159.5 64.5986 253.5 89.0986C347.5 113.599 275.5 174.099 349 201.599C407.8 223.599 528.5 234.765 581.5 237.599" stroke="#A8CDE2"/>
<path d="M-79 41.0987C-63.1667 22.7654 -15 0.598721 51 58.5987C133.5 131.099 175.5 54.5986 269.5 79.0986C363.5 103.599 291.5 164.099 365 191.599C423.8 213.599 544.5 224.765 597.5 227.599" stroke="#A8CDE2"/>
<path d="M-63 31.0987C-47.1667 12.7654 1 -9.40128 67 48.5987C149.5 121.099 191.5 44.5986 285.5 69.0986C379.5 93.5986 307.5 154.099 381 181.599C439.8 203.599 560.5 214.765 613.5 217.599" stroke="#A8CDE2"/>
<path d="M-47 21.0987C-31.1667 2.76539 17 -19.4013 83 38.5987C165.5 111.099 207.5 34.5986 301.5 59.0986C395.5 83.5986 323.5 144.099 397 171.599C455.8 193.599 576.5 204.765 629.5 207.599" stroke="#A8CDE2"/>
</svg>
