<svg width="354" height="354" viewBox="0 0 354 354" fill="none" xmlns="http://www.w3.org/2000/svg">
<path opacity="0.5" fill-rule="evenodd" clip-rule="evenodd" d="M320.502 217.358C323 206.262 325.703 194.253 330.117 181.013C342.097 145.071 325.615 124.088 299.41 90.7279C298.381 89.4184 297.338 88.0898 296.28 86.7405C282.905 70.5297 273.373 68.3321 258.102 64.8116C242.333 61.1763 220.446 56.1303 181.89 32.786C124.658 -1.86629 103.894 31.6909 84.9579 62.2924C78.7839 72.2699 72.8044 81.9332 65.8188 88.8157C56.2639 100.829 54.3462 113.528 52.2095 127.676C49.8449 143.334 47.2121 160.768 33.6635 181.013C31.7621 183.854 29.4697 186.136 27.2956 188.301C17.4615 198.093 10.046 205.476 52.1678 251.272C71.5042 272.296 90.4644 289.205 108.167 301.87L266.287 299.222C279.469 291.384 291.321 281.964 299.809 270.838C312.084 254.749 315.952 237.566 320.502 217.358Z" fill="#A8CDE2"/>
<g clip-path="url(#clip0_12937_9364)">
<path d="M354 270.74H0V270.917H354V270.74Z" fill="#67A5C8"/>
<path d="M307.123 278.273H283.674V278.45H307.123V278.273Z" fill="#67A5C8"/>
<path d="M221.654 278.188H215.501V278.365H221.654V278.188Z" fill="#67A5C8"/>
<path d="M318.529 282.131H304.943V282.308H318.529V282.131Z" fill="#67A5C8"/>
<path d="M81.1369 284.481H50.5583V284.658H81.1369V284.481Z" fill="#67A5C8"/>
<path d="M78.5101 276.75H74.0284V276.927H78.5101V276.75Z" fill="#67A5C8"/>
<path d="M175.903 277.508H132.785V277.685H175.903V277.508Z" fill="#67A5C8"/>
<path d="M167.796 239.163H31.0883C30.0174 239.161 28.9909 238.734 28.2343 237.976C27.4777 237.218 27.0527 236.191 27.0527 235.12V42.9477C27.0621 41.8829 27.4911 40.8648 28.2467 40.1144C29.0023 39.3641 30.0235 38.9423 31.0883 38.9404H167.796C168.868 38.9404 169.897 39.3664 170.655 40.1245C171.413 40.8827 171.839 41.9109 171.839 42.9831V235.12C171.839 236.192 171.413 237.221 170.655 237.979C169.897 238.737 168.868 239.163 167.796 239.163ZM31.0883 39.082C30.0643 39.0839 29.0829 39.492 28.3595 40.2168C27.636 40.9415 27.2297 41.9237 27.2297 42.9477V235.12C27.2297 236.144 27.636 237.126 28.3595 237.851C29.0829 238.576 30.0643 238.984 31.0883 238.986H167.796C168.821 238.984 169.803 238.576 170.527 237.852C171.252 237.127 171.66 236.145 171.662 235.12V42.9477C171.66 41.923 171.252 40.9409 170.527 40.2163C169.803 39.4918 168.821 39.0839 167.796 39.082H31.0883Z" fill="#FAB317"/>
<path d="M320.944 239.163H184.229C183.157 239.161 182.13 238.734 181.372 237.977C180.614 237.219 180.188 236.192 180.186 235.12V42.9477C180.197 41.8822 180.628 40.8641 181.385 40.114C182.141 39.3639 183.163 38.9422 184.229 38.9404H320.944C322.007 38.9441 323.026 39.3668 323.781 40.1169C324.535 40.867 324.963 41.8841 324.972 42.9477V235.12C324.972 236.19 324.548 237.216 323.793 237.974C323.038 238.731 322.013 239.159 320.944 239.163ZM184.229 39.082C183.204 39.0839 182.222 39.4918 181.497 40.2163C180.773 40.9409 180.365 41.923 180.363 42.9477V235.12C180.365 236.145 180.773 237.127 181.497 237.852C182.222 238.576 183.204 238.984 184.229 238.986H320.944C321.968 238.984 322.95 238.576 323.675 237.852C324.399 237.127 324.807 236.145 324.809 235.12V42.9477C324.807 41.923 324.399 40.9409 323.675 40.2163C322.95 39.4918 321.968 39.0839 320.944 39.082H184.229Z" fill="#67A5C8"/>
<path d="M303.654 68.2021H50.3459V173.616H303.654V68.2021Z" fill="#FEDBD7"/>
<path d="M298.698 168.667V73.165L55.3019 73.165V168.667H298.698Z" fill="#FAFAFA"/>
<path d="M87.3459 168.659L112.31 73.1572H130.718L105.754 168.659H87.3459Z" fill="white"/>
<path d="M110.002 168.659L134.966 73.1572H143.2L118.236 168.659H110.002Z" fill="white"/>
<path d="M150.287 168.659L175.258 73.1572H193.666L168.695 168.659H150.287Z" fill="white"/>
<path d="M196.704 168.659L221.668 73.1572H229.909L204.938 168.659H196.704Z" fill="white"/>
<path d="M120.509 168.667V73.165H119.248V168.667H120.509Z" fill="#A8CDE2"/>
<path d="M56.5621 168.667L56.5621 73.165H55.3019L55.3019 168.667H56.5621Z" fill="#A8CDE2"/>
<path d="M119.249 168.667V73.165H114.293V168.667H119.249Z" fill="#106FA4"/>
<path d="M181.956 168.667V73.165H180.696V168.667H181.956Z" fill="#A8CDE2"/>
<path d="M180.696 168.667V73.165H175.74V168.667H180.696Z" fill="#FEDBD7"/>
<path d="M243.432 168.659V73.1572H242.171V168.659H243.432Z" fill="#A8CDE2"/>
<path d="M242.171 168.659V73.1572H237.215V168.659H242.171Z" fill="#106FA4"/>
<path d="M304.914 173.616V68.2021H303.654V173.616H304.914Z" fill="#A8CDE2"/>
<path d="M307.746 60.9656H46.2537C45.9632 60.9637 45.6851 60.8475 45.4797 60.6421C45.2743 60.4367 45.1581 60.1586 45.1563 59.8682C45.1562 59.5764 45.2716 59.2966 45.4772 59.0897C45.6828 58.8827 45.962 58.7655 46.2537 58.7637H307.746C308.038 58.7655 308.317 58.8827 308.523 59.0897C308.728 59.2966 308.844 59.5764 308.844 59.8682C308.842 60.1586 308.726 60.4367 308.52 60.6421C308.315 60.8475 308.037 60.9637 307.746 60.9656Z" fill="#FEDBD7"/>
<g opacity="0.6">
<path d="M100.777 56.6396H47.2803V248.982H100.777V56.6396Z" fill="#3EB449"/>
<path d="M76.2658 250.554H71.7842L73.0444 58.2119H75.0481L76.2658 250.554Z" fill="#2D9A41"/>
<path d="M61.419 250.554H59.2526L59.8614 58.2119H60.8314L61.419 250.554Z" fill="#2D9A41"/>
<path d="M91.155 250.554H88.9885L89.5974 58.2119H90.5674L91.155 250.554Z" fill="#2D9A41"/>
</g>
<g opacity="0.6">
<path d="M306.083 56.6396H252.586V248.982H306.083V56.6396Z" fill="#3EB449"/>
<path d="M273.55 250.554H269.068L270.329 58.2119H272.332L273.55 250.554Z" fill="#2D9A41"/>
<path d="M263.659 250.554H261.5L262.102 58.2119H263.072L263.659 250.554Z" fill="#2D9A41"/>
<path d="M286.549 250.554H284.389L284.998 58.2119H285.961L286.549 250.554Z" fill="#2D9A41"/>
<path d="M297.565 250.554H295.406L296.008 58.2119H296.978L297.565 250.554Z" fill="#2D9A41"/>
</g>
<path d="M230.249 269.537H240.302V211.92H230.249V269.537Z" fill="#106FA4"/>
<path d="M113.698 269.537H234.121V211.92H113.698V269.537Z" fill="#FAB317"/>
<path d="M231.417 269.537H227.792H118.894V270.741H227.792H231.417H235.106V269.537H231.417Z" fill="#A8CDE2"/>
<path opacity="0.5" d="M117.131 238.773H230.688V215.523H117.131V238.773Z" fill="#FEF6D0"/>
<path opacity="0.5" d="M117.213 265.545H230.769V242.294H117.213V265.545Z" fill="#FEF6D0"/>
<path d="M134.343 227.148C134.343 227.653 134.193 228.147 133.912 228.568C133.631 228.988 133.232 229.316 132.765 229.509C132.298 229.702 131.784 229.753 131.288 229.654C130.793 229.556 130.337 229.312 129.98 228.955C129.622 228.598 129.379 228.142 129.28 227.646C129.182 227.151 129.232 226.637 129.426 226.17C129.619 225.703 129.947 225.303 130.367 225.023C130.787 224.742 131.282 224.592 131.787 224.592C132.123 224.592 132.455 224.658 132.765 224.786C133.075 224.915 133.357 225.103 133.594 225.34C133.832 225.578 134.02 225.859 134.148 226.17C134.277 226.48 134.343 226.812 134.343 227.148Z" fill="#A8CDE2"/>
<path d="M218.581 227.148C218.581 227.653 218.431 228.147 218.15 228.568C217.869 228.988 217.47 229.316 217.003 229.509C216.536 229.702 216.022 229.753 215.526 229.654C215.031 229.556 214.575 229.312 214.218 228.955C213.86 228.598 213.617 228.142 213.518 227.646C213.42 227.151 213.47 226.637 213.664 226.17C213.857 225.703 214.185 225.303 214.605 225.023C215.025 224.742 215.519 224.592 216.025 224.592C216.361 224.592 216.693 224.658 217.003 224.786C217.313 224.915 217.595 225.103 217.832 225.34C218.07 225.578 218.258 225.859 218.386 226.17C218.515 226.48 218.581 226.812 218.581 227.148Z" fill="#A8CDE2"/>
<path d="M131.787 256.707C133.199 256.707 134.343 255.563 134.343 254.152C134.343 252.74 133.199 251.596 131.787 251.596C130.376 251.596 129.231 252.74 129.231 254.152C129.231 255.563 130.376 256.707 131.787 256.707Z" fill="#A8CDE2"/>
<path d="M218.581 254.173C218.581 254.679 218.431 255.173 218.15 255.593C217.869 256.013 217.47 256.341 217.003 256.534C216.536 256.728 216.022 256.778 215.526 256.68C215.031 256.581 214.575 256.338 214.218 255.98C213.86 255.623 213.617 255.167 213.518 254.672C213.42 254.176 213.47 253.662 213.664 253.195C213.857 252.728 214.185 252.329 214.605 252.048C215.025 251.767 215.519 251.617 216.025 251.617C216.703 251.617 217.353 251.886 217.832 252.366C218.312 252.845 218.581 253.495 218.581 254.173Z" fill="#A8CDE2"/>
<path d="M176.462 227.148C176.462 227.653 176.312 228.147 176.031 228.568C175.75 228.988 175.351 229.316 174.884 229.509C174.417 229.702 173.903 229.753 173.407 229.654C172.912 229.556 172.456 229.312 172.099 228.955C171.741 228.598 171.498 228.142 171.399 227.646C171.301 227.151 171.351 226.637 171.545 226.17C171.738 225.703 172.066 225.303 172.486 225.023C172.906 224.742 173.4 224.592 173.906 224.592C174.242 224.592 174.574 224.658 174.884 224.786C175.194 224.915 175.476 225.103 175.713 225.34C175.951 225.578 176.139 225.859 176.267 226.17C176.396 226.48 176.462 226.812 176.462 227.148Z" fill="#A8CDE2"/>
<path d="M173.906 256.707C175.318 256.707 176.462 255.563 176.462 254.152C176.462 252.74 175.318 251.596 173.906 251.596C172.494 251.596 171.35 252.74 171.35 254.152C171.35 255.563 172.494 256.707 173.906 256.707Z" fill="#A8CDE2"/>
<path d="M226.673 202.134C226.673 204.729 225.642 207.218 223.807 209.053C221.973 210.887 219.484 211.918 216.889 211.918C214.294 211.918 211.805 210.887 209.97 209.053C208.135 207.218 207.104 204.729 207.104 202.134H226.673Z" fill="#3EB449"/>
<path d="M149.31 200.364C149.31 203.423 148.095 206.357 145.932 208.52C143.769 210.682 140.836 211.898 137.777 211.898C134.718 211.898 131.784 210.682 129.622 208.52C127.459 206.357 126.244 203.423 126.244 200.364H149.31Z" fill="#106FA4"/>
<path d="M198.891 205.13C198.891 206.931 198.176 208.658 196.903 209.931C195.629 211.204 193.902 211.92 192.102 211.92C190.301 211.92 188.574 211.204 187.301 209.931C186.027 208.658 185.312 206.931 185.312 205.13H198.891Z" fill="#3EB449"/>
<path d="M177 302.712C252.814 302.712 314.274 299.123 314.274 294.697C314.274 290.271 252.814 286.683 177 286.683C101.186 286.683 39.7258 290.271 39.7258 294.697C39.7258 299.123 101.186 302.712 177 302.712Z" fill="#F5F5F5"/>
<path d="M246.49 81.6755C244.982 80.1675 242.079 74.4539 244.862 71.7635C247.644 69.0731 250.122 71.5157 250.313 72.8255C250.505 74.1353 249.995 85.1731 246.49 81.6755Z" fill="#263238"/>
<path d="M245.853 287.2L239.531 287.257L237.81 272.644L244.125 272.587L245.853 287.2Z" fill="#FF8B7B"/>
<path d="M239.523 286.528L246.419 286.464C246.547 286.466 246.67 286.508 246.772 286.584C246.873 286.66 246.948 286.767 246.986 286.889L248.657 292.489C248.701 292.619 248.713 292.758 248.693 292.895C248.672 293.031 248.619 293.16 248.537 293.271C248.456 293.382 248.349 293.472 248.226 293.533C248.102 293.594 247.966 293.625 247.828 293.622C245.343 293.622 241.732 293.487 238.624 293.516C234.971 293.516 233.343 293.77 229.052 293.813C226.461 293.813 225.512 291.222 226.61 290.981C231.474 289.855 233.987 289.707 238.058 287.037C238.486 286.728 238.996 286.551 239.523 286.528Z" fill="#263238"/>
<path opacity="0.2" d="M237.81 272.651L238.702 280.184L245.018 280.128L244.133 272.595L237.81 272.651Z" fill="black"/>
<path d="M236.911 287.653C237.593 287.641 238.271 287.558 238.936 287.405C238.967 287.401 238.996 287.385 239.018 287.362C239.04 287.339 239.053 287.309 239.056 287.278C239.059 287.247 239.052 287.217 239.037 287.19C239.022 287.163 238.999 287.142 238.971 287.129C238.674 286.98 236.019 285.713 235.29 286.159C235.222 286.202 235.167 286.262 235.13 286.333C235.093 286.403 235.075 286.483 235.077 286.563C235.076 286.699 235.105 286.834 235.164 286.956C235.223 287.079 235.31 287.187 235.417 287.271C235.86 287.558 236.385 287.692 236.911 287.653ZM238.426 287.2C237.06 287.441 236.019 287.391 235.594 287.051C235.521 286.994 235.462 286.919 235.424 286.834C235.386 286.749 235.369 286.656 235.375 286.563C235.37 286.534 235.375 286.504 235.388 286.478C235.4 286.451 235.42 286.429 235.445 286.414C235.842 286.173 237.343 286.74 238.426 287.2Z" fill="#106FA4"/>
<path d="M238.908 287.448C238.941 287.446 238.973 287.434 239 287.413C239.021 287.397 239.037 287.375 239.046 287.35C239.055 287.324 239.056 287.297 239.049 287.271C239.049 287.158 238.554 284.439 237.053 284.609C236.656 284.652 236.543 284.857 236.522 285.013C236.415 285.721 238.037 287.094 238.844 287.434L238.908 287.448ZM237.18 284.899C238.086 284.899 238.539 286.379 238.695 287.023C237.86 286.556 236.755 285.48 236.819 285.055C236.819 285.055 236.819 284.935 237.088 284.907L237.18 284.899Z" fill="#106FA4"/>
<path d="M241.386 113.584L240.734 114.292L240.125 114.893C239.722 115.29 239.304 115.665 238.886 116.033C238.056 116.779 237.206 117.487 236.337 118.157C234.585 119.55 232.74 120.823 230.815 121.966C229.845 122.54 228.847 123.085 227.834 123.602C226.822 124.119 225.753 124.565 224.677 125.018C222.47 125.898 220.171 126.528 217.823 126.894L217.299 126.972C216.959 127.016 216.616 127.037 216.273 127.036C215.484 127.028 214.704 126.875 213.972 126.582C213.246 126.291 212.58 125.866 212.011 125.329C211.557 124.897 211.162 124.406 210.835 123.871C210.383 123.094 210.042 122.257 209.823 121.386C209.651 120.711 209.526 120.025 209.448 119.333C209.319 118.136 209.283 116.931 209.341 115.729C209.391 114.582 209.483 113.477 209.61 112.394C209.88 110.221 210.262 108.146 210.729 106.022C211.196 103.898 211.727 101.937 212.414 99.8838L217.066 100.804C216.896 104.783 216.705 108.861 216.832 112.713C216.855 114.501 217.045 116.284 217.398 118.037C217.468 118.361 217.565 118.678 217.689 118.986C217.788 119.226 217.908 119.375 217.901 119.311C217.86 119.203 217.795 119.107 217.71 119.028C217.517 118.842 217.292 118.693 217.044 118.589C216.79 118.482 216.52 118.418 216.244 118.398C216.117 118.398 216.06 118.398 215.982 118.398H216.06L216.209 118.356C217.886 117.925 219.518 117.332 221.08 116.586C222.715 115.797 224.297 114.903 225.817 113.909C227.353 112.89 228.868 111.785 230.327 110.617C231.035 110.037 231.778 109.428 232.451 108.812L233.484 107.877L233.98 107.417L234.412 107.006L241.386 113.584Z" fill="#FF8B7B"/>
<path d="M245.131 111.086C244.89 104.409 239.41 102.087 232.543 106.639C229.515 108.559 226.6 110.651 223.813 112.905L228.252 127.164C228.252 127.164 236.748 124.467 241.662 119.171C244.968 115.574 245.216 113.358 245.131 111.086Z" fill="#263238"/>
<path opacity="0.2" d="M236.769 113.932C236.769 113.932 232.67 119.794 231.219 126.024C233.234 125.165 235.176 124.142 237.024 122.966L236.769 113.932Z" fill="black"/>
<path d="M216.832 102.922L219.211 97.5483L212.478 95.5801C212.478 95.5801 211.324 98.1501 211.982 102.561L216.832 102.922Z" fill="#FF8B7B"/>
<path d="M219.926 91.248L214.071 91.949L212.478 95.581L219.211 97.5492L219.926 91.248Z" fill="#FF8B7B"/>
<path d="M236.812 159.485C236.812 159.485 232.465 195.919 231.983 215.417C231.488 235.673 235.46 276.532 235.46 276.532L246.865 276.291C246.865 276.291 248.239 232.551 249.896 212.507C251.694 190.659 256.225 159.089 256.225 159.089L236.812 159.485Z" fill="#106FA4"/>
<path opacity="0.6" d="M236.812 159.485C236.812 159.485 232.465 195.919 231.983 215.417C231.488 235.673 235.46 276.532 235.46 276.532L246.865 276.291C246.865 276.291 248.239 232.551 249.896 212.507C251.694 190.659 256.225 159.089 256.225 159.089L236.812 159.485Z" fill="white"/>
<path opacity="0.2" d="M250.398 169.8C245.301 181.036 246.667 206.134 249.563 216.896C249.669 215.331 249.782 213.851 249.896 212.485C251.078 198.084 253.436 179.471 254.93 168.447C253.542 166.437 251.991 166.281 250.398 169.8Z" fill="black"/>
<path d="M248.267 276.778L234.858 277.047L233.867 272.594L248.104 272.559L248.267 276.778Z" fill="#106FA4"/>
<path d="M274.024 287.2L267.709 287.257L265.989 272.644L272.304 272.587L274.024 287.2Z" fill="#FF8B7B"/>
<path d="M267.695 286.528L274.598 286.464C274.725 286.467 274.848 286.509 274.949 286.585C275.051 286.662 275.126 286.768 275.164 286.889L276.835 292.489C276.878 292.619 276.889 292.758 276.867 292.893C276.846 293.029 276.793 293.157 276.712 293.268C276.631 293.379 276.524 293.468 276.402 293.53C276.279 293.591 276.144 293.623 276.007 293.622C273.515 293.622 269.911 293.487 266.803 293.516C263.149 293.516 261.514 293.77 257.231 293.813C254.639 293.813 253.691 291.222 254.788 290.981C259.645 289.855 262.158 289.707 266.236 287.037C266.662 286.729 267.169 286.551 267.695 286.528Z" fill="#263238"/>
<path opacity="0.2" d="M265.989 272.651L266.874 280.184L273.196 280.128L272.311 272.595L265.989 272.651Z" fill="black"/>
<path d="M265.089 287.653C265.771 287.64 266.45 287.557 267.114 287.405C267.145 287.4 267.173 287.385 267.194 287.362C267.214 287.338 267.226 287.309 267.228 287.278C267.232 287.248 267.227 287.217 267.213 287.191C267.199 287.164 267.177 287.142 267.15 287.129C266.845 286.98 264.19 285.713 263.468 286.159C263.4 286.201 263.344 286.261 263.306 286.332C263.269 286.403 263.251 286.482 263.256 286.563C263.254 286.698 263.283 286.832 263.341 286.955C263.399 287.077 263.483 287.185 263.588 287.271C264.034 287.557 264.561 287.691 265.089 287.653ZM266.604 287.2C265.238 287.441 264.197 287.391 263.772 287.051C263.699 286.993 263.641 286.918 263.601 286.834C263.562 286.749 263.543 286.656 263.546 286.563C263.542 286.534 263.546 286.504 263.559 286.478C263.571 286.451 263.592 286.429 263.617 286.414C264.013 286.173 265.5 286.74 266.604 287.2Z" fill="#106FA4"/>
<path d="M267.079 287.448C267.101 287.448 267.122 287.442 267.142 287.433C267.161 287.423 267.178 287.409 267.193 287.393C267.207 287.376 267.217 287.357 267.223 287.336C267.229 287.315 267.231 287.293 267.228 287.271C267.228 287.158 266.732 284.439 265.231 284.609C264.834 284.652 264.721 284.857 264.693 285.013C264.594 285.721 266.215 287.094 267.022 287.434L267.079 287.448ZM265.358 284.899C266.258 284.899 266.718 286.379 266.874 287.023C266.038 286.556 264.927 285.48 264.99 285.055C264.99 285.055 264.99 284.935 265.259 284.907L265.358 284.899Z" fill="#106FA4"/>
<path d="M247.942 159.244C247.942 159.244 251.092 198.446 253.393 217.789C255.779 237.91 263.638 276.51 263.638 276.51L275.044 276.269C275.044 276.269 271.914 232.444 270.704 212.365C269.38 190.453 269.04 158.763 269.04 158.763L247.942 159.244Z" fill="#106FA4"/>
<path opacity="0.6" d="M247.942 159.244C247.942 159.244 251.092 198.446 253.393 217.789C255.779 237.91 263.638 276.51 263.638 276.51L275.044 276.269C275.044 276.269 271.914 232.444 270.704 212.365C269.38 190.453 269.04 158.763 269.04 158.763L247.942 159.244Z" fill="white"/>
<path d="M276.446 276.778L263.029 277.047L262.045 272.594L276.283 272.559L276.446 276.778Z" fill="#106FA4"/>
<path d="M236.026 104.89C236.026 104.89 231.36 122.207 236.812 159.483C246.993 159.264 264.091 158.867 269.04 158.775C269.167 153.586 265.337 128.14 269.819 103.608C266.595 103.051 263.334 102.734 260.063 102.659C255.275 102.485 250.48 102.589 245.704 102.971C242.433 103.358 239.197 103.999 236.026 104.89Z" fill="#263238"/>
<path opacity="0.2" d="M267.865 121.068L262.59 116.699C262.937 120.112 266.024 128.473 267.652 132.707C267.624 128.997 267.659 125.082 267.865 121.068Z" fill="black"/>
<path d="M248.997 114.929L243.24 126.321C243.119 126.56 243.076 126.832 243.119 127.097C243.162 127.362 243.287 127.606 243.478 127.795C243.668 127.984 243.914 128.108 244.179 128.148C244.444 128.189 244.716 128.144 244.954 128.02L248.713 125.953C248.918 125.843 249.149 125.793 249.38 125.808C249.612 125.823 249.835 125.903 250.023 126.038L253.726 128.707C253.939 128.862 254.195 128.944 254.458 128.941C254.721 128.939 254.977 128.852 255.186 128.693C255.396 128.534 255.549 128.312 255.622 128.06C255.696 127.807 255.686 127.538 255.595 127.291L251.269 115.128C251.194 114.896 251.052 114.692 250.862 114.541C250.672 114.389 250.441 114.297 250.198 114.276C249.956 114.255 249.713 114.306 249.499 114.422C249.285 114.538 249.111 114.715 248.997 114.929Z" fill="white"/>
<path d="M258.293 86.4893C257.485 91.1337 256.763 99.6156 260.063 102.625C260.063 102.625 259.1 106.83 250.313 108.289C244.409 106.391 245.704 102.964 245.704 102.964C250.83 101.619 250.611 97.8031 249.641 94.2348L258.293 86.4893Z" fill="#FF8B7B"/>
<path opacity="0.2" d="M254.767 89.6406L249.641 94.2001C249.879 95.0314 250.045 95.8819 250.136 96.7419C252.105 96.4162 254.76 94.1931 254.922 92.1328C255.023 91.2995 254.97 90.4549 254.767 89.6406Z" fill="black"/>
<path d="M261.103 80.7764C259.397 86.8085 258.71 90.4264 254.944 92.8973C249.28 96.6073 242.334 92.1893 242.2 85.7536C242.072 79.9763 244.876 71.0768 251.404 69.944C252.838 69.6896 254.313 69.8056 255.689 70.2809C257.065 70.7561 258.298 71.575 259.269 72.6599C260.241 73.7447 260.919 75.0596 261.24 76.48C261.561 77.9004 261.514 79.3792 261.103 80.7764Z" fill="#FF8B7B"/>
<path d="M257.471 84.4727C256.678 82.5469 256.105 76.2033 259.411 74.6457C262.718 73.0881 266.151 76.89 265.281 78.6883C263.942 81.4779 259.312 88.9331 257.471 84.4727Z" fill="#263238"/>
<path d="M259.447 76.882C258.632 74.758 248.926 73.5544 247.566 71.2676C245.952 68.5489 252.572 68.2232 257.124 69.6038C261.125 70.8215 263.794 71.9968 263.326 74.9704C263.064 76.6554 259.447 76.882 259.447 76.882Z" fill="#263238"/>
<path d="M261.556 74.6938C261.556 74.6938 263.68 75.2744 264.842 73.7168C264.473 75.2602 262.668 76.8178 261.556 74.6938Z" fill="#263238"/>
<path d="M251.836 68.1453C248.919 65.8797 244.947 68.5418 245.322 71.4941C245.697 74.4465 255.531 76.6909 255.531 76.6909C255.531 76.6909 255.708 71.1543 251.836 68.1453Z" fill="#263238"/>
<path d="M245.329 71.5078C245.775 73.5752 247.283 75.1965 250.335 76.4001C248.568 75.0941 247.23 73.2927 246.49 71.2246L245.329 71.5078Z" fill="#263238"/>
<path d="M251.453 80.4713C251.347 80.974 251 81.3209 250.674 81.2501C250.349 81.1793 250.172 80.712 250.278 80.2164C250.384 79.7208 250.738 79.3739 251.064 79.4447C251.39 79.5155 251.567 80.004 251.453 80.4713Z" fill="#263238"/>
<path d="M245.832 79.2541C245.719 79.7497 245.372 80.0966 245.046 80.0258C244.72 79.955 244.543 79.4948 244.649 78.9992C244.756 78.5036 245.11 78.1567 245.435 78.2204C245.761 78.2842 245.938 78.7585 245.832 79.2541Z" fill="#263238"/>
<path d="M247.566 79.8906C246.642 81.2834 245.529 82.5414 244.26 83.6289C244.968 84.6413 246.547 84.5918 246.547 84.5918L247.566 79.8906Z" fill="#FF5652"/>
<path d="M247.694 86.2833C248.359 86.4484 249.054 86.4503 249.719 86.2888C250.385 86.1273 251.002 85.8072 251.517 85.3558C251.531 85.3419 251.542 85.3254 251.55 85.3072C251.558 85.2889 251.562 85.2694 251.562 85.2496C251.562 85.2298 251.558 85.2102 251.55 85.192C251.542 85.1737 251.531 85.1572 251.517 85.1434C251.488 85.1165 251.45 85.1016 251.411 85.1016C251.371 85.1016 251.333 85.1165 251.305 85.1434C250.821 85.5502 250.249 85.8383 249.635 85.9846C249.02 86.1309 248.379 86.1314 247.765 85.9859C247.725 85.9774 247.684 85.985 247.65 86.0069C247.616 86.0288 247.593 86.0633 247.584 86.1027C247.576 86.1422 247.583 86.1833 247.605 86.2172C247.627 86.251 247.661 86.2748 247.701 86.2833H247.694Z" fill="#263238"/>
<path d="M253.542 79.0267C253.596 79.0375 253.652 79.0334 253.705 79.0146C253.757 78.9959 253.803 78.9632 253.838 78.9203C253.873 78.8773 253.895 78.8256 253.903 78.7707C253.911 78.7159 253.903 78.6599 253.882 78.6089C253.691 78.1729 253.398 77.7887 253.029 77.4883C252.659 77.1878 252.224 76.9798 251.758 76.8814C251.679 76.8712 251.599 76.8922 251.536 76.9398C251.473 76.9874 251.43 77.0579 251.418 77.1363C251.412 77.1749 251.413 77.2143 251.423 77.2523C251.432 77.2902 251.448 77.326 251.471 77.3576C251.494 77.3891 251.523 77.4158 251.557 77.4362C251.59 77.4565 251.627 77.4701 251.666 77.4761C252.033 77.5569 252.376 77.7243 252.665 77.9645C252.955 78.2047 253.182 78.5106 253.329 78.8567C253.349 78.8996 253.379 78.9373 253.416 78.9667C253.453 78.9962 253.496 79.0168 253.542 79.0267Z" fill="#263238"/>
<path d="M243.779 76.7833C243.834 76.7986 243.893 76.7967 243.947 76.7777C244.002 76.7587 244.049 76.7236 244.083 76.6771C244.307 76.3763 244.599 76.1325 244.935 75.9652C245.27 75.798 245.641 75.712 246.016 75.7142C246.095 75.7217 246.173 75.6976 246.234 75.6471C246.295 75.5967 246.334 75.524 246.342 75.4451C246.349 75.3663 246.325 75.2877 246.274 75.2266C246.224 75.1655 246.151 75.127 246.072 75.1195C245.597 75.1054 245.126 75.2061 244.698 75.4132C244.271 75.6203 243.899 75.9276 243.616 76.3089C243.591 76.3392 243.572 76.3743 243.561 76.412C243.55 76.4497 243.546 76.4893 243.551 76.5284C243.556 76.5675 243.568 76.6052 243.588 76.6393C243.607 76.6733 243.634 76.7031 243.665 76.7266C243.697 76.755 243.737 76.7745 243.779 76.7833Z" fill="#263238"/>
<path d="M271.362 108.438C272.651 110.689 273.727 112.87 274.846 115.114C275.964 117.358 276.97 119.617 277.925 121.925C278.881 124.233 279.809 126.576 280.616 129.005C281.455 131.427 282.164 133.892 282.74 136.389L283.172 138.322C283.361 139.23 283.441 140.157 283.412 141.083C283.352 142.805 282.97 144.501 282.287 146.082C281.085 148.746 279.375 151.151 277.253 153.162C275.36 154.989 273.298 156.632 271.093 158.068C270.024 158.776 268.92 159.428 267.808 160.051C266.696 160.674 265.592 161.247 264.353 161.792L262.002 157.679C262.859 156.971 263.801 156.263 264.679 155.498C265.557 154.734 266.413 153.955 267.263 153.176C268.903 151.654 270.425 150.009 271.815 148.255C273.051 146.752 274.01 145.04 274.647 143.2C274.866 142.515 274.953 141.794 274.902 141.076C274.881 140.788 274.827 140.503 274.739 140.227L274.258 138.641C272.827 134.242 271.125 129.936 269.16 125.748C268.19 123.624 267.157 121.5 266.123 119.376C265.089 117.252 263.999 115.128 262.944 113.11L271.362 108.438Z" fill="#FF8B7B"/>
<path d="M270.06 103.644C275.964 104.919 280.071 120.325 280.071 120.325L269.514 129.904C266.158 126.17 263.518 121.85 261.726 117.16C258.93 109.45 263.744 102.271 270.06 103.644Z" fill="#263238"/>
<path d="M263.284 156.95L256.494 157.021L260.742 163.867C260.742 163.867 265.578 162.671 266.01 160.242L263.284 156.95Z" fill="#FF8B7B"/>
<path d="M252.267 161.063L256.013 166.557L260.707 163.867L256.494 157.021L252.267 161.063Z" fill="#FF8B7B"/>
<path d="M262.958 86.2979C262.204 87.6859 260.931 88.7192 259.418 89.1724C257.408 89.76 256.381 87.9688 256.919 86.0643C257.408 84.3509 259.043 81.9791 261.054 82.2269C263.064 82.4747 263.857 84.5916 262.958 86.2979Z" fill="#FF8B7B"/>
<path d="M202.781 203.441L195.232 203.988L195.283 204.694L202.832 204.147L202.781 203.441Z" fill="#3EB449"/>
<path d="M209.564 202.951L205.857 203.22L205.908 203.926L209.615 203.657L209.564 202.951Z" fill="#3EB449"/>
<path d="M241.919 119.594L116.914 128.607C114.312 128.81 111.896 130.031 110.189 132.004C108.481 133.978 107.621 136.545 107.795 139.149L112.043 198.069C112.244 200.675 113.466 203.095 115.443 204.804C117.42 206.513 119.992 207.373 122.599 207.195L129.679 206.685C130.194 206.648 130.702 206.817 131.092 207.154C131.482 207.491 131.723 207.969 131.761 208.484L132.554 219.401C132.567 219.612 132.643 219.815 132.772 219.983C132.901 220.151 133.077 220.277 133.278 220.344C133.479 220.411 133.695 220.416 133.899 220.359C134.103 220.302 134.286 220.185 134.423 220.024L146.275 206.324C146.773 205.75 147.478 205.397 148.236 205.34L247.583 198.182C250.186 197.981 252.604 196.761 254.313 194.787C256.021 192.813 256.882 190.245 256.709 187.64L252.461 128.72C252.26 126.117 251.04 123.699 249.066 121.99C247.092 120.282 244.524 119.421 241.919 119.594Z" fill="#106FA4"/>
<path opacity="0.2" d="M117.132 128.855C114.53 129.058 112.113 130.279 110.406 132.253C108.699 134.226 107.839 136.794 108.013 139.397L112.261 198.317C112.462 200.923 113.684 203.343 115.661 205.052C117.638 206.762 120.21 207.621 122.817 207.443L123.858 207.365C125.587 207.24 127.226 206.548 128.522 205.396C129.817 204.244 130.696 202.696 131.023 200.993L145.26 126.823L117.132 128.855Z" fill="black"/>
<path d="M115.404 109.457C115.372 110.493 115.427 111.53 115.567 112.558C109.151 114.7 102.309 115.242 95.6365 114.136C95.9569 112.925 96.1514 111.685 96.2171 110.434C95.9939 111.693 95.5556 112.905 94.9215 114.016C93.6612 113.775 92.9532 113.57 92.9532 113.57C92.9532 113.57 94.2418 106.603 91.9195 101.534C89.5973 96.4647 90.7584 93.6327 92.5143 92.8327C95.7711 82.8216 108.012 84.4004 112.154 88.4643C117.408 93.6186 117.436 108.14 118.37 111.46C117.599 111.793 116.841 112.097 116.084 112.366C115.704 111.439 115.475 110.456 115.404 109.457Z" fill="#263238"/>
<path d="M120.466 125.039L121.103 127.057C121.337 127.765 121.571 128.473 121.811 129.145C122.286 130.561 122.781 131.977 123.312 133.337C123.843 134.696 124.353 136.126 124.905 137.514L125.727 139.638L125.932 140.162L125.982 140.282C125.894 140.206 125.793 140.146 125.684 140.105C125.528 140.049 125.465 140.105 125.564 140.105C125.734 140.105 125.904 140.078 126.067 140.027C126.62 139.852 127.152 139.614 127.652 139.319C128.86 138.616 130.015 137.826 131.107 136.955C132.254 136.063 133.38 135.107 134.485 134.123C135.589 133.139 136.701 132.112 137.77 131.107L139.943 132.947C139.037 134.25 138.081 135.44 137.111 136.65C136.141 137.861 135.051 138.994 133.932 140.119C132.781 141.295 131.528 142.366 130.187 143.32C129.42 143.857 128.596 144.308 127.73 144.665C127.181 144.885 126.605 145.033 126.017 145.104C125.219 145.203 124.409 145.093 123.666 144.785C122.857 144.44 122.167 143.864 121.684 143.128C121.578 142.966 121.479 142.803 121.401 142.654L121.21 142.272L120.955 141.755C120.622 141.047 120.247 140.339 119.956 139.673C119.312 138.257 118.668 136.841 118.08 135.425C117.493 134.009 116.919 132.551 116.374 131.092C116.119 130.384 115.864 129.613 115.624 128.869C115.383 128.126 115.149 127.397 114.916 126.526L120.466 125.039Z" fill="#FFC3BD"/>
<path d="M118.788 118.753C121.231 119.376 122.937 129.415 122.937 129.415L116.211 133.989C116.211 133.989 109.768 123.858 111.645 121.174C113.599 118.385 115.227 117.847 118.788 118.753Z" fill="#106FA4"/>
<path d="M118.788 118.753C121.231 119.376 122.937 129.415 122.937 129.415L116.211 133.989C116.211 133.989 109.768 123.858 111.645 121.174C113.599 118.385 115.227 117.847 118.788 118.753Z" fill="#106FA4"/>
<path opacity="0.4" d="M118.788 118.753C121.231 119.376 122.937 129.415 122.937 129.415L116.211 133.989C116.211 133.989 109.768 123.858 111.645 121.174C113.599 118.385 115.227 117.847 118.788 118.753Z" fill="white"/>
<path opacity="0.3" d="M118.569 120.997L120.445 131.114L116.664 133.677L118.569 120.997Z" fill="black"/>
<path d="M137.656 131.348L139.901 125.938L142.669 131.348C142.669 131.348 140.871 134.038 138.499 133.38L137.656 131.348Z" fill="#FFC3BD"/>
<path d="M142.372 125.379L145.926 126.809L142.669 131.347L139.894 125.938L142.372 125.379Z" fill="#FFC3BD"/>
<path d="M105.584 287.767H111.51L111.906 274.053H105.98L105.584 287.767Z" fill="#FFC3BD"/>
<path d="M65.8511 270.101L71.2956 272.424L78.4252 260.558L72.9736 258.235L65.8511 270.101Z" fill="#FFC3BD"/>
<path d="M72.3434 271.617L66.6794 268.134C66.5826 268.072 66.4662 268.047 66.3525 268.066C66.2388 268.084 66.1359 268.143 66.0635 268.233L62.658 272.318C62.5733 272.425 62.5124 272.549 62.4795 272.681C62.4466 272.814 62.4424 272.951 62.4672 273.086C62.4921 273.22 62.5453 273.347 62.6234 273.459C62.7015 273.571 62.8026 273.665 62.92 273.734C64.9165 274.916 65.936 275.384 68.4282 276.913C69.9646 277.862 72.1027 279.391 74.2196 280.694C76.3366 281.996 77.7596 279.986 76.9738 279.242C73.54 275.964 73.6391 274.407 72.9948 272.467C72.8877 272.114 72.6563 271.812 72.3434 271.617Z" fill="#263238"/>
<path d="M111.708 287.079H105.06C104.946 287.078 104.835 287.118 104.747 287.192C104.66 287.266 104.603 287.369 104.586 287.483L103.828 292.75C103.81 292.885 103.821 293.023 103.861 293.153C103.9 293.284 103.968 293.404 104.059 293.506C104.15 293.607 104.262 293.688 104.387 293.742C104.512 293.796 104.648 293.823 104.784 293.819C107.106 293.784 108.225 293.642 111.156 293.642C112.954 293.642 116.678 293.833 119.163 293.833C121.649 293.833 121.776 291.377 120.742 291.15C116.105 290.152 114.278 288.778 112.714 287.469C112.436 287.222 112.079 287.083 111.708 287.079Z" fill="#263238"/>
<path opacity="0.2" d="M111.899 274.059L111.701 281.124H105.775L105.98 274.059H111.899Z" fill="black"/>
<path opacity="0.2" d="M72.9735 258.243L78.418 260.558L74.7435 266.675L69.299 264.353L72.9735 258.243Z" fill="black"/>
<path d="M118.788 118.753C118.788 118.753 121.62 119.744 115.956 154.486H91.8842C92.2878 144.701 92.302 138.669 87.6362 118.583C91.0022 117.887 94.4143 117.438 97.8456 117.238C101.482 116.975 105.133 116.975 108.77 117.238C113.471 117.663 118.788 118.753 118.788 118.753Z" fill="#106FA4"/>
<path opacity="0.4" d="M118.788 118.753C118.788 118.753 121.62 119.744 115.956 154.486H91.8842C92.2878 144.701 92.302 138.669 87.6362 118.583C91.0022 117.887 94.4143 117.438 97.8456 117.238C101.482 116.975 105.133 116.975 108.77 117.238C113.471 117.663 118.788 118.753 118.788 118.753Z" fill="white"/>
<path d="M97.8597 117.231C101.497 116.975 105.147 116.975 108.784 117.231C109.372 117.287 109.974 117.351 110.568 117.422C110.816 117.794 110.975 118.218 111.032 118.661C111.09 119.104 111.045 119.555 110.901 119.978C110.129 121.882 107.361 122.102 105.35 122.102C97.9093 122.102 96.6491 117.754 96.5995 117.57L96.5287 117.308L97.8597 117.231Z" fill="white"/>
<path d="M98.943 104.939C99.651 108.479 100.324 114.894 97.8597 117.237C97.8597 117.237 98.8226 120.777 105.35 120.777C112.53 120.777 108.784 117.237 108.784 117.237C104.862 116.303 104.968 113.393 105.648 110.667L98.943 104.939Z" fill="#FFC3BD"/>
<path d="M99.6582 102.439C98.8156 105.222 99.9838 111.806 101.718 114.355C98.2988 112.394 97.1448 106.418 97.1448 106.418L99.6582 102.439Z" fill="#263238"/>
<path opacity="0.2" d="M101.676 107.276L105.648 110.661C105.473 111.295 105.36 111.945 105.308 112.601C103.814 112.381 101.768 110.738 101.598 109.174C101.51 108.542 101.536 107.899 101.676 107.276Z" fill="black"/>
<path d="M95.7003 98.6662C97.0738 104.38 97.5269 106.829 100.968 109.286C106.143 112.975 112.862 110.044 113.223 104.033C113.549 98.6237 111.255 90.1914 105.202 88.8887C103.868 88.5942 102.481 88.6455 101.173 89.0376C99.8643 89.4298 98.6778 90.1498 97.7259 91.1293C96.7741 92.1089 96.0883 93.3155 95.7338 94.6345C95.3793 95.9536 95.3677 97.3414 95.7003 98.6662Z" fill="#FFC3BD"/>
<path d="M115.963 154.486C115.963 154.486 120.629 200.095 120.211 218.149C119.808 236.925 112.926 279.745 112.926 279.745H104.926C104.926 279.745 106.193 238.009 105.485 219.565C104.713 199.458 98.327 154.472 98.327 154.472L115.963 154.486Z" fill="#106FA4"/>
<path opacity="0.4" d="M115.963 154.486C115.963 154.486 120.629 200.095 120.211 218.149C119.808 236.925 112.926 279.745 112.926 279.745H104.926C104.926 279.745 106.193 238.009 105.485 219.565C104.713 199.458 98.327 154.472 98.327 154.472L115.963 154.486Z" fill="black"/>
<path d="M104.26 280.042H113.648L114.342 277.047L103.821 276.679L104.26 280.042Z" fill="#106FA4"/>
<path opacity="0.2" d="M105.591 165.835C111.496 177.715 106.773 199.387 104.685 207.451C103.616 195.344 101.81 180.547 100.401 169.665C101.294 163.548 102.865 160.355 105.591 165.835Z" fill="black"/>
<path d="M109.613 154.485C109.613 154.485 104.161 201.921 100.048 217.122C95.1694 235.197 76.5986 265.974 76.5986 265.974L69.1716 262.816C69.1716 262.816 80.6625 227.87 84.4007 218.347C92.3657 198.027 85.5477 167.746 91.9126 154.485H109.613Z" fill="#106FA4"/>
<path opacity="0.4" d="M109.613 154.485C109.613 154.485 104.161 201.921 100.048 217.122C95.1694 235.197 76.5986 265.974 76.5986 265.974L69.1716 262.816C69.1716 262.816 80.6625 227.87 84.4007 218.347C92.3657 198.027 85.5477 167.746 91.9126 154.485H109.613Z" fill="black"/>
<path d="M68.145 262.837L77.3632 266.759L79.5792 264.281L68.9451 259.177L68.145 262.837Z" fill="#106FA4"/>
<path d="M104.784 98.7448C104.869 99.2121 105.18 99.5519 105.492 99.4953C105.803 99.4386 105.98 99.0138 105.896 98.5465C105.811 98.0793 105.499 97.7394 105.188 97.789C104.876 97.8385 104.664 98.2704 104.784 98.7448Z" fill="#263238"/>
<path d="M110.066 97.8102C110.144 98.2775 110.462 98.6173 110.774 98.5607C111.085 98.5041 111.269 98.0792 111.184 97.612C111.099 97.1447 110.788 96.8048 110.476 96.8544C110.165 96.904 109.981 97.3358 110.066 97.8102Z" fill="#263238"/>
<path d="M110.342 96.9109L111.411 96.3799C111.411 96.3799 110.986 97.364 110.342 96.9109Z" fill="#263238"/>
<path d="M108.798 98.8643C109.406 99.8635 110.15 100.774 111.007 101.569C110.797 101.782 110.543 101.946 110.263 102.051C109.984 102.156 109.684 102.199 109.386 102.178L108.798 98.8643Z" fill="#ED847E"/>
<path d="M107.255 104.394C107.523 104.393 107.791 104.37 108.055 104.323C108.075 104.322 108.095 104.317 108.113 104.308C108.131 104.299 108.147 104.286 108.16 104.27C108.172 104.255 108.182 104.236 108.187 104.217C108.192 104.197 108.192 104.177 108.189 104.157C108.185 104.137 108.177 104.118 108.166 104.101C108.154 104.085 108.139 104.071 108.122 104.06C108.105 104.05 108.085 104.043 108.065 104.041C108.045 104.039 108.025 104.041 108.005 104.047C107.422 104.163 106.82 104.14 106.248 103.979C105.676 103.817 105.15 103.523 104.713 103.12C104.687 103.094 104.651 103.079 104.614 103.079C104.577 103.079 104.541 103.094 104.515 103.12C104.501 103.132 104.49 103.147 104.483 103.165C104.475 103.182 104.471 103.2 104.471 103.219C104.471 103.237 104.475 103.256 104.483 103.273C104.49 103.29 104.501 103.305 104.515 103.318C105.254 104.019 106.237 104.405 107.255 104.394Z" fill="#263238"/>
<path d="M97.704 95.3182C97.8588 96.8238 98.0951 98.3199 98.412 99.7998C98.412 99.7998 101.952 95.3182 102.54 92.9181C102.399 93.863 102.125 94.7832 101.725 95.651C101.725 95.651 106.49 94.6102 106.958 91.4667C106.949 92.874 106.793 94.2765 106.49 95.651C106.49 95.651 111.036 93.8668 110.618 90.8507C110.2 87.8346 103.219 86.6664 99.9979 87.686C96.7765 88.7055 93.6259 92.0118 94.5746 96.5572C95.5233 101.103 97.3429 102.809 97.3429 102.809C97.3429 102.809 96.0331 98.2281 97.704 95.3182Z" fill="#263238"/>
<path d="M95.4526 102.971C95.8896 104.02 96.7247 104.853 97.7748 105.286C99.1908 105.853 100.033 104.642 99.7855 103.24C99.566 101.973 98.5677 100.16 97.1022 100.189C96.7815 100.203 96.4694 100.297 96.1941 100.462C95.9187 100.627 95.6888 100.858 95.5251 101.134C95.3614 101.41 95.2691 101.723 95.2564 102.043C95.2437 102.364 95.3111 102.683 95.4526 102.971Z" fill="#FFC3BD"/>
<path d="M98.5606 93.1367C97.8526 95.9687 99.3253 102.482 101.18 104.939C97.6402 103.148 96.2242 97.229 96.2242 97.229L98.5606 93.1367Z" fill="#263238"/>
<path d="M102.844 97.1311C102.88 97.1201 102.914 97.1019 102.943 97.0775C102.973 97.0532 102.997 97.0233 103.014 96.9895C103.163 96.6701 103.386 96.3906 103.664 96.174C103.942 95.9574 104.268 95.8098 104.614 95.7434C104.687 95.7328 104.754 95.6947 104.8 95.6368C104.846 95.5789 104.868 95.5056 104.862 95.4319C104.858 95.3949 104.847 95.3589 104.83 95.3263C104.812 95.2936 104.788 95.2648 104.759 95.2417C104.73 95.2185 104.696 95.2015 104.66 95.1916C104.625 95.1817 104.587 95.1791 104.55 95.1841C104.111 95.2603 103.697 95.4409 103.342 95.7107C102.987 95.9806 102.702 96.3317 102.511 96.7346C102.487 96.7838 102.478 96.839 102.485 96.8934C102.491 96.9477 102.514 96.999 102.549 97.041C102.584 97.0829 102.631 97.1138 102.683 97.1298C102.735 97.1458 102.791 97.1462 102.844 97.1311Z" fill="#263238"/>
<path d="M111.999 94.9354C112.034 94.9369 112.07 94.9307 112.103 94.9173C112.136 94.9038 112.165 94.8834 112.19 94.8575C112.242 94.8045 112.271 94.7334 112.271 94.6592C112.271 94.5851 112.242 94.5139 112.19 94.461C111.888 94.1342 111.513 93.8832 111.096 93.7282C110.679 93.5732 110.232 93.5187 109.79 93.5689C109.753 93.5757 109.718 93.5897 109.686 93.6102C109.655 93.6306 109.628 93.6571 109.607 93.688C109.586 93.719 109.571 93.7538 109.564 93.7905C109.556 93.8271 109.556 93.8649 109.563 93.9017C109.578 93.9733 109.621 94.0361 109.682 94.077C109.742 94.118 109.817 94.1338 109.889 94.1212C110.237 94.0822 110.59 94.126 110.919 94.249C111.247 94.3721 111.542 94.5708 111.779 94.8292C111.805 94.8621 111.839 94.8887 111.877 94.9071C111.915 94.9255 111.956 94.9351 111.999 94.9354Z" fill="#263238"/>
<path d="M90.5745 126.987C89.5904 130.095 88.6487 133.359 87.8487 136.573C87.0434 139.746 86.4544 142.971 86.0858 146.223L86.0291 146.818C86.0291 147.009 86.0291 147.052 86.0291 147.222C86.0369 147.556 86.0629 147.889 86.107 148.22C86.1972 148.995 86.3271 149.766 86.4964 150.528C86.8292 152.107 87.2044 153.735 87.6858 155.35C88.1673 156.964 88.5779 158.606 89.0594 160.235L90.4754 165.12L87.8487 166.203C86.2344 163.116 84.8326 159.973 83.5228 156.73C82.8927 155.102 82.2767 153.459 81.767 151.725C81.5121 150.861 81.2714 149.976 81.059 149.013C80.9581 148.503 80.8872 147.988 80.8466 147.469C80.8466 147.208 80.8466 146.818 80.8466 146.584V145.876C80.9066 144.072 81.0721 142.273 81.3422 140.489C81.5758 138.719 81.9227 136.991 82.298 135.271C83.0346 131.825 83.9804 128.427 85.13 125.097L90.5745 126.987Z" fill="#FFC3BD"/>
<path d="M87.6503 118.582C85.2431 119.29 82.3474 127.609 82.3474 127.609L91.693 134.292C91.693 134.292 95.1056 127.368 94.0931 124.253C93.0382 121.01 90.4045 117.746 87.6503 118.582Z" fill="#106FA4"/>
<path opacity="0.4" d="M87.6503 118.582C85.2431 119.29 82.3474 127.609 82.3474 127.609L91.693 134.292C91.693 134.292 95.1056 127.368 94.0931 124.253C93.0382 121.01 90.4045 117.746 87.6503 118.582Z" fill="white"/>
<path d="M74.7364 273.869C74.8515 273.828 74.9563 273.763 75.0432 273.677C75.1301 273.591 75.197 273.487 75.2391 273.373C75.28 273.299 75.3015 273.216 75.3015 273.132C75.3015 273.048 75.28 272.965 75.2391 272.891C74.8143 272.268 72.669 272.318 72.4071 272.325C72.3799 272.326 72.3535 272.334 72.3309 272.349C72.3083 272.364 72.2905 272.385 72.2796 272.41C72.2658 272.432 72.2585 272.458 72.2585 272.484C72.2585 272.511 72.2658 272.536 72.2796 272.559C72.8389 273.118 73.8868 274.031 74.6231 273.89L74.7364 273.869ZM72.7469 272.58C73.6036 272.58 74.7506 272.7 74.9771 273.033C74.9965 273.065 75.0067 273.102 75.0067 273.139C75.0067 273.177 74.9965 273.213 74.9771 273.245C74.9458 273.331 74.8939 273.407 74.8259 273.468C74.758 273.528 74.6762 273.571 74.5877 273.592C74.1983 273.692 73.5186 273.288 72.7469 272.58Z" fill="#106FA4"/>
<path d="M73.3771 272.431C74.0285 272.225 74.7223 271.864 74.871 271.461C74.9079 271.356 74.9085 271.241 74.8725 271.136C74.8365 271.031 74.7662 270.941 74.6728 270.88C74.5903 270.811 74.4933 270.762 74.389 270.736C74.2847 270.711 74.176 270.709 74.071 270.732C73.2284 270.88 72.3222 272.325 72.2868 272.388C72.2744 272.41 72.2678 272.434 72.2678 272.459C72.2678 272.484 72.2744 272.508 72.2868 272.53C72.2995 272.551 72.3172 272.568 72.3381 272.58C72.3591 272.593 72.3828 272.6 72.4072 272.601C72.737 272.591 73.0637 272.534 73.3771 272.431ZM74.0285 271.015H74.1205C74.1871 271.001 74.2559 271.002 74.322 271.018C74.3881 271.034 74.4499 271.064 74.5028 271.107C74.6444 271.22 74.6303 271.305 74.609 271.369C74.4674 271.758 73.3913 272.225 72.6762 272.317C73.0015 271.773 73.469 271.328 74.0285 271.029V271.015Z" fill="#106FA4"/>
<path d="M113.931 288.114C114.43 288.155 114.929 288.028 115.347 287.753C115.445 287.665 115.519 287.554 115.563 287.43C115.608 287.307 115.621 287.174 115.602 287.045C115.597 286.968 115.572 286.894 115.53 286.829C115.487 286.765 115.43 286.712 115.362 286.676C114.654 286.28 112.282 287.484 112.013 287.618C111.987 287.629 111.965 287.647 111.949 287.67C111.933 287.694 111.925 287.721 111.925 287.749C111.925 287.777 111.933 287.805 111.949 287.828C111.965 287.851 111.987 287.869 112.013 287.88C112.643 288.022 113.286 288.101 113.931 288.114ZM114.986 286.889C115.076 286.883 115.166 286.9 115.248 286.938C115.276 286.954 115.3 286.976 115.316 287.004C115.332 287.031 115.34 287.062 115.34 287.094C115.354 287.176 115.346 287.259 115.319 287.337C115.292 287.415 115.246 287.485 115.185 287.54C114.823 287.866 113.846 287.923 112.537 287.703C113.301 287.295 114.13 287.02 114.986 286.889Z" fill="#106FA4"/>
<path d="M112.098 287.909H112.154C112.862 287.59 114.278 286.316 114.151 285.643C114.151 285.48 114.009 285.289 113.62 285.247C113.48 285.231 113.339 285.244 113.205 285.286C113.071 285.327 112.947 285.396 112.841 285.487C112.133 286.11 111.963 287.703 111.956 287.767C111.955 287.792 111.96 287.817 111.972 287.839C111.983 287.861 111.999 287.88 112.02 287.894C112.043 287.909 112.071 287.914 112.098 287.909ZM113.514 285.509H113.599C113.853 285.509 113.875 285.643 113.875 285.671C113.946 286.075 112.997 287.087 112.275 287.519C112.331 286.846 112.596 286.208 113.032 285.693C113.162 285.575 113.331 285.509 113.507 285.509H113.514Z" fill="#106FA4"/>
<path d="M91.5515 153.076L90.9426 155.2C90.8576 155.363 91.0559 155.533 91.332 155.533H116.112C116.331 155.533 116.508 155.427 116.523 155.292L116.742 153.168C116.742 153.019 116.565 152.892 116.331 152.892H91.948C91.8716 152.886 91.7951 152.9 91.7256 152.932C91.6562 152.964 91.5962 153.014 91.5515 153.076Z" fill="#263238"/>
<path d="M94.8225 155.795H94.164C94.0366 155.795 93.9375 155.732 93.9446 155.647L94.249 152.815C94.249 152.737 94.3764 152.666 94.5039 152.666H95.1552C95.2898 152.666 95.3818 152.737 95.3747 152.815L95.0703 155.647C95.0703 155.76 94.957 155.795 94.8225 155.795Z" fill="#106FA4"/>
<path opacity="0.4" d="M94.8225 155.795H94.164C94.0366 155.795 93.9375 155.732 93.9446 155.647L94.249 152.815C94.249 152.737 94.3764 152.666 94.5039 152.666H95.1552C95.2898 152.666 95.3818 152.737 95.3747 152.815L95.0703 155.647C95.0703 155.76 94.957 155.795 94.8225 155.795Z" fill="black"/>
<path d="M114.243 155.795H113.592C113.464 155.795 113.365 155.732 113.372 155.647L113.684 152.815C113.684 152.737 113.804 152.666 113.931 152.666H114.583C114.717 152.666 114.816 152.737 114.802 152.815L114.498 155.647C114.491 155.76 114.377 155.795 114.243 155.795Z" fill="#106FA4"/>
<path opacity="0.4" d="M114.243 155.795H113.592C113.464 155.795 113.365 155.732 113.372 155.647L113.684 152.815C113.684 152.737 113.804 152.666 113.931 152.666H114.583C114.717 152.666 114.816 152.737 114.802 152.815L114.498 155.647C114.491 155.76 114.377 155.795 114.243 155.795Z" fill="black"/>
<path d="M104.536 155.795H103.885C103.75 155.795 103.651 155.732 103.665 155.647L103.97 152.815C103.97 152.737 104.09 152.666 104.225 152.666H104.876C105.004 152.666 105.103 152.737 105.096 152.815L104.791 155.647C104.784 155.76 104.664 155.795 104.536 155.795Z" fill="#106FA4"/>
<path opacity="0.4" d="M104.536 155.795H103.885C103.75 155.795 103.651 155.732 103.665 155.647L103.97 152.815C103.97 152.737 104.09 152.666 104.225 152.666H104.876C105.004 152.666 105.103 152.737 105.096 152.815L104.791 155.647C104.784 155.76 104.664 155.795 104.536 155.795Z" fill="black"/>
<path d="M105.025 97.8384L106.094 97.3145C106.094 97.3145 105.669 98.2986 105.025 97.8384Z" fill="#263238"/>
<path d="M90.2771 164.319L95.3534 168.213L89.47 169.509C89.47 169.509 86.9707 166.677 87.8345 164.341L90.2771 164.319Z" fill="#FFC3BD"/>
<path d="M96.5995 173.035L91.6152 173.85L88.8965 168.738L95.3534 168.214L96.5995 173.035Z" fill="#FFC3BD"/>
</g>
<defs>
<clipPath id="clip0_12937_9364">
<rect width="354" height="354" fill="white"/>
</clipPath>
</defs>
</svg>
