<svg width="85" height="36" viewBox="0 0 85 36" fill="none" xmlns="http://www.w3.org/2000/svg">
<path d="M10.1359 27.0467C10.2666 26.8765 10.4513 26.6441 10.5467 26.5342C10.6401 26.4221 10.7231 26.3329 10.7314 26.3371C10.7376 26.3391 10.8227 26.4346 10.9181 26.5487C11.0136 26.6628 11.1837 26.8765 11.2999 27.0259C11.414 27.1753 11.5821 27.4015 11.6734 27.5301C11.7626 27.6567 11.9203 27.8912 12.0199 28.0489C12.1195 28.2045 12.2606 28.4369 12.3332 28.5614C12.4058 28.6879 12.4951 28.8456 12.5324 28.9141C12.5698 28.9826 12.6694 29.1735 12.7523 29.3395C12.8353 29.5055 12.937 29.715 12.9785 29.8063C13.02 29.8976 13.0926 30.0615 13.1362 30.1694C13.1819 30.2773 13.2171 30.3686 13.2171 30.3728C13.2171 30.3749 12.0967 30.3769 8.2373 30.3769L8.24975 30.3313C8.25805 30.3043 8.32445 30.1445 8.40122 29.9723C8.47592 29.8022 8.61702 29.5013 8.71454 29.3084C8.81206 29.1154 8.97598 28.8104 9.07558 28.634C9.17725 28.4576 9.40341 28.0987 9.57771 27.8352C9.752 27.5716 10.0031 27.2189 10.1359 27.0467Z" fill="#EE2D24"/>
<path d="M8.03639 30.8853C8.09864 30.7131 8.16711 30.5305 8.18786 30.4745L8.22521 30.377L13.2258 30.3873L13.3046 30.5844C13.3503 30.6923 13.4395 30.9455 13.508 31.1447C13.5744 31.3439 13.6574 31.6053 13.6906 31.7257C13.7258 31.846 13.7922 32.0929 13.8379 32.2755C13.8835 32.4581 13.9479 32.7527 13.9831 32.9291C14.0184 33.1055 14.0641 33.3669 14.0869 33.5101C14.1097 33.6533 14.1429 33.8857 14.1616 34.0288C14.1782 34.172 14.2072 34.5123 14.2238 34.7862C14.2404 35.0601 14.255 35.3796 14.255 35.7095H7.2002V35.4647C7.2002 35.3319 7.21057 35.0684 7.22094 34.8795C7.23339 34.6907 7.26037 34.365 7.28319 34.1533C7.30394 33.9417 7.34129 33.6491 7.36619 33.4997C7.38901 33.3503 7.43674 33.0889 7.47201 32.9187C7.50521 32.7465 7.56953 32.4581 7.61518 32.2755C7.65875 32.0929 7.74798 31.7755 7.81022 31.57C7.87247 31.3646 7.97414 31.0555 8.03639 30.8853Z" fill="#653938"/>
<path d="M10.7275 21.4549V16.0912V10.7275H21.4653L21.4508 11.1363C21.4425 11.3625 21.4217 11.6737 21.4051 11.8273C21.3885 11.9808 21.3595 12.2049 21.3408 12.3252C21.3221 12.4454 21.2973 12.5946 21.2869 12.657L21.2868 12.6572C21.2744 12.7195 21.2453 12.8606 21.2225 12.9685C21.1997 13.0764 21.1582 13.259 21.1292 13.3731C21.1001 13.4872 21.0399 13.703 20.9943 13.8503C20.9507 13.9976 20.8802 14.2134 20.8387 14.3275C20.7992 14.4417 20.7225 14.6388 20.6727 14.7633C20.6208 14.8878 20.5233 15.1139 20.4548 15.2613C20.3863 15.4086 20.266 15.6534 20.1851 15.8007C20.1041 15.9481 19.9962 16.141 19.9444 16.2261C19.8925 16.3112 19.7659 16.5083 19.6643 16.6618C19.5626 16.8154 19.4111 17.0291 19.3302 17.137C19.2493 17.2449 19.1642 17.3569 19.1434 17.386C19.1206 17.415 19.0231 17.5333 18.9256 17.6474C18.8281 17.7615 18.6434 17.967 18.5168 18.1039C18.3902 18.2409 18.162 18.467 18.0085 18.606C17.8549 18.743 17.6225 18.9443 17.4918 19.0522C17.3611 19.158 17.1702 19.3074 17.0664 19.3821C16.9627 19.4588 16.7448 19.6082 16.5788 19.7161C16.4128 19.8261 16.1742 19.9734 16.0497 20.044C15.9252 20.1166 15.6347 20.266 15.4065 20.378C15.1783 20.488 14.8608 20.6312 14.701 20.6934C14.5413 20.7557 14.2715 20.8553 14.0993 20.9113C13.9292 20.9694 13.6615 21.0503 13.5079 21.0897C13.3544 21.1292 13.1199 21.1852 12.9892 21.2142C12.8585 21.2433 12.6344 21.2848 12.4912 21.3076C12.3481 21.3304 12.1157 21.3636 11.9725 21.3802C11.8293 21.3989 11.5637 21.4217 11.3811 21.4342C11.1985 21.4445 10.9765 21.4549 10.7275 21.4549Z" fill="#088A49"/>
<path d="M0 30.3773V25.9162V21.4551H0.284265C0.44196 21.4551 0.697176 21.4634 0.85072 21.4758C1.00427 21.4862 1.23458 21.5049 1.35908 21.5173C1.48357 21.5298 1.66202 21.5484 1.75331 21.5609C1.84461 21.5713 1.97948 21.5899 2.05418 21.6024C2.12887 21.6128 2.24092 21.6314 2.30317 21.6418L2.30317 21.6418C2.36542 21.6522 2.50651 21.6771 2.61441 21.6937C2.72231 21.7124 2.84888 21.7352 2.89452 21.7456C2.94017 21.7559 3.02317 21.7746 3.08127 21.7871C3.13729 21.7995 3.27839 21.8327 3.39251 21.8618C3.50663 21.8908 3.68922 21.9385 3.79712 21.9655C3.90501 21.9946 4.02121 22.0257 4.05648 22.034C4.09176 22.0444 4.30133 22.1128 4.52334 22.1875C4.74536 22.2602 5.06282 22.3763 5.22882 22.4407C5.39481 22.505 5.58156 22.5818 5.6438 22.6108C5.70605 22.6378 5.82225 22.6917 5.90317 22.727C5.98409 22.7644 6.22063 22.8806 6.43228 22.9864C6.64392 23.0922 6.85349 23.2001 6.89914 23.2271C6.94478 23.252 7.02363 23.2976 7.0755 23.3267C7.12738 23.3557 7.24357 23.4221 7.33487 23.4781L7.359 23.4929C7.44927 23.5483 7.57203 23.6236 7.64611 23.6711C7.72703 23.7209 7.8287 23.7873 7.87435 23.8184C7.92 23.8475 8.05072 23.9367 8.16484 24.0176C8.27896 24.0965 8.38063 24.1691 8.39308 24.1774C8.40553 24.1878 8.48853 24.25 8.57983 24.3206C8.67112 24.389 8.76035 24.4554 8.77695 24.4699C8.79354 24.4845 8.84957 24.528 8.90144 24.5675C8.95331 24.6069 9.02801 24.6671 9.06951 24.7023C9.10893 24.7355 9.17118 24.7874 9.20438 24.8144C9.23758 24.8434 9.37245 24.9617 9.50317 25.0779C9.63389 25.1941 9.86421 25.4099 10.0115 25.5551C10.1609 25.7025 10.3809 25.9286 10.4991 26.0573C10.6195 26.1859 10.717 26.3021 10.717 26.3125C10.717 26.3229 10.6402 26.4225 10.5469 26.5345C10.4514 26.6445 10.2667 26.8748 10.136 27.047C10.0032 27.2172 9.76046 27.5595 9.59654 27.8044C9.43262 28.0492 9.19816 28.4227 9.07781 28.6343C8.95746 28.846 8.76657 29.2049 8.65452 29.4332C8.54248 29.6614 8.40138 29.9664 8.22709 30.3773H0Z" fill="#FDB415"/>
<path d="M0.0207493 11.6158C0.0103746 11.5038 0 11.2527 0 11.0598V10.707L10.717 10.7174L10.7274 21.4552H10.4846C10.3497 21.4552 10.1236 21.4448 9.9804 21.4344C9.83723 21.422 9.59447 21.3971 9.44092 21.3805C9.28738 21.3639 9.10063 21.341 9.02594 21.3265C8.95124 21.3141 8.77487 21.2809 8.6317 21.2539C8.48853 21.2248 8.33914 21.1937 8.29971 21.1854C8.26029 21.1771 8.10052 21.1356 7.94697 21.0962C7.79343 21.0568 7.50916 20.9696 7.31412 20.9053C7.11908 20.8389 6.93233 20.7746 6.89914 20.7601C6.86594 20.7455 6.69787 20.675 6.52565 20.6044C6.3555 20.5318 6.09199 20.4135 5.94467 20.3388C5.79735 20.2662 5.60023 20.1625 5.50893 20.1106C5.42028 20.0602 5.28074 19.9785 5.19485 19.9283L5.18732 19.9239C5.10225 19.872 4.93003 19.7641 4.80346 19.6811C4.67689 19.5981 4.50882 19.4819 4.42997 19.4238C4.35112 19.3636 4.2702 19.3055 4.2536 19.291C4.237 19.2765 4.18513 19.2371 4.13948 19.2039C4.09383 19.1686 4.04611 19.1312 4.03366 19.1209C4.01914 19.1105 3.99216 19.0856 3.96934 19.069C3.94859 19.0524 3.88012 18.9964 3.81787 18.9445C3.75562 18.8947 3.64772 18.8013 3.57925 18.7391C3.51078 18.6768 3.35723 18.5316 3.23689 18.4154C3.11654 18.3013 2.92565 18.1041 2.81153 17.9776C2.69741 17.8531 2.57706 17.7161 2.54179 17.6767C2.50651 17.6373 2.40899 17.5169 2.32184 17.409C2.2347 17.3012 2.08945 17.1082 2.00023 16.9837C1.90893 16.8592 1.81141 16.7181 1.78029 16.6724C1.75124 16.6268 1.67032 16.4982 1.59977 16.3882C1.52922 16.2761 1.4732 16.1745 1.4732 16.1641C1.4732 16.1537 1.46282 16.1433 1.45245 16.1433C1.44208 16.1433 1.4317 16.133 1.4317 16.1226C1.4317 16.1122 1.40888 16.0666 1.38398 16.0251C1.357 15.9815 1.26986 15.8197 1.19101 15.6661C1.11216 15.5126 1.01464 15.3154 0.977291 15.2304C0.937867 15.1453 0.87977 15.0187 0.848646 14.9503C0.817522 14.8818 0.767723 14.7614 0.736599 14.6805C0.705476 14.5996 0.672277 14.5124 0.663977 14.4834C0.653602 14.4544 0.618329 14.3527 0.58098 14.2552C0.545706 14.1576 0.493833 13.9999 0.464784 13.9024C0.435735 13.8049 0.402536 13.697 0.394236 13.6638C0.383862 13.6306 0.348588 13.4895 0.313314 13.3526C0.27804 13.2156 0.222017 12.9542 0.186744 12.7716L0.186742 12.7716C0.153543 12.589 0.116196 12.3836 0.105821 12.3151C0.0954467 12.2466 0.0767723 12.1076 0.0643228 12.0039C0.0518732 11.9001 0.0331988 11.7258 0.0207493 11.6158Z" fill="#2995B2"/>
<path d="M0 35.7095V33.0432V30.377H4.10836C6.83274 30.377 8.21671 30.3832 8.21671 30.3977C8.21671 30.4081 8.19804 30.462 8.17314 30.516C8.15032 30.572 8.07562 30.7691 8.00922 30.9579C7.94282 31.1468 7.84115 31.4601 7.78513 31.653C7.72703 31.846 7.64611 32.1406 7.60669 32.3066C7.56726 32.4726 7.50501 32.7465 7.47182 32.9187C7.43654 33.0889 7.38882 33.3503 7.36599 33.4997C7.3411 33.6491 7.30375 33.9417 7.283 34.1533C7.26017 34.365 7.2332 34.6907 7.22075 34.8795C7.21037 35.0684 7.2 35.334 7.2 35.7199L0 35.7095Z" fill="#577441"/>
<path d="M20.0961 21.5173C20.2206 21.5049 20.4281 21.4883 20.5526 21.4779C20.6771 21.4696 20.9364 21.4592 21.4759 21.4551V30.3773L13.2281 30.3793L13.1471 30.1864C13.1015 30.0806 13.0247 29.9042 12.9728 29.7963C12.923 29.6884 12.8193 29.4726 12.7425 29.3191C12.6658 29.1655 12.5703 28.9829 12.533 28.9144C12.4956 28.846 12.4064 28.6883 12.3338 28.5617C12.2611 28.4372 12.1201 28.2048 12.0205 28.0492C11.9209 27.8915 11.7632 27.657 11.6739 27.5305C11.5826 27.4018 11.4146 27.1757 11.3005 27.0263C11.1863 26.8769 11.0224 26.6714 10.9353 26.5698C10.8502 26.466 10.7672 26.3664 10.7547 26.3457C10.7319 26.3146 10.7444 26.2917 10.8502 26.1714C10.9166 26.0925 11.1075 25.8954 11.2714 25.7294C11.4353 25.5634 11.6449 25.358 11.7362 25.2729C11.8254 25.1879 11.9375 25.0841 11.9831 25.0447C12.0288 25.0053 12.1221 24.9244 12.1906 24.8683C12.2591 24.8102 12.3192 24.7604 12.3255 24.7542C12.3317 24.748 12.3836 24.7044 12.4396 24.6608C12.4977 24.6152 12.5475 24.5737 12.5537 24.5675C12.5599 24.5612 12.6305 24.5052 12.7114 24.443C12.7944 24.3807 12.8857 24.3102 12.9168 24.2874C12.95 24.2645 12.9853 24.2355 12.9977 24.223C13.0102 24.2127 13.1471 24.1151 13.3007 24.0093C13.4542 23.9035 13.5995 23.806 13.6223 23.7935C13.6451 23.7811 13.6742 23.7624 13.6866 23.7499C13.7011 23.7375 13.7572 23.7002 13.8111 23.667C13.8671 23.6317 13.9647 23.5736 14.0269 23.5362C14.0892 23.4968 14.1473 23.4657 14.1576 23.4678C14.1659 23.4678 14.1722 23.4595 14.1722 23.447C14.1722 23.4366 14.1888 23.4221 14.2095 23.4159C14.2282 23.4097 14.334 23.3557 14.4419 23.2935C14.5498 23.2291 14.8403 23.0797 15.0851 22.9573C15.33 22.8349 15.5478 22.7291 15.5686 22.7187C15.5873 22.7083 15.6993 22.6585 15.8155 22.6087C15.9338 22.5589 16.1413 22.4739 16.2782 22.4199C16.4152 22.366 16.7243 22.2581 16.9629 22.1792C17.2016 22.1004 17.4277 22.0278 17.4609 22.0153C17.4941 22.0049 17.6726 21.9572 17.8552 21.9116C18.0377 21.8638 18.2701 21.8078 18.3739 21.785C18.4776 21.7622 18.6353 21.731 18.7266 21.7144C18.8179 21.6978 18.9818 21.6709 19.0897 21.6522C19.1976 21.6356 19.3429 21.6107 19.4113 21.6003C19.4798 21.5899 19.6105 21.5713 19.7018 21.5609C19.7931 21.5484 19.9716 21.5298 20.0961 21.5173Z" fill="#EE3166"/>
<path d="M10.707 10.7274V5.36369V0H11.0639C11.261 0 11.5059 0.0103746 11.6096 0.0207493C11.7134 0.0331988 11.8856 0.0518732 11.9935 0.0643228C12.1014 0.0767723 12.2466 0.0954467 12.3151 0.105821C12.3836 0.118271 12.4915 0.13487 12.5537 0.145245C12.616 0.157695 12.7425 0.180519 12.8338 0.197118C12.9251 0.215793 13.0828 0.248991 13.1866 0.271816C13.2903 0.296715 13.4708 0.342363 13.5912 0.375562C13.7115 0.410836 13.9128 0.471009 14.0373 0.512507C14.1618 0.551931 14.3548 0.618329 14.4627 0.657752C14.5705 0.697176 14.7345 0.761499 14.8258 0.798847C14.9171 0.836196 15.0748 0.906744 15.1785 0.954467C15.2822 1.00219 15.4358 1.07481 15.5209 1.11839C15.6059 1.15988 15.7595 1.24081 15.8632 1.29683C15.967 1.35078 16.1205 1.44 16.2056 1.4898C16.2907 1.54167 16.4774 1.65994 16.6206 1.75331C16.7637 1.84669 16.9546 1.97741 17.0459 2.0438C17.1372 2.11228 17.3012 2.23677 17.409 2.32184C17.5169 2.40899 17.629 2.50029 17.658 2.52519C17.6871 2.55216 17.7576 2.61233 17.8178 2.66213C17.8759 2.70986 18.0958 2.9215 18.3054 3.13314C18.515 3.34478 18.7474 3.58755 18.8221 3.67262C18.8947 3.75769 18.9984 3.88012 19.0503 3.94236C19.1022 4.00461 19.2142 4.14986 19.3014 4.26398C19.3865 4.3781 19.5379 4.58767 19.6334 4.73084C19.7309 4.87401 19.8907 5.12715 19.9903 5.29729C20.0878 5.46536 20.2372 5.73925 20.3222 5.90732C20.4052 6.07746 20.5048 6.28496 20.5422 6.37003C20.5795 6.4551 20.6252 6.563 20.6459 6.60865C20.6667 6.65429 20.731 6.82236 20.7891 6.98213C20.8493 7.1419 20.9053 7.29545 20.9157 7.3245C20.9261 7.35354 20.9634 7.47389 20.9987 7.59424C21.0339 7.71458 21.092 7.92 21.1252 8.05072C21.1605 8.18144 21.2103 8.39723 21.2373 8.52795C21.2643 8.65867 21.2995 8.85994 21.3182 8.97406C21.3369 9.08818 21.3618 9.24588 21.3722 9.3268C21.3825 9.40772 21.4012 9.56542 21.4137 9.67954C21.424 9.79366 21.4448 10.0593 21.4552 10.2709C21.4676 10.4825 21.4759 10.6714 21.4759 10.69C21.4759 10.7253 21.2062 10.7274 10.707 10.7274Z" fill="#39B54A"/>
<path d="M80.3203 10.8303C80.4226 10.821 80.5321 10.8111 80.582 10.8057C80.638 10.8016 80.8746 10.7954 81.109 10.7933C81.3435 10.7912 81.6547 10.7995 81.8041 10.8099C81.9535 10.8203 82.1444 10.8389 82.2295 10.8514C82.3146 10.8618 82.4411 10.8804 82.5096 10.8908C82.5781 10.9033 82.6943 10.9219 82.769 10.9344C82.8437 10.9468 82.9827 10.9759 83.0802 10.9987C83.1777 11.0215 83.2794 11.0485 83.3085 11.0589C83.3375 11.0672 83.4309 11.0962 83.516 11.1211C83.601 11.146 83.738 11.1896 83.8168 11.2186C83.8957 11.2477 84.0015 11.2892 84.0513 11.3099C84.099 11.3307 84.1426 11.3494 84.1488 11.3494C84.155 11.3494 84.2588 11.3992 84.3791 11.4593C84.5015 11.5174 84.6032 11.5735 84.6074 11.5838C84.6115 11.5921 84.5576 11.7353 84.4891 11.9055C84.4185 12.0735 84.3293 12.2893 84.292 12.3868C84.2526 12.4844 84.2069 12.5923 84.1924 12.6255C84.1758 12.6607 84.1198 12.7956 84.0658 12.9263C84.0119 13.057 83.9579 13.194 83.9413 13.2272C83.9268 13.2625 83.8791 13.3724 83.8376 13.4762C83.794 13.5799 83.7421 13.7023 83.682 13.8393L83.5118 13.7584C83.4164 13.7148 83.2877 13.6546 83.2255 13.6276C83.1632 13.5986 83.0138 13.5405 82.8935 13.499C82.7731 13.4554 82.6486 13.4118 82.6134 13.4015C82.5781 13.3911 82.5096 13.3703 82.4577 13.3537C82.4059 13.3372 82.3042 13.3102 82.2295 13.2915C82.1548 13.2749 82.0386 13.25 81.9701 13.2376C81.9017 13.2251 81.7336 13.2023 81.5966 13.1857C81.4597 13.1691 81.2543 13.1546 81.1402 13.1546C81.026 13.1546 80.8331 13.1691 80.7107 13.1857C80.5862 13.2023 80.4285 13.2355 80.3579 13.2604C80.2853 13.2832 80.1878 13.333 80.14 13.3683C80.0944 13.4056 80.0405 13.4637 80.0218 13.4969C80.0031 13.5322 79.9782 13.5924 79.9699 13.6318C79.9575 13.6774 79.9595 13.7397 79.9741 13.7978C79.9886 13.8538 80.0259 13.9202 80.0716 13.9659C80.111 14.0074 80.1712 14.0551 80.2064 14.0717C80.2417 14.0903 80.3289 14.1235 80.4036 14.1484C80.4783 14.1733 80.5654 14.2003 80.6007 14.2107C80.636 14.2211 80.7024 14.2377 80.7522 14.2522C80.7999 14.2646 80.8746 14.2833 80.9181 14.2958C80.9596 14.3061 81.1153 14.3393 81.2647 14.3684C81.4141 14.3974 81.5863 14.4306 81.6485 14.4431C81.7108 14.4555 81.8 14.4742 81.8456 14.4825C81.8913 14.4929 82.0697 14.5344 82.2399 14.5759C82.4121 14.6153 82.5843 14.6568 82.6237 14.6693C82.6632 14.6796 82.7628 14.7087 82.8416 14.7336C82.9205 14.7585 83.0761 14.8083 83.184 14.8456C83.2919 14.883 83.4288 14.9348 83.4848 14.9618C83.5429 14.9888 83.6674 15.0552 83.7649 15.1133C83.8625 15.1693 83.9745 15.2399 84.0139 15.2689C84.0534 15.298 84.1198 15.3498 84.1592 15.3851C84.1986 15.4183 84.3024 15.5158 84.3895 15.603C84.4746 15.688 84.5928 15.8291 84.6489 15.9142C84.707 15.9993 84.7754 16.1217 84.8003 16.184C84.8273 16.2462 84.8667 16.3541 84.8896 16.4226C84.9103 16.491 84.9414 16.6135 84.958 16.6923C84.9788 16.7919 84.9892 16.9683 84.9892 17.2525C84.9892 17.5493 84.9809 17.7111 84.956 17.8231C84.9394 17.9082 84.8958 18.0618 84.8605 18.1655C84.8252 18.2693 84.7651 18.4124 84.7277 18.4871C84.6883 18.5618 84.6406 18.651 84.6198 18.6842C84.6011 18.7195 84.5472 18.8025 84.5015 18.871C84.4559 18.9395 84.3356 19.0806 84.2318 19.1822C84.1301 19.286 83.9849 19.4146 83.9102 19.4686C83.8355 19.5225 83.7525 19.5848 83.7234 19.6076C83.6944 19.6304 83.5118 19.7279 83.3188 19.8255C83.1093 19.9292 82.8707 20.0309 82.7275 20.0744C82.5968 20.1139 82.4619 20.1574 82.4266 20.1678C82.3913 20.1782 82.271 20.2052 82.1569 20.2259C82.0428 20.2487 81.8788 20.2778 81.7938 20.2902C81.7087 20.3027 81.5178 20.3234 81.3684 20.3338C81.219 20.3463 80.9306 20.3546 80.7252 20.3546C80.5198 20.3546 80.221 20.3463 80.0612 20.3338C79.9014 20.3234 79.6856 20.3048 79.584 20.2923C79.4823 20.2799 79.3433 20.2612 79.2789 20.2487C79.2126 20.2384 79.1005 20.2197 79.03 20.2072C78.9573 20.1948 78.8619 20.1782 78.8162 20.1678C78.7706 20.1574 78.6316 20.1242 78.505 20.0952C78.3784 20.0661 78.2394 20.0329 78.1938 20.0184C78.1481 20.006 78.0132 19.9645 77.8929 19.925C77.7726 19.8856 77.5775 19.8151 77.4572 19.7674C77.3368 19.7217 77.1376 19.6283 77.0111 19.564C76.8845 19.4976 76.7745 19.4333 76.7662 19.4167C76.7538 19.4001 76.7787 19.3233 76.8326 19.2092C76.8803 19.1075 76.9177 19.0225 76.9177 19.0162C76.9177 19.01 76.9509 18.9353 76.9903 18.8502C77.0297 18.7652 77.0629 18.6905 77.0629 18.6842C77.0629 18.678 77.1003 18.595 77.1459 18.4975C77.1916 18.4 77.2289 18.317 77.2289 18.3108C77.2289 18.3045 77.2559 18.2402 77.2912 18.1655C77.3265 18.0908 77.3804 17.9705 77.4157 17.8958C77.4509 17.8211 77.4779 17.7567 77.4779 17.7505C77.4779 17.7443 77.5049 17.682 77.5381 17.6115C77.5692 17.5389 77.6149 17.4393 77.6377 17.3874C77.6605 17.3355 77.6916 17.2629 77.7082 17.2256C77.7248 17.1903 77.7497 17.1592 77.7643 17.1592C77.7767 17.1592 77.8431 17.1903 77.9095 17.2276C77.9738 17.265 78.0755 17.3169 78.1315 17.3438L78.1567 17.3556C78.2141 17.3822 78.2905 17.4177 78.339 17.4393C78.3971 17.4663 78.5092 17.5119 78.588 17.543C78.6669 17.5742 78.8266 17.6302 78.9407 17.6675C79.0549 17.7069 79.2271 17.7588 79.3246 17.7816C79.4221 17.8065 79.5383 17.8356 79.584 17.846C79.6296 17.8563 79.7188 17.875 79.7811 17.8875C79.8433 17.8999 79.9512 17.9165 80.0197 17.9269C80.0882 17.9373 80.2749 17.9559 80.4347 17.9684C80.5945 17.9808 80.8414 17.985 80.9845 17.9788C81.1277 17.9705 81.2958 17.9559 81.358 17.9456C81.4203 17.9331 81.5095 17.9124 81.5552 17.8999C81.6008 17.8875 81.6755 17.8563 81.7211 17.8314C81.7668 17.8065 81.8311 17.7547 81.8622 17.7173C81.9017 17.6675 81.9245 17.6157 81.9328 17.543C81.939 17.4746 81.9328 17.4123 81.91 17.3563C81.8934 17.3106 81.856 17.2525 81.8311 17.2297C81.8041 17.2048 81.7419 17.1612 81.69 17.1343C81.6381 17.1052 81.5406 17.0637 81.4722 17.0409C81.4037 17.0181 81.2958 16.9828 81.2335 16.9662C81.1713 16.9475 80.9991 16.904 80.8497 16.8687C80.7003 16.8355 80.5343 16.7961 80.4762 16.7836C80.4202 16.7732 80.3351 16.7546 80.2894 16.7442C80.2438 16.7338 80.1214 16.7048 80.0197 16.6819C79.918 16.657 79.7728 16.6238 79.6981 16.6072L79.6697 16.6001C79.5942 16.5813 79.4875 16.5547 79.418 16.5346C79.3391 16.5118 79.2063 16.4744 79.1275 16.4495C79.0486 16.4267 78.8806 16.3707 78.754 16.3292C78.6274 16.2856 78.4552 16.2172 78.3701 16.1757C78.2851 16.1342 78.1875 16.0844 78.1523 16.0636C78.117 16.0429 78.063 16.0097 78.0278 15.9868C77.9946 15.964 77.951 15.935 77.9344 15.9204C77.9178 15.908 77.8327 15.8416 77.7477 15.7731C77.6626 15.7046 77.5505 15.603 77.4987 15.5469C77.4468 15.4909 77.3825 15.4183 77.3534 15.3851C77.3244 15.3498 77.2829 15.2959 77.2621 15.2606C77.2404 15.2289 77.1978 15.1539 77.1633 15.093L77.1584 15.0842C77.1252 15.022 77.0795 14.9245 77.0588 14.8664C77.038 14.8103 77.0007 14.6921 76.9779 14.607C76.955 14.5219 76.926 14.3435 76.9135 14.2128C76.9032 14.082 76.899 13.8621 76.9052 13.7252C76.9115 13.5882 76.9281 13.416 76.9405 13.3413C76.953 13.2666 76.9862 13.1317 77.0152 13.0404C77.0443 12.9491 77.1127 12.7811 77.1667 12.6669C77.2206 12.5528 77.3244 12.3765 77.397 12.2748C77.4696 12.1731 77.6003 12.0196 77.6854 11.9324C77.7705 11.8453 77.9116 11.7208 77.9967 11.6565C78.0817 11.5921 78.227 11.4967 78.3183 11.4427C78.4096 11.3867 78.5735 11.3016 78.6814 11.2518C78.7893 11.2 78.9988 11.1191 79.1482 11.0693C79.2976 11.0215 79.4698 10.9697 79.5321 10.9572C79.5943 10.9448 79.6939 10.924 79.75 10.9136C79.8081 10.9033 79.9014 10.8846 79.9575 10.8742C80.0156 10.8638 80.1546 10.8452 80.2708 10.8348L80.3203 10.8303Z" fill="#106FA4"/>
<path d="M29.2151 26.4756C29.323 26.4631 29.4641 26.4507 29.5263 26.4465C29.5886 26.4424 29.8728 26.4424 30.1592 26.4465C30.4434 26.4507 30.7381 26.4631 30.8128 26.4756C30.8875 26.488 31.0141 26.5067 31.0929 26.5192C31.1717 26.5295 31.3274 26.5586 31.4353 26.5814C31.5432 26.6042 31.6552 26.6312 31.6843 26.6416C31.7133 26.6499 31.7922 26.6748 31.8606 26.6935C31.9291 26.7121 32.0411 26.7474 32.1096 26.7702C32.1781 26.7951 32.2756 26.8325 32.3275 26.8532C32.3794 26.8761 32.4582 26.9093 32.5039 26.9279C32.5495 26.9466 32.6574 26.9985 32.7425 27.0441C32.8275 27.0877 32.9769 27.1728 33.0745 27.2309C33.172 27.291 33.2695 27.3533 33.2923 27.372C33.3151 27.3927 33.3857 27.4446 33.4479 27.4923C33.5102 27.538 33.6492 27.6583 33.7571 27.7579C33.865 27.8575 34.004 27.9986 34.1845 28.2019L34.0704 28.3078C34.0061 28.3679 33.919 28.4489 33.8733 28.4883C33.8277 28.5277 33.7156 28.6273 33.6243 28.7061C33.533 28.785 33.421 28.8846 33.3753 28.9261C33.3297 28.9676 33.2031 29.0776 33.0952 29.173C32.9873 29.2664 32.8711 29.368 32.8358 29.3992C32.8006 29.4303 32.6449 29.5693 32.203 29.9615L32.01 29.7706C31.9063 29.6668 31.7527 29.532 31.6739 29.4739C31.595 29.4158 31.4809 29.339 31.4249 29.3058C31.3668 29.2705 31.261 29.2145 31.1863 29.1792C31.1116 29.144 30.9954 29.0962 30.9269 29.0734C30.8584 29.0485 30.7194 29.0153 30.6157 28.9946C30.4683 28.9676 30.3501 28.9634 30.0451 28.9717C29.7463 28.98 29.6239 28.9925 29.4952 29.0257C29.4039 29.0506 29.2773 29.09 29.2151 29.1149C29.1528 29.1398 29.0449 29.1917 28.9765 29.2311C28.908 29.2684 28.8043 29.3369 28.7482 29.3805C28.6901 29.4241 28.5885 29.5195 28.52 29.5921C28.4515 29.6648 28.3768 29.7478 28.3561 29.7768C28.3332 29.8038 28.2668 29.92 28.2088 30.0341C28.1507 30.1482 28.0822 30.308 28.0573 30.3868C28.0324 30.4657 27.9992 30.6213 27.9805 30.7292C27.9639 30.8392 27.9494 31.0591 27.9494 31.2272C27.9494 31.4035 27.9618 31.6048 27.9805 31.7148C27.9992 31.8185 28.0324 31.9617 28.0552 32.0364C28.078 32.1111 28.1112 32.2045 28.1299 32.2439C28.1465 32.2833 28.1776 32.3497 28.1963 32.3891C28.2171 32.4286 28.2461 32.4846 28.2627 32.5136C28.2793 32.5427 28.3187 32.6029 28.3519 32.6485C28.3851 32.6942 28.4785 32.8 28.5594 32.883C28.6403 32.968 28.7731 33.0801 28.852 33.134C28.9308 33.188 29.0304 33.2461 29.0698 33.2648C29.1093 33.2834 29.184 33.3166 29.2358 33.3395C29.2877 33.3623 29.4122 33.4017 29.516 33.4266C29.6799 33.4702 29.7546 33.4764 30.1073 33.4764C30.3812 33.4785 30.5451 33.4702 30.6157 33.4515C30.6717 33.437 30.7609 33.4142 30.8128 33.4017C30.8647 33.3893 30.9622 33.3623 31.0307 33.3395C31.0991 33.3166 31.1717 33.2897 31.1904 33.2793C31.2257 33.2627 31.2278 33.1859 31.2278 30.9574H33.9044L33.9065 34.8479L33.7447 34.9538C33.6554 35.0139 33.5164 35.099 33.4376 35.1426C33.3587 35.1882 33.2259 35.2546 33.1471 35.292C33.0682 35.3293 32.9749 35.3729 32.9396 35.3874C32.9043 35.4019 32.8338 35.4331 32.7777 35.458C32.7238 35.4808 32.5661 35.541 32.425 35.5866C32.286 35.6343 32.1449 35.68 32.1096 35.6883C32.0743 35.6986 31.9581 35.7277 31.8502 35.7567C31.7424 35.7837 31.5826 35.8211 31.4975 35.8397L31.4823 35.8427C31.3979 35.8592 31.2819 35.8818 31.2174 35.8916C31.1489 35.9041 31.0265 35.9227 30.9477 35.9352C30.8688 35.9476 30.7236 35.9663 30.626 35.9788C30.5285 35.9891 30.2214 35.9995 29.9413 35.9995C29.6612 35.9995 29.3541 35.9891 29.2566 35.9788C29.1591 35.9663 29.02 35.9476 28.9453 35.9352C28.8707 35.9227 28.7628 35.9041 28.7067 35.8937C28.6486 35.8812 28.5283 35.8543 28.437 35.8335C28.3457 35.8107 28.188 35.7671 28.0843 35.7339C27.9805 35.7007 27.8145 35.6385 27.7108 35.5949C27.607 35.5534 27.4722 35.4932 27.4099 35.4621C27.3477 35.431 27.2398 35.375 27.1713 35.3355C27.1028 35.2982 26.9638 35.211 26.86 35.1426C26.7563 35.0762 26.6152 34.9766 26.5447 34.9226C26.4741 34.8708 26.2957 34.7068 26.1483 34.5574C26.0031 34.4101 25.8454 34.2421 25.7998 34.184C25.7541 34.1279 25.6524 33.9827 25.5736 33.8623C25.4947 33.742 25.3827 33.5511 25.3246 33.437C25.2665 33.3229 25.1939 33.1693 25.1648 33.0946C25.1337 33.0199 25.0922 32.9079 25.0694 32.8456C25.0466 32.7834 25.0092 32.6672 24.9864 32.5863C24.9636 32.5074 24.9345 32.3891 24.9221 32.3269C24.9096 32.2646 24.8909 32.163 24.8785 32.1049C24.8681 32.0447 24.8474 31.8621 24.8349 31.7003C24.8204 31.5239 24.8162 31.2417 24.8245 31.0093C24.8308 30.779 24.8536 30.5113 24.8785 30.3661C24.8992 30.2291 24.9366 30.0465 24.9573 29.9615C24.9802 29.8764 25.0237 29.7312 25.0549 29.6399C25.0839 29.5486 25.1441 29.395 25.1856 29.2975C25.225 29.2 25.279 29.0838 25.3039 29.0381C25.3288 28.9925 25.3765 28.9033 25.4117 28.841C25.4449 28.7788 25.5217 28.6522 25.584 28.5609C25.6441 28.4696 25.7292 28.3534 25.7686 28.3015C25.8101 28.2497 25.8703 28.175 25.9056 28.1355C25.9388 28.0961 26.0384 27.9924 26.1234 27.9073C26.2085 27.8222 26.3123 27.7226 26.3517 27.6874C26.3911 27.6521 26.5052 27.5629 26.6048 27.4861C26.7065 27.4093 26.8372 27.3159 26.8953 27.2807L26.9054 27.2744C26.9638 27.2382 27.0342 27.1945 27.0675 27.1748C27.1028 27.1562 27.2377 27.0856 27.3684 27.0192C27.4991 26.9528 27.6734 26.8719 27.7523 26.8408C27.8311 26.8076 27.9639 26.7599 28.0428 26.735C28.1216 26.708 28.2772 26.6644 28.3851 26.6354C28.493 26.6084 28.6341 26.5752 28.6964 26.5627C28.7586 26.5503 28.8561 26.5295 28.9142 26.5192C28.9702 26.5088 29.1072 26.488 29.2151 26.4756Z" fill="#106FA4"/>
<path d="M71.0768 26.4756C71.2033 26.4631 71.3569 26.4507 71.4191 26.4465C71.4814 26.4424 71.7802 26.4424 72.0831 26.4465C72.386 26.4486 72.7035 26.4631 72.7886 26.4735C72.8737 26.486 73.023 26.5067 73.1206 26.5192C73.2181 26.5316 73.3343 26.5482 73.3799 26.5586C73.4256 26.569 73.519 26.5876 73.5874 26.6001C73.6559 26.6125 73.8094 26.6457 73.9298 26.6748C74.0501 26.7038 74.2182 26.7495 74.3033 26.7765C74.3884 26.8034 74.5336 26.8532 74.6249 26.8864C74.7162 26.9217 74.8282 26.9653 74.8739 26.984C74.9158 27.0011 75.0243 27.0533 75.1254 27.1019L75.1519 27.1147C75.2577 27.1686 75.3532 27.2226 75.3636 27.2329C75.3719 27.2454 75.3573 27.3056 75.3304 27.3678C75.3055 27.4301 75.2619 27.5338 75.237 27.5961C75.2121 27.6583 75.1747 27.7475 75.154 27.7932C75.1333 27.8388 75.0544 28.0297 74.9776 28.2185C74.9009 28.4074 74.8179 28.6086 74.7909 28.6646C74.766 28.7227 74.7369 28.7912 74.7286 28.8203C74.7213 28.8461 74.6926 28.9129 74.6644 28.9785L74.6539 29.0029C74.6207 29.0734 74.5938 29.1357 74.5938 29.1419C74.5938 29.1481 74.573 29.1958 74.5502 29.2518C74.5253 29.3058 74.4921 29.3805 74.4776 29.4178C74.461 29.4531 74.4444 29.4842 74.4381 29.4842C74.4327 29.4842 74.366 29.4536 74.2821 29.4151L74.2472 29.3992C74.1456 29.3514 73.9671 29.2726 73.8468 29.2249C73.7264 29.1751 73.5584 29.1108 73.4733 29.0838C73.3882 29.0547 73.2243 29.007 73.1102 28.978C72.9961 28.9489 72.828 28.9095 72.7367 28.8929C72.6454 28.8742 72.4441 28.8452 72.2906 28.8286C72.1371 28.812 71.9503 28.7995 71.8756 28.7995C71.8009 28.7995 71.6557 28.8099 71.554 28.8223C71.4523 28.8327 71.3299 28.8535 71.2843 28.8659C71.2386 28.8784 71.1743 28.897 71.139 28.9074C71.1082 28.9183 71.0601 28.937 71.0235 28.9513L71.0083 28.9572C70.973 28.9738 70.9087 29.0174 70.8672 29.0547C70.8257 29.09 70.7801 29.144 70.7655 29.173C70.751 29.2021 70.7344 29.2601 70.7261 29.3037C70.7199 29.3452 70.722 29.4178 70.7344 29.4635C70.7469 29.5154 70.7842 29.5735 70.8319 29.6191C70.8755 29.6585 70.9481 29.7104 70.9938 29.7312C71.0394 29.754 71.1141 29.7851 71.1598 29.8017C71.2054 29.8183 71.3175 29.8515 71.4088 29.8743C71.5 29.8992 71.6536 29.9366 71.7511 29.9594C71.8486 29.9822 71.9731 30.0113 72.0312 30.0237C72.0873 30.0362 72.303 30.0777 72.5085 30.1192C72.7139 30.1586 73.0023 30.225 73.1517 30.2644C73.3011 30.3018 73.4443 30.3391 73.4733 30.3474C73.5024 30.3536 73.6414 30.3972 73.7845 30.4429C73.9277 30.4885 74.0854 30.5445 74.1373 30.5674C74.1892 30.5923 74.2825 30.6358 74.3448 30.667C74.407 30.6981 74.4962 30.7437 74.5419 30.7686C74.5875 30.7935 74.6954 30.8682 74.7826 30.9325C74.8697 30.9969 74.9963 31.1006 75.0627 31.1629C75.1312 31.2251 75.2411 31.3434 75.3096 31.4264C75.3781 31.5094 75.4673 31.6442 75.5088 31.7293C75.5524 31.8123 75.6043 31.9327 75.6271 31.9949C75.6499 32.0572 75.679 32.1505 75.6914 32.2024C75.7018 32.2543 75.7246 32.3476 75.737 32.4099C75.7516 32.4763 75.764 32.6796 75.764 32.8975C75.764 33.1216 75.7536 33.3166 75.737 33.3851C75.726 33.4402 75.7069 33.5197 75.694 33.5732L75.6893 33.5926C75.679 33.6445 75.6499 33.742 75.6271 33.8105C75.6043 33.8789 75.5482 34.0097 75.5047 34.101C75.4611 34.1923 75.4009 34.3084 75.3719 34.3603C75.3407 34.4122 75.266 34.5201 75.2059 34.5989C75.1436 34.6778 75.0357 34.8002 74.9631 34.8687C74.8905 34.9372 74.8013 35.0181 74.7639 35.0513C74.7286 35.0824 74.6228 35.1592 74.5315 35.2214C74.4402 35.2837 74.3572 35.3355 74.3448 35.3355C74.3323 35.3355 74.322 35.3418 74.3178 35.3521C74.3157 35.3604 74.2473 35.4019 74.1684 35.4434C74.0896 35.4849 73.963 35.543 73.8883 35.5742C73.8136 35.6053 73.7264 35.6426 73.6912 35.6572C73.6559 35.6738 73.5584 35.709 73.4733 35.7381C73.3882 35.765 73.2513 35.8045 73.1724 35.8231C73.0936 35.8418 72.9608 35.8688 72.882 35.8833C72.8031 35.8999 72.6703 35.9227 72.5915 35.9352C72.5126 35.9476 72.3611 35.9663 72.2595 35.9788C72.1578 35.9891 71.8092 35.9995 71.4855 35.9995C71.1639 35.9995 70.8049 35.9891 70.6867 35.9788C70.5705 35.9663 70.4003 35.9476 70.309 35.9352C70.2177 35.9248 70.0912 35.9061 70.0289 35.8958C69.9667 35.8854 69.8256 35.8605 69.7177 35.8439C69.6098 35.8252 69.4417 35.792 69.3442 35.7692C69.2467 35.7464 69.1409 35.7215 69.1056 35.7111C69.0703 35.7028 69.006 35.6841 68.9603 35.6696C68.9147 35.6572 68.7985 35.624 68.701 35.5928C68.6035 35.5638 68.4499 35.5119 68.3586 35.4766C68.2673 35.4414 68.1324 35.3853 68.0577 35.3521C67.983 35.3189 67.8544 35.2567 67.7714 35.2152C67.6884 35.1737 67.595 35.1197 67.5079 35.0513L67.5992 34.8459C67.649 34.7338 67.7154 34.5844 67.7486 34.5159C67.7797 34.4475 67.8233 34.3499 67.8461 34.2981C67.8689 34.2462 67.9104 34.1487 67.9395 34.0802C67.9685 34.0117 68.0245 33.8831 68.066 33.7959C68.1075 33.7067 68.1407 33.6299 68.1407 33.6237C68.1407 33.6175 68.1677 33.5553 68.2009 33.4847L68.2142 33.4557C68.2459 33.3865 68.285 33.3009 68.3067 33.2502C68.3316 33.1942 68.3731 33.1008 68.4001 33.0427C68.425 32.9867 68.452 32.9203 68.4582 32.8975C68.4644 32.8747 68.4831 32.8456 68.4976 32.8311C68.5184 32.8124 68.5682 32.829 68.7321 32.912C68.8462 32.9701 69.0288 33.0573 69.1367 33.1071C69.2446 33.1548 69.4645 33.2378 69.6243 33.2897C69.7841 33.3415 69.9418 33.3934 69.9771 33.4038C70.0123 33.4121 70.0767 33.4308 70.1223 33.4432C70.1679 33.4557 70.2426 33.4743 70.2883 33.4868C70.3339 33.4992 70.4232 33.5179 70.4854 33.5303C70.5477 33.5407 70.7012 33.5656 70.8278 33.5864C70.9938 33.6113 71.1888 33.6216 71.5436 33.6216C71.942 33.6216 72.0624 33.6154 72.1972 33.5843C72.2885 33.5635 72.4047 33.5262 72.4545 33.5013C72.5043 33.4785 72.5728 33.4266 72.606 33.3913C72.6371 33.354 72.6724 33.3 72.6848 33.271C72.6973 33.2419 72.7056 33.188 72.7056 33.1527C72.7056 33.1154 72.6869 33.0469 72.6662 33.0012C72.6454 32.9556 72.6018 32.8954 72.5686 32.8664C72.5354 32.8373 72.4566 32.7896 72.3943 32.7585C72.3321 32.7274 72.1952 32.6796 72.0935 32.6485C71.9974 32.6191 71.8533 32.5805 71.7659 32.557L71.7511 32.5531C71.666 32.5302 71.5581 32.5053 71.5125 32.495C71.4669 32.4846 71.332 32.4576 71.2116 32.4327C71.0913 32.4078 70.9149 32.3684 70.8174 32.3456C70.7199 32.3227 70.5995 32.2937 70.5477 32.2812C70.4958 32.2688 70.3049 32.2169 70.1223 32.1671C69.9397 32.1173 69.7239 32.053 69.6451 32.026C69.5662 31.9991 69.4438 31.9555 69.3753 31.9327C69.3069 31.9078 69.1803 31.8538 69.0952 31.8102C69.0101 31.7687 68.8545 31.6774 68.7528 31.611C68.6429 31.5384 68.4707 31.3911 68.3358 31.2583C68.2071 31.1338 68.064 30.9699 68.0142 30.8952C67.9664 30.8205 67.9063 30.7147 67.8814 30.6566C67.8565 30.6006 67.8171 30.4968 67.7922 30.4283C67.7693 30.3599 67.7403 30.2582 67.7278 30.2001C67.7154 30.1441 67.6967 30.0528 67.6843 29.9988C67.6739 29.9428 67.6635 29.7436 67.6635 29.5527C67.6635 29.3411 67.676 29.1398 67.6946 29.0381C67.7112 28.9468 67.7424 28.812 67.7652 28.7373C67.7859 28.6626 67.8233 28.5567 67.8461 28.4986C67.8689 28.4426 67.9166 28.3347 67.954 28.26C67.9913 28.1853 68.0806 28.0422 68.1532 27.9384C68.2258 27.8367 68.3337 27.6998 68.3939 27.6376C68.4541 27.5753 68.5454 27.4861 68.5972 27.4384C68.6491 27.3927 68.7653 27.3035 68.8566 27.2392C68.9479 27.1748 69.0599 27.1022 69.1056 27.0752C69.1512 27.0504 69.2633 26.9923 69.3546 26.9466C69.4459 26.903 69.5911 26.8366 69.6762 26.8034C69.7613 26.7682 69.8878 26.7246 69.9563 26.7038C70.0248 26.681 70.1513 26.6457 70.2364 26.625C70.3215 26.6022 70.4522 26.5731 70.5269 26.5607C70.6016 26.5461 70.7033 26.5275 70.7551 26.5171C70.807 26.5067 70.9502 26.488 71.0768 26.4756Z" fill="#106FA4"/>
<path d="M13.508 31.1447C13.4395 30.9455 13.3483 30.6903 13.3047 30.5803L13.2217 30.377H21.455V35.7095H17.8757C15.9066 35.7095 14.284 35.7137 14.2695 35.7199C14.2508 35.7282 14.2467 35.695 14.2529 35.5809C14.2571 35.4979 14.2488 35.224 14.2342 34.9729C14.2218 34.7219 14.1969 34.3816 14.1803 34.2156C14.1637 34.0496 14.1305 33.7881 14.1077 33.6346C14.0848 33.481 14.033 33.1864 13.9936 32.981C13.9521 32.7756 13.8836 32.4581 13.8379 32.2755C13.7923 32.0929 13.7259 31.846 13.6906 31.7257C13.6574 31.6053 13.5744 31.3439 13.508 31.1447Z" fill="#623A60"/>
<path fill-rule="evenodd" clip-rule="evenodd" d="M25.1689 10.9972H28.2191L28.2295 14.2818L28.4971 13.983C28.6444 13.8191 28.8499 13.5909 28.9536 13.4767C29.0574 13.3647 29.1985 13.2091 29.2669 13.1344C29.3354 13.0597 29.462 12.9207 29.547 12.8252C29.6321 12.7298 29.7193 12.6322 29.74 12.6073C29.7608 12.5824 29.8604 12.4745 29.96 12.3666C30.0596 12.2587 30.1778 12.128 30.2235 12.0762C30.267 12.0243 30.3272 11.96 30.3563 11.9309C30.3853 11.9019 30.4455 11.8375 30.4891 11.7857C30.5326 11.7338 30.6177 11.6404 30.6758 11.5782C30.7339 11.5159 30.8231 11.4163 30.8729 11.3603C30.9248 11.3022 31.0202 11.1985 31.207 10.9972H32.8773C33.9708 10.9972 34.5518 11.0034 34.558 11.0179C34.5642 11.0283 34.5331 11.074 34.4895 11.1175C34.448 11.1611 34.3464 11.269 34.2675 11.3603C34.1887 11.4516 34.1181 11.5304 34.1119 11.5367C34.1057 11.5429 33.9936 11.6632 33.8629 11.8064C33.7322 11.9496 33.6201 12.0699 33.6139 12.0762C33.6077 12.0824 33.562 12.1322 33.5122 12.1903C33.4604 12.2463 33.34 12.3812 33.2425 12.4891C33.145 12.597 33.008 12.7464 32.9375 12.8211C32.869 12.8958 32.7715 13.0036 32.7196 13.0617C32.6698 13.1178 32.6013 13.1945 32.5661 13.2319C32.5308 13.2672 32.4478 13.3605 32.3793 13.4373C32.3108 13.5162 32.1988 13.6407 32.1283 13.7153C32.0598 13.79 31.9623 13.8959 31.9104 13.954C31.8606 14.01 31.7963 14.0805 31.7672 14.1096C31.7382 14.1386 31.6738 14.2092 31.624 14.2652C31.5722 14.3233 31.4518 14.4582 31.3543 14.5661C31.2568 14.674 31.1219 14.8213 30.9372 15.0226L31.317 15.5288C31.5244 15.809 31.7112 16.0579 31.7299 16.0849C31.7506 16.1119 31.9332 16.3567 32.1386 16.6306C32.344 16.9045 32.5204 17.139 32.5287 17.1494C32.5391 17.1597 32.7175 17.3983 32.925 17.6785C33.1346 17.9586 33.3172 18.2013 33.3296 18.2179C33.3442 18.2345 33.4811 18.4171 33.6347 18.6226C33.7882 18.828 33.9189 19.0002 33.9251 19.0064C33.9314 19.0126 33.9729 19.0687 34.0974 19.245L34.1347 19.162C34.1555 19.1164 34.1721 19.0728 34.1741 19.0624C34.1741 19.0541 34.2115 18.9691 34.2571 18.8715C34.3028 18.774 34.3401 18.691 34.3401 18.6848C34.3401 18.6786 34.365 18.6205 34.3941 18.5541C34.4231 18.4898 34.4584 18.4068 34.475 18.3736C34.4895 18.3404 34.5206 18.2677 34.5455 18.2117C34.5704 18.1578 34.6078 18.0748 34.6285 18.025C34.6493 17.9772 34.6929 17.8777 34.724 17.803C34.7551 17.7283 34.807 17.6079 34.8423 17.5332C34.8755 17.4585 34.9273 17.3423 34.9564 17.2738C34.9854 17.2054 35.0249 17.112 35.0456 17.0664C35.0664 17.0207 35.1286 16.8755 35.1867 16.7447C35.2427 16.614 35.3195 16.4418 35.3548 16.3609C35.39 16.28 35.4295 16.199 35.4398 16.1783C35.4523 16.1596 35.4606 16.1326 35.4606 16.1223C35.4606 16.1119 35.4876 16.0434 35.5208 15.9708C35.554 15.9002 35.6017 15.7944 35.6266 15.7384C35.6515 15.6803 35.6847 15.6056 35.6992 15.5724C35.7158 15.5392 35.7511 15.4562 35.7801 15.3898C35.8092 15.3255 35.8341 15.2674 35.8341 15.2612C35.8341 15.2549 35.8673 15.1782 35.9088 15.089C35.9503 15.0018 36.0063 14.8732 36.0353 14.8047C36.0644 14.7362 36.1059 14.6387 36.1287 14.5868C36.1515 14.5349 36.191 14.4457 36.2179 14.3897C36.2428 14.3316 36.2843 14.2382 36.3072 14.1822C36.33 14.1241 36.3839 14.0038 36.4254 13.9125C36.4669 13.8212 36.5084 13.7278 36.5188 13.705C36.5292 13.6821 36.5665 13.5929 36.6039 13.5079C36.6391 13.4228 36.6869 13.3107 36.7097 13.2589C36.7325 13.207 36.7636 13.1364 36.7782 13.1032C36.7948 13.07 36.8259 12.9974 36.8487 12.9414C36.8736 12.8875 36.9089 12.8045 36.9317 12.7547C36.9525 12.7069 36.9898 12.626 37.0126 12.5741C37.0355 12.5223 37.079 12.4206 37.1102 12.3459C37.1413 12.2712 37.189 12.1592 37.2181 12.0969C37.2471 12.0347 37.3135 11.8853 37.3633 11.7649C37.4152 11.6446 37.4753 11.5097 37.4961 11.4641C37.5168 11.4184 37.5687 11.2981 37.6932 11.0076L40.7517 10.9972L40.8056 11.1155C40.8347 11.1819 40.9135 11.3624 40.9799 11.5159C41.0463 11.6695 41.1293 11.8583 41.1646 11.9351C41.1998 12.0139 41.2289 12.0803 41.2289 12.0865C41.2289 12.0928 41.2559 12.155 41.2891 12.2255C41.3223 12.2982 41.3928 12.46 41.4468 12.5845C41.5007 12.709 41.563 12.8543 41.5858 12.9061C41.6086 12.958 41.6542 13.0576 41.6874 13.1281C41.7206 13.2008 41.7476 13.263 41.7476 13.2692C41.7476 13.2755 41.7663 13.3211 41.7891 13.373C41.8119 13.4249 41.8514 13.5099 41.8742 13.5639C41.8991 13.6199 41.9883 13.8212 42.0734 14.0162C42.1585 14.2113 42.2456 14.4084 42.2664 14.4561C42.2892 14.5059 42.3078 14.5495 42.3078 14.5557C42.3078 14.5619 42.3348 14.6242 42.368 14.6947C42.4012 14.7673 42.4531 14.8794 42.4821 14.9437C42.5112 15.0101 42.5361 15.0682 42.5361 15.0744C42.5361 15.0807 42.561 15.1387 42.59 15.2031C42.6191 15.2695 42.6523 15.3421 42.6627 15.3649C42.671 15.3877 42.7166 15.4873 42.7643 15.5869C42.81 15.6886 42.8473 15.7737 42.8473 15.7799C42.8473 15.7861 42.8681 15.8338 42.8909 15.8878C42.9158 15.9438 42.9511 16.0247 42.9718 16.0704C42.9926 16.116 43.0382 16.2239 43.0756 16.309C43.1108 16.3941 43.1606 16.5061 43.1835 16.558C43.2063 16.6099 43.2478 16.697 43.2727 16.7551C43.2997 16.8111 43.3453 16.919 43.3764 16.9937C43.4076 17.0684 43.4511 17.1701 43.474 17.222C43.4968 17.2738 43.5383 17.3651 43.5653 17.4232C43.5922 17.4834 43.6151 17.5374 43.6151 17.5436C43.6151 17.5498 43.6483 17.6245 43.6877 17.7096C43.7271 17.7947 43.7603 17.8694 43.7603 17.8756C43.7603 17.8818 43.7935 17.9565 43.8329 18.0416C43.8723 18.1266 43.9055 18.2013 43.9055 18.2076C43.9055 18.2138 43.9284 18.2698 43.9574 18.3321C43.9865 18.3943 44.0342 18.5001 44.0632 18.5645C44.0923 18.6309 44.1359 18.7304 44.1587 18.7885C44.1815 18.8446 44.2209 18.9379 44.2479 18.996C44.2728 19.0521 44.3185 19.1517 44.3475 19.2139C44.3766 19.2762 44.4243 19.3882 44.4554 19.4629C44.4865 19.5376 44.5301 19.6393 44.5529 19.6911C44.5757 19.743 44.611 19.8219 44.6318 19.8675C44.6525 19.9132 44.6836 19.9879 44.7023 20.0335C44.721 20.0792 44.7355 20.1227 44.7355 20.131C44.7355 20.1414 44.0197 20.1476 41.5505 20.1497L41.5256 20.102C41.5132 20.075 41.4841 20.0107 41.4592 19.9547C41.4343 19.9007 41.4156 19.8509 41.4156 19.8405C41.4156 19.8322 41.3596 19.6808 41.2891 19.5044C41.2206 19.328 41.1397 19.1185 41.1106 19.0375C41.0816 18.9566 41.0463 18.8632 41.0318 18.83C41.0172 18.7968 40.9882 18.7201 40.9259 18.5603L37.4836 18.5479L37.3757 18.8238C37.3156 18.9753 37.1994 19.272 37.1185 19.4836C37.0375 19.6953 36.9566 19.9049 36.94 19.9505C36.9255 19.9962 36.9006 20.0584 36.8612 20.1476H31.1655L31.1344 20.0958C31.1178 20.0667 31.0887 20.0273 31.0742 20.0065C31.0576 19.9879 30.9518 19.8488 30.8418 19.7015C30.7298 19.5542 30.5928 19.3716 30.5389 19.2969C30.4828 19.2222 30.4268 19.1475 30.4123 19.1309C30.3978 19.1143 30.3044 18.9898 30.2006 18.8529C30.0969 18.718 29.9662 18.5437 29.9102 18.4669C29.8521 18.3881 29.6072 18.0602 29.3624 17.7366C29.1175 17.4149 28.9142 17.1452 28.91 17.139C28.9038 17.1328 28.8872 17.1473 28.8706 17.1701C28.854 17.1929 28.8042 17.249 28.7627 17.2946C28.7191 17.3402 28.6113 17.4606 28.52 17.5643C28.4287 17.666 28.3228 17.7822 28.2191 17.8963V20.1476H25.1689L25.1689 10.9972ZM39.0917 14.3586C39.0564 14.4561 39.0087 14.5723 38.988 14.6179C38.9693 14.6636 38.9319 14.7611 38.905 14.8358C38.8801 14.9105 38.8469 14.9997 38.8323 15.0329C38.8178 15.0661 38.7348 15.2778 38.6477 15.4998C38.5605 15.7218 38.49 15.9106 38.49 15.9189C38.49 15.9293 38.4713 15.9791 38.4464 16.033C38.4215 16.0891 38.3945 16.1513 38.3862 16.1741C38.3759 16.197 38.3634 16.2364 38.3572 16.2613L38.3447 16.309H40.0669C39.9839 16.0911 39.9404 15.9895 39.9196 15.9397C39.8989 15.8919 39.8802 15.8421 39.8802 15.8318C39.8802 15.8214 39.8636 15.7716 39.8408 15.7218C39.82 15.6741 39.7889 15.5973 39.7702 15.5517C39.7515 15.506 39.6665 15.2819 39.5793 15.0537C39.4901 14.8254 39.3698 14.5121 39.3096 14.3586C39.21 14.1075 39.1975 14.0847 39.1789 14.1303C39.1685 14.1594 39.1291 14.2611 39.0917 14.3586ZM45.2127 10.9972H46.4992C47.7047 10.9972 47.7857 10.9993 47.8002 11.0325C47.8085 11.0532 47.8541 11.1321 47.9039 11.2088C47.9537 11.2877 47.9932 11.3603 47.9932 11.3707C47.9932 11.3811 48.0015 11.3914 48.0139 11.3914C48.0264 11.3914 48.0347 11.4018 48.0347 11.4122C48.0347 11.4226 48.0679 11.4848 48.1073 11.547C48.1467 11.6093 48.1799 11.6715 48.1799 11.6819C48.1799 11.6923 48.1882 11.7047 48.1965 11.7068C48.2069 11.711 48.2836 11.8292 48.3708 11.9724C48.4559 12.1156 48.5907 12.3355 48.6675 12.46C48.7443 12.5845 48.8231 12.7173 48.8439 12.7505C48.8625 12.7837 48.9206 12.8771 48.9704 12.958C49.0202 13.0368 49.07 13.1178 49.0825 13.1385C49.0949 13.1593 49.1593 13.2651 49.2277 13.3771C49.2962 13.4892 49.4726 13.7776 49.6199 14.0162C49.7651 14.2548 49.9042 14.4851 49.927 14.5246C49.9519 14.564 50.0017 14.647 50.039 14.7051C50.0785 14.7653 50.1096 14.8192 50.1096 14.8254C50.1096 14.8317 50.12 14.8483 50.1324 14.8607C50.1449 14.8752 50.2797 15.0931 50.4312 15.3442C50.5827 15.5952 50.7155 15.8027 50.7258 15.8069C50.7341 15.811 50.7715 15.7675 50.8068 15.7135C50.842 15.6596 50.9001 15.562 50.9396 15.4998C50.9769 15.4375 51.0225 15.3566 51.0433 15.3234C51.062 15.2902 51.1699 15.1076 51.2819 14.9188C51.394 14.73 51.5745 14.427 51.6845 14.2445C51.7944 14.0619 51.894 13.8938 51.9065 13.871C51.9189 13.8481 52.0144 13.6842 52.1223 13.5079C52.2281 13.3315 52.3339 13.153 52.3547 13.1136C52.3775 13.0742 52.4045 13.0306 52.4128 13.0202C52.421 13.0099 52.448 12.9663 52.4688 12.9269C52.4916 12.8875 52.6431 12.6302 52.807 12.3563C52.9688 12.0824 53.1245 11.823 53.1514 11.7794C53.1784 11.7379 53.2012 11.6923 53.2012 11.6819C53.2012 11.6715 53.2095 11.6612 53.222 11.6612C53.2344 11.6612 53.2427 11.6508 53.2427 11.6404C53.2427 11.63 53.2946 11.5325 53.3589 11.4267C53.4232 11.323 53.5062 11.1839 53.6079 11.0076L56.158 10.9972L56.1746 11.9351C56.1829 12.4517 56.1891 14.5121 56.1891 20.1476H53.3672L53.3651 19.6745C53.3631 19.4152 53.3548 18.4918 53.3361 16.0372L53.0809 16.4688C52.9419 16.7053 52.8111 16.9294 52.7904 16.9626C52.7717 16.9958 52.7489 17.0269 52.7385 17.029C52.7302 17.0332 52.724 17.0456 52.724 17.056C52.724 17.0664 52.6597 17.1826 52.5829 17.3091C52.5061 17.4378 52.3733 17.6598 52.2903 17.803C52.2053 17.9461 52.114 18.0976 52.0891 18.1391C52.0621 18.1827 52.0393 18.2283 52.0393 18.2387C52.0393 18.2491 52.031 18.2594 52.0185 18.2594C52.0061 18.2594 51.9978 18.2657 51.9978 18.274C51.9978 18.2843 51.9127 18.4358 51.8089 18.6122C51.7031 18.7885 51.5641 19.023 51.3836 19.328L50.0162 19.3405L49.6116 18.6931C49.3896 18.3362 49.2049 18.0333 49.2008 18.0167C49.1987 18.0021 49.1883 17.9897 49.1759 17.9897C49.1634 17.9897 49.1551 17.9793 49.1551 17.969C49.1551 17.9586 49.1385 17.9233 49.1157 17.8901C49.0949 17.859 49.041 17.7739 48.9953 17.6992C48.9497 17.6245 48.8522 17.4668 48.7775 17.3465C48.7028 17.2261 48.5555 16.9875 48.4496 16.8174C48.3438 16.6451 48.2069 16.4273 48.0326 16.1534L48.0347 20.1476H45.2127V10.9972ZM57.6644 10.9951L60.2 11.0034C61.8391 11.0096 62.7874 11.02 62.8808 11.0345C62.9596 11.047 63.082 11.0657 63.1505 11.0781C63.219 11.0906 63.3601 11.1175 63.4617 11.1404C63.5634 11.1632 63.7419 11.2109 63.856 11.2462C63.9701 11.2835 64.105 11.3313 64.1568 11.3541C64.2087 11.3769 64.3394 11.4392 64.4473 11.491C64.5552 11.5408 64.6465 11.5906 64.6486 11.601C64.6527 11.6114 64.6631 11.6197 64.6756 11.6197C64.688 11.6197 64.7503 11.6549 64.8146 11.6964C64.881 11.74 65.0013 11.8272 65.0802 11.8915C65.159 11.9558 65.2918 12.0782 65.3748 12.1612C65.4578 12.2463 65.574 12.3853 65.6342 12.4704C65.6944 12.5555 65.7691 12.6634 65.7981 12.709C65.8272 12.7547 65.8811 12.8563 65.9205 12.9372C65.9579 13.0182 66.016 13.1572 66.0492 13.2485C66.0824 13.3398 66.1218 13.4747 66.1405 13.5494C66.1571 13.6241 66.1799 13.7216 66.1903 13.7672C66.2006 13.8129 66.2193 13.9809 66.2338 14.1407C66.2504 14.3607 66.2504 14.508 66.2338 14.7424C66.2193 14.9126 66.2006 15.0952 66.1882 15.147C66.1757 15.1989 66.1571 15.2819 66.1446 15.3338C66.1322 15.3857 66.1052 15.4832 66.0824 15.5517C66.0596 15.6201 66.0347 15.6948 66.0264 15.7177C66.0181 15.7405 65.9662 15.8525 65.9122 15.9666C65.8562 16.0808 65.7545 16.2571 65.6819 16.3609C65.6093 16.4646 65.5014 16.6036 65.4391 16.67C65.379 16.7385 65.2628 16.8506 65.1819 16.919C65.1009 16.9896 65.0159 17.0601 64.9951 17.0767C64.9744 17.0954 64.8893 17.1514 64.8104 17.2033C64.7316 17.2552 64.5635 17.3485 64.437 17.4129C64.3104 17.4751 64.1382 17.5519 64.0531 17.5851C63.968 17.6162 63.8124 17.6639 63.7107 17.693C63.6091 17.722 63.4161 17.7656 63.2854 17.7926C63.1547 17.8175 62.9679 17.8507 62.8704 17.8652C62.7583 17.8818 62.3475 17.8943 60.7747 17.9067V20.1476H57.6623L57.6644 10.9951ZM60.7747 15.4998C61.9512 15.4998 62.1483 15.4915 62.2583 15.4687C62.3392 15.4521 62.4471 15.423 62.4969 15.4064C62.5488 15.3877 62.6338 15.3462 62.6836 15.313C62.7355 15.2798 62.8185 15.2114 62.8662 15.1574C62.914 15.1055 62.9762 15.0184 63.0032 14.9645C63.0302 14.9105 63.0654 14.8192 63.08 14.7632C63.0986 14.6989 63.109 14.5681 63.109 14.4312C63.1069 14.2465 63.0986 14.176 63.0592 14.0681C63.0322 13.9934 62.9928 13.9042 62.9679 13.871C62.9451 13.8357 62.8932 13.7714 62.8517 13.7278C62.8123 13.6842 62.7397 13.622 62.694 13.5909C62.6484 13.5577 62.5508 13.512 62.4762 13.4871C62.4035 13.4601 62.2583 13.4269 62.1545 13.4124C62.03 13.3917 61.7728 13.3834 61.3723 13.3834H60.7747V15.4998ZM67.0202 10.9972H68.5661C69.9231 10.9972 70.114 10.9993 70.1223 11.0283C70.1285 11.0449 70.1326 12.2504 70.1326 13.7091C70.1326 15.4707 70.1409 16.4024 70.1555 16.4854C70.1679 16.5538 70.1866 16.6597 70.199 16.724C70.2115 16.7862 70.2405 16.8941 70.2613 16.9626C70.2841 17.0311 70.3318 17.1431 70.3671 17.2116C70.4065 17.2842 70.4978 17.4004 70.5933 17.4959C70.6825 17.5851 70.7696 17.6577 70.7862 17.6577C70.8049 17.6577 70.8174 17.666 70.8174 17.6785C70.8174 17.6888 70.834 17.7034 70.8547 17.7075C70.8755 17.7117 70.9336 17.7324 70.9834 17.7511C71.0352 17.7698 71.1473 17.7967 71.2323 17.8133C71.3195 17.8299 71.4398 17.8445 71.5021 17.8445C71.5664 17.8445 71.6909 17.8299 71.7822 17.8154C71.8735 17.7988 71.9772 17.7739 72.0104 17.7594C72.0457 17.7449 72.1017 17.722 72.1349 17.7075C72.1702 17.693 72.2449 17.6473 72.3009 17.6038C72.359 17.5623 72.4317 17.4979 72.4649 17.4627C72.496 17.4274 72.5479 17.361 72.5811 17.3153C72.6143 17.2697 72.6599 17.1846 72.6848 17.1286C72.7097 17.0705 72.7429 16.9875 72.7595 16.9419C72.774 16.8962 72.8072 16.7593 72.8819 16.4231L72.8881 10.9972H75.9424V13.6738C75.9424 15.3566 75.9362 16.4294 75.9217 16.5621C75.9092 16.6783 75.8906 16.8402 75.8781 16.9211C75.8677 17 75.8491 17.1037 75.8387 17.1494C75.8304 17.195 75.8055 17.3008 75.7868 17.388C75.7681 17.473 75.7246 17.6266 75.6893 17.7303C75.654 17.832 75.5897 18.0001 75.5461 18.1038C75.5005 18.2055 75.4175 18.3694 75.3594 18.4669C75.3013 18.5624 75.2141 18.6931 75.1685 18.7574C75.1208 18.8197 75.0647 18.8944 75.0419 18.9234C75.0191 18.9504 74.9112 19.0645 74.8033 19.1724C74.6933 19.2824 74.5647 19.4027 74.5149 19.4421C74.4651 19.4816 74.3427 19.5687 74.2451 19.6351C74.1455 19.7015 73.9526 19.8115 73.8156 19.8779C73.6787 19.9443 73.4546 20.0356 73.3176 20.0812C73.1807 20.1269 73.0043 20.1787 72.9234 20.1974C72.8446 20.2161 72.7408 20.2389 72.6952 20.2493C72.6495 20.2597 72.5479 20.2783 72.4669 20.2908C72.3881 20.3032 72.2096 20.3219 72.0727 20.3323C71.9357 20.3447 71.6702 20.353 71.4813 20.353C71.2946 20.353 71.0269 20.3447 70.89 20.3323C70.753 20.3219 70.5538 20.2991 70.4439 20.2825C70.336 20.2638 70.1534 20.2265 70.0393 20.1974C69.9251 20.1684 69.8006 20.1352 69.7591 20.1227C69.7197 20.1103 69.5994 20.0667 69.4894 20.0273C69.3815 19.9899 69.1989 19.9111 69.0848 19.853C68.9707 19.7949 68.8649 19.7347 68.8462 19.7202C68.8296 19.7036 68.8088 19.6911 68.8005 19.6911C68.7922 19.6911 68.7632 19.6745 68.7362 19.6538C68.7072 19.633 68.6657 19.604 68.6387 19.5874C68.6138 19.5687 68.5349 19.5106 68.4665 19.4546C68.3959 19.3986 68.2776 19.2969 68.203 19.2264C68.1303 19.1537 68.037 19.0583 67.9955 19.0126C67.956 18.967 67.9021 18.9047 67.8772 18.8736C67.8523 18.8446 67.7776 18.7408 67.7133 18.6475C67.6489 18.5541 67.539 18.3549 67.4664 18.2076C67.3958 18.0582 67.3107 17.8631 67.2796 17.7718C67.2506 17.6805 67.2028 17.5208 67.1759 17.4191C67.151 17.3153 67.1136 17.1328 67.097 17.0145C67.0783 16.8941 67.0534 16.7115 67.0431 16.6099C67.0285 16.4916 67.0202 15.4272 67.0202 13.7091V10.9972ZM35.2157 26.6401L37.7098 26.6484C39.9092 26.6546 40.2329 26.6608 40.4508 26.6919C40.5877 26.7106 40.7475 26.7355 40.8035 26.748C40.8616 26.7583 40.9508 26.7791 41.0006 26.7895C41.0525 26.8019 41.1314 26.8206 41.177 26.833C41.2227 26.8455 41.3596 26.8891 41.4779 26.9285C41.5982 26.9679 41.7953 27.0468 41.9136 27.1049C42.034 27.1609 42.1937 27.246 42.2664 27.2916C42.341 27.3393 42.4863 27.4389 42.588 27.5157C42.6917 27.5925 42.837 27.719 42.9117 27.7979C42.9864 27.8747 43.1005 28.0095 43.1627 28.0946C43.225 28.1797 43.3038 28.2979 43.3391 28.354C43.3723 28.4121 43.4387 28.5366 43.4864 28.6341C43.5321 28.7316 43.5902 28.8665 43.613 28.9349C43.6358 29.0034 43.669 29.1196 43.6856 29.1943C43.7022 29.269 43.725 29.3811 43.7375 29.4433C43.7499 29.5056 43.7707 29.6736 43.7852 29.8168C43.8039 30.0222 43.8039 30.1384 43.7831 30.377C43.7686 30.543 43.7499 30.7152 43.7396 30.7609C43.7292 30.8065 43.7022 30.9248 43.6794 31.0265C43.6566 31.1261 43.6088 31.2796 43.5736 31.3688C43.5383 31.456 43.4698 31.5992 43.4242 31.6842C43.3785 31.7693 43.2914 31.9104 43.2333 31.9955C43.1752 32.0805 43.0299 32.2486 42.9096 32.3689C42.7768 32.5038 42.6087 32.6449 42.4738 32.7341C42.3556 32.8151 42.2166 32.9022 42.1688 32.9271C42.1107 32.9562 42.0858 32.979 42.0941 32.9977C42.1024 33.0101 42.1356 33.0599 42.1688 33.1055C42.2 33.1512 42.2788 33.2674 42.3431 33.3649C42.4074 33.4624 42.4655 33.5454 42.4718 33.5517C42.4801 33.5579 42.5506 33.6596 42.6295 33.7799C42.7104 33.9002 42.9698 34.282 43.2084 34.6306C43.4449 34.9792 43.6503 35.2821 43.6628 35.305C43.6752 35.3278 43.696 35.3568 43.7084 35.3693C43.7209 35.3817 43.781 35.4668 43.8433 35.5602C43.9076 35.6556 43.9595 35.7283 43.9616 35.7262C43.9616 35.722 44.028 35.5706 44.1089 35.388C44.1898 35.2054 44.279 35 44.3081 34.9315C44.3351 34.863 44.3869 34.7468 44.4222 34.6721C44.4554 34.5974 44.5093 34.4771 44.5405 34.4024C44.5695 34.3277 44.6152 34.226 44.638 34.1741C44.6608 34.1223 44.7002 34.031 44.7293 33.9729C44.7563 33.9127 44.777 33.8587 44.777 33.8525C44.777 33.8463 44.8061 33.7799 44.8434 33.7031C44.8787 33.6243 44.9347 33.5039 44.9679 33.4334C44.999 33.3608 45.026 33.2985 45.026 33.2923C45.026 33.2861 45.0986 33.1201 45.1837 32.925C45.2708 32.7279 45.3601 32.5266 45.3808 32.4789C45.4036 32.4291 45.4202 32.3855 45.4202 32.3793C45.4202 32.3731 45.4534 32.3005 45.4929 32.2196C45.5302 32.1366 45.5862 32.0121 45.6153 31.9436C45.6423 31.8751 45.6941 31.7589 45.7294 31.6842C45.7626 31.6095 45.8103 31.5037 45.8332 31.4456C45.8539 31.3896 45.8996 31.2858 45.9286 31.2174C45.9597 31.1489 46.0137 31.0348 46.0469 30.9642C46.078 30.8916 46.105 30.8294 46.105 30.8231C46.105 30.8169 46.134 30.7526 46.1672 30.6779C46.2025 30.6032 46.2295 30.5389 46.2295 30.5326C46.2295 30.5264 46.2564 30.4642 46.2896 30.3936C46.3228 30.321 46.3975 30.1509 46.4577 30.0139C46.5179 29.877 46.5843 29.7276 46.605 29.6819C46.6237 29.6363 46.6652 29.5429 46.6942 29.4744C46.7212 29.406 46.7793 29.2773 46.8208 29.1902C46.8602 29.1009 46.8934 29.0242 46.8934 29.0179C46.8934 29.0117 46.9183 28.9536 46.9474 28.8893C46.9785 28.8229 47.0096 28.7503 47.02 28.7275C47.0304 28.7046 47.0719 28.6133 47.1113 28.5262C47.1528 28.437 47.1839 28.3602 47.1839 28.354C47.1839 28.3477 47.2088 28.2896 47.24 28.2253C47.269 28.1589 47.3064 28.0739 47.323 28.0386C47.3375 28.0012 47.3645 27.939 47.3811 27.9037C47.3956 27.8664 47.4869 27.663 47.5802 27.4514C47.6736 27.2397 47.767 27.026 47.7857 26.9741C47.8064 26.9223 47.8479 26.8268 47.9309 26.6421H50.9811L51.0246 26.7417C51.0495 26.7957 51.0806 26.8725 51.0952 26.9119C51.1097 26.9513 51.1512 27.0468 51.1865 27.1256C51.2217 27.2024 51.2798 27.3248 51.313 27.3995C51.3483 27.4742 51.3753 27.5385 51.3753 27.5447C51.3753 27.551 51.3981 27.6049 51.4251 27.6651C51.4521 27.7232 51.4936 27.8145 51.5164 27.8664C51.5392 27.9182 51.5849 28.0199 51.6139 28.0946C51.645 28.1693 51.699 28.2896 51.7322 28.3643C51.7674 28.439 51.8172 28.5552 51.8463 28.6237C51.8753 28.6922 51.9625 28.8934 52.0393 29.0698C52.1181 29.2462 52.2094 29.4537 52.2447 29.5325C52.28 29.6093 52.309 29.6757 52.309 29.6819C52.309 29.6881 52.3422 29.7628 52.3816 29.8479C52.4231 29.933 52.4542 30.0077 52.4542 30.0139C52.4542 30.0201 52.4771 30.0741 52.504 30.1343C52.531 30.1924 52.5787 30.2982 52.6099 30.3666C52.641 30.4351 52.6846 30.5389 52.7074 30.5949C52.7302 30.653 52.7779 30.7588 52.8111 30.8335C52.8464 30.9082 52.8983 31.0244 52.9253 31.0929C52.9543 31.1613 52.9958 31.2547 53.0145 31.3004C53.0352 31.346 53.0996 31.4913 53.1556 31.622C53.2137 31.7527 53.2821 31.9125 53.3112 31.9747C53.3402 32.037 53.3921 32.1594 53.4295 32.2445C53.4668 32.3295 53.5083 32.4291 53.5228 32.4623C53.5374 32.4976 53.5706 32.5723 53.5975 32.6283C53.6224 32.6864 53.666 32.7839 53.6951 32.8462C53.722 32.9084 53.7635 33.008 53.7864 33.0641C53.8092 33.1221 53.8569 33.228 53.8901 33.3027C53.9254 33.3774 53.9752 33.4936 54.0042 33.562C54.0333 33.6305 54.0851 33.7467 54.1183 33.8214C54.1536 33.8961 54.2117 34.031 54.2511 34.1223C54.2885 34.2136 54.3466 34.3484 54.3819 34.4231C54.4151 34.4978 54.469 34.6182 54.5001 34.6929C54.5292 34.7676 54.5728 34.8672 54.5935 34.917C54.6163 34.9647 54.6537 35.0477 54.6786 35.1037C54.7014 35.1577 54.7491 35.2593 54.7823 35.3319C54.8134 35.4025 54.8404 35.4647 54.8404 35.471C54.8404 35.4772 54.8695 35.5415 54.9027 35.6162C54.9545 35.7283 54.9608 35.7573 54.94 35.7843C54.9172 35.8113 54.7408 35.8154 51.7799 35.803L51.7446 35.7303C51.726 35.6909 51.6616 35.5311 51.6035 35.3776C51.5454 35.2241 51.4894 35.0788 51.479 35.056C51.4687 35.0332 51.4375 34.9543 51.4106 34.8796C51.3836 34.8049 51.3172 34.6265 51.1574 34.2156L47.6985 34.226L47.5968 34.4958C47.5387 34.6451 47.4848 34.7862 47.4744 34.8132C47.464 34.8381 47.4454 34.8796 47.435 34.9066C47.4267 34.9315 47.3645 35.0933 47.3001 35.2635C47.2337 35.4357 47.1673 35.6058 47.1528 35.6432C47.1362 35.6785 47.1217 35.72 47.1217 35.7303C47.1217 35.7428 47.1072 35.7656 47.0906 35.7822C47.0615 35.8092 46.6693 35.8133 40.6894 35.8133L40.6209 35.7158C40.5836 35.6598 40.4134 35.4108 40.2433 35.1597C40.0732 34.9087 39.8532 34.5829 39.7536 34.4335C39.654 34.2862 39.4714 34.0144 39.1208 33.4998L38.3032 33.4894L38.2929 35.803H35.222L35.2157 26.6401ZM38.3053 31.1676C39.405 31.1655 39.625 31.1572 39.737 31.1364C39.8221 31.1198 39.9155 31.1012 39.9445 31.0929C39.9736 31.0866 40.0566 31.0514 40.1313 31.0182C40.2101 30.9829 40.3118 30.9124 40.3761 30.848C40.4383 30.7899 40.5089 30.6986 40.5359 30.6488C40.5608 30.597 40.5981 30.5036 40.6168 30.4413C40.6396 30.3666 40.65 30.2484 40.65 30.099C40.65 29.9226 40.6396 29.8375 40.6064 29.7359C40.5836 29.6612 40.5338 29.5533 40.4985 29.4973C40.4612 29.4412 40.3948 29.3624 40.347 29.3209C40.3014 29.2815 40.2122 29.2213 40.1499 29.1902C40.0877 29.159 39.986 29.1217 39.9238 29.1051C39.8615 29.0885 39.7142 29.0657 39.5959 29.0532C39.4797 29.0408 39.1415 29.0304 38.8448 29.0304H38.3053V31.1676ZM49.2734 30.1405C49.207 30.3106 49.1364 30.4911 49.1136 30.5389C49.0929 30.5866 49.0721 30.6343 49.07 30.6426C49.07 30.6509 48.9995 30.8397 48.9144 31.0617C48.8293 31.2858 48.7526 31.4871 48.7422 31.5099C48.7318 31.5328 48.7007 31.6158 48.6696 31.6967C48.6405 31.7755 48.6073 31.8627 48.597 31.8876C48.5845 31.9125 48.5762 31.9436 48.5762 31.956C48.5762 31.9685 48.8771 31.9768 49.4373 31.9768H50.2984C50.2714 31.8876 50.2486 31.8295 50.232 31.79C50.2133 31.7485 50.1179 31.5058 50.0183 31.2506C49.9187 30.9933 49.8295 30.7588 49.8212 30.7318C49.8129 30.7028 49.7921 30.6468 49.7734 30.6073C49.7568 30.5658 49.6884 30.3936 49.624 30.2235C49.5576 30.0513 49.4892 29.8749 49.4684 29.8292C49.4352 29.7525 49.4311 29.7483 49.4124 29.7877C49.4 29.8106 49.3377 29.9683 49.2734 30.1405ZM54.303 26.6442H62.748V29.0511H60.0921V32.4021C60.0921 35.4212 60.0879 35.7552 60.0589 35.7843C60.0319 35.8113 59.8327 35.8154 58.5338 35.8154C57.7142 35.8154 57.0274 35.8092 57.0108 35.805C56.9838 35.7947 56.9797 35.4004 56.9797 29.0511H54.303V26.6442ZM63.5157 26.6442H66.6281V31.2194C66.6281 35.2676 66.6239 35.7947 66.597 35.805C66.5804 35.8092 65.8936 35.8154 65.0719 35.8154C64.2502 35.8154 63.5634 35.8092 63.5468 35.805C63.5198 35.7947 63.5157 35.2676 63.5157 31.2194V26.6442Z" fill="#106FA4"/>
</svg>
