<svg width="400" height="400" viewBox="0 0 400 400" fill="none" xmlns="http://www.w3.org/2000/svg">
<path d="M400 305.92H0V306.12H400V305.92Z" fill="#EBEBEB"/>
<path d="M359.922 318.792H333.426V318.992H359.922V318.792Z" fill="#EBEBEB"/>
<path d="M264.975 320.968H258.023V321.168H264.975V320.968Z" fill="#EBEBEB"/>
<path d="M332.625 311.368H317.273V311.568H332.625V311.368Z" fill="#EBEBEB"/>
<path d="M76.5208 312.712H41.9688V312.912H76.5208V312.712Z" fill="#EBEBEB"/>
<path d="M88.7124 312.712H83.6484V312.912H88.7124V312.712Z" fill="#EBEBEB"/>
<path d="M180.12 316.088H105.176V316.288H180.12V316.088Z" fill="#EBEBEB"/>
<path d="M189.598 270.24H35.1264C33.9163 270.238 32.7565 269.756 31.9015 268.899C31.0466 268.043 30.5664 266.882 30.5664 265.672V48.528C30.5769 47.3248 31.0618 46.1744 31.9156 45.3266C32.7694 44.4788 33.9232 44.0021 35.1264 44H189.598C190.81 44 191.972 44.4813 192.828 45.3379C193.685 46.1946 194.166 47.3565 194.166 48.568V265.672C194.166 266.884 193.685 268.045 192.828 268.902C191.972 269.759 190.81 270.24 189.598 270.24ZM35.1264 44.16C33.9693 44.1621 32.8604 44.6233 32.0429 45.4422C31.2255 46.2611 30.7664 47.3709 30.7664 48.528V265.672C30.7664 266.829 31.2255 267.939 32.0429 268.758C32.8604 269.577 33.9693 270.038 35.1264 270.04H189.598C190.756 270.038 191.866 269.577 192.685 268.758C193.503 267.94 193.964 266.83 193.966 265.672V48.528C193.964 47.3702 193.503 46.2604 192.685 45.4417C191.866 44.623 190.756 44.1621 189.598 44.16H35.1264Z" fill="#EBEBEB"/>
<path d="M362.65 270.24H208.17C206.959 270.238 205.798 269.756 204.942 268.9C204.086 268.044 203.604 266.883 203.602 265.672V48.528C203.614 47.3241 204.101 46.1737 204.956 45.3261C205.811 44.4785 206.966 44.002 208.17 44H362.65C363.851 44.0042 365.003 44.4818 365.855 45.3294C366.707 46.177 367.191 47.3262 367.202 48.528V265.672C367.202 266.881 366.723 268.04 365.869 268.896C365.016 269.753 363.858 270.236 362.65 270.24ZM208.17 44.16C207.012 44.1621 205.902 44.623 205.083 45.4417C204.265 46.2604 203.804 47.3702 203.802 48.528V265.672C203.804 266.83 204.265 267.94 205.083 268.758C205.902 269.577 207.012 270.038 208.17 270.04H362.65C363.807 270.038 364.917 269.577 365.736 268.758C366.555 267.94 367.015 266.83 367.018 265.672V48.528C367.015 47.3702 366.555 46.2604 365.736 45.4417C364.917 44.623 363.807 44.1621 362.65 44.16H208.17Z" fill="#EBEBEB"/>
<path d="M68.3202 190.216H72.8242L72.8242 95.4161H68.3202L68.3202 190.216Z" fill="#E0E0E0"/>
<path d="M156.634 95.424H70.9219V190.224H156.634V95.424Z" fill="#E0E0E0"/>
<path d="M159.369 95.424H70.4648V190.224H159.369V95.424Z" fill="#F0F0F0"/>
<path d="M155.61 98.448H74.0898V185.864H155.61V98.448Z" fill="white"/>
<path d="M155.606 98.448H153.246V185.864H155.606V98.448Z" fill="#E0E0E0"/>
<path d="M73.8711 161.304V163.664H153.495V161.304H73.8711Z" fill="#E0E0E0"/>
<path d="M155.608 157.352H72.8242V161.312H155.608V157.352Z" fill="#F0F0F0"/>
<path d="M218.967 304.44H336.895V155.104L218.967 155.104V304.44Z" fill="#F0F0F0"/>
<path d="M223.135 192.472H332.727V160.536H223.135V192.472Z" fill="#E0E0E0"/>
<path d="M326.495 192.472H332.719V165.712H326.495V192.472Z" fill="#EBEBEB"/>
<path d="M296.393 192.472H302.617V165.712H296.393V192.472Z" fill="#EBEBEB"/>
<path d="M257.679 191.413L263.812 192.471L268.358 166.1L262.225 165.042L257.679 191.413Z" fill="#EBEBEB"/>
<path d="M318.792 192.472H325.016V169.232H318.792V192.472Z" fill="#EBEBEB"/>
<path d="M304.471 192.472H310.695V169.232H304.471V192.472Z" fill="#EBEBEB"/>
<path d="M268.35 192.472H274.574V169.232H268.35V192.472Z" fill="#EBEBEB"/>
<path d="M283.19 191.121L289.266 192.471L294.308 169.784L288.232 168.434L283.19 191.121Z" fill="#EBEBEB"/>
<path d="M313.408 192.472H316.52V164.376H313.408V192.472Z" fill="#EBEBEB"/>
<path d="M276.376 192.472H279.488V164.376H276.376V192.472Z" fill="#EBEBEB"/>
<path d="M332.721 197.536H223.129V229.472H332.721V197.536Z" fill="#E0E0E0"/>
<path d="M229.353 202.704H223.129V229.464H229.353V202.704Z" fill="#EBEBEB"/>
<path d="M259.454 202.704H253.23V229.464H259.454V202.704Z" fill="#EBEBEB"/>
<path d="M293.634 202.027L287.5 203.084L292.046 229.455L298.179 228.398L293.634 202.027Z" fill="#EBEBEB"/>
<path d="M237.072 206.232H230.848V229.472H237.072V206.232Z" fill="#EBEBEB"/>
<path d="M251.376 206.232H245.152V229.472H251.376V206.232Z" fill="#EBEBEB"/>
<path d="M287.497 206.232H281.273V229.472H287.497V206.232Z" fill="#EBEBEB"/>
<path d="M267.642 205.423L261.566 206.773L266.608 229.459L272.684 228.109L267.642 205.423Z" fill="#EBEBEB"/>
<path d="M242.456 201.376H239.344V229.472H242.456V201.376Z" fill="#EBEBEB"/>
<path d="M279.479 201.376H276.367V229.472H279.479V201.376Z" fill="#EBEBEB"/>
<path d="M326.495 229.464H332.719V202.704H326.495V229.464Z" fill="#EBEBEB"/>
<path d="M318.792 229.464H325.016V206.224H318.792V229.464Z" fill="#EBEBEB"/>
<path d="M304.471 229.464H310.695V206.224H304.471V229.464Z" fill="#EBEBEB"/>
<path d="M313.408 229.464H316.52V201.368H313.408V229.464Z" fill="#EBEBEB"/>
<path d="M223.135 266.456H332.727V234.52H223.135V266.456Z" fill="#E0E0E0"/>
<path d="M263.592 266.456H269.816V239.696H263.592V266.456Z" fill="#EBEBEB"/>
<path d="M224.882 265.388L231.016 266.445L235.561 240.074L229.428 239.017L224.882 265.388Z" fill="#EBEBEB"/>
<path d="M285.991 266.456H292.215V243.216H285.991V266.456Z" fill="#EBEBEB"/>
<path d="M271.678 266.456H277.902V243.216H271.678V266.456Z" fill="#EBEBEB"/>
<path d="M235.553 266.456H241.777V243.216H235.553V266.456Z" fill="#EBEBEB"/>
<path d="M250.393 265.095L256.469 266.445L261.511 243.759L255.435 242.408L250.393 265.095Z" fill="#EBEBEB"/>
<path d="M280.607 266.456H283.719V238.36H280.607V266.456Z" fill="#EBEBEB"/>
<path d="M243.575 266.456H246.688V238.36H243.575V266.456Z" fill="#EBEBEB"/>
<path d="M296.507 265.39L302.641 266.447L307.186 240.076L301.053 239.019L296.507 265.39Z" fill="#EBEBEB"/>
<path d="M307.182 266.456H313.406V243.216H307.182V266.456Z" fill="#EBEBEB"/>
<path d="M322.022 265.092L328.098 266.442L333.14 243.756L327.064 242.405L322.022 265.092Z" fill="#EBEBEB"/>
<path d="M315.193 266.456H318.305V238.36H315.193V266.456Z" fill="#EBEBEB"/>
<path d="M141.119 212.624H72.6712C70.9039 212.621 69.1532 212.966 67.5194 213.64C65.8855 214.314 64.4006 215.303 63.1494 216.552C61.8982 217.8 60.9053 219.282 60.2275 220.915C59.5497 222.547 59.2003 224.297 59.1992 226.064V279.52H154.567V226.064C154.567 224.298 154.219 222.55 153.543 220.919C152.867 219.288 151.877 217.806 150.628 216.558C149.379 215.31 147.896 214.32 146.265 213.645C144.633 212.97 142.885 212.623 141.119 212.624Z" fill="#E6E6E6"/>
<path d="M174.807 252.24H162.559C160.437 252.24 158.402 253.083 156.902 254.583C155.401 256.083 154.559 258.118 154.559 260.24V304.44H182.783V260.232C182.78 258.116 181.94 256.087 180.445 254.589C178.95 253.091 176.923 252.246 174.807 252.24Z" fill="#E0E0E0"/>
<path d="M174.807 252.24H174.543C172.421 252.24 170.386 253.083 168.886 254.583C167.386 256.083 166.543 258.118 166.543 260.24V304.44H182.775V260.232C182.773 258.117 181.933 256.089 180.44 254.592C178.947 253.094 176.922 252.248 174.807 252.24Z" fill="#EBEBEB"/>
<path d="M163.143 284.128H69.1992V304.432H163.143V284.128Z" fill="#E6E6E6"/>
<path d="M163.271 265.56H72.6708C68.1862 265.56 64.5508 269.196 64.5508 273.68V278.744C64.5508 283.229 68.1862 286.864 72.6708 286.864H163.271C167.755 286.864 171.391 283.229 171.391 278.744V273.68C171.391 269.196 167.755 265.56 163.271 265.56Z" fill="#F5F5F5"/>
<path d="M84.0631 265.56H72.8231C68.3386 265.56 64.7031 269.196 64.7031 273.68V278.744C64.7031 283.229 68.3386 286.864 72.8231 286.864H84.0631C88.5477 286.864 92.1831 283.229 92.1831 278.744V273.68C92.1831 269.196 88.5477 265.56 84.0631 265.56Z" fill="#E0E0E0"/>
<path d="M71.6074 252.24H59.3594C57.2376 252.24 55.2028 253.083 53.7025 254.583C52.2022 256.083 51.3594 258.118 51.3594 260.24V304.44H79.5994V260.232C79.5973 258.113 78.7546 256.081 77.2562 254.583C75.7579 253.085 73.7263 252.242 71.6074 252.24Z" fill="#E0E0E0"/>
<path d="M71.6076 252.24H71.3516C69.2298 252.24 67.195 253.083 65.6947 254.583C64.1944 256.083 63.3516 258.118 63.3516 260.24V304.44H79.5996V260.232C79.5974 258.113 78.7548 256.081 77.2564 254.583C75.7581 253.085 73.7265 252.242 71.6076 252.24Z" fill="#F0F0F0"/>
<path d="M274.944 119.624C283.94 119.624 291.232 112.332 291.232 103.336C291.232 94.3404 283.94 87.048 274.944 87.048C265.949 87.048 258.656 94.3404 258.656 103.336C258.656 112.332 265.949 119.624 274.944 119.624Z" fill="#E0E0E0"/>
<path d="M288.627 105.56C289.853 98.0108 284.726 90.8975 277.177 89.6721C269.628 88.4467 262.515 93.5732 261.289 101.122C260.064 108.672 265.19 115.785 272.739 117.01C280.289 118.236 287.402 113.109 288.627 105.56Z" fill="#F0F0F0"/>
<path d="M274.295 93.832V103.512L267.879 99.88" fill="#F0F0F0"/>
<path d="M274.296 104.208C274.174 104.208 274.055 104.175 273.952 104.112L267.552 100.488C267.401 100.392 267.294 100.242 267.251 100.068C267.208 99.8952 267.233 99.7121 267.322 99.5571C267.41 99.402 267.554 99.2868 267.725 99.2352C267.896 99.1837 268.08 99.1997 268.24 99.2799L273.616 102.328V93.8319C273.634 93.6612 273.715 93.5033 273.843 93.3886C273.97 93.2739 274.136 93.2104 274.308 93.2104C274.479 93.2104 274.645 93.2739 274.773 93.3886C274.9 93.5033 274.981 93.6612 275 93.8319V103.512C275 103.633 274.969 103.753 274.908 103.858C274.848 103.964 274.761 104.051 274.656 104.112C274.547 104.178 274.422 104.211 274.296 104.208Z" fill="#E0E0E0"/>
<path d="M199.999 342.056C285.665 342.056 355.111 337.124 355.111 331.04C355.111 324.956 285.665 320.024 199.999 320.024C114.333 320.024 44.8867 324.956 44.8867 331.04C44.8867 337.124 114.333 342.056 199.999 342.056Z" fill="#F5F5F5"/>
<path d="M310.926 164.656H289.326C287.359 164.656 285.473 165.437 284.082 166.828C282.691 168.219 281.91 170.105 281.91 172.072V181.016C281.91 182.983 282.691 184.869 284.082 186.26C285.473 187.651 287.359 188.432 289.326 188.432H298.558L301.038 196.264L303.542 188.432H310.886C312.853 188.432 314.739 187.651 316.13 186.26C317.521 184.869 318.302 182.983 318.302 181.016V172.072C318.302 170.112 317.526 168.232 316.144 166.842C314.762 165.453 312.886 164.667 310.926 164.656Z" fill="#106FA4"/>
<path d="M291.742 176C291.742 176.296 291.654 176.585 291.49 176.831C291.325 177.077 291.092 177.269 290.818 177.382C290.545 177.495 290.244 177.525 289.954 177.467C289.664 177.41 289.397 177.267 289.188 177.058C288.979 176.849 288.836 176.582 288.779 176.292C288.721 176.002 288.751 175.701 288.864 175.428C288.977 175.154 289.169 174.921 289.415 174.756C289.661 174.592 289.95 174.504 290.246 174.504C290.442 174.504 290.637 174.543 290.818 174.618C291 174.693 291.165 174.803 291.304 174.942C291.443 175.081 291.553 175.246 291.628 175.428C291.703 175.609 291.742 175.804 291.742 176ZM296.846 174.504C296.55 174.504 296.261 174.592 296.015 174.756C295.769 174.921 295.577 175.154 295.464 175.428C295.351 175.701 295.321 176.002 295.379 176.292C295.436 176.582 295.579 176.849 295.788 177.058C295.997 177.267 296.264 177.41 296.554 177.467C296.844 177.525 297.145 177.495 297.418 177.382C297.692 177.269 297.925 177.077 298.09 176.831C298.254 176.585 298.342 176.296 298.342 176C298.334 175.609 298.172 175.236 297.893 174.963C297.613 174.689 297.237 174.536 296.846 174.536V174.504ZM303.446 174.504C303.15 174.504 302.861 174.592 302.615 174.756C302.369 174.921 302.177 175.154 302.064 175.428C301.951 175.701 301.921 176.002 301.979 176.292C302.036 176.582 302.179 176.849 302.388 177.058C302.597 177.267 302.864 177.41 303.154 177.467C303.444 177.525 303.745 177.495 304.018 177.382C304.292 177.269 304.525 177.077 304.69 176.831C304.854 176.585 304.942 176.296 304.942 176C304.934 175.609 304.772 175.236 304.493 174.963C304.213 174.689 303.837 174.536 303.446 174.536V174.504ZM310.046 174.504C309.75 174.504 309.461 174.592 309.215 174.756C308.969 174.921 308.777 175.154 308.664 175.428C308.551 175.701 308.521 176.002 308.579 176.292C308.636 176.582 308.779 176.849 308.988 177.058C309.197 177.267 309.464 177.41 309.754 177.467C310.044 177.525 310.345 177.495 310.618 177.382C310.892 177.269 311.125 177.077 311.29 176.831C311.454 176.585 311.542 176.296 311.542 176C311.534 175.609 311.372 175.236 311.093 174.963C310.813 174.689 310.437 174.536 310.046 174.536V174.504Z" fill="white"/>
<path d="M89.1987 191.056H67.6387C66.6648 191.056 65.7004 191.248 64.8007 191.621C63.9009 191.993 63.0834 192.539 62.3948 193.228C61.7061 193.917 61.1599 194.734 60.7872 195.634C60.4145 196.534 60.2227 197.498 60.2227 198.472V207.416C60.2227 209.383 61.004 211.269 62.3948 212.66C63.7855 214.051 65.6718 214.832 67.6387 214.832H76.8707L79.3507 222.656L81.8547 214.832H89.1987C91.1655 214.832 93.0518 214.051 94.4426 212.66C95.8333 211.269 96.6147 209.383 96.6147 207.416V198.472C96.6147 197.498 96.4228 196.534 96.0501 195.634C95.6775 194.734 95.1312 193.917 94.4426 193.228C93.7539 192.539 92.9364 191.993 92.0366 191.621C91.1369 191.248 90.1725 191.056 89.1987 191.056Z" fill="#106FA4"/>
<path d="M70.0154 202.4C70.0154 202.696 69.9277 202.985 69.7633 203.231C69.5989 203.477 69.3653 203.669 69.0919 203.782C68.8186 203.895 68.5178 203.925 68.2276 203.867C67.9374 203.81 67.6708 203.667 67.4616 203.458C67.2524 203.249 67.1099 202.982 67.0522 202.692C66.9945 202.402 67.0241 202.101 67.1373 201.828C67.2505 201.554 67.4423 201.321 67.6883 201.156C67.9343 200.992 68.2236 200.904 68.5194 200.904C68.9162 200.904 69.2967 201.062 69.5773 201.342C69.8578 201.623 70.0154 202.003 70.0154 202.4ZM75.1194 200.904C74.8236 200.904 74.5343 200.992 74.2883 201.156C74.0423 201.321 73.8505 201.554 73.7373 201.828C73.6241 202.101 73.5945 202.402 73.6522 202.692C73.7099 202.982 73.8524 203.249 74.0616 203.458C74.2708 203.667 74.5374 203.81 74.8276 203.867C75.1178 203.925 75.4186 203.895 75.6919 203.782C75.9653 203.669 76.1989 203.477 76.3633 203.231C76.5277 202.985 76.6154 202.696 76.6154 202.4C76.6091 202.008 76.4485 201.635 76.1684 201.36C75.8883 201.086 75.5113 200.934 75.1194 200.936V200.904ZM81.7194 200.904C81.4229 200.901 81.1321 200.986 80.884 201.148C80.6359 201.311 80.4416 201.543 80.326 201.816C80.2103 202.089 80.1784 202.391 80.2343 202.682C80.2902 202.973 80.4314 203.241 80.6399 203.452C80.8485 203.663 81.115 203.807 81.4056 203.866C81.6963 203.925 81.9979 203.896 82.2722 203.784C82.5465 203.671 82.7811 203.479 82.9462 203.233C83.1113 202.986 83.1994 202.697 83.1994 202.4C83.1932 202.011 83.0347 201.64 82.7581 201.366C82.4814 201.092 82.1086 200.938 81.7194 200.936V200.904ZM88.3194 200.904C88.0236 200.904 87.7343 200.992 87.4883 201.156C87.2423 201.321 87.0505 201.554 86.9373 201.828C86.8241 202.101 86.7945 202.402 86.8522 202.692C86.9099 202.982 87.0524 203.249 87.2616 203.458C87.4708 203.667 87.7374 203.81 88.0276 203.867C88.3178 203.925 88.6186 203.895 88.8919 203.782C89.1653 203.669 89.3989 203.477 89.5633 203.231C89.7277 202.985 89.8154 202.696 89.8154 202.4C89.8091 202.008 89.6485 201.635 89.3684 201.36C89.0883 201.086 88.7113 200.934 88.3194 200.936V200.904Z" fill="white"/>
<path d="M330.399 332.16H228.863C209.895 332.16 208.679 309.824 224.271 299.312C227.122 297.417 230.277 296.026 233.599 295.2C264.471 287.08 307.847 232.496 338.399 255.336L338.487 255.4C368.919 278.4 347.647 332.16 330.399 332.16Z" fill="#263238"/>
<path opacity="0.5" d="M330.399 332.16H228.863C209.895 332.16 208.679 309.824 224.271 299.312C227.122 297.417 230.277 296.026 233.599 295.2C264.471 287.08 307.847 232.496 338.399 255.336L338.487 255.4C368.919 278.4 347.647 332.16 330.399 332.16Z" fill="white"/>
<path opacity="0.2" d="M338.321 255.296C335.761 255.128 332.657 255.848 329.313 258.648C320.633 265.928 333.833 300.976 313.073 315.552C301.489 323.688 251.513 327.272 234.833 317.296C222.521 309.928 222.361 305.296 224.273 299.312C227.123 297.417 230.279 296.026 233.601 295.2C264.433 287.04 307.809 232.456 338.321 255.296Z" fill="black"/>
<path d="M259.372 248.688L253.316 244.424L257.844 239.792C257.844 239.792 262.492 242.192 262.052 246.472L259.372 248.688Z" fill="#E4897B"/>
<path d="M250.941 239.72L255.141 237.08L257.845 239.792L253.317 244.424L250.941 239.72Z" fill="#E4897B"/>
<path d="M289.167 237.672C283.431 239.36 280.607 249.448 275.871 258.976L262.087 245.28L257.703 249.168C257.703 249.168 270.327 269.224 276.287 269.224C283.727 269.224 291.447 248.56 291.447 248.56L289.167 237.672Z" fill="#263238"/>
<path opacity="0.1" d="M291.444 248.56C291.444 248.56 290.22 251.832 288.244 255.76C286.364 259.584 283.804 264.04 281.044 266.736C279.484 268.248 277.844 269.208 276.244 269.208C270.284 269.208 257.66 249.152 257.66 249.152L262.044 245.264L275.828 258.96C280.564 249.432 283.38 239.344 289.132 237.656L291.444 248.56Z" fill="white"/>
<path opacity="0.2" d="M288.278 255.776C286.398 259.6 283.838 264.056 281.078 266.752C281.374 257.608 285.878 248.688 285.878 248.688C287.12 250.877 287.934 253.283 288.278 255.776Z" fill="black"/>
<path d="M283.679 293.4C283.679 293.4 234.999 286.408 232.423 297.088C229.711 308.384 268.799 316 292.159 316.8C315.519 317.6 322.223 312 318.471 283.2H286.471L283.679 293.4Z" fill="#106FA4"/>
<path opacity="0.6" d="M283.679 293.4C283.679 293.4 234.999 286.408 232.423 297.088C229.711 308.384 268.799 316 292.159 316.8C315.519 317.6 322.223 312 318.471 283.2H286.471L283.679 293.4Z" fill="white"/>
<path d="M256.567 315.672L246.367 315.68L241.471 315.688L240.887 310.528L245.415 309.92L256.479 308.448L256.567 315.672Z" fill="#E4897B"/>
<path d="M241.99 309.88L243.23 315.768C243.247 315.845 243.249 315.925 243.234 316.003C243.22 316.081 243.189 316.156 243.145 316.221C243.101 316.287 243.044 316.344 242.977 316.387C242.911 316.43 242.836 316.459 242.758 316.472L239.822 317C239.822 317 235.926 317.992 234.83 317.296C231.63 315.248 228.558 302.304 229.862 301.344C230.334 300.992 231.158 301.528 231.574 301.952C232.886 303.288 235.678 307.024 236.79 308.128C238.078 309.424 240.374 309.464 241.382 309.408C241.523 309.401 241.662 309.445 241.773 309.532C241.885 309.618 241.962 309.742 241.99 309.88Z" fill="#263238"/>
<path opacity="0.2" d="M256.566 315.672L246.366 315.68L245.414 309.92L256.478 308.448L256.566 315.672Z" fill="black"/>
<path d="M271.477 306.568L281.157 309.792L285.805 311.336L284.725 316.408L280.237 315.552L269.277 313.456L271.477 306.568Z" fill="#E4897B"/>
<path d="M283.479 316.672L284.159 310.696C284.169 310.618 284.194 310.542 284.233 310.474C284.272 310.405 284.324 310.345 284.387 310.297C284.449 310.248 284.521 310.213 284.597 310.192C284.673 310.171 284.752 310.166 284.831 310.176L287.783 310.608C287.783 310.608 291.783 310.896 292.583 311.904C294.983 314.856 293.799 328.112 292.263 328.608C291.695 328.792 291.087 328.024 290.823 327.496C290.023 325.808 288.535 321.376 287.831 319.984C287.031 318.344 284.847 317.584 283.879 317.312C283.747 317.27 283.635 317.183 283.561 317.065C283.488 316.948 283.459 316.809 283.479 316.672Z" fill="#263238"/>
<path opacity="0.2" d="M271.477 306.568L281.157 309.792L280.237 315.552L269.277 313.456L271.477 306.568Z" fill="black"/>
<path d="M278.557 316.448L275.797 316.712L277.445 307.16L280.613 308.832L278.557 316.448Z" fill="#106FA4"/>
<path opacity="0.6" d="M278.557 316.448L275.797 316.712L277.445 307.16L280.613 308.832L278.557 316.448Z" fill="white"/>
<path d="M287.798 319.912C287.87 320.345 287.805 320.789 287.614 321.184C287.536 321.302 287.429 321.398 287.303 321.461C287.176 321.524 287.035 321.553 286.894 321.544C286.809 321.548 286.724 321.529 286.648 321.49C286.572 321.45 286.508 321.392 286.462 321.32C286.046 320.616 287.022 318.448 287.142 318.208C287.149 318.181 287.167 318.158 287.19 318.143C287.214 318.128 287.242 318.123 287.27 318.128C287.3 318.131 287.329 318.143 287.352 318.163C287.375 318.183 287.391 318.21 287.398 318.24C287.588 318.782 287.722 319.343 287.798 319.912ZM286.646 320.952C286.651 321.023 286.673 321.091 286.71 321.152C286.725 321.183 286.749 321.208 286.78 321.224C286.81 321.239 286.844 321.245 286.878 321.24C286.975 321.251 287.073 321.235 287.161 321.192C287.249 321.15 287.323 321.083 287.374 321C287.607 320.239 287.565 319.421 287.254 318.688C286.917 319.4 286.711 320.167 286.646 320.952Z" fill="#106FA4"/>
<path d="M287.42 318.256V318.32C287.156 319.016 285.956 320.392 285.276 320.296C285.165 320.277 285.064 320.22 284.988 320.136C284.913 320.052 284.868 319.945 284.86 319.832C284.83 319.72 284.824 319.602 284.843 319.488C284.863 319.373 284.907 319.264 284.972 319.168C285.468 318.368 287.188 318.112 287.284 318.12C287.311 318.115 287.338 318.118 287.363 318.13C287.387 318.141 287.407 318.16 287.42 318.184C287.427 318.208 287.427 318.232 287.42 318.256ZM285.116 319.72V319.784C285.164 319.984 285.244 319.992 285.284 320.008C285.684 320.064 286.604 319.168 287.004 318.48C286.322 318.563 285.686 318.87 285.196 319.352C285.128 319.462 285.097 319.591 285.108 319.72H285.116Z" fill="#106FA4"/>
<path d="M247.293 309.176C247.293 309.176 292.581 291.576 306.453 294.52C320.325 297.464 320.389 304.72 313.357 311.488C306.325 318.256 295.821 315.648 295.821 315.648C295.821 315.648 304.077 310.704 303.501 307.648C302.925 304.592 297.677 311.576 297.677 311.576C297.677 311.576 270.309 318.272 247.709 316.504L247.293 309.176Z" fill="#106FA4"/>
<path d="M237.104 308.224C236.841 307.875 236.695 307.453 236.688 307.016C236.7 306.875 236.75 306.741 236.831 306.626C236.913 306.51 237.023 306.419 237.152 306.36C237.226 306.319 237.31 306.297 237.396 306.297C237.481 306.297 237.565 306.319 237.64 306.36C238.328 306.8 238.44 309.176 238.44 309.448C238.443 309.475 238.437 309.503 238.422 309.526C238.408 309.549 238.385 309.567 238.36 309.576C238.335 309.593 238.305 309.601 238.276 309.601C238.246 309.601 238.216 309.593 238.192 309.576C237.783 309.165 237.418 308.711 237.104 308.224ZM237.648 306.768C237.607 306.71 237.555 306.661 237.496 306.624C237.469 306.605 237.436 306.595 237.404 306.595C237.371 306.595 237.338 306.605 237.312 306.624C237.219 306.657 237.138 306.717 237.079 306.795C237.019 306.873 236.983 306.966 236.976 307.064C237.119 307.846 237.536 308.553 238.152 309.056C238.12 308.269 237.95 307.495 237.648 306.768Z" fill="#106FA4"/>
<path d="M238.189 309.52V309.448C238.109 308.712 238.533 306.936 239.189 306.704C239.298 306.67 239.414 306.674 239.52 306.714C239.626 306.755 239.715 306.83 239.773 306.928C239.924 307.106 239.999 307.336 239.981 307.568C239.901 308.504 238.493 309.52 238.381 309.568C238.359 309.583 238.332 309.591 238.305 309.591C238.278 309.591 238.252 309.583 238.229 309.568C238.212 309.556 238.199 309.539 238.189 309.52ZM239.565 307.16V307.104C239.437 306.952 239.357 306.984 239.317 306.992C238.933 307.12 238.517 308.336 238.517 309.136C238.909 308.808 239.669 308.12 239.717 307.536C239.726 307.406 239.692 307.277 239.621 307.168L239.565 307.16Z" fill="#106FA4"/>
<path opacity="0.7" d="M247.293 309.176C247.293 309.176 292.581 291.576 306.453 294.52C320.325 297.464 320.389 304.72 313.357 311.488C306.325 318.256 295.821 315.648 295.821 315.648C295.821 315.648 304.077 310.704 303.501 307.648C302.925 304.592 297.677 311.576 297.677 311.576C297.677 311.576 270.309 318.272 247.709 316.504L247.293 309.176Z" fill="white"/>
<path d="M246.742 309.04L249.286 307.872L250.75 317.4L247.214 316.824L246.742 309.04Z" fill="#106FA4"/>
<path opacity="0.6" d="M246.742 309.04L249.286 307.872L250.75 317.4L247.214 316.824L246.742 309.04Z" fill="white"/>
<path d="M321.685 239.2C316.797 266.4 318.573 284 318.573 284C318.573 284 295.829 283.688 286.485 283.16C281.501 250.192 289.165 237.664 289.165 237.664C291.609 237.174 294.08 236.835 296.565 236.648C297.085 236.608 297.621 236.584 298.165 236.56C302.573 236.557 306.978 236.806 311.357 237.304C312.157 237.392 313.029 237.504 313.845 237.624C318.013 238.256 321.685 239.2 321.685 239.2Z" fill="#263238"/>
<path opacity="0.1" d="M321.687 239.2C321.079 242.576 320.575 245.808 320.159 248.864C319.503 253.664 319.063 258.112 318.775 262.064C318.687 263.256 318.607 264.416 318.551 265.52C318.319 269.568 318.255 273.032 318.263 275.832C318.263 281.096 318.575 284 318.575 284C318.575 284 295.831 283.688 286.487 283.16C281.495 250.192 289.175 237.664 289.175 237.664C291.616 237.174 294.085 236.835 296.567 236.648C297.087 236.608 297.623 236.584 298.167 236.56C302.575 236.553 306.98 236.802 311.359 237.304C312.159 237.392 313.031 237.504 313.847 237.624C318.015 238.248 321.687 239.2 321.687 239.2Z" fill="white"/>
<path opacity="0.2" d="M301.375 269.224C307.203 268.532 312.954 267.294 318.551 265.528C318.319 269.576 318.255 273.04 318.263 275.84C307.407 276.84 302.975 274.752 302.975 274.752L301.375 269.224Z" fill="black"/>
<path opacity="0.2" d="M320.158 248.872C319.502 253.672 319.062 258.12 318.774 262.072C315.662 255.736 317.974 248.136 317.974 248.136L320.158 248.872Z" fill="black"/>
<path d="M302.606 280.392H286.062C285.741 280.387 285.433 280.262 285.199 280.041C284.965 279.821 284.822 279.521 284.798 279.2L282.494 257.24C282.478 257.093 282.494 256.944 282.54 256.803C282.586 256.662 282.662 256.532 282.761 256.422C282.861 256.313 282.983 256.226 283.119 256.167C283.255 256.108 283.402 256.078 283.55 256.08H300.094C300.409 256.086 300.711 256.208 300.943 256.422C301.174 256.635 301.319 256.927 301.35 257.24L303.662 279.2C303.683 279.35 303.671 279.503 303.627 279.647C303.584 279.792 303.509 279.926 303.409 280.039C303.308 280.152 303.185 280.243 303.046 280.304C302.908 280.364 302.758 280.395 302.606 280.392Z" fill="#263238"/>
<path opacity="0.6" d="M302.606 280.392H286.062C285.741 280.387 285.433 280.262 285.199 280.041C284.965 279.821 284.822 279.521 284.798 279.2L282.494 257.24C282.478 257.093 282.494 256.944 282.54 256.803C282.586 256.662 282.662 256.532 282.761 256.422C282.861 256.313 282.983 256.226 283.119 256.167C283.255 256.108 283.402 256.078 283.55 256.08H300.094C300.409 256.086 300.711 256.208 300.943 256.422C301.174 256.635 301.319 256.927 301.35 257.24L303.662 279.2C303.683 279.35 303.671 279.503 303.627 279.647C303.584 279.792 303.509 279.926 303.409 280.039C303.308 280.152 303.185 280.243 303.046 280.304C302.908 280.364 302.758 280.395 302.606 280.392Z" fill="white"/>
<path opacity="0.2" d="M301.918 280.392H286.062C285.741 280.387 285.433 280.262 285.199 280.041C284.965 279.821 284.822 279.521 284.798 279.2L282.494 257.24C282.478 257.093 282.494 256.944 282.54 256.803C282.586 256.662 282.662 256.532 282.761 256.422C282.861 256.313 282.983 256.226 283.119 256.167C283.255 256.108 283.402 256.078 283.55 256.08H299.406C299.721 256.086 300.023 256.208 300.255 256.422C300.486 256.635 300.631 256.927 300.662 257.24L302.974 279.2C302.995 279.35 302.983 279.503 302.939 279.647C302.896 279.792 302.821 279.926 302.721 280.039C302.62 280.152 302.497 280.243 302.358 280.304C302.22 280.364 302.07 280.395 301.918 280.392Z" fill="white"/>
<path d="M292.269 266.456C292.041 266.454 291.815 266.501 291.607 266.594C291.398 266.686 291.212 266.822 291.06 266.993C290.909 267.163 290.796 267.364 290.728 267.582C290.66 267.8 290.64 268.03 290.669 268.256C290.716 268.741 290.94 269.192 291.299 269.523C291.657 269.854 292.125 270.04 292.613 270.048C292.84 270.05 293.065 270.003 293.273 269.911C293.481 269.819 293.666 269.683 293.818 269.514C293.969 269.344 294.083 269.144 294.151 268.927C294.219 268.711 294.24 268.482 294.213 268.256C293.724 268.246 293.257 268.058 292.898 267.726C292.54 267.394 292.316 266.942 292.269 266.456Z" fill="#263238"/>
<path opacity="0.3" d="M295.854 257.856H287.11C286.896 257.853 286.686 257.79 286.505 257.674C286.324 257.558 286.179 257.394 286.086 257.2L285.566 256.112H297.102L296.798 257.2C296.739 257.4 296.613 257.574 296.441 257.694C296.27 257.813 296.063 257.87 295.854 257.856Z" fill="black"/>
<path d="M300.988 268.52L297.164 268.208L297.324 273.296L300.524 274.976L307.9 274.304L308.5 270.872C306.076 267.32 300.988 268.52 300.988 268.52Z" fill="#E4897B"/>
<path d="M321.686 239.2C325.614 240.384 331.182 263.2 330.294 268.24C329.406 273.28 319.718 275.44 307.406 275.16V269.208L321.686 265.04L319.286 256.24C319.286 256.24 317.302 249.768 318.19 245.24C318.678 242.904 319.903 240.786 321.686 239.2Z" fill="#263238"/>
<path opacity="0.1" d="M321.686 239.2C325.614 240.384 331.182 263.2 330.294 268.24C329.406 273.28 319.718 275.44 307.406 275.16V269.208L321.686 265.04L319.286 256.24C319.286 256.24 317.302 249.768 318.19 245.24C318.678 242.904 319.903 240.786 321.686 239.2Z" fill="white"/>
<path d="M309.454 237.048C307.462 239.128 304.334 240.872 299.318 240.688C295.47 240.536 294.934 238.12 295.606 236.792C297.942 236.312 298.998 235.296 299.326 234C299.654 232.704 299.198 230.96 298.526 229.344L305.014 223.88L306.11 222.952C306.11 223.264 306.07 223.592 306.054 223.936C305.978 225.204 305.978 226.476 306.054 227.744C306.27 231.32 307.118 235.2 309.454 237.048Z" fill="#E4897B"/>
<path opacity="0.2" d="M306.063 227.744C304.855 230.216 302.735 233.2 299.327 234C299.679 232.624 299.199 230.96 298.527 229.344L305.015 223.88C305.359 223.88 305.711 223.88 306.055 223.936C305.982 225.204 305.985 226.476 306.063 227.744Z" fill="black"/>
<path d="M291.197 213.016C290.245 215.192 290.125 219.864 293.437 218.704C296.749 217.544 292.797 209.28 291.197 213.016Z" fill="#263238"/>
<path d="M307.062 217.84C306.774 223.664 306.91 227.096 303.998 230.096C299.614 234.608 292.382 231.952 290.91 226.144C289.598 220.904 290.286 212.256 295.966 209.92C297.226 209.404 298.596 209.216 299.949 209.373C301.301 209.53 302.592 210.027 303.7 210.818C304.808 211.609 305.698 212.668 306.286 213.896C306.874 215.124 307.141 216.481 307.062 217.84Z" fill="#E4897B"/>
<path d="M298.23 219.488C298.23 219.96 297.99 220.352 297.678 220.352C297.366 220.352 297.11 219.968 297.102 219.488C297.094 219.008 297.35 218.632 297.654 218.632C297.958 218.632 298.222 219.016 298.23 219.488Z" fill="#263238"/>
<path d="M292.854 219.504C292.854 219.976 292.614 220.36 292.302 220.36C291.99 220.36 291.734 219.976 291.734 219.504C291.734 219.032 291.974 218.648 292.286 218.648C292.598 218.648 292.854 219.024 292.854 219.504Z" fill="#263238"/>
<path d="M294.565 219.736C293.999 221.141 293.239 222.461 292.309 223.656C292.639 223.873 293.011 224.019 293.401 224.084C293.791 224.148 294.19 224.131 294.573 224.032L294.565 219.736Z" fill="#DE5753"/>
<path d="M299.861 217.752C299.813 217.759 299.764 217.753 299.719 217.735C299.674 217.717 299.635 217.687 299.605 217.648C299.398 217.364 299.128 217.132 298.815 216.971C298.503 216.81 298.157 216.724 297.805 216.72C297.731 216.725 297.658 216.701 297.602 216.653C297.545 216.605 297.509 216.538 297.501 216.464C297.498 216.427 297.502 216.39 297.513 216.355C297.524 216.32 297.542 216.287 297.566 216.259C297.59 216.231 297.619 216.207 297.652 216.19C297.684 216.173 297.72 216.163 297.757 216.16C298.202 216.157 298.64 216.259 299.038 216.458C299.436 216.657 299.781 216.947 300.045 217.304C300.091 217.363 300.111 217.437 300.102 217.51C300.093 217.583 300.055 217.65 299.997 217.696C299.957 217.726 299.911 217.746 299.861 217.752Z" fill="#263238"/>
<path d="M290.516 217.664C290.464 217.679 290.409 217.679 290.356 217.664C290.323 217.648 290.294 217.625 290.269 217.598C290.245 217.57 290.226 217.538 290.214 217.503C290.202 217.468 290.197 217.431 290.2 217.394C290.202 217.357 290.212 217.321 290.228 217.288C290.406 216.881 290.679 216.523 291.024 216.245C291.369 215.966 291.777 215.775 292.212 215.688C292.249 215.684 292.286 215.687 292.322 215.697C292.358 215.707 292.391 215.724 292.42 215.747C292.449 215.77 292.473 215.799 292.491 215.831C292.509 215.863 292.52 215.899 292.524 215.936C292.53 215.972 292.528 216.008 292.52 216.044C292.511 216.079 292.496 216.112 292.474 216.141C292.452 216.17 292.425 216.194 292.394 216.213C292.363 216.231 292.328 216.243 292.292 216.248C291.949 216.313 291.627 216.461 291.355 216.68C291.083 216.899 290.869 217.182 290.732 217.504C290.712 217.546 290.681 217.582 290.644 217.61C290.606 217.638 290.562 217.656 290.516 217.664Z" fill="#263238"/>
<path d="M297.91 213.168C297.91 213.168 299.51 212.016 300.246 213.256C300.982 214.496 300.934 217.8 300.934 217.8L301.254 217.216C301.254 217.216 303.326 224.576 306.326 222.72C309.326 220.864 313.734 213.392 306.726 209.584C306.726 209.584 305.982 207.808 301.35 206.928C296.718 206.048 291.118 208.912 290.15 211.976C289.182 215.04 290.534 216.776 290.534 216.776C290.682 216.109 290.987 215.487 291.422 214.96C291.484 215.272 291.622 215.564 291.825 215.81C292.027 216.056 292.287 216.247 292.582 216.368C292.535 215.742 292.665 215.115 292.958 214.56C293.111 215.104 293.384 215.607 293.758 216.032C294.094 212.88 296.238 212.24 296.91 212.264C297.15 212.291 297.376 212.392 297.556 212.554C297.735 212.717 297.859 212.931 297.91 213.168Z" fill="#263238"/>
<path d="M309.376 222.664C309.162 223.357 308.812 224.001 308.348 224.558C307.884 225.116 307.314 225.576 306.672 225.912C304.944 226.8 303.68 225.336 303.824 223.512C303.952 221.856 305 219.4 306.896 219.28C307.31 219.261 307.723 219.345 308.098 219.525C308.472 219.704 308.797 219.973 309.042 220.308C309.287 220.643 309.446 221.033 309.504 221.444C309.563 221.855 309.518 222.274 309.376 222.664Z" fill="#E4897B"/>
<path d="M294.758 225.984C295.257 226.507 295.717 227.065 296.134 227.656L296.478 227.488C298.022 226.688 298.486 225.832 298.526 225.088C298.536 224.729 298.462 224.373 298.31 224.048C298.228 223.863 298.121 223.69 297.99 223.536C297.253 224.444 296.327 225.181 295.278 225.696C294.966 225.888 294.758 225.984 294.758 225.984Z" fill="#263238"/>
<path d="M295.277 225.712L295.701 226.192C297.149 225.456 298.101 224.736 298.309 224.064C298.228 223.879 298.12 223.706 297.989 223.552C297.252 224.46 296.327 225.197 295.277 225.712Z" fill="white"/>
<path d="M296.477 227.488C298.021 226.688 298.485 225.832 298.525 225.088C297.943 225.397 297.42 225.806 296.981 226.296C296.691 226.63 296.514 227.047 296.477 227.488Z" fill="#A24E3F"/>
<path d="M155.529 244.944L155.945 249.384C155.945 249.384 181.929 253.336 186.089 257.384C190.249 261.432 205.009 325.456 205.009 325.456L199.057 326.256C199.057 326.256 178.401 279.056 177.297 272.224C177.297 272.224 159.105 272.904 146.689 272.904C134.273 272.904 132.793 244.904 132.793 244.904L155.529 244.944Z" fill="#106FA4"/>
<path opacity="0.3" d="M205.01 325.464L199.058 326.264C199.058 326.264 190.61 306.96 184.234 291.256C180.626 282.4 177.69 274.688 177.298 272.224C177.298 272.224 164.706 272.688 153.298 272.848C150.994 272.848 148.746 272.896 146.658 272.896C134.242 272.896 132.762 244.896 132.762 244.896H155.498L155.914 249.336C155.914 249.336 181.906 253.28 186.058 257.336C190.21 261.392 205.01 325.464 205.01 325.464Z" fill="white"/>
<path d="M209.599 331.2C205.599 331.2 205.063 331.136 202.807 331.056C200.879 330.992 200.407 331.232 198.871 331.2C197.575 331.2 197.623 329.928 198.023 328.504C198.223 327.784 198.527 326.272 198.823 325.12L204.695 324.688C205.495 326.288 207.383 328.52 209.639 328.824C211.895 329.128 211.199 331.2 209.599 331.2Z" fill="#263238"/>
<path opacity="0.2" d="M184.23 291.288C180.622 282.432 177.686 274.72 177.294 272.256C177.294 272.256 164.702 272.72 153.294 272.88L152.062 251.128C152.062 251.128 168.127 253.432 178.927 262.736C180.295 263.888 182.958 281.704 184.23 291.288Z" fill="black"/>
<path d="M178.633 277.064H132.145V274.208C132.145 273.255 132.523 272.342 133.197 271.668C133.871 270.994 134.784 270.616 135.737 270.616H175.041C175.993 270.616 176.907 270.994 177.581 271.668C178.254 272.342 178.633 273.255 178.633 274.208V277.064Z" fill="#263238"/>
<path opacity="0.2" d="M178.633 277.064H132.145V274.208C132.145 273.255 132.523 272.342 133.197 271.668C133.871 270.994 134.784 270.616 135.737 270.616H175.041C175.993 270.616 176.907 270.994 177.581 271.668C178.254 272.342 178.633 273.255 178.633 274.208V277.064Z" fill="white"/>
<path d="M177.015 318.864L159.095 317.304V293.768H152.799V317.296L134.815 318.896C134.051 318.972 133.342 319.329 132.826 319.898C132.31 320.467 132.024 321.208 132.023 321.976V324.376H179.815V321.976C179.823 321.201 179.54 320.451 179.021 319.875C178.503 319.299 177.787 318.938 177.015 318.864Z" fill="#263238"/>
<path d="M137.814 327.296C137.814 328.111 137.573 328.907 137.12 329.585C136.667 330.263 136.024 330.791 135.271 331.102C134.518 331.414 133.69 331.496 132.89 331.337C132.091 331.178 131.357 330.785 130.781 330.209C130.205 329.633 129.812 328.899 129.653 328.1C129.494 327.301 129.576 326.472 129.888 325.719C130.2 324.967 130.728 324.323 131.405 323.87C132.083 323.418 132.879 323.176 133.694 323.176C134.787 323.176 135.835 323.61 136.607 324.383C137.38 325.155 137.814 326.203 137.814 327.296Z" fill="#263238"/>
<path d="M178.128 331.416C180.403 331.416 182.248 329.571 182.248 327.296C182.248 325.021 180.403 323.176 178.128 323.176C175.852 323.176 174.008 325.021 174.008 327.296C174.008 329.571 175.852 331.416 178.128 331.416Z" fill="#263238"/>
<path d="M151.711 275.528H160.183V295.6C160.183 296.387 159.87 297.142 159.314 297.699C158.757 298.255 158.002 298.568 157.215 298.568H154.687C153.9 298.568 153.145 298.255 152.588 297.699C152.032 297.142 151.719 296.387 151.719 295.6V275.528H151.711Z" fill="#263238"/>
<path opacity="0.2" d="M151.711 275.528H160.183V295.6C160.183 296.387 159.87 297.142 159.314 297.699C158.757 298.255 158.002 298.568 157.215 298.568H154.687C153.9 298.568 153.145 298.255 152.588 297.699C152.032 297.142 151.719 296.387 151.719 295.6V275.528H151.711Z" fill="white"/>
<path d="M131.814 277.808H178.95C179.75 277.808 180.398 277.16 180.398 276.36V276.032C180.398 275.232 179.75 274.584 178.95 274.584H131.814C131.015 274.584 130.366 275.232 130.366 276.032V276.36C130.366 277.16 131.015 277.808 131.814 277.808Z" fill="#263238"/>
<path opacity="0.2" d="M137.814 327.296C137.814 328.111 137.573 328.907 137.12 329.585C136.667 330.263 136.024 330.791 135.271 331.102C134.518 331.414 133.69 331.496 132.89 331.337C132.091 331.178 131.357 330.785 130.781 330.209C130.205 329.633 129.812 328.899 129.653 328.1C129.494 327.301 129.576 326.472 129.888 325.719C130.2 324.967 130.728 324.323 131.405 323.87C132.083 323.418 132.879 323.176 133.694 323.176C134.787 323.176 135.835 323.61 136.607 324.383C137.38 325.155 137.814 326.203 137.814 327.296Z" fill="white"/>
<path opacity="0.2" d="M178.128 331.416C180.403 331.416 182.248 329.571 182.248 327.296C182.248 325.021 180.403 323.176 178.128 323.176C175.852 323.176 174.008 325.021 174.008 327.296C174.008 329.571 175.852 331.416 178.128 331.416Z" fill="white"/>
<path d="M182.585 237.488H168.225C164.017 237.488 160.977 233.704 161.441 229.048L162.049 222.824C162.513 218.16 166.289 214.376 170.497 214.376H184.857C189.065 214.376 192.105 218.16 191.649 222.824L191.033 229.048C190.577 233.704 186.793 237.488 182.585 237.488Z" fill="#263238"/>
<path opacity="0.2" d="M182.585 237.488H168.225C164.017 237.488 160.977 233.704 161.441 229.048L162.049 222.824C162.513 218.16 166.289 214.376 170.497 214.376H184.857C189.065 214.376 192.105 218.16 191.649 222.824L191.033 229.048C190.577 233.704 186.793 237.488 182.585 237.488Z" fill="white"/>
<path d="M181.264 234.456H172.8C170.312 234.456 168.512 232.224 168.8 229.464L169.168 225.792C169.432 223.032 171.672 220.8 174.16 220.8H182.64C185.128 220.8 186.928 223.032 186.64 225.792L186.272 229.464C185.984 232.224 183.752 234.456 181.264 234.456Z" fill="#263238"/>
<path d="M174.527 228.968C174.527 228.968 172.591 267.888 164.207 274.568H173.175C173.175 274.568 181.175 261.312 181.759 228.968H174.527Z" fill="#263238"/>
<path d="M181.744 212.752L183.288 211.952C183.578 211.804 183.899 211.727 184.224 211.727C184.55 211.727 184.87 211.804 185.16 211.952L187.928 213.312C188.473 213.58 188.946 213.975 189.306 214.463C189.667 214.952 189.905 215.52 190 216.12L190.128 216.88C187.656 218.432 183.848 218.288 183.848 218.288L182.752 218.376C182.529 218.399 182.303 218.378 182.088 218.313C181.872 218.248 181.672 218.141 181.499 217.998C181.325 217.855 181.182 217.679 181.077 217.48C180.972 217.281 180.908 217.064 180.888 216.84L180.696 214.68C180.66 214.291 180.74 213.9 180.926 213.556C181.113 213.213 181.398 212.933 181.744 212.752Z" fill="#B97964"/>
<path opacity="0.2" d="M181.744 212.752L183.288 211.952C183.578 211.804 183.899 211.727 184.224 211.727C184.55 211.727 184.87 211.804 185.16 211.952L187.928 213.312C188.473 213.58 188.946 213.975 189.306 214.463C189.667 214.952 189.905 215.52 190 216.12L190.128 216.88C187.656 218.432 183.848 218.288 183.848 218.288L182.752 218.376C182.529 218.399 182.303 218.378 182.088 218.313C181.872 218.248 181.672 218.141 181.499 217.998C181.325 217.855 181.182 217.679 181.077 217.48C180.972 217.281 180.908 217.064 180.888 216.84L180.696 214.68C180.66 214.291 180.74 213.9 180.926 213.556C181.113 213.213 181.398 212.933 181.744 212.752Z" fill="black"/>
<path d="M170.401 214.656L164.801 221.736H159.473L160.169 211.856C164.201 212.632 170.401 214.656 170.401 214.656Z" fill="#106FA4"/>
<path opacity="0.2" d="M164.327 221.736H159.719L162.583 214.656C162.583 214.656 164.223 217.144 164.327 221.736Z" fill="black"/>
<path d="M155.874 247.616L132.426 245.44C133.162 242.944 133.81 240.496 134.354 238.136C135.042 235.248 135.586 232.48 136.018 229.896C136.45 227.312 136.818 224.912 137.074 222.736L137.146 222.12C137.146 221.776 137.226 221.44 137.258 221.12C137.49 219.016 137.634 217.184 137.73 215.672C137.93 212.72 137.93 211.016 137.93 211.016C145.964 209.478 154.254 209.97 162.05 212.448C165.538 222.272 155.874 247.616 155.874 247.616Z" fill="#106FA4"/>
<path d="M155.793 214.016C155.437 214.754 154.892 215.385 154.214 215.845C153.536 216.305 152.749 216.578 151.931 216.637C151.114 216.695 150.296 216.537 149.559 216.178C148.823 215.819 148.194 215.272 147.737 214.592L146.721 213.08L145.473 211.2C147.569 209.96 148.393 205.992 148.673 202.584C148.761 201.512 148.793 200.504 148.793 199.648L154.057 206.848C153.688 207.611 153.42 208.417 153.257 209.248C153.19 209.59 153.163 209.939 153.177 210.288C153.185 211.688 153.881 212.984 155.793 214.016Z" fill="#B97964"/>
<path opacity="0.2" d="M154.041 206.888C153.672 207.651 153.404 208.457 153.241 209.288C151.857 211.064 149.705 212.944 146.737 213.064L145.473 211.2C147.569 209.96 148.393 205.992 148.673 202.584C148.761 201.512 148.793 200.504 148.793 199.648L154.041 206.888Z" fill="black"/>
<path d="M141.392 194.864C141.392 194.864 138.792 193.888 139.56 192.088C140.328 190.288 141.256 190.304 141.256 190.304C140.863 189.568 140.649 188.75 140.633 187.916C140.616 187.081 140.797 186.255 141.16 185.504C142.448 183.104 145.296 184.08 145.296 184.08C145.307 183.326 145.575 182.599 146.055 182.017C146.534 181.435 147.198 181.034 147.936 180.88C148.689 180.755 149.462 180.88 150.138 181.235C150.814 181.591 151.355 182.157 151.68 182.848C151.68 182.848 153.472 180.52 156.096 181.16C158.72 181.8 159.248 185.456 159.248 185.456C159.965 185.222 160.744 185.274 161.423 185.6C162.103 185.927 162.63 186.503 162.896 187.208C163.253 187.944 163.402 188.764 163.327 189.579C163.252 190.394 162.957 191.173 162.472 191.832C162.472 191.832 164.144 191.032 164.696 193.728C165.248 196.424 162.432 198.792 162.432 198.792C162.432 198.792 163.952 198.976 163.168 200.968C162.384 202.96 159.912 202.992 159.912 202.992C159.912 202.992 160.872 203.48 159.056 205.12C157.24 206.76 151.392 204.416 151.392 204.416L141.392 194.864Z" fill="#263238"/>
<path d="M148.542 190.592C142.942 190.88 141.342 193.968 141.206 199.752C141.07 206.952 142.934 212 149.838 210.096C159.198 207.512 157.822 190.104 148.542 190.592Z" fill="#B97964"/>
<path d="M144.801 199.248C144.398 200.105 143.893 200.911 143.297 201.648C143.473 201.871 143.708 202.041 143.974 202.14C144.241 202.239 144.53 202.262 144.809 202.208L144.801 199.248Z" fill="#A24E3F"/>
<path d="M148.2 198.608C148.2 199.072 148.472 199.408 148.776 199.408C149.08 199.408 149.32 199.024 149.312 198.56C149.304 198.096 149.04 197.76 148.728 197.76C148.416 197.76 148.184 198.152 148.2 198.608Z" fill="#263238"/>
<path d="M148.856 197.784L147.848 197.416C147.848 197.416 148.368 198.248 148.856 197.784Z" fill="#263238"/>
<path d="M142.481 198.68C142.481 199.144 142.753 199.48 143.065 199.48C143.377 199.48 143.609 199.096 143.593 198.632C143.577 198.168 143.321 197.832 143.017 197.832C142.713 197.832 142.473 198.224 142.481 198.68Z" fill="#263238"/>
<path d="M143.145 197.848L142.129 197.488C142.129 197.488 142.657 198.312 143.145 197.848Z" fill="#263238"/>
<path d="M150.519 195.704C150.486 195.705 150.453 195.698 150.422 195.684C150.392 195.67 150.365 195.65 150.343 195.624C150.041 195.355 149.682 195.157 149.293 195.046C148.903 194.935 148.494 194.914 148.095 194.984C148.064 194.99 148.032 194.989 148.002 194.983C147.971 194.976 147.941 194.964 147.915 194.946C147.889 194.928 147.867 194.905 147.85 194.879C147.833 194.853 147.821 194.823 147.815 194.792C147.806 194.731 147.821 194.668 147.856 194.617C147.892 194.567 147.946 194.532 148.007 194.52C148.487 194.432 148.98 194.459 149.447 194.598C149.914 194.737 150.342 194.985 150.695 195.32C150.739 195.365 150.764 195.425 150.764 195.488C150.764 195.551 150.739 195.611 150.695 195.656C150.645 195.694 150.582 195.711 150.519 195.704Z" fill="#263238"/>
<path d="M141.775 195.536C141.739 195.536 141.703 195.528 141.67 195.513C141.637 195.498 141.607 195.476 141.583 195.448C141.545 195.397 141.529 195.333 141.538 195.27C141.547 195.207 141.58 195.15 141.631 195.112C141.96 194.836 142.346 194.638 142.761 194.531C143.176 194.424 143.611 194.412 144.031 194.496C144.062 194.505 144.09 194.52 144.115 194.541C144.14 194.561 144.16 194.586 144.175 194.614C144.19 194.643 144.199 194.674 144.202 194.706C144.205 194.737 144.201 194.77 144.191 194.8C144.171 194.859 144.129 194.907 144.074 194.936C144.019 194.964 143.955 194.97 143.895 194.952C143.544 194.889 143.182 194.905 142.838 194.999C142.493 195.093 142.174 195.263 141.903 195.496C141.865 195.521 141.821 195.535 141.775 195.536Z" fill="#263238"/>
<path d="M155.145 199.688C155.145 199.688 152.289 195.232 152.505 191.688C152.505 191.688 141.193 187.744 141.233 199.008C141.233 199.008 139.633 189.088 149.233 188.36C158.833 187.632 159.521 201.688 154.777 206.136C154.769 206.12 156.913 202.472 155.145 199.688Z" fill="#263238"/>
<path d="M154.297 200.92C154.304 200.597 154.375 200.278 154.506 199.982C154.637 199.687 154.824 199.42 155.058 199.197C155.293 198.974 155.568 198.799 155.87 198.683C156.172 198.567 156.494 198.512 156.817 198.52C158.561 198.624 159.569 202.136 155.305 203.216C154.697 203.384 154.313 202.8 154.297 200.92Z" fill="#B97964"/>
<path d="M146.153 205.464C145.993 205.475 145.832 205.475 145.673 205.464C145.642 205.458 145.612 205.446 145.586 205.429C145.559 205.412 145.536 205.39 145.519 205.364C145.501 205.338 145.488 205.309 145.482 205.278C145.475 205.247 145.475 205.215 145.481 205.184C145.485 205.153 145.496 205.124 145.513 205.098C145.529 205.071 145.551 205.048 145.576 205.031C145.601 205.013 145.63 205 145.66 204.993C145.691 204.987 145.722 204.986 145.753 204.992C146.355 205.098 146.976 204.998 147.514 204.707C148.053 204.417 148.478 203.954 148.721 203.392C148.732 203.363 148.749 203.336 148.771 203.313C148.793 203.29 148.82 203.272 148.848 203.259C148.877 203.247 148.909 203.24 148.94 203.239C148.972 203.239 149.003 203.244 149.033 203.256C149.062 203.268 149.089 203.285 149.112 203.307C149.134 203.329 149.153 203.355 149.165 203.384C149.178 203.413 149.185 203.444 149.185 203.476C149.186 203.507 149.18 203.539 149.169 203.568C148.923 204.157 148.502 204.655 147.962 204.995C147.422 205.334 146.79 205.498 146.153 205.464Z" fill="#263238"/>
<path d="M157.202 197.648C155.866 190.712 145.61 184.888 141.762 192.952C142.407 190.931 143.655 189.156 145.338 187.864C145.338 187.864 155.738 184.896 157.57 196.744L157.202 197.648Z" fill="#106FA4"/>
<path d="M151.735 331.2C147.735 331.2 147.199 331.136 144.943 331.056C143.015 330.992 142.543 331.232 141.007 331.2C139.711 331.2 139.759 329.928 140.159 328.504C140.359 327.784 140.663 326.272 140.959 325.12L146.831 324.688C147.631 326.288 149.519 328.52 151.775 328.824C154.031 329.128 153.327 331.2 151.735 331.2Z" fill="#263238"/>
<path d="M132.8 244.944C132.8 244.944 124.8 256.84 129.136 266.616C133.472 276.392 155.4 271.976 155.4 271.976L140.952 325.144L147.864 326.288C147.864 326.288 172.368 273.592 172.992 264.608C173.616 255.624 147.16 249.856 147.16 249.856L132.8 244.944Z" fill="#106FA4"/>
<path opacity="0.3" d="M132.8 244.944C132.8 244.944 124.8 256.84 129.136 266.616C133.472 276.392 155.4 271.976 155.4 271.976L140.952 325.144L147.864 326.288C147.864 326.288 172.368 273.592 172.992 264.608C173.616 255.624 147.16 249.856 147.16 249.856L132.8 244.944Z" fill="white"/>
<path opacity="0.2" d="M157.201 217.6C157.201 217.6 146.001 225.488 137.145 222.096C137.145 221.752 137.225 221.416 137.257 221.096C137.489 218.992 137.633 217.16 137.729 215.648C140.599 214.337 143.578 213.279 146.633 212.488C149.777 214.883 153.371 216.622 157.201 217.6Z" fill="black"/>
<path d="M141.599 211.032C146.527 213.432 151.615 216.416 156.983 217.512C160.071 217.312 163.527 216.056 166.631 215.208L175.935 212.392C176.334 212.267 176.765 212.294 177.144 212.469C177.524 212.645 177.824 212.955 177.987 213.34C178.15 213.724 178.163 214.156 178.025 214.55C177.887 214.945 177.607 215.273 177.239 215.472C174.335 217.072 171.407 218.544 168.375 219.888C164.631 221.424 161.175 223.216 156.951 223.6C155.435 223.582 153.929 223.362 152.471 222.944C147.553 221.501 142.818 219.496 138.359 216.968C137.65 216.504 137.141 215.79 136.932 214.969C136.724 214.147 136.831 213.277 137.233 212.531C137.636 211.784 138.303 211.216 139.105 210.939C139.906 210.661 140.782 210.695 141.559 211.032H141.599Z" fill="#B97864"/>
<path d="M138.952 210.144C134.64 211.168 134.496 218.568 138.456 222.04L148.056 213.936C148.056 213.936 144.064 208.928 138.952 210.144Z" fill="#106FA4"/>
<path d="M176.183 212.432L181.503 212.304L179.103 217.688C179.103 217.688 174.303 217.52 174.535 215.072L176.183 212.432Z" fill="#B97964"/>
<path d="M186.07 214.936L182.422 218.864L179.086 217.688L181.502 212.304L186.07 214.936Z" fill="#B97964"/>
<path d="M257.5 277.208C261.22 284.904 264.804 292.6 267.228 300.84C268.34 306.44 268.548 312.136 268.964 317.696C269.252 322.296 269.42 326.888 269.484 331.504L265.364 331.936C264.06 325.448 262.836 318.208 261.7 311.664C261.156 308.704 260.74 305.792 259.996 302.944C257.164 295.608 253.236 288.056 249.98 280.84L257.5 277.208Z" fill="#DC897C"/>
<path d="M263.647 287.28L257.127 290.4L253.079 292.36L250.623 286.456L248.055 280.272L250.223 269C256.879 271.912 263.647 287.28 263.647 287.28Z" fill="#106FA4"/>
<path opacity="0.2" d="M257.125 290.4L253.077 292.36L250.621 286.456C251.125 283.112 251.549 280.272 251.549 280.272C251.549 280.272 256.285 284.52 257.125 290.4Z" fill="black"/>
<path d="M237.599 248.56C237.671 249.04 237.983 249.36 238.295 249.36C238.607 249.36 238.799 248.888 238.727 248.408C238.655 247.928 238.335 247.608 238.023 247.608C237.711 247.608 237.479 248.088 237.599 248.56Z" fill="#263238"/>
<path d="M237.895 249.392C238.688 250.761 239.665 252.016 240.799 253.12C240.511 253.406 240.164 253.626 239.783 253.764C239.402 253.902 238.995 253.956 238.591 253.92L237.895 249.392Z" fill="#DE5753"/>
<path d="M235.398 246.184C235.326 246.181 235.258 246.153 235.206 246.104C235.154 246.05 235.125 245.979 235.125 245.904C235.125 245.829 235.154 245.758 235.206 245.704C235.519 245.383 235.905 245.142 236.331 245.003C236.758 244.864 237.211 244.83 237.654 244.904C237.69 244.912 237.725 244.926 237.755 244.947C237.786 244.968 237.812 244.995 237.832 245.027C237.852 245.058 237.866 245.093 237.872 245.13C237.879 245.166 237.878 245.204 237.87 245.24C237.862 245.276 237.847 245.311 237.826 245.342C237.805 245.372 237.778 245.398 237.747 245.418C237.716 245.439 237.681 245.452 237.644 245.459C237.608 245.465 237.57 245.464 237.534 245.456C237.182 245.406 236.824 245.441 236.488 245.558C236.153 245.675 235.85 245.87 235.606 246.128C235.577 246.151 235.543 246.167 235.507 246.177C235.472 246.186 235.434 246.189 235.398 246.184Z" fill="#263238"/>
<path d="M239.086 255.792C238.933 257.723 238.109 259.54 236.758 260.928C235.865 261.845 234.769 262.538 233.558 262.952C232.399 263.354 231.158 263.462 229.947 263.265C228.736 263.068 227.594 262.573 226.622 261.824C223.198 259.28 222.75 255.816 221.486 250.016C221.175 248.671 221.212 247.27 221.595 245.944C221.979 244.618 222.694 243.412 223.675 242.44C224.655 241.469 225.867 240.764 227.197 240.393C228.526 240.022 229.928 239.997 231.27 240.32C237.382 241.768 239.526 250.336 239.086 255.792Z" fill="#E4897B"/>
<path d="M223.688 259.48C226.088 260.992 235.16 256.744 233.664 249.6C233.664 249.6 237.24 245.688 237.064 241.184C236.888 236.68 233.864 234.784 230.568 235.632C227.64 236.344 227.648 237.936 227.648 237.936C227.648 237.936 213.92 238.904 216.576 244.592C210.736 250.4 220.736 257.6 223.688 259.48Z" fill="#263238"/>
<path d="M231.197 250.712C231.522 252.153 232.312 253.446 233.445 254.392C234.941 255.624 236.157 254.536 236.133 252.792C236.133 251.192 235.333 248.656 233.597 248.104C231.861 247.552 230.861 248.976 231.197 250.712Z" fill="#E4897B"/>
<path opacity="0.2" d="M238.671 257.808C238.271 258.976 237.618 260.042 236.759 260.928C235.866 261.845 234.77 262.538 233.559 262.952C232.745 262.54 231.964 262.067 231.223 261.536L232.439 258.552C232.439 258.552 236.167 260.376 238.671 257.808Z" fill="black"/>
<path d="M225.637 266.8L224.613 259.784C224.613 259.784 229.181 256.584 233.965 258.736L241.165 267.416L225.637 266.8Z" fill="#E4897B"/>
<path d="M241.998 266.552L240.326 264.048C240.326 264.048 228.198 259.56 222.91 265.312C222.91 265.312 234.742 271.568 241.998 266.552Z" fill="#106FA4"/>
<path opacity="0.2" d="M241.998 266.552L240.326 264.048C240.326 264.048 228.198 259.56 222.91 265.312C222.91 265.312 234.742 271.568 241.998 266.552Z" fill="black"/>
<path d="M195.431 334.576L190.863 331.632L192.615 329.016L197.375 321.912L201.951 324.856L196.687 332.704L195.431 334.576Z" fill="#E4897B"/>
<path d="M191.197 331.256L197.597 331.192C197.701 331.194 197.801 331.231 197.882 331.296C197.963 331.361 198.02 331.451 198.045 331.552L199.117 336.2C199.156 336.4 199.117 336.607 199.009 336.78C198.9 336.952 198.73 337.077 198.533 337.128H198.365C196.301 337.128 194.805 337 192.221 337.024C190.621 337.024 185.821 337.256 183.629 337.272C181.437 337.288 181.117 335.128 182.029 334.92C186.029 334 189.085 332.752 190.365 331.576C190.594 331.371 190.889 331.257 191.197 331.256Z" fill="#263238"/>
<path d="M192.43 327.248L200.798 329.504L246.222 295.04L222.918 289.936C221.253 289.58 219.52 289.739 217.948 290.392C216.376 291.045 215.04 292.161 214.118 293.592L192.43 327.248Z" fill="#263238"/>
<path opacity="0.2" d="M192.43 327.248L200.798 329.504L246.222 295.04L222.918 289.936C221.253 289.58 219.52 289.739 217.948 290.392C216.376 291.045 215.04 292.161 214.118 293.592L192.43 327.248Z" fill="black"/>
<path d="M167.599 334.744L162.879 332.048L164.495 329.344L168.871 322L173.591 324.696L168.751 332.808L167.599 334.744Z" fill="#E4897B"/>
<path d="M163.062 331.144H169.462C169.567 331.145 169.667 331.181 169.749 331.246C169.83 331.312 169.887 331.402 169.91 331.504L170.942 336.168C170.979 336.369 170.937 336.576 170.825 336.747C170.714 336.918 170.541 337.04 170.342 337.088H170.174C168.118 337.088 166.614 336.928 164.03 336.928C162.43 336.928 157.63 337.096 155.438 337.096C153.246 337.096 152.95 334.92 153.838 334.696C157.838 333.816 160.918 332.6 162.214 331.44C162.452 331.243 162.753 331.138 163.062 331.144Z" fill="#263238"/>
<path d="M257.181 313.136L225.421 313.216C224.621 310.4 223.613 300.6 220.509 288.48C219.669 285.192 218.669 281.736 217.493 278.192C216.517 274.987 215.33 271.849 213.941 268.8C216.815 267.063 219.973 265.847 223.269 265.208C237.325 262.808 250.221 269 250.221 269C250.221 269 255.797 284.52 257.181 313.136Z" fill="#106FA4"/>
<path opacity="0.2" d="M220.512 288.48C219.672 285.192 218.672 281.736 217.496 278.192L219.712 277.296C219.712 277.296 223.2 285.16 220.512 288.48Z" fill="black"/>
<path d="M206.615 293.92L210.303 295.664L211.711 289.456C211.711 289.456 208.767 288.424 206.559 289.928L206.615 293.92Z" fill="#E4897B"/>
<path d="M215.589 297.768L215.757 292.112L211.709 289.456L210.301 295.664L215.589 297.768Z" fill="#E4897B"/>
<path d="M218.112 278.52C211.976 281.84 204.968 284.92 199.632 289.264C199.512 289.368 199.552 289.416 199.688 288.952C199.713 288.657 199.675 288.359 199.576 288.08C199.487 287.776 199.291 287.514 199.024 287.344C198.92 287.304 198.984 287.4 199.128 287.496C199.327 287.621 199.539 287.725 199.76 287.808C202.224 288.744 205.64 289.056 208.4 289.408L208.816 293.528C207.944 293.776 207.128 293.944 206.272 294.104C203.072 294.656 199.752 295.048 196.384 293.936C194.936 293.501 193.715 292.519 192.979 291.199C192.243 289.879 192.049 288.324 192.44 286.864C194.088 281.016 209 273.72 214.472 271.008L218.112 278.528V278.52Z" fill="#DC897C"/>
<path d="M223.926 306.456L222.502 310.104C222.502 310.104 205.486 289.08 196.102 287.88C186.718 286.68 164.902 326.632 164.902 326.632L173.174 329.136L196.454 308.016C206.054 324.768 217.534 337.056 231.182 337.056H244.51C259.414 337.056 259.582 320.432 256.638 306.336L223.926 306.456Z" fill="#263238"/>
<path d="M213.944 268.8C208.608 270.752 202.336 276.672 202.336 276.672C202.336 276.672 207.616 285.824 208.144 285.472C208.672 285.12 219.504 282.016 219.504 282.016C219.504 282.016 221.712 279.152 220.016 274.304C219.575 272.935 218.782 271.706 217.716 270.74C216.65 269.774 215.35 269.105 213.944 268.8Z" fill="#106FA4"/>
<path d="M267.527 328.744L273.327 329.032L270.263 334.696C270.263 334.696 265.103 334.128 265.511 331.496L267.527 328.744Z" fill="#E4897B"/>
<path d="M278.078 332.264L273.798 336.24L270.262 334.696L273.326 329.032L278.078 332.264Z" fill="#E4897B"/>
<path d="M87.7765 271.376C91.6645 275.296 95.4965 279.688 100.153 282.656C100.153 282.656 100.441 282.808 100.465 282.832C100.339 282.785 100.206 282.764 100.072 282.768C99.9525 282.768 100.145 282.768 100.353 282.768C105.665 281.264 110.6 277.8 115.488 275.136C115.867 274.908 116.316 274.827 116.75 274.909C117.184 274.99 117.573 275.229 117.843 275.579C118.112 275.928 118.244 276.365 118.213 276.806C118.181 277.246 117.989 277.66 117.672 277.968C113.864 281.496 103.601 290.928 98.2085 288.952C94.9125 287.744 92.1605 285.472 89.5685 283.288C87.0366 281.093 84.6503 278.736 82.4245 276.232C79.3765 272.608 84.4645 267.992 87.7765 271.384V271.376Z" fill="#E9B376"/>
<path d="M94.4638 276.912C93.7838 282 89.6638 286.992 89.6638 286.992L88.7998 286.4L84.5918 283.608C84.5918 283.608 84.5118 283.368 84.3918 282.944C84.2718 282.52 84.1198 282.024 83.9358 281.344C82.9678 277.952 81.2238 271.608 81.0078 268.976C86.2318 268.856 88.5838 271.344 94.4638 276.912Z" fill="#106FA4"/>
<path opacity="0.7" d="M94.4638 276.912C93.7838 282 89.6638 286.992 89.6638 286.992L88.7998 286.4L84.5918 283.608C84.5918 283.608 84.5118 283.368 84.3918 282.944C84.2718 282.52 84.1198 282.024 83.9358 281.344C82.9678 277.952 81.2238 271.608 81.0078 268.976C86.2318 268.856 88.5838 271.344 94.4638 276.912Z" fill="white"/>
<path opacity="0.2" d="M88.7986 286.4L84.5906 283.608C84.5906 283.608 84.5106 283.368 84.3906 282.944C84.5467 281.656 84.7818 280.379 85.0946 279.12C86.2033 279.992 87.1088 281.095 87.7484 282.352C88.3881 283.609 88.7464 284.99 88.7986 286.4Z" fill="black"/>
<path d="M83.6795 302L87.2715 308.288C96.8715 306.048 127.735 301.344 131.519 311.928C136.231 325.072 102.207 335.56 83.3835 336.2C64.5595 336.84 48.1355 332.36 60.0395 304.912L83.6795 302Z" fill="#263238"/>
<path opacity="0.2" d="M83.6795 302L87.2715 308.288C96.8715 306.048 127.735 301.344 131.519 311.928C136.231 325.072 102.207 335.56 83.3835 336.2C64.5595 336.84 48.1355 332.36 60.0395 304.912L83.6795 302Z" fill="black"/>
<path d="M126.072 330.512C126.05 330.526 126.025 330.533 126 330.533C125.974 330.533 125.949 330.526 125.928 330.512C125.916 330.494 125.91 330.473 125.91 330.452C125.91 330.431 125.916 330.41 125.928 330.392C125.992 330.184 126.616 328.376 127.248 328.184C127.314 328.168 127.383 328.169 127.449 328.187C127.515 328.205 127.575 328.24 127.624 328.288C127.71 328.361 127.777 328.456 127.816 328.562C127.855 328.669 127.866 328.784 127.848 328.896C127.744 329.236 127.537 329.535 127.256 329.752C126.888 330.045 126.491 330.3 126.072 330.512ZM126.232 330.168C126.819 329.913 127.294 329.452 127.568 328.872C127.585 328.797 127.58 328.718 127.553 328.645C127.526 328.572 127.478 328.509 127.416 328.464C127.398 328.442 127.374 328.426 127.347 328.417C127.32 328.409 127.291 328.408 127.264 328.416C127.21 328.436 127.161 328.466 127.12 328.504C126.725 329 126.424 329.564 126.232 330.168Z" fill="#263238"/>
<path d="M126.03 330.536C126.015 330.549 125.995 330.556 125.974 330.556C125.954 330.556 125.934 330.549 125.918 330.536C125.854 330.488 124.99 329.392 125.118 328.648C125.134 328.556 125.168 328.468 125.219 328.389C125.27 328.311 125.336 328.244 125.414 328.192C125.482 328.131 125.568 328.093 125.658 328.085C125.749 328.076 125.84 328.097 125.918 328.144C126.374 328.472 126.318 329.936 126.094 330.496V330.552L126.03 330.536ZM125.542 328.392C125.462 328.456 125.408 328.547 125.39 328.648C125.414 329.202 125.62 329.733 125.974 330.16C126.11 329.536 126.07 328.504 125.798 328.32C125.798 328.32 125.718 328.256 125.582 328.32V328.36L125.542 328.392Z" fill="#263238"/>
<path d="M92.9762 333.6C92.9885 333.58 93.0064 333.564 93.0278 333.554C93.0491 333.544 93.0729 333.541 93.0962 333.544C93.1177 333.546 93.1381 333.554 93.1541 333.569C93.17 333.583 93.1806 333.603 93.1842 333.624C93.2322 333.84 93.5602 335.728 93.1042 336.2C93.0528 336.246 92.9903 336.277 92.9229 336.292C92.8555 336.306 92.7856 336.302 92.7202 336.28C92.6075 336.262 92.5023 336.212 92.4161 336.137C92.3299 336.062 92.2663 335.965 92.2322 335.856C92.1531 335.513 92.1897 335.153 92.3362 334.832C92.5061 334.4 92.7206 333.987 92.9762 333.6ZM92.9762 333.984C92.5867 334.492 92.391 335.121 92.4242 335.76C92.4462 335.837 92.4907 335.905 92.552 335.957C92.6133 336.008 92.6886 336.04 92.7682 336.048C92.7906 336.063 92.8171 336.071 92.8442 336.071C92.8713 336.071 92.8977 336.063 92.9202 336.048C92.9562 336.006 92.9834 335.957 93.0002 335.904C93.1201 335.27 93.1201 334.618 93.0002 333.984H92.9762Z" fill="#263238"/>
<path d="M105.296 324.072L97.552 326.832L93.832 328.16L94.784 332.232L98.384 331.464L107.184 329.584L105.296 324.072Z" fill="#EBB376"/>
<path d="M95.7993 332.424L95.1433 327.624C95.1345 327.561 95.1132 327.5 95.0805 327.445C95.0479 327.39 95.0045 327.342 94.9531 327.304C94.9017 327.266 94.8432 327.238 94.7811 327.223C94.7189 327.208 94.6544 327.206 94.5913 327.216L92.1913 327.616C92.1913 327.616 88.9913 327.912 88.3273 328.744C86.4553 331.144 87.6233 341.816 88.8713 342.192C89.3273 342.328 89.8073 341.704 90.0073 341.272C90.6393 339.896 91.7513 336.304 92.2953 335.168C92.9193 333.832 94.6953 333.184 95.4313 332.952C95.5471 332.925 95.6489 332.856 95.7169 332.759C95.7849 332.661 95.8142 332.542 95.7993 332.424Z" fill="#106FA4"/>
<path d="M92.9929 333.6C93.0105 333.588 93.0315 333.581 93.0529 333.581C93.0744 333.581 93.0954 333.588 93.1129 333.6C93.1849 333.6 94.4809 334.16 94.7129 334.872C94.7411 334.961 94.7514 335.055 94.7432 335.149C94.7349 335.242 94.7083 335.333 94.6649 335.416C94.6394 335.505 94.5841 335.582 94.5083 335.634C94.4325 335.687 94.3408 335.711 94.2489 335.704C93.6969 335.64 93.0329 334.328 92.9609 333.736V333.6C92.9715 333.598 92.9824 333.598 92.9929 333.6ZM94.4649 335.24C94.4968 335.141 94.4968 335.035 94.4649 334.936C94.3129 334.48 93.5929 334.08 93.2249 333.896C93.4009 334.512 93.9369 335.392 94.2649 335.424C94.2649 335.424 94.3609 335.424 94.4329 335.288V335.24H94.4649Z" fill="#263238"/>
<path opacity="0.2" d="M105.295 324.072L97.5508 326.832L98.3828 331.464L107.183 329.584L105.295 324.072Z" fill="black"/>
<path d="M99.7607 332.16L101.985 332.32L100.497 324.656L97.9688 326.048L99.7607 332.16Z" fill="#106FA4"/>
<path opacity="0.6" d="M99.7607 332.16L101.985 332.32L100.497 324.656L97.9688 326.048L99.7607 332.16Z" fill="white"/>
<path opacity="0.2" d="M67.4492 302.4L79.0492 315.264C79.0492 315.264 91.8492 314.976 107.449 322.592C107.449 322.592 124.161 315.688 125.697 309.952C127.713 302.44 87.2972 308.312 87.2972 308.312L67.4492 302.4Z" fill="black"/>
<path d="M83.5587 307.544L59.9027 304.8C60.3557 302.357 60.6232 299.883 60.7027 297.4C60.7974 293.861 60.6585 290.32 60.2867 286.8C59.9587 283.432 59.4867 279.56 58.6867 275.016C58.5266 274.203 58.5504 273.365 58.7563 272.563C58.9622 271.761 59.3449 271.015 59.8765 270.38C60.408 269.745 61.0749 269.237 61.8284 268.893C62.5818 268.549 63.4026 268.378 64.2307 268.392C65.1827 268.392 66.1827 268.44 67.2067 268.504C70.8292 268.666 74.4357 269.086 77.9987 269.76C79.1507 269.992 80.3427 270.28 81.4867 270.56C85.5907 271.624 88.1347 276.792 87.7827 280.96C87.6442 284.199 87.2861 287.425 86.7107 290.616C85.9827 295.32 85.1267 299.912 83.5587 307.544Z" fill="#106FA4"/>
<path opacity="0.7" d="M83.5587 307.544L59.9027 304.8C60.3557 302.357 60.6232 299.883 60.7027 297.4C60.7974 293.861 60.6585 290.32 60.2867 286.8C59.9587 283.432 59.4867 279.56 58.6867 275.016C58.5266 274.203 58.5504 273.365 58.7563 272.563C58.9622 271.761 59.3449 271.015 59.8765 270.38C60.408 269.745 61.0749 269.237 61.8284 268.893C62.5818 268.549 63.4026 268.378 64.2307 268.392C65.1827 268.392 66.1827 268.44 67.2067 268.504C70.8292 268.666 74.4357 269.086 77.9987 269.76C79.1507 269.992 80.3427 270.28 81.4867 270.56C85.5907 271.624 88.1347 276.792 87.7827 280.96C87.6442 284.199 87.2861 287.425 86.7107 290.616C85.9827 295.32 85.1267 299.912 83.5587 307.544Z" fill="white"/>
<path opacity="0.2" d="M60.7207 297.408C60.8155 293.869 60.6765 290.328 60.3047 286.808C63.2647 283.312 66.0647 280.408 66.0647 280.408C66.0647 280.408 70.7047 292.352 60.7207 297.408Z" fill="black"/>
<path d="M64.4543 279.112C64.7263 284.176 64.6783 292.056 65.5983 296.896L65.3583 296.304C65.1983 296.072 65.2943 296.304 65.4623 296.432C65.6787 296.646 65.9085 296.847 66.1503 297.032C69.3503 299.432 73.1903 301.28 76.7983 303.192L81.3503 305.536C81.7449 305.734 82.053 306.07 82.2161 306.48C82.3791 306.89 82.3857 307.346 82.2346 307.761C82.0835 308.176 81.7852 308.521 81.3965 308.73C81.0078 308.939 80.5557 308.998 80.1263 308.896C78.3903 308.48 76.7263 307.984 75.0383 307.472C70.2383 305.872 65.3103 304.336 61.1823 301.208C60.376 300.582 59.7496 299.754 59.3663 298.808C57.5183 292.248 57.3743 285.912 57.2383 279.224C57.4063 274.56 64.1583 274.472 64.4383 279.136L64.4543 279.112Z" fill="#E9B376"/>
<path d="M87.7373 305.248L86.2973 304.2C86.0306 304.007 85.7213 303.88 85.3955 303.832C85.0697 303.783 84.737 303.813 84.4253 303.92L81.4653 304.912C80.8819 305.109 80.354 305.443 79.9254 305.886C79.4969 306.328 79.1801 306.866 79.0013 307.456L78.7773 308.2C81.0493 310.088 84.8973 310.464 84.8973 310.464L85.9773 310.688C86.1985 310.741 86.4281 310.75 86.6528 310.714C86.8775 310.678 87.0928 310.598 87.2863 310.478C87.4797 310.358 87.6475 310.201 87.7799 310.016C87.9122 309.831 88.0065 309.622 88.0573 309.4L88.5373 307.256C88.6145 306.88 88.5798 306.489 88.4377 306.132C88.2955 305.775 88.0521 305.468 87.7373 305.248Z" fill="#EBB376"/>
<path d="M62.2941 268.72C57.6701 270.376 56.3421 274.408 56.2461 282.816C58.6461 285 65.9341 285.12 65.9341 285.12C65.9341 285.12 67.1981 272.368 62.2941 268.72Z" fill="#106FA4"/>
<path d="M118.313 309.88V311.784C118.313 312.272 117.737 312.472 117.249 312.472H79.2011C78.7051 312.472 78.1211 312.272 78.1211 311.784V309.88H118.313Z" fill="#263238"/>
<path opacity="0.4" d="M118.313 309.88V311.784C118.313 312.272 117.737 312.472 117.249 312.472H79.2011C78.7051 312.472 78.1211 312.272 78.1211 311.784V309.88H118.313Z" fill="white"/>
<path opacity="0.2" d="M118.311 309.88V311.784C118.311 312.272 117.735 312.472 117.247 312.472H92.1267C91.6387 312.472 91.0547 312.272 91.0547 311.784V309.88H118.311Z" fill="black"/>
<path d="M124.687 290.088L120.151 310.656C120.067 310.985 119.878 311.277 119.612 311.488C119.346 311.699 119.018 311.817 118.679 311.824H93.8792C93.7248 311.82 93.5735 311.78 93.4372 311.708C93.3008 311.635 93.1831 311.532 93.0932 311.407C93.0033 311.281 92.9437 311.136 92.9191 310.984C92.8944 310.832 92.9054 310.676 92.9512 310.528L97.4792 290.12C97.5717 289.809 97.7685 289.539 98.0365 289.355C98.3045 289.172 98.6274 289.086 98.9512 289.112H123.751C124.415 289.112 124.799 289.416 124.687 290.088Z" fill="#263238"/>
<path opacity="0.4" d="M124.688 290.088L120.152 310.656C120.068 310.985 119.878 311.277 119.613 311.488C119.347 311.699 119.019 311.817 118.68 311.824H94.7438C94.5893 311.819 94.438 311.779 94.3015 311.707C94.165 311.635 94.0469 311.532 93.9565 311.407C93.866 311.281 93.8055 311.137 93.7798 310.985C93.754 310.832 93.7636 310.676 93.8078 310.528L98.3438 290.12C98.4363 289.809 98.6331 289.539 98.9011 289.355C99.1691 289.172 99.492 289.086 99.8158 289.112H123.752C124.416 289.112 124.8 289.416 124.688 290.088Z" fill="white"/>
<path opacity="0.2" d="M112.47 300.536C112.391 301.37 112.019 302.149 111.42 302.735C110.821 303.321 110.034 303.676 109.198 303.736C107.814 303.736 106.99 302.304 107.39 300.536C107.79 298.768 109.158 297.4 110.51 297.336C110.118 299.096 110.966 300.536 112.342 300.536H112.47Z" fill="black"/>
<path d="M116.399 278.624L121.727 278.76L119.327 273.368C119.327 273.368 114.575 273.536 114.759 275.984L116.399 278.624Z" fill="#EBB376"/>
<path d="M126.296 276.136L122.648 272.2L119.312 273.368L121.729 278.76L126.296 276.136Z" fill="#EBB376"/>
<path d="M66.0391 268.448C65.4951 268.408 67.1591 275.088 75.2391 276.736C83.3191 278.384 82.6951 270.952 82.0631 269.088C82.0631 269.088 71.4391 268.8 66.0391 268.448Z" fill="#EBB376"/>
<path d="M68.2558 242.328C68.2558 242.328 72.8878 237.192 81.3598 239.84C89.8318 242.488 89.4718 257.608 85.1678 263.096C78.4273 262.859 71.6842 263.489 65.1038 264.968C65.1038 264.968 61.0238 254 63.0478 247.552C65.0718 241.104 68.2558 242.328 68.2558 242.328Z" fill="#263238"/>
<path d="M69.9594 257.408C70.4954 260.976 70.9114 267.44 68.3594 269.488C68.3594 269.488 71.6874 269.376 78.1434 274.48C80.4874 271.824 79.1034 270.728 79.1034 270.728C75.2874 269.36 75.5034 266.48 76.2794 263.848L69.9594 257.408Z" fill="#EBB376"/>
<path opacity="0.2" d="M72.5525 260.04L76.3205 263.848C76.1304 264.464 75.9939 265.096 75.9125 265.736C74.4485 265.352 72.4885 263.488 72.4005 261.912C72.3384 261.284 72.3899 260.65 72.5525 260.04Z" fill="black"/>
<path d="M67.809 250.128C68.209 255.832 68.265 258.248 71.137 261.328C75.465 265.904 82.337 264.528 83.577 258.928C84.737 253.872 83.881 245.392 78.345 242.888C77.1773 242.31 75.8764 242.054 74.5767 242.147C73.277 242.239 72.0256 242.677 70.9517 243.415C69.8778 244.153 69.0204 245.164 68.4679 246.344C67.9154 247.525 67.688 248.831 67.809 250.128Z" fill="#EBB376"/>
<path d="M74.8328 251.88C74.8328 252.368 75.0968 252.76 75.4088 252.776C75.7208 252.792 75.9448 252.408 75.9368 251.928C75.9288 251.448 75.6648 251.048 75.3608 251.04C75.0568 251.032 74.8168 251.4 74.8328 251.88Z" fill="#263238"/>
<path d="M80.8008 251.944C80.8008 252.424 81.0728 252.824 81.3768 252.84C81.6808 252.856 81.9128 252.472 81.9048 251.992C81.8968 251.512 81.6328 251.112 81.3288 251.104C81.0248 251.096 80.8008 251.464 80.8008 251.944Z" fill="#263238"/>
<path d="M81.168 251.12L82.28 250.832C82.28 250.832 81.728 251.712 81.168 251.12Z" fill="#263238"/>
<path d="M78.9922 252.928C79.4396 254.042 80.0255 255.096 80.7362 256.064C80.4966 256.227 80.2232 256.334 79.9365 256.377C79.6498 256.42 79.3571 256.398 79.0802 256.312L78.9922 252.928Z" fill="#D58745"/>
<path d="M73.8734 248.84C73.9094 248.846 73.9463 248.843 73.9811 248.832C74.0158 248.821 74.0475 248.802 74.0734 248.776C74.3231 248.545 74.6267 248.38 74.9564 248.296C75.2862 248.212 75.6316 248.212 75.9614 248.296C75.995 248.307 76.0305 248.311 76.0657 248.307C76.1008 248.304 76.1349 248.293 76.1657 248.276C76.1965 248.259 76.2234 248.235 76.2447 248.207C76.266 248.179 76.2812 248.146 76.2894 248.112C76.3093 248.038 76.2996 247.959 76.2623 247.892C76.225 247.824 76.163 247.774 76.0894 247.752C75.6719 247.64 75.2329 247.636 74.8132 247.739C74.3936 247.843 74.0069 248.051 73.6894 248.344C73.6381 248.396 73.6094 248.467 73.6094 248.54C73.6094 248.613 73.6381 248.684 73.6894 248.736C73.7354 248.793 73.8011 248.83 73.8734 248.84Z" fill="#263238"/>
<path d="M83.1205 248.888C83.1849 248.913 83.2561 248.913 83.3205 248.888C83.3515 248.869 83.3783 248.843 83.3993 248.813C83.4202 248.783 83.4348 248.749 83.4423 248.713C83.4498 248.677 83.4499 248.64 83.4427 248.604C83.4356 248.568 83.4212 248.534 83.4005 248.504C83.1807 248.109 82.8729 247.771 82.5011 247.514C82.1293 247.257 81.7035 247.09 81.2565 247.024C81.2209 247.022 81.1852 247.027 81.1517 247.039C81.1182 247.052 81.0877 247.071 81.0621 247.096C81.0365 247.121 81.0163 247.151 81.003 247.184C80.9896 247.217 80.9833 247.252 80.9845 247.288C80.9858 247.363 81.014 247.435 81.064 247.491C81.1139 247.546 81.1822 247.582 81.2565 247.592C81.6101 247.646 81.9464 247.781 82.2393 247.986C82.5321 248.192 82.7735 248.462 82.9445 248.776C82.965 248.805 82.9911 248.83 83.0214 248.85C83.0516 248.869 83.0853 248.882 83.1205 248.888Z" fill="#263238"/>
<path d="M75.1992 251.056L76.3112 250.776C76.3112 250.776 75.7832 251.648 75.1992 251.056Z" fill="#263238"/>
<path d="M68.9897 253.552C68.9897 253.552 73.3897 250.096 72.3897 244.688C72.3897 244.688 80.2617 241.576 83.3657 249.488C83.3657 249.488 84.0217 242.704 76.6217 241.376C69.2217 240.048 60.4617 250.08 68.8457 257.688L68.9897 253.552Z" fill="#263238"/>
<path d="M65.9912 254.736C66.2766 255.265 66.6639 255.733 67.1307 256.112C67.5975 256.491 68.1347 256.773 68.7112 256.944C70.2072 257.352 70.8792 255.88 70.3992 254.36C69.9592 252.992 68.6552 251.16 67.1992 251.392C65.7432 251.624 65.2472 253.384 65.9912 254.736Z" fill="#EBB376"/>
<path d="M84.2328 252.848C84.1968 252.848 84.1618 252.836 84.133 252.814C84.1042 252.793 84.0831 252.763 84.0728 252.728C81.2488 242.784 71.9288 244.832 71.8328 244.848C71.8123 244.853 71.7911 244.853 71.7704 244.85C71.7496 244.846 71.7298 244.839 71.712 244.828C71.6941 244.817 71.6787 244.802 71.6665 244.785C71.6543 244.768 71.6455 244.749 71.6408 244.728C71.6361 244.708 71.6354 244.686 71.6389 244.666C71.6424 244.645 71.6499 244.625 71.6611 244.607C71.6722 244.589 71.6867 244.574 71.7039 244.562C71.721 244.549 71.7403 244.541 71.7608 244.536C71.8568 244.536 81.4808 242.4 84.3848 252.64C84.3909 252.661 84.3928 252.682 84.3904 252.703C84.3881 252.725 84.3814 252.745 84.371 252.764C84.3606 252.782 84.3465 252.799 84.3296 252.812C84.3128 252.825 84.2935 252.835 84.2728 252.84L84.2328 252.848Z" fill="#263238"/>
<path d="M79.36 257.968C79.0808 258.622 78.8508 259.296 78.672 259.984H78.296C76.608 259.8 75.896 259.184 75.592 258.504C75.4557 258.181 75.3982 257.83 75.424 257.48C75.4363 257.281 75.4739 257.085 75.536 256.896C76.5313 257.472 77.6392 257.827 78.784 257.936C79.136 257.952 79.36 257.968 79.36 257.968Z" fill="#263238"/>
<path d="M78.7819 257.904L78.5659 258.488C76.9659 258.32 75.8699 257.984 75.4219 257.448C75.4342 257.249 75.4718 257.053 75.5339 256.864C76.5292 257.44 77.637 257.795 78.7819 257.904Z" fill="white"/>
<path d="M78.2938 259.952C76.6058 259.768 75.8938 259.152 75.5898 258.472C76.2311 258.555 76.8534 258.747 77.4298 259.04C77.8053 259.247 78.1072 259.566 78.2938 259.952Z" fill="#DE5753"/>
<path d="M78.022 284.624C77.9966 284.626 77.9712 284.621 77.9476 284.612C77.924 284.602 77.903 284.587 77.886 284.568C73.6352 280.01 70.43 274.58 68.494 268.656C68.4818 268.607 68.4892 268.556 68.5146 268.512C68.5401 268.469 68.5815 268.437 68.63 268.424C68.6537 268.418 68.6783 268.417 68.7024 268.421C68.7265 268.424 68.7496 268.433 68.7705 268.445C68.7913 268.458 68.8095 268.474 68.8238 268.494C68.8381 268.514 68.8484 268.536 68.854 268.56C70.7384 274.321 73.8375 279.611 77.942 284.072C78.422 282.472 80.414 274.872 77.414 269.048C77.3994 269.005 77.4007 268.958 77.4177 268.915C77.4347 268.873 77.4663 268.838 77.5068 268.816C77.5474 268.795 77.5941 268.789 77.6387 268.799C77.6833 268.81 77.7228 268.835 77.75 268.872C81.182 275.536 78.23 284.408 78.198 284.496C78.1875 284.527 78.1696 284.555 78.1459 284.577C78.1222 284.599 78.0934 284.615 78.062 284.624H78.022Z" fill="#263238"/>
<path d="M78.2698 284.288L78.8778 285.088C78.9323 285.156 78.9621 285.241 78.9621 285.328C78.9621 285.415 78.9323 285.5 78.8778 285.568L78.2618 286.368C78.225 286.412 78.1791 286.447 78.1273 286.471C78.0755 286.495 78.019 286.508 77.9618 286.508C77.9047 286.508 77.8482 286.495 77.7964 286.471C77.7445 286.447 77.6986 286.412 77.6618 286.368L77.0858 285.712C77.0352 285.645 77.0078 285.564 77.0078 285.48C77.0078 285.396 77.0352 285.315 77.0858 285.248L77.5978 284.32C77.6313 284.262 77.6789 284.213 77.736 284.179C77.7932 284.144 77.8582 284.124 77.9251 284.121C77.992 284.118 78.0586 284.131 78.1188 284.16C78.179 284.19 78.231 284.234 78.2698 284.288Z" fill="white"/>
<path opacity="0.7" d="M62.2941 268.72C57.6701 270.376 56.3421 274.408 56.2461 282.816C58.6461 285 65.9341 285.12 65.9341 285.12C65.9341 285.12 67.1981 272.368 62.2941 268.72Z" fill="white"/>
<path d="M110.672 332.888L118.784 334.224L122.68 334.864L123.816 330.84L120.296 329.768L111.688 327.152L110.672 332.888Z" fill="#EBB376"/>
<path d="M123.022 330.184L121.27 334.696C121.247 334.756 121.236 334.821 121.239 334.885C121.241 334.95 121.255 335.013 121.282 335.072C121.309 335.131 121.347 335.184 121.395 335.228C121.442 335.272 121.498 335.306 121.558 335.328L123.822 336.128C123.822 336.128 126.79 337.424 127.75 337.008C130.558 335.8 134.694 325.904 133.782 325.008C133.446 324.664 132.726 325.008 132.342 325.264C131.126 326.16 128.414 328.76 127.39 329.496C126.19 330.36 124.358 330.088 123.566 329.92C123.459 329.892 123.345 329.903 123.245 329.951C123.146 330 123.066 330.082 123.022 330.184Z" fill="#106FA4"/>
<path opacity="0.2" d="M110.672 332.888L118.784 334.224L120.296 329.768L111.688 327.152L110.672 332.888Z" fill="black"/>
<path d="M118.895 328.928C118.895 328.928 85.823 310.336 74.399 310.864C62.975 311.392 61.343 321.456 66.047 327.752C70.751 334.048 79.455 335.584 79.455 335.584C79.455 335.584 73.543 327.2 74.399 324.864C75.255 322.528 78.599 325.792 78.599 325.792C78.599 325.792 99.399 332.512 117.615 334.056L118.895 328.928Z" fill="#263238"/>
<path d="M119.432 328.416L117.56 327.16L115.152 334.544H118.04L119.432 328.416Z" fill="#106FA4"/>
<path opacity="0.6" d="M119.432 328.416L117.56 327.16L115.152 334.544H118.04L119.432 328.416Z" fill="white"/>
</svg>
