<svg width="400" height="400" viewBox="0 0 400 400" fill="none" xmlns="http://www.w3.org/2000/svg">
<path d="M400 305.922H0V306.122H400V305.922Z" fill="#EBEBEB"/>
<path d="M359.918 318.789H333.422V318.989H359.918V318.789Z" fill="#EBEBEB"/>
<path d="M264.975 320.969H258.023V321.169H264.975V320.969Z" fill="#EBEBEB"/>
<path d="M332.625 311.367H317.273V311.567H332.625V311.367Z" fill="#EBEBEB"/>
<path d="M76.5208 312.711H41.9688V312.911H76.5208V312.711Z" fill="#EBEBEB"/>
<path d="M88.7124 312.711H83.6484V312.911H88.7124V312.711Z" fill="#EBEBEB"/>
<path d="M180.124 316.086H105.18V316.286H180.124V316.086Z" fill="#EBEBEB"/>
<path d="M189.602 270.24H35.1303C33.9202 270.238 32.7604 269.756 31.9054 268.899C31.0505 268.043 30.5703 266.882 30.5703 265.672V48.528C30.5808 47.3248 31.0657 46.1744 31.9195 45.3266C32.7733 44.4788 33.9271 44.0021 35.1303 44H189.602C190.814 44 191.976 44.4813 192.832 45.3379C193.689 46.1946 194.17 47.3565 194.17 48.568V265.672C194.17 266.884 193.689 268.045 192.832 268.902C191.976 269.759 190.814 270.24 189.602 270.24ZM35.1303 44.16C33.9732 44.1621 32.8643 44.6233 32.0468 45.4422C31.2294 46.2611 30.7703 47.3709 30.7703 48.528V265.672C30.7703 266.829 31.2294 267.939 32.0468 268.758C32.8643 269.577 33.9732 270.038 35.1303 270.04H189.602C190.76 270.038 191.87 269.577 192.689 268.758C193.507 267.94 193.968 266.83 193.97 265.672V48.528C193.968 47.3702 193.507 46.2604 192.689 45.4417C191.87 44.623 190.76 44.1621 189.602 44.16H35.1303Z" fill="#EBEBEB"/>
<path d="M362.65 270.24H208.17C206.959 270.238 205.798 269.756 204.942 268.9C204.086 268.044 203.604 266.883 203.602 265.672V48.528C203.614 47.3241 204.101 46.1737 204.956 45.3261C205.811 44.4785 206.966 44.002 208.17 44H362.65C363.851 44.0042 365.003 44.4818 365.855 45.3294C366.707 46.177 367.191 47.3262 367.202 48.528V265.672C367.202 266.881 366.723 268.04 365.869 268.896C365.016 269.753 363.858 270.236 362.65 270.24ZM208.17 44.16C207.012 44.1621 205.902 44.623 205.083 45.4417C204.265 46.2604 203.804 47.3702 203.802 48.528V265.672C203.804 266.83 204.265 267.94 205.083 268.758C205.902 269.577 207.012 270.038 208.17 270.04H362.65C363.807 270.038 364.917 269.577 365.736 268.758C366.555 267.94 367.015 266.83 367.018 265.672V48.528C367.015 47.3702 366.555 46.2604 365.736 45.4417C364.917 44.623 363.807 44.1621 362.65 44.16H208.17Z" fill="#EBEBEB"/>
<path d="M68.3163 190.219H72.8203L72.8203 95.4188H68.3163L68.3163 190.219Z" fill="#E0E0E0"/>
<path d="M156.634 95.4219H70.9219V190.222H156.634V95.4219Z" fill="#E0E0E0"/>
<path d="M159.365 95.4219H70.4609V190.222H159.365V95.4219Z" fill="#F0F0F0"/>
<path d="M155.606 98.4453H74.0859V185.861H155.606V98.4453Z" fill="white"/>
<path d="M155.61 98.4453H153.25V185.861H155.61V98.4453Z" fill="#E0E0E0"/>
<path d="M73.875 161.304V163.664H153.499V161.304H73.875Z" fill="#E0E0E0"/>
<path d="M155.604 157.352H72.8203V161.312H155.604V157.352Z" fill="#F0F0F0"/>
<path d="M218.97 304.438H336.898V155.101L218.97 155.101V304.438Z" fill="#F0F0F0"/>
<path d="M223.135 192.469H332.727V160.533H223.135V192.469Z" fill="#E0E0E0"/>
<path d="M326.495 192.469H332.719V165.709H326.495V192.469Z" fill="#EBEBEB"/>
<path d="M296.393 192.469H302.617V165.709H296.393V192.469Z" fill="#EBEBEB"/>
<path d="M257.679 191.412L263.812 192.469L268.358 166.098L262.225 165.04L257.679 191.412Z" fill="#EBEBEB"/>
<path d="M318.792 192.469H325.016V169.229H318.792V192.469Z" fill="#EBEBEB"/>
<path d="M304.471 192.469H310.695V169.229H304.471V192.469Z" fill="#EBEBEB"/>
<path d="M268.354 192.469H274.578V169.229H268.354V192.469Z" fill="#EBEBEB"/>
<path d="M283.19 191.118L289.266 192.469L294.308 169.782L288.232 168.432L283.19 191.118Z" fill="#EBEBEB"/>
<path d="M313.411 192.469H316.523V164.373H313.411V192.469Z" fill="#EBEBEB"/>
<path d="M276.372 192.469H279.484V164.373H276.372V192.469Z" fill="#EBEBEB"/>
<path d="M332.717 197.539H223.125V229.475H332.717V197.539Z" fill="#E0E0E0"/>
<path d="M229.349 202.703H223.125V229.463H229.349V202.703Z" fill="#EBEBEB"/>
<path d="M259.458 202.703H253.234V229.463H259.458V202.703Z" fill="#EBEBEB"/>
<path d="M293.634 202.029L287.5 203.086L292.046 229.457L298.179 228.4L293.634 202.029Z" fill="#EBEBEB"/>
<path d="M237.076 206.234H230.852V229.474H237.076V206.234Z" fill="#EBEBEB"/>
<path d="M251.372 206.234H245.148V229.474H251.372V206.234Z" fill="#EBEBEB"/>
<path d="M287.497 206.234H281.273V229.474H287.497V206.234Z" fill="#EBEBEB"/>
<path d="M267.646 205.423L261.57 206.773L266.612 229.46L272.688 228.11L267.646 205.423Z" fill="#EBEBEB"/>
<path d="M242.456 201.375H239.344V229.471H242.456V201.375Z" fill="#EBEBEB"/>
<path d="M279.479 201.375H276.367V229.471H279.479V201.375Z" fill="#EBEBEB"/>
<path d="M326.495 229.461H332.719V202.701H326.495V229.461Z" fill="#EBEBEB"/>
<path d="M318.792 229.461H325.016V206.221H318.792V229.461Z" fill="#EBEBEB"/>
<path d="M304.471 229.461H310.695V206.221H304.471V229.461Z" fill="#EBEBEB"/>
<path d="M313.411 229.461H316.523V201.365H313.411V229.461Z" fill="#EBEBEB"/>
<path d="M223.135 266.453H332.727V234.517H223.135V266.453Z" fill="#E0E0E0"/>
<path d="M263.589 266.453H269.812V239.693H263.589V266.453Z" fill="#EBEBEB"/>
<path d="M224.882 265.388L231.016 266.445L235.561 240.074L229.428 239.017L224.882 265.388Z" fill="#EBEBEB"/>
<path d="M285.995 266.453H292.219V243.213H285.995V266.453Z" fill="#EBEBEB"/>
<path d="M271.682 266.453H277.906V243.213H271.682V266.453Z" fill="#EBEBEB"/>
<path d="M235.549 266.453H241.773V243.213H235.549V266.453Z" fill="#EBEBEB"/>
<path d="M250.393 265.095L256.469 266.445L261.511 243.759L255.435 242.409L250.393 265.095Z" fill="#EBEBEB"/>
<path d="M280.607 266.453H283.719V238.357H280.607V266.453Z" fill="#EBEBEB"/>
<path d="M243.575 266.453H246.688V238.357H243.575V266.453Z" fill="#EBEBEB"/>
<path d="M296.507 265.388L302.641 266.445L307.186 240.074L301.053 239.017L296.507 265.388Z" fill="#EBEBEB"/>
<path d="M307.182 266.453H313.406V243.213H307.182V266.453Z" fill="#EBEBEB"/>
<path d="M322.018 265.095L328.094 266.445L333.136 243.759L327.06 242.409L322.018 265.095Z" fill="#EBEBEB"/>
<path d="M315.193 266.453H318.305V238.357H315.193V266.453Z" fill="#EBEBEB"/>
<path d="M141.123 212.625H72.6751C70.9078 212.622 69.1571 212.967 67.5233 213.641C65.8894 214.315 64.4045 215.304 63.1533 216.553C61.9021 217.801 60.9092 219.283 60.2314 220.916C59.5536 222.548 59.2042 224.298 59.2031 226.065V279.521H154.571V226.065C154.571 224.299 154.223 222.551 153.547 220.92C152.871 219.289 151.881 217.807 150.632 216.559C149.383 215.311 147.9 214.321 146.269 213.646C144.637 212.971 142.889 212.624 141.123 212.625Z" fill="#E6E6E6"/>
<path d="M174.81 252.242H162.562C160.441 252.242 158.406 253.085 156.906 254.585C155.405 256.086 154.562 258.12 154.562 260.242V304.442H182.786V260.234C182.784 258.118 181.944 256.089 180.449 254.591C178.954 253.093 176.927 252.249 174.81 252.242Z" fill="#E0E0E0"/>
<path d="M174.811 252.242H174.547C172.425 252.242 170.39 253.085 168.89 254.585C167.39 256.086 166.547 258.12 166.547 260.242V304.442H182.779V260.234C182.777 258.119 181.937 256.091 180.444 254.594C178.951 253.096 176.926 252.251 174.811 252.242Z" fill="#EBEBEB"/>
<path d="M163.147 284.125H69.2031V304.429H163.147V284.125Z" fill="#E6E6E6"/>
<path d="M163.275 265.562H72.6747C68.1901 265.562 64.5547 269.198 64.5547 273.682V278.746C64.5547 283.231 68.1901 286.866 72.6747 286.866H163.275C167.759 286.866 171.395 283.231 171.395 278.746V273.682C171.395 269.198 167.759 265.562 163.275 265.562Z" fill="#F5F5F5"/>
<path d="M84.0631 265.562H72.8231C68.3386 265.562 64.7031 269.198 64.7031 273.682V278.746C64.7031 283.231 68.3386 286.866 72.8231 286.866H84.0631C88.5477 286.866 92.1831 283.231 92.1831 278.746V273.682C92.1831 269.198 88.5477 265.562 84.0631 265.562Z" fill="#E0E0E0"/>
<path d="M71.6074 252.242H59.3594C57.2376 252.242 55.2028 253.085 53.7025 254.585C52.2022 256.086 51.3594 258.12 51.3594 260.242V304.442H79.5994V260.234C79.5973 258.115 78.7546 256.084 77.2562 254.585C75.7579 253.087 73.7263 252.244 71.6074 252.242Z" fill="#E0E0E0"/>
<path d="M71.6076 252.242H71.3516C69.2298 252.242 67.195 253.085 65.6947 254.585C64.1944 256.086 63.3516 258.12 63.3516 260.242V304.442H79.5996V260.234C79.5974 258.115 78.7548 256.084 77.2564 254.585C75.7581 253.087 73.7265 252.244 71.6076 252.242Z" fill="#F0F0F0"/>
<path d="M274.944 119.623C283.94 119.623 291.232 112.33 291.232 103.335C291.232 94.3393 283.94 87.0469 274.944 87.0469C265.949 87.0469 258.656 94.3393 258.656 103.335C258.656 112.33 265.949 119.623 274.944 119.623Z" fill="#E0E0E0"/>
<path d="M288.627 105.558C289.853 98.0084 284.726 90.8951 277.177 89.6697C269.628 88.4443 262.515 93.5707 261.289 101.12C260.064 108.669 265.19 115.782 272.739 117.008C280.289 118.233 287.402 113.107 288.627 105.558Z" fill="#F0F0F0"/>
<path d="M274.299 93.8281V103.508L267.883 99.8761" fill="#F0F0F0"/>
<path d="M274.299 104.208C274.178 104.209 274.059 104.176 273.955 104.112L267.555 100.488C267.405 100.392 267.297 100.242 267.255 100.069C267.212 99.8957 267.237 99.7126 267.326 99.5576C267.414 99.4025 267.558 99.2873 267.729 99.2357C267.9 99.1842 268.084 99.2002 268.243 99.2804L273.619 102.328V93.8324C273.638 93.6617 273.719 93.5038 273.846 93.3891C273.974 93.2744 274.14 93.2109 274.311 93.2109C274.483 93.2109 274.649 93.2744 274.777 93.3891C274.904 93.5038 274.985 93.6617 275.003 93.8324V103.512C275.004 103.634 274.973 103.753 274.912 103.859C274.852 103.964 274.765 104.052 274.659 104.112C274.551 104.179 274.426 104.212 274.299 104.208Z" fill="#E0E0E0"/>
<path d="M200.003 342.055C285.669 342.055 355.115 337.123 355.115 331.039C355.115 324.955 285.669 320.023 200.003 320.023C114.337 320.023 44.8906 324.955 44.8906 331.039C44.8906 337.123 114.337 342.055 200.003 342.055Z" fill="#F5F5F5"/>
<path d="M310.93 164.656H289.33C287.363 164.656 285.477 165.438 284.086 166.828C282.695 168.219 281.914 170.105 281.914 172.072V181.016C281.914 182.983 282.695 184.869 284.086 186.26C285.477 187.651 287.363 188.432 289.33 188.432H298.562L301.042 196.264L303.546 188.432H310.89C312.857 188.432 314.743 187.651 316.134 186.26C317.525 184.869 318.306 182.983 318.306 181.016V172.072C318.306 170.112 317.53 168.232 316.148 166.842C314.766 165.453 312.89 164.667 310.93 164.656Z" fill="#43A7FF"/>
<path d="M291.75 176.004C291.75 176.3 291.662 176.589 291.498 176.835C291.333 177.081 291.1 177.273 290.826 177.386C290.553 177.499 290.252 177.529 289.962 177.471C289.672 177.413 289.405 177.271 289.196 177.062C288.987 176.852 288.844 176.586 288.787 176.296C288.729 176.005 288.758 175.705 288.872 175.431C288.985 175.158 289.177 174.924 289.423 174.76C289.669 174.596 289.958 174.508 290.254 174.508C290.45 174.508 290.645 174.546 290.826 174.622C291.008 174.697 291.173 174.807 291.312 174.946C291.451 175.085 291.561 175.25 291.636 175.431C291.711 175.613 291.75 175.807 291.75 176.004ZM296.854 174.508C296.558 174.508 296.269 174.596 296.023 174.76C295.777 174.924 295.585 175.158 295.472 175.431C295.358 175.705 295.329 176.005 295.387 176.296C295.444 176.586 295.587 176.852 295.796 177.062C296.005 177.271 296.272 177.413 296.562 177.471C296.852 177.529 297.153 177.499 297.426 177.386C297.7 177.273 297.933 177.081 298.098 176.835C298.262 176.589 298.35 176.3 298.35 176.004C298.341 175.613 298.18 175.24 297.9 174.967C297.621 174.693 297.245 174.54 296.854 174.54V174.508ZM303.454 174.508C303.158 174.508 302.869 174.596 302.623 174.76C302.377 174.924 302.185 175.158 302.072 175.431C301.958 175.705 301.929 176.005 301.987 176.296C302.044 176.586 302.187 176.852 302.396 177.062C302.605 177.271 302.872 177.413 303.162 177.471C303.452 177.529 303.753 177.499 304.026 177.386C304.3 177.273 304.533 177.081 304.698 176.835C304.862 176.589 304.95 176.3 304.95 176.004C304.941 175.613 304.78 175.24 304.5 174.967C304.221 174.693 303.845 174.54 303.454 174.54V174.508ZM310.054 174.508C309.758 174.508 309.469 174.596 309.223 174.76C308.977 174.924 308.785 175.158 308.672 175.431C308.558 175.705 308.529 176.005 308.587 176.296C308.644 176.586 308.787 176.852 308.996 177.062C309.205 177.271 309.472 177.413 309.762 177.471C310.052 177.529 310.353 177.499 310.626 177.386C310.9 177.273 311.133 177.081 311.298 176.835C311.462 176.589 311.55 176.3 311.55 176.004C311.541 175.613 311.38 175.24 311.101 174.967C310.821 174.693 310.445 174.54 310.054 174.54V174.508Z" fill="white"/>
<path d="M89.2026 191.055H67.6426C66.6687 191.055 65.7043 191.247 64.8046 191.619C63.9048 191.992 63.0873 192.538 62.3987 193.227C61.71 193.915 61.1638 194.733 60.7911 195.633C60.4184 196.532 60.2266 197.497 60.2266 198.471V207.415C60.2266 209.382 61.0079 211.268 62.3987 212.659C63.7894 214.049 65.6757 214.831 67.6426 214.831H76.8746L79.3546 222.655L81.8586 214.831H89.2026C91.1694 214.831 93.0557 214.049 94.4465 212.659C95.8372 211.268 96.6186 209.382 96.6186 207.415V198.471C96.6186 197.497 96.4267 196.532 96.0541 195.633C95.6814 194.733 95.1351 193.915 94.4465 193.227C93.7578 192.538 92.9403 191.992 92.0405 191.619C91.1408 191.247 90.1764 191.055 89.2026 191.055Z" fill="#43A7FF"/>
<path d="M70.0154 202.402C70.0154 202.698 69.9277 202.987 69.7633 203.233C69.5989 203.479 69.3653 203.671 69.0919 203.784C68.8186 203.898 68.5178 203.927 68.2276 203.87C67.9374 203.812 67.6708 203.669 67.4616 203.46C67.2524 203.251 67.1099 202.984 67.0522 202.694C66.9945 202.404 67.0241 202.103 67.1373 201.83C67.2505 201.556 67.4423 201.323 67.6883 201.158C67.9343 200.994 68.2236 200.906 68.5194 200.906C68.9162 200.906 69.2967 201.064 69.5773 201.344C69.8578 201.625 70.0154 202.006 70.0154 202.402ZM75.1194 200.906C74.8236 200.906 74.5343 200.994 74.2883 201.158C74.0423 201.323 73.8505 201.556 73.7373 201.83C73.6241 202.103 73.5945 202.404 73.6522 202.694C73.7099 202.984 73.8524 203.251 74.0616 203.46C74.2708 203.669 74.5374 203.812 74.8276 203.87C75.1178 203.927 75.4186 203.898 75.6919 203.784C75.9653 203.671 76.1989 203.479 76.3633 203.233C76.5277 202.987 76.6154 202.698 76.6154 202.402C76.6091 202.01 76.4485 201.637 76.1684 201.363C75.8883 201.089 75.5113 200.936 75.1194 200.938V200.906ZM81.7194 200.906C81.4229 200.903 81.1321 200.988 80.884 201.151C80.6359 201.313 80.4416 201.546 80.326 201.819C80.2103 202.092 80.1784 202.393 80.2343 202.684C80.2902 202.975 80.4314 203.244 80.6399 203.454C80.8485 203.665 81.115 203.809 81.4056 203.868C81.6963 203.927 81.9979 203.899 82.2722 203.786C82.5465 203.673 82.7811 203.481 82.9462 203.235C83.1113 202.989 83.1994 202.699 83.1994 202.402C83.1932 202.013 83.0347 201.642 82.7581 201.368C82.4814 201.095 82.1086 200.94 81.7194 200.938V200.906ZM88.3194 200.906C88.0236 200.906 87.7343 200.994 87.4883 201.158C87.2423 201.323 87.0505 201.556 86.9373 201.83C86.8241 202.103 86.7945 202.404 86.8522 202.694C86.9099 202.984 87.0524 203.251 87.2616 203.46C87.4708 203.669 87.7374 203.812 88.0276 203.87C88.3178 203.927 88.6186 203.898 88.8919 203.784C89.1653 203.671 89.3989 203.479 89.5633 203.233C89.7277 202.987 89.8154 202.698 89.8154 202.402C89.8091 202.01 89.6485 201.637 89.3684 201.363C89.0883 201.089 88.7113 200.936 88.3194 200.938V200.906Z" fill="white"/>
<path d="M330.399 332.158H228.863C209.895 332.158 208.679 309.822 224.271 299.31C227.122 297.414 230.277 296.023 233.599 295.198C264.471 287.078 307.847 232.494 338.399 255.334L338.487 255.398C368.919 278.398 347.647 332.158 330.399 332.158Z" fill="#263238"/>
<path opacity="0.5" d="M330.399 332.158H228.863C209.895 332.158 208.679 309.822 224.271 299.31C227.122 297.414 230.277 296.023 233.599 295.198C264.471 287.078 307.847 232.494 338.399 255.334L338.487 255.398C368.919 278.398 347.647 332.158 330.399 332.158Z" fill="white"/>
<path opacity="0.2" d="M338.321 255.294C335.761 255.126 332.657 255.846 329.313 258.646C320.633 265.926 333.833 300.974 313.073 315.55C301.489 323.686 251.513 327.27 234.833 317.294C222.521 309.926 222.361 305.294 224.273 299.31C227.123 297.415 230.279 296.024 233.601 295.198C264.433 287.038 307.809 232.454 338.321 255.294Z" fill="black"/>
<path d="M259.376 248.685L253.32 244.421L257.848 239.789C257.848 239.789 262.496 242.189 262.056 246.469L259.376 248.685Z" fill="#E4897B"/>
<path d="M250.945 239.718L255.145 237.078L257.849 239.79L253.321 244.422L250.945 239.718Z" fill="#E4897B"/>
<path d="M289.167 237.672C283.431 239.36 280.607 249.448 275.871 258.976L262.087 245.28L257.703 249.168C257.703 249.168 270.327 269.224 276.287 269.224C283.727 269.224 291.447 248.56 291.447 248.56L289.167 237.672Z" fill="#263238"/>
<path opacity="0.1" d="M291.448 248.56C291.448 248.56 290.224 251.832 288.248 255.76C286.368 259.584 283.808 264.04 281.048 266.736C279.488 268.248 277.848 269.208 276.248 269.208C270.288 269.208 257.664 249.152 257.664 249.152L262.048 245.264L275.832 258.96C280.568 249.432 283.384 239.344 289.136 237.656L291.448 248.56Z" fill="white"/>
<path opacity="0.2" d="M288.278 255.776C286.398 259.6 283.838 264.056 281.078 266.752C281.374 257.608 285.878 248.688 285.878 248.688C287.12 250.877 287.934 253.282 288.278 255.776Z" fill="black"/>
<path d="M283.679 293.395C283.679 293.395 234.999 286.403 232.423 297.083C229.711 308.379 268.799 315.995 292.159 316.795C315.519 317.595 322.223 311.995 318.471 283.195H286.471L283.679 293.395Z" fill="#43A7FF"/>
<path opacity="0.6" d="M283.679 293.395C283.679 293.395 234.999 286.403 232.423 297.083C229.711 308.379 268.799 315.995 292.159 316.795C315.519 317.595 322.223 311.995 318.471 283.195H286.471L283.679 293.395Z" fill="white"/>
<path d="M256.563 315.669L246.363 315.677L241.467 315.685L240.883 310.525L245.411 309.917L256.475 308.445L256.563 315.669Z" fill="#E4897B"/>
<path d="M241.99 309.877L243.23 315.765C243.247 315.842 243.249 315.922 243.234 316C243.22 316.078 243.189 316.152 243.145 316.218C243.101 316.284 243.044 316.34 242.977 316.383C242.911 316.426 242.836 316.455 242.758 316.469L239.822 316.997C239.822 316.997 235.926 317.989 234.83 317.293C231.63 315.245 228.558 302.301 229.862 301.341C230.334 300.989 231.158 301.525 231.574 301.949C232.886 303.285 235.678 307.021 236.79 308.125C238.078 309.421 240.374 309.461 241.382 309.405C241.523 309.398 241.662 309.442 241.773 309.528C241.885 309.615 241.962 309.738 241.99 309.877Z" fill="#263238"/>
<path opacity="0.2" d="M256.566 315.669L246.366 315.677L245.414 309.917L256.478 308.445L256.566 315.669Z" fill="black"/>
<path d="M271.481 306.57L281.161 309.794L285.809 311.338L284.729 316.41L280.241 315.554L269.281 313.458L271.481 306.57Z" fill="#E4897B"/>
<path d="M283.475 316.673L284.155 310.697C284.165 310.618 284.19 310.543 284.229 310.474C284.268 310.406 284.32 310.346 284.383 310.297C284.445 310.249 284.517 310.214 284.593 310.193C284.669 310.172 284.749 310.167 284.827 310.177L287.779 310.609C287.779 310.609 291.779 310.897 292.579 311.905C294.979 314.857 293.795 328.113 292.259 328.609C291.691 328.793 291.083 328.025 290.819 327.497C290.019 325.809 288.531 321.377 287.827 319.985C287.027 318.345 284.843 317.585 283.875 317.313C283.743 317.271 283.631 317.183 283.558 317.066C283.484 316.949 283.455 316.81 283.475 316.673Z" fill="#263238"/>
<path opacity="0.2" d="M271.481 306.57L281.161 309.794L280.241 315.554L269.281 313.458L271.481 306.57Z" fill="black"/>
<path d="M278.557 316.444L275.797 316.708L277.445 307.156L280.613 308.828L278.557 316.444Z" fill="#43A7FF"/>
<path opacity="0.6" d="M278.557 316.444L275.797 316.708L277.445 307.156L280.613 308.828L278.557 316.444Z" fill="white"/>
<path d="M287.798 319.911C287.87 320.344 287.805 320.788 287.614 321.183C287.536 321.301 287.429 321.397 287.303 321.46C287.176 321.523 287.035 321.552 286.894 321.543C286.809 321.547 286.724 321.528 286.648 321.489C286.572 321.449 286.508 321.391 286.462 321.319C286.046 320.615 287.022 318.447 287.142 318.207C287.149 318.18 287.167 318.157 287.19 318.142C287.214 318.127 287.242 318.122 287.27 318.127C287.3 318.129 287.329 318.142 287.352 318.162C287.375 318.182 287.391 318.209 287.398 318.239C287.588 318.781 287.722 319.341 287.798 319.911ZM286.646 320.951C286.651 321.022 286.673 321.09 286.71 321.151C286.725 321.181 286.749 321.207 286.78 321.222C286.81 321.238 286.844 321.244 286.878 321.239C286.975 321.25 287.073 321.234 287.161 321.191C287.249 321.149 287.323 321.082 287.374 320.999C287.607 320.238 287.565 319.419 287.254 318.687C286.917 319.399 286.711 320.166 286.646 320.951Z" fill="#43A7FF"/>
<path d="M287.424 318.255V318.319C287.16 319.015 285.96 320.391 285.28 320.295C285.169 320.276 285.067 320.22 284.992 320.135C284.917 320.051 284.872 319.944 284.864 319.831C284.834 319.719 284.828 319.602 284.847 319.487C284.866 319.372 284.911 319.263 284.976 319.167C285.472 318.367 287.192 318.111 287.288 318.119C287.315 318.114 287.342 318.118 287.367 318.129C287.391 318.141 287.411 318.16 287.424 318.183C287.43 318.207 287.43 318.232 287.424 318.255ZM285.12 319.719V319.783C285.168 319.983 285.248 319.991 285.288 320.007C285.688 320.063 286.608 319.167 287.008 318.479C286.326 318.562 285.69 318.869 285.2 319.351C285.132 319.461 285.101 319.59 285.112 319.719H285.12Z" fill="#43A7FF"/>
<path d="M247.297 309.176C247.297 309.176 292.585 291.576 306.457 294.52C320.329 297.464 320.393 304.72 313.361 311.488C306.329 318.256 295.825 315.648 295.825 315.648C295.825 315.648 304.081 310.704 303.505 307.648C302.929 304.592 297.681 311.576 297.681 311.576C297.681 311.576 270.313 318.272 247.713 316.504L247.297 309.176Z" fill="#43A7FF"/>
<path d="M237.104 308.224C236.841 307.875 236.695 307.452 236.688 307.016C236.7 306.875 236.75 306.741 236.831 306.625C236.913 306.51 237.023 306.419 237.152 306.36C237.226 306.319 237.31 306.297 237.396 306.297C237.481 306.297 237.565 306.319 237.64 306.36C238.328 306.8 238.44 309.176 238.44 309.448C238.443 309.475 238.437 309.503 238.422 309.526C238.408 309.549 238.385 309.567 238.36 309.576C238.335 309.592 238.305 309.601 238.276 309.601C238.246 309.601 238.216 309.592 238.192 309.576C237.783 309.164 237.418 308.711 237.104 308.224ZM237.648 306.768C237.607 306.71 237.555 306.661 237.496 306.624C237.469 306.605 237.436 306.595 237.404 306.595C237.371 306.595 237.338 306.605 237.312 306.624C237.219 306.657 237.138 306.717 237.079 306.795C237.019 306.873 236.983 306.966 236.976 307.064C237.119 307.846 237.536 308.552 238.152 309.056C238.12 308.269 237.95 307.495 237.648 306.768Z" fill="#43A7FF"/>
<path d="M238.189 309.519V309.447C238.109 308.711 238.533 306.935 239.189 306.703C239.298 306.669 239.414 306.672 239.52 306.713C239.626 306.754 239.715 306.829 239.773 306.927C239.924 307.104 239.999 307.334 239.981 307.567C239.901 308.503 238.493 309.519 238.381 309.567C238.359 309.582 238.332 309.59 238.305 309.59C238.278 309.59 238.252 309.582 238.229 309.567C238.212 309.554 238.199 309.538 238.189 309.519ZM239.565 307.159V307.103C239.437 306.951 239.357 306.983 239.317 306.991C238.933 307.119 238.517 308.335 238.517 309.135C238.909 308.807 239.669 308.119 239.717 307.535C239.726 307.405 239.692 307.276 239.621 307.167L239.565 307.159Z" fill="#43A7FF"/>
<path opacity="0.7" d="M247.297 309.176C247.297 309.176 292.585 291.576 306.457 294.52C320.329 297.464 320.393 304.72 313.361 311.488C306.329 318.256 295.825 315.648 295.825 315.648C295.825 315.648 304.081 310.704 303.505 307.648C302.929 304.592 297.681 311.576 297.681 311.576C297.681 311.576 270.313 318.272 247.713 316.504L247.297 309.176Z" fill="white"/>
<path d="M246.742 309.035L249.286 307.867L250.75 317.395L247.214 316.819L246.742 309.035Z" fill="#43A7FF"/>
<path opacity="0.6" d="M246.742 309.035L249.286 307.867L250.75 317.395L247.214 316.819L246.742 309.035Z" fill="white"/>
<path d="M321.689 239.203C316.801 266.403 318.577 284.003 318.577 284.003C318.577 284.003 295.833 283.691 286.489 283.163C281.505 250.195 289.169 237.667 289.169 237.667C291.613 237.177 294.084 236.838 296.569 236.651C297.089 236.611 297.625 236.587 298.169 236.563C302.577 236.56 306.981 236.808 311.361 237.307C312.161 237.395 313.033 237.507 313.849 237.627C318.017 238.259 321.689 239.203 321.689 239.203Z" fill="#263238"/>
<path opacity="0.1" d="M321.683 239.203C321.075 242.579 320.571 245.811 320.155 248.867C319.499 253.667 319.059 258.115 318.771 262.067C318.683 263.259 318.603 264.419 318.547 265.523C318.315 269.571 318.251 273.035 318.259 275.835C318.259 281.099 318.571 284.003 318.571 284.003C318.571 284.003 295.827 283.691 286.483 283.163C281.491 250.195 289.171 237.667 289.171 237.667C291.612 237.177 294.081 236.837 296.563 236.651C297.083 236.611 297.619 236.587 298.163 236.563C302.571 236.556 306.976 236.804 311.355 237.307C312.155 237.395 313.027 237.507 313.843 237.627C318.011 238.251 321.683 239.203 321.683 239.203Z" fill="white"/>
<path opacity="0.2" d="M301.375 269.219C307.203 268.527 312.954 267.29 318.551 265.523C318.319 269.571 318.255 273.035 318.263 275.835C307.407 276.835 302.975 274.747 302.975 274.747L301.375 269.219Z" fill="black"/>
<path opacity="0.2" d="M320.158 248.869C319.502 253.669 319.062 258.117 318.774 262.069C315.662 255.733 317.974 248.133 317.974 248.133L320.158 248.869Z" fill="black"/>
<path d="M302.602 280.39H286.058C285.737 280.385 285.429 280.26 285.195 280.039C284.961 279.819 284.818 279.519 284.794 279.198L282.49 257.238C282.475 257.091 282.49 256.942 282.536 256.801C282.582 256.66 282.658 256.53 282.757 256.421C282.857 256.311 282.979 256.224 283.115 256.165C283.251 256.106 283.398 256.076 283.546 256.078H300.09C300.405 256.084 300.707 256.206 300.939 256.42C301.17 256.634 301.315 256.925 301.346 257.238L303.658 279.198C303.679 279.348 303.667 279.501 303.624 279.646C303.58 279.79 303.505 279.924 303.405 280.037C303.304 280.151 303.181 280.241 303.042 280.302C302.904 280.363 302.754 280.393 302.602 280.39Z" fill="#263238"/>
<path opacity="0.6" d="M302.602 280.39H286.058C285.737 280.385 285.429 280.26 285.195 280.039C284.961 279.819 284.818 279.519 284.794 279.198L282.49 257.238C282.475 257.091 282.49 256.942 282.536 256.801C282.582 256.66 282.658 256.53 282.757 256.421C282.857 256.311 282.979 256.224 283.115 256.165C283.251 256.106 283.398 256.076 283.546 256.078H300.09C300.405 256.084 300.707 256.206 300.939 256.42C301.17 256.634 301.315 256.925 301.346 257.238L303.658 279.198C303.679 279.348 303.667 279.501 303.624 279.646C303.58 279.79 303.505 279.924 303.405 280.037C303.304 280.151 303.181 280.241 303.042 280.302C302.904 280.363 302.754 280.393 302.602 280.39Z" fill="white"/>
<path opacity="0.2" d="M301.914 280.39H286.058C285.737 280.385 285.429 280.26 285.195 280.039C284.961 279.819 284.818 279.519 284.794 279.198L282.49 257.238C282.475 257.091 282.49 256.942 282.536 256.801C282.582 256.66 282.658 256.53 282.757 256.421C282.857 256.311 282.979 256.224 283.115 256.165C283.251 256.106 283.398 256.076 283.546 256.078H299.402C299.717 256.084 300.019 256.206 300.251 256.42C300.482 256.634 300.627 256.925 300.658 257.238L302.97 279.198C302.991 279.348 302.979 279.501 302.936 279.646C302.892 279.79 302.817 279.924 302.717 280.037C302.616 280.151 302.493 280.241 302.354 280.302C302.216 280.363 302.066 280.393 301.914 280.39Z" fill="white"/>
<path d="M292.269 266.453C292.041 266.451 291.815 266.498 291.607 266.591C291.398 266.684 291.212 266.82 291.06 266.99C290.909 267.161 290.796 267.361 290.728 267.579C290.66 267.797 290.64 268.027 290.669 268.253C290.716 268.739 290.94 269.19 291.299 269.52C291.657 269.851 292.125 270.038 292.613 270.045C292.84 270.047 293.065 270 293.273 269.908C293.481 269.816 293.666 269.68 293.818 269.511C293.969 269.341 294.083 269.141 294.151 268.925C294.219 268.708 294.24 268.479 294.213 268.253C293.724 268.244 293.257 268.055 292.898 267.723C292.54 267.391 292.316 266.939 292.269 266.453Z" fill="#263238"/>
<path opacity="0.3" d="M295.851 257.853H287.107C286.892 257.85 286.682 257.787 286.501 257.671C286.32 257.556 286.175 257.391 286.082 257.197L285.562 256.109H297.099L296.795 257.197C296.735 257.398 296.609 257.572 296.438 257.691C296.266 257.81 296.059 257.867 295.851 257.853Z" fill="black"/>
<path d="M300.988 268.523L297.164 268.211L297.324 273.299L300.524 274.979L307.9 274.307L308.5 270.875C306.076 267.323 300.988 268.523 300.988 268.523Z" fill="#E4897B"/>
<path d="M321.686 239.195C325.614 240.379 331.182 263.195 330.294 268.235C329.406 273.275 319.718 275.435 307.406 275.155V269.203L321.686 265.035L319.286 256.235C319.286 256.235 317.302 249.763 318.19 245.235C318.678 242.899 319.903 240.782 321.686 239.195Z" fill="#263238"/>
<path opacity="0.1" d="M321.686 239.195C325.614 240.379 331.182 263.195 330.294 268.235C329.406 273.275 319.718 275.435 307.406 275.155V269.203L321.686 265.035L319.286 256.235C319.286 256.235 317.302 249.763 318.19 245.235C318.678 242.899 319.903 240.782 321.686 239.195Z" fill="white"/>
<path d="M309.454 237.049C307.462 239.129 304.334 240.873 299.318 240.689C295.47 240.537 294.934 238.121 295.606 236.793C297.942 236.313 298.998 235.297 299.326 234.001C299.654 232.705 299.198 230.961 298.526 229.345L305.014 223.881L306.11 222.953C306.11 223.265 306.07 223.593 306.054 223.937C305.978 225.205 305.978 226.477 306.054 227.745C306.27 231.321 307.118 235.201 309.454 237.049Z" fill="#E4897B"/>
<path opacity="0.2" d="M306.059 227.747C304.851 230.219 302.731 233.203 299.323 234.003C299.675 232.627 299.195 230.963 298.523 229.347L305.011 223.883C305.355 223.883 305.707 223.883 306.051 223.939C305.979 225.207 305.981 226.479 306.059 227.747Z" fill="black"/>
<path d="M291.201 213.017C290.249 215.193 290.129 219.865 293.441 218.705C296.753 217.545 292.801 209.281 291.201 213.017Z" fill="#263238"/>
<path d="M307.062 217.841C306.774 223.665 306.91 227.097 303.998 230.097C299.614 234.609 292.382 231.953 290.91 226.145C289.598 220.905 290.286 212.257 295.966 209.921C297.226 209.405 298.596 209.217 299.949 209.374C301.301 209.531 302.592 210.028 303.7 210.819C304.808 211.61 305.698 212.669 306.286 213.897C306.874 215.125 307.141 216.482 307.062 217.841Z" fill="#E4897B"/>
<path d="M298.23 219.489C298.23 219.961 297.99 220.353 297.678 220.353C297.366 220.353 297.11 219.969 297.102 219.489C297.094 219.009 297.35 218.633 297.654 218.633C297.958 218.633 298.222 219.017 298.23 219.489Z" fill="#263238"/>
<path d="M292.854 219.504C292.854 219.976 292.614 220.36 292.302 220.36C291.99 220.36 291.734 219.976 291.734 219.504C291.734 219.032 291.974 218.648 292.286 218.648C292.598 218.648 292.854 219.024 292.854 219.504Z" fill="#263238"/>
<path d="M294.568 219.734C294.003 221.14 293.243 222.459 292.312 223.654C292.643 223.872 293.015 224.017 293.405 224.082C293.795 224.147 294.194 224.129 294.576 224.03L294.568 219.734Z" fill="#DE5753"/>
<path d="M299.861 217.748C299.813 217.755 299.764 217.75 299.719 217.731C299.674 217.713 299.635 217.683 299.605 217.644C299.398 217.36 299.128 217.128 298.815 216.967C298.503 216.806 298.157 216.72 297.805 216.716C297.731 216.721 297.658 216.697 297.602 216.649C297.545 216.601 297.509 216.534 297.501 216.46C297.498 216.423 297.502 216.386 297.513 216.351C297.524 216.316 297.542 216.283 297.566 216.255C297.59 216.227 297.619 216.203 297.652 216.187C297.684 216.17 297.72 216.159 297.757 216.156C298.202 216.153 298.64 216.256 299.038 216.454C299.436 216.653 299.781 216.943 300.045 217.3C300.091 217.359 300.111 217.433 300.102 217.506C300.093 217.58 300.055 217.647 299.997 217.692C299.957 217.722 299.911 217.742 299.861 217.748Z" fill="#263238"/>
<path d="M290.52 217.666C290.468 217.681 290.413 217.681 290.36 217.666C290.327 217.649 290.297 217.627 290.273 217.599C290.249 217.571 290.23 217.539 290.218 217.504C290.206 217.469 290.201 217.432 290.204 217.395C290.206 217.359 290.216 217.323 290.232 217.29C290.409 216.883 290.682 216.525 291.028 216.246C291.373 215.967 291.781 215.776 292.216 215.69C292.253 215.685 292.29 215.688 292.326 215.698C292.362 215.708 292.395 215.725 292.424 215.748C292.453 215.771 292.477 215.8 292.495 215.832C292.513 215.865 292.524 215.901 292.528 215.938C292.534 215.973 292.532 216.01 292.524 216.045C292.515 216.08 292.499 216.113 292.478 216.142C292.456 216.171 292.429 216.196 292.398 216.214C292.367 216.233 292.332 216.245 292.296 216.25C291.953 216.314 291.631 216.463 291.359 216.682C291.086 216.901 290.873 217.184 290.736 217.506C290.715 217.547 290.685 217.584 290.647 217.611C290.61 217.639 290.566 217.658 290.52 217.666Z" fill="#263238"/>
<path d="M297.914 213.167C297.914 213.167 299.514 212.015 300.25 213.255C300.986 214.495 300.938 217.799 300.938 217.799L301.258 217.215C301.258 217.215 303.33 224.575 306.33 222.719C309.33 220.863 313.738 213.391 306.73 209.583C306.73 209.583 305.986 207.807 301.354 206.927C296.722 206.047 291.122 208.911 290.154 211.975C289.186 215.039 290.538 216.775 290.538 216.775C290.686 216.108 290.991 215.486 291.426 214.959C291.488 215.271 291.626 215.563 291.829 215.809C292.031 216.055 292.291 216.246 292.586 216.367C292.539 215.741 292.669 215.114 292.962 214.559C293.115 215.103 293.388 215.606 293.762 216.031C294.098 212.879 296.242 212.239 296.914 212.263C297.154 212.29 297.38 212.391 297.56 212.554C297.739 212.716 297.863 212.93 297.914 213.167Z" fill="#263238"/>
<path d="M309.376 222.66C309.162 223.353 308.812 223.997 308.348 224.554C307.884 225.112 307.314 225.572 306.672 225.908C304.944 226.796 303.68 225.332 303.824 223.508C303.952 221.852 305 219.396 306.896 219.276C307.31 219.257 307.723 219.341 308.098 219.521C308.472 219.7 308.797 219.969 309.042 220.304C309.287 220.639 309.446 221.029 309.504 221.44C309.563 221.851 309.518 222.27 309.376 222.66Z" fill="#E4897B"/>
<path d="M294.758 225.979C295.257 226.502 295.717 227.061 296.134 227.651L296.478 227.483C298.022 226.683 298.486 225.827 298.526 225.083C298.536 224.724 298.462 224.368 298.31 224.043C298.228 223.858 298.121 223.686 297.99 223.531C297.253 224.439 296.327 225.176 295.278 225.691C294.966 225.883 294.758 225.979 294.758 225.979Z" fill="#263238"/>
<path d="M295.281 225.715L295.705 226.195C297.153 225.459 298.105 224.739 298.313 224.067C298.232 223.881 298.124 223.709 297.993 223.555C297.256 224.462 296.331 225.199 295.281 225.715Z" fill="white"/>
<path d="M296.477 227.486C298.021 226.686 298.485 225.83 298.525 225.086C297.943 225.395 297.42 225.804 296.981 226.294C296.691 226.628 296.514 227.045 296.477 227.486Z" fill="#A24E3F"/>
<path d="M155.533 244.946L155.949 249.386C155.949 249.386 181.933 253.338 186.093 257.386C190.253 261.434 205.013 325.458 205.013 325.458L199.061 326.258C199.061 326.258 178.405 279.058 177.301 272.226C177.301 272.226 159.109 272.906 146.693 272.906C134.277 272.906 132.797 244.906 132.797 244.906L155.533 244.946Z" fill="#43A7FF"/>
<path opacity="0.3" d="M205.014 325.466L199.062 326.266C199.062 326.266 190.614 306.962 184.238 291.258C180.63 282.402 177.694 274.69 177.302 272.226C177.302 272.226 164.71 272.69 153.302 272.85C150.998 272.85 148.75 272.898 146.662 272.898C134.246 272.898 132.766 244.898 132.766 244.898H155.502L155.918 249.338C155.918 249.338 181.91 253.282 186.062 257.338C190.214 261.394 205.014 325.466 205.014 325.466Z" fill="white"/>
<path d="M209.606 331.2C205.606 331.2 205.07 331.136 202.814 331.056C200.886 330.992 200.414 331.232 198.878 331.2C197.582 331.2 197.63 329.928 198.03 328.504C198.23 327.784 198.534 326.272 198.83 325.12L204.702 324.688C205.502 326.288 207.39 328.52 209.646 328.824C211.902 329.128 211.206 331.2 209.606 331.2Z" fill="#263238"/>
<path opacity="0.2" d="M184.238 291.293C180.63 282.437 177.694 274.725 177.302 272.261C177.302 272.261 164.71 272.725 153.302 272.885L152.07 251.133C152.07 251.133 168.134 253.437 178.934 262.741C180.302 263.893 182.966 281.709 184.238 291.293Z" fill="black"/>
<path d="M178.633 277.07H132.145V274.214C132.145 273.262 132.523 272.348 133.197 271.674C133.871 271.001 134.784 270.622 135.737 270.622H175.041C175.993 270.622 176.907 271.001 177.581 271.674C178.254 272.348 178.633 273.262 178.633 274.214V277.07Z" fill="#263238"/>
<path opacity="0.2" d="M178.633 277.07H132.145V274.214C132.145 273.262 132.523 272.348 133.197 271.674C133.871 271.001 134.784 270.622 135.737 270.622H175.041C175.993 270.622 176.907 271.001 177.581 271.674C178.254 272.348 178.633 273.262 178.633 274.214V277.07Z" fill="white"/>
<path d="M177.023 318.869L159.103 317.309V293.773H152.807V317.301L134.823 318.901C134.059 318.977 133.349 319.334 132.833 319.903C132.317 320.472 132.032 321.213 132.031 321.981V324.381H179.823V321.981C179.831 321.206 179.547 320.457 179.029 319.88C178.51 319.304 177.795 318.944 177.023 318.869Z" fill="#263238"/>
<path d="M137.818 327.3C137.818 328.115 137.576 328.911 137.124 329.589C136.671 330.266 136.028 330.794 135.275 331.106C134.522 331.418 133.694 331.499 132.894 331.341C132.095 331.182 131.361 330.789 130.785 330.213C130.209 329.637 129.816 328.903 129.657 328.103C129.498 327.304 129.58 326.476 129.892 325.723C130.204 324.97 130.732 324.327 131.409 323.874C132.087 323.421 132.883 323.18 133.698 323.18C134.791 323.18 135.839 323.614 136.611 324.386C137.384 325.159 137.818 326.207 137.818 327.3Z" fill="#263238"/>
<path d="M178.136 331.42C180.411 331.42 182.256 329.575 182.256 327.3C182.256 325.024 180.411 323.18 178.136 323.18C175.86 323.18 174.016 325.024 174.016 327.3C174.016 329.575 175.86 331.42 178.136 331.42Z" fill="#263238"/>
<path d="M151.719 275.531H160.191V295.603C160.191 296.39 159.878 297.145 159.321 297.702C158.765 298.259 158.01 298.571 157.223 298.571H154.695C153.908 298.571 153.153 298.259 152.596 297.702C152.039 297.145 151.727 296.39 151.727 295.603V275.531H151.719Z" fill="#263238"/>
<path opacity="0.2" d="M151.719 275.531H160.191V295.603C160.191 296.39 159.878 297.145 159.321 297.702C158.765 298.259 158.01 298.571 157.223 298.571H154.695C153.908 298.571 153.153 298.259 152.596 297.702C152.039 297.145 151.727 296.39 151.727 295.603V275.531H151.719Z" fill="white"/>
<path d="M131.822 277.812H178.958C179.758 277.812 180.406 277.164 180.406 276.365V276.036C180.406 275.237 179.758 274.589 178.958 274.589H131.822C131.023 274.589 130.374 275.237 130.374 276.036V276.365C130.374 277.164 131.023 277.812 131.822 277.812Z" fill="#263238"/>
<path opacity="0.2" d="M137.818 327.3C137.818 328.115 137.576 328.911 137.124 329.589C136.671 330.266 136.028 330.794 135.275 331.106C134.522 331.418 133.694 331.499 132.894 331.341C132.095 331.182 131.361 330.789 130.785 330.213C130.209 329.637 129.816 328.903 129.657 328.103C129.498 327.304 129.58 326.476 129.892 325.723C130.204 324.97 130.732 324.327 131.409 323.874C132.087 323.421 132.883 323.18 133.698 323.18C134.791 323.18 135.839 323.614 136.611 324.386C137.384 325.159 137.818 326.207 137.818 327.3Z" fill="white"/>
<path opacity="0.2" d="M178.136 331.42C180.411 331.42 182.256 329.575 182.256 327.3C182.256 325.024 180.411 323.18 178.136 323.18C175.86 323.18 174.016 325.024 174.016 327.3C174.016 329.575 175.86 331.42 178.136 331.42Z" fill="white"/>
<path d="M182.589 237.495H168.229C164.021 237.495 160.981 233.711 161.445 229.055L162.053 222.831C162.517 218.167 166.293 214.383 170.501 214.383H184.861C189.069 214.383 192.109 218.167 191.653 222.831L191.037 229.055C190.581 233.711 186.797 237.495 182.589 237.495Z" fill="#263238"/>
<path opacity="0.2" d="M182.589 237.495H168.229C164.021 237.495 160.981 233.711 161.445 229.055L162.053 222.831C162.517 218.167 166.293 214.383 170.501 214.383H184.861C189.069 214.383 192.109 218.167 191.653 222.831L191.037 229.055C190.581 233.711 186.797 237.495 182.589 237.495Z" fill="white"/>
<path d="M181.268 234.461H172.804C170.316 234.461 168.516 232.229 168.804 229.469L169.172 225.797C169.436 223.037 171.676 220.805 174.164 220.805H182.644C185.132 220.805 186.932 223.037 186.644 225.797L186.276 229.469C185.988 232.229 183.756 234.461 181.268 234.461Z" fill="#263238"/>
<path d="M174.531 228.969C174.531 228.969 172.595 267.889 164.211 274.569H173.179C173.179 274.569 181.179 261.313 181.763 228.969H174.531Z" fill="#263238"/>
<path d="M181.744 212.752L183.288 211.952C183.578 211.804 183.899 211.727 184.224 211.727C184.55 211.727 184.87 211.804 185.16 211.952L187.928 213.312C188.473 213.58 188.946 213.975 189.306 214.463C189.667 214.952 189.905 215.52 190 216.12L190.128 216.88C187.656 218.432 183.848 218.288 183.848 218.288L182.752 218.376C182.529 218.399 182.303 218.378 182.088 218.313C181.872 218.248 181.672 218.141 181.499 217.998C181.325 217.855 181.182 217.679 181.077 217.48C180.972 217.281 180.908 217.064 180.888 216.84L180.696 214.68C180.66 214.291 180.74 213.9 180.926 213.556C181.113 213.213 181.398 212.933 181.744 212.752Z" fill="#B97964"/>
<path opacity="0.2" d="M181.744 212.752L183.288 211.952C183.578 211.804 183.899 211.727 184.224 211.727C184.55 211.727 184.87 211.804 185.16 211.952L187.928 213.312C188.473 213.58 188.946 213.975 189.306 214.463C189.667 214.952 189.905 215.52 190 216.12L190.128 216.88C187.656 218.432 183.848 218.288 183.848 218.288L182.752 218.376C182.529 218.399 182.303 218.378 182.088 218.313C181.872 218.248 181.672 218.141 181.499 217.998C181.325 217.855 181.182 217.679 181.077 217.48C180.972 217.281 180.908 217.064 180.888 216.84L180.696 214.68C180.66 214.291 180.74 213.9 180.926 213.556C181.113 213.213 181.398 212.933 181.744 212.752Z" fill="black"/>
<path d="M170.405 214.659L164.805 221.739H159.477L160.173 211.859C164.205 212.635 170.405 214.659 170.405 214.659Z" fill="#43A7FF"/>
<path opacity="0.2" d="M164.335 221.736H159.727L162.591 214.656C162.591 214.656 164.231 217.144 164.335 221.736Z" fill="black"/>
<path d="M155.878 247.617L132.43 245.441C133.166 242.945 133.814 240.497 134.358 238.137C135.046 235.249 135.59 232.481 136.022 229.897C136.454 227.313 136.822 224.913 137.078 222.737L137.15 222.121C137.15 221.777 137.23 221.441 137.262 221.121C137.494 219.017 137.638 217.185 137.734 215.673C137.934 212.721 137.934 211.017 137.934 211.017C145.968 209.479 154.258 209.971 162.054 212.449C165.542 222.273 155.878 247.617 155.878 247.617Z" fill="#43A7FF"/>
<path d="M155.797 214.016C155.44 214.754 154.896 215.385 154.218 215.845C153.54 216.306 152.753 216.579 151.935 216.637C151.118 216.695 150.3 216.537 149.563 216.178C148.827 215.819 148.198 215.272 147.741 214.592L146.725 213.08L145.477 211.2C147.573 209.96 148.397 205.992 148.677 202.584C148.765 201.512 148.797 200.504 148.797 199.648L154.061 206.848C153.692 207.611 153.423 208.418 153.261 209.248C153.194 209.591 153.167 209.94 153.181 210.288C153.189 211.688 153.885 212.984 155.797 214.016Z" fill="#B97964"/>
<path opacity="0.2" d="M154.045 206.888C153.676 207.651 153.407 208.457 153.245 209.288C151.861 211.064 149.709 212.944 146.741 213.064L145.477 211.2C147.573 209.96 148.397 205.992 148.677 202.584C148.765 201.512 148.797 200.504 148.797 199.648L154.045 206.888Z" fill="black"/>
<path d="M141.396 194.867C141.396 194.867 138.796 193.891 139.564 192.091C140.332 190.291 141.26 190.307 141.26 190.307C140.867 189.571 140.653 188.753 140.637 187.918C140.62 187.084 140.801 186.258 141.164 185.507C142.452 183.107 145.3 184.083 145.3 184.083C145.311 183.329 145.579 182.601 146.058 182.02C146.538 181.438 147.202 181.037 147.94 180.883C148.693 180.758 149.466 180.883 150.142 181.238C150.818 181.594 151.359 182.16 151.684 182.851C151.684 182.851 153.476 180.523 156.1 181.163C158.724 181.803 159.252 185.459 159.252 185.459C159.968 185.225 160.748 185.277 161.427 185.603C162.107 185.93 162.634 186.505 162.9 187.211C163.257 187.947 163.406 188.767 163.331 189.582C163.256 190.397 162.961 191.176 162.476 191.835C162.476 191.835 164.148 191.035 164.7 193.731C165.252 196.427 162.436 198.795 162.436 198.795C162.436 198.795 163.956 198.979 163.172 200.971C162.388 202.963 159.916 202.995 159.916 202.995C159.916 202.995 160.876 203.483 159.06 205.123C157.244 206.763 151.396 204.419 151.396 204.419L141.396 194.867Z" fill="#263238"/>
<path d="M148.546 190.596C142.946 190.884 141.346 193.972 141.21 199.756C141.074 206.956 142.938 212.004 149.842 210.1C159.202 207.516 157.826 190.108 148.546 190.596Z" fill="#B97964"/>
<path d="M144.801 199.25C144.398 200.107 143.893 200.913 143.297 201.65C143.473 201.873 143.708 202.043 143.974 202.142C144.241 202.241 144.53 202.264 144.809 202.21L144.801 199.25Z" fill="#A24E3F"/>
<path d="M148.204 198.614C148.204 199.078 148.476 199.414 148.78 199.414C149.084 199.414 149.324 199.03 149.316 198.566C149.308 198.102 149.044 197.766 148.732 197.766C148.42 197.766 148.188 198.158 148.204 198.614Z" fill="#263238"/>
<path d="M148.86 197.79L147.852 197.422C147.852 197.422 148.372 198.254 148.86 197.79Z" fill="#263238"/>
<path d="M142.485 198.684C142.485 199.148 142.757 199.484 143.069 199.484C143.381 199.484 143.613 199.1 143.597 198.636C143.581 198.172 143.325 197.836 143.021 197.836C142.717 197.836 142.477 198.228 142.485 198.684Z" fill="#263238"/>
<path d="M143.149 197.852L142.133 197.492C142.133 197.492 142.661 198.316 143.149 197.852Z" fill="#263238"/>
<path d="M150.527 195.703C150.494 195.704 150.46 195.697 150.43 195.683C150.4 195.669 150.373 195.649 150.351 195.623C150.049 195.354 149.69 195.156 149.301 195.045C148.911 194.934 148.502 194.913 148.103 194.983C148.072 194.989 148.04 194.989 148.009 194.982C147.979 194.976 147.949 194.963 147.923 194.945C147.897 194.927 147.875 194.905 147.858 194.878C147.841 194.852 147.829 194.822 147.823 194.791C147.814 194.73 147.828 194.667 147.864 194.617C147.9 194.566 147.954 194.531 148.015 194.519C148.494 194.432 148.988 194.458 149.455 194.597C149.922 194.736 150.35 194.984 150.703 195.319C150.747 195.364 150.772 195.424 150.772 195.487C150.772 195.55 150.747 195.61 150.703 195.655C150.653 195.693 150.59 195.71 150.527 195.703Z" fill="#263238"/>
<path d="M141.779 195.54C141.743 195.54 141.707 195.532 141.674 195.517C141.64 195.502 141.611 195.48 141.587 195.452C141.549 195.401 141.532 195.337 141.541 195.274C141.55 195.211 141.584 195.154 141.635 195.116C141.963 194.84 142.35 194.642 142.765 194.535C143.18 194.429 143.614 194.417 144.035 194.5C144.066 194.509 144.094 194.524 144.119 194.545C144.144 194.565 144.164 194.59 144.179 194.619C144.194 194.647 144.203 194.678 144.206 194.71C144.209 194.742 144.205 194.774 144.195 194.804C144.175 194.863 144.133 194.911 144.078 194.94C144.022 194.968 143.958 194.974 143.899 194.956C143.547 194.893 143.186 194.909 142.842 195.003C142.497 195.097 142.178 195.267 141.907 195.5C141.869 195.525 141.825 195.539 141.779 195.54Z" fill="#263238"/>
<path d="M155.145 199.691C155.145 199.691 152.289 195.235 152.505 191.691C152.505 191.691 141.193 187.747 141.233 199.011C141.233 199.011 139.633 189.091 149.233 188.363C158.833 187.635 159.521 201.691 154.777 206.139C154.769 206.123 156.913 202.475 155.145 199.691Z" fill="#263238"/>
<path d="M154.297 200.924C154.304 200.601 154.375 200.282 154.506 199.987C154.637 199.691 154.824 199.424 155.058 199.201C155.293 198.978 155.568 198.803 155.87 198.687C156.172 198.571 156.494 198.516 156.817 198.524C158.561 198.628 159.569 202.14 155.305 203.22C154.697 203.388 154.313 202.804 154.297 200.924Z" fill="#B97964"/>
<path d="M146.153 205.467C145.993 205.478 145.832 205.478 145.673 205.467C145.642 205.461 145.612 205.449 145.586 205.432C145.559 205.415 145.536 205.393 145.519 205.367C145.501 205.341 145.488 205.311 145.482 205.281C145.475 205.25 145.475 205.218 145.481 205.187C145.485 205.156 145.496 205.127 145.513 205.1C145.529 205.074 145.551 205.051 145.576 205.033C145.601 205.015 145.63 205.003 145.66 204.996C145.691 204.99 145.722 204.989 145.753 204.995C146.355 205.101 146.976 205.001 147.514 204.71C148.053 204.42 148.478 203.956 148.721 203.395C148.732 203.365 148.749 203.339 148.771 203.316C148.793 203.293 148.82 203.275 148.848 203.262C148.877 203.25 148.909 203.243 148.94 203.242C148.972 203.242 149.003 203.247 149.033 203.259C149.062 203.27 149.089 203.288 149.112 203.31C149.134 203.332 149.153 203.358 149.165 203.387C149.178 203.416 149.185 203.447 149.185 203.478C149.186 203.51 149.18 203.541 149.169 203.571C148.923 204.16 148.502 204.658 147.962 204.998C147.422 205.337 146.79 205.501 146.153 205.467Z" fill="#263238"/>
<path d="M157.206 197.654C155.87 190.718 145.614 184.894 141.766 192.958C142.411 190.937 143.659 189.161 145.342 187.87C145.342 187.87 155.742 184.902 157.574 196.75L157.206 197.654Z" fill="#43A7FF"/>
<path d="M151.739 331.2C147.739 331.2 147.203 331.136 144.947 331.056C143.019 330.992 142.547 331.232 141.011 331.2C139.715 331.2 139.763 329.928 140.163 328.504C140.363 327.784 140.667 326.272 140.963 325.12L146.835 324.688C147.635 326.288 149.523 328.52 151.779 328.824C154.035 329.128 153.331 331.2 151.739 331.2Z" fill="#263238"/>
<path d="M132.804 244.945C132.804 244.945 124.804 256.841 129.14 266.617C133.476 276.393 155.404 271.977 155.404 271.977L140.956 325.145L147.868 326.289C147.868 326.289 172.372 273.593 172.996 264.609C173.62 255.625 147.164 249.857 147.164 249.857L132.804 244.945Z" fill="#43A7FF"/>
<path opacity="0.3" d="M132.804 244.945C132.804 244.945 124.804 256.841 129.14 266.617C133.476 276.393 155.404 271.977 155.404 271.977L140.956 325.145L147.868 326.289C147.868 326.289 172.372 273.593 172.996 264.609C173.62 255.625 147.164 249.857 147.164 249.857L132.804 244.945Z" fill="white"/>
<path opacity="0.2" d="M157.204 217.604C157.204 217.604 146.004 225.492 137.148 222.1C137.148 221.756 137.228 221.42 137.26 221.1C137.492 218.996 137.636 217.164 137.732 215.652C140.602 214.341 143.582 213.284 146.636 212.492C149.781 214.887 153.375 216.626 157.204 217.604Z" fill="black"/>
<path d="M141.607 211.038C146.535 213.438 151.623 216.422 156.991 217.518C160.079 217.318 163.535 216.062 166.639 215.214L175.943 212.398C176.342 212.272 176.773 212.3 177.152 212.475C177.531 212.65 177.832 212.96 177.995 213.345C178.158 213.73 178.171 214.161 178.033 214.556C177.895 214.95 177.615 215.279 177.247 215.478C174.343 217.078 171.415 218.55 168.383 219.894C164.639 221.43 161.183 223.222 156.959 223.606C155.443 223.588 153.937 223.367 152.479 222.95C147.561 221.507 142.826 219.502 138.367 216.974C137.658 216.509 137.148 215.796 136.94 214.974C136.731 214.152 136.839 213.282 137.241 212.536C137.643 211.79 138.311 211.222 139.112 210.944C139.913 210.667 140.79 210.7 141.567 211.038H141.607Z" fill="#B97864"/>
<path d="M138.956 210.143C134.644 211.167 134.5 218.567 138.46 222.039L148.06 213.935C148.06 213.935 144.068 208.927 138.956 210.143Z" fill="#43A7FF"/>
<path d="M176.187 212.433L181.507 212.305L179.107 217.689C179.107 217.689 174.307 217.521 174.539 215.073L176.187 212.433Z" fill="#B97964"/>
<path d="M186.078 214.937L182.43 218.865L179.094 217.689L181.51 212.305L186.078 214.937Z" fill="#B97964"/>
<path d="M257.504 277.211C261.224 284.907 264.808 292.603 267.232 300.843C268.344 306.443 268.552 312.139 268.968 317.699C269.256 322.299 269.424 326.891 269.488 331.507L265.368 331.939C264.064 325.451 262.84 318.211 261.704 311.667C261.16 308.707 260.744 305.795 260 302.947C257.168 295.611 253.24 288.059 249.984 280.843L257.504 277.211Z" fill="#DC897C"/>
<path d="M263.647 287.28L257.127 290.4L253.079 292.36L250.623 286.456L248.055 280.272L250.223 269C256.879 271.912 263.647 287.28 263.647 287.28Z" fill="#43A7FF"/>
<path opacity="0.2" d="M257.129 290.401L253.081 292.361L250.625 286.457C251.129 283.113 251.553 280.273 251.553 280.273C251.553 280.273 256.289 284.521 257.129 290.401Z" fill="black"/>
<path d="M237.602 248.561C237.674 249.041 237.986 249.361 238.298 249.361C238.61 249.361 238.802 248.889 238.73 248.409C238.658 247.929 238.338 247.609 238.026 247.609C237.714 247.609 237.482 248.089 237.602 248.561Z" fill="#263238"/>
<path d="M237.898 249.398C238.692 250.768 239.669 252.022 240.802 253.126C240.515 253.413 240.168 253.632 239.787 253.771C239.406 253.909 238.999 253.962 238.594 253.926L237.898 249.398Z" fill="#DE5753"/>
<path d="M235.406 246.186C235.334 246.183 235.266 246.155 235.214 246.106C235.162 246.052 235.133 245.98 235.133 245.906C235.133 245.831 235.162 245.759 235.214 245.706C235.527 245.384 235.913 245.144 236.339 245.005C236.766 244.865 237.219 244.831 237.662 244.906C237.698 244.913 237.733 244.928 237.763 244.949C237.794 244.97 237.82 244.997 237.84 245.028C237.86 245.06 237.874 245.095 237.88 245.131C237.887 245.168 237.886 245.205 237.878 245.242C237.87 245.278 237.855 245.313 237.834 245.343C237.813 245.374 237.786 245.4 237.755 245.42C237.724 245.44 237.689 245.454 237.652 245.46C237.615 245.467 237.578 245.466 237.542 245.458C237.19 245.407 236.831 245.442 236.496 245.559C236.16 245.676 235.858 245.872 235.614 246.13C235.584 246.152 235.551 246.169 235.515 246.178C235.479 246.188 235.442 246.19 235.406 246.186Z" fill="#263238"/>
<path d="M239.09 255.791C238.937 257.722 238.113 259.539 236.762 260.927C235.869 261.844 234.773 262.537 233.562 262.951C232.403 263.353 231.162 263.461 229.951 263.264C228.74 263.067 227.597 262.572 226.626 261.823C223.202 259.279 222.754 255.815 221.49 250.015C221.179 248.67 221.216 247.269 221.599 245.943C221.982 244.617 222.698 243.411 223.678 242.439C224.659 241.468 225.871 240.763 227.2 240.392C228.53 240.021 229.932 239.996 231.274 240.319C237.386 241.767 239.53 250.335 239.09 255.791Z" fill="#E4897B"/>
<path d="M223.691 259.483C226.091 260.995 235.163 256.747 233.667 249.603C233.667 249.603 237.243 245.691 237.067 241.187C236.891 236.683 233.867 234.787 230.571 235.635C227.643 236.347 227.651 237.939 227.651 237.939C227.651 237.939 213.923 238.907 216.579 244.595C210.739 250.403 220.739 257.603 223.691 259.483Z" fill="#263238"/>
<path d="M231.205 250.713C231.529 252.154 232.32 253.447 233.453 254.393C234.949 255.625 236.165 254.537 236.141 252.793C236.141 251.193 235.341 248.657 233.605 248.105C231.869 247.553 230.869 248.977 231.205 250.713Z" fill="#E4897B"/>
<path opacity="0.2" d="M238.675 257.812C238.275 258.981 237.622 260.046 236.763 260.932C235.87 261.849 234.773 262.543 233.563 262.956C232.749 262.545 231.968 262.071 231.227 261.541L232.443 258.556C232.443 258.556 236.171 260.38 238.675 257.812Z" fill="black"/>
<path d="M225.641 266.8L224.617 259.784C224.617 259.784 229.185 256.584 233.969 258.736L241.169 267.416L225.641 266.8Z" fill="#E4897B"/>
<path d="M242.002 266.554L240.33 264.05C240.33 264.05 228.202 259.562 222.914 265.314C222.914 265.314 234.746 271.57 242.002 266.554Z" fill="#43A7FF"/>
<path opacity="0.2" d="M242.002 266.554L240.33 264.05C240.33 264.05 228.202 259.562 222.914 265.314C222.914 265.314 234.746 271.57 242.002 266.554Z" fill="black"/>
<path d="M195.435 334.578L190.867 331.634L192.619 329.018L197.379 321.914L201.955 324.858L196.691 332.706L195.435 334.578Z" fill="#E4897B"/>
<path d="M191.201 331.259L197.601 331.195C197.704 331.198 197.805 331.234 197.886 331.299C197.967 331.364 198.024 331.454 198.049 331.555L199.121 336.203C199.16 336.403 199.121 336.611 199.013 336.783C198.904 336.956 198.734 337.08 198.537 337.131H198.369C196.305 337.131 194.809 337.003 192.225 337.027C190.625 337.027 185.825 337.259 183.633 337.275C181.441 337.291 181.121 335.131 182.033 334.923C186.033 334.003 189.089 332.755 190.369 331.579C190.597 331.375 190.893 331.261 191.201 331.259Z" fill="#263238"/>
<path d="M192.438 327.247L200.806 329.503L246.23 295.039L222.926 289.935C221.261 289.579 219.528 289.739 217.956 290.392C216.384 291.045 215.048 292.161 214.126 293.591L192.438 327.247Z" fill="#263238"/>
<path opacity="0.2" d="M192.438 327.247L200.806 329.503L246.23 295.039L222.926 289.935C221.261 289.579 219.528 289.739 217.956 290.392C216.384 291.045 215.048 292.161 214.126 293.591L192.438 327.247Z" fill="black"/>
<path d="M167.603 334.744L162.883 332.048L164.499 329.344L168.875 322L173.595 324.696L168.755 332.808L167.603 334.744Z" fill="#E4897B"/>
<path d="M163.066 331.149H169.466C169.57 331.15 169.671 331.186 169.753 331.251C169.834 331.316 169.891 331.407 169.914 331.509L170.946 336.173C170.982 336.374 170.941 336.581 170.829 336.752C170.717 336.923 170.545 337.045 170.346 337.093H170.178C168.122 337.093 166.618 336.933 164.034 336.933C162.434 336.933 157.634 337.101 155.442 337.101C153.25 337.101 152.954 334.925 153.842 334.701C157.842 333.821 160.922 332.605 162.218 331.445C162.456 331.247 162.757 331.142 163.066 331.149Z" fill="#263238"/>
<path d="M257.185 313.137L225.425 313.217C224.625 310.401 223.617 300.601 220.513 288.481C219.673 285.193 218.673 281.737 217.497 278.193C216.521 274.988 215.334 271.85 213.945 268.801C216.819 267.064 219.977 265.848 223.273 265.209C237.329 262.809 250.225 269.001 250.225 269.001C250.225 269.001 255.801 284.521 257.185 313.137Z" fill="#43A7FF"/>
<path opacity="0.2" d="M220.516 288.481C219.676 285.193 218.676 281.737 217.5 278.193L219.716 277.297C219.716 277.297 223.204 285.161 220.516 288.481Z" fill="black"/>
<path d="M206.618 293.919L210.306 295.663L211.715 289.455C211.715 289.455 208.77 288.423 206.562 289.927L206.618 293.919Z" fill="#E4897B"/>
<path d="M215.593 297.773L215.761 292.117L211.713 289.461L210.305 295.669L215.593 297.773Z" fill="#E4897B"/>
<path d="M218.112 278.52C211.976 281.84 204.968 284.92 199.632 289.264C199.512 289.368 199.552 289.416 199.688 288.952C199.713 288.656 199.675 288.359 199.576 288.08C199.487 287.776 199.291 287.514 199.024 287.344C198.92 287.304 198.984 287.4 199.128 287.496C199.327 287.62 199.539 287.725 199.76 287.808C202.224 288.744 205.64 289.056 208.4 289.408L208.816 293.528C207.944 293.776 207.128 293.944 206.272 294.104C203.072 294.656 199.752 295.048 196.384 293.936C194.936 293.501 193.715 292.519 192.979 291.199C192.243 289.879 192.049 288.324 192.44 286.864C194.088 281.016 209 273.72 214.472 271.008L218.112 278.528V278.52Z" fill="#DC897C"/>
<path d="M223.93 306.462L222.506 310.11C222.506 310.11 205.49 289.086 196.106 287.886C186.722 286.686 164.906 326.638 164.906 326.638L173.178 329.142L196.458 308.022C206.058 324.774 217.538 337.062 231.186 337.062H244.514C259.418 337.062 259.586 320.438 256.642 306.342L223.93 306.462Z" fill="#263238"/>
<path d="M213.944 268.805C208.608 270.757 202.336 276.677 202.336 276.677C202.336 276.677 207.616 285.829 208.144 285.477C208.672 285.125 219.504 282.021 219.504 282.021C219.504 282.021 221.712 279.157 220.016 274.309C219.575 272.94 218.782 271.711 217.716 270.745C216.65 269.779 215.35 269.11 213.944 268.805Z" fill="#43A7FF"/>
<path d="M267.531 328.75L273.331 329.038L270.267 334.702C270.267 334.702 265.107 334.134 265.515 331.502L267.531 328.75Z" fill="#E4897B"/>
<path d="M278.082 332.263L273.802 336.239L270.266 334.695L273.33 329.031L278.082 332.263Z" fill="#E4897B"/>
<path d="M87.7804 271.371C91.6684 275.291 95.5004 279.683 100.156 282.651C100.156 282.651 100.444 282.803 100.468 282.827C100.343 282.78 100.21 282.758 100.076 282.763C99.9564 282.763 100.148 282.763 100.356 282.763C105.668 281.259 110.604 277.795 115.492 275.131C115.871 274.903 116.32 274.822 116.754 274.904C117.188 274.985 117.577 275.224 117.847 275.573C118.116 275.923 118.248 276.36 118.217 276.8C118.185 277.241 117.993 277.655 117.676 277.963C113.868 281.491 103.604 290.923 98.2124 288.947C94.9164 287.739 92.1644 285.467 89.5724 283.283C87.0405 281.088 84.6542 278.731 82.4284 276.227C79.3804 272.603 84.4684 267.987 87.7804 271.379V271.371Z" fill="#E9B376"/>
<path d="M94.4638 276.909C93.7838 281.997 89.6638 286.989 89.6638 286.989L88.7998 286.397L84.5918 283.605C84.5918 283.605 84.5118 283.365 84.3918 282.941C84.2718 282.517 84.1198 282.021 83.9358 281.341C82.9678 277.949 81.2238 271.605 81.0078 268.973C86.2318 268.853 88.5838 271.341 94.4638 276.909Z" fill="#43A7FF"/>
<path opacity="0.7" d="M94.4638 276.909C93.7838 281.997 89.6638 286.989 89.6638 286.989L88.7998 286.397L84.5918 283.605C84.5918 283.605 84.5118 283.365 84.3918 282.941C84.2718 282.517 84.1198 282.021 83.9358 281.341C82.9678 277.949 81.2238 271.605 81.0078 268.973C86.2318 268.853 88.5838 271.341 94.4638 276.909Z" fill="white"/>
<path opacity="0.2" d="M88.8064 286.397L84.5984 283.605C84.5984 283.605 84.5184 283.365 84.3984 282.941C84.5545 281.653 84.7896 280.376 85.1024 279.117C86.2111 279.989 87.1166 281.092 87.7563 282.349C88.3959 283.606 88.7542 284.988 88.8064 286.397Z" fill="black"/>
<path d="M83.6834 302L87.2754 308.288C96.8754 306.048 127.739 301.344 131.523 311.928C136.235 325.072 102.211 335.56 83.3874 336.2C64.5634 336.84 48.1394 332.36 60.0434 304.912L83.6834 302Z" fill="#263238"/>
<path opacity="0.2" d="M83.6834 302L87.2754 308.288C96.8754 306.048 127.739 301.344 131.523 311.928C136.235 325.072 102.211 335.56 83.3874 336.2C64.5634 336.84 48.1394 332.36 60.0434 304.912L83.6834 302Z" fill="black"/>
<path d="M126.075 330.511C126.054 330.525 126.029 330.532 126.003 330.532C125.978 330.532 125.953 330.525 125.931 330.511C125.92 330.493 125.914 330.473 125.914 330.451C125.914 330.43 125.92 330.409 125.931 330.391C125.995 330.183 126.619 328.375 127.251 328.183C127.318 328.167 127.387 328.168 127.453 328.186C127.519 328.205 127.579 328.239 127.627 328.287C127.714 328.361 127.781 328.455 127.82 328.562C127.859 328.668 127.87 328.783 127.851 328.895C127.748 329.235 127.541 329.535 127.259 329.751C126.892 330.045 126.495 330.299 126.075 330.511ZM126.235 330.167C126.823 329.912 127.298 329.451 127.571 328.871C127.589 328.796 127.584 328.717 127.557 328.644C127.53 328.572 127.482 328.509 127.419 328.463C127.402 328.441 127.378 328.425 127.351 328.416C127.324 328.408 127.295 328.407 127.267 328.415C127.214 328.435 127.165 328.465 127.123 328.503C126.729 328.999 126.428 329.563 126.235 330.167Z" fill="#263238"/>
<path d="M126.034 330.532C126.019 330.545 125.999 330.552 125.978 330.552C125.958 330.552 125.938 330.545 125.922 330.532C125.858 330.484 124.994 329.388 125.122 328.644C125.138 328.551 125.172 328.463 125.223 328.385C125.274 328.306 125.34 328.239 125.418 328.188C125.486 328.126 125.572 328.089 125.662 328.08C125.753 328.071 125.844 328.092 125.922 328.14C126.378 328.468 126.322 329.932 126.098 330.492V330.548L126.034 330.532ZM125.546 328.388C125.466 328.452 125.412 328.543 125.394 328.644C125.418 329.198 125.623 329.729 125.978 330.156C126.114 329.532 126.074 328.5 125.802 328.316C125.802 328.316 125.722 328.252 125.586 328.316V328.356L125.546 328.388Z" fill="#263238"/>
<path d="M92.9801 333.596C92.9924 333.576 93.0103 333.56 93.0317 333.55C93.053 333.54 93.0768 333.537 93.1001 333.54C93.1216 333.542 93.142 333.551 93.158 333.565C93.1739 333.58 93.1846 333.599 93.1881 333.62C93.2361 333.836 93.5641 335.724 93.1081 336.196C93.0567 336.242 92.9942 336.274 92.9268 336.288C92.8594 336.302 92.7895 336.298 92.7241 336.276C92.6115 336.258 92.5062 336.208 92.42 336.134C92.3338 336.059 92.2702 335.961 92.2361 335.852C92.157 335.509 92.1936 335.149 92.3401 334.828C92.51 334.397 92.7245 333.984 92.9801 333.596ZM92.9801 333.98C92.5906 334.488 92.3949 335.118 92.4281 335.756C92.4501 335.833 92.4946 335.902 92.5559 335.953C92.6172 336.004 92.6925 336.036 92.7721 336.044C92.7945 336.06 92.821 336.068 92.8481 336.068C92.8752 336.068 92.9016 336.06 92.9241 336.044C92.9601 336.002 92.9873 335.953 93.0041 335.9C93.124 335.266 93.124 334.615 93.0041 333.98H92.9801Z" fill="#263238"/>
<path d="M105.3 324.07L97.5559 326.83L93.8359 328.158L94.7879 332.23L98.3879 331.462L107.188 329.582L105.3 324.07Z" fill="#EBB376"/>
<path d="M95.8032 332.417L95.1472 327.617C95.1384 327.554 95.1171 327.493 95.0844 327.438C95.0518 327.383 95.0084 327.335 94.957 327.297C94.9056 327.259 94.8471 327.232 94.785 327.217C94.7228 327.202 94.6583 327.199 94.5952 327.209L92.1952 327.609C92.1952 327.609 88.9952 327.905 88.3312 328.737C86.4592 331.137 87.6272 341.809 88.8752 342.185C89.3312 342.321 89.8112 341.697 90.0112 341.265C90.6432 339.889 91.7552 336.297 92.2992 335.161C92.9232 333.825 94.6992 333.177 95.4352 332.945C95.551 332.918 95.6528 332.85 95.7208 332.752C95.7888 332.655 95.8181 332.535 95.8032 332.417Z" fill="#43A7FF"/>
<path d="M92.9929 333.597C93.0105 333.585 93.0315 333.578 93.0529 333.578C93.0744 333.578 93.0954 333.585 93.1129 333.597C93.1849 333.597 94.4809 334.157 94.7129 334.869C94.7411 334.959 94.7514 335.053 94.7432 335.146C94.7349 335.239 94.7083 335.33 94.6649 335.413C94.6394 335.502 94.5841 335.579 94.5083 335.631C94.4325 335.684 94.3408 335.708 94.2489 335.701C93.6969 335.637 93.0329 334.325 92.9609 333.733V333.597C92.9715 333.595 92.9824 333.595 92.9929 333.597ZM94.4649 335.237C94.4968 335.138 94.4968 335.032 94.4649 334.933C94.3129 334.477 93.5929 334.077 93.2249 333.893C93.4009 334.509 93.9369 335.389 94.2649 335.421C94.2649 335.421 94.3609 335.421 94.4329 335.285V335.237H94.4649Z" fill="#263238"/>
<path opacity="0.2" d="M105.299 324.07L97.5547 326.83L98.3867 331.462L107.187 329.582L105.299 324.07Z" fill="black"/>
<path d="M99.7607 332.16L101.985 332.32L100.497 324.656L97.9688 326.048L99.7607 332.16Z" fill="#43A7FF"/>
<path opacity="0.6" d="M99.7607 332.16L101.985 332.32L100.497 324.656L97.9688 326.048L99.7607 332.16Z" fill="white"/>
<path opacity="0.2" d="M67.4531 302.398L79.0531 315.262C79.0531 315.262 91.8531 314.974 107.453 322.59C107.453 322.59 124.165 315.686 125.701 309.95C127.717 302.438 87.3011 308.31 87.3011 308.31L67.4531 302.398Z" fill="black"/>
<path d="M83.5626 307.543L59.9066 304.799C60.3597 302.357 60.6271 299.883 60.7066 297.399C60.8013 293.861 60.6624 290.32 60.2906 286.799C59.9626 283.431 59.4906 279.559 58.6906 275.015C58.5305 274.203 58.5543 273.365 58.7602 272.563C58.9661 271.76 59.3488 271.014 59.8804 270.379C60.4119 269.744 61.0789 269.236 61.8323 268.892C62.5857 268.548 63.4065 268.377 64.2346 268.391C65.1866 268.391 66.1866 268.439 67.2106 268.503C70.8332 268.666 74.4396 269.085 78.0026 269.759C79.1546 269.991 80.3466 270.279 81.4906 270.559C85.5946 271.623 88.1386 276.791 87.7866 280.959C87.6481 284.199 87.29 287.425 86.7146 290.615C85.9866 295.319 85.1306 299.911 83.5626 307.543Z" fill="#43A7FF"/>
<path opacity="0.7" d="M83.5626 307.543L59.9066 304.799C60.3597 302.357 60.6271 299.883 60.7066 297.399C60.8013 293.861 60.6624 290.32 60.2906 286.799C59.9626 283.431 59.4906 279.559 58.6906 275.015C58.5305 274.203 58.5543 273.365 58.7602 272.563C58.9661 271.76 59.3488 271.014 59.8804 270.379C60.4119 269.744 61.0789 269.236 61.8323 268.892C62.5857 268.548 63.4065 268.377 64.2346 268.391C65.1866 268.391 66.1866 268.439 67.2106 268.503C70.8332 268.666 74.4396 269.085 78.0026 269.759C79.1546 269.991 80.3466 270.279 81.4906 270.559C85.5946 271.623 88.1386 276.791 87.7866 280.959C87.6481 284.199 87.29 287.425 86.7146 290.615C85.9866 295.319 85.1306 299.911 83.5626 307.543Z" fill="white"/>
<path opacity="0.2" d="M60.7207 297.406C60.8155 293.868 60.6765 290.327 60.3047 286.806C63.2647 283.31 66.0647 280.406 66.0647 280.406C66.0647 280.406 70.7047 292.35 60.7207 297.406Z" fill="black"/>
<path d="M64.4582 279.11C64.7302 284.174 64.6822 292.054 65.6022 296.894L65.3622 296.302C65.2022 296.07 65.2982 296.302 65.4662 296.43C65.6826 296.644 65.9124 296.845 66.1542 297.03C69.3542 299.43 73.1942 301.278 76.8022 303.19L81.3542 305.534C81.7488 305.732 82.0569 306.068 82.22 306.478C82.383 306.888 82.3896 307.344 82.2385 307.759C82.0874 308.174 81.7891 308.519 81.4004 308.728C81.0117 308.937 80.5596 308.996 80.1302 308.894C78.3942 308.478 76.7302 307.982 75.0422 307.47C70.2422 305.87 65.3142 304.334 61.1862 301.206C60.38 300.58 59.7535 299.752 59.3702 298.806C57.5222 292.246 57.3782 285.91 57.2422 279.222C57.4102 274.558 64.1622 274.47 64.4422 279.134L64.4582 279.11Z" fill="#E9B376"/>
<path d="M87.7412 305.244L86.3013 304.196C86.0345 304.002 85.7252 303.876 85.3994 303.827C85.0736 303.779 84.7409 303.809 84.4292 303.916L81.4693 304.908C80.8858 305.105 80.3579 305.439 79.9293 305.881C79.5008 306.324 79.184 306.862 79.0052 307.452L78.7812 308.196C81.0533 310.084 84.9013 310.46 84.9013 310.46L85.9813 310.684C86.2025 310.737 86.432 310.746 86.6567 310.71C86.8814 310.674 87.0967 310.594 87.2902 310.474C87.4837 310.354 87.6514 310.197 87.7838 310.012C87.9161 309.827 88.0104 309.617 88.0612 309.396L88.5412 307.252C88.6184 306.875 88.5838 306.485 88.4416 306.128C88.2994 305.771 88.056 305.464 87.7412 305.244Z" fill="#EBB376"/>
<path d="M62.298 268.719C57.674 270.375 56.346 274.407 56.25 282.815C58.65 284.999 65.938 285.119 65.938 285.119C65.938 285.119 67.202 272.367 62.298 268.719Z" fill="#43A7FF"/>
<path d="M118.317 309.875V311.779C118.317 312.267 117.741 312.467 117.253 312.467H79.205C78.709 312.467 78.125 312.267 78.125 311.779V309.875H118.317Z" fill="#263238"/>
<path opacity="0.4" d="M118.317 309.875V311.779C118.317 312.267 117.741 312.467 117.253 312.467H79.205C78.709 312.467 78.125 312.267 78.125 311.779V309.875H118.317Z" fill="white"/>
<path opacity="0.2" d="M118.319 309.875V311.779C118.319 312.267 117.742 312.467 117.254 312.467H92.1345C91.6465 312.467 91.0625 312.267 91.0625 311.779V309.875H118.319Z" fill="black"/>
<path d="M124.695 290.082L120.159 310.65C120.075 310.979 119.886 311.271 119.62 311.482C119.354 311.693 119.026 311.811 118.687 311.818H93.887C93.7326 311.814 93.5814 311.774 93.445 311.702C93.3086 311.629 93.1909 311.526 93.101 311.401C93.0111 311.275 92.9515 311.131 92.9269 310.978C92.9022 310.826 92.9132 310.67 92.959 310.522L97.487 290.114C97.5795 289.803 97.7763 289.533 98.0443 289.349C98.3123 289.166 98.6352 289.08 98.959 289.106H123.759C124.423 289.106 124.807 289.41 124.695 290.082Z" fill="#263238"/>
<path opacity="0.4" d="M124.688 290.082L120.152 310.65C120.068 310.979 119.878 311.271 119.613 311.482C119.347 311.693 119.019 311.811 118.68 311.818H94.7438C94.5893 311.814 94.438 311.774 94.3015 311.701C94.165 311.629 94.0469 311.526 93.9565 311.401C93.866 311.276 93.8055 311.131 93.7798 310.979C93.754 310.826 93.7636 310.67 93.8078 310.522L98.3438 290.114C98.4363 289.803 98.6331 289.533 98.9011 289.349C99.1691 289.166 99.492 289.08 99.8158 289.106H123.752C124.416 289.106 124.8 289.41 124.688 290.082Z" fill="white"/>
<path opacity="0.2" d="M112.478 300.536C112.399 301.37 112.027 302.149 111.428 302.735C110.829 303.321 110.042 303.675 109.206 303.736C107.822 303.736 106.998 302.304 107.398 300.536C107.798 298.768 109.166 297.4 110.518 297.336C110.126 299.096 110.974 300.536 112.35 300.536H112.478Z" fill="black"/>
<path d="M116.403 278.623L121.731 278.759L119.331 273.367C119.331 273.367 114.579 273.535 114.763 275.983L116.403 278.623Z" fill="#EBB376"/>
<path d="M126.296 276.131L122.648 272.195L119.312 273.363L121.729 278.755L126.296 276.131Z" fill="#EBB376"/>
<path d="M66.0469 268.445C65.5029 268.405 67.1669 275.086 75.2469 276.734C83.3269 278.382 82.7029 270.949 82.0709 269.085C82.0709 269.085 71.4469 268.797 66.0469 268.445Z" fill="#EBB376"/>
<path d="M68.2558 242.325C68.2558 242.325 72.8878 237.189 81.3598 239.837C89.8318 242.485 89.4718 257.605 85.1678 263.093C78.4273 262.856 71.6842 263.485 65.1038 264.965C65.1038 264.965 61.0238 253.997 63.0478 247.549C65.0718 241.101 68.2558 242.325 68.2558 242.325Z" fill="#263238"/>
<path d="M69.9672 257.406C70.5032 260.974 70.9192 267.438 68.3672 269.486C68.3672 269.486 71.6952 269.374 78.1512 274.478C80.4952 271.822 79.1112 270.726 79.1112 270.726C75.2952 269.358 75.5112 266.478 76.2872 263.846L69.9672 257.406Z" fill="#EBB376"/>
<path opacity="0.2" d="M72.5525 260.039L76.3205 263.847C76.1304 264.463 75.9939 265.095 75.9125 265.735C74.4485 265.351 72.4885 263.487 72.4005 261.911C72.3384 261.283 72.3899 260.649 72.5525 260.039Z" fill="black"/>
<path d="M67.8129 250.125C68.2129 255.829 68.2689 258.245 71.1409 261.325C75.4689 265.901 82.3409 264.525 83.5809 258.925C84.7409 253.869 83.8849 245.389 78.3489 242.885C77.1812 242.307 75.8803 242.051 74.5806 242.144C73.2809 242.236 72.0295 242.674 70.9556 243.412C69.8817 244.15 69.0243 245.161 68.4718 246.341C67.9193 247.521 67.6919 248.828 67.8129 250.125Z" fill="#EBB376"/>
<path d="M74.8367 251.879C74.8367 252.367 75.1007 252.759 75.4127 252.775C75.7247 252.791 75.9487 252.407 75.9407 251.927C75.9327 251.447 75.6687 251.047 75.3647 251.039C75.0607 251.031 74.8207 251.399 74.8367 251.879Z" fill="#263238"/>
<path d="M80.8047 251.942C80.8047 252.422 81.0767 252.822 81.3807 252.838C81.6847 252.854 81.9167 252.47 81.9087 251.99C81.9007 251.51 81.6367 251.11 81.3327 251.102C81.0287 251.094 80.8047 251.462 80.8047 251.942Z" fill="#263238"/>
<path d="M81.1719 251.116L82.2839 250.828C82.2839 250.828 81.7319 251.708 81.1719 251.116Z" fill="#263238"/>
<path d="M78.9922 252.922C79.4396 254.036 80.0255 255.09 80.7362 256.058C80.4966 256.221 80.2232 256.328 79.9365 256.371C79.6498 256.414 79.3571 256.392 79.0802 256.306L78.9922 252.922Z" fill="#D58745"/>
<path d="M73.8734 248.839C73.9094 248.845 73.9463 248.842 73.9811 248.831C74.0158 248.82 74.0475 248.801 74.0734 248.775C74.3231 248.544 74.6267 248.379 74.9564 248.295C75.2862 248.212 75.6316 248.212 75.9614 248.295C75.995 248.306 76.0305 248.31 76.0657 248.307C76.1008 248.303 76.1349 248.292 76.1657 248.275C76.1965 248.258 76.2234 248.234 76.2447 248.206C76.266 248.178 76.2812 248.146 76.2894 248.111C76.3093 248.037 76.2996 247.958 76.2623 247.891C76.225 247.824 76.163 247.774 76.0894 247.751C75.6719 247.639 75.2329 247.635 74.8132 247.739C74.3936 247.842 74.0069 248.05 73.6894 248.343C73.6381 248.396 73.6094 248.466 73.6094 248.539C73.6094 248.613 73.6381 248.683 73.6894 248.735C73.7354 248.792 73.8011 248.829 73.8734 248.839Z" fill="#263238"/>
<path d="M83.1205 248.888C83.1849 248.913 83.2561 248.913 83.3205 248.888C83.3515 248.868 83.3783 248.843 83.3993 248.813C83.4202 248.783 83.4348 248.749 83.4423 248.713C83.4498 248.677 83.4499 248.64 83.4427 248.604C83.4356 248.568 83.4212 248.534 83.4005 248.504C83.1807 248.109 82.8729 247.771 82.5011 247.514C82.1293 247.257 81.7035 247.09 81.2565 247.024C81.2209 247.022 81.1852 247.027 81.1517 247.039C81.1182 247.052 81.0877 247.071 81.0621 247.096C81.0365 247.121 81.0163 247.151 81.003 247.184C80.9896 247.217 80.9833 247.252 80.9845 247.288C80.9858 247.363 81.014 247.435 81.064 247.491C81.1139 247.546 81.1822 247.582 81.2565 247.592C81.6101 247.646 81.9464 247.781 82.2393 247.986C82.5321 248.192 82.7735 248.462 82.9445 248.776C82.965 248.805 82.9911 248.83 83.0214 248.849C83.0516 248.869 83.0853 248.882 83.1205 248.888Z" fill="#263238"/>
<path d="M75.2031 251.053L76.3151 250.773C76.3151 250.773 75.7871 251.645 75.2031 251.053Z" fill="#263238"/>
<path d="M68.9936 253.545C68.9936 253.545 73.3936 250.089 72.3936 244.681C72.3936 244.681 80.2656 241.569 83.3696 249.481C83.3696 249.481 84.0256 242.697 76.6256 241.369C69.2256 240.041 60.4656 250.073 68.8496 257.681L68.9936 253.545Z" fill="#263238"/>
<path d="M65.999 254.731C66.2844 255.26 66.6717 255.728 67.1385 256.107C67.6053 256.486 68.1425 256.769 68.719 256.939C70.215 257.347 70.887 255.875 70.407 254.355C69.967 252.987 68.663 251.155 67.207 251.387C65.751 251.619 65.255 253.379 65.999 254.731Z" fill="#EBB376"/>
<path d="M84.2367 252.841C84.2007 252.841 84.1657 252.829 84.1369 252.807C84.1081 252.786 84.087 252.755 84.0767 252.721C81.2527 242.777 71.9327 244.825 71.8367 244.841C71.8162 244.846 71.795 244.846 71.7743 244.843C71.7535 244.839 71.7337 244.832 71.7159 244.821C71.698 244.809 71.6826 244.795 71.6704 244.778C71.6582 244.761 71.6495 244.741 71.6447 244.721C71.64 244.7 71.6394 244.679 71.6428 244.658C71.6463 244.638 71.6538 244.618 71.665 244.6C71.6761 244.582 71.6906 244.567 71.7078 244.554C71.7249 244.542 71.7442 244.534 71.7647 244.529C71.8607 244.529 81.4847 242.393 84.3887 252.633C84.3948 252.653 84.3967 252.675 84.3943 252.696C84.392 252.717 84.3854 252.738 84.3749 252.756C84.3645 252.775 84.3504 252.791 84.3335 252.805C84.3167 252.818 84.2974 252.827 84.2767 252.833L84.2367 252.841Z" fill="#263238"/>
<path d="M79.3639 257.963C79.0847 258.617 78.8547 259.29 78.6759 259.979H78.2999C76.6119 259.795 75.8999 259.179 75.5959 258.499C75.4596 258.175 75.4021 257.824 75.4279 257.475C75.4402 257.276 75.4778 257.08 75.5399 256.891C76.5352 257.467 77.6431 257.821 78.7879 257.931C79.1399 257.947 79.3639 257.963 79.3639 257.963Z" fill="#263238"/>
<path d="M78.7897 257.899L78.5737 258.483C76.9737 258.315 75.8777 257.979 75.4297 257.443C75.442 257.245 75.4796 257.048 75.5417 256.859C76.537 257.435 77.6449 257.79 78.7897 257.899Z" fill="white"/>
<path d="M78.2978 259.949C76.6098 259.765 75.8978 259.149 75.5938 258.469C76.235 258.552 76.8573 258.744 77.4338 259.037C77.8092 259.244 78.1111 259.563 78.2978 259.949Z" fill="#DE5753"/>
<path d="M78.0259 284.62C78.0005 284.621 77.9751 284.617 77.9515 284.607C77.9279 284.598 77.9069 284.583 77.8899 284.564C73.6391 280.006 70.4339 274.576 68.498 268.652C68.4857 268.603 68.4931 268.551 68.5186 268.508C68.544 268.464 68.5854 268.433 68.6339 268.42C68.6576 268.414 68.6822 268.412 68.7063 268.416C68.7304 268.42 68.7536 268.428 68.7744 268.441C68.7952 268.453 68.8134 268.47 68.8277 268.49C68.842 268.51 68.8523 268.532 68.8579 268.556C70.7423 274.317 73.8414 279.607 77.9459 284.068C78.4259 282.468 80.4179 274.868 77.4179 269.044C77.4033 269 77.4046 268.953 77.4216 268.911C77.4386 268.868 77.4702 268.833 77.5107 268.812C77.5513 268.791 77.598 268.785 77.6426 268.795C77.6872 268.805 77.7267 268.831 77.754 268.868C81.186 275.532 78.2339 284.404 78.2019 284.492C78.1914 284.522 78.1735 284.55 78.1498 284.572C78.1261 284.595 78.0973 284.611 78.066 284.62H78.0259Z" fill="#263238"/>
<path d="M78.2776 284.285L78.8856 285.085C78.9402 285.153 78.9699 285.238 78.9699 285.325C78.9699 285.412 78.9402 285.497 78.8856 285.565L78.2696 286.365C78.2328 286.409 78.1869 286.444 78.1351 286.468C78.0833 286.492 78.0268 286.505 77.9696 286.505C77.9125 286.505 77.856 286.492 77.8042 286.468C77.7523 286.444 77.7064 286.409 77.6696 286.365L77.0936 285.709C77.043 285.642 77.0156 285.561 77.0156 285.477C77.0156 285.393 77.043 285.312 77.0936 285.245L77.6056 284.317C77.6391 284.259 77.6867 284.21 77.7438 284.176C77.801 284.141 77.866 284.121 77.9329 284.118C77.9998 284.114 78.0664 284.128 78.1266 284.157C78.1868 284.187 78.2388 284.23 78.2776 284.285Z" fill="white"/>
<path opacity="0.7" d="M62.298 268.719C57.674 270.375 56.346 274.407 56.25 282.815C58.65 284.999 65.938 285.119 65.938 285.119C65.938 285.119 67.202 272.367 62.298 268.719Z" fill="white"/>
<path d="M110.672 332.884L118.784 334.22L122.68 334.86L123.816 330.836L120.296 329.764L111.688 327.148L110.672 332.884Z" fill="#EBB376"/>
<path d="M123.026 330.18L121.274 334.692C121.251 334.753 121.24 334.817 121.242 334.881C121.244 334.946 121.259 335.01 121.286 335.068C121.313 335.127 121.351 335.18 121.399 335.224C121.446 335.268 121.502 335.302 121.562 335.324L123.826 336.124C123.826 336.124 126.794 337.42 127.754 337.004C130.562 335.796 134.698 325.9 133.786 325.004C133.45 324.66 132.73 325.004 132.346 325.26C131.13 326.156 128.418 328.756 127.394 329.492C126.194 330.356 124.362 330.084 123.57 329.916C123.463 329.888 123.349 329.899 123.249 329.947C123.149 329.996 123.07 330.078 123.026 330.18Z" fill="#43A7FF"/>
<path opacity="0.2" d="M110.672 332.884L118.784 334.22L120.296 329.764L111.688 327.148L110.672 332.884Z" fill="black"/>
<path d="M118.899 328.927C118.899 328.927 85.8269 310.335 74.4029 310.863C62.9789 311.391 61.3469 321.455 66.0509 327.751C70.7549 334.047 79.4589 335.583 79.4589 335.583C79.4589 335.583 73.5469 327.199 74.4029 324.863C75.2589 322.527 78.6029 325.791 78.6029 325.791C78.6029 325.791 99.4029 332.511 117.619 334.055L118.899 328.927Z" fill="#263238"/>
<path d="M119.436 328.412L117.564 327.156L115.156 334.54H118.044L119.436 328.412Z" fill="#43A7FF"/>
<path opacity="0.6" d="M119.436 328.412L117.564 327.156L115.156 334.54H118.044L119.436 328.412Z" fill="white"/>
</svg>
