<svg width="350" height="350" viewBox="0 0 350 350" fill="none" xmlns="http://www.w3.org/2000/svg">
<path d="M286.3 178.563C224.413 142.863 124.404 142.863 62.9161 178.563C1.42812 214.263 1.78512 272.23 63.7001 307.958C125.615 343.686 225.596 343.693 287.084 307.958C348.572 272.223 348.215 214.298 286.3 178.563Z" fill="#FAFAFA"/>
<path d="M307.86 274.505C309.848 275.653 309.855 277.515 307.86 278.663L299.74 283.346C298.63 283.912 297.402 284.207 296.156 284.207C294.91 284.207 293.682 283.912 292.572 283.346L203.567 231.945C201.579 230.804 201.565 228.942 203.567 227.794L211.68 223.111C212.791 222.545 214.021 222.25 215.268 222.25C216.515 222.25 217.744 222.545 218.855 223.111L307.86 274.505Z" fill="#F0F0F0"/>
<path d="M282.884 281.883C284.879 283.038 284.886 284.893 282.884 286.041L274.764 290.724C273.653 291.29 272.424 291.585 271.176 291.585C269.929 291.585 268.7 291.29 267.589 290.724L191.569 246.813C189.581 245.665 189.567 243.803 191.569 242.655L199.689 237.972C200.8 237.405 202.029 237.11 203.276 237.11C204.524 237.11 205.753 237.405 206.864 237.972L282.884 281.883Z" fill="#F0F0F0"/>
<path d="M63.154 278.432C57.701 275.282 48.881 275.282 43.456 278.432C38.031 281.582 38.066 286.692 43.519 289.842C48.972 292.992 57.799 292.992 63.217 289.842C68.635 286.692 68.6 281.582 63.154 278.432Z" fill="#F0F0F0"/>
<path d="M90.5031 271.04C107.352 261.31 134.603 261.31 151.333 271.04C168.063 280.77 167.986 296.548 151.13 306.278C134.274 316.008 107.03 316.008 90.3001 306.278C73.5701 296.548 73.6471 280.77 90.5031 271.04Z" fill="#F0F0F0"/>
<path d="M70.462 239.819L106.666 218.917C106.915 218.778 107.123 218.575 107.267 218.329C107.412 218.083 107.488 217.803 107.488 217.517C107.488 217.232 107.412 216.952 107.267 216.706C107.123 216.46 106.915 216.256 106.666 216.117L74.76 197.602C74.5163 197.462 74.2399 197.388 73.9585 197.388C73.6771 197.388 73.4007 197.462 73.157 197.602L36.155 218.966C35.9057 219.105 35.6981 219.309 35.5535 219.555C35.409 219.801 35.3328 220.081 35.3328 220.366C35.3328 220.652 35.409 220.932 35.5535 221.178C35.6981 221.424 35.9057 221.627 36.155 221.766L67.256 239.84C67.7454 240.118 68.2992 240.262 68.8618 240.258C69.4244 240.255 69.9762 240.103 70.462 239.819Z" fill="#F0F0F0"/>
<path d="M183.155 170.058C174.615 165.158 160.811 165.158 152.355 170.058C143.899 174.958 143.913 182.987 152.453 187.915C160.993 192.843 174.797 192.85 183.253 187.915C191.709 182.98 191.695 175 183.155 170.058Z" fill="#F0F0F0"/>
<path d="M112.091 60.8226L109.347 59.2266L80.3599 75.9006V79.0716L112.091 60.8226Z" fill="#F5F5F5"/>
<path d="M112.091 60.8223L80.3599 79.0713V82.6973L112.098 64.4623L112.091 60.8223Z" fill="#E0E0E0"/>
<path d="M63.7839 88.6126L61.0399 87.0166L32.0459 103.691V106.869L63.7839 88.6126Z" fill="#F5F5F5"/>
<path d="M63.7839 88.6123L32.0459 106.868V110.487L63.7909 92.2523L63.7839 88.6123Z" fill="#E0E0E0"/>
<path d="M111.937 30.3519L109.193 28.7559L109.354 110.845L112.098 112.441L111.937 30.3519Z" fill="#F0F0F0"/>
<path d="M112.098 112.441L109.354 110.845L77.7769 128.975L80.5209 130.571L112.098 112.441Z" fill="#F5F5F5"/>
<path d="M115.262 114.246L77.371 136.016L77.189 46.6754L115.08 24.8984L115.262 114.246ZM80.5 130.57L112.077 112.44L111.916 30.3514L80.36 48.4744L80.5 130.57Z" fill="#E0E0E0"/>
<path d="M115.08 24.8986L112.343 23.3096L74.4448 45.0796L77.1888 46.6756L115.08 24.8986Z" fill="#F5F5F5"/>
<path d="M77.1888 46.6751L74.4448 45.0791L74.6268 134.42L77.3708 136.016L77.1888 46.6751Z" fill="#F0F0F0"/>
<path d="M63.63 58.1419L60.886 56.5459L61.047 138.642L63.791 140.238L63.63 58.1419Z" fill="#F0F0F0"/>
<path d="M63.791 140.238L61.047 138.642L29.47 156.765L32.207 158.361L63.791 140.238Z" fill="#F5F5F5"/>
<path d="M66.9548 142.036L29.0638 163.799L28.8818 74.4585L66.7728 52.6885L66.9548 142.036ZM32.1998 158.36L63.7838 140.237L63.6298 58.1415L32.0458 76.2995L32.1998 158.36Z" fill="#E0E0E0"/>
<path d="M66.7729 52.6956L64.0289 51.0996L26.1379 72.8696L28.8819 74.4656L66.7729 52.6956Z" fill="#F5F5F5"/>
<path d="M28.8819 74.4651L26.1379 72.8691L26.3199 162.217L29.0639 163.806L28.8819 74.4651Z" fill="#F0F0F0"/>
<path d="M98.6089 216.279L101.696 218.078L101.689 214.501L98.6089 216.279Z" fill="#E6E6E6"/>
<path d="M101.563 179.788L71.4768 197.162L101.563 179.788Z" fill="#CFCFCF"/>
<path d="M101.689 214.501V218.078L104.909 216.216L104.79 174.216L68.2148 195.3L68.3338 237.335L71.5538 235.473V231.896L98.6088 216.3L101.689 214.501ZM71.4768 197.162L101.577 179.788L101.619 193.424L71.5188 210.798L71.4768 197.162ZM71.5258 214.529L101.626 197.155V197.197L101.668 210.784L71.5678 228.158L71.5258 214.529Z" fill="#E6E6E6"/>
<path d="M101.654 210.784L101.612 197.19V197.155L71.5259 214.529L71.5609 228.158L101.654 210.784Z" fill="#E0E0E0"/>
<path d="M101.605 193.424L101.563 179.788L71.4768 197.162L71.5118 210.798L101.605 193.424Z" fill="#E0E0E0"/>
<path d="M68.2149 195.307L36.2739 176.743L36.3929 218.778L68.3339 237.342L68.2149 195.307Z" fill="#E0E0E0"/>
<path d="M68.2149 195.307L104.797 174.181L72.8629 155.624L36.2739 176.743L68.2149 195.307Z" fill="#E0E0E0"/>
<path d="M98.6089 216.279L101.696 218.078L101.689 214.501L98.6089 216.279Z" fill="#E6E6E6"/>
<path d="M101.563 179.788L71.4768 197.162L101.563 179.788Z" fill="#CFCFCF"/>
<path opacity="0.8" d="M101.654 210.784L101.612 197.19V197.155L71.5259 214.529L71.5609 228.158L101.654 210.784Z" fill="white"/>
<path opacity="0.8" d="M101.605 193.424L101.563 179.788L71.4768 197.162L71.5118 210.798L101.605 193.424Z" fill="white"/>
<path d="M91.7558 190.526L91.7418 188.643L81.3188 194.656L81.3329 196.539L91.7558 190.526Z" fill="#E0E0E0"/>
<path d="M91.7558 207.648L91.7418 205.765L81.3188 211.778L81.3329 213.661L91.7558 207.648Z" fill="#E0E0E0"/>
<path d="M68.2149 195.307L36.2739 176.743L36.3929 218.778L68.3339 237.342L68.2149 195.307Z" fill="#EBEBEB"/>
<path d="M68.2149 195.307L104.797 174.181L72.8629 155.624L36.2739 176.743L68.2149 195.307Z" fill="#F0F0F0"/>
<path opacity="0.1" d="M176.155 61.7678C175.635 60.855 174.865 60.1095 173.936 59.6188C170.52 57.6518 164.997 57.6518 161.602 59.6188C160.68 60.1096 159.92 60.8558 159.411 61.7678C158.557 63.4828 159.299 65.4148 161.644 66.7658C165.06 68.7398 170.583 68.7398 173.978 66.7658C176.309 65.4148 177.03 63.4828 176.155 61.7678Z" fill="black"/>
<path d="M176.505 178.136C176.449 179.375 175.609 180.607 173.978 181.552C170.583 183.526 165.06 183.526 161.644 181.552C159.999 180.607 159.152 179.375 159.075 178.136V180.887C159.075 182.182 159.936 183.477 161.644 184.464C165.06 186.431 170.583 186.431 173.978 184.464C175.679 183.477 176.519 182.182 176.505 180.887V178.136Z" fill="#E0E0E0"/>
<path d="M161.644 181.552C165.06 183.526 170.583 183.526 173.978 181.552C175.609 180.607 176.449 179.375 176.505 178.136C176.529 177.587 176.408 177.042 176.155 176.554C175.635 175.641 174.865 174.896 173.936 174.405C170.52 172.438 164.997 172.438 161.602 174.405C160.679 174.891 159.918 175.636 159.411 176.547C159.165 177.037 159.05 177.582 159.075 178.129C159.152 179.375 159.999 180.6 161.644 181.552Z" fill="#F0F0F0"/>
<path d="M161.21 87.1846H160.951V110.18H161.21V87.1846Z" fill="#E0E0E0"/>
<path d="M161.7 110.432C161.7 110.558 161.663 110.681 161.593 110.786C161.523 110.891 161.423 110.972 161.307 111.02C161.19 111.069 161.062 111.081 160.939 111.057C160.815 111.032 160.702 110.971 160.613 110.882C160.524 110.793 160.463 110.68 160.438 110.556C160.414 110.433 160.426 110.305 160.475 110.188C160.523 110.072 160.604 109.972 160.709 109.902C160.814 109.832 160.937 109.795 161.063 109.795C161.232 109.795 161.394 109.862 161.513 109.981C161.633 110.101 161.7 110.263 161.7 110.432Z" fill="#F0F0F0"/>
<path d="M169.358 78.8965H166.222V177.225C166.233 177.364 166.282 177.496 166.362 177.609C166.442 177.723 166.551 177.813 166.677 177.869C167.02 178.045 167.401 178.137 167.786 178.137C168.172 178.137 168.552 178.045 168.896 177.869C169.022 177.813 169.131 177.724 169.21 177.61C169.289 177.497 169.335 177.364 169.344 177.225L169.358 78.8965Z" fill="#E0E0E0"/>
<path d="M185.801 83.1314C183.792 76.1314 176.141 61.7744 176.141 61.7744C177.016 63.4894 176.295 65.4214 173.964 66.7724C170.569 68.7464 165.046 68.7464 161.63 66.7724C159.285 65.4214 158.543 63.4894 159.397 61.7744C159.397 61.7744 151.746 76.1664 149.744 83.1314C148.386 86.6314 150.052 90.4114 154.742 93.1204C161.987 97.3204 173.698 97.3204 180.901 93.1204C185.57 90.4044 187.194 86.6034 185.801 83.1314Z" fill="#F0F0F0"/>
<path d="M176.155 61.7678C175.635 60.855 174.865 60.1095 173.936 59.6188C170.52 57.6518 164.997 57.6518 161.602 59.6188C160.68 60.1096 159.92 60.8558 159.411 61.7678C158.557 63.4828 159.299 65.4148 161.644 66.7658C165.06 68.7398 170.583 68.7398 173.978 66.7658C176.309 65.4148 177.03 63.4828 176.155 61.7678Z" fill="#E0E0E0"/>
<path opacity="0.05" d="M63.966 168.854C68.033 166.509 74.592 166.509 78.666 168.854C82.74 171.199 82.677 175 78.617 177.345C74.557 179.69 67.991 179.69 63.917 177.345C59.843 175 59.906 171.199 63.966 168.854Z" fill="black"/>
<path d="M60.4451 154.091L71.5891 154.42L82.7331 154.091C83.2161 161.623 81.7461 169.288 79.7161 173.033C79.2378 173.997 78.4657 174.783 77.5111 175.28C74.2211 177.177 68.9081 177.177 65.6111 175.28C64.6454 174.774 63.873 173.965 63.4131 172.977C61.4181 169.211 59.9691 161.581 60.4451 154.091Z" fill="white"/>
<path d="M63.7351 149.528C59.3671 152.055 59.3461 156.136 63.6861 158.628C68.0261 161.12 75.0751 161.155 79.4431 158.628C83.8111 156.101 83.8321 152.02 79.4921 149.528C75.1521 147.036 68.1031 147.001 63.7351 149.528Z" fill="#EBEBEB"/>
<path d="M65.464 150.535C62.055 152.502 62.034 155.687 65.422 157.654C68.81 159.621 74.312 159.621 77.714 157.654C81.116 155.687 81.144 152.502 77.756 150.535C74.368 148.568 68.866 148.568 65.464 150.535Z" fill="#E0E0E0"/>
<g opacity="0.15">
<path d="M65.464 150.535C62.055 152.502 62.034 155.687 65.422 157.654C68.81 159.621 74.312 159.621 77.714 157.654C81.116 155.687 81.144 152.502 77.756 150.535C74.368 148.568 68.866 148.568 65.464 150.535Z" fill="black"/>
</g>
<path d="M72.52 154.406C71.6269 155.156 70.5681 155.682 69.4311 155.942C68.2942 156.201 67.1119 156.186 65.982 155.897C64.8941 155.566 63.9058 154.969 63.1065 154.16C62.3072 153.351 61.7221 152.355 61.404 151.263C62.7238 150.635 63.932 149.796 64.981 148.778C63.308 148.363 61.5519 148.426 59.913 148.96C59.4599 148.247 59.1886 147.434 59.1227 146.592C59.0568 145.75 59.1984 144.905 59.535 144.13C61.4366 143.284 63.5756 143.135 65.576 143.71C64.7485 142.991 63.7824 142.45 62.7374 142.118C61.6924 141.787 60.5906 141.674 59.5 141.785C59.3421 138.591 59.8424 135.398 60.97 132.405C65.121 132.615 69.153 134.407 70.511 135.695C70.5746 137.182 70.419 138.671 70.049 140.112C70.5852 139.837 71.0433 139.431 71.381 138.932C71.7187 138.433 71.9251 137.856 71.981 137.256C74.578 137.907 75.691 139.202 76.097 140.196C75.7222 142.043 74.873 143.761 73.633 145.18C76.076 144.445 77.07 141.722 77.07 141.722C79.436 147.413 78.974 153.853 72.52 154.406Z" fill="#0B568D"/>
<path opacity="0.2" d="M72.52 154.406C71.6269 155.156 70.5681 155.682 69.4311 155.942C68.2942 156.201 67.1119 156.186 65.982 155.897C64.8941 155.566 63.9058 154.969 63.1065 154.16C62.3072 153.351 61.7221 152.355 61.404 151.263C62.7238 150.635 63.932 149.796 64.981 148.778C63.308 148.363 61.5519 148.426 59.913 148.96C59.4599 148.247 59.1886 147.434 59.1227 146.592C59.0568 145.75 59.1984 144.905 59.535 144.13C61.4366 143.284 63.5756 143.135 65.576 143.71C64.7485 142.991 63.7824 142.45 62.7374 142.118C61.6924 141.787 60.5906 141.674 59.5 141.785C59.3421 138.591 59.8424 135.398 60.97 132.405C65.121 132.615 69.153 134.407 70.511 135.695C70.5746 137.182 70.419 138.671 70.049 140.112C70.5852 139.837 71.0433 139.431 71.381 138.932C71.7187 138.433 71.9251 137.856 71.981 137.256C74.578 137.907 75.691 139.202 76.097 140.196C75.7222 142.043 74.873 143.761 73.633 145.18C76.076 144.445 77.07 141.722 77.07 141.722C79.436 147.413 78.974 153.853 72.52 154.406Z" fill="black"/>
<path opacity="0.3" d="M72.52 154.406C71.6269 155.156 70.5681 155.682 69.4311 155.942C68.2942 156.201 67.1119 156.186 65.982 155.897C64.8941 155.566 63.9058 154.969 63.1065 154.16C62.3072 153.351 61.7221 152.355 61.404 151.263C62.7238 150.635 63.932 149.796 64.981 148.778C63.308 148.363 61.5519 148.426 59.913 148.96C59.4599 148.247 59.1886 147.434 59.1227 146.592C59.0568 145.75 59.1984 144.905 59.535 144.13C61.4366 143.284 63.5756 143.135 65.576 143.71C64.7485 142.991 63.7824 142.45 62.7374 142.118C61.6924 141.787 60.5906 141.674 59.5 141.785C59.3421 138.591 59.8424 135.398 60.97 132.405C65.121 132.615 69.153 134.407 70.511 135.695C70.5746 137.182 70.419 138.671 70.049 140.112C70.5852 139.837 71.0433 139.431 71.381 138.932C71.7187 138.433 71.9251 137.856 71.981 137.256C74.578 137.907 75.691 139.202 76.097 140.196C75.7222 142.043 74.873 143.761 73.633 145.18C76.076 144.445 77.07 141.722 77.07 141.722C79.436 147.413 78.974 153.853 72.52 154.406Z" fill="white"/>
<path d="M72.667 155.022C72.6983 155.02 72.7289 155.012 72.7571 154.999C72.7853 154.985 72.8105 154.966 72.8314 154.943C72.8522 154.919 72.8682 154.892 72.8784 154.862C72.8886 154.833 72.8929 154.801 72.891 154.77C72.492 149.52 69.489 140.861 62.335 133.714C62.314 133.686 62.2871 133.663 62.2563 133.646C62.2255 133.629 62.1914 133.619 62.1564 133.617C62.1214 133.614 62.0863 133.619 62.0534 133.632C62.0205 133.644 61.9906 133.663 61.9658 133.688C61.941 133.713 61.9218 133.743 61.9095 133.776C61.8972 133.808 61.8922 133.844 61.8947 133.879C61.8971 133.914 61.9071 133.948 61.9239 133.978C61.9407 134.009 61.964 134.036 61.992 134.057C69.062 141.106 72.023 149.639 72.408 154.805C72.4151 154.868 72.4459 154.925 72.4942 154.966C72.5424 155.006 72.6043 155.026 72.667 155.022Z" fill="#F5F5F5"/>
<path d="M70.7001 157.22C71.5333 157.9 72.5152 158.373 73.5658 158.601C74.6164 158.829 75.7061 158.805 76.7459 158.533C77.7858 158.26 78.7465 157.745 79.5497 157.03C80.3529 156.316 80.976 155.421 81.3681 154.42C80.1747 153.878 79.0832 153.134 78.1411 152.222C79.7214 151.845 81.3736 151.893 82.9291 152.362C83.4035 151.764 83.7168 151.055 83.8394 150.301C83.9619 149.547 83.8895 148.775 83.6291 148.057C81.8182 147.313 79.8111 147.192 77.9241 147.714C79.6025 146.402 81.7169 145.777 83.8391 145.964C84.2023 143.14 83.9297 140.27 83.0411 137.564C79.0791 137.802 75.1591 139.44 73.8011 140.602C73.647 141.909 73.7013 143.233 73.9621 144.522C73.482 144.295 73.0742 143.939 72.7838 143.495C72.4935 143.05 72.3319 142.533 72.3171 142.002C69.8391 142.604 68.7191 143.766 68.2781 144.641C68.5163 146.269 69.2104 147.795 70.2801 149.044C68.0401 148.407 67.2771 146.006 67.2771 146.006C64.6731 151.06 64.7081 156.737 70.7001 157.22Z" fill="#0B568D"/>
<path opacity="0.3" d="M70.7001 157.22C71.5333 157.9 72.5152 158.373 73.5658 158.601C74.6164 158.829 75.7061 158.805 76.7459 158.533C77.7858 158.26 78.7465 157.745 79.5497 157.03C80.3529 156.316 80.976 155.421 81.3681 154.42C80.1747 153.878 79.0832 153.134 78.1411 152.222C79.7214 151.845 81.3736 151.893 82.9291 152.362C83.4035 151.764 83.7168 151.055 83.8394 150.301C83.9619 149.547 83.8895 148.775 83.6291 148.057C81.8182 147.313 79.8111 147.192 77.9241 147.714C79.6025 146.402 81.7169 145.777 83.8391 145.964C84.2023 143.14 83.9297 140.27 83.0411 137.564C79.0791 137.802 75.1591 139.44 73.8011 140.602C73.647 141.909 73.7013 143.233 73.9621 144.522C73.482 144.295 73.0742 143.939 72.7838 143.495C72.4935 143.05 72.3319 142.533 72.3171 142.002C69.8391 142.604 68.7191 143.766 68.2781 144.641C68.5163 146.269 69.2104 147.795 70.2801 149.044C68.0401 148.407 67.2771 146.006 67.2771 146.006C64.6731 151.06 64.7081 156.737 70.7001 157.22Z" fill="white"/>
<path d="M70.539 157.788C70.5965 157.788 70.6523 157.768 70.6961 157.731C70.7398 157.693 70.7686 157.641 70.777 157.585C71.477 153.014 74.781 145.433 81.893 139.098C81.9363 139.051 81.9604 138.99 81.9604 138.926C81.9604 138.862 81.9363 138.801 81.893 138.755C81.8472 138.71 81.7857 138.685 81.7215 138.685C81.6574 138.685 81.5958 138.71 81.55 138.755C74.347 145.174 70.98 152.881 70.287 157.529C70.2769 157.591 70.2919 157.654 70.3286 157.706C70.3653 157.757 70.4209 157.791 70.483 157.802L70.539 157.788Z" fill="white"/>
<path d="M66.549 260.302L53.34 260.687L40.124 260.302C39.557 269.227 41.3 278.313 43.701 282.758C44.271 283.899 45.1875 284.83 46.319 285.418C50.218 287.672 56.518 287.672 60.389 285.418C61.5376 284.82 62.4575 283.86 63.007 282.688C65.394 278.222 67.116 269.178 66.549 260.302Z" fill="white"/>
<path d="M62.65 254.891C67.823 257.88 67.851 262.724 62.713 265.713C57.575 268.702 49.203 268.702 44.023 265.713C38.843 262.724 38.822 257.88 43.967 254.891C49.112 251.902 57.477 251.902 62.65 254.891Z" fill="#EBEBEB"/>
<path d="M60.606 256.081C64.645 258.412 64.666 262.192 60.648 264.523C56.63 266.854 50.148 266.854 46.074 264.523C42 262.192 42.014 258.412 46.025 256.081C50.036 253.75 56.567 253.75 60.606 256.081Z" fill="#E0E0E0"/>
<g opacity="0.15">
<path d="M60.606 256.081C64.645 258.412 64.666 262.192 60.648 264.523C56.63 266.854 50.148 266.854 46.074 264.523C42 262.192 42.014 258.412 46.025 256.081C50.036 253.75 56.567 253.75 60.606 256.081Z" fill="black"/>
</g>
<path d="M75.0611 203.924C45.2901 213.675 45.0171 233.59 51.7301 247.8C53.4241 250.677 58.5481 252.217 63.0071 234.577L55.1811 235.55L64.2811 230.93L66.6541 223.853L59.0521 224.42L68.6981 220.36C70.4803 214.756 72.6054 209.267 75.0611 203.924Z" fill="#0B568D"/>
<path opacity="0.2" d="M75.0611 203.924C45.2901 213.675 45.0171 233.59 51.7301 247.8C53.4241 250.677 58.5481 252.217 63.0071 234.577L55.1811 235.55L64.2811 230.93L66.6541 223.853L59.0521 224.42L68.6981 220.36C70.4803 214.756 72.6054 209.267 75.0611 203.924Z" fill="black"/>
<path opacity="0.2" d="M75.0611 203.924C45.2901 213.675 45.0171 233.59 51.7301 247.8C53.4241 250.677 58.5481 252.217 63.0071 234.577L55.1811 235.55L64.2811 230.93L66.6541 223.853L59.0521 224.42L68.6981 220.36C70.4803 214.756 72.6054 209.267 75.0611 203.924Z" fill="white"/>
<path d="M66.6401 208.908C50.9391 220.808 49.5181 234.486 53.9561 248.745C52.3881 236.187 50.6941 223.489 66.6401 208.908Z" fill="white"/>
<path d="M24.6331 224.154C53.9771 228.291 57.5331 246.792 53.6481 261.121C52.5491 264.075 48.0481 266.364 40.9501 250.677L48.3981 250.306L39.1441 247.506L35.7631 241.311L42.9311 240.576L33.2781 238.399C30.6918 233.478 27.8047 228.72 24.6331 224.154Z" fill="#0B568D"/>
<path opacity="0.2" d="M24.6331 224.154C53.9771 228.291 57.5331 246.792 53.6481 261.121C52.5491 264.075 48.0481 266.364 40.9501 250.677L48.3981 250.306L39.1441 247.506L35.7631 241.311L42.9311 240.576L33.2781 238.399C30.6918 233.478 27.8047 228.72 24.6331 224.154Z" fill="white"/>
<path d="M33.2991 227.395C49.9031 235.886 53.4941 248.395 51.7301 262.395C51.1001 250.439 50.5751 238.329 33.2991 227.395Z" fill="white"/>
<path opacity="0.1" d="M24.6331 224.154C53.9771 228.291 57.5331 246.792 53.6481 261.121C52.5491 264.075 48.0481 266.364 40.9501 250.677L48.3981 250.306L39.1441 247.506L35.7631 241.311L42.9311 240.576L33.2781 238.399C30.6918 233.478 27.8047 228.72 24.6331 224.154Z" fill="black"/>
<path d="M83.65 231.091C56.735 231.532 51.45 247.814 53.361 261.191C54.019 263.991 57.834 266.539 65.961 253.197L59.304 252L67.956 250.523L71.694 245.322L65.317 243.852L74.263 242.97C77.1459 238.822 80.2808 234.855 83.65 231.091Z" fill="#0B568D"/>
<path d="M75.4741 233.044C59.5561 238.833 54.9291 249.69 54.9431 262.5C56.8471 251.818 58.6811 240.961 75.4741 233.044Z" fill="white"/>
<path opacity="0.2" d="M83.65 231.091C56.735 231.532 51.45 247.814 53.361 261.191C54.019 263.991 57.834 266.539 65.961 253.197L59.304 252L67.956 250.523L71.694 245.322L65.317 243.852L74.263 242.97C77.1459 238.822 80.2808 234.855 83.65 231.091Z" fill="white"/>
<path d="M309.218 73.5008C308.498 72.0298 307.352 70.81 305.928 70.0008L220.353 21.3158C219.952 21.163 219.529 21.0802 219.1 21.0708C214.69 20.9798 210.266 25.1308 209.643 27.3078C209.502 27.5829 209.427 27.8875 209.426 28.1968V213.235C209.425 214.679 209.807 216.098 210.533 217.347C211.258 218.596 212.301 219.631 213.556 220.347L299.138 269.116C299.245 269.167 299.355 269.212 299.467 269.249C304.57 271.412 310.009 266.911 310.009 262.2V77.1128C310.024 75.8643 309.754 74.6288 309.218 73.5008Z" fill="#37474F"/>
<path d="M209.671 27.3002C210.294 25.1232 214.718 21.0002 219.128 21.0632C219.55 21.0749 219.966 21.1578 220.36 21.3082L305.9 70.0002C307.159 70.7166 308.21 71.7498 308.946 72.9974C309.683 74.2449 310.081 75.6635 310.1 77.1122V262.22C310.1 266.931 304.661 271.432 299.558 269.269C299.446 269.232 299.336 269.188 299.229 269.136L213.584 220.346C212.329 219.631 211.286 218.596 210.561 217.347C209.835 216.098 209.454 214.679 209.454 213.234V28.2032C209.453 27.8892 209.527 27.5795 209.671 27.3002Z" fill="#455A64"/>
<path d="M298.13 96.6773C298.137 95.9552 297.952 95.2441 297.596 94.616C297.239 93.988 296.723 93.4651 296.1 93.1003L216.608 47.9153C216.296 47.7371 215.943 47.644 215.584 47.6455C215.225 47.6471 214.873 47.7431 214.563 47.9241C214.253 48.105 213.996 48.3645 213.818 48.6763C213.64 48.9881 213.547 49.3413 213.549 49.7003V198.954C213.547 199.675 213.736 200.384 214.096 201.008C214.456 201.633 214.975 202.151 215.6 202.51L295.071 247.8C295.382 247.978 295.735 248.071 296.093 248.07C296.452 248.069 296.803 247.973 297.113 247.793C297.423 247.613 297.68 247.355 297.859 247.044C298.037 246.733 298.131 246.381 298.13 246.022V96.6773Z" fill="#0B568D"/>
<path opacity="0.2" d="M298.13 96.6773C298.137 95.9552 297.952 95.2441 297.596 94.616C297.239 93.988 296.723 93.4651 296.1 93.1003L216.608 47.9153C216.296 47.7371 215.943 47.644 215.584 47.6455C215.225 47.6471 214.873 47.7431 214.563 47.9241C214.253 48.105 213.996 48.3645 213.818 48.6763C213.64 48.9881 213.547 49.3413 213.549 49.7003V198.954C213.547 199.675 213.736 200.384 214.096 201.008C214.456 201.633 214.975 202.151 215.6 202.51L295.071 247.8C295.382 247.978 295.735 248.071 296.093 248.07C296.452 248.069 296.803 247.973 297.113 247.793C297.423 247.613 297.68 247.355 297.859 247.044C298.037 246.733 298.131 246.381 298.13 246.022V96.6773Z" fill="black"/>
<path opacity="0.3" d="M310.1 77.1118V262.22C310.1 266.931 304.661 271.432 299.558 269.269C299.865 269.38 300.195 269.416 300.519 269.373C300.843 269.33 301.152 269.209 301.419 269.022C301.687 268.835 301.906 268.586 302.057 268.296C302.208 268.006 302.287 267.685 302.288 267.358V82.2288C302.279 80.6162 301.792 79.0424 300.888 77.7068L309.288 73.5068C309.83 74.631 310.108 75.864 310.1 77.1118Z" fill="black"/>
<path opacity="0.1" d="M219.1 21.0702C219.522 21.0819 219.938 21.1648 220.332 21.3152L305.9 70.0002C307.324 70.8094 308.47 72.0292 309.19 73.5002L300.79 77.7002C300.091 76.6314 299.148 75.7437 298.039 75.1102L212.513 26.4252C212.271 26.2879 212.003 26.2014 211.726 26.1713C211.45 26.1411 211.17 26.1678 210.903 26.2497C210.637 26.3316 210.391 26.4671 210.179 26.6477C209.967 26.8284 209.794 27.0504 209.671 27.3002C210.287 25.1302 214.711 21.0002 219.1 21.0702Z" fill="white"/>
<path d="M245.294 56.9941C244.692 56.6441 244.195 56.9171 244.188 57.6101C244.211 57.9891 244.322 58.3575 244.513 58.6857C244.704 59.014 244.969 59.2929 245.287 59.5001L262.087 69.1951C262.689 69.5451 263.172 69.2511 263.179 68.5581C263.158 68.1831 263.049 67.8182 262.861 67.4934C262.672 67.1685 262.41 66.8929 262.094 66.6891L245.294 56.9941Z" fill="#263238"/>
<path d="M266.392 69.1741C265.79 68.8311 265.307 69.1041 265.307 69.7971C265.324 70.1751 265.431 70.5435 265.618 70.8721C265.806 71.2007 266.069 71.4801 266.385 71.6872C266.987 72.0302 267.484 71.7501 267.484 71.0571C267.464 70.6793 267.354 70.3117 267.165 69.9844C266.975 69.657 266.71 69.3794 266.392 69.1741Z" fill="#263238"/>
<path d="M255.647 55.5873C254.443 54.8873 253.477 55.4403 253.47 56.8263C253.509 57.58 253.725 58.3139 254.101 58.9683C254.477 59.6227 255.002 60.1791 255.633 60.5923C256.83 61.2923 257.831 60.7183 257.831 59.3393C257.788 58.5862 257.567 57.854 257.188 57.202C256.808 56.5501 256.28 55.9969 255.647 55.5873Z" fill="#263238"/>
<path d="M255.64 229.845C253.197 228.445 251.223 229.558 251.216 232.365C251.288 233.905 251.724 235.405 252.488 236.744C253.252 238.082 254.323 239.22 255.612 240.065C258.055 241.465 260.085 240.317 260.092 237.51C260.004 235.973 259.556 234.477 258.782 233.146C258.009 231.814 256.932 230.683 255.64 229.845Z" fill="#263238"/>
<path d="M284.697 101.78C284.599 101.521 284.487 101.262 284.368 101.01C283.88 100.014 283.18 99.1369 282.317 98.4406C282.02 98.2083 281.707 97.9977 281.379 97.8106L203.7 53.6196C203.573 53.5621 203.439 53.5198 203.301 53.4936C203.071 53.4453 202.837 53.4149 202.601 53.4026C200.102 53.3536 197.596 54.8026 195.93 56.3776C195.088 57.1086 194.433 58.0302 194.019 59.0656C193.962 59.1899 193.915 59.3187 193.879 59.4506C193.843 59.59 193.824 59.7334 193.823 59.8776V227.829C193.823 229.14 194.171 230.427 194.831 231.56C194.994 231.839 195.174 232.108 195.37 232.365C195.972 233.143 196.721 233.795 197.575 234.283L275.275 278.544C275.371 278.591 275.469 278.634 275.569 278.67C275.569 278.67 275.569 278.67 275.604 278.67C280.238 280.63 285.173 276.57 285.173 272.265V104.3C285.162 103.438 285.001 102.586 284.697 101.78Z" fill="#0B568D"/>
<path d="M194.005 59.0657C194.572 57.0847 198.59 53.3187 202.587 53.4027C202.972 53.4102 203.354 53.4836 203.714 53.6197L281.414 97.8107C282.549 98.4669 283.493 99.4082 284.153 100.542C284.812 101.675 285.164 102.961 285.173 104.272V272.3C285.173 276.584 280.273 280.665 275.604 278.705C275.604 278.705 275.604 278.705 275.569 278.705C275.469 278.669 275.37 278.627 275.275 278.579L197.575 234.318C196.437 233.668 195.49 232.729 194.831 231.595C194.172 230.462 193.825 229.175 193.823 227.864V59.8777C193.82 59.5967 193.883 59.3188 194.005 59.0657Z" fill="#0B568D"/>
<path opacity="0.2" d="M285.138 104.299V272.299C285.138 276.583 280.238 280.664 275.569 278.704C275.569 278.704 275.569 278.704 275.534 278.704C275.814 278.805 276.113 278.838 276.408 278.799C276.702 278.76 276.983 278.65 277.227 278.48C277.47 278.31 277.669 278.084 277.807 277.821C277.945 277.558 278.018 277.266 278.019 276.968V108.968C278.013 107.507 277.575 106.079 276.759 104.866L284.368 101.065C284.867 102.071 285.13 103.177 285.138 104.299Z" fill="white"/>
<path opacity="0.4" d="M202.58 53.4027C202.965 53.4102 203.347 53.4836 203.707 53.6197L281.407 97.8107C282.702 98.5529 283.744 99.6676 284.396 101.01L276.787 104.811C276.152 103.84 275.296 103.034 274.288 102.459L196.588 58.2608C196.367 58.1369 196.123 58.0594 195.872 58.0329C195.62 58.0065 195.365 58.0318 195.123 58.1071C194.882 58.1825 194.658 58.3063 194.465 58.4712C194.273 58.636 194.117 58.8383 194.005 59.0657C194.6 57.0847 198.583 53.3187 202.58 53.4027Z" fill="white"/>
<path opacity="0.3" d="M194.005 59.0657C194.572 57.0847 198.59 53.3187 202.587 53.4027C202.972 53.4102 203.354 53.4836 203.714 53.6197L281.414 97.8107C282.549 98.4669 283.493 99.4082 284.153 100.542C284.812 101.675 285.164 102.961 285.173 104.272V272.3C285.173 276.584 280.273 280.665 275.604 278.705C275.604 278.705 275.604 278.705 275.569 278.705C275.469 278.669 275.37 278.627 275.275 278.579L197.575 234.318C196.437 233.668 195.49 232.729 194.831 231.595C194.172 230.462 193.825 229.175 193.823 227.864V59.8777C193.82 59.5967 193.883 59.3188 194.005 59.0657Z" fill="white"/>
<path d="M270.046 139.377L200.816 99.3999C200.151 99.0149 199.612 99.3229 199.612 100.1L199.5 178.129C199.52 178.549 199.64 178.959 199.849 179.324C200.059 179.689 200.352 179.999 200.704 180.229L269.927 220.199C270.592 220.577 271.131 220.276 271.138 219.499L271.236 141.463C271.217 141.046 271.099 140.639 270.892 140.277C270.685 139.914 270.395 139.606 270.046 139.377Z" fill="#0B568D"/>
<path d="M203.987 73.4715L204.813 73.9475L204.82 70.4125L204.001 69.9365L203.987 73.4715Z" fill="white"/>
<path d="M202.573 72.6529L203.392 73.1289L203.406 70.2659L202.58 69.7969L202.573 72.6529Z" fill="white"/>
<path d="M201.159 71.8339L201.978 72.3099L201.985 70.1889L201.166 69.7129L201.159 71.8339Z" fill="white"/>
<path d="M199.745 71.0219L200.564 71.4909L200.571 70.0629L199.745 69.5869V71.0219Z" fill="white"/>
<path d="M207.053 75.2356L212.086 78.1476L212.093 75.1796L207.06 72.2676L207.053 75.2356Z" fill="white"/>
<path d="M214.592 79.5899L217.112 81.0459L217.119 78.0779L214.599 76.6289L214.592 79.5899Z" fill="white"/>
<path d="M266.574 109.235L266.581 106.841L269.283 108.402L266.581 106.841L266.574 109.235Z" fill="white"/>
<path d="M266.574 109.235L269.283 110.796V108.402L266.581 106.841L266.574 109.235Z" fill="#0B568D"/>
<path d="M271.187 109.9V108.962L266.084 106.015V109.515L271.187 112.462V111.531L271.838 111.909V110.243L271.187 109.9ZM269.283 110.831L266.574 109.27V106.876L269.283 108.437V110.831Z" fill="white"/>
<path d="M258.769 105.042L263.802 107.947L263.816 104.979L258.776 102.074L258.769 105.042Z" fill="white"/>
<path d="M234.731 90.9856L239.764 93.8976L239.778 90.9296L234.738 88.0176L234.731 90.9856Z" fill="white"/>
<path d="M222.95 217.168L222.943 220.129L235.851 227.584L235.865 224.623L222.95 217.168Z" fill="#0B568D"/>
<path d="M241.78 218.365L228.494 210.686L228.48 213.647L241.773 221.319L241.78 218.365Z" fill="#0B568D"/>
<path d="M200.718 202.229L217.035 211.714L217.042 208.76L200.725 199.275L200.718 202.229Z" fill="#0B568D"/>
<path d="M224.917 208.628L200.739 194.6L200.732 197.554L224.91 211.582L224.917 208.628Z" fill="#0B568D"/>
<path d="M220.598 213.772L250.04 230.768L250.047 227.814L220.612 210.818L220.598 213.772Z" fill="#0B568D"/>
<path d="M219.814 215.362L200.739 204.351L200.732 207.305L219.807 218.316L219.814 215.362Z" fill="#0B568D"/>
<path d="M245.203 223.3L268.73 236.887L268.744 233.926L245.21 220.339L245.203 223.3Z" fill="#0B568D"/>
<path d="M253.47 232.75L268.723 241.556L268.73 238.602L253.484 229.796L253.47 232.75Z" fill="#0B568D"/>
<path d="M200.732 217.469L230.174 234.465L230.181 231.511L200.739 214.508L200.732 217.469Z" fill="#0B568D"/>
<path d="M200.739 221.494L200.732 224.455L219.814 235.466V232.505L200.739 221.494Z" fill="#0B568D"/>
<path d="M234.542 241.003L222.908 234.29V237.251L234.535 243.964L234.542 241.003Z" fill="#0B568D"/>
<path d="M202.496 185.275C202.317 185.144 202.107 185.064 201.887 185.041C201.666 185.019 201.444 185.057 201.243 185.149C200.543 185.541 200.543 186.822 201.243 188.012L201.642 188.712L204.134 193.024L206.64 191.624L207.046 191.393C207.746 191.001 207.746 189.713 207.046 188.523C206.751 187.977 206.323 187.515 205.8 187.179C205.62 187.052 205.41 186.973 205.19 186.951C204.971 186.929 204.749 186.964 204.547 187.053L204.141 187.284L203.742 186.584C203.446 186.049 203.017 185.598 202.496 185.275Z" fill="white"/>
<path d="M212.884 191.415C213.779 191.997 214.524 192.782 215.058 193.707C215.592 194.631 215.9 195.669 215.957 196.735C215.977 197.275 215.83 197.808 215.537 198.261L215.943 200.27L214.403 198.912C213.86 198.931 213.324 198.787 212.863 198.499C211.969 197.916 211.226 197.131 210.693 196.206C210.16 195.282 209.853 194.245 209.797 193.179C209.804 191.219 211.183 190.435 212.884 191.415Z" fill="white"/>
<path d="M239.253 128.625L242.83 135.163L248.031 136.976L250.229 143.78L255.486 147.532L256.095 153.93L260.897 159.257L259.84 164.626L263.718 170.996L261.114 174.811L263.69 181.615L259.791 183.498L260.806 190.064L255.99 189.833L255.353 195.517L250.089 193.193L247.863 197.442L242.669 193.249L239.064 195.65L234.451 190.008L229.824 190.316L226.24 183.771L221.046 181.965L218.848 175.154L213.591 171.409L212.989 165.004L208.187 159.684L209.237 154.308L205.359 147.938L207.963 144.123L205.387 137.319L209.293 135.436L208.271 128.87L213.087 129.108L213.724 123.424L218.988 125.741L221.221 121.492L226.408 125.685L230.013 123.291L234.626 128.933L239.253 128.625Z" fill="#0B568D"/>
<g opacity="0.4">
<path d="M239.253 128.625L242.83 135.163L248.031 136.976L250.229 143.78L255.486 147.532L256.095 153.93L260.897 159.257L259.84 164.626L263.718 170.996L261.114 174.811L263.69 181.615L259.791 183.498L260.806 190.064L255.99 189.833L255.353 195.517L250.089 193.193L247.863 197.442L242.669 193.249L239.064 195.65L234.451 190.008L229.824 190.316L226.24 183.771L221.046 181.965L218.848 175.154L213.591 171.409L212.989 165.004L208.187 159.684L209.237 154.308L205.359 147.938L207.963 144.123L205.387 137.319L209.293 135.436L208.271 128.87L213.087 129.108L213.724 123.424L218.988 125.741L221.221 121.492L226.408 125.685L230.013 123.291L234.626 128.933L239.253 128.625Z" fill="white"/>
</g>
<path d="M234.612 133.917C246.89 141.008 256.809 158.193 256.767 172.305C256.725 186.417 246.743 192.101 234.5 185.017C222.257 177.933 212.303 160.741 212.338 146.629C212.373 132.517 222.327 126.833 234.612 133.917Z" fill="#0B568D"/>
<g opacity="0.2">
<path d="M234.612 133.917C246.89 141.008 256.809 158.193 256.767 172.305C256.725 186.417 246.743 192.101 234.5 185.017C222.257 177.933 212.303 160.741 212.338 146.629C212.373 132.517 222.327 126.833 234.612 133.917Z" fill="white"/>
</g>
<path d="M249.732 156.1C250.271 156.408 250.593 157.423 250.11 157.598C245.693 159.208 236.334 163.065 230.622 168.609C230.421 168.763 230.175 168.847 229.922 168.847C229.669 168.847 229.423 168.763 229.222 168.609C228.614 168.238 228.127 167.698 227.822 167.055C225.199 161.775 222.261 156.658 219.023 151.732C218.435 150.836 218.813 149.989 219.513 150.395C219.57 150.426 219.624 150.464 219.674 150.507C223.203 153.474 226.293 156.926 228.851 160.762C237.503 155.204 245.357 155.351 249.501 156.016C249.582 156.03 249.661 156.058 249.732 156.1Z" fill="white"/>
<path d="M205.422 88.3259C206.724 89.1732 207.807 90.3161 208.583 91.6615C209.359 93.007 209.806 94.5168 209.888 96.0679C209.888 98.9099 207.865 100.058 205.394 98.6299C204.087 97.7857 202.999 96.6441 202.217 95.2985C201.436 93.9529 200.985 92.4415 200.9 90.8879C200.935 88.0459 202.944 86.8979 205.422 88.3259Z" fill="white"/>
<path d="M238.154 110.544L213.976 96.5156L213.969 99.4766L238.147 113.505L238.154 110.544Z" fill="white"/>
<path d="M130.277 115.535H130.977C135.527 115.591 141.274 118.685 144.088 126.623L155.015 147.777L142.52 153.3L135.695 133.329L130.277 115.535Z" fill="#FFA8A7"/>
<path d="M139.034 129.584C139.902 132.083 139.958 134.778 140.098 137.417C140.238 140.056 140.539 143.255 141.75 145.607C143.083 144.685 144.679 144.219 146.299 144.278C147.919 144.337 149.476 144.919 150.738 145.936C151.644 146.695 152.341 147.674 152.761 148.778L142.52 153.3L135.695 133.329L132.342 122.318C133.885 123.023 135.272 124.029 136.421 125.276C137.57 126.524 138.458 127.989 139.034 129.584Z" fill="#F28F8F"/>
<path d="M142.408 149.499C142.882 148.321 143.649 147.283 144.636 146.484C145.624 145.686 146.799 145.152 148.05 144.935C150.542 144.536 153.377 145.838 154.994 147.784C156.352 149.429 156.142 151.655 155.281 153.608C154.564 155.126 153.342 156.349 151.824 157.068C150.307 157.786 148.587 157.956 146.958 157.549C143.738 156.653 141.19 152.6 142.408 149.499Z" fill="#FFA8A7"/>
<path d="M102.697 285.908C102.419 286.468 101.986 286.936 101.45 287.257C100.914 287.578 100.298 287.739 99.673 287.721C99.1185 287.615 98.6015 287.366 98.174 286.997C97.7464 286.628 97.4233 286.154 97.237 285.621C96.8681 284.562 96.6995 283.444 96.74 282.324C96.6653 278.591 96.754 274.871 97.006 271.166C99.5678 271.706 102.179 271.978 104.797 271.978L103.6 282.303C103.537 283.552 103.23 284.777 102.697 285.908Z" fill="#FFA8A7"/>
<path d="M94.563 280.553C95.529 277.452 96.586 274.253 96.362 271.04L97.006 271.194C96.754 274.904 96.6653 278.623 96.74 282.352C96.6995 283.472 96.8681 284.59 97.237 285.649C97.4233 286.182 97.7464 286.656 98.174 287.025C98.6015 287.394 99.1185 287.643 99.673 287.749C100.298 287.767 100.914 287.606 101.45 287.285C101.986 286.964 102.419 286.496 102.697 285.936C103.23 284.805 103.537 283.58 103.6 282.331L104.797 272.034H105.623C104.923 275.884 105.42 279.839 105.665 283.752C105.91 287.665 105.868 291.739 104.188 295.274C103.8 296.229 103.137 297.047 102.284 297.626C101.814 297.88 101.298 298.036 100.766 298.084C100.234 298.133 99.6977 298.072 99.19 297.906C98.1773 297.566 97.2573 296.996 96.502 296.24C94.7895 294.599 93.6486 292.452 93.247 290.115C92.701 286.902 93.597 283.647 94.563 280.553Z" fill="#455A64"/>
<path d="M135.156 277.586L134.519 281.422C131.474 279.966 130.494 278.335 130.494 278.335C130.417 275.395 130.452 272.364 130.494 270.887C131.306 272.679 133.077 273.89 134.183 275.542C134.59 276.18 134.917 276.867 135.156 277.586Z" fill="#455A64"/>
<path d="M136.136 281.001L134.519 281.421L135.156 277.585C135.555 278.684 135.8 279.86 136.136 281.001Z" fill="#455A64"/>
<path opacity="0.2" d="M135.156 277.586L134.519 281.422C131.474 279.966 130.494 278.335 130.494 278.335C130.417 275.395 130.452 272.364 130.494 270.887C131.306 272.679 133.077 273.89 134.183 275.542C134.59 276.18 134.917 276.867 135.156 277.586Z" fill="black"/>
<path opacity="0.3" d="M136.136 281.001L134.519 281.421L135.156 277.585C135.555 278.684 135.8 279.86 136.136 281.001Z" fill="black"/>
<path d="M130.326 266.63C130.648 265.616 131.07 264.635 131.586 263.704C131.63 265.281 132.115 266.813 132.986 268.128C134.078 269.892 135.541 271.411 136.598 273.21C137.879 275.394 138.544 277.963 140.224 279.853C141.053 280.768 142.083 281.478 143.234 281.927C144.384 282.375 145.623 282.549 146.853 282.436C147.776 282.402 148.65 282.011 149.289 281.344C149.545 281.013 149.685 280.607 149.688 280.189C150.516 281.078 151.434 281.88 152.425 282.583C153.531 283.353 154.861 284.165 155.043 285.502C155.072 286.061 154.937 286.617 154.655 287.101C154.372 287.584 153.955 287.975 153.454 288.225C152.439 288.696 151.332 288.935 150.213 288.925C147.818 289.134 145.405 288.928 143.08 288.316C140.745 287.68 138.723 286.211 137.396 284.186C136.827 283.178 136.398 282.097 136.122 280.973C135.807 279.832 135.541 278.656 135.142 277.557C134.896 276.837 134.563 276.151 134.148 275.513C133.042 273.861 131.271 272.65 130.459 270.858C130.417 270.76 130.368 270.669 130.326 270.571C129.912 269.29 129.912 267.911 130.326 266.63Z" fill="#455A64"/>
<path d="M146.867 282.436C145.637 282.549 144.398 282.375 143.248 281.926C142.097 281.478 141.067 280.768 140.238 279.853C138.558 277.963 137.893 275.394 136.612 273.21C135.555 271.411 134.092 269.892 133 268.128C132.129 266.813 131.644 265.28 131.6 263.704L131.999 262.962C135.31 263.55 138.936 263.76 142.121 264.838C143.103 268.186 144.353 271.449 145.859 274.596C146.88 276.632 148.178 278.516 149.716 280.196C149.713 280.614 149.573 281.02 149.317 281.351C148.673 282.018 147.794 282.408 146.867 282.436Z" fill="#FFA8A7"/>
<path d="M137.9 144.27C138.082 147.07 138.262 149.87 138.439 152.67C144.774 178.787 142.884 217.805 142.884 217.805L142.688 265.405C141.79 265.994 140.785 266.398 139.729 266.594C138.674 266.79 137.59 266.773 136.541 266.546C135.492 266.319 134.499 265.885 133.619 265.269C132.739 264.654 131.991 263.87 131.418 262.962C130.34 251.265 124.901 232.862 126.518 218.519C124.327 207.2 122.696 191.1 122.696 191.1L117.369 218.946L106.274 272.685C101.374 274.785 97.027 273.343 95.613 271.439C96.747 241.794 96.264 227.542 100.835 213.836C99.435 177.065 98.987 160.447 107.947 147.812L107.835 143.038L137.9 144.27Z" fill="#0B568D"/>
<path opacity="0.3" d="M137.9 144.27C138.082 147.07 138.262 149.87 138.439 152.67C144.774 178.787 142.884 217.805 142.884 217.805L142.688 265.405C141.79 265.994 140.785 266.398 139.729 266.594C138.674 266.79 137.59 266.773 136.541 266.546C135.492 266.319 134.499 265.885 133.619 265.269C132.739 264.654 131.991 263.87 131.418 262.962C130.34 251.265 124.901 232.862 126.518 218.519C124.327 207.2 122.696 191.1 122.696 191.1L117.369 218.946L106.274 272.685C101.374 274.785 97.027 273.343 95.613 271.439C96.747 241.794 96.264 227.542 100.835 213.836C99.435 177.065 98.987 160.447 107.947 147.812L107.835 143.038L137.9 144.27Z" fill="black"/>
<path opacity="0.2" d="M123.9 184.891C127.217 184.29 130.34 182.895 133 180.824C132.49 182.297 131.613 183.615 130.45 184.653C129.287 185.691 127.878 186.414 126.357 186.753L123.557 198.359L122.717 191.177L123.9 184.891Z" fill="black"/>
<path d="M126.84 115.045L130.053 115.283C130.671 115.329 131.27 115.514 131.806 115.824C132.341 116.134 132.8 116.562 133.147 117.075L140.567 128.065C141.659 129.672 142.194 131.593 142.092 133.533C141.99 135.473 141.255 137.327 140 138.81C139.531 139.363 139.182 140.008 138.977 140.703C138.772 141.399 138.715 142.13 138.81 142.849L141.344 167.93C126.756 178.759 106.862 172.263 100.226 168.728C100.478 163.289 102.781 156.198 105.539 151.354C106.423 149.814 106.991 148.113 107.211 146.352C107.431 144.59 107.298 142.802 106.82 141.092L104.72 133.553L107.758 115.605L126.84 115.045Z" fill="#455A64"/>
<path d="M138.985 89.6006C139.237 90.9516 140.301 95.0186 139.237 97.3006C138.726 98.3856 138.152 99.0436 138.537 100.185C138.922 101.326 140.525 101.984 140.742 103.244C140.924 104.259 140.126 105.141 139.636 106.044C139.292 106.687 139.094 107.398 139.057 108.127C139.019 108.855 139.144 109.583 139.42 110.258C139.697 110.933 140.12 111.538 140.658 112.031C141.197 112.523 141.837 112.891 142.534 113.107C141.599 113.047 140.689 112.783 139.868 112.333C139.046 111.883 138.334 111.258 137.781 110.503C137.285 109.744 136.97 108.883 136.858 107.984C136.747 107.085 136.842 106.172 137.137 105.316C137.354 104.83 137.512 104.32 137.606 103.797C137.69 102.761 136.997 101.844 136.451 100.955C135.222 99.0283 134.704 96.733 134.988 94.4656C135.303 92.1906 136.976 90.6226 138.985 89.6006Z" fill="#263238"/>
<path d="M139.237 92.155C139.228 89.974 138.679 87.829 137.641 85.911C134.841 80.486 129.115 76.538 123.018 76.447C120.139 76.3627 117.312 77.2286 114.975 78.911C112.427 80.815 110.775 83.734 109.858 86.779C108.877 89.6665 108.755 92.7768 109.508 95.732C110.355 98.637 112.483 101.262 115.353 102.228C117.24 102.759 119.219 102.876 121.156 102.571C125.317 102.128 129.405 101.159 133.322 99.687C134.792 99.134 136.283 98.707 137.284 97.454C138.503 95.9524 139.19 94.0888 139.237 92.155Z" fill="#263238"/>
<path d="M126.84 108.5V115.626C126.84 115.626 132.657 119.343 130.207 121.31C125.587 125.027 115.675 115.584 115.675 115.584V103.698L126.84 108.5Z" fill="#FFA8A7"/>
<path d="M115.675 103.698C117.04 109.942 123.634 113.785 126.84 114.562V108.5L115.675 103.698Z" fill="#F28F8F"/>
<path d="M108.199 96.7752C108.617 95.9893 109.318 95.3921 110.161 95.1051C111.003 94.8181 111.923 94.8629 112.734 95.2303C113.545 95.5978 114.185 96.2602 114.525 97.083C114.864 97.9057 114.877 98.8269 114.562 99.6592C114.866 99.7836 115.196 99.8314 115.523 99.7984C115.85 99.7655 116.164 99.6528 116.438 99.4702C117 99.0808 117.422 98.5214 117.642 97.8742C117.851 97.0036 117.998 96.1194 118.083 95.2282C119.861 94.9482 120.883 92.0222 120.883 91.7282C121.317 91.8122 129.563 92.1902 132.223 87.4092C135.814 88.0182 137.032 92.2252 137.123 92.2042C137.394 93.686 137.509 95.1923 137.466 96.6982C137.334 99.791 136.785 102.852 135.835 105.798C135.135 108.129 134.519 110.509 132.153 111.72C130.774 112.374 129.235 112.617 127.722 112.42C122.171 111.853 116.935 107.576 114.422 102.711C113.981 103.245 113.367 103.607 112.686 103.735C112.006 103.863 111.303 103.748 110.698 103.411C109.671 102.638 108.841 101.633 108.276 100.478C107.993 99.904 107.84 99.2749 107.827 98.6352C107.814 97.9955 107.941 97.3606 108.199 96.7752Z" fill="#FFA8A7"/>
<path d="M129.801 97.1885L132.671 102.501L128.968 103.04L129.801 97.1885Z" fill="#F28F8F"/>
<path d="M125.356 104.686L128.093 106.156C127.841 106.463 127.496 106.68 127.109 106.774C126.722 106.867 126.316 106.832 125.951 106.674C125.639 106.461 125.409 106.147 125.301 105.785C125.192 105.423 125.212 105.035 125.356 104.686Z" fill="#F28F8F"/>
<path opacity="0.3" d="M125.356 104.686L128.093 106.156C127.841 106.463 127.496 106.68 127.109 106.774C126.722 106.867 126.316 106.832 125.951 106.674C125.639 106.461 125.409 106.147 125.301 105.785C125.192 105.423 125.212 105.035 125.356 104.686Z" fill="black"/>
<path d="M126.917 106.807C126.589 106.856 126.254 106.81 125.951 106.674C125.698 106.522 125.497 106.299 125.372 106.032C125.247 105.765 125.205 105.467 125.251 105.176C125.683 105.183 126.096 105.356 126.404 105.66C126.712 105.964 126.891 106.375 126.903 106.807H126.917Z" fill="#F28F8F"/>
<path d="M124.467 97.1744C124.437 97.3813 124.47 97.5924 124.56 97.7809C124.65 97.9695 124.794 98.127 124.974 98.2337C125.154 98.3403 125.361 98.3913 125.57 98.3801C125.779 98.3689 125.979 98.296 126.147 98.1708C126.314 98.0455 126.441 97.8734 126.51 97.6763C126.58 97.4792 126.589 97.2659 126.538 97.0633C126.486 96.8608 126.375 96.6781 126.22 96.5384C126.064 96.3987 125.871 96.3082 125.664 96.2784C125.527 96.2586 125.387 96.2661 125.252 96.3004C125.118 96.3347 124.991 96.3952 124.88 96.4784C124.769 96.5616 124.675 96.6659 124.604 96.7853C124.533 96.9047 124.487 97.0369 124.467 97.1744Z" fill="#263238"/>
<path d="M133.294 98.0846C133.266 98.2914 133.299 98.502 133.39 98.6898C133.482 98.8776 133.626 99.0342 133.807 99.1397C133.987 99.2453 134.194 99.2952 134.402 99.2831C134.611 99.271 134.811 99.1975 134.978 99.0717C135.144 98.946 135.27 98.7737 135.339 98.5766C135.408 98.3795 135.417 98.1665 135.365 97.9643C135.313 97.7621 135.202 97.5799 135.046 97.4406C134.891 97.3013 134.698 97.2111 134.491 97.1816C134.353 97.1618 134.213 97.1695 134.078 97.2043C133.943 97.2391 133.816 97.3002 133.705 97.3841C133.593 97.468 133.5 97.5731 133.429 97.6933C133.359 97.8135 133.313 97.9465 133.294 98.0846Z" fill="#263238"/>
<path d="M134.904 94.0589L137.004 95.9909C137.146 95.7189 137.201 95.4095 137.161 95.105C137.121 94.8005 136.988 94.5159 136.78 94.2899C136.52 94.0804 136.206 93.9478 135.875 93.907C135.543 93.8662 135.207 93.9188 134.904 94.0589Z" fill="#263238"/>
<path d="M126 92.6666L123.452 93.9476C123.395 93.644 123.431 93.3302 123.556 93.0478C123.681 92.7653 123.889 92.5274 124.152 92.3656C124.458 92.242 124.792 92.2048 125.118 92.2579C125.444 92.3109 125.749 92.4523 126 92.6666Z" fill="#263238"/>
<path d="M117.971 94.6543C118.377 96.1383 118.776 97.7833 118.083 99.1623C117.663 99.9953 116.879 100.611 116.459 101.444C116.045 102.413 115.938 103.486 116.151 104.517C116.363 105.542 116.497 106.581 116.55 107.625C116.536 108.403 116.364 109.17 116.044 109.88C115.725 110.59 115.266 111.228 114.693 111.755C114.121 112.282 113.447 112.688 112.714 112.948C111.98 113.208 111.202 113.317 110.425 113.267C111.615 113.435 113.057 112.35 113.673 111.314C114.244 110.242 114.463 109.017 114.296 107.814C114.184 106.617 113.855 105.448 113.645 104.265C113.368 103.089 113.368 101.865 113.645 100.688C113.988 99.4913 114.793 98.3433 114.548 97.1253C114.415 96.4603 113.981 95.8793 113.911 95.2073C113.878 94.7676 114 94.3303 114.256 93.9711C114.512 93.6119 114.885 93.3533 115.311 93.2403C116.2 93.0443 117.733 93.8003 117.971 94.6543Z" fill="#263238"/>
<path opacity="0.3" d="M127.512 80.3608C126.871 81.1061 126.097 81.7257 125.23 82.1878C122.13 83.9541 118.595 84.8105 115.031 84.6588C114.311 84.6669 113.597 84.5313 112.931 84.2598C112.476 84.0318 112.084 83.6967 111.787 83.2833C111.491 82.8699 111.3 82.3906 111.23 81.8868C112.145 80.2043 113.448 78.7644 115.031 77.6868C117.333 76.2392 120.013 75.5083 122.731 75.5868C124.343 75.6157 125.942 75.8822 127.477 76.3778C127.846 76.7692 128.102 77.2529 128.219 77.7778C128.292 78.2338 128.267 78.7003 128.145 79.1459C128.023 79.5914 127.807 80.0057 127.512 80.3608Z" fill="black"/>
<path d="M129.64 73.4023C129.297 70.5533 126.931 68.2433 124.222 67.2703C121.504 66.3501 118.546 66.4346 115.885 67.5083C113.242 68.5971 110.948 70.3915 109.256 72.6953C108.024 74.3263 107.037 76.3143 107.275 78.3513C107.541 80.7173 109.494 82.6703 111.769 83.3983C114.101 84.0553 116.572 84.0261 118.888 83.3143C120.414 82.8663 125.293 80.9063 126.518 79.6043C128.1 77.9103 129.913 75.6703 129.64 73.4023Z" fill="#263238"/>
<path opacity="0.2" d="M113.764 135.499C115.293 137.692 117.523 139.297 120.088 140.05C122.652 140.804 125.397 140.66 127.869 139.643C126.821 140.66 125.536 141.397 124.129 141.789C122.723 142.18 121.241 142.213 119.819 141.883C117.012 141.162 114.604 138.271 113.764 135.499Z" fill="black"/>
<path d="M133.056 167.202C133.052 167.219 133.052 167.235 133.056 167.251C133.048 167.272 133.048 167.294 133.056 167.314L134.176 168.595C134.172 168.568 134.172 168.539 134.176 168.511C134.218 168.707 134.512 168.7 134.995 168.427L144.382 163.149C145.108 162.731 145.725 162.145 146.181 161.441L154.343 146.244C154.476 145.992 154.469 145.845 154.343 145.775H154.378L153.3 144.494C153.259 144.459 153.207 144.439 153.153 144.438H153.09H153.034H152.978H152.929H152.88H152.831H152.782H152.733H152.677H152.628H152.579H152.523L143.136 149.716H143.087H143.031L142.982 149.751H142.94H142.898H142.863L142.744 149.856V149.891V149.926L142.709 149.968L142.674 150.01V150.059L142.639 150.108V150.157L142.604 150.206L142.569 150.255V150.304V150.346V150.388L134.407 165.585V165.627C134.404 165.641 134.404 165.656 134.407 165.669V165.711C134.404 165.725 134.404 165.74 134.407 165.753C134.405 165.767 134.405 165.782 134.407 165.795C134.22 165.616 133.97 165.519 133.712 165.524C133.453 165.529 133.207 165.637 133.028 165.823C132.849 166.01 132.751 166.26 132.756 166.519C132.762 166.777 132.869 167.023 133.056 167.202ZM154.126 145.747C154.126 145.747 154.161 145.747 154.189 145.747C154.168 145.746 154.147 145.746 154.126 145.747ZM143.206 152.047C143.283 151.97 143.374 151.9 143.465 151.823C143.374 151.9 143.283 151.949 143.206 152.026V152.047ZM134.183 168.448C134.18 168.432 134.18 168.416 134.183 168.399C134.18 168.425 134.18 168.451 134.183 168.476C134.183 168.476 134.183 168.434 134.183 168.427V168.448Z" fill="#E0E0E0"/>
<path opacity="0.2" d="M133.056 167.202C133.052 167.219 133.052 167.235 133.056 167.251C133.048 167.272 133.048 167.294 133.056 167.314L134.176 168.595C134.172 168.568 134.172 168.539 134.176 168.511C134.218 168.707 134.512 168.7 134.995 168.427L144.382 163.149C145.108 162.731 145.725 162.145 146.181 161.441L154.343 146.244C154.476 145.992 154.469 145.845 154.343 145.775H154.378L153.3 144.494C153.259 144.459 153.207 144.439 153.153 144.438H153.09H153.034H152.978H152.929H152.88H152.831H152.782H152.733H152.677H152.628H152.579H152.523L143.136 149.716H143.087H143.031L142.982 149.751H142.94H142.898H142.863L142.744 149.856V149.891V149.926L142.709 149.968L142.674 150.01V150.059L142.639 150.108V150.157L142.604 150.206L142.569 150.255V150.304V150.346V150.388L134.407 165.585V165.627C134.404 165.641 134.404 165.656 134.407 165.669V165.711C134.404 165.725 134.404 165.74 134.407 165.753C134.405 165.767 134.405 165.782 134.407 165.795C134.22 165.616 133.97 165.519 133.712 165.524C133.453 165.529 133.207 165.637 133.028 165.823C132.849 166.01 132.751 166.26 132.756 166.519C132.762 166.777 132.869 167.023 133.056 167.202ZM154.126 145.747C154.126 145.747 154.161 145.747 154.189 145.747C154.168 145.746 154.147 145.746 154.126 145.747ZM143.206 152.047C143.283 151.97 143.374 151.9 143.465 151.823C143.374 151.9 143.283 151.949 143.206 152.026V152.047ZM134.183 168.448C134.18 168.432 134.18 168.416 134.183 168.399C134.18 168.425 134.18 168.451 134.183 168.476C134.183 168.476 134.183 168.434 134.183 168.427V168.448Z" fill="black"/>
<path opacity="0.15" d="M133.063 167.16C133.061 167.146 133.061 167.132 133.063 167.118C133.06 167.104 133.06 167.09 133.063 167.076V167.034C133.06 167.02 133.06 167.006 133.063 166.992V166.95L141.225 151.753L142.345 153.034L134.288 168.14C134.237 168.227 134.202 168.321 134.183 168.42C134.175 168.449 134.174 168.479 134.18 168.508C134.186 168.537 134.199 168.565 134.218 168.588L133.098 167.307C133.091 167.287 133.091 167.264 133.098 167.244C133.094 167.228 133.094 167.211 133.098 167.195C133.083 167.187 133.071 167.175 133.063 167.16Z" fill="white"/>
<path opacity="0.2" d="M141.351 151.62V151.578V151.529L141.386 151.48L141.421 151.431V151.382L141.456 151.333V151.284L141.491 151.242L141.526 151.2V151.165V151.13L141.645 151.025H141.68H141.722H141.764L141.813 150.99H141.869H141.918L151.305 145.712H151.361H151.41H151.459H151.515H151.564H151.613H151.662H151.711H151.76H151.816H151.872H151.935C151.989 145.713 152.041 145.733 152.082 145.768L153.195 147.049C153.148 146.993 153.057 146.979 152.922 147.007C152.741 147.052 152.569 147.126 152.411 147.224L144.256 151.2C144.069 151.304 143.891 151.424 143.724 151.557C143.546 151.694 143.375 151.842 143.213 151.998C143.055 152.145 142.905 152.302 142.765 152.467C142.651 152.608 142.548 152.758 142.457 152.915L141.337 151.634L141.351 151.62Z" fill="white"/>
<path d="M100.429 122.563C101.206 116.963 105.084 115.808 107.723 115.605C107.723 115.605 111.034 117.88 111.034 128.016L110.754 153.377L112.616 154.154C117.852 156.392 123.323 158.036 128.926 159.054C131.85 156.736 135.485 155.499 139.216 155.554L137.816 158.137C140.441 159.817 146.37 156.786 146.37 156.786C146.804 160.482 144.41 164.318 141.232 166.264C138.054 168.21 107.737 165.354 101.332 161.189C97.09 158.487 98.791 134.463 100.429 122.563Z" fill="#FFA8A7"/>
<path d="M152.782 149.17C152.986 150.168 153.101 151.182 153.125 152.201C152.892 154.624 151.866 156.903 150.206 158.683C149.86 159.073 149.429 159.377 148.946 159.572C148.703 159.665 148.44 159.693 148.184 159.652C147.927 159.611 147.685 159.504 147.483 159.341C147.128 158.914 146.948 158.369 146.979 157.815C146.9 156.994 146.945 156.166 147.112 155.358C147.277 154.538 147.735 153.806 148.4 153.3C148.918 153.005 149.467 152.77 150.038 152.6C150.601 152.362 151.103 152.001 151.508 151.543L152.782 149.17Z" fill="#FFA8A7"/>
<path d="M154.826 90.3629L173.922 79.4009C175.595 78.4419 179.522 79.7439 179.522 82.4319C179.521 82.2143 179.463 82.0007 179.354 81.8124C179.245 81.6241 179.089 81.4677 178.9 81.3586C178.712 81.2496 178.498 81.1918 178.281 81.191C178.063 81.1901 177.849 81.2463 177.66 81.3539L158.557 92.3159C157.93 92.6815 157.426 93.2247 157.108 93.8769L153.398 91.7769C153.734 91.1823 154.228 90.6927 154.826 90.3629Z" fill="#0B568D"/>
<path d="M157.143 93.8765C156.873 94.3934 156.729 94.9666 156.723 95.5495V109.732C156.723 109.949 156.779 110.163 156.887 110.351C156.996 110.54 157.152 110.697 157.339 110.806C157.527 110.915 157.741 110.973 157.958 110.974C158.176 110.974 158.389 110.918 158.578 110.81C158.028 111.146 157.399 111.331 156.755 111.348C156.11 111.365 155.473 111.213 154.906 110.906C154.339 110.599 153.862 110.148 153.524 109.6C153.186 109.051 152.997 108.423 152.978 107.779V93.5965C152.979 92.956 153.145 92.3266 153.461 91.7695L157.143 93.8765Z" fill="#0B568D"/>
<path opacity="0.4" d="M154.826 90.3629L173.922 79.4009C175.595 78.4419 179.522 79.7439 179.522 82.4319C179.521 82.2143 179.463 82.0007 179.354 81.8124C179.245 81.6241 179.089 81.4677 178.9 81.3586C178.712 81.2496 178.498 81.1918 178.281 81.191C178.063 81.1901 177.849 81.2463 177.66 81.3539L158.557 92.3159C157.93 92.6815 157.426 93.2247 157.108 93.8769L153.398 91.7769C153.734 91.1823 154.228 90.6927 154.826 90.3629Z" fill="white"/>
<path opacity="0.2" d="M157.143 93.8765C156.873 94.3934 156.729 94.9666 156.723 95.5495V109.732C156.723 109.949 156.779 110.163 156.887 110.351C156.996 110.54 157.152 110.697 157.339 110.806C157.527 110.915 157.741 110.973 157.958 110.974C158.176 110.974 158.389 110.918 158.578 110.81C158.028 111.146 157.399 111.331 156.755 111.348C156.11 111.365 155.473 111.213 154.906 110.906C154.339 110.599 153.862 110.148 153.524 109.6C153.186 109.051 152.997 108.423 152.978 107.779V93.5965C152.979 92.956 153.145 92.3266 153.461 91.7695L157.143 93.8765Z" fill="white"/>
<path d="M177.695 81.3543L158.592 92.3163C158.024 92.6436 157.552 93.1148 157.224 93.6826C156.896 94.2504 156.723 94.8946 156.723 95.5503V109.732C156.723 109.95 156.779 110.163 156.888 110.352C156.996 110.541 157.152 110.697 157.34 110.807C157.528 110.916 157.741 110.974 157.958 110.974C158.176 110.975 158.39 110.918 158.578 110.81L177.681 99.8973C178.25 99.5704 178.723 99.0994 179.053 98.5317C179.382 97.964 179.556 97.3196 179.557 96.6633V82.4323C179.556 82.2147 179.498 82.0012 179.389 81.8129C179.28 81.6246 179.124 81.4681 178.935 81.3591C178.747 81.2501 178.534 81.1922 178.316 81.1914C178.098 81.1906 177.884 81.2468 177.695 81.3543Z" fill="#0B568D"/>
<path d="M152.124 102.781L156.716 103.642V97.7549L151.963 102.242C151.921 102.282 151.89 102.333 151.875 102.389C151.86 102.446 151.861 102.505 151.878 102.561C151.894 102.617 151.926 102.667 151.97 102.706C152.013 102.745 152.067 102.771 152.124 102.781Z" fill="#0B568D"/>
<path d="M156.716 97.7546L152.95 95.5986L148.204 100.135C148.168 100.169 148.141 100.211 148.124 100.257C148.107 100.304 148.102 100.354 148.108 100.403C148.114 100.452 148.132 100.499 148.159 100.54C148.187 100.581 148.224 100.615 148.267 100.639L152.019 102.739L156.716 97.7546Z" fill="#0B568D"/>
<path opacity="0.2" d="M156.716 97.7546L152.95 95.5986L148.204 100.135C148.168 100.169 148.141 100.211 148.124 100.257C148.107 100.304 148.102 100.354 148.108 100.403C148.114 100.452 148.132 100.499 148.159 100.54C148.187 100.581 148.224 100.615 148.267 100.639L152.019 102.739L156.716 97.7546Z" fill="white"/>
<path d="M174.79 85.9386C175.259 85.6656 175.588 86.2046 175.161 86.8836C172.089 91.7335 169.402 96.8171 167.125 102.088C166.892 102.682 166.475 103.187 165.935 103.53C165.77 103.66 165.565 103.731 165.354 103.731C165.143 103.731 164.939 103.66 164.773 103.53C163.64 102.452 162.402 101.491 161.077 100.66C160.713 100.429 161.014 99.5816 161.483 99.3086C161.539 99.2751 161.601 99.2514 161.665 99.2386C163.049 98.9642 164.468 98.924 165.865 99.1196C168.194 94.466 171.093 90.1205 174.496 86.1836C174.579 86.0851 174.678 86.0021 174.79 85.9386Z" fill="white"/>
</svg>
