<svg width="49" height="49" viewBox="0 0 49 49" fill="none" xmlns="http://www.w3.org/2000/svg">
<rect x="0.540161" y="0.420166" width="48" height="48" rx="24" fill="#FEDBD7"/>
<g clip-path="url(#clip0_13289_16648)">
<path d="M27.5698 10.4233C27.7497 10.5433 27.8097 10.7233 27.8097 10.9033C27.8097 11.3232 27.8097 11.7432 27.8097 12.1631C27.9297 12.2831 27.8697 12.4031 27.8697 12.5231C27.8697 14.5028 27.8697 16.4826 27.8697 18.5223C27.8697 19.0623 27.6897 19.2423 27.0898 19.3022C25.71 19.3022 24.3302 19.3022 22.9503 19.3022C22.6504 19.3022 22.4104 19.3622 22.2304 19.7222C22.0504 20.0821 21.8105 20.4421 21.6305 20.8021C21.3905 21.222 21.0306 21.222 20.7906 20.8021C20.5506 20.4421 20.3706 20.0821 20.1307 19.7222C20.0107 19.4822 19.8307 19.3622 19.5307 19.3622C18.1509 19.3622 16.7111 19.3622 15.3313 19.3622C15.2113 19.3622 14.9713 19.4222 14.9113 19.2423C15.0313 19.1223 15.1513 19.1823 15.2713 19.1823C15.5712 19.1823 15.8112 19.1823 16.1112 19.1823C16.2911 19.1823 16.4111 19.1823 16.3511 18.9423C16.2911 18.7023 16.3511 18.4623 16.3511 18.2224C16.3511 18.1024 16.3511 18.0424 16.4111 17.9824C16.4711 17.9224 16.5911 17.9224 16.7111 17.9224C17.491 17.9224 18.2109 17.9224 18.9908 17.9224C19.5907 17.9224 20.1907 17.9224 20.7306 17.9224C22.4704 17.9224 24.2102 17.9224 26.0099 17.9224C26.1299 17.9224 26.2499 17.9224 26.3099 17.8024C26.3699 17.6824 26.2499 17.5625 26.1899 17.5025C25.35 16.3626 24.5701 15.2227 23.7302 14.0829C23.5502 13.7229 23.3103 13.423 23.0703 13.123C22.8303 12.823 22.7703 12.823 22.5904 13.123C22.1104 13.8429 21.5705 14.5628 21.0306 15.2827C20.9706 15.2227 20.9106 15.4027 20.7906 15.5227C20.6106 15.5227 20.5506 15.3427 20.4306 15.2227C20.0707 14.7428 19.7107 14.2029 19.3508 13.7229C19.1108 13.423 19.0508 13.423 18.8108 13.7229C18.1509 14.6828 17.431 15.6427 16.7711 16.6026C16.7111 16.6626 16.6511 17.0225 16.4111 16.7226C16.4111 15.6427 16.3511 14.6228 16.4111 13.543C16.4711 13.423 16.5911 13.423 16.7111 13.483C16.8911 13.483 17.0111 13.483 17.191 13.423C17.9109 13.063 17.9109 12.2831 17.251 11.8032C17.071 11.6832 16.8911 11.6832 16.7111 11.6832C16.5911 11.6832 16.5311 11.6832 16.4711 11.6232C16.4111 11.3232 16.4111 11.0233 16.4111 10.7233C16.4111 10.5433 16.5311 10.4833 16.6511 10.4233C20.3106 10.4233 23.9702 10.4233 27.5698 10.4233Z" fill="#26A5FD"/>
<path d="M16.5311 17.8624C16.5911 18.2824 16.4711 18.7023 16.5911 19.1223C16.0512 19.1223 15.5112 19.1223 14.9713 19.1223C14.7913 19.1823 14.7313 19.0623 14.6713 18.9423C14.6113 18.8223 14.6113 18.6423 14.6113 18.4623C14.6113 17.5625 14.6113 16.6626 14.6113 15.7627C14.6113 15.6427 14.6113 15.4627 14.7313 15.3427C14.7313 13.9029 14.7313 12.4031 14.7313 10.9633C14.7313 10.7233 14.7313 10.5433 14.9713 10.4233C15.5712 10.4233 16.1111 10.4233 16.7111 10.4233C16.4711 10.6033 16.5311 10.8433 16.5311 11.0833C16.5311 11.2632 16.5311 11.4432 16.5311 11.6232C16.5311 11.7432 16.4711 11.7432 16.4111 11.8032C15.8712 12.2231 15.8112 12.823 16.3511 13.303C16.4111 13.363 16.5311 13.423 16.5311 13.483C16.5311 14.5628 16.5311 15.7027 16.5311 16.7826C16.5911 16.9625 16.4111 17.0825 16.3511 17.2025C16.2911 17.2625 16.2911 17.3225 16.2311 17.3825C16.1111 17.6225 16.1111 17.6824 16.3511 17.7424C16.4111 17.8024 16.4711 17.8024 16.5311 17.8624Z" fill="#0592FB"/>
<path d="M14.7313 15.3427C14.7313 16.4226 14.7313 17.5024 14.7313 18.6423C14.7313 18.8823 14.7313 19.0622 14.9713 19.1822C15.0913 19.2422 15.2113 19.2422 15.3313 19.2422C16.7711 19.2422 18.2709 19.2422 19.7107 19.2422C19.9507 19.2422 20.1307 19.3022 20.2506 19.5422C20.4906 19.9621 20.7306 20.3821 20.9706 20.802C21.2105 21.162 21.3905 21.162 21.6305 20.802C21.8704 20.3821 22.1704 19.9621 22.3504 19.4822C22.4704 19.3022 22.5304 19.2422 22.7103 19.2422C24.2102 19.2422 25.65 19.2422 27.1498 19.2422C27.6897 19.2422 27.8097 19.1822 27.8097 18.5823C27.8097 16.5425 27.8097 14.5628 27.8097 12.523C27.8097 12.4031 27.8097 12.2831 27.8097 12.1631C28.3496 12.2831 28.8296 12.463 29.3095 12.643C29.3695 12.703 29.4895 12.703 29.5495 12.703C29.6695 12.823 29.6695 12.943 29.6695 13.063C29.6695 13.5429 29.6695 14.0229 29.6695 14.5028C29.6695 14.6228 29.6695 14.6828 29.6695 14.8028C29.7295 14.9827 29.7895 15.1027 29.9694 15.1027C30.1494 15.1027 30.2694 14.9827 30.3294 14.8028C30.3894 14.6228 30.3294 14.3828 30.3294 14.1428C30.3294 13.8429 30.3294 13.6029 30.3294 13.3029C30.3294 13.183 30.3894 13.003 30.5694 13.123C31.4093 13.6029 32.1892 14.0828 32.9091 14.6228C34.1089 15.5827 35.1888 16.6625 36.0287 17.9224C36.0287 17.9824 36.0887 17.9824 36.1487 18.0424C36.3287 18.3423 36.2687 18.6423 36.2087 19.0022C36.2087 19.1222 36.0287 19.1222 35.9087 19.1222C35.6088 19.1222 35.3088 19.1222 35.0088 19.1222C34.8888 19.1222 34.7689 19.1222 34.7089 19.1222C34.4689 19.1222 34.2889 19.3022 34.2889 19.4822C34.2889 19.6622 34.4089 19.7821 34.7089 19.8421C34.9488 19.8421 35.1288 19.8421 35.3688 19.8421C35.6088 19.8421 35.7887 19.8421 36.0287 19.8421C36.3887 19.8421 36.8086 19.9021 37.1086 19.6022C37.5885 20.682 38.0085 21.7619 38.2484 22.9018C38.3684 23.5617 38.4884 24.1616 38.5484 24.8215C38.6084 25.3615 38.6084 25.9014 38.6084 26.5013C38.5484 27.7612 38.3684 28.961 37.9485 30.1609C37.7685 30.2209 37.5885 30.2209 37.4685 30.2209C35.7287 30.2209 33.989 30.2209 32.2492 30.2209C32.1292 30.2209 32.0092 30.2209 31.8892 30.1609C31.7692 30.0409 31.7692 29.8609 31.7692 29.6809C31.7692 27.3412 31.7692 25.0615 31.7692 22.7218C31.7692 22.6018 31.7692 22.4818 31.7692 22.3618C31.7692 22.0619 31.5892 21.9419 31.3493 21.8219C30.8693 21.7019 30.8693 21.7019 30.8093 21.162C30.6894 20.682 30.5694 20.622 29.9095 20.622C29.6095 20.622 29.3095 20.622 29.0096 20.622C28.7096 20.622 28.4696 20.742 28.4096 21.042C28.3496 21.162 28.3496 21.222 28.3496 21.342C28.3496 21.6419 28.2897 21.7019 27.9897 21.7019C27.6897 21.7019 27.6297 21.6419 27.6297 21.342C27.6297 21.282 27.6297 21.162 27.6297 21.102C27.5098 20.682 27.3898 20.622 26.9698 20.622C26.9098 20.622 26.7898 20.622 26.7298 20.622C26.4299 20.622 26.1299 20.622 25.83 20.622C25.47 20.622 25.23 20.802 25.23 21.222C25.23 21.4019 25.29 21.5819 25.1101 21.7019C25.0501 21.7619 24.9301 21.7619 24.8101 21.7619C23.7302 21.7619 22.6504 21.7619 21.5705 21.7619C21.5105 21.7619 21.4505 21.7619 21.3905 21.7619C21.2705 21.7619 21.2105 21.6419 21.1505 21.5819C20.9106 21.282 20.6106 21.162 20.2506 21.162C20.0707 21.162 19.8307 21.162 19.6507 21.162C19.5307 21.162 19.4108 21.162 19.2908 21.042C19.1708 20.5021 19.1708 20.5021 18.5709 20.5021C16.6511 20.5021 14.6713 20.5021 12.7516 20.5021C12.3316 20.5021 11.9117 20.5021 11.4917 20.5021C11.3717 20.5021 11.1918 20.5021 11.1318 20.3821C11.6117 19.3022 12.1516 18.2823 12.8716 17.3824C13.4115 16.6625 14.0114 15.9426 14.7313 15.3427Z" fill="#C3E1FE"/>
<path d="M20.9706 39.8197C20.1307 39.6397 19.4108 39.3997 18.6309 39.0398C16.8311 38.2599 15.3313 37.18 13.9514 35.8002C12.8116 34.6003 11.9117 33.2805 11.2518 31.7807C11.0118 31.2407 10.8318 30.7008 10.6519 30.1609C10.7118 30.0409 10.8318 30.0409 10.9518 30.0409C12.8116 30.0409 14.6714 30.0409 16.5311 30.0409C16.5911 30.0409 16.6511 30.0409 16.7111 30.0409C16.7711 30.0409 16.8311 30.1009 16.8911 30.1609C17.191 30.4608 17.551 30.5808 17.971 30.5808C18.3909 30.5808 18.8108 30.5808 19.2308 30.5808C19.2908 30.5808 19.4108 30.5808 19.4708 30.5808C20.1307 30.5808 20.7906 30.5808 21.4505 30.5808C21.6305 30.7008 21.6305 30.8808 21.6305 31.0608C21.7505 31.7207 22.1704 32.2006 22.7704 32.5006C22.9503 32.5606 23.0703 32.5606 23.2503 32.6206C23.3103 32.6806 23.4303 32.6806 23.4303 32.7406C23.4303 32.8006 23.4903 32.8605 23.4903 32.9205C23.4903 34.0004 23.4903 35.0803 23.4903 36.1601C23.4903 36.4001 23.3703 36.4601 23.1903 36.4601C22.8903 36.4601 22.6504 36.4601 22.3504 36.4601C21.7505 36.4601 21.5705 36.6401 21.4505 37.18C21.3305 37.8999 21.1506 38.6198 21.0306 39.3397C21.0906 39.5197 21.0906 39.6997 20.9706 39.8197Z" fill="#FEE4C1"/>
<path d="M31.8892 30.1609C33.869 30.1609 35.9087 30.1609 37.8885 30.1609C37.3485 31.9007 36.5086 33.5205 35.3688 34.9003C33.9889 36.6401 32.3091 37.9599 30.3294 38.8598C29.4895 39.2798 28.5896 39.5797 27.6297 39.7597C27.5097 39.6997 27.5097 39.5197 27.4497 39.3997C27.3298 38.6798 27.1498 37.9599 27.0298 37.18C26.9098 36.6401 26.7298 36.4601 26.1299 36.4601C25.8299 36.4601 25.53 36.4601 25.29 36.4601C25.11 36.4601 24.9901 36.4001 24.9901 36.2201C24.9901 35.6802 24.9901 35.2003 24.9901 34.6603C24.9901 34.6003 24.9901 34.5403 25.05 34.5403C25.23 34.4204 25.41 34.4804 25.59 34.4804C25.71 34.4804 25.8299 34.4804 25.9499 34.4804C26.3099 34.5403 26.5499 34.4204 26.6698 34.0604C26.7298 34.0604 26.7298 34.0004 26.7898 34.0004C27.5697 34.0004 28.3496 34.0004 29.1295 34.0004C29.1895 34.0004 29.2495 34.0004 29.3095 34.0604C29.4295 34.4804 29.7295 34.4804 30.0894 34.4804C31.4693 34.4804 32.8491 34.4804 34.2289 34.4804C34.6489 34.4804 34.7089 34.4204 34.7688 34.0004C34.7688 33.7005 34.7688 33.4005 34.7688 33.1005C34.7688 32.7406 34.7089 32.6806 34.2889 32.6806C33.149 32.6806 31.9492 32.6806 30.8093 32.6806C30.7493 32.6806 30.6294 32.6806 30.5694 32.6806C30.3294 32.6806 30.0894 32.6806 29.8495 32.6806C29.6095 32.6806 29.4295 32.7406 29.4295 32.9805C29.4295 33.0405 29.3695 33.0405 29.3695 33.1005C29.3095 33.1605 29.2495 33.1605 29.1895 33.1605C28.4096 33.1605 27.6897 33.1605 26.9098 33.1605C26.8498 33.1605 26.7898 33.1605 26.7898 33.1605C26.6698 32.8006 26.3699 32.6806 26.0099 32.6806C25.8899 32.5606 26.0099 32.5006 26.1299 32.4406C26.6099 32.0807 26.8498 31.6007 26.9698 31.0608C27.0298 30.7008 27.0898 30.7008 27.3898 30.7008C28.5296 30.7008 29.6695 30.7008 30.8693 30.7008C31.1693 30.5808 31.5892 30.5808 31.8892 30.1609Z" fill="#FEE4C1"/>
<path d="M16.7711 30.161C14.7313 30.161 12.6916 30.161 10.6518 30.161C10.4119 29.4411 10.2319 28.6611 10.1119 27.8812C9.99192 26.9814 9.93193 26.1415 9.99192 25.3016C10.0519 23.9817 10.2319 22.6619 10.7118 21.462C10.8318 21.582 10.8318 21.762 10.8318 21.882C10.8318 23.0818 10.8318 24.3417 10.8318 25.5415C10.8318 25.7215 10.8318 25.9015 10.9518 26.0215C11.0718 26.0815 11.1918 26.0815 11.3717 26.0815C12.5116 26.0815 13.6515 25.9615 14.7313 26.0215C15.2113 26.0215 15.6912 26.0215 16.2311 26.0215C16.3511 26.0215 16.5311 26.0215 16.6511 26.0815C16.7711 26.2015 16.7111 26.3814 16.7111 26.5014C16.7111 27.4613 16.7111 28.4212 16.7111 29.3211C16.7111 29.621 16.8311 29.861 16.7711 30.161Z" fill="#C3E1FE"/>
<path d="M24.9901 34.5404C24.9901 35.0803 24.9901 35.6203 24.9901 36.1602C24.9901 36.4002 25.0501 36.4602 25.29 36.4602C25.59 36.4602 25.95 36.4602 26.2499 36.4602C26.6699 36.4602 26.9698 36.7001 27.0298 37.1201C27.2098 38.02 27.3898 38.9198 27.5698 39.8197C27.0898 39.9997 26.6099 39.9997 26.1299 40.1197C26.01 39.9997 26.01 39.8797 26.01 39.7597C25.89 39.2798 25.83 38.7999 25.71 38.3199C25.71 38.1999 25.65 38.02 25.47 38.02C25.23 38.02 25.1101 38.0799 25.1101 38.3199C25.1101 38.8599 25.1101 39.3998 25.1101 39.9397C25.1101 40.0597 25.1701 40.2397 24.9301 40.2397C24.8701 40.1197 24.8701 39.9997 24.8701 39.8197C24.8701 39.3398 24.8701 38.8599 24.8701 38.3799C24.8701 38.1399 24.7501 38.02 24.5701 38.0799C24.3902 38.0799 24.2102 38.0799 23.9702 38.0799C23.7302 38.0799 23.6702 38.1399 23.6702 38.3799C23.6702 38.8599 23.6702 39.3398 23.6702 39.8197C23.6702 39.9397 23.6702 40.1197 23.6102 40.2397C23.4303 40.2997 23.4303 40.1197 23.4303 39.9997C23.4303 39.5798 23.4303 39.1598 23.4303 38.7999C23.4303 38.6799 23.4303 38.4999 23.4303 38.3799C23.4303 38.1999 23.4303 38.0799 23.1903 38.0799C23.0103 38.0799 22.8903 38.0799 22.8303 38.3199C22.7104 38.7999 22.6504 39.2798 22.5304 39.8197C22.5304 39.9397 22.4704 40.1197 22.3504 40.2397C21.8705 40.1797 21.3905 40.1197 20.9106 39.9397C21.0906 39.0398 21.2705 38.1399 21.4505 37.2401C21.5105 36.8201 21.8105 36.5801 22.2304 36.5801C22.5304 36.5801 22.8903 36.5801 23.1903 36.5801C23.4303 36.5801 23.4903 36.5201 23.4903 36.2802C23.4903 35.1403 23.4903 34.0005 23.4903 32.8606C23.5503 32.8606 23.5503 32.8606 23.6102 32.9206C23.6702 33.0406 23.6702 33.2206 23.6702 33.3405C23.6702 34.2404 23.6702 35.1403 23.6702 36.0402C23.6702 36.4002 23.6702 36.4002 24.0302 36.4002C24.2102 36.4002 24.3302 36.4002 24.5101 36.4002C24.8101 36.4002 24.8701 36.3402 24.8701 36.0402C24.8701 35.6802 24.8701 35.3203 24.8701 35.0203C24.8701 34.9003 24.8701 34.7804 24.9301 34.6604C24.9301 34.5404 24.9901 34.5404 24.9901 34.5404Z" fill="#9EABEC"/>
<path d="M10.9518 26.1414C10.7719 26.0814 10.7719 25.9015 10.7719 25.7215C10.7719 24.4016 10.7719 23.0818 10.7719 21.762C10.7719 21.642 10.7719 21.522 10.7719 21.462C10.7719 21.222 10.7719 20.9821 10.7719 20.8021C10.7719 20.5621 10.8318 20.4421 11.1318 20.4421C11.6717 20.4421 12.2117 20.4421 12.7516 20.4421C12.6916 20.7421 12.8116 21.0421 12.6316 21.342C12.5716 21.342 12.5716 21.342 12.5116 21.342C12.3917 21.282 12.2117 21.222 12.0917 21.282C11.8517 21.402 11.6117 21.642 11.6717 21.882C11.7317 22.1819 11.9717 22.3619 12.2717 22.3619C12.3917 22.3619 12.4516 22.3019 12.5716 22.3019C12.6316 22.3019 12.6916 22.3019 12.6916 22.3619C12.7516 22.7818 12.7516 23.2018 12.6916 23.6217C12.5716 23.9817 12.3317 24.2217 12.0917 24.5216C12.0317 24.7016 11.9117 24.8216 11.7917 25.0016C11.6717 25.1816 11.7317 25.2415 11.9117 25.2415C12.0317 25.2415 12.2117 25.2415 12.3317 25.2415C12.4516 25.2415 12.5716 25.2415 12.6316 25.3615C12.7516 26.1414 12.7516 26.1414 11.9717 26.1414C11.6717 26.1414 11.3118 26.2014 10.9518 26.1414Z" fill="#81B723"/>
<path d="M37.0489 13.7831C37.0489 14.0831 37.0489 14.3831 37.0489 14.6831C37.0489 15.0431 36.8689 15.2231 36.6289 15.2231C36.3289 15.2231 36.2089 15.0431 36.2089 14.6831C36.2089 14.2631 36.2089 13.7831 36.2089 13.3631C36.2089 13.1831 36.1489 13.1231 35.9689 13.1231C35.5489 13.1231 35.1289 13.1231 34.7089 13.1231C34.3489 13.1231 34.1689 12.9431 34.1689 12.7031C34.1689 12.4631 34.3489 12.2831 34.7089 12.2831C35.3089 12.2831 35.9089 12.2831 36.5089 12.2831C36.8689 12.2831 37.0489 12.4631 37.0489 12.8231C37.0489 13.1231 37.0489 13.4831 37.0489 13.7831Z" fill="#FD646F"/>
<path d="M37.0489 19.6026C36.9289 19.8426 36.7489 19.9626 36.5089 19.9626C35.9089 19.9626 35.3089 19.9626 34.7089 19.9626C34.4089 19.9626 34.1689 19.7826 34.1689 19.5426C34.1689 19.3026 34.3489 19.1226 34.7089 19.1226C35.1289 19.1226 35.5489 19.1226 35.9689 19.1226C36.1489 19.1226 36.2089 19.0626 36.2089 18.8826C36.2089 18.6426 36.2089 18.4026 36.2089 18.1026C36.2089 17.9226 36.2089 17.6826 36.2089 17.5026C36.2089 17.2026 36.3889 17.0226 36.6289 17.0226C36.8689 17.0226 37.0489 17.2026 37.0489 17.5026C37.0489 18.2226 37.0489 18.9426 37.0489 19.6026Z" fill="#FD646F"/>
<path d="M30.5695 13.1831C30.3895 13.1231 30.3895 13.2431 30.3895 13.3631C30.3895 13.7831 30.3895 14.2631 30.3895 14.6831C30.3895 15.0431 30.2695 15.2231 29.9695 15.2231C29.6695 15.2231 29.5495 15.0431 29.5495 14.6831C29.5495 14.0231 29.5495 13.3631 29.5495 12.7031C29.6095 12.4031 29.7895 12.2831 30.0895 12.2831C30.6895 12.2831 31.2895 12.2831 31.8895 12.2831C32.1895 12.2831 32.3695 12.4631 32.4295 12.7031C32.4295 13.0031 32.2495 13.1231 31.8895 13.1231C31.4695 13.1831 31.0495 13.1831 30.5695 13.1831Z" fill="#FD646F"/>
<path d="M23.5502 40.12C23.5502 39.46 23.5502 38.8 23.5502 38.14C23.5502 37.9 23.6102 37.84 23.8502 37.84C24.1502 37.84 24.3902 37.84 24.6902 37.84C24.9302 37.84 24.9902 37.9 24.9902 38.14C24.9902 38.8 24.9902 39.46 24.9902 40.12C24.9902 40.12 24.9902 40.12 24.9902 40.18C24.5102 40.18 24.0302 40.18 23.5502 40.12C23.5502 40.18 23.5502 40.18 23.5502 40.12Z" fill="#8C9BDA"/>
<path d="M24.9301 40.18C25.0501 40 24.9901 39.88 24.9901 39.76C24.9901 39.22 24.9901 38.68 24.9901 38.08C24.9901 37.9 25.0501 37.84 25.2301 37.84C25.7101 37.84 25.7101 37.84 25.7701 38.26C25.8901 38.86 26.0101 39.46 26.0701 40C25.7101 40.12 25.3501 40.12 24.9301 40.18Z" fill="#FDE4C1"/>
<path d="M23.5504 40.12C23.5504 40.18 23.5504 40.18 23.5504 40.12C23.1904 40.12 22.7704 40.06 22.3504 40.06C22.4704 39.4 22.5904 38.74 22.7104 38.08C22.7104 37.96 22.8304 37.84 22.9504 37.9C23.5504 37.9 23.4304 37.84 23.4304 38.38C23.4304 38.86 23.4304 39.4 23.4304 39.88C23.4904 39.94 23.4904 40.06 23.5504 40.12Z" fill="#FDE4C1"/>
<path d="M23.8502 13.8429C24.6901 15.0427 25.59 16.2426 26.4299 17.4424C26.4899 17.5024 26.5499 17.6224 26.4899 17.6824C26.4299 17.8024 26.3099 17.8024 26.1899 17.8024C24.6301 17.8024 23.0703 17.8024 21.5105 17.8024C21.2705 17.8024 21.0906 17.8024 20.8506 17.8024C20.8506 17.6824 20.9106 17.5624 20.9706 17.5024C21.8105 16.3626 22.6504 15.1627 23.4903 14.0229C23.6102 13.9629 23.6102 13.7829 23.8502 13.8429Z" fill="#FEFEFE"/>
<path d="M16.5312 17.863C16.3512 17.803 16.1112 17.923 16.0512 17.743C15.9912 17.563 16.1712 17.443 16.2312 17.323C16.2912 17.143 16.4112 17.023 16.5312 16.843C17.1912 15.943 17.7912 15.043 18.4512 14.203C18.5712 14.023 18.7512 13.783 18.8712 13.603C19.0512 13.423 19.1712 13.423 19.2912 13.603C19.7112 14.143 20.0712 14.743 20.4912 15.283C20.5512 15.343 20.6112 15.523 20.7312 15.523C20.7912 15.583 20.7312 15.643 20.6712 15.703C20.1912 16.423 19.6512 17.083 19.1712 17.803C19.1112 17.863 19.0512 17.923 19.0512 17.923C18.2112 17.863 17.3712 17.863 16.5312 17.863Z" fill="#D7EBFD"/>
<path d="M19.0508 17.8625C19.3507 17.3225 19.7707 16.8426 20.1306 16.3027C20.3106 16.0027 20.5506 15.7627 20.7306 15.4628C21.3905 14.5629 21.9904 13.663 22.6503 12.7631C22.8303 12.5231 22.9503 12.5231 23.0703 12.7631C23.3103 13.1231 23.5502 13.483 23.7902 13.843C23.4902 13.903 23.4302 14.2029 23.3103 14.3829C22.4704 15.5228 21.6905 16.6626 20.8506 17.8625C20.3106 17.8625 19.6507 17.8625 19.0508 17.8625Z" fill="#F4F7F8"/>
<path d="M16.5312 13.4832C15.8712 13.0632 15.7512 12.4632 16.1112 11.9832C16.2312 11.8032 16.4112 11.7432 16.5312 11.6232C16.8312 11.5632 17.0712 11.5032 17.3712 11.7432C17.1312 11.9832 16.8312 12.1632 16.8312 12.5232C16.8312 12.8232 16.9512 13.0032 17.1312 13.2432C17.1912 13.3032 17.2512 13.3632 17.3112 13.4232C17.0112 13.6032 16.7712 13.5432 16.5312 13.4832Z" fill="#F4F7F8"/>
<path d="M17.3111 13.4232C16.6511 13.0632 16.5911 12.2832 17.1311 11.8032C17.1911 11.7432 17.3111 11.6832 17.3711 11.6832C17.7311 11.8632 17.9111 12.1632 17.8511 12.5232C17.8511 13.0032 17.6711 13.3032 17.3111 13.4232Z" fill="#FEFEFE"/>
<path d="M31.8892 30.1609C31.7692 30.5809 31.5893 30.7009 31.1693 30.7009C29.9095 30.7009 28.6496 30.7009 27.3898 30.7009C27.0898 30.7009 26.9099 30.7009 26.8499 31.0608C26.7299 30.8209 26.5499 30.8209 26.3099 30.8209C25.35 30.8209 24.3902 30.8209 23.4303 30.8209C22.9503 30.8209 22.4104 30.8209 21.9305 30.8209C21.8105 30.8209 21.6905 30.8209 21.6305 30.7609C20.9106 30.7609 20.2507 30.7609 19.5308 30.7609C19.5908 30.5809 19.7107 30.6409 19.8307 30.6409C20.1907 30.6409 20.5506 30.6409 20.9106 30.6409C21.2705 30.6409 21.2705 30.6409 21.2705 30.2809C21.2705 29.561 21.2705 28.8411 21.2705 28.1212C21.2705 26.0814 21.2705 24.1017 21.2705 22.0619C21.2705 22.0019 21.2705 21.882 21.3305 21.822C22.5904 21.822 23.8502 21.822 25.1101 21.822C25.2901 21.702 25.47 21.762 25.65 21.762C25.89 21.762 26.07 21.762 26.3099 21.762C26.6099 21.762 26.9099 21.762 27.2098 21.762C27.4498 21.762 27.6298 21.702 27.5698 21.462C27.5698 21.402 27.5698 21.342 27.6298 21.282C27.6898 21.402 27.6898 21.522 27.6898 21.642C27.6898 21.822 27.7497 21.882 27.9297 21.882C28.1697 21.882 28.2897 21.822 28.2297 21.582C28.2297 21.462 28.1697 21.342 28.2897 21.222C28.4697 21.402 28.3497 21.582 28.4097 21.762C28.7096 21.942 29.0696 21.822 29.3695 21.822C29.6695 21.822 30.0295 21.762 30.3294 21.762C30.5694 21.762 30.7494 21.702 30.6894 21.462C30.6894 21.402 30.6894 21.342 30.7494 21.282L30.8094 21.342C30.7494 21.762 30.9294 21.882 31.3493 21.942C31.7093 21.942 31.8292 22.1819 31.8292 22.6019C31.8292 25.0616 31.8292 27.5213 31.8292 29.981C31.8892 29.861 31.8892 30.041 31.8892 30.1609Z" fill="#9EABEC"/>
<path d="M21.2705 21.7019C21.3305 21.8219 21.3305 22.0019 21.3305 22.1819C21.3305 24.8815 21.3305 27.5812 21.3305 30.2808C21.3305 30.5208 21.2705 30.6408 20.9706 30.6408C20.4906 30.6408 19.9507 30.5808 19.4707 30.7008C19.4107 30.7008 19.2908 30.7008 19.2308 30.7008C18.6908 30.5208 18.3909 30.2209 18.3909 29.6209C18.3909 29.261 18.3909 28.901 18.3909 28.5411C18.3909 28.4211 18.3909 28.3011 18.4509 28.1811C18.5109 28.1211 18.6308 28.1811 18.6908 28.1811C19.1708 28.2411 19.6507 27.9411 19.6507 27.4612C19.7107 26.3813 19.6507 25.2415 19.6507 24.1616C19.6507 23.6217 19.1708 23.3217 18.6908 23.4417C18.6308 23.4417 18.5708 23.5017 18.4509 23.4417C18.3909 23.3217 18.3909 23.2017 18.3909 23.1417C18.3909 22.7818 18.3909 22.4218 18.3909 22.0619C18.3909 21.5819 18.7508 21.162 19.2308 21.042H19.2908C19.5307 21.042 19.8307 21.042 20.0707 21.042C20.6106 21.042 21.0305 21.222 21.2705 21.7019Z" fill="#7A8BCA"/>
<path d="M12.6316 23.6817C12.6316 23.2017 12.6316 22.7818 12.6316 22.3018C12.6316 22.2418 12.6316 22.2419 12.6316 22.1819C12.8116 21.8819 12.6916 21.5819 12.5716 21.282C12.6916 21.162 12.6316 20.982 12.6316 20.802C12.6316 20.682 12.6316 20.5021 12.7516 20.3821C14.8513 20.3821 16.9511 20.3821 18.9908 20.3821C19.2308 20.3821 19.2908 20.5021 19.2908 20.682C19.2908 20.802 19.2908 20.922 19.2908 20.982C18.7508 21.102 18.2709 21.042 17.731 21.042C17.191 21.042 16.7711 21.402 16.7111 21.9419C16.7111 22.0619 16.7111 22.1819 16.6511 22.3018C16.5911 22.4218 16.5311 22.3618 16.4711 22.3018C16.4111 22.2418 16.2911 22.1219 16.2311 22.0019C16.1112 21.8819 15.9912 21.8819 15.9312 22.0019C15.6312 22.4218 15.3313 22.8418 15.0313 23.3217C14.9113 23.4417 14.8513 23.6217 14.6713 23.6817C14.4314 23.5617 14.3714 23.3217 14.1914 23.0817C14.0714 22.9018 13.9514 22.7218 13.8314 22.5418C13.6515 22.3018 13.5915 22.3018 13.4715 22.5418C13.2915 22.8418 13.0515 23.0817 12.8716 23.3817C12.7516 23.5617 12.7516 23.6817 12.6316 23.6817Z" fill="#8AC627"/>
<path d="M29.5495 18.4626C29.5495 18.1626 29.5495 17.8026 29.5495 17.5026C29.5495 17.2026 29.7295 17.0226 29.9695 17.0226C30.2095 17.0226 30.3895 17.2026 30.3895 17.5026C30.3895 17.9226 30.3895 18.3426 30.3895 18.7626C30.3895 19.0626 30.4495 19.0626 30.6895 19.0626C31.1095 19.0626 31.4695 19.0626 31.8895 19.0626C32.1895 19.0626 32.3695 19.2426 32.3695 19.4826C32.3695 19.7226 32.1895 19.9026 31.8895 19.9026C31.2895 19.9026 30.6295 19.9026 30.0295 19.9026C29.6695 19.9026 29.5495 19.7226 29.5495 19.4226C29.5495 19.1226 29.5495 18.8226 29.5495 18.4626Z" fill="#FD646F"/>
<path d="M30.8097 21.1021C30.8097 21.7021 30.8097 21.7021 30.2097 21.7021C29.6697 21.7021 29.1297 21.8221 28.5897 21.7621C28.4697 21.7621 28.4097 21.8221 28.3497 21.7021C28.5897 21.5821 28.8297 21.6421 29.0697 21.6421C29.4297 21.6421 29.4297 21.6421 29.4297 21.2821C29.4297 20.9821 29.5497 20.6821 29.9097 20.6221C30.0897 20.6221 30.2697 20.6221 30.4497 20.6221C30.6297 20.6821 30.8097 20.8621 30.8097 21.1021Z" fill="#7A8BCA"/>
<path d="M27.6299 21.1021C27.5699 21.7021 27.5699 21.7021 26.9699 21.7021C26.7299 21.7021 26.4899 21.7021 26.2499 21.7021C26.0099 21.2221 26.1899 20.7421 26.6699 20.6221C26.8499 20.6221 27.0299 20.6221 27.2099 20.6221C27.4499 20.6821 27.6299 20.8621 27.6299 21.1021Z" fill="#596CA8"/>
<path d="M26.67 20.6221C26.19 20.8621 26.25 21.2821 26.25 21.7021C25.83 21.7021 25.47 21.7021 25.05 21.7021C25.05 21.5221 25.05 21.3421 25.05 21.1621C25.05 20.8021 25.29 20.5621 25.65 20.5621C26.01 20.6221 26.37 20.6221 26.67 20.6221Z" fill="#465A94"/>
<path d="M29.9097 20.6221C29.6097 20.8021 29.4897 21.1021 29.4897 21.4621C29.4897 21.7021 29.4297 21.7621 29.1897 21.7621C28.8897 21.7621 28.5897 21.7621 28.2897 21.7621C28.2897 21.5221 28.2897 21.3421 28.2897 21.1021C28.4097 20.7421 28.5297 20.6221 28.8897 20.6221C29.2497 20.6221 29.5497 20.6221 29.9097 20.6221Z" fill="#596CA9"/>
<path d="M16.6511 22.4818C16.6511 22.3018 16.6511 22.1219 16.6511 21.8819C16.7711 21.4019 17.191 21.042 17.671 21.042C18.2109 21.042 18.7508 21.042 19.2908 21.042C18.9908 21.162 18.6908 21.342 18.5708 21.6419C18.5109 21.7619 18.5109 21.9419 18.5109 22.0619C18.5109 22.4818 18.5109 22.9018 18.5109 23.3217C18.0909 23.7417 18.1509 24.2816 18.1509 24.7615C18.1509 25.3615 18.1509 26.0214 18.1509 26.6213C18.1509 27.1612 18.1509 27.6412 18.5109 28.0611C18.5109 28.4211 18.5708 28.781 18.5109 29.141C18.4509 29.8009 18.6908 30.2209 19.2908 30.5208C18.7508 30.5208 18.2709 30.5208 17.731 30.5208C17.311 30.5208 17.071 30.2809 16.8311 29.9809C16.7111 29.7409 16.7111 29.5009 16.7111 29.201C16.7111 28.1211 16.7111 27.0413 16.7111 25.9614C16.5911 25.7214 16.6511 25.4215 16.6511 25.1215C16.6511 25.0615 16.6511 25.0615 16.6511 25.0015C16.6511 24.1616 16.6511 23.3817 16.6511 22.5418C16.5311 22.6618 16.5311 22.5418 16.6511 22.4818Z" fill="#596CA8"/>
<path d="M21.5705 30.6409C22.1705 30.6409 22.8305 30.6409 23.4305 30.6409C23.4905 30.7009 23.4905 30.7609 23.4905 30.8809C23.5505 31.6009 23.9105 32.1409 24.5705 32.5009C24.6305 32.5609 24.8105 32.5609 24.7505 32.7409C24.3905 32.8609 24.0305 32.8009 23.6105 32.8009C23.4905 32.8009 23.3705 32.8009 23.2505 32.7409C22.3505 32.6209 21.5705 31.7209 21.5705 30.6409Z" fill="#596CA8"/>
<path d="M23.3103 32.6806C23.7303 32.6806 24.0903 32.6806 24.5103 32.6806C24.6303 32.6806 24.6903 32.7406 24.7503 32.6206C25.1103 32.6206 25.4703 32.5006 25.8903 32.5006C26.0103 32.5006 26.0703 32.5006 26.1903 32.5006C26.6103 32.5006 26.6703 32.5606 26.6703 32.9806C26.7903 33.3406 26.7903 33.7006 26.6703 34.1206C26.6703 34.5406 26.6103 34.6006 26.1903 34.6006C25.8303 34.6006 25.4103 34.6006 25.0503 34.6006H24.9903C24.8703 34.4806 24.8703 34.3606 24.8703 34.2406C24.8703 33.8806 24.8703 33.5206 24.8703 33.2206C24.8703 32.9806 24.7503 32.9206 24.5703 32.9206C24.3303 32.9206 24.1503 32.9206 23.9103 32.9206C23.7903 32.9206 23.6703 32.9206 23.6103 32.8606C23.4303 32.7406 23.3703 32.7406 23.3103 32.6806Z" fill="#596CA8"/>
<path d="M30.5094 32.5006C31.8294 32.5006 33.1494 32.5006 34.4694 32.5006C34.7094 32.5006 34.8294 32.6206 34.8294 32.8606C34.8294 33.2206 34.8294 33.5806 34.8294 33.9406C34.7094 34.0606 34.5894 34.0606 34.4694 34.0606C33.3294 34.0606 32.2494 34.0606 31.1094 34.0606C30.5694 34.0606 30.4494 33.9406 30.4494 33.4006C30.4494 33.1006 30.3894 32.8006 30.5094 32.5006Z" fill="#596CA8"/>
<path d="M25.8903 32.5009C25.5303 32.6209 25.1703 32.8009 24.7503 32.6209C23.8503 32.2609 23.3703 31.6009 23.4303 30.6409C24.5103 30.6409 25.5303 30.6409 26.6103 30.6409C26.9103 30.6409 26.8503 30.8209 26.8503 31.0009C26.7903 31.6609 26.4303 32.1409 25.8903 32.5009Z" fill="#7A8BCA"/>
<path d="M30.5094 32.5007C30.5094 32.8606 30.5094 33.1606 30.5094 33.5205C30.5094 33.8805 30.5694 33.9405 30.9293 33.9405C32.1892 33.9405 33.509 33.9405 34.7689 33.9405C34.7689 34.4804 34.7689 34.5404 34.2289 34.5404C32.7291 34.5404 31.2293 34.5404 29.7295 34.5404C29.3095 34.5404 29.2495 34.4804 29.2495 34.0605C29.1295 33.7005 29.1295 33.3406 29.2495 32.9206C29.2495 32.5007 29.3095 32.4407 29.7295 32.4407C30.0294 32.5007 30.2694 32.5007 30.5094 32.5007Z" fill="#465A93"/>
<path d="M29.3099 32.9806C29.3099 33.3406 29.3099 33.7006 29.3099 34.1206C28.4099 34.1206 27.5099 34.1206 26.6699 34.1206C26.6699 33.7606 26.6699 33.4006 26.6699 32.9806C27.5099 32.9806 28.4099 32.9806 29.3099 32.9806Z" fill="#7A8BCA"/>
<path d="M16.6511 25.3015C16.6511 25.6015 16.6511 25.8414 16.6511 26.1414C14.8513 26.1414 13.0515 26.1414 11.3117 26.1414C11.1918 26.1414 11.0718 26.2014 10.9518 26.0814C11.4317 26.0814 11.9117 26.0814 12.3916 26.0814C12.5716 26.0814 12.6916 26.0814 12.6316 25.8414C12.5716 25.6615 12.6316 25.4815 12.6316 25.2415C12.9315 25.0615 13.2915 25.1815 13.6514 25.1815C14.5513 25.1815 15.4512 25.1815 16.4111 25.1815C16.4711 25.2415 16.5311 25.2415 16.6511 25.3015Z" fill="#8AC627"/>
<path d="M23.5502 32.7406C23.9102 32.7406 24.3302 32.7406 24.6902 32.7406C24.9302 32.7406 24.9902 32.8006 24.9902 33.0406C24.9902 33.5206 24.9902 34.0606 24.9902 34.5406C24.9902 35.0806 24.9902 35.6206 24.9902 36.1606C24.9902 36.3406 24.9302 36.4006 24.7502 36.4006C24.4502 36.4006 24.1502 36.4006 23.8502 36.4006C23.6102 36.4006 23.6102 36.3406 23.6102 36.1006C23.5502 35.0206 23.5502 33.8806 23.5502 32.7406Z" fill="#8D9CDA"/>
<path d="M13.5917 25.3018C13.2917 25.3018 12.9317 25.3018 12.6317 25.3018C12.3917 25.3018 12.1517 25.3018 11.8517 25.3018C11.7917 25.3018 11.6717 25.3018 11.6117 25.2418C11.5517 25.1218 11.6117 25.0618 11.6717 25.0018C11.9717 24.5818 12.2717 24.1618 12.5717 23.6818C12.8717 23.3218 13.1117 22.9618 13.4117 22.5418C13.5317 22.3618 13.6517 22.3018 13.8317 22.5418C14.1317 22.9618 14.3717 23.3218 14.6717 23.7418C14.7317 23.8018 14.7317 23.8618 14.6717 23.9218C14.3717 24.3418 14.0717 24.8218 13.7117 25.2418C13.6517 25.2418 13.6517 25.2418 13.5917 25.3018Z" fill="#D7EBFD"/>
<path d="M12.5117 22.362C12.2117 22.542 11.9117 22.542 11.7317 22.302C11.4917 22.062 11.4917 21.762 11.6717 21.462C11.8517 21.222 12.1517 21.102 12.4517 21.282V21.342C12.1517 21.882 12.1517 21.942 12.5117 22.362Z" fill="#F3F7F7"/>
<path d="M12.5117 22.362C12.0317 22.242 12.0317 21.582 12.4517 21.282H12.5117C12.8717 21.642 12.8717 21.882 12.5717 22.302C12.5717 22.302 12.5717 22.362 12.5117 22.362Z" fill="#FDFEFD"/>
<path d="M28.4697 29.021C27.9297 29.381 27.3898 29.681 26.7299 29.741C25.41 29.9209 24.2702 29.501 23.4303 28.4811C22.8304 27.8212 22.5904 27.0413 22.5904 26.2014C22.5904 24.4016 23.9102 22.9018 25.65 22.6618C27.6298 22.3619 29.4895 23.7417 29.7895 25.7214C29.8495 26.3214 29.7895 26.8613 29.6095 27.4612C29.5495 27.8812 29.3096 28.1811 29.0696 28.4811C28.8896 28.6611 28.7696 28.9011 28.4697 29.021Z" fill="#7A8BCA"/>
<path d="M28.4697 29.0212C28.9497 28.5412 29.3697 28.0012 29.6097 27.4012C30.2097 27.7012 30.3297 28.3612 30.0297 28.9012C29.6697 29.3812 29.0097 29.4412 28.4697 29.0212Z" fill="#596CA8"/>
<path d="M30.5095 23.6218C30.2095 23.7418 29.9095 23.6818 29.7895 23.5018C29.6095 23.2618 29.6095 22.9618 29.8495 22.7818C30.0295 22.5418 30.3295 22.5418 30.5695 22.6618C30.4495 22.7818 30.3295 22.9018 30.2695 23.0818C30.2095 23.3218 30.3895 23.4418 30.5095 23.6218Z" fill="#F3F6F8"/>
<path d="M30.5094 23.6219C30.2694 23.5619 30.1494 23.3819 30.1494 23.1419C30.1494 22.9019 30.2694 22.7219 30.5094 22.6619C30.9294 22.9019 30.9294 23.3219 30.5094 23.6219Z" fill="#FEFEFE"/>
<path d="M18.5109 28.1811C18.2109 28.0011 18.0309 27.7012 18.0309 27.3412C18.0309 26.3213 18.0309 25.3014 18.0309 24.2216C18.0309 23.8616 18.1509 23.5617 18.5109 23.3817C19.1108 23.0217 19.8307 23.5017 19.8307 24.2216C19.8307 25.2415 19.8307 26.2613 19.8307 27.3412C19.7707 28.0011 19.0508 28.4811 18.5109 28.1811Z" fill="#9EABEC"/>
<path d="M13.5915 25.3019C13.8915 24.8219 14.2515 24.4019 14.5515 23.9219C14.6115 23.8619 14.6115 23.8019 14.6115 23.7419C15.0315 23.2619 15.3915 22.7219 15.7515 22.1819C15.8115 22.1219 15.8115 22.0619 15.8715 22.0019C15.9915 21.8219 16.1115 21.8219 16.2315 22.0019C16.3515 22.1819 16.4715 22.3019 16.5915 22.4819C16.5915 22.6019 16.5915 22.6619 16.5915 22.7819C16.2915 23.3819 15.8115 23.9219 15.3915 24.5219C15.2715 24.7619 15.0915 24.9419 14.9115 25.1819C15.0315 25.2419 15.0915 25.2419 15.2115 25.2419C15.5715 25.2419 15.8715 25.2419 16.2315 25.2419C16.3515 25.2419 16.4715 25.2419 16.5315 25.3019V25.3619C15.6315 25.3019 14.6115 25.3619 13.5915 25.3019Z" fill="#F4F7F8"/>
<path d="M16.5913 25.2419C15.9913 25.2419 15.4513 25.2419 14.8513 25.2419C14.9113 25.0019 15.0913 24.8219 15.2113 24.6419C15.6313 24.0419 16.0513 23.4419 16.4713 22.9019C16.5313 22.8419 16.5313 22.8419 16.5913 22.7819C16.6513 23.5619 16.6513 24.4019 16.5913 25.2419Z" fill="#FEFEFE"/>
<path d="M26.85 24.2217C27.75 24.6417 28.29 25.3017 28.23 26.2617C28.17 27.1617 27.69 27.8217 26.85 28.1217C26.07 27.7617 25.59 27.1017 25.59 26.2017C25.59 25.3017 26.01 24.6417 26.85 24.2217Z" fill="#596CA8"/>
<path d="M26.8502 24.2216C26.8502 24.3416 26.7302 24.3416 26.6702 24.4016C25.5902 25.0616 25.2902 26.3216 25.9502 27.3416C26.1302 27.5816 26.3102 27.8216 26.6102 28.0016C26.6702 28.0616 26.7902 28.0616 26.7902 28.1816C25.5302 28.6016 24.3902 27.7616 24.0902 26.7416C23.7902 25.6016 24.5102 24.3416 25.7102 24.1616C26.1902 24.0416 26.4902 24.1016 26.8502 24.2216Z" fill="#465A93"/>
</g>
<defs>
<clipPath id="clip0_13289_16648">
<rect width="29.0964" height="30.3563" fill="white" transform="translate(9.99194 10.4233)"/>
</clipPath>
</defs>
</svg>
