<svg width="49" height="50" viewBox="0 0 49 50" fill="none" xmlns="http://www.w3.org/2000/svg">
<rect x="0.0803223" y="0.613525" width="48" height="48" rx="24" fill="#E9F6FD"/>
<g clip-path="url(#clip0_13289_9960)">
<path d="M24.6083 7.17082C23.7763 11.1228 23.2803 15.2348 22.6243 19.2348C17.1043 18.3228 11.6003 17.3948 6.08032 16.4668C6.78432 12.3068 7.48832 8.13083 8.19232 3.97083C13.7603 4.93083 19.1203 5.79482 24.6083 7.17082Z" fill="#0B0C0C"/>
<path d="M12.4323 14.0669C12.4003 14.2429 12.3683 14.4349 12.3363 14.6109C12.2883 14.8829 12.2403 15.1389 12.2083 15.4109C12.2083 15.4429 12.1923 15.4749 12.1923 15.5069C12.1923 15.5389 12.1763 15.5549 12.1603 15.5709C12.1443 15.5869 12.1123 15.5709 12.0963 15.5709C12.0643 15.5709 12.0323 15.5549 12.0003 15.5549C11.7283 15.5069 11.4563 15.4589 11.2003 15.4269C11.0723 15.4109 10.9443 15.3789 10.8323 15.3629C10.7843 15.3469 10.7203 15.3469 10.6723 15.3309C10.6083 15.3149 10.6403 15.2189 10.6403 15.1709C10.6563 15.0589 10.6723 14.9469 10.7043 14.8349C10.7523 14.5629 10.8003 14.2749 10.8483 14.0029C10.8643 13.9389 10.8643 13.8749 10.8803 13.8109C10.8963 13.7309 10.9603 13.7629 11.0243 13.7629C11.2803 13.8109 11.5203 13.8429 11.7763 13.8909C11.9843 13.9229 12.1923 13.9549 12.4003 14.0029C12.4003 14.0029 12.4323 14.0189 12.4323 14.0669C12.4163 14.1629 12.5603 14.1789 12.5763 14.0829C12.5923 13.9709 12.5283 13.8749 12.4163 13.8589C12.4003 13.8589 12.3843 13.8589 12.3523 13.8429C12.2403 13.8269 12.1283 13.8109 12.0323 13.7949C11.7443 13.7469 11.4563 13.6989 11.1683 13.6509C11.1043 13.6349 11.0243 13.6189 10.9603 13.6189C10.8643 13.6029 10.7683 13.6509 10.7363 13.7469C10.7203 13.7789 10.7203 13.7949 10.7203 13.8269C10.6723 14.0669 10.6403 14.3229 10.5923 14.5629C10.5603 14.7869 10.5123 15.0109 10.4803 15.2349C10.4643 15.2989 10.4803 15.3789 10.5283 15.4269C10.5603 15.4589 10.6083 15.4749 10.6563 15.4909C10.7523 15.5069 10.8323 15.5229 10.9283 15.5389C11.2163 15.5869 11.5043 15.6349 11.8083 15.6829C11.9043 15.6989 11.9843 15.7149 12.0803 15.7309C12.1283 15.7309 12.1603 15.7469 12.2083 15.7309C12.2883 15.6989 12.3363 15.6349 12.3363 15.5709C12.3683 15.3469 12.4163 15.1389 12.4483 14.9149C12.4963 14.6589 12.5283 14.4189 12.5763 14.1629C12.5763 14.1469 12.5763 14.1309 12.5763 14.1149C12.5763 14.0029 12.4483 13.9709 12.4323 14.0669Z" fill="white"/>
<path d="M11.3923 12.5629C11.3923 12.5309 11.4083 12.4989 11.4083 12.4669C11.4243 12.3869 11.4403 12.3069 11.4563 12.2269C11.4723 12.1149 11.4883 11.9869 11.5203 11.8749C11.5523 11.7309 11.5683 11.5869 11.6003 11.4429C11.6323 11.2829 11.8243 10.0989 11.8563 9.95491C11.8883 9.79491 11.9043 9.63491 11.9363 9.47491C11.9683 9.33091 11.9843 9.17091 12.0163 9.02691C12.0323 8.89891 12.0643 8.77091 12.0803 8.64291C12.0963 8.54691 12.0963 8.57891 12.1123 8.48291C12.1123 8.43491 12.1283 8.40291 12.1283 8.35491C12.1283 8.30691 12.1123 8.27491 12.0643 8.25891C12.0163 8.25891 11.9843 8.27491 11.9683 8.32291C11.9683 8.35491 11.9523 8.38691 11.9523 8.41891C11.9363 8.49891 11.9523 8.46691 11.9363 8.54691C11.9203 8.65891 11.9043 8.78691 11.8723 8.89891C11.8403 9.04291 11.8243 9.18691 11.7923 9.33091C11.7603 9.49091 11.7443 9.65091 11.7123 9.81091C11.6803 9.97091 11.6643 10.1309 11.6323 10.2909C11.6003 10.4349 11.4083 11.6029 11.3923 11.7629C11.3763 11.8909 11.3443 12.0189 11.3283 12.1469C11.3123 12.2429 11.2963 12.3229 11.2803 12.4189C11.2803 12.4669 11.2643 12.4989 11.2643 12.5469C11.2643 12.5949 11.2803 12.6269 11.3283 12.6429C11.3443 12.6269 11.3923 12.6109 11.3923 12.5629Z" fill="white"/>
<path d="M11.9043 12.6589C11.9043 12.6109 11.9203 12.5629 11.9203 12.5149C11.9363 12.3869 11.9683 12.2589 11.9843 12.1469C12.0163 11.9549 12.0483 11.7789 12.0803 11.5869C12.1123 11.3629 12.3203 10.1149 12.3683 9.89086C12.4163 9.65086 12.4483 9.39486 12.4963 9.15486C12.5443 8.89886 12.5763 8.65886 12.6243 8.40286C12.6563 8.16286 12.7043 7.93886 12.7363 7.69886C12.7683 7.50686 12.8003 7.29886 12.8323 7.10686C12.8483 6.96286 12.8803 6.81886 12.8963 6.67486C12.9123 6.61086 12.9123 6.54686 12.9283 6.46686C12.9283 6.46686 12.9283 6.46686 12.9283 6.45086C12.9283 6.40286 12.9123 6.37086 12.8643 6.35486C12.8163 6.35486 12.7843 6.37086 12.7683 6.41886C12.7683 6.46686 12.7523 6.51486 12.7523 6.56286C12.7363 6.69086 12.7043 6.81886 12.6883 6.93086C12.6563 7.12286 12.6243 7.29886 12.5923 7.49086C12.5603 7.71486 12.5123 7.93886 12.4803 8.16286C12.4323 8.40286 12.4003 8.65886 12.3523 8.89886C12.3043 9.15486 12.2723 9.39486 12.2243 9.65086C12.1923 9.89086 12.1443 10.1149 12.1123 10.3549C12.0803 10.5469 11.8723 11.7629 11.8403 11.9709C11.8243 12.1149 11.7923 12.2589 11.7763 12.4029C11.7603 12.4669 11.7603 12.5309 11.7443 12.6109C11.7443 12.6109 11.7443 12.6109 11.7443 12.6269C11.7443 12.6749 11.7603 12.7069 11.8083 12.7229C11.8563 12.7229 11.9043 12.6909 11.9043 12.6589Z" fill="white"/>
<path d="M12.4163 12.7388C12.4163 12.7068 12.4323 12.6588 12.4323 12.6268C12.4483 12.5148 12.4643 12.4188 12.4803 12.3068C12.5123 12.1468 12.5283 12.0028 12.5603 11.8428C12.5923 11.6508 12.8003 10.4508 12.8323 10.2588C12.8643 10.0508 12.8963 9.84281 12.9283 9.63481C12.9603 9.42681 12.9923 9.21881 13.0403 9.01081C13.0723 8.81881 13.1043 8.62681 13.1363 8.43481C13.1683 8.27481 13.1843 8.09881 13.2163 7.93881C13.2323 7.82681 13.2483 7.69881 13.2803 7.58681C13.2963 7.53881 13.2963 7.47481 13.3123 7.42681C13.3123 7.37881 13.2963 7.34681 13.2483 7.33081C13.2003 7.33081 13.1683 7.34681 13.1523 7.39481C13.1523 7.42681 13.1363 7.47481 13.1363 7.50681C13.1203 7.61881 13.1043 7.71481 13.0883 7.82681C13.0563 7.98681 13.0403 8.13081 13.0083 8.29081C12.9763 8.48281 12.9443 8.67481 12.9123 8.85081C12.8803 9.05881 12.8483 9.26681 12.8163 9.47481C12.7843 9.68281 12.7523 9.89081 12.7043 10.0988C12.6723 10.2908 12.4643 11.5068 12.4323 11.6988C12.4003 11.8588 12.3843 12.0348 12.3523 12.1948C12.3363 12.3068 12.3203 12.4348 12.2883 12.5468C12.2723 12.5948 12.2723 12.6588 12.2563 12.7068C12.2563 12.7548 12.2723 12.7868 12.3203 12.8028C12.3683 12.8028 12.4163 12.7868 12.4163 12.7388Z" fill="white"/>
<path d="M11.1843 15.1229C11.0403 14.7229 11.3923 14.6269 11.5363 14.5789C11.3283 14.4349 10.9283 14.0829 10.7523 13.5069C10.6883 13.2989 10.7043 13.1069 10.7043 13.1069C10.7043 13.1069 10.8163 13.5549 11.1683 13.9229C11.4083 14.1949 11.9043 14.4669 11.9843 14.5629C12.0323 14.6109 12.0323 14.7869 12.0323 14.7869C12.0323 14.7869 11.6963 14.8189 11.4883 14.9149C11.2803 15.0109 11.2003 15.1389 11.1843 15.1229C11.2003 15.1389 11.2003 15.1229 11.1843 15.1229Z" fill="white"/>
<path d="M10.7523 12.9629C10.7523 12.9629 10.8643 13.4109 11.2163 13.7789C11.4563 14.0509 11.9523 14.3229 12.0323 14.4189C12.0803 14.4669 12.0803 14.6429 12.0803 14.6429C12.0803 14.6429 12.0803 14.6429 12.0643 14.6429C12.0643 14.5949 12.0483 14.5309 12.0323 14.4989C11.9523 14.4029 11.4563 14.1309 11.2163 13.8589C10.9443 13.5709 10.8163 13.2349 10.7683 13.0909C10.7363 13.0269 10.7523 12.9629 10.7523 12.9629Z" fill="white"/>
<path d="M16.1923 14.6909C16.1603 14.8669 16.1283 15.0589 16.0963 15.2349C16.0483 15.5069 16.0003 15.7629 15.9683 16.0349C15.9683 16.0669 15.9523 16.0989 15.9523 16.1309C15.9523 16.1629 15.9363 16.1789 15.9203 16.1949C15.9043 16.2109 15.8723 16.1949 15.8563 16.1949C15.8243 16.1949 15.7923 16.1789 15.7603 16.1789C15.4883 16.1309 15.2163 16.0829 14.9603 16.0509C14.8323 16.0349 14.7043 16.0029 14.5923 15.9869C14.5443 15.9709 14.4803 15.9709 14.4323 15.9549C14.3683 15.9389 14.4003 15.8429 14.4003 15.7949C14.4163 15.6829 14.4323 15.5709 14.4643 15.4589C14.5123 15.1869 14.5603 14.8989 14.6083 14.6269C14.6243 14.5629 14.6243 14.4989 14.6403 14.4349C14.6563 14.3549 14.7203 14.3869 14.7843 14.3869C15.0403 14.4349 15.2803 14.4669 15.5363 14.5149C15.7443 14.5469 15.9523 14.5789 16.1603 14.6269C16.1603 14.6269 16.1923 14.6589 16.1923 14.6909C16.1763 14.7869 16.3203 14.8029 16.3363 14.7069C16.3523 14.5949 16.2883 14.4989 16.1763 14.4829C16.1603 14.4829 16.1443 14.4829 16.1123 14.4669C16.0003 14.4509 15.8883 14.4349 15.7923 14.4189C15.5043 14.3709 15.2163 14.3229 14.9283 14.2749C14.8643 14.2589 14.7843 14.2429 14.7203 14.2429C14.6243 14.2269 14.5283 14.2749 14.4963 14.3709C14.4803 14.4029 14.4803 14.4189 14.4803 14.4509C14.4323 14.6909 14.4003 14.9469 14.3523 15.1869C14.3203 15.4109 14.2723 15.6349 14.2403 15.8589C14.2243 15.9229 14.2403 16.0029 14.2883 16.0509C14.3203 16.0829 14.3683 16.0989 14.4163 16.1149C14.5123 16.1309 14.5923 16.1469 14.6883 16.1629C14.9763 16.2109 15.2643 16.2589 15.5683 16.3069C15.6643 16.3229 15.7443 16.3389 15.8403 16.3549C15.8883 16.3549 15.9203 16.3709 15.9683 16.3549C16.0483 16.3229 16.0963 16.2589 16.0963 16.1949C16.1283 15.9709 16.1763 15.7629 16.2083 15.5389C16.2563 15.2829 16.2883 15.0429 16.3363 14.7869C16.3363 14.7709 16.3363 14.7549 16.3363 14.7389C16.3363 14.6269 16.2083 14.6109 16.1923 14.6909Z" fill="white"/>
<path d="M15.1523 13.2029C15.1523 13.1709 15.1683 13.1389 15.1683 13.1069C15.1843 13.0269 15.2003 12.9469 15.2163 12.8669C15.2323 12.7549 15.2483 12.6269 15.2803 12.5149C15.3123 12.3709 15.3283 12.2269 15.3603 12.0829C15.3923 11.9229 15.5843 10.7389 15.6163 10.5949C15.6483 10.4349 15.6643 10.2749 15.6963 10.1149C15.7283 9.97093 15.7443 9.81093 15.7763 9.66693C15.7923 9.53893 15.8243 9.41093 15.8403 9.28293C15.8563 9.18693 15.8563 9.21893 15.8723 9.12293C15.8723 9.07493 15.8883 9.04293 15.8883 8.99493C15.8883 8.94693 15.8723 8.91493 15.8243 8.89893C15.7763 8.89893 15.7443 8.91493 15.7283 8.96293C15.7283 8.99493 15.7123 9.02693 15.7123 9.05893C15.6963 9.13893 15.7123 9.10693 15.6963 9.18693C15.6803 9.29893 15.6643 9.42693 15.6323 9.53893C15.6003 9.68293 15.5843 9.82693 15.5523 9.97093C15.5203 10.1309 15.5043 10.2909 15.4723 10.4509C15.4403 10.6109 15.4243 10.7709 15.3923 10.9309C15.3603 11.0749 15.1683 12.2429 15.1523 12.4029C15.1363 12.5309 15.1043 12.6589 15.0883 12.7869C15.0723 12.8829 15.0563 12.9629 15.0403 13.0589C15.0403 13.1069 15.0243 13.1389 15.0243 13.1869C15.0243 13.2349 15.0403 13.2669 15.0883 13.2829C15.1043 13.2669 15.1523 13.2349 15.1523 13.2029Z" fill="white"/>
<path d="M15.6643 13.2829C15.6643 13.2349 15.6803 13.1869 15.6803 13.1389C15.6963 13.0109 15.7283 12.8829 15.7443 12.7709C15.7763 12.5789 15.8083 12.4029 15.8403 12.2109C15.8723 11.9869 16.0803 10.7389 16.1283 10.5149C16.1763 10.2749 16.2083 10.0189 16.2563 9.77888C16.3043 9.52288 16.3363 9.28288 16.3843 9.02688C16.4163 8.78688 16.4643 8.56288 16.4963 8.32288C16.5283 8.13088 16.5603 7.92288 16.5923 7.73088C16.6083 7.58688 16.6403 7.44288 16.6563 7.29888C16.6723 7.23488 16.6723 7.17088 16.6883 7.09088C16.6883 7.09088 16.6883 7.09088 16.6883 7.07488C16.6883 7.02688 16.6723 6.99488 16.6243 6.97888C16.5763 6.97888 16.5443 6.99488 16.5283 7.04288C16.5283 7.09088 16.5123 7.13888 16.5123 7.18688C16.4963 7.31488 16.4643 7.44288 16.4483 7.55488C16.4163 7.74688 16.3843 7.92288 16.3523 8.11488C16.3203 8.33888 16.2723 8.56288 16.2403 8.78688C16.1923 9.02688 16.1603 9.28288 16.1123 9.52288C16.0643 9.77888 16.0323 10.0189 15.9843 10.2749C15.9523 10.5149 15.9043 10.7389 15.8723 10.9789C15.8403 11.1709 15.6323 12.3869 15.6003 12.5949C15.5843 12.7389 15.5523 12.8829 15.5363 13.0269C15.5203 13.0909 15.5203 13.1549 15.5043 13.2349C15.5043 13.2349 15.5043 13.2349 15.5043 13.2509C15.5043 13.2989 15.5203 13.3309 15.5683 13.3469C15.6163 13.3469 15.6643 13.3309 15.6643 13.2829Z" fill="white"/>
<path d="M16.1763 13.3628C16.1763 13.3308 16.1923 13.2828 16.1923 13.2508C16.2083 13.1388 16.2243 13.0428 16.2403 12.9308C16.2723 12.7708 16.2883 12.6268 16.3203 12.4668C16.3523 12.2748 16.5603 11.0748 16.5923 10.8828C16.6243 10.6748 16.6563 10.4668 16.6883 10.2588C16.7203 10.0508 16.7523 9.84283 16.8003 9.63483C16.8323 9.44283 16.8643 9.25083 16.8963 9.05883C16.9283 8.89883 16.9443 8.72283 16.9763 8.56283C16.9923 8.45083 17.0083 8.32283 17.0403 8.21083C17.0563 8.16283 17.0563 8.09883 17.0723 8.05083C17.0723 8.00283 17.0563 7.97083 17.0083 7.95483C16.9603 7.95483 16.9283 7.97083 16.9123 8.01883C16.9123 8.05083 16.8963 8.09883 16.8963 8.13083C16.8803 8.24283 16.8643 8.33883 16.8483 8.45083C16.8163 8.61083 16.8003 8.75483 16.7683 8.91483C16.7363 9.10683 16.7043 9.29883 16.6723 9.47483C16.6403 9.68283 16.6083 9.89083 16.5763 10.0988C16.5443 10.3068 16.5123 10.5148 16.4643 10.7228C16.4323 10.9148 16.2243 12.1308 16.1923 12.3228C16.1603 12.4828 16.1443 12.6588 16.1123 12.8188C16.0963 12.9308 16.0803 13.0588 16.0483 13.1708C16.0323 13.2188 16.0323 13.2828 16.0163 13.3308C16.0163 13.3788 16.0323 13.4108 16.0803 13.4268C16.1283 13.4428 16.1763 13.4108 16.1763 13.3628Z" fill="white"/>
<path d="M14.9443 15.7629C14.8003 15.3629 15.1523 15.2669 15.2963 15.2189C15.0883 15.0749 14.6883 14.7229 14.5123 14.1469C14.4483 13.9389 14.4643 13.7469 14.4643 13.7469C14.4643 13.7469 14.5763 14.1949 14.9283 14.5629C15.1683 14.8349 15.6643 15.1069 15.7443 15.2029C15.7923 15.2509 15.7923 15.4269 15.7923 15.4269C15.7923 15.4269 15.4563 15.4589 15.2483 15.5549C15.0403 15.6349 14.9603 15.7629 14.9443 15.7629C14.9603 15.7629 14.9603 15.7629 14.9443 15.7629Z" fill="white"/>
<path d="M14.5123 13.6029C14.5123 13.6029 14.6243 14.0509 14.9763 14.4189C15.2163 14.6909 15.7123 14.9629 15.7923 15.0589C15.8403 15.1069 15.8403 15.2829 15.8403 15.2829C15.8403 15.2829 15.8403 15.2829 15.8243 15.2829C15.8243 15.2349 15.8083 15.1709 15.7923 15.1389C15.7123 15.0429 15.2163 14.7709 14.9763 14.4989C14.7043 14.2109 14.5763 13.8749 14.5283 13.7309C14.4963 13.6509 14.5123 13.6029 14.5123 13.6029Z" fill="white"/>
<path d="M19.9523 15.3309C19.9203 15.5069 19.8883 15.6989 19.8563 15.8749C19.8083 16.1469 19.7603 16.4029 19.7283 16.6749C19.7283 16.7069 19.7123 16.7389 19.7123 16.7709C19.7123 16.8029 19.6963 16.8189 19.6803 16.8349C19.6643 16.8509 19.6323 16.8349 19.6163 16.8349C19.5843 16.8349 19.5523 16.8189 19.5203 16.8189C19.2483 16.7709 18.9763 16.7229 18.7203 16.6909C18.5923 16.6749 18.4643 16.6429 18.3523 16.6269C18.3043 16.6109 18.2403 16.6109 18.1923 16.5949C18.1283 16.5789 18.1603 16.4829 18.1603 16.4349C18.1763 16.3229 18.1923 16.2109 18.2243 16.0989C18.2723 15.8269 18.3203 15.5389 18.3683 15.2669C18.3843 15.2029 18.3843 15.1389 18.4003 15.0749C18.4163 14.9949 18.4803 15.0269 18.5443 15.0269C18.8003 15.0749 19.0403 15.1069 19.2963 15.1549C19.5043 15.1869 19.7123 15.2189 19.9203 15.2669C19.9203 15.2669 19.9523 15.2829 19.9523 15.3309C19.9363 15.4269 20.0803 15.4429 20.0963 15.3469C20.1123 15.2349 20.0483 15.1389 19.9363 15.1229C19.9203 15.1229 19.9043 15.1229 19.8723 15.1069C19.7603 15.0909 19.6483 15.0749 19.5523 15.0589C19.2643 15.0109 18.9763 14.9629 18.6883 14.9149C18.6243 14.8989 18.5443 14.8829 18.4803 14.8829C18.3843 14.8669 18.2883 14.9149 18.2563 15.0109C18.2403 15.0429 18.2403 15.0589 18.2403 15.0909C18.1923 15.3309 18.1603 15.5869 18.1123 15.8269C18.0803 16.0509 18.0323 16.2749 18.0003 16.4989C17.9843 16.5629 18.0003 16.6429 18.0483 16.6909C18.0803 16.7229 18.1283 16.7389 18.1763 16.7549C18.2723 16.7709 18.3523 16.7869 18.4483 16.8029C18.7363 16.8509 19.0243 16.8989 19.3283 16.9469C19.4243 16.9629 19.5043 16.9789 19.6003 16.9949C19.6483 16.9949 19.6803 17.0109 19.7283 16.9949C19.8083 16.9629 19.8563 16.8989 19.8563 16.8349C19.8883 16.6109 19.9363 16.4029 19.9683 16.1789C20.0163 15.9229 20.0483 15.6829 20.0963 15.4269C20.0963 15.4109 20.0963 15.3949 20.0963 15.3789C20.0963 15.2669 19.9683 15.2349 19.9523 15.3309Z" fill="white"/>
<path d="M18.9123 13.8269C18.9123 13.7949 18.9283 13.7629 18.9283 13.7309C18.9443 13.6509 18.9603 13.5709 18.9763 13.4909C18.9923 13.3789 19.0083 13.2509 19.0403 13.1389C19.0723 12.9949 19.0883 12.8509 19.1203 12.7069C19.1523 12.5469 19.3443 11.3629 19.3763 11.2189C19.4083 11.0589 19.4243 10.8989 19.4563 10.7389C19.4883 10.5949 19.5043 10.4349 19.5363 10.2909C19.5523 10.1629 19.5843 10.0349 19.6003 9.90695C19.6163 9.81095 19.6163 9.84295 19.6323 9.74695C19.6323 9.69895 19.6483 9.66695 19.6483 9.61895C19.6483 9.57095 19.6323 9.53895 19.5843 9.52295C19.5363 9.52295 19.5043 9.53895 19.4883 9.58695C19.4883 9.61895 19.4723 9.65095 19.4723 9.68295C19.4563 9.76295 19.4723 9.73095 19.4563 9.81095C19.4403 9.92295 19.4243 10.0509 19.3923 10.1629C19.3603 10.3069 19.3443 10.4509 19.3123 10.5949C19.2803 10.7549 19.2643 10.9149 19.2323 11.0749C19.2003 11.2349 19.1843 11.3949 19.1523 11.5549C19.1203 11.6989 18.9283 12.8669 18.9123 13.0269C18.8963 13.1549 18.8643 13.2829 18.8483 13.4109C18.8323 13.5069 18.8163 13.5869 18.8003 13.6829C18.8003 13.7309 18.7843 13.7629 18.7843 13.8109C18.7843 13.8589 18.8003 13.8909 18.8483 13.9069C18.8643 13.8909 18.9123 13.8749 18.9123 13.8269Z" fill="white"/>
<path d="M19.4243 13.9229C19.4243 13.8749 19.4403 13.8269 19.4403 13.7789C19.4563 13.6509 19.4883 13.5229 19.5043 13.4109C19.5363 13.2189 19.5683 13.0429 19.6003 12.8509C19.6323 12.6269 19.8403 11.3789 19.8883 11.1549C19.9363 10.9149 19.9683 10.6589 20.0163 10.4189C20.0643 10.1629 20.0963 9.9229 20.1443 9.6669C20.1763 9.4269 20.2243 9.2029 20.2563 8.9629C20.2883 8.7709 20.3203 8.5629 20.3523 8.3709C20.3683 8.2269 20.4003 8.0829 20.4163 7.9389C20.4323 7.8749 20.4323 7.8109 20.4483 7.7309C20.4483 7.7309 20.4483 7.7309 20.4483 7.7149C20.4483 7.6669 20.4323 7.6349 20.3843 7.6189C20.3363 7.6189 20.3043 7.6349 20.2883 7.6829C20.2883 7.7309 20.2723 7.7789 20.2723 7.8269C20.2563 7.9549 20.2243 8.0829 20.2083 8.1949C20.1763 8.3869 20.1443 8.5629 20.1123 8.7549C20.0803 8.9789 20.0323 9.2029 20.0003 9.4269C19.9523 9.6669 19.9203 9.9229 19.8723 10.1629C19.8243 10.4189 19.7923 10.6589 19.7443 10.9149C19.7123 11.1549 19.6643 11.3789 19.6323 11.6189C19.6003 11.8109 19.3923 13.0269 19.3603 13.2349C19.3443 13.3789 19.3123 13.5229 19.2963 13.6669C19.2803 13.7309 19.2803 13.7949 19.2643 13.8749C19.2643 13.8749 19.2643 13.8749 19.2643 13.8909C19.2643 13.9389 19.2803 13.9709 19.3283 13.9869C19.3763 13.9869 19.4243 13.9549 19.4243 13.9229Z" fill="white"/>
<path d="M19.9363 14.0028C19.9363 13.9708 19.9523 13.9228 19.9523 13.8908C19.9683 13.7788 19.9843 13.6828 20.0003 13.5708C20.0323 13.4108 20.0483 13.2668 20.0803 13.1068C20.1123 12.9148 20.3203 11.7148 20.3523 11.5228C20.3843 11.3148 20.4163 11.1068 20.4483 10.8988C20.4803 10.6908 20.5123 10.4828 20.5603 10.2748C20.5923 10.0828 20.6243 9.89085 20.6563 9.69885C20.6883 9.53885 20.7043 9.36285 20.7363 9.20285C20.7523 9.09085 20.7683 8.96285 20.8003 8.85085C20.8163 8.80285 20.8163 8.73885 20.8323 8.69085C20.8323 8.64285 20.8163 8.61085 20.7683 8.59485C20.7203 8.59485 20.6883 8.61085 20.6723 8.65885C20.6723 8.69085 20.6563 8.73885 20.6563 8.77085C20.6403 8.88285 20.6243 8.97885 20.6083 9.09085C20.5763 9.25085 20.5603 9.39485 20.5283 9.55485C20.4963 9.74685 20.4643 9.93885 20.4323 10.1148C20.4003 10.3228 20.3683 10.5308 20.3363 10.7388C20.3043 10.9468 20.2723 11.1548 20.2243 11.3628C20.1923 11.5548 19.9843 12.7708 19.9523 12.9628C19.9203 13.1228 19.9043 13.2988 19.8723 13.4588C19.8563 13.5708 19.8403 13.6988 19.8083 13.8108C19.7923 13.8588 19.7923 13.9228 19.7763 13.9708C19.7763 14.0188 19.7923 14.0508 19.8403 14.0668C19.8883 14.0668 19.9363 14.0508 19.9363 14.0028Z" fill="white"/>
<path d="M8.88035 13.0108L9.29635 10.5788L9.71235 8.14675C9.71235 8.11475 9.69635 8.09875 9.68035 8.09875C9.64835 8.09875 9.63235 8.11475 9.63235 8.13075C9.63235 8.16275 9.61635 8.21075 9.61635 8.24275L9.20035 10.5628L8.81635 12.8668C8.81635 12.8988 8.80035 12.9468 8.80035 12.9788C8.80035 13.0108 8.81635 13.0268 8.83235 13.0268C8.84835 13.0428 8.88035 13.0268 8.88035 13.0108Z" fill="white"/>
<path d="M8.67235 12.4508L8.99235 10.5148L9.31235 8.57876C9.31235 8.54676 9.29635 8.53076 9.28035 8.53076C9.26435 8.53076 9.23235 8.54676 9.23235 8.56276C9.23235 8.59476 9.21635 8.62676 9.21635 8.65876L8.91235 10.4828L8.60835 12.3068C8.60835 12.3388 8.59235 12.3708 8.59235 12.4028C8.59235 12.4188 8.60835 12.4508 8.62435 12.4508C8.64035 12.4988 8.65635 12.4828 8.67235 12.4508Z" fill="white"/>
<path d="M9.71233 9.33073C9.71233 9.36273 9.69633 9.37873 9.69633 9.41073C9.68033 9.45873 9.69633 9.44273 9.68033 9.50673L9.48833 10.6107L9.31233 11.7147C9.29633 11.7627 9.31233 11.7467 9.29633 11.8107C9.29633 11.8427 9.28033 11.8587 9.28033 11.8907C9.28033 11.9067 9.29633 11.9387 9.31233 11.9387C9.34433 11.9387 9.36033 11.9227 9.36033 11.9067L9.37633 11.8587C9.37633 11.8107 9.37633 11.8427 9.39233 11.7947L9.58433 10.6427L9.77633 9.49073C9.77633 9.44273 9.77633 9.47473 9.79233 9.42673L9.80833 9.37873C9.80833 9.34673 9.79233 9.33073 9.77633 9.33073C9.74433 9.29873 9.71233 9.31473 9.71233 9.33073Z" fill="white"/>
<path d="M19.5043 16.3868C19.4883 16.3548 19.4883 16.3228 19.4563 16.2908C19.4403 16.2748 19.4243 16.2588 19.4083 16.2268L19.3923 16.2108C19.3603 16.1788 19.3283 16.1468 19.2803 16.0988C19.2643 16.0828 19.2483 16.0668 19.2323 16.0508C19.2483 16.0508 19.2643 16.0348 19.2803 16.0348C19.3123 16.0668 19.3443 16.0988 19.3923 16.1468L19.4083 16.1628C19.4243 16.1788 19.4403 16.1948 19.4563 16.2268C19.4883 16.2588 19.5043 16.3228 19.5043 16.3868Z" fill="white"/>
<path d="M19.4723 15.7468C19.4723 15.7148 19.4563 15.6668 19.4243 15.6348C19.4083 15.6188 19.3923 15.6028 19.3763 15.6028C19.3603 15.6028 19.3283 15.6028 19.3123 15.6188C19.2643 15.6348 19.2003 15.6668 19.1523 15.6988C19.1363 15.7148 19.1043 15.7308 19.0883 15.7308C19.0563 15.7468 19.0243 15.7628 18.9923 15.7788H18.9763C18.9763 15.7788 18.9603 15.7788 18.9603 15.7948C18.9443 15.7788 18.9443 15.7788 18.9283 15.7628L18.9123 15.7468C18.8963 15.7308 18.8803 15.6988 18.8643 15.6828C18.8323 15.6348 18.8003 15.6028 18.7683 15.5548C18.7363 15.5068 18.7203 15.4748 18.6883 15.4268C18.6883 15.4108 18.6723 15.4108 18.6723 15.3948C18.6403 15.3468 18.6243 15.2988 18.5763 15.2668C18.5603 15.2508 18.5443 15.2508 18.5283 15.2508C18.5283 15.2348 18.5283 15.2188 18.5283 15.2028C18.5283 15.1868 18.5283 15.1868 18.5283 15.1868C18.5283 15.1868 18.5443 15.1868 18.5603 15.2028C18.5923 15.2348 18.6243 15.2828 18.6563 15.3148C18.6563 15.3308 18.6723 15.3308 18.6723 15.3468C18.7043 15.3948 18.7203 15.4428 18.7523 15.4748C18.7843 15.5228 18.8163 15.5548 18.8483 15.6028C18.8643 15.6188 18.8803 15.6508 18.8963 15.6668L18.9123 15.6828C18.9283 15.6988 18.9283 15.7148 18.9443 15.7308L18.9603 15.7468H18.9763C18.9763 15.7468 18.9923 15.7308 19.0083 15.7308H19.0243C19.0563 15.7148 19.0883 15.6988 19.1203 15.6828C19.1363 15.6668 19.1683 15.6508 19.1843 15.6508C19.2323 15.6188 19.2803 15.5868 19.3283 15.5708C19.3443 15.5708 19.3603 15.5548 19.3763 15.5548C19.3923 15.5548 19.4083 15.5708 19.4083 15.5868C19.4243 15.6188 19.4403 15.6508 19.4403 15.6988C19.4723 15.6988 19.4723 15.7148 19.4723 15.7468Z" fill="white"/>
<path d="M18.8003 15.9068L18.7843 15.8908C18.7683 15.8748 18.7683 15.8588 18.7523 15.8428C18.7363 15.7948 18.7043 15.7628 18.6883 15.7148C18.6563 15.6508 18.6243 15.6028 18.6083 15.5388C18.5923 15.4908 18.5763 15.4428 18.5603 15.3948C18.5443 15.3628 18.5283 15.3148 18.5443 15.2828C18.5443 15.2508 18.5923 15.2508 18.6083 15.2828C18.6563 15.3148 18.6723 15.3628 18.7043 15.4108C18.7363 15.4588 18.7683 15.5228 18.8003 15.5708C18.8323 15.6188 18.8643 15.6508 18.8963 15.6988C18.9123 15.7148 18.9283 15.7468 18.9443 15.7628C18.9603 15.7788 18.9763 15.8108 18.9923 15.8268C19.0083 15.8108 19.0243 15.8108 19.0403 15.8108C19.0723 15.7948 19.1043 15.7788 19.1363 15.7628C19.2163 15.7308 19.2803 15.6828 19.3603 15.6508C19.3763 15.6508 19.3923 15.6348 19.4083 15.6348C19.4243 15.6348 19.4403 15.6508 19.4563 15.6668C19.4723 15.6988 19.4883 15.7468 19.4883 15.7788C19.5043 15.8428 19.5203 15.9228 19.4563 15.9548C19.4243 15.9868 19.3763 16.0028 19.3443 16.0348C19.3123 16.0508 19.2643 16.0668 19.2323 16.0988C19.2483 16.0988 19.2483 16.1148 19.2643 16.1148C19.2803 16.1308 19.2963 16.1468 19.3123 16.1628C19.3443 16.1948 19.3763 16.2268 19.4243 16.2748C19.4403 16.3068 19.4723 16.3228 19.4883 16.3548C19.5363 16.4188 19.5523 16.5148 19.5363 16.5788C19.5363 16.5948 19.5363 16.6268 19.5203 16.6428C19.5203 16.6588 19.5043 16.6908 19.4883 16.7068C19.4563 16.7228 19.4243 16.6748 19.3923 16.6588C19.3603 16.6268 19.3283 16.5948 19.2963 16.5628C19.2323 16.4988 19.1843 16.4188 19.1203 16.3388C19.0883 16.3068 19.0723 16.2588 19.0403 16.2268C19.0403 16.2108 19.0243 16.2108 19.0243 16.1948C19.0083 16.1788 18.8963 16.2588 18.8803 16.2748C18.8323 16.3068 18.8003 16.3548 18.7523 16.3708C18.7043 16.3868 18.6723 16.3228 18.6563 16.2908C18.6403 16.2428 18.6243 16.1948 18.6083 16.1468C18.6083 16.1308 18.6083 16.0988 18.6243 16.0828C18.6563 16.0508 18.6883 16.0188 18.7203 15.9868C18.7523 15.9388 18.7683 15.9228 18.8003 15.9068Z" fill="white"/>
<path d="M12.8003 40.5148C12.4803 40.8348 12.1443 41.1708 11.8243 41.4908C11.3443 41.9708 10.8643 42.4508 10.3843 42.9308C10.3203 42.9948 10.2723 43.0428 10.2083 43.1068C10.1603 43.1548 10.1123 43.2028 10.0483 43.1868C9.98434 43.1868 9.95234 43.1388 9.90434 43.0908C9.84034 43.0268 9.77634 42.9628 9.72834 42.9148C9.24834 42.4348 8.76834 41.9548 8.27234 41.4588C8.04834 41.2348 7.82434 41.0108 7.60034 40.7868C7.50434 40.6908 7.37634 40.5948 7.29634 40.4828C7.18434 40.3388 7.39234 40.1948 7.48834 40.0988C7.69634 39.8908 7.88834 39.6988 8.09634 39.4908C8.59234 38.9948 9.10434 38.4828 9.60034 37.9868C9.71234 37.8748 9.82434 37.7468 9.95234 37.6348C10.0963 37.5068 10.2083 37.6508 10.3043 37.7628C10.7523 38.2108 11.2163 38.6748 11.6643 39.1228C12.0483 39.5068 12.4163 39.8748 12.8003 40.2588C12.8643 40.3388 12.8803 40.4348 12.8003 40.5148C12.6403 40.6748 12.8963 40.9308 13.0403 40.7548C13.2323 40.5468 13.2323 40.2428 13.0403 40.0348C13.0083 40.0028 12.9763 39.9708 12.9283 39.9228C12.7363 39.7308 12.5443 39.5388 12.3363 39.3308C11.8083 38.8028 11.2963 38.2908 10.7683 37.7628C10.6403 37.6348 10.5283 37.5068 10.4003 37.3948C10.2243 37.2348 9.95234 37.1868 9.76034 37.3308C9.71234 37.3628 9.66434 37.4108 9.61634 37.4588C9.16834 37.9068 8.72034 38.3548 8.27234 38.8028C7.87234 39.2028 7.45634 39.6028 7.05634 40.0188C6.92834 40.1468 6.86434 40.3068 6.89634 40.4828C6.91234 40.6108 6.99234 40.7068 7.07234 40.7868C7.23234 40.9468 7.39234 41.1068 7.55234 41.2668C8.08034 41.7948 8.60834 42.3228 9.13634 42.8508C9.29634 43.0108 9.47234 43.1868 9.63234 43.3468C9.71234 43.4268 9.79234 43.4908 9.88834 43.5228C10.0803 43.5708 10.2723 43.5068 10.4003 43.3788C10.8003 42.9788 11.1843 42.5948 11.5843 42.1948C12.0323 41.7468 12.4963 41.2828 12.9443 40.8348C12.9763 40.8028 12.9923 40.7868 13.0243 40.7548C13.2163 40.5948 12.9603 40.3548 12.8003 40.5148Z" fill="black"/>
<path d="M8.73633 41.0588C9.04033 39.9388 9.98433 40.2908 10.3683 40.4188C10.1603 39.7788 9.80833 38.3708 10.3363 36.8028C10.5283 36.2428 10.8483 35.8428 10.8483 35.8428C10.8483 35.8428 10.4163 37.0108 10.5763 38.3868C10.6883 39.3628 11.3283 40.7548 11.3603 41.0908C11.3763 41.2668 11.1043 41.6508 11.1043 41.6508C11.1043 41.6508 10.3203 41.2028 9.68033 41.0748C9.10433 40.9468 8.73633 41.1068 8.73633 41.1068V41.0588Z" fill="black"/>
<path d="M11.1683 35.5708C11.1683 35.5708 10.7363 36.7388 10.8963 38.1148C11.0083 39.0908 11.6483 40.4828 11.6803 40.8188C11.6963 40.9948 11.4243 41.3788 11.4243 41.3788C11.4243 41.3788 11.4083 41.3628 11.3763 41.3468C11.4403 41.2188 11.5203 41.0748 11.5043 40.9788C11.4723 40.6428 10.8323 39.2508 10.7203 38.2748C10.5923 37.2028 10.8323 36.2588 10.9443 35.8908C11.0563 35.6988 11.1683 35.5708 11.1683 35.5708Z" fill="black"/>
<path d="M33.2323 21.4908C33.2163 21.4908 33.2003 21.4748 33.2003 21.4748C33.1363 21.4268 33.0723 21.3948 33.3923 20.2748C33.5683 19.6988 33.7603 19.0748 33.8403 18.8508L33.9043 18.6748L34.0003 18.8348C34.0803 18.9788 35.0723 19.5708 35.2323 19.5708H35.4563L35.2483 19.7628C33.6003 21.3468 33.3283 21.5068 33.2323 21.4908ZM33.9683 19.0428C33.7603 19.6508 33.3763 20.8988 33.3283 21.2668C33.4883 21.1548 33.9203 20.8028 35.0723 19.6988C34.7523 19.5868 34.2083 19.2348 33.9683 19.0428Z" fill="black"/>
<path d="M35.2003 19.7467C34.9123 19.6987 33.9523 19.0907 33.8563 18.9307C33.8403 18.8987 33.8403 18.8667 33.8403 18.8507C33.8563 18.7867 34.4003 17.8427 36.2403 14.6107C37.3443 12.7067 38.4643 10.7227 39.0243 9.74675L39.0723 9.66675L39.1523 9.73075C39.4083 9.92275 40.1763 10.4027 40.4963 10.5307L40.5923 10.5627L40.5443 10.6427C39.3763 12.7707 36.0003 18.7867 35.3283 19.7147C35.3123 19.7307 35.2803 19.7627 35.2323 19.7627C35.2163 19.7467 35.2003 19.7467 35.2003 19.7467ZM34.0163 18.8507C34.1603 19.0107 35.0083 19.5227 35.2003 19.5707C35.9043 18.5627 39.1363 12.7867 40.3363 10.6267C40.0163 10.4667 39.4083 10.1147 39.1203 9.90675C38.5603 10.9147 37.4563 12.8347 36.3843 14.6907C35.2963 16.5947 34.1603 18.5787 34.0163 18.8507Z" fill="black"/>
<path d="M40.5444 10.7068C40.5124 10.7068 40.4804 10.6908 40.4324 10.6748C40.1124 10.5468 39.3124 10.0508 39.0564 9.85877C38.9924 9.81077 38.9604 9.77877 38.9604 9.76277C38.9444 9.73077 38.8964 9.65077 39.0564 9.34677C39.1364 9.18677 39.2324 9.02677 39.3124 8.93077C39.3924 8.83477 39.5364 8.89877 39.6324 8.96277C39.6484 8.97877 39.6804 8.99477 39.6964 8.99477C39.6964 8.97877 39.7124 8.96277 39.7124 8.94677C39.7444 8.86677 39.7924 8.77077 39.9044 8.73877C39.9364 8.73877 39.9844 8.73877 40.1124 8.78677C40.3044 8.86677 40.6084 9.01077 40.8004 9.13877C41.0244 9.28277 41.0724 9.34677 41.0724 9.41077C41.0724 9.50677 40.9924 9.63477 40.9284 9.71477C41.0084 9.76277 41.1684 9.82677 41.1044 9.97077C41.0724 10.0508 40.9924 10.2108 40.8964 10.3708C40.7364 10.6428 40.6564 10.7068 40.6084 10.7228C40.6084 10.7068 40.5764 10.7068 40.5444 10.7068ZM39.1044 9.66677C39.1044 9.66677 39.1204 9.68277 39.1524 9.71477C39.4084 9.90677 40.1764 10.3868 40.4964 10.5148C40.5284 10.5308 40.5604 10.5308 40.5764 10.5468C40.6564 10.4828 40.8324 10.1788 40.9604 9.92277C40.9444 9.90677 40.8964 9.89077 40.8644 9.87477C40.8004 9.84277 40.7524 9.82677 40.7364 9.76277C40.7364 9.73077 40.7364 9.69877 40.7524 9.68277C40.8164 9.60277 40.8964 9.49077 40.9124 9.44277C40.8964 9.42677 40.8484 9.37877 40.7204 9.29877C40.5284 9.18677 40.2404 9.02677 40.0484 8.96277C39.9844 8.93077 39.9524 8.93077 39.9364 8.93077C39.9044 8.94677 39.8884 8.99477 39.8564 9.04277C39.8244 9.10677 39.8084 9.15477 39.7604 9.18677C39.6964 9.21877 39.6164 9.18677 39.5364 9.13877C39.5044 9.12277 39.4404 9.09077 39.4244 9.07477C39.2484 9.23477 39.0884 9.57077 39.1044 9.66677Z" fill="black"/>
<path d="M39.4084 15.8428C39.3604 15.8428 39.3284 15.8268 39.2804 15.8108C38.9764 15.6668 38.6564 15.4108 38.7684 14.9788C38.9444 14.3228 40.0644 12.2108 40.8804 10.6588C41.2324 10.0028 41.5524 9.39475 41.6324 9.21875C41.5044 9.12275 41.1524 8.91475 41.0564 8.89875C41.0084 8.93075 40.9123 9.10675 40.8643 9.17075C40.8483 9.20275 40.8324 9.23475 40.8164 9.25075L40.7684 9.31475L40.6884 9.26675C40.4964 9.15475 40.2084 8.99475 40.0164 8.93075L39.9843 8.91475L39.9684 8.88275C39.9684 8.86675 39.9524 8.85075 39.9684 8.83475C39.9844 8.70675 40.3364 8.16275 40.4004 8.08275C40.4324 8.05075 40.4963 7.97075 41.0243 8.17875C41.3283 8.29075 41.6483 8.45075 41.8883 8.61075C42.2563 8.85075 42.4004 9.04275 42.3204 9.20275C42.1604 9.53875 41.8563 10.1148 41.5043 10.7548C41.1203 11.4588 40.6883 12.2588 40.3843 12.9148C40.3363 13.0108 40.2564 13.1708 40.1604 13.3468C39.8724 13.8748 39.4563 14.6908 39.4243 14.9628C39.4083 15.1388 39.4884 15.2028 39.6004 15.2828C39.6804 15.3468 39.7604 15.4108 39.7764 15.5228C39.7924 15.6188 39.7443 15.7148 39.6643 15.7788C39.6003 15.8428 39.5044 15.8588 39.4084 15.8428ZM41.0724 8.70675C41.2644 8.73875 41.7444 9.07475 41.7764 9.10675C41.8564 9.17075 41.8563 9.17075 41.0243 10.7228C40.2563 12.1628 39.0884 14.3548 38.9284 14.9948C38.8644 15.2508 39.0083 15.4588 39.3443 15.6188C39.4243 15.6668 39.5204 15.6508 39.5684 15.6188C39.6004 15.6028 39.6164 15.5548 39.6164 15.5228C39.6164 15.4748 39.5683 15.4428 39.5043 15.3788C39.3923 15.2828 39.2483 15.1708 39.2643 14.9148C39.2963 14.5948 39.7124 13.8108 40.0164 13.2348C40.1124 13.0588 40.1924 12.8988 40.2404 12.8028C40.5444 12.1468 40.9924 11.3468 41.3764 10.6428C41.7284 9.98675 42.0324 9.42675 42.1924 9.09075C42.1924 9.07475 42.1923 9.04275 42.1443 8.99475C41.8723 8.65875 40.7363 8.16275 40.5443 8.19475C40.4643 8.30675 40.2564 8.64275 40.1924 8.78675C40.3524 8.85075 40.5764 8.96275 40.7364 9.05875C40.8644 8.83475 40.9444 8.70675 41.0404 8.69075C41.0404 8.70675 41.0564 8.70675 41.0724 8.70675Z" fill="black"/>
<path fill-rule="evenodd" clip-rule="evenodd" d="M39.3603 10.1628C37.8083 12.7388 34.6883 17.8908 34.3523 18.6428C34.3363 18.6908 34.3523 18.7228 34.4003 18.7548C34.4483 18.7708 34.4963 18.7548 34.5123 18.7068C34.8483 17.9548 37.9523 12.8188 39.5043 10.2428C39.5203 10.2108 39.5203 10.1628 39.4723 10.1308C39.4403 10.1148 39.3763 10.1308 39.3603 10.1628Z" fill="black"/>
<path fill-rule="evenodd" clip-rule="evenodd" d="M34.8323 19.0268C36.4803 16.1628 38.1283 13.3148 39.7923 10.4508C39.8083 10.4188 39.8083 10.3708 39.7603 10.3388C39.7283 10.3228 39.6803 10.3228 39.6483 10.3708C38.0003 13.2348 36.3523 16.0828 34.6883 18.9468C34.6723 18.9788 34.6723 19.0268 34.7203 19.0588C34.7683 19.0748 34.8163 19.0588 34.8323 19.0268Z" fill="black"/>
<path fill-rule="evenodd" clip-rule="evenodd" d="M35.2483 19.2027C35.4883 18.8667 39.3603 11.8267 40.1283 10.7067C40.1603 10.6747 40.1443 10.6267 40.1123 10.5947C40.0803 10.5627 40.0323 10.5787 40.0003 10.6107C39.2163 11.7307 35.3443 18.7867 35.1203 19.1067C35.0883 19.1387 35.1043 19.1867 35.1363 19.2187C35.1683 19.2507 35.2163 19.2507 35.2483 19.2027Z" fill="black"/>
<path fill-rule="evenodd" clip-rule="evenodd" d="M34.0643 20.7868C33.9683 20.6268 33.4563 20.3228 33.4403 20.3708C33.3923 20.5788 33.1683 21.4268 33.1843 21.4588C33.2003 21.4908 34.0643 20.7868 34.0643 20.7868Z" fill="black"/>
<path d="M27.4403 35.2508C27.2963 34.9948 27.1523 34.7388 26.9763 34.4988C26.4003 33.7308 25.7923 32.9788 25.1043 32.0988C26.7523 31.7308 28.3523 32.2428 29.7763 31.4108C28.4163 30.7548 26.9443 30.9948 25.2483 30.8028C25.9203 29.9068 26.4803 29.2508 26.9603 28.5308C27.2803 28.0508 28.1283 27.4428 27.5683 26.9948C27.0563 26.5948 26.5923 27.5708 26.1603 27.9868C25.6483 28.4668 25.3443 29.1708 24.6083 29.5708C24.5443 29.2028 24.4963 28.9628 24.4803 28.7228C24.4163 27.9388 24.3843 27.1548 24.3363 26.3708C24.3043 26.0508 24.1283 25.8108 23.7763 25.8108C23.4243 25.8108 23.2323 26.0988 23.2163 26.3868C23.1843 27.0268 23.2483 27.6668 23.2643 28.3068C23.2803 28.8508 23.4883 29.4108 23.1043 30.0828C22.4643 29.3468 21.9363 28.7228 21.3763 28.1308C21.0243 27.7628 20.6563 27.0428 20.0963 27.4588C19.4563 27.9388 20.1923 28.3868 20.4803 28.8028C20.7363 29.1708 21.0563 29.4748 21.3283 29.8268C21.5683 30.1628 21.9843 30.3868 22.0483 30.9788C21.2003 31.0268 20.4163 31.0588 19.6483 31.1228C19.1363 31.1708 18.3523 31.0428 18.3843 31.7788C18.4163 32.5468 19.2003 32.2588 19.6963 32.2588C20.5763 32.2588 21.4723 32.1948 22.6403 32.1308C21.7443 33.2988 21.0243 34.1628 20.3843 35.0748C20.0483 35.5228 19.2483 36.0668 19.8083 36.5308C20.5283 37.1388 20.8643 36.1628 21.2323 35.7468C21.9363 34.9628 22.5603 34.0988 23.2003 33.2828C23.4563 33.8428 23.4563 34.3228 23.4563 34.7868C23.4563 35.4748 23.4403 36.1628 23.4883 36.8508C23.5203 37.3148 23.5043 38.0508 24.0323 38.0668C24.7363 38.0988 24.4803 37.3308 24.5283 36.9148C24.6083 36.3388 24.5763 35.7308 24.6243 35.1548C24.6723 34.7068 24.4803 34.1948 24.8963 33.6348C25.0563 33.8748 25.1683 34.0668 25.2963 34.1948C25.8083 34.7228 26.3363 35.2508 26.8643 35.7468C27.0083 35.8908 27.2163 35.9068 27.4083 35.7948C27.6323 35.6028 27.5363 35.4108 27.4403 35.2508Z" fill="#020202"/>
<path d="M8.48035 23.2028C8.22435 22.9468 7.92035 22.7708 7.60035 22.6268C7.28035 22.4828 6.96035 22.3228 6.62435 22.2108C6.25635 22.0988 6.16035 21.8908 6.16035 21.5388C6.17635 20.7068 6.12835 19.8908 6.11235 19.0588C6.11235 18.7708 6.04835 18.4668 5.72835 18.3548C5.42435 18.2428 5.18435 18.4028 4.96035 18.6108C4.86435 18.7068 4.75235 18.8028 4.67235 18.9148C4.20835 19.5068 3.68035 20.0668 3.28035 20.7068C2.97635 21.1868 2.62435 21.2508 2.16035 21.1228C1.72835 20.9948 1.26435 20.9948 0.832351 21.0428C0.0803507 21.1388 -0.143649 21.7148 0.336351 22.3068C0.608351 22.6268 0.944351 22.8988 1.34435 23.0748C1.66435 23.2188 1.74435 23.3788 1.60035 23.7308C1.32835 24.4348 1.08835 25.1548 0.848351 25.8588C0.768351 26.0988 0.672351 26.3708 0.912351 26.5788C1.15235 26.7868 1.42435 26.6428 1.64835 26.5308C2.00035 26.3548 2.35235 26.1468 2.68835 25.9388C2.97635 25.7628 3.24835 25.5868 3.58435 25.3628C3.80835 25.7148 4.00035 26.0188 4.17635 26.3228C4.36835 26.6428 4.60835 26.9468 4.89635 27.1868C5.08835 27.3468 5.28035 27.5708 5.56835 27.4588C5.84035 27.3468 5.90435 27.0908 5.93635 26.8188C5.98435 26.2748 6.04835 25.7308 6.08035 25.2028C6.11235 24.5148 6.09635 24.5148 6.81635 24.4348C7.31235 24.3708 7.80835 24.3068 8.27235 24.1308C8.80035 23.9388 8.86435 23.5868 8.48035 23.2028ZM6.38435 24.0348C5.82435 24.1148 5.80835 24.1148 5.76035 24.6748C5.69635 25.3628 5.63235 26.0348 5.55235 26.7228C5.53635 26.8348 5.56835 26.9628 5.37635 27.0428C5.07235 26.8188 4.84835 26.4988 4.60835 26.1788C4.38435 25.8748 4.17635 25.5548 3.96835 25.2508C3.66435 24.8348 3.61635 24.8188 3.18435 25.1068C2.56035 25.5228 1.96835 25.9868 1.12035 26.3548C1.42435 25.4908 1.66435 24.7548 1.93635 24.0028C1.96835 23.9068 2.01635 23.8268 2.04835 23.7468C2.32035 23.1068 2.32035 23.1068 1.71235 22.7708C1.34435 22.5628 0.960351 22.3708 0.688351 22.0348C0.432351 21.7308 0.512351 21.5548 0.896351 21.4588C1.37635 21.3468 1.84035 21.4428 2.30435 21.5068C2.84835 21.5868 3.24835 21.4428 3.58435 20.9788C4.00035 20.4028 4.46435 19.8748 4.91235 19.3308C5.08835 19.1228 5.24835 18.8828 5.53635 18.7868C5.71235 19.0108 5.66435 19.2508 5.66435 19.4748C5.68035 20.1788 5.69635 20.8988 5.66435 21.6028C5.64835 22.0188 5.80835 22.2588 6.17635 22.4188C6.60835 22.6108 7.02435 22.8188 7.44035 23.0428C7.71235 23.1868 8.00035 23.2988 8.20835 23.6508C7.60035 23.9068 6.99235 23.9388 6.38435 24.0348Z" fill="#020202"/>
<path d="M47.6803 40.1308C43.8083 42.3548 39.9683 44.7868 36.1283 47.0908C34.5443 44.4828 32.9763 41.8588 31.4083 39.2508C35.4083 36.8508 39.3923 34.4508 43.3923 32.0508C44.9603 34.7228 46.5283 37.2508 47.6803 40.1308Z" fill="#0B0C0C" stroke="black" stroke-width="0.266667" stroke-miterlimit="10"/>
<path d="M36.6403 40.6588C36.4643 40.7548 36.2883 40.8668 36.1283 40.9628C35.8723 41.1228 35.6163 41.2668 35.3603 41.4268C35.3283 41.4428 35.2963 41.4588 35.2643 41.4908C35.2323 41.5068 35.2163 41.5228 35.1843 41.5068C35.1523 41.4908 35.1523 41.4748 35.1363 41.4588C35.1203 41.4268 35.1043 41.3948 35.0723 41.3628C34.9123 41.1068 34.7683 40.8508 34.6083 40.5948C34.5443 40.4828 34.4643 40.3548 34.4003 40.2428C34.3683 40.1948 34.3363 40.1468 34.3043 40.0828C34.2723 40.0188 34.3683 39.9708 34.4323 39.9388C34.5443 39.8748 34.6403 39.8108 34.7523 39.7468C35.0243 39.5868 35.2803 39.4268 35.5523 39.2668C35.6163 39.2348 35.6803 39.1868 35.7283 39.1548C35.8083 39.1228 35.8243 39.1868 35.8563 39.2508C36.0003 39.4908 36.1443 39.7308 36.2883 39.9708C36.4163 40.1788 36.5283 40.3708 36.6563 40.5788C36.6883 40.5948 36.6883 40.6268 36.6403 40.6588C36.5603 40.7068 36.6403 40.8508 36.7203 40.7868C36.8163 40.7228 36.8643 40.5948 36.8003 40.4828C36.7843 40.4668 36.7843 40.4508 36.7683 40.4188C36.7043 40.3228 36.6403 40.2108 36.5763 40.1148C36.4163 39.8428 36.2403 39.5548 36.0803 39.2828C36.0483 39.2188 36.0003 39.1548 35.9683 39.0908C35.9043 38.9948 35.8083 38.9628 35.6963 38.9948C35.6643 39.0108 35.6483 39.0268 35.6163 39.0268C35.3763 39.1708 35.1363 39.3148 34.9123 39.4588C34.7043 39.5868 34.4803 39.7148 34.2723 39.8428C34.2083 39.8908 34.1603 39.9388 34.1603 40.0188C34.1603 40.0668 34.1763 40.1148 34.2083 40.1628C34.2563 40.2428 34.3043 40.3388 34.3683 40.4188C34.5443 40.6908 34.7043 40.9788 34.8803 41.2508C34.9283 41.3308 34.9923 41.4268 35.0403 41.5068C35.0723 41.5548 35.0883 41.5868 35.1363 41.6028C35.2163 41.6508 35.2963 41.6348 35.3763 41.6028C35.5843 41.4748 35.7923 41.3468 36.0003 41.2188C36.2403 41.0748 36.4803 40.9308 36.7203 40.7868C36.7363 40.7708 36.7523 40.7708 36.7683 40.7548C36.8163 40.7388 36.7363 40.6108 36.6403 40.6588Z" fill="white"/>
<path d="M37.1683 38.7228C37.2003 38.7068 37.2323 38.6908 37.2483 38.6748C37.3283 38.6268 37.4083 38.5788 37.4723 38.5308C37.5843 38.4668 37.6963 38.3868 37.8083 38.3228C37.9523 38.2428 38.0803 38.1628 38.2243 38.0668C38.3683 37.9708 39.5043 37.2988 39.6643 37.2028C39.8243 37.1068 39.9683 37.0108 40.1283 36.9308C40.2723 36.8508 40.4163 36.7548 40.5603 36.6748C40.6883 36.5948 40.8003 36.5308 40.9283 36.4508C41.0083 36.4028 40.9923 36.4188 41.0723 36.3548C41.1203 36.3228 41.1523 36.3068 41.2003 36.2748C41.2323 36.2588 41.2483 36.1948 41.2323 36.1628C41.2003 36.1308 41.1523 36.1148 41.1203 36.1308C41.0883 36.1468 41.0563 36.1628 41.0403 36.1788C40.9603 36.2268 41.0083 36.1948 40.9283 36.2428C40.8163 36.3068 40.7043 36.3868 40.5923 36.4508C40.4483 36.5308 40.3203 36.6108 40.1763 36.7068C40.0323 36.8028 39.8723 36.8828 39.7283 36.9788C39.5683 37.0748 39.4243 37.1708 39.2643 37.2508C39.1203 37.3308 38.0003 38.0188 37.8563 38.0988C37.7283 38.1788 37.6163 38.2428 37.4883 38.3228C37.4083 38.3708 37.3123 38.4348 37.2323 38.4828C37.1843 38.5148 37.1523 38.5308 37.1043 38.5628C37.0723 38.5788 37.0563 38.6428 37.0723 38.6748C37.0723 38.7228 37.1203 38.7388 37.1683 38.7228Z" fill="white"/>
<path d="M37.4563 39.2028C37.5043 39.1708 37.5523 39.1548 37.5843 39.1228C37.7123 39.0428 37.8243 38.9788 37.9523 38.8988C38.1283 38.7868 38.3043 38.6908 38.4803 38.5788C38.7043 38.4508 39.8883 37.7308 40.1123 37.6028C40.3523 37.4588 40.5923 37.3148 40.8163 37.1708C41.0563 37.0268 41.2963 36.8828 41.5363 36.7388C41.7603 36.6108 41.9843 36.4668 42.2083 36.3388C42.4003 36.2268 42.5923 36.1148 42.7683 36.0028C42.9123 35.9228 43.0403 35.8428 43.1843 35.7628C43.2483 35.7308 43.3123 35.6828 43.3763 35.6508C43.3763 35.6508 43.3763 35.6508 43.3923 35.6508C43.4243 35.6348 43.4403 35.5708 43.4243 35.5388C43.4083 35.5068 43.3443 35.4908 43.3123 35.5068C43.2643 35.5388 43.2163 35.5548 43.1843 35.5868C43.0563 35.6668 42.9443 35.7308 42.8163 35.8108C42.6403 35.9228 42.4643 36.0188 42.2883 36.1308C42.0643 36.2588 41.8563 36.3868 41.6323 36.5148C41.3923 36.6588 41.1523 36.8028 40.9283 36.9468C40.6883 37.0908 40.4483 37.2348 40.2083 37.3788C39.9843 37.5068 39.7603 37.6508 39.5363 37.7788C39.3443 37.8908 38.1763 38.5948 37.9843 38.7068C37.8403 38.7868 37.7123 38.8668 37.5683 38.9468C37.5043 38.9788 37.4403 39.0268 37.3763 39.0588C37.3763 39.0588 37.3763 39.0588 37.3603 39.0588C37.3283 39.0748 37.3123 39.1388 37.3283 39.1708C37.3603 39.2188 37.4243 39.2348 37.4563 39.2028Z" fill="white"/>
<path d="M37.7603 39.6987C37.7923 39.6827 37.8403 39.6507 37.8723 39.6347C37.9683 39.5707 38.0803 39.5067 38.1763 39.4587C38.3203 39.3627 38.4803 39.2827 38.6243 39.1867C38.8003 39.0747 39.9683 38.3867 40.1443 38.2747C40.3363 38.1627 40.5443 38.0347 40.7363 37.9227C40.9443 37.7947 41.1363 37.6827 41.3443 37.5547C41.5363 37.4427 41.7123 37.3307 41.9043 37.2187C42.0643 37.1227 42.2243 37.0267 42.3843 36.9307C42.4963 36.8667 42.6083 36.7867 42.7203 36.7227C42.7683 36.6907 42.8323 36.6587 42.8803 36.6267C42.9123 36.6107 42.9283 36.5467 42.9123 36.5147C42.8803 36.4827 42.8323 36.4667 42.8003 36.4827C42.7683 36.4987 42.7203 36.5307 42.6883 36.5467C42.5923 36.6107 42.4803 36.6747 42.3843 36.7227C42.2403 36.8187 42.0803 36.8987 41.9363 36.9947C41.7603 37.1067 41.5683 37.2187 41.3923 37.3147C41.2003 37.4267 40.9923 37.5547 40.8003 37.6667C40.5923 37.7947 40.4003 37.9067 40.1923 38.0347C40.0003 38.1467 38.8483 38.8507 38.6563 38.9627C38.4963 39.0587 38.3363 39.1547 38.1763 39.2507C38.0643 39.3147 37.9523 39.3947 37.8403 39.4587C37.7923 39.4907 37.7283 39.5227 37.6803 39.5547C37.6483 39.5707 37.6323 39.6347 37.6483 39.6667C37.6643 39.7147 37.7123 39.7307 37.7603 39.6987Z" fill="white"/>
<path d="M34.8643 40.3868C35.0883 39.9708 35.4243 40.2108 35.5683 40.2908C35.5523 40.0188 35.5523 39.4268 35.9043 38.8668C36.0323 38.6588 36.2083 38.5308 36.2083 38.5308C36.2083 38.5308 35.9203 38.9468 35.8563 39.5068C35.8083 39.9068 35.9203 40.5148 35.9043 40.6428C35.8883 40.7068 35.7443 40.8348 35.7443 40.8348C35.7443 40.8348 35.4723 40.5788 35.2323 40.4668C35.0243 40.3708 34.8643 40.3868 34.8643 40.3868Z" fill="white"/>
<path d="M36.3523 38.4668C36.3523 38.4668 36.0643 38.8828 36.0003 39.4428C35.9523 39.8428 36.0643 40.4508 36.0483 40.5788C36.0323 40.6428 35.8883 40.7708 35.8883 40.7708C35.8883 40.7708 35.8883 40.7708 35.8723 40.7548C35.9043 40.7068 35.9523 40.6588 35.9523 40.6268C35.9683 40.4988 35.8563 39.8748 35.9043 39.4908C35.9683 39.0588 36.1443 38.7068 36.2243 38.5788C36.3043 38.4988 36.3523 38.4668 36.3523 38.4668Z" fill="white"/>
<path d="M38.8164 44.2588C38.6404 44.3548 38.4644 44.4668 38.3044 44.5628C38.0484 44.7228 37.7924 44.8668 37.5364 45.0268C37.5044 45.0428 37.4724 45.0588 37.4404 45.0908C37.4084 45.1068 37.3924 45.1228 37.3604 45.1068C37.3284 45.0908 37.3284 45.0748 37.3124 45.0588C37.2964 45.0268 37.2804 44.9948 37.2484 44.9628C37.0884 44.7068 36.9444 44.4508 36.7844 44.1948C36.7204 44.0828 36.6404 43.9548 36.5764 43.8428C36.5444 43.7948 36.5124 43.7468 36.4804 43.6828C36.4484 43.6188 36.5444 43.5708 36.6084 43.5388C36.7204 43.4748 36.8164 43.4108 36.9284 43.3468C37.2004 43.1868 37.4564 43.0268 37.7284 42.8668C37.7924 42.8348 37.8564 42.7868 37.9044 42.7548C37.9844 42.7228 38.0004 42.7868 38.0324 42.8508C38.1764 43.0908 38.3204 43.3308 38.4644 43.5708C38.5924 43.7788 38.7044 43.9708 38.8324 44.1788C38.8484 44.1948 38.8484 44.2268 38.8164 44.2588C38.7364 44.3068 38.8164 44.4508 38.8964 44.3868C38.9924 44.3228 39.0404 44.1948 38.9764 44.0828C38.9604 44.0668 38.9604 44.0508 38.9444 44.0188C38.8804 43.9228 38.8164 43.8108 38.7524 43.7148C38.5924 43.4428 38.4164 43.1548 38.2564 42.8828C38.2244 42.8188 38.1764 42.7548 38.1444 42.6908C38.0804 42.5948 37.9844 42.5628 37.8724 42.5948C37.8404 42.6108 37.8244 42.6268 37.7924 42.6268C37.5524 42.7708 37.3124 42.9148 37.0884 43.0588C36.8804 43.1868 36.6564 43.3148 36.4484 43.4428C36.3844 43.4908 36.3364 43.5388 36.3364 43.6188C36.3364 43.6668 36.3524 43.7148 36.3844 43.7628C36.4324 43.8428 36.4804 43.9388 36.5444 44.0188C36.7204 44.2908 36.8804 44.5788 37.0564 44.8508C37.1044 44.9308 37.1684 45.0268 37.2164 45.1068C37.2484 45.1548 37.2644 45.1868 37.3124 45.2028C37.3924 45.2508 37.4724 45.2348 37.5524 45.2028C37.7604 45.0748 37.9684 44.9468 38.1764 44.8188C38.4164 44.6748 38.6564 44.5308 38.8964 44.3868C38.9124 44.3708 38.9284 44.3708 38.9444 44.3548C38.9764 44.3388 38.8964 44.2108 38.8164 44.2588Z" fill="white"/>
<path d="M39.3284 42.3228C39.3604 42.3068 39.3924 42.2908 39.4084 42.2748C39.4884 42.2268 39.5684 42.1788 39.6324 42.1308C39.7444 42.0668 39.8564 41.9868 39.9684 41.9228C40.1124 41.8428 40.2404 41.7628 40.3844 41.6668C40.5284 41.5708 41.6644 40.8988 41.8244 40.8028C41.9844 40.7068 42.1283 40.6108 42.2883 40.5308C42.4323 40.4508 42.5764 40.3548 42.7204 40.2748C42.8484 40.1948 42.9603 40.1308 43.0883 40.0508C43.1683 40.0028 43.1524 40.0188 43.2324 39.9548C43.2804 39.9228 43.3124 39.9068 43.3604 39.8748C43.3924 39.8588 43.4084 39.7948 43.3924 39.7628C43.3604 39.7308 43.3124 39.7148 43.2804 39.7308C43.2484 39.7468 43.2164 39.7628 43.2004 39.7788C43.1204 39.8268 43.1683 39.7948 43.0883 39.8428C42.9763 39.9068 42.8644 39.9868 42.7524 40.0508C42.6084 40.1308 42.4804 40.2108 42.3364 40.3068C42.1924 40.4028 42.0323 40.4828 41.8883 40.5788C41.7283 40.6748 41.5844 40.7708 41.4244 40.8508C41.2804 40.9308 40.1604 41.6188 40.0164 41.6988C39.8884 41.7788 39.7764 41.8428 39.6484 41.9228C39.5684 41.9708 39.4724 42.0348 39.3924 42.0828C39.3444 42.1148 39.3124 42.1308 39.2644 42.1628C39.2324 42.1788 39.2164 42.2428 39.2324 42.2748C39.2324 42.3228 39.2964 42.3388 39.3284 42.3228Z" fill="white"/>
<path d="M39.6323 42.8187C39.6803 42.7867 39.7283 42.7707 39.7603 42.7387C39.8883 42.6587 40.0003 42.5947 40.1283 42.5147C40.3043 42.4027 40.4803 42.3067 40.6563 42.1947C40.8803 42.0667 42.0643 41.3467 42.2883 41.2187C42.5283 41.0747 42.7683 40.9307 42.9923 40.7867C43.2323 40.6427 43.4723 40.4987 43.7123 40.3547C43.9363 40.2267 44.1603 40.0827 44.3843 39.9547C44.5763 39.8427 44.7683 39.7307 44.9443 39.6187C45.0883 39.5387 45.2163 39.4587 45.3603 39.3787C45.4243 39.3467 45.4883 39.2987 45.5523 39.2667C45.5523 39.2667 45.5523 39.2667 45.5683 39.2667C45.6003 39.2507 45.6163 39.1867 45.6003 39.1547C45.5843 39.1227 45.5203 39.1067 45.4883 39.1227C45.4403 39.1547 45.3923 39.1707 45.3603 39.2027C45.2323 39.2827 45.1203 39.3467 44.9923 39.4267C44.8163 39.5387 44.6403 39.6347 44.4643 39.7467C44.2403 39.8747 44.0323 40.0027 43.8083 40.1307C43.5683 40.2747 43.3283 40.4187 43.1043 40.5627C42.8643 40.7067 42.6243 40.8507 42.3843 40.9947C42.1603 41.1227 41.9363 41.2667 41.7123 41.3947C41.5203 41.5067 40.3523 42.2107 40.1603 42.3227C40.0163 42.4027 39.8883 42.4827 39.7443 42.5627C39.6803 42.5947 39.6163 42.6427 39.5523 42.6747C39.5523 42.6747 39.5523 42.6747 39.5363 42.6747C39.5043 42.6907 39.4883 42.7547 39.5043 42.7867C39.5363 42.8187 39.5843 42.8347 39.6323 42.8187Z" fill="white"/>
<path d="M39.9203 43.2987C39.9523 43.2827 40.0003 43.2507 40.0323 43.2347C40.1283 43.1707 40.2403 43.1067 40.3363 43.0587C40.4803 42.9627 40.6403 42.8827 40.7843 42.7867C40.9603 42.6747 42.1283 41.9867 42.3043 41.8747C42.4963 41.7627 42.7043 41.6347 42.8963 41.5227C43.1043 41.3947 43.2963 41.2827 43.5043 41.1547C43.6963 41.0427 43.8723 40.9307 44.0643 40.8187C44.2243 40.7227 44.3843 40.6267 44.5443 40.5307C44.6563 40.4667 44.7683 40.3867 44.8803 40.3227C44.9283 40.2907 44.9923 40.2587 45.0403 40.2267C45.0723 40.2107 45.0883 40.1467 45.0723 40.1147C45.0403 40.0827 44.9923 40.0667 44.9603 40.0827C44.9283 40.0987 44.8803 40.1307 44.8483 40.1467C44.7523 40.2107 44.6403 40.2747 44.5443 40.3227C44.4003 40.4187 44.2403 40.4987 44.0963 40.5947C43.9203 40.7067 43.7283 40.8187 43.5523 40.9147C43.3603 41.0267 43.1523 41.1547 42.9603 41.2667C42.7523 41.3947 42.5603 41.5067 42.3523 41.6347C42.1603 41.7467 41.0083 42.4507 40.8163 42.5627C40.6563 42.6587 40.4963 42.7547 40.3363 42.8507C40.2243 42.9147 40.1123 42.9947 40.0003 43.0587C39.9523 43.0907 39.8883 43.1227 39.8403 43.1547C39.8083 43.1707 39.7923 43.2347 39.8083 43.2667C39.8243 43.3147 39.8723 43.3307 39.9203 43.2987Z" fill="white"/>
<path d="M37.0403 43.9867C37.2643 43.5707 37.6003 43.8107 37.7443 43.8907C37.7283 43.6187 37.7283 43.0267 38.0803 42.4667C38.2083 42.2587 38.3843 42.1307 38.3843 42.1307C38.3843 42.1307 38.0963 42.5467 38.0323 43.1067C37.9843 43.5067 38.0963 44.1147 38.0803 44.2427C38.0643 44.3067 37.9203 44.4347 37.9203 44.4347C37.9203 44.4347 37.6483 44.1787 37.4083 44.0667C37.2003 43.9707 37.0403 44.0027 37.0403 43.9867Z" fill="white"/>
<path d="M38.5283 42.0668C38.5283 42.0668 38.2403 42.4828 38.1763 43.0428C38.1283 43.4428 38.2403 44.0508 38.2243 44.1788C38.2083 44.2428 38.0643 44.3708 38.0643 44.3708C38.0643 44.3708 38.0643 44.3708 38.0483 44.3548C38.0803 44.3068 38.1283 44.2588 38.1283 44.2268C38.1443 44.0988 38.0323 43.4748 38.0803 43.0908C38.1443 42.6588 38.3203 42.3068 38.4003 42.1788C38.4803 42.0988 38.5283 42.0668 38.5283 42.0668Z" fill="white"/>
</g>
<defs>
<clipPath id="clip0_13289_9960">
<rect width="48" height="48" fill="white" transform="translate(0.0803223 1.7948)"/>
</clipPath>
</defs>
</svg>
