<svg width="68" height="68" viewBox="0 0 68 68" fill="none" xmlns="http://www.w3.org/2000/svg">
<rect x="0.373856" y="0.0372314" width="67.1981" height="67.1981" rx="33.599" fill="white"/>
<g clip-path="url(#clip0_2975_20292)">
<path d="M30.3606 56.3349C29.1846 56.0829 27.9246 55.7469 26.7487 55.3269C25.9087 54.991 24.9847 54.655 24.2288 54.151C24.1448 52.891 25.2367 51.3791 26.9167 51.4631C31.6205 51.4631 36.3244 51.4631 41.0283 51.4631C42.2882 51.3791 43.4642 52.303 43.7162 53.647C43.7162 53.815 43.7162 53.983 43.7162 54.151C41.8682 55.1589 39.9363 55.8309 37.8364 56.1669C37.7524 56.1669 37.6684 56.2509 37.5844 56.2509C37.4164 56.1669 37.3324 56.1669 37.1644 56.2509L37.0804 56.3349C36.9124 56.2509 36.8284 56.2509 36.6604 56.3349C36.5764 56.3349 36.4084 56.4189 36.3244 56.4189C36.1564 56.3349 35.9884 56.3349 35.8204 56.4189C35.7364 56.4189 35.6524 56.4189 35.6524 56.5029C35.5684 56.5029 35.5684 56.5029 35.4844 56.5029C35.0644 56.4189 34.6445 56.4189 34.1405 56.5029C33.9725 56.5029 33.8045 56.5029 33.6365 56.5029C33.2165 56.4189 32.7965 56.4189 32.2925 56.5029C32.2085 56.5029 32.2085 56.5029 32.1245 56.5029C32.1245 56.4189 32.0405 56.4189 31.9565 56.4189C31.7885 56.3349 31.6205 56.3349 31.4525 56.4189C31.3685 56.4189 31.2006 56.3349 31.1166 56.3349C30.9486 56.2509 30.8646 56.2509 30.6966 56.3349L30.6126 56.2509C30.6126 56.2509 30.5286 56.2509 30.3606 56.3349Z" fill="#D3E3FE"/>
<path d="M21.5411 18.3686C23.053 17.2766 24.649 16.4366 26.3289 15.7646C28.2609 15.0087 30.1088 14.5047 32.1248 14.3367C32.2088 14.3367 32.2927 14.3367 32.2927 14.2527C32.4607 14.2527 32.5447 14.2527 32.7127 14.2527C32.7967 14.3367 32.8807 14.2527 32.8807 14.3367C32.9647 14.3367 33.0487 14.3367 33.2167 14.2527C33.7207 14.2527 34.2247 14.2527 34.7287 14.2527C34.8127 14.3367 34.8967 14.2527 35.0647 14.3367C35.1487 14.3367 35.2327 14.3367 35.2327 14.2527C35.4007 14.2527 35.4847 14.2527 35.6527 14.2527C36.0726 14.4207 36.4926 14.4207 36.9126 14.4207C40.3565 14.9247 43.4644 16.1846 46.3203 18.2006C46.4043 18.2006 46.4043 18.2846 46.4883 18.2846C46.4883 18.4526 46.3203 18.4526 46.1523 18.4526C45.9844 18.4526 45.8164 18.4526 45.7324 18.4526C37.9206 18.4526 30.1088 18.4526 22.297 18.4526C22.129 18.4526 21.961 18.4526 21.8771 18.4526C21.7091 18.5366 21.5411 18.5366 21.5411 18.3686Z" fill="#0069A2"/>
<path d="M12.889 33.6568C13.057 33.3208 13.057 32.9008 13.057 32.4808C13.393 30.3809 13.981 28.365 14.8209 26.433C14.8209 26.349 14.9049 26.265 14.9049 26.265C15.0729 26.265 15.0729 26.433 15.0729 26.601C15.0729 26.769 15.0729 26.853 15.0729 27.021C15.0729 32.6488 15.0729 38.2767 15.0729 43.9045C15.0729 44.1565 15.2409 44.4925 14.9049 44.6605C14.233 43.1485 13.645 41.5526 13.309 39.9566C13.141 39.1166 13.057 38.3607 12.889 37.5207C12.889 37.4367 12.889 37.3527 12.805 37.2687C12.805 37.1007 12.805 36.9327 12.805 36.7647C12.889 36.6807 12.805 36.5967 12.889 36.5967C12.889 36.5127 12.889 36.4287 12.805 36.2607C12.805 35.7567 12.805 35.2528 12.805 34.7488C12.889 34.6648 12.805 34.5808 12.889 34.4128C12.889 34.3288 12.889 34.2448 12.805 34.2448C12.889 33.9928 12.889 33.8248 12.889 33.6568Z" fill="#0069A2"/>
<path d="M53.0402 26.265C53.7122 27.777 54.3002 29.3729 54.6361 30.9689C54.8041 31.8089 54.9721 32.6488 55.0561 33.4888C55.0561 33.5728 54.9721 33.6568 55.1401 33.7408C55.1401 33.9088 55.1401 33.9928 55.1401 34.1608C55.0561 34.2448 55.1401 34.3288 55.0561 34.3288C55.0561 34.4128 55.0561 34.4968 55.1401 34.6648C55.1401 35.1688 55.1401 35.6727 55.1401 36.1767C55.0561 36.2607 55.1401 36.3447 55.0561 36.5127C55.0561 36.5967 55.0561 36.6807 55.1401 36.6807C55.1401 36.8487 55.1401 37.0167 55.1401 37.1847C54.9721 37.5207 54.9721 37.9407 54.9721 38.3607C54.6361 40.4606 54.0482 42.4765 53.2082 44.4085C53.2082 44.4925 53.1242 44.5765 53.1242 44.5765C52.9562 44.5765 52.9562 44.4085 52.9562 44.2405C52.9562 44.0725 52.9562 43.9885 52.9562 43.8205C52.9562 38.1927 52.9562 32.5648 52.9562 26.937C52.8722 26.769 52.7042 26.433 53.0402 26.265Z" fill="#0069A2"/>
<path d="M12.8887 36.1758C12.9727 36.2598 12.9727 36.4278 12.9727 36.5118H12.8887C12.8887 36.4278 12.8887 36.2598 12.8887 36.1758Z" fill="#4591BB"/>
<path d="M55.0561 36.5118C55.0561 36.4278 54.9721 36.2598 55.1401 36.1758C55.1401 36.2598 55.1401 36.4278 55.0561 36.5118Z" fill="#4591BB"/>
<path d="M55.1396 34.6645C55.0556 34.5805 55.0556 34.4125 55.0556 34.3285H55.1396C55.1396 34.4965 55.1396 34.5805 55.1396 34.6645Z" fill="#4591BB"/>
<path d="M12.9727 34.3285C12.9727 34.4125 13.0567 34.5805 12.8887 34.6645C12.8887 34.5805 12.8887 34.4965 12.9727 34.3285C12.8887 34.3285 12.8887 34.3285 12.9727 34.3285Z" fill="#4591BB"/>
<path d="M12.8887 36.5121C12.9727 36.5961 12.9727 36.6801 12.8887 36.6801C12.8887 36.5961 12.8887 36.5121 12.8887 36.5121Z" fill="#60A1C5"/>
<path d="M55.0556 36.5121C55.1396 36.5961 55.1396 36.5961 55.1396 36.6801C55.0556 36.5961 55.0556 36.5961 55.0556 36.5121Z" fill="#60A1C5"/>
<path d="M55.1399 34.3274C55.0559 34.2434 55.0559 34.1594 55.1399 34.1594C55.1399 34.2434 55.1399 34.3274 55.1399 34.3274Z" fill="#60A1C5"/>
<path d="M12.9727 34.3274C12.8887 34.3274 12.8887 34.3274 12.9727 34.3274C12.8887 34.2434 12.8887 34.2434 12.8887 34.1594C12.9727 34.2434 12.9727 34.2434 12.9727 34.3274Z" fill="#60A1C5"/>
<path d="M53.0398 26.265C52.8718 26.349 52.9558 26.517 52.9558 26.601C52.9558 32.4809 52.9558 38.3607 52.9558 44.2405C52.9558 44.3245 52.8718 44.4925 53.0398 44.5765C52.1999 46.2565 51.1919 47.7684 50.0159 49.1964L49.9319 49.2804C49.8479 49.2804 49.7639 49.2804 49.5959 49.2804C39.1802 49.2804 28.7645 49.2804 18.3488 49.2804C18.2648 49.2804 18.1808 49.2804 18.0128 49.2804C17.2569 48.4404 16.5849 47.5164 15.9969 46.5925C15.6609 45.9205 15.3249 45.2485 14.9049 44.5765C15.0729 44.4925 14.9889 44.3245 14.9889 44.2405C14.9889 38.3607 14.9889 32.4809 14.9889 26.601C14.9889 26.517 15.0729 26.349 14.9049 26.265C14.9889 26.0971 14.9889 25.9291 14.9889 25.6771C14.9889 24.5011 14.9889 23.3251 14.9889 22.1492C14.9889 21.2252 15.1569 20.3012 15.8289 19.6292C16.4169 18.9573 17.0889 18.6213 17.9288 18.4533C18.9368 18.2853 20.0288 18.3693 21.0368 18.3693C21.2048 18.3693 21.3728 18.3693 21.5407 18.2853C21.6247 18.4533 21.7927 18.3693 21.8767 18.3693C29.9405 18.3693 38.0043 18.3693 46.068 18.3693C46.152 18.3693 46.32 18.4533 46.404 18.2853C46.572 18.3693 46.74 18.3693 46.908 18.3693C47.916 18.3693 48.924 18.3693 50.0159 18.4533C51.4439 18.6213 52.7878 19.9652 52.8718 21.3932C52.9558 22.8211 52.8718 24.2491 52.9558 25.6771C52.9558 25.9291 52.9558 26.0971 53.0398 26.265Z" fill="#D3E3FE"/>
<path d="M49.7639 49.1953C49.8479 49.1953 49.9319 49.1953 49.9319 49.2793C48.168 51.2953 46.068 52.8912 43.7161 54.1512C43.5481 54.0672 43.6321 53.9832 43.6321 53.8992C43.4641 52.5552 42.5401 51.6312 41.1962 51.6312C40.8602 51.5472 40.5242 51.6312 40.1042 51.6312C39.8522 51.6312 39.7682 51.5472 39.6842 51.2953C39.6842 50.7913 39.6842 50.2873 39.6842 49.6993C39.6842 49.4473 39.8522 49.2793 40.1042 49.2793C41.4482 49.2793 42.8761 49.2793 44.2201 49.2793C45.9 49.2793 47.58 49.2793 49.2599 49.2793C49.5119 49.2793 49.5959 49.2793 49.7639 49.1953Z" fill="#0069A2"/>
<path d="M18.013 49.2793C18.013 49.1953 18.097 49.1953 18.181 49.1953C18.349 49.2793 18.517 49.1953 18.601 49.1953C21.6249 49.1953 24.6488 49.1953 27.6727 49.1953C28.1767 49.1953 28.1767 49.1953 28.1767 49.6993C28.1767 50.2033 28.1767 50.6233 28.1767 51.1273C28.1767 51.3792 28.0927 51.5472 27.7567 51.5472C27.4207 51.5472 27.0847 51.4632 26.7487 51.5472C25.4048 51.6312 24.4808 52.4712 24.3128 53.8152C24.3128 53.8992 24.3128 54.0672 24.2288 54.0672C21.8769 52.9752 19.7769 51.2953 18.013 49.2793Z" fill="#0069A2"/>
<path d="M26.8326 51.6312C27.1686 51.5472 27.5046 51.6312 27.9246 51.5472C28.1765 51.5472 28.1765 51.4632 28.1765 51.2953C28.1765 50.7913 28.1765 50.2873 28.1765 49.6993C28.1765 49.3633 28.0925 49.2793 27.7566 49.2793C25.3206 49.2793 22.8847 49.2793 20.5328 49.2793C19.9448 49.2793 19.3568 49.2793 18.6848 49.2793C18.5168 49.2793 18.3488 49.2793 18.2648 49.1953C18.4328 49.1953 18.6008 49.1953 18.6848 49.1953C22.6327 49.1953 26.4966 49.1953 30.4445 49.1953C36.7443 49.1953 43.0441 49.1953 49.2599 49.1953C49.4279 49.1953 49.5959 49.1953 49.7639 49.1953C49.5959 49.2793 49.4279 49.2793 49.2599 49.2793C46.236 49.2793 43.2961 49.2793 40.2722 49.2793C39.9362 49.2793 39.7682 49.3633 39.7682 49.6993C39.7682 50.2033 39.7682 50.7073 39.7682 51.2113C39.7682 51.4632 39.8522 51.4632 40.0202 51.4632C40.3562 51.4632 40.6922 51.3792 41.1122 51.5472C40.5242 51.5472 39.9362 51.5472 39.2642 51.5472C35.2323 51.5472 31.2005 51.5472 27.1686 51.5472C27.1686 51.6312 27.0006 51.6312 26.8326 51.6312Z" fill="#87A7E5"/>
<path d="M33.9725 44.4919C28.8487 44.4919 23.8088 44.4919 18.685 44.4919C17.341 44.4919 16.753 43.9039 16.753 42.5599C16.753 35.7561 16.753 28.9523 16.753 22.0645C16.753 20.8045 17.425 20.1326 18.685 20.1326C28.9327 20.1326 39.0964 20.1326 49.3441 20.1326C50.6041 20.1326 51.276 20.8045 51.276 22.0645C51.276 28.8683 51.276 35.6721 51.276 42.5599C51.276 43.9039 50.6041 44.4919 49.3441 44.4919C44.2202 44.4919 39.0964 44.4919 33.9725 44.4919Z" fill="#244477"/>
<path d="M39.8525 35.4201C37.2486 35.4201 34.5607 35.4201 31.9568 35.4201C31.2008 35.4201 30.7808 35.0841 30.7808 34.4961C30.7808 33.9081 31.2008 33.5721 31.9568 33.5721C37.2486 33.5721 42.4565 33.5721 47.7483 33.5721C48.5883 33.5721 49.0923 34.0761 48.8403 34.7481C48.7563 35.1681 48.4203 35.4201 47.8323 35.4201C46.4043 35.4201 44.9764 35.4201 43.5484 35.4201C42.2885 35.4201 41.1125 35.4201 39.8525 35.4201Z" fill="#FE4079"/>
<path d="M39.8525 40.6283C42.4565 40.6283 45.1444 40.6283 47.7483 40.6283C48.0003 40.6283 48.2523 40.6283 48.5043 40.7963C48.8403 40.9643 48.9243 41.3003 48.9243 41.6363C48.8403 42.0563 48.6723 42.3082 48.2523 42.3922C48.0843 42.3922 47.8323 42.4762 47.6643 42.4762C42.4565 42.4762 37.2486 42.4762 32.0408 42.4762C31.8728 42.4762 31.7048 42.4762 31.5368 42.4762C31.1168 42.3922 30.7808 42.0563 30.7808 41.6363C30.7808 41.2163 31.0328 40.8803 31.4528 40.7963C31.6208 40.7963 31.7888 40.7963 31.9568 40.7963C34.5607 40.6283 37.2486 40.6283 39.8525 40.6283Z" fill="#FBD871"/>
<path d="M39.8525 30.1289C42.4564 30.1289 45.1443 30.1289 47.7482 30.1289C48.1682 30.1289 48.5042 30.2129 48.7562 30.5489C49.0082 31.0529 48.7562 31.6409 48.2522 31.8089C48.0842 31.8929 47.9162 31.8929 47.6642 31.8929C42.4564 31.8929 37.2485 31.8929 31.9567 31.8929C31.7887 31.8929 31.5367 31.8929 31.3687 31.8089C31.0327 31.7249 30.6967 31.3049 30.7807 30.9689C30.7807 30.6329 30.9487 30.2969 31.3687 30.1289C31.5367 30.0449 31.7887 30.0449 32.0407 30.0449C34.6446 30.1289 37.2485 30.1289 39.8525 30.1289Z" fill="#228AD0"/>
<path d="M39.8522 38.9486C37.2483 38.9486 34.6444 38.9486 32.0404 38.9486C31.2845 38.9486 30.8645 38.6127 30.8645 38.1087C30.8645 37.5207 31.2845 37.1847 32.0404 37.1847C37.3323 37.1847 42.5401 37.1847 47.832 37.1847C48 37.1847 48.084 37.1847 48.252 37.1847C48.672 37.2687 49.0079 37.6047 49.0079 38.0247C49.0079 38.4447 48.672 38.7806 48.252 38.8646C48.084 38.8646 47.916 38.8646 47.748 38.8646C45.0601 38.9486 42.4561 38.9486 39.8522 38.9486Z" fill="#FEFEFE"/>
<path d="M23.137 42.4759C22.213 42.4759 21.2891 42.4759 20.4491 42.4759C20.1971 42.4759 20.0291 42.4759 19.7771 42.3919C19.2731 42.2239 19.0211 41.8879 19.1051 41.3839C19.1051 41.0479 19.5251 40.7119 19.9451 40.7119C20.4491 40.7119 21.0371 40.7119 21.5411 40.7119C23.053 40.7119 24.649 40.7119 26.1609 40.7119C26.8329 40.7119 27.2529 41.1319 27.1689 41.8039C27.0849 42.2239 26.6649 42.5599 26.0769 42.5599C25.153 42.4759 24.145 42.4759 23.137 42.4759Z" fill="#0069A2"/>
<path d="M23.1367 35.4197C22.1287 35.4197 21.1207 35.4197 20.1128 35.4197C19.4408 35.4197 19.0208 34.9157 19.1048 34.3277C19.1888 33.9078 19.6088 33.6558 20.2808 33.6558C22.0447 33.6558 23.7247 33.6558 25.4886 33.6558C25.8246 33.6558 26.1606 33.6558 26.4966 33.7398C27.0846 33.9078 27.2526 34.1597 27.2526 34.6637C27.2526 35.0837 26.8326 35.4197 26.3286 35.4197C25.2366 35.4197 24.2286 35.4197 23.1367 35.4197Z" fill="#0069A2"/>
<path d="M23.137 30.1285C24.145 30.1285 25.153 30.1285 26.1609 30.1285C26.5809 30.1285 26.9169 30.2965 27.0849 30.6325C27.3369 31.1365 27.0849 31.7245 26.4969 31.8925C26.3289 31.9765 26.0769 31.9765 25.9089 31.9765C23.977 31.9765 22.1291 31.9765 20.1971 31.9765C19.4411 31.9765 19.0211 31.6405 19.0211 31.0525C19.0211 30.4645 19.4411 30.1285 20.1971 30.1285C21.2891 30.1285 22.2131 30.1285 23.137 30.1285Z" fill="#FEFEFE"/>
<path d="M23.137 37.1843C24.229 37.1843 25.237 37.1843 26.3289 37.1843C26.7489 37.1843 27.0009 37.3523 27.1689 37.6883C27.3369 38.0243 27.2529 38.3603 27.0009 38.6123C26.8329 38.8643 26.5809 38.9483 26.3289 38.9483C24.229 38.9483 22.1291 38.9483 19.9451 38.9483C19.4411 38.9483 19.0211 38.5283 19.0211 38.1083C19.0211 37.6043 19.3571 37.2683 19.9451 37.2683C21.0371 37.1003 22.1291 37.1843 23.137 37.1843Z" fill="#FBD871"/>
<path d="M32.2928 29.289C31.9568 29.289 31.7048 28.953 31.7888 28.617C31.7888 28.533 31.8728 28.449 31.8728 28.365C32.9648 26.0971 34.0567 23.9131 35.1487 21.6452C35.2327 21.3932 35.4007 21.1412 35.7367 21.2252C36.1567 21.2252 36.3247 21.6452 36.1567 22.0652C35.4007 23.7451 34.5607 25.3411 33.7207 27.021C33.3848 27.693 33.0488 28.281 32.7968 28.953C32.6288 29.205 32.4608 29.289 32.2928 29.289Z" fill="#FEFEFE"/>
<path d="M38.6766 26.0966C38.1726 25.7606 37.6686 25.4246 37.1646 25.0886C36.7446 24.8366 36.6606 24.5006 36.9126 24.1646C37.1646 23.8286 37.4166 23.7446 37.8366 23.9966C38.5926 24.4166 39.2646 24.9206 39.9365 25.4246C40.5245 25.8446 40.5245 26.3485 39.9365 26.6845C39.1806 27.1885 38.5086 27.6085 37.7526 28.1125C37.4166 28.3645 37.0806 28.2805 36.8286 27.9445C36.5766 27.6085 36.6606 27.3565 37.0806 27.1045C37.5846 26.7685 38.0886 26.4325 38.6766 26.0966Z" fill="#FEFEFE"/>
<path d="M29.2682 26.0962C29.8562 26.4322 30.2762 26.7682 30.7801 27.1041C31.2001 27.3561 31.2841 27.6921 31.0321 28.0281C30.7801 28.3641 30.5282 28.4481 30.1082 28.1961C29.3522 27.6921 28.6802 27.2721 27.9242 26.7682C27.3363 26.3482 27.3363 25.8442 27.9242 25.5082C28.6802 25.0042 29.3522 24.5842 30.1082 24.0802C30.4442 23.8282 30.7801 23.9122 31.0321 24.2482C31.2841 24.5842 31.2001 24.8362 30.7801 25.0882C30.3602 25.4242 29.8562 25.7602 29.2682 26.0962Z" fill="#FEFEFE"/>
</g>
<defs>
<clipPath id="clip0_2975_20292">
<rect width="45.0227" height="44.6027" fill="white" transform="translate(11.4613 13.3298)"/>
</clipPath>
</defs>
</svg>
