<svg width="68" height="68" viewBox="0 0 68 68" fill="none" xmlns="http://www.w3.org/2000/svg">
<rect x="0.571533" y="0.704468" width="67.1981" height="67.1981" rx="33.599" fill="white"/>
<g clip-path="url(#clip0_2975_20545)">
<path d="M35.4735 12.5698C36.0615 12.8218 36.7334 12.8218 37.3214 12.9898C39.6733 13.7458 41.6053 15.1737 43.2012 16.9377C43.7052 17.4417 44.1252 18.0297 44.5452 18.5337C45.1332 18.9536 45.3852 19.6256 45.7212 20.1296C46.0572 20.6336 46.3092 21.2216 46.5611 21.7256C47.6531 23.8255 48.3251 26.0094 48.9131 28.2774C49.2491 29.8733 49.5011 31.5533 49.6691 33.2332C49.7531 34.2412 49.7531 35.2492 49.7531 36.2571C49.7531 37.2651 49.6691 38.2731 49.6691 39.1971C49.5011 40.961 49.2491 42.641 48.8291 44.3209C48.3251 46.5888 47.5691 48.6888 46.4772 50.7887C46.0572 51.7967 45.3852 52.7207 44.7972 53.6446C44.7132 53.7286 44.6292 53.8126 44.4612 53.8966C43.2852 55.4086 42.0253 56.8365 40.3453 57.9285C38.9174 58.9365 37.3214 59.6085 35.5575 59.8605C35.4735 59.8605 35.4735 59.9445 35.3895 59.9445C34.9695 59.9445 34.5495 59.9445 34.2135 59.9445C34.1295 59.8605 34.0455 59.7765 34.0455 59.6085C34.0455 58.8525 33.9615 58.0125 34.0455 57.2565C34.1295 57.0045 34.3815 57.0045 34.5495 57.0045C36.3974 56.8365 38.0774 56.0806 39.5054 54.9046C39.9253 54.5686 40.2613 54.1486 40.6813 53.8126C41.5213 52.9727 42.1933 52.0487 42.7813 51.1247C43.5372 50.0327 44.0412 48.8568 44.5452 47.5968C45.1332 46.0849 45.6372 44.4889 45.8892 42.8089C46.2252 41.129 46.3932 39.449 46.4772 37.7691C46.6451 34.9132 46.3932 32.1413 45.8892 29.3693C45.6372 27.6894 45.1332 26.1774 44.5452 24.5815C44.1252 23.3215 43.4532 22.1455 42.7813 21.0536C42.1933 20.0456 41.5213 19.1216 40.6813 18.3657C39.3374 16.9377 37.7414 15.8457 35.7255 15.4257C35.3895 15.5937 34.9695 15.5937 34.5495 15.5097C34.3815 15.5097 34.2135 15.5097 34.1295 15.2577C34.0455 14.5018 34.1295 13.6618 34.1295 12.9058C34.1295 12.8218 34.2135 12.6538 34.2975 12.5698C34.6335 12.5698 35.0535 12.5698 35.4735 12.5698Z" fill="#66CBFE"/>
<path d="M34.2977 57.3405C34.2977 58.2645 34.2977 59.1885 34.2977 60.1124C33.8777 60.1124 33.4577 60.1124 33.1217 60.1124C32.7017 59.9445 32.1977 59.8605 31.6937 59.7765C29.9298 59.2725 28.3338 58.3485 26.9059 57.1725C25.8139 56.2486 24.9739 55.1566 24.05 54.0646C23.462 53.5606 23.21 52.8887 22.79 52.3007C22.538 51.7967 22.286 51.3767 22.034 50.8727C21.026 48.8568 20.3541 46.6728 19.7661 44.4889C19.4301 42.8089 19.1781 41.129 19.0101 39.449C19.0101 38.3571 18.8421 37.2651 18.9261 36.1731C18.9261 35.2492 19.0101 34.3252 19.0941 33.4852C19.2621 32.2253 19.3461 30.9653 19.5981 29.7053C19.6821 29.2853 19.7661 28.7814 19.9341 28.3614C20.4381 26.2614 21.11 24.2455 22.034 22.3135C22.118 22.1455 22.202 21.9776 22.202 21.8096C22.706 20.9696 23.126 20.0456 23.714 19.2056C23.798 19.0376 23.882 18.8696 23.714 18.7016C24.134 18.7016 24.3859 18.3657 24.6379 18.0297C26.2339 15.7617 28.4178 13.9978 31.1898 13.0738C31.7777 12.9058 32.4497 12.7378 33.0377 12.6538C33.2057 12.5698 33.4577 12.6538 33.6257 12.5698C33.8777 12.5698 34.0457 12.5698 34.2977 12.5698C34.2977 13.4938 34.2977 14.4178 34.2977 15.3417C34.0457 15.5937 33.6257 15.5097 33.2897 15.5097C31.3577 15.8457 29.7618 16.6857 28.4178 17.9457C28.1658 18.1137 27.9138 18.2817 27.7459 18.5337C26.9059 19.3736 26.2339 20.2976 25.6459 21.3056C24.9739 22.3975 24.4699 23.5735 23.966 24.7495C23.378 26.3454 22.874 28.0254 22.538 29.7053C22.034 32.3093 21.782 34.9132 21.95 37.5171C22.034 39.1131 22.202 40.709 22.454 42.305C22.538 42.557 22.622 42.8089 22.706 43.0609C22.706 43.3969 22.79 43.7329 22.874 43.9849C23.21 45.2449 23.546 46.5888 24.05 47.7648C24.4699 48.9408 25.0579 50.1167 25.7299 51.2087C26.3179 52.2167 27.0739 53.1406 27.9138 54.0646C28.5858 54.5686 29.0898 55.2406 29.8458 55.6606C31.1058 56.5005 32.5337 57.0045 34.0457 57.1725C34.0457 57.2565 34.1297 57.2565 34.2977 57.3405Z" fill="#98EDFE"/>
<path d="M33.6257 12.5698C33.4577 12.7378 33.2897 12.6538 33.0377 12.6538V12.5698C33.2057 12.5698 33.4577 12.5698 33.6257 12.5698Z" fill="#CEF6FE"/>
<path d="M19.8499 28.194C19.5979 29.2859 19.43 30.3779 19.262 31.5539C19.178 32.1419 19.094 32.7298 19.01 33.3178C18.59 34.1578 18.002 34.7458 17.498 35.5018C17.33 35.8378 17.078 36.1737 16.994 36.5097C16.406 37.4337 15.9861 38.5257 15.6501 39.5336C15.3981 40.4576 15.1461 41.3816 15.1461 42.3896C15.0621 44.5735 15.8181 46.5894 17.33 48.1854C18.59 49.6134 20.2699 50.3693 22.1179 50.8733C22.7059 51.9653 23.3778 53.0573 24.0498 54.1492C21.6979 53.8972 19.43 53.3932 17.414 52.1333C15.8181 51.1253 14.5581 49.7813 13.6341 48.1854C12.8781 46.8414 12.4582 45.3295 12.2902 43.7335C12.0382 41.5496 12.5422 39.4496 13.2981 37.4337C13.4661 37.0977 13.7181 36.7617 13.7181 36.3417C14.0541 35.5018 14.4741 34.7458 14.9781 33.9898C15.1461 33.7378 15.3141 33.4018 15.4821 33.1498C16.0701 32.4778 16.574 31.6379 17.162 30.9659C17.918 30.1259 18.59 29.2859 19.43 28.446C19.514 28.278 19.5979 28.11 19.8499 28.194Z" fill="#E0E5EF"/>
<path d="M15.4822 33.0659C15.3142 33.7378 14.8102 34.3258 14.4743 34.9138C14.2223 35.3338 14.1383 35.9218 13.7183 36.2578C13.2143 34.9978 12.7103 33.7378 12.4583 32.3099C11.7863 28.698 12.6263 25.4221 15.0622 22.6502C16.9102 20.5502 19.3461 19.3743 22.118 18.8703C22.622 18.7863 23.126 18.7023 23.546 18.7023C23.714 18.7863 24.05 18.6183 23.798 18.9543C23.21 19.7942 22.706 20.6342 22.286 21.4742C22.202 21.5582 22.118 21.6422 22.034 21.7262C21.95 21.8942 21.698 21.8942 21.53 21.9782C19.1781 22.6502 17.3302 23.9101 16.1542 26.0941C15.3982 27.522 14.9782 29.118 15.2302 30.7979C15.3142 31.3859 15.3982 32.0579 15.5662 32.6459C15.5662 32.8139 15.5662 32.9819 15.4822 33.0659Z" fill="#80A9FE"/>
<path d="M46.393 21.8928C45.805 20.8009 45.133 19.7089 44.4611 18.6169C47.401 18.8689 50.0889 19.7089 52.4408 21.6409C54.5408 23.4888 55.8007 25.7567 56.2207 28.5287C56.5567 30.7966 56.1367 32.9805 55.2967 35.1645C55.1288 35.5844 54.8768 36.0044 54.7928 36.4244C54.4568 37.2644 54.0368 38.0204 53.6168 38.6924C53.4488 39.0284 53.2808 39.2803 53.1128 39.6163C52.9448 39.7003 52.8608 39.8683 52.6928 40.0363C51.6009 41.5483 50.4249 42.8922 49.1649 44.2362C48.9969 44.4042 48.9129 44.5722 48.6609 44.5722C48.9969 42.9762 49.3329 41.4643 49.4169 39.8683C49.4169 39.7003 49.5009 39.6163 49.5009 39.4483C49.6689 39.0284 49.9209 38.6924 50.1729 38.3564C50.5929 37.6844 51.0969 37.0124 51.4329 36.3404C51.9368 35.3325 52.5248 34.2405 52.7768 33.1485C53.7008 30.1246 53.3648 27.3527 51.3489 24.8328C50.2569 23.4888 48.7449 22.6488 47.149 22.1448C46.897 21.9768 46.645 21.9768 46.393 21.8928Z" fill="#CED6E5"/>
<path d="M53.0293 39.7013C53.0293 39.6173 53.0293 39.4493 53.1133 39.3653C53.7013 38.4414 54.2053 37.5174 54.7092 36.5094L54.7932 36.4254C55.6332 38.2734 56.2212 40.2893 56.3052 42.3892C56.3892 47.4291 53.3653 51.629 48.5774 53.2249C47.2335 53.6449 45.8895 53.9809 44.5455 54.0649C45.2175 53.0569 45.8895 52.049 46.3935 50.873C46.5615 50.705 46.8135 50.705 46.9815 50.621C49.5014 49.865 51.4333 48.5211 52.6093 46.0851C53.5333 44.1532 53.5333 42.2212 53.1133 40.1213C52.9453 40.0373 52.8613 39.8693 53.0293 39.7013Z" fill="#6680FE"/>
<path d="M34.1295 49.9487C35.3055 49.6967 36.3135 49.1927 37.4054 48.7727C38.9174 48.1007 40.3453 47.4288 41.6893 46.5048C42.8653 45.7488 44.0412 44.9088 45.1332 43.9849C45.4692 43.7329 45.7212 43.4809 46.0572 43.2289C45.8892 44.4048 45.5532 45.4968 45.2172 46.5888C45.0492 47.0088 44.9652 47.5128 44.7132 47.9327C44.5452 48.2687 44.2092 48.4367 43.9572 48.6047C42.6973 49.4447 41.4373 50.2007 40.0933 50.7887C39.8413 50.9567 39.5054 51.0407 39.2534 51.2087C38.2454 51.5446 37.3214 51.9646 36.3975 52.3846C35.7255 52.6366 35.0535 52.8046 34.4655 53.0566C34.3815 53.0566 34.2975 52.9726 34.2135 52.8886C34.1295 51.9646 34.2135 51.0407 34.1295 50.1167C34.1295 50.0327 34.1295 50.0327 34.1295 49.9487Z" fill="#CED6E5"/>
<path d="M46.057 29.5367C44.6291 28.2767 43.1171 27.1007 41.5211 26.0928C39.3372 24.7488 37.0693 23.6568 34.6333 22.9008C34.5493 22.9008 34.4653 22.8168 34.3813 22.8168C34.3813 22.6489 34.4653 22.5649 34.6333 22.5649C36.1453 22.1449 37.5733 21.7249 39.1692 21.5569C39.8412 21.7249 40.5132 22.1449 41.1012 22.4809C42.1091 22.9848 43.1171 23.6568 44.0411 24.2448C44.2931 24.4128 44.5451 24.5808 44.713 24.8328C45.301 26.3447 45.805 27.9407 46.057 29.5367Z" fill="#6680FE"/>
<path d="M39.1695 21.6409C37.4896 21.8089 35.8936 22.2288 34.2977 22.7328H34.2137C34.0457 22.5648 34.0457 22.3128 34.0457 22.0608C34.0457 21.3889 34.1297 20.7169 33.9617 20.0449C33.8777 19.9609 33.8777 19.8769 33.8777 19.7089C34.4657 19.7929 34.8857 19.5409 35.4736 19.4569C37.2376 19.0369 39.0015 18.7009 40.8495 18.6169C41.6895 19.3729 42.3614 20.2969 42.8654 21.3049C42.5294 21.5569 42.1094 21.4729 41.7735 21.4729C40.9335 21.5569 40.0095 21.7249 39.1695 21.6409Z" fill="#CED6E5"/>
<path d="M40.8496 54.1489C38.7497 54.0649 36.7338 53.6449 34.8018 53.057C34.7178 53.057 34.6338 52.973 34.4658 52.973C34.4658 52.721 34.7178 52.805 34.8018 52.721C36.1458 52.301 37.4897 51.797 38.8337 51.209C39.0017 51.125 39.1697 51.125 39.3377 51.125C39.5897 50.957 39.8417 51.041 40.0937 51.041C40.7656 51.125 41.3536 51.125 42.0256 51.125C42.3616 51.125 42.6976 51.125 43.0336 51.377C42.6976 52.049 42.1936 52.637 41.7736 53.225C41.3536 53.5609 41.1856 53.8969 40.8496 54.1489Z" fill="#6680FE"/>
<path d="M48.7455 28.3619C49.3335 28.6979 49.6695 29.2019 50.0894 29.6219C51.0974 30.7139 52.0214 31.8898 52.8614 33.0658C52.7774 33.8218 52.4414 34.4098 52.1054 35.0817C51.9374 35.5017 51.7694 35.9217 51.5174 36.2577C51.3494 36.1737 51.2654 36.0897 51.2654 36.0057C50.8454 35.1657 50.2574 34.4098 49.6695 33.6538C49.5855 33.4858 49.5855 33.4018 49.5015 33.2338C49.3335 31.7218 49.1655 30.2099 48.8295 28.6979C48.7455 28.6139 48.7455 28.4459 48.7455 28.3619Z" fill="#6680FE"/>
<path d="M34.0455 19.8782C34.2975 19.8782 34.2135 20.1301 34.2135 20.2981C34.2135 21.1381 34.2135 21.9781 34.2135 22.8181C33.2056 22.9861 32.2816 23.4061 31.3576 23.826C29.4257 24.666 27.4937 25.674 25.8138 26.8499C24.5538 27.6899 23.4618 28.6139 22.3699 29.6219C22.7059 27.9419 23.1259 26.262 23.8818 24.666C24.9738 23.91 26.0658 23.1541 27.2417 22.5661C27.9977 22.1461 28.6697 21.8101 29.4257 21.4741C30.7696 20.8861 32.1136 20.3821 33.5415 19.8782C33.6255 19.8782 33.8775 19.7942 34.0455 19.8782Z" fill="#E0E5EF"/>
<path d="M34.1294 49.9487C33.9614 50.2007 33.7934 50.2007 33.6254 50.2847C32.4494 50.6207 31.1895 50.9567 30.0135 51.1247C29.8455 51.1247 29.5935 51.1247 29.4255 51.1247C27.9976 50.6207 26.7376 49.8647 25.4776 49.0247C24.8897 48.6887 24.3857 48.3527 23.8817 47.9327C23.2097 46.5048 22.8737 44.9928 22.5377 43.5649C22.5377 43.4809 22.4537 43.3129 22.6217 43.2289C25.0577 45.4128 27.7456 47.2608 30.6855 48.6047C31.7775 49.1087 32.9534 49.5287 34.1294 49.9487Z" fill="#80A9FE"/>
<path d="M29.3415 51.0403C30.7695 50.9563 32.1975 50.5363 33.5414 50.2003C33.7094 50.1163 33.9614 50.1163 34.1294 50.0323C34.2974 50.2003 34.2134 50.3683 34.2134 50.5363C34.2134 51.3763 34.2134 52.1323 34.2134 52.9723C32.4494 53.4762 30.6855 53.8122 28.9215 54.0642C28.5016 54.1482 28.0816 54.1482 27.6616 54.2322C26.8216 53.3923 26.1496 52.4683 25.5616 51.4603C25.8976 51.2083 26.4016 51.2923 26.7376 51.2923C27.5776 51.2083 28.4176 51.0403 29.3415 51.0403Z" fill="#E0E5EF"/>
<path d="M34.0458 19.8772C32.5338 20.2972 31.1899 20.8011 29.7619 21.4731C29.5939 21.5571 29.5099 21.6411 29.3419 21.5571C29.2579 21.6411 29.0899 21.6411 28.9219 21.6411C27.914 21.5571 26.906 21.4731 25.814 21.3891C25.73 21.3891 25.562 21.3891 25.478 21.2211C26.15 20.2972 26.738 19.2892 27.578 18.5332C29.7619 18.7012 31.8618 19.1212 33.8778 19.6252C33.9618 19.7932 34.0458 19.8772 34.0458 19.8772Z" fill="#80A9FE"/>
<path d="M19.7663 44.4888C18.1703 42.9768 16.8264 41.2969 15.5664 39.5329C15.8184 38.441 16.3224 37.517 16.8264 36.593C16.8264 36.509 16.9104 36.509 16.9944 36.509C17.1624 36.593 17.2464 36.761 17.3304 36.845C17.7503 37.517 18.2543 38.189 18.7583 38.861C18.9263 39.029 19.0103 39.281 19.0943 39.4489C19.1783 40.2889 19.3463 41.1289 19.4303 41.9689C19.5143 42.7249 19.6823 43.3968 19.8503 44.1528C19.7663 44.2368 19.8503 44.4048 19.7663 44.4888Z" fill="#80A9FE"/>
<path d="M41.1857 36.6768C41.1857 38.9447 41.1857 41.1286 41.1857 43.3966C41.1857 44.0685 40.6817 44.4045 40.2617 44.7405C39.2537 45.4965 38.0778 45.7485 36.8178 45.9165C35.9778 46.0845 35.0539 46.1685 34.2139 46.0845C34.0459 45.9165 34.0459 45.7485 34.0459 45.5805C34.0459 43.5646 34.0459 41.4646 34.0459 39.4487C34.0459 39.3647 34.0459 39.3647 34.0459 39.2807C34.0459 39.1967 34.0459 39.1967 34.1299 39.1127C34.6339 38.8607 35.2219 38.9447 35.8098 38.9447C37.0698 38.7767 38.2458 38.5247 39.4217 38.0207C40.0097 37.7687 40.5977 37.3487 40.9337 36.7608C41.0177 36.6768 41.1017 36.5928 41.1857 36.6768Z" fill="#CED6E5"/>
<path d="M34.2132 39.1976C34.2132 41.5496 34.2132 43.8175 34.2132 46.1694C32.2812 46.1694 30.4333 45.9175 28.6693 45.0775C27.7453 44.6575 27.1574 43.9015 27.2414 42.8095C27.3254 40.7936 27.2414 38.7777 27.2414 36.7617C27.4094 36.7617 27.4094 36.8457 27.4934 36.9297C27.8293 37.5177 28.4173 37.9377 29.0053 38.1897C30.4333 38.8617 32.0292 39.0297 33.6252 39.1136C33.8772 39.0297 34.0452 38.9457 34.2132 39.1976Z" fill="#E0E5EF"/>
<path d="M34.2134 39.1973C32.4494 39.1973 30.6855 38.9453 29.0055 38.2733C28.2495 37.9373 27.5776 37.5173 27.2416 36.6774C27.2416 34.3254 27.2416 32.0575 27.2416 29.7056C27.3256 29.7056 27.3256 29.7056 27.4096 29.7896C27.9976 30.8815 29.0895 31.2175 30.0975 31.5535C31.2735 31.8895 32.4494 32.0575 33.7094 32.0575C33.8774 32.0575 34.0454 32.0575 34.2134 32.1415C34.2134 32.2255 34.2974 32.2255 34.2974 32.3095C34.3814 32.5615 34.3814 32.8135 34.3814 32.9815C34.3814 34.8294 34.3814 36.5934 34.3814 38.4413C34.3814 38.6933 34.4654 38.9453 34.2134 39.1973Z" fill="#CED6E5"/>
<path d="M34.2977 39.1133C34.2977 36.7614 34.2977 34.4934 34.2977 32.1415C34.4657 31.9735 34.7177 31.9735 34.8857 31.9735C36.1457 31.9735 37.4056 31.7215 38.6656 31.3855C39.5896 31.1335 40.4296 30.7135 41.0175 29.8736C41.1015 29.7896 41.1015 29.7056 41.2695 29.7896C41.2695 32.0575 41.2695 34.3254 41.2695 36.6774C40.9335 37.6013 40.0936 38.0213 39.2536 38.3573C37.6576 38.9453 35.9777 39.1973 34.2977 39.1133Z" fill="#A2B0CB"/>
<path d="M41.1857 29.7899C40.5137 30.9659 39.3377 31.3859 38.1618 31.7219C36.9018 32.0579 35.5579 32.2258 34.2139 32.2258C34.0459 32.0578 34.0459 31.8059 34.0459 31.6379C34.0459 30.2099 34.0459 28.7819 34.0459 27.27C34.0459 27.018 34.0459 26.85 34.2139 26.682C36.1458 26.682 37.9938 26.934 39.7577 27.774C40.1777 27.942 40.5137 28.278 40.8497 28.614C41.2697 28.9499 41.2697 29.3699 41.1857 29.7899Z" fill="#E0E5EF"/>
<path d="M34.2132 26.5967C34.2132 28.4446 34.2132 30.2926 34.2132 32.1405C32.2813 32.1405 30.4333 31.8885 28.6694 31.0486C27.9974 30.7126 27.4934 30.2926 27.2414 29.6206C27.1574 28.6966 27.7454 28.1926 28.4174 27.7726C29.6774 27.1007 31.0213 26.7647 32.4493 26.5967C33.1213 26.5967 33.7092 26.5967 34.2132 26.5967Z" fill="#F2F4F8"/>
</g>
<defs>
<clipPath id="clip0_2975_20545">
<rect width="46.2827" height="49.8106" fill="white" transform="translate(11.0298 11.3936)"/>
</clipPath>
</defs>
</svg>
