<svg width="68" height="68" viewBox="0 0 68 68" fill="none" xmlns="http://www.w3.org/2000/svg">
<rect x="0.211365" y="0.568237" width="67.1981" height="67.1981" rx="33.599" fill="white"/>
<g clip-path="url(#clip0_2975_20411)">
<g clip-path="url(#clip1_2975_20411)">
<path d="M51.9969 38.1391C52.2489 38.3911 52.3329 38.7271 52.3329 39.1471C52.3329 40.995 52.3329 42.843 52.3329 44.6909C52.3329 45.6149 51.7449 46.2029 50.8209 46.2029C50.3169 46.2029 49.8129 46.2029 49.225 46.2029C48.973 46.2029 48.889 46.2869 48.805 46.5389C48.553 47.5468 48.133 48.4708 47.629 49.3108C47.545 49.4788 47.545 49.6468 47.713 49.8148C48.133 50.1508 48.469 50.5708 48.889 50.9907C49.477 51.6627 49.561 52.4187 48.889 53.0067C47.545 54.3506 46.285 55.6946 44.9411 56.9546C44.2691 57.5426 43.5131 57.5426 42.9251 56.9546C42.5052 56.5346 42.1692 56.1986 41.7492 55.7786C41.5812 55.6106 41.4972 55.6106 41.2452 55.6946C40.3212 56.1986 39.3972 56.5346 38.4733 56.8706C38.2213 56.9546 38.1373 57.0386 38.1373 57.2906C38.1373 57.7105 38.1373 58.2145 38.1373 58.6345C38.2213 59.4745 37.8853 60.0625 37.1293 60.3985C36.0373 60.3985 34.9454 60.3985 33.9374 60.3985C33.7694 60.2305 33.7694 60.0625 33.7694 59.8945C33.7694 57.3746 33.7694 54.8546 33.7694 52.3347C33.7694 52.2507 33.7694 52.0827 33.8534 51.9987C33.9374 51.7467 34.1894 51.7467 34.4414 51.7467C36.9613 51.5787 39.2293 50.5708 40.9932 48.7228C42.5052 47.1269 43.4291 45.2789 43.6811 43.095C43.7651 42.087 43.7651 41.079 43.5971 40.0711C43.5971 39.9871 43.5131 39.8191 43.5971 39.7351C43.6811 39.5671 43.8491 39.5671 43.9331 39.5671C46.453 39.1471 48.889 38.7271 51.4089 38.1391C51.4929 38.1391 51.7449 37.9711 51.9969 38.1391Z" fill="#7FA9FE"/>
<path d="M33.8539 51.8297C33.8539 54.6856 33.8539 57.5416 33.8539 60.3975C32.7619 60.3975 31.67 60.3975 30.662 60.3975C29.822 59.9775 29.57 59.3055 29.654 58.3815C29.654 57.8775 29.822 57.3736 29.57 56.9536C29.402 56.5336 28.7301 56.6176 28.3101 56.4496C27.7221 56.1976 27.1341 56.0296 26.6301 55.6936C26.3781 55.5256 26.2101 55.6096 25.9581 55.7776C25.6222 56.1136 25.2862 56.5336 24.8662 56.8696C24.1942 57.5416 23.3542 57.5416 22.7662 56.8696C21.4223 55.6096 20.1623 54.2657 18.8184 52.9217C18.2304 52.2497 18.2304 51.4937 18.8184 50.8217C19.2383 50.4018 19.5743 50.0658 19.9943 49.6458C20.1623 49.4778 20.1623 49.3938 20.0783 49.2258C19.5743 48.3858 19.2383 47.4618 18.9023 46.5379C18.8184 46.2019 18.6504 46.1179 18.3984 46.2019C17.8944 46.2019 17.3904 46.2019 16.8024 46.2019C15.9624 46.2019 15.3745 45.6139 15.3745 44.7739C15.3745 42.926 15.3745 41.078 15.3745 39.2301C15.3745 38.8941 15.5424 38.5581 15.7104 38.2221C15.8784 38.0541 16.0464 38.1381 16.2144 38.2221C18.8184 38.8101 21.4223 39.3141 24.0262 39.7341C24.1942 39.7341 24.2782 39.7341 24.3622 39.9021C23.8582 40.826 23.9422 41.834 24.0262 42.842C24.1942 45.2779 25.2022 47.3779 26.8821 49.0578C28.3941 50.5698 30.326 51.4937 32.426 51.8297C32.9299 51.6617 33.3499 51.6617 33.8539 51.8297C33.7699 51.8297 33.7699 51.7457 33.8539 51.8297Z" fill="#98CBFE"/>
<path d="M35.6173 12.0154C36.1213 12.1834 36.7093 12.1834 37.2972 12.2674C38.9772 12.5194 40.5731 13.0234 42.0851 13.6113C43.0091 14.0313 43.3451 14.7873 42.9251 15.7113C42.7571 16.1313 42.5891 16.4673 42.4211 16.8872C42.4211 17.1392 42.3371 17.3072 42.2531 17.4752C40.9931 20.3311 39.6492 23.1871 38.3892 26.043C38.2212 26.295 38.1372 26.631 37.9692 26.8829C37.5492 27.6389 36.7093 27.8909 36.0373 27.6389C35.1973 27.2189 34.8613 26.379 35.1973 25.623C35.6173 24.615 36.0373 23.691 36.5413 22.6831C37.4652 20.5831 38.4732 18.3992 39.3972 16.2993C39.5652 16.0473 39.4812 15.8793 39.1452 15.7953C37.9692 15.4593 36.7933 15.2073 35.6173 15.0393C35.0293 14.9553 34.3573 15.0393 33.7693 14.8713C33.7693 14.7873 33.6853 14.7873 33.6853 14.7033C33.6013 13.9473 33.6853 13.1073 33.6853 12.3514C33.6853 12.1834 33.7693 12.0994 33.8533 12.0154C34.0213 12.0154 34.1053 12.0154 34.2733 12.0154C34.5253 12.0994 34.8613 12.0994 35.1133 12.0154C35.2813 12.0154 35.4493 12.0154 35.6173 12.0154Z" fill="#FE9833"/>
<path d="M33.8532 12.0154C33.8532 12.9394 33.8532 13.9473 33.8532 14.8713C33.6852 15.0393 33.4332 14.9553 33.2652 14.9553C31.6693 15.0393 30.0733 15.2913 28.5614 15.7113C28.0574 15.8793 28.0574 15.8793 28.2254 16.2993C29.5693 19.3232 30.9133 22.4311 32.3412 25.455C32.5092 25.875 32.5932 26.295 32.4252 26.799C32.1732 27.3869 31.7533 27.7229 31.0813 27.8069C30.4093 27.8069 29.9893 27.5549 29.6533 26.9669C28.9813 25.791 28.5614 24.531 27.9734 23.3551C27.1334 21.4231 26.2094 19.4912 25.3694 17.5592C25.2854 17.3912 25.2014 17.1392 25.2014 16.9712C25.0335 16.5512 24.8655 16.1313 24.6975 15.7953C24.3615 14.8713 24.6135 14.1993 25.4534 13.7793C27.4694 12.9394 29.5693 12.4354 31.6693 12.1834C31.7533 12.1834 31.9213 12.1834 31.9213 12.0994C32.1732 12.0994 32.5092 12.0994 32.7612 12.0994C32.9292 12.1834 33.1812 12.1834 33.3492 12.0994C33.6012 12.0154 33.6852 12.0154 33.8532 12.0154Z" fill="#FEC24D"/>
<path d="M35.0294 12.0154C34.7774 12.1834 34.4414 12.1834 34.1894 12.0154C34.4414 12.0154 34.7774 12.0154 35.0294 12.0154Z" fill="#FEA440"/>
<path d="M33.4337 12.0154C33.2658 12.1834 33.0138 12.1834 32.8458 12.0154C33.0978 12.0154 33.2658 12.0154 33.4337 12.0154Z" fill="#FECC6A"/>
<path d="M24.3618 39.8189C23.0179 39.5669 21.6739 39.3989 20.33 39.1469C18.818 38.8109 17.2221 38.4749 15.7101 38.1389C15.0381 37.9709 14.3661 37.8029 13.7782 37.6349C12.9382 37.3829 12.5182 36.9629 12.5182 36.039C12.5182 34.695 12.5182 33.435 12.5182 32.0911C12.5182 31.0831 13.1062 30.5791 14.1141 30.5791C14.6181 30.5791 15.1221 30.5791 15.5421 30.5791C15.7101 30.4111 15.9621 30.4111 16.2141 30.4111C21.8419 30.4111 27.5538 30.4111 33.1816 30.4111C33.4336 30.4111 33.6016 30.4111 33.8536 30.5791C34.0216 30.7471 34.0216 30.9991 34.0216 31.2511C34.0216 34.107 34.0216 37.0469 34.0216 39.9029C34.0216 40.0709 34.0216 40.3228 33.9376 40.4908C33.6856 40.7428 33.4336 40.6588 33.1816 40.6588C31.0817 40.6588 29.0657 40.4908 27.0498 40.2388C26.3778 40.1549 25.6218 40.0709 24.9498 39.9869C24.6978 39.9029 24.5298 39.9029 24.3618 39.8189Z" fill="#FEC24D"/>
<path d="M33.8538 30.4955C27.8059 30.4955 21.6741 30.4955 15.6263 30.4955C15.8783 29.1515 16.2143 27.8076 16.7183 26.4636C18.3982 22.3477 21.1701 19.2398 24.95 17.0559C25.034 16.9719 25.118 16.9719 25.202 16.8879C26.714 20.1638 28.1419 23.4397 29.5699 26.7156C29.7379 27.1356 30.0739 27.4716 30.4939 27.6396C30.9978 27.8076 31.5018 27.7236 31.9218 27.3036C32.3418 26.9676 32.5098 26.4636 32.3418 25.8756C32.0058 25.1197 31.6698 24.3637 31.3338 23.6077C30.2419 21.1718 29.1499 18.6519 27.9739 16.2159C27.8059 15.8799 27.8899 15.7959 28.2259 15.7119C29.5699 15.2919 30.8298 14.956 32.2578 14.872C32.7618 14.872 33.3498 14.788 33.8538 14.788C34.0217 15.04 33.9377 15.208 33.9377 15.4599C33.9377 20.2478 33.9377 25.1197 33.9377 29.9075C33.9377 30.0755 33.9378 30.2435 33.8538 30.4955Z" fill="#FEE566"/>
<path d="M33.8539 40.4072C33.8539 37.1313 33.8539 33.7714 33.8539 30.4955C34.0219 30.3275 34.2739 30.3275 34.4419 30.3275C40.1537 30.3275 45.7815 30.3275 51.4934 30.3275C51.7454 30.3275 51.9134 30.3275 52.1653 30.4955C52.6693 30.4955 53.1733 30.4955 53.7613 30.4955C54.6013 30.4955 55.1893 31.0835 55.1893 31.9235C55.1893 33.3514 55.1893 34.6954 55.1893 36.1233C55.1893 36.8793 54.8533 37.3833 54.0973 37.5513C53.4253 37.7193 52.7533 37.8873 52.0814 38.0553C49.4774 38.6433 46.7895 39.1473 44.1856 39.5672C44.0176 39.5672 43.7656 39.5672 43.5976 39.6512C43.5136 39.8192 43.2616 39.8192 43.0936 39.8192C42.3376 39.9032 41.5817 40.0712 40.8257 40.0712C38.8097 40.3232 36.7098 40.4912 34.6939 40.4912C34.2739 40.5752 34.0219 40.6592 33.8539 40.4072Z" fill="#FE9833"/>
<path d="M52.0809 30.4955C45.9491 30.4955 39.9012 30.4955 33.7694 30.4955C33.7694 25.2877 33.7694 19.9958 33.7694 14.788C35.6174 14.788 37.4653 15.124 39.2293 15.6279C39.7332 15.7959 39.6492 15.9639 39.4812 16.2999C38.0533 19.4078 36.7093 22.5157 35.2814 25.6236C35.0294 26.2116 35.1974 26.9676 35.6174 27.3036C36.1213 27.7236 36.7093 27.8076 37.3813 27.3876C37.8853 27.0516 37.9693 26.5476 38.2213 26.0436C39.3132 23.6917 40.3212 21.3398 41.3292 18.9878C41.6652 18.2319 42.0012 17.5599 42.3372 16.8039C44.1851 17.8119 45.8651 19.0718 47.293 20.6678C49.7289 23.3557 51.2409 26.4636 51.9129 29.9915C51.9969 30.2435 52.0809 30.4115 52.0809 30.4955Z" fill="#FEC24D"/>
<path d="M40.6575 40.0706C41.5814 39.9866 42.5054 39.8186 43.4294 39.7346C43.6814 40.1546 43.6814 40.6586 43.6814 41.0786C43.7654 42.8425 43.5134 44.5225 42.7574 46.1184C41.5814 48.4704 39.8175 50.1503 37.3816 51.0743C36.2056 51.4943 35.0296 51.7463 33.7697 51.7463C33.6857 51.6623 33.6017 51.4943 33.6017 51.4103C33.6017 50.6543 33.5177 49.8143 33.6017 49.0584C33.6857 48.8064 33.9377 48.8064 34.1056 48.8064C35.5336 48.6384 36.7936 48.2184 37.9695 47.3784C39.7335 45.9504 40.6575 44.0185 40.6575 41.7506C40.6575 41.3306 40.5735 40.9946 40.4895 40.5746C40.6575 40.4066 40.5735 40.2386 40.6575 40.0706Z" fill="#6680FE"/>
<path d="M33.8535 48.974C33.8535 49.8979 33.8535 50.8219 33.8535 51.8299C30.9136 51.8299 28.3937 50.6539 26.4618 48.554C25.1178 47.042 24.2778 45.1941 24.0258 43.1781C23.9418 42.2542 23.9418 41.3302 24.0258 40.4062C24.0258 40.1542 24.0258 39.8182 24.4458 39.8182C25.2858 39.9022 26.1258 39.9862 26.9657 40.1542C27.1337 40.3222 27.0497 40.5742 26.9657 40.8262C26.7138 42.6742 27.0497 44.3541 28.0577 45.7821C29.3177 47.63 31.0816 48.722 33.3496 48.89C33.5176 48.89 33.6855 48.806 33.8535 48.974Z" fill="#80A9FE"/>
</g>
</g>
<defs>
<clipPath id="clip0_2975_20411">
<rect width="45.1067" height="48.4666" fill="white" transform="translate(11.2577 11.9302)"/>
</clipPath>
<clipPath id="clip1_2975_20411">
<rect width="45.1067" height="48.4666" fill="white" transform="translate(11.2581 11.9308)"/>
</clipPath>
</defs>
</svg>
