<svg width="68" height="69" viewBox="0 0 68 69" fill="none" xmlns="http://www.w3.org/2000/svg">
<rect x="0.391479" y="0.897949" width="67.1981" height="67.1981" rx="33.599" fill="white"/>
<g clip-path="url(#clip0_2975_20391)">
<g clip-path="url(#clip1_2975_20391)">
<path d="M14.3042 32.4342C14.8922 31.5942 15.5642 30.8382 16.1521 29.9982C17.9161 27.8143 19.68 25.6304 21.444 23.3624C21.864 22.8585 22.2 22.7745 22.704 23.1944C23.6279 23.7824 24.5519 24.3704 25.4759 24.9584C26.3159 25.5464 27.2398 25.9664 28.2478 26.2184C29.1718 26.3864 30.0117 26.7223 30.9357 26.9743C31.1037 27.0583 31.2717 27.0583 31.4397 26.9743C32.6157 26.6383 33.8756 26.3024 35.0516 25.9664C35.3876 25.8824 35.6396 25.7984 35.9756 25.7984C37.4875 25.7984 39.0835 25.7984 40.5954 25.7984C40.9314 25.7984 41.1834 25.7144 41.4354 25.5464C42.6114 24.7904 43.8713 24.0344 45.0473 23.2784C45.6353 22.9425 45.9713 22.9425 46.3913 23.5304C48.4912 26.2184 50.5071 28.9063 52.6071 31.5942C53.0271 32.1822 53.0271 32.5182 52.4391 32.9382C51.3471 33.8621 50.2552 34.7861 49.1632 35.7941C48.9952 35.9621 48.9112 36.0461 48.8272 36.2981C48.0712 37.81 47.3992 39.406 46.6433 40.9179C46.5593 41.0859 46.5593 41.2539 46.6433 41.4219C47.4832 43.1019 46.3913 45.1178 44.4593 45.2858C44.2913 45.2858 44.2073 45.2858 44.2073 45.5378C43.9553 47.0498 43.1994 47.8057 41.6874 48.0577C41.4354 48.0577 41.5194 48.2257 41.5194 48.3937C41.3514 49.6537 40.5954 50.5777 39.3355 50.7456C38.9155 50.8296 38.8315 50.9976 38.7475 51.4176C38.4115 53.3496 35.9756 54.2735 34.4636 52.9296C34.2116 52.6776 34.0436 52.7616 33.8756 52.9296C33.1197 53.7696 32.1957 54.0216 31.1037 53.6856C30.0957 53.3496 29.4238 52.6776 29.2558 51.5856C29.2558 51.4176 29.1718 51.4176 29.0038 51.4176C27.4078 51.5016 26.3159 50.5777 26.1479 48.9817C26.1479 48.7297 26.0639 48.7297 25.8119 48.7297C24.3839 48.5617 23.3759 47.4697 23.3759 45.9578C23.3759 45.7058 23.3759 45.6218 23.1239 45.5378C21.276 45.1178 20.436 42.9339 21.528 41.3379C21.696 41.0859 21.696 41.0019 21.528 40.8339C20.52 39.49 19.512 38.146 18.5041 36.8021C18.0001 36.1301 17.2441 35.6261 16.5721 35.0381C15.9842 34.5341 15.3962 34.0301 14.8082 33.5261C14.6402 33.3582 14.5562 33.1902 14.3882 33.1062C14.3042 32.6862 14.3042 32.5182 14.3042 32.4342Z" fill="black"/>
<path d="M37.7399 24.37C37.2359 24.37 36.8159 23.782 37.0679 23.278C37.0679 23.194 37.1519 23.11 37.1519 23.11C38.9158 21.3461 40.6798 19.5821 42.4437 17.9022C42.8637 17.4822 43.5357 17.7342 43.7037 18.3221C43.7877 18.5741 43.6197 18.8261 43.4517 18.9941C41.7717 20.6741 40.0078 22.438 38.3278 24.118C38.0758 24.286 37.9079 24.37 37.7399 24.37Z" fill="black"/>
<path d="M24.3837 17.6509C24.6357 17.6509 24.8037 17.7349 24.9717 17.9029C26.6516 19.5828 28.3316 21.2628 30.0955 23.0267C30.4315 23.3627 30.4315 23.7827 30.0955 24.1187C29.7596 24.4547 29.3396 24.4547 29.0036 24.1187C27.3236 22.4387 25.6437 20.7588 23.8797 18.9948C23.6277 18.7428 23.5437 18.4069 23.7117 18.0709C23.7957 17.8189 24.0477 17.6509 24.3837 17.6509Z" fill="black"/>
<path d="M32.8673 21.4306C32.8673 20.7586 32.8673 20.0867 32.8673 19.4147C32.8673 18.9107 33.2033 18.5747 33.6233 18.5747C34.0433 18.5747 34.3793 18.9107 34.3793 19.4147C34.3793 20.7586 34.3793 22.1866 34.3793 23.5306C34.3793 24.0345 34.0433 24.3705 33.6233 24.3705C33.2033 24.3705 32.8673 24.0345 32.8673 23.5306C32.8673 22.8586 32.8673 22.1026 32.8673 21.4306Z" fill="black"/>
<path d="M33.6233 17.063C33.2033 17.063 32.8673 16.727 32.8673 16.307C32.8673 15.887 33.2033 15.551 33.6233 15.551C34.0433 15.551 34.3793 15.887 34.3793 16.307C34.3793 16.727 34.0433 17.063 33.6233 17.063Z" fill="#010101"/>
<path d="M29.0878 27.983C29.0038 28.151 28.9198 28.319 28.8358 28.403C27.9118 29.9989 27.0719 31.5109 26.1479 33.1068C25.2239 34.7028 26.0639 36.6347 27.8278 37.0547C29.0038 37.3907 30.1798 36.8867 30.8517 35.7947C31.4397 34.7868 32.0277 33.7788 32.6157 32.7708C32.6997 32.5188 32.8677 32.5188 33.1197 32.5188C34.0437 32.6028 34.9676 32.6868 35.8916 32.6868C36.0596 32.6868 36.2276 32.7708 36.3956 32.9388C39.3355 35.8787 42.1914 38.7347 45.1313 41.6746C45.6353 42.1786 45.6353 42.9345 45.2153 43.3545C44.7113 43.8585 44.0394 43.7745 43.5354 43.2705C41.9394 41.6746 40.4275 40.1626 38.8315 38.5667C38.7475 38.4827 38.6635 38.3987 38.4955 38.3147C38.2435 38.1467 37.8235 38.1467 37.5716 38.3987C37.3196 38.6507 37.2356 39.0707 37.4876 39.3226C37.5716 39.4066 37.6555 39.4906 37.7395 39.5746C39.3355 41.1706 40.8475 42.7665 42.4434 44.2785C43.1154 44.9505 42.8634 46.0424 41.9394 46.2944C41.4354 46.4624 41.0994 46.2104 40.6795 45.8745C39.6715 44.8665 38.6635 43.8585 37.6555 42.8505C37.5715 42.7665 37.4876 42.6825 37.4036 42.5985C37.0676 42.3466 36.6476 42.4306 36.3956 42.6825C36.1436 42.9345 36.1436 43.3545 36.3116 43.6065C36.4796 43.8585 36.7316 44.0265 36.8996 44.1945C37.8235 45.1185 38.7475 46.0424 39.5875 46.9664C40.2595 47.6384 40.0075 48.7304 39.0835 48.8984C38.6635 48.9824 38.2435 48.8984 37.9075 48.5624C37.3196 47.9744 36.8156 47.3864 36.2276 46.8824C35.8076 46.4624 35.1356 46.5464 34.9676 47.0504C34.7996 47.3864 34.9676 47.7224 35.2196 47.9744C35.8076 48.5624 36.3956 49.1504 36.8996 49.7383C37.5716 50.4103 37.2356 51.4183 36.3956 51.6703C35.8916 51.8383 35.5556 51.5863 35.1356 51.2503C35.0516 51.1663 35.0516 51.0823 35.1356 50.9143C35.7236 49.2344 34.9676 47.7224 33.2877 47.3024C33.1197 47.2184 33.1197 47.2184 33.1197 47.0504C33.2877 45.4545 32.2797 44.1945 30.6837 44.0265C30.5158 44.0265 30.4318 44.0265 30.4318 43.7745C30.2638 42.0946 29.0878 41.1706 27.4918 41.2546C27.2398 41.2546 27.2398 41.2546 27.1559 41.0026C26.6519 39.2386 24.5519 38.4827 23.04 39.4906C22.872 39.6586 22.704 39.6586 22.62 39.4066C21.78 38.2307 20.94 37.1387 20.1001 35.9627C19.9321 35.7947 19.9321 35.7107 20.1001 35.4588C22.284 32.7708 24.5519 30.0829 26.7359 27.395C26.8199 27.311 26.9039 27.143 27.0719 27.227C27.6598 27.647 28.3318 27.815 29.0878 27.983Z" fill="#FBC79C"/>
<path d="M45.3837 39.9109C45.2157 39.7429 45.2157 39.575 45.1317 39.491C42.5278 36.803 39.8398 34.1991 37.2359 31.5112C36.9839 31.2592 36.7319 31.0912 36.3119 31.0912C35.052 31.0072 33.792 30.9232 32.532 30.8392C32.1121 30.8392 31.8601 31.0072 31.6081 31.3432C30.9361 32.5192 30.2641 33.6951 29.5921 34.8711C29.3401 35.2911 28.9201 35.5431 28.4162 35.4591C27.9122 35.3751 27.6602 35.1231 27.4922 34.7031C27.4082 34.3671 27.4082 34.0311 27.5762 33.6951C28.5002 32.0992 29.4241 30.5032 30.2641 28.9073C30.3481 28.7393 30.4321 28.7393 30.6001 28.6553C32.28 28.1513 33.96 27.6473 35.7239 27.2273C35.8919 27.1433 36.0599 27.1433 36.1439 27.1433C37.6559 27.1433 39.1678 27.1433 40.7638 27.1433C41.0158 27.1433 41.1838 27.2273 41.2678 27.3953C43.2837 29.9992 45.2997 32.5192 47.3156 35.1231C47.4836 35.3751 47.4836 35.5431 47.3996 35.7111C46.6436 37.139 46.0557 38.483 45.3837 39.9109Z" fill="#FBC79C"/>
<path d="M25.3922 26.7234C25.3922 26.8074 25.3082 26.8074 25.2242 26.8914C23.1243 29.4114 21.0243 32.0153 18.9244 34.5352C18.7564 34.7032 18.6724 34.7872 18.5044 34.6192C17.7484 33.9472 16.9924 33.2752 16.2365 32.6873C16.0685 32.5193 16.0685 32.4353 16.2365 32.2673C17.8324 30.3353 19.4284 28.3194 21.0243 26.3874C21.3603 25.9675 21.7803 25.4635 22.1163 25.0435C22.2843 24.8755 22.3683 24.7915 22.5363 24.9595C23.3763 25.5475 24.3002 26.0515 25.1402 26.6394C25.3082 26.5554 25.3922 26.6394 25.3922 26.7234Z" fill="#6288F9"/>
<path d="M51.0953 32.015C51.0953 32.099 51.0113 32.183 50.9273 32.183C50.1713 32.855 49.4153 33.527 48.5754 34.199C48.4074 34.367 48.3234 34.283 48.2394 34.199C46.3914 31.763 44.4595 29.4111 42.5275 26.9752C42.3595 26.8072 42.4435 26.7232 42.6115 26.6392C43.5355 26.0512 44.3755 25.5472 45.2155 24.9592C45.3835 24.8752 45.4675 24.8752 45.5515 25.0432C47.3154 27.3112 49.0794 29.6631 50.8433 31.931C51.0113 31.931 51.0953 31.931 51.0953 32.015Z" fill="#6288F9"/>
<path d="M26.0636 46.9665C25.5597 46.9665 25.2237 46.7145 24.9717 46.2945C24.8037 45.8745 24.8037 45.3705 25.1397 45.0345C25.7277 44.3625 26.3996 43.7746 26.9876 43.1866C27.4076 42.7666 28.0796 42.7666 28.4996 43.1866C28.9196 43.6066 29.0036 44.2785 28.6676 44.7825C27.9956 45.4545 27.3236 46.1265 26.6516 46.7985C26.4836 46.8825 26.2316 46.9665 26.0636 46.9665Z" fill="#FBC79C"/>
<path d="M27.5756 48.562C27.5756 48.226 27.6596 47.974 27.9116 47.722C28.4996 47.134 29.0876 46.5461 29.6756 45.9581C30.1795 45.4541 30.8515 45.4541 31.3555 45.9581C31.7755 46.3781 31.8595 47.134 31.3555 47.638C30.7675 48.226 30.1795 48.814 29.5076 49.486C29.1716 49.822 28.7516 49.906 28.2476 49.738C27.8276 49.402 27.5756 49.066 27.5756 48.562Z" fill="#FBC79C"/>
<path d="M33.8758 49.8214C33.8758 50.6614 32.6159 52.0894 31.8599 52.0894C31.3559 52.0894 31.0199 51.9214 30.7679 51.5014C30.5159 51.0814 30.5999 50.5774 30.9359 50.2414C31.2719 49.8214 31.6079 49.4854 32.0279 49.1494C32.3639 48.8134 32.7839 48.8134 33.2878 48.9814C33.6238 49.1494 33.8758 49.4854 33.8758 49.8214Z" fill="#FBC79C"/>
<path d="M24.5516 40.6665C25.0555 40.6665 25.3915 40.9185 25.5595 41.3385C25.7275 41.7585 25.7275 42.2625 25.3915 42.5984C25.0555 42.9344 24.7196 43.3544 24.2996 43.6904C23.8796 44.1104 23.2076 44.0264 22.7876 43.6064C22.3676 43.1864 22.2836 42.5144 22.7036 42.0945C23.0396 41.6745 23.4596 41.3385 23.8796 40.9185C24.0476 40.7505 24.2996 40.6665 24.5516 40.6665Z" fill="#FBC79C"/>
</g>
</g>
<defs>
<clipPath id="clip0_2975_20391">
<rect width="38.7229" height="38.7229" fill="white" transform="translate(14.3044 15.1318)"/>
</clipPath>
<clipPath id="clip1_2975_20391">
<rect width="38.7229" height="38.7229" fill="white" transform="translate(14.3044 15.1318)"/>
</clipPath>
</defs>
</svg>
