<svg width="68" height="70" viewBox="0 0 68 70" fill="none" xmlns="http://www.w3.org/2000/svg">
<rect x="0.230453" y="0.499512" width="67.1981" height="67.1981" rx="33.599" fill="white"/>
<g clip-path="url(#clip0_2975_20328)">
<path d="M34.1194 3.59888C35.9227 4.21131 37.7771 4.61961 39.6144 5.12997C42.5575 5.94656 45.5176 6.72912 48.4607 7.52869C49.3453 7.76686 49.5835 8.14113 49.4474 9.07679C49.4814 9.43405 49.2433 9.6382 48.9881 9.75728C48.4437 10.0295 47.8823 10.2336 47.2528 10.1656C46.3001 10.4208 45.3305 10.6759 44.3778 10.9481C44.2077 10.9992 43.9865 10.9822 43.8844 11.1863C43.8334 11.2373 43.7823 11.2714 43.7143 11.3054C40.6691 12.156 37.5899 12.9386 34.5447 13.7722C34.0514 13.9082 33.541 13.9082 33.0307 13.7892C29.9515 12.9556 26.8723 12.139 23.7931 11.3054C23.725 11.2884 23.674 11.2544 23.6229 11.2033C23.1806 10.8461 22.6022 10.829 22.0748 10.6759C21.0541 10.3697 20.0334 10.1145 18.9956 9.85935C18.4002 9.70624 17.9919 9.366 17.9579 8.73655C17.9239 8.17515 18.2981 7.76686 19.0126 7.57972C23.5549 6.35485 28.1141 5.12997 32.6564 3.88808C32.8946 3.82004 33.1668 3.82004 33.3539 3.6329C33.6091 3.59888 33.8643 3.59888 34.1194 3.59888Z" fill="#464F5E"/>
<path d="M65.2684 63.278C65.8128 63.312 66.136 63.6522 66.4082 64.0775C66.4082 65.0642 66.4082 66.0339 66.4082 67.0206C66.136 67.4289 65.8298 67.8032 65.2684 67.8032C65.0812 67.8712 64.8941 67.8372 64.707 67.8372C59.8755 67.8372 55.0611 67.8372 50.2296 67.8372C49.4641 67.8372 49.396 67.7862 49.379 67.0206C49.362 66.0169 49.362 65.0302 49.379 64.0265C49.379 63.7713 49.379 63.5161 49.5491 63.295C49.8213 63.0738 50.1445 63.1078 50.4678 63.1078C55.1291 63.1078 59.7734 63.1078 64.4348 63.1078C64.707 63.1078 64.9962 63.0908 65.2684 63.278Z" fill="#ECC000"/>
<path d="M2.20456 63.2782C2.20456 54.551 2.20456 45.8067 2.20456 37.0795C2.20456 36.8073 2.22157 36.5351 2.23858 36.2459C2.45974 36.0928 2.69791 36.0587 2.97011 36.0587C7.93766 36.0587 12.9222 36.0247 17.8898 36.0757C18.6723 36.1268 19.4889 35.8886 20.2545 36.2459C20.4586 36.5351 20.4246 36.8583 20.4246 37.1645C20.4246 45.5175 20.4246 53.8535 20.4246 62.2064C20.4246 63.2782 20.3395 63.3462 19.2507 63.3633C18.8765 63.3633 18.4852 63.3122 18.1109 63.4313C18.0259 63.4483 17.9408 63.4653 17.8558 63.4653C17.3454 63.5334 16.835 63.4994 16.3247 63.4994C11.9695 63.4994 7.63144 63.4994 3.27633 63.4994C2.91907 63.5164 2.51078 63.6184 2.20456 63.2782Z" fill="#85B3CB"/>
<path d="M43.8164 11.1521C43.8334 11.1521 43.8674 11.1521 43.8844 11.1691C43.9015 13.6529 43.9185 16.1367 43.9185 18.6204C43.9185 18.8926 43.9525 19.1818 43.9185 19.454C43.8334 20.1175 43.9355 20.5939 44.7691 20.6279C45.0583 20.6449 45.3305 20.832 45.5346 21.0532C47.5761 23.0946 49.6005 25.1531 51.642 27.1946C51.3018 27.5178 50.8764 27.4157 50.4852 27.4157C44.0035 27.4157 37.5219 27.4157 31.0403 27.4157C26.3279 27.4157 21.5985 27.4157 16.8861 27.4157C16.5119 27.4157 16.1206 27.5008 15.7803 27.2286C17.4475 25.2212 19.1147 23.1967 20.7819 21.2063C21.2753 20.6279 21.9558 20.4918 22.6873 20.4918C23.657 20.4918 23.5549 20.6279 23.5549 19.5901C23.5549 17.0213 23.5549 14.4525 23.5549 11.8836C23.5549 11.6455 23.5719 11.4243 23.5889 11.1861C23.6059 11.1691 23.623 11.1691 23.657 11.1691C23.9122 11.4583 23.8611 11.8156 23.8611 12.1388C23.8611 14.5375 23.8611 16.9362 23.8611 19.335C23.8611 20.2026 23.8952 20.2536 24.7458 20.2536C30.734 20.2536 36.7223 20.2536 42.7276 20.2536C43.5782 20.2536 43.6123 20.2196 43.6123 19.335C43.6123 16.9362 43.6123 14.5375 43.6123 12.1388C43.6123 11.7815 43.5612 11.4243 43.8164 11.1521Z" fill="#4396D4"/>
<path d="M17.9404 63.311C17.9744 63.294 18.0254 63.294 18.0595 63.277C21.7851 63.0388 25.5278 63.0899 29.2535 63.1239C32.2306 63.0899 35.2077 63.0899 38.1849 63.1239C41.8935 63.1239 45.6022 63.0558 49.3108 63.1749C49.3959 63.209 49.4639 63.243 49.515 63.311C49.515 64.5869 49.532 65.8629 49.498 67.1388C49.4809 67.6321 49.617 67.7852 50.1274 67.7852C54.9248 67.7682 59.7223 67.7682 64.5367 67.7682C64.7749 67.7682 64.996 67.7852 65.2342 67.8022C65.013 67.9724 64.7409 67.8873 64.4857 67.9043C59.7223 67.9043 54.9589 67.9043 50.1954 67.9043C49.8042 67.9043 49.532 67.9554 49.3448 68.3636C49.1577 68.7549 48.8005 68.9421 48.3071 68.9421C38.5761 68.925 28.8282 68.925 19.0972 68.9421C18.6039 68.9421 18.2466 68.7549 18.0595 68.3636C17.8723 67.9383 17.6001 67.9043 17.2089 67.9043C12.4455 67.9213 7.68205 67.9043 2.91864 67.9043C2.66346 67.9043 2.40828 67.9724 2.1701 67.8022C2.47632 67.479 2.88462 67.5811 3.25888 67.5811C7.69906 67.5811 12.1222 67.5811 16.5624 67.5811C17.6682 67.5811 17.6682 67.5811 17.6682 66.4413C17.6682 65.6757 17.6682 64.9102 17.6682 64.1446C17.7192 63.8554 17.6852 63.5492 17.9404 63.311Z" fill="#F7E7AA"/>
<path d="M15.7802 27.2123C27.4336 27.2123 39.0869 27.2123 50.7402 27.2123C51.0294 27.2123 51.3357 27.1953 51.6249 27.1953C51.6589 27.2463 51.6929 27.2974 51.7269 27.3314C51.846 28.2671 51.778 29.2198 51.88 30.1554C52.0161 31.4313 51.3697 32.0098 50.0597 31.9757C49.8726 31.9757 49.6855 31.9587 49.4983 31.9247C49.09 31.8566 48.6988 31.8566 48.2905 31.8566C38.5765 31.8566 28.8796 31.8566 19.1656 31.8566C18.7574 31.8566 18.3661 31.8566 17.9578 31.9247C17.8557 31.9417 17.7536 31.9587 17.6516 31.9587C15.9674 32.0608 15.2528 31.2272 15.6101 29.577C15.7802 28.8285 15.5761 28.0629 15.7292 27.3144C15.7462 27.2974 15.7632 27.2634 15.7802 27.2123Z" fill="#2B5781"/>
<path d="M15.7294 27.3315C15.7294 28.3182 15.7294 29.305 15.7294 30.2917C15.7294 31.3804 16.1207 31.7717 17.2095 31.7717C17.4477 31.7717 17.6688 31.7717 17.907 31.7717C18.0771 31.9248 18.0941 32.146 18.0941 32.3501C18.1111 33.4389 18.1111 34.5447 18.0941 35.6335C18.0941 35.8376 18.0601 36.0588 17.907 36.2289C12.6843 36.2289 7.46153 36.2289 2.22179 36.2289C3.14044 34.3746 4.04209 32.5032 4.99477 30.6659C5.42007 29.8493 6.16861 29.4751 7.08727 29.4921C9.72415 29.5091 12.344 29.4751 14.9809 29.5091C15.5083 29.5091 15.6784 29.373 15.6444 28.8456C15.6444 28.3523 15.5763 27.8249 15.7294 27.3315Z" fill="#4396D4"/>
<path d="M17.9406 63.3121C17.9406 64.588 17.9236 65.8639 17.9577 67.1398C17.9747 67.6332 17.8216 67.7863 17.3282 67.7863C12.5308 67.7693 7.71633 67.7693 2.9189 67.7693C2.68073 67.7693 2.45957 67.7863 2.2214 67.8033C1.38781 67.6502 1.08159 67.293 1.08159 66.4764C1.08159 65.8639 1.08159 65.2515 1.08159 64.622C1.08159 63.8055 1.3708 63.4652 2.2214 63.2781C5.45371 63.2781 8.66901 63.2951 11.9013 63.2951C13.9088 63.3121 15.9332 63.3121 17.9406 63.3121Z" fill="#ECC000"/>
<path d="M49.5319 63.3109C49.4979 63.2939 49.4469 63.2769 49.4128 63.2769C48.8344 63.2088 48.273 63.2259 47.6946 63.2429C47.2353 63.2599 47.0822 63.0557 47.0652 62.6475C47.0481 62.4433 47.0481 62.2221 47.0481 62.018C47.0481 53.8011 47.0481 45.5843 47.0481 37.3844C47.0481 37.0101 46.9801 36.6188 47.2013 36.2616C47.7286 35.9043 48.307 36.1085 48.8684 36.0574C49.1066 36.0404 49.3278 36.0574 49.5659 36.0744C54.1252 36.0404 58.6674 36.0744 63.2267 36.0574C63.635 36.0574 64.0263 36.0574 64.4346 36.0574C64.7068 36.0574 64.979 36.0915 65.2171 36.2616C65.2341 36.5338 65.2512 36.806 65.2512 37.0952C65.2512 45.8224 65.2512 54.5667 65.2512 63.2939C61.9848 63.2939 58.7185 63.3109 55.4351 63.3109C53.4787 63.3109 51.5053 63.3109 49.5319 63.3109Z" fill="#85B3CB"/>
<path d="M65.2341 36.2459C60.0114 36.2459 54.7716 36.2459 49.5489 36.2459C49.3788 36.0758 49.3618 35.8716 49.3618 35.6505C49.3448 34.5617 49.3448 33.4559 49.3618 32.3671C49.3618 32.163 49.3788 31.9418 49.5489 31.7887C51.5904 31.7887 51.7775 31.5846 51.7265 29.5431C51.7095 28.8116 51.7265 28.0631 51.7265 27.3315C51.8796 27.8589 51.7945 28.3863 51.7775 28.9137C51.7605 29.39 51.8966 29.5261 52.3899 29.5261C54.9928 29.5091 57.6127 29.5261 60.2155 29.5091C61.3383 29.4921 62.1039 29.9684 62.5972 30.9721C63.4819 32.7244 64.3495 34.4937 65.2341 36.2459Z" fill="#4396D4"/>
<path d="M47.2525 10.1484C47.6098 10.0464 47.984 9.92727 48.3413 9.84221C48.8176 9.72312 49.2089 9.51898 49.4471 9.07666C49.6002 10.4887 49.4981 11.9007 49.4981 13.3297C49.4981 14.0782 49.5321 14.7247 50.2126 15.2521C50.689 15.6093 50.6379 16.2898 50.2467 16.7321C49.8724 17.1574 49.294 17.2595 48.8176 16.9363C47.8309 16.2728 47.3036 15.3541 47.2695 14.1633C47.2355 12.8193 47.2525 11.4924 47.2525 10.1484Z" fill="#ECC001"/>
<path d="M43.816 11.1532C43.816 14.0623 43.816 16.9713 43.833 19.8974C43.833 20.3227 43.7479 20.4929 43.2716 20.4929C36.909 20.4758 30.5635 20.4758 24.2009 20.4929C23.7416 20.4929 23.6395 20.3227 23.6395 19.8974C23.6565 16.9884 23.6565 14.0793 23.6565 11.1532C24.7793 11.2723 25.8171 11.6635 26.9059 11.9528C28.9643 12.4801 31.0228 13.0585 33.0813 13.6199C33.6937 13.7901 34.2891 13.671 34.8846 13.5009C37.7766 12.7183 40.6687 11.9357 43.5608 11.1702C43.6458 11.1362 43.7309 11.1532 43.816 11.1532Z" fill="#393F4B"/>
<path d="M47.2528 36.28C47.2528 44.9732 47.2528 53.6664 47.2528 62.3767C47.2528 63.1932 47.2528 63.1762 48.0864 63.1932C48.5287 63.2102 48.971 63.0912 49.3963 63.2783C45.6537 63.2783 41.928 63.2783 38.1853 63.2783C37.9131 62.9721 37.9812 62.5978 37.9812 62.2406C37.9812 58.3788 37.9812 54.517 37.9812 50.6553C37.9812 50.4171 37.9812 50.1959 37.9812 49.9578C37.9301 49.2603 37.6069 48.886 36.9094 48.869C34.7829 48.818 32.6564 48.818 30.5468 48.869C29.8153 48.886 29.4751 49.2773 29.4751 50.0939C29.4581 52.0843 29.4751 54.0917 29.4751 56.0822C29.4751 58.1576 29.4751 60.2501 29.4751 62.3256C29.4751 62.6489 29.5431 63.0061 29.2709 63.2953C25.5283 63.2953 21.8026 63.2953 18.0599 63.2953C18.5363 63.0912 19.0296 63.1932 19.506 63.2103C20.0503 63.2273 20.2375 63.0912 20.2375 62.5128C20.2035 59.5526 20.2205 56.6095 20.2205 53.6494C20.2205 47.8653 20.2205 42.0811 20.2205 36.297C20.4416 36.0418 20.7649 36.0758 21.0541 36.0758C29.5091 36.0758 37.9642 36.0758 46.4192 36.0758C46.7084 36.0588 47.0316 36.0248 47.2528 36.28Z" fill="#A0C7D2"/>
<path d="M47.2527 36.2783C44.5478 36.2783 41.8599 36.2613 39.1549 36.2613C32.8434 36.2613 26.5319 36.2783 20.2204 36.2783C19.4548 36.2613 18.6893 36.2613 17.9238 36.2443C17.9238 34.7643 17.9238 33.2672 17.9238 31.7871C18.1279 31.6 18.3661 31.6851 18.5872 31.6851C28.6925 31.6851 38.7807 31.6851 48.8859 31.6851C49.1071 31.6851 49.3622 31.6 49.5494 31.7871C49.5494 33.2672 49.5494 34.7643 49.5494 36.2443C48.7838 36.2613 48.0183 36.2613 47.2527 36.2783Z" fill="#317FBB"/>
<path d="M13.4497 43.0496C13.4497 42.6753 13.4327 42.284 13.4497 41.9098C13.5007 41.2463 13.9771 40.7529 14.5725 40.7529C15.1509 40.7529 15.6783 41.2463 15.6953 41.9098C15.7293 42.6413 15.7293 43.3898 15.6953 44.1384C15.6613 44.8018 15.1509 45.2782 14.5555 45.2782C13.943 45.2782 13.4667 44.8018 13.4327 44.1384C13.4327 43.7641 13.4497 43.4068 13.4497 43.0496Z" fill="#464F5E"/>
<path d="M15.7292 49.7867C15.7292 50.161 15.7632 50.5523 15.7292 50.9266C15.6782 51.556 15.1848 52.0153 14.6234 52.0323C14.028 52.0494 13.5006 51.573 13.4836 50.9095C13.4496 50.144 13.4496 49.3784 13.4836 48.6299C13.5176 47.9835 14.011 47.5411 14.5894 47.5241C15.1338 47.5071 15.6782 47.9834 15.7292 48.5959C15.7632 48.9872 15.7292 49.3955 15.7292 49.7867Z" fill="#464F5E"/>
<path d="M8.97558 56.5571C8.97558 56.9313 9.0096 57.3226 8.97558 57.6969C8.92454 58.3263 8.43119 58.7857 7.85277 58.7857C7.25735 58.8027 6.74698 58.3093 6.71296 57.6459C6.67893 56.9143 6.67893 56.1658 6.71296 55.4173C6.74698 54.7368 7.22332 54.2604 7.81875 54.2604C8.39716 54.2434 8.92454 54.7368 8.97558 55.4003C8.99259 55.7915 8.97558 56.1658 8.97558 56.5571Z" fill="#464F5E"/>
<path d="M15.729 56.5579C15.729 56.9322 15.763 57.3235 15.729 57.6977C15.678 58.3272 15.1846 58.7865 14.6062 58.8035C14.0108 58.8205 13.4834 58.3272 13.4664 57.6637C13.4324 56.8981 13.4324 56.1326 13.4664 55.3841C13.5004 54.7376 13.9938 54.2953 14.5722 54.2783C15.1166 54.2613 15.661 54.7376 15.712 55.35C15.763 55.7413 15.729 56.1496 15.729 56.5579Z" fill="#464F5E"/>
<path d="M8.97558 43.0166C8.97558 43.3909 9.0096 43.7822 8.97558 44.1564C8.92454 44.8199 8.39716 45.2963 7.80174 45.2622C7.22332 45.2452 6.72997 44.7689 6.71296 44.1394C6.67893 43.3739 6.67893 42.6083 6.71296 41.8598C6.74698 41.2304 7.24033 40.771 7.80174 40.737C8.38015 40.72 8.90753 41.2133 8.95856 41.8598C8.99259 42.2511 8.97558 42.6424 8.97558 43.0166Z" fill="#464F5E"/>
<path d="M8.97497 49.7867C8.97497 50.161 9.00899 50.5523 8.97497 50.9266C8.92393 51.556 8.43058 52.0153 7.86918 52.0323C7.27375 52.0494 6.74637 51.573 6.72936 50.9095C6.69534 50.144 6.69534 49.3784 6.72936 48.6299C6.76338 48.0005 7.25674 47.5411 7.83515 47.5241C8.37954 47.5071 8.92393 47.9834 8.97497 48.5959C8.99198 48.9872 8.95795 49.3955 8.97497 49.7867C8.95795 49.7867 8.95795 49.7867 8.97497 49.7867Z" fill="#464F5E"/>
<path d="M29.2706 63.2775C29.2706 58.7863 29.2536 54.3121 29.2536 49.8209C29.2536 49.1234 29.7129 48.664 30.4104 48.647C32.622 48.63 34.8336 48.63 37.0452 48.647C37.7427 48.647 38.202 49.1234 38.202 49.8209C38.202 54.3121 38.202 58.7863 38.185 63.2775C35.2249 63.2775 32.2477 63.2775 29.2706 63.2775Z" fill="#567580"/>
<path d="M54.0065 43.0332C54.0065 43.4075 54.0235 43.7988 54.0065 44.173C53.9555 44.8025 53.4791 45.2618 52.9007 45.2618C52.3223 45.2788 51.7949 44.8195 51.7609 44.19C51.7098 43.4075 51.7269 42.6249 51.7609 41.8424C51.7949 41.2129 52.3223 40.7366 52.8667 40.7366C53.4621 40.7366 53.9555 41.2129 54.0065 41.8764C54.0405 42.2677 54.0065 42.6589 54.0065 43.0332Z" fill="#464F5E"/>
<path d="M60.7776 56.5239C60.7776 56.8981 60.7946 57.2894 60.7776 57.6637C60.7266 58.3272 60.2162 58.8035 59.6208 58.7865C59.0424 58.7695 58.549 58.3102 58.515 57.6807C58.481 56.9152 58.481 56.1496 58.515 55.4011C58.549 54.7376 59.0764 54.2613 59.6718 54.2783C60.2843 54.2953 60.7436 54.7716 60.7776 55.4521C60.7946 55.8094 60.7776 56.1666 60.7776 56.5239Z" fill="#464F5E"/>
<path d="M60.7772 43.0332C60.7772 43.4075 60.8112 43.7988 60.7772 44.173C60.7261 44.8025 60.2328 45.2618 59.6544 45.2618C59.0759 45.2618 58.5656 44.8195 58.5316 44.19C58.4805 43.4075 58.4975 42.6249 58.5316 41.8424C58.5656 41.2299 59.093 40.7536 59.6544 40.7366C60.2498 40.7366 60.7431 41.2129 60.7942 41.8764C60.7942 42.2847 60.7772 42.6589 60.7772 43.0332Z" fill="#464F5E"/>
<path d="M51.7436 49.7704C51.7436 49.3961 51.7266 49.0048 51.7436 48.6306C51.7947 48.0011 52.288 47.5248 52.8494 47.5078C53.4448 47.4907 53.9722 47.9841 54.0062 48.6306C54.0403 49.3961 54.0403 50.1616 54.0062 50.9102C53.9722 51.5396 53.4789 51.999 52.9004 52.016C52.305 52.033 51.7947 51.5566 51.7436 50.8932C51.7266 50.5359 51.7436 50.1616 51.7436 49.7704Z" fill="#464F5E"/>
<path d="M60.777 49.8033C60.777 50.1776 60.8111 50.5689 60.777 50.9431C60.726 51.5726 60.2326 52.0319 59.6542 52.0319C59.0758 52.0319 58.5654 51.5726 58.5314 50.9601C58.4974 50.1776 58.4974 49.395 58.5314 48.6125C58.5654 48 59.0928 47.5237 59.6542 47.5237C60.2496 47.5237 60.743 48.017 60.794 48.6805C60.794 49.0378 60.777 49.429 60.777 49.8033Z" fill="#464F5E"/>
<path d="M54.0234 56.5239C54.0234 56.8981 54.0404 57.2894 54.0234 57.6637C53.9723 58.3272 53.479 58.8035 52.8666 58.7865C52.3052 58.7695 51.7778 58.2931 51.7608 57.6807C51.7267 56.9152 51.7267 56.1496 51.7608 55.4011C51.7948 54.7376 52.3392 54.2613 52.9176 54.2783C53.53 54.2953 53.9723 54.7716 54.0234 55.4521C54.0404 55.8094 54.0234 56.1666 54.0234 56.5239Z" fill="#464F5E"/>
<path d="M31.4485 41.9788C31.4485 42.3531 31.4655 42.7444 31.4485 43.1186C31.4144 43.68 30.9041 44.1564 30.3597 44.1564C29.8153 44.1564 29.2879 43.697 29.2709 43.1186C29.2369 42.3191 29.2369 41.5025 29.2709 40.7029C29.2879 40.0735 29.7302 39.6822 30.3427 39.6822C30.9891 39.6652 31.4144 40.0564 31.4655 40.7199C31.4655 40.7539 31.4655 40.805 31.4655 40.839C31.4655 41.2133 31.4655 41.6045 31.4485 41.9788Z" fill="#464F5E"/>
<path d="M38.2189 41.9278C38.2189 42.3361 38.2359 42.7273 38.2189 43.1356C38.1849 43.697 37.6575 44.1564 37.1131 44.1564C36.5687 44.1564 36.0584 43.68 36.0243 43.1186C35.9903 42.3191 35.9903 41.5025 36.0243 40.7029C36.0414 40.0735 36.4837 39.6822 37.0961 39.6822C37.7426 39.6652 38.1679 40.0564 38.2189 40.7199C38.2359 41.1112 38.2189 41.5195 38.2189 41.9278Z" fill="#464F5E"/>
</g>
<defs>
<clipPath id="clip0_2975_20328">
<rect width="67.1981" height="67.1981" fill="white" transform="translate(0.230606 2.49463)"/>
</clipPath>
</defs>
</svg>
