<svg width="68" height="68" viewBox="0 0 68 68" fill="none" xmlns="http://www.w3.org/2000/svg">
<rect x="0.0313568" y="0.489014" width="67.1981" height="67.1981" rx="33.599" fill="white"/>
<g clip-path="url(#clip0_2975_20740)">
<g clip-path="url(#clip1_2975_20740)">
<path d="M34.639 11.177C34.807 11.177 34.975 11.177 35.143 11.177C35.227 11.261 35.311 11.261 35.479 11.177C35.563 11.177 35.647 11.177 35.815 11.177C36.907 11.261 38.0829 11.345 39.1749 11.597C40.8548 12.017 42.5348 12.521 44.1307 13.1929C44.2987 13.2769 44.5507 13.3609 44.6347 13.6129C44.6347 13.6969 44.6347 13.7809 44.5507 13.7809C43.7948 14.4529 43.7108 15.2929 43.7948 16.2169C43.7948 18.6528 43.7948 21.1727 43.7948 23.6086C43.7948 23.8606 43.7948 24.1126 43.7108 24.3646C43.5428 24.7006 43.3748 24.4486 43.2068 24.3646C42.7028 23.8606 42.1988 23.3566 41.6948 22.8527C40.9388 22.0967 40.1829 21.9287 39.1749 22.3487C37.8309 23.1887 37.6629 24.6166 38.7549 25.7926C40.9388 27.9765 43.1228 30.2444 45.3907 32.3444C45.9787 32.9324 46.3987 33.6884 46.3987 34.5283C46.3987 36.5443 46.4827 38.6442 46.3987 40.6601C46.3147 40.8281 46.3987 41.0801 46.0627 40.9961C45.8947 40.8281 45.9787 40.5761 45.9787 40.4082C45.9787 39.5682 45.9787 38.7282 45.9787 37.8882C45.9787 36.8803 45.5587 36.1243 44.5507 35.7883C43.7948 35.5363 43.0388 35.8723 42.5348 36.7123C42.2828 36.7963 42.2828 37.1322 41.9468 36.9643C41.7788 36.5443 41.8628 36.1243 41.8628 35.7043C41.9468 34.6963 41.4428 34.1083 40.6028 33.6884C39.4269 33.3524 38.3349 34.1923 38.2509 35.4523C38.2509 35.8723 38.3349 36.2083 38.1669 36.6283C37.9149 36.7963 37.8309 36.5443 37.8309 36.3763C37.5789 35.7883 37.0749 35.4523 36.487 35.3683C36.319 35.2843 36.151 35.2843 36.067 35.1163C35.983 34.9483 36.067 34.6963 36.151 34.5283C36.403 33.6884 36.487 32.7644 36.487 31.8404C36.487 29.3205 36.487 26.8005 36.487 24.2806C36.487 23.5246 36.235 22.9367 35.563 22.6007C34.891 22.3487 34.303 22.5167 33.883 23.0207C33.799 23.1047 33.715 23.3566 33.4631 23.2727C33.2951 23.1887 33.2951 22.9367 33.2951 22.7687C33.2951 21.8447 33.2951 21.0047 33.2951 20.0807C33.2951 19.9967 33.2951 19.9127 33.2951 19.8288C33.2111 18.9048 32.7071 18.3168 31.7831 18.1488C31.0271 17.9808 30.2711 18.4008 29.8512 19.0728C29.7672 19.2408 29.7672 19.4928 29.5152 19.4088C29.3472 18.9888 29.4312 18.5688 29.4312 18.0648C29.4312 17.0568 29.0112 16.4688 28.0872 16.1329C26.7432 15.9649 25.7353 16.8048 25.6513 18.2328C25.6513 18.4848 25.7353 18.9048 25.4833 19.0728C25.3993 19.0728 25.3153 18.9888 25.3153 18.9048C24.9793 18.3168 24.5593 17.9808 23.9713 17.8968C22.7114 17.8128 21.8714 18.5688 21.8714 19.8288C21.8714 22.5167 21.8714 25.2046 21.8714 27.8925C21.8714 28.1445 21.8714 28.3965 21.7874 28.6485C21.6194 28.9845 21.4514 28.7325 21.2834 28.5645C20.7794 28.0605 20.1914 27.5565 19.6874 26.9685C19.0155 26.2126 18.1755 26.0446 17.2515 26.4646C15.9076 27.2205 15.6556 28.7325 16.6635 29.8245C17.1675 30.4124 17.7555 30.9164 18.2595 31.5044C18.4275 31.6724 18.6795 31.8404 18.5115 32.1764C18.0075 32.7644 17.8395 33.3524 17.9235 34.1083C17.9235 34.3603 17.9235 34.5283 17.8395 34.7803C17.5875 34.9483 17.5035 34.6963 17.5035 34.5283C17.2515 34.0243 16.8315 33.6884 16.3275 33.6044C15.0676 33.3524 14.0596 34.1923 14.0596 35.5363C14.0596 36.9643 14.0596 38.4762 14.0596 39.9042C14.0596 41.1641 14.0596 42.4241 14.0596 43.6841C14.0596 43.9361 14.0596 44.188 13.9756 44.356C13.7236 44.692 13.6396 44.44 13.4716 44.272C12.9676 43.8521 12.4637 43.3481 12.0437 42.8441C11.2877 42.0881 10.4477 41.8361 9.52374 42.3401C9.27175 42.3401 9.18775 42.6761 8.93576 42.5081C8.59977 41.6681 8.51577 40.7441 8.43178 39.9042C8.43178 39.5682 8.43178 39.2322 8.34778 38.8962C8.34778 38.4762 8.34778 38.1402 8.34778 37.7202C8.43178 37.4682 8.43178 37.2162 8.34778 37.0483C8.34778 36.7123 8.34778 36.3763 8.34778 36.0403C8.43178 35.8723 8.43178 35.6203 8.34778 35.4523C8.34778 35.1163 8.34778 34.8643 8.34778 34.5283C8.43178 33.4364 8.51577 32.4284 8.76777 31.3364C9.69174 27.2205 11.4557 23.5246 14.1436 20.3327C16.4115 17.6448 19.0995 15.5449 22.2074 13.9489C24.7273 12.689 27.4152 11.765 30.2711 11.429C30.7751 11.345 31.1951 11.429 31.6991 11.345C31.8671 11.345 31.9511 11.345 32.1191 11.345C32.2031 11.429 32.2871 11.429 32.2871 11.345C32.4551 11.345 32.6231 11.345 32.7911 11.345C33.0431 11.429 33.2951 11.429 33.4631 11.345C33.631 11.345 33.883 11.345 34.051 11.345C34.219 11.261 34.387 11.261 34.639 11.177Z" fill="#634085"/>
<path d="M58.242 30.1602C58.662 31.5881 58.83 32.9321 58.998 34.36C58.998 34.444 58.998 34.528 59.082 34.612C59.082 34.696 59.082 34.78 59.082 34.948C58.998 35.032 58.998 35.116 59.082 35.284C59.082 35.452 59.082 35.704 59.082 35.872C58.998 36.04 58.998 36.292 59.082 36.46C59.082 36.628 59.082 36.796 59.082 36.964C58.998 37.132 58.998 37.3839 59.082 37.5519C59.082 37.7199 59.082 37.8039 59.082 37.9719C58.998 38.0559 59.082 38.1399 58.998 38.2239C58.998 38.3079 58.998 38.3919 59.082 38.4759C59.082 38.6439 59.082 38.7279 59.082 38.8959C58.83 39.3999 58.914 39.9039 58.83 40.4919C58.41 43.0118 57.738 45.4477 56.5621 47.7996C56.3101 47.7156 56.3101 47.4637 56.3101 47.2117C56.3101 43.0118 56.3101 38.8959 56.3101 34.696C56.3101 33.94 56.5621 33.1841 56.898 32.4281C57.234 31.8401 57.654 31.2521 57.822 30.5801C57.99 30.3282 58.074 30.1602 58.242 30.1602Z" fill="#634085"/>
<path d="M19.0993 57.5439C18.1753 56.8719 17.2514 56.284 16.4954 55.444C16.3274 55.192 16.4114 54.94 16.4114 54.688C16.4114 53.848 16.1594 53.092 15.4874 52.5041C14.0595 51.1601 12.7155 49.7321 11.3715 48.3882C11.1195 48.1362 10.9515 47.8842 10.6996 47.6322C10.3636 47.0442 9.85958 46.7082 9.43959 46.2042C8.9356 45.7003 8.51562 45.2803 8.17963 44.6083C8.17963 44.2723 8.17963 43.8523 8.17963 43.5163C8.34762 43.0963 8.34762 42.5924 8.9356 42.4244C9.1036 42.3404 9.1876 42.1724 9.43959 42.1724C9.60759 42.3404 9.52359 42.5084 9.52359 42.6763C9.43959 43.4323 9.60759 44.0203 10.1956 44.6083C12.9675 47.2962 15.6554 50.0681 18.4273 52.7561C19.1833 53.512 19.5193 54.268 19.5193 55.36C19.5193 55.948 19.5193 56.5359 19.5193 57.1239C19.3513 57.2079 19.4353 57.4599 19.0993 57.5439Z" fill="#F8A48D"/>
<path d="M33.3791 11.177C33.1271 11.345 32.8751 11.345 32.7071 11.177C32.8751 11.177 33.1271 11.177 33.3791 11.177Z" fill="#705190"/>
<path d="M34.639 11.177C34.387 11.345 34.135 11.345 33.967 11.177C34.219 11.177 34.387 11.177 34.639 11.177Z" fill="#6E4E8F"/>
<path d="M59.0823 36.4605C58.9143 36.2925 58.9143 36.0406 59.0823 35.8726C59.0823 36.0406 59.0823 36.2085 59.0823 36.4605Z" fill="#6D4D8D"/>
<path d="M59.0823 37.5516C58.9143 37.3836 58.9143 37.1316 59.0823 36.9636C59.0823 37.1316 59.0823 37.2996 59.0823 37.5516Z" fill="#705090"/>
<path d="M58.9982 38.2249C58.9982 38.1409 58.9982 37.9729 59.0822 37.8889C59.0822 38.0569 59.0822 38.1409 58.9982 38.2249C59.0822 38.2249 59.0822 38.2249 58.9982 38.2249Z" fill="#A490B9"/>
<path d="M59.0823 35.1998C58.9143 35.1158 58.9143 35.0318 59.0823 34.8638C59.0823 35.0318 59.0823 35.1158 59.0823 35.1998Z" fill="#AF9DC0"/>
<path d="M35.4785 11.177C35.3945 11.345 35.3105 11.261 35.1425 11.177C35.2265 11.177 35.3105 11.177 35.4785 11.177Z" fill="#B6A6C6"/>
<path d="M32.1188 11.177C32.0348 11.261 31.9508 11.261 31.9508 11.177C32.0348 11.177 32.1188 11.177 32.1188 11.177Z" fill="#B09FC2"/>
<path d="M58.9982 38.2236C59.0822 38.3076 59.0822 38.3916 59.0822 38.3916C58.9982 38.3916 58.9982 38.3076 58.9982 38.2236Z" fill="#BEAFCC"/>
<path d="M58.2419 30.1604C57.8219 31.5883 56.73 32.6803 56.562 34.1083C56.562 34.2763 56.478 34.4443 56.478 34.6122C56.478 38.8121 56.478 43.012 56.478 47.2119C56.478 47.3799 56.478 47.5479 56.562 47.6319C55.386 50.0678 53.874 52.2517 52.0261 54.1837C51.0181 55.1916 50.0102 56.1996 48.8342 56.9556C48.6662 56.7036 48.6662 56.4516 48.6662 56.1996C48.6662 54.9397 48.6662 53.5957 48.6662 52.3357C49.3382 48.8078 48.8342 45.2799 49.0022 41.668C49.0022 41.2481 48.9182 40.9121 48.7502 40.4921C48.7502 38.7281 48.7502 36.9642 48.7502 35.2002C48.7502 34.2763 48.4982 33.5203 47.8262 32.9323C45.0543 30.1604 42.3664 27.4725 39.5945 24.7005C39.0905 24.1965 38.7545 23.5246 38.8385 22.7686C38.8385 22.5166 38.9225 22.2646 39.0905 22.0126C40.0984 21.5926 41.0224 21.7606 41.7784 22.6006C42.3664 23.1886 42.9544 23.7766 43.5423 24.3645C44.0463 24.7845 44.6343 24.7845 45.2223 24.7845C45.7263 24.7845 46.2303 24.7005 46.7343 24.8685C48.1622 25.2045 49.0862 26.0445 49.5902 27.3885C49.6742 27.7244 49.9262 27.9764 50.3462 27.8924C50.7661 27.8084 50.8501 27.5564 50.8501 27.1365C50.8501 26.4645 50.8501 25.7925 50.8501 25.1205C50.8501 24.5325 50.9341 24.4485 51.5221 24.4485C52.0261 24.4485 52.5301 24.4485 53.1181 24.3645C53.8741 24.1965 54.462 23.8606 54.882 23.1886C54.966 23.0206 55.05 22.8526 55.302 22.7686C55.554 22.8526 55.47 23.1046 55.554 23.3566C55.554 23.5246 55.554 23.6926 55.638 23.9446C55.974 23.7766 55.974 23.5246 55.974 23.1886C55.974 22.0966 55.974 21.0886 55.974 19.9967C55.974 19.7447 55.974 19.4087 56.058 19.1567C56.226 18.5687 56.562 18.0647 57.234 17.8967C58.1579 18.1487 58.6619 18.6527 58.6619 19.5767C58.6619 22.3486 58.6619 25.1205 58.6619 27.8924C58.4939 28.8164 58.3259 29.4884 58.2419 30.1604Z" fill="#B36E59"/>
<path d="M19.0995 57.5428L19.1835 57.4588C19.1835 56.4509 19.2675 55.4429 19.0995 54.4349C19.0155 53.9309 18.7635 53.427 18.3435 53.091C15.6556 50.403 12.9676 47.7151 10.2797 45.0272C9.43974 44.1872 9.10375 43.3472 9.35574 42.2553C10.2797 41.7513 11.1197 41.9193 11.8757 42.6753C12.5476 43.2632 13.1356 43.9352 13.8076 44.6072C14.3116 45.0272 14.8996 45.0272 15.4876 45.0272C16.0755 45.0272 16.6635 45.0272 17.2515 45.1952C17.5035 45.2792 17.6715 45.2792 17.8395 45.4472C17.9235 45.6152 17.9235 45.8672 17.9235 46.0352C17.9235 46.7071 17.9235 47.3791 17.9235 48.0511C17.9235 48.2191 17.9235 48.4711 18.0075 48.6391C18.0915 48.8911 18.3435 49.0591 18.5955 49.0591C18.9315 49.0591 19.0995 48.8071 19.0995 48.5551C19.0995 48.3031 19.0995 47.9671 19.0995 47.6311C19.0995 47.3791 19.0995 47.1271 19.1835 46.8751C19.3514 46.6231 19.4354 46.7911 19.5194 46.8751C19.6874 47.0431 19.6874 47.2951 19.8554 47.4631C19.9394 47.6311 20.0234 47.7151 20.1914 47.7151C20.3594 47.6311 20.2754 47.4631 20.2754 47.2951C20.1074 46.7911 19.8554 46.3712 19.5194 46.0352C19.4354 45.8672 19.2675 45.7832 19.1835 45.5312C19.0995 45.1112 19.3514 44.9432 19.7714 44.9432C20.8634 44.9432 21.9554 44.9432 22.9633 44.9432C23.4673 44.9432 23.5513 45.1112 23.5513 45.6152C23.5513 46.4552 23.5513 47.2951 23.5513 48.1351C23.5513 48.7231 23.8033 49.0591 24.1393 49.0591C24.5593 49.0591 24.7273 48.7231 24.7273 48.1351C24.7273 45.6992 24.7273 43.1792 24.7273 40.7433C24.7273 40.1553 24.5593 39.8193 24.1393 39.8193C23.7193 39.8193 23.5513 40.1553 23.5513 40.7433C23.5513 41.4993 23.5513 42.2553 23.5513 43.0113C23.5513 43.5992 23.3833 43.7672 22.7953 43.7672C21.7874 43.7672 20.7794 43.7672 19.7714 43.7672C19.1835 43.7672 19.0995 43.5992 19.0155 43.0113C19.0155 42.3393 19.0155 41.6673 19.0155 40.9953C19.0155 40.4913 18.9315 39.9873 18.5115 39.6514C18.4275 39.4834 18.4275 39.2314 18.4275 39.0634C18.4275 37.3834 18.4275 35.7875 18.4275 34.1075C18.4275 33.0995 18.8475 32.2596 19.8554 31.8396C19.9394 31.8396 20.1074 31.7556 20.1914 31.8396C20.9474 32.0916 21.4514 32.5956 21.6194 33.3515C21.6194 33.4355 21.6194 33.6035 21.6194 33.6875C21.6194 36.2915 21.6194 38.8954 21.6194 41.4993C21.6194 41.5833 21.6194 41.6673 21.6194 41.6673C21.6194 41.8353 21.5354 42.1713 21.7874 42.1713C22.0394 42.1713 22.1234 42.0033 22.2074 41.7513C22.2914 41.4993 22.2914 41.2473 22.2914 40.9953C22.2914 39.3154 22.2914 37.6354 22.2914 35.9555C22.2914 34.8635 22.7114 34.1915 23.8033 33.7715C24.7273 33.8555 25.4833 34.6115 25.5673 35.6195C25.5673 36.1235 25.5673 36.6274 25.5673 37.1314C25.5673 37.8034 25.5673 38.4754 25.5673 39.1474C25.5673 40.5753 25.5673 41.9193 25.5673 43.3472C25.5673 43.5152 25.5673 43.5992 25.5673 43.7672C25.5673 43.8512 25.5673 44.0192 25.6513 44.0192C25.7353 44.0192 25.8193 43.9352 25.8193 43.8512C25.9033 43.6832 25.9033 43.4312 25.9033 43.2632C25.9033 42.2553 25.9033 41.2473 25.9033 40.3233C25.9033 39.7353 25.9873 39.2314 26.3232 38.7274C26.5752 38.4754 26.8272 38.2234 27.1632 38.1394C28.0872 38.2234 28.5912 38.8954 28.6752 39.8193C28.6752 41.1633 28.6752 42.5073 28.6752 43.7672C28.6752 43.9352 28.6752 44.1032 28.6752 44.2712C28.9272 44.2712 29.0112 44.0192 29.2632 44.1032C29.5152 44.1872 29.4312 44.3552 29.3472 44.5232C29.1792 45.4472 29.5992 46.2032 30.1871 46.7911C32.8751 49.4791 35.563 52.167 38.2509 54.7709C39.0069 55.5269 39.3429 56.2829 39.2589 57.2908C39.2589 58.4668 39.2589 59.6428 39.2589 60.8187C39.2589 61.0707 39.2589 61.2387 39.0909 61.4067C38.2509 61.6587 37.3269 61.8267 36.403 61.9107C36.235 61.7427 36.319 61.4907 36.319 61.2387C36.319 59.7268 36.319 58.2988 36.319 56.7869C36.319 55.8629 36.067 55.0229 35.311 54.3509C34.975 54.0149 34.555 53.6789 34.303 53.259C32.4551 51.411 30.5231 49.5631 28.6752 47.5471V47.4631C28.6752 48.0511 28.6752 48.6391 28.5912 49.3111C28.4232 50.403 28.0032 51.411 27.4152 52.335C26.9112 53.175 26.6592 54.0989 26.6592 55.1069C26.6592 56.9548 26.6592 58.7188 26.6592 60.5667C26.6592 60.8187 26.6592 61.0707 26.5752 61.2387C25.7353 61.0707 24.8953 60.8187 24.1393 60.4827C22.6274 59.5588 20.7794 58.7188 19.0995 57.5428Z" fill="#FECABD"/>
<path d="M39.5107 61.4081C39.5107 59.8962 39.5107 58.3842 39.5107 56.8723C39.5107 56.1163 39.2587 55.5283 38.7547 54.9403C36.0668 52.2524 33.2949 49.4805 30.607 46.7926C29.767 45.9526 29.347 45.1126 29.683 43.9367C30.187 43.4327 30.775 43.6007 31.363 43.6847C31.7829 43.7687 32.0349 43.9367 32.3709 44.2726C33.0429 44.8606 33.6309 45.5326 34.2189 46.2046C34.5549 46.6246 35.0588 46.7926 35.6468 46.7086C35.9828 46.7086 36.4028 46.7086 36.8228 46.7086C37.9988 46.7086 39.0067 47.2126 39.7627 48.1365C40.0147 48.4725 40.0147 48.8925 40.1827 49.2285C40.3507 49.4805 40.5187 49.6485 40.8547 49.6485C41.7787 49.7325 42.6186 49.7325 43.5426 49.6485C43.8786 49.5645 44.2146 49.4805 44.1306 49.0605C44.1306 48.7245 43.7946 48.4725 43.3746 48.5565C42.9546 48.5565 42.6186 48.5565 42.1986 48.5565C41.4427 48.5565 41.3587 48.4725 41.3587 47.7165C41.3587 45.8686 41.3587 43.9367 41.3587 42.0887C41.3587 41.7527 41.3587 41.5007 41.3587 41.1647C41.3587 40.8287 41.1907 40.5768 40.8547 40.4928C40.5187 40.4088 40.2667 40.5768 40.0987 40.9127C40.0147 41.0807 40.0147 41.3327 40.0147 41.5847C40.0147 43.3487 40.0147 45.0286 40.0147 46.7926C40.0147 46.9606 40.0147 47.0446 40.0147 47.2126C40.0147 47.3806 40.0147 47.5486 39.8467 47.6326C39.6787 47.7165 39.5947 47.6326 39.4267 47.4646C38.5027 46.6246 37.4108 46.4566 36.2348 46.3726C36.0668 46.3726 35.9828 46.3726 35.8148 46.3726C35.1428 46.3726 35.0588 46.2886 35.0588 45.6166C35.0588 43.6847 35.0588 41.6687 35.0588 39.7368C35.0588 38.8968 35.0588 38.0568 35.0588 37.2169C35.0588 36.2089 35.7308 35.4529 36.6548 35.4529C37.4948 35.5369 37.8308 36.2089 38.1668 36.7969C38.4187 37.1329 38.3348 37.5528 38.3348 37.8888C38.3348 39.7368 38.3348 41.5847 38.3348 43.4327C38.3348 43.6007 38.2508 43.9367 38.5027 43.9367C38.7547 43.9367 38.8387 43.6847 38.9227 43.4327C39.0067 43.1807 38.9227 43.0127 38.9227 42.7607C38.9227 40.4928 38.9227 38.2248 38.9227 35.9569C38.9227 35.3689 39.0067 34.7809 39.3427 34.2769C39.6787 33.8569 40.0147 33.521 40.6027 33.689C41.4427 33.9409 41.9466 34.5289 42.0306 35.3689C42.0306 35.9569 42.0306 36.4609 42.0306 37.0489C42.1986 37.3008 42.1986 37.5528 42.1986 37.8048C42.1986 39.5688 42.1986 41.2487 42.1986 43.0127C42.1986 43.1807 42.1986 43.3487 42.1986 43.4327C42.1986 43.6007 42.1146 43.9367 42.3666 43.9367C42.6186 43.9367 42.7026 43.6847 42.7866 43.4327C42.8706 43.1807 42.8706 42.9287 42.8706 42.6767C42.8706 40.9967 42.8706 39.3168 42.8706 37.6368C42.8706 37.1329 42.9546 36.6289 43.3746 36.1249C43.6266 35.7889 43.9626 35.5369 44.4666 35.5369C45.4745 35.7889 46.0625 36.4609 46.0625 37.4688C46.0625 38.6448 46.0625 39.7368 46.0625 40.9127C46.2305 41.0807 46.2305 41.3327 46.2305 41.5847C46.2305 42.7607 46.2305 43.9367 46.2305 45.1126C46.2305 45.2806 46.2305 45.3646 46.2305 45.5326C46.2305 45.6166 46.2305 45.7006 46.3145 45.7006C46.3985 45.7006 46.3985 45.7006 46.4825 45.6166C46.5665 45.4486 46.5665 45.1966 46.5665 45.0286C46.5665 44.0207 46.5665 43.0127 46.5665 42.0887C46.5665 41.6687 46.5665 41.3327 46.7345 40.9127C46.9865 40.3248 47.3225 39.9048 47.9945 39.9048C48.3305 39.9048 48.6665 40.0728 48.8344 40.4088C49.0864 40.8287 49.2544 41.2487 49.2544 41.7527C49.2544 44.2726 49.2544 46.8766 49.2544 49.3965C49.2544 50.4045 49.1704 51.4124 48.8344 52.3364C48.8344 52.8404 48.5825 53.3444 48.3305 53.6804C47.5745 54.7723 47.3225 56.0323 47.3225 57.2923C47.3225 57.5443 47.4065 57.8803 47.2385 58.1322C47.1545 58.2162 46.9865 58.3842 46.8185 58.4682C44.5506 59.7282 42.1986 60.7362 39.6787 61.3242C39.5947 61.4081 39.5947 61.4081 39.5107 61.4081Z" fill="#FEDCCD"/>
<path d="M34.0507 46.2876C33.3787 45.6156 32.7907 44.9436 32.1187 44.3556C31.3627 43.6837 30.5228 43.5997 29.6828 44.0196C29.3468 44.1036 29.1788 44.3556 28.9268 44.5236C28.7588 44.4396 28.8428 44.2716 28.8428 44.1876C28.8428 42.6757 28.8428 41.1637 28.8428 39.7358C28.8428 38.8958 28.3388 38.3078 27.5829 38.2238C27.3309 38.1398 26.9949 38.3918 26.7429 38.3078C26.3229 37.9718 25.9869 37.5518 25.7349 37.1318C25.7349 36.7959 25.7349 36.4599 25.7349 36.1239C25.7349 34.8639 25.3989 34.2759 24.139 33.8559C23.719 34.0239 23.299 34.0239 22.879 34.1079C22.375 34.0239 22.123 33.52 21.787 33.268C21.535 32.596 21.115 32.176 20.5271 31.84C20.1911 31.672 19.9391 31.42 19.6871 31.168C19.0151 30.496 18.2591 29.7401 17.5871 29.0681C16.9152 28.3961 16.8312 27.3041 17.2512 26.6322C18.1751 26.2122 19.0151 26.3802 19.7711 27.0521C20.4431 27.7241 21.031 28.3121 21.703 28.9841C22.207 29.4041 22.795 29.4041 23.467 29.4041C24.139 29.4041 24.7269 29.3201 25.3149 29.4881C26.0709 29.7401 26.6589 30.0761 27.1629 30.664C27.3309 31.084 27.4149 31.42 27.2469 31.84C27.0789 32.344 27.0789 32.344 27.5829 32.344C28.7588 32.428 30.0188 32.344 31.1948 32.344C31.6147 32.344 31.8667 32.092 31.8667 31.84C31.8667 31.504 31.6147 31.252 31.1948 31.252C30.6068 31.168 29.9348 31.252 29.3468 31.252C28.7588 31.252 28.6748 31.168 28.5908 30.58C28.5908 30.0761 28.5908 29.5721 28.5908 29.0681C28.5908 28.6481 28.7588 28.4801 29.1788 28.4801C29.6828 28.4801 30.1028 28.4801 30.6068 28.4801C30.6908 28.4801 30.7748 28.4801 30.8588 28.4801C31.3627 28.4801 31.6987 28.2281 31.6987 27.8921C31.6987 27.5561 31.3627 27.3041 30.8588 27.3041C30.3548 27.3041 29.7668 27.3041 29.2628 27.3041C28.8428 27.3041 28.6748 27.1361 28.6748 26.7161C28.6748 26.1282 28.6748 25.6242 28.6748 25.0362C28.6748 24.6162 28.8428 24.4482 29.2628 24.4482C29.8508 24.4482 30.3548 24.4482 30.9428 24.4482C31.1108 24.4482 31.2788 24.4482 31.4467 24.4482C31.6987 24.3642 31.9507 24.1962 31.9507 23.9442C31.9507 23.6082 31.7827 23.4402 31.5307 23.3562C31.2788 23.2722 30.9428 23.3562 30.6908 23.1883C30.5228 21.9283 30.4388 20.7523 30.6908 19.5764C30.8588 18.9884 31.2788 18.5684 31.9507 18.4004C32.9587 18.5684 33.4627 19.1564 33.5467 20.0803C33.6307 21.0043 33.4627 21.9283 33.6307 22.7683C33.8827 24.5322 33.7987 26.3802 33.7987 28.1441C33.7987 28.2281 33.7987 28.4801 33.9667 28.4801C34.1347 28.4801 34.1347 28.3121 34.2187 28.2281C34.2187 28.0601 34.2187 27.8921 34.2187 27.7241C34.2187 26.7162 34.2187 25.7082 34.2187 24.6162C34.2187 24.1122 34.3027 23.6922 34.5547 23.2722C34.8067 22.8523 35.2266 22.6003 35.7306 22.7683C36.4026 23.0203 36.8226 23.5242 36.8226 24.2802C36.8226 27.2201 36.8226 30.16 36.8226 33.016C36.8226 33.8559 36.5706 34.6959 36.3186 35.4519C36.2346 35.5359 36.0666 35.6199 35.8986 35.6199C34.9746 35.9559 34.4707 36.5439 34.4707 37.5518C34.4707 38.7278 34.4707 39.8198 34.4707 40.9957C34.4707 42.5917 34.4707 44.1876 34.4707 45.7836C34.3027 45.8676 34.3867 46.1196 34.0507 46.2876Z" fill="#E1B786"/>
<path d="M27.3311 32.344C27.1631 32.428 26.9951 32.428 26.8271 32.26C26.6591 32.092 26.7431 31.924 26.9111 31.756C27.1631 31.42 27.0791 31 26.9111 30.664C26.9951 29.9081 26.5751 29.4881 25.9031 29.1521C25.2311 28.8161 24.4752 28.8161 23.8032 28.8161C22.4592 28.8161 22.4592 28.8161 22.4592 27.4721C22.4592 25.1202 22.4592 22.8523 22.4592 20.5003C22.4592 19.9963 22.5432 19.5764 22.6272 19.1564C22.7952 18.4004 23.4672 17.8964 24.1392 17.8964C24.8112 18.0644 25.3151 18.4004 25.5671 19.1564C25.9031 19.4924 25.9031 19.9123 25.9031 20.3323C25.9031 22.1803 25.9031 24.0282 25.9031 25.7922C25.9031 25.9602 25.7351 26.2962 26.0711 26.3802C26.3231 26.3802 26.4071 26.0442 26.4911 25.7922C26.4911 25.5402 26.4911 25.2882 26.4911 25.1202C26.4911 22.8523 26.4911 20.5003 26.4911 18.2324C26.4911 17.4764 26.7431 16.8884 27.3311 16.3844C27.5831 16.2164 27.8351 16.0485 28.1711 16.1324C29.011 16.3004 29.599 17.0564 29.683 17.8964C29.683 18.4004 29.683 18.9884 29.683 19.4924L29.767 19.5763C29.851 20.6683 29.935 21.7603 29.767 22.8523C29.599 23.0203 29.347 23.0203 29.179 23.0203C28.927 23.0203 28.5911 23.0203 28.2551 23.0203C27.6671 23.0203 27.4991 23.2722 27.4991 23.8602C27.4991 24.7842 27.4991 25.6242 27.4991 26.5481C27.4991 27.8081 27.4991 29.0681 27.4991 30.328C27.2471 31 27.2471 31.672 27.3311 32.344Z" fill="#E1B786"/>
<path d="M48.7499 40.4079C48.498 40.2399 48.33 40.0719 48.078 39.9879C47.49 39.9039 46.986 39.9879 46.566 40.4079C46.482 40.4919 46.398 40.6599 46.23 40.6599C46.23 38.8119 46.23 36.964 46.23 35.116C46.23 33.9401 45.894 33.1001 45.0541 32.2601C42.8701 30.1602 40.7702 27.9763 38.5862 25.8763C37.4103 24.7843 37.6623 22.8524 39.0902 22.1804C38.8382 23.2724 39.0902 24.1964 39.9302 24.9523C42.7021 27.6403 45.39 30.3282 48.078 33.0161C48.6659 33.6041 48.9179 34.2761 48.9179 35.116C48.9179 36.712 48.9179 38.308 48.9179 39.9039C48.8339 40.0719 48.9179 40.2399 48.7499 40.4079Z" fill="#A45E4D"/>
<path d="M16.4116 33.521C17.1675 33.689 17.4195 34.277 17.7555 34.781C17.9235 35.1169 17.9235 35.4529 17.9235 35.7889C17.9235 37.2169 17.9235 38.5608 17.9235 39.9888C17.9235 41.2488 17.9235 42.5087 17.9235 43.8527C17.9235 44.1047 17.9235 44.2727 17.8395 44.4407C17.7555 44.5247 17.5875 44.5247 17.4195 44.5247C16.7476 44.3567 16.0756 44.4407 15.3196 44.3567C14.7316 44.3567 14.6476 44.2727 14.6476 43.6847C14.6476 40.8288 14.6476 38.0569 14.6476 35.2009C14.6476 34.529 14.9836 33.941 15.5716 33.605C15.8236 33.437 16.1596 33.437 16.4116 33.521Z" fill="#FECABD"/>
<path d="M34.0507 46.2874C34.2187 46.1194 34.1347 45.9514 34.1347 45.6994C34.1347 42.9275 34.1347 40.0716 34.1347 37.2996C34.1347 36.1237 34.9747 35.2837 36.1507 35.2837C36.3187 35.2837 36.4866 35.2837 36.5706 35.3677C35.5627 35.7037 35.1427 36.4597 35.1427 37.5516C35.1427 40.2395 35.1427 42.9275 35.1427 45.6154C35.1427 46.0354 35.2267 46.2034 35.7307 46.2034C36.9066 46.2034 38.0826 46.2034 39.1746 46.9594C39.4266 47.1273 39.5946 47.2953 39.8466 47.4633C40.0145 47.3793 39.9305 47.2113 39.9305 47.0434C39.9305 45.1114 39.9305 43.1795 39.9305 41.3315C39.9305 41.1635 39.8466 40.9955 40.0145 40.8275C40.1825 40.9955 40.1825 41.2475 40.1825 41.4995C40.1825 43.9354 40.1825 46.3714 40.1825 48.7233C40.1825 48.9753 40.1825 49.2273 40.0145 49.3953C39.5106 47.7993 38.5026 47.0434 36.7386 47.0434C36.4867 47.0434 36.1507 47.0434 35.8147 47.0434C35.0587 46.9594 34.4707 46.7914 34.0507 46.2874Z" fill="#FECABD"/>
<path d="M49.4221 27.4723C48.9181 26.1283 47.9941 25.2883 46.6502 25.0363C45.9782 24.9523 45.2222 24.9523 44.5502 25.0363C44.0463 25.0363 43.7943 24.9523 43.5423 24.5324C43.5423 21.6764 43.5423 18.9045 43.5423 16.0486C43.5423 15.0406 43.7103 14.2847 44.5502 13.6967C44.9702 13.6127 45.3902 13.3607 45.8102 13.5287C45.8102 13.7807 45.6422 13.7807 45.4742 13.9487C44.8862 14.2847 44.6342 14.7886 44.6342 15.4606C44.6342 18.1485 44.6342 20.9205 44.6342 23.6084C44.6342 24.1964 44.7182 24.1964 45.2222 24.1964C45.7262 24.1964 46.3142 24.1964 46.8182 24.2804C47.6581 24.4484 48.4141 24.8684 49.0861 25.4563C49.1701 25.2043 49.1701 24.9523 49.1701 24.7004C49.1701 23.8604 49.1701 23.0204 49.1701 22.1804C49.1701 22.0124 49.0861 21.6764 49.4221 21.7604C49.5061 22.0124 49.5061 22.1804 49.5061 22.4324C49.5061 23.9444 49.5061 25.3723 49.5061 26.8003C49.5901 26.9683 49.6741 27.3043 49.4221 27.4723Z" fill="#A45E4D"/>
<path d="M23.9707 17.8127C22.9627 18.1487 22.4587 18.8207 22.4587 20.0807C22.4587 22.7686 22.4587 25.5405 22.4587 28.2284C22.4587 28.5644 22.6267 28.7324 22.9627 28.7324C23.4667 28.7324 23.9707 28.7324 24.4747 28.7324C25.3147 28.7324 26.0706 29.0684 26.7426 29.6564C27.0786 29.9084 26.9946 30.4124 26.8266 30.7483C26.1546 29.9084 25.2307 29.4884 24.1387 29.4884C23.6347 29.4884 23.0467 29.4884 22.5427 29.4884C22.0387 29.4884 21.7868 29.3204 21.5348 28.9844C21.5348 25.9605 21.5348 22.9366 21.5348 19.8287C21.5348 18.6527 22.5427 17.7287 23.7187 17.8127C23.8867 17.7287 23.9707 17.8127 23.9707 17.8127Z" fill="#E1A670"/>
<path d="M16.4115 33.5201C15.5716 33.6041 14.8156 34.2761 14.8156 35.2001C14.8156 38.056 14.8156 40.9959 14.8156 43.8518C14.8156 44.1878 14.8996 44.2718 15.2356 44.2718C16.0756 44.2718 16.9155 44.2718 17.7555 44.4398C17.9235 44.6918 17.9235 44.9438 17.7555 45.1958C16.7475 44.7758 15.7396 44.8598 14.8156 44.9438C14.3116 44.9438 14.0596 44.7758 13.8076 44.4398C13.8076 41.4159 13.8076 38.476 13.8076 35.4521C13.8916 34.0241 15.1516 33.1001 16.4115 33.5201Z" fill="#F8A48E"/>
<path d="M28.0031 16.1327C26.9951 16.3007 26.4911 17.2247 26.4911 17.9807C26.4911 20.5006 26.4911 22.9365 26.4911 25.4565C26.4911 25.8765 26.4911 26.2964 25.9871 26.4644C25.7351 26.6324 25.5671 26.5484 25.5671 26.2124C25.5671 24.7845 25.5671 23.3565 25.5671 21.9286C25.5671 20.9206 25.7351 19.9966 25.3991 18.9887C25.6511 18.8207 25.4831 18.4847 25.4831 18.1487C25.5671 16.8047 26.4911 15.9647 27.7511 16.0487C27.8351 16.0487 27.9191 16.1327 28.0031 16.1327Z" fill="#E1A670"/>
<path d="M40.6024 33.6048C39.5945 33.6048 39.0065 34.6127 39.0065 35.6207C39.0065 38.1406 39.0065 40.5766 39.0065 43.0965C39.0065 43.4325 38.9225 43.6845 38.6705 43.9365C38.5025 44.0205 38.3345 44.1045 38.2505 44.1045C38.0825 44.0205 38.1665 43.8525 38.1665 43.6845C38.1665 41.6685 38.1665 39.6526 38.1665 37.6367C38.1665 37.3007 38.0825 36.9647 38.1665 36.6287C38.1665 36.1247 38.1665 35.7047 38.1665 35.2007C38.1665 34.3607 39.2585 33.1848 40.6024 33.6048Z" fill="#FECABD"/>
<path d="M17.1672 26.4639C16.9152 27.5558 17.1672 28.4798 18.0912 29.3198C18.9312 30.0758 19.7711 30.8317 20.5271 31.7557C20.4431 31.7557 20.3591 31.7557 20.1911 31.7557C19.6031 31.7557 19.1832 32.0077 18.5952 32.1757C18.5952 31.9237 18.4272 31.8397 18.2592 31.7557C17.6712 31.1677 17.0832 30.5797 16.5792 29.9918C15.4873 28.8998 15.8233 27.1358 17.1672 26.4639Z" fill="#E1A670"/>
<path d="M44.3827 35.6202C43.2908 36.0402 42.9548 36.7962 42.9548 37.8881C43.0388 39.5681 42.9548 41.332 42.9548 43.012C42.9548 43.432 42.8708 43.8519 42.4508 44.1039C42.1148 44.2719 41.9468 44.1879 41.9468 43.8519C41.9468 41.584 41.9468 39.3161 41.9468 37.0481C42.2828 36.3762 42.7028 35.7882 43.5428 35.6202C43.8788 35.5362 44.1307 35.4522 44.3827 35.6202Z" fill="#FECABD"/>
<path d="M18.5954 32.1757C19.0993 31.8397 19.5193 31.5037 20.1913 31.7557C19.1833 32.2597 18.7633 33.0157 18.7633 34.1916C18.7633 35.9556 18.7633 37.6355 18.7633 39.3995C18.4274 39.5675 18.1754 39.8195 17.8394 39.9875C17.8394 38.5595 17.8394 37.1316 17.8394 35.6196C17.8394 35.3676 17.6714 35.0316 17.8394 34.7796C17.8394 34.3596 17.8394 33.9396 17.8394 33.5197C17.8394 33.0157 18.0914 32.5117 18.5954 32.1757Z" fill="#F8A48D"/>
<path d="M29.5145 22.9363C29.5145 21.8443 29.5145 20.6684 29.5145 19.5764C29.8505 18.8204 30.3545 18.3164 31.1105 18.1484C31.3625 18.0644 31.5305 18.0644 31.7825 18.1484C31.6145 18.3164 31.3625 18.3164 31.1945 18.4844C30.7745 18.8204 30.4385 19.3244 30.4385 19.9124C30.4385 20.9204 30.4385 21.9283 30.4385 22.9363C30.1025 23.1043 29.7665 23.1043 29.5145 22.9363Z" fill="#E1A670"/>
<path d="M35.5628 22.517C34.7229 22.517 34.2189 23.189 34.1349 24.113C34.1349 25.2889 34.1349 26.5489 34.1349 27.7249C34.1349 27.9769 34.1349 28.2288 33.9669 28.3968C33.8829 28.4808 33.7149 28.5648 33.5469 28.5648C33.3789 28.4808 33.4629 28.3128 33.4629 28.2288C33.4629 27.0529 33.4629 25.8769 33.4629 24.7849C33.3789 23.189 33.3789 21.509 33.3789 19.9131C33.5469 20.5011 33.4629 21.0051 33.4629 21.593C33.4629 22.181 33.4629 22.853 33.4629 23.525C33.9669 22.601 34.6389 22.181 35.5628 22.517Z" fill="#E1A670"/>
<path d="M46.1462 40.5765C46.7342 39.8205 47.3222 39.7365 48.0782 39.9885C47.2382 39.9045 46.7342 40.6605 46.6502 41.7525C46.6502 42.9285 46.6502 44.0204 46.6502 45.1964C46.6502 45.4484 46.6502 45.7004 46.3982 45.8684C46.3142 45.9524 46.2302 46.0364 46.0622 45.9524C45.8942 45.8684 45.9782 45.7844 45.9782 45.6164C45.9782 45.0284 45.9782 44.4404 45.9782 43.8524C45.9782 42.8445 45.9782 41.8365 45.9782 40.8285C46.1462 40.9125 46.0622 40.7445 46.1462 40.5765Z" fill="#FECABD"/>
<path d="M26.9109 61.1555C26.9109 58.9716 26.9109 56.7876 26.9109 54.6877C26.9109 53.9317 27.1629 53.0917 27.5829 52.4198C28.5909 50.9078 29.0949 49.2278 29.0109 47.2959C29.0949 47.4639 29.2629 47.5479 29.3468 47.7159C31.0268 49.3958 32.7067 51.0758 34.3867 52.7557C34.5547 52.9237 34.6387 53.0077 34.8067 53.1757C34.8907 54.0157 34.8907 54.9397 34.8907 55.7797C34.8907 57.6276 34.8907 59.4755 34.8907 61.3235C34.8907 61.5755 34.9747 61.8275 34.7227 62.0795C32.2028 62.1635 29.7668 61.9115 27.3309 61.3235C27.0789 61.2395 26.9949 61.2395 26.9109 61.1555Z" fill="#E1B786"/>
<path d="M34.6389 62.0795C34.6389 59.2236 34.6389 56.3677 34.6389 53.5118C34.6389 53.4278 34.6389 53.2598 34.7229 53.1758C35.1428 53.5958 35.5628 54.0158 35.9828 54.4357C36.5708 54.9397 36.8228 55.6117 36.8228 56.4517C36.8228 58.2996 36.8228 60.1476 36.8228 61.9115C36.0668 61.9955 35.3948 61.9955 34.6389 62.0795Z" fill="#634086"/>
<path d="M10.6996 47.6323C10.9515 47.6323 11.0355 47.8003 11.1195 47.9683C12.5475 49.3963 13.9755 50.8242 15.4034 52.2522C16.2434 53.0082 16.5794 53.8481 16.4954 55.0241C16.4954 55.1921 16.4954 55.2761 16.4954 55.4441C14.7314 53.9321 13.2195 52.0842 11.9595 50.0683C11.5395 49.3123 11.1195 48.4723 10.6996 47.6323Z" fill="#634086"/>
<path d="M47.154 58.1313C47.154 57.3753 47.154 56.6193 47.238 55.9473C47.322 55.2753 47.49 54.6874 47.91 54.1834C48.246 53.5954 48.582 53.0074 48.834 52.4194C49.002 52.5874 48.918 52.7554 48.918 52.9234C48.918 54.2674 48.918 55.6953 48.918 57.0393C48.33 57.4593 47.742 57.7953 47.154 58.1313Z" fill="#A55E4D"/>
<path d="M49.4226 21.5924C49.2546 21.7604 49.3386 22.0124 49.3386 22.1804C49.3386 23.3563 49.3386 24.5323 49.3386 25.7923C49.0026 25.5403 48.8346 25.2883 48.4986 25.1203C47.7426 24.6163 46.9867 24.3643 46.0627 24.2803C45.6427 24.2803 45.3067 24.2803 44.8867 24.2803C44.5507 24.2803 44.4667 24.1963 44.4667 23.7763C44.4667 20.9204 44.4667 17.9805 44.4667 15.1246C44.4667 14.5366 44.8027 14.0326 45.3067 13.6966C45.4747 13.6126 45.6427 13.6126 45.8107 13.4446C46.4827 13.5286 46.9027 13.8646 47.2387 14.4526C47.3227 14.6206 47.4067 14.7046 47.4907 14.7886C47.7426 15.0406 47.6586 15.2926 47.6586 15.5446C47.6586 17.3925 47.6586 19.2404 47.6586 21.0884C47.6586 21.2564 47.6586 21.3404 47.6586 21.5084C47.6586 21.6764 47.5746 21.9284 47.8266 22.0124C48.0786 22.0124 48.1626 21.7604 48.2466 21.5924C48.3306 21.3404 48.3306 21.0884 48.3306 20.9204C48.3306 18.8205 48.3306 16.7205 48.3306 14.5366C48.3306 13.3606 48.4986 12.3526 49.5906 11.6807C50.5986 11.6807 51.4385 12.5206 51.5225 13.5286C51.5225 14.1166 51.4385 14.7046 51.6065 15.2086C51.4385 15.2926 51.5225 15.3766 51.5225 15.4606C51.4385 16.3845 51.5225 17.3925 51.4385 18.3165C51.4385 18.4005 51.4385 18.4845 51.3545 18.5685C51.1025 18.8205 50.8506 18.7365 50.5986 18.7365C49.7586 18.7365 49.5066 18.9885 49.5066 19.8284C49.5066 20.2484 49.5066 20.6684 49.5066 21.0884C49.5906 21.2564 49.5906 21.5084 49.4226 21.5924Z" fill="#B36E59"/>
<path d="M53.7061 13.7805C54.7141 14.0325 55.3021 14.7045 55.3021 15.7125C55.3021 16.7204 55.3021 17.6444 55.3021 18.6524C55.3021 18.8204 55.2181 18.9884 55.3861 19.1564C55.5541 19.5763 55.4701 19.9963 55.3021 20.4163C55.0501 20.5003 54.9661 20.2483 54.8821 20.0803C54.3781 19.3244 53.6221 18.9044 52.7822 18.8204C52.5302 18.8204 52.3622 18.7364 52.2782 18.5684C52.1942 17.4764 52.1942 16.4684 52.2782 15.3765C52.2782 14.4525 52.9502 13.8645 53.7061 13.7805Z" fill="#B36E59"/>
<path d="M49.4219 11.6807C49.5059 11.7647 49.6739 11.7647 49.4219 11.9327C48.582 12.3526 48.33 13.1086 48.33 14.0326C48.33 16.4685 48.33 18.9045 48.33 21.2564C48.33 21.6764 48.246 21.9284 47.91 22.1804C47.826 22.2644 47.658 22.3484 47.574 22.2644C47.406 22.1804 47.49 22.0124 47.49 21.9284C47.49 20.6684 47.49 19.3244 47.49 18.0645C47.49 16.9725 47.49 15.8805 47.49 14.8726C47.49 14.3686 47.49 13.9486 47.49 13.4446C47.574 12.6046 48.246 11.9327 49.0859 11.8487C49.1699 11.7647 49.3379 11.7647 49.4219 11.6807Z" fill="#A45E4D"/>
<path d="M53.7063 13.7803C52.6983 14.2003 52.2783 14.8723 52.3623 15.9643C52.3623 16.8042 52.3623 17.7282 52.3623 18.5682C52.0264 18.7362 51.6904 18.7362 51.3544 18.5682C51.3544 17.4762 51.2704 16.3842 51.4384 15.2923C51.5224 14.2843 52.7823 13.4443 53.7063 13.7803Z" fill="#A55E4D"/>
<path d="M55.2183 20.3333C55.3863 19.9133 55.2183 19.4933 55.3863 19.0733C55.6382 18.3173 56.2262 17.9813 57.0662 18.0653C56.0582 18.5693 55.8902 19.4933 55.9742 20.5853C55.9742 21.5092 55.9742 22.4332 55.9742 23.4412C55.9742 23.6092 55.9742 23.7772 55.8902 23.9452C55.8062 24.1972 55.6382 24.2812 55.3863 24.2812C55.2183 24.1972 55.3023 24.0292 55.3023 23.8612C55.2183 23.6092 55.3863 23.2732 55.2183 23.0212C55.3863 22.0132 55.3863 21.1732 55.2183 20.3333Z" fill="#A45E4D"/>
<path d="M55.218 20.3321C55.6379 21.1721 55.5539 22.096 55.218 22.936C54.546 24.196 53.454 24.7 52.026 24.7C50.9341 24.7 50.9341 24.7 50.9341 25.7919C50.9341 26.2959 50.9341 26.7999 50.9341 27.3039C50.9341 27.8079 50.6821 28.1439 50.1781 28.1439C49.6741 28.1439 49.4221 27.8919 49.4221 27.4719C49.4221 25.5399 49.4221 23.524 49.4221 21.592C49.4221 20.9201 49.4221 20.1641 49.4221 19.4921C49.4221 18.8201 49.6741 18.5681 50.3461 18.4841C50.6821 18.4841 51.0181 18.4841 51.3541 18.4841C51.6901 18.4841 52.026 18.4841 52.362 18.4841C52.866 18.6521 53.37 18.5681 53.874 18.9041C54.462 19.2401 54.882 19.7441 55.218 20.3321Z" fill="#634085"/>
<path d="M17.8394 39.9878C18.0074 39.6518 18.2593 39.3158 18.7633 39.3998C19.2673 39.5678 19.3513 39.9038 19.3513 40.4077C19.3513 41.2477 19.3513 42.0877 19.3513 42.9277C19.3513 43.2637 19.4353 43.4317 19.7713 43.4317C20.8633 43.4317 21.9552 43.4317 23.1312 43.4317C23.3832 43.4317 23.5512 43.3477 23.5512 43.0117C23.5512 42.1717 23.5512 41.2477 23.5512 40.4077C23.5512 39.8198 23.8032 39.4838 24.3072 39.4838C24.7272 39.4838 25.0631 39.8198 25.0631 40.4077C25.0631 43.0117 25.0631 45.6156 25.0631 48.2195C25.0631 48.8075 24.8112 49.1435 24.3072 49.1435C23.8872 49.1435 23.5512 48.8075 23.5512 48.2195C23.5512 47.2955 23.5512 46.3716 23.5512 45.3636C23.5512 44.9436 23.4672 44.8596 23.0472 44.8596C22.0392 44.8596 20.9473 44.8596 19.9393 44.8596C19.4353 44.8596 19.2673 45.0276 19.4353 45.5316C19.6033 45.8676 19.6033 46.2876 19.4353 46.6236C19.4353 47.1275 19.4353 47.7155 19.4353 48.2195C19.4353 48.7235 19.1833 49.0595 18.7633 49.0595C18.3433 49.0595 18.0074 48.7235 17.9234 48.1355C17.9234 47.2955 17.9234 46.4556 17.9234 45.6156C17.9234 45.4476 17.9234 45.3636 17.9234 45.1956C17.9234 44.9436 17.9234 44.6916 17.9234 44.4396C17.8394 43.0117 17.8394 41.4997 17.8394 39.9878Z" fill="#78CFB0"/>
<path d="M22.7109 33.9403C23.1309 33.7723 23.6349 33.6883 24.1388 33.7723C23.7189 34.0243 23.2989 34.1923 23.0469 34.6122C22.8789 34.9482 22.7109 35.3682 22.7109 35.7042C22.7109 37.5522 22.7109 39.4001 22.7109 41.2481C22.7109 41.668 22.6269 42.088 22.2069 42.256C21.8709 42.424 21.7029 42.34 21.7029 42.004C21.7029 40.4921 21.7029 38.9801 21.7029 37.4682C21.7029 36.1242 21.7029 34.7802 21.7029 33.4363C22.1229 33.8563 21.8709 34.2763 21.8709 34.6962C22.0389 34.3603 22.2909 34.0243 22.7109 33.9403Z" fill="#F8A58E"/>
<path d="M26.6585 38.1402C26.9105 38.0562 27.2465 37.8882 27.5825 38.1402C26.8265 38.4762 26.4065 39.0641 26.4065 40.0721C26.4065 41.1641 26.4065 42.34 26.4065 43.432C26.4065 43.6 26.4065 43.768 26.3225 43.936C26.1545 44.104 26.0705 44.272 25.8185 44.272C25.5665 44.272 25.7345 43.936 25.7345 43.768C25.7345 42.256 25.7345 40.6601 25.7345 39.0641C25.9025 38.6442 26.0705 38.1402 26.6585 38.1402Z" fill="#F8A58E"/>
<path d="M19.3511 46.6242C19.3511 46.2882 19.3511 45.8682 19.3511 45.5322C19.8551 45.9522 20.1911 46.5402 20.4431 47.2122C20.5271 47.3802 20.4431 47.6322 20.2751 47.7162C20.1071 47.8002 19.8551 47.8002 19.7711 47.5482C19.6871 47.1282 19.6031 46.8762 19.3511 46.6242Z" fill="#F7A58E"/>
<path d="M26.6589 38.1408C26.155 38.3088 25.903 38.7288 25.651 39.1488C25.651 38.4768 25.651 37.8048 25.651 37.0488C26.071 37.3008 26.4069 37.7208 26.6589 38.1408Z" fill="#E1A670"/>
<path d="M22.7109 33.9396C22.3749 34.1916 22.1229 34.5276 21.8709 34.8635C21.7029 34.3596 21.9549 33.8556 21.7029 33.4356C21.7029 33.3516 21.7029 33.2676 21.7029 33.1836C22.0389 33.1836 22.1229 33.5196 22.2909 33.6036C22.4589 33.6876 22.5429 33.8556 22.7109 33.9396Z" fill="#E3A874"/>
<path d="M39.9305 49.2275C39.9305 46.3716 39.9305 43.5157 39.9305 40.6598C40.0985 40.2398 40.4345 40.0718 40.8545 40.1558C41.3585 40.2398 41.4425 40.6598 41.4425 41.0797C41.4425 43.2637 41.4425 45.4476 41.4425 47.7155C41.4425 48.1355 41.5265 48.3035 42.0305 48.3035C42.4505 48.3035 42.8705 48.3035 43.2904 48.2195C43.7944 48.2195 44.2144 48.4715 44.2144 48.8915C44.2984 49.3955 44.0464 49.6475 43.4584 49.7315C42.5345 49.8155 41.6945 49.8155 40.7705 49.7315C40.3505 49.8155 40.0145 49.6475 39.9305 49.2275Z" fill="#DC636E"/>
<path d="M29.515 22.9368C29.851 22.9368 30.187 22.9368 30.523 22.9368C30.775 22.9368 30.943 22.9368 31.195 22.9368C31.6989 22.9368 32.0349 23.2728 32.0349 23.6927C32.0349 24.1127 31.6989 24.4487 31.195 24.4487C30.439 24.4487 29.767 24.4487 29.095 24.4487C28.843 24.4487 28.675 24.5327 28.675 24.8687C28.675 25.4567 28.675 26.1287 28.675 26.7167C28.675 26.9686 28.759 27.0526 29.011 27.0526C29.683 27.0526 30.271 27.0526 30.943 27.0526C31.4469 27.0526 31.6989 27.3046 31.7829 27.7246C31.7829 28.1446 31.5309 28.4806 31.027 28.5646C30.355 28.5646 29.767 28.5646 29.095 28.5646C28.759 28.5646 28.675 28.6486 28.675 28.9846C28.675 29.5726 28.675 30.0766 28.675 30.6645C28.675 31.0005 28.759 31.0845 29.095 31.0845C29.767 31.0845 30.439 31.0845 31.111 31.0845C31.6989 31.0845 32.0349 31.3365 32.0349 31.8405C32.0349 32.3445 31.6989 32.5965 31.027 32.5965C30.019 32.5965 29.011 32.5965 28.003 32.5965C27.7511 32.5965 27.4991 32.5965 27.3311 32.5125C27.1631 32.2605 27.0791 32.0085 27.0791 31.7565C27.0791 29.1526 27.0791 26.6327 27.0791 24.0287C27.0791 23.3568 27.3311 23.1048 28.087 23.1048C28.507 22.9368 29.011 22.9368 29.515 22.9368Z" fill="#61A1F8"/>
<path d="M30.4388 25.288C30.4388 25.624 30.4388 26.044 30.1868 26.38C30.0188 26.548 29.8508 26.7159 29.5988 26.6319C29.3468 26.548 29.5148 26.296 29.4308 26.128C29.4308 25.708 29.4308 25.288 29.4308 24.868C29.4308 24.448 29.5988 24.364 29.9348 24.364C30.2708 24.364 30.5228 24.448 30.4388 24.868C30.4388 25.036 30.4388 25.204 30.4388 25.288Z" fill="#E1A770"/>
<path d="M52.5299 20.0808C53.3698 20.0808 53.9578 20.7528 54.0418 21.5088C54.0418 22.3487 53.3698 23.0207 52.4459 23.1887C50.9339 23.3567 50.9339 23.3567 50.9339 21.8447C50.9339 21.2568 50.9339 20.6688 50.9339 20.0808C51.2699 19.9128 51.4379 20.0808 51.4379 20.4168C51.4379 20.8368 51.4379 21.3408 51.4379 21.7607C51.4379 21.8447 51.4379 22.0127 51.5219 22.0127C51.6059 22.0127 51.7739 21.9287 51.7739 21.8447C52.0259 21.5928 52.0259 21.3408 52.0259 21.0888C52.0259 20.8368 52.0259 20.5848 52.0259 20.3328C52.2779 20.2488 52.2779 19.9968 52.5299 20.0808Z" fill="#B36D59"/>
<path d="M52.5299 20.0811C52.2779 20.0811 52.3619 20.3331 52.2779 20.5011C52.2779 20.753 52.2779 21.005 52.2779 21.257C52.2779 21.593 52.1939 21.845 51.9419 22.097C51.7739 22.265 51.6059 22.349 51.4379 22.349C51.1859 22.265 51.3539 22.013 51.3539 21.845C51.3539 21.425 51.3539 20.921 51.3539 20.5011C51.3539 20.2491 51.2699 20.0811 50.9339 20.0811C51.4379 19.9971 52.0259 19.9971 52.5299 20.0811Z" fill="#A45E4E"/>
</g>
</g>
<defs>
<clipPath id="clip0_2975_20740">
<rect width="53.2545" height="51.9945" fill="white" transform="translate(7.00305 10.0859)"/>
</clipPath>
<clipPath id="clip1_2975_20740">
<rect width="53.2545" height="51.9945" fill="white" transform="translate(7.00307 10.0852)"/>
</clipPath>
</defs>
</svg>
