<svg width="68" height="70" viewBox="0 0 68 70" fill="none" xmlns="http://www.w3.org/2000/svg">
<rect x="0.211365" y="0.489014" width="67.1981" height="67.1981" rx="33.599" fill="white"/>
<g clip-path="url(#clip0_2975_20624)">
<g clip-path="url(#clip1_2975_20624)">
<path d="M34.5488 10.0101C33.384 15.5428 32.6897 21.2994 31.7713 26.8993C24.0435 25.6225 16.3381 24.3233 8.61035 23.0242C9.59592 17.2003 10.5815 11.3541 11.5671 5.53027C19.362 6.87423 26.8658 8.0838 34.5488 10.0101Z" fill="#0B0C0C"/>
<path d="M17.5027 19.6661C17.4579 19.9125 17.4131 20.1813 17.3683 20.4277C17.3011 20.8085 17.2339 21.1669 17.1891 21.5476C17.1891 21.5924 17.1667 21.6372 17.1667 21.682C17.1667 21.7268 17.1443 21.7492 17.1219 21.7716C17.0995 21.794 17.0547 21.7716 17.0323 21.7716C16.9875 21.7716 16.9427 21.7492 16.8979 21.7492C16.5171 21.682 16.1363 21.6148 15.7779 21.57C15.5987 21.5476 15.4195 21.5028 15.2627 21.4804C15.1955 21.458 15.1059 21.458 15.0387 21.4356C14.9491 21.4132 14.9939 21.2788 14.9939 21.2116C15.0163 21.0549 15.0387 20.8981 15.0835 20.7413C15.1507 20.3605 15.2179 19.9573 15.2851 19.5765C15.3075 19.4869 15.3075 19.3973 15.3299 19.3077C15.3523 19.1957 15.4419 19.2405 15.5315 19.2405C15.8899 19.3077 16.2259 19.3525 16.5843 19.4197C16.8755 19.4645 17.1667 19.5093 17.4579 19.5765C17.4579 19.5765 17.5027 19.5989 17.5027 19.6661C17.4803 19.8005 17.6819 19.8229 17.7043 19.6885C17.7266 19.5317 17.6371 19.3973 17.4803 19.3749C17.4579 19.3749 17.4355 19.3749 17.3907 19.3525C17.2339 19.3301 17.0771 19.3077 16.9427 19.2853C16.5395 19.2181 16.1363 19.1509 15.7331 19.0837C15.6435 19.0613 15.5315 19.0389 15.4419 19.0389C15.3075 19.0165 15.1731 19.0837 15.1283 19.2181C15.1059 19.2629 15.1059 19.2853 15.1059 19.3301C15.0387 19.6661 14.9939 20.0245 14.9267 20.3605C14.8819 20.6741 14.8147 20.9877 14.7699 21.3012C14.7475 21.3908 14.7699 21.5028 14.8371 21.57C14.8819 21.6148 14.9491 21.6372 15.0163 21.6596C15.1507 21.682 15.2627 21.7044 15.3971 21.7268C15.8003 21.794 16.2035 21.8612 16.6291 21.9284C16.7635 21.9508 16.8755 21.9732 17.0099 21.9956C17.0771 21.9956 17.1219 22.018 17.1891 21.9956C17.3011 21.9508 17.3683 21.8612 17.3683 21.7716C17.4131 21.458 17.4803 21.1669 17.5251 20.8533C17.5923 20.4949 17.6371 20.1589 17.7043 19.8005C17.7043 19.7781 17.7043 19.7557 17.7043 19.7333C17.7043 19.5765 17.5251 19.5317 17.5027 19.6661Z" fill="white"/>
<path d="M16.0469 17.5628C16.0469 17.518 16.0693 17.4732 16.0693 17.4284C16.0917 17.3164 16.1141 17.2044 16.1365 17.0924C16.1589 16.9356 16.1813 16.7564 16.2261 16.5996C16.2709 16.398 16.2933 16.1964 16.3381 15.9948C16.3829 15.7708 16.6517 14.1133 16.6965 13.9117C16.7413 13.6877 16.7637 13.4637 16.8085 13.2397C16.8533 13.0381 16.8757 12.8141 16.9205 12.6125C16.9429 12.4333 16.9877 12.2541 17.0101 12.0749C17.0325 11.9405 17.0325 11.9853 17.0549 11.8509C17.0549 11.7837 17.0773 11.7389 17.0773 11.6717C17.0773 11.6046 17.0549 11.5598 16.9877 11.5374C16.9205 11.5374 16.8757 11.5598 16.8533 11.627C16.8533 11.6717 16.8309 11.7165 16.8309 11.7613C16.8085 11.8733 16.8309 11.8285 16.8085 11.9405C16.7861 12.0973 16.7637 12.2765 16.7189 12.4333C16.6741 12.6349 16.6517 12.8365 16.6069 13.0381C16.5621 13.2621 16.5397 13.4861 16.4949 13.7101C16.4501 13.9341 16.4277 14.1581 16.3829 14.3821C16.3381 14.5837 16.0693 16.2188 16.0469 16.4428C16.0245 16.622 15.9797 16.8012 15.9573 16.9804C15.9349 17.1148 15.9125 17.2268 15.8901 17.3612C15.8901 17.4284 15.8677 17.4732 15.8677 17.5404C15.8677 17.6076 15.8901 17.6524 15.9573 17.6748C15.9797 17.6524 16.0469 17.63 16.0469 17.5628Z" fill="white"/>
<path d="M16.7635 17.6969C16.7635 17.6297 16.7859 17.5625 16.7859 17.4953C16.8083 17.3161 16.8531 17.1369 16.8755 16.9801C16.9203 16.7114 16.9651 16.465 17.0099 16.1962C17.0547 15.8826 17.3459 14.1354 17.4131 13.8218C17.4803 13.4858 17.5251 13.1275 17.5923 12.7915C17.6595 12.4331 17.7043 12.0971 17.7715 11.7387C17.8163 11.4027 17.8835 11.0891 17.9282 10.7531C17.973 10.4843 18.0178 10.1931 18.0626 9.92435C18.085 9.72276 18.1298 9.52116 18.1522 9.31957C18.1746 9.22997 18.1746 9.14037 18.197 9.02838C18.197 9.02838 18.197 9.02838 18.197 9.00598C18.197 8.93878 18.1746 8.89398 18.1074 8.87158C18.0402 8.87158 17.9954 8.89398 17.973 8.96118C17.973 9.02838 17.9506 9.09558 17.9506 9.16277C17.9282 9.34197 17.8835 9.52116 17.8611 9.67796C17.8163 9.94675 17.7715 10.1931 17.7267 10.4619C17.6819 10.7755 17.6147 11.0891 17.5699 11.4027C17.5027 11.7387 17.4579 12.0971 17.3907 12.4331C17.3235 12.7915 17.2787 13.1275 17.2115 13.4858C17.1667 13.8218 17.0995 14.1354 17.0547 14.4714C17.0099 14.7402 16.7187 16.4426 16.6739 16.7338C16.6515 16.9353 16.6067 17.1369 16.5843 17.3385C16.5619 17.4281 16.5619 17.5177 16.5395 17.6297C16.5395 17.6297 16.5395 17.6297 16.5395 17.6521C16.5395 17.7193 16.5619 17.7641 16.6291 17.7865C16.6963 17.7865 16.7635 17.7417 16.7635 17.6969Z" fill="white"/>
<path d="M17.4806 17.8085C17.4806 17.7637 17.503 17.6965 17.503 17.6517C17.5254 17.4949 17.5478 17.3605 17.5702 17.2037C17.615 16.9798 17.6374 16.7782 17.6822 16.5542C17.727 16.2854 18.0182 14.6054 18.063 14.3366C18.1078 14.0454 18.1526 13.7542 18.1974 13.4631C18.2422 13.1719 18.287 12.8807 18.3542 12.5895C18.399 12.3207 18.4438 12.0519 18.4886 11.7831C18.5334 11.5591 18.5558 11.3127 18.6006 11.0887C18.623 10.9319 18.6454 10.7527 18.6902 10.5959C18.7125 10.5287 18.7125 10.4391 18.7349 10.3719C18.7349 10.3047 18.7126 10.2599 18.6454 10.2375C18.5782 10.2375 18.5334 10.2599 18.511 10.3271C18.511 10.3719 18.4886 10.4391 18.4886 10.4839C18.4662 10.6407 18.4438 10.7751 18.4214 10.9319C18.3766 11.1559 18.3542 11.3575 18.3094 11.5815C18.2646 11.8503 18.2198 12.1191 18.175 12.3655C18.1302 12.6567 18.0854 12.9479 18.0406 13.2391C17.9958 13.5303 17.951 13.8214 17.8838 14.1126C17.839 14.3814 17.5478 16.0838 17.503 16.3526C17.4582 16.5766 17.4358 16.823 17.391 17.047C17.3686 17.2037 17.3462 17.3829 17.3014 17.5397C17.279 17.6069 17.279 17.6965 17.2566 17.7637C17.2566 17.8309 17.279 17.8757 17.3462 17.8981C17.4134 17.8981 17.4806 17.8757 17.4806 17.8085Z" fill="white"/>
<path d="M15.7549 21.1446C15.5533 20.5846 16.046 20.4502 16.2476 20.383C15.9564 20.1814 15.3965 19.6886 15.1501 18.8822C15.0605 18.5911 15.0829 18.3223 15.0829 18.3223C15.0829 18.3223 15.2397 18.9494 15.7325 19.4646C16.0684 19.8454 16.7628 20.2262 16.8748 20.3606C16.942 20.4278 16.942 20.6742 16.942 20.6742C16.942 20.6742 16.4716 20.719 16.1804 20.8534C15.8892 20.9878 15.7773 21.167 15.7549 21.1446C15.7773 21.167 15.7773 21.1446 15.7549 21.1446Z" fill="white"/>
<path d="M15.1499 18.1204C15.1499 18.1204 15.3067 18.7475 15.7995 19.2627C16.1355 19.6435 16.8299 20.0243 16.9419 20.1587C17.0091 20.2259 17.0091 20.4723 17.0091 20.4723C17.0091 20.4723 17.0091 20.4723 16.9867 20.4723C16.9867 20.4051 16.9643 20.3155 16.9419 20.2707C16.8299 20.1363 16.1355 19.7555 15.7995 19.3747C15.4187 18.9715 15.2395 18.5011 15.1723 18.2996C15.1275 18.21 15.1499 18.1204 15.1499 18.1204Z" fill="white"/>
<path d="M22.7668 20.5382C22.722 20.7846 22.6772 21.0533 22.6324 21.2997C22.5652 21.6805 22.498 22.0389 22.4532 22.4197C22.4532 22.4645 22.4308 22.5093 22.4308 22.5541C22.4308 22.5989 22.4084 22.6213 22.386 22.6437C22.3636 22.6661 22.3188 22.6437 22.2964 22.6437C22.2516 22.6437 22.2068 22.6213 22.162 22.6213C21.7812 22.5541 21.4004 22.4869 21.042 22.4421C20.8628 22.4197 20.6836 22.3749 20.5268 22.3525C20.4596 22.3301 20.37 22.3301 20.3028 22.3077C20.2132 22.2853 20.258 22.1509 20.258 22.0837C20.2804 21.9269 20.3028 21.7701 20.3476 21.6133C20.4148 21.2325 20.482 20.8294 20.5492 20.4486C20.5716 20.359 20.5716 20.2694 20.594 20.1798C20.6164 20.0678 20.706 20.1126 20.7956 20.1126C21.154 20.1798 21.49 20.2246 21.8484 20.2918C22.1396 20.3366 22.4308 20.3814 22.722 20.4486C22.722 20.4486 22.7668 20.4934 22.7668 20.5382C22.7444 20.6726 22.9459 20.695 22.9683 20.5606C22.9907 20.4038 22.9012 20.2694 22.7444 20.247C22.722 20.247 22.6996 20.247 22.6548 20.2246C22.498 20.2022 22.3412 20.1798 22.2068 20.1574C21.8036 20.0902 21.4004 20.023 20.9972 19.9558C20.9076 19.9334 20.7956 19.911 20.706 19.911C20.5716 19.8886 20.4372 19.9558 20.3924 20.0902C20.37 20.135 20.37 20.1574 20.37 20.2022C20.3028 20.5382 20.258 20.8966 20.1908 21.2325C20.146 21.5461 20.0788 21.8597 20.034 22.1733C20.0116 22.2629 20.034 22.3749 20.1012 22.4421C20.146 22.4869 20.2132 22.5093 20.2804 22.5317C20.4148 22.5541 20.5268 22.5765 20.6612 22.5989C21.0644 22.6661 21.4676 22.7333 21.8932 22.8005C22.0276 22.8229 22.1396 22.8453 22.274 22.8677C22.3412 22.8677 22.386 22.8901 22.4532 22.8677C22.5652 22.8229 22.6324 22.7333 22.6324 22.6437C22.6772 22.3301 22.7444 22.0389 22.7892 21.7253C22.8564 21.3669 22.9012 21.0309 22.9683 20.6726C22.9683 20.6502 22.9683 20.6278 22.9683 20.6054C22.9683 20.4486 22.7892 20.4262 22.7668 20.5382Z" fill="white"/>
<path d="M21.3112 18.4558C21.3112 18.411 21.3336 18.3662 21.3336 18.3214C21.356 18.2095 21.3784 18.0975 21.4008 17.9855C21.4232 17.8287 21.4456 17.6495 21.4904 17.4927C21.5352 17.2911 21.5576 17.0895 21.6024 16.8879C21.6472 16.6639 21.916 15.0063 21.9608 14.8048C22.0056 14.5808 22.028 14.3568 22.0728 14.1328C22.1176 13.9312 22.14 13.7072 22.1848 13.5056C22.2072 13.3264 22.252 13.1472 22.2744 12.968C22.2968 12.8336 22.2968 12.8784 22.3192 12.744C22.3192 12.6768 22.3416 12.632 22.3416 12.5648C22.3416 12.4976 22.3192 12.4528 22.252 12.4304C22.1848 12.4304 22.14 12.4528 22.1176 12.52C22.1176 12.5648 22.0952 12.6096 22.0952 12.6544C22.0728 12.7664 22.0952 12.7216 22.0728 12.8336C22.0504 12.9904 22.028 13.1696 21.9832 13.3264C21.9384 13.528 21.916 13.7296 21.8712 13.9312C21.8264 14.1552 21.804 14.3792 21.7592 14.6032C21.7144 14.8271 21.692 15.0511 21.6472 15.2751C21.6024 15.4767 21.3336 17.1119 21.3112 17.3359C21.2888 17.5151 21.244 17.6943 21.2216 17.8735C21.1992 18.0079 21.1768 18.1199 21.1544 18.2543C21.1544 18.3214 21.132 18.3662 21.132 18.4334C21.132 18.5006 21.1544 18.5454 21.2216 18.5678C21.244 18.5454 21.3112 18.5006 21.3112 18.4558Z" fill="white"/>
<path d="M22.0278 18.5688C22.0278 18.5016 22.0502 18.4344 22.0502 18.3672C22.0726 18.188 22.1174 18.0088 22.1398 17.852C22.1846 17.5832 22.2294 17.3368 22.2742 17.068C22.319 16.7544 22.6101 15.0073 22.6773 14.6937C22.7445 14.3577 22.7893 13.9993 22.8565 13.6633C22.9237 13.3049 22.9685 12.9689 23.0357 12.6105C23.0805 12.2745 23.1477 11.9609 23.1925 11.625C23.2373 11.3562 23.2821 11.065 23.3269 10.7962C23.3493 10.5946 23.3941 10.393 23.4165 10.1914C23.4389 10.1018 23.4389 10.0122 23.4613 9.9002C23.4613 9.9002 23.4613 9.9002 23.4613 9.8778C23.4613 9.81061 23.4389 9.76581 23.3717 9.74341C23.3045 9.74341 23.2597 9.76581 23.2373 9.83301C23.2373 9.9002 23.2149 9.9674 23.2149 10.0346C23.1925 10.2138 23.1477 10.393 23.1253 10.5498C23.0805 10.8186 23.0357 11.065 22.9909 11.3338C22.9461 11.6474 22.8789 11.9609 22.8341 12.2745C22.7669 12.6105 22.7221 12.9689 22.6549 13.3049C22.5877 13.6633 22.543 13.9993 22.4758 14.3577C22.431 14.6937 22.3638 15.0073 22.319 15.3432C22.2742 15.612 21.983 17.3144 21.9382 17.6056C21.9158 17.8072 21.871 18.0088 21.8486 18.2104C21.8262 18.3 21.8262 18.3896 21.8038 18.5016C21.8038 18.5016 21.8038 18.5016 21.8038 18.524C21.8038 18.5912 21.8262 18.6359 21.8934 18.6583C21.9606 18.6583 22.0278 18.636 22.0278 18.5688Z" fill="white"/>
<path d="M22.7449 18.6804C22.7449 18.6356 22.7673 18.5684 22.7673 18.5236C22.7897 18.3668 22.8121 18.2324 22.8345 18.0756C22.8793 17.8516 22.9017 17.65 22.9465 17.426C22.9913 17.1572 23.2825 15.4772 23.3273 15.2085C23.372 14.9173 23.4168 14.6261 23.4616 14.3349C23.5064 14.0437 23.5512 13.7525 23.6184 13.4613C23.6632 13.1925 23.708 12.9237 23.7528 12.6549C23.7976 12.4309 23.82 12.1845 23.8648 11.9606C23.8872 11.8038 23.9096 11.6246 23.9544 11.4678C23.9768 11.4006 23.9768 11.311 23.9992 11.2438C23.9992 11.1766 23.9768 11.1318 23.9096 11.1094C23.8424 11.1094 23.7976 11.1318 23.7752 11.199C23.7752 11.2438 23.7528 11.311 23.7528 11.3558C23.7304 11.5126 23.708 11.647 23.6856 11.8038C23.6408 12.0277 23.6184 12.2293 23.5736 12.4533C23.5288 12.7221 23.484 12.9909 23.4392 13.2373C23.3944 13.5285 23.3497 13.8197 23.3049 14.1109C23.2601 14.4021 23.2153 14.6933 23.1481 14.9845C23.1033 15.2533 22.8121 16.9556 22.7673 17.2244C22.7225 17.4484 22.7001 17.6948 22.6553 17.9188C22.6329 18.0756 22.6105 18.2548 22.5657 18.4116C22.5433 18.4788 22.5433 18.5684 22.5209 18.6356C22.5209 18.7028 22.5433 18.7476 22.6105 18.77C22.6777 18.7924 22.7449 18.7476 22.7449 18.6804Z" fill="white"/>
<path d="M21.0183 22.0372C20.8167 21.4772 21.3095 21.3428 21.5111 21.2756C21.2199 21.074 20.66 20.5812 20.4136 19.7748C20.324 19.4836 20.3464 19.2148 20.3464 19.2148C20.3464 19.2148 20.5032 19.842 20.9959 20.3572C21.3319 20.738 22.0263 21.1188 22.1383 21.2532C22.2055 21.3204 22.2055 21.5668 22.2055 21.5668C22.2055 21.5668 21.7351 21.6116 21.4439 21.746C21.1527 21.858 21.0407 22.0372 21.0183 22.0372C21.0407 22.0372 21.0407 22.0372 21.0183 22.0372Z" fill="white"/>
<path d="M20.4134 19.0129C20.4134 19.0129 20.5702 19.6401 21.063 20.1553C21.399 20.5361 22.0934 20.9169 22.2054 21.0513C22.2726 21.1185 22.2726 21.3649 22.2726 21.3649C22.2726 21.3649 22.2726 21.3649 22.2502 21.3649C22.2502 21.2977 22.2278 21.2081 22.2054 21.1633C22.0934 21.0289 21.399 20.6481 21.063 20.2673C20.6822 19.8641 20.503 19.3937 20.4358 19.1921C20.391 19.0801 20.4134 19.0129 20.4134 19.0129Z" fill="white"/>
<path d="M28.0309 21.4342C27.9861 21.6806 27.9413 21.9493 27.8965 22.1957C27.8293 22.5765 27.7621 22.9349 27.7173 23.3157C27.7173 23.3605 27.6949 23.4053 27.6949 23.4501C27.6949 23.4949 27.6725 23.5173 27.6501 23.5397C27.6277 23.5621 27.5829 23.5397 27.5605 23.5397C27.5157 23.5397 27.4709 23.5173 27.4261 23.5173C27.0453 23.4501 26.6646 23.3829 26.3062 23.3381C26.127 23.3157 25.9478 23.2709 25.791 23.2485C25.7238 23.2261 25.6342 23.2261 25.567 23.2037C25.4774 23.1813 25.5222 23.0469 25.5222 22.9797C25.5446 22.8229 25.567 22.6661 25.6118 22.5093C25.679 22.1285 25.7462 21.7254 25.8134 21.3446C25.8358 21.255 25.8358 21.1654 25.8582 21.0758C25.8806 20.9638 25.9702 21.0086 26.0598 21.0086C26.4182 21.0758 26.7542 21.1206 27.1125 21.1878C27.4037 21.2326 27.6949 21.2774 27.9861 21.3446C27.9861 21.3446 28.0309 21.367 28.0309 21.4342C28.0085 21.5686 28.2101 21.591 28.2325 21.4566C28.2549 21.2998 28.1653 21.1654 28.0085 21.143C27.9861 21.143 27.9637 21.143 27.9189 21.1206C27.7621 21.0982 27.6053 21.0758 27.4709 21.0534C27.0677 20.9862 26.6646 20.919 26.2614 20.8518C26.1718 20.8294 26.0598 20.807 25.9702 20.807C25.8358 20.7846 25.7014 20.8518 25.6566 20.9862C25.6342 21.031 25.6342 21.0534 25.6342 21.0982C25.567 21.4342 25.5222 21.7925 25.455 22.1285C25.4102 22.4421 25.343 22.7557 25.2982 23.0693C25.2758 23.1589 25.2982 23.2709 25.3654 23.3381C25.4102 23.3829 25.4774 23.4053 25.5446 23.4277C25.679 23.4501 25.791 23.4725 25.9254 23.4949C26.3286 23.5621 26.7318 23.6293 27.1573 23.6965C27.2917 23.7189 27.4037 23.7413 27.5381 23.7637C27.6053 23.7637 27.6501 23.7861 27.7173 23.7637C27.8293 23.7189 27.8965 23.6293 27.8965 23.5397C27.9413 23.2261 28.0085 22.9349 28.0533 22.6213C28.1205 22.2629 28.1653 21.9269 28.2325 21.5686C28.2325 21.5462 28.2325 21.5238 28.2325 21.5014C28.2325 21.3446 28.0533 21.2998 28.0309 21.4342Z" fill="white"/>
<path d="M26.5755 19.3277C26.5755 19.2829 26.5979 19.2381 26.5979 19.1933C26.6203 19.0813 26.6427 18.9693 26.6651 18.8573C26.6875 18.7005 26.7099 18.5213 26.7547 18.3645C26.7995 18.1629 26.8219 17.9613 26.8667 17.7597C26.9115 17.5357 27.1803 15.8782 27.2251 15.6766C27.2699 15.4526 27.2923 15.2286 27.3371 15.0046C27.3819 14.803 27.4043 14.579 27.4491 14.3774C27.4715 14.1982 27.5163 14.019 27.5387 13.8398C27.5611 13.7054 27.5611 13.7502 27.5835 13.6158C27.5835 13.5486 27.6059 13.5038 27.6059 13.4366C27.6059 13.3694 27.5835 13.3246 27.5163 13.3022C27.4491 13.3022 27.4043 13.3246 27.3819 13.3918C27.3819 13.4366 27.3595 13.4814 27.3595 13.5262C27.3371 13.6382 27.3595 13.5934 27.3371 13.7054C27.3147 13.8622 27.2923 14.0414 27.2475 14.1982C27.2027 14.3998 27.1803 14.6014 27.1355 14.803C27.0907 15.027 27.0683 15.251 27.0235 15.475C26.9787 15.699 26.9563 15.923 26.9115 16.147C26.8667 16.3486 26.5979 17.9837 26.5755 18.2077C26.5531 18.3869 26.5083 18.5661 26.4859 18.7453C26.4635 18.8797 26.4411 18.9917 26.4187 19.1261C26.4187 19.1933 26.3963 19.2381 26.3963 19.3053C26.3963 19.3725 26.4187 19.4173 26.4859 19.4397C26.5083 19.4173 26.5755 19.3949 26.5755 19.3277Z" fill="white"/>
<path d="M27.292 19.4618C27.292 19.3946 27.3144 19.3274 27.3144 19.2602C27.3368 19.081 27.3816 18.9018 27.404 18.745C27.4488 18.4762 27.4936 18.2299 27.5384 17.9611C27.5832 17.6475 27.8744 15.9003 27.9416 15.5867C28.0088 15.2507 28.0536 14.8924 28.1208 14.5564C28.188 14.198 28.2328 13.862 28.3 13.5036C28.3448 13.1676 28.412 12.854 28.4568 12.518C28.5016 12.2492 28.5464 11.958 28.5912 11.6892C28.6136 11.4876 28.6584 11.2861 28.6808 11.0845C28.7032 10.9949 28.7032 10.9053 28.7256 10.7933C28.7256 10.7933 28.7256 10.7933 28.7256 10.7709C28.7256 10.7037 28.7032 10.6589 28.636 10.6365C28.5688 10.6365 28.524 10.6589 28.5016 10.7261C28.5016 10.7933 28.4792 10.8605 28.4792 10.9277C28.4568 11.1069 28.412 11.2861 28.3896 11.4429C28.3448 11.7116 28.3 11.958 28.2552 12.2268C28.2104 12.5404 28.1432 12.854 28.0984 13.1676C28.0312 13.5036 27.9864 13.862 27.9192 14.198C27.852 14.5564 27.8072 14.8924 27.74 15.2507C27.6952 15.5867 27.628 15.9003 27.5832 16.2363C27.5384 16.5051 27.2472 18.2075 27.2024 18.4986C27.1801 18.7002 27.1353 18.9018 27.1129 19.1034C27.0905 19.193 27.0905 19.2826 27.0681 19.3946C27.0681 19.3946 27.0681 19.3946 27.0681 19.417C27.0681 19.4842 27.0905 19.529 27.1577 19.5514C27.2248 19.5514 27.292 19.5066 27.292 19.4618Z" fill="white"/>
<path d="M28.0082 19.5754C28.0082 19.5306 28.0306 19.4634 28.0306 19.4186C28.053 19.2618 28.0754 19.1274 28.0978 18.9706C28.1426 18.7466 28.165 18.545 28.2098 18.321C28.2546 18.0522 28.5458 16.3723 28.5906 16.1035C28.6354 15.8123 28.6802 15.5211 28.725 15.2299C28.7698 14.9387 28.8146 14.6475 28.8817 14.3563C28.9265 14.0875 28.9713 13.8187 29.0161 13.55C29.0609 13.326 29.0833 13.0796 29.1281 12.8556C29.1505 12.6988 29.1729 12.5196 29.2177 12.3628C29.2401 12.2956 29.2401 12.206 29.2625 12.1388C29.2625 12.0716 29.2401 12.0268 29.1729 12.0044C29.1057 12.0044 29.0609 12.0268 29.0385 12.094C29.0385 12.1388 29.0161 12.206 29.0161 12.2508C28.9937 12.4076 28.9713 12.542 28.9489 12.6988C28.9041 12.9228 28.8817 13.1244 28.837 13.3484C28.7922 13.6171 28.7474 13.8859 28.7026 14.1323C28.6578 14.4235 28.613 14.7147 28.5682 15.0059C28.5234 15.2971 28.4786 15.5883 28.4114 15.8795C28.3666 16.1483 28.0754 17.8506 28.0306 18.1194C27.9858 18.3434 27.9634 18.5898 27.9186 18.8138C27.8962 18.9706 27.8738 19.1498 27.829 19.3066C27.8066 19.3738 27.8066 19.4634 27.7842 19.5306C27.7842 19.5978 27.8066 19.6426 27.8738 19.665C27.941 19.665 28.0082 19.6426 28.0082 19.5754Z" fill="white"/>
<path d="M12.5301 18.1857L13.1125 14.781L13.6949 11.3763C13.6949 11.3315 13.6725 11.3091 13.6501 11.3091C13.6053 11.3091 13.5829 11.3315 13.5829 11.3539C13.5829 11.3987 13.5605 11.4659 13.5605 11.5107L12.9781 14.7586L12.4405 17.9841C12.4405 18.0289 12.4181 18.0961 12.4181 18.1409C12.4181 18.1857 12.4405 18.2081 12.4629 18.2081C12.4853 18.2305 12.5301 18.2081 12.5301 18.1857Z" fill="white"/>
<path d="M12.2389 17.4024L12.6869 14.6921L13.1349 11.9817C13.1349 11.937 13.1125 11.9146 13.0901 11.9146C13.0677 11.9146 13.0229 11.937 13.0229 11.9593C13.0229 12.0041 13.0005 12.0489 13.0005 12.0937L12.5749 14.6473L12.1493 17.2008C12.1493 17.2456 12.1269 17.2904 12.1269 17.3352C12.1269 17.3576 12.1493 17.4024 12.1717 17.4024C12.1941 17.4696 12.2165 17.4472 12.2389 17.4024Z" fill="white"/>
<path d="M13.6947 13.0347C13.6947 13.0795 13.6723 13.1019 13.6723 13.1467C13.6499 13.2138 13.6723 13.1914 13.6499 13.281L13.3811 14.8266L13.1347 16.3722C13.1123 16.4394 13.1347 16.417 13.1123 16.5066C13.1123 16.5514 13.0899 16.5738 13.0899 16.6186C13.0899 16.6409 13.1123 16.6857 13.1347 16.6857C13.1795 16.6857 13.2019 16.6633 13.2019 16.6409L13.2243 16.5738C13.2243 16.5066 13.2243 16.5514 13.2467 16.4842L13.5155 14.8714L13.7843 13.2586C13.7843 13.1914 13.7843 13.2362 13.8067 13.1691L13.8291 13.1019C13.8291 13.0571 13.8067 13.0347 13.7843 13.0347C13.7395 12.9899 13.6947 13.0123 13.6947 13.0347Z" fill="white"/>
<path d="M27.4038 22.9142C27.3814 22.8694 27.3814 22.8246 27.3366 22.7798C27.3142 22.7574 27.2918 22.735 27.2694 22.6902L27.247 22.6678C27.2022 22.623 27.1574 22.5782 27.0902 22.511C27.0678 22.4886 27.0454 22.4662 27.023 22.4438C27.0454 22.4438 27.0678 22.4214 27.0902 22.4214C27.135 22.4662 27.1798 22.511 27.247 22.5782L27.2694 22.6006C27.2918 22.623 27.3142 22.6454 27.3366 22.6902C27.3814 22.735 27.4038 22.8246 27.4038 22.9142Z" fill="white"/>
<path d="M27.3594 22.0176C27.3594 21.9728 27.337 21.9056 27.2922 21.8608C27.2698 21.8384 27.2474 21.816 27.225 21.816C27.2026 21.816 27.1578 21.816 27.1354 21.8384C27.0682 21.8608 26.9786 21.9056 26.9114 21.9504C26.889 21.9728 26.8442 21.9952 26.8218 21.9952C26.777 22.0176 26.7322 22.04 26.6874 22.0624H26.665C26.665 22.0624 26.6426 22.0624 26.6426 22.0848C26.6202 22.0624 26.6202 22.0624 26.5978 22.04L26.5754 22.0176C26.553 21.9952 26.5306 21.9504 26.5082 21.928C26.4634 21.8608 26.4186 21.816 26.3738 21.7488C26.329 21.6816 26.3066 21.6368 26.2618 21.5696C26.2618 21.5472 26.2394 21.5472 26.2394 21.5248C26.1946 21.4576 26.1722 21.3904 26.105 21.3456C26.0826 21.3232 26.0602 21.3232 26.0378 21.3232C26.0378 21.3008 26.0378 21.2784 26.0378 21.256C26.0378 21.2336 26.0378 21.2336 26.0378 21.2336C26.0378 21.2336 26.0602 21.2336 26.0826 21.256C26.1274 21.3008 26.1722 21.368 26.217 21.4128C26.217 21.4352 26.2394 21.4352 26.2394 21.4576C26.2842 21.5248 26.3066 21.592 26.3514 21.6368C26.3962 21.704 26.441 21.7488 26.4858 21.816C26.5082 21.8384 26.5306 21.8832 26.553 21.9056L26.5754 21.928C26.5978 21.9504 26.5978 21.9728 26.6202 21.9952L26.6426 22.0176H26.665C26.665 22.0176 26.6874 21.9952 26.7098 21.9952H26.7322C26.777 21.9728 26.8218 21.9504 26.8666 21.928C26.889 21.9056 26.9338 21.8832 26.9562 21.8832C27.0234 21.8384 27.0906 21.7936 27.1578 21.7712C27.1802 21.7712 27.2026 21.7488 27.225 21.7488C27.2474 21.7488 27.2698 21.7712 27.2698 21.7936C27.2922 21.8384 27.3146 21.8832 27.3146 21.9504C27.3594 21.9504 27.3594 21.9728 27.3594 22.0176Z" fill="white"/>
<path d="M26.4184 22.2402L26.396 22.2178C26.3736 22.1954 26.3736 22.173 26.3512 22.1506C26.3288 22.0834 26.284 22.0386 26.2616 21.9714C26.2168 21.8818 26.172 21.8146 26.1496 21.725C26.1272 21.6578 26.1048 21.5906 26.0824 21.5234C26.06 21.4786 26.0376 21.4114 26.06 21.3666C26.06 21.3218 26.1272 21.3218 26.1496 21.3666C26.2168 21.4114 26.2392 21.4786 26.284 21.5458C26.3288 21.613 26.3736 21.7026 26.4184 21.7698C26.4632 21.837 26.508 21.8818 26.5528 21.949C26.5752 21.9714 26.5976 22.0162 26.62 22.0386C26.6424 22.061 26.6648 22.1058 26.6872 22.1282C26.7096 22.1058 26.732 22.1058 26.7544 22.1058C26.7992 22.0834 26.844 22.061 26.8888 22.0386C27.0008 21.9938 27.0904 21.9266 27.2024 21.8818C27.2248 21.8818 27.2472 21.8594 27.2696 21.8594C27.292 21.8594 27.3144 21.8818 27.3368 21.9042C27.3592 21.949 27.3816 22.0162 27.3816 22.061C27.404 22.1506 27.4264 22.2626 27.3368 22.3074C27.292 22.3522 27.2248 22.3746 27.18 22.4194C27.1352 22.4418 27.068 22.4642 27.0232 22.509C27.0456 22.509 27.0456 22.5314 27.068 22.5314C27.0904 22.5538 27.1128 22.5762 27.1352 22.5986C27.18 22.6434 27.2248 22.6882 27.292 22.7554C27.3144 22.8002 27.3592 22.8226 27.3816 22.8674C27.4488 22.957 27.4712 23.0914 27.4488 23.181C27.4488 23.2034 27.4488 23.2482 27.4264 23.2706C27.4264 23.293 27.404 23.3377 27.3816 23.3601C27.3368 23.3825 27.292 23.3153 27.2472 23.293C27.2024 23.2482 27.1576 23.2034 27.1128 23.1586C27.0232 23.069 26.956 22.957 26.8664 22.845C26.8216 22.8002 26.7992 22.733 26.7544 22.6882C26.7544 22.6658 26.732 22.6658 26.732 22.6434C26.7096 22.621 26.5528 22.733 26.5304 22.7554C26.4632 22.8002 26.4184 22.8674 26.3512 22.8898C26.284 22.9122 26.2392 22.8226 26.2168 22.7778C26.1944 22.7106 26.172 22.6434 26.1496 22.5762C26.1496 22.5538 26.1496 22.509 26.172 22.4866C26.2168 22.4418 26.2616 22.397 26.3064 22.3522C26.3512 22.285 26.3736 22.2626 26.4184 22.2402Z" fill="white"/>
<path d="M18.0191 56.6911C17.5712 57.1391 17.1008 57.6095 16.6528 58.0575C15.9808 58.7295 15.3088 59.4014 14.6368 60.0734C14.5472 60.163 14.4801 60.2302 14.3905 60.3198C14.3233 60.387 14.2561 60.4542 14.1665 60.4318C14.0769 60.4318 14.0321 60.3646 13.9649 60.2974C13.8753 60.2078 13.7857 60.1182 13.7185 60.051C13.0465 59.379 12.3745 58.7071 11.6801 58.0127C11.3665 57.6991 11.0529 57.3855 10.7394 57.0719C10.605 56.9375 10.4258 56.8031 10.3138 56.6463C10.157 56.4447 10.4482 56.2431 10.5826 56.1087C10.8738 55.8175 11.1425 55.5488 11.4337 55.2576C12.1281 54.5632 12.8449 53.8464 13.5393 53.152C13.6961 52.9952 13.8529 52.816 14.0321 52.6592C14.2337 52.48 14.3905 52.6816 14.5248 52.8384C15.152 53.4656 15.8016 54.1152 16.4288 54.7424C16.9664 55.28 17.4816 55.7951 18.0191 56.3327C18.1087 56.4447 18.1311 56.5791 18.0191 56.6911C17.7952 56.9151 18.1535 57.2735 18.3551 57.0271C18.6239 56.7359 18.6239 56.3103 18.3551 56.0191C18.3103 55.9743 18.2655 55.9295 18.1983 55.8623C17.9296 55.5936 17.6608 55.3248 17.3696 55.0336C16.6304 54.2944 15.9136 53.5776 15.1744 52.8384C14.9952 52.6592 14.8384 52.48 14.6592 52.3232C14.4129 52.0993 14.0321 52.0321 13.7633 52.2337C13.6961 52.2785 13.6289 52.3456 13.5617 52.4128C12.9345 53.04 12.3073 53.6672 11.6801 54.2944C11.1201 54.8544 10.5378 55.4144 9.97778 55.9967C9.79859 56.1759 9.70899 56.3999 9.75379 56.6463C9.77619 56.8255 9.88818 56.9599 10.0002 57.0719C10.2242 57.2959 10.4482 57.5199 10.6722 57.7439C11.4113 58.4831 12.1505 59.2223 12.8897 59.9614C13.1137 60.1854 13.3601 60.4318 13.5841 60.6558C13.6961 60.7678 13.8081 60.8574 13.9425 60.9022C14.2113 60.9694 14.4801 60.8798 14.6592 60.7006C15.2192 60.1406 15.7568 59.603 16.3168 59.0431C16.944 58.4159 17.5936 57.7663 18.2207 57.1391C18.2655 57.0943 18.2879 57.0719 18.3327 57.0271C18.6015 56.8031 18.2431 56.4671 18.0191 56.6911Z" fill="black"/>
<path d="M12.3286 57.4509C12.7542 55.8829 14.0758 56.3757 14.6133 56.5549C14.3222 55.6589 13.8294 53.6878 14.5685 51.4926C14.8373 50.7087 15.2853 50.1487 15.2853 50.1487C15.2853 50.1487 14.6805 51.7838 14.9045 53.7102C15.0613 55.0765 15.9573 57.0253 16.0021 57.4957C16.0245 57.7421 15.6437 58.2796 15.6437 58.2796C15.6437 58.2796 14.5461 57.6525 13.6502 57.4733C12.8438 57.2941 12.3286 57.5181 12.3286 57.5181V57.4509Z" fill="black"/>
<path d="M15.7337 49.7681C15.7337 49.7681 15.1289 51.4032 15.3529 53.3296C15.5097 54.6959 16.4057 56.6447 16.4504 57.1151C16.4728 57.3614 16.0921 57.899 16.0921 57.899C16.0921 57.899 16.0697 57.8766 16.0249 57.8542C16.1145 57.675 16.2265 57.4734 16.2041 57.339C16.1593 56.8687 15.2633 54.9199 15.1065 53.5536C14.9273 52.0528 15.2633 50.7312 15.4201 50.2161C15.5769 49.9473 15.7337 49.7681 15.7337 49.7681Z" fill="black"/>
<path d="M46.6233 30.0575C46.6009 30.0575 46.5785 30.0351 46.5785 30.0351C46.4889 29.9679 46.3993 29.9231 46.8473 28.3552C47.0937 27.5488 47.3625 26.6752 47.4745 26.3616L47.5641 26.1152L47.6985 26.3392C47.8105 26.5408 49.1992 27.3696 49.4232 27.3696H49.7368L49.4456 27.6384C47.1385 29.8559 46.7577 30.0799 46.6233 30.0575ZM47.6537 26.6304C47.3625 27.4816 46.8249 29.2287 46.7577 29.7439C46.9817 29.5871 47.5865 29.0943 49.1992 27.5488C48.7512 27.392 47.9897 26.8992 47.6537 26.6304Z" fill="black"/>
<path d="M49.3781 27.6172C48.9749 27.55 47.6309 26.6988 47.4965 26.4748C47.4741 26.43 47.4741 26.3852 47.4741 26.3628C47.4965 26.2732 48.2581 24.9517 50.834 20.427C52.3796 17.7615 53.9475 14.984 54.7315 13.6176L54.7987 13.5056L54.9107 13.5952C55.2691 13.864 56.3443 14.536 56.7923 14.7152L56.9266 14.76L56.8594 14.872C55.2243 17.8511 50.498 26.2732 49.5573 27.5724C49.5349 27.5948 49.4901 27.6396 49.4229 27.6396C49.4005 27.6172 49.3781 27.6172 49.3781 27.6172ZM47.7205 26.3628C47.9221 26.5868 49.1093 27.3036 49.3781 27.3708C50.3636 25.9597 54.8883 17.8735 56.5683 14.8496C56.1203 14.6256 55.2691 14.1328 54.8659 13.8416C54.0819 15.2528 52.5364 17.9407 51.0356 20.539C49.5125 23.2045 47.9221 25.9821 47.7205 26.3628Z" fill="black"/>
<path d="M56.86 14.9609C56.8152 14.9609 56.7704 14.9385 56.7032 14.9161C56.2552 14.7369 55.1352 14.0426 54.7768 13.7738C54.6872 13.7066 54.6424 13.6618 54.6424 13.6394C54.62 13.5946 54.5528 13.4826 54.7768 13.057C54.8888 12.833 55.0232 12.609 55.1352 12.4746C55.2472 12.3402 55.4488 12.4298 55.5832 12.5194C55.6056 12.5418 55.6504 12.5642 55.6728 12.5642C55.6728 12.5418 55.6952 12.5194 55.6952 12.497C55.74 12.385 55.8072 12.2506 55.964 12.2058C56.0088 12.2058 56.076 12.2058 56.2552 12.273C56.524 12.385 56.9496 12.5866 57.2184 12.7658C57.5319 12.9674 57.5991 13.057 57.5991 13.1466C57.5991 13.281 57.4871 13.4602 57.3975 13.5722C57.5095 13.6394 57.7335 13.729 57.6439 13.9306C57.5991 14.0426 57.4871 14.2666 57.3528 14.4905C57.1288 14.8713 57.0168 14.9609 56.9496 14.9833C56.9496 14.9609 56.9048 14.9609 56.86 14.9609ZM54.844 13.505C54.844 13.505 54.8664 13.5274 54.9112 13.5722C55.2696 13.841 56.3448 14.5129 56.7928 14.6921C56.8376 14.7145 56.8824 14.7145 56.9048 14.7369C57.0168 14.6473 57.2632 14.2218 57.4423 13.8634C57.4199 13.841 57.3527 13.8186 57.308 13.7962C57.2184 13.7514 57.1512 13.729 57.1288 13.6394C57.1288 13.5946 57.1288 13.5498 57.1512 13.5274C57.2408 13.4154 57.3527 13.2586 57.3751 13.1914C57.3527 13.169 57.2856 13.1018 57.1064 12.9898C56.8376 12.833 56.4344 12.609 56.1656 12.5194C56.076 12.4746 56.0312 12.4746 56.0088 12.4746C55.964 12.497 55.9416 12.5642 55.8968 12.6314C55.852 12.721 55.8296 12.7882 55.7624 12.833C55.6728 12.8778 55.5608 12.833 55.4488 12.7658C55.404 12.7434 55.3144 12.6986 55.292 12.6762C55.0456 12.9002 54.8216 13.3706 54.844 13.505Z" fill="black"/>
<path d="M55.2688 22.1514C55.2016 22.1514 55.1568 22.129 55.0896 22.1066C54.6641 21.905 54.2161 21.5466 54.3729 20.9418C54.6193 20.0234 56.1872 17.0667 57.3296 14.894C57.8224 13.9756 58.2704 13.1244 58.3824 12.8781C58.2032 12.7437 57.7104 12.4525 57.576 12.4301C57.5088 12.4749 57.3744 12.7213 57.3072 12.8109C57.2848 12.8557 57.2624 12.9005 57.24 12.9229L57.1728 13.0125L57.0608 12.9453C56.792 12.7885 56.3888 12.5645 56.12 12.4749L56.0752 12.4525L56.0528 12.4077C56.0528 12.3853 56.0304 12.3629 56.0528 12.3405C56.0752 12.1613 56.568 11.3997 56.6576 11.2877C56.7024 11.2429 56.792 11.1309 57.5312 11.4221C57.9568 11.5789 58.4047 11.8029 58.7407 12.0269C59.2559 12.3629 59.4575 12.6317 59.3455 12.8557C59.1215 13.326 58.6959 14.1324 58.2032 15.0284C57.6656 16.014 57.0608 17.1339 56.6352 18.0523C56.568 18.1867 56.456 18.4107 56.3216 18.6571C55.9184 19.3963 55.336 20.5386 55.2912 20.9194C55.2688 21.1658 55.3808 21.2554 55.5376 21.3674C55.6496 21.457 55.7616 21.5466 55.784 21.7034C55.8064 21.8378 55.7392 21.9722 55.6272 22.0618C55.5376 22.1514 55.4032 22.1738 55.2688 22.1514ZM57.5984 12.1613C57.8672 12.2061 58.5391 12.6765 58.5839 12.7213C58.6959 12.8109 58.6959 12.8109 57.5312 14.9836C56.456 16.9995 54.8209 20.0682 54.5969 20.9642C54.5073 21.3226 54.7089 21.6138 55.1792 21.8378C55.2912 21.905 55.4256 21.8826 55.4928 21.8378C55.5376 21.8154 55.56 21.7482 55.56 21.7034C55.56 21.6362 55.4928 21.5914 55.4032 21.5018C55.2464 21.3674 55.0448 21.2106 55.0672 20.8522C55.112 20.4042 55.6944 19.3067 56.12 18.5003C56.2544 18.2539 56.3664 18.0299 56.4336 17.8955C56.8592 16.9771 57.4864 15.8572 58.024 14.8716C58.5167 13.9532 58.9423 13.1692 59.1663 12.6989C59.1663 12.6765 59.1663 12.6317 59.0991 12.5645C58.7183 12.0941 57.128 11.3997 56.8592 11.4445C56.7472 11.6013 56.456 12.0717 56.3664 12.2733C56.5904 12.3629 56.904 12.5197 57.128 12.6541C57.3072 12.3405 57.4192 12.1613 57.5536 12.1389C57.5536 12.1613 57.576 12.1613 57.5984 12.1613Z" fill="black"/>
<path fill-rule="evenodd" clip-rule="evenodd" d="M55.202 14.1984C53.0292 17.8047 48.6614 25.0173 48.191 26.07C48.1686 26.1372 48.191 26.182 48.2582 26.2268C48.3254 26.2492 48.3926 26.2268 48.415 26.1596C48.8854 25.1068 53.2308 17.9167 55.4036 14.3104C55.426 14.2656 55.426 14.1984 55.3588 14.1536C55.314 14.1312 55.2244 14.1536 55.202 14.1984Z" fill="black"/>
<path fill-rule="evenodd" clip-rule="evenodd" d="M48.8629 26.6081C51.1701 22.5986 53.4772 18.6116 55.8067 14.6021C55.8291 14.5573 55.8291 14.4901 55.7619 14.4453C55.7171 14.4229 55.6499 14.4229 55.6051 14.4901C53.298 18.4996 50.9909 22.4866 48.6613 26.4961C48.6389 26.5409 48.6389 26.6081 48.7061 26.6529C48.7733 26.6753 48.8405 26.6529 48.8629 26.6081Z" fill="black"/>
<path fill-rule="evenodd" clip-rule="evenodd" d="M49.4446 26.8551C49.7806 26.3847 55.2012 16.529 56.2764 14.961C56.3212 14.9162 56.2988 14.849 56.254 14.8042C56.2092 14.7594 56.142 14.7818 56.0972 14.8266C54.9996 16.3946 49.579 26.2727 49.2654 26.7207C49.2206 26.7655 49.243 26.8327 49.2878 26.8775C49.3326 26.9223 49.3998 26.9223 49.4446 26.8551Z" fill="black"/>
<path fill-rule="evenodd" clip-rule="evenodd" d="M47.7871 29.0722C47.6527 28.8482 46.9359 28.4226 46.9135 28.4898C46.8463 28.781 46.5327 29.9681 46.5551 30.0129C46.5775 30.0577 47.7871 29.0722 47.7871 29.0722Z" fill="black"/>
<path d="M38.5133 49.3204C38.3117 48.962 38.1101 48.6036 37.8637 48.2676C37.0573 47.1924 36.2062 46.1396 35.243 44.9077C37.5501 44.3925 39.79 45.1093 41.7836 43.9445C39.8796 43.0261 37.8189 43.3621 35.4446 43.0933C36.3853 41.839 37.1693 40.9206 37.8413 39.9126C38.2893 39.2406 39.4765 38.3895 38.6925 37.7623C37.9757 37.2023 37.3261 38.5687 36.7213 39.151C36.0046 39.823 35.579 40.8086 34.5486 41.3686C34.459 40.8534 34.3918 40.5174 34.3694 40.1814C34.2798 39.0838 34.235 37.9863 34.1678 36.8887C34.123 36.4407 33.8766 36.1047 33.3838 36.1047C32.891 36.1047 32.6223 36.5079 32.5999 36.9111C32.5551 37.8071 32.6447 38.7031 32.6671 39.599C32.6895 40.3606 32.9806 41.1446 32.4431 42.0854C31.5471 41.055 30.8079 40.1814 30.0239 39.3526C29.5311 38.8375 29.016 37.8295 28.232 38.4119C27.336 39.0838 28.3664 39.711 28.7696 40.2934C29.128 40.8086 29.5759 41.2342 29.9567 41.727C30.2927 42.1974 30.8751 42.5109 30.9647 43.3397C29.7775 43.4069 28.68 43.4517 27.6048 43.5413C26.888 43.6085 25.7905 43.4293 25.8353 44.4597C25.8801 45.5349 26.9776 45.1317 27.672 45.1317C28.904 45.1317 30.1583 45.0421 31.7935 44.9525C30.5391 46.5876 29.5311 47.7972 28.6352 49.074C28.1648 49.7011 27.0448 50.4627 27.8288 51.1123C28.8368 51.9635 29.3072 50.5971 29.8223 50.0147C30.8079 48.9172 31.6815 47.7076 32.5775 46.5652C32.9358 47.3492 32.9358 48.0212 32.9358 48.6708C32.9358 49.6339 32.9134 50.5971 32.9806 51.5603C33.0254 52.2099 33.003 53.2402 33.7422 53.2626C34.7278 53.3074 34.3694 52.2323 34.4366 51.6499C34.5486 50.8435 34.5038 49.9923 34.571 49.186C34.6382 48.5588 34.3694 47.842 34.9518 47.058C35.1758 47.394 35.3326 47.6628 35.5118 47.842C36.2286 48.5812 36.9677 49.3204 37.7069 50.0147C37.9085 50.2163 38.1997 50.2387 38.4685 50.0819C38.7821 49.8131 38.6477 49.5443 38.5133 49.3204Z" fill="#020202"/>
<path d="M11.9699 32.4538C11.6115 32.0954 11.1859 31.849 10.7379 31.6474C10.2899 31.4458 9.84194 31.2219 9.37156 31.0651C8.85637 30.9083 8.72197 30.6171 8.72197 30.1243C8.74437 28.9595 8.67718 27.8172 8.65478 26.6524C8.65478 26.2492 8.56518 25.8236 8.11719 25.6668C7.6916 25.51 7.35561 25.734 7.04202 26.0252C6.90763 26.1596 6.75083 26.294 6.63883 26.4508C5.98925 27.2796 5.25007 28.0635 4.69009 28.9595C4.2645 29.6315 3.77172 29.7211 3.12214 29.5419C2.51735 29.3627 1.86777 29.3627 1.26299 29.4299C0.210221 29.5643 -0.10337 30.3707 0.56861 31.1995C0.949399 31.6474 1.41979 32.0282 1.97977 32.2746C2.42776 32.4762 2.53975 32.7002 2.33816 33.193C1.95737 34.1786 1.62138 35.1865 1.28539 36.1721C1.17339 36.5081 1.039 36.8889 1.37499 37.1801C1.71098 37.4713 2.09177 37.2697 2.40536 37.1129C2.89814 36.8665 3.39093 36.5753 3.86131 36.2841C4.2645 36.0377 4.64529 35.7913 5.11568 35.4777C5.42927 35.9705 5.69806 36.3961 5.94445 36.8217C6.21325 37.2697 6.54924 37.6953 6.95243 38.0313C7.22122 38.2552 7.49001 38.5688 7.8932 38.412C8.27399 38.2552 8.36358 37.8969 8.40838 37.5161C8.47558 36.7545 8.56518 35.9929 8.60998 35.2537C8.65478 34.2906 8.63238 34.2906 9.64035 34.1786C10.3347 34.089 11.0291 33.9994 11.6787 33.753C12.4179 33.4842 12.5075 32.9914 11.9699 32.4538ZM9.03557 33.6186C8.25159 33.7306 8.22919 33.7306 8.16199 34.5146C8.07239 35.4777 7.9828 36.4185 7.8708 37.3817C7.8484 37.5385 7.8932 37.7177 7.62441 37.8297C7.19882 37.5161 6.88523 37.0681 6.54924 36.6201C6.23565 36.1945 5.94445 35.7465 5.65326 35.3209C5.22767 34.7386 5.16048 34.7162 4.55569 35.1193C3.68212 35.7017 2.85334 36.3513 1.66618 36.8665C2.09177 35.6569 2.42776 34.6266 2.80855 33.5738C2.85334 33.4394 2.92054 33.3274 2.96534 33.2154C3.34613 32.3194 3.34613 32.3194 2.49495 31.849C1.97977 31.5578 1.44218 31.2891 1.0614 30.8187C0.703006 30.3931 0.815003 30.1467 1.35259 30.0123C2.02457 29.8555 2.67415 29.9899 3.32373 30.0795C4.08531 30.1915 4.64529 29.9899 5.11568 29.3403C5.69806 28.5339 6.34764 27.7948 6.97482 27.0332C7.22122 26.742 7.44521 26.406 7.8484 26.2716C8.09479 26.5852 8.02759 26.9212 8.02759 27.2348C8.04999 28.2203 8.07239 29.2283 8.02759 30.2139C8.0052 30.7963 8.22919 31.1323 8.74437 31.3562C9.34916 31.625 9.93154 31.9162 10.5139 32.2298C10.8947 32.4314 11.2979 32.5882 11.5891 33.081C10.7379 33.4394 9.88674 33.4842 9.03557 33.6186Z" fill="#020202"/>
<path d="M66.8481 56.151C61.4274 59.2645 56.0516 62.6692 50.6757 65.8947C48.4582 62.2437 46.2631 58.5702 44.0679 54.9191C49.6678 51.5592 55.2452 48.1993 60.845 44.8394C63.0402 48.58 65.2353 52.1191 66.8481 56.151Z" fill="#0B0C0C" stroke="black" stroke-width="0.223994" stroke-miterlimit="10"/>
<path d="M51.3933 56.891C51.1469 57.0254 50.9005 57.1822 50.6765 57.3166C50.3181 57.5406 49.9597 57.7422 49.6013 57.9662C49.5565 57.9886 49.5117 58.011 49.4669 58.0558C49.4221 58.0782 49.3997 58.1006 49.3549 58.0782C49.3101 58.0558 49.3101 58.0334 49.2877 58.011C49.2653 57.9662 49.2429 57.9214 49.1981 57.8766C48.9742 57.5182 48.7726 57.1598 48.5486 56.8014C48.459 56.6446 48.347 56.4654 48.2574 56.3086C48.2126 56.2414 48.1678 56.1742 48.123 56.0846C48.0782 55.995 48.2126 55.9278 48.3022 55.883C48.459 55.7934 48.5934 55.7038 48.7502 55.6142C49.131 55.3903 49.4893 55.1663 49.8701 54.9423C49.9597 54.8975 50.0493 54.8303 50.1165 54.7855C50.2285 54.7407 50.2509 54.8303 50.2957 54.9199C50.4973 55.2559 50.6989 55.5918 50.9005 55.9278C51.0797 56.219 51.2365 56.4878 51.4157 56.779C51.4605 56.8014 51.4605 56.8462 51.3933 56.891C51.2813 56.9582 51.3933 57.1598 51.5053 57.0702C51.6397 56.9806 51.7069 56.8014 51.6173 56.6446C51.5949 56.6222 51.5949 56.5998 51.5725 56.555C51.4829 56.4206 51.3933 56.2638 51.3037 56.1294C51.0797 55.7486 50.8333 55.3455 50.6093 54.9647C50.5645 54.8751 50.4973 54.7855 50.4525 54.6959C50.3629 54.5615 50.2285 54.5167 50.0717 54.5615C50.0269 54.5839 50.0045 54.6063 49.9597 54.6063C49.6237 54.8079 49.2877 55.0095 48.9742 55.2111C48.683 55.3903 48.3694 55.5694 48.0782 55.7486C47.9886 55.8158 47.9214 55.883 47.9214 55.995C47.9214 56.0622 47.9438 56.1294 47.9886 56.1966C48.0558 56.3086 48.123 56.443 48.2126 56.555C48.459 56.9358 48.683 57.339 48.9294 57.7198C48.9966 57.8318 49.0862 57.9662 49.1534 58.0782C49.1981 58.1454 49.2206 58.1902 49.2877 58.2126C49.3997 58.2798 49.5117 58.2574 49.6237 58.2126C49.9149 58.0334 50.2061 57.8542 50.4973 57.675C50.8333 57.4734 51.1693 57.2718 51.5053 57.0702C51.5277 57.0478 51.5501 57.0478 51.5725 57.0254C51.6397 57.003 51.5277 56.8238 51.3933 56.891Z" fill="white"/>
<path d="M52.1315 54.179C52.1763 54.1566 52.2211 54.1342 52.2435 54.1118C52.3555 54.0446 52.4675 53.9774 52.5571 53.9102C52.7139 53.8206 52.8707 53.7086 53.0275 53.619C53.2291 53.507 53.4083 53.395 53.6099 53.2606C53.8114 53.1262 55.4018 52.1854 55.6258 52.051C55.8498 51.9167 56.0514 51.7823 56.2754 51.6703C56.477 51.5583 56.6786 51.4239 56.8802 51.3119C57.0594 51.1999 57.2161 51.1103 57.3953 50.9983C57.5073 50.9311 57.4849 50.9535 57.5969 50.8639C57.6641 50.8191 57.7089 50.7967 57.7761 50.7519C57.8209 50.7295 57.8433 50.6399 57.8209 50.5951C57.7761 50.5503 57.7089 50.5279 57.6641 50.5503C57.6193 50.5727 57.5745 50.5951 57.5521 50.6175C57.4401 50.6847 57.5073 50.6399 57.3953 50.7071C57.2385 50.7967 57.0818 50.9087 56.925 50.9983C56.7234 51.1103 56.5442 51.2223 56.3426 51.3567C56.141 51.4911 55.917 51.6031 55.7154 51.7375C55.4914 51.8719 55.2898 52.0062 55.0658 52.1182C54.8642 52.2302 53.2963 53.1934 53.0947 53.3054C52.9155 53.4174 52.7587 53.507 52.5795 53.619C52.4675 53.6862 52.3331 53.7758 52.2211 53.843C52.1539 53.8878 52.1091 53.9102 52.0419 53.955C51.9971 53.9774 51.9747 54.067 51.9971 54.1118C51.9971 54.179 52.0643 54.2014 52.1315 54.179Z" fill="white"/>
<path d="M52.5348 54.85C52.602 54.8052 52.6692 54.7828 52.714 54.738C52.8932 54.626 53.05 54.5364 53.2292 54.4244C53.4756 54.2676 53.722 54.1332 53.9684 53.9765C54.282 53.7973 55.9395 52.7893 56.2531 52.6101C56.5891 52.4085 56.9251 52.2069 57.2387 52.0053C57.5747 51.8037 57.9107 51.6021 58.2466 51.4005C58.5602 51.2213 58.8738 51.0197 59.1874 50.8405C59.4562 50.6837 59.725 50.527 59.9714 50.3702C60.173 50.2582 60.3522 50.1462 60.5538 50.0342C60.6434 49.9894 60.733 49.9222 60.8226 49.8774C60.8226 49.8774 60.8226 49.8774 60.845 49.8774C60.8898 49.855 60.9122 49.7654 60.8898 49.7206C60.8674 49.6758 60.7778 49.6534 60.733 49.6758C60.6658 49.7206 60.5986 49.743 60.5538 49.7878C60.3746 49.8998 60.2178 49.9894 60.0386 50.1014C59.7922 50.2582 59.5458 50.3926 59.2994 50.5494C58.9858 50.7286 58.6946 50.9077 58.381 51.0869C58.0451 51.2885 57.7091 51.4901 57.3955 51.6917C57.0595 51.8933 56.7235 52.0949 56.3875 52.2965C56.0739 52.4757 55.7603 52.6773 55.4467 52.8565C55.1779 53.0133 53.5428 53.9989 53.274 54.1556C53.0724 54.2676 52.8932 54.3796 52.6916 54.4916C52.602 54.5364 52.5124 54.6036 52.4228 54.6484C52.4228 54.6484 52.4228 54.6484 52.4004 54.6484C52.3556 54.6708 52.3332 54.7604 52.3556 54.8052C52.4004 54.8724 52.49 54.8948 52.5348 54.85Z" fill="white"/>
<path d="M52.9609 55.546C53.0057 55.5236 53.0729 55.4788 53.1177 55.4564C53.2521 55.3668 53.4089 55.2772 53.5433 55.21C53.7449 55.0756 53.9689 54.9636 54.1705 54.8292C54.4169 54.6724 56.052 53.7092 56.2984 53.5524C56.5672 53.3956 56.8584 53.2164 57.1272 53.0596C57.4184 52.8804 57.6872 52.7237 57.9784 52.5445C58.2472 52.3877 58.4936 52.2309 58.7624 52.0741C58.9864 51.9397 59.2103 51.8053 59.4343 51.6709C59.5911 51.5813 59.7479 51.4693 59.9047 51.3797C59.9719 51.3349 60.0615 51.2901 60.1287 51.2453C60.1735 51.2229 60.1959 51.1333 60.1735 51.0885C60.1287 51.0437 60.0615 51.0213 60.0167 51.0437C59.9719 51.0661 59.9047 51.1109 59.8599 51.1333C59.7255 51.2229 59.5687 51.3125 59.4343 51.3797C59.2327 51.5141 59.0088 51.6261 58.8072 51.7605C58.5608 51.9173 58.292 52.0741 58.0456 52.2085C57.7768 52.3653 57.4856 52.5445 57.2168 52.7013C56.9256 52.8804 56.6568 53.0372 56.3656 53.2164C56.0968 53.3732 54.4841 54.3588 54.2153 54.5156C53.9913 54.65 53.7673 54.7844 53.5433 54.9188C53.3865 55.0084 53.2297 55.1204 53.0729 55.21C53.0057 55.2548 52.9161 55.2996 52.8489 55.3444C52.8041 55.3668 52.7817 55.4564 52.8041 55.5012C52.8265 55.5684 52.8937 55.5908 52.9609 55.546Z" fill="white"/>
<path d="M48.9064 56.5119C49.22 55.9295 49.6904 56.2655 49.8919 56.3775C49.8695 55.9967 49.8695 55.1679 50.3623 54.384C50.5415 54.0928 50.7879 53.9136 50.7879 53.9136C50.7879 53.9136 50.3847 54.496 50.2951 55.2799C50.2279 55.8399 50.3847 56.6911 50.3623 56.8703C50.3399 56.9599 50.1383 57.1391 50.1383 57.1391C50.1383 57.1391 49.7575 56.7807 49.4216 56.6239C49.1304 56.4895 48.9064 56.5119 48.9064 56.5119Z" fill="white"/>
<path d="M50.9892 53.8232C50.9892 53.8232 50.5861 54.4056 50.4965 55.1896C50.4293 55.7496 50.5861 56.6008 50.5637 56.78C50.5413 56.8696 50.3397 57.0488 50.3397 57.0488C50.3397 57.0488 50.3397 57.0487 50.3173 57.0264C50.3621 56.9592 50.4293 56.892 50.4293 56.8472C50.4517 56.668 50.2949 55.7944 50.3621 55.2568C50.4517 54.652 50.698 54.1592 50.81 53.98C50.922 53.868 50.9892 53.8232 50.9892 53.8232Z" fill="white"/>
<path d="M54.439 61.9323C54.1926 62.0667 53.9462 62.2235 53.7222 62.3579C53.3638 62.5818 53.0054 62.7834 52.647 63.0074C52.6022 63.0298 52.5574 63.0522 52.5126 63.097C52.4678 63.1194 52.4454 63.1418 52.4006 63.1194C52.3558 63.097 52.3558 63.0746 52.3334 63.0522C52.311 63.0074 52.2886 62.9626 52.2438 62.9178C52.0198 62.5594 51.8182 62.2011 51.5943 61.8427C51.5047 61.6859 51.3927 61.5067 51.3031 61.3499C51.2583 61.2827 51.2135 61.2155 51.1687 61.1259C51.1239 61.0363 51.2583 60.9691 51.3479 60.9243C51.5047 60.8347 51.6391 60.7451 51.7958 60.6555C52.1766 60.4315 52.535 60.2075 52.9158 59.9835C53.0054 59.9387 53.095 59.8715 53.1622 59.8267C53.2742 59.7819 53.2966 59.8715 53.3414 59.9611C53.543 60.2971 53.7446 60.6331 53.9462 60.9691C54.1254 61.2603 54.2822 61.5291 54.4614 61.8203C54.4838 61.8427 54.4838 61.8875 54.439 61.9323C54.327 61.9995 54.439 62.2011 54.551 62.1115C54.6854 62.0219 54.7526 61.8427 54.663 61.6859C54.6406 61.6635 54.6406 61.6411 54.6182 61.5963C54.5286 61.4619 54.439 61.3051 54.3494 61.1707C54.1254 60.7899 53.879 60.3867 53.655 60.0059C53.6102 59.9163 53.543 59.8267 53.4982 59.7371C53.4086 59.6027 53.2742 59.5579 53.1174 59.6027C53.0726 59.6251 53.0502 59.6475 53.0054 59.6475C52.6694 59.8491 52.3334 60.0507 52.0198 60.2523C51.7286 60.4315 51.4151 60.6107 51.1239 60.7899C51.0343 60.8571 50.9671 60.9243 50.9671 61.0363C50.9671 61.1035 50.9895 61.1707 51.0343 61.2379C51.1015 61.3499 51.1687 61.4843 51.2583 61.5963C51.5047 61.9771 51.7286 62.3803 51.975 62.761C52.0422 62.873 52.1318 63.0074 52.199 63.1194C52.2438 63.1866 52.2662 63.2314 52.3334 63.2538C52.4454 63.321 52.5574 63.2986 52.6694 63.2538C52.9606 63.0746 53.2518 62.8954 53.543 62.7162C53.879 62.5147 54.215 62.3131 54.551 62.1115C54.5734 62.0891 54.5958 62.0891 54.6182 62.0667C54.663 62.0443 54.551 61.8651 54.439 61.9323Z" fill="white"/>
<path d="M55.1552 59.22C55.2 59.1976 55.2448 59.1752 55.2672 59.1528C55.3792 59.0856 55.4912 59.0184 55.5808 58.9512C55.7376 58.8616 55.8944 58.7496 56.0512 58.66C56.2528 58.548 56.432 58.436 56.6336 58.3016C56.8352 58.1672 58.4255 57.2265 58.6495 57.0921C58.8735 56.9577 59.0751 56.8233 59.2991 56.7113C59.5007 56.5993 59.7023 56.4649 59.9039 56.3529C60.0831 56.2409 60.2399 56.1513 60.4191 56.0393C60.5311 55.9721 60.5087 55.9945 60.6207 55.9049C60.6879 55.8601 60.7327 55.8377 60.7999 55.7929C60.8447 55.7705 60.8671 55.6809 60.8447 55.6361C60.7999 55.5913 60.7327 55.5689 60.6879 55.5913C60.6431 55.6137 60.5983 55.6361 60.5759 55.6585C60.4639 55.7257 60.5311 55.6809 60.4191 55.7481C60.2623 55.8377 60.1055 55.9497 59.9487 56.0393C59.7471 56.1513 59.5679 56.2633 59.3663 56.3977C59.1647 56.5321 58.9407 56.6441 58.7391 56.7785C58.5151 56.9129 58.3135 57.0473 58.0896 57.1593C57.888 57.2713 56.32 58.2344 56.1184 58.3464C55.9392 58.4584 55.7824 58.548 55.6032 58.66C55.4912 58.7272 55.3568 58.8168 55.2448 58.884C55.1776 58.9288 55.1328 58.9512 55.0656 58.996C55.0208 59.0184 54.9984 59.108 55.0208 59.1528C55.0208 59.22 55.1104 59.2424 55.1552 59.22Z" fill="white"/>
<path d="M55.5814 59.9142C55.6486 59.8694 55.7158 59.847 55.7606 59.8022C55.9398 59.6902 56.0966 59.6006 56.2758 59.4887C56.5222 59.3319 56.7686 59.1975 57.0149 59.0407C57.3285 58.8615 58.9861 57.8535 59.2997 57.6743C59.6357 57.4727 59.9717 57.2711 60.2853 57.0695C60.6212 56.8679 60.9572 56.6663 61.2932 56.4647C61.6068 56.2855 61.9204 56.0839 62.234 55.9048C62.5028 55.748 62.7716 55.5912 63.018 55.4344C63.2196 55.3224 63.3988 55.2104 63.6004 55.0984C63.6899 55.0536 63.7796 54.9864 63.8691 54.9416C63.8691 54.9416 63.8691 54.9416 63.8915 54.9416C63.9363 54.9192 63.9587 54.8296 63.9363 54.7848C63.9139 54.74 63.8243 54.7176 63.7795 54.74C63.7123 54.7848 63.6452 54.8072 63.6004 54.852C63.4212 54.964 63.2644 55.0536 63.0852 55.1656C62.8388 55.3224 62.5924 55.4568 62.346 55.6136C62.0324 55.7928 61.7412 55.972 61.4276 56.1511C61.0916 56.3527 60.7556 56.5543 60.442 56.7559C60.1061 56.9575 59.7701 57.1591 59.4341 57.3607C59.1205 57.5399 58.8069 57.7415 58.4933 57.9207C58.2245 58.0775 56.5894 59.0631 56.3206 59.2199C56.119 59.3319 55.9398 59.4439 55.7382 59.5558C55.6486 59.6006 55.559 59.6678 55.4694 59.7126C55.4694 59.7126 55.4694 59.7126 55.447 59.7126C55.4022 59.735 55.3798 59.8246 55.4022 59.8694C55.447 59.9142 55.5142 59.9366 55.5814 59.9142Z" fill="white"/>
<path d="M55.9847 60.5858C56.0295 60.5634 56.0967 60.5186 56.1415 60.4962C56.2759 60.4066 56.4327 60.317 56.5671 60.2498C56.7687 60.1154 56.9926 60.0034 57.1942 59.869C57.4406 59.7122 59.0758 58.749 59.3222 58.5922C59.591 58.4354 59.8822 58.2562 60.151 58.0994C60.4421 57.9202 60.7109 57.7634 61.0021 57.5843C61.2709 57.4275 61.5173 57.2707 61.7861 57.1139C62.0101 56.9795 62.2341 56.8451 62.4581 56.7107C62.6149 56.6211 62.7717 56.5091 62.9285 56.4195C62.9957 56.3747 63.0853 56.3299 63.1525 56.2851C63.1973 56.2627 63.2197 56.1731 63.1973 56.1283C63.1525 56.0835 63.0853 56.0611 63.0405 56.0835C62.9957 56.1059 62.9285 56.1507 62.8837 56.1731C62.7493 56.2627 62.5925 56.3523 62.4581 56.4195C62.2565 56.5539 62.0325 56.6659 61.8309 56.8003C61.5845 56.9571 61.3157 57.1139 61.0693 57.2483C60.8005 57.4051 60.5093 57.5842 60.2406 57.741C59.9494 57.9202 59.6806 58.077 59.3894 58.2562C59.1206 58.413 57.5078 59.3986 57.239 59.5554C57.015 59.6898 56.7911 59.8242 56.5671 59.9586C56.4103 60.0482 56.2535 60.1602 56.0967 60.2498C56.0295 60.2946 55.9399 60.3394 55.8727 60.3842C55.8279 60.4066 55.8055 60.4962 55.8279 60.541C55.8503 60.6082 55.9175 60.6306 55.9847 60.5858Z" fill="white"/>
<path d="M51.9523 61.5522C52.2659 60.9698 52.7362 61.3058 52.9378 61.4178C52.9154 61.037 52.9154 60.2082 53.4082 59.4242C53.5874 59.1331 53.8338 58.9539 53.8338 58.9539C53.8338 58.9539 53.4306 59.5362 53.341 60.3202C53.2738 60.8802 53.4306 61.7314 53.4082 61.9106C53.3858 62.0002 53.1842 62.1794 53.1842 62.1794C53.1842 62.1794 52.8034 61.821 52.4675 61.6642C52.1763 61.5298 51.9523 61.5746 51.9523 61.5522Z" fill="white"/>
<path d="M54.0351 58.8635C54.0351 58.8635 53.632 59.4459 53.5424 60.2299C53.4752 60.7899 53.6319 61.641 53.6095 61.8202C53.5872 61.9098 53.3856 62.089 53.3856 62.089C53.3856 62.089 53.3856 62.089 53.3632 62.0666C53.408 61.9994 53.4752 61.9322 53.4752 61.8874C53.4976 61.7082 53.3408 60.8347 53.408 60.2971C53.4976 59.6923 53.7439 59.1995 53.8559 59.0203C53.9679 58.9083 54.0351 58.8635 54.0351 58.8635Z" fill="white"/>
</g>
</g>
<defs>
<clipPath id="clip0_2975_20624">
<rect width="67.1981" height="67.1981" fill="white" transform="translate(0.210999 2.4834)"/>
</clipPath>
<clipPath id="clip1_2975_20624">
<rect width="67.1981" height="67.1981" fill="white" transform="translate(0.210999 2.4834)"/>
</clipPath>
</defs>
</svg>
