<svg width="68" height="68" viewBox="0 0 68 68" fill="none" xmlns="http://www.w3.org/2000/svg">
<rect x="0.391418" y="0.489014" width="67.1981" height="67.1981" rx="33.599" fill="white"/>
<g clip-path="url(#clip0_2975_20576)">
<g clip-path="url(#clip1_2975_20576)">
<path d="M43.2297 15.7527C43.4817 15.9207 43.8177 15.9207 44.0696 16.0887C45.0776 16.5927 45.5816 17.4326 45.5816 18.6086C45.5816 19.5326 45.5816 20.5405 45.5816 21.4645C45.4976 21.4645 45.4976 21.4645 45.4136 21.4645C39.8698 21.4645 34.2419 21.4645 28.6981 21.4645C23.8262 21.4645 18.9544 21.4645 13.9985 21.4645C13.8305 21.4645 13.5785 21.4645 13.3265 21.2965C13.3265 20.2046 13.3265 19.0286 13.3265 17.9366C13.4945 16.9287 14.4185 15.8367 15.6785 15.7527C24.9182 15.7527 34.0739 15.7527 43.2297 15.7527Z" fill="#CBCFD9"/>
<path d="M13.3265 21.2959C13.4945 21.2959 13.5785 21.2959 13.7465 21.2959C24.1622 21.2959 34.5779 21.2959 44.9936 21.2959C45.1616 21.2959 45.3296 21.2119 45.4976 21.3799C45.2456 21.5479 44.9936 21.5479 44.7416 21.5479C40.4578 21.5479 36.1739 21.5479 31.974 21.5479C29.3701 21.5479 26.6822 21.5479 24.0782 21.5479C23.9942 21.5479 23.8262 21.5479 23.7422 21.5479C23.4062 21.5479 23.2383 21.6319 23.3222 21.9679C23.3222 22.1359 23.3222 22.2199 23.3222 22.3879C23.3222 27.6797 23.3222 32.9716 23.3222 38.1794C23.3222 38.4314 23.4062 38.6834 23.2383 38.9354C23.0703 39.1034 22.9023 39.0194 22.6503 39.0194C19.7104 39.0194 16.8544 39.0194 13.9145 39.0194C13.7465 39.0194 13.4945 39.0194 13.3265 38.8514C13.3265 33.0556 13.3265 27.1757 13.3265 21.2959Z" fill="#4D87A8"/>
<path d="M13.3269 38.9356C16.6028 38.9356 19.8787 38.9356 23.1546 38.9356C23.3226 38.7676 23.4906 38.8516 23.6586 38.8516C28.1944 38.8516 32.7303 38.8516 37.1822 38.8516C37.3502 38.8516 37.5182 38.8516 37.6862 38.9356C37.8541 39.0196 37.7701 39.1876 37.6862 39.2716C37.5182 39.3556 37.3502 39.4395 37.1822 39.5235C35.5022 40.3635 33.7383 41.1195 32.0583 41.8755C31.3863 42.2115 30.7144 42.5475 30.0424 42.7995C29.8744 42.8834 29.6224 42.9674 29.4544 43.1354C28.6984 43.5554 28.6984 44.3954 29.3704 44.8994C30.4624 45.5714 31.5543 46.3273 32.6463 46.9993C33.0663 47.2513 33.4863 47.5873 33.9903 47.8393C34.0743 47.9233 34.2423 48.0073 34.2423 48.1753C32.1423 48.1753 30.1264 48.1753 28.0264 48.1753C24.1625 48.1753 20.2147 48.1753 16.3508 48.1753C14.7548 48.1753 13.8308 47.5033 13.3269 45.9914C13.3269 45.9914 13.3269 45.9914 13.2429 45.9074C13.3269 43.5554 13.3269 41.2035 13.3269 38.9356Z" fill="#295474"/>
<path d="M34.2423 48.0075C33.8223 47.5875 33.2343 47.3356 32.7303 46.9996C31.6383 46.2436 30.4624 45.5716 29.3704 44.8156C29.0344 44.5636 28.7824 44.2276 28.7824 43.8077C28.7824 43.3037 29.0344 42.9677 29.5384 42.7997C32.1423 41.5397 34.8302 40.3638 37.4342 39.1038C37.6022 39.0198 37.6862 38.9358 37.8541 38.8518C37.9381 38.6838 38.1061 38.5998 38.1901 38.5998C38.8621 38.2638 39.5341 38.0118 40.2061 37.6758C40.9621 37.2558 41.718 37.2558 42.558 37.6758C43.398 38.0958 44.154 38.4318 44.9939 38.8518C45.1619 39.0198 45.4139 39.0198 45.5819 39.1878C46.1699 39.5238 46.8419 39.7758 47.4299 40.1118C49.2778 40.9517 51.1258 41.8757 53.0577 42.7157C53.4777 42.8837 53.8137 43.1357 54.0657 43.5557C54.0657 43.8077 54.0657 43.9756 54.0657 44.2276C53.9817 44.6476 53.7297 44.8156 53.3937 44.9836C53.0577 45.2356 52.6377 45.4876 52.3017 45.6556C52.2177 45.7396 52.0497 45.8236 51.9657 45.8236C50.9578 46.4956 49.8658 47.1676 48.8578 47.8395C48.7738 47.9235 48.6058 48.0075 48.5218 48.0915C48.3538 48.0075 48.3538 47.8395 48.4378 47.6715C48.5218 47.0836 48.1858 46.7476 47.6819 46.4956C47.1779 46.1596 46.5899 45.9916 46.0019 45.9076C44.7419 45.5716 43.482 45.4876 42.222 45.4036C40.6261 45.4036 39.0301 45.4036 37.4342 45.8236C36.7622 45.9916 36.0062 46.1596 35.4182 46.4956C34.9142 46.7476 34.5782 47.0836 34.6622 47.6715C34.6622 47.8395 34.6622 48.0075 34.5782 48.0915C34.3262 48.0915 34.3262 48.0915 34.2423 48.0075Z" fill="#88909F"/>
<path d="M54.0659 51.1998C53.8979 51.4517 53.7299 51.7877 53.4779 51.9557C52.8059 52.3757 51.9659 52.2917 51.546 51.6197C51.042 50.9478 51.294 50.1078 52.0499 49.6038C52.2179 49.4358 52.3859 49.4358 52.5539 49.3518C52.6379 49.3518 52.8059 49.3518 52.8899 49.3518C53.0579 49.3518 53.1419 49.4358 53.3099 49.4358C53.7299 49.6878 54.0659 49.9398 54.1499 50.4438C54.0659 50.7798 54.0659 51.0318 54.0659 51.1998Z" fill="#F4AA01"/>
<path d="M15.6785 15.7527C15.3425 15.9207 14.9225 16.0047 14.5865 16.1727C14.0825 16.5927 13.6625 17.0966 13.4945 17.6846C13.4945 17.7686 13.4945 17.9366 13.3265 17.9366C13.3265 17.2646 13.3265 16.5927 13.3265 15.9207C13.3265 15.7527 13.3265 15.7527 13.5785 15.7527C14.2505 15.7527 15.0065 15.7527 15.6785 15.7527Z" fill="#FEFEFE"/>
<path d="M34.4099 48.0915C34.4099 47.9235 34.4099 47.7555 34.4099 47.5875C34.3259 46.9995 34.6619 46.6636 35.1659 46.4116C36.2579 45.8236 37.5178 45.5716 38.6938 45.4036C39.9538 45.2356 41.2977 45.2356 42.5577 45.2356C44.1536 45.3196 45.7496 45.4876 47.2616 46.1596C47.4296 46.2436 47.6815 46.3276 47.8495 46.4956C48.1855 46.7476 48.4375 47.0835 48.3535 47.5875C48.3535 47.7555 48.3535 47.8395 48.3535 48.0075C48.3535 50.0235 48.3535 52.0394 48.3535 54.0553C48.2695 54.0553 48.1855 54.0553 48.1855 53.9713C47.5135 53.2154 46.5896 52.9634 45.6656 52.7954C43.7337 52.3754 41.8017 52.2074 39.7858 52.3754C38.5258 52.4594 37.2658 52.6274 36.0059 53.0474C35.4179 53.2154 34.9139 53.4674 34.5779 53.8873C34.4939 53.9713 34.4099 54.0553 34.3259 53.9713C34.4099 52.1234 34.4099 50.1075 34.4099 48.0915Z" fill="#79808E"/>
<path d="M34.4101 54.056C34.7461 53.552 35.2501 53.3 35.8381 53.048C37.098 52.544 38.442 52.376 39.7859 52.292C40.6259 52.208 41.4659 52.208 42.2219 52.208C43.9018 52.292 45.4978 52.46 47.0937 53.048C47.5977 53.3 48.1017 53.552 48.4377 53.972C48.6057 54.4759 48.2697 54.8119 47.9337 55.0639C47.4297 55.3999 46.8417 55.6519 46.2538 55.8199C44.1538 56.3239 42.0539 56.4919 39.9539 56.3239C38.526 56.2399 37.098 56.0719 35.7541 55.4839C35.4181 55.3999 35.1661 55.2319 34.9141 55.0639C34.4941 54.8959 34.3261 54.5599 34.4101 54.056Z" fill="#88909F"/>
<path d="M53.3097 44.9844C53.3097 46.4963 53.3097 47.9243 53.3097 49.4362C53.3097 49.5202 53.3097 49.6042 53.2257 49.6042C53.0577 49.6042 52.9737 49.6042 52.8057 49.5202C52.6377 49.4362 52.5537 49.4362 52.3857 49.5202C52.2177 49.6042 52.0497 49.6042 51.8817 49.6882C51.8817 48.5963 51.8817 47.5043 51.8817 46.4963C51.8817 46.3283 51.8817 46.1603 51.8817 45.9084C52.3857 45.5724 52.8897 45.2364 53.3097 44.9844Z" fill="#FBC00A"/>
<path d="M44.9938 38.9354C44.1538 38.5154 43.3138 38.1794 42.4739 37.7594C41.7179 37.4234 41.0459 37.4234 40.2899 37.7594C39.4499 38.1794 38.61 38.5154 37.77 38.9354C37.602 38.7674 37.434 38.8514 37.35 38.8514C32.6461 38.8514 27.8583 38.8514 23.1544 38.8514C23.1544 33.2235 23.1544 27.5117 23.1544 21.8839C23.1544 21.3799 23.1544 21.3799 23.6584 21.3799C30.7982 21.3799 37.854 21.3799 44.9938 21.3799C45.1618 21.3799 45.3298 21.3799 45.4978 21.3799H45.5818C45.5818 27.1757 45.5818 32.9715 45.5818 38.7674V38.8514C45.4138 39.1034 45.1618 38.9354 44.9938 38.9354Z" fill="#346D91"/>
<path d="M44.9938 38.936C45.1618 38.7681 45.4138 38.936 45.5818 38.8521C45.5818 38.936 45.5818 39.104 45.5818 39.188C45.4138 39.188 45.1618 39.104 44.9938 38.936Z" fill="#2E5979"/>
<path d="M40.7104 19.281C40.0384 19.281 39.3664 19.281 38.6945 19.281C38.2745 19.281 37.9385 19.029 37.9385 18.609C37.9385 18.189 38.1065 18.021 38.6105 17.853C38.8625 17.769 39.1144 17.769 39.2824 17.769C40.3744 17.769 41.3824 17.769 42.4743 17.769C42.6423 17.769 42.8103 17.769 42.9783 17.853C43.3143 18.021 43.5663 18.273 43.4823 18.609C43.3983 18.945 43.1463 19.197 42.8103 19.197C42.1384 19.281 41.3824 19.281 40.7104 19.281Z" fill="#8991A0"/>
<path d="M23.4904 19.281C23.3224 19.281 23.2384 19.281 23.0705 19.281C22.7345 19.197 22.4825 19.029 22.4825 18.693C22.3985 18.357 22.6505 18.021 22.9865 17.937C23.3224 17.853 23.6584 17.853 23.9944 17.937C24.4144 18.021 24.5824 18.273 24.5824 18.693C24.5824 19.029 24.2464 19.281 23.9104 19.281C23.7424 19.281 23.6584 19.281 23.4904 19.281Z" fill="#31B691"/>
<path d="M19.9625 19.281C19.7945 19.281 19.7105 19.281 19.5425 19.281C19.2065 19.197 18.9545 18.945 18.9545 18.609C18.9545 18.273 19.1225 18.021 19.4585 17.937C19.7945 17.853 20.1305 17.853 20.4665 17.937C20.8865 17.937 21.0545 18.273 21.0545 18.609C21.0545 18.945 20.8025 19.197 20.4665 19.281C20.2985 19.281 20.1305 19.281 19.9625 19.281Z" fill="#F9A016"/>
<path d="M16.5184 19.2812C16.3504 19.2812 16.2664 19.2812 16.0984 19.2812C15.6784 19.1972 15.5105 18.9452 15.4265 18.6093C15.4265 18.2733 15.5944 17.9373 15.9304 17.8533C16.2664 17.7693 16.6024 17.7693 16.8544 17.8533C17.2744 17.9373 17.5264 18.1893 17.5264 18.6093C17.5264 18.9452 17.1904 19.2812 16.8544 19.2812C16.6864 19.2812 16.6024 19.2812 16.5184 19.2812Z" fill="#D82A36"/>
<path d="M18.2829 31.209C17.6109 31.209 16.8549 31.209 16.183 31.209C15.763 31.209 15.511 30.957 15.511 30.537C15.511 30.117 15.763 29.865 16.183 29.865C16.8549 29.865 17.6109 29.865 18.2829 29.865C18.4509 30.285 18.4509 30.705 18.2829 31.209Z" fill="#1C3B4F"/>
<path d="M18.283 25.5798C18.955 25.5798 19.627 25.5798 20.299 25.5798C20.803 25.5798 21.055 25.8318 21.055 26.2518C21.055 26.6718 20.719 26.9238 20.299 26.9238C19.627 26.9238 18.955 26.9238 18.283 26.9238C18.0311 26.5038 18.0311 26.0838 18.283 25.5798Z" fill="#1C3B4F"/>
<path d="M18.283 34.0647C18.955 34.0647 19.627 34.0647 20.299 34.0647C20.803 34.0647 21.055 34.3167 21.055 34.7367C21.055 35.1567 20.803 35.4087 20.299 35.4087C19.627 35.4087 18.955 35.4087 18.283 35.4087C18.0311 34.9887 18.0311 34.4847 18.283 34.0647Z" fill="#1C3B4F"/>
<path d="M18.283 34.0639C18.283 34.4839 18.283 34.9879 18.283 35.4078C18.115 35.9118 17.863 36.1638 17.527 36.0798C17.1911 36.0798 16.9391 35.8278 16.8551 35.3239C16.6871 34.9039 16.6871 34.3999 16.8551 33.9799C16.9391 33.4759 17.1911 33.2239 17.611 33.3079C17.947 33.3079 18.199 33.5599 18.283 34.0639Z" fill="#37CAA0"/>
<path d="M18.283 25.5802C18.283 26.0001 18.283 26.5041 18.283 26.9241C18.115 27.5121 17.863 27.6801 17.527 27.6801C17.1911 27.6801 16.9391 27.4281 16.8551 27.0081C16.6871 26.5881 16.6871 26.0841 16.8551 25.6641C16.9391 25.1602 17.1911 24.9922 17.527 24.9922C17.947 24.9082 18.199 25.1602 18.283 25.5802Z" fill="#37CAA0"/>
<path d="M18.2827 31.2086C18.2827 30.7886 18.2827 30.2846 18.2827 29.8646C18.3667 29.3606 18.5347 29.1086 19.0387 29.1086C19.4587 29.1086 19.6267 29.3606 19.6267 29.8646C19.6267 30.2846 19.6267 30.6206 19.6267 31.0406C19.6267 31.5446 19.4587 31.7966 19.0387 31.8806C18.6187 31.9646 18.2827 31.6286 18.2827 31.2086Z" fill="#37CAA0"/>
<path d="M16.8549 25.5798C16.8549 25.9998 16.8549 26.5038 16.8549 26.9238C16.603 26.9238 16.435 26.9238 16.183 26.9238C15.763 26.9238 15.511 26.6718 15.511 26.2518C15.511 25.8318 15.763 25.5798 16.183 25.5798C16.351 25.5798 16.603 25.5798 16.8549 25.5798Z" fill="#1C3B4F"/>
<path d="M16.8549 34.0647C16.8549 34.4847 16.8549 34.9887 16.8549 35.4087C16.603 35.4087 16.435 35.4087 16.183 35.4087C15.763 35.4087 15.511 35.1567 15.511 34.7367C15.511 34.3167 15.763 34.0647 16.183 34.0647C16.351 34.0647 16.603 34.0647 16.8549 34.0647Z" fill="#1C3B4F"/>
<path d="M20.2148 29.7795C20.8028 29.7795 21.0548 30.0315 21.0548 30.4515C21.0548 30.8715 20.7188 31.1235 20.2148 31.1235C19.7108 31.1235 19.7108 31.1235 19.7108 30.6195C19.7108 30.5355 19.7108 30.3675 19.7108 30.2835C19.7108 29.7795 19.7108 29.7795 20.2148 29.7795Z" fill="#1C3C4F"/>
<path d="M26.0102 44.3952C26.0102 44.6472 26.0102 44.9832 26.0102 45.2352C26.0102 45.6552 25.6742 45.9912 25.3382 45.9912C25.0022 45.9912 24.6662 45.6552 24.6662 45.2352C24.6662 44.6472 24.6662 44.0592 24.6662 43.4712C24.6662 43.3032 24.7502 43.2192 24.9182 43.2192C25.2542 43.2192 25.5062 43.2192 25.8422 43.2192C26.0942 43.2192 26.0942 43.3032 26.0942 43.4712C26.0102 43.8072 26.0102 44.0592 26.0102 44.3952Z" fill="#1C3B4F"/>
<path d="M20.2983 44.5632C19.9623 44.4792 19.6263 44.3112 19.6263 43.8913C19.6263 43.4713 19.8783 43.2193 20.2983 43.1353C20.8023 42.9673 21.2223 42.9673 21.7263 43.1353C22.3143 43.3033 22.5663 43.7233 22.3143 44.1432C22.2303 44.3952 21.9783 44.4792 21.7263 44.5632C21.3063 44.7312 20.8023 44.7312 20.2983 44.5632Z" fill="#37CAA0"/>
<path d="M16.1832 43.8082C15.8472 43.8082 15.5952 43.6402 15.5112 43.3042C15.4272 43.0522 15.4272 42.7162 15.6792 42.5482C15.9312 42.3802 17.7791 42.2962 17.9471 42.5482C18.1151 42.7162 18.2831 42.9682 18.1991 43.2202C18.1151 43.5562 17.8631 43.7242 17.5271 43.8082C17.1071 44.0602 16.6031 44.0602 16.1832 43.8082Z" fill="#37CAA0"/>
<path d="M25.2547 41.792C25.5067 41.792 25.6747 41.792 25.9266 41.792C26.3466 41.792 26.6826 42.128 26.6826 42.464C26.6826 42.8 26.3466 43.136 26.0106 43.136C25.5067 43.136 25.0867 43.136 24.5827 43.136C24.1627 43.136 23.9107 42.884 23.9107 42.464C23.9107 42.044 24.1627 41.792 24.5827 41.792C24.8347 41.792 25.0027 41.792 25.2547 41.792Z" fill="#37CAA0"/>
<path d="M16.183 43.8081C16.603 43.8081 17.107 43.8081 17.527 43.8081C17.527 44.2281 17.527 44.6481 17.527 45.1521C17.527 45.6561 17.275 45.992 16.855 45.992C16.519 45.992 16.099 45.5721 16.183 45.1521C16.099 44.7321 16.015 44.3121 16.183 43.8081Z" fill="#1C3B4F"/>
<path d="M21.727 43.1356C21.223 43.1356 20.803 43.1356 20.299 43.1356C20.299 42.7156 20.299 42.2956 20.299 41.8756C20.299 41.3716 20.635 41.0356 21.055 41.0356C21.475 41.0356 21.727 41.3716 21.727 41.8756C21.727 42.2956 21.727 42.7156 21.727 43.1356Z" fill="#1C3B4F"/>
<path d="M20.299 44.5645C20.803 44.5645 21.223 44.5645 21.727 44.5645C21.727 44.8164 21.727 44.9844 21.727 45.2364C21.727 45.6564 21.391 45.9924 20.971 45.9924C20.635 45.9924 20.299 45.6564 20.299 45.2364C20.299 44.9844 20.299 44.8164 20.299 44.5645Z" fill="#1C3B4F"/>
<path d="M16.7711 42.3796C16.4351 42.2956 16.0991 42.6316 16.0991 42.0436C16.0991 41.3716 16.3511 41.0356 16.7711 41.0356C17.1071 41.0356 17.4431 41.2876 17.5271 41.7076C17.6111 42.3796 17.6111 42.3796 16.7711 42.3796Z" fill="#1C3B4F"/>
<path d="M25.2545 41.7085C25.0865 41.7085 25.0025 41.7085 24.8345 41.7085C24.7505 41.7085 24.5825 41.7925 24.5825 41.6245C24.5825 41.5405 24.6665 41.4565 24.6665 41.3725C25.0025 40.9525 25.5065 41.0365 25.7585 41.3725C25.8425 41.4565 25.9265 41.5405 25.8425 41.6245C25.7585 41.7085 25.6745 41.7085 25.5905 41.7085C25.5065 41.7085 25.4225 41.7085 25.2545 41.7085Z" fill="#1D4052"/>
<path d="M52.4699 49.5198C52.6379 49.4358 52.7219 49.4358 52.8899 49.5198C52.7219 49.5198 52.6379 49.5198 52.4699 49.5198Z" fill="#FBC930"/>
<path d="M32.2263 30.2002C32.2263 31.9641 32.2263 33.6441 32.2263 35.408C32.2263 35.828 32.0583 35.996 31.7223 36.08C31.3863 36.164 31.1343 35.996 30.9663 35.744C30.8823 35.576 30.8823 35.492 30.8823 35.324C30.8823 31.8801 30.8823 28.3522 30.8823 24.9083C30.8823 24.4043 31.1343 24.1523 31.5543 24.1523C31.9743 24.1523 32.2263 24.4043 32.2263 24.9083C32.3103 26.6723 32.2263 28.4362 32.2263 30.2002Z" fill="#3FD9B0"/>
<path d="M33.6541 30.1161C33.6541 28.6041 33.6541 27.1761 33.6541 25.6642C33.6541 25.3282 33.7381 25.0762 34.0741 24.9082C34.3261 24.8242 34.5781 24.8242 34.8301 24.9922C34.9981 25.1602 35.0821 25.4122 35.0821 25.6642C35.0821 28.6041 35.0821 31.628 35.0821 34.5679C35.0821 35.0719 34.7461 35.4079 34.3261 35.4079C33.9061 35.4079 33.6541 35.0719 33.6541 34.5679C33.6541 33.056 33.6541 31.628 33.6541 30.1161Z" fill="#3FD9B0"/>
<path d="M37.938 30.1167C37.938 30.8727 37.938 31.7127 37.938 32.4686C37.938 32.9726 37.602 33.3086 37.266 33.3086C36.846 33.3086 36.594 32.9726 36.594 32.4686C36.594 30.9567 36.594 29.3607 36.594 27.8488C36.594 27.3448 36.93 27.0088 37.266 27.0088C37.686 27.0088 38.022 27.3448 38.022 27.8488C37.938 28.6047 37.938 29.3607 37.938 30.1167Z" fill="#3FD9B0"/>
<path d="M29.4541 30.1168C29.4541 30.8728 29.4541 31.6287 29.4541 32.3847C29.4541 32.8887 29.2021 33.2247 28.7821 33.2247C28.3621 33.2247 28.0261 32.8887 28.0261 32.3847C28.0261 31.6287 28.0261 30.8728 28.0261 30.2008C28.0261 29.4448 28.0261 28.6048 28.0261 27.8489C28.0261 27.1769 28.5301 26.8409 29.0341 27.0089C29.3701 27.1769 29.4541 27.4289 29.4541 27.7649C29.4541 28.6048 29.4541 29.3608 29.4541 30.1168Z" fill="#3FD9B0"/>
<path d="M40.7097 30.1159C40.7097 30.7039 40.7097 31.2918 40.7097 31.7958C40.7097 32.2158 40.3738 32.5518 40.0378 32.5518C39.6178 32.5518 39.3658 32.2158 39.3658 31.7958C39.3658 30.6199 39.3658 29.5279 39.3658 28.3519C39.3658 27.9319 39.6178 27.5959 40.0378 27.5959C40.3738 27.5959 40.7097 27.9319 40.7097 28.3519C40.7097 29.0239 40.7097 29.6119 40.7097 30.1159Z" fill="#3FD9B0"/>
<path d="M25.2543 30.1162C25.2543 29.7803 25.2543 29.4443 25.2543 29.1083C25.2543 28.6883 25.5063 28.3523 25.9263 28.3523C26.3463 28.3523 26.6823 28.6043 26.6823 29.0243C26.6823 29.6963 26.6823 30.4522 26.6823 31.1242C26.6823 31.5442 26.3463 31.7962 25.9263 31.7962C25.5063 31.7962 25.2543 31.4602 25.2543 31.0402C25.2543 30.7882 25.2543 30.4522 25.2543 30.1162Z" fill="#3FD9B0"/>
<path d="M43.5663 30.2009C43.5663 30.4529 43.5663 30.7049 43.3143 30.9568C43.1463 31.1248 42.9783 31.1248 42.8103 31.1248C42.3064 31.1248 42.1384 30.7889 42.1384 29.9489C42.1384 29.3609 42.3064 29.0249 42.8103 29.0249C43.3143 29.1089 43.5663 29.4449 43.5663 30.2009Z" fill="#3FD9B0"/>
</g>
</g>
<defs>
<clipPath id="clip0_2975_20576">
<rect width="41.3268" height="40.6548" fill="white" transform="translate(13.3275 15.7556)"/>
</clipPath>
<clipPath id="clip1_2975_20576">
<rect width="41.3268" height="40.6548" fill="white" transform="translate(13.3271 15.7546)"/>
</clipPath>
</defs>
</svg>
