<svg width="68" height="68" viewBox="0 0 68 68" fill="none" xmlns="http://www.w3.org/2000/svg">
<rect x="0.0313416" y="0.77832" width="67.1981" height="67.1981" rx="33.599" fill="white"/>
<g clip-path="url(#clip0_2975_20472)">
<g clip-path="url(#clip1_2975_20472)">
<path d="M21.8704 56.7013C21.8704 48.8056 21.8704 40.8258 21.8704 32.93C21.8704 32.51 21.9544 32.426 22.3744 32.426C24.3903 32.426 26.3223 32.426 28.3382 32.426C28.7582 32.426 28.8422 32.594 28.8422 32.93C28.8422 40.8258 28.8422 48.8056 28.8422 56.7013C28.6742 56.8693 28.5062 56.8693 28.2542 56.8693C26.3223 56.8693 24.3903 56.8693 22.4584 56.8693C22.2064 56.8693 22.0384 56.8693 21.8704 56.7013Z" fill="#FEE252"/>
<path d="M37.4938 45.0254C37.4938 48.8892 37.4938 52.8371 37.4938 56.701C37.3258 56.869 37.1578 56.869 36.9058 56.869C34.9739 56.869 33.0419 56.869 31.11 56.869C30.942 56.869 30.69 56.869 30.522 56.701C30.522 49.9812 30.522 43.1774 30.522 36.4576C30.522 35.8696 30.522 35.8696 31.11 35.8696C31.866 35.8696 32.6219 35.8696 33.3779 35.8696C33.5459 36.0376 33.4619 36.2056 33.3779 36.3736C32.8739 38.8935 33.5459 41.1615 35.2259 43.0934C35.7299 43.6814 36.4018 44.1854 37.0738 44.6054C37.2418 44.7734 37.4938 44.7734 37.4938 45.0254Z" fill="#FEAFA9"/>
<path d="M37.4936 45.024C36.4016 44.436 35.3936 43.6801 34.7216 42.6721C33.2937 40.6561 32.8737 38.5562 33.3777 36.1203C33.3777 36.0363 33.3777 35.9523 33.3777 35.8683C33.7977 34.6923 34.3016 33.6004 35.1416 32.6764C36.3176 31.4164 37.6615 30.6604 39.3415 30.3244C39.5095 30.3244 39.5935 30.2404 39.7615 30.1565C39.1735 30.1565 38.6695 30.1565 38.0815 30.1565C36.9896 30.1565 35.8136 30.1565 34.7216 30.1565C34.3856 30.1565 34.3016 30.0725 34.3016 29.7365C34.3016 29.4005 34.3016 29.1485 34.3016 28.8125C34.3016 28.4765 34.3856 28.3925 34.7216 28.3925C38.1655 28.3925 41.6934 28.3925 45.1373 28.3925C45.5573 28.3925 46.1453 28.2245 46.3133 28.4765C46.5653 28.7285 46.3973 29.3165 46.3973 29.7365C46.3973 30.0725 46.3133 30.1565 45.9773 30.1565C44.6333 30.1565 43.2894 30.1565 41.8614 30.1565C43.1214 30.4084 44.2134 30.8284 45.2213 31.5004C48.6652 33.8523 49.6732 38.6402 47.3213 42.1681C47.2373 42.2521 47.1533 42.4201 47.0693 42.5041C46.8173 43.0081 46.3973 43.4281 45.9773 43.8481C45.8093 44.0161 45.6413 44.268 45.3053 44.268C43.7934 45.276 42.1974 45.78 40.3495 45.696C39.5095 45.78 38.5015 45.444 37.4936 45.024Z" fill="#6E82B6"/>
<path d="M13.218 56.6999C13.218 55.524 13.218 54.264 13.218 53.088C13.218 49.8121 13.218 46.5362 13.218 43.2603C13.218 42.9243 13.302 42.8403 13.638 42.8403C15.6539 42.8403 17.6699 42.8403 19.6858 42.8403C20.0218 42.8403 20.1058 42.9243 20.1058 43.2603C20.1058 47.7122 20.1058 52.2481 20.1058 56.6999C19.9378 56.8679 19.7698 56.8679 19.5178 56.8679C17.5859 56.8679 15.6539 56.8679 13.722 56.8679C13.554 56.8679 13.386 56.8679 13.218 56.6999Z" fill="#97C969"/>
<path d="M13.218 56.7007C15.486 56.7007 17.8379 56.7007 20.1058 56.7007C20.6938 56.7007 21.2818 56.7007 21.8698 56.7007C24.2217 56.7007 26.4896 56.7007 28.8416 56.7007C29.4295 56.7007 30.0175 56.7007 30.6055 56.7007C32.9574 56.7007 35.2254 56.7007 37.5773 56.7007C38.1653 56.7007 38.7533 56.7007 39.3413 56.7007C39.5093 56.5327 39.6773 56.5327 39.9292 56.5327C41.8612 56.5327 43.7931 56.5327 45.7251 56.5327C45.8931 56.5327 46.1451 56.5327 46.3131 56.7007C49.421 56.7007 52.4449 56.7007 55.5528 56.7007C55.8888 56.7007 56.0568 56.7847 56.0568 57.2047C56.0568 57.5407 56.0568 57.7927 56.0568 58.1287C56.0568 58.4647 55.9728 58.4647 55.6368 58.4647C41.6932 58.4647 27.7496 58.4647 13.722 58.4647C13.386 58.4647 13.302 58.3807 13.302 58.0447C13.218 57.6247 13.218 57.2047 13.218 56.7007Z" fill="#6E82B6"/>
<path d="M15.3182 28.0576C14.2263 26.9656 13.5543 25.7057 13.3023 24.1937C12.8823 21.6738 13.6383 19.4898 15.4862 17.7259C16.8302 16.4659 18.5101 15.7939 20.3581 15.7939C20.5261 15.9619 20.5261 16.1299 20.5261 16.2979C20.5261 18.4819 20.5261 20.6658 20.5261 22.8497C20.5261 23.1017 20.3581 23.2697 20.1901 23.4377C18.6781 24.9497 17.2502 26.3776 15.7382 27.8896C15.6542 27.9736 15.4862 28.0576 15.3182 28.0576Z" fill="#80D5FA"/>
<path d="M46.1454 56.7008C43.7935 56.7008 41.5255 56.7008 39.1736 56.7008C39.1736 54.5169 39.1736 52.3329 39.1736 50.233C39.1736 49.897 39.2576 49.813 39.5936 49.813C41.6095 49.813 43.6255 49.813 45.7254 49.813C46.0614 49.813 46.1454 49.897 46.1454 50.233C46.1454 52.4169 46.1454 54.6009 46.1454 56.7008Z" fill="#7FD5FA"/>
<path d="M20.4423 23.0175C20.4423 20.5816 20.4423 18.2297 20.4423 15.7937C24.3062 15.7097 27.7501 19.1536 27.6661 23.0175C27.5821 23.1015 27.4141 23.1855 27.2461 23.1855C25.1462 23.1855 23.0462 23.1855 20.9463 23.1855C20.8623 23.1855 20.7783 23.1855 20.6943 23.1855C20.5263 23.1015 20.4423 23.0175 20.4423 23.0175Z" fill="#FEAFA9"/>
<path d="M20.442 23.0173C20.694 23.1013 20.778 23.1853 20.946 23.2693C22.3739 24.6973 23.8019 26.1252 25.3138 27.6372C25.3978 27.7212 25.5658 27.8052 25.5658 28.0572C24.5579 29.1492 23.2139 29.8211 21.7859 30.0731C19.434 30.4931 17.4181 29.8211 15.6541 28.3092C15.5701 28.2252 15.4861 28.1412 15.4861 28.0572C16.9981 26.3772 18.678 24.6973 20.442 23.0173Z" fill="#97C969"/>
<path d="M48.161 43.5133C48.245 43.5133 48.329 43.5133 48.413 43.4293C48.581 43.1773 48.665 43.2613 48.833 43.4293L48.917 43.5133C51.101 45.6972 53.3689 47.9652 55.5528 50.1491C55.8048 50.4011 55.8048 50.5691 55.5528 50.8211C54.8809 51.4091 54.2929 52.0811 53.7049 52.669C53.5369 52.837 53.4529 52.837 53.2849 52.669C51.017 50.4011 48.749 48.1332 46.4811 45.8652C46.1451 45.5292 46.6491 45.4452 46.5651 45.1933C46.9851 44.6053 47.5731 44.0173 48.161 43.5133Z" fill="#6E82B6"/>
<path d="M40.4331 17.054C42.3651 17.054 44.213 17.054 46.145 17.054C46.481 17.054 46.565 17.138 46.565 17.4739C46.481 17.8939 46.733 18.4819 46.481 18.7339C46.229 18.9859 45.641 18.8179 45.221 18.8179C41.7771 18.8179 38.3332 18.8179 34.8893 18.8179C34.5533 18.8179 34.3853 18.7339 34.4693 18.3979C34.4693 18.1459 34.4693 17.8099 34.4693 17.5579C34.4693 17.222 34.5533 17.054 34.9733 17.054C36.6532 17.054 38.5852 17.054 40.4331 17.054Z" fill="#6E82B6"/>
<path d="M40.5178 20.8327C42.3657 20.8327 44.2137 20.8327 46.1456 20.8327C46.4816 20.8327 46.6496 20.9167 46.5656 21.2527C46.5656 21.5047 46.5656 21.8407 46.5656 22.0927C46.5656 22.4286 46.4816 22.5126 46.1456 22.5126C42.7017 22.5126 39.1738 22.5126 35.7299 22.5126C35.3939 22.5126 35.0579 22.5126 34.8059 22.5126C34.554 22.5126 34.47 22.4286 34.47 22.1766C34.47 21.7567 34.302 21.1687 34.554 20.9167C34.8059 20.6647 35.3939 20.8327 35.8139 20.8327C37.3259 20.8327 38.9218 20.8327 40.5178 20.8327Z" fill="#6E82B6"/>
<path d="M40.4337 26.3775C38.5018 26.3775 36.6538 26.3775 34.7219 26.3775C34.3859 26.3775 34.3019 26.2935 34.3019 25.9575C34.3019 25.7055 34.3019 25.3695 34.3019 25.1175C34.3019 24.7815 34.3859 24.6135 34.8059 24.6135C37.4938 24.6135 40.1817 24.6135 42.8696 24.6135C43.9616 24.6135 45.0536 24.6135 46.1456 24.6135C46.3975 24.6135 46.4815 24.6975 46.4815 24.9495C46.3975 25.3695 46.6495 25.9575 46.3975 26.2935C46.1456 26.5455 45.5576 26.3775 45.1376 26.3775C43.5416 26.3775 42.0297 26.3775 40.4337 26.3775Z" fill="#6E82B6"/>
<path d="M25.4821 28.0572C23.8022 26.3772 22.1222 24.6973 20.4423 23.0173C22.7942 23.0173 25.1462 23.0173 27.5821 23.0173C27.5821 24.9493 26.9101 26.6292 25.4821 28.0572Z" fill="#FEE252"/>
<path d="M32.6216 17.3059C32.6216 17.7259 32.6216 18.0619 32.6216 18.4819C32.6216 18.7339 32.5376 18.8179 32.3696 18.8179C31.6136 18.8179 30.7737 18.8179 30.0177 18.8179C29.7657 18.8179 29.7657 18.7339 29.7657 18.4819C29.7657 17.7259 29.7657 16.8859 29.7657 16.1299C29.7657 15.8779 29.8497 15.7939 30.1017 15.7939C30.8577 15.7939 31.6136 15.7939 32.3696 15.7939C32.6216 15.7939 32.7056 15.8779 32.7056 16.1299C32.6216 16.5499 32.6216 16.8859 32.6216 17.3059Z" fill="#7FD5FA"/>
<path d="M32.6216 21.1697C32.5376 21.5897 32.7896 22.1777 32.5376 22.4296C32.2016 22.6816 31.6136 22.5136 31.1937 22.5136C30.8577 22.5136 30.4377 22.5136 30.1017 22.5136C29.8497 22.5136 29.7657 22.4296 29.7657 22.1777C29.7657 21.4217 29.7657 20.6657 29.7657 19.9097C29.7657 19.6577 29.8497 19.5737 30.1017 19.5737C30.8577 19.5737 31.6136 19.5737 32.3696 19.5737C32.7056 19.5737 32.7056 19.6577 32.7056 19.9937C32.6216 20.3297 32.6216 20.7497 32.6216 21.1697Z" fill="#FEAFA9"/>
<path d="M31.1935 23.4378C31.5295 23.4378 31.9495 23.4378 32.2855 23.4378C32.5374 23.4378 32.6214 23.5218 32.6214 23.6897C32.6214 24.4457 32.6214 25.2857 32.6214 26.0417C32.6214 26.2937 32.5374 26.2937 32.2855 26.2937C31.5295 26.2937 30.6895 26.2937 29.9335 26.2937C29.6815 26.2937 29.5975 26.2097 29.5975 25.9577C29.5975 25.2017 29.5975 24.4457 29.5975 23.6897C29.5975 23.4378 29.6815 23.3538 29.9335 23.3538C30.4375 23.4378 30.7735 23.4378 31.1935 23.4378Z" fill="#FEE252"/>
<path d="M29.6815 28.7292C29.6815 28.3093 29.6815 27.9733 29.6815 27.5533C29.6815 27.3013 29.7655 27.2173 29.9335 27.2173C30.6895 27.2173 31.5295 27.2173 32.2855 27.2173C32.5374 27.2173 32.5374 27.3013 32.5374 27.5533C32.5374 28.3093 32.5374 29.1492 32.5374 29.9052C32.5374 30.1572 32.4535 30.2412 32.2015 30.2412C31.4455 30.2412 30.6895 30.2412 29.9335 30.2412C29.6815 30.2412 29.5975 30.1572 29.5975 29.9052C29.6815 29.4852 29.6815 29.0652 29.6815 28.7292Z" fill="#97C969"/>
<path d="M48.161 43.5133C47.825 44.1013 47.321 44.4373 46.901 44.8573C46.733 45.0253 46.649 45.1933 46.397 45.1933C46.1451 44.9413 45.8091 44.6053 45.5571 44.3533C46.229 43.8493 46.817 43.2613 47.321 42.5894C47.573 42.9253 47.825 43.1773 48.161 43.5133Z" fill="#466089"/>
<path d="M46.9852 37.9685C46.9852 41.3284 44.2133 44.0163 40.8534 44.0163C37.4935 44.0163 34.8055 41.2444 34.8055 37.9685C34.8055 34.6086 37.5775 31.9207 40.9374 31.9207C44.2973 31.9207 46.9852 34.6926 46.9852 37.9685Z" fill="#7FD5FA"/>
</g>
</g>
<defs>
<clipPath id="clip0_2975_20472">
<rect width="47.0386" height="44.1827" fill="white" transform="translate(10.1107 14.2808)"/>
</clipPath>
<clipPath id="clip1_2975_20472">
<rect width="47.0386" height="44.1827" fill="white" transform="translate(10.1109 14.2812)"/>
</clipPath>
</defs>
</svg>
