<svg width="68" height="68" viewBox="0 0 68 68" fill="none" xmlns="http://www.w3.org/2000/svg">
<rect x="0.571533" y="0.494385" width="67.1981" height="67.1981" rx="33.599" fill="white"/>
<g clip-path="url(#clip0_2975_20364)">
<g clip-path="url(#clip1_2975_20364)">
<path d="M50.634 46.0068C51.978 46.0068 53.238 46.0068 54.5819 46.0068C55.1699 46.0068 55.4219 46.4268 55.7579 46.8468C55.7579 49.6187 55.7579 52.4746 55.7579 55.2466C55.6739 55.6666 55.3379 56.0025 54.9179 56.0865C48.1141 56.0865 41.3103 56.0865 34.5065 56.0865C34.4225 55.9185 34.3385 55.7506 34.3385 55.5826C34.3385 54.2386 34.3385 52.8106 34.3385 51.4667C34.3385 51.2987 34.3385 51.2147 34.4225 51.0467C34.5065 50.8787 34.6745 50.8787 34.7585 50.8787C35.3465 50.6267 35.5985 50.2907 35.5985 49.7027C35.5985 48.6948 35.5985 47.6868 35.5985 46.5948C35.5985 46.4268 35.5985 46.1748 35.6825 46.0068C36.5224 46.0068 37.3624 46.0068 38.2024 46.0068C38.3704 46.1748 38.2864 46.4268 38.2864 46.5948C38.2864 47.6028 38.2864 48.6108 38.2864 49.6187C38.2864 50.0387 38.3704 50.3747 38.7904 50.6267C39.1264 50.8787 39.5464 50.8787 39.9663 50.7107C40.3863 50.4587 40.5543 50.1227 40.5543 49.7027C40.5543 48.6948 40.5543 47.6868 40.5543 46.5948C40.5543 46.4268 40.5543 46.1748 40.6383 46.0068C41.4783 46.0068 42.3183 46.0068 43.1582 46.0068C43.3262 46.1748 43.2422 46.4268 43.2422 46.5948C43.2422 47.6028 43.2422 48.6108 43.2422 49.6187C43.2422 50.0387 43.3262 50.3747 43.7462 50.6267C44.0822 50.8787 44.5022 50.8787 44.9222 50.7107C45.3422 50.4587 45.5102 50.1227 45.5102 49.7027C45.5102 48.6948 45.5102 47.6868 45.5102 46.5948C45.5102 46.4268 45.5102 46.1748 45.5942 46.0068C46.4341 46.0068 47.2741 46.0068 48.1141 46.0068C48.2821 46.1748 48.1981 46.4268 48.1981 46.5948C48.1981 47.6028 48.1981 48.6108 48.1981 49.6187C48.1981 50.0387 48.2821 50.3747 48.7021 50.6267C49.0381 50.8787 49.4581 50.8787 49.8781 50.7107C50.298 50.4587 50.466 50.1227 50.466 49.7027C50.466 48.6948 50.466 47.6868 50.466 46.5948C50.55 46.4268 50.466 46.1748 50.634 46.0068Z" fill="#FE9833"/>
<path d="M34.4223 51.0467C34.4223 52.7266 34.4223 54.4066 34.4223 56.0865C27.6185 56.0865 20.8147 56.0865 14.0949 56.0865C13.5909 56.0025 13.2549 55.6666 13.1709 55.1626C13.1709 52.3906 13.1709 49.7027 13.1709 46.9308C13.5069 46.2588 14.0109 46.0068 14.7669 46.0068C15.9428 46.0908 17.0348 46.0068 18.2108 46.0068C18.3787 46.1748 18.2947 46.4268 18.2947 46.5948C18.2947 47.6028 18.2947 48.6108 18.2947 49.6187C18.2947 50.0387 18.3787 50.3747 18.7987 50.6267C19.1347 50.8787 19.5547 50.8787 19.9747 50.7107C20.3947 50.4587 20.5627 50.1227 20.5627 49.7027C20.5627 48.6948 20.5627 47.6868 20.5627 46.5948C20.5627 46.4268 20.5627 46.1748 20.6467 46.0068C21.4867 46.0068 22.3266 46.0068 23.1666 46.0068C23.3346 46.1748 23.2506 46.4268 23.2506 46.5948C23.2506 47.6028 23.2506 48.6108 23.2506 49.6187C23.2506 50.0387 23.3346 50.3747 23.7546 50.6267C24.0906 50.8787 24.5106 50.8787 24.9306 50.7107C25.3505 50.4587 25.5185 50.1227 25.5185 49.7027C25.5185 48.6948 25.5185 47.6868 25.5185 46.5948C25.5185 46.4268 25.5185 46.1748 25.6025 46.0068C26.4425 46.0068 27.2825 46.0068 28.1225 46.0068C28.2905 46.1748 28.2065 46.4268 28.2065 46.5948C28.2065 47.6028 28.2065 48.6108 28.2065 49.6187C28.2065 50.0387 28.2905 50.3747 28.7104 50.6267C29.0464 50.8787 29.4664 50.8787 29.8864 50.7107C30.3064 50.4587 30.4744 50.1227 30.4744 49.7027C30.4744 48.6948 30.4744 47.6868 30.4744 46.5948C30.4744 46.4268 30.4744 46.1748 30.5584 46.0068C31.3984 46.0068 32.2383 46.0068 33.0783 46.0068C33.2463 46.1748 33.1623 46.3428 33.1623 46.5948C33.1623 47.4348 33.1623 48.3588 33.1623 49.1987C33.2463 50.0387 33.4983 50.7107 34.4223 51.0467C34.4223 50.9627 34.4223 50.9627 34.4223 51.0467Z" fill="#FEBA33"/>
<path d="M49.6256 13.5005C49.9616 13.6685 50.2976 13.8365 50.5496 14.1725C51.3056 14.9284 51.9775 15.6004 52.7335 16.3564C53.4055 17.1124 53.1535 18.2044 52.2295 18.4563C51.8095 18.5403 51.4735 18.4563 51.1376 18.2044C50.9696 18.1204 50.8856 17.9524 50.7176 17.8684C50.7176 25.0082 50.7176 32.0639 50.7176 39.2037C50.8856 39.2037 50.9696 39.0357 51.0536 38.9517C51.5575 38.5318 52.3135 38.5318 52.8175 38.9517C53.3215 39.4557 53.3215 40.2117 52.8175 40.7157C51.9775 41.5557 51.1376 42.3956 50.2976 43.2356C49.7936 43.7396 49.0376 43.7396 48.5336 43.1516C47.6937 42.3957 46.9377 41.5557 46.0977 40.7157C45.5937 40.2117 45.5937 39.4557 46.0137 38.9517C46.5177 38.4478 47.2737 38.4478 47.8617 38.9517C47.9456 39.0357 48.0296 39.1197 48.1976 39.2037C48.1976 32.0639 48.1976 24.9242 48.1976 17.7844C48.0296 17.9524 47.9456 18.0364 47.8617 18.1204C47.3577 18.5403 46.6017 18.5403 46.0977 18.1204C45.5937 17.6164 45.5937 16.8604 46.0977 16.3564C46.9377 15.5164 47.7777 14.6765 48.6176 13.8365C48.7856 13.6685 49.0376 13.5845 49.2056 13.5005C49.2896 13.5005 49.4576 13.5005 49.6256 13.5005Z" fill="#384949"/>
<path d="M29.8027 13.5005C30.7266 14.0045 31.3986 14.7605 32.2386 15.4324C36.5225 18.9603 40.8063 22.5722 45.0902 26.1841C45.5102 26.5201 45.7622 26.9401 45.6782 27.5281C45.5942 28.0321 45.3422 28.2841 44.8382 28.4521C44.4182 28.62 43.9982 28.5361 43.6623 28.2001C43.4943 28.1161 43.4103 27.9481 43.2423 27.8641C42.8223 27.6961 42.5703 27.3601 42.2343 27.1081C40.8063 25.9321 39.3784 24.7562 37.9504 23.4962C35.1785 21.2283 32.4906 18.9603 29.7187 16.6924C29.5507 16.6084 29.4667 16.4404 29.3827 16.2724C29.2987 15.5164 29.3827 14.6765 29.3827 13.9205C29.3827 13.7525 29.3827 13.6685 29.4667 13.5005C29.5507 13.5005 29.7187 13.5005 29.8027 13.5005Z" fill="#E56B2E"/>
<path d="M29.4664 13.5005C29.4664 14.4245 29.4664 15.4324 29.4664 16.3564C29.4664 16.3564 29.4664 16.3564 29.4664 16.4404C29.0464 16.9444 28.4585 17.3644 27.9545 17.7844C25.6865 19.6323 23.5026 21.4803 21.2347 23.3282C21.1507 23.4122 21.0667 23.4122 20.9827 23.4962C19.3027 24.8402 17.7068 26.2681 16.0268 27.6121C15.9428 27.6961 15.7748 27.7801 15.6068 27.8641C15.5228 27.9481 15.3548 28.0321 15.2708 28.1161C14.5989 28.62 13.6749 28.4521 13.3389 27.6961C13.2549 27.6961 13.1709 27.6121 13.1709 27.6121C13.1709 27.3601 13.1709 27.1921 13.1709 26.9401C13.3389 26.6041 13.5909 26.2681 13.9269 26.0161C18.7987 21.9842 23.6706 17.9524 28.5425 13.9205C28.7104 13.7525 28.9624 13.6685 29.2144 13.5845C29.2984 13.5005 29.3824 13.5005 29.4664 13.5005Z" fill="#FE9833"/>
<path d="M37.9501 23.4956C39.714 24.9236 41.478 26.3516 43.1579 27.8635C43.1579 28.0315 43.1579 28.2835 43.1579 28.4515C42.9899 28.6195 42.7379 28.5355 42.4859 28.5355C39.966 28.5355 37.4461 28.5355 35.0102 28.5355C34.8422 28.5355 34.6742 28.5355 34.5062 28.5355C33.8342 28.6195 33.4982 29.0395 33.4142 29.6275C33.4142 29.7955 33.4142 29.8795 33.4142 30.0475C33.4142 32.3154 33.4142 34.4993 33.4142 36.7673C33.4142 37.9432 33.8342 38.2792 34.9262 38.2792C37.4461 38.2792 39.966 38.2792 42.4859 38.2792C42.7379 38.2792 42.9899 38.1952 43.1579 38.3632C43.1579 39.6232 43.1579 40.8831 43.1579 42.1431C43.1579 42.8151 42.6539 43.3191 41.982 43.3191C38.2021 43.3191 34.5062 43.3191 30.7263 43.3191C30.5583 43.0671 30.6423 42.8151 30.6423 42.5631C30.6423 38.5312 30.6423 34.4153 30.6423 30.3834C30.6423 30.2155 30.6423 30.1315 30.6423 29.9635C30.6423 28.9555 30.5583 28.7035 29.5503 28.3675C29.4663 28.3675 29.4663 28.2835 29.4663 28.2835C29.3823 28.1155 29.3823 27.9475 29.3823 27.8635C29.3823 26.5196 29.3823 25.2596 29.3823 23.9156C29.3823 23.7476 29.3823 23.4956 29.4663 23.3277C29.6343 23.1597 29.8023 23.2437 30.0543 23.2437C32.4902 23.2437 34.9262 23.2437 37.3621 23.2437C37.5301 23.3277 37.6981 23.4117 37.9501 23.4956Z" fill="#D2D2D7"/>
<path d="M29.4668 23.4963C29.4668 25.1763 29.4668 26.7723 29.4668 28.4522C29.2988 28.6202 29.0468 28.6202 28.7948 28.6202C26.6949 28.6202 24.5949 28.6202 22.495 28.6202C22.327 28.6202 22.159 28.6202 21.991 28.6202C21.319 28.7042 20.899 29.1242 20.815 29.7962C20.815 29.9642 20.815 30.1322 20.815 30.3002C20.815 34.5 20.815 38.6159 20.815 42.8158C20.815 43.0678 20.899 43.3198 20.731 43.5718C19.4711 43.5718 18.2111 43.5718 17.0351 43.5718C16.1952 43.5718 15.6912 43.0678 15.6912 42.2278C15.6912 37.6079 15.6912 33.0721 15.6912 28.4522C15.6912 28.2842 15.7752 28.1162 15.6072 27.9482C17.3711 26.5203 19.1351 25.0083 20.899 23.5803C21.151 23.4963 21.403 23.4124 21.655 23.4124C24.0909 23.4124 26.4429 23.4124 28.8788 23.4124C29.0468 23.3284 29.2148 23.3284 29.4668 23.4963Z" fill="#EBEBF0"/>
<path d="M20.7307 43.4882C20.7307 39.2043 20.7307 34.9204 20.7307 30.6366C20.7307 30.3846 20.7307 30.0486 20.7307 29.7966C20.7307 28.9566 21.2347 28.4526 22.0747 28.4526C24.4266 28.4526 26.6945 28.4526 29.0465 28.4526C29.2145 28.4526 29.2985 28.4526 29.4665 28.4526C29.6345 28.6206 29.6345 28.7886 29.6345 29.0406C29.6345 33.6605 29.6345 38.2804 29.6345 42.9842C29.6345 43.1522 29.6345 43.4042 29.4665 43.5722C26.5265 43.4882 23.6706 43.4882 20.7307 43.4882Z" fill="#4A696F"/>
<path d="M43.1578 38.5323C40.2179 38.5323 37.362 38.5323 34.4221 38.5323C33.7501 38.5323 33.1621 37.9444 33.1621 37.2724C33.1621 34.7525 33.1621 32.2325 33.1621 29.7126C33.1621 29.0406 33.7501 28.4526 34.4221 28.4526C37.362 28.4526 40.2179 28.4526 43.1578 28.4526C43.1578 31.8125 43.1578 35.1724 43.1578 38.5323Z" fill="#6AA8FE"/>
<path d="M29.4668 43.4882C29.4668 38.4483 29.4668 33.4925 29.4668 28.4526C30.2228 28.4526 30.7268 28.9566 30.7268 29.7126C30.7268 32.4845 30.7268 35.2564 30.7268 38.0284C30.7268 39.7923 30.7268 41.6403 30.7268 43.4042C30.3068 43.4882 29.8868 43.4882 29.4668 43.4882Z" fill="#384949"/>
<path d="M20.7306 46.0068C20.7306 47.1828 20.7306 48.4428 20.7306 49.6187C20.7306 50.4587 20.2266 50.9627 19.4707 50.9627C18.7147 50.9627 18.2107 50.3747 18.2107 49.6187C18.2107 48.4428 18.2107 47.1828 18.2107 46.0068C19.0507 46.0068 19.8906 46.0068 20.7306 46.0068Z" fill="#4A696F"/>
<path d="M25.6869 46.0068C25.6869 47.1828 25.6869 48.4428 25.6869 49.6187C25.6869 50.4587 25.1829 50.9627 24.427 50.9627C23.671 50.9627 23.167 50.3747 23.167 49.6187C23.167 48.4428 23.167 47.1828 23.167 46.0068C24.091 46.0068 24.8469 46.0068 25.6869 46.0068Z" fill="#4A696F"/>
<path d="M30.7267 46.0068C30.7267 47.1828 30.7267 48.4428 30.7267 49.6187C30.7267 50.4587 30.2227 50.9627 29.4668 50.9627C28.7108 50.9627 28.2068 50.3747 28.2068 49.6187C28.2068 48.4428 28.2068 47.1828 28.2068 46.0068C29.0468 46.0068 29.8867 46.0068 30.7267 46.0068Z" fill="#4A696F"/>
<path d="M40.6382 46.0068C40.6382 47.1828 40.6382 48.4428 40.6382 49.6187C40.6382 50.4587 40.1342 50.9627 39.3782 50.9627C38.6223 50.9627 38.1183 50.3747 38.1183 49.6187C38.1183 48.4428 38.1183 47.1828 38.1183 46.0068C39.0423 46.0068 39.8822 46.0068 40.6382 46.0068Z" fill="#384949"/>
<path d="M45.6781 46.0068C45.6781 47.1828 45.6781 48.4428 45.6781 49.6187C45.6781 50.4587 45.1741 50.9627 44.4182 50.9627C43.6622 50.9627 43.1582 50.3747 43.1582 49.6187C43.1582 48.4428 43.1582 47.1828 43.1582 46.0068C43.9982 46.0068 44.8382 46.0068 45.6781 46.0068Z" fill="#384949"/>
<path d="M50.6335 46.0068C50.6335 47.1828 50.6335 48.4428 50.6335 49.6187C50.6335 50.4587 50.1295 50.9627 49.3735 50.9627C48.6175 50.9627 48.1135 50.3747 48.1135 49.6187C48.1135 48.4428 48.1135 47.1828 48.1135 46.0068C48.9535 46.0068 49.7935 46.0068 50.6335 46.0068Z" fill="#384949"/>
<path d="M35.6819 46.0073C35.6819 47.1833 35.6819 48.4433 35.6819 49.6192C35.6819 50.4592 35.2619 50.8792 34.4219 50.9632C34.2539 50.7952 34.2539 50.6272 34.2539 50.3752C34.2539 49.1152 34.2539 47.7713 34.2539 46.5113C34.2539 46.3433 34.2539 46.0913 34.4219 45.9233C34.8419 46.0073 35.2619 46.0073 35.6819 46.0073Z" fill="#384949"/>
<path d="M34.4221 46.0068C34.4221 47.6868 34.4221 49.2827 34.4221 50.9627C33.6661 50.9627 33.1621 50.4587 33.1621 49.7027C33.1621 48.4428 33.1621 47.2668 33.1621 46.0068C33.5821 46.0068 34.0021 46.0068 34.4221 46.0068Z" fill="#4A696F"/>
<path d="M37.9503 23.4965C35.0944 23.4965 32.3225 23.4965 29.4666 23.4965C29.2986 23.3285 29.2986 23.1605 29.2986 22.9085C29.2986 20.8926 29.2986 18.9606 29.2986 16.9447C29.2986 16.7767 29.2986 16.5247 29.4666 16.3567C32.2385 18.7926 35.0944 21.0606 37.9503 23.4965Z" fill="#B9B9BF"/>
<path d="M29.4666 16.4404C29.4666 18.7924 29.4666 21.1443 29.4666 23.4962C26.6106 23.4962 23.7547 23.4962 20.8988 23.4962C22.6628 21.9843 24.5107 20.4723 26.2746 19.0444C27.1986 18.2884 28.0386 17.5324 28.9626 16.8604C29.1306 16.6924 29.2146 16.5244 29.4666 16.4404Z" fill="#D2D2D7"/>
</g>
</g>
<defs>
<clipPath id="clip0_2975_20364">
<rect width="43.3427" height="42.7548" fill="white" transform="translate(12.3308 13.3328)"/>
</clipPath>
<clipPath id="clip1_2975_20364">
<rect width="43.3427" height="42.7548" fill="white" transform="translate(12.3308 13.3328)"/>
</clipPath>
</defs>
</svg>
