<svg width="48" height="49" viewBox="0 0 48 49" fill="none" xmlns="http://www.w3.org/2000/svg">
<rect y="0.613525" width="48" height="48" rx="24" fill="#FEDBD7"/>
<g clip-path="url(#clip0_13289_746)">
<path d="M15.6011 40.313C15.6011 34.6737 15.6011 28.9744 15.6011 23.3351C15.6011 23.0351 15.6611 22.9751 15.961 22.9751C17.4009 22.9751 18.7807 22.9751 20.2205 22.9751C20.5205 22.9751 20.5805 23.0951 20.5805 23.3351C20.5805 28.9744 20.5805 34.6737 20.5805 40.313C20.4605 40.433 20.3405 40.433 20.1605 40.433C18.7807 40.433 17.4009 40.433 16.021 40.433C15.841 40.433 15.7211 40.433 15.6011 40.313Z" fill="#FEE252"/>
<path d="M26.7598 31.974C26.7598 34.7337 26.7598 37.5534 26.7598 40.313C26.6398 40.433 26.5198 40.433 26.3399 40.433C24.96 40.433 23.5802 40.433 22.2003 40.433C22.0804 40.433 21.9004 40.433 21.7804 40.313C21.7804 35.5136 21.7804 30.6542 21.7804 25.8548C21.7804 25.4348 21.7804 25.4348 22.2003 25.4348C22.7403 25.4348 23.2802 25.4348 23.8202 25.4348C23.9401 25.5548 23.8801 25.6748 23.8202 25.7948C23.4602 27.5946 23.9401 29.2144 25.14 30.5942C25.5 31.0142 25.9799 31.3741 26.4598 31.6741C26.5798 31.7941 26.7598 31.7941 26.7598 31.974Z" fill="#FEAFA9"/>
<path d="M26.7598 31.974C25.9799 31.5541 25.26 31.0142 24.78 30.2942C23.7601 28.8544 23.4602 27.3546 23.8201 25.6148C23.8201 25.5548 23.8201 25.4948 23.8201 25.4348C24.1201 24.5949 24.4801 23.815 25.08 23.1551C25.9199 22.2552 26.8798 21.7153 28.0796 21.4753C28.1996 21.4753 28.2596 21.4153 28.3796 21.3553C27.9596 21.3553 27.5997 21.3553 27.1797 21.3553C26.3998 21.3553 25.5599 21.3553 24.78 21.3553C24.54 21.3553 24.4801 21.2953 24.4801 21.0553C24.4801 20.8154 24.4801 20.6354 24.4801 20.3954C24.4801 20.1554 24.54 20.0955 24.78 20.0955C27.2397 20.0955 29.7594 20.0955 32.2191 20.0955C32.5191 20.0955 32.939 19.9755 33.059 20.1554C33.239 20.3354 33.119 20.7554 33.119 21.0553C33.119 21.2953 33.059 21.3553 32.8191 21.3553C31.8592 21.3553 30.8993 21.3553 29.8794 21.3553C30.7793 21.5353 31.5592 21.8352 32.2791 22.3152C34.7388 23.995 35.4587 27.4146 33.7789 29.9343C33.719 29.9943 33.659 30.1143 33.599 30.1743C33.419 30.5342 33.119 30.8342 32.8191 31.1341C32.6991 31.2541 32.5791 31.4341 32.3391 31.4341C31.2592 32.154 30.1194 32.514 28.7995 32.454C28.1996 32.514 27.4797 32.274 26.7598 31.974Z" fill="#6E82B6"/>
<path d="M9.42188 40.313C9.42188 39.4731 9.42188 38.5732 9.42188 37.7333C9.42188 35.3936 9.42188 33.0539 9.42188 30.7141C9.42188 30.4742 9.48187 30.4142 9.72184 30.4142C11.1617 30.4142 12.6015 30.4142 14.0413 30.4142C14.2813 30.4142 14.3413 30.4742 14.3413 30.7141C14.3413 33.8938 14.3413 37.1334 14.3413 40.313C14.2213 40.433 14.1013 40.433 13.9213 40.433C12.5415 40.433 11.1617 40.433 9.78183 40.433C9.66185 40.433 9.54186 40.433 9.42188 40.313Z" fill="#97C969"/>
<path d="M9.42188 40.3131C11.0417 40.3131 12.7215 40.3131 14.3413 40.3131C14.7612 40.3131 15.1812 40.3131 15.6011 40.3131C17.2809 40.3131 18.9007 40.3131 20.5805 40.3131C21.0005 40.3131 21.4204 40.3131 21.8404 40.3131C23.5202 40.3131 25.14 40.3131 26.8198 40.3131C27.2398 40.3131 27.6597 40.3131 28.0797 40.3131C28.1996 40.1931 28.3196 40.1931 28.4996 40.1931C29.8794 40.1931 31.2593 40.1931 32.6391 40.1931C32.7591 40.1931 32.9391 40.1931 33.0591 40.3131C35.2788 40.3131 37.4385 40.3131 39.6583 40.3131C39.8983 40.3131 40.0182 40.3731 40.0182 40.6731C40.0182 40.913 40.0182 41.093 40.0182 41.333C40.0182 41.573 39.9582 41.573 39.7183 41.573C29.7595 41.573 19.8006 41.573 9.78183 41.573C9.54186 41.573 9.48187 41.513 9.48187 41.273C9.42187 40.973 9.42188 40.6731 9.42188 40.3131Z" fill="#6E82B6"/>
<path d="M10.9216 19.8555C10.1417 19.0756 9.66179 18.1757 9.48182 17.0958C9.18185 15.2961 9.72179 13.7362 11.0416 12.4764C12.0015 11.5765 13.2014 11.0966 14.5212 11.0966C14.6412 11.2165 14.6412 11.3365 14.6412 11.4565C14.6412 13.0163 14.6412 14.5761 14.6412 16.136C14.6412 16.3159 14.5212 16.4359 14.4012 16.5559C13.3214 17.6358 12.3015 18.6557 11.2216 19.7355C11.1616 19.7955 11.0416 19.8555 10.9216 19.8555Z" fill="#80D5FA"/>
<path d="M32.9396 40.3137C31.2596 40.3137 29.6396 40.3137 27.9596 40.3137C27.9596 38.7537 27.9596 37.1937 27.9596 35.6937C27.9596 35.4537 28.0196 35.3937 28.2596 35.3937C29.6996 35.3937 31.1396 35.3937 32.6396 35.3937C32.8796 35.3937 32.9396 35.4537 32.9396 35.6937C32.9396 37.2537 32.9396 38.8137 32.9396 40.3137Z" fill="#7FD5FA"/>
<path d="M14.5812 16.2559C14.5812 14.5161 14.5812 12.8363 14.5812 11.0965C17.3408 11.0365 19.8006 13.4962 19.7406 16.2559C19.6806 16.3159 19.5606 16.3759 19.4406 16.3759C17.9408 16.3759 16.441 16.3759 14.9411 16.3759C14.8811 16.3759 14.8211 16.3759 14.7612 16.3759C14.6412 16.3159 14.5812 16.2559 14.5812 16.2559Z" fill="#FEAFA9"/>
<path d="M14.5812 16.2559C14.7612 16.3159 14.8212 16.3758 14.9412 16.4358C15.961 17.4557 16.9809 18.4756 18.0608 19.5555C18.1208 19.6155 18.2408 19.6755 18.2408 19.8554C17.5209 20.6353 16.561 21.1153 15.5411 21.2953C13.8613 21.5952 12.4215 21.1153 11.1616 20.0354C11.1016 19.9754 11.0416 19.9154 11.0416 19.8554C12.1215 18.6556 13.3214 17.4557 14.5812 16.2559Z" fill="#97C969"/>
<path d="M34.3789 30.8942C34.4389 30.8942 34.4989 30.8942 34.5589 30.8342C34.6789 30.6542 34.7389 30.7142 34.8588 30.8342L34.9188 30.8942C36.4786 32.454 38.0985 34.0738 39.6583 35.6336C39.8382 35.8136 39.8382 35.9336 39.6583 36.1135C39.1783 36.5335 38.7584 37.0134 38.3384 37.4334C38.2184 37.5534 38.1584 37.5534 38.0385 37.4334C36.4187 35.8136 34.7988 34.1938 33.179 32.574C32.9391 32.334 33.299 32.274 33.239 32.094C33.539 31.6741 33.9589 31.2541 34.3789 30.8942Z" fill="#6E82B6"/>
<path d="M28.8595 11.9965C30.2393 11.9965 31.5592 11.9965 32.939 11.9965C33.179 11.9965 33.239 12.0565 33.239 12.2964C33.179 12.5964 33.359 13.0163 33.179 13.1963C32.999 13.3763 32.5791 13.2563 32.2791 13.2563C29.8194 13.2563 27.3597 13.2563 24.9 13.2563C24.66 13.2563 24.54 13.1963 24.6 12.9563C24.6 12.7764 24.6 12.5364 24.6 12.3564C24.6 12.1164 24.66 11.9965 24.96 11.9965C26.1598 11.9965 27.5397 11.9965 28.8595 11.9965Z" fill="#6E82B6"/>
<path d="M28.9195 14.6962C30.2393 14.6962 31.5591 14.6962 32.939 14.6962C33.179 14.6962 33.2989 14.7562 33.2389 14.9961C33.2389 15.1761 33.2389 15.4161 33.2389 15.5961C33.2389 15.836 33.179 15.896 32.939 15.896C30.4793 15.896 27.9596 15.896 25.4999 15.896C25.2599 15.896 25.0199 15.896 24.8399 15.896C24.66 15.896 24.6 15.836 24.6 15.656C24.6 15.3561 24.48 14.9361 24.66 14.7562C24.8399 14.5762 25.2599 14.6962 25.5599 14.6962C26.6397 14.6962 27.7796 14.6962 28.9195 14.6962Z" fill="#6E82B6"/>
<path d="M28.8595 18.6556C27.4796 18.6556 26.1598 18.6556 24.7799 18.6556C24.54 18.6556 24.48 18.5956 24.48 18.3556C24.48 18.1757 24.48 17.9357 24.48 17.7557C24.48 17.5157 24.54 17.3958 24.8399 17.3958C26.7597 17.3958 28.6795 17.3958 30.5993 17.3958C31.3792 17.3958 32.1591 17.3958 32.939 17.3958C33.119 17.3958 33.1789 17.4557 33.1789 17.6357C33.119 17.9357 33.2989 18.3556 33.119 18.5956C32.939 18.7756 32.519 18.6556 32.2191 18.6556C31.0792 18.6556 29.9993 18.6556 28.8595 18.6556Z" fill="#6E82B6"/>
<path d="M18.1807 19.8554C16.9809 18.6556 15.781 17.4557 14.5812 16.2559C16.261 16.2559 17.9408 16.2559 19.6806 16.2559C19.6806 17.6357 19.2006 18.8356 18.1807 19.8554Z" fill="#FEE252"/>
<path d="M23.2805 12.1766C23.2805 12.4766 23.2805 12.7166 23.2805 13.0166C23.2805 13.1966 23.2205 13.2566 23.1005 13.2566C22.5605 13.2566 21.9605 13.2566 21.4205 13.2566C21.2405 13.2566 21.2405 13.1966 21.2405 13.0166C21.2405 12.4766 21.2405 11.8766 21.2405 11.3366C21.2405 11.1566 21.3005 11.0966 21.4805 11.0966C22.0205 11.0966 22.5605 11.0966 23.1005 11.0966C23.2805 11.0966 23.3405 11.1566 23.3405 11.3366C23.2805 11.6366 23.2805 11.8766 23.2805 12.1766Z" fill="#7FD5FA"/>
<path d="M23.2805 14.9363C23.2205 15.2363 23.4005 15.6563 23.2205 15.8363C22.9805 16.0163 22.5605 15.8963 22.2605 15.8963C22.0205 15.8963 21.7205 15.8963 21.4805 15.8963C21.3005 15.8963 21.2405 15.8363 21.2405 15.6563C21.2405 15.1163 21.2405 14.5763 21.2405 14.0363C21.2405 13.8563 21.3005 13.7963 21.4805 13.7963C22.0205 13.7963 22.5605 13.7963 23.1005 13.7963C23.3405 13.7963 23.3405 13.8563 23.3405 14.0963C23.2805 14.3363 23.2805 14.6363 23.2805 14.9363Z" fill="#FEAFA9"/>
<path d="M22.2605 16.5558C22.5005 16.5558 22.8005 16.5558 23.0405 16.5558C23.2205 16.5558 23.2805 16.6158 23.2805 16.7358C23.2805 17.2758 23.2805 17.8758 23.2805 18.4158C23.2805 18.5958 23.2205 18.5958 23.0405 18.5958C22.5005 18.5958 21.9005 18.5958 21.3605 18.5958C21.1805 18.5958 21.1205 18.5358 21.1205 18.3558C21.1205 17.8158 21.1205 17.2758 21.1205 16.7358C21.1205 16.5558 21.1805 16.4958 21.3605 16.4958C21.7205 16.5558 21.9605 16.5558 22.2605 16.5558Z" fill="#FEE252"/>
<path d="M21.1805 20.3356C21.1805 20.0356 21.1805 19.7956 21.1805 19.4956C21.1805 19.3156 21.2405 19.2556 21.3605 19.2556C21.9005 19.2556 22.5005 19.2556 23.0405 19.2556C23.2205 19.2556 23.2205 19.3156 23.2205 19.4956C23.2205 20.0356 23.2205 20.6356 23.2205 21.1756C23.2205 21.3556 23.1605 21.4156 22.9805 21.4156C22.4405 21.4156 21.9005 21.4156 21.3605 21.4156C21.1805 21.4156 21.1205 21.3556 21.1205 21.1756C21.1805 20.8756 21.1805 20.5756 21.1805 20.3356Z" fill="#97C969"/>
<path d="M34.379 30.8943C34.139 31.3143 33.779 31.5543 33.479 31.8543C33.359 31.9743 33.299 32.0943 33.119 32.0943C32.939 31.9143 32.699 31.6743 32.519 31.4943C32.999 31.1343 33.419 30.7143 33.779 30.2343C33.959 30.4743 34.139 30.6543 34.379 30.8943Z" fill="#466089"/>
<path d="M33.5389 26.9346C33.5389 29.3343 31.5592 31.2541 29.1595 31.2541C26.7597 31.2541 24.84 29.2743 24.84 26.9346C24.84 24.5349 26.8197 22.6151 29.2194 22.6151C31.6192 22.6151 33.5389 24.5949 33.5389 26.9346Z" fill="#7FD5FA"/>
</g>
<defs>
<clipPath id="clip0_13289_746">
<rect width="33.596" height="31.5562" fill="white" transform="translate(7.20203 10.0166)"/>
</clipPath>
</defs>
</svg>
