<svg width="49" height="49" viewBox="0 0 49 49" fill="none" xmlns="http://www.w3.org/2000/svg">
<rect x="0.0803223" y="0.806641" width="48" height="48" rx="24" fill="#FEF6D0"/>
<g clip-path="url(#clip0_13287_8840)">
<path d="M14.7815 11.165C20.5408 11.165 26.3001 11.165 31.9993 11.165C32.5993 11.285 32.8392 11.645 32.8992 12.3049C32.8992 13.0848 32.8992 13.9247 32.8992 14.7046C32.8992 18.3642 32.8992 22.0837 32.8992 25.7432C32.8992 25.9232 32.9592 26.1632 32.7793 26.3432C32.6593 26.4632 32.4793 26.4632 32.3593 26.4632C29.0597 26.4632 25.7601 26.4632 22.4605 26.4632C22.3405 26.4632 22.1606 26.4632 22.0406 26.4032C21.9806 26.3432 21.9206 26.2832 21.9206 26.2232C21.9206 25.5633 21.8606 24.9033 21.9206 24.3034C22.0406 24.0634 22.1606 24.2434 22.3405 24.3034C22.9405 24.6634 23.3604 24.6634 23.7204 24.2434C23.8404 24.1234 23.9003 24.0035 23.9603 23.8235C24.2603 23.0436 24.5603 22.3237 24.8002 21.5438C24.9202 21.2438 25.0402 20.9438 25.1602 20.7039C25.2202 20.5839 25.2802 20.4039 25.4002 20.3439C25.5201 20.2839 25.7001 20.3439 25.8201 20.3439C27.6199 20.3439 29.4197 20.3439 31.2194 20.3439C31.3394 20.3439 31.3994 20.3439 31.5194 20.3439C31.8194 20.2839 31.9993 20.1639 31.9993 19.864C31.9993 19.744 31.9993 19.624 31.9993 19.564C31.9993 17.8242 31.9993 16.0844 31.9993 14.3446C31.9993 14.2247 31.9993 14.1047 31.9993 14.0447C31.9394 13.6847 31.8194 13.5647 31.4594 13.5647C31.0395 13.5647 30.6795 13.5647 30.2596 13.5647C28.0998 13.5647 25.9401 13.5647 23.8404 13.5647C23.7204 13.5647 23.5404 13.5647 23.4204 13.6247C23.1804 13.7447 23.1204 13.9247 23.1204 14.1647C23.1204 14.7646 23.1204 15.4245 23.1204 16.0244C23.1204 17.2243 23.1204 18.4841 23.1204 19.684C23.1204 19.864 23.1204 20.1039 23.2404 20.2839C23.3604 20.5839 23.1204 20.8238 23.0605 21.1238C23.0005 21.3038 22.9405 21.4238 22.8805 21.6038C22.7005 22.0837 22.3405 22.2037 21.9206 21.9637C21.5006 21.7237 21.1407 21.4838 20.7807 21.1838C20.4208 20.9438 20.0608 20.7639 19.6409 20.6439C19.5209 20.6439 19.4009 20.6439 19.2809 20.5239C19.2809 20.3439 19.4609 20.3439 19.5809 20.3439C20.8407 19.924 21.3807 18.5441 20.6607 17.4043C20.3008 16.8043 19.3409 16.2644 18.441 16.6244C17.1812 17.1043 16.8212 18.4241 17.3612 19.444C17.6011 19.864 17.9611 20.1639 18.441 20.3439C18.561 20.4039 18.681 20.4039 18.741 20.4639C18.681 20.6439 18.561 20.5839 18.441 20.6439C18.0211 20.7639 17.6011 20.8838 17.2412 21.1838C16.3413 21.8437 16.0413 22.7436 16.0413 23.8235C16.0413 24.6034 16.0413 25.3833 16.0413 26.1632C16.0413 26.3432 16.0413 26.4632 15.9213 26.5831C15.4414 26.7031 14.9015 26.6431 14.4215 26.6431C14.2415 26.6431 14.0616 26.6431 13.8816 26.5831C13.8216 26.4632 13.8216 26.3432 13.8216 26.1632C13.8216 22.6236 13.8216 19.1441 13.8216 15.6045C13.8216 15.5445 13.8216 15.4845 13.8216 15.4245C13.8216 14.7646 13.8216 14.1047 13.8216 13.4448C13.8216 13.1448 13.8216 12.8448 13.8216 12.5449C13.8216 12.2449 13.8816 12.0049 14.0616 11.765C14.2415 11.285 14.4815 11.225 14.7815 11.165Z" fill="#4FAAF6"/>
<path d="M8.90222 33.7821C8.90222 33.3022 8.90222 32.8822 8.90222 32.4023C8.96221 32.3423 9.0822 32.2823 9.20218 32.2823C9.80211 32.2823 10.342 32.2823 10.942 32.2823C11.9618 32.2823 12.9817 32.2823 13.9416 32.2823C15.2014 32.2223 16.5213 32.2823 17.7811 32.2823C18.2011 32.2823 18.621 32.2823 19.041 32.2823C19.161 32.2823 19.2809 32.2823 19.4009 32.2823C23.6604 32.2823 27.9199 32.2823 32.1793 32.2823C32.3593 32.2823 32.5993 32.2823 32.7793 32.2823C32.9593 32.3423 33.0792 32.3423 33.2592 32.3423C34.639 32.3423 36.0789 32.3423 37.4587 32.3423C37.9386 32.3423 37.9386 32.4023 37.9986 32.8222C37.9986 33.0022 37.9986 33.2422 37.9986 33.4221C37.9986 34.322 37.4587 35.0419 36.5588 35.3419C36.9188 35.2819 37.2787 35.1619 37.6387 35.4019C37.5787 35.5819 37.3987 35.5219 37.2787 35.5219C36.9788 35.5219 36.6788 35.5219 36.3788 35.5219C33.7392 35.5219 31.0995 35.5219 28.4598 35.5219C28.3998 35.5219 28.2798 35.5219 28.2198 35.5219C27.9199 35.5219 27.8599 35.5819 27.8599 35.8818C27.8599 36.9017 27.8599 37.9216 27.8599 38.9415C27.8599 39.1214 27.8599 39.3014 27.7999 39.4214C27.7999 39.4814 27.7399 39.4814 27.6799 39.4214C27.5599 39.3014 27.6199 39.1214 27.6199 38.9415C27.6199 37.9216 27.6199 36.9017 27.6199 35.9418C27.6199 35.5219 27.6199 35.5219 27.2 35.5219C25.2202 35.5219 23.2405 35.5219 21.2607 35.5219C20.8407 35.5219 20.8407 35.5219 20.8407 35.9418C20.8407 36.9617 20.8407 37.9816 20.8407 38.9415C20.8407 39.1214 20.8407 39.2414 20.7808 39.4214C20.7808 39.4814 20.7208 39.4814 20.6608 39.4814C20.5408 39.3614 20.5408 39.1814 20.5408 39.0014C20.5408 38.0416 20.5408 37.0217 20.5408 36.0618C20.5408 35.5219 20.5408 35.5219 20.0009 35.5219C17.1812 35.5219 14.3615 35.5219 11.6019 35.5219C11.3619 35.5219 11.1219 35.5219 10.942 35.4619C9.68213 35.4019 9.14219 34.862 8.90222 33.7821Z" fill="#E8EEFE"/>
<path d="M10.942 32.4024C10.2821 32.4024 9.62213 32.4024 8.90222 32.4024C8.90222 26.5831 8.90222 20.7038 8.90222 14.8846C9.0822 13.8047 9.8621 13.1448 11.062 13.1448C11.9019 13.1448 12.7417 13.1448 13.5217 13.1448C13.6416 13.1448 13.8216 13.1448 13.9416 13.2648C13.9416 13.9247 13.9416 14.5846 13.9416 15.3045C13.8216 15.3045 13.7016 15.3045 13.5217 15.3045C13.0417 15.3045 12.6218 15.3045 12.1418 15.3045C11.3619 15.3045 11.002 15.6645 11.002 16.4444C11.002 19.9239 11.002 23.4035 11.002 26.8831C11.002 28.5629 11.002 30.1827 11.002 31.8625C11.002 32.0424 11.062 32.2224 10.942 32.4024Z" fill="#3C589F"/>
<path d="M39.2585 14.8844C39.2585 20.7037 39.2585 26.583 39.2585 32.4023C39.1985 32.4623 39.0785 32.5222 38.9585 32.5222C38.5986 32.5222 38.1786 32.5822 37.8187 32.4623C37.6987 32.2823 37.6987 32.1023 37.6987 31.9223C37.6987 30.1825 37.6987 28.4427 37.6987 26.703C37.6987 22.9234 37.6987 19.2039 37.6987 15.4244C37.6987 14.4645 37.2787 13.8046 36.4388 13.3846C36.3788 13.3246 36.2588 13.3246 36.1989 13.2646C36.1989 13.1446 36.3188 13.1446 36.3788 13.1446C36.7988 13.1446 37.2187 13.0846 37.6987 13.2046C38.5386 13.3846 39.1385 13.9245 39.2585 14.8844Z" fill="#2A428B"/>
<path d="M27.6199 39.4814C28.2198 39.4814 28.8198 39.4814 29.4797 39.4814C29.7796 39.6014 29.8396 39.7813 29.8396 40.0813C29.8396 40.3813 29.8396 40.6212 29.8396 40.9212C29.8396 41.2212 29.7197 41.4611 29.4197 41.5211C25.4002 41.5211 21.3807 41.5211 17.3612 41.5211C17.1212 41.4011 17.0612 41.1612 17.0612 40.8612C17.0612 40.5612 17.0612 40.2613 17.0612 40.0213C17.0612 39.6614 17.2412 39.5414 17.6012 39.5414C18.561 39.5414 19.5809 39.5414 20.5408 39.5414H20.6008C20.6608 39.4814 20.7808 39.4214 20.9007 39.4214C21.4407 39.4214 22.0406 39.4214 22.5805 39.4214C22.8805 39.4214 23.1805 39.4214 23.4804 39.4214C23.9004 39.4214 24.2603 39.4214 24.6803 39.4214C24.9802 39.4214 25.2802 39.4214 25.5802 39.4214C26.1201 39.4214 26.72 39.4214 27.26 39.4214C27.3799 39.4214 27.4999 39.4214 27.5599 39.5414C27.5599 39.4814 27.6199 39.4814 27.6199 39.4814Z" fill="#E8EEFE"/>
<path d="M32.7793 26.343C32.7793 21.7236 32.7793 17.1041 32.7793 12.4847C32.7793 11.8848 32.5393 11.4648 31.9994 11.2249C32.4793 11.2249 32.9593 11.2249 33.4392 11.2249C33.9791 11.3448 34.2791 11.6448 34.2791 12.2447C34.2791 12.6047 34.2791 12.9046 34.2791 13.2646C34.2791 13.9245 34.2791 14.5844 34.2791 15.2444C34.2791 15.3043 34.2791 15.3043 34.2791 15.3643C34.2791 15.4843 34.2791 15.5443 34.2791 15.6643C34.2791 19.0839 34.2791 22.4435 34.2791 25.863C34.2791 26.043 34.2791 26.223 34.2191 26.403C34.1591 26.463 34.0991 26.523 33.9791 26.523C33.6192 26.463 33.1992 26.523 32.7793 26.343Z" fill="#1885E9"/>
<path d="M37.8187 32.4024C38.2986 32.4024 38.7786 32.4024 39.2585 32.4024C39.2585 32.8823 39.2585 33.3623 39.2585 33.8422C39.0785 34.5021 38.6586 35.0421 37.9987 35.342C37.8187 35.402 37.6987 35.462 37.5187 35.462C37.1588 35.462 36.7988 35.462 36.3789 35.462C36.6188 35.282 36.9188 35.222 37.0988 35.0421C37.6387 34.5621 37.8787 33.9622 37.8187 33.2423C37.7587 32.5224 37.8187 32.5224 37.0988 32.5224C35.7789 32.5224 34.4591 32.5224 33.1393 32.5224C33.0193 32.5224 32.8993 32.5824 32.7793 32.4624C32.7793 32.4624 32.7793 32.4624 32.8393 32.4024C33.3192 32.2824 33.7392 32.3424 34.2191 32.3424C34.7591 32.3424 35.299 32.3424 35.7789 32.3424C36.1989 32.3424 36.6788 32.3424 37.0988 32.3424C37.1588 32.3424 37.1588 32.3424 37.2187 32.3424C37.3987 32.2824 37.6387 32.2824 37.8187 32.4024Z" fill="#D2DBFA"/>
<path d="M29.4197 41.5215C29.6597 41.3415 29.8397 41.1015 29.7797 40.8015C29.7797 40.6215 29.7797 40.4415 29.7797 40.3215C29.7797 40.0215 29.7197 39.7215 29.4797 39.5415C29.8397 39.5415 30.2597 39.5415 30.6197 39.5415C30.9797 39.5415 31.2197 39.7815 31.2197 40.0815C31.2197 40.3815 31.2197 40.6815 31.2197 40.9815C31.2197 41.2215 31.0397 41.4015 30.8597 41.5215C30.3197 41.5215 29.8997 41.5215 29.4197 41.5215Z" fill="#D2DBFA"/>
<path d="M32.7792 32.4024C28.3398 32.4024 23.9003 32.4024 19.4609 32.4024C19.3409 32.4024 19.1609 32.4024 19.0409 32.4024C18.921 32.2824 18.921 32.1625 18.921 31.9825C18.921 30.2427 18.921 28.5029 18.921 26.7031C18.921 26.5832 18.921 26.4032 18.981 26.2832C19.0409 26.2232 19.1609 26.1632 19.2809 26.1632C19.8808 26.1632 20.4808 26.1632 21.0807 26.1632C21.3807 26.1632 21.7406 26.0432 22.0406 26.2232C22.8805 26.2232 23.7804 26.2232 24.6203 26.2232C27.3199 26.2232 30.0196 26.2232 32.7193 26.2232C32.8992 26.4632 32.8992 26.6431 32.8992 26.7631C32.8992 28.5029 32.8992 30.2427 32.8992 31.9825C32.8992 32.1025 32.8992 32.2824 32.7792 32.4024Z" fill="#D2DBFA"/>
<path d="M10.942 32.4023C10.942 27.0629 10.942 21.7236 10.942 16.3842C10.942 15.6643 11.3619 15.2444 12.0218 15.2444C12.6817 15.2444 13.2817 15.2444 13.9416 15.2444C13.9416 18.8439 13.9416 22.3835 13.9416 25.9831C13.9416 26.103 13.9416 26.283 13.9416 26.403C14.0616 26.523 14.0016 26.643 14.0016 26.823C14.0016 28.5627 14.0016 30.3025 14.0016 32.0423C14.0016 32.1623 14.0016 32.3423 13.8816 32.4623C12.9217 32.4023 11.9018 32.4023 10.942 32.4023Z" fill="#9AD7F8"/>
<path d="M23.2405 20.1638C23.1205 20.0439 23.0605 19.9239 23.0605 19.7439C23.0605 17.7641 23.0605 15.7844 23.0605 13.8046C23.0605 13.5647 23.1205 13.3847 23.4204 13.2647C23.5404 13.2047 23.6004 13.2647 23.7204 13.2647C25.8801 13.2647 28.0399 13.2647 30.1996 13.2647C30.6795 13.2647 30.8595 13.3847 30.8595 13.9246C30.8595 15.1845 30.8595 16.3843 30.8595 17.6442C30.8595 18.2441 30.8595 18.904 30.8595 19.5039C30.8595 19.6239 30.8595 19.8039 30.7995 19.9239C30.7395 20.2238 30.6196 20.3438 30.2596 20.3438C29.8996 20.3438 29.5397 20.3438 29.1197 20.3438C27.8599 20.3438 26.66 20.3438 25.4002 20.3438C25.2202 20.2838 25.2802 20.1638 25.3402 20.0439C25.4002 19.8639 25.5202 19.6839 25.4002 19.4439C25.4002 19.264 25.4002 19.144 25.4602 18.964C25.7602 17.8841 26.0001 16.7443 26.3001 15.6644C26.3001 15.5444 26.3601 15.4844 26.3601 15.3644C26.3601 15.1845 26.3001 15.0645 26.0601 15.0045C25.8801 14.9445 25.7602 15.0045 25.6402 15.1845C25.7002 15.2445 25.7002 15.3644 25.6402 15.4844C25.4002 16.3843 25.1602 17.2842 24.9802 18.1841C24.9203 18.3041 24.9203 18.4841 24.8003 18.604C24.6803 18.664 24.5003 18.664 24.3803 18.664C24.2003 18.724 24.0804 18.784 23.9604 18.904C23.6604 19.144 23.6604 19.5639 23.4804 19.8639C23.4204 19.9839 23.4204 20.1039 23.2405 20.1638Z" fill="#E8EEFE"/>
<path d="M13.9416 32.4024C13.9416 30.3626 13.9416 28.3829 13.9416 26.3431C14.6015 26.3431 15.2614 26.3431 15.9813 26.3431C16.1013 26.2231 16.2213 26.2231 16.3413 26.2231C17.1212 26.2231 17.8411 26.2231 18.621 26.2231C18.741 26.2231 18.921 26.2231 19.041 26.3431C19.041 28.3229 19.041 30.3626 19.041 32.3424C18.621 32.3424 18.2611 32.3424 17.8411 32.3424C16.5213 32.4024 15.2614 32.4024 13.9416 32.4024Z" fill="#F4EA37"/>
<path d="M19.041 26.343C18.1411 26.343 17.2412 26.343 16.2813 26.343C16.1613 26.343 16.0414 26.343 15.9814 26.343C15.9814 25.2032 15.9214 24.1233 16.0414 22.9834C16.1014 22.0836 16.5213 21.4236 17.3012 20.8837C17.4212 20.8237 17.4812 20.9437 17.6012 21.0037C17.9011 21.2437 18.1411 21.4236 18.4411 21.6636C18.861 22.0236 19.281 22.0236 19.7009 21.6636C20.0009 21.4236 20.3008 21.1837 20.5408 21.0037C20.6608 20.9437 20.7208 20.8237 20.8408 20.8837C21.2007 21.1237 21.5607 21.3636 21.9806 21.6036C22.4006 21.9036 22.7005 21.7836 22.9405 21.3036C23.0005 21.1837 23.0605 21.0037 23.1205 20.8837C23.4204 20.8237 23.6004 20.8837 23.7804 21.1237C23.7804 21.2437 23.7804 21.3636 23.7204 21.4836C23.4204 22.3235 23.1205 23.1634 22.7605 23.9433C22.7005 24.1233 22.6405 24.3033 22.4606 24.3033C22.3406 24.2433 22.2806 24.1833 22.1606 24.1233C22.0406 24.0033 22.0406 23.8233 22.0406 23.7034C22.0406 23.5234 22.0406 23.4034 21.9806 23.2234C21.9206 23.1034 21.8606 22.9834 21.7407 22.9834C21.5607 22.9834 21.5007 23.0434 21.3807 23.1634C21.2607 23.3434 21.2607 23.5234 21.2607 23.7034C21.2607 24.4233 21.2607 25.2032 21.2607 25.9231C21.2607 26.0431 21.2607 26.223 21.1407 26.343C20.4208 26.343 19.7009 26.343 19.041 26.343Z" fill="#4ED3DD"/>
<path d="M25.4002 20.2237C26.96 20.2237 28.5798 20.2237 30.1396 20.2237C30.5595 20.2237 30.7395 20.1037 30.7395 19.6238C30.7395 18.4239 30.7395 17.2241 30.7395 16.0242C30.7395 15.3043 30.7395 14.5244 30.7395 13.8045C30.7395 13.3846 30.5595 13.2646 30.1996 13.2646C27.9199 13.2646 25.6401 13.2646 23.4204 13.2646C23.5404 13.2046 23.6004 13.2046 23.7204 13.2046C26.3001 13.2046 28.9397 13.2046 31.5194 13.2046C31.9394 13.2046 32.1793 13.3846 32.1793 13.8045C32.1793 15.7243 32.1793 17.704 32.1793 19.6238C32.1793 20.1037 31.9394 20.2837 31.4594 20.2837C29.4797 20.2837 27.4399 20.2837 25.4002 20.2237Z" fill="#D2DBFA"/>
<path d="M18.3812 20.1643C17.4812 19.8043 17.0012 19.1443 17.0012 18.2443C17.0012 17.3443 17.5412 16.6843 18.3812 16.3843C19.1612 16.6243 19.5212 17.1643 19.7012 17.9443C19.8812 18.7843 19.4612 19.6843 18.6812 20.1043C18.5612 20.1043 18.5012 20.1643 18.3812 20.1643Z" fill="#FBAC6D"/>
<path d="M18.381 20.1644C18.741 19.9244 19.101 19.6844 19.341 19.3244C19.941 18.3644 19.641 16.9844 18.621 16.5044C18.501 16.4444 18.441 16.4444 18.381 16.3244C19.401 15.9644 20.541 16.5044 20.901 17.5844C21.261 18.6644 20.721 19.8044 19.641 20.1644C19.521 20.2244 19.401 20.2244 19.221 20.2844C19.041 20.4644 18.861 20.4044 18.681 20.2844C18.621 20.2244 18.501 20.2244 18.381 20.1644Z" fill="#FC985B"/>
<path d="M22.3406 24.3037C22.5206 24.0637 22.5806 23.7037 22.7006 23.3437C22.9406 22.5637 23.1206 21.8437 23.3606 21.0637C23.3606 21.0637 23.4206 21.0637 23.4206 21.0037C23.7206 21.1237 24.0806 21.1837 24.3206 21.4237C24.0806 22.2637 23.8406 23.1037 23.6006 23.9437C23.4206 24.5437 22.8206 24.9037 22.3406 24.3037Z" fill="#4ED3DD"/>
<path d="M18.7412 20.2839C18.9212 20.2839 19.1012 20.2839 19.2812 20.2839C19.8212 20.3439 20.3612 20.5239 20.7812 20.8839C20.4212 21.1839 20.0612 21.4839 19.7012 21.7239C19.2212 22.0839 18.7412 22.0839 18.3212 21.7239C17.9612 21.4239 17.6012 21.1839 17.2412 20.8839C17.6612 20.5239 18.2012 20.4039 18.7412 20.2839Z" fill="#E8EEFE"/>
<path d="M21.5607 26.3434C21.5607 25.5634 21.5607 24.8434 21.5607 24.0634C21.5607 24.0034 21.5607 23.8834 21.5607 23.8234C21.6207 23.6434 21.7407 23.5234 21.9207 23.5234C22.1007 23.5234 22.2207 23.7034 22.2207 23.8834C22.2207 24.1234 22.2207 24.3034 22.2207 24.5434C22.2207 25.1434 22.2207 25.7434 22.2207 26.2834C22.0407 26.3434 21.8007 26.3434 21.5607 26.3434Z" fill="#4ED3DD"/>
<path d="M24.9204 21.5439C24.5004 21.4239 24.1404 21.3039 23.7204 21.1239C23.6004 21.0039 23.6604 20.8839 23.7204 20.7639C23.8404 20.5239 23.9004 20.2839 24.0204 20.0439C24.1404 19.7439 24.2004 19.3839 23.9604 19.0839C23.9004 19.0239 23.8404 18.9039 23.9004 18.8439C24.1404 18.5439 24.4404 18.5439 24.8004 18.5439C24.9204 18.7239 24.8004 18.8439 24.8004 19.0239C24.8004 19.1439 24.7404 19.3239 24.8004 19.4439C24.9204 19.6239 25.1604 19.6839 25.3404 19.5039C25.4004 19.4439 25.4604 19.3239 25.5804 19.3239C25.7004 19.5039 25.5804 19.7439 25.5204 19.9239C25.5204 20.0439 25.4604 20.1039 25.4004 20.2239C25.4004 20.2239 25.4004 20.2839 25.3404 20.2839C25.2204 20.7039 25.0404 21.1239 24.9204 21.5439Z" fill="#FC985B"/>
<path d="M23.9005 18.844C24.2005 19.264 24.2605 19.684 24.0205 20.164C23.9005 20.464 23.7205 20.764 23.7205 21.124C23.5405 21.004 23.3005 20.944 23.0605 20.884C23.1205 20.644 23.2405 20.404 23.3005 20.164C23.4205 19.864 23.5405 19.564 23.6605 19.324C23.6605 19.084 23.7205 18.964 23.9005 18.844Z" fill="#FBAC6D"/>
<path d="M22.5805 39.4814C21.9206 39.4814 21.2607 39.4814 20.5408 39.4814C20.5408 38.2215 20.5408 37.0217 20.5408 35.7618C20.5408 35.5218 20.6008 35.4019 20.8407 35.4019C22.9405 35.4019 25.1002 35.4019 27.1999 35.4019C27.4999 35.4019 27.4999 35.5218 27.4999 35.7618C27.4999 37.0217 27.4999 38.2215 27.4999 39.4814C26.84 39.4814 26.1801 39.4814 25.4602 39.4814C25.3402 39.3614 25.4002 39.2414 25.3402 39.1214C25.3402 38.7614 25.3402 38.4015 25.3402 38.0415C25.3402 37.4416 24.9802 37.0816 24.3803 37.0816C24.0803 37.0816 23.7804 37.0816 23.5404 37.0816C22.9405 37.0816 22.6405 37.4416 22.5805 38.0415C22.5805 38.4015 22.5805 38.7614 22.5805 39.1214C22.7005 39.2414 22.7005 39.3614 22.5805 39.4814Z" fill="#D2DBFA"/>
<path d="M37.8187 32.4023C37.6387 32.4023 37.3987 32.4023 37.2187 32.4023C37.0988 32.2223 37.1588 32.0423 37.1588 31.8624C37.1588 26.763 37.1588 21.6636 37.1588 16.6242C37.1588 16.5042 37.1588 16.3243 37.1588 16.2043C37.0388 15.6044 36.6788 15.3644 36.0789 15.3644C35.5989 15.3644 35.119 15.3644 34.5791 15.3644C34.4591 15.3644 34.3391 15.3644 34.2191 15.3044C34.2191 14.6445 34.2191 13.9846 34.2191 13.2646C34.879 13.2646 35.539 13.2646 36.2589 13.2646C36.7388 13.4446 37.1588 13.6246 37.4587 14.0446C37.6987 14.4045 37.8787 14.7645 37.8787 15.2444C37.8187 20.9437 37.8187 26.643 37.8187 32.4023Z" fill="#3C589F"/>
<path d="M22.5805 39.4817C22.5805 39.0017 22.5805 38.5217 22.5805 38.0417C22.5805 37.3817 23.0005 36.9617 23.6605 36.9617C23.9605 36.9617 24.2605 36.9617 24.5605 36.9617C25.1605 36.9617 25.5805 37.3817 25.5805 37.9817C25.5805 38.4617 25.5805 38.9417 25.5805 39.4817C25.2805 39.4817 24.9805 39.4817 24.6805 39.4817C24.5005 39.4217 24.5005 39.3017 24.5005 39.1217C24.5005 38.8217 24.5005 38.5817 24.5005 38.2817C24.5005 38.1017 24.4405 37.9817 24.2005 37.9817C23.6005 37.9217 23.6005 37.9817 23.6005 38.5217C23.6005 38.7017 23.6005 38.9417 23.6005 39.1217C23.6005 39.2417 23.6005 39.3617 23.4205 39.4217C23.1805 39.4817 22.8805 39.4817 22.5805 39.4817Z" fill="#BDC7F6"/>
<path d="M23.4804 39.4816C23.6004 39.0616 23.5404 38.7016 23.5404 38.2816C23.5404 37.8616 23.5404 37.8616 23.9604 37.8616C24.6204 37.8616 24.6204 37.8616 24.6204 38.5216C24.6204 38.8216 24.5604 39.1216 24.6804 39.4816C24.2604 39.4816 23.8404 39.4816 23.4804 39.4816Z" fill="#D2DBFA"/>
<path d="M35.7789 32.4023C35.239 32.4023 34.699 32.4023 34.1591 32.4023C34.0991 32.2824 34.0991 32.1024 34.0991 31.9824C34.0991 30.2426 34.0991 28.5028 34.0991 26.763C34.0991 26.6431 34.0991 26.4631 34.2191 26.3431C34.2191 22.7435 34.2191 19.144 34.2191 15.4844C34.2191 15.4244 34.2191 15.3044 34.2191 15.2445C34.5191 15.1845 34.819 15.1845 35.179 15.2445C35.5989 15.3044 35.7789 15.6044 35.8989 15.9644C35.8989 16.1443 35.8989 16.3243 35.8989 16.5043C35.8989 21.6037 35.8989 26.703 35.8989 31.8624C35.8989 32.0424 35.9589 32.2224 35.7789 32.4023Z" fill="#9AD7F8"/>
<path d="M35.7789 32.4023C35.7789 27.0629 35.7789 21.7236 35.7789 16.3842C35.7789 16.0843 35.7189 15.8443 35.539 15.6043C35.359 15.3644 35.119 15.2444 34.819 15.3044C34.6391 15.3044 34.3991 15.3044 34.2191 15.3044V15.2444C34.879 15.2444 35.539 15.2444 36.1389 15.2444C36.7388 15.2444 37.0988 15.5443 37.2187 16.1443C37.1588 16.2643 37.2187 16.3842 37.2187 16.5042C37.2187 21.7236 37.2187 26.8829 37.2187 32.1023C37.2187 32.2223 37.2187 32.3423 37.2187 32.4623C36.6788 32.4023 36.2589 32.4023 35.7789 32.4023Z" fill="#73C2F8"/>
<path d="M34.2191 26.343C34.2191 28.3828 34.2191 30.3625 34.2191 32.4023C33.7392 32.4023 33.2592 32.4023 32.7793 32.4023C32.7793 30.3625 32.7793 28.3828 32.7793 26.343C33.2592 26.343 33.7392 26.343 34.2191 26.343Z" fill="#BDC7F6"/>
<path d="M37.1587 32.4023C37.1587 27.1229 37.1587 21.7836 37.1587 16.5042C37.1587 16.3843 37.0987 16.2643 37.2187 16.1443C37.2187 16.2643 37.2187 16.4442 37.2187 16.5642C37.2187 21.8436 37.2187 27.1229 37.2187 32.4623C37.2187 32.4023 37.1587 32.4023 37.1587 32.4023Z" fill="#76C3F7"/>
<path d="M24.0204 29.0428C24.0804 28.9229 24.2004 28.9229 24.2604 28.9229C26.84 28.9229 29.4197 28.9229 31.9994 28.9229C32.2394 28.9229 32.4193 28.9229 32.5393 29.1628C32.7193 29.4028 32.5393 29.7627 32.2994 29.8227C32.2394 29.8227 32.1194 29.8227 32.0594 29.8227C29.4197 29.8227 26.78 29.8227 24.1404 29.8227C24.0804 29.8227 24.0204 29.8227 23.9604 29.8227C23.9604 29.5828 23.9604 29.2828 24.0204 29.0428Z" fill="#3434F4"/>
<path d="M24.0206 29.0428C24.1406 29.3428 24.1406 29.5828 23.9606 29.8828C23.5406 30.6028 22.6406 30.6028 22.1606 29.8828C21.9206 29.6428 21.9206 29.3428 22.1006 29.0428C22.2806 28.6228 22.5806 28.3828 23.0006 28.3828C23.4806 28.3828 23.8406 28.5628 24.0206 29.0428Z" fill="#E8EEFE"/>
<path d="M22.1008 29.0427C21.9808 29.3427 21.9808 29.5827 22.1608 29.8827C21.8008 29.8827 21.4408 29.8827 21.0208 29.8827C20.7808 29.8827 20.6008 29.7027 20.5408 29.4627C20.5408 29.2227 20.6608 29.0427 20.9008 28.9827C21.2608 28.9227 21.6208 28.9827 21.9808 28.9827C22.1008 28.9227 22.1008 28.9827 22.1008 29.0427Z" fill="#3434F4"/>
<path d="M25.5202 19.324C25.3402 19.684 25.1602 19.8039 24.8602 19.684C24.6203 19.564 24.5603 19.384 24.6203 19.084C24.6803 18.9641 24.6803 18.7841 24.7403 18.6641C24.7403 18.6041 24.7403 18.5441 24.7403 18.5441C25.0402 17.4642 25.2802 16.3244 25.5802 15.2445C25.6401 15.0645 25.7001 14.8846 25.8801 14.8246C26.0601 14.7646 26.2401 14.7646 26.3601 14.8846C26.54 15.0045 26.54 15.1845 26.48 15.4245C26.2401 16.4444 25.9401 17.4642 25.7001 18.4841C25.7001 18.7841 25.6401 19.084 25.5202 19.324Z" fill="#3C589F"/>
<path d="M16.5214 29.8227C16.4614 29.8227 16.4014 29.8227 16.3414 29.8227C16.0414 29.8227 15.8614 29.6427 15.8014 29.4027C15.8014 29.1627 15.9214 28.9827 16.2214 28.9227C16.4014 28.8627 16.6414 28.8627 16.8214 28.9227C17.0614 28.9827 17.2414 29.2227 17.2414 29.4627C17.1814 29.7027 17.0014 29.8227 16.7614 29.8827C16.6414 29.8227 16.5814 29.8227 16.5214 29.8227Z" fill="#BABA04"/>
</g>
<defs>
<clipPath id="clip0_13287_8840">
<rect width="30.3563" height="31.0762" fill="white" transform="translate(8.90222 10.4451)"/>
</clipPath>
</defs>
</svg>
