<svg width="49" height="48" viewBox="0 0 49 48" fill="none" xmlns="http://www.w3.org/2000/svg">
<rect x="0.620483" width="48" height="48" rx="24" fill="#E9F6FD"/>
<g clip-path="url(#clip0_13287_16718)">
<path d="M38.4471 24.7866C39.1669 25.3864 39.6468 26.1663 39.7668 27.066C39.7668 27.066 39.7668 27.066 39.8268 27.126C39.8268 27.186 39.8268 27.246 39.8268 27.306C39.7668 27.4859 39.7668 27.7259 39.8268 27.9058C39.8268 27.9658 39.8268 28.0858 39.8268 28.1458C39.7668 28.1458 39.7668 28.2057 39.7668 28.2657C39.4668 29.4654 38.807 30.3652 37.6673 30.8451C37.6673 30.9051 37.6073 30.9051 37.6073 30.9051C37.0674 30.7251 36.9475 30.4252 36.9475 29.7054C37.0075 29.5254 37.1874 29.4055 37.3074 29.2255C37.4274 29.0455 37.6073 29.0455 37.7873 29.0455C38.2671 29.0455 38.3871 28.9256 38.3871 28.4457C38.3871 27.8458 38.3871 27.186 38.3871 26.5861C38.3871 26.1063 38.2671 25.9863 37.7873 25.9863C37.1874 25.9863 36.5876 25.9863 35.9877 25.9863C35.5678 25.9863 35.1479 26.0463 34.668 25.9263C34.668 25.7464 34.668 25.7464 34.848 25.7464C35.2079 25.7464 35.5078 25.7464 35.8677 25.7464C35.3279 25.3864 35.2079 24.9066 35.4478 24.1867C35.5078 24.1268 35.5678 24.1268 35.6278 24.0668C36.5876 23.8868 37.4873 24.0068 38.3271 24.5467C38.3271 24.6066 38.3871 24.7266 38.4471 24.7866Z" fill="#FEB232"/>
<path d="M9.35425 26.1064C9.41425 26.0464 9.41425 25.9264 9.41425 25.8664C9.59425 25.5064 9.89425 25.3264 10.3142 25.3264C10.7342 25.3864 11.0342 25.5664 11.1542 25.9864C11.2142 26.8264 10.5542 27.3064 9.71425 27.0664C9.59425 27.0664 9.53425 26.9464 9.47425 26.8864C9.35425 26.7664 9.47425 26.6464 9.35425 26.5264C9.35425 26.4064 9.35425 26.2864 9.35425 26.1064Z" fill="#E8EEFE"/>
<path d="M39.8268 27.9062C39.7068 27.7262 39.7068 27.4862 39.8268 27.3062C39.8268 27.4862 39.8268 27.7262 39.8268 27.9062Z" fill="#FEC056"/>
<path d="M28.3697 10.0903C28.1897 10.2703 28.0097 10.2703 27.8297 10.1503V10.0903C28.0097 10.0903 28.1897 10.0903 28.3697 10.0903Z" fill="#CAEDFD"/>
<path d="M11.0938 25.9862C10.7339 25.2664 10.0741 25.2064 9.53422 25.7463C9.47423 25.8063 9.47423 25.8063 9.41425 25.8063C9.47423 24.0067 9.77416 22.2072 10.434 20.5276C10.434 20.4676 10.494 20.4076 10.494 20.3476C10.6739 20.3476 10.6139 20.4676 10.6139 20.5876C10.6739 20.8875 10.7939 21.1274 10.9139 21.4274C11.2738 22.1472 11.8736 22.4471 12.6534 22.2672C13.3133 22.0872 13.9131 21.7273 14.453 21.3674C15.6527 20.4676 16.6725 19.3279 17.6322 18.1882C18.352 17.2884 19.0119 16.3286 19.5517 15.3089C19.7317 14.949 19.9117 14.5891 19.9716 14.1692C20.0316 13.5093 19.7917 12.9695 19.3118 12.5496C19.2518 12.4896 19.0119 12.4296 19.1918 12.2496C20.2116 11.8897 21.2313 11.6498 22.3111 11.5298C23.1509 11.4098 23.9907 11.4698 24.8304 11.4698C24.9504 11.4698 25.0704 11.5298 25.1904 11.5298C25.2503 11.7098 25.1304 11.7698 25.0704 11.8897C24.4105 13.0294 24.4105 14.2292 25.0704 15.3689C25.7902 16.5686 26.8699 17.1084 28.2496 17.1084C28.6695 17.1084 29.0894 16.9885 29.5093 16.7485C30.649 16.1487 31.3688 15.1889 31.4288 13.8692C31.4288 13.8093 31.4288 13.6893 31.5488 13.6293C32.4486 14.1692 33.2284 14.829 34.0082 15.4888C34.0082 15.6088 33.8882 15.6688 33.7682 15.7288C32.8085 16.3886 32.3286 17.2884 32.3286 18.3681C32.2686 20.4076 33.8282 21.9073 35.6278 21.9672C36.2876 21.9672 36.8875 21.8473 37.4273 21.5473C37.4873 21.4874 37.6073 21.4274 37.6673 21.4874C37.9672 22.3272 38.1472 23.1669 38.2671 24.0067C38.3271 24.2467 38.3271 24.4866 38.3271 24.7266C37.3674 24.0667 36.3476 23.8268 35.2079 24.1267C35.1479 24.2467 35.0279 24.2467 34.908 24.3067C33.4083 24.9065 32.5086 26.3462 32.7485 27.9658C32.9284 29.4654 34.1282 30.6651 35.6278 30.905C36.1077 30.965 36.5276 30.965 37.0074 30.8451C37.1274 30.7851 37.2474 30.7851 37.4273 30.7851H37.4873C37.3674 31.3849 37.0674 31.9248 36.7675 32.5246C36.1077 33.7843 35.3279 34.924 34.3681 35.8838C34.1881 35.9438 34.1282 35.7638 34.0682 35.7039C33.7682 35.284 33.4083 34.8641 33.0484 34.5041C32.3886 33.9043 31.7287 33.4244 30.889 33.3044C30.3491 33.1845 29.8092 33.2445 29.2693 33.3044C27.9497 33.4244 26.63 33.6044 25.3103 33.9643C24.6505 34.1442 23.9907 34.3842 23.3908 34.7441C22.9709 35.044 22.611 35.4039 22.431 35.8838C22.1911 36.4837 22.3111 37.0835 22.611 37.6834C23.0309 38.5831 23.6307 39.3629 24.2906 40.0828C24.4105 40.2027 24.5305 40.2627 24.5305 40.4427C23.5708 40.5027 22.611 40.4427 21.7112 40.3227C21.2313 40.1428 20.9914 39.7229 20.6915 39.4229C20.5715 39.303 20.4515 39.123 20.3316 39.003C19.6717 38.4032 19.1318 37.6834 18.472 37.0835C18.472 37.0835 18.412 37.0235 18.412 36.9036C18.412 36.7836 18.532 36.7236 18.652 36.6636C18.9519 36.4837 19.1318 36.1837 19.3118 35.8838C19.6717 35.104 19.6717 34.3842 19.2518 33.6644C19.1918 33.6044 19.1918 33.5444 19.1918 33.4844C19.2518 33.3644 19.3718 33.3044 19.4318 33.2445C19.9716 32.9445 20.5115 32.5846 21.1114 32.2847C21.4113 32.1047 21.6512 31.9248 21.7712 31.5649C21.7712 31.5049 21.8312 31.4449 21.8912 31.4449C22.431 31.205 23.0309 31.025 23.6307 30.905C24.7105 30.6651 25.7302 30.4851 26.81 30.5451C27.8297 30.5451 28.8495 30.6051 29.8092 30.905C29.9292 30.965 29.9892 31.085 30.1091 31.205C30.4091 31.5049 30.829 31.6249 31.1889 31.3849C31.5488 31.145 31.6688 30.7251 31.4888 30.3652C31.1289 29.6453 30.709 28.9255 30.2891 28.2057C28.9094 25.7463 27.4698 23.3469 26.0901 20.8875C25.4303 19.6878 24.7105 18.4281 23.9907 17.2284C23.7507 16.8685 23.5708 16.4486 23.3308 16.0887C23.1509 15.7888 22.9109 15.5488 22.491 15.6088C21.9512 15.6088 21.5912 16.1487 21.7712 16.6885C21.8312 16.8085 21.8912 16.9285 21.8912 17.0485C21.8912 17.2884 21.7712 17.5283 21.7112 17.7683C20.9314 19.8678 19.7317 21.6673 18.1121 23.1669C17.8722 23.4069 17.6922 23.6468 17.3923 23.7668C17.0324 23.7068 16.7324 23.8268 16.4325 24.0067C15.5327 24.5466 14.573 25.0865 13.6732 25.6263C13.3133 25.8063 13.0733 26.0462 13.0733 26.5261C13.0733 26.5861 13.0733 26.6461 13.0134 26.7061C12.7134 26.946 12.3535 27.126 12.0536 27.3059C11.9936 27.3659 11.9336 27.3659 11.8736 27.3059C11.4537 26.826 11.2138 26.4061 11.0938 25.9862Z" fill="#746BF8"/>
<path d="M24.6505 40.4428C24.0506 39.8429 23.5108 39.1831 23.0309 38.4633C22.731 37.9234 22.431 37.3835 22.371 36.7837C22.3111 35.8239 22.7909 35.1641 23.5108 34.6842C24.4705 34.0843 25.5503 33.8444 26.69 33.6045C27.5898 33.4245 28.5495 33.3045 29.5093 33.2446C30.0492 33.1846 30.589 33.1246 31.1289 33.2446C31.9087 33.4245 32.5685 33.9044 33.1684 34.4443C33.5883 34.8642 33.9482 35.344 34.3081 35.8239C34.3681 35.8839 34.3681 35.9439 34.4881 35.9439C33.9482 36.6037 33.3483 37.0836 32.6885 37.5635C30.829 38.9432 28.7895 39.8429 26.57 40.2628C25.9102 40.3828 25.2503 40.5028 24.6505 40.4428Z" fill="#817DF8"/>
<path d="M13.4932 36.004C12.7734 35.3441 12.2336 34.6243 11.7537 33.8445C11.4537 33.3646 11.1538 32.8847 10.9139 32.3449C10.9139 31.865 11.1538 31.5651 11.5137 31.3251C12.1736 30.9052 12.8934 30.4853 13.6132 30.1254C14.0331 29.9455 14.453 29.8855 14.8729 30.0654C14.9929 30.1254 15.0529 30.2454 15.1128 30.3654C15.7727 31.5051 16.4325 32.6448 17.0924 33.7245C17.1523 33.7845 17.1523 33.8445 17.1523 33.9045C16.8524 34.1444 16.4925 34.2644 16.1926 34.5043C15.4128 34.9842 14.573 35.4041 13.7932 35.884C13.6732 35.944 13.6132 36.004 13.4932 36.004Z" fill="#FE7185"/>
<path d="M14.8729 30.1252C14.393 30.0053 13.9731 30.0053 13.5532 30.2452C12.9534 30.6051 12.3535 30.905 11.7537 31.205C11.2738 31.4449 11.0339 31.8048 10.8539 32.2847C10.254 31.085 9.83415 29.8253 9.59421 28.5056C9.59421 28.4456 9.59421 28.3857 9.59421 28.3257C9.71418 28.1457 9.95412 28.0857 10.1341 27.9658C10.554 27.7258 10.9739 27.4859 11.3938 27.2459C11.5137 27.186 11.5737 27.126 11.6937 27.126C12.0536 26.946 12.4135 26.7061 12.7734 26.5261C12.8934 26.5261 12.9534 26.6461 12.9534 26.7661C13.6132 27.7858 14.2131 28.7456 14.8129 29.7653C14.8729 29.8853 14.9329 29.9453 14.8729 30.1252Z" fill="#FE4155"/>
<path d="M13.4933 36.004C14.393 35.4641 15.2928 34.9242 16.1926 34.4443C16.6725 34.8642 17.0924 35.2841 17.5123 35.764C17.7522 36.0639 18.0521 36.3039 18.2921 36.5438C18.3521 36.6038 18.472 36.6638 18.412 36.8437C18.2321 36.9037 17.9921 36.9037 17.8122 36.9637C17.0924 37.0837 16.7325 37.5036 16.6125 38.1034C16.6125 38.2234 16.6725 38.4034 16.4325 38.3434C15.4128 37.7435 14.513 37.0237 13.7332 36.1839C13.6132 36.1239 13.5532 36.0639 13.4933 36.004Z" fill="#D2DBFA"/>
<path d="M16.4325 38.4034C16.5525 38.4034 16.5525 38.2834 16.5525 38.2234C16.6125 37.5036 17.0324 37.0237 17.7522 36.9037C17.9322 36.9037 18.1721 36.8438 18.3521 36.8438C18.3521 36.8438 18.412 36.8437 18.412 36.9037C19.4318 37.9835 20.4515 39.0632 21.5313 40.1429C21.5913 40.2029 21.7112 40.2629 21.7712 40.3229C21.0514 40.2029 20.3915 40.023 19.6717 39.843C18.532 39.4831 17.4523 39.0032 16.4325 38.4034Z" fill="#E8EEFE"/>
<path d="M10.1942 28.0263C10.0142 28.1463 9.83424 28.2663 9.65424 28.3263C9.53424 27.8463 9.53424 27.3663 9.47424 26.8863C9.59424 26.8263 9.59424 27.0063 9.65424 27.0063C9.89424 27.3063 10.1342 27.6063 10.1942 28.0263Z" fill="#756CF8"/>
<path d="M19.1918 12.1897C19.1319 12.3097 19.2518 12.3097 19.3118 12.3697C20.0916 13.0895 20.2116 13.9293 19.7917 14.889C19.3118 15.9688 18.592 16.9285 17.8722 17.8883C17.1523 18.7881 16.3725 19.6878 15.5327 20.4677C14.7529 21.1875 13.9131 21.9073 12.8334 22.2072C12.2336 22.3872 11.6937 22.3272 11.2738 21.9673C10.9739 21.7273 10.7939 21.3074 10.6739 20.9475C10.614 20.7676 10.554 20.5276 10.494 20.3477C10.614 20.1077 10.7939 19.8078 10.9139 19.5079C12.6535 16.0887 15.2928 13.6893 18.8319 12.3097C18.9519 12.3097 19.0719 12.2497 19.1918 12.1897Z" fill="#817DF8"/>
<path d="M29.6293 16.7486C28.3696 17.4084 26.57 17.1085 25.5503 16.0288C24.8904 15.3089 24.5905 14.4692 24.5905 13.5094C24.5905 12.7296 24.8904 12.0697 25.3103 11.4699C25.7902 10.93 26.3301 10.5101 26.9899 10.2702C27.0499 10.2702 27.1099 10.2102 27.2299 10.2102C27.2899 10.3302 27.2899 10.4501 27.2299 10.5101C27.1099 10.99 27.2299 11.4699 27.6498 11.7698C27.7097 11.8298 27.7697 11.8898 27.7697 11.9498C27.6498 12.1297 27.4098 12.0697 27.2898 12.1297C26.69 12.3097 26.2701 12.6696 25.9102 13.2095C25.7902 13.4494 25.7302 13.6294 25.9102 13.8093C26.57 14.7091 27.4098 15.129 28.4896 15.009C28.6095 15.009 28.7295 14.949 28.8495 15.009C28.9694 15.069 28.9694 15.249 28.9694 15.3689C28.8495 15.9088 29.0894 16.2087 29.5093 16.4487C29.5093 16.6286 29.6293 16.6286 29.6293 16.7486Z" fill="#1AA8E7"/>
<path d="M29.6293 16.7486C29.5093 16.6886 29.3293 16.6286 29.2094 16.5087C28.8494 16.2687 28.6695 15.9088 28.7895 15.4889C28.7895 15.3689 28.8494 15.249 28.7295 15.189C28.7295 15.129 28.7895 15.129 28.7895 15.069C29.3893 14.8291 29.9292 14.5291 30.3491 13.9893C30.589 13.6893 30.589 13.5094 30.3491 13.2095C29.9892 12.7896 29.5693 12.3697 28.9694 12.2497C28.6695 12.1297 28.3696 12.0697 28.0097 12.1297C27.8897 12.1297 27.7697 12.1297 27.7097 12.0697C27.4098 11.8298 27.1699 11.5899 27.1099 11.17C27.0499 10.87 27.1699 10.5701 27.1699 10.3302C27.3498 10.2102 27.5898 10.2102 27.8297 10.2102C28.0097 10.2102 28.1896 10.2102 28.3696 10.2102C30.1091 10.3902 31.4288 11.7098 31.6088 13.5094C31.6088 13.5694 31.6088 13.6893 31.6687 13.7493C31.5488 13.8693 31.6088 14.1092 31.5488 14.2892C31.3088 15.4289 30.649 16.2687 29.6293 16.7486Z" fill="#42C2FB"/>
<path d="M37.7873 21.5475C37.1274 21.9674 36.4076 22.1473 35.6278 22.0873C34.0682 22.0274 32.5685 20.7077 32.3286 19.1481C32.1486 17.5884 32.7485 16.3887 34.0682 15.5489C34.3081 15.429 34.4881 15.309 34.788 15.249C34.848 15.369 34.848 15.369 34.788 15.489C34.668 15.7289 34.608 15.9688 34.608 16.2088C34.608 16.4487 34.728 16.6287 34.848 16.8086C34.908 16.9286 35.0279 16.9886 35.0279 17.1686C34.968 17.2885 34.848 17.2285 34.728 17.2885C34.2481 17.4085 33.9482 17.7084 33.8882 18.1883C33.8282 18.6682 33.9482 19.0281 34.3681 19.328C34.788 19.6279 35.2079 19.9279 35.5678 20.2278C35.7478 20.4078 35.8677 20.4078 36.0477 20.2278C36.2276 20.0478 36.4076 19.9279 36.5876 19.8079C36.7075 19.7479 36.7675 19.6279 36.8875 19.6879C37.0074 19.7479 37.0674 19.8079 37.0674 19.9279C37.1874 20.5277 37.5473 20.8276 38.2072 20.8876C38.2671 20.8876 38.4471 20.8876 38.4471 21.0076C38.2671 21.1876 38.0272 21.3075 37.7873 21.5475Z" fill="#E70054"/>
<path d="M35.0279 17.1086C35.0279 17.1086 35.0279 17.0487 34.9679 17.0487C34.4881 16.5088 34.3681 15.9089 34.788 15.3091V15.2491C36.3476 14.7692 37.9672 15.3691 38.807 16.7487C39.6468 18.0684 39.4668 19.808 38.4471 20.9477C38.3271 20.8277 38.1472 20.8877 37.9672 20.8877C37.4273 20.7677 37.1274 20.4078 37.0074 19.928C37.0074 19.808 37.0074 19.748 36.8875 19.688V19.628C37.0074 19.5081 37.1274 19.4481 37.3074 19.3281C37.8472 18.9682 37.9072 18.3683 37.6673 17.8885C37.4273 17.4086 36.8275 17.1086 36.3476 17.3486C35.8677 17.5285 35.4478 17.3486 35.0279 17.1086C35.0279 17.1686 35.0279 17.1686 35.0279 17.1086Z" fill="#FE4155"/>
<path d="M37.5473 30.8452C35.6878 31.625 33.3483 30.5453 32.8685 28.3258C32.5085 26.5263 33.5283 24.7867 35.2079 24.2468C35.2679 24.2468 35.3279 24.2468 35.3279 24.2468C35.3878 24.4868 35.2079 24.6667 35.2679 24.9067C35.3279 25.3266 35.5078 25.5065 35.9277 25.8664C35.5678 25.8664 35.2079 25.8664 34.848 25.8664C34.728 25.8664 34.608 25.8064 34.548 25.9264C34.3081 26.2263 34.2481 26.5263 34.2481 26.8862C34.2481 27.426 34.2481 27.9059 34.2481 28.4458C34.2481 28.9257 34.4281 29.1056 34.908 29.1056C35.2679 29.1056 35.6278 29.1056 35.9277 29.1056C36.1676 29.0456 36.3476 29.1656 36.4676 29.4056C36.5875 29.5855 36.6475 29.7055 36.8275 29.8255C36.8875 29.8854 36.8875 29.9454 36.8875 30.0054C36.8875 30.3653 37.1274 30.6652 37.5473 30.8452Z" fill="#FE9000"/>
<path d="M36.8875 29.7654C36.6475 29.7654 36.5876 29.5255 36.4676 29.4055C36.3476 29.2255 36.2876 29.1056 36.0477 29.1655C35.6878 29.1655 35.5678 28.9856 35.5678 28.6257C35.5678 28.1458 35.5678 27.6059 35.5678 27.126C35.5678 26.9461 35.5678 26.7062 35.5678 26.5262C35.5678 26.2263 35.6878 26.0463 35.9877 25.9863C36.5876 25.9863 37.2474 25.9863 37.8472 25.9863C38.2072 25.9863 38.3871 26.1663 38.3871 26.5862C38.3871 27.306 38.3871 27.9658 38.3871 28.6857C38.3871 29.0456 38.2072 29.2255 37.9072 29.2255C37.4274 29.1655 37.1874 29.3455 37.0075 29.7654C37.0075 29.6454 36.9475 29.7054 36.8875 29.7654Z" fill="#E8EEFE"/>
<path d="M35.9277 25.8665C35.6878 26.0464 35.6278 26.2264 35.6278 26.5263C35.6278 27.1861 35.6278 27.846 35.6278 28.5058C35.6278 28.8057 35.7478 29.0457 36.0477 29.1057C35.5678 29.1656 35.0879 29.1656 34.608 29.1057C34.3081 29.1057 34.1881 28.8657 34.1881 28.6258C34.1881 27.906 34.1881 27.1261 34.1881 26.4063C34.1881 26.1664 34.3081 25.9864 34.5481 25.8665C35.0279 25.8665 35.5078 25.8665 35.9277 25.8665Z" fill="#BDC7F6"/>
<path d="M10.1942 28.0263C10.0142 27.6663 9.77417 27.3663 9.65417 27.0063C9.89417 27.0063 10.1942 27.1263 10.4342 27.0063C10.9142 26.8263 11.0942 26.5263 11.0942 25.9863C11.3342 26.3463 11.5742 26.7063 11.7542 27.1263C11.2142 27.4863 10.7342 27.7863 10.1942 28.0263Z" fill="#D2DBFA"/>
<path d="M29.8092 30.9652C28.7895 30.7252 27.7097 30.6053 26.69 30.6053C25.0104 30.6053 23.3908 30.9052 21.8312 31.505C21.4113 30.4253 20.6915 29.4655 20.1516 28.4458C19.9716 28.0859 19.7317 27.8459 19.6117 27.486C19.6117 27.3061 19.7317 27.2461 19.7917 27.1861C20.6315 26.5263 21.4113 25.8664 22.1311 25.0866C22.9709 24.1868 23.6907 23.2271 24.3506 22.1473C24.4105 22.0274 24.4705 21.9074 24.5305 21.8474C24.6505 21.8474 24.6505 21.9674 24.7105 22.0274C26.3301 24.7867 27.8897 27.546 29.4493 30.2453C29.6293 30.4853 29.8692 30.6652 29.8092 30.9652Z" fill="#D2DBFA"/>
<path d="M24.5905 21.8474C24.5905 22.0873 24.4106 22.2673 24.2906 22.5072C23.4508 23.8269 22.431 25.0266 21.2913 26.1064C20.8114 26.5262 20.3316 26.8862 19.8517 27.3061C19.7917 27.366 19.7317 27.426 19.7317 27.486C19.6717 27.486 19.6117 27.426 19.5518 27.366C18.9519 26.4063 18.412 25.3865 17.8722 24.4268C17.6922 24.1268 17.5123 23.9469 17.3323 23.7069C19.4318 21.9674 20.9314 19.8679 21.7712 17.2285C21.7712 17.1686 21.8312 17.1086 21.8312 17.0486C21.9512 17.0486 22.0112 17.1686 22.0112 17.2285C22.8509 18.7282 23.6907 20.1678 24.5905 21.6674C24.5305 21.6674 24.5905 21.7274 24.5905 21.8474Z" fill="#BDC7F6"/>
<path d="M29.8092 30.9651C29.4493 30.3052 29.0894 29.6454 28.6695 28.9856C27.9497 27.7259 27.2299 26.5262 26.51 25.2665C25.9102 24.1867 25.2504 23.107 24.6505 22.0873C24.5905 22.0273 24.5905 21.9073 24.5305 21.8473C24.4706 21.4274 24.6505 21.1275 24.9504 20.9475C25.2504 20.7076 25.6703 20.5876 26.0302 20.8276C27.8297 23.8868 29.5693 27.006 31.3688 30.0653C31.6688 30.6052 31.6088 31.145 31.1289 31.385C30.649 31.6849 30.1691 31.5049 29.8092 31.0251C29.8692 31.0251 29.8092 30.9651 29.8092 30.9651Z" fill="#E8EEFE"/>
<path d="M19.6117 27.3059C19.6717 27.3659 19.6717 27.3659 19.7317 27.4259C20.3916 28.5656 20.9914 29.7054 21.6512 30.7851C21.7712 31.025 21.8312 31.205 21.8312 31.5049C21.7112 31.8648 21.5313 32.1048 21.1714 32.2847C20.5115 32.6446 19.8517 33.0645 19.1319 33.4244C18.8319 33.7244 18.412 33.9043 18.0521 34.1443C17.8122 34.2042 17.5722 34.2042 17.3323 34.0843C17.2123 34.0243 17.1524 34.0243 17.0924 33.9043C16.6125 33.3045 16.3126 32.5846 15.8927 31.9248C15.5327 31.325 15.2328 30.6651 14.8129 30.1253C14.8729 30.0053 14.8729 29.8853 14.9929 29.7653C15.2328 29.4054 15.5327 29.4054 15.8927 29.4654C16.3126 29.7653 16.3725 29.7653 16.8524 29.5254C17.2723 29.2855 17.6922 28.9855 18.1721 28.7456C18.592 28.5056 18.652 28.4457 18.592 27.9658C18.772 27.4259 19.0119 27.246 19.6117 27.3059Z" fill="#FE4155"/>
<path d="M15.9526 29.5254C15.8926 29.5254 15.8926 29.5854 15.8327 29.5854C15.2928 29.5254 15.2328 29.5854 14.9929 30.0653C14.9929 30.1253 14.9329 30.1253 14.8729 30.1253C14.573 29.5254 14.2131 28.9856 13.9131 28.3857C13.5532 27.7859 13.1933 27.186 12.8334 26.5262C12.7734 25.9863 13.0134 25.6264 13.4932 25.3865C14.453 24.8466 15.4128 24.3067 16.3725 23.7669C16.6725 23.5869 16.9724 23.5269 17.2723 23.6469C17.5122 23.7669 17.6922 23.9468 17.8122 24.1868C18.412 25.2665 19.0119 26.2862 19.6117 27.366L19.5517 27.426C19.0119 27.366 18.8319 27.6659 18.652 28.0858C18.2921 27.9658 18.0521 28.0858 17.7522 28.2657C17.3923 28.5057 16.9724 28.7456 16.5525 28.9256C16.2526 29.0456 16.0126 29.1655 15.9526 29.5254Z" fill="#E70054"/>
<path d="M26.0302 20.8277C25.7302 20.7677 25.4303 20.7677 25.1304 20.8877C24.7705 21.0677 24.5905 21.4276 24.5305 21.8475C24.1106 21.1276 23.6907 20.4678 23.3308 19.748C22.791 18.8482 22.2511 17.8884 21.7112 16.9887C21.5913 16.7487 21.4713 16.4488 21.5313 16.1489C21.6512 15.789 21.9512 15.489 22.3111 15.489C22.731 15.429 23.0309 15.609 23.2708 16.0289C24.0507 17.3486 24.7705 18.6682 25.5503 19.9879C25.7302 20.2279 25.9102 20.5278 26.0302 20.8277Z" fill="#D2DBFA"/>
<path d="M17.1523 33.9043C17.4523 34.1442 17.7522 34.1442 18.1121 34.0843C18.2321 34.2042 18.1721 34.3242 18.1721 34.4442C18.1721 35.044 18.472 35.5239 19.0119 35.7638C19.1318 35.8238 19.2518 35.8238 19.3118 35.9438C19.1318 36.3637 18.7719 36.6036 18.412 36.9036L18.352 36.8436C17.6922 36.1837 17.0923 35.4639 16.4325 34.8041C16.3125 34.6841 16.2526 34.5641 16.1926 34.4442C16.4925 34.2642 16.7924 34.0243 17.1523 33.9043Z" fill="#BDC7F6"/>
<path d="M19.3118 35.944C18.532 35.7641 17.9921 35.1642 18.0521 34.3244C18.0521 34.2644 18.0521 34.1445 18.0521 34.0845C18.412 33.9045 18.7719 33.6646 19.1319 33.4846C19.7317 34.2644 19.7917 35.1042 19.3118 35.944Z" fill="#D2DBFA"/>
<path d="M28.7895 15.129L28.7295 15.189C27.9497 15.3089 27.1699 15.189 26.51 14.7091C26.2101 14.4691 25.9702 14.2292 25.7302 13.9293C25.6103 13.6893 25.6103 13.5094 25.7302 13.3294C26.0901 12.7895 26.57 12.4296 27.1699 12.1897C27.2299 12.3097 27.1099 12.3697 27.1099 12.4896C26.87 12.9095 26.9299 13.3294 27.2299 13.6893C27.4698 14.0492 27.8897 14.1692 28.3096 14.1092C28.3696 14.1092 28.4896 14.0492 28.5495 14.1092C28.4896 14.4092 28.5495 14.7691 28.7895 15.129Z" fill="#BDC7F6"/>
<path d="M28.5499 14.0498C27.9499 14.2298 27.4699 14.0498 27.1699 13.6298C26.8099 13.2098 26.8699 12.7298 27.2299 12.1298C27.4099 12.0698 27.5899 12.0698 27.7099 12.0098C28.1899 12.0098 28.6099 12.0098 29.0299 12.1898C29.4499 12.4898 29.3899 12.9098 29.2699 13.3298C29.2099 13.6898 29.0299 14.0498 28.5499 14.0498Z" fill="#47477F"/>
<path d="M28.5495 14.0492C29.3293 13.6293 29.5093 12.9695 29.0294 12.1897C29.6892 12.3697 30.1691 12.8495 30.529 13.3894C30.649 13.5694 30.589 13.7493 30.4691 13.8693C30.0492 14.4691 29.5093 14.889 28.7895 15.069C28.4296 14.829 28.3696 14.4691 28.5495 14.0492Z" fill="#E8EEFE"/>
<path d="M36.8875 19.5679C36.5875 19.8078 36.3476 20.0477 36.1077 20.2877C35.9277 20.4676 35.7478 20.4676 35.6278 20.2877C35.2679 19.9278 34.908 19.6279 34.4881 19.3879C33.9482 19.028 33.7083 18.5481 33.8882 18.0682C34.0682 17.4684 34.4281 17.1685 35.0879 17.1685C35.1479 17.2284 35.1479 17.3484 35.1479 17.4084C35.0879 17.7683 35.2079 18.0082 35.5078 18.1282C35.9877 18.4281 36.4076 18.7281 36.6475 19.2679C36.7075 19.3879 36.8275 19.4479 36.8875 19.5679Z" fill="#BDC7F6"/>
<path d="M36.8875 19.5679C36.7075 19.5079 36.5875 19.388 36.4676 19.208C36.2876 18.8481 35.9877 18.5482 35.6278 18.3682C35.0879 18.1283 34.848 17.7684 35.0279 17.1685C35.5678 17.3485 36.0477 17.3485 36.6475 17.1685C37.1274 17.0485 37.6073 17.4085 37.7872 17.8883C37.9672 18.3682 37.7872 18.9081 37.3673 19.268C37.2474 19.388 37.0674 19.448 36.8875 19.5679Z" fill="#E8EEFE"/>
<path d="M15.9526 29.5255C15.8926 29.2856 16.0126 29.1056 16.2526 28.9856C16.8524 28.6857 17.3923 28.3258 17.9921 28.0259C18.2321 27.9059 18.472 27.8459 18.652 28.0859C18.8319 28.4458 18.7719 28.5657 18.472 28.7457C17.8722 29.1056 17.3323 29.4655 16.7324 29.7654C16.3725 29.9454 16.1326 29.8254 15.9526 29.5255Z" fill="#FE7085"/>
<path d="M18.0521 32.6448C17.8122 32.6448 17.6922 32.5248 17.6322 32.3448C17.5722 32.1649 17.5722 31.9249 17.8122 31.805C18.1121 31.625 18.412 31.4451 18.712 31.2651C19.0119 31.0851 19.3118 30.9052 19.6117 30.7252C19.9117 30.5453 20.1516 30.6053 20.3316 30.8452C20.4515 31.0252 20.3916 31.3251 20.0916 31.4451C19.4918 31.805 18.8919 32.1649 18.2921 32.4648C18.2321 32.6448 18.1121 32.7048 18.0521 32.6448Z" fill="#FE7085"/>
<path d="M17.0923 31.2651C16.9724 31.2651 16.8524 31.2051 16.7924 30.9652C16.7324 30.7852 16.7924 30.5453 16.9724 30.4253C17.6322 30.0654 18.2321 29.7055 18.8919 29.2856C19.1318 29.1656 19.3118 29.2856 19.4318 29.4656C19.5517 29.6455 19.5517 29.8854 19.3118 30.0054C18.9519 30.2454 18.532 30.4853 18.1121 30.7252C17.8722 30.8452 17.6322 30.9652 17.3923 31.1451C17.3923 31.2051 17.2723 31.2651 17.0923 31.2651Z" fill="#FE7085"/>
<path d="M17.0924 25.4466C17.0924 25.6265 16.9724 25.7465 16.8524 25.8665C16.2526 26.2264 15.6527 26.5863 14.9929 26.9462C14.7529 27.0662 14.513 27.0062 14.393 26.7662C14.2731 26.5863 14.333 26.3463 14.573 26.1664C15.1728 25.8065 15.8327 25.4466 16.4325 25.0866C16.7324 24.9067 17.0924 25.1466 17.0924 25.4466Z" fill="#FE7085"/>
<path d="M15.5927 28.4458C15.3528 28.4458 15.1728 28.3259 15.1128 28.0859C15.0528 27.846 15.1728 27.726 15.3528 27.606C15.7127 27.3661 16.0726 27.1861 16.4925 26.9462C16.7324 26.8262 16.9724 26.7063 17.2123 26.5263C17.4523 26.4063 17.6922 26.4063 17.8722 26.6463C17.9921 26.8862 17.9321 27.1262 17.6922 27.2461C17.0923 27.606 16.4925 27.966 15.8327 28.3259C15.7127 28.3859 15.6527 28.3859 15.5927 28.4458Z" fill="#FE7085"/>
<path d="M28.9096 12.7897C28.9096 13.0297 28.7296 13.2097 28.4896 13.2097C28.2496 13.2097 28.0696 12.9697 28.0696 12.7897C28.0696 12.5497 28.2496 12.3697 28.4896 12.3697C28.6696 12.3097 28.9096 12.5497 28.9096 12.7897Z" fill="#5E5E9A"/>
</g>
<defs>
<clipPath id="clip0_13287_16718">
<rect width="30.4125" height="30.5325" fill="white" transform="translate(9.41425 9.9104)"/>
</clipPath>
</defs>
</svg>
