<svg width="49" height="50" viewBox="0 0 49 50" fill="none" xmlns="http://www.w3.org/2000/svg">
<rect x="0.0803223" width="48" height="48" rx="24" fill="#E3FBDA"/>
<g clip-path="url(#clip0_13287_9242)">
<path d="M24.2869 1.97095C25.575 2.40842 26.8996 2.70006 28.212 3.06462C30.3143 3.64791 32.4287 4.2069 34.531 4.77804C35.1629 4.94816 35.333 5.2155 35.2358 5.88386C35.2601 6.13905 35.09 6.28487 34.9077 6.36993C34.5188 6.56436 34.1178 6.71019 33.6682 6.66158C32.9877 6.84386 32.295 7.02614 31.6145 7.22057C31.493 7.25702 31.335 7.24487 31.2621 7.39069C31.2256 7.42715 31.1892 7.45145 31.1406 7.47576C28.9654 8.08335 26.7659 8.64234 24.5907 9.23778C24.2383 9.335 23.8738 9.335 23.5092 9.24993C21.3097 8.65449 19.1102 8.0712 16.9107 7.47576C16.8621 7.46361 16.8256 7.4393 16.7892 7.40285C16.4732 7.14766 16.0601 7.1355 15.6834 7.02614C14.9543 6.8074 14.2251 6.62512 13.4839 6.44285C13.0586 6.33348 12.7669 6.09044 12.7426 5.64082C12.7183 5.23981 12.9856 4.94816 13.496 4.81449C16.7406 3.93955 19.9973 3.06462 23.2419 2.17753C23.412 2.12892 23.6064 2.12892 23.7401 1.99525C23.9224 1.97095 24.1046 1.97095 24.2869 1.97095Z" fill="#464F5E"/>
<path d="M46.537 44.5999C46.9259 44.6242 47.1568 44.8673 47.3512 45.1711C47.3512 45.8759 47.3512 46.5685 47.3512 47.2733C47.1568 47.565 46.938 47.8323 46.537 47.8323C46.4034 47.8809 46.2697 47.8566 46.136 47.8566C42.6849 47.8566 39.2459 47.8566 35.7947 47.8566C35.2479 47.8566 35.1993 47.8202 35.1872 47.2733C35.175 46.5564 35.175 45.8516 35.1872 45.1346C35.1872 44.9523 35.1872 44.77 35.3087 44.6121C35.5031 44.4541 35.734 44.4784 35.9649 44.4784C39.2945 44.4784 42.612 44.4784 45.9416 44.4784C46.136 44.4784 46.3426 44.4662 46.537 44.5999Z" fill="#ECC000"/>
<path d="M1.48993 44.5998C1.48993 38.3659 1.48993 32.1198 1.48993 25.8859C1.48993 25.6915 1.50208 25.497 1.51423 25.2904C1.67221 25.1811 1.84233 25.1568 2.03676 25.1568C5.58512 25.1568 9.14563 25.1325 12.694 25.1689C13.253 25.2054 13.8363 25.0352 14.3831 25.2904C14.5289 25.497 14.5046 25.7279 14.5046 25.9466C14.5046 31.9132 14.5046 37.8677 14.5046 43.8342C14.5046 44.5998 14.4439 44.6484 13.6661 44.6606C13.3988 44.6606 13.1193 44.6241 12.852 44.7092C12.7912 44.7213 12.7304 44.7335 12.6697 44.7335C12.3051 44.7821 11.9406 44.7578 11.576 44.7578C8.46512 44.7578 5.36638 44.7578 2.2555 44.7578C2.00031 44.7699 1.70866 44.8428 1.48993 44.5998Z" fill="#85B3CB"/>
<path d="M31.2135 7.36646C31.2257 7.36646 31.25 7.36645 31.2621 7.37861C31.2743 9.15278 31.2864 10.927 31.2864 12.7011C31.2864 12.8956 31.3107 13.1022 31.2864 13.2966C31.2257 13.7705 31.2986 14.1108 31.894 14.1351C32.1006 14.1472 32.295 14.2809 32.4409 14.4389C33.8991 15.8971 35.3452 17.3675 36.8034 18.8257C36.5604 19.0566 36.2566 18.9837 35.9771 18.9837C31.3472 18.9837 26.7173 18.9837 22.0874 18.9837C18.7214 18.9837 15.3431 18.9837 11.9771 18.9837C11.7097 18.9837 11.4302 19.0444 11.1872 18.85C12.3781 17.4161 13.569 15.97 14.7599 14.5482C15.1123 14.1351 15.5983 14.0378 16.1209 14.0378C16.8135 14.0378 16.7406 14.1351 16.7406 13.3938C16.7406 11.5589 16.7406 9.72392 16.7406 7.88899C16.7406 7.71886 16.7528 7.56089 16.7649 7.39076C16.7771 7.37861 16.7892 7.37861 16.8135 7.37861C16.9958 7.58519 16.9593 7.84038 16.9593 8.07127C16.9593 9.78468 16.9593 11.4981 16.9593 13.2115C16.9593 13.8313 16.9837 13.8677 17.5912 13.8677C21.8687 13.8677 26.1462 13.8677 30.4358 13.8677C31.0434 13.8677 31.0677 13.8434 31.0677 13.2115C31.0677 11.4981 31.0677 9.78468 31.0677 8.07127C31.0677 7.81608 31.0312 7.56089 31.2135 7.36646Z" fill="#4396D4"/>
<path d="M12.7304 44.6242C12.7548 44.612 12.7912 44.612 12.8155 44.5999C15.4768 44.4297 18.1502 44.4662 20.8115 44.4905C22.938 44.4662 25.0646 44.4662 27.1912 44.4905C29.8403 44.4905 32.4894 44.4419 35.1385 44.5269C35.1993 44.5513 35.2479 44.5756 35.2844 44.6242C35.2844 45.5356 35.2965 46.4469 35.2722 47.3583C35.2601 47.7107 35.3573 47.8201 35.7218 47.8201C39.1487 47.808 42.5755 47.808 46.0145 47.808C46.1846 47.808 46.3426 47.8201 46.5127 47.8323C46.3548 47.9538 46.1603 47.893 45.978 47.9052C42.5755 47.9052 39.173 47.9052 35.7704 47.9052C35.491 47.9052 35.2965 47.9416 35.1629 48.2333C35.0292 48.5128 34.774 48.6464 34.4216 48.6464C27.4707 48.6343 20.5077 48.6343 13.5568 48.6464C13.2044 48.6464 12.9492 48.5128 12.8155 48.2333C12.6818 47.9295 12.4874 47.9052 12.2079 47.9052C8.80538 47.9173 5.40285 47.9052 2.00032 47.9052C1.81804 47.9052 1.63576 47.9538 1.46564 47.8323C1.68437 47.6014 1.97602 47.6743 2.24336 47.6743C5.415 47.6743 8.5745 47.6743 11.7461 47.6743C12.536 47.6743 12.536 47.6743 12.536 46.8601C12.536 46.3133 12.536 45.7664 12.536 45.2196C12.5725 45.013 12.5482 44.7943 12.7304 44.6242Z" fill="#F7E7AA"/>
<path d="M11.1872 18.8378C19.5112 18.8378 27.8353 18.8378 36.1593 18.8378C36.3659 18.8378 36.5847 18.8257 36.7912 18.8257C36.8155 18.8621 36.8398 18.8986 36.8641 18.9229C36.9492 19.5913 36.9006 20.2718 36.9735 20.9401C37.0707 21.8515 36.609 22.2647 35.6733 22.2404C35.5396 22.2404 35.4059 22.2282 35.2722 22.2039C34.9806 22.1553 34.7011 22.1553 34.4095 22.1553C27.4707 22.1553 20.5441 22.1553 13.6054 22.1553C13.3138 22.1553 13.0343 22.1553 12.7426 22.2039C12.6697 22.2161 12.5968 22.2282 12.5239 22.2282C11.3209 22.3011 10.8105 21.7057 11.0657 20.5269C11.1872 19.9923 11.0414 19.4454 11.1507 18.9107C11.1629 18.8986 11.175 18.8743 11.1872 18.8378Z" fill="#2B5781"/>
<path d="M11.1507 18.9229C11.1507 19.6277 11.1507 20.3325 11.1507 21.0373C11.1507 21.815 11.4302 22.0945 12.2079 22.0945C12.378 22.0945 12.536 22.0945 12.7061 22.0945C12.8276 22.2039 12.8398 22.3618 12.8398 22.5077C12.8519 23.2854 12.8519 24.0753 12.8398 24.853C12.8398 24.9988 12.8155 25.1568 12.7061 25.2783C8.97549 25.2783 5.24486 25.2783 1.50208 25.2783C2.15828 23.9537 2.80233 22.617 3.48283 21.3046C3.78663 20.7213 4.32132 20.454 4.97752 20.4661C6.86106 20.4783 8.73245 20.454 10.616 20.4783C10.9927 20.4783 11.1142 20.3811 11.0899 20.0044C11.0899 19.652 11.0413 19.2753 11.1507 18.9229Z" fill="#4396D4"/>
<path d="M12.7305 44.6242C12.7305 45.5356 12.7183 46.4469 12.7426 47.3583C12.7548 47.7107 12.6454 47.8201 12.293 47.8201C8.86615 47.808 5.42717 47.808 2.00033 47.808C1.83021 47.808 1.67223 47.8201 1.5021 47.8323C0.906661 47.7229 0.687927 47.4677 0.687927 46.8844C0.687927 46.4469 0.687927 46.0095 0.687927 45.5599C0.687927 44.9766 0.894509 44.7335 1.5021 44.5999C3.81097 44.5999 6.10767 44.612 8.41653 44.612C9.85046 44.6242 11.2965 44.6242 12.7305 44.6242Z" fill="#ECC000"/>
<path d="M35.2965 44.6242C35.2722 44.612 35.2358 44.5999 35.2115 44.5999C34.7983 44.5512 34.3973 44.5634 33.9841 44.5756C33.656 44.5877 33.5467 44.4419 33.5345 44.1502C33.5224 44.0044 33.5224 43.8464 33.5224 43.7006C33.5224 37.8312 33.5224 31.9619 33.5224 26.1047C33.5224 25.8373 33.4738 25.5578 33.6317 25.3026C34.0084 25.0475 34.4216 25.1933 34.8226 25.1568C34.9928 25.1447 35.1507 25.1568 35.3209 25.169C38.5776 25.1447 41.8221 25.169 45.0788 25.1568C45.3705 25.1568 45.65 25.1568 45.9416 25.1568C46.136 25.1568 46.3305 25.1811 46.5006 25.3026C46.5128 25.4971 46.5249 25.6915 46.5249 25.8981C46.5249 32.132 46.5249 38.3781 46.5249 44.612C44.1917 44.612 41.8586 44.6242 39.5133 44.6242C38.1158 44.6242 36.7062 44.6242 35.2965 44.6242Z" fill="#85B3CB"/>
<path d="M46.5127 25.2904C42.7821 25.2904 39.0393 25.2904 35.3087 25.2904C35.1872 25.1689 35.175 25.0231 35.175 24.8651C35.1629 24.0874 35.1629 23.2975 35.175 22.5198C35.175 22.374 35.1872 22.216 35.3087 22.1066C36.7669 22.1066 36.9006 21.9608 36.8641 20.5026C36.852 19.9801 36.8641 19.4454 36.8641 18.9229C36.9735 19.2996 36.9127 19.6763 36.9006 20.053C36.8884 20.3932 36.9856 20.4904 37.338 20.4904C39.1973 20.4783 41.0687 20.4904 42.9279 20.4783C43.7299 20.4661 44.2768 20.8064 44.6292 21.5234C45.2611 22.775 45.8808 24.0388 46.5127 25.2904Z" fill="#4396D4"/>
<path d="M33.6682 6.64936C33.9234 6.57645 34.1907 6.49138 34.4459 6.43062C34.7862 6.34556 35.0657 6.19974 35.2358 5.88379C35.3452 6.8924 35.2723 7.901 35.2723 8.92176C35.2723 9.45645 35.2966 9.91822 35.7826 10.2949C36.1229 10.5501 36.0864 11.0362 35.8069 11.3521C35.5396 11.6559 35.1264 11.7289 34.7862 11.498C34.0814 11.024 33.7047 10.3678 33.6804 9.51721C33.656 8.55721 33.6682 7.60936 33.6682 6.64936Z" fill="#ECC001"/>
<path d="M31.2135 7.36632C31.2135 9.44429 31.2135 11.5223 31.2256 13.6124C31.2256 13.9162 31.1649 14.0377 30.8246 14.0377C26.2798 14.0256 21.7472 14.0256 17.2023 14.0377C16.8742 14.0377 16.8013 13.9162 16.8013 13.6124C16.8135 11.5344 16.8135 9.45645 16.8135 7.36632C17.6155 7.45138 18.3568 7.73088 19.1345 7.93746C20.6049 8.31417 22.0753 8.72733 23.5456 9.12834C23.9831 9.24986 24.4084 9.1648 24.8337 9.04328C26.8996 8.48429 28.9654 7.92531 31.0312 7.37847C31.092 7.35417 31.1527 7.36632 31.2135 7.36632Z" fill="#393F4B"/>
<path d="M33.6682 25.3148C33.6682 31.5244 33.6682 37.734 33.6682 43.9558C33.6682 44.5391 33.6682 44.5269 34.2637 44.5391C34.5796 44.5512 34.8956 44.4662 35.1993 44.5998C32.5259 44.5998 29.8647 44.5998 27.1912 44.5998C26.9968 44.3811 27.0454 44.1138 27.0454 43.8586C27.0454 41.1001 27.0454 38.3416 27.0454 35.5831C27.0454 35.413 27.0454 35.255 27.0454 35.0849C27.009 34.5867 26.7781 34.3193 26.2799 34.3072C24.7609 34.2707 23.2419 34.2707 21.735 34.3072C21.2125 34.3193 20.9695 34.5988 20.9695 35.1821C20.9573 36.6039 20.9695 38.0378 20.9695 39.4596C20.9695 40.9421 20.9695 42.4368 20.9695 43.9193C20.9695 44.1502 21.0181 44.4054 20.8237 44.612C18.1502 44.612 15.489 44.612 12.8156 44.612C13.1558 44.4662 13.5082 44.5391 13.8485 44.5512C14.2373 44.5634 14.371 44.4662 14.371 44.053C14.3467 41.9386 14.3588 39.8363 14.3588 37.7219C14.3588 33.5902 14.3588 29.4586 14.3588 25.3269C14.5168 25.1447 14.7477 25.169 14.9543 25.169C20.9938 25.169 27.0333 25.169 33.0728 25.169C33.2793 25.1568 33.5102 25.1325 33.6682 25.3148Z" fill="#A0C7D2"/>
<path d="M33.6682 25.3148C31.736 25.3148 29.816 25.3027 27.8839 25.3027C23.3755 25.3027 18.8672 25.3148 14.3588 25.3148C13.812 25.3027 13.2652 25.3027 12.7183 25.2905C12.7183 24.2333 12.7183 23.1639 12.7183 22.1067C12.8641 21.973 13.0343 22.0338 13.1922 22.0338C20.4105 22.0338 27.6166 22.0338 34.8348 22.0338C34.9928 22.0338 35.175 21.973 35.3087 22.1067C35.3087 23.1639 35.3087 24.2333 35.3087 25.2905C34.7619 25.3027 34.215 25.3027 33.6682 25.3148Z" fill="#317FBB"/>
<path d="M9.52234 30.1512C9.52234 29.8839 9.51019 29.6044 9.52234 29.3371C9.5588 28.8631 9.89905 28.5107 10.3244 28.5107C10.7375 28.5107 11.1142 28.8631 11.1264 29.3371C11.1507 29.8596 11.1507 30.3943 11.1264 30.929C11.1021 31.4029 10.7375 31.7431 10.3122 31.7431C9.87475 31.7431 9.5345 31.4029 9.51019 30.929C9.51019 30.6616 9.52234 30.4064 9.52234 30.1512Z" fill="#464F5E"/>
<path d="M11.1507 34.9634C11.1507 35.2308 11.175 35.5103 11.1507 35.7776C11.1143 36.2272 10.7619 36.5553 10.3608 36.5675C9.93553 36.5796 9.55882 36.2394 9.54667 35.7655C9.52237 35.2186 9.52237 34.6718 9.54667 34.1371C9.57097 33.6753 9.92338 33.3594 10.3365 33.3472C10.7254 33.3351 11.1143 33.6753 11.1507 34.1128C11.175 34.3923 11.1507 34.6839 11.1507 34.9634Z" fill="#464F5E"/>
<path d="M6.32639 39.7997C6.32639 40.0671 6.35069 40.3466 6.32639 40.6139C6.28993 41.0635 5.93753 41.3916 5.52436 41.3916C5.09904 41.4038 4.73449 41.0514 4.71018 40.5775C4.68588 40.0549 4.68588 39.5203 4.71018 38.9856C4.73449 38.4995 5.07474 38.1592 5.50006 38.1592C5.91322 38.1471 6.28993 38.4995 6.32639 38.9734C6.33854 39.2529 6.32639 39.5203 6.32639 39.7997Z" fill="#464F5E"/>
<path d="M11.1507 39.7998C11.1507 40.0672 11.175 40.3466 11.1507 40.614C11.1143 41.0636 10.7619 41.3917 10.3487 41.4039C9.92338 41.416 9.54668 41.0636 9.53452 40.5897C9.51022 40.0428 9.51022 39.496 9.53452 38.9613C9.55883 38.4996 9.91123 38.1836 10.3244 38.1715C10.7133 38.1593 11.1021 38.4996 11.1386 38.937C11.175 39.2165 11.1507 39.5082 11.1507 39.7998Z" fill="#464F5E"/>
<path d="M6.32639 30.1269C6.32639 30.3943 6.35069 30.6738 6.32639 30.9411C6.28993 31.4151 5.91322 31.7553 5.48791 31.731C5.07474 31.7188 4.72234 31.3786 4.71018 30.929C4.68588 30.3821 4.68588 29.8353 4.71018 29.3006C4.73449 28.851 5.08689 28.5229 5.48791 28.4986C5.90107 28.4864 6.27778 28.8388 6.31423 29.3006C6.33854 29.5801 6.32639 29.8596 6.32639 30.1269Z" fill="#464F5E"/>
<path d="M6.32638 34.9634C6.32638 35.2308 6.35068 35.5103 6.32638 35.7776C6.28992 36.2272 5.93752 36.5553 5.53651 36.5675C5.11119 36.5796 4.73448 36.2394 4.72233 35.7655C4.69803 35.2186 4.69803 34.6718 4.72233 34.1371C4.74663 33.6875 5.09904 33.3594 5.5122 33.3472C5.90106 33.3351 6.28992 33.6753 6.32638 34.1128C6.33853 34.3923 6.31423 34.6839 6.32638 34.9634C6.31423 34.9634 6.31423 34.9634 6.32638 34.9634Z" fill="#464F5E"/>
<path d="M20.8236 44.5999C20.8236 41.3918 20.8115 38.1958 20.8115 34.9877C20.8115 34.4895 21.1396 34.1614 21.6378 34.1493C23.2175 34.1371 24.7973 34.1371 26.377 34.1493C26.8753 34.1493 27.2034 34.4895 27.2034 34.9877C27.2034 38.1958 27.2034 41.3918 27.1912 44.5999C25.0768 44.5999 22.9502 44.5999 20.8236 44.5999Z" fill="#567580"/>
<path d="M38.4925 30.139C38.4925 30.4064 38.5046 30.6859 38.4925 30.9532C38.456 31.4028 38.1158 31.7309 37.7026 31.7309C37.2894 31.7431 36.9127 31.415 36.8884 30.9654C36.852 30.4064 36.8641 29.8474 36.8884 29.2884C36.9127 28.8388 37.2894 28.4985 37.6783 28.4985C38.1036 28.4985 38.456 28.8388 38.4925 29.3127C38.5168 29.5922 38.4925 29.8717 38.4925 30.139Z" fill="#464F5E"/>
<path d="M43.3289 39.7755C43.3289 40.0429 43.3411 40.3223 43.3289 40.5897C43.2925 41.0636 42.9279 41.4039 42.5026 41.3917C42.0895 41.3796 41.7371 41.0515 41.7127 40.6018C41.6884 40.055 41.6884 39.5082 41.7127 38.9735C41.7371 38.4996 42.1138 38.1593 42.5391 38.1715C42.9765 38.1836 43.3046 38.5239 43.3289 39.0099C43.3411 39.2651 43.3289 39.5203 43.3289 39.7755Z" fill="#464F5E"/>
<path d="M43.329 30.139C43.329 30.4064 43.3533 30.6859 43.329 30.9532C43.2925 31.4028 42.9401 31.7309 42.5269 31.7309C42.1138 31.7309 41.7492 31.415 41.7249 30.9654C41.6885 30.4064 41.7006 29.8474 41.7249 29.2884C41.7492 28.8509 42.1259 28.5107 42.5269 28.4985C42.9523 28.4985 43.3047 28.8388 43.3411 29.3127C43.3411 29.6044 43.329 29.8717 43.329 30.139Z" fill="#464F5E"/>
<path d="M36.8763 34.9512C36.8763 34.6839 36.8641 34.4044 36.8763 34.137C36.9127 33.6874 37.2651 33.3472 37.6661 33.335C38.0914 33.3229 38.4682 33.6753 38.4925 34.137C38.5168 34.6839 38.5168 35.2307 38.4925 35.7654C38.4682 36.215 38.1157 36.5431 37.7026 36.5553C37.2773 36.5674 36.9127 36.2272 36.8763 35.7532C36.8641 35.4981 36.8763 35.2307 36.8763 34.9512Z" fill="#464F5E"/>
<path d="M43.3289 34.9755C43.3289 35.2429 43.3532 35.5224 43.3289 35.7897C43.2925 36.2393 42.9401 36.5674 42.5269 36.5674C42.1138 36.5674 41.7492 36.2393 41.7249 35.8018C41.7006 35.2429 41.7006 34.6839 41.7249 34.1249C41.7492 33.6874 42.1259 33.3472 42.5269 33.3472C42.9522 33.3472 43.3046 33.6996 43.3411 34.1735C43.3411 34.4287 43.3289 34.7082 43.3289 34.9755Z" fill="#464F5E"/>
<path d="M38.5046 39.7755C38.5046 40.0429 38.5168 40.3223 38.5046 40.5897C38.4682 41.0636 38.1157 41.4039 37.6783 41.3917C37.2773 41.3796 36.9006 41.0393 36.8884 40.6018C36.8641 40.055 36.8641 39.5082 36.8884 38.9735C36.9127 38.4996 37.3016 38.1593 37.7147 38.1715C38.1522 38.1836 38.4682 38.5239 38.5046 39.0099C38.5168 39.2651 38.5046 39.5203 38.5046 39.7755Z" fill="#464F5E"/>
<path d="M22.3791 29.3855C22.3791 29.6529 22.3912 29.9324 22.3791 30.1997C22.3548 30.6007 21.9902 30.941 21.6014 30.941C21.2125 30.941 20.8358 30.6129 20.8236 30.1997C20.7993 29.6286 20.7993 29.0453 20.8236 28.4741C20.8358 28.0245 21.1517 27.745 21.5892 27.745C22.051 27.7329 22.3548 28.0124 22.3912 28.4863C22.3912 28.5106 22.3912 28.547 22.3912 28.5713C22.3912 28.8387 22.3912 29.1182 22.3791 29.3855Z" fill="#464F5E"/>
<path d="M27.2155 29.3491C27.2155 29.6407 27.2277 29.9202 27.2155 30.2118C27.1912 30.6129 26.8145 30.941 26.4257 30.941C26.0368 30.941 25.6722 30.6007 25.6479 30.1997C25.6236 29.6286 25.6236 29.0453 25.6479 28.4741C25.6601 28.0245 25.976 27.745 26.4135 27.745C26.8753 27.7329 27.1791 28.0124 27.2155 28.4863C27.2277 28.7658 27.2155 29.0574 27.2155 29.3491Z" fill="#464F5E"/>
</g>
<defs>
<clipPath id="clip0_13287_9242">
<rect width="48" height="48" fill="white" transform="translate(0.0803223 1.18115)"/>
</clipPath>
</defs>
</svg>
