<svg width="49" height="49" viewBox="0 0 49 49" fill="none" xmlns="http://www.w3.org/2000/svg">
<rect x="0.620483" y="0.613525" width="48" height="48" rx="24" fill="#FEF6D0"/>
<g clip-path="url(#clip0_13289_1489)">
<path d="M25.3357 8.00281C25.4557 8.00281 25.5756 8.00281 25.6956 8.00281C25.7556 8.0628 25.8156 8.0628 25.9356 8.00281C25.9956 8.00281 26.0556 8.00281 26.1756 8.00281C26.9554 8.0628 27.7953 8.12279 28.5752 8.30276C29.775 8.60272 30.9748 8.96266 32.1147 9.44259C32.2346 9.50258 32.4146 9.56257 32.4746 9.74254C32.4746 9.80253 32.4746 9.86253 32.4146 9.86253C31.8747 10.3425 31.8147 10.9424 31.8747 11.6023C31.8747 13.342 31.8747 15.1417 31.8747 16.8815C31.8747 17.0614 31.8747 17.2414 31.8147 17.4214C31.6947 17.6613 31.5747 17.4814 31.4548 17.4214C31.0948 17.0614 30.7349 16.7015 30.3749 16.3415C29.835 15.8016 29.2951 15.6816 28.5752 15.9816C27.6153 16.5815 27.4954 17.6014 28.2752 18.4412C29.835 20.001 31.3948 21.6207 33.0145 23.1205C33.4345 23.5405 33.7344 24.0804 33.7344 24.6803C33.7344 26.1201 33.7944 27.6198 33.7344 29.0596C33.6744 29.1796 33.7344 29.3596 33.4945 29.2996C33.3745 29.1796 33.4345 28.9996 33.4345 28.8796C33.4345 28.2797 33.4345 27.6798 33.4345 27.0799C33.4345 26.36 33.1345 25.8201 32.4146 25.5801C31.8747 25.4002 31.3348 25.6401 30.9748 26.24C30.7949 26.3 30.7949 26.54 30.5549 26.42C30.4349 26.1201 30.4949 25.8201 30.4949 25.5202C30.5549 24.8003 30.195 24.3803 29.595 24.0804C28.7552 23.8404 27.9753 24.4403 27.9153 25.3402C27.9153 25.6401 27.9753 25.8801 27.8553 26.1801C27.6753 26.3 27.6153 26.1201 27.6153 26.0001C27.4354 25.5801 27.0754 25.3402 26.6555 25.2802C26.5355 25.2202 26.4155 25.2202 26.3555 25.1002C26.2955 24.9802 26.3555 24.8003 26.4155 24.6803C26.5955 24.0804 26.6555 23.4205 26.6555 22.7606C26.6555 20.9608 26.6555 19.1611 26.6555 17.3614C26.6555 16.8215 26.4755 16.4015 25.9956 16.1616C25.5157 15.9816 25.0957 16.1016 24.7958 16.4615C24.7358 16.5215 24.6758 16.7015 24.4958 16.6415C24.3758 16.5815 24.3758 16.4015 24.3758 16.2816C24.3758 15.6217 24.3758 15.0217 24.3758 14.3618C24.3758 14.3019 24.3758 14.2419 24.3758 14.1819C24.3158 13.522 23.9559 13.102 23.296 12.9821C22.7561 12.8621 22.2162 13.162 21.9162 13.642C21.8562 13.7619 21.8562 13.9419 21.6762 13.8819C21.5563 13.582 21.6163 13.282 21.6163 12.9221C21.6163 12.2022 21.3163 11.7822 20.6564 11.5423C19.6965 11.4223 18.9767 12.0222 18.9167 13.042C18.9167 13.222 18.9767 13.522 18.7967 13.642C18.7367 13.642 18.6767 13.582 18.6767 13.522C18.4367 13.102 18.1368 12.8621 17.7168 12.8021C16.817 12.7421 16.2171 13.282 16.2171 14.1819C16.2171 16.1016 16.2171 18.0213 16.2171 19.941C16.2171 20.121 16.2171 20.3009 16.1571 20.4809C16.0371 20.7209 15.9171 20.5409 15.7971 20.4209C15.4372 20.061 15.0173 19.701 14.6573 19.2811C14.1774 18.7412 13.5775 18.6212 12.9176 18.9212C11.9577 19.4611 11.7777 20.5409 12.4976 21.3208C12.8576 21.7407 13.2775 22.1007 13.6375 22.5206C13.7574 22.6406 13.9374 22.7606 13.8174 23.0005C13.4575 23.4205 13.3375 23.8404 13.3975 24.3803C13.3975 24.5603 13.3975 24.6803 13.3375 24.8603C13.1575 24.9802 13.0975 24.8003 13.0975 24.6803C12.9176 24.3203 12.6176 24.0804 12.2577 24.0204C11.3578 23.8404 10.6379 24.4403 10.6379 25.4002C10.6379 26.42 10.6379 27.4999 10.6379 28.5197C10.6379 29.4196 10.6379 30.3194 10.6379 31.2193C10.6379 31.3993 10.6379 31.5792 10.5779 31.6992C10.398 31.9392 10.338 31.7592 10.218 31.6392C9.85803 31.3393 9.49809 30.9793 9.19813 30.6194C8.65821 30.0795 8.05831 29.8995 7.39841 30.2594C7.21843 30.2594 7.15844 30.4994 6.97847 30.3794C6.73851 29.7795 6.67851 29.1196 6.61852 28.5197C6.61852 28.2797 6.61852 28.0398 6.55853 27.7998C6.55853 27.4999 6.55853 27.2599 6.55853 26.9599C6.61852 26.78 6.61852 26.6 6.55853 26.48C6.55853 26.24 6.55853 26.0001 6.55853 25.7601C6.61852 25.6401 6.61852 25.4602 6.55853 25.3402C6.55853 25.1002 6.55853 24.9202 6.55853 24.6803C6.61852 23.9004 6.67851 23.1805 6.85849 22.4006C7.51839 19.4611 8.7782 16.8215 10.6979 14.5418C12.3177 12.6221 14.2374 11.1223 16.457 9.98251C18.2568 9.08264 20.1765 8.42274 22.2162 8.18278C22.5761 8.12279 22.8761 8.18278 23.236 8.12279C23.356 8.12279 23.416 8.12279 23.536 8.12279C23.5959 8.18278 23.6559 8.18278 23.6559 8.12279C23.7759 8.12279 23.8959 8.12279 24.0159 8.12279C24.1959 8.18278 24.3758 8.18278 24.4958 8.12279C24.6158 8.12279 24.7958 8.12279 24.9158 8.12279C25.0357 8.0628 25.1557 8.0628 25.3357 8.00281Z" fill="#634085"/>
<path d="M42.1932 21.5608C42.4931 22.5806 42.6131 23.5405 42.7331 24.5603C42.7331 24.6203 42.7331 24.6803 42.7931 24.7403C42.7931 24.8003 42.7931 24.8603 42.7931 24.9803C42.7331 25.0403 42.7331 25.1003 42.7931 25.2202C42.7931 25.3402 42.7931 25.5202 42.7931 25.6402C42.7331 25.7602 42.7331 25.9401 42.7931 26.0601C42.7931 26.1801 42.7931 26.3001 42.7931 26.4201C42.7331 26.54 42.7331 26.72 42.7931 26.84C42.7931 26.96 42.7931 27.02 42.7931 27.1399C42.7331 27.1999 42.7931 27.2599 42.7331 27.3199C42.7331 27.3799 42.7331 27.4399 42.7931 27.4999C42.7931 27.6199 42.7931 27.6799 42.7931 27.7998C42.6131 28.1598 42.6731 28.5197 42.6131 28.9397C42.3132 30.7394 41.8332 32.4791 40.9934 34.1589C40.8134 34.0989 40.8134 33.9189 40.8134 33.7389C40.8134 30.7394 40.8134 27.7998 40.8134 24.8003C40.8134 24.2604 40.9934 23.7205 41.2333 23.1805C41.4733 22.7606 41.7732 22.3407 41.8932 21.8607C42.0132 21.6808 42.0732 21.5608 42.1932 21.5608Z" fill="#634085"/>
<path d="M14.2374 41.1177C13.5775 40.6378 12.9176 40.2179 12.3777 39.618C12.2577 39.438 12.3177 39.258 12.3177 39.078C12.3177 38.4781 12.1377 37.9382 11.6578 37.5183C10.6379 36.5584 9.67808 35.5386 8.71822 34.5787C8.53825 34.3988 8.41827 34.2188 8.2383 34.0388C7.99833 33.6189 7.63839 33.3789 7.33843 33.019C6.97849 32.659 6.67853 32.3591 6.43857 31.8791C6.43857 31.6392 6.43857 31.3392 6.43857 31.0993C6.55855 30.7993 6.55855 30.4394 6.97849 30.3194C7.09847 30.2594 7.15846 30.1394 7.33843 30.1394C7.45841 30.2594 7.39842 30.3794 7.39842 30.4993C7.33843 31.0393 7.45841 31.4592 7.87835 31.8791C9.85805 33.7988 11.7778 35.7785 13.7575 37.6983C14.2974 38.2382 14.5373 38.7781 14.5373 39.558C14.5373 39.9779 14.5373 40.3979 14.5373 40.8178C14.4174 40.8778 14.4774 41.0578 14.2374 41.1177Z" fill="#F8A48D"/>
<path d="M24.4359 8.00281C24.2559 8.12281 24.0759 8.12281 23.9559 8.00281C24.0759 8.00281 24.2559 8.00281 24.4359 8.00281Z" fill="#705190"/>
<path d="M25.3358 8.00281C25.1558 8.12281 24.9758 8.12281 24.8558 8.00281C25.0358 8.00281 25.1558 8.00281 25.3358 8.00281Z" fill="#6E4E8F"/>
<path d="M42.7931 26.0601C42.6731 25.9401 42.6731 25.7601 42.7931 25.6401C42.7931 25.7601 42.7931 25.8801 42.7931 26.0601Z" fill="#6D4D8D"/>
<path d="M42.7931 26.84C42.6731 26.72 42.6731 26.54 42.7931 26.42C42.7931 26.54 42.7931 26.66 42.7931 26.84Z" fill="#705090"/>
<path d="M42.7331 27.32C42.7331 27.26 42.7331 27.14 42.7931 27.08C42.7931 27.2 42.7931 27.26 42.7331 27.32C42.7931 27.32 42.7931 27.32 42.7331 27.32Z" fill="#A490B9"/>
<path d="M42.7931 25.1603C42.6731 25.1003 42.6731 25.0403 42.7931 24.9203C42.7931 25.0403 42.7931 25.1003 42.7931 25.1603Z" fill="#AF9DC0"/>
<path d="M25.9356 8.00281C25.8756 8.12281 25.8156 8.06281 25.6956 8.00281C25.7556 8.00281 25.8156 8.00281 25.9356 8.00281Z" fill="#B6A6C6"/>
<path d="M23.536 8.00281C23.476 8.06281 23.416 8.06281 23.416 8.00281C23.476 8.00281 23.536 8.00281 23.536 8.00281Z" fill="#B09FC2"/>
<path d="M42.7331 27.3198C42.7931 27.3798 42.7931 27.4398 42.7931 27.4398C42.7331 27.4398 42.7331 27.3798 42.7331 27.3198Z" fill="#BEAFCC"/>
<path d="M42.1931 21.5608C41.8932 22.5806 41.1133 23.3605 40.9933 24.3804C40.9933 24.5004 40.9333 24.6203 40.9333 24.7403C40.9333 27.7399 40.9333 30.7394 40.9333 33.739C40.9333 33.8589 40.9333 33.9789 40.9933 34.0389C40.1534 35.7786 39.0736 37.3384 37.7538 38.7182C37.0339 39.4381 36.314 40.158 35.4742 40.6979C35.3542 40.5179 35.3542 40.338 35.3542 40.158C35.3542 39.2581 35.3542 38.2983 35.3542 37.3984C35.8341 34.8788 35.4742 32.3592 35.5941 29.7796C35.5941 29.4796 35.5341 29.2396 35.4142 28.9397C35.4142 27.6799 35.4142 26.4201 35.4142 25.1603C35.4142 24.5004 35.2342 23.9604 34.7543 23.5405C32.7746 21.5608 30.8549 19.6411 28.8752 17.6614C28.5152 17.3014 28.2752 16.8215 28.3352 16.2816C28.3352 16.1016 28.3952 15.9217 28.5152 15.7417C29.2351 15.4417 29.895 15.5617 30.4349 16.1616C30.8549 16.5816 31.2748 17.0015 31.6947 17.4214C32.0547 17.7214 32.4746 17.7214 32.8945 17.7214C33.2545 17.7214 33.6144 17.6614 33.9744 17.7814C34.9942 18.0213 35.6541 18.6212 36.0141 19.5811C36.0741 19.8211 36.254 20.001 36.554 19.941C36.8539 19.8811 36.9139 19.7011 36.9139 19.4011C36.9139 18.9212 36.9139 18.4413 36.9139 17.9613C36.9139 17.5414 36.9739 17.4814 37.3939 17.4814C37.7538 17.4814 38.1138 17.4814 38.5337 17.4214C39.0736 17.3014 39.4935 17.0615 39.7935 16.5816C39.8535 16.4616 39.9135 16.3416 40.0935 16.2816C40.2734 16.3416 40.2134 16.5216 40.2734 16.7015C40.2734 16.8215 40.2734 16.9415 40.3334 17.1215C40.5734 17.0015 40.5734 16.8215 40.5734 16.5816C40.5734 15.8017 40.5734 15.0818 40.5734 14.3019C40.5734 14.1219 40.5734 13.882 40.6334 13.702C40.7534 13.2821 40.9933 12.9221 41.4732 12.8021C42.1331 12.9821 42.4931 13.342 42.4931 14.0019C42.4931 15.9816 42.4931 17.9613 42.4931 19.941C42.3731 20.6009 42.2531 21.0809 42.1931 21.5608Z" fill="#B36E59"/>
<path d="M14.2374 41.1178L14.2974 41.0578C14.2974 40.3379 14.3574 39.618 14.2374 38.8981C14.1774 38.5382 13.9974 38.1782 13.6975 37.9383C11.7778 36.0185 9.85806 34.0988 7.93835 32.1791C7.33844 31.5792 7.09848 30.9793 7.27845 30.1994C7.93835 29.8395 8.53826 29.9595 9.07818 30.4994C9.55811 30.9193 9.97804 31.3992 10.458 31.8792C10.8179 32.1791 11.2379 32.1791 11.6578 32.1791C12.0777 32.1791 12.4977 32.1791 12.9176 32.2991C13.0976 32.3591 13.2176 32.3591 13.3375 32.4791C13.3975 32.5991 13.3975 32.779 13.3975 32.899C13.3975 33.3789 13.3975 33.8589 13.3975 34.3388C13.3975 34.4588 13.3975 34.6388 13.4575 34.7587C13.5175 34.9387 13.6975 35.0587 13.8775 35.0587C14.1174 35.0587 14.2374 34.8787 14.2374 34.6987C14.2374 34.5188 14.2374 34.2788 14.2374 34.0388C14.2374 33.8589 14.2374 33.6789 14.2974 33.4989C14.4174 33.319 14.4774 33.4389 14.5374 33.4989C14.6573 33.6189 14.6573 33.7989 14.7773 33.9189C14.8373 34.0388 14.8973 34.0988 15.0173 34.0988C15.1373 34.0388 15.0773 33.9189 15.0773 33.7989C14.9573 33.4389 14.7773 33.139 14.5374 32.899C14.4774 32.779 14.3574 32.719 14.2974 32.5391C14.2374 32.2391 14.4174 32.1191 14.7173 32.1191C15.4972 32.1191 16.2771 32.1191 16.997 32.1191C17.3569 32.1191 17.4169 32.2391 17.4169 32.5991C17.4169 33.199 17.4169 33.7989 17.4169 34.3988C17.4169 34.8187 17.5969 35.0587 17.8369 35.0587C18.1368 35.0587 18.2568 34.8187 18.2568 34.3988C18.2568 32.6591 18.2568 30.8593 18.2568 29.1196C18.2568 28.6997 18.1368 28.4597 17.8369 28.4597C17.5369 28.4597 17.4169 28.6997 17.4169 29.1196C17.4169 29.6595 17.4169 30.1994 17.4169 30.7393C17.4169 31.1593 17.2969 31.2793 16.877 31.2793C16.1571 31.2793 15.4372 31.2793 14.7173 31.2793C14.2974 31.2793 14.2374 31.1593 14.1774 30.7393C14.1774 30.2594 14.1774 29.7795 14.1774 29.2996C14.1774 28.9396 14.1174 28.5797 13.8175 28.3397C13.7575 28.2197 13.7575 28.0398 13.7575 27.9198C13.7575 26.7199 13.7575 25.5801 13.7575 24.3803C13.7575 23.6604 14.0574 23.0605 14.7773 22.7605C14.8373 22.7605 14.9573 22.7006 15.0173 22.7605C15.5572 22.9405 15.9171 23.3005 16.0371 23.8404C16.0371 23.9004 16.0371 24.0204 16.0371 24.0804C16.0371 25.9401 16.0371 27.7998 16.0371 29.6595C16.0371 29.7195 16.0371 29.7795 16.0371 29.7795C16.0371 29.8995 15.9771 30.1394 16.1571 30.1394C16.3371 30.1394 16.3971 30.0195 16.4571 29.8395C16.5171 29.6595 16.5171 29.4795 16.5171 29.2996C16.5171 28.0997 16.5171 26.8999 16.5171 25.7001C16.5171 24.9202 16.817 24.4403 17.5969 24.1403C18.2568 24.2003 18.7967 24.7402 18.8567 25.4601C18.8567 25.8201 18.8567 26.18 18.8567 26.54C18.8567 27.0199 18.8567 27.4998 18.8567 27.9798C18.8567 28.9996 18.8567 29.9595 18.8567 30.9793C18.8567 31.0993 18.8567 31.1593 18.8567 31.2793C18.8567 31.3392 18.8567 31.4592 18.9167 31.4592C18.9767 31.4592 19.0367 31.3992 19.0367 31.3393C19.0967 31.2193 19.0967 31.0393 19.0967 30.9193C19.0967 30.1994 19.0967 29.4795 19.0967 28.8196C19.0967 28.3997 19.1567 28.0397 19.3966 27.6798C19.5766 27.4998 19.7566 27.3199 19.9965 27.2599C20.6564 27.3199 21.0164 27.7998 21.0764 28.4597C21.0764 29.4195 21.0764 30.3794 21.0764 31.2793C21.0764 31.3992 21.0764 31.5192 21.0764 31.6392C21.2563 31.6392 21.3163 31.4592 21.4963 31.5192C21.6763 31.5792 21.6163 31.6992 21.5563 31.8192C21.4363 32.4791 21.7363 33.019 22.1562 33.4389C24.0759 35.3586 25.9956 37.2784 27.9153 39.1381C28.4552 39.678 28.6952 40.2179 28.6352 40.9378C28.6352 41.7777 28.6352 42.6175 28.6352 43.4574C28.6352 43.6374 28.6352 43.7574 28.5152 43.8774C27.9153 44.0573 27.2554 44.1773 26.5955 44.2373C26.4755 44.1173 26.5355 43.9373 26.5355 43.7574C26.5355 42.6775 26.5355 41.6577 26.5355 40.5779C26.5355 39.918 26.3556 39.318 25.8156 38.8381C25.5757 38.5982 25.2757 38.3582 25.0958 38.0582C23.776 36.7384 22.3962 35.4186 21.0764 33.9789V33.9189C21.0764 34.3388 21.0764 34.7587 21.0164 35.2387C20.8964 36.0185 20.5964 36.7384 20.1765 37.3983C19.8166 37.9982 19.6366 38.6581 19.6366 39.378C19.6366 40.6978 19.6366 41.9576 19.6366 43.2774C19.6366 43.4574 19.6366 43.6374 19.5766 43.7574C18.9767 43.6374 18.3768 43.4574 17.8369 43.2175C16.757 42.5576 15.4372 41.9576 14.2374 41.1178Z" fill="#FECABD"/>
<path d="M28.8152 43.8774C28.8152 42.7975 28.8152 41.7177 28.8152 40.6379C28.8152 40.098 28.6352 39.678 28.2753 39.2581C26.3556 37.3384 24.3759 35.3587 22.4561 33.439C21.8562 32.8391 21.5563 32.2391 21.7962 31.3993C22.1562 31.0393 22.5761 31.1593 22.9961 31.2193C23.296 31.2793 23.476 31.3993 23.716 31.6392C24.1959 32.0592 24.6158 32.5391 25.0358 33.019C25.2757 33.319 25.6357 33.439 26.0556 33.379C26.2956 33.379 26.5955 33.379 26.8955 33.379C27.7353 33.379 28.4552 33.7389 28.9952 34.3988C29.1751 34.6388 29.1751 34.9387 29.2951 35.1787C29.4151 35.3587 29.5351 35.4787 29.775 35.4787C30.4349 35.5386 31.0348 35.5386 31.6947 35.4787C31.9347 35.4187 32.1747 35.3587 32.1147 35.0587C32.1147 34.8188 31.8747 34.6388 31.5748 34.6988C31.2748 34.6988 31.0348 34.6988 30.7349 34.6988C30.195 34.6988 30.135 34.6388 30.135 34.0989C30.135 32.7791 30.135 31.3993 30.135 30.0795C30.135 29.8395 30.135 29.6595 30.135 29.4196C30.135 29.1796 30.015 28.9996 29.775 28.9396C29.5351 28.8797 29.3551 28.9996 29.2351 29.2396C29.1751 29.3596 29.1751 29.5396 29.1751 29.7195C29.1751 30.9793 29.1751 32.1792 29.1751 33.439C29.1751 33.5589 29.1751 33.6189 29.1751 33.7389C29.1751 33.8589 29.1751 33.9789 29.0551 34.0389C28.9352 34.0989 28.8752 34.0389 28.7552 33.9189C28.0953 33.319 27.3154 33.199 26.4755 33.139C26.3556 33.139 26.2956 33.139 26.1756 33.139C25.6957 33.139 25.6357 33.079 25.6357 32.5991C25.6357 31.2193 25.6357 29.7795 25.6357 28.3997C25.6357 27.7998 25.6357 27.1999 25.6357 26.6C25.6357 25.8801 26.1156 25.3402 26.7755 25.3402C27.3754 25.4002 27.6154 25.8801 27.8553 26.3C28.0353 26.54 27.9753 26.84 27.9753 27.0799C27.9753 28.3997 27.9753 29.7195 27.9753 31.0393C27.9753 31.1593 27.9153 31.3993 28.0953 31.3993C28.2753 31.3993 28.3353 31.2193 28.3952 31.0393C28.4552 30.8594 28.3952 30.7394 28.3952 30.5594C28.3952 28.9396 28.3952 27.3199 28.3952 25.7001C28.3952 25.2802 28.4552 24.8603 28.6952 24.5003C28.9352 24.2004 29.1751 23.9604 29.5951 24.0804C30.195 24.2604 30.5549 24.6803 30.6149 25.2802C30.6149 25.7001 30.6149 26.0601 30.6149 26.48C30.7349 26.66 30.7349 26.84 30.7349 27.0199C30.7349 28.2797 30.7349 29.4796 30.7349 30.7394C30.7349 30.8594 30.7349 30.9793 30.7349 31.0393C30.7349 31.1593 30.6749 31.3993 30.8549 31.3993C31.0348 31.3993 31.0948 31.2193 31.1548 31.0393C31.2148 30.8594 31.2148 30.6794 31.2148 30.4994C31.2148 29.2996 31.2148 28.0998 31.2148 26.9C31.2148 26.54 31.2748 26.1801 31.5748 25.8201C31.7547 25.5802 31.9947 25.4002 32.3546 25.4002C33.0745 25.5802 33.4945 26.0601 33.4945 26.78C33.4945 27.6198 33.4945 28.3997 33.4945 29.2396C33.6145 29.3596 33.6145 29.5396 33.6145 29.7195C33.6145 30.5594 33.6145 31.3993 33.6145 32.2391C33.6145 32.3591 33.6145 32.4191 33.6145 32.5391C33.6145 32.5991 33.6145 32.6591 33.6744 32.6591C33.7344 32.6591 33.7344 32.6591 33.7944 32.5991C33.8544 32.4791 33.8544 32.2991 33.8544 32.1792C33.8544 31.4593 33.8544 30.7394 33.8544 30.0795C33.8544 29.7795 33.8544 29.5396 33.9744 29.2396C34.1544 28.8197 34.3943 28.5197 34.8743 28.5197C35.1142 28.5197 35.3542 28.6397 35.4742 28.8797C35.6541 29.1796 35.7741 29.4796 35.7741 29.8395C35.7741 31.6392 35.7741 33.499 35.7741 35.2987C35.7741 36.0186 35.7141 36.7385 35.4742 37.3984C35.4742 37.7583 35.2942 38.1183 35.1142 38.3582C34.5743 39.1381 34.3943 40.038 34.3943 40.9378C34.3943 41.1178 34.4543 41.3578 34.3343 41.5377C34.2744 41.5977 34.1544 41.7177 34.0344 41.7777C32.4146 42.6776 30.7349 43.3975 28.9352 43.8174C28.8752 43.8774 28.8752 43.8774 28.8152 43.8774Z" fill="#FEDCCD"/>
<path d="M24.9158 33.079C24.4359 32.599 24.0159 32.1191 23.536 31.6992C22.9961 31.2193 22.3962 31.1593 21.7963 31.4592C21.5563 31.5192 21.4363 31.6992 21.2563 31.8192C21.1364 31.7592 21.1963 31.6392 21.1963 31.5792C21.1963 30.4994 21.1963 29.4195 21.1963 28.3997C21.1963 27.7998 20.8364 27.3798 20.2965 27.3198C20.1165 27.2599 19.8765 27.4398 19.6966 27.3798C19.3966 27.1399 19.1567 26.8399 18.9767 26.54C18.9767 26.3 18.9767 26.06 18.9767 25.8201C18.9767 24.9202 18.7367 24.5003 17.8369 24.2003C17.5369 24.3203 17.2369 24.3203 16.937 24.3803C16.577 24.3203 16.3971 23.9604 16.1571 23.7804C15.9771 23.3005 15.6772 23.0005 15.2572 22.7605C15.0173 22.6406 14.8373 22.4606 14.6573 22.2806C14.1774 21.8007 13.6375 21.2608 13.1576 20.7808C12.6776 20.3009 12.6176 19.521 12.9176 19.0411C13.5775 18.7411 14.1774 18.8611 14.7173 19.3411C15.1973 19.821 15.6172 20.2409 16.0971 20.7208C16.4571 21.0208 16.877 21.0208 17.3569 21.0208C17.8369 21.0208 18.2568 20.9608 18.6767 21.0808C19.2166 21.2608 19.6366 21.5007 19.9965 21.9207C20.1165 22.2206 20.1765 22.4606 20.0565 22.7605C19.9365 23.1205 19.9365 23.1205 20.2965 23.1205C21.1364 23.1805 22.0362 23.1205 22.8761 23.1205C23.176 23.1205 23.356 22.9405 23.356 22.7605C23.356 22.5206 23.176 22.3406 22.8761 22.3406C22.4562 22.2806 21.9762 22.3406 21.5563 22.3406C21.1364 22.3406 21.0764 22.2806 21.0164 21.8607C21.0164 21.5007 21.0164 21.1408 21.0164 20.7808C21.0164 20.4809 21.1364 20.3609 21.4363 20.3609C21.7963 20.3609 22.0962 20.3609 22.4562 20.3609C22.5161 20.3609 22.5761 20.3609 22.6361 20.3609C22.9961 20.3609 23.236 20.1809 23.236 19.941C23.236 19.701 22.9961 19.521 22.6361 19.521C22.2762 19.521 21.8562 19.521 21.4963 19.521C21.1963 19.521 21.0764 19.401 21.0764 19.1011C21.0764 18.6812 21.0764 18.3212 21.0764 17.9013C21.0764 17.6013 21.1963 17.4813 21.4963 17.4813C21.9162 17.4813 22.2762 17.4813 22.6961 17.4813C22.8161 17.4813 22.9361 17.4813 23.0561 17.4813C23.236 17.4213 23.416 17.3014 23.416 17.1214C23.416 16.8814 23.296 16.7614 23.1161 16.7015C22.9361 16.6415 22.6961 16.7015 22.5161 16.5815C22.3962 15.6816 22.3362 14.8417 22.5161 14.0019C22.6361 13.5819 22.9361 13.282 23.416 13.162C24.1359 13.282 24.4958 13.7019 24.5558 14.3618C24.6158 15.0217 24.4958 15.6816 24.6158 16.2815C24.7958 17.5413 24.7358 18.8611 24.7358 20.1209C24.7358 20.1809 24.7358 20.3609 24.8558 20.3609C24.9758 20.3609 24.9758 20.2409 25.0358 20.1809C25.0358 20.0609 25.0358 19.941 25.0358 19.821C25.0358 19.1011 25.0358 18.3812 25.0358 17.6013C25.0358 17.2414 25.0958 16.9414 25.2757 16.6415C25.4557 16.3415 25.7557 16.1615 26.1156 16.2815C26.5955 16.4615 26.8955 16.8214 26.8955 17.3614C26.8955 19.461 26.8955 21.5607 26.8955 23.6004C26.8955 24.2003 26.7155 24.8002 26.5355 25.3401C26.4755 25.4001 26.3556 25.4601 26.2356 25.4601C25.5757 25.7001 25.2157 26.12 25.2157 26.8399C25.2157 27.6798 25.2157 28.4597 25.2157 29.2995C25.2157 30.4394 25.2157 31.5792 25.2157 32.719C25.0958 32.779 25.1557 32.959 24.9158 33.079Z" fill="#E1B786"/>
<path d="M20.1165 23.1206C19.9965 23.1806 19.8765 23.1806 19.7566 23.0606C19.6366 22.9406 19.6966 22.8206 19.8165 22.7006C19.9965 22.4607 19.9365 22.1607 19.8165 21.9208C19.8765 21.3808 19.5766 21.0809 19.0967 20.8409C18.6167 20.601 18.0768 20.601 17.5969 20.601C16.637 20.601 16.637 20.601 16.637 19.6411C16.637 17.9614 16.637 16.3416 16.637 14.6619C16.637 14.3019 16.697 14.002 16.757 13.702C16.877 13.1621 17.3569 12.8021 17.8368 12.8021C18.3168 12.9221 18.6767 13.1621 18.8567 13.702C19.0967 13.942 19.0967 14.2419 19.0967 14.5419C19.0967 15.8617 19.0967 17.1815 19.0967 18.4413C19.0967 18.5613 18.9767 18.8012 19.2166 18.8612C19.3966 18.8612 19.4566 18.6213 19.5166 18.4413C19.5166 18.2613 19.5166 18.0813 19.5166 17.9614C19.5166 16.3416 19.5166 14.6619 19.5166 13.0421C19.5166 12.5022 19.6966 12.0822 20.1165 11.7223C20.2965 11.6023 20.4764 11.4823 20.7164 11.5423C21.3163 11.6623 21.7363 12.2022 21.7962 12.8021C21.7962 13.1621 21.7962 13.582 21.7962 13.942L21.8562 14.002C21.9162 14.7818 21.9762 15.5617 21.8562 16.3416C21.7363 16.4616 21.5563 16.4616 21.4363 16.4616C21.2563 16.4616 21.0164 16.4616 20.7764 16.4616C20.3565 16.4616 20.2365 16.6416 20.2365 17.0615C20.2365 17.7214 20.2365 18.3213 20.2365 18.9812C20.2365 19.8811 20.2365 20.7809 20.2365 21.6808C20.0565 22.1607 20.0565 22.6406 20.1165 23.1206Z" fill="#E1B786"/>
<path d="M35.4142 28.8796C35.2342 28.7596 35.1142 28.6396 34.9343 28.5796C34.5143 28.5197 34.1544 28.5796 33.8544 28.8796C33.7944 28.9396 33.7344 29.0596 33.6145 29.0596C33.6145 27.7398 33.6145 26.42 33.6145 25.1002C33.6145 24.2603 33.3745 23.6604 32.7746 23.0605C31.2148 21.5607 29.715 20.0009 28.1553 18.5012C27.3154 17.7213 27.4954 16.3415 28.5152 15.8616C28.3353 16.6415 28.5152 17.3014 29.1151 17.8413C31.0948 19.761 33.0145 21.6807 34.9343 23.6004C35.3542 24.0203 35.5342 24.5003 35.5342 25.1002C35.5342 26.24 35.5342 27.3798 35.5342 28.5197C35.4742 28.6396 35.5342 28.7596 35.4142 28.8796Z" fill="#A45E4D"/>
<path d="M12.3177 23.9604C12.8576 24.0804 13.0376 24.5003 13.2775 24.8603C13.3975 25.1003 13.3975 25.3402 13.3975 25.5802C13.3975 26.6 13.3975 27.5599 13.3975 28.5797C13.3975 29.4796 13.3975 30.3795 13.3975 31.3393C13.3975 31.5193 13.3975 31.6393 13.3375 31.7592C13.2775 31.8192 13.1575 31.8192 13.0376 31.8192C12.5576 31.6993 12.0777 31.7592 11.5378 31.6993C11.1179 31.6993 11.0579 31.6393 11.0579 31.2193C11.0579 29.1796 11.0579 27.1999 11.0579 25.1602C11.0579 24.6803 11.2978 24.2604 11.7178 24.0204C11.8977 23.9004 12.1377 23.9004 12.3177 23.9604Z" fill="#FECABD"/>
<path d="M24.9158 33.079C25.0358 32.959 24.9758 32.8391 24.9758 32.6591C24.9758 30.6794 24.9758 28.6397 24.9758 26.66C24.9758 25.8201 25.5757 25.2202 26.4155 25.2202C26.5355 25.2202 26.6555 25.2202 26.7155 25.2802C25.9956 25.5202 25.6957 26.0601 25.6957 26.84C25.6957 28.7597 25.6957 30.6794 25.6957 32.5991C25.6957 32.8991 25.7556 33.019 26.1156 33.019C26.9555 33.019 27.7953 33.019 28.5752 33.559C28.7552 33.6789 28.8752 33.7989 29.0551 33.9189C29.1751 33.8589 29.1151 33.7389 29.1151 33.6189C29.1151 32.2392 29.1151 30.8594 29.1151 29.5396C29.1151 29.4196 29.0551 29.2996 29.1751 29.1796C29.2951 29.2996 29.2951 29.4796 29.2951 29.6595C29.2951 31.3993 29.2951 33.139 29.2951 34.8188C29.2951 34.9987 29.2951 35.1787 29.1751 35.2987C28.8152 34.1589 28.0953 33.6189 26.8355 33.6189C26.6555 33.6189 26.4155 33.6189 26.1756 33.6189C25.6357 33.559 25.2157 33.439 24.9158 33.079Z" fill="#FECABD"/>
<path d="M35.8941 19.6411C35.5342 18.6812 34.8743 18.0813 33.9144 17.9013C33.4345 17.8413 32.8946 17.8413 32.4146 17.9013C32.0547 17.9013 31.8747 17.8413 31.6947 17.5414C31.6947 15.5017 31.6947 13.522 31.6947 11.4823C31.6947 10.7624 31.8147 10.2225 32.4146 9.80255C32.7146 9.74256 33.0145 9.56259 33.3145 9.68257C33.3145 9.86254 33.1945 9.86254 33.0745 9.98253C32.6546 10.2225 32.4746 10.5824 32.4746 11.0624C32.4746 12.9821 32.4746 14.9618 32.4746 16.8815C32.4746 17.3014 32.5346 17.3014 32.8946 17.3014C33.2545 17.3014 33.6744 17.3014 34.0344 17.3614C34.6343 17.4814 35.1742 17.7813 35.6541 18.2013C35.7141 18.0213 35.7141 17.8413 35.7141 17.6614C35.7141 17.0615 35.7141 16.4615 35.7141 15.8616C35.7141 15.7417 35.6541 15.5017 35.8941 15.5617C35.9541 15.7417 35.9541 15.8616 35.9541 16.0416C35.9541 17.1214 35.9541 18.1413 35.9541 19.1611C36.0141 19.2811 36.0741 19.5211 35.8941 19.6411Z" fill="#A45E4D"/>
<path d="M17.7168 12.7421C16.997 12.9821 16.637 13.462 16.637 14.3619C16.637 16.2816 16.637 18.2613 16.637 20.181C16.637 20.421 16.757 20.5409 16.997 20.5409C17.3569 20.5409 17.7168 20.5409 18.0768 20.5409C18.6767 20.5409 19.2166 20.7809 19.6965 21.2008C19.9365 21.3808 19.8765 21.7408 19.7565 21.9807C19.2766 21.3808 18.6167 21.0809 17.8368 21.0809C17.4769 21.0809 17.0569 21.0809 16.697 21.0809C16.3371 21.0809 16.1571 20.9609 15.9771 20.7209C15.9771 18.5612 15.9771 16.4016 15.9771 14.1819C15.9771 13.342 16.697 12.6821 17.5369 12.7421C17.6569 12.6821 17.7168 12.7421 17.7168 12.7421Z" fill="#E1A670"/>
<path d="M12.3177 23.9603C11.7178 24.0203 11.1778 24.5003 11.1778 25.1602C11.1778 27.1999 11.1778 29.2995 11.1778 31.3392C11.1778 31.5792 11.2378 31.6392 11.4778 31.6392C12.0777 31.6392 12.6776 31.6392 13.2775 31.7592C13.3975 31.9391 13.3975 32.1191 13.2775 32.2991C12.5576 31.9991 11.8377 32.0591 11.1778 32.1191C10.8179 32.1191 10.6379 31.9991 10.4579 31.7592C10.4579 29.5995 10.4579 27.4998 10.4579 25.3401C10.5179 24.3203 11.4178 23.6604 12.3177 23.9603Z" fill="#F8A48E"/>
<path d="M20.5964 11.5423C19.8765 11.6622 19.5166 12.3221 19.5166 12.8621C19.5166 14.6618 19.5166 16.4015 19.5166 18.2013C19.5166 18.5012 19.5166 18.8012 19.1566 18.9211C18.9767 19.0411 18.8567 18.9811 18.8567 18.7412C18.8567 17.7213 18.8567 16.7015 18.8567 15.6816C18.8567 14.9617 18.9767 14.3018 18.7367 13.582C18.9167 13.462 18.7967 13.222 18.7967 12.982C18.8567 12.0222 19.5166 11.4223 20.4164 11.4823C20.4764 11.4823 20.5364 11.5423 20.5964 11.5423Z" fill="#E1A670"/>
<path d="M29.595 24.0204C28.8752 24.0204 28.4552 24.7403 28.4552 25.4602C28.4552 27.2599 28.4552 28.9997 28.4552 30.7994C28.4552 31.0394 28.3952 31.2193 28.2153 31.3993C28.0953 31.4593 27.9753 31.5193 27.9153 31.5193C27.7953 31.4593 27.8553 31.3393 27.8553 31.2193C27.8553 29.7796 27.8553 28.3398 27.8553 26.9C27.8553 26.66 27.7953 26.4201 27.8553 26.1801C27.8553 25.8202 27.8553 25.5202 27.8553 25.1603C27.8553 24.5604 28.6352 23.7205 29.595 24.0204Z" fill="#FECABD"/>
<path d="M12.8576 18.9211C12.6776 19.701 12.8576 20.3609 13.5175 20.9608C14.1174 21.5008 14.7173 22.0407 15.2572 22.7006C15.1972 22.7006 15.1373 22.7006 15.0173 22.7006C14.5973 22.7006 14.2974 22.8805 13.8774 23.0005C13.8774 22.8206 13.7575 22.7606 13.6375 22.7006C13.2175 22.2806 12.7976 21.8607 12.4377 21.4408C11.6578 20.6609 11.8977 19.4011 12.8576 18.9211Z" fill="#E1A670"/>
<path d="M32.2947 25.4601C31.5148 25.7601 31.2748 26.3 31.2748 27.0799C31.3348 28.2797 31.2748 29.5395 31.2748 30.7393C31.2748 31.0393 31.2148 31.3393 30.9149 31.5192C30.6749 31.6392 30.5549 31.5792 30.5549 31.3393C30.5549 29.7195 30.5549 28.0997 30.5549 26.48C30.7949 26.0001 31.0949 25.5801 31.6948 25.4601C31.9347 25.4001 32.1147 25.3402 32.2947 25.4601Z" fill="#FECABD"/>
<path d="M13.8774 23.0005C14.2374 22.7605 14.5373 22.5206 15.0173 22.7005C14.2974 23.0605 13.9974 23.6004 13.9974 24.4403C13.9974 25.7001 13.9974 26.8999 13.9974 28.1597C13.7574 28.2797 13.5775 28.4597 13.3375 28.5796C13.3375 27.5598 13.3375 26.54 13.3375 25.4601C13.3375 25.2801 13.2175 25.0402 13.3375 24.8602C13.3375 24.5603 13.3375 24.2603 13.3375 23.9603C13.3375 23.6004 13.5175 23.2404 13.8774 23.0005Z" fill="#F8A48D"/>
<path d="M21.6762 16.402C21.6762 15.622 21.6762 14.782 21.6762 14.002C21.9162 13.462 22.2762 13.102 22.8162 12.982C22.9962 12.922 23.1162 12.922 23.2962 12.982C23.1762 13.102 22.9962 13.102 22.8762 13.222C22.5762 13.462 22.3362 13.822 22.3362 14.242C22.3362 14.962 22.3362 15.682 22.3362 16.402C22.0962 16.522 21.8562 16.522 21.6762 16.402Z" fill="#E1A670"/>
<path d="M25.9956 16.1015C25.3957 16.1015 25.0357 16.5815 24.9757 17.2414C24.9757 18.0812 24.9757 18.9811 24.9757 19.821C24.9757 20.0009 24.9757 20.1809 24.8558 20.3009C24.7958 20.3609 24.6758 20.4209 24.5558 20.4209C24.4358 20.3609 24.4958 20.2409 24.4958 20.1809C24.4958 19.341 24.4958 18.5012 24.4958 17.7213C24.4358 16.5815 24.4358 15.3816 24.4358 14.2418C24.5558 14.6618 24.4958 15.0217 24.4958 15.4416C24.4958 15.8616 24.4958 16.3415 24.4958 16.8214C24.8558 16.1615 25.3357 15.8616 25.9956 16.1015Z" fill="#E1A670"/>
<path d="M33.5545 28.9997C33.9744 28.4597 34.3943 28.3998 34.9343 28.5797C34.3344 28.5197 33.9744 29.0597 33.9144 29.8395C33.9144 30.6794 33.9144 31.4593 33.9144 32.2992C33.9144 32.4791 33.9144 32.6591 33.7344 32.7791C33.6745 32.8391 33.6145 32.8991 33.4945 32.8391C33.3745 32.7791 33.4345 32.7191 33.4345 32.5991C33.4345 32.1792 33.4345 31.7592 33.4345 31.3393C33.4345 30.6194 33.4345 29.8995 33.4345 29.1796C33.5545 29.2396 33.4945 29.1196 33.5545 28.9997Z" fill="#FECABD"/>
<path d="M19.8165 43.6975C19.8165 42.1377 19.8165 40.5779 19.8165 39.0782C19.8165 38.5382 19.9965 37.9383 20.2965 37.4584C21.0163 36.3786 21.3763 35.1787 21.3163 33.799C21.3763 33.9189 21.4963 33.9789 21.5563 34.0989C22.7561 35.2987 23.9559 36.4985 25.1557 37.6984C25.2757 37.8183 25.3357 37.8783 25.4557 37.9983C25.5157 38.5982 25.5157 39.2581 25.5157 39.858C25.5157 41.1778 25.5157 42.4976 25.5157 43.8174C25.5157 43.9974 25.5757 44.1774 25.3957 44.3574C23.596 44.4173 21.8562 44.2374 20.1165 43.8174C19.9365 43.7574 19.8765 43.7574 19.8165 43.6975Z" fill="#E1B786"/>
<path d="M25.3357 44.3573C25.3357 42.3176 25.3357 40.2779 25.3357 38.2383C25.3357 38.1783 25.3357 38.0583 25.3957 37.9983C25.6956 38.2982 25.9956 38.5982 26.2955 38.8982C26.7155 39.2581 26.8955 39.738 26.8955 40.3379C26.8955 41.6577 26.8955 42.9775 26.8955 44.2373C26.3555 44.2973 25.8756 44.2973 25.3357 44.3573Z" fill="#634086"/>
<path d="M8.23828 34.0388C8.41825 34.0388 8.47824 34.1588 8.53824 34.2788C9.55808 35.2986 10.5779 36.3185 11.5978 37.3383C12.1977 37.8782 12.4376 38.4781 12.3777 39.318C12.3777 39.438 12.3777 39.498 12.3777 39.618C11.1178 38.5381 10.038 37.2183 9.13814 35.7786C8.83819 35.2386 8.53824 34.6387 8.23828 34.0388Z" fill="#634086"/>
<path d="M34.2744 41.5378C34.2744 40.9978 34.2744 40.4579 34.3343 39.978C34.3943 39.4981 34.5143 39.0781 34.8143 38.7182C35.0542 38.2982 35.2942 37.8783 35.4742 37.4584C35.5942 37.5784 35.5342 37.6983 35.5342 37.8183C35.5342 38.7782 35.5342 39.798 35.5342 40.7579C35.1142 41.0578 34.6943 41.2978 34.2744 41.5378Z" fill="#A55E4D"/>
<path d="M35.8941 15.4417C35.7741 15.5617 35.8341 15.7417 35.8341 15.8617C35.8341 16.7015 35.8341 17.5414 35.8341 18.4413C35.5942 18.2613 35.4742 18.0813 35.2342 17.9613C34.6943 17.6014 34.1544 17.4214 33.4945 17.3614C33.1945 17.3614 32.9546 17.3614 32.6546 17.3614C32.4146 17.3614 32.3546 17.3014 32.3546 17.0015C32.3546 14.9618 32.3546 12.8621 32.3546 10.8224C32.3546 10.4025 32.5946 10.0425 32.9546 9.80257C33.0745 9.74258 33.1945 9.74258 33.3145 9.6226C33.7944 9.68259 34.0944 9.92256 34.3343 10.3425C34.3943 10.4625 34.4543 10.5225 34.5143 10.5825C34.6943 10.7624 34.6343 10.9424 34.6343 11.1224C34.6343 12.4422 34.6343 13.762 34.6343 15.0818C34.6343 15.2018 34.6343 15.2617 34.6343 15.3817C34.6343 15.5017 34.5743 15.6817 34.7543 15.7417C34.9343 15.7417 34.9942 15.5617 35.0542 15.4417C35.1142 15.2617 35.1142 15.0818 35.1142 14.9618C35.1142 13.462 35.1142 11.9622 35.1142 10.4025C35.1142 9.56261 35.2342 8.84272 36.0141 8.36279C36.734 8.36279 37.3339 8.9627 37.3939 9.68259C37.3939 10.1025 37.3339 10.5225 37.4539 10.8824C37.3339 10.9424 37.3939 11.0024 37.3939 11.0624C37.3339 11.7223 37.3939 12.4422 37.3339 13.1021C37.3339 13.1621 37.3339 13.2221 37.2739 13.282C37.0939 13.462 36.914 13.402 36.734 13.402C36.1341 13.402 35.9541 13.582 35.9541 14.1819C35.9541 14.4819 35.9541 14.7818 35.9541 15.0818C36.0141 15.2018 36.0141 15.3817 35.8941 15.4417Z" fill="#B36E59"/>
<path d="M38.9537 9.86255C39.6736 10.0425 40.0935 10.5224 40.0935 11.2423C40.0935 11.9622 40.0935 12.6221 40.0935 13.342C40.0935 13.462 40.0335 13.582 40.1535 13.702C40.2735 14.0019 40.2135 14.3019 40.0935 14.6018C39.9135 14.6618 39.8535 14.4818 39.7935 14.3619C39.4336 13.8219 38.8937 13.522 38.2938 13.462C38.1138 13.462 37.9938 13.402 37.9338 13.282C37.8738 12.5021 37.8738 11.7823 37.9338 11.0024C37.9338 10.3425 38.4137 9.92254 38.9537 9.86255Z" fill="#B36E59"/>
<path d="M35.8941 8.36279C35.9541 8.42278 36.0741 8.42278 35.8941 8.54277C35.2942 8.84272 35.1142 9.38264 35.1142 10.0425C35.1142 11.7823 35.1142 13.522 35.1142 15.2018C35.1142 15.5017 35.0542 15.6817 34.8143 15.8617C34.7543 15.9216 34.6343 15.9816 34.5743 15.9216C34.4543 15.8617 34.5143 15.7417 34.5143 15.6817C34.5143 14.7818 34.5143 13.822 34.5143 12.9221C34.5143 12.1422 34.5143 11.3623 34.5143 10.6424C34.5143 10.2825 34.5143 9.98255 34.5143 9.6226C34.5743 9.02269 35.0542 8.54277 35.6541 8.48277C35.7141 8.42278 35.8341 8.42278 35.8941 8.36279Z" fill="#A45E4D"/>
<path d="M38.9539 9.86259C38.2339 10.1626 37.9339 10.6426 37.9939 11.4226C37.9939 12.0226 37.9939 12.6826 37.9939 13.2826C37.7539 13.4026 37.5139 13.4026 37.2739 13.2826C37.2739 12.5026 37.2139 11.7226 37.3339 10.9426C37.3939 10.2226 38.2939 9.62259 38.9539 9.86259Z" fill="#A55E4D"/>
<path d="M40.0335 14.5418C40.1535 14.2419 40.0335 13.9419 40.1535 13.642C40.3334 13.1021 40.7534 12.8621 41.3533 12.9221C40.6334 13.282 40.5134 13.9419 40.5734 14.7218C40.5734 15.3817 40.5734 16.0416 40.5734 16.7615C40.5734 16.8815 40.5734 17.0015 40.5134 17.1214C40.4534 17.3014 40.3334 17.3614 40.1535 17.3614C40.0335 17.3014 40.0935 17.1814 40.0935 17.0615C40.0335 16.8815 40.1535 16.6415 40.0335 16.4615C40.1535 15.7417 40.1535 15.1417 40.0335 14.5418Z" fill="#A45E4D"/>
<path d="M40.0335 14.5418C40.3334 15.1418 40.2734 15.8017 40.0335 16.4016C39.5536 17.3014 38.7737 17.6614 37.7538 17.6614C36.9739 17.6614 36.9739 17.6614 36.9739 18.4413C36.9739 18.8012 36.9739 19.1611 36.9739 19.5211C36.9739 19.881 36.794 20.121 36.434 20.121C36.0741 20.121 35.8941 19.941 35.8941 19.6411C35.8941 18.2613 35.8941 16.8215 35.8941 15.4417C35.8941 14.9618 35.8941 14.4219 35.8941 13.9419C35.8941 13.462 36.0741 13.282 36.554 13.222C36.794 13.222 37.0339 13.222 37.2739 13.222C37.5139 13.222 37.7538 13.222 37.9938 13.222C38.3537 13.342 38.7137 13.282 39.0736 13.522C39.4936 13.762 39.7935 14.1219 40.0335 14.5418Z" fill="#634085"/>
<path d="M13.3375 28.5796C13.4575 28.3397 13.6375 28.0997 13.9974 28.1597C14.3574 28.2797 14.4174 28.5197 14.4174 28.8796C14.4174 29.4795 14.4174 30.0794 14.4174 30.6793C14.4174 30.9193 14.4774 31.0393 14.7173 31.0393C15.4972 31.0393 16.2771 31.0393 17.117 31.0393C17.2969 31.0393 17.4169 30.9793 17.4169 30.7393C17.4169 30.1394 17.4169 29.4795 17.4169 28.8796C17.4169 28.4597 17.5969 28.2197 17.9568 28.2197C18.2568 28.2197 18.4967 28.4597 18.4967 28.8796C18.4967 30.7393 18.4967 32.599 18.4967 34.4588C18.4967 34.8787 18.3168 35.1187 17.9568 35.1187C17.6569 35.1187 17.4169 34.8787 17.4169 34.4588C17.4169 33.7989 17.4169 33.139 17.4169 32.4191C17.4169 32.1191 17.3569 32.0591 17.057 32.0591C16.3371 32.0591 15.5572 32.0591 14.8373 32.0591C14.4774 32.0591 14.3574 32.1791 14.4774 32.5391C14.5973 32.779 14.5973 33.079 14.4774 33.3189C14.4774 33.6789 14.4774 34.0988 14.4774 34.4588C14.4774 34.8187 14.2974 35.0587 13.9974 35.0587C13.6975 35.0587 13.4575 34.8187 13.3975 34.3988C13.3975 33.7989 13.3975 33.1989 13.3975 32.599C13.3975 32.4791 13.3975 32.4191 13.3975 32.2991C13.3975 32.1191 13.3975 31.9391 13.3975 31.7592C13.3375 30.7393 13.3375 29.6595 13.3375 28.5796Z" fill="#78CFB0"/>
<path d="M16.817 24.2603C17.117 24.1404 17.4769 24.0804 17.8368 24.1404C17.5369 24.3203 17.2369 24.4403 17.057 24.7403C16.937 24.9802 16.817 25.2802 16.817 25.5201C16.817 26.8399 16.817 28.1597 16.817 29.4795C16.817 29.7795 16.757 30.0795 16.4571 30.1994C16.2171 30.3194 16.0971 30.2594 16.0971 30.0195C16.0971 28.9396 16.0971 27.8598 16.0971 26.78C16.0971 25.8201 16.0971 24.8602 16.0971 23.9004C16.3971 24.2003 16.2171 24.5003 16.2171 24.8003C16.3371 24.5603 16.517 24.3203 16.817 24.2603Z" fill="#F8A58E"/>
<path d="M19.6366 27.2598C19.8166 27.1999 20.0565 27.0799 20.2965 27.2598C19.7566 27.4998 19.4566 27.9197 19.4566 28.6396C19.4566 29.4195 19.4566 30.2594 19.4566 31.0393C19.4566 31.1593 19.4566 31.2792 19.3966 31.3992C19.2766 31.5192 19.2166 31.6392 19.0367 31.6392C18.8567 31.6392 18.9767 31.3992 18.9767 31.2792C18.9767 30.1994 18.9767 29.0596 18.9767 27.9197C19.0967 27.6198 19.2166 27.2598 19.6366 27.2598Z" fill="#F8A58E"/>
<path d="M14.4174 33.3191C14.4174 33.0791 14.4174 32.7791 14.4174 32.5391C14.7774 32.8391 15.0174 33.2591 15.1974 33.7391C15.2574 33.8591 15.1974 34.0391 15.0774 34.0991C14.9574 34.1591 14.7774 34.1591 14.7174 33.9791C14.6574 33.6791 14.5974 33.4991 14.4174 33.3191Z" fill="#F7A58E"/>
<path d="M19.6367 27.26C19.2767 27.38 19.0967 27.68 18.9167 27.98C18.9167 27.5 18.9167 27.02 18.9167 26.48C19.2167 26.66 19.4567 26.96 19.6367 27.26Z" fill="#E1A670"/>
<path d="M16.8171 24.2605C16.5771 24.4405 16.3971 24.6805 16.2171 24.9205C16.0971 24.5605 16.2771 24.2005 16.0971 23.9005C16.0971 23.8405 16.0971 23.7805 16.0971 23.7205C16.3371 23.7205 16.3971 23.9605 16.5171 24.0205C16.6371 24.0805 16.6971 24.2005 16.8171 24.2605Z" fill="#E3A874"/>
<path d="M29.1151 35.1787C29.1151 33.139 29.1151 31.0993 29.1151 29.0596C29.2351 28.7597 29.4751 28.6397 29.775 28.6997C30.135 28.7597 30.195 29.0596 30.195 29.3596C30.195 30.9194 30.195 32.4791 30.195 34.0989C30.195 34.3988 30.255 34.5188 30.6149 34.5188C30.9149 34.5188 31.2148 34.5188 31.5148 34.4588C31.8747 34.4588 32.1747 34.6388 32.1747 34.9387C32.2347 35.2987 32.0547 35.4787 31.6348 35.5387C30.9749 35.5986 30.375 35.5986 29.7151 35.5387C29.4151 35.5986 29.1751 35.4787 29.1151 35.1787Z" fill="#DC636E"/>
<path d="M21.6763 16.4015C21.9162 16.4015 22.1562 16.4015 22.3962 16.4015C22.5761 16.4015 22.6961 16.4015 22.8761 16.4015C23.236 16.4015 23.476 16.6415 23.476 16.9414C23.476 17.2414 23.236 17.4813 22.8761 17.4813C22.3362 17.4813 21.8562 17.4813 21.3763 17.4813C21.1963 17.4813 21.0764 17.5413 21.0764 17.7813C21.0764 18.2012 21.0764 18.6811 21.0764 19.1011C21.0764 19.2811 21.1363 19.341 21.3163 19.341C21.7962 19.341 22.2162 19.341 22.6961 19.341C23.0561 19.341 23.236 19.521 23.296 19.821C23.296 20.1209 23.116 20.3609 22.7561 20.4209C22.2762 20.4209 21.8562 20.4209 21.3763 20.4209C21.1363 20.4209 21.0764 20.4809 21.0764 20.7208C21.0764 21.1408 21.0764 21.5007 21.0764 21.9207C21.0764 22.1606 21.1363 22.2206 21.3763 22.2206C21.8562 22.2206 22.3362 22.2206 22.8161 22.2206C23.236 22.2206 23.476 22.4006 23.476 22.7605C23.476 23.1205 23.236 23.3004 22.7561 23.3004C22.0362 23.3004 21.3163 23.3004 20.5964 23.3004C20.4165 23.3004 20.2365 23.3004 20.1165 23.2405C19.9965 23.0605 19.9365 22.8805 19.9365 22.7005C19.9365 20.8408 19.9365 19.0411 19.9365 17.1814C19.9365 16.7014 20.1165 16.5215 20.6564 16.5215C20.9564 16.4015 21.3163 16.4015 21.6763 16.4015Z" fill="#61A1F8"/>
<path d="M22.3363 18.0814C22.3363 18.3214 22.3363 18.6214 22.1563 18.8614C22.0363 18.9814 21.9163 19.1014 21.7363 19.0414C21.5563 18.9814 21.6763 18.8014 21.6163 18.6814C21.6163 18.3814 21.6163 18.0814 21.6163 17.7814C21.6163 17.4814 21.7363 17.4214 21.9763 17.4214C22.2163 17.4214 22.3963 17.4814 22.3363 17.7814C22.3363 17.9014 22.3363 18.0214 22.3363 18.0814Z" fill="#E1A770"/>
<path d="M38.1139 14.3619C38.7139 14.3619 39.1339 14.8419 39.1939 15.3819C39.1939 15.9819 38.7139 16.4619 38.0539 16.5819C36.9739 16.7019 36.9739 16.7019 36.9739 15.6219C36.9739 15.2019 36.9739 14.7819 36.9739 14.3619C37.2139 14.2419 37.3339 14.3619 37.3339 14.6019C37.3339 14.9019 37.3339 15.2619 37.3339 15.5619C37.3339 15.6219 37.3339 15.7419 37.3939 15.7419C37.4539 15.7419 37.5739 15.6819 37.5739 15.6219C37.7539 15.4419 37.7539 15.2619 37.7539 15.0819C37.7539 14.9019 37.7539 14.7219 37.7539 14.5419C37.9339 14.4819 37.9339 14.3019 38.1139 14.3619Z" fill="#B36D59"/>
<path d="M38.1139 14.3619C37.9339 14.3619 37.9939 14.5419 37.9339 14.6619C37.9339 14.8419 37.9339 15.0219 37.9339 15.2019C37.9339 15.4419 37.8739 15.6219 37.6939 15.8019C37.5739 15.9219 37.4539 15.9819 37.3339 15.9819C37.1539 15.9219 37.2739 15.7419 37.2739 15.6219C37.2739 15.3219 37.2739 14.9619 37.2739 14.6619C37.2739 14.4819 37.2139 14.3619 36.9739 14.3619C37.3339 14.3019 37.7539 14.3019 38.1139 14.3619Z" fill="#A45E4E"/>
</g>
<defs>
<clipPath id="clip0_13289_1489">
<rect width="38.0342" height="37.1344" fill="white" transform="translate(5.59866 7.2229)"/>
</clipPath>
</defs>
</svg>
