<svg width="49" height="49" viewBox="0 0 49 49" fill="none" xmlns="http://www.w3.org/2000/svg">
<rect x="0.540161" y="0.613525" width="48" height="48" rx="24" fill="#E3FBDA"/>
<g clip-path="url(#clip0_13289_8886)">
<path d="M31.1385 11.2738C31.3185 11.3938 31.5584 11.3938 31.7384 11.5137C32.4582 11.8737 32.8181 12.4735 32.8181 13.3133C32.8181 13.9731 32.8181 14.6929 32.8181 15.3528C32.7581 15.3528 32.7581 15.3528 32.6981 15.3528C28.7391 15.3528 24.7201 15.3528 20.7611 15.3528C17.282 15.3528 13.8029 15.3528 10.2638 15.3528C10.1438 15.3528 9.96389 15.3528 9.78394 15.2328C9.78394 14.453 9.78394 13.6132 9.78394 12.8334C9.90391 12.1136 10.5637 11.3338 11.4635 11.2738C18.0618 11.2738 24.6002 11.2738 31.1385 11.2738Z" fill="#CBCFD9"/>
<path d="M9.78394 15.2328C9.90391 15.2328 9.96389 15.2328 10.0839 15.2328C17.522 15.2328 24.9601 15.2328 32.3982 15.2328C32.5182 15.2328 32.6381 15.1728 32.7581 15.2928C32.5781 15.4127 32.3982 15.4127 32.2182 15.4127C29.159 15.4127 26.0998 15.4127 23.1006 15.4127C21.241 15.4127 19.3215 15.4127 17.462 15.4127C17.402 15.4127 17.282 15.4127 17.222 15.4127C16.9821 15.4127 16.8621 15.4727 16.9221 15.7126C16.9221 15.8326 16.9221 15.8926 16.9221 16.0126C16.9221 19.7916 16.9221 23.5707 16.9221 27.2897C16.9221 27.4697 16.9821 27.6496 16.8621 27.8296C16.7422 27.9495 16.6222 27.8896 16.4422 27.8896C14.3428 27.8896 12.3033 27.8896 10.2038 27.8896C10.0839 27.8896 9.90391 27.8896 9.78394 27.7696C9.78394 23.6306 9.78394 19.4317 9.78394 15.2328Z" fill="#4D87A8"/>
<path d="M9.78392 27.8296C12.1233 27.8296 14.4627 27.8296 16.8021 27.8296C16.9221 27.7097 17.0421 27.7696 17.162 27.7696C20.4012 27.7696 23.6404 27.7696 26.8196 27.7696C26.9396 27.7696 27.0595 27.7696 27.1795 27.8296C27.2995 27.8896 27.2395 28.0096 27.1795 28.0696C27.0595 28.1295 26.9396 28.1895 26.8196 28.2495C25.6199 28.8494 24.3602 29.3892 23.1605 29.9291C22.6806 30.169 22.2008 30.409 21.7209 30.5889C21.6009 30.6489 21.421 30.7089 21.301 30.8289C20.7611 31.1288 20.7611 31.7286 21.241 32.0885C22.0208 32.5684 22.8006 33.1083 23.5804 33.5882C23.8803 33.7681 24.1803 34.008 24.5402 34.188C24.6002 34.248 24.7201 34.308 24.7201 34.4279C23.2205 34.4279 21.7809 34.4279 20.2813 34.4279C17.522 34.4279 14.7027 34.4279 11.9434 34.4279C10.8037 34.4279 10.1438 33.9481 9.78392 32.8683C9.78392 32.8683 9.78392 32.8683 9.72394 32.8084C9.78392 31.1288 9.78392 29.4492 9.78392 27.8296Z" fill="#295474"/>
<path d="M24.7201 34.3079C24.4202 34.008 24.0003 33.828 23.6404 33.5881C22.8606 33.0482 22.0208 32.5683 21.241 32.0285C21.0011 31.8485 20.8211 31.6086 20.8211 31.3087C20.8211 30.9488 21.0011 30.7088 21.361 30.5888C23.2205 29.6891 25.14 28.8493 26.9995 27.9495C27.1195 27.8895 27.1795 27.8295 27.2995 27.7696C27.3594 27.6496 27.4794 27.5896 27.5394 27.5896C28.0193 27.3497 28.4992 27.1697 28.979 26.9298C29.5189 26.6299 30.0588 26.6299 30.6586 26.9298C31.2585 27.2297 31.7983 27.4696 32.3982 27.7696C32.5181 27.8895 32.6981 27.8895 32.8181 28.0095C33.238 28.2494 33.7178 28.4294 34.1377 28.6693C35.4574 29.2692 36.7771 29.929 38.1567 30.5289C38.4566 30.6488 38.6966 30.8288 38.8765 31.1287C38.8765 31.3087 38.8765 31.4286 38.8765 31.6086C38.8165 31.9085 38.6366 32.0285 38.3966 32.1484C38.1567 32.3284 37.8568 32.5084 37.6168 32.6283C37.5569 32.6883 37.4369 32.7483 37.3769 32.7483C36.6571 33.2282 35.8773 33.7081 35.1575 34.1879C35.0975 34.2479 34.9775 34.3079 34.9175 34.3679C34.7976 34.3079 34.7976 34.1879 34.8575 34.068C34.9175 33.6481 34.6776 33.4081 34.3177 33.2282C33.9578 32.9882 33.5379 32.8683 33.118 32.8083C32.2182 32.5683 31.3184 32.5084 30.4187 32.4484C29.279 32.4484 28.1392 32.4484 26.9995 32.7483C26.5197 32.8683 25.9798 32.9882 25.5599 33.2282C25.2 33.4081 24.9601 33.6481 25.02 34.068C25.02 34.1879 25.02 34.3079 24.9601 34.3679C24.7801 34.3679 24.7801 34.3679 24.7201 34.3079Z" fill="#88909F"/>
<path d="M38.8771 36.5877C38.7571 36.7677 38.6371 37.0077 38.4571 37.1277C37.9771 37.4277 37.3771 37.3677 37.0771 36.8877C36.7171 36.4077 36.8971 35.8077 37.4371 35.4477C37.5571 35.3277 37.6771 35.3277 37.7971 35.2677C37.8571 35.2677 37.9771 35.2677 38.0371 35.2677C38.1571 35.2677 38.2171 35.3277 38.3371 35.3277C38.6371 35.5077 38.8771 35.6877 38.9371 36.0477C38.8771 36.2877 38.8771 36.4677 38.8771 36.5877Z" fill="#F4AA01"/>
<path d="M11.4639 11.2738C11.2239 11.3938 10.9239 11.4538 10.6839 11.5738C10.3239 11.8738 10.0239 12.2338 9.90394 12.6538C9.90394 12.7138 9.90394 12.8338 9.78394 12.8338C9.78394 12.3538 9.78394 11.8738 9.78394 11.3938C9.78394 11.2738 9.78394 11.2738 9.96394 11.2738C10.4439 11.2738 10.9839 11.2738 11.4639 11.2738Z" fill="#FEFEFE"/>
<path d="M24.8401 34.368C24.8401 34.248 24.8401 34.128 24.8401 34.0081C24.7802 33.5882 25.0201 33.3482 25.38 33.1683C26.1598 32.7484 27.0596 32.5684 27.8994 32.4485C28.7991 32.3285 29.7589 32.3285 30.6587 32.3285C31.7984 32.3885 32.9381 32.5084 34.0178 32.9883C34.1378 33.0483 34.3177 33.1083 34.4377 33.2283C34.6776 33.4082 34.8576 33.6482 34.7976 34.0081C34.7976 34.128 34.7976 34.188 34.7976 34.308C34.7976 35.7476 34.7976 37.1873 34.7976 38.6269C34.7376 38.6269 34.6776 38.6269 34.6776 38.5669C34.1978 38.027 33.5379 37.8471 32.8781 37.7271C31.4984 37.4272 30.1188 37.3072 28.6792 37.4272C27.7794 37.4872 26.8796 37.6072 25.9798 37.9071C25.56 38.027 25.2 38.207 24.9601 38.5069C24.9001 38.5669 24.8401 38.6269 24.7802 38.5669C24.8401 37.2472 24.8401 35.8076 24.8401 34.368Z" fill="#79808E"/>
<path d="M24.8401 38.6268C25.0801 38.2669 25.44 38.0869 25.8599 37.907C26.7596 37.5471 27.7194 37.4271 28.6792 37.3671C29.279 37.3071 29.8789 37.3071 30.4187 37.3071C31.6184 37.3671 32.7581 37.4871 33.8978 37.907C34.2577 38.0869 34.6176 38.2669 34.8576 38.5668C34.9776 38.9267 34.7376 39.1667 34.4977 39.3466C34.1378 39.5865 33.7179 39.7665 33.298 39.8865C31.7984 40.2464 30.2987 40.3664 28.7991 40.2464C27.7794 40.1864 26.7596 40.0664 25.7999 39.6465C25.5599 39.5865 25.38 39.4666 25.2 39.3466C24.9001 39.2266 24.7801 38.9867 24.8401 38.6268Z" fill="#88909F"/>
<path d="M38.3367 32.1484C38.3367 33.2282 38.3367 34.2479 38.3367 35.3276C38.3367 35.3876 38.3367 35.4476 38.2767 35.4476C38.1567 35.4476 38.0968 35.4476 37.9768 35.3876C37.8568 35.3276 37.7968 35.3276 37.6769 35.3876C37.5569 35.4476 37.4369 35.4476 37.317 35.5076C37.317 34.7278 37.317 33.948 37.317 33.2282C37.317 33.1082 37.317 32.9882 37.317 32.8083C37.6769 32.5683 38.0368 32.3284 38.3367 32.1484Z" fill="#FBC00A"/>
<path d="M32.3982 27.8295C31.7983 27.5296 31.1985 27.2897 30.5986 26.9898C30.0588 26.7498 29.5789 26.7498 29.039 26.9898C28.4392 27.2897 27.8393 27.5296 27.2395 27.8295C27.1195 27.7096 26.9995 27.7696 26.9395 27.7696C23.5804 27.7696 20.1613 27.7696 16.8021 27.7696C16.8021 23.7506 16.8021 19.6716 16.8021 15.6526C16.8021 15.2927 16.8021 15.2927 17.162 15.2927C22.2607 15.2927 27.2995 15.2927 32.3982 15.2927C32.5181 15.2927 32.6381 15.2927 32.7581 15.2927H32.8181C32.8181 19.4317 32.8181 23.5706 32.8181 27.7096V27.7696C32.6981 27.9495 32.5181 27.8295 32.3982 27.8295Z" fill="#346D91"/>
<path d="M32.3982 27.8297C32.5182 27.7097 32.6982 27.8297 32.8182 27.7697C32.8182 27.8297 32.8182 27.9497 32.8182 28.0097C32.6982 28.0097 32.5182 27.9497 32.3982 27.8297Z" fill="#2E5979"/>
<path d="M29.339 13.7931C28.8591 13.7931 28.3792 13.7931 27.8994 13.7931C27.5994 13.7931 27.3595 13.6132 27.3595 13.3132C27.3595 13.0133 27.4795 12.8933 27.8394 12.7734C28.0193 12.7134 28.1993 12.7134 28.3193 12.7134C29.0991 12.7134 29.8189 12.7134 30.5987 12.7134C30.7186 12.7134 30.8386 12.7134 30.9586 12.7734C31.1985 12.8933 31.3785 13.0733 31.3185 13.3132C31.2585 13.5532 31.0786 13.7331 30.8386 13.7331C30.3587 13.7931 29.8189 13.7931 29.339 13.7931Z" fill="#8991A0"/>
<path d="M17.0423 13.7935C16.9223 13.7935 16.8623 13.7935 16.7423 13.7935C16.5023 13.7335 16.3223 13.6135 16.3223 13.3735C16.2623 13.1335 16.4423 12.8935 16.6823 12.8335C16.9223 12.7735 17.1623 12.7735 17.4023 12.8335C17.7023 12.8935 17.8223 13.0735 17.8223 13.3735C17.8223 13.6135 17.5823 13.7935 17.3423 13.7935C17.2223 13.7935 17.1623 13.7935 17.0423 13.7935Z" fill="#31B691"/>
<path d="M14.5229 13.7935C14.4029 13.7935 14.3429 13.7935 14.2229 13.7935C13.9829 13.7335 13.8029 13.5535 13.8029 13.3135C13.8029 13.0735 13.9229 12.8935 14.1629 12.8335C14.4029 12.7735 14.6429 12.7735 14.8829 12.8335C15.1829 12.8335 15.3029 13.0735 15.3029 13.3135C15.3029 13.5535 15.1229 13.7335 14.8829 13.7935C14.7629 13.7935 14.6429 13.7935 14.5229 13.7935Z" fill="#F9A016"/>
<path d="M12.0636 13.7934C11.9436 13.7934 11.8836 13.7934 11.7636 13.7934C11.4636 13.7334 11.3436 13.5534 11.2836 13.3134C11.2836 13.0734 11.4036 12.8334 11.6436 12.7734C11.8836 12.7134 12.1236 12.7134 12.3036 12.7734C12.6036 12.8334 12.7836 13.0134 12.7836 13.3134C12.7836 13.5534 12.5436 13.7934 12.3036 13.7934C12.1836 13.7934 12.1236 13.7934 12.0636 13.7934Z" fill="#D82A36"/>
<path d="M13.3236 22.3112C12.8436 22.3112 12.3036 22.3112 11.8236 22.3112C11.5236 22.3112 11.3436 22.1312 11.3436 21.8312C11.3436 21.5312 11.5236 21.3512 11.8236 21.3512C12.3036 21.3512 12.8436 21.3512 13.3236 21.3512C13.4436 21.6512 13.4436 21.9512 13.3236 22.3112Z" fill="#1C3B4F"/>
<path d="M13.323 18.292C13.803 18.292 14.283 18.292 14.763 18.292C15.123 18.292 15.303 18.472 15.303 18.772C15.303 19.072 15.063 19.252 14.763 19.252C14.283 19.252 13.803 19.252 13.323 19.252C13.143 18.952 13.143 18.652 13.323 18.292Z" fill="#1C3B4F"/>
<path d="M13.323 24.3505C13.803 24.3505 14.283 24.3505 14.763 24.3505C15.123 24.3505 15.303 24.5305 15.303 24.8305C15.303 25.1305 15.123 25.3105 14.763 25.3105C14.283 25.3105 13.803 25.3105 13.323 25.3105C13.143 25.0105 13.143 24.6505 13.323 24.3505Z" fill="#1C3B4F"/>
<path d="M13.3233 24.3506C13.3233 24.6506 13.3233 25.0106 13.3233 25.3106C13.2033 25.6706 13.0233 25.8506 12.7833 25.7906C12.5433 25.7906 12.3633 25.6106 12.3033 25.2506C12.1833 24.9506 12.1833 24.5906 12.3033 24.2906C12.3633 23.9306 12.5433 23.7506 12.8433 23.8106C13.0833 23.8106 13.2633 23.9906 13.3233 24.3506Z" fill="#37CAA0"/>
<path d="M13.3233 18.2921C13.3233 18.5921 13.3233 18.9521 13.3233 19.2521C13.2033 19.6721 13.0233 19.7921 12.7833 19.7921C12.5433 19.7921 12.3633 19.6121 12.3033 19.3121C12.1833 19.0121 12.1833 18.6521 12.3033 18.3521C12.3633 17.9921 12.5433 17.8721 12.7833 17.8721C13.0833 17.8121 13.2633 17.9921 13.3233 18.2921Z" fill="#37CAA0"/>
<path d="M13.3231 22.3114C13.3231 22.0114 13.3231 21.6514 13.3231 21.3514C13.3831 20.9914 13.5031 20.8114 13.8631 20.8114C14.1631 20.8114 14.2831 20.9914 14.2831 21.3514C14.2831 21.6514 14.2831 21.8914 14.2831 22.1914C14.2831 22.5514 14.1631 22.7314 13.8631 22.7914C13.5631 22.8514 13.3231 22.6114 13.3231 22.3114Z" fill="#37CAA0"/>
<path d="M12.3036 18.292C12.3036 18.592 12.3036 18.952 12.3036 19.252C12.1236 19.252 12.0036 19.252 11.8236 19.252C11.5236 19.252 11.3436 19.072 11.3436 18.772C11.3436 18.472 11.5236 18.292 11.8236 18.292C11.9436 18.292 12.1236 18.292 12.3036 18.292Z" fill="#1C3B4F"/>
<path d="M12.3036 24.3505C12.3036 24.6505 12.3036 25.0105 12.3036 25.3105C12.1236 25.3105 12.0036 25.3105 11.8236 25.3105C11.5236 25.3105 11.3436 25.1305 11.3436 24.8305C11.3436 24.5305 11.5236 24.3505 11.8236 24.3505C11.9436 24.3505 12.1236 24.3505 12.3036 24.3505Z" fill="#1C3B4F"/>
<path d="M14.7028 21.2913C15.1228 21.2913 15.3028 21.4713 15.3028 21.7713C15.3028 22.0713 15.0628 22.2513 14.7028 22.2513C14.3428 22.2513 14.3428 22.2513 14.3428 21.8913C14.3428 21.8313 14.3428 21.7113 14.3428 21.6513C14.3428 21.2913 14.3428 21.2913 14.7028 21.2913Z" fill="#1C3C4F"/>
<path d="M18.8419 31.7288C18.8419 31.9088 18.8419 32.1488 18.8419 32.3288C18.8419 32.6288 18.6019 32.8688 18.3619 32.8688C18.1219 32.8688 17.8819 32.6288 17.8819 32.3288C17.8819 31.9088 17.8819 31.4888 17.8819 31.0688C17.8819 30.9488 17.9419 30.8888 18.0619 30.8888C18.3019 30.8888 18.4819 30.8888 18.7219 30.8888C18.9019 30.8888 18.9019 30.9488 18.9019 31.0688C18.8419 31.3088 18.8419 31.4888 18.8419 31.7288Z" fill="#1C3B4F"/>
<path d="M14.7628 31.8489C14.5228 31.7889 14.2828 31.6689 14.2828 31.3689C14.2828 31.0689 14.4628 30.8889 14.7628 30.8289C15.1228 30.7089 15.4228 30.7089 15.7828 30.8289C16.2028 30.9489 16.3828 31.2489 16.2028 31.5489C16.1428 31.7289 15.9628 31.7889 15.7828 31.8489C15.4828 31.9689 15.1228 31.9689 14.7628 31.8489Z" fill="#37CAA0"/>
<path d="M11.8236 31.309C11.5836 31.309 11.4036 31.189 11.3436 30.949C11.2836 30.769 11.2836 30.529 11.4636 30.409C11.6436 30.289 12.9636 30.229 13.0836 30.409C13.2036 30.529 13.3236 30.709 13.2636 30.889C13.2036 31.129 13.0236 31.249 12.7836 31.309C12.4836 31.489 12.1236 31.489 11.8236 31.309Z" fill="#37CAA0"/>
<path d="M18.302 29.869C18.482 29.869 18.602 29.869 18.782 29.869C19.082 29.869 19.322 30.109 19.322 30.349C19.322 30.589 19.082 30.829 18.842 30.829C18.482 30.829 18.182 30.829 17.822 30.829C17.522 30.829 17.342 30.649 17.342 30.349C17.342 30.049 17.522 29.869 17.822 29.869C18.002 29.869 18.122 29.869 18.302 29.869Z" fill="#37CAA0"/>
<path d="M11.8234 31.3087C12.1234 31.3087 12.4834 31.3087 12.7834 31.3087C12.7834 31.6087 12.7834 31.9087 12.7834 32.2687C12.7834 32.6287 12.6034 32.8687 12.3034 32.8687C12.0634 32.8687 11.7634 32.5687 11.8234 32.2687C11.7634 31.9687 11.7034 31.6687 11.8234 31.3087Z" fill="#1C3B4F"/>
<path d="M15.7827 30.8292C15.4227 30.8292 15.1227 30.8292 14.7627 30.8292C14.7627 30.5292 14.7627 30.2292 14.7627 29.9292C14.7627 29.5692 15.0027 29.3292 15.3027 29.3292C15.6027 29.3292 15.7827 29.5692 15.7827 29.9292C15.7827 30.2292 15.7827 30.5292 15.7827 30.8292Z" fill="#1C3B4F"/>
<path d="M14.7627 31.8486C15.1227 31.8486 15.4227 31.8486 15.7827 31.8486C15.7827 32.0286 15.7827 32.1486 15.7827 32.3286C15.7827 32.6286 15.5427 32.8686 15.2427 32.8686C15.0027 32.8686 14.7627 32.6286 14.7627 32.3286C14.7627 32.1486 14.7627 32.0286 14.7627 31.8486Z" fill="#1C3B4F"/>
<path d="M12.2434 30.2892C12.0034 30.2292 11.7634 30.4692 11.7634 30.0492C11.7634 29.5692 11.9434 29.3292 12.2434 29.3292C12.4834 29.3292 12.7234 29.5092 12.7834 29.8092C12.8434 30.2892 12.8434 30.2892 12.2434 30.2892Z" fill="#1C3B4F"/>
<path d="M18.3019 29.8092C18.1819 29.8092 18.1219 29.8092 18.0019 29.8092C17.9419 29.8092 17.8219 29.8692 17.8219 29.7492C17.8219 29.6892 17.8819 29.6292 17.8819 29.5692C18.1219 29.2692 18.4819 29.3292 18.6619 29.5692C18.7219 29.6292 18.7819 29.6892 18.7219 29.7492C18.6619 29.8092 18.6019 29.8092 18.5419 29.8092C18.4819 29.8092 18.4219 29.8092 18.3019 29.8092Z" fill="#1D4052"/>
<path d="M37.7368 35.3877C37.8568 35.3277 37.9168 35.3277 38.0368 35.3877C37.9168 35.3877 37.8568 35.3877 37.7368 35.3877Z" fill="#FBC930"/>
<path d="M23.2805 21.5912C23.2805 22.8509 23.2805 24.0506 23.2805 25.3103C23.2805 25.6102 23.1605 25.7302 22.9206 25.7902C22.6806 25.8502 22.5007 25.7302 22.3807 25.5502C22.3207 25.4303 22.3207 25.3703 22.3207 25.2503C22.3207 22.7909 22.3207 20.2716 22.3207 17.8122C22.3207 17.4523 22.5007 17.2723 22.8006 17.2723C23.1005 17.2723 23.2805 17.4523 23.2805 17.8122C23.3405 19.0719 23.2805 20.3316 23.2805 21.5912Z" fill="#3FD9B0"/>
<path d="M24.3002 21.5312C24.3002 20.4514 24.3002 19.4317 24.3002 18.352C24.3002 18.112 24.3602 17.9321 24.6002 17.8121C24.7801 17.7521 24.9601 17.7521 25.14 17.8721C25.26 17.9921 25.32 18.172 25.32 18.352C25.32 20.4514 25.32 22.6109 25.32 24.7104C25.32 25.0703 25.08 25.3102 24.7801 25.3102C24.4802 25.3102 24.3002 25.0703 24.3002 24.7104C24.3002 23.6306 24.3002 22.6109 24.3002 21.5312Z" fill="#3FD9B0"/>
<path d="M27.3595 21.5312C27.3595 22.0711 27.3595 22.6709 27.3595 23.2108C27.3595 23.5707 27.1195 23.8106 26.8796 23.8106C26.5797 23.8106 26.3997 23.5707 26.3997 23.2108C26.3997 22.1311 26.3997 20.9913 26.3997 19.9116C26.3997 19.5517 26.6397 19.3118 26.8796 19.3118C27.1795 19.3118 27.4195 19.5517 27.4195 19.9116C27.3595 20.4515 27.3595 20.9913 27.3595 21.5312Z" fill="#3FD9B0"/>
<path d="M21.301 21.5311C21.301 22.071 21.301 22.6109 21.301 23.1507C21.301 23.5106 21.121 23.7506 20.8211 23.7506C20.5212 23.7506 20.2812 23.5106 20.2812 23.1507C20.2812 22.6109 20.2812 22.071 20.2812 21.5911C20.2812 21.0513 20.2812 20.4514 20.2812 19.9115C20.2812 19.4317 20.6412 19.1917 21.0011 19.3117C21.241 19.4317 21.301 19.6116 21.301 19.8516C21.301 20.4514 21.301 20.9913 21.301 21.5311Z" fill="#3FD9B0"/>
<path d="M29.339 21.5312C29.339 21.9511 29.339 22.371 29.339 22.7309C29.339 23.0309 29.099 23.2708 28.8591 23.2708C28.5592 23.2708 28.3792 23.0309 28.3792 22.7309C28.3792 21.8911 28.3792 21.1113 28.3792 20.2716C28.3792 19.9716 28.5592 19.7317 28.8591 19.7317C29.099 19.7317 29.339 19.9716 29.339 20.2716C29.339 20.7514 29.339 21.1713 29.339 21.5312Z" fill="#3FD9B0"/>
<path d="M18.3018 21.5312C18.3018 21.2912 18.3018 21.0513 18.3018 20.8113C18.3018 20.5114 18.4817 20.2715 18.7816 20.2715C19.0816 20.2715 19.3215 20.4514 19.3215 20.7514C19.3215 21.2312 19.3215 21.7711 19.3215 22.251C19.3215 22.5509 19.0816 22.7309 18.7816 22.7309C18.4817 22.7309 18.3018 22.4909 18.3018 22.191C18.3018 22.011 18.3018 21.7711 18.3018 21.5312Z" fill="#3FD9B0"/>
<path d="M31.3787 21.5913C31.3787 21.7713 31.3787 21.9513 31.1987 22.1313C31.0787 22.2513 30.9587 22.2513 30.8387 22.2513C30.4787 22.2513 30.3587 22.0113 30.3587 21.4113C30.3587 20.9913 30.4787 20.7513 30.8387 20.7513C31.1987 20.8113 31.3787 21.0513 31.3787 21.5913Z" fill="#3FD9B0"/>
</g>
<defs>
<clipPath id="clip0_13289_8886">
<rect width="29.5125" height="29.0326" fill="white" transform="translate(9.78394 11.2738)"/>
</clipPath>
</defs>
</svg>
