<svg width="48" height="49" viewBox="0 0 48 49" fill="none" xmlns="http://www.w3.org/2000/svg">
<rect y="0.806641" width="48" height="48" rx="24" fill="#E3FBDA"/>
<g clip-path="url(#clip0_13287_8744)">
<path d="M35.8777 34.052C36.8375 34.052 37.7374 34.052 38.6972 34.052C39.1171 34.052 39.2971 34.3519 39.5371 34.6519C39.5371 36.6315 39.5371 38.6712 39.5371 40.6508C39.4771 40.9507 39.2371 41.1907 38.9372 41.2507C34.0781 41.2507 29.219 41.2507 24.3598 41.2507C24.2999 41.1307 24.2399 41.0107 24.2399 40.8907C24.2399 39.9309 24.2399 38.9111 24.2399 37.9513C24.2399 37.8313 24.2399 37.7713 24.2999 37.6513C24.3598 37.5314 24.4798 37.5314 24.5398 37.5314C24.9597 37.3514 25.1397 37.1114 25.1397 36.6915C25.1397 35.9716 25.1397 35.2518 25.1397 34.4719C25.1397 34.3519 25.1397 34.172 25.1997 34.052C25.7996 34.052 26.3995 34.052 26.9994 34.052C27.1193 34.172 27.0593 34.3519 27.0593 34.4719C27.0593 35.1918 27.0593 35.9117 27.0593 36.6315C27.0593 36.9315 27.1193 37.1714 27.4193 37.3514C27.6592 37.5314 27.9592 37.5314 28.2591 37.4114C28.5591 37.2314 28.679 36.9915 28.679 36.6915C28.679 35.9716 28.679 35.2518 28.679 34.4719C28.679 34.3519 28.6791 34.172 28.739 34.052C29.3389 34.052 29.9388 34.052 30.5387 34.052C30.6587 34.172 30.5987 34.3519 30.5987 34.4719C30.5987 35.1918 30.5987 35.9117 30.5987 36.6315C30.5987 36.9315 30.6587 37.1714 30.9586 37.3514C31.1986 37.5314 31.4985 37.5314 31.7985 37.4114C32.0984 37.2314 32.2184 36.9915 32.2184 36.6915C32.2184 35.9716 32.2184 35.2518 32.2184 34.4719C32.2184 34.3519 32.2184 34.172 32.2784 34.052C32.8783 34.052 33.4782 34.052 34.0781 34.052C34.198 34.172 34.138 34.3519 34.138 34.4719C34.138 35.1918 34.138 35.9117 34.138 36.6315C34.138 36.9315 34.198 37.1714 34.498 37.3514C34.7379 37.5314 35.0379 37.5314 35.3378 37.4114C35.6378 37.2314 35.7577 36.9915 35.7577 36.6915C35.7577 35.9716 35.7577 35.2518 35.7577 34.4719C35.8177 34.3519 35.7577 34.172 35.8777 34.052Z" fill="#FE9833"/>
<path d="M24.2999 37.6513C24.2999 38.8511 24.2999 40.0509 24.2999 41.2507C19.4408 41.2507 14.5817 41.2507 9.78256 41.2507C9.42263 41.1907 9.18267 40.9507 9.12268 40.5908C9.12268 38.6112 9.12268 36.6915 9.12268 34.7119C9.36264 34.232 9.72257 34.052 10.2625 34.052C11.1023 34.112 11.8822 34.052 12.722 34.052C12.842 34.172 12.782 34.3519 12.782 34.4719C12.782 35.1918 12.782 35.9117 12.782 36.6315C12.782 36.9315 12.842 37.1714 13.1419 37.3514C13.3819 37.5314 13.6818 37.5314 13.9818 37.4114C14.2817 37.2314 14.4017 36.9915 14.4017 36.6915C14.4017 35.9716 14.4017 35.2518 14.4017 34.4719C14.4017 34.3519 14.4017 34.172 14.4617 34.052C15.0616 34.052 15.6615 34.052 16.2614 34.052C16.3813 34.172 16.3214 34.3519 16.3214 34.4719C16.3214 35.1918 16.3214 35.9117 16.3214 36.6315C16.3214 36.9315 16.3813 37.1714 16.6813 37.3514C16.9212 37.5314 17.2212 37.5314 17.5211 37.4114C17.8211 37.2314 17.9411 36.9915 17.9411 36.6915C17.9411 35.9716 17.9411 35.2518 17.9411 34.4719C17.9411 34.3519 17.9411 34.172 18.001 34.052C18.6009 34.052 19.2008 34.052 19.8007 34.052C19.9207 34.172 19.8607 34.3519 19.8607 34.4719C19.8607 35.1918 19.8607 35.9117 19.8607 36.6315C19.8607 36.9315 19.9207 37.1714 20.2206 37.3514C20.4606 37.5314 20.7605 37.5314 21.0605 37.4114C21.3604 37.2314 21.4804 36.9915 21.4804 36.6915C21.4804 35.9716 21.4804 35.2518 21.4804 34.4719C21.4804 34.3519 21.4804 34.172 21.5404 34.052C22.1403 34.052 22.7402 34.052 23.3401 34.052C23.46 34.172 23.4001 34.292 23.4001 34.4719C23.4001 35.0718 23.4001 35.7317 23.4001 36.3316C23.46 36.9315 23.64 37.4114 24.2999 37.6513C24.2999 37.5914 24.2999 37.5914 24.2999 37.6513Z" fill="#FEBA33"/>
<path d="M35.1578 10.8362C35.3978 10.9562 35.6378 11.0761 35.8177 11.3161C36.3576 11.856 36.8375 12.3359 37.3774 12.8758C37.8574 13.4157 37.6774 14.1956 37.0175 14.3755C36.7176 14.4355 36.4776 14.3755 36.2377 14.1956C36.1177 14.1356 36.0577 14.0156 35.9377 13.9556C35.9377 19.0547 35.9377 24.0937 35.9377 29.1928C36.0577 29.1928 36.1177 29.0728 36.1777 29.0128C36.5376 28.7129 37.0775 28.7129 37.4374 29.0128C37.7974 29.3728 37.7974 29.9127 37.4374 30.2726C36.8375 30.8725 36.2377 31.4724 35.6378 32.0723C35.2778 32.4322 34.7379 32.4322 34.378 32.0123C33.7781 31.4724 33.2382 30.8725 32.6383 30.2726C32.2784 29.9127 32.2784 29.3728 32.5783 29.0128C32.9383 28.6529 33.4782 28.6529 33.8981 29.0128C33.9581 29.0728 34.0181 29.1328 34.138 29.1928C34.138 24.0937 34.138 18.9947 34.138 13.8956C34.0181 14.0156 33.9581 14.0756 33.8981 14.1356C33.5381 14.4355 32.9982 14.4355 32.6383 14.1356C32.2784 13.7756 32.2784 13.2357 32.6383 12.8758C33.2382 12.2759 33.8381 11.676 34.438 11.0761C34.558 10.9562 34.7379 10.8962 34.8579 10.8362C34.9179 10.8362 35.0379 10.8362 35.1578 10.8362Z" fill="#384949"/>
<path d="M21.0006 10.8362C21.6604 11.1961 22.1403 11.736 22.7402 12.2159C25.7997 14.7355 28.8591 17.315 31.9185 19.8945C32.2185 20.1345 32.3985 20.4344 32.3385 20.8543C32.2785 21.2143 32.0985 21.3942 31.7386 21.5142C31.4386 21.6342 31.1387 21.5742 30.8987 21.3342C30.7788 21.2743 30.7188 21.1543 30.5988 21.0943C30.2988 20.9743 30.1189 20.7344 29.8789 20.5544C28.8591 19.7145 27.8393 18.8747 26.8195 17.9749C24.8398 16.3552 22.9202 14.7355 20.9406 13.1158C20.8206 13.0558 20.7606 12.9358 20.7006 12.8158C20.6406 12.2759 20.7006 11.676 20.7006 11.1361C20.7006 11.0161 20.7006 10.9562 20.7606 10.8362C20.8206 10.8362 20.9406 10.8362 21.0006 10.8362Z" fill="#E56B2E"/>
<path d="M20.7607 10.8362C20.7607 11.4961 20.7607 12.2159 20.7607 12.8758C20.7607 12.8758 20.7607 12.8758 20.7607 12.9358C20.4607 13.2957 20.0408 13.5957 19.6809 13.8956C18.0612 15.2154 16.5014 16.5351 14.8817 17.8549C14.8218 17.9149 14.7618 17.9149 14.7018 17.9749C13.502 18.9347 12.3622 19.9545 11.1624 20.9143C11.1024 20.9743 10.9825 21.0343 10.8625 21.0943C10.8025 21.1543 10.6825 21.2143 10.6225 21.2743C10.1426 21.6342 9.48274 21.5142 9.24278 20.9743C9.18279 20.9743 9.1228 20.9143 9.1228 20.9143C9.1228 20.7344 9.1228 20.6144 9.1228 20.4344C9.24278 20.1945 9.42275 19.9545 9.6627 19.7745C13.1421 16.8951 16.6214 14.0156 20.1008 11.1361C20.2208 11.0161 20.4007 10.9562 20.5807 10.8962C20.6407 10.8362 20.7007 10.8362 20.7607 10.8362Z" fill="#FE9833"/>
<path d="M26.8194 17.9747C28.0792 18.9946 29.339 20.0144 30.5388 21.0942C30.5388 21.2142 30.5388 21.3941 30.5388 21.5141C30.4188 21.6341 30.2388 21.5741 30.0588 21.5741C28.2592 21.5741 26.4595 21.5741 24.7198 21.5741C24.5998 21.5741 24.4799 21.5741 24.3599 21.5741C23.88 21.6341 23.64 21.934 23.58 22.3539C23.58 22.4739 23.58 22.5339 23.58 22.6539C23.58 24.2736 23.58 25.8333 23.58 27.453C23.58 28.2928 23.88 28.5328 24.6598 28.5328C26.4595 28.5328 28.2592 28.5328 30.0588 28.5328C30.2388 28.5328 30.4188 28.4728 30.5388 28.5928C30.5388 29.4926 30.5388 30.3925 30.5388 31.2923C30.5388 31.7722 30.1788 32.1321 29.6989 32.1321C26.9994 32.1321 24.3599 32.1321 21.6604 32.1321C21.5404 31.9522 21.6004 31.7722 21.6004 31.5922C21.6004 28.7128 21.6004 25.7733 21.6004 22.8938C21.6004 22.7739 21.6004 22.7139 21.6004 22.5939C21.6004 21.874 21.5404 21.6941 20.8205 21.4541C20.7606 21.4541 20.7606 21.3941 20.7606 21.3941C20.7006 21.2741 20.7006 21.1542 20.7006 21.0942C20.7006 20.1344 20.7006 19.2345 20.7006 18.2747C20.7006 18.1547 20.7006 17.9747 20.7606 17.8548C20.8805 17.7348 21.0005 17.7948 21.1805 17.7948C22.9202 17.7948 24.6598 17.7948 26.3995 17.7948C26.5195 17.8548 26.6395 17.9148 26.8194 17.9747Z" fill="#D2D2D7"/>
<path d="M20.7606 17.9749C20.7606 19.1747 20.7606 20.3145 20.7606 21.5142C20.6406 21.6342 20.4607 21.6342 20.2807 21.6342C18.781 21.6342 17.2812 21.6342 15.7815 21.6342C15.6615 21.6342 15.5416 21.6342 15.4216 21.6342C14.9417 21.6942 14.6417 21.9941 14.5817 22.4741C14.5817 22.594 14.5817 22.714 14.5817 22.834C14.5817 25.8334 14.5817 28.7729 14.5817 31.7723C14.5817 31.9523 14.6417 32.1323 14.5218 32.3122C13.6219 32.3122 12.7221 32.3122 11.8822 32.3122C11.2823 32.3122 10.9224 31.9523 10.9224 31.3524C10.9224 28.053 10.9224 24.8136 10.9224 21.5142C10.9224 21.3943 10.9824 21.2743 10.8624 21.1543C12.1222 20.1345 13.382 19.0547 14.6417 18.0349C14.8217 17.9749 15.0017 17.9149 15.1816 17.9149C16.9213 17.9149 18.601 17.9149 20.3407 17.9149C20.4607 17.8549 20.5806 17.8549 20.7606 17.9749Z" fill="#EBEBF0"/>
<path d="M14.5217 32.2522C14.5217 29.1927 14.5217 26.1333 14.5217 23.0739C14.5217 22.8939 14.5217 22.654 14.5217 22.474C14.5217 21.8741 14.8817 21.5142 15.4816 21.5142C17.1612 21.5142 18.7809 21.5142 20.4606 21.5142C20.5806 21.5142 20.6406 21.5142 20.7606 21.5142C20.8806 21.6341 20.8806 21.7541 20.8806 21.9341C20.8806 25.2335 20.8806 28.5329 20.8806 31.8922C20.8806 32.0122 20.8806 32.1922 20.7606 32.3122C18.661 32.2522 16.6213 32.2522 14.5217 32.2522Z" fill="#4A696F"/>
<path d="M30.5387 28.7128C28.4391 28.7128 26.3995 28.7128 24.2999 28.7128C23.8199 28.7128 23.4 28.2929 23.4 27.813C23.4 26.0133 23.4 24.2137 23.4 22.414C23.4 21.9341 23.8199 21.5142 24.2999 21.5142C26.3995 21.5142 28.4391 21.5142 30.5387 21.5142C30.5387 23.9137 30.5387 26.3133 30.5387 28.7128Z" fill="#6AA8FE"/>
<path d="M20.7605 32.2522C20.7605 28.6528 20.7605 25.1135 20.7605 21.5142C21.3004 21.5142 21.6603 21.8741 21.6603 22.414C21.6603 24.3936 21.6603 26.3733 21.6603 28.3529C21.6603 29.6127 21.6603 30.9324 21.6603 32.1922C21.3604 32.2522 21.0604 32.2522 20.7605 32.2522Z" fill="#384949"/>
<path d="M14.5217 34.052C14.5217 34.8918 14.5217 35.7917 14.5217 36.6315C14.5217 37.2314 14.1618 37.5913 13.6219 37.5913C13.082 37.5913 12.722 37.1714 12.722 36.6315C12.722 35.7917 12.722 34.8918 12.722 34.052C13.3219 34.052 13.9218 34.052 14.5217 34.052Z" fill="#4A696F"/>
<path d="M18.061 34.052C18.061 34.8918 18.061 35.7917 18.061 36.6315C18.061 37.2314 17.7011 37.5913 17.1612 37.5913C16.6213 37.5913 16.2614 37.1714 16.2614 36.6315C16.2614 35.7917 16.2614 34.8918 16.2614 34.052C16.9212 34.052 17.4611 34.052 18.061 34.052Z" fill="#4A696F"/>
<path d="M21.6604 34.052C21.6604 34.8918 21.6604 35.7917 21.6604 36.6315C21.6604 37.2314 21.3005 37.5913 20.7606 37.5913C20.2207 37.5913 19.8607 37.1714 19.8607 36.6315C19.8607 35.7917 19.8607 34.8918 19.8607 34.052C20.4606 34.052 21.0605 34.052 21.6604 34.052Z" fill="#4A696F"/>
<path d="M28.7391 34.052C28.7391 34.8918 28.7391 35.7917 28.7391 36.6315C28.7391 37.2314 28.3792 37.5913 27.8393 37.5913C27.2994 37.5913 26.9395 37.1714 26.9395 36.6315C26.9395 35.7917 26.9395 34.8918 26.9395 34.052C27.5993 34.052 28.1992 34.052 28.7391 34.052Z" fill="#384949"/>
<path d="M32.3384 34.052C32.3384 34.8918 32.3384 35.7917 32.3384 36.6315C32.3384 37.2314 31.9784 37.5913 31.4385 37.5913C30.8986 37.5913 30.5387 37.1714 30.5387 36.6315C30.5387 35.7917 30.5387 34.8918 30.5387 34.052C31.1386 34.052 31.7385 34.052 32.3384 34.052Z" fill="#384949"/>
<path d="M35.8778 34.052C35.8778 34.8918 35.8778 35.7917 35.8778 36.6315C35.8778 37.2314 35.5179 37.5913 34.978 37.5913C34.4381 37.5913 34.0781 37.1714 34.0781 36.6315C34.0781 35.7917 34.0781 34.8918 34.0781 34.052C34.678 34.052 35.2779 34.052 35.8778 34.052Z" fill="#384949"/>
<path d="M25.1997 34.0519C25.1997 34.8918 25.1997 35.7916 25.1997 36.6315C25.1997 37.2313 24.8998 37.5313 24.2999 37.5913C24.1799 37.4713 24.1799 37.3513 24.1799 37.1714C24.1799 36.2715 24.1799 35.3117 24.1799 34.4119C24.1799 34.2919 24.1799 34.1119 24.2999 33.9919C24.5999 34.0519 24.8998 34.0519 25.1997 34.0519Z" fill="#384949"/>
<path d="M24.2999 34.052C24.2999 35.2518 24.2999 36.3916 24.2999 37.5913C23.76 37.5913 23.4 37.2314 23.4 36.6915C23.4 35.7917 23.4 34.9518 23.4 34.052C23.7 34.052 23.9999 34.052 24.2999 34.052Z" fill="#4A696F"/>
<path d="M26.8195 17.9748C24.7799 17.9748 22.8002 17.9748 20.7606 17.9748C20.6406 17.8548 20.6406 17.7348 20.6406 17.5549C20.6406 16.1151 20.6406 14.7354 20.6406 13.2957C20.6406 13.1757 20.6406 12.9957 20.7606 12.8757C22.7402 14.6154 24.7799 16.2351 26.8195 17.9748Z" fill="#B9B9BF"/>
<path d="M20.7606 12.9358C20.7606 14.6155 20.7606 16.2952 20.7606 17.9749C18.721 17.9749 16.6813 17.9749 14.6417 17.9749C15.9015 16.8951 17.2212 15.8153 18.481 14.7954C19.1409 14.2555 19.7408 13.7156 20.4007 13.2357C20.5206 13.1158 20.5806 12.9958 20.7606 12.9358Z" fill="#D2D2D7"/>
</g>
<defs>
<clipPath id="clip0_13287_8744">
<rect width="30.9543" height="30.5344" fill="white" transform="translate(8.52283 10.7161)"/>
</clipPath>
</defs>
</svg>
