<svg width="49" height="49" viewBox="0 0 49 49" fill="none" xmlns="http://www.w3.org/2000/svg">
<rect x="0.620483" y="0.420166" width="48" height="48" rx="24" fill="#E9F6FD"/>
<path d="M22.0408 40.3897C21.2009 40.2098 20.301 39.9698 19.4611 39.6698C18.8612 39.4299 18.2013 39.1899 17.6613 38.8299C17.6013 37.93 18.3812 36.8502 19.5811 36.9102C22.9407 36.9102 26.3003 36.9102 29.6599 36.9102C30.5598 36.8502 31.3997 37.5101 31.5797 38.47C31.5797 38.59 31.5797 38.7099 31.5797 38.8299C30.2598 39.5498 28.88 40.0298 27.3802 40.2698C27.3202 40.2698 27.2602 40.3297 27.2002 40.3297C27.0802 40.2698 27.0202 40.2698 26.9002 40.3297L26.8402 40.3897C26.7202 40.3297 26.6603 40.3297 26.5403 40.3897C26.4803 40.3897 26.3603 40.4497 26.3003 40.4497C26.1803 40.3897 26.0603 40.3897 25.9403 40.4497C25.8803 40.4497 25.8204 40.4497 25.8204 40.5097C25.7604 40.5097 25.7604 40.5097 25.7004 40.5097C25.4004 40.4497 25.1004 40.4497 24.7405 40.5097C24.6205 40.5097 24.5005 40.5097 24.3805 40.5097C24.0806 40.4497 23.7806 40.4497 23.4206 40.5097C23.3606 40.5097 23.3606 40.5097 23.3007 40.5097C23.3007 40.4497 23.2407 40.4497 23.1807 40.4497C23.0607 40.3897 22.9407 40.3897 22.8207 40.4497C22.7607 40.4497 22.6407 40.3897 22.5807 40.3897C22.4607 40.3297 22.4008 40.3297 22.2808 40.3897L22.2208 40.3297C22.2208 40.3297 22.1608 40.3297 22.0408 40.3897Z" fill="#D3E3FE"/>
<path d="M15.7415 13.2729C16.8214 12.493 17.9613 11.8931 19.1611 11.4131C20.541 10.8732 21.8608 10.5132 23.3007 10.3932C23.3607 10.3932 23.4206 10.3932 23.4206 10.3333C23.5406 10.3333 23.6006 10.3333 23.7206 10.3333C23.7806 10.3932 23.8406 10.3333 23.8406 10.3932C23.9006 10.3932 23.9606 10.3932 24.0806 10.3333C24.4405 10.3333 24.8005 10.3333 25.1604 10.3333C25.2204 10.3932 25.2804 10.3333 25.4004 10.3932C25.4604 10.3932 25.5204 10.3932 25.5204 10.3333C25.6404 10.3333 25.7004 10.3333 25.8204 10.3333C26.1203 10.4532 26.4203 10.4532 26.7203 10.4532C29.18 10.8132 31.3997 11.7131 33.4395 13.1529C33.4995 13.1529 33.4995 13.2129 33.5595 13.2129C33.5595 13.3329 33.4395 13.3329 33.3195 13.3329C33.1995 13.3329 33.0795 13.3329 33.0195 13.3329C27.4402 13.3329 21.8608 13.3329 16.2815 13.3329C16.1615 13.3329 16.0415 13.3329 15.9815 13.3329C15.8615 13.3929 15.7415 13.3929 15.7415 13.2729Z" fill="#0069A2"/>
<path d="M9.56225 24.1916C9.68224 23.9516 9.68224 23.6517 9.68224 23.3517C9.92221 21.8519 10.3422 20.4121 10.9421 19.0322C10.9421 18.9722 11.0021 18.9122 11.0021 18.9122C11.1221 18.9122 11.1221 19.0322 11.1221 19.1522C11.1221 19.2722 11.1221 19.3322 11.1221 19.4522C11.1221 23.4717 11.1221 27.4912 11.1221 31.5108C11.1221 31.6907 11.2421 31.9307 11.0021 32.0507C10.5221 30.9708 10.1022 29.8309 9.86222 28.6911C9.74223 28.0912 9.68224 27.5512 9.56225 26.9513C9.56225 26.8913 9.56225 26.8313 9.50226 26.7713C9.50226 26.6513 9.50226 26.5313 9.50226 26.4113C9.56225 26.3514 9.50226 26.2914 9.56225 26.2914C9.56225 26.2314 9.56225 26.1714 9.50226 26.0514C9.50226 25.6914 9.50226 25.3315 9.50226 24.9715C9.56225 24.9115 9.50226 24.8515 9.56225 24.7315C9.56225 24.6716 9.56225 24.6116 9.50226 24.6116C9.56225 24.4316 9.56225 24.3116 9.56225 24.1916Z" fill="#0069A2"/>
<path d="M38.2389 18.9122C38.7188 19.9921 39.1388 21.132 39.3788 22.2718C39.4987 22.8718 39.6187 23.4717 39.6787 24.0716C39.6787 24.1316 39.6187 24.1916 39.7387 24.2516C39.7387 24.3716 39.7387 24.4316 39.7387 24.5516C39.6787 24.6116 39.7387 24.6716 39.6787 24.6716C39.6787 24.7315 39.6787 24.7915 39.7387 24.9115C39.7387 25.2715 39.7387 25.6314 39.7387 25.9914C39.6787 26.0514 39.7387 26.1114 39.6787 26.2314C39.6787 26.2914 39.6787 26.3514 39.7387 26.3514C39.7387 26.4713 39.7387 26.5913 39.7387 26.7113C39.6187 26.9513 39.6187 27.2512 39.6187 27.5512C39.3788 29.051 38.9588 30.4909 38.3589 31.8707C38.3589 31.9307 38.2989 31.9907 38.2989 31.9907C38.1789 31.9907 38.1789 31.8707 38.1789 31.7507C38.1789 31.6307 38.1789 31.5707 38.1789 31.4508C38.1789 27.4312 38.1789 23.4117 38.1789 19.3922C38.1189 19.2722 37.9989 19.0322 38.2389 18.9122Z" fill="#0069A2"/>
<path d="M9.56226 25.9915C9.62226 26.0515 9.62226 26.1715 9.62226 26.2315H9.56226C9.56226 26.1715 9.56226 26.0515 9.56226 25.9915Z" fill="#4591BB"/>
<path d="M39.6787 26.2315C39.6787 26.1715 39.6187 26.0515 39.7387 25.9915C39.7387 26.0515 39.7387 26.1715 39.6787 26.2315Z" fill="#4591BB"/>
<path d="M39.7387 24.9116C39.6787 24.8516 39.6787 24.7316 39.6787 24.6716H39.7387C39.7387 24.7916 39.7387 24.8516 39.7387 24.9116Z" fill="#4591BB"/>
<path d="M9.62226 24.6716C9.62226 24.7316 9.68226 24.8516 9.56226 24.9116C9.56226 24.8516 9.56226 24.7916 9.62226 24.6716C9.56226 24.6716 9.56226 24.6716 9.62226 24.6716Z" fill="#4591BB"/>
<path d="M9.56226 26.2314C9.62226 26.2914 9.62226 26.3514 9.56226 26.3514C9.56226 26.2914 9.56226 26.2314 9.56226 26.2314Z" fill="#60A1C5"/>
<path d="M39.6787 26.2314C39.7387 26.2914 39.7387 26.2914 39.7387 26.3514C39.6787 26.2914 39.6787 26.2914 39.6787 26.2314Z" fill="#60A1C5"/>
<path d="M39.7387 24.6716C39.6787 24.6116 39.6787 24.5516 39.7387 24.5516C39.7387 24.6116 39.7387 24.6716 39.7387 24.6716Z" fill="#60A1C5"/>
<path d="M9.62226 24.6716C9.56226 24.6716 9.56226 24.6716 9.62226 24.6716C9.56226 24.6116 9.56226 24.6116 9.56226 24.5516C9.62226 24.6116 9.62226 24.6116 9.62226 24.6716Z" fill="#60A1C5"/>
<path d="M38.2389 18.9123C38.1189 18.9723 38.1789 19.0923 38.1789 19.1523C38.1789 23.3518 38.1789 27.5513 38.1789 31.7508C38.1789 31.8108 38.1189 31.9308 38.2389 31.9908C37.639 33.1907 36.9191 34.2705 36.0792 35.2904L36.0192 35.3504C35.9592 35.3504 35.8992 35.3504 35.7792 35.3504C28.3401 35.3504 20.9009 35.3504 13.4618 35.3504C13.4018 35.3504 13.3418 35.3504 13.2218 35.3504C12.6819 34.7505 12.202 34.0906 11.782 33.4306C11.542 32.9507 11.3021 32.4707 11.0021 31.9908C11.1221 31.9308 11.0621 31.8108 11.0621 31.7508C11.0621 27.5513 11.0621 23.3518 11.0621 19.1523C11.0621 19.0923 11.1221 18.9723 11.0021 18.9123C11.0621 18.7924 11.0621 18.6724 11.0621 18.4924C11.0621 17.6525 11.0621 16.8126 11.0621 15.9727C11.0621 15.3128 11.1821 14.6528 11.662 14.1729C12.082 13.693 12.5619 13.453 13.1619 13.333C13.8818 13.213 14.6617 13.273 15.3816 13.273C15.5016 13.273 15.6216 13.273 15.7415 13.213C15.8015 13.333 15.9215 13.273 15.9815 13.273C21.7408 13.273 27.5002 13.273 33.2595 13.273C33.3195 13.273 33.4395 13.333 33.4995 13.213C33.6194 13.273 33.7394 13.273 33.8594 13.273C34.5793 13.273 35.2992 13.273 36.0792 13.333C37.099 13.453 38.0589 14.4129 38.1189 15.4328C38.1789 16.4526 38.1189 17.4725 38.1789 18.4924C38.1789 18.6724 38.1789 18.7924 38.2389 18.9123Z" fill="#D3E3FE"/>
<path d="M35.8992 35.2904C35.9592 35.2904 36.0192 35.2904 36.0192 35.3504C34.7593 36.7902 33.2595 37.9301 31.5797 38.83C31.4597 38.77 31.5197 38.71 31.5197 38.65C31.3997 37.6901 30.7398 37.0302 29.7799 37.0302C29.5399 36.9702 29.2999 37.0302 29 37.0302C28.82 37.0302 28.76 36.9702 28.7 36.7902C28.7 36.4303 28.7 36.0703 28.7 35.6504C28.7 35.4704 28.82 35.3504 29 35.3504C29.9599 35.3504 30.9797 35.3504 31.9396 35.3504C33.1395 35.3504 34.3393 35.3504 35.5392 35.3504C35.7192 35.3504 35.7792 35.3504 35.8992 35.2904Z" fill="#0069A2"/>
<path d="M13.2218 35.3504C13.2218 35.2904 13.2818 35.2904 13.3418 35.2904C13.4618 35.3504 13.5818 35.2904 13.6418 35.2904C15.8015 35.2904 17.9613 35.2904 20.121 35.2904C20.481 35.2904 20.481 35.2904 20.481 35.6504C20.481 36.0103 20.481 36.3103 20.481 36.6702C20.481 36.8502 20.421 36.9702 20.181 36.9702C19.941 36.9702 19.7011 36.9102 19.4611 36.9702C18.5012 37.0302 17.8413 37.6301 17.7213 38.59C17.7213 38.65 17.7213 38.77 17.6613 38.77C15.9815 37.9901 14.4817 36.7902 13.2218 35.3504Z" fill="#0069A2"/>
<path d="M19.5211 37.0302C19.761 36.9702 20.001 37.0302 20.301 36.9702C20.481 36.9702 20.481 36.9102 20.481 36.7902C20.481 36.4303 20.481 36.0703 20.481 35.6504C20.481 35.4104 20.421 35.3504 20.181 35.3504C18.4412 35.3504 16.7014 35.3504 15.0216 35.3504C14.6017 35.3504 14.1817 35.3504 13.7018 35.3504C13.5818 35.3504 13.4618 35.3504 13.4018 35.2904C13.5218 35.2904 13.6418 35.2904 13.7018 35.2904C16.5214 35.2904 19.2811 35.2904 22.1008 35.2904C26.6002 35.2904 31.0997 35.2904 35.5392 35.2904C35.6592 35.2904 35.7792 35.2904 35.8991 35.2904C35.7792 35.3504 35.6592 35.3504 35.5392 35.3504C33.3794 35.3504 31.2797 35.3504 29.1199 35.3504C28.88 35.3504 28.76 35.4104 28.76 35.6504C28.76 36.0103 28.76 36.3703 28.76 36.7302C28.76 36.9102 28.82 36.9102 28.94 36.9102C29.1799 36.9102 29.4199 36.8502 29.7199 36.9702C29.2999 36.9702 28.88 36.9702 28.4 36.9702C25.5204 36.9702 22.6407 36.9702 19.761 36.9702C19.761 37.0302 19.6411 37.0302 19.5211 37.0302Z" fill="#87A7E5"/>
<path d="M24.6205 31.9308C20.9609 31.9308 17.3613 31.9308 13.7018 31.9308C12.7419 31.9308 12.3219 31.5108 12.3219 30.551C12.3219 25.6915 12.3219 20.8321 12.3219 15.9127C12.3219 15.0128 12.8019 14.5328 13.7018 14.5328C21.0209 14.5328 28.2801 14.5328 35.5992 14.5328C36.4991 14.5328 36.979 15.0128 36.979 15.9127C36.979 20.7721 36.979 25.6315 36.979 30.551C36.979 31.5108 36.4991 31.9308 35.5992 31.9308C31.9396 31.9308 28.2801 31.9308 24.6205 31.9308Z" fill="#244477"/>
<path d="M28.82 25.4516C26.9602 25.4516 25.0404 25.4516 23.1807 25.4516C22.6407 25.4516 22.3408 25.2116 22.3408 24.7916C22.3408 24.3717 22.6407 24.1317 23.1807 24.1317C26.9602 24.1317 30.6798 24.1317 34.4593 24.1317C35.0593 24.1317 35.4192 24.4917 35.2392 24.9716C35.1792 25.2716 34.9393 25.4516 34.5193 25.4516C33.4994 25.4516 32.4796 25.4516 31.4597 25.4516C30.5598 25.4516 29.7199 25.4516 28.82 25.4516Z" fill="#FE4079"/>
<path d="M28.82 29.171C30.6798 29.171 32.5996 29.171 34.4593 29.171C34.6393 29.171 34.8193 29.171 34.9993 29.291C35.2392 29.411 35.2992 29.651 35.2992 29.8909C35.2392 30.1909 35.1193 30.3709 34.8193 30.4309C34.6993 30.4309 34.5193 30.4909 34.3993 30.4909C30.6798 30.4909 26.9602 30.4909 23.2407 30.4909C23.1207 30.4909 23.0007 30.4909 22.8807 30.4909C22.5807 30.4309 22.3408 30.1909 22.3408 29.8909C22.3408 29.591 22.5207 29.351 22.8207 29.291C22.9407 29.291 23.0607 29.291 23.1807 29.291C25.0404 29.171 26.9602 29.171 28.82 29.171Z" fill="#FBD871"/>
<path d="M28.82 21.6719C30.6798 21.6719 32.5995 21.6719 34.4593 21.6719C34.7593 21.6719 34.9993 21.7319 35.1792 21.9719C35.3592 22.3319 35.1792 22.7518 34.8193 22.8718C34.6993 22.9318 34.5793 22.9318 34.3993 22.9318C30.6798 22.9318 26.9602 22.9318 23.1806 22.9318C23.0607 22.9318 22.8807 22.9318 22.7607 22.8718C22.5207 22.8118 22.2808 22.5118 22.3407 22.2719C22.3407 22.0319 22.4607 21.7919 22.7607 21.6719C22.8807 21.6119 23.0607 21.6119 23.2406 21.6119C25.1004 21.6719 26.9602 21.6719 28.82 21.6719Z" fill="#228AD0"/>
<path d="M28.82 27.9713C26.9602 27.9713 25.1004 27.9713 23.2407 27.9713C22.7007 27.9713 22.4008 27.7313 22.4008 27.3713C22.4008 26.9514 22.7007 26.7114 23.2407 26.7114C27.0202 26.7114 30.7398 26.7114 34.5193 26.7114C34.6393 26.7114 34.6993 26.7114 34.8193 26.7114C35.1193 26.7714 35.3592 27.0114 35.3592 27.3114C35.3592 27.6113 35.1193 27.8513 34.8193 27.9113C34.6993 27.9113 34.5793 27.9113 34.4593 27.9113C32.5396 27.9713 30.6798 27.9713 28.82 27.9713Z" fill="#FEFEFE"/>
<path d="M16.8814 30.4909C16.2215 30.4909 15.5615 30.4909 14.9616 30.4909C14.7816 30.4909 14.6616 30.4909 14.4817 30.4309C14.1217 30.311 13.9417 30.071 14.0017 29.711C14.0017 29.4711 14.3017 29.2311 14.6017 29.2311C14.9616 29.2311 15.3816 29.2311 15.7415 29.2311C16.8214 29.2311 17.9613 29.2311 19.0411 29.2311C19.5211 29.2311 19.821 29.531 19.761 30.011C19.7011 30.311 19.4011 30.5509 18.9811 30.5509C18.3212 30.4909 17.6013 30.4909 16.8814 30.4909Z" fill="#0069A2"/>
<path d="M16.8814 25.4515C16.1615 25.4515 15.4416 25.4515 14.7217 25.4515C14.2417 25.4515 13.9418 25.0915 14.0017 24.6716C14.0617 24.3716 14.3617 24.1917 14.8416 24.1917C16.1015 24.1917 17.3014 24.1917 18.5612 24.1917C18.8012 24.1917 19.0412 24.1916 19.2811 24.2516C19.7011 24.3716 19.8211 24.5516 19.8211 24.9116C19.8211 25.2115 19.5211 25.4515 19.1611 25.4515C18.3812 25.4515 17.6613 25.4515 16.8814 25.4515Z" fill="#0069A2"/>
<path d="M16.8814 21.672C17.6013 21.672 18.3212 21.672 19.0411 21.672C19.3411 21.672 19.5811 21.792 19.7011 22.032C19.881 22.3919 19.7011 22.8119 19.2811 22.9318C19.1611 22.9918 18.9811 22.9918 18.8612 22.9918C17.4813 22.9918 16.1615 22.9918 14.7816 22.9918C14.2417 22.9918 13.9417 22.7519 13.9417 22.3319C13.9417 21.912 14.2417 21.672 14.7816 21.672C15.5616 21.672 16.2215 21.672 16.8814 21.672Z" fill="#FEFEFE"/>
<path d="M16.8814 26.7114C17.6613 26.7114 18.3812 26.7114 19.1611 26.7114C19.4611 26.7114 19.6411 26.8314 19.7611 27.0714C19.881 27.3113 19.8211 27.5513 19.6411 27.7313C19.5211 27.9113 19.3411 27.9713 19.1611 27.9713C17.6613 27.9713 16.1615 27.9713 14.6017 27.9713C14.2417 27.9713 13.9417 27.6713 13.9417 27.3713C13.9417 27.0114 14.1817 26.7714 14.6017 26.7714C15.3816 26.6514 16.1615 26.7114 16.8814 26.7114Z" fill="#FBD871"/>
<path d="M23.4206 21.072C23.1807 21.072 23.0007 20.832 23.0607 20.5921C23.0607 20.5321 23.1207 20.4721 23.1207 20.4121C23.9006 18.7923 24.6805 17.2324 25.4604 15.6126C25.5204 15.4327 25.6404 15.2527 25.8803 15.3127C26.1803 15.3127 26.3003 15.6126 26.1803 15.9126C25.6404 17.1125 25.0404 18.2523 24.4405 19.4522C24.2005 19.9321 23.9606 20.3521 23.7806 20.832C23.6606 21.012 23.5406 21.072 23.4206 21.072Z" fill="#FEFEFE"/>
<path d="M27.9803 18.7925C27.6203 18.5525 27.2603 18.3125 26.9003 18.0725C26.6003 17.8925 26.5403 17.6525 26.7203 17.4125C26.9003 17.1725 27.0803 17.1125 27.3803 17.2925C27.9203 17.5925 28.4003 17.9525 28.8803 18.3125C29.3003 18.6125 29.3003 18.9725 28.8803 19.2125C28.3403 19.5725 27.8603 19.8725 27.3203 20.2325C27.0803 20.4125 26.8403 20.3525 26.6603 20.1125C26.4803 19.8725 26.5403 19.6925 26.8403 19.5125C27.2003 19.2725 27.5603 19.0325 27.9803 18.7925Z" fill="#FEFEFE"/>
<path d="M21.261 18.7925C21.681 19.0325 21.981 19.2725 22.341 19.5125C22.641 19.6925 22.701 19.9325 22.521 20.1725C22.341 20.4125 22.161 20.4725 21.861 20.2925C21.321 19.9325 20.841 19.6325 20.301 19.2725C19.881 18.9725 19.881 18.6125 20.301 18.3725C20.841 18.0125 21.321 17.7125 21.861 17.3525C22.101 17.1725 22.341 17.2325 22.521 17.4725C22.701 17.7125 22.641 17.8925 22.341 18.0725C22.041 18.3125 21.681 18.5525 21.261 18.7925Z" fill="#FEFEFE"/>
</svg>
