<svg width="49" height="49" viewBox="0 0 49 49" fill="none" xmlns="http://www.w3.org/2000/svg">
<rect x="0.0803223" y="0.420166" width="48" height="48" rx="24" fill="#E3FBDA"/>
<g clip-path="url(#clip0_13289_9097)">
<path d="M37.0673 27.011C37.2472 27.1909 37.3072 27.4309 37.3072 27.7308C37.3072 29.0505 37.3072 30.3702 37.3072 31.6899C37.3072 32.3497 36.8873 32.7696 36.2275 32.7696C35.8675 32.7696 35.5076 32.7696 35.0877 32.7696C34.9078 32.7696 34.8478 32.8296 34.7878 33.0096C34.6078 33.7294 34.3079 34.3892 33.948 34.9891C33.888 35.1091 33.888 35.229 34.008 35.349C34.3079 35.589 34.5478 35.8889 34.8478 36.1888C35.2677 36.6687 35.3277 37.2086 34.8478 37.6285C33.888 38.5883 32.9882 39.548 32.0284 40.4478C31.5485 40.8677 31.0087 40.8677 30.5888 40.4478C30.2888 40.1479 30.0489 39.908 29.749 39.608C29.629 39.4881 29.569 39.4881 29.3891 39.548C28.7292 39.908 28.0694 40.1479 27.4095 40.3878C27.2296 40.4478 27.1696 40.5078 27.1696 40.6878C27.1696 40.9877 27.1696 41.3476 27.1696 41.6476C27.2296 42.2474 26.9896 42.6673 26.4497 42.9073C25.6699 42.9073 24.8901 42.9073 24.1703 42.9073C24.0503 42.7873 24.0503 42.6673 24.0503 42.5473C24.0503 40.7478 24.0503 38.9482 24.0503 37.1486C24.0503 37.0886 24.0503 36.9686 24.1103 36.9087C24.1703 36.7287 24.3502 36.7287 24.5302 36.7287C26.3298 36.6087 27.9494 35.8889 29.2091 34.5692C30.2888 33.4295 30.9487 32.1098 31.1286 30.5501C31.1886 29.8303 31.1886 29.1105 31.0687 28.3906C31.0687 28.3307 31.0087 28.2107 31.0687 28.1507C31.1286 28.0307 31.2486 28.0307 31.3086 28.0307C33.1082 27.7308 34.8478 27.4309 36.6474 27.011C36.7073 27.011 36.8873 26.891 37.0673 27.011Z" fill="#7FA9FE"/>
<path d="M24.1103 36.7887C24.1103 38.8282 24.1103 40.8678 24.1103 42.9073C23.3305 42.9073 22.5507 42.9073 21.8309 42.9073C21.231 42.6074 21.051 42.1275 21.111 41.4676C21.111 41.1077 21.231 40.7478 21.051 40.4479C20.9311 40.1479 20.4512 40.2079 20.1512 40.0879C19.7313 39.908 19.3114 39.788 18.9515 39.5481C18.7716 39.4281 18.6516 39.4881 18.4716 39.6081C18.2317 39.848 17.9917 40.1479 17.6918 40.3879C17.2119 40.8678 16.6121 40.8678 16.1922 40.3879C15.2324 39.4881 14.3326 38.5283 13.3728 37.5685C12.9529 37.0886 12.9529 36.5488 13.3728 36.0689C13.6727 35.769 13.9127 35.529 14.2126 35.2291C14.3326 35.1091 14.3326 35.0491 14.2726 34.9291C13.9127 34.3293 13.6727 33.6694 13.4328 33.0096C13.3728 32.7696 13.2528 32.7097 13.0729 32.7696C12.713 32.7696 12.3531 32.7696 11.9332 32.7696C11.3333 32.7696 10.9134 32.3497 10.9134 31.7499C10.9134 30.4302 10.9134 29.1105 10.9134 27.7908C10.9134 27.5509 11.0334 27.3109 11.1533 27.071C11.2733 26.951 11.3933 27.011 11.5133 27.071C13.3728 27.4909 15.2324 27.8508 17.092 28.1507C17.2119 28.1507 17.2719 28.1507 17.3319 28.2707C16.972 28.9305 17.032 29.6504 17.092 30.3702C17.2119 32.1098 17.9318 33.6095 19.1315 34.8092C20.2112 35.8889 21.5909 36.5488 23.0906 36.7887C23.4505 36.6687 23.7504 36.6687 24.1103 36.7887C24.0503 36.7887 24.0503 36.7287 24.1103 36.7887Z" fill="#98CBFE"/>
<path d="M25.37 8.35535C25.7299 8.47532 26.1498 8.47532 26.5697 8.5353C27.7695 8.71526 28.9092 9.07518 29.9889 9.49508C30.6488 9.79501 30.8887 10.3349 30.5888 10.9947C30.4688 11.2947 30.3489 11.5346 30.2289 11.8345C30.2289 12.0145 30.1689 12.1345 30.1089 12.2544C29.2091 14.294 28.2494 16.3335 27.3496 18.373C27.2296 18.553 27.1696 18.7929 27.0496 18.9729C26.7497 19.5127 26.1498 19.6927 25.67 19.5127C25.0701 19.2128 24.8301 18.613 25.0701 18.0731C25.37 17.3533 25.67 16.6934 26.0299 15.9736C26.6897 14.4739 27.4095 12.9143 28.0694 11.4146C28.1894 11.2347 28.1294 11.1147 27.8894 11.0547C27.0496 10.8148 26.2098 10.6348 25.37 10.5148C24.9501 10.4549 24.4702 10.5148 24.0503 10.3949C24.0503 10.3349 23.9903 10.3349 23.9903 10.2749C23.9304 9.73503 23.9903 9.13517 23.9903 8.59529C23.9903 8.47532 24.0503 8.41533 24.1103 8.35535C24.2303 8.35535 24.2903 8.35535 24.4102 8.35535C24.5902 8.41533 24.8301 8.41533 25.0101 8.35535C25.1301 8.35535 25.2501 8.35535 25.37 8.35535Z" fill="#FE9833"/>
<path d="M24.1103 8.35535C24.1103 9.01519 24.1103 9.73503 24.1103 10.3949C23.9903 10.5148 23.8104 10.4549 23.6904 10.4549C22.5507 10.5148 21.4109 10.6948 20.3312 10.9947C19.9713 11.1147 19.9713 11.1147 20.0912 11.4146C21.051 13.5741 22.0108 15.7936 23.0306 17.9531C23.1505 18.253 23.2105 18.553 23.0905 18.9129C22.9106 19.3328 22.6107 19.5727 22.1308 19.6327C21.6509 19.6327 21.3509 19.4528 21.111 19.0329C20.6311 18.1931 20.3312 17.2933 19.9113 16.4535C19.3114 15.0738 18.6516 13.6941 18.0517 12.3144C17.9917 12.1945 17.9317 12.0145 17.9317 11.8945C17.8118 11.5946 17.6918 11.2947 17.5718 11.0547C17.3319 10.3949 17.5118 9.91498 18.1117 9.61505C19.5514 9.01519 21.051 8.65528 22.5507 8.47532C22.6107 8.47532 22.7306 8.47532 22.7306 8.41533C22.9106 8.41533 23.1505 8.41533 23.3305 8.41533C23.4505 8.47532 23.6304 8.47532 23.7504 8.41533C23.9303 8.35535 23.9903 8.35535 24.1103 8.35535Z" fill="#FEC24D"/>
<path d="M24.9502 8.35535C24.7702 8.47535 24.5302 8.47535 24.3502 8.35535C24.5302 8.35535 24.7702 8.35535 24.9502 8.35535Z" fill="#FEA440"/>
<path d="M23.8104 8.35535C23.6904 8.47535 23.5104 8.47535 23.3904 8.35535C23.5704 8.35535 23.6904 8.35535 23.8104 8.35535Z" fill="#FECC6A"/>
<path d="M17.3319 28.2107C16.3721 28.0308 15.4123 27.9108 14.4525 27.7309C13.3728 27.4909 12.2331 27.251 11.1533 27.011C10.6734 26.8911 10.1935 26.7711 9.77363 26.6511C9.17377 26.4712 8.87384 26.1712 8.87384 25.5114C8.87384 24.5516 8.87384 23.6518 8.87384 22.692C8.87384 21.9722 9.29374 21.6123 10.0136 21.6123C10.3735 21.6123 10.7334 21.6123 11.0333 21.6123C11.1533 21.4923 11.3333 21.4923 11.5132 21.4923C15.5323 21.4923 19.6113 21.4923 23.6304 21.4923C23.8104 21.4923 23.9303 21.4923 24.1103 21.6123C24.2303 21.7323 24.2303 21.9122 24.2303 22.0922C24.2303 24.1317 24.2303 26.2312 24.2303 28.2707C24.2303 28.3907 24.2303 28.5707 24.1703 28.6906C23.9903 28.8706 23.8104 28.8106 23.6304 28.8106C22.1308 28.8106 20.6911 28.6906 19.2514 28.5107C18.7715 28.4507 18.2317 28.3907 17.7518 28.3307C17.5718 28.2707 17.4518 28.2707 17.3319 28.2107Z" fill="#FEC24D"/>
<path d="M24.1103 21.5522C19.7913 21.5522 15.4123 21.5522 11.0933 21.5522C11.2733 20.5925 11.5132 19.6327 11.8731 18.6729C13.0729 15.7336 15.0524 13.5141 17.7518 11.9545C17.8118 11.8945 17.8717 11.8945 17.9317 11.8345C19.0115 14.1739 20.0312 16.5134 21.051 18.8529C21.171 19.1528 21.4109 19.3927 21.7109 19.5127C22.0708 19.6327 22.4307 19.5727 22.7306 19.2728C23.0305 19.0328 23.1505 18.6729 23.0305 18.253C22.7906 17.7131 22.5507 17.1732 22.3107 16.6334C21.5309 14.8938 20.7511 13.0942 19.9113 11.3546C19.7913 11.1147 19.8513 11.0547 20.0912 10.9947C21.051 10.6948 21.9508 10.4548 22.9706 10.3948C23.3305 10.3948 23.7504 10.3348 24.1103 10.3348C24.2303 10.5148 24.1703 10.6348 24.1703 10.8147C24.1703 14.2339 24.1703 17.7131 24.1703 21.1323C24.1703 21.2523 24.1703 21.3723 24.1103 21.5522Z" fill="#FEE566"/>
<path d="M24.1103 28.6306C24.1103 26.2911 24.1103 23.8917 24.1103 21.5522C24.2303 21.4323 24.4102 21.4323 24.5302 21.4323C28.6092 21.4323 32.6283 21.4323 36.7074 21.4323C36.8873 21.4323 37.0073 21.4323 37.1872 21.5522C37.5472 21.5522 37.9071 21.5522 38.327 21.5522C38.9268 21.5522 39.3467 21.9721 39.3467 22.572C39.3467 23.5917 39.3467 24.5515 39.3467 25.5713C39.3467 26.1112 39.1068 26.4711 38.5669 26.591C38.087 26.711 37.6071 26.831 37.1273 26.951C35.2677 27.3709 33.3481 27.7308 31.4886 28.0307C31.3686 28.0307 31.1886 28.0307 31.0687 28.0907C31.0087 28.2107 30.8287 28.2107 30.7088 28.2107C30.1689 28.2707 29.629 28.3906 29.0891 28.3906C27.6495 28.5706 26.1498 28.6906 24.7102 28.6906C24.4102 28.7505 24.2303 28.8105 24.1103 28.6306Z" fill="#FE9833"/>
<path d="M37.1272 21.5522C32.7483 21.5522 28.4293 21.5522 24.0503 21.5522C24.0503 17.8331 24.0503 14.054 24.0503 10.3348C25.37 10.3348 26.6897 10.5748 27.9494 10.9347C28.3093 11.0547 28.2493 11.1746 28.1293 11.4146C27.1096 13.6341 26.1498 15.8536 25.13 18.073C24.9501 18.4929 25.0701 19.0328 25.37 19.2728C25.7299 19.5727 26.1498 19.6327 26.6297 19.3327C26.9896 19.0928 27.0496 18.7329 27.2296 18.373C28.0094 16.6934 28.7292 15.0137 29.449 13.3341C29.689 12.7943 29.9289 12.3144 30.1689 11.7745C31.4886 12.4943 32.6883 13.3941 33.708 14.5339C35.4476 16.4534 36.5274 18.6729 37.0073 21.1923C37.0673 21.3723 37.1272 21.4922 37.1272 21.5522Z" fill="#FEC24D"/>
<path d="M28.9692 28.3907C29.629 28.3307 30.2889 28.2107 30.9487 28.1508C31.1287 28.4507 31.1287 28.8106 31.1287 29.1105C31.1887 30.3702 31.0087 31.57 30.4688 32.7097C29.629 34.3893 28.3693 35.589 26.6297 36.2489C25.7899 36.5488 24.9501 36.7288 24.0503 36.7288C23.9903 36.6688 23.9303 36.5488 23.9303 36.4888C23.9303 35.9489 23.8704 35.3491 23.9303 34.8092C23.9903 34.6293 24.1703 34.6293 24.2903 34.6293C25.31 34.5093 26.2098 34.2093 27.0496 33.6095C28.3093 32.5897 28.9692 31.21 28.9692 29.5904C28.9692 29.2905 28.9092 29.0505 28.8492 28.7506C28.9692 28.6306 28.9092 28.5107 28.9692 28.3907Z" fill="#6680FE"/>
<path d="M24.1103 34.7492C24.1103 35.409 24.1103 36.0689 24.1103 36.7887C22.0108 36.7887 20.2112 35.9489 18.8315 34.4492C17.8717 33.3695 17.2719 32.0498 17.0919 30.6101C17.0319 29.9503 17.0319 29.2904 17.0919 28.6306C17.0919 28.4506 17.0919 28.2107 17.3919 28.2107C17.9917 28.2707 18.5916 28.3307 19.1914 28.4506C19.3114 28.5706 19.2514 28.7506 19.1914 28.9305C19.0115 30.2502 19.2514 31.4499 19.9713 32.4697C20.871 33.7894 22.1308 34.5692 23.7504 34.6892C23.8703 34.6892 23.9903 34.6292 24.1103 34.7492Z" fill="#80A9FE"/>
</g>
<defs>
<clipPath id="clip0_13289_9097">
<rect width="32.2125" height="34.6119" fill="white" transform="translate(7.97406 8.29541)"/>
</clipPath>
</defs>
</svg>
