<svg width="282" height="282" viewBox="0 0 282 282" fill="none" xmlns="http://www.w3.org/2000/svg">
<mask id="mask0_2254_134260" style="mask-type:alpha" maskUnits="userSpaceOnUse" x="39" y="39" width="203" height="203">
<circle cx="140.833" cy="140.835" r="99" transform="rotate(-35.3941 140.833 140.835)" fill="#FDDB73" stroke="#ED3768" stroke-width="4"/>
</mask>
<g mask="url(#mask0_2254_134260)">
<line x1="261.768" y1="488.877" x2="-59.9758" y2="36.0404" stroke="#F95454" stroke-width="4"/>
<line x1="360.573" y1="418.674" x2="38.8289" y2="-34.1627" stroke="#F95454" stroke-width="4"/>
<line x1="294.706" y1="465.479" x2="-27.0383" y2="12.642" stroke="#F95454" stroke-width="4"/>
<line x1="393.502" y1="395.276" x2="71.7585" y2="-57.5611" stroke="#F95454" stroke-width="4"/>
<line x1="327.635" y1="442.08" x2="5.89136" y2="-10.7565" stroke="#F95454" stroke-width="4"/>
<line x1="426.44" y1="371.877" x2="104.696" y2="-80.9596" stroke="#F95454" stroke-width="4"/>
<line x1="245.151" y1="500.362" x2="-76.593" y2="47.5248" stroke="#F95454" stroke-width="4"/>
<line x1="343.948" y1="430.158" x2="22.2039" y2="-22.6783" stroke="#F95454" stroke-width="4"/>
<line x1="278.081" y1="476.963" x2="-43.6633" y2="24.1264" stroke="#F95454" stroke-width="4"/>
<line x1="376.885" y1="406.76" x2="55.1414" y2="-46.0768" stroke="#F95454" stroke-width="4"/>
<line x1="311.018" y1="453.565" x2="-10.7258" y2="0.727914" stroke="#F95454" stroke-width="4"/>
<line x1="409.815" y1="383.362" x2="88.071" y2="-69.4752" stroke="#F95454" stroke-width="4"/>
</g>
</svg>
