<svg width="282" height="282" viewBox="0 0 282 282" fill="none" xmlns="http://www.w3.org/2000/svg">
<mask id="mask0_2975_20116" style="mask-type:alpha" maskUnits="userSpaceOnUse" x="39" y="39" width="203" height="203">
<circle cx="140.833" cy="140.833" r="99" transform="rotate(-35.3941 140.833 140.833)" fill="#FAB317" stroke="#6AD26A" stroke-width="4"/>
</mask>
<g mask="url(#mask0_2975_20116)">
<line x1="261.768" y1="488.875" x2="-59.9758" y2="36.038" stroke="#FAB317" stroke-width="4"/>
<line x1="360.569" y1="418.675" x2="38.8249" y2="-34.1612" stroke="#FAB317" stroke-width="4"/>
<line x1="294.702" y1="465.475" x2="-27.0422" y2="12.6381" stroke="#FAB317" stroke-width="4"/>
<line x1="393.502" y1="395.276" x2="71.7585" y2="-57.5607" stroke="#FAB317" stroke-width="4"/>
<line x1="327.635" y1="442.075" x2="5.89136" y2="-10.7613" stroke="#FAB317" stroke-width="4"/>
<line x1="426.436" y1="371.877" x2="104.692" y2="-80.9601" stroke="#FAB317" stroke-width="4"/>
<line x1="245.148" y1="500.359" x2="-76.5959" y2="47.5221" stroke="#FAB317" stroke-width="4"/>
<line x1="343.949" y1="430.16" x2="22.2048" y2="-22.6766" stroke="#FAB317" stroke-width="4"/>
<line x1="278.082" y1="476.959" x2="-43.6624" y2="24.1227" stroke="#FAB317" stroke-width="4"/>
<line x1="376.882" y1="406.76" x2="55.1384" y2="-46.0763" stroke="#FAB317" stroke-width="4"/>
<line x1="311.015" y1="453.56" x2="-10.7289" y2="0.723031" stroke="#FAB317" stroke-width="4"/>
<line x1="409.816" y1="383.361" x2="88.0719" y2="-69.4757" stroke="#FAB317" stroke-width="4"/>
</g>
</svg>
