<svg width="48" height="48" viewBox="0 0 48 48" fill="none" xmlns="http://www.w3.org/2000/svg">
<rect width="48" height="48" rx="24" fill="#FEF6D0"/>
<g clip-path="url(#clip0_13287_2182)">
<path d="M14.7012 10.3584C20.4605 10.3584 26.2198 10.3584 31.9191 10.3584C32.519 10.4784 32.759 10.8383 32.819 11.4983C32.819 12.2782 32.819 13.1181 32.819 13.898C32.819 17.5575 32.819 21.2771 32.819 24.9366C32.819 25.1166 32.879 25.3565 32.699 25.5365C32.579 25.6565 32.399 25.6565 32.279 25.6565C28.9794 25.6565 25.6799 25.6565 22.3803 25.6565C22.2603 25.6565 22.0803 25.6565 21.9603 25.5965C21.9003 25.5365 21.8403 25.4765 21.8403 25.4165C21.8403 24.7566 21.7803 24.0967 21.8403 23.4968C21.9603 23.2568 22.0803 23.4368 22.2603 23.4968C22.8602 23.8567 23.2802 23.8567 23.6401 23.4368C23.7601 23.3168 23.8201 23.1968 23.8801 23.0168C24.18 22.2369 24.48 21.517 24.72 20.7371C24.84 20.4372 24.9599 20.1372 25.0799 19.8972C25.1399 19.7772 25.1999 19.5973 25.3199 19.5373C25.4399 19.4773 25.6199 19.5373 25.7399 19.5373C27.5396 19.5373 29.3394 19.5373 31.1392 19.5373C31.2592 19.5373 31.3192 19.5373 31.4391 19.5373C31.7391 19.4773 31.9191 19.3573 31.9191 19.0573C31.9191 18.9373 31.9191 18.8174 31.9191 18.7574C31.9191 17.0176 31.9191 15.2778 31.9191 13.538C31.9191 13.418 31.9191 13.298 31.9191 13.238C31.8591 12.8781 31.7391 12.7581 31.3792 12.7581C30.9592 12.7581 30.5992 12.7581 30.1793 12.7581C28.0196 12.7581 25.8598 12.7581 23.7601 12.7581C23.6401 12.7581 23.4601 12.7581 23.3401 12.8181C23.1002 12.9381 23.0402 13.1181 23.0402 13.358C23.0402 13.958 23.0402 14.6179 23.0402 15.2178C23.0402 16.4177 23.0402 17.6775 23.0402 18.8773C23.0402 19.0573 23.0402 19.2973 23.1602 19.4773C23.2802 19.7772 23.0402 20.0172 22.9802 20.3172C22.9202 20.4971 22.8602 20.6171 22.8002 20.7971C22.6202 21.2771 22.2603 21.397 21.8403 21.1571C21.4204 20.9171 21.0604 20.6771 20.7005 20.3772C20.3405 20.1372 19.9806 19.9572 19.5606 19.8372C19.4406 19.8372 19.3206 19.8372 19.2007 19.7172C19.2007 19.5373 19.3806 19.5373 19.5006 19.5373C20.7605 19.1173 21.3004 17.7375 20.5805 16.5976C20.2205 15.9977 19.2607 15.4578 18.3608 15.8177C17.1009 16.2977 16.741 17.6175 17.2809 18.6374C17.5209 19.0573 17.8808 19.3573 18.3608 19.5373C18.4807 19.5973 18.6007 19.5973 18.6607 19.6573C18.6007 19.8372 18.4807 19.7772 18.3608 19.8372C17.9408 19.9572 17.5209 20.0772 17.1609 20.3772C16.261 21.0371 15.9611 21.937 15.9611 23.0168C15.9611 23.7967 15.9611 24.5766 15.9611 25.3565C15.9611 25.5365 15.9611 25.6565 15.8411 25.7765C15.3611 25.8965 14.8212 25.8365 14.3413 25.8365C14.1613 25.8365 13.9813 25.8365 13.8013 25.7765C13.7413 25.6565 13.7413 25.5365 13.7413 25.3565C13.7413 21.817 13.7413 18.3374 13.7413 14.7979C13.7413 14.7379 13.7413 14.6779 13.7413 14.6179C13.7413 13.958 13.7413 13.298 13.7413 12.6381C13.7413 12.3382 13.7413 12.0382 13.7413 11.7382C13.7413 11.4383 13.8013 11.1983 13.9813 10.9583C14.1613 10.4784 14.4013 10.4184 14.7012 10.3584Z" fill="#4FAAF6"/>
<path d="M8.8219 32.9755C8.8219 32.4955 8.8219 32.0756 8.8219 31.5956C8.88189 31.5356 9.00188 31.4756 9.12186 31.4756C9.72179 31.4756 10.2617 31.4756 10.8616 31.4756C11.8815 31.4756 12.9014 31.4756 13.8613 31.4756C15.1211 31.4156 16.441 31.4756 17.7008 31.4756C18.1208 31.4756 18.5407 31.4756 18.9606 31.4756C19.0806 31.4756 19.2006 31.4756 19.3206 31.4756C23.5801 31.4756 27.8396 31.4756 32.099 31.4756C32.279 31.4756 32.519 31.4756 32.699 31.4756C32.8789 31.5356 32.9989 31.5356 33.1789 31.5356C34.5587 31.5356 35.9985 31.5356 37.3784 31.5356C37.8583 31.5356 37.8583 31.5956 37.9183 32.0156C37.9183 32.1955 37.9183 32.4355 37.9183 32.6155C37.9183 33.5154 37.3784 34.2353 36.4785 34.5353C36.8384 34.4753 37.1984 34.3553 37.5584 34.5953C37.4984 34.7752 37.3184 34.7152 37.1984 34.7152C36.8984 34.7152 36.5985 34.7152 36.2985 34.7152C33.6588 34.7152 31.0192 34.7152 28.3795 34.7152C28.3195 34.7152 28.1995 34.7152 28.1395 34.7152C27.8396 34.7152 27.7796 34.7752 27.7796 35.0752C27.7796 36.0951 27.7796 37.1149 27.7796 38.1348C27.7796 38.3148 27.7796 38.4948 27.7196 38.6148C27.7196 38.6747 27.6596 38.6747 27.5996 38.6148C27.4796 38.4948 27.5396 38.3148 27.5396 38.1348C27.5396 37.1149 27.5396 36.0951 27.5396 35.1352C27.5396 34.7152 27.5396 34.7152 27.1196 34.7152C25.1399 34.7152 23.1601 34.7152 21.1804 34.7152C20.7604 34.7152 20.7604 34.7152 20.7604 35.1352C20.7604 36.1551 20.7604 37.1749 20.7604 38.1348C20.7604 38.3148 20.7604 38.4348 20.7004 38.6148C20.7004 38.6747 20.6404 38.6747 20.5804 38.6747C20.4605 38.5548 20.4605 38.3748 20.4605 38.1948C20.4605 37.2349 20.4605 36.2151 20.4605 35.2552C20.4605 34.7152 20.4605 34.7152 19.9205 34.7152C17.1009 34.7152 14.2812 34.7152 11.5216 34.7152C11.2816 34.7152 11.0416 34.7152 10.8616 34.6552C9.6018 34.5953 9.06187 34.0553 8.8219 32.9755Z" fill="#E8EEFE"/>
<path d="M10.8616 31.5958C10.2017 31.5958 9.54181 31.5958 8.8219 31.5958C8.8219 25.7765 8.8219 19.8972 8.8219 14.0779C9.00188 12.9981 9.78178 12.3381 10.9816 12.3381C11.8215 12.3381 12.6614 12.3381 13.4413 12.3381C13.5613 12.3381 13.7413 12.3381 13.8613 12.4581C13.8613 13.118 13.8613 13.778 13.8613 14.4979C13.7413 14.4979 13.6213 14.4979 13.4413 14.4979C12.9614 14.4979 12.5414 14.4979 12.0615 14.4979C11.2816 14.4979 10.9216 14.8578 10.9216 15.6377C10.9216 19.1173 10.9216 22.5969 10.9216 26.0764C10.9216 27.7562 10.9216 29.376 10.9216 31.0558C10.9216 31.2358 10.9816 31.4158 10.8616 31.5958Z" fill="#3C589F"/>
<path d="M39.1782 14.0778C39.1782 19.8971 39.1782 25.7763 39.1782 31.5956C39.1182 31.6556 38.9982 31.7156 38.8782 31.7156C38.5182 31.7156 38.0983 31.7756 37.7383 31.6556C37.6183 31.4756 37.6183 31.2957 37.6183 31.1157C37.6183 29.3759 37.6183 27.6361 37.6183 25.8963C37.6183 22.1168 37.6183 18.3972 37.6183 14.6177C37.6183 13.6578 37.1984 12.9979 36.3585 12.578C36.2985 12.518 36.1785 12.518 36.1185 12.458C36.1185 12.338 36.2385 12.338 36.2985 12.338C36.7185 12.338 37.1384 12.278 37.6183 12.398C38.4582 12.578 39.0582 13.1179 39.1782 14.0778Z" fill="#2A428B"/>
<path d="M27.5395 38.6747C28.1395 38.6747 28.7394 38.6747 29.3993 38.6747C29.6993 38.7947 29.7593 38.9747 29.7593 39.2747C29.7593 39.5746 29.7593 39.8146 29.7593 40.1146C29.7593 40.4145 29.6393 40.6545 29.3393 40.7145C25.3198 40.7145 21.3003 40.7145 17.2808 40.7145C17.0408 40.5945 16.9808 40.3545 16.9808 40.0546C16.9808 39.7546 16.9808 39.4546 16.9808 39.2147C16.9808 38.8547 17.1608 38.7347 17.5208 38.7347C18.4806 38.7347 19.5005 38.7347 20.4604 38.7347H20.5204C20.5804 38.6747 20.7004 38.6147 20.8204 38.6147C21.3603 38.6147 21.9602 38.6147 22.5002 38.6147C22.8001 38.6147 23.1001 38.6147 23.4 38.6147C23.82 38.6147 24.1799 38.6147 24.5999 38.6147C24.8999 38.6147 25.1998 38.6147 25.4998 38.6147C26.0397 38.6147 26.6396 38.6147 27.1796 38.6147C27.2996 38.6147 27.4195 38.6147 27.4795 38.7347C27.4795 38.6747 27.5395 38.6747 27.5395 38.6747Z" fill="#E8EEFE"/>
<path d="M32.699 25.5363C32.699 20.9169 32.699 16.2975 32.699 11.6781C32.699 11.0781 32.459 10.6582 31.9191 10.4182C32.399 10.4182 32.8789 10.4182 33.3589 10.4182C33.8988 10.5382 34.1988 10.8382 34.1988 11.4381C34.1988 11.798 34.1988 12.098 34.1988 12.458C34.1988 13.1179 34.1988 13.7778 34.1988 14.4377C34.1988 14.4977 34.1988 14.4977 34.1988 14.5577C34.1988 14.6777 34.1988 14.7377 34.1988 14.8577C34.1988 18.2772 34.1988 21.6368 34.1988 25.0564C34.1988 25.2364 34.1988 25.4164 34.1388 25.5963C34.0788 25.6563 34.0188 25.7163 33.8988 25.7163C33.5389 25.6563 33.1189 25.7163 32.699 25.5363Z" fill="#1885E9"/>
<path d="M37.7384 31.5957C38.2183 31.5957 38.6982 31.5957 39.1782 31.5957C39.1782 32.0757 39.1782 32.5556 39.1782 33.0356C38.9982 33.6955 38.5782 34.2354 37.9183 34.5354C37.7384 34.5954 37.6184 34.6554 37.4384 34.6554C37.0784 34.6554 36.7185 34.6554 36.2985 34.6554C36.5385 34.4754 36.8385 34.4154 37.0184 34.2354C37.5584 33.7555 37.7983 33.1555 37.7384 32.4356C37.6784 31.7157 37.7384 31.7157 37.0184 31.7157C35.6986 31.7157 34.3788 31.7157 33.0589 31.7157C32.9389 31.7157 32.819 31.7757 32.699 31.6557C32.699 31.6557 32.699 31.6557 32.759 31.5957C33.2389 31.4758 33.6589 31.5357 34.1388 31.5357C34.6787 31.5357 35.2187 31.5357 35.6986 31.5357C36.1186 31.5357 36.5985 31.5357 37.0184 31.5357C37.0784 31.5357 37.0784 31.5357 37.1384 31.5357C37.3184 31.4758 37.5584 31.4758 37.7384 31.5957Z" fill="#D2DBFA"/>
<path d="M29.3394 40.7149C29.5794 40.5349 29.7594 40.2949 29.6994 39.9949C29.6994 39.8149 29.6994 39.6349 29.6994 39.5149C29.6994 39.2149 29.6394 38.9149 29.3994 38.7349C29.7594 38.7349 30.1794 38.7349 30.5394 38.7349C30.8994 38.7349 31.1394 38.9749 31.1394 39.2749C31.1394 39.5749 31.1394 39.8749 31.1394 40.1749C31.1394 40.4149 30.9594 40.5949 30.7794 40.7149C30.2394 40.7149 29.8194 40.7149 29.3394 40.7149Z" fill="#D2DBFA"/>
<path d="M32.699 31.5958C28.2595 31.5958 23.8201 31.5958 19.3806 31.5958C19.2606 31.5958 19.0807 31.5958 18.9607 31.5958C18.8407 31.4758 18.8407 31.3558 18.8407 31.1758C18.8407 29.4361 18.8407 27.6963 18.8407 25.8965C18.8407 25.7765 18.8407 25.5965 18.9007 25.4765C18.9607 25.4166 19.0807 25.3566 19.2007 25.3566C19.8006 25.3566 20.4005 25.3566 21.0004 25.3566C21.3004 25.3566 21.6603 25.2366 21.9603 25.4166C22.8002 25.4166 23.7001 25.4166 24.54 25.4166C27.2397 25.4166 29.9393 25.4166 32.639 25.4166C32.819 25.6565 32.819 25.8365 32.819 25.9565C32.819 27.6963 32.819 29.4361 32.819 31.1758C32.819 31.2958 32.819 31.4758 32.699 31.5958Z" fill="#D2DBFA"/>
<path d="M10.8617 31.5956C10.8617 26.2563 10.8617 20.9169 10.8617 15.5776C10.8617 14.8577 11.2816 14.4377 11.9416 14.4377C12.6015 14.4377 13.2014 14.4377 13.8613 14.4377C13.8613 18.0373 13.8613 21.5769 13.8613 25.1764C13.8613 25.2964 13.8613 25.4764 13.8613 25.5964C13.9813 25.7164 13.9213 25.8363 13.9213 26.0163C13.9213 27.7561 13.9213 29.4959 13.9213 31.2357C13.9213 31.3557 13.9213 31.5356 13.8013 31.6556C12.8414 31.5956 11.8216 31.5956 10.8617 31.5956Z" fill="#9AD7F8"/>
<path d="M23.1601 19.3572C23.0401 19.2372 22.9801 19.1172 22.9801 18.9373C22.9801 16.9575 22.9801 14.9777 22.9801 12.998C22.9801 12.758 23.0401 12.578 23.3401 12.4581C23.46 12.3981 23.52 12.4581 23.64 12.4581C25.7998 12.4581 27.9595 12.4581 30.1192 12.4581C30.5992 12.4581 30.7791 12.578 30.7791 13.118C30.7791 14.3778 30.7791 15.5777 30.7791 16.8375C30.7791 17.4374 30.7791 18.0974 30.7791 18.6973C30.7791 18.8173 30.7791 18.9973 30.7191 19.1172C30.6592 19.4172 30.5392 19.5372 30.1792 19.5372C29.8193 19.5372 29.4593 19.5372 29.0394 19.5372C27.7795 19.5372 26.5797 19.5372 25.3198 19.5372C25.1398 19.4772 25.1998 19.3572 25.2598 19.2372C25.3198 19.0572 25.4398 18.8773 25.3198 18.6373C25.3198 18.4573 25.3198 18.3373 25.3798 18.1574C25.6798 17.0775 25.9197 15.9376 26.2197 14.8578C26.2197 14.7378 26.2797 14.6778 26.2797 14.5578C26.2797 14.3778 26.2197 14.2578 25.9797 14.1978C25.7998 14.1379 25.6798 14.1978 25.5598 14.3778C25.6198 14.4378 25.6198 14.5578 25.5598 14.6778C25.3198 15.5777 25.0798 16.4776 24.8999 17.3775C24.8399 17.4974 24.8399 17.6774 24.7199 17.7974C24.5999 17.8574 24.4199 17.8574 24.2999 17.8574C24.12 17.9174 24 17.9774 23.88 18.0974C23.58 18.3373 23.58 18.7573 23.4001 19.0572C23.3401 19.1772 23.3401 19.2972 23.1601 19.3572Z" fill="#E8EEFE"/>
<path d="M13.8613 31.5957C13.8613 29.556 13.8613 27.5762 13.8613 25.5365C14.5212 25.5365 15.1812 25.5365 15.9011 25.5365C16.0211 25.4165 16.141 25.4165 16.261 25.4165C17.0409 25.4165 17.7608 25.4165 18.5408 25.4165C18.6607 25.4165 18.8407 25.4165 18.9607 25.5365C18.9607 27.5162 18.9607 29.556 18.9607 31.5357C18.5408 31.5357 18.1808 31.5357 17.7608 31.5357C16.441 31.5957 15.1812 31.5957 13.8613 31.5957Z" fill="#F4EA37"/>
<path d="M18.9606 25.5364C18.0607 25.5364 17.1608 25.5364 16.2009 25.5364C16.081 25.5364 15.961 25.5364 15.901 25.5364C15.901 24.3965 15.841 23.3167 15.961 22.1768C16.021 21.2769 16.4409 20.617 17.2208 20.0771C17.3408 20.0171 17.4008 20.1371 17.5208 20.197C17.8207 20.437 18.0607 20.617 18.3607 20.857C18.7806 21.2169 19.2006 21.2169 19.6205 20.857C19.9205 20.617 20.2205 20.377 20.4604 20.197C20.5804 20.1371 20.6404 20.0171 20.7604 20.0771C21.1203 20.317 21.4803 20.557 21.9002 20.797C22.3202 21.0969 22.6202 20.9769 22.8601 20.497C22.9201 20.377 22.9801 20.197 23.0401 20.0771C23.3401 20.0171 23.52 20.0771 23.7 20.317C23.7 20.437 23.7 20.557 23.64 20.677C23.3401 21.5169 23.0401 22.3568 22.6801 23.1367C22.6202 23.3167 22.5602 23.4966 22.3802 23.4966C22.2602 23.4366 22.2002 23.3767 22.0802 23.3167C21.9602 23.1967 21.9602 23.0167 21.9602 22.8967C21.9602 22.7167 21.9602 22.5967 21.9002 22.4168C21.8403 22.2968 21.7803 22.1768 21.6603 22.1768C21.4803 22.1768 21.4203 22.2368 21.3003 22.3568C21.1803 22.5368 21.1803 22.7167 21.1803 22.8967C21.1803 23.6166 21.1803 24.3965 21.1803 25.1164C21.1803 25.2364 21.1803 25.4164 21.0603 25.5364C20.3404 25.5364 19.6205 25.5364 18.9606 25.5364Z" fill="#4ED3DD"/>
<path d="M25.3198 19.4171C26.8797 19.4171 28.4995 19.4171 30.0593 19.4171C30.4792 19.4171 30.6592 19.2971 30.6592 18.8172C30.6592 17.6173 30.6592 16.4175 30.6592 15.2176C30.6592 14.4977 30.6592 13.7178 30.6592 12.9979C30.6592 12.5779 30.4792 12.4579 30.1193 12.4579C27.8395 12.4579 25.5598 12.4579 23.3401 12.4579C23.4601 12.3979 23.5201 12.3979 23.6401 12.3979C26.2197 12.3979 28.8594 12.3979 31.4391 12.3979C31.859 12.3979 32.099 12.5779 32.099 12.9979C32.099 14.9176 32.099 16.8974 32.099 18.8172C32.099 19.2971 31.859 19.4771 31.3791 19.4771C29.3993 19.4771 27.3596 19.4771 25.3198 19.4171Z" fill="#D2DBFA"/>
<path d="M18.3009 19.3576C17.4009 18.9976 16.9209 18.3376 16.9209 17.4376C16.9209 16.5376 17.4609 15.8776 18.3009 15.5776C19.0809 15.8176 19.4409 16.3576 19.6209 17.1376C19.8009 17.9776 19.3809 18.8776 18.6009 19.2976C18.4809 19.2976 18.4209 19.3576 18.3009 19.3576Z" fill="#FBAC6D"/>
<path d="M18.3008 19.3578C18.6608 19.1178 19.0208 18.8778 19.2608 18.5178C19.8608 17.5578 19.5608 16.1778 18.5408 15.6978C18.4208 15.6378 18.3608 15.6378 18.3008 15.5178C19.3208 15.1578 20.4608 15.6978 20.8208 16.7778C21.1808 17.8578 20.6408 18.9978 19.5608 19.3578C19.4408 19.4178 19.3208 19.4178 19.1408 19.4778C18.9608 19.6578 18.7808 19.5978 18.6008 19.4778C18.5408 19.4178 18.4208 19.4178 18.3008 19.3578Z" fill="#FC985B"/>
<path d="M22.2603 23.497C22.4403 23.257 22.5003 22.897 22.6203 22.537C22.8603 21.757 23.0403 21.037 23.2803 20.257C23.2803 20.257 23.3403 20.257 23.3403 20.197C23.6403 20.317 24.0003 20.377 24.2403 20.617C24.0003 21.457 23.7603 22.297 23.5203 23.137C23.3403 23.737 22.7403 24.097 22.2603 23.497Z" fill="#4ED3DD"/>
<path d="M18.6609 19.4773C18.8409 19.4773 19.0209 19.4773 19.2009 19.4773C19.7409 19.5373 20.2809 19.7173 20.7009 20.0773C20.3409 20.3773 19.9809 20.6773 19.6209 20.9173C19.1409 21.2773 18.6609 21.2773 18.2409 20.9173C17.8809 20.6173 17.5209 20.3773 17.1609 20.0773C17.5809 19.7173 18.1209 19.5973 18.6609 19.4773Z" fill="#E8EEFE"/>
<path d="M21.4803 25.5368C21.4803 24.7568 21.4803 24.0368 21.4803 23.2568C21.4803 23.1968 21.4803 23.0768 21.4803 23.0168C21.5403 22.8368 21.6603 22.7168 21.8403 22.7168C22.0203 22.7168 22.1403 22.8968 22.1403 23.0768C22.1403 23.3168 22.1403 23.4968 22.1403 23.7368C22.1403 24.3368 22.1403 24.9368 22.1403 25.4768C21.9603 25.5368 21.7203 25.5368 21.4803 25.5368Z" fill="#4ED3DD"/>
<path d="M24.8401 20.7373C24.4201 20.6173 24.0601 20.4973 23.6401 20.3173C23.5201 20.1973 23.5801 20.0773 23.6401 19.9573C23.7601 19.7173 23.8201 19.4773 23.9401 19.2373C24.0601 18.9373 24.1201 18.5773 23.8801 18.2773C23.8201 18.2173 23.7601 18.0973 23.8201 18.0373C24.0601 17.7373 24.3601 17.7373 24.7201 17.7373C24.8401 17.9173 24.7201 18.0373 24.7201 18.2173C24.7201 18.3373 24.6601 18.5173 24.7201 18.6373C24.8401 18.8173 25.0801 18.8773 25.2601 18.6973C25.3201 18.6373 25.3801 18.5173 25.5001 18.5173C25.6201 18.6973 25.5001 18.9373 25.4401 19.1173C25.4401 19.2373 25.3801 19.2973 25.3201 19.4173C25.3201 19.4173 25.3201 19.4773 25.2601 19.4773C25.1401 19.8973 24.9601 20.3173 24.8401 20.7373Z" fill="#FC985B"/>
<path d="M23.8201 18.0374C24.1201 18.4574 24.1801 18.8774 23.9401 19.3574C23.8201 19.6574 23.6401 19.9574 23.6401 20.3174C23.4601 20.1974 23.2201 20.1374 22.9801 20.0774C23.0401 19.8374 23.1601 19.5974 23.2201 19.3574C23.3401 19.0574 23.4601 18.7574 23.5801 18.5174C23.5801 18.2774 23.6401 18.1574 23.8201 18.0374Z" fill="#FBAC6D"/>
<path d="M22.5002 38.6747C21.8403 38.6747 21.1804 38.6747 20.4604 38.6747C20.4604 37.4149 20.4604 36.215 20.4604 34.9552C20.4604 34.7152 20.5204 34.5952 20.7604 34.5952C22.8602 34.5952 25.0199 34.5952 27.1196 34.5952C27.4196 34.5952 27.4196 34.7152 27.4196 34.9552C27.4196 36.215 27.4196 37.4149 27.4196 38.6747C26.7597 38.6747 26.0998 38.6747 25.3798 38.6747C25.2599 38.5547 25.3198 38.4347 25.2599 38.3148C25.2599 37.9548 25.2599 37.5948 25.2599 37.2349C25.2599 36.635 24.8999 36.275 24.3 36.275C24 36.275 23.7 36.275 23.4601 36.275C22.8602 36.275 22.5602 36.635 22.5002 37.2349C22.5002 37.5948 22.5002 37.9548 22.5002 38.3148C22.6202 38.4347 22.6202 38.5547 22.5002 38.6747Z" fill="#D2DBFA"/>
<path d="M37.7383 31.5956C37.5584 31.5956 37.3184 31.5956 37.1384 31.5956C37.0184 31.4157 37.0784 31.2357 37.0784 31.0557C37.0784 25.9563 37.0784 20.857 37.0784 15.8176C37.0784 15.6976 37.0784 15.5176 37.0784 15.3976C36.9584 14.7977 36.5985 14.5577 35.9986 14.5577C35.5186 14.5577 35.0387 14.5577 34.4987 14.5577C34.3788 14.5577 34.2588 14.5577 34.1388 14.4978C34.1388 13.8378 34.1388 13.1779 34.1388 12.458C34.7987 12.458 35.4586 12.458 36.1785 12.458C36.6585 12.638 37.0784 12.818 37.3784 13.2379C37.6184 13.5979 37.7983 13.9578 37.7983 14.4378C37.7383 20.1371 37.7383 25.8364 37.7383 31.5956Z" fill="#3C589F"/>
<path d="M22.5002 38.675C22.5002 38.195 22.5002 37.715 22.5002 37.235C22.5002 36.575 22.9202 36.155 23.5802 36.155C23.8802 36.155 24.1802 36.155 24.4802 36.155C25.0802 36.155 25.5002 36.575 25.5002 37.175C25.5002 37.655 25.5002 38.135 25.5002 38.675C25.2002 38.675 24.9002 38.675 24.6002 38.675C24.4202 38.615 24.4202 38.495 24.4202 38.315C24.4202 38.015 24.4202 37.775 24.4202 37.475C24.4202 37.295 24.3602 37.175 24.1202 37.175C23.5202 37.115 23.5202 37.175 23.5202 37.715C23.5202 37.895 23.5202 38.135 23.5202 38.315C23.5202 38.435 23.5202 38.555 23.3402 38.615C23.1002 38.675 22.8002 38.675 22.5002 38.675Z" fill="#BDC7F6"/>
<path d="M23.4001 38.6749C23.5201 38.2549 23.4601 37.8949 23.4601 37.4749C23.4601 37.0549 23.4601 37.0549 23.8801 37.0549C24.5401 37.0549 24.5401 37.0549 24.5401 37.7149C24.5401 38.0149 24.4801 38.3149 24.6001 38.6749C24.1801 38.6749 23.7601 38.6749 23.4001 38.6749Z" fill="#D2DBFA"/>
<path d="M35.6986 31.5957C35.1587 31.5957 34.6187 31.5957 34.0788 31.5957C34.0188 31.4757 34.0188 31.2957 34.0188 31.1758C34.0188 29.436 34.0188 27.6962 34.0188 25.9564C34.0188 25.8364 34.0188 25.6564 34.1388 25.5364C34.1388 21.9369 34.1388 18.3373 34.1388 14.6778C34.1388 14.6178 34.1388 14.4978 34.1388 14.4378C34.4387 14.3778 34.7387 14.3778 35.0987 14.4378C35.5186 14.4978 35.6986 14.7978 35.8186 15.1577C35.8186 15.3377 35.8186 15.5177 35.8186 15.6977C35.8186 20.797 35.8186 25.8964 35.8186 31.0558C35.8186 31.2357 35.8786 31.4157 35.6986 31.5957Z" fill="#9AD7F8"/>
<path d="M35.6986 31.5956C35.6986 26.2563 35.6986 20.9169 35.6986 15.5776C35.6986 15.2776 35.6386 15.0377 35.4586 14.7977C35.2787 14.5577 35.0387 14.4377 34.7387 14.4977C34.5587 14.4977 34.3188 14.4977 34.1388 14.4977V14.4377C34.7987 14.4377 35.4586 14.4377 36.0586 14.4377C36.6585 14.4377 37.0184 14.7377 37.1384 15.3376C37.0784 15.4576 37.1384 15.5776 37.1384 15.6976C37.1384 20.9169 37.1384 26.0763 37.1384 31.2957C37.1384 31.4156 37.1384 31.5356 37.1384 31.6556C36.5985 31.5956 36.1785 31.5956 35.6986 31.5956Z" fill="#73C2F8"/>
<path d="M34.1388 25.5364C34.1388 27.5761 34.1388 29.5559 34.1388 31.5956C33.6589 31.5956 33.1789 31.5956 32.699 31.5956C32.699 29.5559 32.699 27.5761 32.699 25.5364C33.1789 25.5364 33.6589 25.5364 34.1388 25.5364Z" fill="#BDC7F6"/>
<path d="M37.0784 31.5956C37.0784 26.3163 37.0784 20.977 37.0784 15.6976C37.0784 15.5776 37.0184 15.4576 37.1383 15.3376C37.1383 15.4576 37.1383 15.6376 37.1383 15.7576C37.1383 21.0369 37.1383 26.3163 37.1383 31.6556C37.1383 31.5956 37.0784 31.5956 37.0784 31.5956Z" fill="#76C3F7"/>
<path d="M23.94 28.2362C24 28.1162 24.12 28.1162 24.18 28.1162C26.7596 28.1162 29.3393 28.1162 31.919 28.1162C32.159 28.1162 32.339 28.1162 32.4589 28.3562C32.6389 28.5962 32.4589 28.9561 32.219 29.0161C32.159 29.0161 32.039 29.0161 31.979 29.0161C29.3393 29.0161 26.6997 29.0161 24.06 29.0161C24 29.0161 23.94 29.0161 23.88 29.0161C23.88 28.7761 23.88 28.4762 23.94 28.2362Z" fill="#3434F4"/>
<path d="M23.9403 28.2362C24.0603 28.5362 24.0603 28.7762 23.8803 29.0762C23.4603 29.7962 22.5603 29.7962 22.0803 29.0762C21.8403 28.8362 21.8403 28.5362 22.0203 28.2362C22.2003 27.8162 22.5003 27.5762 22.9203 27.5762C23.4003 27.5762 23.7603 27.7562 23.9403 28.2362Z" fill="#E8EEFE"/>
<path d="M22.0204 28.2361C21.9004 28.5361 21.9004 28.7761 22.0804 29.0761C21.7204 29.0761 21.3604 29.0761 20.9404 29.0761C20.7004 29.0761 20.5204 28.8961 20.4604 28.6561C20.4604 28.4161 20.5804 28.2361 20.8204 28.1761C21.1804 28.1161 21.5404 28.1761 21.9004 28.1761C22.0204 28.1161 22.0204 28.1761 22.0204 28.2361Z" fill="#3434F4"/>
<path d="M25.4398 18.5174C25.2599 18.8773 25.0799 18.9973 24.7799 18.8773C24.5399 18.7573 24.48 18.5774 24.5399 18.2774C24.5999 18.1574 24.5999 17.9774 24.6599 17.8574C24.6599 17.7975 24.6599 17.7375 24.6599 17.7375C24.9599 16.6576 25.1999 15.5177 25.4998 14.4379C25.5598 14.2579 25.6198 14.0779 25.7998 14.0179C25.9798 13.9579 26.1597 13.9579 26.2797 14.0779C26.4597 14.1979 26.4597 14.3779 26.3997 14.6178C26.1597 15.6377 25.8598 16.6576 25.6198 17.6775C25.6198 17.9774 25.5598 18.2774 25.4398 18.5174Z" fill="#3C589F"/>
<path d="M16.4411 29.016C16.3811 29.016 16.3211 29.016 16.2611 29.016C15.9611 29.016 15.7811 28.836 15.7211 28.596C15.7211 28.356 15.8411 28.176 16.1411 28.116C16.3211 28.056 16.5611 28.056 16.7411 28.116C16.9811 28.176 17.1611 28.416 17.1611 28.656C17.1011 28.896 16.9211 29.016 16.6811 29.076C16.5611 29.016 16.5011 29.016 16.4411 29.016Z" fill="#BABA04"/>
</g>
<defs>
<clipPath id="clip0_13287_2182">
<rect width="30.3563" height="31.0762" fill="white" transform="translate(8.8219 9.63843)"/>
</clipPath>
</defs>
</svg>
