<svg width="49" height="49" viewBox="0 0 49 49" fill="none" xmlns="http://www.w3.org/2000/svg">
<rect x="0.540161" y="0.806641" width="48" height="48" rx="24" fill="#E9F6FD"/>
<g clip-path="url(#clip0_13287_8793)">
<path d="M10.712 24.518C11.132 23.9181 11.6119 23.3781 12.0319 22.7782C13.2917 21.2184 14.5515 19.6586 15.8113 18.0388C16.1113 17.6789 16.3513 17.6189 16.7112 17.9189C17.3711 18.3388 18.031 18.7587 18.691 19.1787C19.2909 19.5986 19.9508 19.8986 20.6707 20.0786C21.3306 20.1986 21.9305 20.4385 22.5904 20.6185C22.7104 20.6785 22.8304 20.6785 22.9504 20.6185C23.7903 20.3785 24.6901 20.1386 25.53 19.8986C25.77 19.8386 25.95 19.7786 26.1899 19.7786C27.2698 19.7786 28.4096 19.7786 29.4895 19.7786C29.7295 19.7786 29.9094 19.7186 30.0894 19.5986C30.9293 19.0587 31.8292 18.5188 32.6691 17.9789C33.089 17.7389 33.329 17.7389 33.6289 18.1588C35.1287 20.0786 36.5685 21.9983 38.0683 23.9181C38.3683 24.338 38.3683 24.578 37.9483 24.8779C37.1684 25.5378 36.3886 26.1977 35.6087 26.9176C35.4887 27.0376 35.4287 27.0976 35.3687 27.2776C34.8288 28.3574 34.3488 29.4973 33.8089 30.5771C33.7489 30.6971 33.7489 30.8171 33.8089 30.9371C34.4088 32.1369 33.6289 33.5767 32.2491 33.6967C32.1291 33.6967 32.0691 33.6967 32.0691 33.8767C31.8892 34.9566 31.3492 35.4965 30.2694 35.6765C30.0894 35.6765 30.1494 35.7964 30.1494 35.9164C30.0294 36.8163 29.4895 37.4762 28.5896 37.5962C28.2897 37.6562 28.2297 37.7762 28.1697 38.0761C27.9297 39.4559 26.1899 40.1159 25.1101 39.156C24.9301 38.976 24.8101 39.036 24.6901 39.156C24.1502 39.7559 23.4903 39.9359 22.7104 39.6959C21.9905 39.4559 21.5106 38.976 21.3906 38.1961C21.3906 38.0761 21.3306 38.0761 21.2106 38.0761C20.0708 38.1361 19.2909 37.4762 19.1709 36.3364C19.1709 36.1564 19.1109 36.1564 18.9309 36.1564C17.9111 36.0364 17.1912 35.2565 17.1912 34.1767C17.1912 33.9967 17.1912 33.9367 17.0112 33.8767C15.6914 33.5767 15.0914 32.017 15.8713 30.8771C15.9913 30.6971 15.9913 30.6371 15.8713 30.5172C15.1514 29.5573 14.4315 28.5974 13.7116 27.6375C13.3517 27.1576 12.8118 26.7977 12.3318 26.3777C11.9119 26.0178 11.4919 25.6578 11.072 25.2979C10.952 25.1779 10.892 25.0579 10.772 24.9979C10.712 24.6979 10.712 24.578 10.712 24.518Z" fill="black"/>
<path d="M27.4497 18.7588C27.0898 18.7588 26.7898 18.3389 26.9698 17.9789C26.9698 17.9189 27.0298 17.8589 27.0298 17.8589C28.2896 16.5991 29.5495 15.3393 30.8093 14.1394C31.1093 13.8395 31.5892 14.0194 31.7092 14.4394C31.7692 14.6194 31.6492 14.7993 31.5292 14.9193C30.3294 16.1192 29.0695 17.379 27.8697 18.5788C27.6897 18.6988 27.5697 18.7588 27.4497 18.7588Z" fill="black"/>
<path d="M17.9111 13.9595C18.091 13.9595 18.211 14.0195 18.331 14.1394C19.5309 15.3393 20.7307 16.5391 21.9905 17.799C22.2305 18.0389 22.2305 18.3389 21.9905 18.5788C21.7506 18.8188 21.4506 18.8188 21.2106 18.5788C20.0108 17.379 18.8109 16.1792 17.5511 14.9193C17.3711 14.7394 17.3112 14.4994 17.4311 14.2594C17.4911 14.0795 17.6711 13.9595 17.9111 13.9595Z" fill="black"/>
<path d="M23.9702 16.6594C23.9702 16.1794 23.9702 15.6994 23.9702 15.2194C23.9702 14.8594 24.2102 14.6194 24.5102 14.6194C24.8102 14.6194 25.0502 14.8594 25.0502 15.2194C25.0502 16.1794 25.0502 17.1994 25.0502 18.1594C25.0502 18.5194 24.8102 18.7594 24.5102 18.7594C24.2102 18.7594 23.9702 18.5194 23.9702 18.1594C23.9702 17.6794 23.9702 17.1394 23.9702 16.6594Z" fill="black"/>
<path d="M24.5102 13.5397C24.2102 13.5397 23.9702 13.2997 23.9702 12.9997C23.9702 12.6997 24.2102 12.4597 24.5102 12.4597C24.8102 12.4597 25.0502 12.6997 25.0502 12.9997C25.0502 13.2997 24.8102 13.5397 24.5102 13.5397Z" fill="#010101"/>
<path d="M21.2706 21.3385C21.2106 21.4585 21.1506 21.5785 21.0906 21.6385C20.4307 22.7783 19.8308 23.8582 19.1709 24.998C18.511 26.1379 19.1109 27.5177 20.3707 27.8176C21.2106 28.0576 22.0505 27.6976 22.5304 26.9177C22.9504 26.1978 23.3703 25.4779 23.7902 24.758C23.8502 24.5781 23.9702 24.5781 24.1502 24.5781C24.8101 24.6381 25.47 24.698 26.1299 24.698C26.2499 24.698 26.3699 24.758 26.4899 24.878C28.5896 26.9777 30.6293 29.0175 32.729 31.1172C33.089 31.4771 33.089 32.0171 32.789 32.317C32.4291 32.677 31.9491 32.617 31.5892 32.257C30.4493 31.1172 29.3695 30.0373 28.2296 28.8975C28.1697 28.8375 28.1097 28.7775 27.9897 28.7175C27.8097 28.5975 27.5097 28.5975 27.3298 28.7775C27.1498 28.9575 27.0898 29.2574 27.2698 29.4374C27.3298 29.4974 27.3898 29.5574 27.4498 29.6174C28.5896 30.7572 29.6695 31.8971 30.8093 32.9769C31.2892 33.4569 31.1093 34.2368 30.4493 34.4167C30.0894 34.5367 29.8494 34.3567 29.5495 34.1168C28.8296 33.3969 28.1097 32.677 27.3898 31.9571C27.3298 31.8971 27.2698 31.8371 27.2098 31.7771C26.9698 31.5971 26.6699 31.6571 26.4899 31.8371C26.3099 32.0171 26.3099 32.317 26.4299 32.497C26.5499 32.677 26.7299 32.7969 26.8498 32.9169C27.5097 33.5768 28.1697 34.2368 28.7696 34.8967C29.2495 35.3766 29.0695 36.1565 28.4096 36.2765C28.1097 36.3365 27.8097 36.2765 27.5697 36.0365C27.1498 35.6166 26.7898 35.1966 26.3699 34.8367C26.0699 34.5367 25.59 34.5967 25.47 34.9567C25.35 35.1966 25.47 35.4366 25.65 35.6166C26.0699 36.0365 26.4899 36.4565 26.8498 36.8764C27.3298 37.3563 27.0898 38.0762 26.4899 38.2562C26.1299 38.3762 25.89 38.1962 25.59 37.9563C25.53 37.8963 25.53 37.8363 25.59 37.7163C26.0099 36.5164 25.47 35.4366 24.2702 35.1366C24.1502 35.0766 24.1502 35.0766 24.1502 34.9567C24.2702 33.8168 23.5503 32.9169 22.4104 32.797C22.2905 32.797 22.2305 32.7969 22.2305 32.617C22.1105 31.4171 21.2706 30.7572 20.1307 30.8172C19.9508 30.8172 19.9508 30.8172 19.8908 30.6372C19.5308 29.3774 18.031 28.8375 16.9512 29.5574C16.8312 29.6774 16.7112 29.6774 16.6512 29.4974C16.0513 28.6575 15.4514 27.8776 14.8515 27.0377C14.7315 26.9177 14.7315 26.8578 14.8515 26.6778C16.4113 24.758 18.031 22.8383 19.5908 20.9186C19.6508 20.8586 19.7108 20.7386 19.8308 20.7986C20.2507 21.0985 20.7307 21.2185 21.2706 21.3385Z" fill="#FBC79C"/>
<path d="M32.909 29.8573C32.7891 29.7373 32.7891 29.6173 32.7291 29.5573C30.8693 27.6376 28.9496 25.7778 27.0898 23.8581C26.9099 23.6781 26.7299 23.5581 26.4299 23.5581C25.53 23.4982 24.6302 23.4382 23.7303 23.3782C23.4303 23.3782 23.2504 23.4982 23.0704 23.7381C22.5904 24.578 22.1105 25.4179 21.6306 26.2578C21.4506 26.5577 21.1506 26.7377 20.7907 26.6777C20.4307 26.6177 20.2508 26.4378 20.1308 26.1378C20.0708 25.8978 20.0708 25.6579 20.1908 25.4179C20.8507 24.278 21.5106 23.1382 22.1105 21.9984C22.1705 21.8784 22.2305 21.8784 22.3505 21.8184C23.5503 21.4584 24.7501 21.0985 26.01 20.7985C26.13 20.7385 26.2499 20.7385 26.3099 20.7385C27.3898 20.7385 28.4696 20.7385 29.6095 20.7385C29.7895 20.7385 29.9094 20.7985 29.9694 20.9185C31.4092 22.7782 32.8491 24.578 34.2889 26.4378C34.4088 26.6177 34.4088 26.7377 34.3488 26.8577C33.8089 27.8776 33.389 28.8374 32.909 29.8573Z" fill="#FBC79C"/>
<path d="M18.6309 20.4385C18.6309 20.4985 18.5709 20.4985 18.5109 20.5585C17.0112 22.3583 15.5114 24.218 14.0116 26.0178C13.8916 26.1377 13.8316 26.1977 13.7116 26.0777C13.1717 25.5978 12.6317 25.1179 12.0918 24.6979C11.9718 24.578 11.9718 24.518 12.0918 24.398C13.2317 23.0182 14.3715 21.5784 15.5114 20.1985C15.7513 19.8986 16.0513 19.5386 16.2912 19.2387C16.4112 19.1187 16.4712 19.0587 16.5912 19.1787C17.1911 19.5986 17.851 19.9586 18.451 20.3785C18.5709 20.3185 18.6309 20.3785 18.6309 20.4385Z" fill="#6288F9"/>
<path d="M36.9885 24.2181C36.9885 24.2781 36.9285 24.3381 36.8685 24.3381C36.3286 24.818 35.7886 25.298 35.1887 25.7779C35.0687 25.8979 35.0087 25.8379 34.9487 25.7779C33.6289 24.0382 32.2491 22.3584 30.8693 20.6186C30.7493 20.4986 30.8093 20.4386 30.9293 20.3786C31.5892 19.9587 32.1891 19.5988 32.789 19.1788C32.909 19.1188 32.969 19.1188 33.029 19.2388C34.2888 20.8586 35.5487 22.5384 36.8085 24.1581C36.9285 24.1581 36.9885 24.1581 36.9885 24.2181Z" fill="#6288F9"/>
<path d="M19.111 34.8969C18.751 34.8969 18.511 34.7169 18.331 34.4169C18.211 34.1169 18.211 33.7569 18.451 33.5169C18.871 33.0369 19.351 32.6169 19.771 32.1969C20.071 31.8969 20.551 31.8969 20.851 32.1969C21.151 32.4969 21.211 32.9769 20.971 33.3369C20.491 33.8169 20.011 34.2969 19.531 34.7769C19.411 34.8369 19.231 34.8969 19.111 34.8969Z" fill="#FBC79C"/>
<path d="M20.1907 36.0367C20.1907 35.7967 20.2507 35.6167 20.4307 35.4367C20.8507 35.0167 21.2707 34.5967 21.6907 34.1767C22.0507 33.8167 22.5307 33.8167 22.8907 34.1767C23.1907 34.4767 23.2507 35.0167 22.8907 35.3767C22.4707 35.7967 22.0507 36.2167 21.5707 36.6967C21.3307 36.9367 21.0307 36.9967 20.6707 36.8767C20.3707 36.6367 20.1907 36.3967 20.1907 36.0367Z" fill="#FBC79C"/>
<path d="M24.6904 36.9364C24.6904 37.5364 23.7904 38.5564 23.2504 38.5564C22.8904 38.5564 22.6504 38.4364 22.4704 38.1364C22.2904 37.8364 22.3504 37.4764 22.5904 37.2364C22.8304 36.9364 23.0704 36.6964 23.3704 36.4564C23.6104 36.2164 23.9104 36.2164 24.2704 36.3364C24.5104 36.4564 24.6904 36.6964 24.6904 36.9364Z" fill="#FBC79C"/>
<path d="M18.0313 30.3972C18.3913 30.3972 18.6313 30.5772 18.7513 30.8772C18.8713 31.1772 18.8713 31.5372 18.6313 31.7772C18.3913 32.0172 18.1513 32.3172 17.8513 32.5572C17.5513 32.8572 17.0713 32.7972 16.7713 32.4972C16.4713 32.1972 16.4113 31.7172 16.7113 31.4172C16.9513 31.1172 17.2513 30.8772 17.5513 30.5772C17.6713 30.4572 17.8513 30.3972 18.0313 30.3972Z" fill="#FBC79C"/>
</g>
<defs>
<clipPath id="clip0_13287_8793">
<rect width="27.6562" height="27.6562" fill="white" transform="translate(10.712 12.1597)"/>
</clipPath>
</defs>
</svg>
