<svg width="48" height="49" viewBox="0 0 48 49" fill="none" xmlns="http://www.w3.org/2000/svg">
<rect y="0.420166" width="48" height="48" rx="24" fill="#FEF6D0"/>
<path d="M24.93 8.64856C25.3499 8.82854 25.8299 8.82854 26.2498 8.94853C27.9296 9.48846 29.3095 10.5083 30.4493 11.7682C30.8093 12.1282 31.1093 12.5481 31.4092 12.9081C31.8292 13.208 32.0092 13.688 32.2491 14.0479C32.4891 14.4079 32.6691 14.8279 32.8491 15.1878C33.629 16.6876 34.1089 18.2475 34.5289 19.8673C34.7689 21.0072 34.9488 22.207 35.0688 23.4069C35.1288 24.1268 35.1288 24.8467 35.1288 25.5666C35.1288 26.2866 35.0688 27.0065 35.0688 27.6664C34.9488 28.9263 34.7689 30.1261 34.4689 31.326C34.1089 32.9458 33.569 34.4456 32.7891 35.9455C32.4891 36.6654 32.0092 37.3253 31.5892 37.9852C31.5292 38.0452 31.4692 38.1052 31.3492 38.1652C30.5093 39.2451 29.6094 40.265 28.4096 41.0449C27.3897 41.7648 26.2498 42.2447 24.99 42.4247C24.93 42.4247 24.93 42.4847 24.87 42.4847C24.57 42.4847 24.27 42.4847 24.0301 42.4847C23.9701 42.4247 23.9101 42.3647 23.9101 42.2448C23.9101 41.7048 23.8501 41.1049 23.9101 40.5649C23.9701 40.385 24.1501 40.385 24.27 40.385C25.5899 40.265 26.7898 39.725 27.8096 38.8851C28.1096 38.6452 28.3496 38.3452 28.6495 38.1052C29.2495 37.5053 29.7294 36.8454 30.1494 36.1854C30.6893 35.4055 31.0493 34.5656 31.4092 33.6657C31.8292 32.5858 32.1891 31.446 32.3691 30.2461C32.6091 29.0462 32.7291 27.8464 32.7891 26.6465C32.9091 24.6067 32.7291 22.627 32.3691 20.6472C32.1891 19.4473 31.8292 18.3675 31.4092 17.2276C31.1093 16.3277 30.6293 15.4878 30.1494 14.7079C29.7294 13.988 29.2495 13.328 28.6495 12.7881C27.6897 11.7682 26.5498 10.9883 25.11 10.6883C24.87 10.8083 24.57 10.8083 24.27 10.7483C24.1501 10.7483 24.0301 10.7483 23.9701 10.5683C23.9101 10.0284 23.9701 9.42847 23.9701 8.88853C23.9701 8.82854 24.0301 8.70855 24.0901 8.64856C24.33 8.64856 24.63 8.64856 24.93 8.64856Z" fill="#66CBFE"/>
<path d="M24.09 40.6249C24.09 41.2849 24.09 41.9448 24.09 42.6047C23.7901 42.6047 23.4901 42.6047 23.2501 42.6047C22.9502 42.4847 22.5902 42.4247 22.2302 42.3647C20.9704 42.0048 19.8305 41.3449 18.8106 40.5049C18.0307 39.845 17.4308 39.0651 16.7709 38.2852C16.3509 37.9252 16.1709 37.4453 15.871 37.0253C15.691 36.6654 15.511 36.3654 15.331 36.0055C14.6111 34.5656 14.1312 33.0058 13.7112 31.446C13.4712 30.2461 13.2913 29.0462 13.1713 27.8464C13.1713 27.0665 13.0513 26.2866 13.1113 25.5066C13.1113 24.8467 13.1713 24.1868 13.2313 23.5869C13.3513 22.687 13.4112 21.7871 13.5912 20.8872C13.6512 20.5872 13.7112 20.2272 13.8312 19.9273C14.1912 18.4275 14.6711 16.9876 15.331 15.6078C15.391 15.4878 15.451 15.3678 15.451 15.2478C15.811 14.6479 16.1109 13.988 16.5309 13.388C16.5909 13.268 16.6509 13.148 16.5309 13.0281C16.8309 13.0281 17.0108 12.7881 17.1908 12.5481C18.3307 10.9283 19.8905 9.66844 21.8703 9.00852C22.2902 8.88853 22.7702 8.76855 23.1901 8.70855C23.3101 8.64856 23.4901 8.70855 23.6101 8.64856C23.7901 8.64856 23.9101 8.64856 24.09 8.64856C24.09 9.30848 24.09 9.96841 24.09 10.6283C23.9101 10.8083 23.6101 10.7483 23.3701 10.7483C21.9903 10.9883 20.8504 11.5882 19.8905 12.4881C19.7105 12.6081 19.5306 12.7281 19.4106 12.9081C18.8106 13.508 18.3307 14.1679 17.9107 14.8879C17.4308 15.6678 17.0708 16.5077 16.7109 17.3476C16.2909 18.4874 15.931 19.6873 15.691 20.8872C15.331 22.747 15.151 24.6068 15.271 26.4665C15.331 27.6064 15.451 28.7463 15.631 29.8862C15.691 30.0661 15.751 30.2461 15.811 30.4261C15.811 30.6661 15.871 30.906 15.931 31.086C16.1709 31.9859 16.4109 32.9458 16.7709 33.7857C17.0708 34.6256 17.4908 35.4655 17.9707 36.2454C18.3907 36.9654 18.9306 37.6253 19.5306 38.2852C20.0105 38.6452 20.3705 39.1251 20.9104 39.4251C21.8103 40.025 22.8302 40.385 23.9101 40.5049C23.9101 40.5649 23.97 40.5649 24.09 40.6249Z" fill="#98EDFE"/>
<path d="M23.6101 8.64856C23.4901 8.76856 23.3701 8.70856 23.1901 8.70856V8.64856C23.3101 8.64856 23.4901 8.64856 23.6101 8.64856Z" fill="#CEF6FE"/>
<path d="M13.7712 19.8073C13.5912 20.5873 13.4712 21.3672 13.3512 22.2071C13.2912 22.627 13.2312 23.047 13.1712 23.4669C12.8713 24.0669 12.4513 24.4868 12.0913 25.0267C11.9714 25.2667 11.7914 25.5067 11.7314 25.7467C11.3114 26.4066 11.0115 27.1865 10.7715 27.9064C10.5915 28.5663 10.4115 29.2263 10.4115 29.9462C10.3515 31.506 10.8915 32.9458 11.9714 34.0857C12.8713 35.1056 14.0711 35.6455 15.391 36.0055C15.8109 36.7854 16.2909 37.5653 16.7708 38.3452C15.091 38.1653 13.4712 37.8053 12.0314 36.9054C10.8915 36.1855 9.99159 35.2256 9.33166 34.0857C8.79172 33.1258 8.49176 32.046 8.37177 30.9061C8.19179 29.3463 8.55175 27.8464 9.09169 26.4066C9.21167 26.1666 9.39165 25.9266 9.39165 25.6267C9.63163 25.0267 9.93159 24.4868 10.2916 23.9469C10.4115 23.7669 10.5315 23.5269 10.6515 23.3469C11.0715 22.867 11.4314 22.2671 11.8514 21.7871C12.3913 21.1872 12.8713 20.5873 13.4712 19.9873C13.5312 19.8673 13.5912 19.7473 13.7712 19.8073Z" fill="#E0E5EF"/>
<path d="M10.6515 23.2869C10.5315 23.7669 10.1715 24.1868 9.93156 24.6068C9.75158 24.9067 9.69159 25.3267 9.39162 25.5667C9.03167 24.6668 8.67171 23.7669 8.49173 22.747C8.01178 20.1673 8.61171 17.8275 10.3515 15.8478C11.6714 14.3479 13.4112 13.508 15.3909 13.1481C15.7509 13.0881 16.1109 13.0281 16.4108 13.0281C16.5308 13.0881 16.7708 12.9681 16.5908 13.2081C16.1709 13.808 15.8109 14.4079 15.5109 15.0079C15.4509 15.0678 15.3909 15.1278 15.331 15.1878C15.271 15.3078 15.091 15.3078 14.971 15.3678C13.2912 15.8478 11.9713 16.7477 11.1314 18.3075C10.5915 19.3274 10.2915 20.4672 10.4715 21.6671C10.5315 22.087 10.5915 22.567 10.7115 22.9869C10.7115 23.1069 10.7115 23.2269 10.6515 23.2869Z" fill="#80A9FE"/>
<path d="M32.7291 15.3079C32.3091 14.528 31.8292 13.7481 31.3492 12.9681C33.449 13.1481 35.3688 13.7481 37.0486 15.1279C38.5484 16.4477 39.4483 18.0676 39.7483 20.0473C39.9883 21.6672 39.6883 23.227 39.0884 24.7868C38.9684 25.0868 38.7884 25.3867 38.7284 25.6867C38.4884 26.2866 38.1885 26.8266 37.8885 27.3065C37.7685 27.5465 37.6485 27.7265 37.5285 27.9664C37.4086 28.0264 37.3486 28.1464 37.2286 28.2664C36.4487 29.3463 35.6088 30.3062 34.7089 31.2661C34.5889 31.3861 34.5289 31.506 34.3489 31.506C34.5889 30.3662 34.8288 29.2863 34.8888 28.1464C34.8888 28.0264 34.9488 27.9664 34.9488 27.8465C35.0688 27.5465 35.2488 27.3065 35.4288 27.0665C35.7287 26.5866 36.0887 26.1067 36.3287 25.6267C36.6886 24.9068 37.1086 24.1269 37.2886 23.347C37.9485 21.1872 37.7085 19.2074 36.2687 17.4076C35.4888 16.4477 34.4089 15.8478 33.269 15.4879C33.089 15.3679 32.9091 15.3679 32.7291 15.3079Z" fill="#CED6E5"/>
<path d="M37.4685 28.0264C37.4685 27.9664 37.4685 27.8464 37.5285 27.7864C37.9484 27.1265 38.3084 26.4666 38.6684 25.7466L38.7283 25.6866C39.3283 27.0065 39.7482 28.4463 39.8082 29.9462C39.8682 33.5458 37.7085 36.5454 34.2889 37.6853C33.329 37.9853 32.3691 38.2252 31.4092 38.2852C31.8891 37.5653 32.3691 36.8454 32.729 36.0055C32.849 35.8855 33.029 35.8855 33.149 35.8255C34.9488 35.2856 36.3286 34.3257 37.1685 32.5859C37.8285 31.206 37.8285 29.8262 37.5285 28.3263C37.4085 28.2664 37.3485 28.1464 37.4685 28.0264Z" fill="#6680FE"/>
<path d="M23.97 35.3456C24.8099 35.1656 25.5298 34.8057 26.3097 34.5057C27.3896 34.0257 28.4095 33.5458 29.3694 32.8859C30.2093 32.3459 31.0492 31.746 31.8291 31.0861C32.0691 30.9061 32.249 30.7261 32.489 30.5461C32.369 31.386 32.129 32.166 31.8891 32.9459C31.7691 33.2458 31.7091 33.6058 31.5291 33.9058C31.4091 34.1457 31.1692 34.2657 30.9892 34.3857C30.0893 34.9856 29.1894 35.5256 28.2295 35.9455C28.0495 36.0655 27.8095 36.1255 27.6296 36.2455C26.9096 36.4855 26.2497 36.7854 25.5898 37.0854C25.1098 37.2654 24.6299 37.3854 24.2099 37.5653C24.15 37.5653 24.09 37.5054 24.03 37.4454C23.97 36.7854 24.03 36.1255 23.97 35.4656C23.97 35.4056 23.97 35.4056 23.97 35.3456Z" fill="#CED6E5"/>
<path d="M32.4891 20.7672C31.4692 19.8673 30.3893 19.0274 29.2494 18.3075C27.6896 17.3476 26.0698 16.5677 24.33 16.0278C24.27 16.0278 24.21 15.9678 24.15 15.9678C24.15 15.8478 24.21 15.7878 24.33 15.7878C25.4099 15.4878 26.4298 15.1879 27.5696 15.0679C28.0496 15.1879 28.5295 15.4878 28.9495 15.7278C29.6694 16.0878 30.3893 16.5677 31.0492 16.9877C31.2292 17.1076 31.4092 17.2276 31.5292 17.4076C31.9491 18.4875 32.3091 19.6274 32.4891 20.7672Z" fill="#6680FE"/>
<path d="M27.5696 15.1279C26.3697 15.2479 25.2299 15.5478 24.09 15.9078H24.03C23.91 15.7878 23.91 15.6078 23.91 15.4279C23.91 14.9479 23.97 14.468 23.85 13.988C23.79 13.928 23.79 13.868 23.79 13.7481C24.21 13.808 24.51 13.6281 24.9299 13.5681C26.1898 13.2681 27.4496 13.0281 28.7695 12.9681C29.3694 13.5081 29.8494 14.168 30.2093 14.8879C29.9693 15.0679 29.6694 15.0079 29.4294 15.0079C28.8295 15.0679 28.1695 15.1879 27.5696 15.1279Z" fill="#CED6E5"/>
<path d="M28.7694 38.3452C27.2696 38.2852 25.8298 37.9853 24.4499 37.5653C24.3899 37.5653 24.3299 37.5053 24.21 37.5053C24.21 37.3253 24.3899 37.3853 24.4499 37.3253C25.4098 37.0254 26.3697 36.6654 27.3296 36.2455C27.4496 36.1855 27.5696 36.1855 27.6896 36.1855C27.8695 36.0655 28.0495 36.1255 28.2295 36.1255C28.7095 36.1855 29.1294 36.1855 29.6094 36.1855C29.8493 36.1855 30.0893 36.1855 30.3293 36.3654C30.0893 36.8454 29.7293 37.2653 29.4294 37.6853C29.1294 37.9253 29.0094 38.1652 28.7694 38.3452Z" fill="#6680FE"/>
<path d="M34.4088 19.9274C34.8288 20.1673 35.0687 20.5273 35.3687 20.8273C36.0886 21.6072 36.7485 22.4471 37.3485 23.287C37.2885 23.8269 37.0485 24.2469 36.8085 24.7268C36.6886 25.0268 36.5686 25.3268 36.3886 25.5667C36.2686 25.5067 36.2086 25.4467 36.2086 25.3867C35.9086 24.7868 35.4887 24.2469 35.0687 23.7069C35.0087 23.587 35.0087 23.527 34.9488 23.407C34.8288 22.3271 34.7088 21.2472 34.4688 20.1673C34.4088 20.1073 34.4088 19.9874 34.4088 19.9274Z" fill="#6680FE"/>
<path d="M23.91 13.868C24.09 13.868 24.03 14.048 24.03 14.1679C24.03 14.7679 24.03 15.3678 24.03 15.9677C23.31 16.0877 22.6501 16.3877 21.9902 16.6877C20.6104 17.2876 19.2305 18.0075 18.0306 18.8474C17.1307 19.4473 16.3508 20.1073 15.5709 20.8272C15.8109 19.6273 16.1109 18.4275 16.6508 17.2876C17.4307 16.7476 18.2106 16.2077 19.0505 15.7878C19.5905 15.4878 20.0704 15.2478 20.6104 15.0078C21.5702 14.5879 22.5301 14.2279 23.55 13.868C23.61 13.868 23.79 13.808 23.91 13.868Z" fill="#E0E5EF"/>
<path d="M23.9701 35.3456C23.8501 35.5256 23.7301 35.5256 23.6101 35.5856C22.7702 35.8255 21.8703 36.0655 21.0304 36.1855C20.9104 36.1855 20.7305 36.1855 20.6105 36.1855C19.5906 35.8255 18.6907 35.2856 17.7908 34.6857C17.3708 34.4457 17.0109 34.2057 16.6509 33.9058C16.171 32.8859 15.931 31.806 15.691 30.7861C15.691 30.7261 15.631 30.6061 15.751 30.5461C17.4908 32.106 19.4106 33.4258 21.5104 34.3857C22.2903 34.7457 23.1302 35.0456 23.9701 35.3456Z" fill="#80A9FE"/>
<path d="M20.5504 36.1254C21.5703 36.0654 22.5902 35.7655 23.5501 35.5255C23.67 35.4655 23.85 35.4655 23.97 35.4055C24.09 35.5255 24.03 35.6455 24.03 35.7655C24.03 36.3654 24.03 36.9053 24.03 37.5053C22.7702 37.8652 21.5103 38.1052 20.2504 38.2852C19.9505 38.3452 19.6505 38.3452 19.3505 38.4052C18.7506 37.8052 18.2707 37.1453 17.8507 36.4254C18.0907 36.2454 18.4506 36.3054 18.6906 36.3054C19.2905 36.2454 19.8905 36.1254 20.5504 36.1254Z" fill="#E0E5EF"/>
<path d="M23.9101 13.868C22.8302 14.1679 21.8703 14.5279 20.8504 15.0078C20.7304 15.0678 20.6704 15.1278 20.5505 15.0678C20.4905 15.1278 20.3705 15.1278 20.2505 15.1278C19.5306 15.0678 18.8107 15.0078 18.0307 14.9478C17.9708 14.9478 17.8508 14.9478 17.7908 14.8279C18.2707 14.1679 18.6907 13.448 19.2906 12.9081C20.8504 13.0281 22.3503 13.328 23.7901 13.688C23.8501 13.808 23.9101 13.868 23.9101 13.868Z" fill="#80A9FE"/>
<path d="M13.7112 31.4461C12.5713 30.3662 11.6114 29.1663 10.7115 27.9065C10.8915 27.1265 11.2515 26.4666 11.6114 25.8067C11.6114 25.7467 11.6714 25.7467 11.7314 25.7467C11.8514 25.8067 11.9114 25.9267 11.9714 25.9867C12.2714 26.4666 12.6313 26.9466 12.9913 27.4265C13.1113 27.5465 13.1713 27.7265 13.2313 27.8465C13.2913 28.4464 13.4112 29.0463 13.4712 29.6463C13.5312 30.1862 13.6512 30.6661 13.7712 31.2061C13.7112 31.2661 13.7712 31.3861 13.7112 31.4461Z" fill="#80A9FE"/>
<path d="M29.0095 25.8666C29.0095 27.4865 29.0095 29.0463 29.0095 30.6661C29.0095 31.146 28.6495 31.386 28.3495 31.626C27.6296 32.1659 26.7897 32.3459 25.8898 32.4659C25.2899 32.5859 24.63 32.6459 24.03 32.5859C23.91 32.4659 23.91 32.3459 23.91 32.2259C23.91 30.7861 23.91 29.2863 23.91 27.8464C23.91 27.7864 23.91 27.7864 23.91 27.7264C23.91 27.6664 23.91 27.6664 23.97 27.6064C24.33 27.4265 24.7499 27.4865 25.1699 27.4865C26.0698 27.3665 26.9097 27.1865 27.7496 26.8265C28.1696 26.6466 28.5895 26.3466 28.8295 25.9266C28.8895 25.8666 28.9495 25.8067 29.0095 25.8666Z" fill="#CED6E5"/>
<path d="M24.03 27.6664C24.03 29.3462 24.03 30.9661 24.03 32.6459C22.6502 32.6459 21.3303 32.4659 20.0705 31.866C19.4106 31.566 18.9906 31.0261 19.0506 30.2461C19.1106 28.8063 19.0506 27.3665 19.0506 25.9266C19.1706 25.9266 19.1706 25.9866 19.2306 26.0466C19.4706 26.4666 19.8905 26.7665 20.3105 26.9465C21.3303 27.4265 22.4702 27.5465 23.6101 27.6064C23.7901 27.5465 23.9101 27.4865 24.03 27.6664Z" fill="#E0E5EF"/>
<path d="M24.03 27.6664C22.7701 27.6664 21.5103 27.4865 20.3104 27.0065C19.7705 26.7665 19.2905 26.4666 19.0505 25.8666C19.0505 24.1868 19.0505 22.567 19.0505 20.8872C19.1105 20.8872 19.1105 20.8872 19.1705 20.9472C19.5905 21.7271 20.3704 21.9671 21.0903 22.2071C21.9302 22.447 22.7701 22.567 23.67 22.567C23.79 22.567 23.91 22.567 24.03 22.627C24.03 22.687 24.09 22.687 24.09 22.747C24.15 22.927 24.15 23.107 24.15 23.2269C24.15 24.5468 24.15 25.8067 24.15 27.1265C24.15 27.3065 24.21 27.4865 24.03 27.6664Z" fill="#CED6E5"/>
<path d="M24.09 27.6065C24.09 25.9266 24.09 24.3068 24.09 22.627C24.21 22.507 24.3899 22.507 24.5099 22.507C25.4098 22.507 26.3097 22.3271 27.2096 22.0871C27.8695 21.9071 28.4695 21.6071 28.8894 21.0072C28.9494 20.9472 28.9494 20.8872 29.0694 20.9472C29.0694 22.567 29.0694 24.1868 29.0694 25.8667C28.8294 26.5266 28.2295 26.8265 27.6296 27.0665C26.4897 27.4865 25.2898 27.6665 24.09 27.6065Z" fill="#A2B0CB"/>
<path d="M29.01 20.9474C28.53 21.7874 27.69 22.0874 26.85 22.3274C25.95 22.5674 24.99 22.6874 24.03 22.6874C23.91 22.5674 23.91 22.3874 23.91 22.2674C23.91 21.2474 23.91 20.2274 23.91 19.1474C23.91 18.9674 23.91 18.8474 24.03 18.7274C25.41 18.7274 26.73 18.9074 27.99 19.5074C28.29 19.6274 28.53 19.8674 28.77 20.1074C29.07 20.3474 29.07 20.6474 29.01 20.9474Z" fill="#E0E5EF"/>
<path d="M24.0305 18.6675C24.0305 19.9875 24.0305 21.3075 24.0305 22.6275C22.6505 22.6275 21.3305 22.4475 20.0705 21.8475C19.5905 21.6075 19.2305 21.3075 19.0505 20.8275C18.9905 20.1675 19.4105 19.8075 19.8905 19.5075C20.7905 19.0275 21.7505 18.7875 22.7705 18.6675C23.2505 18.6675 23.6705 18.6675 24.0305 18.6675Z" fill="#F2F4F8"/>
</svg>
