<svg width="49" height="49" viewBox="0 0 49 49" fill="none" xmlns="http://www.w3.org/2000/svg">
<rect x="0.620483" y="0.806641" width="48" height="48" rx="24" fill="#FEDBD7"/>
<g clip-path="url(#clip0_13287_3899)">
<path d="M16.2215 40.5062C16.2215 34.8668 16.2215 29.1675 16.2215 23.5282C16.2215 23.2282 16.2815 23.1682 16.5814 23.1682C18.0213 23.1682 19.4011 23.1682 20.8409 23.1682C21.1409 23.1682 21.2009 23.2882 21.2009 23.5282C21.2009 29.1675 21.2009 34.8668 21.2009 40.5062C21.0809 40.6261 20.9609 40.6261 20.7809 40.6261C19.4011 40.6261 18.0213 40.6261 16.6414 40.6261C16.4614 40.6261 16.3415 40.6261 16.2215 40.5062Z" fill="#FEE252"/>
<path d="M27.3802 32.1672C27.3802 34.9268 27.3802 37.7465 27.3802 40.5062C27.2602 40.6261 27.1402 40.6261 26.9602 40.6261C25.5804 40.6261 24.2005 40.6261 22.8207 40.6261C22.7007 40.6261 22.5207 40.6261 22.4008 40.5062C22.4008 35.7067 22.4008 30.8473 22.4008 26.0479C22.4008 25.6279 22.4008 25.6279 22.8207 25.6279C23.3606 25.6279 23.9006 25.6279 24.4405 25.6279C24.5605 25.7479 24.5005 25.8679 24.4405 25.9879C24.0806 27.7877 24.5605 29.4075 25.7604 30.7873C26.1203 31.2073 26.6003 31.5672 27.0802 31.8672C27.2002 31.9872 27.3802 31.9872 27.3802 32.1672Z" fill="#FEAFA9"/>
<path d="M27.3801 32.1673C26.6002 31.7473 25.8803 31.2074 25.4004 30.4875C24.3805 29.0476 24.0805 27.5478 24.4405 25.808C24.4405 25.748 24.4405 25.688 24.4405 25.6281C24.7405 24.7882 25.1004 24.0082 25.7003 23.3483C26.5402 22.4484 27.5001 21.9085 28.7 21.6685C28.82 21.6685 28.88 21.6085 29 21.5485C28.58 21.5485 28.22 21.5485 27.8001 21.5485C27.0202 21.5485 26.1803 21.5485 25.4004 21.5485C25.1604 21.5485 25.1004 21.4885 25.1004 21.2486C25.1004 21.0086 25.1004 20.8286 25.1004 20.5887C25.1004 20.3487 25.1604 20.2887 25.4004 20.2887C27.8601 20.2887 30.3798 20.2887 32.8395 20.2887C33.1395 20.2887 33.5594 20.1687 33.6794 20.3487C33.8594 20.5287 33.7394 20.9486 33.7394 21.2486C33.7394 21.4885 33.6794 21.5485 33.4394 21.5485C32.4795 21.5485 31.5197 21.5485 30.4998 21.5485C31.3997 21.7285 32.1796 22.0285 32.8995 22.5084C35.3592 24.1882 36.0791 27.6078 34.3993 30.1275C34.3393 30.1875 34.2793 30.3075 34.2193 30.3675C34.0394 30.7274 33.7394 31.0274 33.4394 31.3274C33.3194 31.4474 33.1995 31.6273 32.9595 31.6273C31.8796 32.3473 30.7397 32.7072 29.4199 32.6472C28.82 32.7072 28.1001 32.4672 27.3801 32.1673Z" fill="#6E82B6"/>
<path d="M10.0422 40.5062C10.0422 39.6663 10.0422 38.7665 10.0422 37.9266C10.0422 35.5868 10.0422 33.2471 10.0422 30.9074C10.0422 30.6674 10.1022 30.6074 10.3422 30.6074C11.782 30.6074 13.2218 30.6074 14.6617 30.6074C14.9016 30.6074 14.9616 30.6674 14.9616 30.9074C14.9616 34.087 14.9616 37.3266 14.9616 40.5062C14.8416 40.6262 14.7216 40.6262 14.5417 40.6262C13.1618 40.6262 11.782 40.6262 10.4022 40.6262C10.2822 40.6262 10.1622 40.6262 10.0422 40.5062Z" fill="#97C969"/>
<path d="M10.0422 40.5062C11.662 40.5062 13.3418 40.5062 14.9616 40.5062C15.3816 40.5062 15.8015 40.5062 16.2215 40.5062C17.9013 40.5062 19.5211 40.5062 21.2009 40.5062C21.6208 40.5062 22.0408 40.5062 22.4607 40.5062C24.1405 40.5062 25.7603 40.5062 27.4401 40.5062C27.8601 40.5062 28.28 40.5062 28.7 40.5062C28.82 40.3862 28.94 40.3862 29.1199 40.3862C30.4998 40.3862 31.8796 40.3862 33.2594 40.3862C33.3794 40.3862 33.5594 40.3862 33.6794 40.5062C35.8991 40.5062 38.0589 40.5062 40.2786 40.5062C40.5186 40.5062 40.6386 40.5662 40.6386 40.8662C40.6386 41.1061 40.6386 41.2861 40.6386 41.5261C40.6386 41.7661 40.5786 41.7661 40.3386 41.7661C30.3798 41.7661 20.421 41.7661 10.4022 41.7661C10.1622 41.7661 10.1022 41.7061 10.1022 41.4661C10.0422 41.1661 10.0422 40.8662 10.0422 40.5062Z" fill="#6E82B6"/>
<path d="M11.542 20.0485C10.7621 19.2686 10.2822 18.3687 10.1022 17.2888C9.80224 15.4891 10.3422 13.9292 11.662 12.6694C12.6219 11.7695 13.8218 11.2896 15.1416 11.2896C15.2616 11.4095 15.2616 11.5295 15.2616 11.6495C15.2616 13.2093 15.2616 14.7691 15.2616 16.329C15.2616 16.5089 15.1416 16.6289 15.0216 16.7489C13.9418 17.8288 12.9219 18.8487 11.842 19.9285C11.782 19.9885 11.662 20.0485 11.542 20.0485Z" fill="#80D5FA"/>
<path d="M33.56 40.5067C31.88 40.5067 30.26 40.5067 28.58 40.5067C28.58 38.9467 28.58 37.3867 28.58 35.8867C28.58 35.6467 28.64 35.5867 28.88 35.5867C30.32 35.5867 31.76 35.5867 33.26 35.5867C33.5 35.5867 33.56 35.6467 33.56 35.8867C33.56 37.4467 33.56 39.0067 33.56 40.5067Z" fill="#7FD5FA"/>
<path d="M15.2016 16.449C15.2016 14.7092 15.2016 13.0294 15.2016 11.2896C17.9613 11.2297 20.421 13.6894 20.361 16.449C20.301 16.509 20.181 16.569 20.061 16.569C18.5612 16.569 17.0614 16.569 15.5616 16.569C15.5016 16.569 15.4416 16.569 15.3816 16.569C15.2616 16.509 15.2016 16.449 15.2016 16.449Z" fill="#FEAFA9"/>
<path d="M15.2016 16.449C15.3816 16.509 15.4416 16.569 15.5616 16.629C16.5814 17.6488 17.6013 18.6687 18.6812 19.7486C18.7412 19.8086 18.8612 19.8686 18.8612 20.0485C18.1412 20.8285 17.1814 21.3084 16.1615 21.4884C14.4817 21.7883 13.0419 21.3084 11.782 20.2285C11.722 20.1685 11.662 20.1085 11.662 20.0485C12.7419 18.8487 13.9417 17.6488 15.2016 16.449Z" fill="#97C969"/>
<path d="M34.9993 31.0874C35.0593 31.0874 35.1192 31.0874 35.1792 31.0274C35.2992 30.8474 35.3592 30.9074 35.4792 31.0274L35.5392 31.0874C37.099 32.6472 38.7188 34.267 40.2786 35.8268C40.4586 36.0068 40.4586 36.1268 40.2786 36.3068C39.7987 36.7267 39.3787 37.2067 38.9588 37.6266C38.8388 37.7466 38.7788 37.7466 38.6588 37.6266C37.039 36.0068 35.4192 34.387 33.7994 32.7672C33.5594 32.5272 33.9194 32.4672 33.8594 32.2873C34.1594 31.8673 34.5793 31.4474 34.9993 31.0874Z" fill="#6E82B6"/>
<path d="M29.4799 12.1895C30.8597 12.1895 32.1796 12.1895 33.5594 12.1895C33.7994 12.1895 33.8594 12.2494 33.8594 12.4894C33.7994 12.7894 33.9794 13.2093 33.7994 13.3893C33.6194 13.5693 33.1994 13.4493 32.8995 13.4493C30.4398 13.4493 27.9801 13.4493 25.5204 13.4493C25.2804 13.4493 25.1604 13.3893 25.2204 13.1493C25.2204 12.9694 25.2204 12.7294 25.2204 12.5494C25.2204 12.3094 25.2804 12.1895 25.5804 12.1895C26.7802 12.1895 28.16 12.1895 29.4799 12.1895Z" fill="#6E82B6"/>
<path d="M29.5399 14.8893C30.8598 14.8893 32.1796 14.8893 33.5594 14.8893C33.7994 14.8893 33.9194 14.9493 33.8594 15.1892C33.8594 15.3692 33.8594 15.6092 33.8594 15.7892C33.8594 16.0291 33.7994 16.0891 33.5594 16.0891C31.0997 16.0891 28.58 16.0891 26.1203 16.0891C25.8803 16.0891 25.6404 16.0891 25.4604 16.0891C25.2804 16.0891 25.2204 16.0291 25.2204 15.8492C25.2204 15.5492 25.1004 15.1292 25.2804 14.9493C25.4604 14.7693 25.8803 14.8893 26.1803 14.8893C27.2602 14.8893 28.4 14.8893 29.5399 14.8893Z" fill="#6E82B6"/>
<path d="M29.4799 18.8487C28.1001 18.8487 26.7802 18.8487 25.4004 18.8487C25.1604 18.8487 25.1004 18.7887 25.1004 18.5488C25.1004 18.3688 25.1004 18.1288 25.1004 17.9488C25.1004 17.7089 25.1604 17.5889 25.4604 17.5889C27.3802 17.5889 29.2999 17.5889 31.2197 17.5889C31.9996 17.5889 32.7795 17.5889 33.5594 17.5889C33.7394 17.5889 33.7994 17.6489 33.7994 17.8288C33.7394 18.1288 33.9194 18.5488 33.7394 18.7887C33.5594 18.9687 33.1395 18.8487 32.8395 18.8487C31.6996 18.8487 30.6198 18.8487 29.4799 18.8487Z" fill="#6E82B6"/>
<path d="M18.8012 20.0485C17.6013 18.8487 16.4015 17.6488 15.2016 16.449C16.8814 16.449 18.5612 16.449 20.301 16.449C20.301 17.8288 19.821 19.0287 18.8012 20.0485Z" fill="#FEE252"/>
<path d="M23.9008 12.3696C23.9008 12.6696 23.9008 12.9096 23.9008 13.2096C23.9008 13.3896 23.8408 13.4496 23.7208 13.4496C23.1808 13.4496 22.5808 13.4496 22.0408 13.4496C21.8608 13.4496 21.8608 13.3896 21.8608 13.2096C21.8608 12.6696 21.8608 12.0696 21.8608 11.5296C21.8608 11.3496 21.9208 11.2896 22.1008 11.2896C22.6408 11.2896 23.1808 11.2896 23.7208 11.2896C23.9008 11.2896 23.9608 11.3496 23.9608 11.5296C23.9008 11.8296 23.9008 12.0696 23.9008 12.3696Z" fill="#7FD5FA"/>
<path d="M23.9008 15.1293C23.8408 15.4293 24.0208 15.8493 23.8408 16.0293C23.6008 16.2093 23.1808 16.0893 22.8808 16.0893C22.6408 16.0893 22.3408 16.0893 22.1008 16.0893C21.9208 16.0893 21.8608 16.0293 21.8608 15.8493C21.8608 15.3093 21.8608 14.7693 21.8608 14.2293C21.8608 14.0493 21.9208 13.9893 22.1008 13.9893C22.6408 13.9893 23.1808 13.9893 23.7208 13.9893C23.9608 13.9893 23.9608 14.0493 23.9608 14.2893C23.9008 14.5293 23.9008 14.8293 23.9008 15.1293Z" fill="#FEAFA9"/>
<path d="M22.8808 16.749C23.1208 16.749 23.4208 16.749 23.6608 16.749C23.8408 16.749 23.9008 16.809 23.9008 16.929C23.9008 17.469 23.9008 18.069 23.9008 18.609C23.9008 18.789 23.8408 18.789 23.6608 18.789C23.1208 18.789 22.5208 18.789 21.9808 18.789C21.8008 18.789 21.7408 18.729 21.7408 18.549C21.7408 18.009 21.7408 17.469 21.7408 16.929C21.7408 16.749 21.8008 16.689 21.9808 16.689C22.3408 16.749 22.5808 16.749 22.8808 16.749Z" fill="#FEE252"/>
<path d="M21.8008 20.5287C21.8008 20.2287 21.8008 19.9887 21.8008 19.6887C21.8008 19.5087 21.8608 19.4487 21.9808 19.4487C22.5208 19.4487 23.1208 19.4487 23.6608 19.4487C23.8408 19.4487 23.8408 19.5087 23.8408 19.6887C23.8408 20.2287 23.8408 20.8287 23.8408 21.3687C23.8408 21.5487 23.7808 21.6087 23.6008 21.6087C23.0608 21.6087 22.5208 21.6087 21.9808 21.6087C21.8008 21.6087 21.7408 21.5487 21.7408 21.3687C21.8008 21.0687 21.8008 20.7687 21.8008 20.5287Z" fill="#97C969"/>
<path d="M34.9995 31.0875C34.7595 31.5075 34.3995 31.7475 34.0995 32.0475C33.9795 32.1675 33.9195 32.2875 33.7395 32.2875C33.5595 32.1075 33.3195 31.8675 33.1395 31.6875C33.6195 31.3275 34.0395 30.9075 34.3995 30.4275C34.5795 30.6675 34.7595 30.8475 34.9995 31.0875Z" fill="#466089"/>
<path d="M34.1594 27.1278C34.1594 29.5276 32.1796 31.4473 29.7799 31.4473C27.3802 31.4473 25.4604 29.4676 25.4604 27.1278C25.4604 24.7281 27.4402 22.8083 29.8399 22.8083C32.2396 22.8083 34.1594 24.7881 34.1594 27.1278Z" fill="#7FD5FA"/>
</g>
<defs>
<clipPath id="clip0_13287_3899">
<rect width="33.596" height="31.5562" fill="white" transform="translate(7.82248 10.2097)"/>
</clipPath>
</defs>
</svg>
