<svg width="400" height="296" viewBox="0 0 400 296" fill="none" xmlns="http://www.w3.org/2000/svg">
<mask id="mask0_1407_107723" style="mask-type:luminance" maskUnits="userSpaceOnUse" x="0" y="0" width="400" height="300">
<path d="M400 0H0V300H400V0Z" fill="white"/>
</mask>
<g mask="url(#mask0_1407_107723)">
<path d="M342.107 139.773L311.41 122.047V132.667C296.169 132.845 283.823 145.298 283.823 160.583V217.637C283.819 221.269 282.374 224.752 279.806 227.321C277.237 229.889 273.754 231.333 270.121 231.337H224.5V245.555H270.121C285.517 245.555 298.041 233.031 298.041 217.637V160.583C298.045 157.008 299.445 153.575 301.942 151.017C304.439 148.459 307.836 146.977 311.41 146.887V157.498L342.107 139.773Z" fill="#1F4168"/>
<g style="mix-blend-mode:multiply" opacity="0.4">
<path d="M298.04 199.344H283.82V203.102H298.04V199.344Z" fill="#1F4168"/>
</g>
<path d="M57.8828 139.773L88.58 122.047V132.667C103.821 132.851 116.167 145.298 116.167 160.583V217.637C116.171 221.269 117.616 224.752 120.184 227.321C122.753 229.889 126.236 231.333 129.869 231.337H170.69V245.555H129.869C114.473 245.555 101.949 233.031 101.949 217.637V160.583C101.945 157.008 100.545 153.575 98.0482 151.017C95.5511 148.459 92.1538 146.977 88.58 146.887V157.498L57.8828 139.773Z" fill="#F0F2F5"/>
<path d="M116.173 199.336H101.953V203.095H116.173V199.336Z" fill="#D2D9E1"/>
<path d="M206.414 165.815V88.4107C206.414 73.125 218.758 60.675 234.001 60.4964V49.875L264.698 67.6007L233.995 85.3264V74.715C230.422 74.8051 227.024 76.2872 224.527 78.8454C222.03 81.4036 220.631 84.8358 220.627 88.4107V165.815H206.414Z" fill="#F0F2F5"/>
<path d="M354.177 192.221L323.48 174.495V185.111H274.557C273.473 185.109 272.433 184.678 271.666 183.911C270.899 183.144 270.467 182.104 270.466 181.019V134.145C270.487 131.727 270.029 129.328 269.119 127.088C268.208 124.848 266.863 122.81 265.16 121.092C263.458 119.375 261.432 118.012 259.2 117.081C256.968 116.151 254.573 115.672 252.155 115.672C249.737 115.672 247.343 116.151 245.11 117.081C242.878 118.012 240.852 119.375 239.15 121.092C237.448 122.81 236.102 124.848 235.192 127.088C234.281 129.328 233.823 131.727 233.844 134.145V257.288H248.063V134.145C248.063 133.06 248.494 132.019 249.261 131.252C250.029 130.485 251.069 130.054 252.154 130.054C253.24 130.054 254.28 130.485 255.048 131.252C255.815 132.019 256.246 133.06 256.246 134.145V181.019C256.252 185.874 258.183 190.528 261.616 193.961C265.048 197.393 269.703 199.324 274.557 199.329H323.48V209.946L354.177 192.221Z" fill="#F0F2F5"/>
<path d="M248.135 257.36H233.773V134.151C233.773 124.009 242.019 115.769 252.155 115.769C257.029 115.774 261.701 117.712 265.148 121.159C268.594 124.605 270.532 129.278 270.538 134.151V181.026C270.539 182.092 270.963 183.113 271.716 183.867C272.47 184.621 273.492 185.045 274.558 185.046H323.415V174.377L323.522 174.439L354.326 192.227L354.219 192.289L323.415 210.076V199.407H274.558C264.415 199.407 256.175 191.161 256.175 181.026V134.151C256.175 133.085 255.751 132.063 254.997 131.309C254.244 130.555 253.221 130.131 252.155 130.131C251.089 130.131 250.066 130.555 249.312 131.309C248.558 132.063 248.135 133.085 248.135 134.151V257.36ZM233.916 257.217H247.992V134.151C247.992 133.047 248.431 131.989 249.211 131.208C249.992 130.427 251.051 129.989 252.155 129.989C253.259 129.989 254.318 130.427 255.098 131.208C255.879 131.989 256.318 133.047 256.318 134.151V181.026C256.323 185.861 258.247 190.497 261.666 193.917C265.086 197.336 269.722 199.259 274.558 199.264H323.558V209.829L354.041 192.227L323.558 174.624V185.196H274.558C273.454 185.194 272.396 184.755 271.616 183.975C270.835 183.194 270.396 182.136 270.395 181.033V134.151C270.416 131.743 269.96 129.353 269.053 127.122C268.146 124.89 266.806 122.86 265.11 121.15C263.414 119.439 261.396 118.081 259.173 117.154C256.95 116.227 254.564 115.75 252.156 115.75C249.747 115.75 247.362 116.227 245.138 117.154C242.915 118.081 240.897 119.439 239.201 121.15C237.505 122.86 236.165 124.89 235.258 127.122C234.351 129.353 233.895 131.743 233.916 134.151V257.217Z" fill="#1F4168"/>
<path d="M45.8203 192.221L76.5175 174.495V185.111H125.44C126.525 185.109 127.565 184.678 128.332 183.911C129.099 183.144 129.53 182.104 129.532 181.019V134.145C129.51 131.727 129.968 129.328 130.879 127.088C131.789 124.848 133.135 122.81 134.837 121.092C136.54 119.375 138.565 118.012 140.798 117.081C143.03 116.151 145.424 115.672 147.842 115.672C150.261 115.672 152.655 116.151 154.887 117.081C157.119 118.012 159.145 119.375 160.848 121.092C162.55 122.81 163.895 124.848 164.806 127.088C165.717 129.328 166.175 131.727 166.153 134.145V257.288H151.935V134.145C151.935 133.06 151.504 132.019 150.736 131.252C149.969 130.485 148.928 130.054 147.843 130.054C146.758 130.054 145.717 130.485 144.95 131.252C144.183 132.019 143.752 133.06 143.752 134.145V181.019C143.746 185.874 141.815 190.528 138.382 193.961C134.949 197.393 130.295 199.324 125.44 199.329H76.5175V209.946L45.8203 192.221Z" fill="#1F4168"/>
<path d="M186.88 168.906V92.8021C186.874 87.9478 184.944 83.2937 181.511 79.8609C178.079 76.428 173.425 74.4968 168.571 74.4907H153.528V63.875L122.828 81.6007L153.525 99.3264V88.7064H168.571C169.656 88.7079 170.695 89.1395 171.462 89.9065C172.229 90.6734 172.661 91.7132 172.662 92.7979V168.906H186.88Z" fill="#F0F2F5"/>
<path d="M170.764 245.618H129.871C114.435 245.618 101.879 233.062 101.879 217.628V160.573C101.879 153.261 95.9536 147.165 88.6536 146.951V157.613L88.5465 157.551L57.7422 139.763L88.6536 121.906V132.581C96.0037 132.694 103.015 135.692 108.175 140.927C113.336 146.162 116.232 153.215 116.241 160.566V217.628C116.245 221.241 117.682 224.705 120.238 227.26C122.793 229.815 126.257 231.252 129.871 231.256H170.764V245.618ZM88.5108 146.805H88.5836C92.1759 146.896 95.5906 148.386 98.1007 150.957C100.611 153.529 102.018 156.979 102.022 160.572V217.628C102.022 232.982 114.515 245.475 129.871 245.475H170.621V231.399H129.871C126.219 231.395 122.719 229.943 120.137 227.361C117.555 224.779 116.102 221.279 116.098 217.628V160.573C116.098 145.398 103.754 132.908 88.5808 132.729H88.5108V122.158L58.0279 139.763L88.5108 157.365V146.805Z" fill="#1F4168"/>
<path d="M283.882 110.794C286.683 110.186 288.461 107.423 287.854 104.621C287.246 101.82 284.483 100.042 281.681 100.65C278.88 101.257 277.102 104.021 277.71 106.822C278.317 109.623 281.081 111.401 283.882 110.794Z" fill="#F0F2F5"/>
<path d="M308.057 66.4624C304.101 63.9166 299.295 63.0466 294.698 64.0437C290.1 65.0409 286.087 67.8235 283.541 71.7796L283.532 71.7924C283.319 72.1301 283.248 72.5386 283.334 72.9287C283.421 73.3187 283.659 73.6585 283.995 73.8738L290.475 78.0438C290.645 78.1524 290.835 78.2265 291.034 78.2617C291.232 78.2969 291.436 78.2926 291.633 78.2491C291.83 78.2056 292.017 78.1237 292.182 78.0081C292.347 77.8925 292.488 77.7454 292.597 77.5753C292.647 77.4996 292.697 77.4253 292.75 77.351C293.539 76.2321 294.64 75.3698 295.915 74.8713C297.19 74.3727 298.584 74.2599 299.923 74.5468C301.262 74.8338 302.487 75.5078 303.446 76.4851C304.405 77.4625 305.056 78.7001 305.317 80.0442C305.579 81.3883 305.44 82.7796 304.917 84.0453C304.395 85.311 303.512 86.3952 302.378 87.1633C301.245 87.9314 299.91 88.3494 298.541 88.3655C297.172 88.3816 295.828 87.9951 294.677 87.2539L294.621 87.2181C294.034 86.8283 293.375 86.5589 292.684 86.4254C291.992 86.2919 291.28 86.2971 290.59 86.4406C289.9 86.5841 289.246 86.8631 288.664 87.2614C288.083 87.6597 287.587 88.1694 287.204 88.761L284.724 92.6181L283.337 94.7724C283.117 95.114 283.042 95.5288 283.129 95.9255C283.215 96.3222 283.455 96.6685 283.797 96.8881L290 100.875C290.169 100.984 290.357 101.059 290.555 101.095C290.753 101.131 290.956 101.127 291.152 101.084C291.349 101.042 291.535 100.961 291.7 100.846C291.866 100.732 292.007 100.586 292.115 100.417L293.418 98.3924C297.513 99.6043 301.907 99.2989 305.794 97.5323C309.682 95.7658 312.802 92.6565 314.581 88.7752C316.361 84.8939 316.682 80.5008 315.484 76.4023C314.286 72.3037 311.651 68.7745 308.061 66.4624H308.057Z" fill="#F0F2F5"/>
<path d="M191.673 62.3232C193.266 61.0634 193.536 58.7509 192.276 57.158C191.016 55.5652 188.704 55.2951 187.111 56.5549C185.518 57.8147 185.248 60.1272 186.508 61.7201C187.767 63.3129 190.08 63.583 191.673 62.3232Z" fill="#F0F2F5"/>
<path d="M189.392 26.3359C186.058 26.3359 182.86 27.6604 180.502 30.018C178.145 32.3756 176.82 35.5732 176.82 38.9074V38.9188C176.822 39.2021 176.936 39.4731 177.138 39.6723C177.339 39.8715 177.611 39.9828 177.895 39.9817H183.356C183.645 39.9801 183.921 39.8642 184.124 39.6594C184.327 39.4545 184.441 39.1774 184.44 38.8888C184.44 38.825 184.44 38.7607 184.44 38.6959C184.482 37.7265 184.807 36.7906 185.376 36.0045C185.945 35.2184 186.732 34.6168 187.64 34.2744C188.548 33.932 189.537 33.864 190.483 34.0787C191.429 34.2934 192.292 34.7815 192.963 35.4822C193.634 36.1829 194.085 37.0654 194.258 38.02C194.432 38.9747 194.322 39.9594 193.941 40.8518C193.56 41.7442 192.925 42.5049 192.115 43.0395C191.305 43.5742 190.356 43.859 189.386 43.8588H189.339C188.84 43.8518 188.344 43.9439 187.881 44.1297C187.418 44.3155 186.996 44.5914 186.64 44.9414C186.284 45.2913 186.001 45.7084 185.807 46.1685C185.614 46.6286 185.513 47.1225 185.512 47.6217V52.6859C185.512 52.8285 185.54 52.9696 185.594 53.1012C185.649 53.2329 185.729 53.3525 185.83 53.4532C185.931 53.5539 186.05 53.6337 186.182 53.6881C186.314 53.7425 186.455 53.7704 186.597 53.7702H191.822C192.109 53.7702 192.385 53.656 192.588 53.4527C192.792 53.2493 192.906 52.9735 192.906 52.6859V50.9788C195.813 50.1334 198.318 48.267 199.96 45.7227C201.601 43.1784 202.269 40.1271 201.841 37.1297C201.413 34.1323 199.917 31.3901 197.629 29.4071C195.341 27.4241 192.414 26.3336 189.386 26.3359H189.392Z" fill="#F0F2F5"/>
<path d="M111.206 107.457C112.944 105.177 112.505 101.921 110.226 100.183C107.947 98.4444 104.69 98.883 102.952 101.162C101.214 103.441 101.652 106.698 103.932 108.436C106.211 110.174 109.467 109.736 111.206 107.457Z" fill="#F0F2F5"/>
<path d="M73.4511 71.8915C70.1863 75.2787 68.4008 79.8241 68.4874 84.5278C68.5739 89.2314 70.5254 93.708 73.9125 96.9729L73.9239 96.9843C74.2137 97.2596 74.6007 97.4087 75.0003 97.3991C75.3998 97.3894 75.7792 97.2218 76.0554 96.9329L81.4025 91.3858C81.542 91.2401 81.6514 91.0684 81.7245 90.8804C81.7977 90.6925 81.8331 90.4919 81.8287 90.2903C81.8243 90.0886 81.7802 89.8898 81.699 89.7052C81.6178 89.5206 81.501 89.3538 81.3553 89.2143C81.2911 89.15 81.2268 89.0858 81.1639 89.0201C80.2195 88.0285 79.5872 86.7814 79.3457 85.4336C79.1041 84.0857 79.264 82.6966 79.8053 81.4388C80.3466 80.1811 81.2456 79.1101 82.3905 78.3589C83.5354 77.6078 84.8757 77.2096 86.245 77.2139C87.6143 77.2182 88.9522 77.6247 90.0924 78.3829C91.2326 79.1412 92.1249 80.2178 92.6583 81.4789C93.1918 82.74 93.343 84.1301 93.093 85.4764C92.8431 86.8227 92.2031 88.0659 91.2525 89.0515L91.2068 89.0986C90.7112 89.5989 90.3197 90.1924 90.055 90.8449C89.7903 91.4975 89.6577 92.196 89.6647 92.9001C89.6717 93.6043 89.8183 94.3 90.096 94.9471C90.3737 95.5942 90.777 96.1798 91.2825 96.6701L94.5825 99.8501L96.4296 101.633C96.5743 101.772 96.7451 101.882 96.9322 101.956C97.1193 102.029 97.3191 102.065 97.5201 102.061C97.7211 102.058 97.9194 102.014 98.1036 101.934C98.2879 101.854 98.4545 101.738 98.5939 101.593L103.71 96.2858C103.849 96.1412 103.959 95.9705 104.033 95.7834C104.106 95.5964 104.142 95.3966 104.139 95.1956C104.135 94.9946 104.092 94.7963 104.012 94.612C103.932 94.4277 103.816 94.261 103.671 94.1215L101.937 92.4501C103.922 88.6681 104.476 84.2969 103.498 80.1392C102.519 75.9815 100.074 72.3163 96.6101 69.8166C93.1466 67.3169 88.8976 66.1506 84.6433 66.5318C80.3891 66.9129 76.4151 68.816 73.4511 71.8915Z" fill="#F0F2F5"/>
</g>
<path d="M242.421 257.303L240.779 228.359L260.533 203.711L243.911 159.963C243.422 158.675 242.642 157.517 241.632 156.579C240.621 155.642 239.408 154.95 238.087 154.559L214.767 147.64L213.456 146.156C213.163 145.823 212.798 145.562 212.39 145.391C211.981 145.22 211.539 145.144 211.097 145.169L183.519 146.701C182.826 146.74 182.159 146.969 181.589 147.364C181.019 147.759 180.57 148.304 180.291 148.939L179.149 151.536L156.183 162.794C154.506 163.617 153.065 164.85 151.993 166.381C150.922 167.911 150.256 169.687 150.057 171.544L145.25 216.474L160.777 239.799L158.076 257.303H242.421Z" fill="#F9A21B"/>
<path d="M189.954 177.413C190.089 176.447 190.043 175.464 189.82 174.513C193.416 175.093 196.431 174.699 198.873 173.891L217.767 257.293H178.867L189.954 177.413Z" fill="#1F4168"/>
<path d="M211.638 147.245L206.353 159.434L201.374 163.941C200.175 165.026 199.286 166.411 198.798 167.953C198.311 169.495 198.242 171.139 198.6 172.717L198.867 173.894C196.426 174.703 193.41 175.097 189.814 174.517C189.531 173.307 188.967 172.182 188.167 171.231L186.497 169.241C185.387 167.919 184.711 166.287 184.56 164.567L183.266 150.335L186.147 148.875V145.625L210.261 144.68L211.638 147.245Z" fill="#FFC89F"/>
<path d="M210.271 131.062H186.156V150.332H210.271V131.062Z" fill="#FFC89F"/>
<path d="M178.405 131.862C178.405 140.732 185.595 147.922 194.464 147.922C203.333 147.922 210.523 140.732 210.523 131.862V112.245C210.523 103.375 203.333 96.1847 194.464 96.1847C185.595 96.1847 178.405 103.375 178.405 112.245V131.862Z" fill="#FFC89F"/>
<path d="M186.156 145.617V148.867C187.828 148.879 191.013 148.494 193.842 146.986C190.831 147.623 188.346 146.891 186.156 145.617Z" fill="#FF9A6C"/>
<path d="M185.235 121.493C186.033 121.493 186.68 120.846 186.68 120.047C186.68 119.249 186.033 118.602 185.235 118.602C184.436 118.602 183.789 119.249 183.789 120.047C183.789 120.846 184.436 121.493 185.235 121.493Z" fill="#1B1B2F"/>
<path d="M181.68 117.327C182.483 116.569 183.549 116.153 184.654 116.166C184.722 116.162 184.791 116.165 184.858 116.175L185.064 116.195L185.268 116.216C185.335 116.226 185.403 116.245 185.468 116.259C185.601 116.292 185.735 116.322 185.867 116.356C185.998 116.39 186.124 116.452 186.251 116.499L186.441 116.573L186.621 116.667L186.981 116.859C187.21 117.002 187.428 117.166 187.645 117.325C187.405 117.197 187.18 117.052 186.941 116.932L186.577 116.765L186.395 116.682L186.204 116.62C186.078 116.58 185.951 116.539 185.827 116.496C185.703 116.453 185.567 116.442 185.437 116.415C185.373 116.402 185.308 116.383 185.243 116.375L185.045 116.357C184.915 116.34 184.783 116.331 184.651 116.332C184.121 116.322 183.593 116.405 183.091 116.579C182.964 116.617 182.844 116.673 182.718 116.722C182.593 116.77 182.477 116.835 182.358 116.896C182.12 117.02 181.893 117.164 181.68 117.327Z" fill="#1B1B2F"/>
<path d="M200.414 121.493C201.213 121.493 201.86 120.846 201.86 120.047C201.86 119.249 201.213 118.602 200.414 118.602C199.616 118.602 198.969 119.249 198.969 120.047C198.969 120.846 199.616 121.493 200.414 121.493Z" fill="#1B1B2F"/>
<path d="M196.859 118.656C197.252 118.278 197.717 117.983 198.227 117.789C198.737 117.584 199.284 117.483 199.834 117.493C199.902 117.49 199.97 117.493 200.038 117.502L200.244 117.523L200.448 117.545C200.515 117.555 200.582 117.573 200.648 117.588C200.781 117.62 200.915 117.65 201.048 117.685L201.431 117.828L201.621 117.902L201.801 117.998L202.161 118.189C202.389 118.332 202.608 118.496 202.825 118.655C202.585 118.528 202.359 118.38 202.121 118.262L201.757 118.095L201.575 118.012L201.385 117.95C201.258 117.91 201.131 117.869 201.007 117.826C200.882 117.783 200.747 117.772 200.618 117.743C200.552 117.732 200.488 117.713 200.422 117.705L200.225 117.686C200.094 117.669 199.963 117.661 199.831 117.662C199.3 117.652 198.772 117.735 198.271 117.909C198.144 117.948 198.024 118.003 197.898 118.052C197.772 118.1 197.657 118.165 197.538 118.226C197.299 118.349 197.072 118.493 196.859 118.656Z" fill="#1B1B2F"/>
<path d="M190.527 124.703C190.474 125.327 190.404 125.949 190.33 126.569C190.256 127.189 190.173 127.81 190.087 128.426C190.029 128.728 190.005 129.035 190.017 129.342C190.034 129.646 190.103 129.944 190.221 130.225C190.335 130.507 190.529 130.75 190.78 130.923C191.04 131.095 191.307 131.259 191.567 131.435C191.281 131.292 191.013 131.142 190.737 130.995C190.46 130.824 190.24 130.576 190.104 130.28C189.963 129.99 189.879 129.675 189.857 129.353C189.84 129.035 189.862 128.716 189.92 128.403C190.01 127.785 190.099 127.166 190.206 126.546C190.313 125.926 190.406 125.317 190.527 124.703Z" fill="#1B1B2F"/>
<path d="M195.579 133.182C195.13 133.219 194.702 133.262 194.276 133.325C193.85 133.388 193.433 133.458 193.022 133.555C192.917 133.576 192.815 133.599 192.713 133.629L192.406 133.71C192.205 133.775 191.997 133.828 191.797 133.902C191.387 134.029 190.996 134.206 190.57 134.359C190.877 134.026 191.238 133.748 191.637 133.536C191.837 133.427 192.043 133.332 192.255 133.25C192.468 133.174 192.686 133.109 192.907 133.058C193.349 132.954 193.803 132.91 194.256 132.925C194.709 132.933 195.156 133.02 195.579 133.182Z" fill="#E43F5A"/>
<path d="M182.068 114.284C182.046 113.968 182.095 113.651 182.21 113.356C182.265 113.208 182.331 113.065 182.406 112.927C182.446 112.859 182.489 112.794 182.532 112.73C182.574 112.663 182.622 112.599 182.675 112.539C183.074 112.034 183.61 111.656 184.219 111.45C184.37 111.395 184.526 111.354 184.685 111.326L184.919 111.28C184.999 111.27 185.078 111.267 185.158 111.264C185.316 111.257 185.475 111.254 185.63 111.264C185.786 111.274 185.94 111.311 186.092 111.341C186.169 111.354 186.243 111.373 186.318 111.391C186.392 111.41 186.46 111.443 186.535 111.473C186.678 111.529 186.82 111.593 186.953 111.66C187.088 111.736 187.215 111.824 187.335 111.921C187.458 112.018 187.573 112.125 187.679 112.241C187.399 112.342 187.113 112.422 186.822 112.483C186.69 112.52 186.562 112.554 186.438 112.581C186.375 112.599 186.313 112.607 186.253 112.619C186.193 112.63 186.133 112.659 186.075 112.673C185.958 112.704 185.842 112.736 185.729 112.757C185.616 112.779 185.509 112.829 185.4 112.856C185.347 112.873 185.292 112.879 185.239 112.897C185.186 112.916 185.135 112.934 185.083 112.953L184.928 113L184.849 113.021L184.773 113.051C184.349 113.197 183.933 113.365 183.528 113.556C183.085 113.75 182.636 113.987 182.068 114.284Z" fill="#1B1B2F"/>
<path d="M201.693 113.857C201.507 114.113 201.266 114.325 200.987 114.477C200.849 114.552 200.706 114.618 200.559 114.674C200.486 114.701 200.416 114.723 200.336 114.744C200.262 114.77 200.186 114.789 200.109 114.802C199.479 114.933 198.824 114.878 198.225 114.644C198.076 114.588 197.933 114.519 197.796 114.44L197.586 114.323C197.519 114.278 197.455 114.231 197.393 114.18C197.267 114.083 197.145 113.984 197.029 113.878C196.913 113.773 196.822 113.642 196.725 113.522C196.675 113.464 196.629 113.401 196.582 113.338C196.535 113.275 196.502 113.207 196.467 113.137C196.395 113.001 196.325 112.863 196.267 112.725C196.162 112.432 196.101 112.124 196.086 111.812C196.363 111.916 196.633 112.037 196.895 112.177C197.02 112.232 197.14 112.288 197.253 112.348C197.31 112.375 197.365 112.408 197.417 112.438C197.47 112.468 197.535 112.485 197.589 112.511C197.7 112.563 197.807 112.613 197.909 112.67C198.01 112.727 198.122 112.755 198.223 112.812C198.275 112.834 198.322 112.864 198.373 112.884C198.425 112.904 198.477 112.923 198.527 112.941L198.679 113.005L198.753 113.04L198.83 113.065C199.248 113.227 199.674 113.365 200.107 113.48C200.572 113.598 201.072 113.705 201.693 113.857Z" fill="#1B1B2F"/>
<path d="M197.218 104.556V108.944C197.216 112.029 198.38 115.001 200.478 117.263C202.575 119.526 205.45 120.911 208.526 121.143L210.268 121.343V135.667L213.323 133.926C214.351 133.338 215.155 132.426 215.609 131.333C216.795 128.476 219.126 122.826 219.796 120.893C223.296 110.779 221.669 100.179 211.431 98.2629C208.251 97.6747 205.018 97.4214 201.785 97.5072L193.853 92.7286C186.946 88.5686 177.948 90.6386 173.633 97.4429C171.433 100.911 169.662 104.633 168.361 108.529C167.331 111.615 167.396 114.962 168.545 118.007C169.694 121.051 171.857 123.607 174.669 125.243L178.383 127.407V113.547L180.205 109.156C180.881 107.526 182.051 106.149 183.552 105.22C185.052 104.29 186.806 103.855 188.566 103.976L197.218 104.556Z" fill="#1B1A2E"/>
<path d="M210.974 131.227H211.81C213.459 131.227 214.797 129.889 214.797 128.239V122.905C214.797 121.255 213.459 119.918 211.81 119.918H210.974C209.324 119.918 207.987 121.255 207.987 122.905V128.239C207.987 129.889 209.324 131.227 210.974 131.227Z" fill="#FFC89F"/>
<path d="M210.469 121.694C210.76 121.664 211.055 121.681 211.34 121.747C211.631 121.82 211.907 121.939 212.159 122.102C212.671 122.435 213.059 122.928 213.262 123.504C213.363 123.791 213.416 124.093 213.42 124.397C213.42 124.694 213.41 124.969 213.396 125.263C213.372 125.834 213.334 126.406 213.263 126.977C213.193 126.406 213.156 125.834 213.132 125.263C213.114 124.977 213.117 124.684 213.099 124.406C213.088 124.136 213.036 123.869 212.943 123.616C212.858 123.359 212.731 123.118 212.569 122.902C212.411 122.679 212.222 122.482 212.006 122.316C211.788 122.147 211.547 122.008 211.292 121.903C211.026 121.801 210.75 121.731 210.469 121.694Z" fill="#FF9A6C"/>
<path d="M211.573 127.803C211.417 127.721 211.28 127.607 211.171 127.469C211.062 127.331 210.976 127.178 210.915 127.013C210.854 126.849 210.82 126.675 210.814 126.5C210.805 126.324 210.835 126.148 210.901 125.984C210.973 126.149 211.021 126.303 211.075 126.454L211.233 126.896L211.4 127.333C211.457 127.483 211.52 127.632 211.573 127.803Z" fill="#FF9A6C"/>
<path d="M201.798 97.5051C201.798 97.5051 198.083 95.0651 197.41 89.9766C197.41 89.9766 192.772 94.3637 201.798 97.5051Z" fill="#1B1A2E"/>
<path d="M211.643 116.245C210.338 116.394 209.019 116.359 207.724 116.139C206.422 115.934 205.161 115.52 203.99 114.915C202.819 114.302 201.784 113.459 200.946 112.437C200.126 111.408 199.505 110.234 199.117 108.977L199.303 109.431C199.364 109.581 199.419 109.735 199.494 109.881C199.637 110.175 199.77 110.472 199.941 110.751C200.256 111.32 200.626 111.857 201.046 112.354C201.466 112.849 201.932 113.303 202.439 113.709C202.946 114.114 203.492 114.468 204.069 114.767C205.223 115.369 206.463 115.789 207.746 116.012C208.387 116.132 209.035 116.21 209.686 116.248C210.337 116.292 210.991 116.291 211.643 116.245Z" fill="#1F4168"/>
<path d="M197.222 104.556C196.622 104.021 195.988 103.526 195.324 103.073C194.665 102.616 193.981 102.195 193.276 101.812C191.873 101.036 190.378 100.437 188.826 100.031C187.277 99.6167 185.674 99.4432 184.072 99.5164C183.871 99.5164 183.672 99.5364 183.472 99.5564C183.272 99.5764 183.074 99.5864 182.875 99.6164C182.479 99.6778 182.081 99.7264 181.691 99.8206C180.904 99.9839 180.13 100.204 179.375 100.479C180.867 99.8585 182.452 99.4887 184.065 99.3849C185.682 99.2917 187.303 99.4541 188.869 99.8664C189.651 100.07 190.418 100.329 191.164 100.641C191.91 100.947 192.637 101.3 193.339 101.698C194.748 102.485 196.052 103.445 197.222 104.556Z" fill="#1F4168"/>
<path d="M195.337 103.036C194.418 102.603 193.452 102.277 192.458 102.065C191.47 101.84 190.463 101.708 189.45 101.669C189.197 101.65 188.944 101.66 188.69 101.655H188.311C188.184 101.655 188.057 101.667 187.931 101.673L187.173 101.716L186.417 101.805L186.04 101.847C185.913 101.86 185.79 101.89 185.664 101.91L184.915 102.053C184.415 102.147 183.928 102.292 183.43 102.402L184.161 102.179L184.527 102.07L184.707 102L184.893 101.957L185.641 101.797C185.765 101.772 185.89 101.739 186.015 101.722L186.395 101.666C186.648 101.63 186.901 101.592 187.154 101.562L187.92 101.51C188.047 101.503 188.174 101.49 188.303 101.489H188.685C188.941 101.489 189.197 101.479 189.453 101.489L190.218 101.542C190.473 101.565 190.725 101.603 190.98 101.635C191.234 101.666 191.484 101.717 191.735 101.76C191.987 101.803 192.235 101.865 192.484 101.927C192.733 101.99 192.977 102.06 193.221 102.135C193.465 102.209 193.705 102.296 193.947 102.379C194.427 102.561 194.891 102.781 195.337 103.036Z" fill="#1F4168"/>
<path d="M177.631 101.289C177.274 101.584 176.939 101.907 176.631 102.253C176.317 102.596 176.031 102.962 175.774 103.349C175.252 104.111 174.903 104.978 174.754 105.889C174.687 106.343 174.68 106.804 174.736 107.259C174.795 107.716 174.911 108.163 175.081 108.59C175.44 109.447 175.936 110.24 176.551 110.936C176.393 110.766 176.231 110.596 176.078 110.42C175.926 110.245 175.78 110.059 175.65 109.865C175.514 109.674 175.389 109.475 175.276 109.27C175.22 109.166 175.157 109.068 175.107 108.96L174.964 108.639C174.586 107.766 174.457 106.806 174.59 105.865C174.748 104.931 175.117 104.045 175.67 103.276C176.207 102.508 176.87 101.836 177.631 101.289Z" fill="#1F4168"/>
<g style="mix-blend-mode:multiply" opacity="0.4">
<path d="M203.391 162.651L207.142 160.242C207.142 160.242 208.142 161.919 209.769 162.695L207.825 162.079C206.86 161.773 205.822 161.791 204.868 162.129L203.391 162.651Z" fill="#A65B3C"/>
</g>
<g style="mix-blend-mode:multiply" opacity="0.4">
<path d="M182.281 165.969C182.281 165.969 184.178 168.144 185.228 168.812L183.963 168.264C183.453 168.046 182.895 167.965 182.344 168.03L177.781 168.582C177.781 168.582 179.874 168.352 182.281 165.969Z" fill="#A65B3C"/>
</g>
<g style="mix-blend-mode:multiply" opacity="0.4">
<path d="M240.35 219.081L241.727 213.331C242.421 210.429 242.587 207.425 242.217 204.464L239.398 181.977L240.35 219.081Z" fill="#A65B3C"/>
</g>
<g style="mix-blend-mode:multiply" opacity="0.4">
<path d="M178.875 257.282L187.606 194.375L183.346 237.556C183.004 241.012 183.148 244.498 183.775 247.914L185.499 257.279L178.875 257.282Z" fill="#1F4168"/>
</g>
<g style="mix-blend-mode:multiply" opacity="0.4">
<path d="M162.998 223.436L159.508 195.836L159.886 209.952C159.959 212.693 160.422 215.41 161.261 218.022L162.998 223.436Z" fill="#A65B3C"/>
</g>
<g style="mix-blend-mode:multiply" opacity="0.4">
<path d="M217.773 257.296L211.703 230.5L212.767 236.75C213.21 239.35 213.443 241.982 213.466 244.62L213.572 257.296H217.773Z" fill="#1F4168"/>
</g>
<g style="mix-blend-mode:multiply" opacity="0.4">
<path d="M238.604 257.3L233.234 230.805L241.186 257.3H238.604Z" fill="#A65B3C"/>
</g>
<path d="M240.35 219.08L240.174 213.565L240.02 208.049L239.713 197.019L239.454 185.986L239.324 180.47L239.219 174.953L239.394 180.469L239.549 185.985L239.856 197.015L240.114 208.047L240.243 213.563L240.35 219.08Z" fill="#A65B3C"/>
<path d="M162.99 223.441L162.26 217.947L161.553 212.451L160.138 201.46L158.773 190.461L158.09 184.962L157.43 179.461L158.16 184.954L158.867 190.45L160.28 201.441L161.647 212.44L162.33 217.938L162.99 223.441Z" fill="#A65B3C"/>
<path d="M162.992 223.442L163.416 220.433L163.855 217.428L164.755 211.42L165.688 205.419L166.165 202.419L166.658 199.422L166.235 202.429L165.796 205.435L164.895 211.442L163.962 217.445L163.485 220.445L162.992 223.442Z" fill="#A65B3C"/>
<path d="M238.607 257.296L237.552 252.269L236.52 247.238L234.455 237.175L232.438 227.101L231.431 222.065L230.445 217.023L231.5 222.051L232.531 227.082L234.595 237.146L236.612 247.219L237.621 252.256L238.607 257.296Z" fill="#A65B3C"/>
<path d="M243.219 210.287C243.933 210.002 244.673 209.757 245.412 209.53C246.15 209.303 246.902 209.102 247.653 208.923C248.404 208.745 249.167 208.593 249.939 208.469C250.71 208.345 251.473 208.257 252.244 208.203C251.862 208.266 251.477 208.306 251.102 208.377L250.53 208.47L249.959 208.577C249.2 208.72 248.444 208.876 247.694 209.062C246.944 209.247 246.196 209.432 245.452 209.633C245.079 209.736 244.708 209.842 244.337 209.952C243.957 210.059 243.589 210.173 243.219 210.287Z" fill="#A65B3C"/>
<path d="M160.821 218.844C160.494 218.863 160.168 218.884 159.843 218.913C159.517 218.941 159.191 218.966 158.865 219C158.215 219.067 157.565 219.133 156.918 219.227C156.271 219.321 155.624 219.409 154.98 219.513C154.335 219.617 153.694 219.743 153.047 219.86C153.364 219.774 153.68 219.69 153.998 219.613C154.317 219.536 154.638 219.47 154.96 219.406C155.603 219.273 156.245 219.176 156.9 219.081C157.554 218.987 158.203 218.93 158.857 218.887C159.511 218.844 160.167 218.823 160.821 218.844Z" fill="#A65B3C"/>
<path d="M182.281 165.961C182.476 166.179 182.678 166.392 182.887 166.6C183.091 166.808 183.303 167.012 183.517 167.212C183.946 167.612 184.374 168.004 184.828 168.379C185.283 168.755 185.73 169.125 186.196 169.482C186.661 169.84 187.131 170.187 187.603 170.538C187.351 170.386 187.102 170.23 186.856 170.071C186.614 169.904 186.367 169.744 186.13 169.57C185.893 169.395 185.656 169.222 185.424 169.041C185.193 168.86 184.964 168.674 184.736 168.488C184.291 168.102 183.853 167.71 183.44 167.29C183.022 166.875 182.635 166.431 182.281 165.961Z" fill="#A65B3C"/>
<path d="M173.281 168.569C173.68 168.656 174.084 168.715 174.491 168.746C174.897 168.783 175.305 168.794 175.713 168.78C176.526 168.76 177.334 168.639 178.118 168.42C178.508 168.312 178.89 168.179 179.261 168.02C179.634 167.858 179.997 167.674 180.348 167.469C180.697 167.26 181.031 167.028 181.348 166.776C181.513 166.654 181.664 166.517 181.82 166.386C181.976 166.254 182.118 166.1 182.27 165.969C181.996 166.273 181.703 166.56 181.393 166.826C181.079 167.092 180.748 167.336 180.401 167.557C179.701 167.995 178.942 168.332 178.147 168.557C177.351 168.774 176.529 168.886 175.704 168.89C174.885 168.899 174.069 168.79 173.281 168.569Z" fill="#A65B3C"/>
<path d="M179.138 151.531C178.678 152.96 178.203 154.388 177.726 155.808L176.281 160.073L174.8 164.326L174.05 166.448L173.281 168.573L173.98 166.43L174.694 164.287L176.143 160.023L177.624 155.77C178.121 154.357 178.623 152.941 179.138 151.531Z" fill="#A65B3C"/>
<path d="M215.57 163.696C215.476 162.43 215.399 161.163 215.323 159.897L215.115 156.097L214.942 152.289L214.866 150.387L214.805 148.484L214.935 150.384L215.052 152.283L215.26 156.084L215.435 159.886C215.488 161.159 215.538 162.432 215.57 163.696Z" fill="#A65B3C"/>
<path d="M207.141 160.242C207.574 160.914 208.126 161.501 208.771 161.974C209.408 162.449 210.11 162.831 210.855 163.106L211.426 163.291L211.569 163.338C211.616 163.352 211.665 163.361 211.712 163.372L211.998 163.438L212.283 163.504L212.426 163.536L212.569 163.556C212.766 163.581 212.963 163.609 213.161 163.638C213.358 163.666 213.556 163.682 213.755 163.686L214.353 163.716C214.752 163.716 215.152 163.696 215.553 163.694C215.155 163.728 214.755 163.764 214.353 163.786L213.752 163.776C213.551 163.779 213.349 163.769 213.149 163.746C212.949 163.725 212.749 163.704 212.549 163.678L212.406 163.661L212.263 163.628L211.968 163.565C211.573 163.482 211.184 163.373 210.803 163.239C210.047 162.955 209.338 162.557 208.701 162.059L208.465 161.869L208.245 161.662C208.095 161.527 207.952 161.384 207.816 161.234C207.554 160.93 207.327 160.598 207.141 160.242Z" fill="#A65B3C"/>
<path d="M201.383 163.938C201.847 163.605 202.32 163.285 202.793 162.966C203.266 162.648 203.747 162.341 204.221 162.028C204.696 161.715 205.184 161.415 205.671 161.116L206.401 160.671C206.649 160.528 206.893 160.385 207.141 160.242C206.91 160.411 206.674 160.571 206.44 160.734L205.726 161.214C205.253 161.531 204.771 161.839 204.297 162.152C203.823 162.465 203.334 162.765 202.849 163.064C202.363 163.362 201.879 163.654 201.383 163.938Z" fill="#A65B3C"/>
<path d="M212.453 182.254C214.167 182.097 215.882 181.955 217.596 181.817L222.739 181.418L227.882 181.054L230.453 180.882L233.025 180.727L230.453 180.952L227.882 181.162L222.739 181.561L217.596 181.927C215.883 182.042 214.169 182.155 212.453 182.254Z" fill="#A65B3C"/>
<path d="M223.12 202.086L220.239 200.921L217.363 199.742L217.003 199.599C216.885 199.551 216.762 199.504 216.643 199.441C216.407 199.317 216.194 199.152 216.017 198.952C215.84 198.753 215.7 198.524 215.603 198.275C215.556 198.151 215.519 198.023 215.493 197.892L215.416 197.511L214.805 194.464L213.609 188.365L213.025 185.312L212.453 182.258L213.093 185.299L213.717 188.344L214.942 194.436L215.54 197.486L215.615 197.868C215.639 197.991 215.674 198.113 215.719 198.231C215.901 198.705 216.248 199.099 216.696 199.339C216.806 199.399 216.925 199.446 217.045 199.498L217.402 199.649L220.259 200.864L223.12 202.086Z" fill="#A65B3C"/>
<path d="M233.016 180.727L233.051 184.224L233.071 187.721L233.087 194.721V196.469C233.104 196.766 233.082 197.064 233.02 197.355C232.947 197.647 232.816 197.922 232.635 198.162C232.453 198.402 232.225 198.604 231.964 198.754C231.831 198.828 231.699 198.887 231.567 198.949L231.171 199.135L229.589 199.879L226.42 201.359L224.831 202.091C224.561 202.207 224.269 202.266 223.974 202.266C223.68 202.266 223.388 202.207 223.117 202.091C223.387 202.2 223.676 202.254 223.968 202.248C224.259 202.243 224.546 202.179 224.811 202.059L226.383 201.297L229.534 199.779L231.106 199.024L231.501 198.837C231.633 198.774 231.766 198.712 231.887 198.644C232.133 198.503 232.348 198.313 232.518 198.086C232.688 197.859 232.811 197.599 232.877 197.324C232.936 197.042 232.956 196.754 232.939 196.467V194.718L232.956 187.718L232.976 184.221L233.016 180.727Z" fill="#A65B3C"/>
<path d="M240.772 228.353L244.9 232.746C248.596 236.678 255.059 235.847 257.633 231.104C261.567 223.857 266.896 212.496 271.319 197.561L288.764 192.077C289.261 191.92 289.706 191.631 290.05 191.24L292.23 188.767L302.009 181.624C302.286 181.422 302.496 181.139 302.609 180.815C302.723 180.49 302.734 180.139 302.643 179.807L304.064 178.568C304.306 178.358 304.488 178.088 304.591 177.784C304.693 177.481 304.713 177.155 304.649 176.841C304.58 176.509 304.389 176.214 304.112 176.017C303.836 175.82 303.495 175.734 303.159 175.777C302.95 175.297 302.563 174.918 302.08 174.72C301.596 174.521 301.054 174.519 300.569 174.714L288.69 179.501L281.69 180.486C281.462 180.518 281.23 180.5 281.01 180.432C280.79 180.364 280.587 180.248 280.417 180.093L283.489 177.021L287.327 174.307C287.842 173.943 288.204 173.401 288.343 172.786C288.481 172.17 288.387 171.525 288.077 170.976C287.894 170.651 287.642 170.371 287.339 170.155C287.036 169.938 286.689 169.791 286.323 169.723C285.957 169.655 285.58 169.668 285.22 169.761C284.859 169.854 284.523 170.025 284.236 170.261L280.417 173.404L270.05 179.483C268.265 180.529 266.916 182.183 266.25 184.143L265.452 186.491L252.234 208.214L240.352 219.083L240.772 228.353Z" fill="#FFC89F"/>
<path d="M162.997 223.44L160.773 239.791C160.773 239.791 147.487 235.968 130.673 220.965L115.73 220.855L102.781 218.493C102.567 218.453 102.365 218.362 102.194 218.227C102.022 218.092 101.887 217.917 101.799 217.717L97.0471 216.024C96.6478 215.882 96.2888 215.646 96.0005 215.335C95.7122 215.024 95.5033 214.649 95.3914 214.24L94.4614 214.013C94.0998 213.925 93.7822 213.709 93.5667 213.406C93.3513 213.102 93.2525 212.732 93.2885 212.361C93.3247 211.985 93.4974 211.635 93.774 211.377C94.0506 211.12 94.412 210.972 94.7899 210.963L95.0985 210.954L95.3757 210.383C95.5141 210.096 95.7258 209.852 95.9892 209.674C96.2527 209.496 96.5585 209.391 96.8757 209.37L110.304 208.455L117.684 206.907C117.894 206.862 118.093 206.776 118.269 206.654C118.445 206.531 118.594 206.374 118.709 206.193L115.154 205.077L110.88 204.014C110.368 203.886 109.912 203.593 109.583 203.18C109.254 202.766 109.071 202.256 109.061 201.728C109.055 201.355 109.136 200.986 109.298 200.649C109.459 200.313 109.697 200.018 109.993 199.79C110.288 199.562 110.632 199.405 110.999 199.334C111.365 199.262 111.743 199.277 112.103 199.377L116.556 200.615L125.477 201.701C127.076 201.896 128.585 202.542 129.829 203.566C131.072 204.589 131.997 205.946 132.496 207.477L132.661 207.987L147.114 217.724L162.997 223.44Z" fill="#FFC89F"/>
<path d="M95.0938 210.953C96.3652 210.996 97.6352 211.053 98.9066 211.113L102.717 211.309L106.525 211.539L108.428 211.666L110.331 211.809L108.425 211.737L106.519 211.65L102.707 211.452L98.898 211.222C97.6309 211.137 96.3623 211.055 95.0938 210.953Z" fill="#FF9A6C"/>
<path d="M95.39 214.239C95.3455 214.048 95.3495 213.848 95.4019 213.658C95.4543 213.468 95.5534 213.294 95.69 213.152C95.8276 213.007 95.9987 212.899 96.1884 212.836C96.378 212.772 96.5802 212.757 96.7772 212.791L99.0815 213.117L101.384 213.457C102.151 213.568 102.919 213.688 103.684 213.807H103.676C104.909 213.832 106.141 213.859 107.374 213.897L109.223 213.949L111.071 214.014H109.221L107.373 213.998C106.14 213.987 104.907 213.967 103.674 213.947H103.664C102.897 213.834 102.13 213.722 101.363 213.602L99.0629 213.247L96.7643 212.878C96.5779 212.842 96.3855 212.852 96.2037 212.907C96.022 212.962 95.8564 213.06 95.7215 213.194C95.5859 213.328 95.4849 213.494 95.4272 213.676C95.3695 213.858 95.3567 214.051 95.39 214.239Z" fill="#FF9A6C"/>
<path d="M101.801 217.724C101.71 217.493 101.677 217.244 101.705 216.997C101.732 216.75 101.819 216.514 101.958 216.308C102.096 216.102 102.283 215.933 102.502 215.816C102.72 215.698 102.964 215.635 103.212 215.633C103.355 215.633 103.498 215.646 103.631 215.653L106.949 215.869C108.055 215.951 109.161 216.027 110.266 216.116C111.372 216.204 112.476 216.294 113.579 216.401C112.472 216.354 111.365 216.291 110.258 216.226C109.151 216.16 108.045 216.083 106.939 216.011L103.622 215.769C103.479 215.759 103.336 215.743 103.212 215.739C103.01 215.736 102.809 215.776 102.623 215.855C102.437 215.935 102.269 216.052 102.131 216.2C101.941 216.399 101.81 216.646 101.752 216.914C101.695 217.184 101.712 217.464 101.801 217.724Z" fill="#FF9A6C"/>
<path d="M118.711 206.199C118.946 205.62 119.269 205.082 119.668 204.602C119.554 204.892 119.415 205.171 119.251 205.436C119.094 205.706 118.913 205.961 118.711 206.199Z" fill="#FF9A6C"/>
<path d="M120.102 207.258C120.388 207.505 120.692 207.731 121.012 207.935C121.17 208.036 121.329 208.141 121.493 208.232L121.739 208.375L121.989 208.508C122.658 208.856 123.354 209.151 124.07 209.391C124.432 209.499 124.784 209.626 125.156 209.708C125.34 209.752 125.522 209.802 125.706 209.842C125.89 209.882 126.077 209.912 126.262 209.951L126.54 210.006L126.826 210.046L127.389 210.125C127.763 210.174 128.142 210.196 128.519 210.239L127.947 210.222C127.759 210.212 127.567 210.222 127.376 210.195L126.804 210.135L126.519 210.105L126.233 210.059C126.046 210.028 125.859 209.996 125.672 209.962C125.484 209.928 125.3 209.876 125.114 209.834C124.742 209.755 124.38 209.632 124.014 209.526C123.293 209.28 122.595 208.971 121.927 208.604C121.261 208.24 120.646 207.787 120.102 207.258Z" fill="#FF9A6C"/>
<path d="M119.578 215.078C120.292 214.673 121.031 214.288 121.765 213.909C122.5 213.53 123.241 213.165 123.982 212.799C124.724 212.433 125.475 212.085 126.23 211.75C126.984 211.416 127.745 211.088 128.515 210.789L126.275 211.853L124.044 212.93L121.814 214.009L120.698 214.548L119.578 215.078Z" fill="#FF9A6C"/>
<path d="M110.258 210.79C110.271 211.109 110.306 211.427 110.365 211.74C110.419 212.054 110.493 212.364 110.586 212.668C110.768 213.274 111.036 213.852 111.382 214.382C111.555 214.646 111.749 214.897 111.962 215.13C112.18 215.36 112.413 215.573 112.661 215.769C112.912 215.964 113.178 216.138 113.458 216.289C113.594 216.372 113.744 216.432 113.886 216.508C114.029 216.583 114.179 216.632 114.326 216.698C113.708 216.516 113.124 216.232 112.599 215.858C112.338 215.667 112.094 215.453 111.871 215.219C111.65 214.982 111.449 214.729 111.268 214.46C110.571 213.366 110.222 212.086 110.268 210.789L110.258 210.79Z" fill="#FF9A6C"/>
<path d="M292.229 188.764C293.119 187.638 294.022 186.522 294.926 185.409C295.043 185.279 295.144 185.135 295.227 184.981C295.361 184.712 295.4 184.406 295.337 184.112C295.273 183.819 295.112 183.555 294.88 183.365C294.647 183.175 294.357 183.07 294.057 183.067C293.757 183.063 293.464 183.162 293.227 183.347C292.185 184.312 291.143 185.312 290.095 186.288L288.523 187.754L286.938 189.209L288.475 187.704L290.022 186.208L291.576 184.721L292.355 183.978L292.743 183.607L292.938 183.421C293.002 183.358 293.068 183.297 293.142 183.235C293.365 183.059 293.634 182.952 293.917 182.927C294.199 182.903 294.483 182.961 294.733 183.095C294.983 183.23 295.188 183.434 295.324 183.684C295.459 183.933 295.518 184.217 295.495 184.499C295.479 184.686 295.427 184.868 295.342 185.035C295.252 185.195 295.143 185.344 295.017 185.478C294.091 186.578 293.161 187.673 292.229 188.764Z" fill="#FF9A6C"/>
<path d="M302.645 179.808C302.555 179.473 302.364 179.173 302.098 178.951C301.835 178.733 301.512 178.601 301.172 178.572C300.834 178.541 300.496 178.617 300.203 178.788C299.918 178.969 299.632 179.166 299.346 179.359L295.889 181.622L294.153 182.742C293.866 182.935 293.567 183.112 293.26 183.272C292.952 183.432 292.635 183.558 292.322 183.711C291.069 184.282 289.815 184.854 288.555 185.409C289.792 184.801 291.033 184.206 292.278 183.615C292.586 183.472 292.902 183.329 293.203 183.164C293.506 183.004 293.8 182.827 294.083 182.635L295.812 181.504L299.283 179.268C299.569 179.084 299.855 178.898 300.158 178.715C300.467 178.543 300.822 178.472 301.174 178.51C301.526 178.548 301.858 178.695 302.123 178.929C302.253 179.045 302.365 179.18 302.455 179.329C302.542 179.478 302.606 179.64 302.645 179.808Z" fill="#FF9A6C"/>
<path d="M303.157 175.781C301.977 176.421 300.79 177.047 299.602 177.67L296.03 179.527L292.442 181.353L290.643 182.254L288.836 183.144L290.61 182.193L292.392 181.254L295.963 179.397L299.552 177.571C300.75 176.97 301.95 176.368 303.157 175.781Z" fill="#FF9A6C"/>
<path d="M288.735 181.242C288.83 181.822 288.878 182.409 288.878 182.996C288.877 183.586 288.829 184.175 288.735 184.758C288.637 185.34 288.494 185.913 288.307 186.472C288.211 186.75 288.105 187.025 287.988 187.295C287.867 187.562 287.738 187.828 287.594 188.082C287.831 187.547 288.034 186.998 288.202 186.438C288.371 185.88 288.501 185.311 288.592 184.735C288.689 184.16 288.747 183.579 288.764 182.996C288.794 182.412 288.774 181.828 288.735 181.242Z" fill="#FF9A6C"/>
<path d="M279.243 181.523C278.78 182.219 278.216 182.842 277.57 183.371C277.248 183.638 276.908 183.882 276.551 184.101C276.197 184.323 275.831 184.524 275.454 184.705C274.698 185.06 273.91 185.341 273.1 185.545C272.293 185.754 271.466 185.879 270.633 185.918C271.047 185.873 271.457 185.811 271.863 185.726C272.269 185.642 272.673 185.552 273.071 185.441C273.869 185.224 274.646 184.937 275.393 184.583C275.768 184.41 276.131 184.214 276.483 183.996C276.661 183.893 276.831 183.773 277.003 183.661C277.174 183.548 277.34 183.422 277.501 183.292C277.829 183.039 278.138 182.764 278.427 182.468C278.72 182.171 278.992 181.856 279.243 181.523Z" fill="#FF9A6C"/>
<path d="M281.782 189.387C280.812 189.31 279.844 189.209 278.881 189.069C277.918 188.929 276.957 188.77 276.001 188.592C275.045 188.413 274.092 188.202 273.144 187.972C272.668 187.856 272.196 187.736 271.73 187.612C271.261 187.48 270.791 187.352 270.328 187.203C270.804 187.32 271.277 187.434 271.747 187.543C272.216 187.653 272.692 187.76 273.175 187.865C274.125 188.073 275.077 188.275 276.032 188.452C276.51 188.547 276.988 188.632 277.461 188.72L278.898 188.962L279.612 189.077L280.327 189.183C280.818 189.262 281.301 189.315 281.782 189.387Z" fill="#FF9A6C"/>
<path d="M280.426 180.086C280.274 180.006 280.13 179.91 279.997 179.801C279.862 179.692 279.733 179.576 279.61 179.453C279.489 179.331 279.37 179.203 279.26 179.069C279.148 178.934 279.045 178.791 278.953 178.641C279.223 178.862 279.467 179.103 279.712 179.345L280.426 180.086Z" fill="#FF9A6C"/>
<path d="M285.121 257.499H114.589C114.532 257.499 114.478 257.476 114.438 257.436C114.398 257.396 114.375 257.341 114.375 257.285C114.375 257.228 114.398 257.173 114.438 257.133C114.478 257.093 114.532 257.07 114.589 257.07H285.121C285.178 257.07 285.232 257.093 285.272 257.133C285.312 257.173 285.335 257.228 285.335 257.285C285.335 257.341 285.312 257.396 285.272 257.436C285.232 257.476 285.178 257.499 285.121 257.499Z" fill="#1F4168"/>
<path d="M164.311 137.674C168.674 133.311 168.674 126.236 164.311 121.873C159.947 117.51 152.873 117.51 148.51 121.873C144.147 126.236 144.147 133.311 148.51 137.674C152.873 142.037 159.947 142.037 164.311 137.674Z" fill="white"/>
<path d="M156.408 141.012C154.184 141.012 152.01 140.353 150.161 139.117C148.312 137.881 146.871 136.125 146.02 134.071C145.169 132.016 144.946 129.755 145.38 127.574C145.814 125.393 146.885 123.389 148.457 121.817C150.03 120.244 152.034 119.173 154.215 118.739C156.396 118.306 158.657 118.528 160.711 119.379C162.766 120.23 164.522 121.672 165.758 123.521C166.993 125.37 167.653 127.544 167.653 129.768C167.649 132.749 166.463 135.607 164.356 137.715C162.248 139.823 159.389 141.009 156.408 141.012ZM156.408 118.666C154.213 118.666 152.066 119.317 150.241 120.537C148.415 121.757 146.992 123.491 146.152 125.519C145.312 127.548 145.092 129.78 145.52 131.934C145.949 134.087 147.006 136.065 148.558 137.618C150.111 139.17 152.089 140.227 154.243 140.656C156.396 141.084 158.628 140.864 160.657 140.024C162.685 139.184 164.419 137.761 165.639 135.935C166.859 134.11 167.51 131.963 167.51 129.768C167.506 126.824 166.336 124.003 164.254 121.922C162.173 119.84 159.352 118.67 156.408 118.666Z" fill="#1F4168"/>
<path d="M171.506 135.425C172.475 135.425 173.261 134.639 173.261 133.67C173.261 132.7 172.475 131.914 171.506 131.914C170.536 131.914 169.75 132.7 169.75 133.67C169.75 134.639 170.536 135.425 171.506 135.425Z" fill="white"/>
<path d="M171.508 135.49C171.147 135.491 170.793 135.384 170.493 135.183C170.192 134.982 169.958 134.697 169.819 134.363C169.681 134.029 169.644 133.662 169.715 133.308C169.785 132.953 169.959 132.627 170.214 132.372C170.47 132.116 170.795 131.942 171.15 131.871C171.504 131.801 171.872 131.837 172.206 131.975C172.54 132.113 172.825 132.347 173.026 132.648C173.227 132.948 173.334 133.302 173.334 133.663C173.333 134.147 173.141 134.611 172.798 134.954C172.456 135.296 171.992 135.489 171.508 135.49ZM171.508 131.979C171.175 131.979 170.849 132.077 170.572 132.262C170.295 132.447 170.079 132.71 169.951 133.018C169.823 133.325 169.79 133.664 169.855 133.991C169.92 134.318 170.08 134.618 170.315 134.854C170.551 135.089 170.851 135.25 171.178 135.315C171.504 135.38 171.843 135.347 172.151 135.219C172.459 135.092 172.722 134.876 172.907 134.599C173.092 134.322 173.191 133.996 173.191 133.663C173.191 133.217 173.013 132.789 172.698 132.473C172.382 132.157 171.955 131.98 171.508 131.979Z" fill="#1F4168"/>
<path d="M157.639 134.662C157.639 134.904 157.568 135.142 157.433 135.343C157.298 135.545 157.107 135.702 156.883 135.795C156.659 135.888 156.412 135.913 156.174 135.865C155.937 135.818 155.718 135.701 155.547 135.53C155.375 135.358 155.258 135.14 155.211 134.902C155.164 134.664 155.188 134.418 155.281 134.193C155.374 133.969 155.531 133.778 155.733 133.643C155.935 133.509 156.172 133.437 156.415 133.438C156.739 133.438 157.05 133.567 157.28 133.797C157.509 134.026 157.639 134.337 157.639 134.662Z" fill="#1F4168"/>
<path d="M156.414 123.645C155.864 123.645 155.319 123.753 154.811 123.963C154.303 124.173 153.842 124.482 153.453 124.87C153.064 125.259 152.756 125.721 152.545 126.228C152.335 126.736 152.227 127.281 152.227 127.831C152.228 127.925 152.266 128.015 152.333 128.081C152.4 128.147 152.491 128.184 152.585 128.183H154.404C154.5 128.183 154.592 128.145 154.659 128.077C154.727 128.009 154.765 127.917 154.765 127.821C154.765 127.799 154.765 127.778 154.765 127.756C154.778 127.433 154.886 127.121 155.074 126.859C155.263 126.597 155.525 126.395 155.827 126.281C156.13 126.166 156.459 126.143 156.774 126.214C157.09 126.285 157.377 126.447 157.601 126.68C157.825 126.913 157.976 127.207 158.034 127.525C158.092 127.843 158.056 128.171 157.929 128.468C157.802 128.766 157.591 129.019 157.321 129.197C157.052 129.376 156.736 129.471 156.412 129.471H156.397C156.23 129.468 156.065 129.499 155.911 129.561C155.756 129.623 155.616 129.715 155.497 129.832C155.378 129.948 155.284 130.087 155.22 130.241C155.155 130.394 155.121 130.559 155.121 130.725V132.418C155.121 132.514 155.159 132.606 155.227 132.673C155.294 132.741 155.386 132.779 155.482 132.779H157.222C157.318 132.779 157.41 132.741 157.478 132.673C157.546 132.606 157.584 132.514 157.584 132.418V131.846C158.55 131.563 159.383 130.942 159.928 130.095C160.473 129.248 160.695 128.233 160.553 127.236C160.41 126.239 159.913 125.327 159.153 124.666C158.392 124.006 157.419 123.642 156.412 123.641L156.414 123.645Z" fill="#1F4168"/>
</svg>
