<svg width="270" height="217" viewBox="0 0 270 217" fill="none" xmlns="http://www.w3.org/2000/svg">
<g clip-path="url(#clip0_1539_48702)">
<path opacity="0.15" d="M113.953 32.9609C75.1604 32.9609 48.1213 69.8796 16.952 112.879C-2.41775 139.599 6.40716 163.974 20.2846 181.789C27.457 190.983 36.5737 198.476 46.9817 203.733C57.3897 208.989 68.8314 211.879 80.4872 212.196C101.43 212.759 132.128 213.403 162.787 213.403C180.895 213.403 199.029 213.23 215.082 212.64C294.141 209.738 268.826 57.38 229.711 57.3863C228.809 57.3873 227.909 57.4664 227.02 57.6228C211.174 60.3847 204.116 62.4404 198.194 62.4404C188.656 62.4404 182.062 57.1088 146.477 40.8069C134.677 35.4013 123.934 32.9609 113.953 32.9609Z" fill="#679AE2"/>
<path opacity="0.15" d="M197.522 31.7094C192.111 31.7094 184.461 32.9454 184.461 38.9169C184.461 44.8885 194.288 50.9278 199.699 50.9278C205.109 50.9278 206.228 47.2894 206.228 41.3194C206.228 35.3494 202.932 31.7031 197.522 31.7031V31.7094Z" fill="#679AE2"/>
<path opacity="0.15" d="M185.062 10.8764C180.332 10.4539 176.974 14.8506 176.974 14.8506C179.181 7.70777 178.403 0.388361 169.94 0.0163215C156.009 -0.596914 150.419 16.2741 150.419 16.2741C150.419 16.2741 152.797 7.81812 143.592 9.27003C133.917 10.796 127.031 21.5568 127.031 21.5568H188.828C188.828 21.5568 191.891 11.4881 185.062 10.8764Z" fill="#679AE2"/>
<path opacity="0.15" d="M36.7689 51.629C33.7736 51.361 31.6455 54.1513 31.6455 54.1513C33.039 49.6253 32.5503 44.9875 27.1873 44.7526C18.3592 44.3632 14.8185 55.053 14.8185 55.053C14.8185 55.053 16.3256 49.6931 10.4928 50.6154C4.36358 51.5786 0 58.3967 0 58.3967H39.1525C39.1525 58.3967 41.0962 52.0152 36.7689 51.629Z" fill="#679AE2"/>
<path d="M211.1 54.1032H86.1109V214.678L86.0084 214.563H80.1094H215.953L217.113 68.3921V54.1032L211.096 48.0859L211.1 54.1032Z" fill="#3E68DE"/>
<path d="M211.104 48.0938H80.1016V214.556H211.104V48.0938Z" fill="#679AE2"/>
<path d="M205.353 53.5781H85.9219V208.178H205.353V53.5781Z" fill="#EFF8FF"/>
<path d="M145.604 26.7969C143.586 26.7966 141.613 27.3948 139.935 28.5158C138.256 29.6369 136.948 31.2305 136.176 33.0951C135.403 34.9596 135.201 37.0114 135.594 38.991C135.988 40.9705 136.96 42.7889 138.387 44.2161C139.814 45.6434 141.632 46.6154 143.611 47.0093C145.591 47.4031 147.643 47.2012 149.507 46.4289C151.372 45.6566 152.966 44.3487 154.087 42.6705C155.209 40.9924 155.807 39.0195 155.807 37.0012C155.807 34.2952 154.732 31.7002 152.818 29.7867C150.905 27.8731 148.31 26.7977 145.604 26.7969ZM145.604 38.6596C144.671 38.6596 143.758 38.3828 142.982 37.8641C142.206 37.3455 141.601 36.6084 141.244 35.7459C140.886 34.8835 140.793 33.9345 140.975 33.0189C141.157 32.1034 141.607 31.2624 142.267 30.6023C142.927 29.9422 143.768 29.4927 144.684 29.3106C145.599 29.1284 146.548 29.2219 147.411 29.5791C148.273 29.9364 149.01 30.5413 149.529 31.3175C150.047 32.0937 150.324 33.0062 150.324 33.9397C150.324 35.1915 149.827 36.392 148.942 37.2772C148.057 38.1623 146.856 38.6596 145.604 38.6596Z" fill="#163891"/>
<path d="M172.394 59.4528H118.82L119.665 45.9948C119.78 44.1454 120.596 42.4094 121.946 41.1403C123.297 39.8712 125.08 39.1645 126.933 39.1641H164.282C166.133 39.1644 167.916 39.8703 169.265 41.1381C170.615 42.4059 171.431 44.1403 171.547 45.9885L172.394 59.4528Z" fill="#3E68DE"/>
<path d="M175.26 58.0469H115.945V60.2161H175.26V58.0469Z" fill="#679AE2"/>
<path d="M196.041 98.1641H107.516V99.2881H196.041V98.1641Z" fill="#679AE2"/>
<path d="M196.041 102.328H107.516V103.452H196.041V102.328Z" fill="#679AE2"/>
<path d="M196.045 106.5H121.664V107.624H196.045V106.5Z" fill="#679AE2"/>
<path d="M102.559 107.723H92.8984V98.0625H102.559V107.723ZM94.2211 106.399H101.235V99.382H94.2211V106.399Z" fill="#679AE2"/>
<path d="M97.8445 106.442C97.7404 106.441 97.6379 106.416 97.5453 106.369C97.4527 106.321 97.3727 106.252 97.3117 106.168L93.8672 101.396L94.9407 100.622L97.8508 104.658L103.045 97.6172L104.111 98.4054L98.3774 106.177C98.3152 106.26 98.2347 106.327 98.1422 106.373C98.0497 106.419 97.9478 106.442 97.8445 106.442Z" fill="#3E68DE"/>
<path d="M196.041 124.766H107.516V125.89H196.041V124.766Z" fill="#679AE2"/>
<path d="M196.041 128.93H107.516V130.054H196.041V128.93Z" fill="#679AE2"/>
<path d="M196.045 133.102H121.664V134.226H196.045V133.102Z" fill="#679AE2"/>
<path d="M102.559 134.323H92.8984V124.664H102.559V134.323ZM94.2211 133H101.235V125.987H94.2211V133Z" fill="#679AE2"/>
<path d="M97.8476 133.045C97.7434 133.044 97.6408 133.019 97.5483 132.971C97.4557 132.923 97.3757 132.854 97.3148 132.769L93.875 127.999L94.9486 127.225L97.8587 131.261L103.053 124.219L104.119 125.007L98.3852 132.777C98.3228 132.861 98.2417 132.929 98.1483 132.975C98.0549 133.022 97.952 133.046 97.8476 133.045Z" fill="#3E68DE"/>
<path d="M196.041 151.367H107.516V152.491H196.041V151.367Z" fill="#679AE2"/>
<path d="M196.041 155.531H107.516V156.655H196.041V155.531Z" fill="#679AE2"/>
<path d="M196.045 159.703H121.664V160.827H196.045V159.703Z" fill="#679AE2"/>
<path d="M102.559 160.926H92.8984V151.266H102.559V160.926ZM94.2211 159.602H101.235V152.59H94.2211V159.602Z" fill="#679AE2"/>
<path d="M97.8476 159.645C97.7435 159.645 97.641 159.619 97.5484 159.572C97.4558 159.524 97.3758 159.455 97.3148 159.371L93.875 154.599L94.9486 153.825L97.8587 157.861L103.053 150.82L104.119 151.609L98.3852 159.38C98.3226 159.464 98.2413 159.531 98.1479 159.577C98.0546 159.623 97.9517 159.646 97.8476 159.645Z" fill="#3E68DE"/>
<path d="M196.041 177.969H107.516V179.093H196.041V177.969Z" fill="#679AE2"/>
<path d="M196.041 182.133H107.516V183.257H196.041V182.133Z" fill="#679AE2"/>
<path d="M196.045 186.305H121.664V187.429H196.045V186.305Z" fill="#679AE2"/>
<path d="M102.559 187.526H92.8984V177.867H102.559V187.526ZM94.2211 186.203H101.235V179.19H94.2211V186.203Z" fill="#679AE2"/>
<path d="M97.8445 186.253C97.7403 186.252 97.6377 186.227 97.5452 186.179C97.4526 186.131 97.3726 186.062 97.3117 185.977L93.8672 181.201L94.9407 180.428L97.8508 184.464L103.045 177.422L104.111 178.21L98.3774 185.98C98.316 186.064 98.2358 186.133 98.1433 186.18C98.0508 186.227 97.9485 186.252 97.8445 186.253Z" fill="#3E68DE"/>
<path d="M80.7493 214.133H2.54688V214.517H80.7493V214.133Z" fill="#3E68DE"/>
<path d="M193.761 214.133H104.711V214.517H193.761V214.133Z" fill="#3E68DE"/>
<path d="M270.004 214.133H206.836V214.517H270.004V214.133Z" fill="#3E68DE"/>
<path d="M76.5865 214.516C76.5865 214.516 76.0474 204.707 83.6111 203.323C90.806 202.005 94.8685 209.721 94.8685 209.721C94.8685 209.721 101.163 191.651 112.052 192.208C122.193 192.727 113.682 214.519 113.682 214.519L76.5865 214.516Z" fill="#3E68DE"/>
<path d="M207.727 214.516C207.727 214.516 209.527 204.584 217.089 203.198C224.285 201.879 226.009 209.717 226.009 209.717C226.009 209.717 231.748 198.143 242.637 198.699C252.778 199.218 244.822 214.516 244.822 214.516H207.727Z" fill="#3E68DE"/>
<path d="M197.122 212.243L184.459 205.466L171.797 212.243V180.914H197.122V212.243Z" fill="#EF487D"/>
<path d="M209.899 172.336L209.129 172.987C208.601 173.431 208.24 174.042 208.106 174.719C207.972 175.396 208.072 176.098 208.389 176.71L208.85 177.599C209.054 177.993 209.169 178.426 209.188 178.869C209.207 179.312 209.129 179.754 208.959 180.164C208.79 180.573 208.532 180.941 208.206 181.24C207.879 181.54 207.491 181.765 207.068 181.898L206.122 182.2C205.465 182.407 204.897 182.833 204.514 183.406C204.13 183.979 203.952 184.665 204.01 185.352L204.095 186.357C204.133 186.798 204.073 187.242 203.922 187.658C203.77 188.074 203.529 188.451 203.216 188.764C202.903 189.077 202.525 189.318 202.109 189.47C201.693 189.622 201.249 189.681 200.808 189.644L199.806 189.558C199.119 189.501 198.432 189.678 197.859 190.062C197.287 190.445 196.861 191.012 196.653 191.669L196.352 192.615C196.218 193.038 195.993 193.426 195.693 193.753C195.394 194.079 195.026 194.337 194.617 194.506C194.207 194.676 193.765 194.754 193.322 194.735C192.88 194.716 192.446 194.601 192.053 194.396L191.165 193.936C190.552 193.618 189.85 193.518 189.173 193.653C188.496 193.787 187.885 194.147 187.44 194.674L186.79 195.446C186.505 195.785 186.149 196.056 185.747 196.243C185.346 196.429 184.909 196.526 184.466 196.526C184.023 196.526 183.586 196.429 183.185 196.243C182.783 196.056 182.427 195.785 182.142 195.446L181.492 194.674C181.047 194.147 180.436 193.786 179.76 193.652C179.083 193.518 178.381 193.618 177.768 193.936L176.879 194.396C176.486 194.601 176.052 194.716 175.609 194.735C175.167 194.754 174.725 194.676 174.315 194.506C173.906 194.337 173.538 194.079 173.239 193.753C172.939 193.426 172.714 193.038 172.58 192.615L172.279 191.669C172.071 191.012 171.646 190.445 171.073 190.061C170.5 189.678 169.813 189.5 169.126 189.558L168.122 189.644C167.681 189.681 167.237 189.622 166.821 189.47C166.405 189.318 166.028 189.077 165.715 188.764C165.401 188.451 165.161 188.074 165.009 187.658C164.857 187.242 164.798 186.798 164.835 186.357L164.92 185.352C164.978 184.665 164.801 183.979 164.417 183.406C164.034 182.833 163.467 182.408 162.81 182.2L161.864 181.898C161.441 181.765 161.053 181.54 160.726 181.24C160.4 180.941 160.142 180.573 159.973 180.164C159.803 179.754 159.725 179.312 159.744 178.869C159.763 178.426 159.878 177.993 160.082 177.599L160.543 176.71C160.861 176.098 160.961 175.396 160.827 174.719C160.692 174.043 160.332 173.432 159.805 172.987L159.032 172.336C158.694 172.05 158.423 171.695 158.236 171.293C158.05 170.892 157.953 170.455 157.953 170.012C157.953 169.57 158.05 169.132 158.236 168.731C158.423 168.33 158.694 167.974 159.032 167.688L159.805 167.037C160.332 166.593 160.692 165.982 160.827 165.305C160.961 164.628 160.861 163.926 160.543 163.314L160.082 162.426C159.878 162.033 159.763 161.599 159.744 161.156C159.725 160.713 159.803 160.272 159.973 159.862C160.142 159.453 160.4 159.085 160.726 158.786C161.053 158.486 161.441 158.261 161.864 158.127L162.81 157.826C163.467 157.618 164.033 157.192 164.417 156.619C164.8 156.046 164.978 155.36 164.92 154.673L164.835 153.671C164.798 153.23 164.857 152.786 165.009 152.37C165.161 151.954 165.401 151.576 165.715 151.263C166.028 150.95 166.405 150.709 166.821 150.557C167.237 150.405 167.681 150.346 168.122 150.384L169.126 150.469C169.814 150.527 170.5 150.349 171.073 149.965C171.646 149.581 172.071 149.014 172.279 148.357L172.58 147.411C172.714 146.988 172.939 146.599 173.238 146.273C173.538 145.946 173.905 145.688 174.315 145.519C174.725 145.349 175.166 145.271 175.609 145.29C176.052 145.309 176.486 145.425 176.879 145.629L177.768 146.09C178.381 146.407 179.083 146.507 179.76 146.372C180.436 146.238 181.047 145.878 181.492 145.35L182.142 144.579C182.427 144.241 182.783 143.969 183.185 143.783C183.586 143.597 184.023 143.5 184.466 143.5C184.909 143.5 185.346 143.597 185.747 143.783C186.149 143.969 186.505 144.241 186.79 144.579L187.44 145.35C187.885 145.878 188.496 146.238 189.173 146.373C189.85 146.507 190.552 146.407 191.165 146.09L192.053 145.629C192.446 145.425 192.88 145.309 193.323 145.29C193.766 145.271 194.207 145.349 194.617 145.519C195.027 145.688 195.394 145.946 195.694 146.273C195.993 146.599 196.218 146.988 196.352 147.411L196.653 148.357C196.861 149.014 197.287 149.581 197.859 149.965C198.432 150.348 199.118 150.526 199.806 150.469L200.808 150.384C201.249 150.346 201.693 150.405 202.109 150.557C202.525 150.709 202.903 150.95 203.216 151.263C203.529 151.576 203.77 151.954 203.922 152.37C204.073 152.786 204.133 153.23 204.095 153.671L204.01 154.673C203.952 155.361 204.13 156.047 204.514 156.62C204.898 157.193 205.465 157.618 206.122 157.826L207.068 158.127C207.491 158.261 207.879 158.486 208.206 158.786C208.532 159.085 208.79 159.453 208.959 159.862C209.129 160.272 209.207 160.713 209.188 161.156C209.169 161.599 209.054 162.033 208.85 162.426L208.389 163.314C208.072 163.926 207.972 164.629 208.106 165.305C208.24 165.982 208.601 166.593 209.129 167.037L209.899 167.688C210.238 167.974 210.509 168.33 210.696 168.731C210.882 169.132 210.979 169.57 210.979 170.012C210.979 170.455 210.882 170.892 210.696 171.293C210.509 171.695 210.238 172.05 209.899 172.336Z" fill="#E9A71A"/>
<path d="M201.092 186.65C210.279 177.463 210.279 162.568 201.092 153.381C191.905 144.194 177.01 144.194 167.822 153.381C158.635 162.568 158.635 177.463 167.822 186.65C177.01 195.838 191.905 195.838 201.092 186.65Z" fill="#FFD32F"/>
<path d="M183.278 185.409C181.914 185.409 180.597 184.908 179.579 184L169.875 175.35C168.775 174.369 168.109 172.991 168.025 171.52C167.94 170.048 168.444 168.604 169.425 167.503C170.406 166.403 171.783 165.738 173.255 165.653C174.727 165.569 176.171 166.072 177.272 167.053L182.674 171.871L194.62 157.456C195.561 156.321 196.914 155.607 198.382 155.469C199.849 155.332 201.311 155.784 202.446 156.724C203.58 157.665 204.295 159.018 204.432 160.486C204.569 161.953 204.118 163.415 203.177 164.55L187.556 183.401C187.08 183.976 186.493 184.449 185.829 184.792C185.166 185.135 184.44 185.341 183.696 185.397C183.554 185.405 183.417 185.409 183.278 185.409Z" fill="white"/>
<path d="M82.8984 147.259L84.6041 144.859L85.1149 142.679L85.4223 142.7L85.2915 144.574L85.5327 144.536L85.9946 142.031L86.261 142.049L86.231 143.579L86.3209 144.536L86.5905 144.498L86.86 142.151L87.1564 142.112L87.1816 144.58L87.3787 144.602L87.7491 142.832L87.9777 142.865L87.8958 144.71C87.8958 144.71 87.4071 146.917 86.1018 148.228L82.8984 147.259Z" fill="#FFA08A"/>
<path d="M83.3731 146.695L76.5013 154.97C76.445 155.029 76.3924 155.091 76.3437 155.156C76.1832 155.376 76.0676 155.626 76.0035 155.891C75.9394 156.156 75.9281 156.43 75.9703 156.7C76.0125 156.969 76.1072 157.227 76.2492 157.46C76.3912 157.692 76.5776 157.895 76.7977 158.055C77.0179 158.216 77.2675 158.331 77.5324 158.395C77.7972 158.459 78.0721 158.471 78.3413 158.428C78.6105 158.386 78.8688 158.292 79.1013 158.15C79.3339 158.008 79.5362 157.821 79.6968 157.601L85.8165 148.682C85.8528 148.641 85.8859 148.6 85.919 148.555C86.1657 148.217 86.2679 147.795 86.2031 147.381C86.1384 146.968 85.912 146.597 85.5738 146.35C85.2355 146.103 84.8131 146.001 84.3995 146.066C83.9859 146.131 83.615 146.357 83.3683 146.695H83.3731Z" fill="#FFA08A"/>
<path d="M114.543 142.71C114.533 142.714 114.522 142.714 114.513 142.71C114.503 142.713 114.493 142.713 114.483 142.71C114.473 142.714 114.463 142.714 114.453 142.71C114.423 142.715 114.423 142.715 114.393 142.719C114.383 142.722 114.373 142.722 114.363 142.719C114.353 142.722 114.343 142.722 114.333 142.719C114.323 142.722 114.312 142.722 114.302 142.719C114.292 142.723 114.281 142.723 114.272 142.719C114.262 142.722 114.251 142.722 114.242 142.719C114.232 142.722 114.222 142.722 114.212 142.719C114.202 142.722 114.192 142.722 114.182 142.719C114.172 142.722 114.162 142.722 114.152 142.719C114.142 142.721 114.132 142.721 114.122 142.719C114.092 142.724 114.092 142.724 114.062 142.729H114.048C114.036 142.732 114.023 142.732 114.011 142.729C114.002 142.731 113.991 142.731 113.982 142.729H113.953H113.923C113.904 142.734 113.885 142.738 113.865 142.74C113.855 142.742 113.845 142.742 113.835 142.74H113.807L113.718 142.754L110.198 143.385C108.937 143.678 109.202 140.353 110.471 140.946L113.802 142.12L113.887 142.15C113.896 142.152 113.905 142.155 113.914 142.16L113.942 142.169L113.971 142.18C113.98 142.182 113.989 142.185 113.997 142.19C114.007 142.191 114.017 142.194 114.026 142.199L114.054 142.209C114.066 142.211 114.077 142.216 114.087 142.223C114.092 142.222 114.097 142.222 114.101 142.223C114.112 142.224 114.122 142.227 114.131 142.232C114.141 142.234 114.151 142.238 114.16 142.243C114.188 142.253 114.188 142.253 114.216 142.262C114.227 142.265 114.237 142.268 114.246 142.273C114.275 142.283 114.275 142.283 114.303 142.292C114.313 142.295 114.323 142.298 114.332 142.303C114.342 142.304 114.351 142.307 114.36 142.313C114.371 142.313 114.381 142.317 114.39 142.324C114.418 142.333 114.418 142.333 114.447 142.343C114.457 142.343 114.468 142.347 114.477 142.354C114.505 142.363 114.505 142.363 114.533 142.373C114.544 142.373 114.554 142.376 114.562 142.384C114.652 142.492 114.629 142.735 114.543 142.71Z" fill="#3E68DE"/>
<path d="M109.904 143.866L99.5772 146.411C98.5352 146.682 97.1006 147.137 96.0649 144.907C94.2883 141.078 96.6387 134.755 99.809 136.183C99.8279 136.183 110.247 140.529 110.264 140.538C111.285 140.895 111.174 143.638 109.904 143.866Z" fill="#F9CD93"/>
<path d="M95.5938 139.479L95.9453 144.935L98.1476 146.67L101.55 142.919L101.198 137.463L99.1991 135.977L95.5938 139.479Z" fill="#F4D03F"/>
<path d="M101.195 137.469L43.3281 132.482L43.4558 131.031L99.1956 135.983L101.195 137.469Z" fill="#FBC02D"/>
<path d="M101.547 142.92L42.8516 137.862L43.3292 132.477L101.196 137.464L101.547 142.92Z" fill="#FDD835"/>
<path d="M98.1498 146.669L42.5078 141.789L42.8562 137.859L101.552 142.918L98.1498 146.669Z" fill="#FFEE58"/>
<path d="M50.2856 210.095L49.1932 211.933L46.9609 210.859L47.6829 208.922L50.2856 210.095Z" fill="#FFA08A"/>
<path d="M66.4566 175.795C68.6261 173.626 68.6261 170.108 66.4566 167.939C64.2871 165.769 60.7696 165.769 58.6001 167.939C56.4306 170.108 56.4306 173.626 58.6001 175.795C60.7696 177.965 64.2871 177.965 66.4566 175.795Z" fill="#3B3348"/>
<path d="M57.3229 174.159C57.5073 172.376 58.5162 170.863 58.9466 169.115L60.8383 164.351L62.2493 162.755C62.9824 162.46 63.7737 162.338 64.5618 162.397C65.3498 162.457 66.1137 162.697 66.7941 163.099C67.4793 163.507 68.0635 164.064 68.5033 164.729C68.943 165.394 69.2269 166.149 69.3338 166.939L63.5877 190.308V190.365C63.5446 190.837 63.4085 191.296 63.1872 191.714C62.966 192.133 62.6639 192.504 62.2985 192.806C61.933 193.107 61.5115 193.333 61.0582 193.471C60.6049 193.609 60.1288 193.655 59.6574 193.608C59.1861 193.56 58.7288 193.42 58.3119 193.195C57.8951 192.97 57.527 192.664 57.2288 192.296C56.9307 191.928 56.7085 191.504 56.575 191.05C56.4415 190.595 56.3994 190.119 56.4511 189.648L57.3229 174.159Z" fill="#3B3348"/>
<path d="M59.4631 174.612C59.9401 174.658 60.4184 174.54 60.8195 174.278C61.2206 174.016 61.5206 173.625 61.6701 173.17L62.3164 171.231C62.3373 171.171 62.3337 171.106 62.3064 171.049C62.279 170.992 62.2302 170.948 62.1706 170.927C62.111 170.907 62.0456 170.91 61.9887 170.938C61.9318 170.965 61.8881 171.014 61.8672 171.073L61.2224 173.012C61.0897 173.421 60.8008 173.761 60.4187 173.957C60.0366 174.154 59.5922 174.192 59.1825 174.062L58.8026 173.938C58.7727 173.927 58.741 173.922 58.7092 173.923C58.6775 173.925 58.6463 173.933 58.6177 173.947C58.5891 173.961 58.5636 173.98 58.5427 174.004C58.5218 174.028 58.5059 174.056 58.496 174.086C58.4862 174.116 58.4825 174.148 58.4853 174.18C58.488 174.212 58.4971 174.243 58.512 174.271C58.527 174.299 58.5474 174.323 58.5721 174.343C58.5969 174.363 58.6254 174.378 58.6559 174.387L59.0359 174.512C59.1744 174.56 59.3176 174.594 59.4631 174.612Z" fill="#564C72"/>
<path d="M66.4694 176.679C66.5258 176.684 66.5823 176.669 66.6286 176.637C66.6749 176.604 66.7079 176.556 66.7216 176.501L67.8787 171.823C67.8911 171.764 67.8798 171.701 67.8472 171.649C67.8147 171.598 67.7633 171.561 67.704 171.546C67.6446 171.531 67.5819 171.54 67.529 171.571C67.476 171.601 67.437 171.651 67.42 171.71L66.2645 176.387C66.2497 176.448 66.2597 176.512 66.2922 176.566C66.3247 176.619 66.3771 176.658 66.4379 176.673L66.4694 176.679Z" fill="#564C72"/>
<path d="M57.0322 188.405C57.0572 188.381 57.0835 188.358 57.111 188.337C58.1625 187.371 59.6586 187.234 61.0174 187.885C61.8756 188.301 62.5335 189.041 62.8465 189.942C63.1595 190.843 63.1021 191.831 62.6869 192.69L62.668 192.728L62.6033 192.852C62.4994 193.042 62.3791 193.221 62.2439 193.39L50.378 210.475C50.378 210.475 49.4085 210.179 47.3828 208.795C47.3797 208.795 56.2661 188.798 57.0322 188.405Z" fill="#3B3348"/>
<path d="M50.0626 211.102L50.9533 212.918C50.9533 212.918 51.7967 214.255 52.1435 214.714C52.4903 215.172 51.959 215.363 51.959 215.363L51.4971 215.546C51.3603 215.599 51.213 215.619 51.0669 215.606C50.9208 215.592 50.7799 215.545 50.6553 215.467L49.2066 214.564L48.8519 214.206L47.9864 213.651C47.8083 213.526 46.276 212.812 46.0947 212.588C45.9134 212.365 46.2334 211.613 46.2334 211.613L47.05 210.18C47.947 211.346 50.0626 211.102 50.0626 211.102Z" fill="#000932"/>
<path d="M72.4535 146.299C73.9399 144.962 74.0615 142.674 72.7249 141.187C71.3884 139.701 69.0999 139.579 67.6134 140.916C66.1269 142.252 66.0054 144.541 67.3419 146.027C68.6785 147.514 70.967 147.635 72.4535 146.299Z" fill="#87554A"/>
<path d="M74.4993 156.05C74.4993 156.05 77.5197 157.193 78.5728 152.74L76.1766 151.273L74.2266 153.627L74.4993 156.05Z" fill="#D85A4C"/>
<path d="M79.5726 154.584L73.7524 146.729C73.6924 146.636 73.6266 146.546 73.5553 146.461C73.0904 145.922 72.4317 145.588 71.7222 145.532C71.0127 145.476 70.3096 145.701 69.7654 146.16C69.2213 146.619 68.8801 147.274 68.8158 147.983C68.7514 148.692 68.9693 149.397 69.4219 149.946C69.4535 149.984 69.4866 150.022 69.5197 150.057L76.1407 157.466C76.5239 157.92 77.0718 158.204 77.664 158.254C78.2562 158.304 78.8441 158.117 79.2983 157.734C79.7526 157.351 80.036 156.803 80.0863 156.211C80.1365 155.619 79.9495 155.031 79.5663 154.576L79.5726 154.584Z" fill="#FFA08A"/>
<path d="M78.5611 152.735L74.6484 147.032C74.5192 146.852 74.464 146.778 74.3442 146.608L74.2433 146.474L74.2117 146.434C73.6145 145.807 72.7982 145.435 71.933 145.394C71.0678 145.354 70.2204 145.649 69.5675 146.218C68.9145 146.787 68.5063 147.586 68.4279 148.449C68.3495 149.311 68.607 150.171 69.1467 150.848L69.1593 150.864C69.3092 151.042 69.4772 151.204 69.6606 151.347L74.4892 156.03C74.5633 154.376 76.2044 152.71 78.5611 152.735Z" fill="#E35E4B"/>
<path d="M75.5703 211.872L76.2435 214.145L78.8288 213.347L78.4016 210.672L75.5703 211.872Z" fill="#FFA08A"/>
<path d="M65.8475 133.25C65.819 133.793 65.9519 134.331 66.2294 134.798C66.507 135.265 66.9167 135.639 67.4068 135.873C67.8969 136.107 68.4454 136.19 68.9829 136.112C69.5204 136.035 70.0227 135.799 70.4265 135.436C70.8303 135.073 71.1173 134.598 71.2512 134.072C71.3852 133.546 71.3601 132.991 71.1791 132.479C70.9981 131.967 70.6694 131.521 70.2344 131.195C69.7995 130.87 69.2779 130.681 68.7356 130.652C68.3753 130.633 68.0149 130.685 67.6747 130.805C67.3346 130.926 67.0215 131.112 66.7533 131.353C66.4851 131.594 66.2671 131.886 66.1117 132.212C65.9562 132.537 65.8665 132.89 65.8475 133.25Z" fill="#87554A"/>
<path d="M61.1308 134.817C61.0874 135.636 61.2878 136.449 61.7066 137.154C62.1255 137.859 62.744 138.424 63.4839 138.778C64.2239 139.131 65.0521 139.257 65.8637 139.14C66.6753 139.023 67.434 138.668 68.0437 138.119C68.6534 137.571 69.0868 136.854 69.289 136.059C69.4913 135.265 69.4533 134.428 69.1799 133.655C68.9065 132.881 68.41 132.207 67.7531 131.716C67.0963 131.225 66.3086 130.94 65.4897 130.896C64.946 130.868 64.402 130.946 63.8886 131.127C63.3753 131.309 62.9028 131.59 62.498 131.954C62.0932 132.318 61.7641 132.758 61.5295 133.249C61.2949 133.741 61.1595 134.273 61.1308 134.817Z" fill="#87554A"/>
<path d="M66.1543 140.851C67.9852 139.476 68.3546 136.877 66.9795 135.046C65.6043 133.215 63.0053 132.846 61.1745 134.221C59.3436 135.596 58.9742 138.195 60.3493 140.026C61.7245 141.857 64.3235 142.226 66.1543 140.851Z" fill="#87554A"/>
<path d="M65.622 146.814C67.4178 145.018 67.4179 142.107 65.622 140.311C63.8262 138.515 60.9146 138.515 59.1188 140.311C57.323 142.107 57.323 145.018 59.1188 146.814C60.9146 148.61 63.8262 148.61 65.622 146.814Z" fill="#87554A"/>
<path d="M71.0424 137.303C72.1702 136.289 72.2625 134.552 71.2484 133.425C70.2343 132.297 68.498 132.205 67.3702 133.219C66.2424 134.233 66.1502 135.969 67.1642 137.097C68.1783 138.225 69.9146 138.317 71.0424 137.303Z" fill="#87554A"/>
<path d="M67.4289 135.835C68.9165 135.54 69.8825 134.094 69.5866 132.606C69.2907 131.119 67.845 130.153 66.3575 130.449C64.8699 130.745 63.9039 132.19 64.1998 133.678C64.4957 135.165 65.9414 136.131 67.4289 135.835Z" fill="#87554A"/>
<path d="M69.1788 143.314C71.5849 142.89 73.1922 140.597 72.7688 138.191C72.3454 135.784 70.0517 134.177 67.6456 134.601C65.2396 135.024 63.6323 137.318 64.0557 139.724C64.4791 142.13 66.7728 143.737 69.1788 143.314Z" fill="#87554A"/>
<path d="M63.2812 145.054L63.8346 144.846L64.0821 144.58C64.1006 144.557 64.1121 144.53 64.1152 144.501L64.3138 139.844C64.3458 139.359 64.561 138.904 64.9158 138.572C65.2706 138.24 65.7384 138.055 66.2245 138.055C66.6644 138.073 67.0841 138.244 67.4113 138.539C67.7385 138.834 67.9527 139.233 68.0169 139.669C68.4015 141.967 68.6112 143.744 68.8051 144.633L69.0873 144.728L69.8503 144.797L69.8061 145.648L69.6926 145.827C70.2806 146.539 71.2202 147.696 71.2155 147.788C71.2155 147.92 70.5045 149.495 70.3989 149.623C70.2933 149.75 68.5418 150.841 68.4867 150.838C68.4315 150.835 66.3017 149.498 65.1099 148.752C64.8643 148.595 64.6569 148.385 64.5031 148.138C64.3492 147.89 64.2528 147.611 64.2208 147.321L64.1026 146.331L63.6533 146.173L63.2812 145.054Z" fill="#FFA08A"/>
<path d="M68.2555 141.166L68.4747 142.574C68.4747 142.574 66.2787 143.011 65.1562 140.367L68.2555 141.166Z" fill="#3B3348"/>
<path d="M66.2376 162.278C66.8324 161.878 67.5114 161.621 68.222 161.526C68.9325 161.43 69.6554 161.5 70.3344 161.73C71.0135 161.96 71.6305 162.343 72.1375 162.85C72.6444 163.357 73.0277 163.974 73.2575 164.653L76.4025 189.365C76.4167 189.45 76.4277 189.538 76.4356 189.625L76.4782 189.961H76.4514C76.4615 190.448 76.3742 190.933 76.1946 191.387C76.0149 191.84 75.7466 192.253 75.4054 192.601C75.0641 192.95 74.6567 193.227 74.2071 193.416C73.7575 193.605 73.2747 193.702 72.7869 193.702C72.2992 193.702 71.8164 193.605 71.3668 193.416C70.9171 193.227 70.5098 192.95 70.1685 192.601C69.8272 192.253 69.5589 191.84 69.3793 191.387C69.1997 190.933 69.1124 190.448 69.1225 189.961L69.0957 189.828L62.8672 164.545L66.2376 162.278Z" fill="#3B3348"/>
<path d="M60.2786 159.552C60.5576 158.606 60.895 155.946 60.4977 152.773L60.2912 145.534L62.9475 144.88H63.2266C63.5103 146.07 65.298 146.929 66.5718 146.918C67.8755 146.902 69.299 145.931 69.5229 144.695L71.6306 145.339C71.6306 145.339 71.0362 147.15 71.9916 147.84C73.2196 148.729 74.558 150.605 74.6337 152.68C74.6983 154.424 73.3457 154.173 73.3237 157.319C73.2831 159.365 73.1162 161.406 72.8239 163.431C72.8239 163.431 73.8549 164.919 74.0441 166.427C74.0961 166.849 74.5044 167.874 74.1308 168.079C72.9217 168.741 71.1466 170.194 67.4404 169.761C65.5739 169.542 63.184 169.776 61.5871 169.455C59.9901 169.133 59.0506 169.507 58.2088 169.002C57.6901 168.687 56.883 168.206 57.121 167.64C57.5498 166.625 56.9444 166.406 58.0196 164.96C58.8598 163.824 60.0437 160.353 60.2786 159.552Z" fill="#E35E4B"/>
<path d="M73.1405 157.793C73.1865 157.797 73.2321 157.782 73.2676 157.753C73.303 157.723 73.3253 157.681 73.3297 157.635C73.4574 155.865 73.8027 155.22 74.1179 154.651C74.431 154.148 74.5985 153.568 74.6019 152.975C74.6634 150.797 73.3754 148.719 72.1537 147.705C71.3229 147.018 71.5531 145.981 71.5625 145.938C71.5689 145.894 71.5585 145.849 71.5335 145.812C71.5085 145.776 71.4706 145.749 71.4274 145.739C71.3841 145.729 71.3385 145.735 71.2997 145.757C71.2608 145.778 71.2314 145.814 71.2173 145.856C71.2047 145.908 70.9241 147.149 71.9283 147.979C73.0854 148.936 74.3055 150.905 74.2472 152.966C74.2445 153.503 74.0916 154.028 73.8058 154.482C73.4905 155.053 73.1122 155.764 72.9798 157.61C72.9762 157.656 72.9907 157.701 73.0202 157.737C73.0496 157.772 73.0917 157.794 73.1374 157.799L73.1405 157.793Z" fill="#BF4D41"/>
<path d="M68.5328 136.675C68.521 136.897 68.5753 137.118 68.689 137.31C68.8027 137.501 68.9705 137.654 69.1714 137.75C69.3722 137.846 69.597 137.881 69.8174 137.849C70.0377 137.817 70.2437 137.721 70.4092 137.572C70.5748 137.423 70.6925 137.229 70.7475 137.013C70.8025 136.797 70.7923 136.57 70.7182 136.36C70.6441 136.15 70.5093 135.967 70.3311 135.834C70.1528 135.7 69.9391 135.623 69.7168 135.611C69.5691 135.603 69.4214 135.624 69.282 135.674C69.1427 135.723 69.0143 135.799 68.9044 135.898C68.7945 135.997 68.7051 136.116 68.6413 136.249C68.5776 136.383 68.5407 136.527 68.5328 136.675Z" fill="#EF9789"/>
<path d="M63.2716 136.531C63.1329 139.154 65.4329 141.193 67.6951 141.353C68.9105 141.44 70.0156 139.534 70.1543 136.911C70.2931 134.288 69.8911 132.117 67.632 131.997C65.373 131.877 63.404 133.902 63.2716 136.531Z" fill="#FFA08A"/>
<path d="M62.7281 136.825C62.7168 137.036 62.7685 137.245 62.8764 137.427C62.9843 137.609 63.1437 137.755 63.3345 137.846C63.5252 137.937 63.7387 137.969 63.9479 137.939C64.1572 137.909 64.3528 137.818 64.51 137.676C64.6672 137.535 64.7789 137.35 64.8311 137.145C64.8833 136.94 64.8736 136.725 64.8032 136.525C64.7328 136.326 64.6048 136.152 64.4355 136.025C64.2662 135.899 64.0632 135.825 63.8521 135.814C63.569 135.799 63.2916 135.897 63.0808 136.086C62.87 136.276 62.7431 136.541 62.7281 136.825Z" fill="#FFA08A"/>
<path d="M63.3989 136.854C63.3956 136.912 63.4095 136.97 63.439 137.02C63.4684 137.07 63.5121 137.11 63.5645 137.135C63.6168 137.161 63.6755 137.17 63.733 137.162C63.7905 137.153 63.8443 137.128 63.8875 137.089C63.9307 137.051 63.9615 137 63.9758 136.944C63.9901 136.887 63.9874 136.828 63.968 136.773C63.9486 136.719 63.9134 136.671 63.8668 136.636C63.8202 136.601 63.7644 136.581 63.7063 136.578C63.6292 136.575 63.5537 136.602 63.4962 136.654C63.4387 136.705 63.4038 136.777 63.3989 136.854Z" fill="#D85A4C"/>
<path d="M68.9619 135.933C68.9462 136.218 69.1196 136.46 69.3482 136.472C69.5767 136.485 69.7738 136.262 69.788 135.977C69.8022 135.692 69.6303 135.451 69.4018 135.438C69.1732 135.425 68.9777 135.648 68.9619 135.933Z" fill="#4D3932"/>
<path d="M66.2901 135.858C66.2743 136.151 66.4477 136.397 66.67 136.41C66.8923 136.422 67.0925 136.194 67.1082 135.902C67.124 135.61 66.9506 135.363 66.7267 135.352C66.5029 135.341 66.3058 135.566 66.2901 135.858Z" fill="#4D3932"/>
<path d="M67.9062 136.428C67.9062 136.531 67.9062 136.627 67.9062 136.726C67.9062 136.826 67.9062 136.923 67.9062 137.023C67.9173 137.22 67.9362 137.418 67.9646 137.617C67.9823 137.708 68.0344 137.79 68.1101 137.844C68.1859 137.898 68.2795 137.921 68.3718 137.908C68.4641 137.896 68.548 137.848 68.6063 137.775C68.6646 137.703 68.6927 137.61 68.685 137.518C68.6778 137.467 68.6606 137.419 68.6346 137.376C68.5389 137.221 68.4491 137.064 68.365 136.903C68.324 136.821 68.283 136.745 68.2452 136.652C68.2074 136.559 68.1711 136.482 68.1411 136.4C68.1357 136.385 68.1273 136.371 68.1163 136.359C68.1054 136.347 68.0922 136.337 68.0774 136.331C68.0627 136.324 68.0468 136.321 68.0307 136.32C68.0145 136.32 67.9985 136.323 67.9835 136.329C67.9629 136.337 67.9448 136.351 67.9312 136.368C67.9176 136.386 67.909 136.406 67.9062 136.428Z" fill="#F98C7A"/>
<path d="M65.7422 134.847C66.2626 134.804 66.7851 134.902 67.254 135.132L67.1972 134.751C66.9694 134.651 66.7238 134.597 66.4749 134.594C66.2261 134.59 65.9791 134.637 65.7485 134.73L65.7422 134.847Z" fill="#4D3932"/>
<path d="M70.2432 135.096C69.7308 134.997 69.201 135.039 68.7109 135.219L68.8071 134.845C69.0442 134.77 69.294 134.743 69.5417 134.766C69.7894 134.788 70.0301 134.86 70.2495 134.978L70.2432 135.096Z" fill="#4D3932"/>
<path d="M67.8516 139.003C67.8769 139.17 67.9676 139.321 68.1037 139.421C68.2398 139.522 68.4103 139.564 68.5775 139.538C68.7447 139.513 68.8951 139.422 68.9955 139.286C69.0958 139.15 69.138 138.98 69.1127 138.812L67.8516 139.003Z" fill="white"/>
<path d="M66.8326 137.46C67.0927 137.84 67.1211 138.276 66.8941 138.432C66.6671 138.588 66.2635 138.405 66.0097 138.025C65.7559 137.645 65.7212 137.21 65.9482 137.055C66.1752 136.901 66.5709 137.081 66.8326 137.46Z" fill="#FF8571"/>
<path d="M69.9913 137.613C69.8888 138.062 69.5877 138.377 69.3197 138.316C69.0517 138.254 68.9161 137.843 69.0186 137.39C69.1211 136.938 69.4222 136.626 69.6902 136.687C69.9582 136.749 70.0937 137.163 69.9913 137.613Z" fill="#FF8571"/>
<path d="M70.2103 135.759C70.1693 135.737 68.7268 135.163 67.2812 131.985L67.3585 131.234L69.9108 131.952L70.5602 133.763L70.2103 135.759Z" fill="#87554A"/>
<path d="M68.3423 131.799C67.2175 133.86 65.4308 135.481 63.2709 136.401L62.1484 136.341L63.9598 131.808L67.975 131.031L68.3423 131.799Z" fill="#87554A"/>
<path d="M69.1018 190.251L69.1128 190.093L69.1285 189.972C69.1484 189.013 69.5432 188.101 70.2283 187.43C70.9133 186.759 71.8341 186.383 72.793 186.383C73.7519 186.383 74.6726 186.759 75.3577 187.43C76.0427 188.101 76.4375 189.013 76.4574 189.972H76.4842L78.6912 210.953L75.3397 212.023C74.2693 209.305 69.0655 193.837 69.1018 190.251Z" fill="#3B3348"/>
<path d="M69.7379 143.953C69.7379 143.953 72.782 145.035 70.7058 149.114L67.9297 148.682L67.9628 145.627L69.7379 143.953Z" fill="#D85A4C"/>
<path d="M72.7737 148.373L63.2551 150.612C62.9014 150.718 62.5296 150.751 62.1626 150.708C61.7957 150.666 61.4414 150.548 61.1217 150.363C60.802 150.178 60.5236 149.929 60.3038 149.632C60.084 149.335 59.9274 148.997 59.8437 148.637C59.76 148.277 59.751 147.904 59.8172 147.54C59.8834 147.177 60.0235 146.831 60.2287 146.524C60.4339 146.216 60.6999 145.955 61.0103 145.754C61.3207 145.554 61.6689 145.419 62.0334 145.359C62.0822 145.35 62.1311 145.343 62.18 145.339L72.028 143.962C72.3233 143.9 72.6282 143.898 72.9243 143.957C73.2204 144.015 73.5016 144.133 73.751 144.303C74.0005 144.472 74.2131 144.691 74.376 144.945C74.5389 145.199 74.6488 145.483 74.6991 145.781C74.7493 146.079 74.739 146.383 74.6685 146.677C74.5981 146.97 74.4691 147.247 74.2893 147.489C74.1095 147.731 73.8825 147.935 73.6221 148.087C73.3616 148.24 73.073 148.338 72.7737 148.376V148.373Z" fill="#FFA08A"/>
<path d="M70.6952 149.108L64.0238 150.927C63.8563 150.987 63.6845 151.034 63.5098 151.068L63.3065 151.123H63.2734C62.4047 151.218 61.533 150.972 60.8418 150.438C60.1505 149.903 59.6935 149.121 59.5669 148.257C59.4403 147.392 59.6539 146.512 60.1629 145.802C60.6719 145.091 61.4365 144.606 62.296 144.448H62.3149C62.5446 144.41 62.7775 144.395 63.0101 144.404L69.7226 143.953C68.7074 145.273 68.8808 147.606 70.6952 149.108Z" fill="#E35E4B"/>
<path d="M83.4981 140.708L74.2223 147.7C74.1558 147.756 74.0858 147.809 74.0127 147.857C73.5164 148.184 72.9105 148.301 72.3284 148.181C71.7463 148.061 71.2356 147.715 70.9087 147.219C70.5817 146.722 70.4653 146.117 70.585 145.535C70.7048 144.952 71.0508 144.442 71.5471 144.115L81.4787 137.967C81.5239 137.929 81.5713 137.894 81.6206 137.863C81.9979 137.617 82.4573 137.53 82.8983 137.622C83.3394 137.713 83.7262 137.976 83.9741 138.352C84.2221 138.728 84.311 139.187 84.2215 139.629C84.132 140.07 83.8714 140.458 83.4965 140.708H83.4981Z" fill="#FFA08A"/>
<path d="M82.0391 137.664L86.1772 136.219L87.3422 138.494L83.5824 140.638L82.0391 137.664Z" fill="#FFA08A"/>
<path d="M83.6484 140.603L85.8239 140.152L85.8633 139.811L84.8418 139.773L83.6484 140.603Z" fill="#FFA08A"/>
<path d="M86.3401 136.539L84.1016 137.685L86.4993 136.85L86.3401 136.539Z" fill="#F29788"/>
<path d="M86.702 137.25L84.1797 138.495L86.8612 137.561L86.702 137.25Z" fill="#F29788"/>
<path d="M87.0651 137.945L84.8281 139.09L87.2243 138.256L87.0651 137.945Z" fill="#F29788"/>
<path d="M78.9318 212.656L80.6249 213.76C80.6249 213.76 82.0342 214.474 82.5655 214.691C83.0967 214.909 82.7405 215.344 82.7405 215.344L82.4378 215.737C82.3476 215.852 82.2317 215.945 82.0992 216.009C81.9668 216.072 81.8215 216.103 81.6748 216.101L79.9675 216.066L79.4788 215.94L78.4525 215.908C78.235 215.891 76.5608 216.066 76.2802 215.965C75.9996 215.864 75.9003 215.056 75.9003 215.056L75.8672 213.405C77.2387 213.949 78.9318 212.656 78.9318 212.656Z" fill="#000932"/>
<path d="M113.319 71.1362V78.1562H111.609V75.2662H108.949V78.1562H107.239V71.1362H108.949V73.8862H111.609V71.1362H113.319ZM119.174 76.9162H116.554L116.134 78.1562H114.344L116.884 71.1362H118.864L121.404 78.1562H119.594L119.174 76.9162ZM118.734 75.5962L117.864 73.0262L117.004 75.5962H118.734ZM124.967 78.2263C124.453 78.2263 123.993 78.1429 123.587 77.9762C123.18 77.8096 122.853 77.5629 122.607 77.2362C122.367 76.9096 122.24 76.5162 122.227 76.0562H124.047C124.073 76.3162 124.163 76.5162 124.317 76.6562C124.47 76.7896 124.67 76.8562 124.917 76.8562C125.17 76.8562 125.37 76.7996 125.517 76.6863C125.663 76.5662 125.737 76.4029 125.737 76.1962C125.737 76.0229 125.677 75.8796 125.557 75.7662C125.443 75.6529 125.3 75.5596 125.127 75.4862C124.96 75.4129 124.72 75.3296 124.407 75.2362C123.953 75.0962 123.583 74.9562 123.297 74.8162C123.01 74.6762 122.763 74.4696 122.557 74.1962C122.35 73.9229 122.247 73.5662 122.247 73.1262C122.247 72.4729 122.483 71.9629 122.957 71.5962C123.43 71.2229 124.047 71.0362 124.807 71.0362C125.58 71.0362 126.203 71.2229 126.677 71.5962C127.15 71.9629 127.403 72.4762 127.437 73.1362H125.587C125.573 72.9096 125.49 72.7329 125.337 72.6062C125.183 72.4729 124.987 72.4062 124.747 72.4062C124.54 72.4062 124.373 72.4629 124.247 72.5762C124.12 72.6829 124.057 72.8396 124.057 73.0462C124.057 73.2729 124.163 73.4496 124.377 73.5762C124.59 73.7029 124.923 73.8396 125.377 73.9862C125.83 74.1396 126.197 74.2862 126.477 74.4262C126.763 74.5662 127.01 74.7696 127.217 75.0362C127.423 75.3029 127.527 75.6462 127.527 76.0662C127.527 76.4662 127.423 76.8296 127.217 77.1562C127.017 77.4829 126.723 77.7429 126.337 77.9362C125.95 78.1296 125.493 78.2263 124.967 78.2263ZM130.539 71.1362V78.1562H128.829V71.1362H130.539ZM133.738 76.8363H135.978V78.1562H132.028V71.1362H133.738V76.8363ZM144.463 71.1362V72.5063H142.603V78.1562H140.893V72.5063H139.033V71.1362H144.463ZM147.281 72.5063V73.9262H149.571V75.2462H147.281V76.7862H149.871V78.1562H145.571V71.1362H149.871V72.5063H147.281ZM153.771 78.2263C153.258 78.2263 152.798 78.1429 152.391 77.9762C151.985 77.8096 151.658 77.5629 151.411 77.2362C151.171 76.9096 151.045 76.5162 151.031 76.0562H152.851C152.878 76.3162 152.968 76.5162 153.121 76.6562C153.275 76.7896 153.475 76.8562 153.721 76.8562C153.975 76.8562 154.175 76.7996 154.321 76.6863C154.468 76.5662 154.541 76.4029 154.541 76.1962C154.541 76.0229 154.481 75.8796 154.361 75.7662C154.248 75.6529 154.105 75.5596 153.931 75.4862C153.765 75.4129 153.525 75.3296 153.211 75.2362C152.758 75.0962 152.388 74.9562 152.101 74.8162C151.815 74.6762 151.568 74.4696 151.361 74.1962C151.155 73.9229 151.051 73.5662 151.051 73.1262C151.051 72.4729 151.288 71.9629 151.761 71.5962C152.235 71.2229 152.851 71.0362 153.611 71.0362C154.385 71.0362 155.008 71.2229 155.481 71.5962C155.955 71.9629 156.208 72.4762 156.241 73.1362H154.391C154.378 72.9096 154.295 72.7329 154.141 72.6062C153.988 72.4729 153.791 72.4062 153.551 72.4062C153.345 72.4062 153.178 72.4629 153.051 72.5762C152.925 72.6829 152.861 72.8396 152.861 73.0462C152.861 73.2729 152.968 73.4496 153.181 73.5762C153.395 73.7029 153.728 73.8396 154.181 73.9862C154.635 74.1396 155.001 74.2862 155.281 74.4262C155.568 74.5662 155.815 74.7696 156.021 75.0362C156.228 75.3029 156.331 75.6462 156.331 76.0662C156.331 76.4662 156.228 76.8296 156.021 77.1562C155.821 77.4829 155.528 77.7429 155.141 77.9362C154.755 78.1296 154.298 78.2263 153.771 78.2263ZM164.073 78.1562L161.713 75.0562V78.1562H160.003V71.1362H161.713V74.2162L164.053 71.1362H166.063L163.343 74.5762L166.163 78.1562H164.073ZM171.595 76.9162H168.975L168.555 78.1562H166.765L169.305 71.1362H171.285L173.825 78.1562H172.015L171.595 76.9162ZM171.155 75.5962L170.285 73.0262L169.425 75.5962H171.155ZM182.799 71.1362V78.1562H181.089V73.9462L179.519 78.1562H178.139L176.559 73.9362V78.1562H174.849V71.1362H176.869L178.839 75.9962L180.789 71.1362H182.799ZM185.958 71.1362V75.3362C185.958 75.7562 186.062 76.0796 186.268 76.3062C186.475 76.5329 186.778 76.6462 187.178 76.6462C187.578 76.6462 187.885 76.5329 188.098 76.3062C188.312 76.0796 188.418 75.7562 188.418 75.3362V71.1362H190.128V75.3262C190.128 75.9529 189.995 76.4829 189.728 76.9162C189.462 77.3496 189.102 77.6762 188.648 77.8962C188.202 78.1162 187.702 78.2263 187.148 78.2263C186.595 78.2263 186.098 78.1196 185.658 77.9062C185.225 77.6862 184.882 77.3596 184.628 76.9262C184.375 76.4862 184.248 75.9529 184.248 75.3262V71.1362H185.958Z" fill="#3E68DE"/>
</g>
<defs>
<clipPath id="clip0_1539_48702">
<rect width="270" height="216.102" fill="white"/>
</clipPath>
</defs>
</svg>
