<svg width="200" height="200" viewBox="0 0 200 200" fill="none" xmlns="http://www.w3.org/2000/svg">
<rect width="200" height="199.949" rx="8" fill="#137EEA" fill-opacity="0.2"/>
<mask id="mask0_1407_108732" style="mask-type:luminance" maskUnits="userSpaceOnUse" x="21" y="21" width="158" height="158">
<path d="M177.791 112.183C184.534 69.2325 155.172 28.9496 112.21 22.2084C69.247 15.4672 28.9526 44.8205 22.2095 87.7707C15.4664 130.721 44.828 171.004 87.7905 177.745C130.753 184.486 171.047 155.133 177.791 112.183Z" fill="white"/>
</mask>
<g mask="url(#mask0_1407_108732)">
<path d="M177.791 112.183C184.534 69.2325 155.172 28.9496 112.21 22.2084C69.247 15.4672 28.9526 44.8205 22.2095 87.7707C15.4664 130.721 44.828 171.004 87.7905 177.745C130.753 184.486 171.047 155.133 177.791 112.183Z" fill="#EEF3FF"/>
<path d="M75.6833 89.2548C77.745 94.7965 76.5683 103.459 73.0673 105.131C69.5664 106.803 65.054 100.853 62.9923 95.3117C60.9306 89.7701 62.1073 83.9271 65.618 82.2549C69.1287 80.5827 73.6217 83.7132 75.6833 89.2548Z" fill="url(#paint0_linear_1407_108732)"/>
<path d="M130.816 89.2548C128.764 94.7965 129.931 103.459 133.442 105.131C136.953 106.803 141.455 100.853 143.507 95.3117C145.559 89.7701 144.392 83.9271 140.891 82.2549C137.39 80.5827 132.878 83.7132 130.816 89.2548Z" fill="url(#paint1_linear_1407_108732)"/>
<path d="M70.4165 91.7318C70.3652 90.925 70.1074 90.1449 69.6677 89.4665C69.2086 88.6778 68.4689 88.0911 67.5962 87.8235C67.3423 87.7583 67.08 87.7321 66.8182 87.7457C66.0688 87.8071 65.372 88.1554 64.8732 88.7179C64.565 89.0927 64.3996 89.5646 64.4065 90.0498C64.4129 90.4806 64.5674 90.8959 64.8441 91.2262C64.8511 90.9032 64.935 90.5866 65.0889 90.3025C65.2428 90.0185 65.4623 89.7752 65.729 89.5929C65.9677 89.4569 66.2273 89.3616 66.4973 89.3109C66.7205 89.2525 66.9549 89.2525 67.1781 89.3109C67.7429 89.5091 68.2598 89.8238 68.6952 90.2346C69.3078 90.6915 69.833 91.2068 70.4165 91.7318Z" fill="#F0856B"/>
<path d="M135.25 91.7318C135.31 90.9254 135.571 90.1468 136.009 89.4665C136.464 88.6784 137.2 88.0915 138.07 87.8235C138.324 87.7583 138.586 87.7321 138.848 87.7457C139.104 87.7707 139.356 87.8296 139.597 87.9207C140.045 88.0873 140.443 88.3649 140.754 88.7276C141.07 89.0989 141.239 89.5724 141.231 90.0596C141.216 90.4904 141.059 90.9042 140.783 91.2359C140.776 90.9141 140.693 90.5986 140.541 90.3148C140.389 90.0311 140.172 89.7871 139.908 89.6026C139.668 89.4698 139.409 89.3747 139.14 89.3207C138.917 89.2622 138.682 89.2622 138.459 89.3207C137.891 89.5184 137.371 89.833 136.932 90.2443C136.398 90.6915 135.872 91.2068 135.25 91.7318Z" fill="#F0856B"/>
<path d="M102.924 40.1305C68.1772 38.9833 67.6618 72.2137 68.1869 83.2095C68.6924 91.7754 70.0211 100.273 72.1547 108.584C73.1272 111.89 74.8874 117.431 77.4062 119.833C84.2136 126.298 92.6063 132.024 97.8286 134.018C101.205 134.692 104.682 134.692 108.059 134.018C113.262 132.024 121.674 126.298 128.482 119.833C131 117.431 132.761 111.89 133.733 108.584C135.865 100.279 137.194 91.7883 137.701 83.2289C138.187 72.2429 137.672 38.9833 102.924 40.1305Z" fill="url(#paint2_linear_1407_108732)"/>
<path d="M139.535 56.2397C138.3 50.9995 132.844 41.394 126.815 40.5676C118.014 15.9899 60.7827 29.5038 62.1734 68.4605C63.2626 67.5077 64.3809 66.5841 65.5285 65.6897C65.0974 75.6667 67.5956 85.5519 72.7152 94.127C72.122 82.7812 74.135 71.2313 79.9603 61.8883C81.351 59.6522 83.8503 57.5133 84.8908 55.0828C85.5813 54.8592 80.855 61.8883 80.9036 71.7563C80.9036 70.716 91.7956 64.2799 93.1959 63.0744C96.4002 60.3334 99.3852 57.3461 102.123 54.1397C100.655 56.5119 95.316 58.2133 94.1684 60.7022C93.4293 62.2869 90.4438 68.4799 89.4129 68.8785C94.7033 66.6521 114.017 65.2522 122.254 57.7855C123.227 59.2633 122.721 60.4494 123.723 61.898C130.236 71.3424 133.428 82.6823 132.796 94.1367C140.333 83.1798 142.569 69.1021 139.535 56.2397Z" fill="url(#paint3_linear_1407_108732)"/>
<path d="M172.673 183.041H33.8203C35.318 173.066 38.4397 160.982 45.4416 156.402C47.8432 154.87 50.4676 153.719 53.2216 152.99L56.7031 152.066H56.6447L79.7707 144.551L83.5245 143.336C84.5044 143.058 85.3822 142.501 86.0506 141.733C86.719 140.965 87.149 140.018 87.288 139.009C87.8057 135.356 88.0883 131.674 88.1341 127.985C91.1302 130.15 94.3596 131.973 97.7618 133.419C101.139 134.093 104.616 134.093 107.992 133.419C111.62 131.871 115.059 129.914 118.243 127.586C118.301 129.725 118.388 131.922 118.534 133.935C118.629 135.633 118.824 137.324 119.118 139C119.262 140.005 119.693 140.948 120.358 141.715C121.024 142.482 121.896 143.041 122.872 143.326L149.722 152.076H149.664L153.058 152.98C156.256 153.841 159.283 155.245 162.005 157.132C168.443 161.662 171.312 173.319 172.673 183.041Z" fill="url(#paint4_linear_1407_108732)"/>
<path d="M102.372 157.691C99.2596 156.135 96.1573 154.58 93.8234 151.469C90.9642 147.677 89.2721 143.584 87.0159 140.094C86.747 140.872 86.2919 141.573 85.6902 142.136C85.0885 142.698 84.3584 143.105 83.5635 143.322L79.7708 144.556L56.6838 152.062H56.7422L53.2606 152.985C50.5067 153.715 47.8823 154.866 45.4807 156.398C38.4787 160.977 35.357 173.062 33.8594 183.037H160.284C147.631 167.977 121.539 163.028 102.372 157.691Z" fill="url(#paint5_linear_1407_108732)"/>
<path d="M162.004 157.124C159.283 155.237 156.256 153.833 153.058 152.972L149.664 152.068H149.722L122.871 143.318C121.896 143.034 121.024 142.474 120.358 141.707C119.692 140.94 119.262 139.997 119.117 138.992C118.824 137.316 118.629 135.625 118.534 133.927C118.388 131.914 118.301 129.717 118.242 127.578C115.059 129.907 111.62 131.864 107.992 133.411C104.615 134.086 101.138 134.086 97.7615 133.411C94.3593 131.965 91.1299 130.142 88.1338 127.977C88.088 131.666 87.8054 135.349 87.2878 139.002C87.2138 139.376 87.1097 139.743 86.9766 140.1C89.2716 143.591 90.9638 147.684 93.784 151.475C96.118 154.586 99.2203 156.142 102.332 157.697C121.5 163.025 147.592 167.983 160.157 183.053H172.634C171.311 173.321 168.442 161.664 162.004 157.124Z" fill="url(#paint6_linear_1407_108732)"/>
<path d="M172.673 183.045C171.312 173.323 168.443 161.656 161.976 157.116C159.252 155.234 156.226 153.833 153.029 152.974L149.625 152.06H149.693L126.616 144.555C111.52 150.246 94.867 150.246 79.7708 144.555L56.6741 152.06H56.7422L53.2509 153.032C50.4975 153.763 47.8733 154.914 45.471 156.445C38.4593 161.024 35.3376 173.099 33.8594 183.084L172.673 183.045Z" fill="#137EEA"/>
<path d="M162.007 157.116C159.284 155.234 156.258 153.833 153.06 152.974L149.657 152.06H149.725L126.618 144.555C119.137 147.388 111.201 148.834 103.201 148.823C99.235 148.822 95.2774 148.467 91.375 147.763C92.1178 149.051 92.9361 150.295 93.8257 151.487C96.1597 154.598 99.2619 156.153 102.374 157.709C121.542 163.037 147.634 167.995 160.198 183.064H172.676C171.314 173.323 168.445 161.675 162.007 157.116Z" fill="#2850CB"/>
</g>
<defs>
<linearGradient id="paint0_linear_1407_108732" x1="61.9809" y1="93.6104" x2="76.6947" y2="93.6104" gradientUnits="userSpaceOnUse">
<stop stop-color="#FFB288"/>
<stop offset="0.67" stop-color="#FEB089"/>
<stop offset="0.91" stop-color="#FBA98C"/>
<stop offset="1" stop-color="#F9A48E"/>
</linearGradient>
<linearGradient id="paint1_linear_1407_108732" x1="129.805" y1="93.6104" x2="144.519" y2="93.6104" gradientUnits="userSpaceOnUse">
<stop stop-color="#FFB288"/>
<stop offset="0.67" stop-color="#FEB089"/>
<stop offset="0.91" stop-color="#FBA98C"/>
<stop offset="1" stop-color="#F9A48E"/>
</linearGradient>
<linearGradient id="paint2_linear_1407_108732" x1="50.5167" y1="60.7415" x2="132.373" y2="99.8331" gradientUnits="userSpaceOnUse">
<stop stop-color="#FFB288"/>
<stop offset="0.67" stop-color="#FEB089"/>
<stop offset="0.91" stop-color="#FBA98C"/>
<stop offset="1" stop-color="#F9A48E"/>
</linearGradient>
<linearGradient id="paint3_linear_1407_108732" x1="101.978" y1="45.0398" x2="100.354" y2="120.007" gradientUnits="userSpaceOnUse">
<stop stop-color="#B1462E"/>
<stop offset="0.26" stop-color="#A33F2A"/>
<stop offset="0.74" stop-color="#7F2E1F"/>
<stop offset="1" stop-color="#692318"/>
</linearGradient>
<linearGradient id="paint4_linear_1407_108732" x1="33.8203" y1="155.284" x2="172.673" y2="155.284" gradientUnits="userSpaceOnUse">
<stop stop-color="#FFB288"/>
<stop offset="0.67" stop-color="#FEB089"/>
<stop offset="0.91" stop-color="#FBA98C"/>
<stop offset="1" stop-color="#F9A48E"/>
</linearGradient>
<linearGradient id="paint5_linear_1407_108732" x1="33.8205" y1="161.57" x2="160.196" y2="161.57" gradientUnits="userSpaceOnUse">
<stop stop-color="#FFB288"/>
<stop offset="0.67" stop-color="#FEB089"/>
<stop offset="0.91" stop-color="#FBA98C"/>
<stop offset="1" stop-color="#F9A48E"/>
</linearGradient>
<linearGradient id="paint6_linear_1407_108732" x1="88.9896" y1="129.406" x2="120.357" y2="149.111" gradientUnits="userSpaceOnUse">
<stop stop-color="#F29A72"/>
<stop offset="1" stop-color="#E8594D"/>
</linearGradient>
</defs>
</svg>
