<svg width="200" height="200" viewBox="0 0 200 200" fill="none" xmlns="http://www.w3.org/2000/svg">
<rect width="200" height="199.949" rx="8" fill="#FF51BC" fill-opacity="0.2"/>
<mask id="mask0_1407_108753" style="mask-type:luminance" maskUnits="userSpaceOnUse" x="21" y="21" width="158" height="158">
<path d="M177.431 112.542C184.373 69.7899 155.333 29.5071 112.569 22.5675C69.8048 15.6278 29.5104 44.6594 22.5688 87.4112C15.6273 130.163 44.6671 170.446 87.4312 177.386C130.195 184.325 170.49 155.294 177.431 112.542Z" fill="white"/>
</mask>
<g mask="url(#mask0_1407_108753)">
<path d="M177.423 112.542C184.365 69.7899 155.325 29.5071 112.561 22.5675C69.797 15.6278 29.5026 44.6594 22.561 87.4112C15.6195 130.163 44.6593 170.446 87.4233 177.386C130.187 184.325 170.482 155.294 177.423 112.542Z" fill="#FF50BB" fill-opacity="0.25"/>
<path d="M101.61 32.1933C109.942 33.3652 141.409 22.0624 144.383 62.1016C147.358 102.141 141.903 87.7968 164.651 94.7219C187.398 101.647 171.568 119.429 173.05 140.689C174.533 161.948 223.235 127.216 225.211 162.306C227.188 197.396 174.533 247.44 114.767 195.052C55.0008 142.664 76.1983 140.195 69.2326 126.848C62.2668 113.502 20.792 115.332 49.8564 77.5401C60.4552 63.7094 61.2011 26.508 101.61 32.1933Z" fill="url(#paint0_linear_1407_108753)"/>
<path d="M71.8379 87.1957C73.9014 92.0384 72.7292 99.7867 69.2124 101.22C65.6956 102.654 61.1809 97.4428 59.1174 92.5517C57.0538 87.6606 58.2358 82.479 61.7429 81.0068C65.25 79.5346 69.7743 82.2756 71.8379 87.1957Z" fill="url(#paint1_linear_1407_108753)"/>
<path d="M127.11 87.1957C125.046 92.0384 126.228 99.7867 129.735 101.22C133.242 102.654 137.766 97.4428 139.83 92.5517C141.894 87.6606 140.721 82.479 137.205 81.0068C133.688 79.5346 129.173 82.2756 127.11 87.1957Z" fill="url(#paint2_linear_1407_108753)"/>
<path d="M66.3469 90.169C66.2867 89.3656 66.027 88.59 65.5912 87.9123C63.0239 84.0382 59.013 87.6121 60.8344 89.675C60.8418 89.3545 60.9246 89.0401 61.0761 88.7574C61.2276 88.4748 61.4435 88.2317 61.7063 88.0479C63.4211 87.0987 64.2833 88.445 66.3469 90.169Z" fill="#F0856B"/>
<path d="M132.461 90.1697C132.597 87.6903 134.893 85.5304 136.792 86.3731C137.129 86.4557 137.441 86.6207 137.699 86.8535C137.958 87.0862 138.154 87.3793 138.271 87.7065C138.388 88.0338 138.422 88.385 138.37 88.7287C138.319 89.0723 138.182 89.3977 137.973 89.6758C137.979 89.2086 137.815 88.7553 137.512 88.3993C137.21 88.0434 136.789 87.8088 136.326 87.7387C135.912 87.7226 135.499 87.8016 135.12 87.9694C134.74 88.1373 134.404 88.3897 134.137 88.7072C133.604 89.1334 133.081 89.6467 132.461 90.1697Z" fill="#F0856B"/>
<path d="M159.383 182.714C159.392 182.761 159.39 182.809 159.378 182.854C159.366 182.9 159.344 182.943 159.313 182.979C159.282 183.015 159.244 183.044 159.201 183.063C159.158 183.083 159.111 183.093 159.064 183.092C32.3818 182.898 39.4057 183.489 39.5801 182.714C40.0064 180.341 40.3067 162.23 50.8764 154.462C55.488 151.043 58.9563 151.004 83.6513 143.033C84.5334 142.715 85.3059 142.151 85.8776 141.408C86.4493 140.665 86.7962 139.774 86.8774 138.84C87.4306 133.978 87.6958 129.088 87.6719 124.195C91.4712 125.812 95.4159 127.064 99.4526 127.934C103.488 127.067 107.432 125.821 111.233 124.215C111.207 129.101 111.476 133.985 112.037 138.84C112.131 139.771 112.483 140.658 113.055 141.399C113.627 142.14 114.396 142.707 115.273 143.033C139.59 151.014 143.466 150.782 148.949 155.15C158.792 162.966 158.967 180.409 159.383 182.714Z" fill="url(#paint3_linear_1407_108753)"/>
<path d="M115.303 143.033C114.425 142.708 113.656 142.142 113.084 141.4C112.512 140.659 112.159 139.771 112.067 138.84C111.509 133.985 111.241 129.101 111.263 124.215C107.452 125.823 103.498 127.068 99.4532 127.934C95.4067 127.066 91.4522 125.814 87.6434 124.195C87.6674 129.088 87.4021 133.978 86.849 138.84C86.8055 139.785 86.4728 140.694 85.8958 141.444C85.3189 142.194 84.5255 142.749 83.6228 143.033L78.2266 144.719C80.9974 157.881 94.8126 168.661 108.202 169.823C124.807 171.053 139.94 165.949 155.945 165.329C150.296 150.704 141.519 151.634 115.303 143.033Z" fill="url(#paint4_linear_1407_108753)"/>
<path d="M136.513 152.949C124.94 159.519 112.445 164.312 99.4467 167.167C85.0663 164.009 71.3139 158.474 58.7567 150.789C55.5572 151.618 52.5649 153.102 49.9695 155.147C40.1458 162.964 39.9908 180.407 39.5645 182.712C39.4579 183.303 32.1434 183.09 151.452 183.09C151.452 170.567 147.887 158.392 136.513 152.949Z" fill="#BA505C"/>
<path d="M148.973 155.147C146.367 153.119 143.378 151.637 140.186 150.789C127.623 158.462 113.873 163.997 99.4961 167.167C85.1156 164.009 71.3633 158.474 58.806 150.789C55.6066 151.618 52.6143 153.102 50.0189 155.147C40.1952 162.964 40.0402 180.407 39.6139 182.702C39.5073 183.303 31.1465 183.09 159.107 183.09C159.155 183.089 159.202 183.078 159.245 183.057C159.288 183.037 159.326 183.007 159.357 182.97C159.387 182.933 159.409 182.89 159.421 182.844C159.433 182.798 159.435 182.749 159.427 182.702C158.952 180.407 158.797 162.964 148.973 155.147Z" fill="#BA505C"/>
<path d="M141.547 174.47C126.87 170.663 110.032 172.213 96.5459 166.489C83.2148 163.241 70.4686 157.945 58.7623 150.789C55.5628 151.618 52.5705 153.102 49.9752 155.147C40.1514 162.964 39.9964 180.407 39.5701 182.702C39.4636 183.303 32.1684 183.09 152.485 183.09C150.218 179.07 147.031 175.738 141.547 174.47Z" fill="url(#paint5_linear_1407_108753)"/>
<path d="M96.6147 166.508H96.5469L96.6728 166.556L96.6147 166.508Z" fill="#BA505C"/>
<path d="M148.977 155.147C146.371 153.119 143.383 151.637 140.19 150.789C127.627 158.462 113.877 163.997 99.5002 167.167C97.33 166.692 98.4248 166.944 96.5938 166.508C104.063 171.099 128.729 171.148 141.527 174.47C147.011 175.738 150.246 179.07 152.465 183.09C158.278 182.935 159.499 183.438 159.363 182.702C158.956 180.407 158.801 162.964 148.977 155.147Z" fill="#E0208D"/>
<path d="M99.4517 38.8145C64.2936 37.4392 63.7801 70.9699 64.3032 81.9918C64.6908 89.9919 67.8297 101.624 69.5251 107.406C70.4831 110.745 72.3004 113.774 74.7955 116.191C83.9701 124.908 99.4517 127.92 99.4517 127.92C100.111 127.532 124.641 123.532 129.369 107.406C131.064 101.595 134.213 89.9725 134.59 81.9918C135.143 70.9699 134.639 37.4392 99.4517 38.8145Z" fill="url(#paint6_linear_1407_108753)"/>
<path d="M121.638 39.4459L91.9832 36.6953L72.5488 43.291L61.8919 66.1775C61.8919 66.1775 53.7733 76.5311 59.0823 81.3254C60.7681 83.1462 63.5582 83.8339 66.019 84.1535C94.628 87.2528 92.6032 59.7077 94.8121 50.1289C98.2126 40.5791 107.804 46.1482 115.099 53.1313C115.352 52.959 115.65 52.8667 115.956 52.8667C116.262 52.8667 116.561 52.959 116.814 53.1313C118.306 54.0127 118.984 55.9401 119.371 57.6253C120.602 63.3784 118.674 67.5819 120.97 72.5698C121.481 73.8652 122.298 75.0181 123.35 75.9303C124.403 76.8426 125.66 77.4873 127.015 77.8096C128.265 78.2842 134.669 80.6474 134.669 80.6474L138.37 79.4077L142.633 61.1024L121.638 39.4459Z" fill="url(#paint7_linear_1407_108753)"/>
</g>
<defs>
<linearGradient id="paint0_linear_1407_108753" x1="111.977" y1="33.5977" x2="136.668" y2="151.035" gradientUnits="userSpaceOnUse">
<stop stop-color="#B1462E"/>
<stop offset="0.26" stop-color="#A33F2A"/>
<stop offset="0.74" stop-color="#7F2E1F"/>
<stop offset="1" stop-color="#692318"/>
</linearGradient>
<linearGradient id="paint1_linear_1407_108753" x1="65.2112" y1="91.0214" x2="130.393" y2="91.0214" gradientUnits="userSpaceOnUse">
<stop stop-color="#FFB288"/>
<stop offset="0.67" stop-color="#FEB089"/>
<stop offset="0.91" stop-color="#FBA98C"/>
<stop offset="1" stop-color="#F9A48E"/>
</linearGradient>
<linearGradient id="paint2_linear_1407_108753" x1="65.2123" y1="91.0214" x2="130.394" y2="91.0214" gradientUnits="userSpaceOnUse">
<stop stop-color="#FFB288"/>
<stop offset="0.67" stop-color="#FEB089"/>
<stop offset="0.91" stop-color="#FBA98C"/>
<stop offset="1" stop-color="#F9A48E"/>
</linearGradient>
<linearGradient id="paint3_linear_1407_108753" x1="96.7012" y1="129.038" x2="98.6377" y2="167.382" gradientUnits="userSpaceOnUse">
<stop stop-color="#FFB288"/>
<stop offset="0.67" stop-color="#FEB089"/>
<stop offset="0.91" stop-color="#FBA98C"/>
<stop offset="1" stop-color="#F9A48E"/>
</linearGradient>
<linearGradient id="paint4_linear_1407_108753" x1="79.9414" y1="138.481" x2="108.607" y2="146.999" gradientUnits="userSpaceOnUse">
<stop stop-color="#F29A72"/>
<stop offset="1" stop-color="#E8594D"/>
</linearGradient>
<linearGradient id="paint5_linear_1407_108753" x1="39.4539" y1="166.964" x2="152.485" y2="166.964" gradientUnits="userSpaceOnUse">
<stop stop-color="#FF61C6"/>
<stop offset="1" stop-color="#FF24A0"/>
</linearGradient>
<linearGradient id="paint6_linear_1407_108753" x1="64.4292" y1="49.2844" x2="127.889" y2="107.599" gradientUnits="userSpaceOnUse">
<stop stop-color="#FFB288"/>
<stop offset="0.67" stop-color="#FEB089"/>
<stop offset="0.91" stop-color="#FBA98C"/>
<stop offset="1" stop-color="#F9A48E"/>
</linearGradient>
<linearGradient id="paint7_linear_1407_108753" x1="93.2911" y1="37.5283" x2="117.982" y2="154.966" gradientUnits="userSpaceOnUse">
<stop stop-color="#B1462E"/>
<stop offset="0.26" stop-color="#A33F2A"/>
<stop offset="0.74" stop-color="#7F2E1F"/>
<stop offset="1" stop-color="#692318"/>
</linearGradient>
</defs>
</svg>
