<svg width="1440" height="431" viewBox="0 0 1440 431" fill="none" xmlns="http://www.w3.org/2000/svg">
<g filter="url(#filter0_d_2838_129986)">
<path d="M527.889 343.789L526.132 342.011L527.889 343.789ZM1216.86 100.693L1216.18 103.098C1216.27 103.124 1216.36 103.145 1216.46 103.16L1216.86 100.693ZM1531.22 -75.3773L1529.46 -73.599L1531.22 -75.3773ZM1675.48 -362.546C1676.84 -362.261 1678.16 -363.126 1678.45 -364.477C1678.73 -365.828 1677.87 -367.154 1676.52 -367.439L1675.48 -362.546ZM-236 -202.928L-238.26 -201.86C-237.214 -199.645 -236.156 -197.417 -235.086 -195.176L-232.83 -196.253L-230.574 -197.331C-231.641 -199.565 -232.696 -201.787 -233.74 -203.996L-236 -202.928ZM-226.283 -182.685L-228.53 -181.59C-226.342 -177.102 -224.111 -172.57 -221.836 -167.997L-219.598 -169.111L-217.359 -170.224C-219.628 -174.785 -221.854 -179.305 -224.036 -183.781L-226.283 -182.685ZM-212.855 -155.683L-215.085 -154.553C-212.815 -150.074 -210.506 -145.56 -208.159 -141.014L-205.937 -142.161L-203.716 -143.308C-206.057 -147.843 -208.361 -152.346 -210.625 -156.813L-212.855 -155.683ZM-199.018 -128.878L-201.231 -127.715C-198.887 -123.254 -196.508 -118.765 -194.094 -114.251L-191.889 -115.43L-189.685 -116.609C-192.093 -121.112 -194.466 -125.59 -196.805 -130.041L-199.018 -128.878ZM-184.787 -102.259L-186.983 -101.065C-184.586 -96.6568 -182.158 -92.2282 -179.699 -87.7811L-177.512 -88.9908L-175.324 -90.2005C-177.777 -94.6373 -180.199 -99.0556 -182.591 -103.453L-184.787 -102.259ZM-170.172 -75.8246L-172.351 -74.5997C-169.901 -70.2415 -167.423 -65.8681 -164.918 -61.4816L-162.747 -62.7217L-160.576 -63.9618C-163.076 -68.3381 -165.548 -72.7015 -167.992 -77.0495L-170.172 -75.8246ZM-155.181 -49.5839L-157.343 -48.3286C-154.838 -44.0157 -152.308 -39.6922 -149.753 -35.3604L-147.599 -36.6307L-145.446 -37.9011C-147.996 -42.2228 -150.52 -46.5362 -153.019 -50.8392L-155.181 -49.5839ZM-139.865 -23.6272L-142.009 -22.3417C-139.433 -18.0446 -136.832 -13.7413 -134.208 -9.43371L-132.073 -10.7345L-129.938 -12.0354C-132.556 -16.3327 -135.151 -20.6258 -137.721 -24.9128L-139.865 -23.6272ZM-124.183 2.10902L-126.309 3.42523C-123.657 7.70696 -120.983 11.991 -118.286 16.2753L-116.17 14.9435L-114.055 13.6117C-116.745 9.33785 -119.413 5.06424 -122.058 0.792816L-124.183 2.10902ZM-108.11 27.6432L-110.216 28.9907C-107.505 33.2282 -104.772 37.4642 -102.018 41.6968L-99.9221 40.3334L-97.8266 38.97C-100.574 34.7481 -103.3 30.5227 -106.005 26.2957L-108.11 27.6432ZM-91.6472 52.9448L-93.732 54.3244C-90.9589 58.5151 -88.1657 62.7007 -85.3528 66.8794L-83.2789 65.4833L-81.205 64.0873C-84.0104 59.9197 -86.7963 55.7451 -89.5623 51.5652L-91.6472 52.9448ZM-74.7936 77.9793L-76.8561 79.3921C-74.0146 83.5402 -71.1541 87.6795 -68.2751 91.8083L-66.2245 90.3784L-64.1738 88.9485C-67.0447 84.8312 -69.8973 80.7032 -72.7311 76.5664L-74.7936 77.9793ZM-57.5449 102.714L-59.5833 104.161C-56.667 108.268 -53.7326 112.363 -50.7808 116.444L-48.7552 114.978L-46.7297 113.513C-49.6728 109.445 -52.5985 105.362 -55.5065 101.266L-57.5449 102.714ZM-39.8576 127.162L-41.8698 128.646C-38.8822 132.698 -35.8776 136.734 -32.8564 140.752L-30.8582 139.25L-28.86 137.747C-31.8716 133.742 -34.8669 129.718 -37.8454 125.678L-39.8576 127.162ZM-21.7236 151.277L-23.7071 152.799C-20.6386 156.799 -17.5539 160.779 -14.4534 164.737L-12.4853 163.196L-10.5171 161.654C-13.6071 157.709 -16.6816 153.742 -19.7401 149.756L-21.7236 151.277ZM-3.13149 175.011L-5.08344 176.573C-1.9243 180.521 1.25033 184.445 4.43995 188.343L6.37479 186.76L8.30963 185.177C5.1317 181.293 1.96847 177.383 -1.17954 173.449L-3.13149 175.011ZM15.9701 198.353L14.0533 199.958C17.3018 203.838 20.5651 207.69 23.8426 211.512L25.7403 209.884L27.638 208.257C24.3736 204.45 21.1231 200.613 17.887 196.748L15.9701 198.353ZM35.6308 221.275L33.7533 222.926C37.0817 226.711 40.424 230.464 43.7797 234.183L45.6357 232.508L47.4917 230.833C44.1507 227.131 40.8227 223.394 37.5082 219.624L35.6308 221.275ZM55.8553 243.68L54.0223 245.38C57.4499 249.076 60.8907 252.734 64.3441 256.353L66.1528 254.627L67.9614 252.901C64.5247 249.3 61.1002 245.659 57.6883 241.98L55.8553 243.68ZM76.6784 265.493L74.896 267.246C78.446 270.856 82.0086 274.422 85.5832 277.942L87.3375 276.161L89.0918 274.38C85.5365 270.878 81.9926 267.331 78.4607 263.74L76.6784 265.493ZM98.1433 286.629L96.4191 288.439C100.105 291.949 103.802 295.409 107.511 298.817L109.202 296.976L110.894 295.135C107.207 291.748 103.532 288.308 99.8674 284.818L98.1433 286.629ZM120.327 307.008L118.671 308.881C122.498 312.266 126.335 315.594 130.184 318.861L131.802 316.956L133.42 315.05C129.598 311.805 125.786 308.499 121.984 305.136L120.327 307.008ZM143.362 326.561L141.785 328.501C145.736 331.713 149.698 334.859 153.67 337.937L155.201 335.961L156.733 333.986C152.792 330.932 148.861 327.809 144.939 324.621L143.362 326.561ZM167.233 345.054L165.751 347.067C169.839 350.077 173.937 353.013 178.043 355.871L179.472 353.819L180.9 351.768C176.831 348.935 172.769 346.025 168.715 343.041L167.233 345.054ZM192.009 362.285L190.64 364.377C194.881 367.151 199.129 369.841 203.385 372.442L204.689 370.309L205.993 368.176C201.782 365.602 197.576 362.94 193.378 360.193L192.009 362.285ZM217.757 378.002L216.525 380.177C220.933 382.672 225.348 385.07 229.769 387.366L230.922 385.148L232.074 382.929C227.707 380.661 223.345 378.292 218.988 375.826L217.757 378.002ZM244.526 391.882L243.462 394.145C248.05 396.303 252.643 398.349 257.242 400.279L258.21 397.974L259.177 395.669C254.646 393.767 250.116 391.749 245.59 389.62L244.526 391.882ZM272.331 403.526L271.471 405.873C276.241 407.621 281.016 409.24 285.793 410.726L286.536 408.338L287.278 405.951C282.582 404.49 277.886 402.898 273.191 401.178L272.331 403.526ZM301.111 412.449L300.499 414.873C305.433 416.12 310.37 417.221 315.307 418.171L315.779 415.716L316.251 413.261C311.411 412.33 306.568 411.25 301.724 410.026L301.111 412.449ZM330.693 418.115L330.373 420.594C335.422 421.245 340.471 421.733 345.516 422.052L345.674 419.557L345.832 417.062C340.897 416.75 335.957 416.273 331.013 415.635L330.693 418.115ZM360.747 419.997L360.761 422.497C365.837 422.47 370.91 422.267 375.976 421.882L375.787 419.389L375.597 416.896C370.65 417.272 365.695 417.471 360.734 417.497L360.747 419.997ZM390.784 417.703L391.154 420.175C396.143 419.43 401.125 418.503 406.097 417.388L405.55 414.948L405.003 412.509C400.149 413.597 395.286 414.503 390.415 415.23L390.784 417.703ZM420.204 411.1L420.925 413.493C425.711 412.05 430.487 410.427 435.25 408.621L434.363 406.283L433.476 403.946C428.821 405.712 424.156 407.297 419.482 408.706L420.204 411.1ZM448.41 400.395L449.454 402.667C453.951 400.6 458.436 398.363 462.907 395.954L461.721 393.753L460.535 391.552C456.155 393.912 451.766 396.101 447.366 398.123L448.41 400.395ZM474.947 386.087L476.266 388.21C480.441 385.618 484.602 382.87 488.75 379.963L487.315 377.916L485.88 375.868C481.807 378.723 477.723 381.42 473.628 383.963L474.947 386.087ZM499.58 368.816L501.122 370.784C504.992 367.752 508.848 364.578 512.69 361.258L511.056 359.366L509.422 357.475C505.638 360.743 501.844 363.867 498.039 366.848L499.58 368.816ZM522.297 349.196L524.015 351.012C525.896 349.234 527.773 347.419 529.646 345.568L527.889 343.789L526.132 342.011C524.284 343.837 522.433 345.627 520.579 347.38L522.297 349.196ZM527.889 343.789L529.646 345.568C531.472 343.763 533.299 341.971 535.127 340.19L533.383 338.399L531.638 336.608C529.802 338.398 527.966 340.198 526.132 342.011L527.889 343.789ZM544.387 327.831L546.106 329.646C549.784 326.165 553.465 322.73 557.148 319.341L555.456 317.501L553.763 315.661C550.062 319.066 546.364 322.517 542.668 326.015L544.387 327.831ZM566.805 307.215L568.47 309.08C572.246 305.708 576.025 302.384 579.806 299.107L578.168 297.218L576.531 295.329C572.732 298.622 568.934 301.962 565.14 305.35L566.805 307.215ZM589.81 287.281L591.419 289.195C595.306 285.927 599.195 282.709 603.085 279.54L601.506 277.602L599.927 275.664C596.017 278.849 592.109 282.083 588.202 285.367L589.81 287.281ZM613.405 268.059L614.954 270.022C618.95 266.868 622.947 263.765 626.943 260.712L625.425 258.726L623.907 256.739C619.89 259.808 615.873 262.927 611.856 266.097L613.405 268.059ZM637.589 249.585L639.075 251.595C643.176 248.564 647.276 245.585 651.375 242.658L649.921 240.623L648.468 238.589C644.348 241.532 640.226 244.527 636.103 247.574L637.589 249.585ZM662.355 231.894L663.775 233.951C667.977 231.052 672.177 228.206 676.374 225.412L674.988 223.331L673.603 221.25C669.383 224.059 665.161 226.921 660.935 229.836L662.355 231.894ZM687.695 215.023L689.046 217.127C693.345 214.368 697.639 211.663 701.929 209.011L700.615 206.885L699.3 204.758C694.986 207.425 690.668 210.145 686.345 212.919L687.695 215.023ZM713.596 199.013L714.874 201.162C719.264 198.551 723.648 195.995 728.025 193.494L726.784 191.324L725.544 189.153C721.142 191.669 716.733 194.239 712.318 196.864L713.596 199.013ZM740.04 183.902L741.242 186.094C745.717 183.64 750.183 181.242 754.641 178.899L753.478 176.686L752.315 174.473C747.831 176.83 743.338 179.242 738.837 181.71L740.04 183.902ZM767.004 169.731L768.127 171.964C772.68 169.674 777.223 167.441 781.754 165.264L780.671 163.011L779.588 160.757C775.03 162.947 770.46 165.194 765.881 167.497L767.004 169.731ZM794.462 156.538L795.504 158.811C800.127 156.692 804.737 154.631 809.333 152.627L808.334 150.335L807.334 148.044C802.71 150.061 798.072 152.134 793.421 154.265L794.462 156.538ZM822.384 144.363L823.34 146.673C828.025 144.733 832.694 142.851 837.345 141.026L836.432 138.699L835.519 136.371C830.838 138.208 826.141 140.101 821.427 142.053L822.384 144.363ZM850.732 133.244L851.6 135.589C856.368 133.822 861.117 132.114 865.844 130.465L865.02 128.104L864.197 125.744C859.439 127.404 854.661 129.122 849.863 130.9L850.732 133.244ZM879.464 123.22L880.242 125.596C885.093 124.007 889.921 122.48 894.723 121.01L893.992 118.62L893.26 116.229C888.427 117.708 883.568 119.246 878.686 120.844L879.464 123.22ZM908.532 114.327L909.217 116.731C914.147 115.328 919.049 113.987 923.921 112.705L923.285 110.287L922.648 107.869C917.744 109.16 912.81 110.51 907.848 111.922L908.532 114.327ZM938.026 106.566L938.614 108.996C943.569 107.798 948.491 106.662 953.377 105.586L952.84 103.144L952.302 100.703C947.382 101.787 942.427 102.93 937.439 104.136L938.026 106.566ZM967.789 100.012L968.276 102.464C973.278 101.47 978.241 100.538 983.162 99.6662L982.726 97.2046L982.29 94.7429C977.335 95.6207 972.338 96.559 967.301 97.56L967.789 100.012ZM997.719 94.7111L998.103 97.1815C1003.18 96.3932 1008.2 95.6688 1013.17 95.0056L1012.84 92.5275L1012.51 90.0495C1007.5 90.7174 1002.44 91.447 997.336 92.2408L997.719 94.7111ZM1027.95 90.6805L1028.22 93.1653C1033.3 92.6019 1038.31 92.1022 1043.26 91.6634L1043.04 89.1731L1042.82 86.6829C1037.83 87.1249 1032.78 87.6283 1027.67 88.1958L1027.95 90.6805ZM1058.26 88.0008L1058.42 90.4955C1063.55 90.1595 1068.61 89.889 1073.6 89.6806L1073.49 87.1828L1073.39 84.685C1068.36 84.895 1063.26 85.1676 1058.09 85.5061L1058.26 88.0008ZM1088.72 86.7312L1088.76 89.2308C1093.9 89.1413 1098.94 89.1179 1103.9 89.1565L1103.92 86.6566L1103.94 84.1567C1098.94 84.1177 1093.85 84.1413 1088.67 84.2315L1088.72 86.7312ZM1119.11 86.9733L1119.02 89.4719C1124.17 89.6475 1129.21 89.8905 1134.13 90.1955L1134.28 87.7003L1134.44 85.2051C1129.47 84.8972 1124.39 84.652 1119.19 84.4748L1119.11 86.9733ZM1149.48 88.8672L1149.26 91.3567C1154.42 91.8317 1159.45 92.3759 1164.32 92.9824L1164.63 90.5015L1164.94 88.0207C1160.01 87.4075 1154.93 86.8576 1149.71 86.3777L1149.48 88.8672ZM1179.68 92.6429L1179.28 95.1112C1184.47 95.9444 1189.44 96.8489 1194.2 97.8141L1194.7 95.3639L1195.2 92.9138C1190.37 91.9346 1185.32 91.0182 1180.08 90.1746L1179.68 92.6429ZM1209.61 98.7498L1208.99 101.173C1211.46 101.799 1213.86 102.441 1216.18 103.098L1216.86 100.693L1217.54 98.2874C1215.18 97.6177 1212.74 96.9634 1210.22 96.3264L1209.61 98.7498ZM1216.86 100.693L1216.46 103.16C1218.84 103.548 1221.24 103.933 1223.67 104.315L1224.06 101.845L1224.45 99.3755C1222.03 98.9956 1219.63 98.612 1217.26 98.2252L1216.86 100.693ZM1238.7 104.067L1238.33 106.54C1243.16 107.246 1248.05 107.936 1252.99 108.607L1253.33 106.129L1253.66 103.652C1248.74 102.984 1243.87 102.297 1239.06 101.593L1238.7 104.067ZM1267.93 108.034L1267.62 110.515C1272.48 111.123 1277.38 111.711 1282.32 112.277L1282.6 109.793L1282.89 107.309C1277.97 106.745 1273.09 106.159 1268.25 105.553L1267.93 108.034ZM1297.31 111.4L1297.05 113.887C1301.93 114.394 1306.83 114.877 1311.76 115.335L1311.99 112.846L1312.22 110.357C1307.31 109.901 1302.43 109.419 1297.57 108.914L1297.31 111.4ZM1326.7 114.131L1326.49 116.623C1331.41 117.025 1336.33 117.398 1341.25 117.743L1341.43 115.249L1341.6 112.755C1336.7 112.412 1331.79 112.04 1326.9 111.64L1326.7 114.131ZM1356.16 116.188L1356.02 118.684C1360.95 118.968 1365.88 119.219 1370.81 119.437L1370.92 116.94L1371.03 114.442C1366.13 114.225 1361.22 113.975 1356.3 113.692L1356.16 116.188ZM1385.67 117.49L1385.6 119.989C1390.54 120.138 1395.47 120.25 1400.37 120.323L1400.41 117.823L1400.44 115.323C1395.57 115.251 1390.67 115.139 1385.75 114.991L1385.67 117.49ZM1415.2 117.921L1415.21 120.421C1420.19 120.411 1425.13 120.358 1430.04 120.258L1429.98 117.758L1429.93 115.259C1425.06 115.358 1420.15 115.411 1415.2 115.421L1415.2 117.921ZM1444.72 117.309L1444.82 119.807C1449.81 119.603 1454.73 119.346 1459.6 119.033L1459.44 116.538L1459.28 114.043C1454.45 114.353 1449.56 114.608 1444.62 114.811L1444.72 117.309ZM1474.21 115.395L1474.43 117.885C1479.45 117.427 1484.38 116.904 1489.22 116.311L1488.91 113.83L1488.61 111.348C1483.83 111.935 1478.95 112.453 1473.98 112.905L1474.21 115.395ZM1503.53 111.772L1503.92 114.241C1508.92 113.44 1513.8 112.554 1518.53 111.578L1518.03 109.13L1517.52 106.681C1512.87 107.641 1508.06 108.514 1503.13 109.304L1503.53 111.772ZM1532.38 105.774L1533.02 108.191C1537.98 106.88 1542.75 105.449 1547.31 103.892L1546.5 101.526L1545.7 99.16C1541.26 100.675 1536.6 102.073 1531.74 103.357L1532.38 105.774ZM1560.26 96.1329L1561.29 98.4127C1566.07 96.2598 1570.54 93.9202 1574.66 91.3814L1573.35 89.2529L1572.04 87.1245C1568.12 89.5366 1563.85 91.7774 1559.24 93.8531L1560.26 96.1329ZM1585.2 80.4697L1586.87 82.3256C1590.79 78.7934 1594.16 74.9585 1596.93 70.8011L1594.85 69.4163L1592.76 68.0315C1590.25 71.8062 1587.16 75.3301 1583.52 78.6139L1585.2 80.4697ZM1601.08 56.1375L1603.48 56.8448C1604.88 52.0699 1605.62 46.9995 1605.63 41.6281L1603.13 41.6215L1600.63 41.6149C1600.62 46.5347 1599.95 51.1318 1598.68 55.4303L1601.08 56.1375ZM1601.46 26.9635L1603.9 26.4238C1602.88 21.7877 1601.39 16.9664 1599.42 11.954L1597.1 12.8671L1594.77 13.7802C1596.65 18.5767 1598.06 23.1482 1599.02 27.5031L1601.46 26.9635ZM1590.95 -0.463659L1593.16 -1.62844C1590.97 -5.78517 1588.48 -10.0644 1585.68 -14.4694L1583.57 -13.1285L1581.46 -11.7875C1584.19 -7.48678 1586.61 -3.32504 1588.73 0.701123L1590.95 -0.463659ZM1575.25 -25.3295L1577.27 -26.7998C1574.42 -30.7184 1571.34 -34.7306 1568.03 -38.8385L1566.08 -37.2687L1564.13 -35.6989C1567.4 -31.6514 1570.43 -27.7054 1573.22 -23.8591L1575.25 -25.3295ZM1556.81 -48.3036L1558.69 -49.9478C1555.52 -53.5749 1552.18 -57.2727 1548.66 -61.0425L1546.84 -59.3368L1545.01 -57.631C1548.49 -53.8994 1551.79 -50.2426 1554.92 -46.6594L1556.81 -48.3036ZM1536.66 -69.9351L1538.44 -71.6908C1536.66 -73.4966 1534.84 -75.3182 1532.98 -77.1557L1531.22 -75.3773L1529.46 -73.599C1531.31 -71.7763 1533.11 -69.9698 1534.88 -68.1795L1536.66 -69.9351ZM1531.22 -75.3773L1532.98 -77.1557C1531.13 -78.9823 1529.3 -80.7992 1527.5 -82.6064L1525.73 -80.8404L1523.96 -79.0745C1525.77 -77.2589 1527.61 -75.4337 1529.46 -73.599L1531.22 -75.3773ZM1515.15 -91.5938L1516.95 -93.3339C1513.46 -96.9267 1510.07 -100.48 1506.77 -103.994L1504.95 -102.282L1503.13 -100.57C1506.45 -97.0368 1509.86 -93.4648 1513.36 -89.8538L1515.15 -91.5938ZM1494.61 -113.476L1496.47 -115.155C1493.12 -118.845 1489.87 -122.49 1486.73 -126.09L1484.85 -124.446L1482.97 -122.802C1486.13 -119.178 1489.39 -115.509 1492.76 -111.796L1494.61 -113.476ZM1474.91 -136.078L1476.83 -137.68C1473.62 -141.524 1470.53 -145.314 1467.55 -149.05L1465.6 -147.493L1463.64 -145.936C1466.64 -142.168 1469.76 -138.348 1472.99 -134.475L1474.91 -136.078ZM1456.27 -159.54L1458.27 -161.043C1455.22 -165.099 1452.31 -169.089 1449.55 -173.012L1447.5 -171.572L1445.46 -170.132C1448.26 -166.165 1451.19 -162.134 1454.27 -158.038L1456.27 -159.54ZM1439.08 -183.982L1441.17 -185.348C1438.35 -189.672 1435.71 -193.911 1433.24 -198.066L1431.09 -196.789L1428.94 -195.513C1431.45 -191.295 1434.13 -186.997 1436.99 -182.616L1439.08 -183.982ZM1423.81 -209.752L1426.02 -210.921C1423.62 -215.45 1421.45 -219.871 1419.49 -224.183L1417.21 -223.148L1414.94 -222.112C1416.94 -217.704 1419.16 -213.195 1421.6 -208.583L1423.81 -209.752ZM1411.45 -237.104L1413.8 -237.969C1412.01 -242.814 1410.51 -247.507 1409.29 -252.051L1406.88 -251.403L1404.46 -250.754C1405.72 -246.054 1407.27 -241.216 1409.1 -236.239L1411.45 -237.104ZM1403.79 -266.056L1406.26 -266.426C1405.51 -271.484 1405.13 -276.332 1405.1 -280.975L1402.6 -280.961L1400.1 -280.948C1400.13 -276.051 1400.53 -270.965 1401.32 -265.687L1403.79 -266.056ZM1403.78 -295.84L1406.24 -295.42C1407.08 -300.326 1408.37 -304.969 1410.07 -309.36L1407.73 -310.263L1405.4 -311.166C1403.58 -306.457 1402.21 -301.489 1401.32 -296.26L1403.78 -295.84ZM1414.57 -323.583L1416.66 -322.218C1419.27 -326.229 1422.31 -329.994 1425.72 -333.517L1423.93 -335.258L1422.13 -336.999C1418.5 -333.257 1415.27 -329.243 1412.47 -324.948L1414.57 -323.583ZM1435.26 -345.111L1436.74 -343.101C1440.56 -345.923 1444.68 -348.545 1449.09 -350.973L1447.88 -353.162L1446.67 -355.352C1442.09 -352.826 1437.78 -350.086 1433.77 -347.122L1435.26 -345.111ZM1461.37 -359.651L1462.34 -357.345C1466.76 -359.197 1471.39 -360.893 1476.2 -362.436L1475.44 -364.817L1474.68 -367.198C1469.73 -365.614 1464.97 -363.869 1460.4 -361.957L1461.37 -359.651ZM1489.88 -368.86L1490.47 -366.431C1495.18 -367.575 1500.03 -368.592 1505.01 -369.487L1504.57 -371.948L1504.13 -374.408C1499.06 -373.497 1494.11 -372.459 1489.29 -371.29L1489.88 -368.86ZM1519.41 -374.211L1519.72 -371.731C1524.57 -372.346 1529.52 -372.856 1534.55 -373.264L1534.35 -375.756L1534.14 -378.247C1529.04 -377.834 1524.02 -377.316 1519.09 -376.691L1519.41 -374.211ZM1549.34 -376.662L1549.44 -374.165C1554.35 -374.364 1559.32 -374.474 1564.34 -374.496L1564.33 -376.996L1564.32 -379.496C1559.24 -379.473 1554.21 -379.362 1549.24 -379.16L1549.34 -376.662ZM1579.31 -376.81L1579.24 -374.311C1584.17 -374.169 1589.14 -373.947 1594.15 -373.648L1594.29 -376.144L1594.44 -378.639C1589.39 -378.941 1584.37 -379.165 1579.38 -379.309L1579.31 -376.81ZM1609.26 -375.029L1609.04 -372.539C1613.98 -372.1 1618.93 -371.588 1623.91 -371.006L1624.2 -373.489L1624.49 -375.973C1619.47 -376.56 1614.47 -377.076 1609.48 -377.519L1609.26 -375.029ZM1639.08 -371.544L1638.73 -369.07C1643.64 -368.361 1648.56 -367.586 1653.47 -366.746L1653.89 -369.211L1654.32 -371.675C1649.36 -372.522 1644.4 -373.304 1639.44 -374.019L1639.08 -371.544ZM1668.65 -366.493L1668.17 -364.04C1670.61 -363.558 1673.05 -363.06 1675.48 -362.546L1676 -364.993L1676.52 -367.439C1674.06 -367.957 1671.6 -368.459 1669.14 -368.946L1668.65 -366.493Z" fill="#43A7FF"/>
</g>
<path d="M73.0819 343.403C71.7662 342.222 70.3862 341.114 68.9483 340.085C66.0195 337.995 62.877 335.957 61.0445 332.864C59.6318 330.458 59.1328 327.623 59.6389 324.88C59.9326 323.32 60.4384 321.915 61.6658 320.368C63.5663 317.909 68.109 315.166 74.8 318.696C76.1246 319.4 77.3615 320.258 78.485 321.252C80.8769 323.356 83.2674 325.459 85.6566 327.56L73.0819 343.403Z" fill="#43A7FF" fill-opacity="0.3"/>
<path d="M93.5386 364.365C85.7447 357.776 81.0887 351.254 75.4225 345.624L88.0672 329.69C91.578 332.773 95.2261 335.868 99.631 337.399C103.414 338.713 107.528 338.786 111.357 339.96C116.816 341.634 121.335 345.415 125.692 349.103C129.106 351.995 132.593 354.971 134.805 358.86C137.017 362.749 137.917 367.371 135.254 371.522C133.429 374.229 130.794 375.214 127.988 375.703C124.649 376.283 121.225 375.706 117.906 375.02C111.99 373.796 106.089 372.202 100.748 369.381C98.1589 368.014 95.7001 366.338 93.5386 364.365Z" fill="#43A7FF" fill-opacity="0.3"/>
<path d="M179.736 284.737C178.148 283.959 176.604 283.095 175.111 282.147C172.076 280.214 169.01 278.064 165.455 277.524C162.695 277.115 159.88 277.714 157.526 279.211C156.19 280.068 155.077 281.063 154.102 282.781C152.534 285.464 151.692 290.704 157.472 295.585C158.621 296.549 159.88 297.375 161.222 298.044C164.069 299.474 166.914 300.902 169.757 302.33L179.736 284.737Z" fill="#43A7FF" fill-opacity="0.3"/>
<path d="M206.818 295.84C197.789 291.082 189.998 289.208 182.656 286.064L172.619 303.757C176.792 305.857 181.029 308.08 184.098 311.591C186.734 314.606 188.343 318.393 190.866 321.503C194.462 325.938 199.661 328.711 204.713 331.37C208.673 333.451 212.739 335.569 217.173 336.164C221.608 336.758 226.23 335.861 229.082 331.837C230.907 329.131 230.833 326.319 230.236 323.534C229.523 320.221 227.705 317.262 225.826 314.441C222.475 309.415 218.786 304.541 214.17 300.646C211.932 298.757 209.458 297.105 206.818 295.84Z" fill="#43A7FF" fill-opacity="0.3"/>
<path d="M1180.68 151.359C1178.94 151.024 1177.19 150.785 1175.42 150.644C1171.84 150.361 1168.09 150.232 1164.93 148.525C1162.48 147.19 1160.59 145.017 1159.61 142.405C1159.06 140.917 1158.77 139.452 1159.03 137.493C1159.39 134.407 1161.87 129.716 1169.42 129.296C1170.92 129.217 1172.42 129.316 1173.9 129.589C1177.03 130.161 1180.16 130.732 1183.29 131.303L1180.68 151.359Z" fill="#43A7FF" fill-opacity="0.3"/>
<path d="M1209.01 158.781C1198.94 157.147 1191.59 153.955 1183.83 152.047L1186.46 131.877C1191.06 132.711 1195.78 133.485 1200.34 132.529C1204.26 131.706 1207.83 129.65 1211.71 128.685C1217.25 127.308 1223.08 128.222 1228.71 129.139C1233.13 129.859 1237.65 130.615 1241.55 132.809C1245.45 135.003 1248.6 138.501 1248.45 143.431C1248.28 146.691 1246.53 148.892 1244.38 150.756C1241.82 152.974 1238.58 154.243 1235.38 155.364C1229.68 157.362 1223.8 159.034 1217.77 159.367C1214.85 159.529 1211.88 159.359 1209.01 158.781Z" fill="#43A7FF" fill-opacity="0.3"/>
<path d="M1247.69 59.446C1245.93 59.5977 1244.16 59.6519 1242.39 59.6083C1238.79 59.5148 1235.06 59.251 1231.73 60.6189C1229.16 61.6902 1227.05 63.6534 1225.81 66.1492C1225.1 67.5713 1224.66 68.9977 1224.71 70.9724C1224.75 74.0798 1226.72 79.0043 1234.19 80.2119C1235.67 80.4467 1237.18 80.5059 1238.67 80.3881C1241.85 80.1472 1245.02 79.9066 1248.2 79.6662L1247.69 59.446Z" fill="#43A7FF" fill-opacity="0.3"/>
<path d="M1276.61 55.0164C1266.42 55.588 1258.78 57.9945 1250.86 59.0809L1251.37 79.4161C1256.03 79.0667 1260.81 78.7903 1265.25 80.2188C1269.06 81.4463 1272.39 83.8636 1276.15 85.2298C1281.52 87.1786 1287.41 86.8783 1293.11 86.5553C1297.57 86.3001 1302.15 86.0214 1306.26 84.2469C1310.36 82.4724 1313.86 79.3231 1314.23 74.4051C1314.41 71.1452 1312.89 68.7727 1310.95 66.6938C1308.63 64.2205 1305.55 62.6206 1302.48 61.171C1297.02 58.5886 1291.35 56.3103 1285.39 55.3492C1282.5 54.8825 1279.53 54.7408 1276.61 55.0164Z" fill="#43A7FF" fill-opacity="0.3"/>
<defs>
<filter id="filter0_d_2838_129986" x="-242.258" y="-379.492" width="1924.76" height="809.992" filterUnits="userSpaceOnUse" color-interpolation-filters="sRGB">
<feFlood flood-opacity="0" result="BackgroundImageFix"/>
<feColorMatrix in="SourceAlpha" type="matrix" values="0 0 0 0 0 0 0 0 0 0 0 0 0 0 0 0 0 0 127 0" result="hardAlpha"/>
<feOffset dy="4"/>
<feGaussianBlur stdDeviation="2"/>
<feComposite in2="hardAlpha" operator="out"/>
<feColorMatrix type="matrix" values="0 0 0 0 0 0 0 0 0 0 0 0 0 0 0 0 0 0 0.25 0"/>
<feBlend mode="normal" in2="BackgroundImageFix" result="effect1_dropShadow_2838_129986"/>
<feBlend mode="normal" in="SourceGraphic" in2="effect1_dropShadow_2838_129986" result="shape"/>
</filter>
</defs>
</svg>
