<svg width="1647" height="395" viewBox="0 0 1647 395" fill="none" xmlns="http://www.w3.org/2000/svg">
<path d="M764.799 197.453C984.116 142.633 1189.04 -6.58198 1420.9 16.6462C1534.76 28.0645 1649.07 90.7028 1695.38 195.329C1717.95 246.305 1723.16 303.039 1726.97 358.653C1735.75 486.65 1719.48 568.69 1573.72 632.225C1443.59 688.947 1297.28 691.843 1155.33 693.87C782.204 699.15 405.681 704.135 39.9532 630.05C-92.2437 603.273 -142.953 556.022 -128.666 399.04C-121.533 320.71 -108.059 243.087 -88.3766 166.934C-25.2481 -77.2887 69.8338 67.0034 166.46 119.308C346.709 216.916 564.397 247.543 764.799 197.453Z" fill="#CAF4FF"/>
<path d="M773.813 196.677C995.038 150.152 1205.43 8.76185 1436.26 40.7283C1549.61 56.422 1661.48 123.324 1703.82 229.62C1724.45 281.408 1727.52 338.295 1729.24 394.017C1733.21 522.252 1713.84 603.622 1565.8 661.621C1433.62 713.404 1287.3 710.803 1145.37 707.465C772.291 698.698 395.87 689.5 33.192 601.697C-97.9033 569.963 -146.818 520.833 -126.608 364.504C-116.531 286.497 -100.144 209.436 -77.6081 134.078C-5.32564 -107.595 84.2594 40.1662 178.847 96.0763C355.291 200.385 571.684 239.187 773.813 196.677Z" fill="#1E61B8"/>
</svg>
