<svg width="545" height="72" viewBox="0 0 545 72" fill="none" xmlns="http://www.w3.org/2000/svg">
<g clip-path="url(#clip0_1640_48160)">
<path d="M44.482 0C34.546 0 26.5 8.064 26.5 18C26.5 27.936 34.546 36 44.482 36C54.436 36 62.5 27.936 62.5 18C62.5 8.064 54.436 0 44.482 0ZM44.5 32.4C36.544 32.4 30.1 25.956 30.1 18C30.1 10.044 36.544 3.6 44.5 3.6C52.456 3.6 58.9 10.044 58.9 18C58.9 25.956 52.456 32.4 44.5 32.4ZM50.8 16.2C52.294 16.2 53.5 14.994 53.5 13.5C53.5 12.006 52.294 10.8 50.8 10.8C49.306 10.8 48.1 12.006 48.1 13.5C48.1 14.994 49.306 16.2 50.8 16.2ZM38.2 16.2C39.694 16.2 40.9 14.994 40.9 13.5C40.9 12.006 39.694 10.8 38.2 10.8C36.706 10.8 35.5 12.006 35.5 13.5C35.5 14.994 36.706 16.2 38.2 16.2ZM44.5 27.9C48.694 27.9 52.258 25.272 53.698 21.6H35.302C36.742 25.272 40.306 27.9 44.5 27.9Z" fill="#B3B3B3"/>
</g>
<path d="M42.417 54.9703V53.3014H45.7548V65H43.9094V54.9703H42.417Z" fill="black"/>
<path d="M82.8429 62.5126C83.87 61.6247 84.6777 60.8972 85.2661 60.3302C85.8652 59.7525 86.3627 59.1534 86.7585 58.5329C87.1544 57.9124 87.3523 57.2918 87.3523 56.6713C87.3523 56.0294 87.1972 55.5266 86.8869 55.1629C86.5874 54.7991 86.1113 54.6173 85.4587 54.6173C84.8275 54.6173 84.3354 54.8205 83.9823 55.2271C83.64 55.6229 83.4581 56.1578 83.4367 56.8318H81.6715C81.7036 55.6122 82.0673 54.6815 82.7627 54.0396C83.4688 53.387 84.3621 53.0607 85.4426 53.0607C86.6088 53.0607 87.5181 53.3816 88.1707 54.0235C88.834 54.6654 89.1657 55.5213 89.1657 56.5911C89.1657 57.3614 88.9677 58.1049 88.5719 58.8217C88.1868 59.5278 87.7214 60.1644 87.1758 60.7314C86.6409 61.2877 85.9562 61.9349 85.1217 62.6731L84.3996 63.315H89.4866V64.8395H81.6875V63.5076L82.8429 62.5126Z" fill="black"/>
<path d="M122.667 56.1899C122.731 55.195 123.111 54.4193 123.806 53.863C124.512 53.3067 125.411 53.0286 126.502 53.0286C127.251 53.0286 127.898 53.1623 128.444 53.4298C128.989 53.6972 129.401 54.061 129.679 54.521C129.958 54.981 130.097 55.4999 130.097 56.0776C130.097 56.7409 129.92 57.3079 129.567 57.7786C129.214 58.2494 128.791 58.565 128.299 58.7254V58.7896C128.931 58.9822 129.423 59.3352 129.776 59.8488C130.129 60.3516 130.305 60.9988 130.305 61.7905C130.305 62.4217 130.161 62.9834 129.872 63.4755C129.583 63.9676 129.155 64.3581 128.588 64.647C128.021 64.9251 127.342 65.0642 126.55 65.0642C125.395 65.0642 124.443 64.77 123.694 64.1816C122.956 63.5825 122.56 62.7266 122.506 61.614H124.271C124.314 62.181 124.534 62.6464 124.929 63.0101C125.325 63.3632 125.86 63.5397 126.534 63.5397C127.187 63.5397 127.69 63.3632 128.043 63.0101C128.396 62.6464 128.572 62.181 128.572 61.614C128.572 60.8651 128.331 60.3355 127.85 60.0253C127.379 59.7043 126.652 59.5438 125.668 59.5438H125.25V58.0354H125.684C126.55 58.0247 127.208 57.8803 127.657 57.6021C128.117 57.3239 128.347 56.8853 128.347 56.2862C128.347 55.7727 128.182 55.3662 127.85 55.0666C127.518 54.7563 127.048 54.6012 126.438 54.6012C125.839 54.6012 125.373 54.7563 125.042 55.0666C124.71 55.3662 124.512 55.7406 124.448 56.1899H122.667Z" fill="black"/>
<g clip-path="url(#clip1_1640_48160)">
<path d="M181.9 18C181.9 14.1809 180.383 10.5182 177.682 7.81766C174.982 5.11714 171.319 3.6 167.5 3.6C163.681 3.6 160.018 5.11714 157.318 7.81766C154.617 10.5182 153.1 14.1809 153.1 18C153.1 21.8191 154.617 25.4818 157.318 28.1823C160.018 30.8829 163.681 32.4 167.5 32.4C171.319 32.4 174.982 30.8829 177.682 28.1823C180.383 25.4818 181.9 21.8191 181.9 18ZM185.5 18C185.5 22.7739 183.604 27.3523 180.228 30.7279C176.852 34.1036 172.274 36 167.5 36C165.136 36 162.796 35.5344 160.612 34.6298C158.428 33.7252 156.444 32.3994 154.772 30.7279C151.396 27.3523 149.5 22.7739 149.5 18C149.5 13.2261 151.396 8.64773 154.772 5.27208C158.148 1.89642 162.726 0 167.5 0C169.864 0 172.204 0.465584 174.388 1.37017C176.572 2.27475 178.556 3.60062 180.228 5.27208C181.899 6.94353 183.225 8.92784 184.13 11.1117C185.034 13.2956 185.5 15.6362 185.5 18ZM163.9 13.5C163.9 14.94 162.64 16.2 161.2 16.2C159.76 16.2 158.5 14.94 158.5 13.5C158.5 12.06 159.76 10.8 161.2 10.8C162.64 10.8 163.9 12.06 163.9 13.5ZM176.5 13.5C176.5 14.94 175.24 16.2 173.8 16.2C172.36 16.2 171.1 14.94 171.1 13.5C171.1 12.06 172.36 10.8 173.8 10.8C175.24 10.8 176.5 12.06 176.5 13.5ZM167.5 27.414C164.35 27.414 161.578 26.1 159.958 24.156L162.514 21.6C163.324 22.896 165.25 23.814 167.5 23.814C169.75 23.814 171.676 22.896 172.486 21.6L175.042 24.156C173.422 26.1 170.65 27.414 167.5 27.414Z" fill="#B3B3B3"/>
</g>
<path d="M163.043 62.5608V61.1807L168.435 53.4458H170.65V60.9721H172.142V62.5608H170.65V65H168.852V62.5608H163.043ZM168.933 55.3073L165.145 60.9721H168.933V55.3073Z" fill="black"/>
<path d="M211.881 54.874H206.505V58.0675C206.729 57.7679 207.061 57.5165 207.5 57.3132C207.949 57.11 208.425 57.0083 208.928 57.0083C209.827 57.0083 210.554 57.2009 211.11 57.5861C211.677 57.9712 212.079 58.458 212.314 59.0464C212.56 59.6348 212.683 60.2553 212.683 60.9079C212.683 61.6996 212.528 62.4057 212.218 63.0262C211.918 63.636 211.463 64.1174 210.854 64.4704C210.254 64.8235 209.516 65 208.639 65C207.473 65 206.537 64.7111 205.831 64.1334C205.125 63.5557 204.702 62.7908 204.563 61.8386H206.344C206.462 62.3415 206.724 62.7427 207.131 63.0422C207.537 63.3311 208.045 63.4755 208.655 63.4755C209.415 63.4755 209.982 63.2455 210.356 62.7854C210.741 62.3254 210.934 61.7156 210.934 60.956C210.934 60.1857 210.741 59.5973 210.356 59.1908C209.971 58.7736 209.404 58.565 208.655 58.565C208.131 58.565 207.687 58.6987 207.323 58.9661C206.97 59.2229 206.713 59.5759 206.553 60.0253H204.82V53.2693H211.881V54.874Z" fill="black"/>
<path d="M272.5 36C262.559 36 254.5 27.9414 254.5 18C254.5 8.0586 262.559 0 272.5 0C282.441 0 290.5 8.0586 290.5 18C290.5 27.9414 282.441 36 272.5 36ZM272.5 32.4C276.319 32.4 279.982 30.8829 282.682 28.1823C285.383 25.4818 286.9 21.8191 286.9 18C286.9 14.1809 285.383 10.5182 282.682 7.81766C279.982 5.11714 276.319 3.6 272.5 3.6C268.681 3.6 265.018 5.11714 262.318 7.81766C259.617 10.5182 258.1 14.1809 258.1 18C258.1 21.8191 259.617 25.4818 262.318 28.1823C265.018 30.8829 268.681 32.4 272.5 32.4ZM265.3 21.6H279.7V25.2H265.3V21.6ZM265.3 16.2C264.584 16.2 263.897 15.9155 263.391 15.4092C262.884 14.9028 262.6 14.2161 262.6 13.5C262.6 12.7839 262.884 12.0972 263.391 11.5908C263.897 11.0845 264.584 10.8 265.3 10.8C266.016 10.8 266.703 11.0845 267.209 11.5908C267.716 12.0972 268 12.7839 268 13.5C268 14.2161 267.716 14.9028 267.209 15.4092C266.703 15.9155 266.016 16.2 265.3 16.2ZM279.7 16.2C278.984 16.2 278.297 15.9155 277.791 15.4092C277.284 14.9028 277 14.2161 277 13.5C277 12.7839 277.284 12.0972 277.791 11.5908C278.297 11.0845 278.984 10.8 279.7 10.8C280.416 10.8 281.103 11.0845 281.609 11.5908C282.116 12.0972 282.4 12.7839 282.4 13.5C282.4 14.2161 282.116 14.9028 281.609 15.4092C281.103 15.9155 280.416 16.2 279.7 16.2Z" fill="#B3B3B3"/>
<path d="M256.605 55.0134C256.488 54.5213 256.274 54.1522 255.964 53.9061C255.653 53.6601 255.22 53.537 254.664 53.537C253.819 53.537 253.187 53.8633 252.77 54.5159C252.353 55.1578 252.134 56.2277 252.112 57.7254C252.39 57.2547 252.797 56.891 253.332 56.6342C253.867 56.3774 254.444 56.2491 255.065 56.2491C255.771 56.2491 256.391 56.4042 256.926 56.7144C257.472 57.014 257.895 57.4526 258.194 58.0303C258.504 58.608 258.66 59.2981 258.66 60.1005C258.66 60.8493 258.51 61.518 258.21 62.1064C257.921 62.6948 257.488 63.1602 256.91 63.5025C256.333 63.8342 255.637 64 254.824 64C253.722 64 252.856 63.7593 252.224 63.2779C251.604 62.7857 251.165 62.0957 250.909 61.2077C250.662 60.3198 250.539 59.2125 250.539 57.8859C250.539 53.9703 251.92 52.0125 254.68 52.0125C255.75 52.0125 256.589 52.3014 257.199 52.8791C257.82 53.4568 258.183 54.1682 258.29 55.0134H256.605ZM254.664 57.7896C254.011 57.7896 253.455 57.9875 252.995 58.3834C252.545 58.7685 252.321 59.3302 252.321 60.0684C252.321 60.8065 252.529 61.395 252.947 61.8336C253.375 62.2615 253.968 62.4755 254.728 62.4755C255.402 62.4755 255.931 62.2669 256.317 61.8496C256.712 61.4324 256.91 60.8761 256.91 60.1807C256.91 59.4532 256.718 58.8755 256.333 58.4476C255.958 58.0089 255.402 57.7896 254.664 57.7896Z" fill="black"/>
<path d="M294.387 53.7136L289.926 64H288.08L292.59 53.9061H286.652V52.3495H294.387V53.7136Z" fill="black"/>
<path d="M334.32 58.8859C333.207 58.3296 332.651 57.4523 332.651 56.2541C332.651 55.6764 332.795 55.1468 333.084 54.6654C333.373 54.184 333.806 53.8042 334.384 53.526C334.962 53.2372 335.668 53.0928 336.502 53.0928C337.326 53.0928 338.027 53.2372 338.605 53.526C339.193 53.8042 339.632 54.184 339.921 54.6654C340.209 55.1468 340.354 55.6764 340.354 56.2541C340.354 56.8532 340.199 57.3828 339.888 57.8428C339.589 58.2921 339.188 58.6398 338.685 58.8859C339.295 59.1106 339.776 59.4797 340.129 59.9932C340.482 60.496 340.659 61.0898 340.659 61.7745C340.659 62.4698 340.482 63.085 340.129 63.6199C339.776 64.1548 339.284 64.5667 338.653 64.8556C338.022 65.1444 337.305 65.2889 336.502 65.2889C335.7 65.2889 334.983 65.1444 334.352 64.8556C333.732 64.5667 333.245 64.1548 332.892 63.6199C332.539 63.085 332.362 62.4698 332.362 61.7745C332.362 61.0791 332.539 60.48 332.892 59.9771C333.245 59.4743 333.721 59.1106 334.32 58.8859ZM338.605 56.4788C338.605 55.8797 338.417 55.4196 338.043 55.0987C337.669 54.7777 337.155 54.6173 336.502 54.6173C335.861 54.6173 335.352 54.7777 334.978 55.0987C334.603 55.4196 334.416 55.885 334.416 56.4948C334.416 57.0297 334.609 57.4684 334.994 57.8107C335.39 58.1424 335.893 58.3082 336.502 58.3082C337.112 58.3082 337.615 58.137 338.011 57.7947C338.407 57.4523 338.605 57.0137 338.605 56.4788ZM336.502 59.6883C335.796 59.6883 335.219 59.8648 334.769 60.2178C334.331 60.5602 334.111 61.0577 334.111 61.7103C334.111 62.3201 334.325 62.8175 334.753 63.2027C335.181 63.5771 335.764 63.7643 336.502 63.7643C337.23 63.7643 337.802 63.5718 338.22 63.1866C338.647 62.8015 338.861 62.3094 338.861 61.7103C338.861 61.0684 338.642 60.5709 338.203 60.2178C337.776 59.8648 337.209 59.6883 336.502 59.6883Z" fill="black"/>
<g clip-path="url(#clip2_1640_48160)">
<path d="M377.5 36C367.559 36 359.5 27.9414 359.5 18C359.5 8.0586 367.559 0 377.5 0C387.441 0 395.5 8.0586 395.5 18C395.5 27.9414 387.441 36 377.5 36ZM377.5 32.4C381.319 32.4 384.982 30.8829 387.682 28.1823C390.383 25.4818 391.9 21.8191 391.9 18C391.9 14.1809 390.383 10.5182 387.682 7.81766C384.982 5.11714 381.319 3.6 377.5 3.6C373.681 3.6 370.018 5.11714 367.318 7.81766C364.617 10.5182 363.1 14.1809 363.1 18C363.1 21.8191 364.617 25.4818 367.318 28.1823C370.018 30.8829 373.681 32.4 377.5 32.4ZM368.5 27C368.5 24.6131 369.448 22.3239 371.136 20.636C372.824 18.9482 375.113 18 377.5 18C379.887 18 382.176 18.9482 383.864 20.636C385.552 22.3239 386.5 24.6131 386.5 27H382.9C382.9 25.5678 382.331 24.1943 381.318 23.1816C380.306 22.1689 378.932 21.6 377.5 21.6C376.068 21.6 374.694 22.1689 373.682 23.1816C372.669 24.1943 372.1 25.5678 372.1 27H368.5ZM370.3 16.2C369.584 16.2 368.897 15.9155 368.391 15.4092C367.884 14.9028 367.6 14.2161 367.6 13.5C367.6 12.7839 367.884 12.0972 368.391 11.5908C368.897 11.0845 369.584 10.8 370.3 10.8C371.016 10.8 371.703 11.0845 372.209 11.5908C372.716 12.0972 373 12.7839 373 13.5C373 14.2161 372.716 14.9028 372.209 15.4092C371.703 15.9155 371.016 16.2 370.3 16.2ZM384.7 16.2C383.984 16.2 383.297 15.9155 382.791 15.4092C382.284 14.9028 382 14.2161 382 13.5C382 12.7839 382.284 12.0972 382.791 11.5908C383.297 11.0845 383.984 10.8 384.7 10.8C385.416 10.8 386.103 11.0845 386.609 11.5908C387.116 12.0972 387.4 12.7839 387.4 13.5C387.4 14.2161 387.116 14.9028 386.609 15.4092C386.103 15.9155 385.416 16.2 384.7 16.2Z" fill="#B3B3B3"/>
</g>
<path d="M375.648 61.8226C375.755 62.3575 375.985 62.764 376.338 63.0422C376.691 63.3204 377.168 63.4594 377.767 63.4594C378.526 63.4594 379.083 63.1599 379.436 62.5608C379.789 61.9617 379.965 60.94 379.965 59.4957C379.708 59.8595 379.345 60.143 378.874 60.3462C378.414 60.5388 377.911 60.6351 377.365 60.6351C376.67 60.6351 376.039 60.496 375.472 60.2178C374.905 59.929 374.456 59.5064 374.124 58.9501C373.803 58.3831 373.642 57.6984 373.642 56.896C373.642 55.7192 373.985 54.7831 374.669 54.0877C375.365 53.3816 376.317 53.0286 377.526 53.0286C378.981 53.0286 380.013 53.5153 380.623 54.4889C381.244 55.4517 381.554 56.9335 381.554 58.934C381.554 60.3141 381.436 61.4428 381.201 62.3201C380.976 63.1973 380.58 63.8606 380.013 64.31C379.446 64.7593 378.66 64.984 377.654 64.984C376.51 64.984 375.627 64.6844 375.006 64.0853C374.386 63.4862 374.038 62.732 373.963 61.8226H375.648ZM377.686 59.0945C378.328 59.0945 378.831 58.8966 379.195 58.5008C379.569 58.0942 379.757 57.5593 379.757 56.896C379.757 56.1578 379.559 55.5855 379.163 55.1789C378.778 54.7617 378.248 54.5531 377.574 54.5531C376.9 54.5531 376.365 54.767 375.969 55.195C375.584 55.6122 375.392 56.1632 375.392 56.8479C375.392 57.5005 375.579 58.0407 375.953 58.4687C376.338 58.8859 376.916 59.0945 377.686 59.0945Z" fill="black"/>
<path d="M411.277 54.9703V53.3014H414.615V65H412.769V54.9703H411.277ZM417.128 58.9982C417.128 57.1474 417.438 55.7031 418.059 54.6654C418.69 53.617 419.77 53.0928 421.3 53.0928C422.83 53.0928 423.905 53.617 424.526 54.6654C425.157 55.7031 425.473 57.1474 425.473 58.9982C425.473 60.8704 425.157 62.3361 424.526 63.3952C423.905 64.4437 422.83 64.9679 421.3 64.9679C419.77 64.9679 418.69 64.4437 418.059 63.3952C417.438 62.3361 417.128 60.8704 417.128 58.9982ZM423.675 58.9982C423.675 58.1317 423.616 57.3988 423.499 56.7997C423.392 56.2006 423.167 55.7138 422.825 55.3394C422.482 54.9543 421.974 54.7617 421.3 54.7617C420.626 54.7617 420.118 54.9543 419.776 55.3394C419.433 55.7138 419.203 56.2006 419.086 56.7997C418.979 57.3988 418.925 58.1317 418.925 58.9982C418.925 59.8969 418.979 60.6511 419.086 61.2609C419.193 61.8707 419.417 62.3629 419.76 62.7373C420.113 63.1117 420.626 63.299 421.3 63.299C421.974 63.299 422.482 63.1117 422.825 62.7373C423.178 62.3629 423.408 61.8707 423.515 61.2609C423.622 60.6511 423.675 59.8969 423.675 58.9982Z" fill="black"/>
<path d="M454.612 54.9703V53.3014H457.95V65H456.104V54.9703H454.612ZM460.222 54.9703V53.3014H463.56V65H461.715V54.9703H460.222Z" fill="black"/>
<g clip-path="url(#clip3_1640_48160)">
<path d="M500.5 0C490.546 0 482.5 8.1 482.5 18C482.5 27.9 490.546 36 500.5 36C510.4 36 518.5 27.9 518.5 18C518.5 8.1 510.4 0 500.5 0ZM500.5 32.4C492.544 32.4 486.1 25.956 486.1 18C486.1 10.044 492.544 3.6 500.5 3.6C508.456 3.6 514.9 10.044 514.9 18C514.9 25.956 508.456 32.4 500.5 32.4ZM506.8 16.2C508.294 16.2 509.5 14.994 509.5 13.5C509.5 12.006 508.294 10.8 506.8 10.8C505.306 10.8 504.1 12.006 504.1 13.5C504.1 14.994 505.306 16.2 506.8 16.2ZM494.2 16.2C495.694 16.2 496.9 14.994 496.9 13.5C496.9 12.006 495.694 10.8 494.2 10.8C492.706 10.8 491.5 12.006 491.5 13.5C491.5 14.994 492.706 16.2 494.2 16.2ZM500.5 20.7C496.306 20.7 492.742 23.328 491.302 27H509.698C508.258 23.328 504.694 20.7 500.5 20.7Z" fill="#B3B3B3"/>
</g>
<path d="M493.786 54.9703V53.3014H497.124V65H495.278V54.9703H493.786ZM500.648 62.5126C501.675 61.6247 502.483 60.8972 503.071 60.3302C503.67 59.7525 504.168 59.1534 504.564 58.5329C504.96 57.9124 505.157 57.2918 505.157 56.6713C505.157 56.0294 505.002 55.5266 504.692 55.1629C504.393 54.7991 503.916 54.6173 503.264 54.6173C502.633 54.6173 502.141 54.8205 501.787 55.2271C501.445 55.6229 501.263 56.1578 501.242 56.8318H499.477C499.509 55.6122 499.872 54.6815 500.568 54.0396C501.274 53.387 502.167 53.0607 503.248 53.0607C504.414 53.0607 505.323 53.3816 505.976 54.0235C506.639 54.6654 506.971 55.5213 506.971 56.5911C506.971 57.3614 506.773 58.1049 506.377 58.8217C505.992 59.5278 505.527 60.1644 504.981 60.7314C504.446 61.2877 503.761 61.9349 502.927 62.6731L502.205 63.315H507.292V64.8395H499.493V63.5076L500.648 62.5126Z" fill="black"/>
<defs>
<clipPath id="clip0_1640_48160">
<rect width="36" height="36" fill="white" transform="translate(26.5)"/>
</clipPath>
<clipPath id="clip1_1640_48160">
<rect width="36" height="36" fill="white" transform="translate(149.5)"/>
</clipPath>
<clipPath id="clip2_1640_48160">
<rect width="36" height="36" fill="white" transform="translate(359.5)"/>
</clipPath>
<clipPath id="clip3_1640_48160">
<rect width="36" height="36" fill="white" transform="translate(482.5)"/>
</clipPath>
</defs>
</svg>
