<svg width="193" height="231" viewBox="0 0 193 231" fill="none" xmlns="http://www.w3.org/2000/svg">
<path d="M118.953 160.565C114.421 160.565 110.454 158.945 110.216 158.843C109.933 158.725 109.708 158.499 109.591 158.215C109.474 157.931 109.474 157.612 109.593 157.328C109.711 157.045 109.937 156.82 110.221 156.703C110.505 156.586 110.824 156.587 111.108 156.705C111.22 156.751 118.693 159.78 124.113 157.211C126.51 156.074 128.186 153.96 129.095 150.932C129.183 150.638 129.384 150.391 129.655 150.246C129.925 150.1 130.242 150.068 130.536 150.156C130.831 150.244 131.078 150.446 131.223 150.716C131.369 150.986 131.401 151.304 131.313 151.598C130.207 155.285 128.115 157.876 125.096 159.309C123.125 160.239 120.982 160.565 118.953 160.565Z" fill="black"/>
<path d="M118.616 190.475H75.7378L73.0316 193.388L74.0727 198.383L72.824 201.851L74.0727 206.292L73.6565 209.622L74.0727 212.951L75.7378 215.034L75.3904 219.334L76.9865 222.525H114.865L117.016 220.722L116.946 218.779C116.946 218.779 116.113 215.866 116.53 215.45C116.946 215.034 117.362 213.784 117.779 213.368C118.195 212.951 118.611 212.951 118.611 212.951L120.692 210.87L118.616 206.293L120.281 201.297L118.2 197.135L120.073 193.545L118.616 190.475Z" fill="#CCCCCC"/>
<path d="M111.911 220.772L111.183 221.554L111.119 221.62L110.303 222.5L109.829 223.01L107.639 225.366L107.565 225.449L103.368 229.958H89.2133L85.0214 225.449L85.0194 225.441L84.9465 225.366L82.7578 223.01L82.2818 222.5L81.4625 221.62L81.4007 221.554L80.6755 220.772H111.911Z" fill="black"/>
<path d="M120.732 190.061C120.586 189.863 120.425 189.677 120.249 189.503C120.041 189.295 119.815 189.105 119.574 188.936C119.209 188.681 118.812 188.477 118.392 188.329C118.24 188.275 118.088 188.227 117.931 188.191C117.536 188.093 117.129 188.044 116.722 188.045H76.5517C76.0859 188.044 75.6223 188.109 75.1753 188.241C74.3412 188.481 73.5842 188.934 72.979 189.556C72.3738 190.179 71.9414 190.948 71.7245 191.788C71.5076 192.629 71.5136 193.511 71.7421 194.348C71.9706 195.186 72.4135 195.949 73.0272 196.563C73.2443 196.781 73.4817 196.977 73.7361 197.15C73.7661 197.172 73.7972 197.192 73.8293 197.211C73.9505 197.294 74.0763 197.371 74.2061 197.44C74.9271 197.824 75.7317 198.024 76.5486 198.023H116.717C117.321 198.024 117.92 197.914 118.484 197.699C118.854 197.557 119.205 197.373 119.532 197.15C120.088 196.772 120.561 196.286 120.923 195.721C121.286 195.156 121.53 194.523 121.642 193.861C121.754 193.198 121.73 192.52 121.573 191.868C121.416 191.215 121.128 190.6 120.727 190.061H120.732ZM116.722 195.106H76.5517C76.001 195.106 75.4729 194.887 75.0836 194.498C74.6942 194.108 74.4755 193.58 74.4755 193.03C74.4755 192.479 74.6942 191.951 75.0836 191.562C75.4729 191.172 76.001 190.954 76.5517 190.954H116.72C117.27 190.955 117.797 191.174 118.186 191.562C118.575 191.95 118.795 192.477 118.798 193.027C118.798 193.577 118.579 194.105 118.19 194.495C117.801 194.885 117.273 195.104 116.722 195.106Z" fill="black"/>
<path d="M119.537 197.143C119.225 196.928 118.889 196.751 118.536 196.614L118.477 196.591C117.916 196.378 117.321 196.27 116.721 196.272H76.5508C75.6918 196.27 74.8473 196.493 74.1009 196.918C73.9996 196.975 73.8984 197.033 73.8082 197.097C73.784 197.111 73.7606 197.126 73.7383 197.143C73.0592 197.606 72.5052 198.23 72.1256 198.959C71.746 199.688 71.5526 200.5 71.5626 201.322C71.5727 202.144 71.7858 202.951 72.1831 203.67C72.5803 204.39 73.1494 205 73.8396 205.447C73.8487 205.454 73.8578 205.458 73.867 205.465C73.9682 205.533 74.0776 205.595 74.186 205.657C74.9125 206.048 75.7248 206.252 76.5498 206.252H116.718C117.429 206.254 118.131 206.1 118.776 205.801L118.917 205.735C119.085 205.657 119.248 205.567 119.404 205.465C120.1 205.022 120.675 204.413 121.077 203.693C121.48 202.974 121.697 202.165 121.71 201.34C121.723 200.516 121.531 199.701 121.151 198.969C120.771 198.236 120.215 197.61 119.533 197.146L119.537 197.143ZM74.4817 201.259C74.482 200.71 74.7 200.184 75.0879 199.796C75.4758 199.408 76.002 199.189 76.5508 199.188H116.719C117.27 199.188 117.798 199.407 118.187 199.796C118.576 200.186 118.795 200.714 118.795 201.264C118.795 201.815 118.576 202.343 118.187 202.732C117.798 203.122 117.27 203.34 116.719 203.34H76.5508C76.2783 203.34 76.0086 203.285 75.7572 203.18C75.5057 203.075 75.2774 202.922 75.0852 202.728C74.8931 202.535 74.7409 202.306 74.6374 202.054C74.5338 201.802 74.4809 201.532 74.4817 201.259Z" fill="black"/>
<path d="M119.408 205.465C119.268 205.374 119.123 205.291 118.974 205.216C118.934 205.192 118.891 205.174 118.849 205.154C118.184 204.84 117.458 204.678 116.723 204.678H76.5515C75.7257 204.677 74.913 204.884 74.1876 205.279C74.0772 205.333 73.9706 205.396 73.8686 205.465C73.8619 205.469 73.8557 205.473 73.8504 205.479C73.0342 206.005 72.3895 206.758 71.9954 207.646C71.6012 208.533 71.4748 209.517 71.6316 210.475C71.7884 211.433 72.2216 212.325 72.8781 213.04C73.5346 213.756 74.3857 214.264 75.327 214.503C75.3878 214.521 75.4496 214.536 75.5124 214.549C75.6238 214.569 75.7372 214.589 75.8486 214.605C76.0814 214.639 76.3163 214.656 76.5515 214.655H116.72C116.827 214.655 116.931 214.655 117.036 214.644C117.284 214.63 117.532 214.596 117.775 214.543C118.742 214.335 119.625 213.844 120.312 213.133C120.999 212.422 121.459 211.522 121.634 210.549C121.808 209.576 121.69 208.573 121.293 207.667C120.896 206.762 120.239 205.994 119.405 205.463L119.408 205.465ZM74.4824 209.671C74.4816 209.398 74.5345 209.128 74.638 208.876C74.7416 208.624 74.8938 208.395 75.086 208.202C75.2782 208.009 75.5065 207.856 75.758 207.751C76.0094 207.646 76.2791 207.592 76.5515 207.592H116.72C117.27 207.592 117.798 207.81 118.188 208.2C118.577 208.589 118.796 209.117 118.796 209.668C118.796 210.218 118.577 210.746 118.188 211.136C117.798 211.525 117.27 211.744 116.72 211.744H76.5515C76.0016 211.742 75.4749 211.522 75.0869 211.133C74.699 210.743 74.4815 210.215 74.4824 209.666V209.671Z" fill="black"/>
<path d="M117.78 214.543C117.627 214.398 117.465 214.262 117.295 214.138C117.222 214.081 117.147 214.037 117.072 213.982C116.176 213.404 115.139 213.081 114.073 213.045C114.007 213.045 113.938 213.045 113.865 213.045H79.4177C79.0565 213.046 78.696 213.078 78.3401 213.14C78.1649 213.175 77.9968 213.211 77.8337 213.259C77.1265 213.452 76.4644 213.783 75.8851 214.232C75.757 214.33 75.6349 214.436 75.5195 214.549C75.4902 214.576 75.4628 214.604 75.4365 214.631C74.9737 215.07 74.6042 215.597 74.35 216.181C74.0957 216.766 73.962 217.395 73.9568 218.033C73.9568 219.988 75.1934 221.685 76.9951 222.502L77.0174 222.513C77.7744 222.85 78.5942 223.022 79.4228 223.019H113.87C116.885 223.019 119.339 220.78 119.339 218.029C119.334 217.372 119.192 216.723 118.924 216.123C118.656 215.523 118.266 214.985 117.78 214.543ZM76.8696 218.031C76.8696 217.39 77.2392 216.797 77.8317 216.41C78.1453 216.208 78.4962 216.07 78.8637 216.005C79.0464 215.971 79.2319 215.954 79.4177 215.955H113.974C114.413 215.964 114.843 216.077 115.23 216.284C115.939 216.653 116.417 217.307 116.417 218.028C116.417 219.171 115.273 220.104 113.865 220.104H79.4177C78.011 220.107 76.8696 219.174 76.8696 218.031Z" fill="black"/>
<path d="M107.638 225.452L103.367 229.961H89.2119L85.018 225.527L84.9451 225.452H107.638Z" fill="black"/>
<path d="M84.9451 225.452H85.0173V225.528L84.9451 225.452Z" fill="black"/>
<path d="M96.4761 44.8928V189.48H75.6311V172.547C75.6311 172.547 53.4847 171.244 56.0895 153.003C56.0895 153.003 39.1539 153.003 40.4563 133.464C40.4563 133.464 26.1265 119.135 32.6397 102.202C32.6397 102.202 26.1265 76.1498 45.6681 77.4531C45.6681 77.4531 37.8515 61.822 54.7831 57.9143C54.7831 57.9143 61.2972 37.0722 76.9305 46.191C76.9376 46.196 88.6615 34.4697 96.4761 44.8928Z" fill="#F28F8F"/>
<path d="M31.434 102.133C30.9054 99.8042 28.4129 87.291 34.0763 80.5165C36.3743 77.7651 39.6821 76.3393 43.9216 76.2634C42.9979 73.6943 41.7532 68.6858 43.8649 64.2019C45.5299 60.6688 48.9024 58.2273 53.8974 56.9514C54.7593 54.5605 58.2027 46.2053 65.0603 43.5471C68.4672 42.2246 72.1558 42.5172 76.0459 44.4159C76.2839 44.5293 76.5239 44.6519 76.7649 44.7815C78.1833 43.5241 79.735 42.4256 81.3923 41.5056C82.219 41.0494 83.0777 40.6538 83.9617 40.3218C85.6429 39.7011 87.4831 39.3193 89.3629 39.454C92.5025 39.6758 95.2045 41.2767 97.4043 44.2053L97.6362 44.5091V190.644H74.474V173.603C71.4499 173.246 62.9415 171.733 58.1096 165.82C55.5057 162.633 54.3967 158.691 54.8028 154.085C52.4846 153.833 47.5321 152.826 43.794 148.834C40.464 145.274 38.9428 140.252 39.2739 133.909C38.2612 132.817 35.399 129.502 33.0646 124.7C29.3588 117.069 28.7957 109.273 31.434 102.133ZM56.0911 151.854H57.4269L57.2386 153.17C56.5995 157.636 57.4928 161.395 59.8971 164.339C65.0694 170.678 75.5952 171.382 75.6964 171.39L76.7882 171.453V188.321H95.32V45.2939C93.5912 43.1167 91.5363 41.9279 89.2069 41.7608C83.5151 41.3557 77.8101 46.9637 77.7534 47.0204L77.1234 47.6503L76.3517 47.2017C75.6775 46.8051 74.979 46.4513 74.2603 46.1425C71.2615 44.8605 68.4601 44.7106 65.9039 45.6999C59.0828 48.3399 55.925 58.1716 55.8936 58.2698L55.6961 58.9017L55.05 59.0516C50.4408 60.1159 47.3832 62.1776 45.9654 65.178C43.5043 70.383 46.6743 76.8811 46.7047 76.9449L47.6101 78.7524L45.5927 78.6178C41.2489 78.3281 37.9735 79.4664 35.8548 81.9979C30.481 88.4231 33.728 101.798 33.7654 101.932L33.8546 102.285L33.7229 102.627C31.1484 109.318 31.6173 116.381 35.1175 123.622C37.7629 129.098 41.2428 132.621 41.2762 132.656L41.6489 133.026L41.6145 133.55C41.2195 139.463 42.5169 144.065 45.463 147.233C49.7055 151.779 56.0293 151.856 56.0911 151.856V151.854Z" fill="black"/>
<path d="M75.5309 59.5693C75.6064 59.5693 75.6817 59.5618 75.7557 59.547C76.0566 59.4873 76.3216 59.3107 76.4925 59.0559C76.6633 58.8012 76.7262 58.489 76.6672 58.188C75.7932 53.7382 76.0646 50.0692 77.4511 47.579C78.2279 46.1836 79.1496 45.5071 79.6539 45.2195C79.7026 45.2103 79.7506 45.1981 79.7977 45.183C79.9436 45.1366 80.0866 45.0818 80.2262 45.019C81.0009 44.6554 81.0364 43.9546 80.9351 43.6012C80.8473 43.3014 80.6448 43.0483 80.3717 42.8966C80.0985 42.745 79.7766 42.7071 79.4757 42.791C78.6999 42.9754 76.8728 43.9496 75.5076 46.3101C73.7565 49.3381 73.3807 53.485 74.3935 58.6366C74.446 58.8996 74.588 59.1363 74.7954 59.3063C75.0027 59.4764 75.2627 59.5693 75.5309 59.5693Z" fill="black"/>
<path d="M79.099 128.119C79.3142 128.119 79.5251 128.059 79.7082 127.946C79.8912 127.832 80.039 127.67 80.135 127.478C84.0019 119.746 84.5802 113.444 81.8568 108.743C77.7702 101.701 67.8601 101.072 67.4408 101.046C67.289 101.038 67.137 101.059 66.9934 101.11C66.8499 101.16 66.7177 101.238 66.6043 101.339C66.4909 101.441 66.3986 101.563 66.3327 101.7C66.2667 101.837 66.2284 101.986 66.2199 102.138C66.2114 102.289 66.2328 102.441 66.2831 102.585C66.3333 102.728 66.4113 102.861 66.5127 102.974C66.614 103.087 66.7366 103.18 66.8737 103.246C67.0107 103.312 67.1593 103.35 67.3112 103.358C67.4013 103.365 76.408 103.951 79.8596 109.913C82.1626 113.89 81.559 119.45 78.0659 126.436C77.9778 126.612 77.9362 126.808 77.9451 127.005C77.954 127.202 78.013 127.394 78.1167 127.562C78.2204 127.73 78.3652 127.868 78.5375 127.965C78.7097 128.061 78.9037 128.111 79.101 128.112L79.099 128.119Z" fill="black"/>
<path d="M62.1609 115.103C62.4238 115.103 62.6789 115.014 62.8841 114.85C63.0894 114.685 63.2327 114.456 63.2906 114.2C63.3484 113.943 63.3174 113.675 63.2024 113.439C63.0875 113.202 62.8956 113.012 62.6582 112.899C62.3949 112.774 56.2108 109.773 55.4958 103.395C55.0684 99.581 56.8124 96.5551 57.884 95.0907C60.3146 91.7833 63.7024 90.6511 65.0464 90.3179C65.1939 90.2813 65.3329 90.2161 65.4552 90.1258C65.5775 90.0355 65.6809 89.9221 65.7594 89.7919C65.8378 89.6617 65.8899 89.5173 65.9126 89.367C65.9353 89.2167 65.9281 89.0634 65.8915 88.9158C65.855 88.7683 65.7897 88.6294 65.6994 88.5071C65.6092 88.3847 65.4957 88.2814 65.3655 88.2029C65.2353 88.1244 65.0909 88.0724 64.9405 88.0497C64.7902 88.027 64.6369 88.0342 64.4893 88.0707C62.5154 88.5599 58.7904 89.9442 56.0174 93.7195C53.8156 96.7181 52.8129 100.246 53.1948 103.653C54.0516 111.298 61.3558 114.844 61.6657 114.995C61.8207 115.068 61.9899 115.105 62.1609 115.103Z" fill="black"/>
<path d="M40.4111 136.227C40.4541 136.227 40.497 136.224 40.5397 136.22C40.8446 136.186 41.1236 136.032 41.3155 135.793C41.5074 135.553 41.5966 135.248 41.5636 134.943C41.5576 134.891 41.2872 132.137 42.3526 129.003C43.7563 124.873 46.7329 122.025 51.2003 120.535C51.3445 120.487 51.4779 120.411 51.5927 120.311C51.7076 120.212 51.8017 120.091 51.8697 119.955C51.9377 119.819 51.9783 119.671 51.989 119.519C51.9998 119.367 51.9806 119.215 51.9325 119.071C51.8845 118.927 51.8085 118.793 51.7088 118.678C51.6092 118.563 51.4879 118.469 51.3519 118.401C51.2159 118.333 51.0679 118.293 50.9162 118.282C50.7646 118.271 50.6123 118.291 50.468 118.339C43.9579 120.509 41.2517 124.982 40.1275 128.352C38.9213 131.971 39.2474 135.067 39.2616 135.197C39.293 135.48 39.4276 135.741 39.6396 135.931C39.8517 136.121 40.1263 136.226 40.4111 136.227Z" fill="black"/>
<path d="M85.1594 83.0967C86.7515 83.1402 89.8101 82.9012 92.3988 80.809C94.16 79.3852 95.3713 77.4023 95.9618 75.1461H98.3276C98.2871 75.3314 98.2436 75.5167 98.195 75.701C97.4637 78.5163 95.9668 80.9052 93.8542 82.6096C90.8908 85.0056 87.4736 85.4167 85.4845 85.4167C85.3488 85.4167 85.2181 85.4167 85.0956 85.4167C84.7886 85.4083 84.4975 85.2782 84.2864 85.0552C84.0753 84.8321 83.9614 84.5343 83.9699 84.2273C83.9784 83.9204 84.1084 83.6293 84.3315 83.4182C84.5546 83.2071 84.8524 83.0933 85.1594 83.1017V83.0967Z" fill="black"/>
<path d="M74.0718 76.0195C77.3846 76.0195 80.2062 75.0514 82.4607 73.1384C87.3707 68.9733 86.8471 62.4454 86.7711 61.7153C86.7394 61.4099 86.5877 61.1296 86.3493 60.9361C86.111 60.7426 85.8055 60.6517 85.5 60.6834C85.1946 60.7151 84.9143 60.8668 84.7208 61.1051C84.5273 61.3435 84.4363 61.6489 84.468 61.9543C84.5308 62.5619 84.9673 67.9757 80.9618 71.3723C79.1023 72.9501 76.7303 73.7329 73.9077 73.7015C68.6827 73.6438 65.2828 70.0194 64.3642 68.9105C64.1653 68.684 63.8861 68.544 63.5856 68.5201C63.2852 68.4962 62.9873 68.5903 62.7551 68.7824C62.5229 68.9745 62.3747 69.2496 62.3419 69.5491C62.3092 69.8487 62.3945 70.1492 62.5797 70.387C63.6583 71.6903 67.6608 75.9476 73.8814 76.0165L74.0718 76.0195Z" fill="black"/>
<path d="M76.0229 161.003C80.5541 161.003 84.5212 159.382 84.7592 159.281C85.0428 159.163 85.2679 158.937 85.3849 158.653C85.5019 158.369 85.5012 158.05 85.383 157.766C85.2649 157.483 85.0388 157.258 84.7547 157.141C84.4705 157.024 84.1516 157.024 83.8679 157.142C83.7555 157.189 76.2821 160.218 70.8627 157.649C68.4655 156.512 66.7893 154.398 65.8808 151.37C65.7926 151.076 65.5911 150.829 65.3208 150.683C65.0504 150.538 64.7333 150.506 64.4391 150.594C64.145 150.682 63.898 150.884 63.7524 151.154C63.6068 151.424 63.5746 151.741 63.6628 152.035C64.7688 155.723 66.8602 158.314 69.8793 159.747C71.8502 160.677 73.9933 161.003 76.0229 161.003Z" fill="black"/>
<path d="M76.4459 145.307C77.4095 145.307 78.3712 145.22 79.3192 145.047C85.325 143.933 88.4221 139.357 89.2282 137.98C89.3731 137.715 89.4091 137.404 89.3286 137.114C89.248 136.823 89.0574 136.576 88.7971 136.423C88.5368 136.271 88.2274 136.226 87.9346 136.298C87.6418 136.371 87.3887 136.554 87.229 136.81C86.5484 137.972 83.9364 141.838 78.8988 142.77C77.1518 143.093 72.7381 143.513 69.4799 140.459C66.4689 137.636 65.5615 133.012 67.1678 128.679C67.2752 128.391 67.2638 128.072 67.1362 127.793C67.0086 127.513 66.7751 127.296 66.4871 127.188C66.1992 127.081 65.8804 127.092 65.6008 127.22C65.3212 127.347 65.1038 127.581 64.9963 127.869C63.0649 133.079 64.2023 138.681 67.8959 142.148C70.6264 144.708 73.9413 145.307 76.4459 145.307Z" fill="black"/>
<path d="M96.8646 129.412C97.0326 129.412 97.1984 129.375 97.3507 129.304C97.5031 129.233 97.6382 129.13 97.7469 129.002C97.8556 128.874 97.9352 128.724 97.9803 128.563C98.0254 128.401 98.0349 128.231 98.0081 128.065C97.6793 126.496 96.9807 125.027 95.9703 123.782C94.4441 121.917 91.5252 119.851 86.279 120.601C86.1251 120.618 85.9762 120.667 85.8412 120.743C85.7063 120.819 85.5879 120.921 85.4932 121.044C85.3985 121.166 85.3294 121.307 85.2899 121.457C85.2505 121.606 85.2414 121.763 85.2634 121.916C85.2853 122.069 85.3378 122.217 85.4177 122.35C85.4977 122.482 85.6034 122.598 85.7287 122.689C85.8539 122.78 85.9963 122.845 86.1472 122.88C86.298 122.915 86.4544 122.92 86.6071 122.894C94.4562 121.773 95.6756 128.182 95.7222 128.455C95.7702 128.723 95.9109 128.966 96.1197 129.141C96.3285 129.316 96.5922 129.412 96.8646 129.412Z" fill="black"/>
<path d="M42.6223 109.888C42.9044 109.887 43.1765 109.784 43.3876 109.596C43.5986 109.409 43.734 109.151 43.7684 108.871C43.8029 108.591 43.7339 108.308 43.5746 108.075C43.4152 107.843 43.1764 107.676 42.9028 107.607C33.4667 105.248 33.3573 99.6682 33.3573 99.6064C33.3484 99.3053 33.2225 99.0194 33.0063 98.8095C32.7901 98.5996 32.5006 98.4822 32.1992 98.4822C31.8979 98.4822 31.6083 98.5996 31.3921 98.8095C31.1759 99.0194 31.05 99.3053 31.0411 99.6064C31.0411 99.9103 31.1697 107.056 42.3407 109.849C42.4326 109.873 42.5272 109.887 42.6223 109.888Z" fill="black"/>
<path d="M63.6188 59.9986C63.888 59.9985 64.1487 59.9047 64.3563 59.7333C64.5639 59.5619 64.7052 59.3236 64.7562 59.0593C64.8071 58.795 64.7644 58.5212 64.6354 58.2849C64.5064 58.0487 64.2991 57.8647 64.0492 57.7646C63.7636 57.6502 56.9881 54.999 51.3762 57.8041C51.2357 57.8693 51.1096 57.9621 51.0055 58.0769C50.9015 58.1917 50.8215 58.3262 50.7703 58.4724C50.7191 58.6187 50.6978 58.7737 50.7076 58.9284C50.7174 59.083 50.7582 59.2341 50.8274 59.3727C50.8967 59.5113 50.993 59.6346 51.1107 59.7354C51.2285 59.8361 51.3653 59.9122 51.513 59.9591C51.6606 60.006 51.8162 60.0229 51.9705 60.0086C52.1249 59.9943 52.2747 59.9493 52.4113 59.8761C57.1035 57.5297 63.1286 59.8913 63.1884 59.9146C63.3251 59.9698 63.4713 59.9984 63.6188 59.9986Z" fill="black"/>
<path d="M52.5651 83.9675C52.8519 83.9662 53.1279 83.8587 53.3399 83.6657C53.5519 83.4726 53.6848 83.2079 53.7129 82.9226C53.741 82.6372 53.6623 82.3516 53.492 82.121C53.3217 81.8903 53.072 81.731 52.791 81.6738C47.1396 80.5436 45.9304 74.9982 45.8818 74.7622C45.8517 74.6132 45.7926 74.4716 45.7078 74.3454C45.623 74.2192 45.5142 74.111 45.3875 74.0269C45.2609 73.9428 45.1189 73.8844 44.9698 73.8551C44.8206 73.8259 44.6671 73.8263 44.518 73.8563C44.369 73.8864 44.2274 73.9455 44.1012 74.0303C43.975 74.1151 43.8668 74.2239 43.7827 74.3505C43.6985 74.4771 43.6402 74.6191 43.6109 74.7683C43.5816 74.9174 43.5821 75.0709 43.6121 75.2199C43.6709 75.5166 45.1485 82.5113 52.3373 83.9443C52.4123 83.9595 52.4886 83.9673 52.5651 83.9675Z" fill="black"/>
<path d="M86.7032 98.8771C88.6496 98.8779 90.5875 98.6201 92.466 98.1105C92.7524 98.0159 92.9906 97.8134 93.1301 97.5459C93.2695 97.2784 93.2991 96.9671 93.2125 96.6782C93.126 96.3892 92.9302 96.1454 92.6667 95.9985C92.4033 95.8517 92.0929 95.8134 91.8016 95.8917C91.752 95.9059 88.6467 96.8102 85.1698 96.4933C80.7136 96.0882 77.7259 93.9312 76.2816 90.0809C76.1701 89.799 75.9524 89.5721 75.6754 89.449C75.3983 89.3259 75.084 89.3164 74.8 89.4225C74.516 89.5286 74.285 89.7419 74.1566 90.0165C74.0282 90.2911 74.0126 90.6051 74.1133 90.8911C75.8786 95.6001 79.6542 98.3353 85.0311 98.8032C85.6023 98.8549 86.1634 98.8771 86.7032 98.8771Z" fill="black"/>
<path d="M43.9327 116.395C44.0406 116.395 44.1479 116.38 44.2517 116.35C46.971 115.572 48.8315 114.083 49.7825 111.921C51.7301 107.494 48.9946 101.926 48.8771 101.693C48.8092 101.557 48.7151 101.436 48.6003 101.336C48.4856 101.237 48.3522 101.16 48.208 101.112C48.0638 101.064 47.9115 101.045 47.7598 101.055C47.6081 101.066 47.46 101.106 47.324 101.174C47.1879 101.242 47.0666 101.336 46.9668 101.451C46.8671 101.566 46.791 101.699 46.7428 101.843C46.6946 101.988 46.6753 102.14 46.6859 102.291C46.6966 102.443 46.737 102.591 46.8049 102.727C46.8292 102.775 49.1728 107.57 47.6597 110.996C46.9892 112.515 45.6666 113.538 43.6147 114.124C43.3468 114.202 43.1158 114.373 42.9642 114.607C42.8125 114.841 42.7503 115.122 42.7889 115.398C42.8276 115.674 42.9645 115.927 43.1746 116.11C43.3847 116.293 43.6538 116.395 43.9327 116.396V116.395Z" fill="black"/>
<path d="M85.9838 41.1349C86.3327 41.1675 86.6796 41.2189 87.0229 41.2888C86.8204 41.1936 86.6161 41.1004 86.4102 41.0093C85.8701 40.769 85.3262 40.5384 84.7786 40.3176C83.8946 40.6496 83.0359 41.0453 82.2092 41.5015C83.4344 41.1497 84.7138 41.0254 85.9838 41.1349Z" fill="black"/>
<path opacity="0.2" d="M33.0627 124.717C35.3921 129.519 38.2623 132.834 39.272 133.926C38.9409 140.269 40.4621 145.291 43.7921 148.851C47.5302 152.843 52.4827 153.851 54.801 154.102C54.3958 158.708 55.5038 162.65 58.1077 165.837C62.9396 171.75 71.448 173.263 74.4721 173.62V190.218C74.0713 190.757 73.7836 191.372 73.6265 192.024C73.4693 192.677 73.4458 193.355 73.5574 194.018C73.6691 194.68 73.9135 195.313 74.2761 195.878C74.6387 196.443 75.1119 196.929 75.6672 197.307C74.9855 197.771 74.4298 198.398 74.0499 199.13C73.67 199.862 73.4779 200.677 73.4907 201.501C73.5036 202.326 73.721 203.134 74.1235 203.854C74.526 204.574 75.101 205.183 75.7969 205.626C74.963 206.157 74.3059 206.924 73.9092 207.83C73.5125 208.736 73.394 209.739 73.5687 210.712C73.7435 211.685 74.2037 212.584 74.8907 213.295C75.5778 214.006 76.4607 214.497 77.4274 214.705C76.9421 215.148 76.5537 215.686 76.2867 216.286C76.0196 216.887 75.8797 217.536 75.8758 218.193C75.8758 220.944 78.3278 223.183 81.3448 223.183H85.3828L87.5714 225.539L87.6463 225.621H87.5714L91.8423 230.129H97.9058C97.4189 228.584 96.8163 227.077 96.103 225.621C95.7081 224.8 95.2928 223.988 94.8553 223.183C94.7641 223.013 94.671 222.843 94.5788 222.676C94.2628 222.098 93.9435 221.522 93.6207 220.948L93.2399 220.272C92.4621 218.886 91.6863 217.51 90.9804 216.121C90.7586 215.688 90.5429 215.252 90.3363 214.816C90.2664 214.668 90.1955 214.518 90.1277 214.368C89.9504 213.982 89.7782 213.596 89.6081 213.206C89.4177 212.776 89.2293 212.34 89.05 211.905C88.4768 210.537 87.9424 209.153 87.4468 207.753C87.2875 207.308 87.1332 206.861 86.984 206.413C86.8088 205.891 86.6386 205.364 86.4776 204.839C86.3388 204.394 86.2031 203.948 86.0725 203.498C85.6674 202.126 85.3014 200.742 84.9746 199.346C84.8815 198.958 84.7934 198.566 84.7073 198.176C84.5776 197.595 84.4557 197.014 84.3416 196.432C84.2647 196.041 84.1897 195.653 84.1178 195.261C83.8653 193.884 83.6506 192.5 83.4737 191.11C83.4504 190.96 83.4322 190.806 83.4139 190.656C83.413 190.642 83.413 190.628 83.4139 190.614C83.3846 190.391 83.3572 190.164 83.3319 189.939C83.3187 189.828 83.3046 189.68 83.2914 189.496C83.2661 189.193 83.2367 188.807 83.2094 188.34L83.2002 188.194C83.1709 187.707 84.1026 175.078 85.4425 157.826C82.9319 157.759 71.6495 157.183 62.5902 148.08C51.6867 137.136 52.9233 122.815 53.1258 120.869C43.077 111.062 42.0612 105.092 43.0801 101.426C44.1941 97.401 47.9708 95.4001 48.6737 89.2746C49.1497 85.139 47.5596 84.8767 47.8634 80.7563C48.4276 72.959 54.5802 67.4077 57.2823 64.9703C59.5678 62.9118 62.1233 61.1743 64.8781 59.8058C65.5603 59.6453 66.2108 59.3715 66.8024 58.9957C70.7228 56.4824 71.8166 49.321 73.2355 47.4142C73.7186 46.7641 74.2625 46.1575 74.2625 46.1575C74.5373 45.851 74.8225 45.5547 75.1183 45.2684C75.417 44.9778 75.726 44.6963 76.048 44.4289C72.1579 42.5302 68.4694 42.2376 65.0624 43.5601C58.2049 46.2183 54.7614 54.5735 53.8996 56.9644C48.9046 58.2433 45.532 60.6818 43.867 64.2149C41.7554 68.6988 43.0001 73.7073 43.9237 76.2764C39.6842 76.3544 36.3765 77.7802 34.0785 80.5295C28.4151 87.304 30.9075 99.8192 31.4362 102.146C28.7939 109.289 29.3569 117.085 33.0627 124.717Z" fill="black"/>
<path d="M97.2139 44.4396V189.027H118.059V172.094C118.059 172.094 140.205 170.79 137.6 152.55C137.6 152.55 154.536 152.55 153.234 133.011C153.234 133.011 167.563 118.682 161.05 101.749C161.05 101.749 167.563 75.6967 148.022 77C148.022 77 155.838 61.3689 138.907 57.4611C138.907 57.4611 132.393 36.619 116.759 45.7378C116.752 45.7429 105.028 34.0165 97.2139 44.4396Z" fill="#F28F8F"/>
<path d="M162.248 101.68C162.777 99.351 165.269 86.8379 159.606 80.0633C157.308 77.312 154 75.8862 149.761 75.8103C150.684 73.2412 151.929 68.2327 149.817 63.7487C148.152 60.2156 144.78 57.7742 139.785 56.4982C138.923 54.1074 135.479 45.7521 128.622 43.094C125.215 41.7714 121.526 42.0641 117.636 43.9628C117.398 44.0762 117.158 44.1987 116.917 44.3284C115.499 43.0709 113.947 41.9724 112.29 41.0525C111.463 40.5963 110.604 40.2007 109.72 39.8687C108.039 39.248 106.199 38.8662 104.319 39.0009C101.18 39.2226 98.4776 40.8236 96.2778 43.7522L96.0459 44.056V190.191H119.208V173.15C122.232 172.793 130.741 171.28 135.573 165.367C138.176 162.18 139.285 158.238 138.879 153.631C141.198 153.38 146.15 152.373 149.888 148.381C153.218 144.82 154.739 139.799 154.408 133.456C155.421 132.364 158.283 129.049 160.618 124.247C164.323 116.615 164.886 108.82 162.248 101.68ZM137.591 151.401H136.255L136.444 152.717C137.083 157.183 136.189 160.942 133.785 163.885C128.613 170.225 118.087 170.929 117.986 170.936L116.894 171V187.868H98.3621V44.8408C100.091 42.6636 102.146 41.4747 104.475 41.3077C110.167 40.9026 115.872 46.5106 115.929 46.5673L116.559 47.1972L117.33 46.7486C118.005 46.3519 118.703 45.9982 119.422 45.6893C122.421 44.4073 125.222 44.2575 127.778 45.2468C134.599 47.8868 137.757 57.7185 137.789 57.8167L137.986 58.4486L138.632 58.5984C143.241 59.6627 146.299 61.7245 147.717 64.7249C150.178 69.9299 147.008 76.428 146.977 76.4918L146.072 78.2993L148.089 78.1646C152.433 77.875 155.709 79.0132 157.827 81.5448C163.201 87.97 159.954 101.345 159.917 101.479L159.828 101.832L159.959 102.174C162.534 108.865 162.065 115.928 158.565 123.169C155.919 128.645 152.439 132.168 152.406 132.203L152.033 132.573L152.068 133.097C152.463 139.01 151.165 143.611 148.219 146.78C143.977 151.326 137.653 151.403 137.591 151.403V151.401Z" fill="black"/>
<path d="M118.155 59.1162C118.08 59.1162 118.004 59.1087 117.93 59.0939C117.629 59.0342 117.364 58.8576 117.194 58.6028C117.023 58.348 116.96 58.0359 117.019 57.7349C117.893 53.2851 117.621 49.6161 116.235 47.1259C115.458 45.7304 114.536 45.054 114.032 44.7663C113.983 44.7572 113.935 44.745 113.888 44.7299C113.742 44.6835 113.599 44.6287 113.46 44.5658C112.685 44.2023 112.65 43.5015 112.751 43.1481C112.839 42.8483 113.041 42.5951 113.314 42.4435C113.588 42.2919 113.909 42.2539 114.21 42.3379C114.986 42.5222 116.813 43.4964 118.178 45.857C119.93 48.885 120.305 53.0319 119.293 58.1835C119.24 58.4465 119.098 58.6831 118.891 58.8532C118.683 59.0233 118.423 59.1162 118.155 59.1162Z" fill="black"/>
<path d="M114.575 127.666C114.36 127.666 114.149 127.606 113.966 127.492C113.783 127.379 113.635 127.217 113.539 127.025C109.672 119.293 109.094 112.991 111.818 108.29C115.904 101.248 125.814 100.619 126.234 100.593C126.385 100.585 126.537 100.606 126.681 100.657C126.824 100.707 126.957 100.785 127.07 100.886C127.183 100.987 127.276 101.11 127.342 101.247C127.408 101.384 127.446 101.533 127.454 101.685C127.463 101.836 127.441 101.988 127.391 102.132C127.341 102.275 127.263 102.408 127.162 102.521C127.06 102.634 126.938 102.727 126.801 102.793C126.664 102.858 126.515 102.897 126.363 102.905C126.273 102.911 117.266 103.498 113.815 109.459C111.512 113.437 112.115 118.997 115.608 125.983C115.697 126.159 115.738 126.355 115.729 126.552C115.72 126.749 115.661 126.941 115.558 127.109C115.454 127.277 115.309 127.415 115.137 127.511C114.965 127.608 114.771 127.658 114.573 127.659L114.575 127.666Z" fill="black"/>
<path d="M131.517 114.65C131.254 114.65 130.999 114.561 130.794 114.396C130.589 114.232 130.445 114.003 130.388 113.747C130.33 113.49 130.361 113.222 130.476 112.985C130.591 112.749 130.783 112.559 131.02 112.446C131.283 112.321 137.467 109.32 138.182 102.942C138.61 99.1279 136.866 96.1019 135.794 94.6376C133.364 91.3301 129.976 90.198 128.632 89.8648C128.484 89.8282 128.345 89.7629 128.223 89.6727C128.101 89.5824 127.997 89.469 127.919 89.3388C127.84 89.2086 127.788 89.0642 127.766 88.9139C127.743 88.7636 127.75 88.6103 127.787 88.4627C127.823 88.3152 127.889 88.1763 127.979 88.0539C128.069 87.9316 128.183 87.8283 128.313 87.7498C128.443 87.6713 128.587 87.6193 128.738 87.5966C128.888 87.5739 129.041 87.581 129.189 87.6176C131.163 88.1067 134.888 89.4911 137.661 93.2664C139.863 96.265 140.865 99.7932 140.483 103.2C139.627 110.845 132.322 114.391 132.013 114.542C131.858 114.614 131.688 114.651 131.517 114.65Z" fill="black"/>
<path d="M153.279 135.774C153.236 135.774 153.193 135.771 153.15 135.767C152.845 135.732 152.566 135.579 152.374 135.339C152.183 135.1 152.093 134.795 152.126 134.49C152.132 134.438 152.403 131.684 151.337 128.55C149.934 124.42 146.957 121.572 142.49 120.082C142.345 120.034 142.212 119.958 142.097 119.858C141.982 119.759 141.888 119.637 141.82 119.501C141.752 119.365 141.712 119.217 141.701 119.066C141.69 118.914 141.709 118.762 141.757 118.618C141.805 118.473 141.881 118.34 141.981 118.225C142.081 118.11 142.202 118.016 142.338 117.948C142.474 117.88 142.622 117.84 142.774 117.829C142.925 117.818 143.078 117.837 143.222 117.885C149.732 120.056 152.438 124.529 153.562 127.899C154.769 131.518 154.443 134.614 154.428 134.744C154.397 135.027 154.262 135.288 154.05 135.478C153.838 135.668 153.564 135.773 153.279 135.774Z" fill="black"/>
<path d="M108.519 82.6436C106.927 82.6871 103.868 82.4481 101.279 80.3559C99.5182 78.932 98.3069 76.9492 97.7164 74.6929H95.3506C95.3911 74.8783 95.4347 75.0636 95.4833 75.2479C96.2145 78.0632 97.7114 80.4521 99.8241 82.1565C102.787 84.5525 106.205 84.9636 108.194 84.9636C108.329 84.9636 108.46 84.9636 108.583 84.9636C108.89 84.9552 109.181 84.8251 109.392 84.6021C109.603 84.379 109.717 84.0812 109.708 83.7742C109.7 83.4672 109.57 83.1762 109.347 82.9651C109.124 82.754 108.826 82.6402 108.519 82.6486V82.6436Z" fill="black"/>
<path d="M119.614 75.5664C116.301 75.5664 113.48 74.5983 111.225 72.6853C106.315 68.5201 106.839 61.9923 106.915 61.2622C106.947 60.9568 107.098 60.6765 107.337 60.483C107.575 60.2895 107.881 60.1986 108.186 60.2302C108.491 60.2619 108.772 60.4136 108.965 60.652C109.159 60.8903 109.25 61.1958 109.218 61.5012C109.155 62.1088 108.719 67.5226 112.724 70.9192C114.584 72.497 116.956 73.2798 119.778 73.2484C125.003 73.1906 128.403 69.5662 129.322 68.4573C129.521 68.2309 129.8 68.0909 130.1 68.067C130.401 68.0431 130.699 68.1372 130.931 68.3293C131.163 68.5214 131.311 68.7964 131.344 69.096C131.377 69.3956 131.292 69.6961 131.106 69.9338C130.028 71.2372 126.025 75.4945 119.805 75.5634L119.614 75.5664Z" fill="black"/>
<path d="M118.533 144.854C117.569 144.854 116.608 144.767 115.66 144.594C109.654 143.48 106.557 138.904 105.751 137.526C105.606 137.262 105.57 136.951 105.65 136.661C105.731 136.37 105.922 136.122 106.182 135.97C106.442 135.818 106.752 135.773 107.044 135.845C107.337 135.917 107.59 136.101 107.75 136.357C108.431 137.519 111.043 141.385 116.08 142.316C117.827 142.64 122.241 143.06 125.499 140.006C128.51 137.183 129.418 132.559 127.811 128.226C127.704 127.938 127.715 127.619 127.843 127.34C127.97 127.06 128.204 126.843 128.492 126.735C128.78 126.628 129.099 126.639 129.378 126.767C129.658 126.894 129.875 127.128 129.983 127.416C131.914 132.626 130.777 138.228 127.083 141.695C124.353 144.255 121.038 144.854 118.533 144.854Z" fill="black"/>
<path d="M151.056 109.435C150.774 109.434 150.502 109.33 150.291 109.143C150.08 108.956 149.944 108.698 149.91 108.418C149.875 108.138 149.944 107.855 150.104 107.622C150.263 107.389 150.502 107.223 150.775 107.154C160.212 104.795 160.321 99.2151 160.321 99.1533C160.33 98.8521 160.456 98.5662 160.672 98.3563C160.888 98.1464 161.178 98.0291 161.479 98.0291C161.78 98.0291 162.07 98.1464 162.286 98.3563C162.502 98.5662 162.628 98.8521 162.637 99.1533C162.637 99.4571 162.509 106.603 151.337 109.396C151.246 109.42 151.151 109.433 151.056 109.435Z" fill="black"/>
<path d="M130.067 59.5455C129.798 59.5454 129.537 59.4516 129.33 59.2802C129.122 59.1088 128.981 58.8705 128.93 58.6061C128.879 58.3418 128.922 58.068 129.051 57.8318C129.18 57.5955 129.387 57.4116 129.637 57.3115C129.922 57.1971 136.698 54.5458 142.31 57.351C142.45 57.4162 142.576 57.509 142.681 57.6238C142.785 57.7385 142.865 57.8731 142.916 58.0193C142.967 58.1656 142.988 58.3206 142.978 58.4752C142.969 58.6299 142.928 58.781 142.859 58.9196C142.789 59.0582 142.693 59.1815 142.575 59.2822C142.458 59.383 142.321 59.459 142.173 59.506C142.025 59.5529 141.87 59.5697 141.715 59.5555C141.561 59.5412 141.411 59.4962 141.275 59.423C136.583 57.0766 130.557 59.4381 130.498 59.4614C130.361 59.5167 130.215 59.5452 130.067 59.5455Z" fill="black"/>
<path d="M141.117 83.5144C140.83 83.5131 140.554 83.4056 140.342 83.2125C140.13 83.0195 139.997 82.7548 139.969 82.4694C139.941 82.1841 140.02 81.8985 140.19 81.6679C140.36 81.4372 140.61 81.2779 140.891 81.2207C146.542 80.0905 147.752 74.545 147.8 74.3091C147.83 74.1601 147.89 74.0184 147.974 73.8923C148.059 73.7661 148.168 73.6579 148.295 73.5737C148.421 73.4896 148.563 73.4313 148.712 73.402C148.862 73.3728 149.015 73.3732 149.164 73.4032C149.313 73.4333 149.455 73.4924 149.581 73.5772C149.707 73.662 149.815 73.7708 149.899 73.8974C149.984 74.024 150.042 74.166 150.071 74.3152C150.1 74.4643 150.1 74.6178 150.07 74.7668C150.011 75.0635 148.534 82.0582 141.345 83.4911C141.27 83.5063 141.194 83.5141 141.117 83.5144Z" fill="black"/>
<path d="M106.983 98.424C105.036 98.4248 103.099 98.167 101.22 97.6574C100.934 97.5628 100.695 97.3602 100.556 97.0928C100.417 96.8253 100.387 96.514 100.473 96.225C100.56 95.9361 100.756 95.6923 101.019 95.5454C101.283 95.3986 101.593 95.3602 101.884 95.4386C101.934 95.4528 105.039 96.3571 108.516 96.0401C112.972 95.6351 115.96 93.478 117.404 89.6278C117.516 89.3459 117.734 89.119 118.011 88.9959C118.288 88.8728 118.602 88.8632 118.886 88.9693C119.17 89.0755 119.401 89.2887 119.529 89.5633C119.658 89.838 119.673 90.152 119.573 90.4379C117.807 95.1469 114.032 97.8822 108.655 98.3501C108.084 98.4017 107.523 98.424 106.983 98.424Z" fill="black"/>
<path d="M149.753 115.941C149.645 115.941 149.538 115.926 149.434 115.897C146.715 115.119 144.855 113.629 143.904 111.468C141.956 107.041 144.691 101.473 144.809 101.24C144.877 101.104 144.971 100.983 145.086 100.883C145.2 100.783 145.334 100.707 145.478 100.659C145.622 100.611 145.775 100.592 145.926 100.602C146.078 100.613 146.226 100.653 146.362 100.721C146.498 100.789 146.619 100.883 146.719 100.998C146.819 101.113 146.895 101.246 146.943 101.39C146.991 101.534 147.011 101.687 147 101.838C146.989 101.99 146.949 102.138 146.881 102.274C146.857 102.322 144.513 107.117 146.026 110.543C146.697 112.062 148.019 113.085 150.071 113.671C150.339 113.748 150.57 113.92 150.722 114.154C150.874 114.388 150.936 114.668 150.897 114.945C150.858 115.221 150.721 115.474 150.511 115.657C150.301 115.84 150.032 115.942 149.753 115.942V115.941Z" fill="black"/>
<path opacity="0.2" d="M160.623 124.264C158.294 129.066 155.424 132.381 154.414 133.473C154.745 139.816 153.224 144.838 149.894 148.398C146.156 152.39 141.203 153.397 138.885 153.649C139.29 158.255 138.182 162.197 135.578 165.384C130.746 171.297 122.238 172.81 119.214 173.167V189.765C119.615 190.304 119.902 190.918 120.06 191.571C120.217 192.224 120.24 192.902 120.129 193.564C120.017 194.227 119.773 194.859 119.41 195.425C119.047 195.99 118.574 196.476 118.019 196.854C118.701 197.318 119.256 197.944 119.636 198.676C120.016 199.409 120.208 200.223 120.195 201.048C120.182 201.873 119.965 202.681 119.563 203.401C119.16 204.121 118.585 204.73 117.889 205.173C118.723 205.704 119.38 206.471 119.777 207.377C120.174 208.282 120.292 209.286 120.117 210.259C119.943 211.232 119.482 212.131 118.795 212.842C118.108 213.553 117.225 214.044 116.259 214.252C116.744 214.695 117.132 215.233 117.399 215.833C117.666 216.433 117.806 217.082 117.81 217.739C117.81 220.491 115.358 222.73 112.341 222.73H108.303L106.115 225.086L106.04 225.168H106.115L101.844 229.676H95.7803C96.2672 228.13 96.8698 226.623 97.583 225.168C97.978 224.347 98.3932 223.535 98.8307 222.73C98.9219 222.56 99.0151 222.389 99.1072 222.223C99.4232 221.645 99.7426 221.069 100.065 220.495L100.446 219.819C101.224 218.433 102 217.057 102.706 215.668C102.927 215.235 103.143 214.799 103.35 214.363C103.42 214.214 103.491 214.065 103.558 213.915C103.736 213.529 103.908 213.143 104.078 212.753C104.268 212.323 104.457 211.887 104.636 211.452C105.209 210.084 105.744 208.7 106.239 207.3C106.399 206.855 106.553 206.408 106.702 205.959C106.877 205.438 107.047 204.911 107.208 204.386C107.347 203.941 107.483 203.495 107.614 203.045C108.019 201.673 108.385 200.289 108.711 198.893C108.805 198.505 108.893 198.112 108.979 197.723C109.108 197.142 109.23 196.561 109.344 195.979C109.421 195.588 109.496 195.2 109.568 194.808C109.821 193.431 110.035 192.047 110.212 190.656C110.236 190.507 110.254 190.353 110.272 190.203C110.273 190.189 110.273 190.175 110.272 190.161C110.301 189.937 110.329 189.711 110.354 189.486C110.367 189.374 110.381 189.227 110.395 189.043C110.42 188.739 110.449 188.354 110.477 187.887L110.486 187.741C110.515 187.254 109.583 174.625 108.243 157.373C110.754 157.306 122.037 156.73 131.096 147.626C141.999 136.683 140.763 122.362 140.56 120.416C150.609 110.608 151.625 104.639 150.606 100.973C149.492 96.9479 145.715 94.9469 145.012 88.8215C144.536 84.6859 146.126 84.4236 145.823 80.3032C145.258 72.5059 139.106 66.9546 136.404 64.5172C134.118 62.4587 131.563 60.7212 128.808 59.3527C128.126 59.1922 127.475 58.9184 126.884 58.5426C122.963 56.0292 121.869 48.8679 120.45 46.9611C119.967 46.311 119.424 45.7044 119.424 45.7044C119.149 45.3979 118.863 45.1015 118.568 44.8153C118.269 44.5247 117.96 44.2432 117.638 43.9758C121.528 42.0771 125.217 41.7845 128.624 43.107C135.481 45.7651 138.925 54.1204 139.786 56.5113C144.781 57.7902 148.154 60.2287 149.819 63.7617C151.931 68.2457 150.686 73.2542 149.762 75.8233C154.002 75.9012 157.31 77.327 159.608 80.0764C165.271 86.8509 162.779 99.3661 162.25 101.693C164.892 108.836 164.329 116.632 160.623 124.264Z" fill="black"/>
<path d="M97.1411 0.106079H94.5505V22.1262H97.1411V0.106079Z" fill="#FAB317"/>
<path d="M49.7265 12.8819L47.2969 14.2781L58.2664 33.3626L60.696 31.9664L49.7265 12.8819Z" fill="#FAB317"/>
<path d="M13.3615 47.6101L11.9651 50.0283L30.9645 60.9962L32.3609 58.578L13.3615 47.6101Z" fill="#FAB317"/>
<path d="M22.0204 95.9584H0.000244141V98.549H22.0204V95.9584Z" fill="#FAB317"/>
<path d="M31.5036 133.171L12.5042 144.138L13.9005 146.557L32.8999 135.589L31.5036 133.171Z" fill="#FAB317"/>
<path d="M162.091 132.251L160.695 134.67L179.694 145.638L181.09 143.219L162.091 132.251Z" fill="#FAB317"/>
<path d="M193 94.6537H170.98V97.2443H193V94.6537Z" fill="#FAB317"/>
<path d="M179.151 46.6934L160.152 57.6613L161.548 60.0795L180.547 49.1117L179.151 46.6934Z" fill="#FAB317"/>
<path d="M143.125 12.07L132.156 31.0673L134.574 32.4634L145.544 13.4661L143.125 12.07Z" fill="#FAB317"/>
</svg>
