<svg width="31" height="31" viewBox="0 0 31 31" fill="none" xmlns="http://www.w3.org/2000/svg">
<rect x="0.585938" y="0.203125" width="30" height="30" rx="12.35" fill="#F5F5F5"/>
<g clip-path="url(#clip0_990_10463)">
<path opacity="0.3" d="M24.0223 16.0562C23.4536 16.0562 23.0744 15.677 23.0744 15.1083C23.0744 14.5395 23.4536 14.1603 24.0223 14.1603H24.8754C24.4015 9.70513 20.8942 6.10304 16.439 5.72388V6.577C16.439 7.14575 16.0598 7.52492 15.4911 7.52492C14.9223 7.52492 14.5431 7.14575 14.5431 6.577V5.72388C10.0879 6.19784 6.48586 9.70513 6.10669 14.1603H6.95981C7.52856 14.1603 7.90772 14.5395 7.90772 15.1083C7.90772 15.677 7.52856 16.0562 6.95981 16.0562H6.10669C6.58065 20.5114 10.0879 24.1135 14.5431 24.4926V23.6395C14.5431 23.0708 14.9223 22.6916 15.4911 22.6916C16.0598 22.6916 16.439 23.0708 16.439 23.6395V24.4926C20.8942 24.0187 24.4963 20.5114 24.8754 16.0562H24.0223Z" fill="#106FA4"/>
<path d="M20.2308 14.1604H17.1027C16.9131 13.876 16.7235 13.6864 16.4391 13.4968V9.42082C16.4391 8.85207 16.06 8.4729 15.4912 8.4729C14.9225 8.4729 14.5433 8.85207 14.5433 9.42082V13.4968C14.2589 13.6864 14.0693 13.876 13.8798 14.1604H13.5954C13.0266 14.1604 12.6475 14.5395 12.6475 15.1083C12.6475 15.677 13.0266 16.0562 13.5954 16.0562H13.8798C14.0693 16.3406 14.2589 16.5302 14.5433 16.7198V17.0041C14.5433 17.5729 14.9225 17.952 15.4912 17.952C16.06 17.952 16.4391 17.5729 16.4391 17.0041V16.7198C16.7235 16.5302 16.9131 16.3406 17.1027 16.0562H20.2308C20.7996 16.0562 21.1787 15.677 21.1787 15.1083C21.1787 14.5395 20.7996 14.1604 20.2308 14.1604Z" fill="#106FA4"/>
</g>
<defs>
<clipPath id="clip0_990_10463">
<rect width="22.75" height="22.75" fill="white" transform="translate(4.21094 3.82812)"/>
</clipPath>
</defs>
</svg>
