<svg width="20" height="21" viewBox="0 0 20 21" fill="none" xmlns="http://www.w3.org/2000/svg">
<path opacity="0.3" d="M18.6185 11.3141C18.0315 11.3141 17.6401 10.9226 17.6401 10.3356C17.6401 9.74843 18.0315 9.357 18.6185 9.357H19.4992C19.01 4.75812 15.3895 1.03983 10.7906 0.648438V1.52908C10.7906 2.11617 10.3992 2.50758 9.81213 2.50758C9.22499 2.50758 8.83355 2.11617 8.83355 1.52908V0.648438C4.23464 1.13769 0.516401 4.75812 0.125 9.357H1.00564C1.59274 9.357 1.98413 9.74843 1.98413 10.3356C1.98413 10.9226 1.59274 11.3141 1.00564 11.3141H0.125C0.614249 15.913 4.23464 19.6313 8.83355 20.0226V19.142C8.83355 18.5549 9.22499 18.1635 9.81213 18.1635C10.3992 18.1635 10.7906 18.5549 10.7906 19.142V20.0226C15.3895 19.5334 19.1078 15.913 19.4992 11.3141H18.6185Z" fill="#43A7FF"/>
<path d="M14.7029 9.35534H11.4739C11.2782 9.06177 11.0825 8.86605 10.7889 8.67034V4.46287C10.7889 3.87578 10.3976 3.48438 9.81043 3.48438C9.22339 3.48438 8.83195 3.87578 8.83195 4.46287V8.67034C8.53838 8.86605 8.34266 9.06177 8.14705 9.35534H7.85348C7.26633 9.35534 6.875 9.74667 6.875 10.3338C6.875 10.9209 7.26633 11.3123 7.85348 11.3123H8.14705C8.34266 11.6059 8.53838 11.8016 8.83195 11.9973V12.2908C8.83195 12.8779 9.22339 13.2693 9.81043 13.2693C10.3976 13.2693 10.7889 12.8779 10.7889 12.2908V11.9973C11.0825 11.8016 11.2782 11.6059 11.4739 11.3123H14.7029C15.2901 11.3123 15.6814 10.9209 15.6814 10.3338C15.6814 9.74667 15.2901 9.35534 14.7029 9.35534Z" fill="#43A7FF"/>
</svg>
