<svg width="286" height="286" viewBox="0 0 286 286" fill="none" xmlns="http://www.w3.org/2000/svg">
<path d="M143 276.688C217.143 276.688 277.248 240.935 277.248 196.831C277.248 152.727 217.143 116.974 143 116.974C68.8566 116.974 8.75159 152.727 8.75159 196.831C8.75159 240.935 68.8566 276.688 143 276.688Z" fill="#F5F5F5"/>
<path d="M245.663 208.488L271.248 193.742C271.379 193.698 271.492 193.614 271.573 193.502C271.653 193.39 271.696 193.256 271.696 193.118C271.696 192.981 271.653 192.846 271.573 192.735C271.492 192.623 271.379 192.539 271.248 192.495L208.008 155.847C207.675 155.678 207.306 155.589 206.932 155.589C206.559 155.589 206.19 155.678 205.857 155.847L180.266 170.593C180.135 170.637 180.022 170.721 179.941 170.833C179.861 170.945 179.818 171.079 179.818 171.217C179.818 171.354 179.861 171.489 179.941 171.6C180.022 171.712 180.135 171.796 180.266 171.84L243.506 208.488C243.84 208.657 244.21 208.746 244.584 208.746C244.959 208.746 245.328 208.657 245.663 208.488Z" fill="#E6E6E6"/>
<path d="M204.896 193.851C182.806 181.095 141.404 184.321 112.415 201.058L100.449 207.968C71.4657 224.699 65.8716 248.608 87.9679 261.364C110.064 274.119 151.46 270.893 180.455 254.157L192.415 247.253C221.398 230.516 226.993 206.612 204.896 193.851Z" fill="#E0E0E0"/>
<path d="M99.4765 182.771L59.0762 159.468C58.0911 158.966 57.0013 158.705 55.8959 158.705C54.7904 158.705 53.7006 158.966 52.7155 159.468L18.0581 179.568C16.302 180.592 16.302 182.239 18.0581 183.252L58.4527 206.561C59.4377 207.062 60.5275 207.324 61.633 207.324C62.7385 207.324 63.8283 207.062 64.8133 206.561L99.4823 186.472C101.244 185.437 101.244 183.789 99.4765 182.771Z" fill="#E0E0E0"/>
<path d="M240.246 194.223L242.442 205.125L244.581 206.361L246.698 205.137L248.917 194.223L244.581 191.723L240.246 194.223Z" fill="#E0E0E0"/>
<path opacity="0.05" d="M240.246 194.223L242.442 205.125L244.581 206.361L246.698 205.137L248.917 194.223L244.581 191.723L240.246 194.223Z" fill="black"/>
<path d="M244.581 206.36V196.728L240.246 194.223L242.442 205.125L244.581 206.36Z" fill="#EBEBEB"/>
<path opacity="0.05" d="M240.246 194.223L241.664 201.264L244.581 202.952L247.481 201.276L248.917 194.223L244.581 191.723L240.246 194.223Z" fill="black"/>
<path d="M259.305 183.223L261.501 194.125L263.64 195.361L265.757 194.137L267.971 183.223L263.64 180.718L259.305 183.223Z" fill="#E0E0E0"/>
<path opacity="0.05" d="M259.305 183.223L261.501 194.125L263.64 195.361L265.757 194.137L267.971 183.223L263.64 180.718L259.305 183.223Z" fill="black"/>
<path d="M263.64 195.361V185.723L259.305 183.223L261.501 194.125L263.64 195.361Z" fill="#EBEBEB"/>
<path opacity="0.05" d="M259.305 183.223L260.723 190.264L263.64 191.946L266.541 190.27L267.971 183.223L263.64 180.718L259.305 183.223Z" fill="black"/>
<path opacity="0.05" d="M183.875 161.676L186.071 172.578L188.205 173.814L190.327 172.59L192.541 161.676L188.205 159.176L183.875 161.676Z" fill="black"/>
<path d="M188.205 173.814V164.175L183.875 161.676L186.071 172.578L188.205 173.814Z" fill="#EBEBEB"/>
<path opacity="0.05" d="M183.875 161.676L185.294 168.717L188.205 170.399L191.111 168.723L192.541 161.676L188.205 159.176L183.875 161.676Z" fill="black"/>
<path d="M244.581 201.189L268.199 187.553V136.439L244.581 150.07V201.189Z" fill="#E0E0E0"/>
<path d="M244.581 150.07L182.645 114.314V165.428L244.581 201.19V150.07Z" fill="#EBEBEB"/>
<path d="M182.645 114.314L244.581 150.07L268.199 136.439L206.263 100.678L182.645 114.314Z" fill="#F5F5F5"/>
<path d="M241.207 175.392L186.02 143.532V162.293L185.397 162.648L240.589 194.514L241.207 194.154V175.392Z" fill="#E0E0E0"/>
<path d="M240.589 175.753L185.397 143.893V162.648L240.589 194.515V175.753Z" fill="#F5F5F5"/>
<path d="M214.054 163.981L209.478 161.327C208.877 160.984 208.397 161.144 208.397 161.681C208.44 162.013 208.56 162.331 208.748 162.608C208.936 162.885 209.186 163.114 209.478 163.277L214.054 165.926C214.626 166.269 215.135 166.114 215.135 165.577C215.09 165.245 214.97 164.929 214.782 164.652C214.594 164.375 214.345 164.145 214.054 163.981Z" fill="#E0E0E0"/>
<path d="M241.207 152.741L186.02 120.881V139.637L185.402 139.997L240.589 171.863L241.207 171.503V152.741Z" fill="#E0E0E0"/>
<path d="M240.589 153.101L185.397 121.235L185.402 139.997L240.589 171.863V153.101Z" fill="#F5F5F5"/>
<path d="M214.054 141.33L209.478 138.675C208.906 138.332 208.397 138.492 208.397 139.03C208.441 139.362 208.562 139.678 208.75 139.955C208.937 140.232 209.186 140.462 209.478 140.626L214.054 143.274C214.626 143.618 215.135 143.463 215.135 142.925C215.09 142.594 214.97 142.277 214.782 142C214.594 141.723 214.345 141.494 214.054 141.33Z" fill="#E0E0E0"/>
<path d="M198.352 107.261C195.492 108.914 195.492 111.591 198.352 113.244C201.212 114.897 205.857 114.897 208.723 113.244C211.588 111.591 211.583 108.914 208.723 107.261C205.863 105.608 201.218 105.608 198.352 107.261Z" fill="#E0E0E0"/>
<path d="M208.099 110.625C210.593 108.079 212.058 101.724 209.621 99.7109H197.248C194.817 101.724 196.282 108.074 198.776 110.619L198.839 110.693L198.924 110.773C198.999 110.842 199.073 110.911 199.153 110.974L199.21 111.019L199.399 111.162C199.503 111.239 199.612 111.308 199.725 111.368C200.877 111.954 202.151 112.259 203.443 112.259C204.735 112.259 206.009 111.954 207.161 111.368C207.274 111.306 207.383 111.237 207.487 111.162C207.547 111.122 207.604 111.078 207.659 111.031L207.733 110.974C207.813 110.911 207.882 110.842 207.951 110.779L208.054 110.682L208.099 110.625Z" fill="#EBEBEB"/>
<path d="M198.324 98.8987C195.498 100.523 195.498 103.172 198.324 104.802C201.15 106.432 205.726 106.432 208.545 104.802C211.365 103.172 211.371 100.523 208.545 98.8987C205.72 97.2742 201.15 97.2685 198.324 98.8987Z" fill="#FAFAFA"/>
<path d="M200.326 100.054C198.61 101.044 198.61 102.651 200.326 103.641C201.29 104.131 202.356 104.387 203.438 104.387C204.519 104.387 205.585 104.131 206.549 103.641C208.265 102.651 208.265 101.044 206.549 100.054C205.585 99.5642 204.519 99.3086 203.438 99.3086C202.356 99.3086 201.29 99.5642 200.326 100.054Z" fill="#F5F5F5"/>
<path d="M206.543 101.759C205.58 101.27 204.515 101.015 203.435 101.015C202.354 101.015 201.289 101.27 200.326 101.759C199.909 101.983 199.555 102.307 199.296 102.703C199.557 103.096 199.911 103.418 200.326 103.641C201.289 104.13 202.354 104.385 203.435 104.385C204.515 104.385 205.58 104.13 206.543 103.641C206.96 103.419 207.314 103.097 207.573 102.703C207.316 102.306 206.961 101.981 206.543 101.759Z" fill="#EBEBEB"/>
<path d="M200.703 102.703C199.826 101.808 199.07 100.802 198.455 99.711C197.414 97.8692 197.226 95.4096 197.763 95.135C198.301 94.8605 200.486 97.24 200.486 97.24C200.287 96.2078 200.21 95.1557 200.257 94.1054C200.349 92.4695 200.743 90.9823 201.212 90.6734C201.681 90.3646 202.728 92.4409 203.18 93.9338C203.632 95.4268 203.901 96.6623 203.901 96.6623C204.08 95.499 204.349 94.3515 204.707 93.2303C205.251 91.6802 205.743 91.3255 206.126 91.4799C206.509 91.6344 206.767 92.3551 206.875 94.4258C206.917 95.4143 206.886 96.4046 206.784 97.3887C206.784 97.3887 207.556 96.5422 208.414 95.7185C209.272 94.8948 209.752 94.6889 210.021 94.8605C210.29 95.0321 210.364 96.4392 208.911 99.0704C208.186 100.412 207.258 101.633 206.16 102.691C206.16 102.691 204.147 104.001 200.703 102.703Z" fill="#E0E0E0"/>
<path d="M241.453 139.11L240.532 139.556L223.498 129.724L224.418 129.277L241.453 139.11Z" fill="#FAFAFA"/>
<path d="M224.418 129.278L240.623 138.63L242.98 114.394L226.775 105.048L224.418 129.278Z" fill="white"/>
<path d="M221.764 130.53L241.956 142.17L244.736 113.57L224.567 101.924L221.764 130.53ZM225.94 104.561L242.98 114.4L240.532 139.568L223.498 129.735L225.94 104.561Z" fill="#F0F0F0"/>
<path d="M223.498 129.724L224.418 129.278L226.775 105.048L225.946 104.562L223.498 129.724Z" fill="#E0E0E0"/>
<path d="M224.544 101.942L225.477 101.513L245.645 113.153L244.713 113.588L224.544 101.942Z" fill="#FAFAFA"/>
<path d="M245.645 113.153L244.713 113.588L241.933 142.17L242.865 141.741L245.645 113.153Z" fill="#E0E0E0"/>
<path d="M225.133 128.82L240.068 137.44L240.469 133.362L237.689 121.367L235.04 125.457L235.59 128.906L231.174 116.179L225.528 124.736L225.133 128.82Z" fill="#F0F0F0"/>
<path d="M237.918 116.316C238.229 116.51 238.484 116.782 238.658 117.105C238.832 117.428 238.918 117.791 238.907 118.158C238.839 118.827 238.295 119.085 237.683 118.73C237.372 118.535 237.116 118.262 236.943 117.938C236.769 117.614 236.683 117.25 236.694 116.883C236.762 116.219 237.306 115.962 237.918 116.316Z" fill="#F0F0F0"/>
<path d="M214.883 212.527C214.883 222.925 205.731 234.394 190.476 243.22L178.727 250.004C162.831 259.156 142.651 264.441 123.34 264.441C109.956 264.441 98.4756 261.89 90.1644 257.08C82.2136 252.504 78.0094 246.303 78.0094 239.199C78.0094 228.8 87.1614 217.331 102.417 208.511L114.171 201.721C130.061 192.569 150.253 187.284 169.564 187.284C182.937 187.284 194.417 189.835 202.74 194.652C210.679 199.239 214.883 205.422 214.883 212.527Z" fill="#106FA4"/>
<path d="M123.335 264.441C109.956 264.441 98.4756 261.89 90.1587 257.08C82.2079 252.504 78.0094 246.303 78.0094 239.199C78.0094 228.806 87.1328 217.331 102.417 208.506L114.166 201.727C130.056 192.575 150.242 187.29 169.552 187.29C182.931 187.29 194.411 189.835 202.728 194.646C210.679 199.222 214.883 205.422 214.883 212.527C214.883 222.92 205.731 234.394 190.476 243.22L178.727 250.004C162.837 259.156 142.645 264.441 123.34 264.441H123.335Z" fill="#106FA4"/>
<path opacity="0.7" d="M214.883 212.527C214.883 222.925 205.731 234.394 190.476 243.22L178.727 250.004C162.831 259.156 142.651 264.441 123.34 264.441C109.956 264.441 98.4756 261.89 90.1644 257.08C82.2136 252.504 78.0094 246.303 78.0094 239.199C78.0094 228.8 87.1614 217.331 102.417 208.511L114.171 201.721C130.061 192.569 150.253 187.284 169.564 187.284C182.937 187.284 194.417 189.835 202.74 194.652C210.679 199.239 214.883 205.422 214.883 212.527Z" fill="white"/>
<path d="M128.591 256.039C118.187 256.039 109.252 254.054 102.754 250.319C96.4907 246.704 93.1788 241.813 93.1788 236.185C93.1788 228.017 100.3 219.025 112.226 212.161L121.304 206.921C133.636 199.8 149.303 195.716 164.284 195.716C174.689 195.716 183.623 197.701 190.121 201.436C196.385 205.051 199.697 209.941 199.697 215.57C199.697 223.738 192.581 232.73 180.655 239.594L171.6 244.816C159.239 251.955 143.572 256.039 128.591 256.039ZM128.591 255.295C143.463 255.295 158.976 251.251 171.2 244.193L180.277 238.953C191.969 232.204 198.947 223.458 198.947 215.559C198.947 210.21 195.767 205.543 189.744 202.065C183.355 198.381 174.552 196.431 164.278 196.431C149.406 196.431 133.894 200.481 121.67 207.533L112.593 212.784C100.895 219.54 93.9167 228.28 93.9167 236.179C93.9167 241.527 97.097 246.195 103.12 249.673C109.509 253.345 118.313 255.295 128.586 255.295H128.591Z" fill="white"/>
<path opacity="0.3" d="M132.012 249.964C123.661 249.964 116.488 248.374 111.283 245.388C106.318 242.528 103.698 238.661 103.698 234.223C103.698 227.736 109.418 220.569 118.936 215.061L126.269 210.828C136.193 205.108 148.8 201.813 160.852 201.813C169.209 201.813 176.376 203.403 181.581 206.389C186.546 209.249 189.172 213.116 189.172 217.554C189.172 224.047 183.452 231.208 173.928 236.716L166.595 240.949C156.671 246.669 144.07 249.964 132.012 249.964Z" fill="#106FA4"/>
<path opacity="0.4" d="M135.438 244.244C129.066 244.244 123.603 243.032 119.634 240.744C115.847 238.524 113.828 235.596 113.828 232.232C113.828 227.284 118.175 221.827 125.451 217.623L131.039 214.397C138.607 210.027 148.199 207.533 157.414 207.533C163.781 207.533 169.243 208.746 173.219 211.04C177 213.225 179.002 216.188 179.002 219.551C179.002 224.499 174.66 229.961 167.384 234.16L161.807 237.38C154.24 241.745 144.647 244.244 135.438 244.244Z" fill="white"/>
<path d="M203.844 192.718C182.148 180.192 141.496 183.36 113.027 199.788L101.273 206.572C72.8156 223.006 67.3244 246.486 89.0204 259.013C110.716 271.54 151.368 268.371 179.843 251.938L191.62 245.154C220.048 228.72 225.54 205.245 203.844 192.718ZM190.476 243.22L178.727 250.004C162.831 259.156 142.651 264.441 123.34 264.441C109.956 264.441 98.4756 261.89 90.1644 257.08C82.2136 252.504 78.0094 246.303 78.0094 239.199C78.0094 228.8 87.1614 217.332 102.417 208.511L114.171 201.722C130.061 192.57 150.253 187.284 169.564 187.284C182.937 187.284 194.417 189.836 202.74 194.652C210.691 199.228 214.895 205.423 214.895 212.527C214.883 222.926 205.754 234.394 190.476 243.22Z" fill="#106FA4"/>
<path opacity="0.3" d="M203.844 192.718C182.148 180.192 141.496 183.36 113.027 199.788L101.273 206.572C72.8156 223.006 67.3244 246.486 89.0204 259.013C110.716 271.54 151.368 268.371 179.843 251.938L191.62 245.154C220.048 228.72 225.54 205.245 203.844 192.718ZM190.476 243.22L178.727 250.004C162.831 259.156 142.651 264.441 123.34 264.441C109.956 264.441 98.4756 261.89 90.1644 257.08C82.2136 252.504 78.0094 246.303 78.0094 239.199C78.0094 228.8 87.1614 217.332 102.417 208.511L114.171 201.722C130.061 192.57 150.253 187.284 169.564 187.284C182.937 187.284 194.417 189.836 202.74 194.652C210.691 199.228 214.895 205.423 214.895 212.527C214.883 222.926 205.754 234.394 190.476 243.22Z" fill="white"/>
<path d="M92.4809 187.027L86.4235 183.526L92.4809 181.776V187.027Z" fill="#106FA4"/>
<path opacity="0.6" d="M92.4809 187.027L86.4235 183.526L92.4809 181.776V187.027Z" fill="white"/>
<path opacity="0.05" d="M92.4809 187.027L86.4235 183.526L92.4809 181.776V187.027Z" fill="black"/>
<path d="M92.481 187.027L95.5126 185.276V180.025L92.481 181.776V187.027Z" fill="#106FA4"/>
<path opacity="0.75" d="M92.481 187.027L95.5126 185.276V180.025L92.481 181.776V187.027Z" fill="white"/>
<path d="M62.1192 199.307V204.89L26.2377 184.138V178.561L62.1192 199.307Z" fill="#106FA4"/>
<path opacity="0.6" d="M62.1192 199.307V204.89L26.2377 184.138V178.561L62.1192 199.307Z" fill="white"/>
<path opacity="0.1" d="M62.1192 199.307V204.89L26.2377 184.138V178.561L62.1192 199.307Z" fill="black"/>
<path d="M62.1193 204.89L65.1509 203.14V197.557L62.1193 199.307V204.89Z" fill="#106FA4"/>
<path opacity="0.75" d="M62.1193 204.89L65.1509 203.14V197.557L62.1193 199.307V204.89Z" fill="white"/>
<path d="M23.2061 134.814L59.0876 155.561V201.058L23.2061 180.311V134.814Z" fill="#106FA4"/>
<path opacity="0.6" d="M23.2061 134.814L59.0876 155.561V201.058L23.2061 180.311V134.814Z" fill="white"/>
<path d="M59.0876 155.561L98.5442 132.778V178.281L59.0876 201.058V155.561Z" fill="#106FA4"/>
<path opacity="0.75" d="M59.0876 155.561L98.5442 132.778V178.281L59.0876 201.058V155.561Z" fill="white"/>
<path d="M98.5442 132.778L62.6626 112.032L23.2061 134.814L59.0876 155.561L98.5442 132.778Z" fill="#106FA4"/>
<path opacity="0.85" d="M98.5442 132.778L62.6626 112.032L23.2061 134.814L59.0876 155.561L98.5442 132.778Z" fill="white"/>
<path d="M62.1193 171.308L95.5126 152.032V176.53L62.1193 195.807V171.308Z" fill="#106FA4"/>
<path opacity="0.6" d="M62.1193 171.308L95.5126 152.032V176.53L62.1193 195.807V171.308Z" fill="white"/>
<path opacity="0.1" d="M95.5126 176.531L74.4401 164.198L62.1193 171.308V195.807L95.5126 176.531Z" fill="black"/>
<path opacity="0.05" d="M95.5125 176.53L74.4401 164.198L95.5125 152.032V176.53Z" fill="black"/>
<path d="M62.1193 157.311L95.5126 138.029V148.531L62.1193 167.813V157.311Z" fill="#106FA4"/>
<path opacity="0.85" d="M62.1193 157.311L95.5126 138.029V148.531L62.1193 167.813V157.311Z" fill="white"/>
<path d="M72.4667 153.547C72.4667 154.028 73.9138 153.587 75.6985 152.558L81.3613 149.286C83.1459 148.256 84.5931 147.032 84.5931 146.546V145.671L72.4667 152.672V153.547Z" fill="#455A64"/>
<path d="M40.7893 137.251L41.6759 137.68L58.1381 128.174L57.2457 127.75L40.7893 137.251Z" fill="#106FA4"/>
<path opacity="0.2" d="M40.7893 137.251L41.6759 137.68L58.1381 128.174L57.2457 127.75L40.7893 137.251Z" fill="black"/>
<path d="M57.2457 127.751L41.5901 136.788L39.3135 113.365L54.9692 104.333L57.2457 127.751Z" fill="#106FA4"/>
<g opacity="0.8">
<path d="M57.2457 127.751L41.5901 136.788L39.3135 113.365L54.9692 104.333L57.2457 127.751Z" fill="white"/>
</g>
<path d="M57.1256 101.335L37.6376 112.587L40.326 140.209L59.8083 128.957L57.1256 101.335ZM58.1381 128.174L41.6759 137.68L39.3135 113.365L55.77 103.864L58.1381 128.174Z" fill="#106FA4"/>
<path d="M57.1256 101.335L37.6376 112.587L40.326 140.209L59.8083 128.957L57.1256 101.335ZM58.1381 128.174L41.6759 137.68L39.3135 113.365L55.77 103.864L58.1381 128.174Z" fill="#106FA4"/>
<path d="M58.1381 128.174L57.2457 127.75L54.9692 104.333L55.77 103.864L58.1381 128.174Z" fill="#106FA4"/>
<path opacity="0.35" d="M58.1381 128.174L57.2457 127.75L54.9692 104.333L55.77 103.864L58.1381 128.174Z" fill="black"/>
<path d="M57.1256 101.336L56.2219 100.918L36.7338 112.169L37.6376 112.587L57.1256 101.336Z" fill="#106FA4"/>
<path opacity="0.6" d="M57.1256 101.336L56.2219 100.918L36.7338 112.169L37.6376 112.587L57.1256 101.336Z" fill="white"/>
<path d="M36.7338 112.169L37.6376 112.587L40.326 140.209L39.4222 139.791L36.7338 112.169Z" fill="#106FA4"/>
<path opacity="0.35" d="M36.7338 112.169L37.6376 112.587L40.326 140.209L39.4222 139.791L36.7338 112.169Z" fill="black"/>
<path d="M56.5593 127.304L42.1221 135.639L41.7388 131.692L44.4272 120.103L46.9841 124.056L46.4521 127.39L50.7192 115.092L56.1761 123.358L56.5593 127.304Z" fill="#106FA4"/>
<path d="M44.2041 115.218C43.9031 115.406 43.6566 115.67 43.4891 115.983C43.3215 116.296 43.2387 116.648 43.2489 117.003C43.3118 117.649 43.8209 117.895 44.4272 117.575C44.729 117.388 44.9762 117.126 45.1439 116.813C45.3117 116.501 45.3939 116.15 45.3824 115.796C45.3195 115.126 44.7933 114.88 44.2041 115.218Z" fill="#106FA4"/>
<path opacity="0.05" d="M71.4371 130.885C74.2971 132.527 74.2971 135.187 71.4371 136.828C68.5771 138.47 64.0011 138.47 61.1411 136.828C58.2811 135.187 58.2811 132.527 61.1411 130.885C64.0011 129.243 68.5943 129.272 71.4371 130.885Z" fill="black"/>
<path d="M61.6673 135.027C59.1906 132.498 57.7377 126.195 60.1515 124.193H72.4324C74.8462 126.195 73.3933 132.498 70.9223 135.021L70.8537 135.095L70.7679 135.175C70.6976 135.246 70.6231 135.313 70.5448 135.375L70.4819 135.421L70.2988 135.564C70.196 135.637 70.089 135.704 69.9785 135.764C68.8364 136.345 67.5732 136.648 66.292 136.648C65.0107 136.648 63.7475 136.345 62.6054 135.764C62.4928 135.705 62.3856 135.636 62.2851 135.559L62.1078 135.433L62.0391 135.37C61.9591 135.307 61.8904 135.244 61.8218 135.181L61.7245 135.084L61.6673 135.027Z" fill="#F5F5F5"/>
<path d="M71.3627 123.232C74.1655 124.85 74.1655 127.476 71.3627 129.089C68.5599 130.702 64.0182 130.708 61.2154 129.089C58.4126 127.47 58.4184 124.85 61.2154 123.232C64.0125 121.613 68.5656 121.613 71.3627 123.232Z" fill="white"/>
<path d="M69.3779 124.382C71.0939 125.366 71.0939 126.961 69.3779 127.945C68.4215 128.43 67.3643 128.683 66.2919 128.683C65.2196 128.683 64.1624 128.43 63.206 127.945C61.49 126.961 61.49 125.366 63.206 124.382C64.1624 123.897 65.2196 123.644 66.2919 123.644C67.3643 123.644 68.4215 123.897 69.3779 124.382Z" fill="#EBEBEB"/>
<path d="M63.206 126.069C64.1624 125.584 65.2196 125.331 66.2919 125.331C67.3643 125.331 68.4215 125.584 69.3779 126.069C69.7911 126.293 70.1427 126.615 70.4018 127.007C70.1427 127.399 69.7911 127.721 69.3779 127.945C68.4215 128.43 67.3643 128.682 66.2919 128.682C65.2196 128.682 64.1624 128.43 63.206 127.945C62.7928 127.721 62.4412 127.399 62.1821 127.007C62.4412 126.615 62.7928 126.293 63.206 126.069Z" fill="#E0E0E0"/>
<path d="M69.0004 126.984C69.8739 126.098 70.6259 125.1 71.2369 124.015C72.2665 122.191 72.4553 119.748 71.9233 119.439C71.3913 119.131 69.212 121.607 69.212 121.607C69.4078 120.582 69.4827 119.538 69.4351 118.496C69.3493 116.871 68.9489 115.395 68.4856 115.098C68.0223 114.8 66.9812 116.848 66.5351 118.33C66.0889 119.811 65.8201 121.035 65.8201 121.035C65.6421 119.872 65.3744 118.725 65.0193 117.603C64.4816 116.065 63.9897 115.716 63.6064 115.887C63.2232 116.059 62.9772 116.762 62.8628 118.816C62.8246 119.795 62.8552 120.776 62.9543 121.75C62.9543 121.75 62.1936 120.909 61.3413 120.091C60.489 119.274 60.0085 119.073 59.7454 119.245C59.4823 119.417 59.4022 120.812 60.8494 123.426C61.5662 124.755 62.4847 125.965 63.5721 127.013C63.5721 127.013 65.5855 128.3 69.0004 126.984Z" fill="#106FA4"/>
<path opacity="0.2" d="M69.0004 126.984C69.8739 126.098 70.6259 125.1 71.2369 124.015C72.2665 122.191 72.4553 119.748 71.9233 119.439C71.3913 119.131 69.212 121.607 69.212 121.607C69.4078 120.582 69.4827 119.538 69.4351 118.496C69.3493 116.871 68.9489 115.395 68.4856 115.098C68.0223 114.8 66.9812 116.848 66.5351 118.33C66.0889 119.811 65.8201 121.035 65.8201 121.035C65.6421 119.872 65.3744 118.725 65.0193 117.603C64.4816 116.065 63.9897 115.716 63.6064 115.887C63.2232 116.059 62.9772 116.762 62.8628 118.816C62.8246 119.795 62.8552 120.776 62.9543 121.75C62.9543 121.75 62.1936 120.909 61.3413 120.091C60.489 119.274 60.0085 119.073 59.7454 119.245C59.4823 119.417 59.4022 120.812 60.8494 123.426C61.5662 124.755 62.4847 125.965 63.5721 127.013C63.5721 127.013 65.5855 128.3 69.0004 126.984Z" fill="black"/>
<path d="M267.479 108.388L265.677 109.458L198.427 70.4476L200.223 69.3779L267.479 108.388Z" fill="#FAFAFA"/>
<path d="M200.223 69.3779L265.677 107.342V57.1314L200.223 19.1792V69.3779Z" fill="white"/>
<path d="M232.901 36.2305V88.5514L229.509 86.5894V34.2686L232.901 36.2305Z" fill="#F0F0F0"/>
<path d="M234.6 35.2407L232.901 36.2303V88.5511L234.6 87.5673V35.2407Z" fill="#E0E0E0"/>
<path d="M195.052 72.4095L269.097 115.31V55.1752L195.052 12.2466V72.4095ZM198.45 18.121L265.7 57.1314V109.458L198.427 70.4476L198.45 18.121Z" fill="#F0F0F0"/>
<path d="M198.427 70.4477L200.223 69.378V19.1793L198.427 18.1211V70.4477Z" fill="#E0E0E0"/>
<path d="M195.029 12.2465L196.859 11.1997L270.899 54.1283L269.074 55.1751L195.029 12.2465Z" fill="#FAFAFA"/>
<path d="M270.899 54.1284L269.074 55.1752L269.069 115.332L270.899 114.291V54.1284Z" fill="#E0E0E0"/>
<path d="M232.901 38.181L229.515 36.2305V38.1867L232.901 40.1429V38.181Z" fill="#E0E0E0"/>
<path opacity="0.15" d="M232.901 40.1431L234.594 39.1593L232.901 38.1812V40.1431Z" fill="black"/>
<path d="M27.6047 83.0092L28.6172 83.6155L49.4723 71.5692L48.4599 70.9629L27.6047 83.0092Z" fill="#FAFAFA"/>
<path d="M48.4599 70.9627L28.6172 82.4141V61.6391L48.4599 50.1934V70.9627Z" fill="white"/>
<path d="M51.3942 46.2754L26.701 60.5353V86.9446L51.3942 72.6903V46.2754ZM49.4723 71.5692L28.6 83.6098V61.6393L49.4723 49.5987V71.5692Z" fill="#F0F0F0"/>
<path d="M49.4723 71.5692L48.4598 70.9628V50.1935L49.4723 49.5986V71.5692Z" fill="#E0E0E0"/>
<path d="M51.3942 46.2809L50.3589 45.686L25.6714 59.946L26.701 60.5352L51.3942 46.2809Z" fill="#FAFAFA"/>
<path d="M25.6714 59.9458L26.701 60.535V86.9328L25.6714 86.3436V59.9458Z" fill="#E0E0E0"/>
<path d="M47.6819 70.3448L29.3951 80.9039V75.6244L33.9654 65.0652L36.8139 67.7022L35.79 72.1294L42.1049 58.6245L47.6819 65.0652V70.3448Z" fill="#F0F0F0"/>
<path d="M36.6423 59.9632C36.2486 60.2202 35.921 60.5665 35.6865 60.9741C35.4519 61.3816 35.3169 61.8388 35.2924 62.3084C35.2924 63.1721 35.8644 63.521 36.6423 63.0863C37.0371 62.8312 37.3657 62.4861 37.6014 62.0795C37.837 61.6728 37.9729 61.2161 37.998 60.7468C37.998 59.8831 37.3917 59.5342 36.6423 59.9632Z" fill="#F0F0F0"/>
<path d="M62.9944 56.1879L64.0125 56.7942L84.8677 44.7479L83.8495 44.1416L62.9944 56.1879Z" fill="#FAFAFA"/>
<path d="M83.8495 44.1415L64.0126 55.5987V34.8179L83.8495 23.3779V44.1415Z" fill="white"/>
<path d="M86.7839 19.4482L62.0907 33.7139V60.1117L86.7839 45.8575V19.4482ZM84.8677 44.7364L64.0069 56.7941V34.8179L84.862 22.8059L84.8677 44.7364Z" fill="#F0F0F0"/>
<path d="M84.8676 44.7479L83.8495 44.1415V23.3779L84.8676 22.7773V44.7479Z" fill="#E0E0E0"/>
<path d="M86.7839 19.4596L85.7486 18.8647L61.061 33.1247L62.0906 33.7139L86.7839 19.4596Z" fill="#FAFAFA"/>
<path d="M61.061 33.1245L62.0906 33.7137V60.1115L61.061 59.5223V33.1245Z" fill="#E0E0E0"/>
<path d="M83.0774 43.5235L64.7848 54.0826V48.8031L69.3551 38.2439L72.2036 40.8809L71.1798 45.3081L77.4946 31.8032L83.0774 38.2439V43.5235Z" fill="#F0F0F0"/>
<path d="M72.032 33.1419C71.6392 33.3999 71.3124 33.7465 71.078 34.1538C70.8435 34.5611 70.7079 35.0178 70.6821 35.4871C70.6821 36.3508 71.2884 36.6997 72.032 36.2707C72.4263 36.0137 72.7544 35.6674 72.9899 35.26C73.2254 34.8526 73.3617 34.3954 73.3877 33.9255C73.3877 33.0618 72.7814 32.7129 72.032 33.1419Z" fill="#F0F0F0"/>
<path d="M114.171 49.907C114.106 49.8719 114.033 49.8542 113.96 49.8555H113.485V57.772L118.152 52.7613C118.194 52.715 118.224 52.66 118.242 52.6003C118.26 52.5407 118.264 52.4778 118.254 52.4164C118.244 52.355 118.22 52.2966 118.185 52.2454C118.15 52.1943 118.103 52.1516 118.049 52.1207L114.171 49.907Z" fill="#106FA4"/>
<path opacity="0.3" d="M114.171 49.907C114.106 49.8719 114.033 49.8542 113.96 49.8555H113.485V57.772L118.152 52.7613C118.194 52.715 118.224 52.66 118.242 52.6003C118.26 52.5407 118.264 52.4778 118.254 52.4164C118.244 52.355 118.22 52.2966 118.185 52.2454C118.15 52.1943 118.103 52.1516 118.049 52.1207L114.171 49.907Z" fill="white"/>
<path d="M113.485 57.7723L118.152 52.7616C118.211 52.7016 118.251 52.6251 118.265 52.5423C118.28 52.4595 118.269 52.3741 118.235 52.2975C118.2 52.2208 118.143 52.1564 118.071 52.1126C117.999 52.0689 117.916 52.0479 117.832 52.0523H113.485L112.398 52.9675L113.485 57.7723Z" fill="#106FA4"/>
<path d="M113.485 47.3731C113.451 46.7374 113.267 46.1186 112.949 45.567C112.631 45.0154 112.188 44.5466 111.654 44.1985C111.086 43.911 110.458 43.7612 109.821 43.7612C109.184 43.7612 108.556 43.911 107.988 44.1985L81.2526 59.7169C80.7187 60.0646 80.2742 60.5333 79.9552 61.0848C79.6362 61.6364 79.4517 62.2553 79.4165 62.8915V77.0428C79.4517 77.6798 79.6362 78.2995 79.9552 78.852C80.2741 79.4045 80.7186 79.8742 81.2526 80.2231C81.821 80.5106 82.449 80.6604 83.0859 80.6604C83.7228 80.6604 84.3508 80.5106 84.9191 80.2231L111.803 64.5789C113.451 63.6408 113.462 62.697 113.462 61.5301L113.485 47.3731Z" fill="#106FA4"/>
<path opacity="0.2" d="M79.4165 77.0428C79.4517 77.6798 79.6362 78.2995 79.9552 78.852C80.2741 79.4045 80.7186 79.8742 81.2526 80.2231C81.7683 80.4855 82.334 80.6349 82.9119 80.6616C83.4899 80.6882 84.0669 80.5914 84.6045 80.3775C83.7408 80.7036 83.0887 80.2117 83.0887 79.1649V65.0079C83.1094 64.37 83.2925 63.7478 83.6207 63.2004L79.9542 61.084C79.6245 61.6311 79.4394 62.2531 79.4165 62.8915V77.0428Z" fill="black"/>
<path opacity="0.3" d="M113.428 46.8525C113.21 46.0746 112.501 45.8229 111.654 46.3148L84.9192 61.8332C84.3758 62.1701 83.9301 62.6434 83.6265 63.206L79.96 61.0896C80.2669 60.5309 80.712 60.0602 81.2527 59.7225L107.982 44.1984C108.552 43.9135 109.181 43.7651 109.818 43.7651C110.456 43.7651 111.084 43.9135 111.654 44.1984C112.114 44.4981 112.508 44.8878 112.813 45.344C113.118 45.8001 113.327 46.3133 113.428 46.8525Z" fill="white"/>
<path d="M88.7859 64.4875C89.0388 64.3307 89.3247 64.2347 89.621 64.2072C89.8497 64.1878 90.0788 64.2377 90.2788 64.3502C90.4622 64.4559 90.6127 64.6103 90.7135 64.7964C90.816 64.9946 90.8708 65.2139 90.8737 65.437C90.8749 65.5046 90.8591 65.5715 90.8279 65.6315C90.8096 65.6858 90.7733 65.7322 90.725 65.7631L89.7926 66.3007C89.7713 66.3184 89.7466 66.3315 89.7201 66.3393C89.6935 66.3472 89.6657 66.3496 89.6382 66.3465C89.5916 66.3398 89.5479 66.32 89.5123 66.2893C89.4866 66.2695 89.4635 66.2464 89.4437 66.2207C89.4075 66.1818 89.3623 66.1523 89.3121 66.1349C89.2424 66.1195 89.1702 66.1195 89.1005 66.1349C88.9893 66.156 88.8828 66.1966 88.7859 66.255C88.6065 66.3588 88.4443 66.4901 88.3054 66.6439C88.2419 66.724 88.19 66.8126 88.151 66.9071C88.1099 67.0049 88.0885 67.1098 88.088 67.2159C88.0797 67.3001 88.1043 67.3841 88.1567 67.4505C88.221 67.5025 88.3032 67.5272 88.3855 67.5191C88.5287 67.5159 88.6709 67.4947 88.8088 67.4562L89.4608 67.2846C89.6819 67.2208 89.9116 67.1918 90.1415 67.1988C90.3194 67.2041 90.4905 67.2685 90.6277 67.3818C90.771 67.5137 90.8724 67.6848 90.9194 67.8737C90.9936 68.1457 91.0264 68.4272 91.0167 68.7089C91.018 69.0771 90.964 69.4434 90.8565 69.7957C90.6302 70.5083 90.2381 71.1572 89.7125 71.689C89.4488 71.9489 89.1528 72.1738 88.8317 72.3582C88.5652 72.5276 88.2642 72.6352 87.9508 72.6728C87.7147 72.6961 87.4768 72.6525 87.2644 72.547C87.071 72.4402 86.9152 72.2764 86.8182 72.0779C86.7053 71.8545 86.6465 71.6076 86.6466 71.3572C86.6481 71.2899 86.6637 71.2236 86.6924 71.1627C86.7125 71.1094 86.7484 71.0635 86.7953 71.0312L87.7277 70.4935C87.7718 70.4593 87.8263 70.4411 87.8821 70.442C87.9239 70.4495 87.9632 70.4672 87.9965 70.4935L88.0823 70.585C88.1232 70.6333 88.1739 70.6723 88.231 70.6994C88.308 70.7344 88.3929 70.7482 88.477 70.7395C88.6042 70.7254 88.7261 70.6803 88.8317 70.6079C89.0646 70.4783 89.2767 70.3144 89.4608 70.1217C89.6141 69.9698 89.7041 69.7653 89.7125 69.5497C89.7183 69.5077 89.7129 69.465 89.6968 69.4258C89.6807 69.3867 89.6546 69.3524 89.621 69.3266C89.5346 69.2895 89.4399 69.2757 89.3464 69.2866C89.1859 69.3039 89.0271 69.3345 88.8717 69.3781L88.1967 69.5497C88.0194 69.6238 87.8247 69.646 87.6353 69.6136C87.4459 69.5812 87.2696 69.4955 87.1271 69.3667C86.8601 68.9851 86.7402 68.5198 86.7896 68.0568C86.7918 67.7261 86.838 67.3972 86.9269 67.0787C87.0201 66.7357 87.1545 66.4054 87.3273 66.0948C87.5033 65.7753 87.7164 65.4778 87.9622 65.2082C88.1969 64.9259 88.4749 64.6826 88.7859 64.4875Z" fill="white"/>
<path d="M95.524 65.0992C95.524 65.2079 95.524 65.3452 95.524 65.5168C95.524 65.6884 95.524 65.8314 95.524 65.9458C95.5124 66.3074 95.4586 66.6663 95.3639 67.0154C95.2748 67.3726 95.1442 67.7182 94.9749 68.045C94.8124 68.3662 94.6106 68.6659 94.3743 68.9374C94.1491 69.1931 93.8845 69.4112 93.5907 69.5837C93.3543 69.732 93.0853 69.8203 92.807 69.8411C92.5993 69.8462 92.3966 69.7773 92.235 69.6466C92.055 69.4944 91.9188 69.297 91.8404 69.0746C91.7425 68.7871 91.6903 68.486 91.6859 68.1823C91.6859 68.0736 91.6859 67.9364 91.6859 67.7648C91.6859 67.5932 91.6859 67.4502 91.6859 67.3358C91.694 66.9747 91.7439 66.6157 91.8346 66.2661C91.9302 65.9102 92.0624 65.5651 92.2293 65.2365C92.3973 64.9155 92.6006 64.6142 92.8356 64.3385C93.0579 64.0782 93.3229 63.8577 93.6193 63.6864C93.8541 63.5357 94.1242 63.4489 94.4029 63.4347C94.6219 63.4309 94.8356 63.5014 95.0092 63.6349C95.1902 63.7851 95.3251 63.9834 95.3982 64.2069C95.4864 64.496 95.5288 64.7971 95.524 65.0992ZM92.9386 67.3872C92.9316 67.4855 92.9453 67.5841 92.9788 67.6767C93.0123 67.7693 93.0648 67.8539 93.1331 67.9249C93.2475 68.0164 93.4019 68.005 93.5907 67.9249C93.7885 67.8073 93.9476 67.6343 94.0483 67.4273C94.1682 67.189 94.2345 66.9274 94.2428 66.6608C94.2428 66.5464 94.2428 66.4206 94.2428 66.2833C94.2493 66.1613 94.2493 66.0391 94.2428 65.9172C94.2498 65.819 94.2361 65.7203 94.2026 65.6277C94.1691 65.5351 94.1165 65.4505 94.0483 65.3795C93.9339 65.288 93.7794 65.2994 93.5907 65.4081C93.3906 65.5256 93.231 65.7012 93.1331 65.9115C93.0131 66.1477 92.9467 66.4074 92.9386 66.6722C92.9386 66.7866 92.9386 66.9125 92.9386 67.0498C92.935 67.1604 92.9369 67.2711 92.9443 67.3815L92.9386 67.3872Z" fill="white"/>
<path d="M98.956 60.6948C98.9754 60.679 98.9996 60.6704 99.0247 60.6704C99.0497 60.6704 99.0739 60.679 99.0933 60.6948C99.1344 60.7444 99.1548 60.8079 99.1505 60.8721V61.9761C99.148 62.0592 99.1285 62.141 99.0933 62.2163C99.0631 62.2828 99.0157 62.3401 98.956 62.3822L98.3097 62.754C98.0839 62.9022 97.9035 63.1099 97.7884 63.3542C97.6733 63.5985 97.6281 63.8698 97.6576 64.1383V66.8267C97.6578 66.9102 97.6382 66.9925 97.6004 67.0669C97.5736 67.1355 97.5255 67.1937 97.4631 67.2328L96.5708 67.7533C96.5514 67.7691 96.5272 67.7777 96.5021 67.7777C96.4771 67.7777 96.4529 67.7691 96.4335 67.7533C96.3934 67.7032 96.3731 67.6401 96.3763 67.576V62.4795C96.3788 62.3963 96.3983 62.3146 96.4335 62.2392C96.4637 62.1727 96.5111 62.1155 96.5708 62.0733L97.3945 61.5986C97.4133 61.5817 97.4378 61.5724 97.4631 61.5724C97.4884 61.5724 97.5129 61.5817 97.5317 61.5986C97.5522 61.622 97.5677 61.6492 97.5776 61.6787C97.5874 61.7081 97.5912 61.7392 97.5889 61.7702V62.0219C97.6963 61.8027 97.8266 61.5956 97.9779 61.4041C98.136 61.2102 98.3302 61.049 98.5499 60.9293L98.956 60.6948Z" fill="white"/>
<path d="M102.388 58.71C102.407 58.6942 102.432 58.6855 102.457 58.6855C102.482 58.6855 102.506 58.6942 102.525 58.71C102.566 58.7596 102.587 58.823 102.583 58.8873V59.9912C102.58 60.0744 102.561 60.1561 102.525 60.2315C102.495 60.298 102.448 60.3552 102.388 60.3974L101.742 60.7692C101.516 60.9173 101.336 61.125 101.22 61.3693C101.105 61.6136 101.06 61.885 101.09 62.1534V64.8418C101.09 64.9253 101.07 65.0076 101.032 65.082C101.006 65.1506 100.957 65.2088 100.895 65.2479L100.003 65.7627C99.9839 65.7796 99.9595 65.7889 99.9342 65.7889C99.9088 65.7889 99.8844 65.7796 99.8655 65.7627C99.8254 65.7126 99.8051 65.6495 99.8083 65.5854V60.4889C99.8109 60.4057 99.8303 60.324 99.8655 60.2486C99.8957 60.1822 99.9431 60.1249 100.003 60.0828L100.826 59.608C100.845 59.5911 100.87 59.5818 100.895 59.5818C100.92 59.5818 100.945 59.5911 100.964 59.608C100.984 59.6314 101 59.6586 101.01 59.6881C101.019 59.7175 101.023 59.7486 101.021 59.7796V60.0599C101.128 59.8407 101.259 59.6336 101.41 59.4421C101.568 59.2483 101.762 59.087 101.982 58.9674L102.388 58.71Z" fill="white"/>
<path d="M105.174 64.636C105.157 64.7103 105.134 64.783 105.105 64.8533C105.077 64.9212 105.029 64.9789 104.968 65.0192L104.035 65.5569C104.018 65.5704 103.997 65.5777 103.975 65.5777C103.954 65.5777 103.932 65.5704 103.915 65.5569C103.897 65.5359 103.884 65.5113 103.876 65.4846C103.868 65.458 103.866 65.43 103.87 65.4025C103.866 65.3759 103.866 65.349 103.87 65.3224L104.407 63.0344L102.96 58.7101C102.957 58.6873 102.957 58.6642 102.96 58.6414C102.96 58.566 102.978 58.4915 103.012 58.4241C103.037 58.3646 103.079 58.3132 103.132 58.2753L104.058 57.7377C104.121 57.7377 104.161 57.7377 104.196 57.7377C104.229 57.7781 104.254 57.8248 104.27 57.8749L105.054 60.2602L105.837 56.9655C105.837 56.8968 105.877 56.8282 105.906 56.7481C105.934 56.6803 105.982 56.6225 106.043 56.5822L106.981 56.0445C106.997 56.0288 107.019 56.02 107.041 56.02C107.064 56.02 107.085 56.0288 107.101 56.0445C107.12 56.0656 107.134 56.0901 107.143 56.1166C107.151 56.1431 107.155 56.1711 107.153 56.199C107.153 56.2333 107.153 56.2562 107.153 56.2848L105.174 64.636Z" fill="white"/>
<path d="M109.172 57.835C109.172 57.9185 109.153 58.0009 109.115 58.0753C109.09 58.1434 109.044 58.2017 108.983 58.2411L108.085 58.756C108.067 58.7724 108.044 58.7816 108.019 58.7816C107.995 58.7816 107.971 58.7724 107.954 58.756C107.932 58.7319 107.916 58.7037 107.907 58.6732C107.897 58.6427 107.893 58.6105 107.896 58.5786V53.8596C107.896 53.7761 107.916 53.6938 107.954 53.6194C107.978 53.5512 108.024 53.4929 108.085 53.4535L108.983 52.9387C109.001 52.9222 109.025 52.9131 109.049 52.9131C109.073 52.9131 109.097 52.9222 109.115 52.9387C109.136 52.9615 109.152 52.9887 109.162 53.0183C109.172 53.0479 109.175 53.0793 109.172 53.1103V57.835ZM109.172 60.186C109.172 60.2694 109.153 60.3518 109.115 60.4262C109.09 60.4944 109.044 60.5526 108.983 60.5921L108.085 61.1126C108.067 61.1279 108.043 61.1363 108.019 61.1363C107.995 61.1363 107.972 61.1279 107.954 61.1126C107.932 61.0887 107.916 61.0606 107.906 61.03C107.896 60.9995 107.893 60.9672 107.896 60.9353V59.8313C107.896 59.7478 107.916 59.6655 107.954 59.5911C107.978 59.5229 108.024 59.4646 108.085 59.4252L108.983 58.9104C109.001 58.8939 109.025 58.8848 109.049 58.8848C109.073 58.8848 109.097 58.8939 109.115 58.9104C109.136 58.9332 109.152 58.9603 109.162 58.99C109.172 59.0196 109.175 59.051 109.172 59.082V60.186Z" fill="white"/>
<path opacity="0.2" d="M122.282 248.706C123.463 248.276 124.572 247.671 125.571 246.91C126.985 245.794 128.238 244.489 129.295 243.031C130.343 241.599 131.5 240.249 132.756 238.993C134.981 236.837 137.526 234.932 140.495 233.937C144.579 232.564 148.949 233.084 153.136 233.468C157.924 233.908 162.648 234.674 167.436 234.955C170.324 235.121 173.465 235.144 175.81 233.445C176.674 232.815 177.429 231.849 177.331 230.779C177.234 229.71 176.187 228.634 175.278 227.833C172.355 225.334 168.631 223.658 165.125 222.153C158.833 219.454 152.352 217.005 145.591 215.861C138.83 214.717 131.732 214.912 125.32 217.337C121.51 218.779 118.009 222.943 115.91 226.346C114.05 229.345 112.738 232.651 112.038 236.11C111.69 237.854 111.533 239.63 111.569 241.407C111.62 243.415 111.923 245.983 113.439 247.493C114.188 248.243 115.115 248.792 116.133 249.089C118.174 249.594 120.32 249.46 122.282 248.706Z" fill="black"/>
<path d="M159.588 211.64C159.485 208.168 160.08 179.974 160.08 179.974L146.426 188.554C148.6 203.998 150.379 211.308 150.608 213.991C150.656 214.179 150.689 214.37 150.705 214.563C150.751 217.629 154.4 219.242 157.254 221.255C159.689 223.031 162.27 224.596 164.971 225.934C167.036 226.901 171.217 226.947 171.72 225.683C168.248 223.212 164.227 220.535 161.424 217.675C160.16 216.25 159.685 214.838 159.588 211.64Z" fill="#FFA8A7"/>
<path d="M177.64 228.846C177.818 228.846 178.104 230.693 177.154 231.494C176.056 232.415 172.818 233.942 168.517 233.456C164.216 232.97 161.87 231.74 160.137 230.373C158.404 229.006 155.967 227.112 154.022 226.723C152.209 226.363 150.242 225.579 149.658 225.082C149.075 224.584 149.126 222.188 149.126 222.188L177.64 228.846Z" fill="#263238"/>
<path d="M150.499 213.122C150.499 213.122 150.196 213.122 150.093 213.636C149.967 214.294 149.847 216.188 149.572 217.257C149.195 218.75 148.966 221.793 149.218 222.977C149.469 224.161 152.421 225.002 154.308 225.66C156.52 226.554 158.588 227.768 160.446 229.263C162.482 230.831 166.738 232.375 169.552 232.387C173.825 232.387 176.582 231.271 177.423 229.801C178.458 227.976 177.617 226.941 172.681 224.819C171.743 224.419 168.46 222.611 167.339 221.959C164.301 220.186 161.813 217.789 160.395 214.609C160.274 214.211 160.019 213.868 159.674 213.636C159.37 213.517 159.037 213.491 158.719 213.562C157.744 213.655 156.784 213.862 155.859 214.18C155.206 214.489 154.274 214.849 154.297 215.65C154.316 215.931 154.382 216.208 154.491 216.468C154.549 216.628 154.6 216.845 154.451 216.948C154.303 217.051 154.12 216.948 153.988 216.828C153.5 216.367 153.053 215.866 152.65 215.33C152.415 215.051 152.15 214.8 151.86 214.58C151.568 214.427 151.286 214.257 151.014 214.071C150.737 213.824 150.554 213.488 150.499 213.122Z" fill="#37474F"/>
<path d="M173.476 225.19C167.293 225.659 165.382 229.32 165.142 231.574C166.563 232.068 168.049 232.349 169.552 232.409C173.825 232.409 176.76 231.294 177.6 229.824C178.578 228.102 177.892 226.735 173.476 225.19Z" fill="#FAFAFA"/>
<path d="M164.198 225.368C164.128 225.37 164.059 225.348 164.004 225.305C163.973 225.282 163.948 225.253 163.929 225.22C163.909 225.187 163.897 225.15 163.893 225.112C163.889 225.074 163.892 225.035 163.904 224.999C163.915 224.962 163.933 224.928 163.958 224.899C164.687 224.174 165.559 223.608 166.518 223.237C167.477 222.866 168.502 222.697 169.529 222.743C169.567 222.746 169.603 222.757 169.637 222.775C169.67 222.793 169.699 222.817 169.723 222.847C169.747 222.876 169.765 222.909 169.776 222.946C169.787 222.982 169.791 223.02 169.787 223.057C169.783 223.095 169.772 223.131 169.754 223.164C169.736 223.198 169.712 223.227 169.683 223.251C169.654 223.275 169.62 223.293 169.584 223.304C169.548 223.315 169.51 223.318 169.472 223.315C168.544 223.285 167.619 223.442 166.753 223.776C165.886 224.11 165.095 224.614 164.427 225.259C164.4 225.294 164.365 225.322 164.325 225.34C164.286 225.359 164.242 225.369 164.198 225.368Z" fill="#F0F0F0"/>
<path d="M161.516 223.892C161.446 223.894 161.377 223.872 161.321 223.829C161.291 223.807 161.265 223.778 161.246 223.746C161.227 223.713 161.215 223.677 161.211 223.639C161.207 223.602 161.21 223.563 161.221 223.527C161.232 223.491 161.251 223.458 161.276 223.429C162.004 222.703 162.875 222.136 163.834 221.764C164.793 221.391 165.819 221.222 166.847 221.267C166.884 221.27 166.921 221.282 166.954 221.299C166.987 221.317 167.017 221.342 167.041 221.371C167.065 221.4 167.082 221.434 167.093 221.47C167.104 221.506 167.108 221.544 167.104 221.581C167.1 221.619 167.089 221.655 167.071 221.689C167.054 221.722 167.029 221.751 167 221.775C166.971 221.799 166.937 221.817 166.901 221.828C166.865 221.839 166.827 221.842 166.79 221.839C165.861 221.809 164.937 221.966 164.07 222.3C163.203 222.634 162.413 223.138 161.745 223.784C161.717 223.818 161.683 223.846 161.643 223.865C161.603 223.883 161.56 223.893 161.516 223.892Z" fill="#F0F0F0"/>
<path d="M159.016 222.228C158.961 222.231 158.906 222.218 158.858 222.191C158.81 222.163 158.771 222.123 158.746 222.074C158.721 222.025 158.71 221.97 158.715 221.915C158.72 221.86 158.742 221.808 158.776 221.764C159.504 221.038 160.376 220.471 161.335 220.099C162.294 219.727 163.319 219.558 164.347 219.602C164.425 219.608 164.498 219.644 164.549 219.703C164.6 219.762 164.626 219.839 164.622 219.917C164.617 219.956 164.605 219.993 164.586 220.028C164.567 220.062 164.541 220.092 164.51 220.116C164.48 220.14 164.444 220.158 164.406 220.168C164.368 220.178 164.329 220.18 164.29 220.174C163.361 220.144 162.436 220.301 161.569 220.636C160.702 220.971 159.912 221.478 159.245 222.125C159.217 222.157 159.181 222.184 159.142 222.201C159.102 222.219 159.059 222.228 159.016 222.228Z" fill="#F0F0F0"/>
<path d="M156.585 220.563C156.518 220.564 156.452 220.544 156.396 220.506C156.365 220.483 156.339 220.455 156.32 220.422C156.3 220.389 156.287 220.352 156.283 220.314C156.278 220.276 156.281 220.237 156.291 220.2C156.302 220.163 156.32 220.129 156.345 220.1C157.489 218.664 160.183 217.697 162.431 217.909C162.47 217.911 162.508 217.921 162.543 217.938C162.578 217.955 162.609 217.979 162.634 218.008C162.66 218.038 162.68 218.072 162.692 218.109C162.704 218.146 162.709 218.185 162.706 218.224C162.694 218.301 162.653 218.371 162.591 218.419C162.53 218.467 162.452 218.489 162.374 218.481C160.349 218.292 157.861 219.179 156.82 220.454C156.792 220.49 156.756 220.518 156.715 220.537C156.675 220.556 156.63 220.565 156.585 220.563Z" fill="#F0F0F0"/>
<path d="M130.559 196.625L117.483 195.144C116.797 203.489 117.209 212.876 116.614 220.695C116.499 222.171 115.367 232.135 115.63 235.195C116.025 239.828 121.756 239.771 122.345 237.065C122.934 234.36 124.359 222.622 124.502 221.421C124.982 216.411 127.476 208.265 129.718 199.388C129.844 198.947 130.45 197.048 130.559 196.625Z" fill="#FFA8A7"/>
<path d="M124.279 239.159C124.118 241.842 123.678 243.621 122.677 245.194C121.676 246.767 119.817 247.264 117.884 246.801C115.95 246.338 113.525 245.085 112.982 242.797C112.438 240.509 112.541 238.896 112.982 236.408L124.279 239.159Z" fill="#263238"/>
<path d="M116.688 219.734C115.899 219.797 115.67 223.395 115.212 227.004C114.726 230.871 113.496 232.467 113.079 235.635C112.587 239.256 112.781 240.875 114.114 243.071C115.447 245.268 120.166 247.407 122.488 244.273C124.387 241.716 124.467 238.879 124.29 235.264C124.194 232.211 124.28 229.155 124.547 226.112C124.696 223.4 125.331 220.666 124.645 220.392C124.593 220.786 124.542 221.295 124.484 221.684C124.444 221.982 124.364 223.452 123.912 223.469C123.881 223.128 123.881 222.786 123.912 222.445C123.938 222.293 123.933 222.136 123.896 221.986C123.86 221.835 123.793 221.694 123.701 221.57C123.456 221.357 123.149 221.227 122.826 221.198C122.053 221.055 120.412 220.987 119.622 220.918C119.231 220.883 118.837 220.867 118.444 220.872C118.107 220.866 117.771 220.912 117.449 221.009C117.355 221.036 117.268 221.082 117.194 221.146C117.12 221.209 117.061 221.287 117.02 221.376C116.981 221.509 116.967 221.649 116.98 221.787C116.979 222.038 116.947 222.288 116.883 222.531C116.854 222.64 116.774 222.771 116.665 222.743C116.557 222.714 116.534 222.617 116.534 222.525C116.534 222.091 116.591 221.77 116.614 221.261C116.614 221.027 116.659 220.689 116.665 220.472C116.671 220.254 116.688 219.968 116.688 219.734Z" fill="#37474F"/>
<path d="M112.856 237.734C112.718 239.982 112.856 241.521 113.897 243.237C115.229 245.428 120.326 247.578 122.654 244.444C123.798 242.888 124.118 241.012 124.279 239.159C122.889 236.739 115.052 235.664 112.856 237.734Z" fill="#FAFAFA"/>
<path d="M122.259 235.224C122.226 235.219 122.193 235.21 122.162 235.195C120.013 234.319 117.657 234.085 115.378 234.52C115.303 234.536 115.225 234.523 115.159 234.484C115.093 234.445 115.045 234.382 115.024 234.308C115.016 234.272 115.016 234.234 115.023 234.198C115.03 234.161 115.045 234.127 115.066 234.096C115.086 234.065 115.113 234.038 115.144 234.018C115.175 233.997 115.21 233.983 115.247 233.977C117.652 233.507 120.143 233.756 122.408 234.692C122.442 234.706 122.473 234.728 122.498 234.755C122.523 234.782 122.543 234.813 122.556 234.848C122.569 234.883 122.574 234.92 122.573 234.957C122.571 234.994 122.562 235.03 122.545 235.063C122.519 235.116 122.478 235.159 122.427 235.187C122.376 235.216 122.318 235.229 122.259 235.224Z" fill="#F0F0F0"/>
<path d="M115.544 231.831C115.489 231.827 115.437 231.807 115.393 231.773C115.35 231.74 115.317 231.695 115.298 231.643C115.287 231.607 115.282 231.57 115.285 231.533C115.288 231.496 115.298 231.46 115.316 231.427C115.333 231.394 115.356 231.365 115.384 231.341C115.413 231.317 115.446 231.299 115.481 231.288C119.005 230.144 122.494 231.86 122.643 231.934C122.676 231.95 122.705 231.973 122.729 232C122.753 232.028 122.772 232.06 122.783 232.094C122.794 232.129 122.798 232.166 122.795 232.202C122.791 232.239 122.78 232.274 122.763 232.306C122.724 232.372 122.662 232.422 122.589 232.444C122.516 232.466 122.437 232.46 122.368 232.426C122.334 232.426 118.936 230.756 115.67 231.82C115.629 231.832 115.586 231.836 115.544 231.831Z" fill="#F0F0F0"/>
<path d="M115.767 229.286C115.713 229.281 115.662 229.261 115.619 229.229C115.575 229.197 115.542 229.153 115.521 229.103C115.51 229.068 115.505 229.031 115.508 228.995C115.51 228.958 115.52 228.922 115.536 228.889C115.553 228.856 115.576 228.827 115.604 228.803C115.631 228.779 115.664 228.76 115.699 228.749C116.893 228.363 118.152 228.22 119.402 228.327C120.652 228.434 121.869 228.789 122.98 229.372C123.013 229.389 123.041 229.413 123.064 229.442C123.087 229.47 123.103 229.504 123.112 229.539C123.122 229.575 123.123 229.612 123.117 229.648C123.111 229.684 123.098 229.719 123.077 229.75C123.036 229.814 122.971 229.861 122.897 229.879C122.822 229.897 122.743 229.885 122.677 229.847C120.574 228.769 118.13 228.563 115.876 229.275C115.841 229.286 115.804 229.29 115.767 229.286Z" fill="#F0F0F0"/>
<path d="M116.007 226.426C115.955 226.422 115.905 226.403 115.862 226.371C115.82 226.34 115.787 226.298 115.767 226.249C115.753 226.214 115.747 226.177 115.748 226.14C115.749 226.103 115.758 226.067 115.773 226.033C115.789 226 115.811 225.969 115.838 225.944C115.866 225.92 115.898 225.901 115.933 225.888C119.571 224.596 123.14 226.506 123.295 226.592C123.327 226.609 123.355 226.633 123.378 226.662C123.401 226.69 123.418 226.723 123.428 226.759C123.437 226.794 123.44 226.831 123.434 226.867C123.429 226.903 123.417 226.938 123.398 226.969C123.358 227.035 123.295 227.082 123.221 227.101C123.147 227.121 123.069 227.11 123.003 227.072C122.969 227.072 119.514 225.208 116.139 226.409C116.097 226.426 116.052 226.432 116.007 226.426Z" fill="#EBEBEB"/>
<path d="M127.322 103.492C127.178 104.601 126.744 105.653 126.063 106.541C122.597 111.437 119.891 116.139 119.617 125.022C118.925 146.987 119.462 169.741 119.462 169.741C119.314 171.68 117.683 175.112 116.945 185.151C116.293 193.931 116.522 205.966 116.522 205.966C116.522 205.966 122.854 208.963 128.294 206.852C130.462 199.714 134.963 181.181 137.326 171.623C139.471 162.946 140.901 150.173 140.901 150.173L144.665 167.871C144.289 171.678 144.339 175.515 144.813 179.311C145.505 185.191 148.182 202.036 148.182 202.036C148.182 202.036 155.144 204.101 159.823 200.801C159.823 200.801 160.967 171.446 161.041 164.336C161.138 151.099 161.041 124.015 157.008 107.136C156.853 105.829 156.767 104.516 156.751 103.2C152.152 107.033 133.471 107.622 127.322 103.492Z" fill="#37474F"/>
<path d="M134.615 109.715C134.55 109.699 134.482 109.709 134.425 109.742C134.367 109.775 134.324 109.829 134.306 109.893C134.054 110.916 133.86 111.837 133.671 112.724C132.996 115.933 132.527 118.255 130.096 120.732C129.299 121.521 128.351 122.143 127.31 122.559C126.268 122.976 125.154 123.179 124.033 123.157C125.074 116.585 127.276 111.34 130.788 107.01C130.808 106.984 130.823 106.955 130.831 106.924C130.84 106.893 130.842 106.86 130.838 106.828C130.834 106.796 130.823 106.765 130.807 106.738C130.79 106.71 130.768 106.686 130.742 106.667C130.687 106.628 130.62 106.611 130.553 106.619C130.486 106.628 130.425 106.661 130.382 106.712C126.772 111.162 124.524 116.562 123.483 123.335C123.485 123.344 123.485 123.354 123.483 123.363C123.08 126.078 122.858 128.816 122.82 131.56C122.591 143.915 122.248 162.585 122.065 167.487C121.968 170.113 121.384 172.389 120.641 175.278C120.006 177.76 119.279 180.58 118.633 184.43C117.26 192.764 117.952 206.492 117.958 206.629C117.964 206.693 117.994 206.752 118.041 206.795C118.089 206.837 118.151 206.86 118.215 206.858C118.248 206.857 118.281 206.85 118.311 206.837C118.341 206.823 118.369 206.804 118.392 206.78C118.414 206.756 118.432 206.728 118.444 206.697C118.456 206.667 118.462 206.634 118.461 206.601C118.461 206.469 117.746 192.804 119.131 184.51C119.771 180.672 120.492 177.863 121.127 175.387C121.876 172.475 122.465 170.176 122.568 167.499C122.751 162.591 123.094 143.921 123.318 131.566C123.356 128.918 123.565 126.276 123.941 123.655H124.21C125.371 123.659 126.522 123.433 127.595 122.989C128.668 122.545 129.643 121.893 130.462 121.069C132.967 118.478 133.471 116.105 134.163 112.816C134.351 111.929 134.546 111.014 134.792 110.001C134.806 109.94 134.795 109.876 134.762 109.822C134.729 109.769 134.676 109.73 134.615 109.715Z" fill="#455A64"/>
<path d="M116.482 203.26C118.347 205.022 126.149 205.96 129.003 204.404L127.808 209.112C127.808 209.112 125.954 210.256 121.807 209.89C116.997 209.455 116.482 207.911 116.482 207.911V203.26Z" fill="#455A64"/>
<path d="M147.782 199.479C150.253 200.303 157.237 199.794 159.926 198.106L159.811 202.036C159.811 202.036 158.301 203.506 154.16 203.952C150.019 204.398 148.337 203.26 148.337 203.26L147.782 199.479Z" fill="#455A64"/>
<path d="M140.901 150.173L143.606 128.483C145.703 128.503 147.775 128.036 149.661 127.12C151.547 126.204 153.194 124.863 154.474 123.203C154.474 123.203 154.652 128.626 145.809 131.12L142.571 151.14L144.665 167.899L140.901 150.173Z" fill="#263238"/>
<path d="M160.629 73.8681C158.404 70.6992 156.516 62.8743 156.511 53.8481V47.0756C156.511 45.0335 156.11 43.0112 155.329 41.1243C154.548 39.2374 153.403 37.5228 151.959 36.0786C150.515 34.6343 148.801 33.4886 146.915 32.7069C145.028 31.9253 143.006 31.5229 140.964 31.5229C136.839 31.5229 132.883 33.1615 129.966 36.0782C127.05 38.9949 125.411 42.9508 125.411 47.0756V98.058H156.511V67.1013C157.414 69.5037 158.839 72.215 160.629 73.8681Z" fill="#455A64"/>
<path d="M171.714 103.12C172.224 98.0238 166.092 87.2073 159.559 75.5843C156.848 70.7566 155.224 68.1769 148.537 67.0386L145.042 85.0623C145.042 85.0623 161.092 102.708 161.436 102.708C161.779 102.708 171.714 103.12 171.714 103.12Z" fill="#F28F8F"/>
<path d="M148.302 66.4434C152.535 67.4501 154.52 68.2738 156.511 70.5789C158.501 72.8841 164.204 83.8036 165.914 86.8752C167.625 89.9468 169.598 94.723 169.598 94.723L158.953 98.4811L151.06 84.4728L148.302 66.4434Z" fill="#106FA4"/>
<path opacity="0.3" d="M148.302 66.4434C152.535 67.4501 154.52 68.2738 156.511 70.5789C158.501 72.8841 164.204 83.8036 165.914 86.8752C167.625 89.9468 169.598 94.723 169.598 94.723L158.953 98.4811L151.06 84.4728L148.302 66.4434Z" fill="black"/>
<path d="M157.569 96.6679C158.759 95.3351 165.245 92.6925 169.226 93.8422C169.678 93.9591 170.081 94.2165 170.377 94.5774C170.673 94.9383 170.847 95.3839 170.874 95.8499C171.005 96.6679 171.875 97.6632 171.743 98.2638C171.611 98.8644 172.04 99.9455 172.166 100.723C172.292 101.501 172.332 102.565 171.714 103.131C170.101 102.148 164.067 100.466 158.393 101.198L157.569 96.6679Z" fill="#37474F"/>
<path d="M162.78 118.804C162.328 116.047 150.127 113.176 143.601 113.502V80.6519H159.617L162.78 118.804Z" fill="#106FA4"/>
<path opacity="0.5" d="M162.78 118.804C162.328 116.047 150.127 113.176 143.601 113.502V80.6519H159.617L162.78 118.804Z" fill="black"/>
<path d="M137.343 65.271L126.887 67.988C125.171 68.56 119.451 72.8557 121.665 82.5397C122.402 85.7372 123.409 90.2331 124.313 94.7233C125.005 98.1553 122.46 104.756 120.4 115.275C120.4 115.275 128.837 122.036 145.603 120.126C158.393 118.673 159.777 113.834 159.777 113.834C159.422 101.822 158.37 97.2058 158.393 92.6412C158.393 92.6412 160.263 90.3532 160.343 86.2691C160.423 81.9906 159.308 79.6911 155.504 74.8291C153.351 72.0781 151.024 69.4682 148.537 67.0156L137.343 65.271Z" fill="#FAFAFA"/>
<path d="M155.527 80.1889C158.49 86.9785 156.488 125.714 156.757 122.809C156.757 122.809 162.265 120.658 162.78 118.805C162.78 111.832 161.499 97.8236 161.424 93.0303C161.333 87.5219 161.384 83.5351 159.622 80.1545C157.861 76.774 151.18 68.4743 148.537 67.0386C151.265 69.4238 154.406 76.1219 155.527 80.1889Z" fill="#106FA4"/>
<path opacity="0.2" d="M155.527 80.1889C158.49 86.9785 156.488 125.714 156.757 122.809C156.757 122.809 162.265 120.658 162.78 118.805C162.78 111.832 161.499 97.8236 161.424 93.0303C161.333 87.5219 161.384 83.5351 159.622 80.1545C157.861 76.774 151.18 68.4743 148.537 67.0386C151.265 69.4238 154.406 76.1219 155.527 80.1889Z" fill="black"/>
<path d="M144.853 67.5475C146.712 68.8345 154.955 74.4802 156.608 85.7142C156.608 80.7607 154.76 74.6975 153.004 71.8204C150.865 68.314 148.016 65.0422 144.83 64.0869L144.853 67.5475Z" fill="#37474F"/>
<path d="M133.579 65.3853C133.579 65.3853 133.488 65.534 133.579 67.6389C133.671 69.7439 136.965 85.6627 137.011 93.2931C137.033 103.554 136.422 113.807 135.181 123.992C135.181 123.992 121.876 124.387 117.38 118.272C119.29 112.973 120.703 107.508 121.601 101.947C123.106 92.6582 125.88 67.9936 125.88 67.9936L133.579 65.3853Z" fill="#106FA4"/>
<path opacity="0.2" d="M133.579 65.3853C133.579 65.3853 133.488 65.534 133.579 67.6389C133.671 69.7439 136.965 85.6627 137.011 93.2931C137.033 103.554 136.422 113.807 135.181 123.992C135.181 123.992 121.876 124.387 117.38 118.272C119.29 112.973 120.703 107.508 121.601 101.947C123.106 92.6582 125.88 67.9936 125.88 67.9936L133.579 65.3853Z" fill="black"/>
<path d="M153.571 40.7721C154.349 42.4881 156.82 44.8962 155.676 54.3971C154.806 61.6386 152.673 63.2002 150.27 64.0639C148.489 64.5441 146.612 64.5441 144.83 64.0639V67.4959C144.83 67.4959 149.035 71.763 147.37 80.1371C133.522 73.8451 133.562 66.6779 133.562 66.6779L133.499 55.2723C133.024 56.0044 130.776 56.9482 129.095 54.6545C127.116 51.9547 127.665 48.8144 129.524 47.7047C131.383 46.595 133.579 47.7562 134.351 49.9355C136.296 50.8164 137.915 49.0546 138.001 41.3898C142.554 39.2105 148.629 37.9292 153.571 40.7721Z" fill="#FFA8A7"/>
<path d="M133.556 61.6043C132.624 61.5357 132.361 63.4633 131.085 64.8476C130.358 65.6482 129.56 66.3814 128.7 67.0383C129.644 74.0682 132.944 81.63 136.8 89.3463L133.574 63.9381L133.556 61.6043Z" fill="#37474F"/>
<path d="M130.239 53.7282C130.203 53.9312 130.229 54.1401 130.312 54.3286C130.395 54.5171 130.533 54.6766 130.707 54.7869C130.881 54.8973 131.084 54.9535 131.29 54.9485C131.496 54.9434 131.695 54.8774 131.864 54.7587C132.032 54.64 132.162 54.474 132.236 54.2816C132.31 54.0893 132.325 53.8794 132.28 53.6784C132.234 53.4774 132.13 53.2944 131.981 53.1526C131.831 53.0107 131.643 52.9164 131.44 52.8816C131.168 52.8351 130.89 52.8981 130.664 53.0568C130.439 53.2155 130.286 53.4569 130.239 53.7282Z" fill="#106FA4"/>
<path d="M147.645 48.3511L147.393 55.993L151.403 55.3123L147.645 48.3511Z" fill="#F28F8F"/>
<path d="M144.83 64.0638C138.985 62.222 135.438 59.9855 134.883 57.4858C134.883 57.4858 134.855 59.9912 136.519 61.4898C138.859 63.5662 144.83 65.3794 144.83 65.3794V64.0638Z" fill="#F28F8F"/>
<path d="M142.8 51.5602C142.926 51.8673 143.167 52.1132 143.471 52.2456C143.775 52.378 144.119 52.3866 144.43 52.2695C144.582 52.2149 144.722 52.1303 144.84 52.0206C144.959 51.9109 145.054 51.7784 145.12 51.631C145.187 51.4836 145.222 51.3243 145.226 51.1628C145.229 51.0012 145.2 50.8407 145.139 50.6907C144.888 50.0558 144.287 50.0501 143.641 50.2903C142.994 50.5306 142.542 50.9081 142.8 51.5602Z" fill="#263238"/>
<path d="M153.496 51.5602C153.37 51.8673 153.129 52.1132 152.825 52.2456C152.521 52.378 152.177 52.3866 151.866 52.2695C151.714 52.2149 151.574 52.1303 151.456 52.0206C151.337 51.9109 151.242 51.7784 151.176 51.631C151.109 51.4836 151.074 51.3243 151.07 51.1628C151.067 51.0012 151.096 50.8407 151.157 50.6907C151.408 50.0558 152.009 50.0501 152.655 50.2903C153.302 50.5306 153.754 50.9081 153.496 51.5602Z" fill="#263238"/>
<path d="M147.399 58.6588C146.956 58.3002 146.441 58.0425 145.889 57.9037C145.592 57.8372 145.287 57.8217 144.985 57.858C144.657 57.8633 144.337 57.9626 144.064 58.144C144.024 58.144 143.995 58.2927 144.064 58.3098C144.206 58.3327 144.351 58.3327 144.493 58.3098C144.642 58.3013 144.791 58.3013 144.939 58.3098C145.218 58.3439 145.494 58.4013 145.763 58.4814C146.311 58.6187 146.82 58.881 147.25 59.2479C147.393 59.3795 147.822 59.9057 147.925 59.4767C148.011 59.1621 147.633 58.8532 147.399 58.6588Z" fill="#B16668"/>
<path d="M152.226 36.3505C157.923 37.7519 158.375 45.0391 157.872 48.0479C157.054 48.4311 154.554 48.5741 152.753 48.3796C152.469 46.5115 151.91 44.6958 151.094 42.9914C151.326 44.8197 151.412 46.6635 151.351 48.5055C149.763 48.8606 148.114 48.841 146.535 48.4483C146.535 48.4483 146.432 45.1135 146.632 40.8464C145.528 43.6206 145.259 48.3796 145.259 48.3796C145.259 48.3796 141.993 48.4883 139.883 47.636C139.922 45.7802 140.123 43.9315 140.483 42.1105C139.379 43.9924 138.882 46.2117 138.39 48.4025C137.898 50.5933 135.221 51.8974 134.386 50.0384C134.226 48.1165 133.814 43.2774 135.844 40.0055C137.875 36.7337 145.786 34.7546 152.226 36.3505Z" fill="#455A64"/>
<path d="M152.152 46.7153L154.858 47.9909C154.783 48.1712 154.673 48.3345 154.534 48.4708C154.394 48.6071 154.228 48.7136 154.046 48.7837C153.864 48.8538 153.67 48.8861 153.475 48.8787C153.28 48.8712 153.089 48.8241 152.913 48.7402C152.55 48.5651 152.269 48.2571 152.127 47.8801C151.985 47.503 151.994 47.0859 152.152 46.7153Z" fill="#263238"/>
<path d="M144.144 46.6011L141.627 48.3171C141.729 48.4858 141.864 48.6321 142.025 48.7471C142.185 48.8621 142.366 48.9434 142.559 48.9862C142.751 49.029 142.951 49.0323 143.144 48.9959C143.338 48.9596 143.523 48.8843 143.686 48.7747C144.03 48.5428 144.27 48.1862 144.355 47.7805C144.441 47.3749 144.365 46.9518 144.144 46.6011Z" fill="#263238"/>
<path d="M157.832 94.7231C158.204 97.7891 166.023 96.6107 168.786 98.6528C172.264 101.221 173.007 103.984 169.158 105.866C165.308 107.748 162.236 107.141 159.211 105.98C155.658 104.619 153.834 104.682 153.834 104.682L157.832 94.7231Z" fill="#FFA8A7"/>
<path d="M151.786 104.253C150.55 103.452 149.424 101.124 149.201 99.5737C148.886 97.3658 149.304 96.8166 149.418 94.6888C149.396 93.6921 149.591 92.7024 149.99 91.7888C149.99 91.7888 150.139 90.6162 149.178 87.5102C148.823 86.3662 148.989 85.4682 149.853 85.2966C149.572 83.735 150.293 83.2488 151.025 83.3518C150.779 82.1277 150.671 81.0294 151.889 80.629C152.015 80.5833 152.284 80.978 152.587 81.8588C152.678 81.0638 153.639 80.303 153.977 80.9093C154.996 82.8884 155.914 84.9178 156.728 86.9897C157.649 89.4092 158.015 90.4217 157.872 94.7231C157.775 97.3886 157.838 98.4125 157.3 101.067C157.083 102.211 157.037 102.525 155.841 103.887C154.823 105.036 152.392 104.745 151.786 104.253Z" fill="#FFA8A7"/>
<path d="M154.228 96.1531C154.291 95.159 154.135 94.1632 153.771 93.2359C153.771 93.2359 153.668 92.0519 154.743 88.986C155.138 87.842 155.006 86.9496 154.171 86.7494C154.509 85.1993 153.805 84.6845 153.073 84.7589C153.359 83.552 153.502 82.4709 152.301 82.0076C152.181 81.9618 151.895 82.345 151.563 83.2145C151.513 82.8131 151.308 82.4474 150.991 82.1963C150.988 82.6983 151.061 83.1978 151.208 83.6778C150.47 83.6092 149.778 84.1354 150.139 85.6855C149.286 85.8972 149.166 86.8295 149.567 87.9278C150.711 90.9765 150.602 92.1606 150.602 92.1606C150.255 93.0937 150.115 94.0909 150.19 95.0835C150.19 97.2113 149.492 98.5155 149.921 100.712C150.064 101.417 150.363 102.081 150.797 102.655C151.231 103.23 151.787 103.699 152.427 104.03C152.695 104.184 153.399 103.423 153.674 103.595C154.208 102.965 154.547 102.194 154.652 101.375C154.955 99.4135 154.268 98.281 154.228 96.1531Z" fill="#F28F8F"/>
<path d="M151.832 105.414C153.336 104.687 153.834 103.532 154.223 102.01C154.829 99.6536 153.782 98.2522 153.748 96.1244C153.81 95.1303 153.654 94.1346 153.29 93.2072C153.29 93.2072 153.182 92.0289 154.257 88.963C154.657 87.819 154.52 86.9266 153.685 86.7264C154.022 85.1706 153.319 84.6615 152.581 84.7359C152.873 83.5232 153.016 82.4479 151.815 81.9846C151.694 81.9388 151.408 82.3163 151.077 83.1915C151.014 82.3907 150.081 81.5956 149.721 82.1905C148.633 84.1301 147.648 86.1253 146.769 88.1679C145.757 90.5474 145.688 91.5999 145.688 95.867C145.688 97.011 145.58 98.9386 143.343 99.6136C141.107 100.289 127.379 100.054 127.379 100.054C127.379 100.054 127.236 91.8916 127.287 86.4462C129.678 78.6441 128.151 70.6761 126.309 67.9648C120.4 69.4006 117.048 71.803 116.499 76.9624C115.95 82.1218 115.704 95.907 116.185 102.617C116.682 109.515 118.433 111.351 123.438 111.197C131.96 110.916 142.868 109.721 151.832 105.414Z" fill="#FFA8A7"/>
<path d="M153.004 87.5161C152.41 88.7868 151.924 90.1051 151.551 91.4572C151.408 92.218 151.174 93.8539 151.174 93.8539C151.098 93.0047 151.131 92.1494 151.271 91.3085C151.506 89.6497 153.004 87.5161 153.004 87.5161Z" fill="#F28F8F"/>
<path d="M152.375 84.8218C151.803 86.1145 150.659 87.9163 150.402 88.8715C150.046 90.3228 149.819 91.8022 149.721 93.2931C149.535 91.7565 149.671 90.1979 150.121 88.7171C150.596 87.2299 151.38 86.4749 152.375 84.8218Z" fill="#F28F8F"/>
<path d="M151.06 83.1919C150.236 84.9422 148.926 87.3961 148.646 88.1225C148.365 88.849 147.971 92.464 147.971 92.464C147.898 91.1887 147.946 89.9093 148.114 88.6431C148.388 87.3217 151.06 83.1919 151.06 83.1919Z" fill="#F28F8F"/>
<path d="M126.458 67.7935C124.782 68.2167 120.869 69.0576 118.45 71.6373C116.03 74.217 116.047 76.894 115.801 82.0077C115.555 87.1213 115.527 97.3659 115.63 99.0018C115.63 99.0018 117.437 99.7454 121.521 99.6195C125.605 99.4937 127.482 98.384 127.482 98.384C127.482 98.384 127.556 92.2636 127.705 89.764C127.853 87.2643 129.095 81.6873 128.849 77.3287C128.603 72.9701 128.357 70.1673 126.458 67.7935Z" fill="#106FA4"/>
<path opacity="0.3" d="M126.458 67.7935C124.782 68.2167 120.869 69.0576 118.45 71.6373C116.03 74.217 116.047 76.894 115.801 82.0077C115.555 87.1213 115.527 97.3659 115.63 99.0018C115.63 99.0018 117.437 99.7454 121.521 99.6195C125.605 99.4937 127.482 98.384 127.482 98.384C127.482 98.384 127.556 92.2636 127.705 89.764C127.853 87.2643 129.095 81.6873 128.849 77.3287C128.603 72.9701 128.357 70.1673 126.458 67.7935Z" fill="black"/>
<path d="M127.505 96.9483C127.11 97.8406 125.159 98.4812 121.664 98.5842C119.577 98.6471 115.973 97.9149 115.59 97.2857V96.3076C115.59 96.3076 114.583 96.4907 114.829 98.4526C115.075 100.415 114.085 101.358 114.48 102.348C114.875 103.337 114.68 104.991 115.327 105.751C115.687 106.192 116.184 106.5 116.74 106.627C116.74 106.627 124.439 105.551 127.956 100.06C128.254 99.5223 127.956 98.8816 127.956 98.2867C127.956 97.6919 128.26 96.6108 127.516 96.3648L127.505 96.9483Z" fill="#37474F"/>
</svg>
