<svg width="178" height="171" viewBox="0 0 178 171" fill="none" xmlns="http://www.w3.org/2000/svg">
<path d="M155.975 39.0331L155.152 37.691C148.541 26.9363 136.64 20.4144 124.027 21.0516C122.248 21.1417 120.48 21.3714 118.737 21.7387C107.135 24.1915 97.0387 32.8565 92.8521 43.9495C90.3922 50.4785 89.7051 57.9902 85.0201 63.1735C78.9432 69.9161 68.6228 70.1262 59.5519 69.8485C50.481 69.5708 40.1535 69.8058 34.105 76.5734C30.3136 80.8133 29.121 86.8404 29.4165 92.5186C30.2246 107.545 40.8299 120.999 54.3365 127.663C67.8432 134.327 83.7029 134.94 98.4805 132.003C119.157 127.887 138.822 116.581 150.642 99.1224C162.461 81.6642 165.433 57.8798 155.975 39.0331Z" fill="#F5F5F5"/>
<path d="M168.52 141.832C168.52 141.885 132.92 141.928 89.0037 141.928C45.0876 141.928 9.48047 141.896 9.48047 141.832C9.48047 141.768 45.0805 141.739 89.0037 141.739C132.927 141.739 168.52 141.782 168.52 141.832Z" fill="#263238"/>
<path d="M112.389 55.5518C112.584 52.2553 112.781 48.9587 112.98 45.6622C113.005 45.2634 113.066 44.8042 113.407 44.5942C113.574 44.5285 113.753 44.5008 113.932 44.5131C114.11 44.5254 114.284 44.5774 114.44 44.6654C120.285 47.0185 124.575 53.5404 125.088 59.8167" fill="#106FA4"/>
<g opacity="0.3">
<path d="M114.376 48.0118C115.745 48.909 116.888 50.1108 117.716 51.5232C118.543 52.9357 119.033 54.5204 119.146 56.1535C119.211 56.5481 119.127 56.9527 118.911 57.2891C118.8 57.4098 118.665 57.506 118.515 57.5716C118.365 57.6371 118.203 57.6707 118.039 57.67C117.711 57.6665 117.385 57.6161 117.071 57.5205C116.284 57.3176 115.454 57.0969 114.871 56.5273C114.337 55.9616 114.031 55.2186 114.013 54.4411C113.998 53.6702 114.077 52.9005 114.248 52.1485L115.244 53.8502L114.176 48.3393C114.16 48.2909 114.153 48.2394 114.158 48.1884C114.163 48.1374 114.179 48.0881 114.205 48.0438C114.265 47.9655 114.436 47.994 114.426 48.0936" fill="white"/>
</g>
<path d="M78.5016 62.5722C75.451 58.9502 73.6969 54.4135 73.5176 49.6814L76.775 51.2158L75.9597 50.2225C80.7131 50.6188 85.1239 52.8555 88.2524 56.4561" fill="#106FA4"/>
<g opacity="0.3">
<path d="M80.3065 61.1339C79.0272 60.2041 77.9523 59.0217 77.1483 57.6599C76.3443 56.298 75.8283 54.7857 75.6322 53.2164C75.6073 53.0028 75.6322 52.7216 75.8316 52.6504C75.906 52.6374 75.9823 52.6412 76.055 52.6615C76.1277 52.6818 76.1949 52.7182 76.2517 52.7679L82.1292 56.6091C81.8739 56.2426 81.7148 55.8178 81.6664 55.3738L84.1584 57.2001C84.2531 57.2527 84.3364 57.3235 84.4036 57.4084C84.4708 57.4934 84.5206 57.5907 84.55 57.6949C84.5513 57.8121 84.5245 57.9279 84.4719 58.0325C84.4192 58.1372 84.3423 58.2277 84.2474 58.2966C83.8323 58.6713 83.3271 58.9319 82.7811 59.053C82.2351 59.174 81.667 59.1514 81.1324 58.9872L82.2004 59.9164C81.8824 60.1218 81.526 60.2609 81.1528 60.3251C80.7796 60.3893 80.3973 60.3775 80.0288 60.2902C79.9928 60.4657 80.0101 60.6481 80.0787 60.8137C80.1472 60.9793 80.2638 61.1206 80.4133 61.2193" fill="white"/>
</g>
<path d="M144.892 93.6403C144.892 93.6403 149.449 98.3502 151.521 97.9586C151.521 97.9586 144.323 90.301 141.297 83.2344C139.851 79.8927 138.129 76.6775 136.149 73.6224C137.512 71.2728 138.726 68.6135 139.282 65.9257C137.751 67.7008 136.006 69.2792 134.088 70.6249C133.931 70.4042 133.771 70.187 133.607 69.9663C135.217 68.5095 136.29 66.5534 136.654 64.4127L129.46 64.103C129.685 63.7787 129.888 63.4398 130.068 63.0884C126.534 60.0506 122.576 57.543 118.32 55.6444C110.043 50.9345 91.6203 49.3788 82.6491 57.0364C74.6142 61.7213 72.4604 67.7164 66.1307 69.2009L62.3784 68.7915C62.3784 68.7915 60.9188 76.6235 65.7142 80.123L62.1542 79.297C62.1542 79.297 62.8092 82.4156 66.3122 85.8546L64.1264 85.5876C64.1264 85.5876 65.0734 90.4932 68.0994 91.6716C68.0994 91.6716 63.3717 92.2626 62.0474 90.4932C62.0474 90.4932 60.4738 97.8269 67.633 100.593C67.633 100.593 46.1804 103.106 52.2111 129.368C53.6351 135.502 62.0901 139.917 71.8267 142.049L141.959 141.775C146.231 140.38 151.329 126.225 151.517 120.533C151.706 114.84 148.872 103.843 148.872 103.843L151.528 107.378L144.892 93.6403Z" fill="#106FA4"/>
<path d="M64.735 104.584C60.7086 104.342 56.7535 107.471 56.0664 111.447C58.686 109.71 61.6773 108.612 64.7991 108.243C63.5695 109.374 62.7127 110.852 62.342 112.481C61.9714 114.11 62.1044 115.813 62.7236 117.364C63.2426 115.977 64.0378 114.71 65.0609 113.64C66.0841 112.57 67.3139 111.719 68.6759 111.138C67.7456 112.26 67.1205 113.603 66.8611 115.037C66.6016 116.472 66.7166 117.949 67.195 119.326" fill="#106FA4"/>
<path d="M67.1951 119.333C67.1711 119.286 67.152 119.237 67.1382 119.187C67.1061 119.091 67.0492 118.948 66.9922 118.76C66.8355 118.199 66.7376 117.624 66.7003 117.044C66.6456 116.126 66.7381 115.205 66.9744 114.317C67.2836 113.141 67.8462 112.048 68.6227 111.113L68.7046 111.223C67.3558 111.806 66.1382 112.654 65.1247 113.718C64.1112 114.782 63.3225 116.039 62.8056 117.414L62.7273 117.628L62.6419 117.418C62.2116 116.334 62.0124 115.173 62.0572 114.008C62.1019 112.843 62.3896 111.701 62.9018 110.654C63.3528 109.729 63.9763 108.899 64.7387 108.208L64.8099 108.368C61.7031 108.735 58.7243 109.819 56.1093 111.536L55.9526 111.64L55.9882 111.455C56.1464 110.595 56.4472 109.769 56.8782 109.009C57.2602 108.32 57.7398 107.691 58.3022 107.14C59.2007 106.23 60.2869 105.528 61.4849 105.082C62.2511 104.795 63.0566 104.627 63.8736 104.584C64.1584 104.584 64.3756 104.584 64.518 104.584C64.372 104.584 64.162 104.584 63.8772 104.584C63.0683 104.646 62.2729 104.827 61.5169 105.121C60.3393 105.574 59.2741 106.278 58.3948 107.183C57.8469 107.729 57.3805 108.351 57.01 109.03C56.5924 109.778 56.3013 110.59 56.1484 111.433L56.0238 111.351C58.6565 109.614 61.6594 108.516 64.7921 108.147L65.0805 108.115L64.8633 108.307C64.1241 108.984 63.5201 109.794 63.0833 110.696C62.5794 111.722 62.2956 112.841 62.2502 113.983C62.2048 115.124 62.3989 116.263 62.8199 117.325H62.6561C63.2199 115.834 64.0991 114.482 65.2336 113.363C66.2209 112.386 67.3857 111.606 68.6654 111.066L68.936 110.953L68.7473 111.177C67.9766 112.094 67.4143 113.168 67.099 114.324C66.8582 115.201 66.7561 116.11 66.7964 117.019C66.8241 117.594 66.91 118.166 67.0527 118.724C67.099 118.916 67.1488 119.062 67.1738 119.158C67.1866 119.216 67.1938 119.274 67.1951 119.333Z" fill="#263238"/>
<path d="M138.245 115.63C140.419 115.171 142.684 115.474 144.661 116.488C146.637 117.503 148.203 119.168 149.096 121.202" fill="#106FA4"/>
<path d="M149.096 121.202C149.061 121.22 148.787 120.525 148.092 119.561C147.188 118.303 145.997 117.278 144.619 116.571C143.24 115.863 141.714 115.493 140.164 115.492C138.975 115.492 138.249 115.67 138.245 115.63C138.408 115.571 138.576 115.529 138.747 115.506C139.217 115.417 139.693 115.37 140.171 115.363C141.748 115.328 143.309 115.686 144.713 116.406C146.117 117.126 147.318 118.184 148.21 119.486C148.481 119.876 148.719 120.288 148.922 120.718C148.998 120.872 149.057 121.034 149.096 121.202Z" fill="#263238"/>
<g opacity="0.3">
<path d="M113.518 121.547C110.933 121.96 107.644 123.914 106.444 126.232C106.188 126.727 106.423 126.794 106.444 127.35C106.444 127.63 106.523 127.904 106.672 128.141C106.82 128.378 107.033 128.569 107.284 128.692C107.412 128.744 107.549 128.768 107.686 128.764C107.824 128.759 107.959 128.726 108.083 128.666C108.207 128.605 108.316 128.52 108.405 128.415C108.494 128.309 108.56 128.187 108.598 128.055C108.289 129.951 108.703 131.895 109.758 133.501C110.485 133.091 111.071 132.471 111.439 131.721C111.371 133.112 111.589 134.502 112.079 135.806C112.568 137.109 113.32 138.298 114.287 139.301L113.026 134.384C112.574 132.604 112.136 131.091 112.257 129.265C112.386 127.314 113.546 125.669 114.447 124.053C113.208 124.591 111.773 127.026 110.552 128.51C110.479 127.218 110.7 125.927 111.199 124.733C111.698 123.539 112.462 122.474 113.432 121.618" fill="black"/>
</g>
<path d="M113.033 134.441C112.993 134.375 112.959 134.305 112.934 134.231C112.88 134.089 112.777 133.875 112.692 133.601C112.425 132.802 112.263 131.972 112.211 131.131C112.127 129.85 112.278 128.565 112.656 127.339C113.122 125.781 113.953 124.357 115.08 123.185L115.205 123.313C114.165 124.245 113.177 125.235 112.247 126.278C111.646 126.964 111.115 127.708 110.663 128.5L110.524 128.745L110.492 128.468C110.334 126.999 110.601 125.517 111.261 124.196C111.807 123.076 112.618 122.107 113.624 121.373L113.692 121.494C112.985 121.757 112.336 122.157 111.784 122.672C111.367 123.058 111.008 123.502 110.716 123.989C110.531 124.3 110.371 124.625 110.239 124.961C110.201 125.082 110.156 125.201 110.104 125.317C110.1 125.286 110.1 125.255 110.104 125.225C110.121 125.16 110.143 125.068 110.182 124.95C110.299 124.603 110.451 124.268 110.634 123.95C110.923 123.448 111.282 122.99 111.702 122.59C112.261 122.06 112.919 121.645 113.639 121.369L114.116 121.188L113.703 121.49C112.732 122.222 111.951 123.177 111.428 124.274C110.794 125.568 110.539 127.014 110.691 128.446L110.52 128.411C110.979 127.609 111.516 126.854 112.122 126.157C113.058 125.109 114.052 124.115 115.102 123.181L115.226 123.309C114.115 124.459 113.291 125.854 112.82 127.382C112.438 128.59 112.276 129.858 112.343 131.123C112.384 131.958 112.526 132.784 112.766 133.583C112.845 133.865 112.937 134.071 112.98 134.217C113.003 134.291 113.02 134.366 113.033 134.441Z" fill="#263238"/>
<path d="M70.7942 134.064C72.1925 135.616 74.0325 136.701 76.0665 137.175C76.1771 137.22 76.2973 137.234 76.4152 137.218C76.5332 137.202 76.6449 137.155 76.7394 137.083C76.9459 136.855 76.775 136.496 76.6041 136.243L74.3435 132.903C75.9528 134.175 77.8611 135.014 79.8864 135.339C80.2246 135.392 80.6411 135.392 80.812 135.1C80.8608 134.972 80.8788 134.834 80.8646 134.697C80.8503 134.56 80.8043 134.429 80.7302 134.313C80.3742 133.551 80.0181 132.8 79.5981 132.067" fill="#106FA4"/>
<path d="M79.5979 132.053C79.6414 132.108 79.6785 132.167 79.7083 132.231L79.9931 132.765C80.1212 133.003 80.2672 133.288 80.4381 133.612C80.5283 133.778 80.6208 133.956 80.7158 134.146C80.8343 134.346 80.9106 134.567 80.94 134.797C80.9499 134.935 80.9094 135.072 80.8261 135.182C80.7346 135.291 80.6093 135.366 80.4701 135.396C80.195 135.438 79.9142 135.424 79.6442 135.356C79.0559 135.255 78.4762 135.109 77.9105 134.919C76.5998 134.481 75.3749 133.82 74.29 132.964L74.4252 132.839L74.8169 133.42L76.0771 135.285L76.6787 136.172C76.7855 136.324 76.8639 136.494 76.9101 136.674C76.9373 136.773 76.9323 136.878 76.8958 136.974C76.8593 137.07 76.7933 137.152 76.7072 137.208C76.5399 137.292 76.3473 137.312 76.1661 137.265C75.9988 137.236 75.8492 137.186 75.6926 137.151C75.3829 137.062 75.0874 136.969 74.8097 136.862C74.2901 136.667 73.7876 136.429 73.3074 136.15C72.6112 135.75 71.9667 135.266 71.3886 134.708C71.1856 134.509 71.0326 134.352 70.94 134.235C70.8863 134.18 70.8386 134.119 70.7976 134.053C70.86 134.098 70.9173 134.149 70.9685 134.207C71.0717 134.313 71.2284 134.466 71.4384 134.655C72.0291 135.186 72.6775 135.65 73.3715 136.036C73.8496 136.304 74.3484 136.532 74.8631 136.72C75.1408 136.823 75.4327 136.912 75.7353 136.998C76.0379 137.083 76.3761 137.2 76.6182 137.065C76.6746 137.027 76.7171 136.972 76.7389 136.908C76.7608 136.843 76.7609 136.774 76.7392 136.709C76.6973 136.552 76.626 136.405 76.5292 136.275C76.3334 135.987 76.134 135.691 75.9276 135.392C75.5194 134.787 75.0981 134.165 74.6638 133.527L74.2722 132.946L73.9162 132.448L74.4039 132.818C75.9392 134.033 77.7478 134.854 79.6727 135.21C79.9233 135.277 80.1845 135.294 80.4417 135.26C80.5502 135.246 80.6492 135.191 80.7187 135.106C80.7881 135.022 80.8227 134.914 80.8154 134.805C80.7908 134.589 80.723 134.381 80.6161 134.192C80.5235 134.004 80.4345 133.836 80.3527 133.655L79.9361 132.797L79.6798 132.249C79.6438 132.187 79.6162 132.121 79.5979 132.053Z" fill="#263238"/>
<g opacity="0.3">
<path d="M79.5766 111.914C80.3634 113.242 81.515 114.315 82.8945 115.007C82.8157 114.276 82.5122 113.587 82.0258 113.035C83.5281 114.466 85.3081 115.574 87.2555 116.289C86.4263 116.658 85.5212 116.825 84.6148 116.776C83.7084 116.727 82.8267 116.463 82.0423 116.006C81.2579 115.549 80.5934 114.913 80.1034 114.148C79.6134 113.384 79.312 112.515 79.2241 111.611" fill="black"/>
</g>
<g opacity="0.3">
<path d="M70.05 88.7132C72.8767 94.1493 82.0188 96.8336 89.1886 96.9511C91.4029 96.9831 94.5286 98.6207 96.7216 98.4071C101.645 97.9336 105.643 95.2814 110.577 94.8471C113.649 94.5872 116.739 94.4911 119.776 93.9749C122.813 93.4587 122.674 93.0992 125.088 91.1803C127.501 89.2615 130.111 87.3604 130.072 84.2775C125.536 89.8311 121.054 91.5505 114.073 93.1775C107.092 94.8044 99.833 94.7688 92.6739 94.4377C84.7956 94.0817 76.5257 93.2131 70.05 88.7097" fill="black"/>
</g>
<path d="M94.372 47.0186C94.4041 47.0186 94.4325 47.4208 94.5393 48.0581C94.6804 48.8874 94.9071 49.6999 95.2157 50.4824C95.5315 51.2635 95.9264 52.0102 96.3941 52.711C96.6071 52.9901 96.8056 53.28 96.9886 53.5796C96.9886 53.5796 96.9067 53.5191 96.7821 53.3838C96.6048 53.195 96.4396 52.9953 96.2873 52.7858C95.7808 52.097 95.3634 51.347 95.0449 50.5536C94.7256 49.7542 94.5126 48.9164 94.4112 48.0616C94.3777 47.8054 94.3587 47.5475 94.3542 47.2891C94.3471 47.1985 94.3531 47.1074 94.372 47.0186Z" fill="#106FA4"/>
<path d="M96.6968 46.1321C96.7288 46.1321 96.5864 46.4881 96.4476 47.0827C96.272 47.8503 96.2132 48.64 96.2731 49.4251C96.3374 50.2091 96.521 50.9786 96.8178 51.7071C97.0457 52.2696 97.2415 52.5935 97.213 52.6078C97.1845 52.622 97.1453 52.5401 97.0492 52.3977C96.9153 52.1942 96.7964 51.9812 96.6932 51.7605C96.01 50.2856 95.8774 48.6148 96.3194 47.0506C96.3829 46.8166 96.465 46.588 96.5651 46.3671C96.6398 46.1962 96.6861 46.1108 96.6968 46.1321Z" fill="#106FA4"/>
<path d="M53.126 105.299C53.1683 105.248 53.216 105.201 53.2684 105.16C53.3645 105.075 53.5033 104.94 53.6991 104.804C54.2462 104.37 54.8244 103.976 55.4293 103.626C57.4386 102.487 59.6254 101.696 61.8978 101.284C64.1635 100.871 66.4589 100.643 68.7615 100.6C69.6444 100.579 70.3564 100.572 70.8477 100.572H71.4173C71.4836 100.566 71.5503 100.566 71.6166 100.572C71.5514 100.588 71.4845 100.596 71.4173 100.597L70.8512 100.625L68.7651 100.714C66.4737 100.787 64.1906 101.025 61.9334 101.426C59.6801 101.838 57.5064 102.604 55.4934 103.697C54.889 104.037 54.3053 104.413 53.7454 104.822C53.3503 105.139 53.1367 105.31 53.126 105.299Z" fill="#106FA4"/>
<path d="M104.158 47.6771C104.158 47.7091 103.55 47.5062 102.56 47.2641C101.985 47.1226 101.394 47.0521 100.801 47.0541C100.081 47.0591 99.3763 47.2597 98.7615 47.6344C98.4492 47.8288 98.1773 48.0814 97.9605 48.3784C97.7655 48.6594 97.6287 48.9765 97.5582 49.3111C97.4564 49.8912 97.4819 50.4864 97.6329 51.0555C97.8786 52.0381 98.142 52.6219 98.1064 52.6362C98.0256 52.5103 97.9598 52.3752 97.9106 52.2339C97.7491 51.8616 97.6135 51.4786 97.5048 51.0876C97.3311 50.501 97.2922 49.8828 97.3909 49.2791C97.4607 48.9192 97.6036 48.5775 97.8109 48.2752C98.0403 47.9559 98.3292 47.6839 98.6618 47.4742C99.3057 47.0841 100.045 46.8795 100.798 46.8832C101.4 46.8891 101.998 46.9753 102.578 47.1395C103.073 47.2713 103.464 47.4065 103.735 47.4955C103.882 47.5417 104.024 47.6025 104.158 47.6771Z" fill="#106FA4"/>
<path d="M157.569 136.891C157.185 134.335 155.931 131.818 153.792 130.362C151.652 128.906 148.573 128.735 146.537 130.333L138.085 141.761L156.077 141.836C157.081 140.906 157.772 138.244 157.569 136.891Z" fill="#106FA4"/>
<g opacity="0.3">
<path d="M145.604 141.597C147.124 140.963 148.245 139.6 148.936 138.105C149.627 136.61 149.929 134.972 150.232 133.352C150.481 132.01 150.716 130.561 150.132 129.322C149.993 129.315 149.854 129.344 149.729 129.406C149.604 129.468 149.498 129.562 149.42 129.678C149.264 129.914 149.15 130.176 149.082 130.451C147.69 134.844 145.543 138.639 142.037 141.611" fill="black"/>
</g>
<g opacity="0.3">
<path d="M92.1612 52.3301C93.9412 57.46 94.1655 63.0101 93.9732 68.4177C93.8771 71.1162 93.6742 73.8432 92.8305 76.4099C91.9867 78.9767 90.4381 81.3939 88.1384 82.8179C85.9668 84.16 83.2825 84.5125 80.7478 84.1778C78.2131 83.8432 75.8065 82.8713 73.5246 81.725C70.9187 80.4149 68.4089 78.8485 66.3868 76.741C64.3647 74.6335 62.7057 71.6894 62.3711 68.7951L66.1233 69.2045C66.1233 69.2045 69.0105 68.8983 73.4997 64.5551C78.4053 59.8132 79.2989 59.2329 82.9728 56.7623C85.8221 54.878 88.9129 53.3872 92.1612 52.3301Z" fill="white"/>
</g>
<g opacity="0.3">
<path d="M107.669 83.95C108.378 83.5498 109.199 83.3927 110.007 83.5026C110.814 83.6125 111.563 83.9834 112.14 84.5587C112.711 83.8122 113.484 83.2447 114.367 82.923C115.25 82.6013 116.207 82.5389 117.124 82.7431C116.012 83.1806 114.976 83.7923 114.055 84.5552C113.176 85.3633 112.542 86.5238 112.653 87.7129C111.553 86.528 110.288 85.5077 108.897 84.6833C108.32 84.3273 107.562 84.039 107.021 84.4377" fill="black"/>
</g>
<path d="M119.929 124.057C117.863 125.54 116.339 127.66 115.593 130.092C114.846 132.524 114.918 135.133 115.796 137.521" fill="#106FA4"/>
<path d="M115.796 137.521C115.767 137.478 115.744 137.431 115.729 137.382C115.693 137.286 115.632 137.151 115.572 136.965C115.398 136.451 115.266 135.924 115.177 135.388C114.866 133.612 114.98 131.788 115.509 130.064C116.038 128.34 116.967 126.766 118.221 125.47C118.595 125.082 119.001 124.724 119.434 124.402C119.584 124.285 119.712 124.203 119.79 124.146C119.869 124.089 119.922 124.064 119.926 124.071C119.782 124.208 119.631 124.338 119.474 124.459C119.064 124.806 118.676 125.178 118.313 125.573C117.101 126.874 116.201 128.433 115.679 130.133C115.157 131.832 115.028 133.628 115.301 135.385C115.381 135.916 115.494 136.442 115.64 136.958C115.704 137.142 115.757 137.33 115.796 137.521Z" fill="#263238"/>
<path d="M127.01 111.732C128.466 110.614 130.346 109.44 131.994 110.226C132.451 110.477 132.842 110.831 133.137 111.26C133.432 111.689 133.622 112.181 133.692 112.697C133.82 113.73 133.755 114.778 133.5 115.787C132.305 121.676 129.707 127.189 125.928 131.86C124.557 133.555 122.606 135.271 120.478 134.805C118.491 134.367 117.363 132.095 117.48 130.063C117.598 128.03 118.623 126.182 119.573 124.367C121.83 120.095 124.023 115.41 126.999 111.718" fill="#106FA4"/>
<path d="M127.01 111.732C126.982 111.779 126.951 111.824 126.918 111.867L126.633 112.248C126.38 112.583 126.014 113.085 125.565 113.743C124.324 115.621 123.188 117.565 122.162 119.568L120.026 123.711C119.271 125.207 118.32 126.752 117.826 128.56C117.56 129.478 117.51 130.446 117.68 131.387C117.859 132.366 118.344 133.263 119.064 133.95C119.438 134.287 119.886 134.53 120.371 134.662C120.868 134.791 121.388 134.804 121.891 134.701C122.921 134.436 123.86 133.898 124.611 133.145C125.379 132.402 126.079 131.59 126.701 130.721C127.341 129.881 127.918 129.012 128.481 128.151C130.474 124.967 131.983 121.505 132.956 117.877C133.169 117.07 133.352 116.284 133.504 115.52C133.665 114.796 133.738 114.054 133.721 113.313C133.678 111.914 132.945 110.643 131.902 110.219C131.422 110.016 130.895 109.953 130.382 110.037C129.949 110.11 129.527 110.241 129.129 110.425C128.577 110.687 128.049 110.997 127.551 111.351L127.16 111.629C127.074 111.689 127.025 111.718 127.025 111.718L127.149 111.615C127.235 111.543 127.359 111.447 127.53 111.323C128.02 110.952 128.545 110.63 129.097 110.361C129.499 110.165 129.927 110.027 130.367 109.952C130.939 109.847 131.529 109.924 132.053 110.173C132.578 110.423 133.011 110.831 133.29 111.34C133.634 111.94 133.826 112.615 133.849 113.306C133.873 114.057 133.805 114.809 133.646 115.545C133.493 116.314 133.315 117.104 133.105 117.916C132.139 121.561 130.633 125.041 128.637 128.24C128.082 129.108 127.502 129.977 126.857 130.824C126.229 131.704 125.522 132.525 124.746 133.277C123.971 134.053 123.001 134.606 121.937 134.876C121.407 134.983 120.859 134.967 120.335 134.829C119.821 134.687 119.347 134.425 118.954 134.064C118.208 133.35 117.71 132.417 117.53 131.401C117.355 130.434 117.407 129.439 117.683 128.496C118.192 126.652 119.153 125.107 119.908 123.619C120.663 122.131 121.41 120.749 122.073 119.486C123.111 117.485 124.266 115.547 125.533 113.683C125.989 113.028 126.366 112.533 126.626 112.205L126.928 111.849C126.954 111.809 126.981 111.77 127.01 111.732Z" fill="#263238"/>
<g opacity="0.3">
<path d="M127.188 116.809V116.827C127.544 115.823 128.302 115.534 129.118 115.239C129.933 114.943 130.919 114.975 131.574 115.545C132.329 116.2 132.425 117.353 132.222 118.332C132.174 118.678 132.032 119.005 131.813 119.276C131.699 119.408 131.546 119.5 131.376 119.539C131.207 119.578 131.029 119.562 130.869 119.493C130.513 119.297 130.403 118.781 130.025 118.624C129.648 118.468 129.15 118.82 128.694 118.934C128.382 118.994 128.059 118.945 127.78 118.795C127.5 118.644 127.281 118.402 127.16 118.108C127.078 117.901 127.038 117.679 127.043 117.456C127.048 117.233 127.097 117.013 127.188 116.809Z" fill="black"/>
</g>
<g opacity="0.3">
<path d="M128.74 111.796C128.923 111.878 129.076 112.015 129.176 112.188C129.276 112.361 129.32 112.562 129.299 112.761C129.282 113.208 129.184 113.648 129.011 114.06C128.886 114.416 128.676 114.812 128.299 114.826C128.193 114.823 128.09 114.793 127.999 114.739C127.908 114.684 127.832 114.608 127.779 114.516C127.677 114.33 127.62 114.123 127.612 113.911C127.576 113.426 127.652 112.939 127.833 112.487C127.91 112.251 128.057 112.044 128.253 111.892C128.352 111.818 128.472 111.777 128.596 111.777C128.72 111.777 128.841 111.818 128.94 111.892" fill="black"/>
</g>
<g opacity="0.3">
<path d="M133.005 112.672C133.188 112.753 133.34 112.891 133.441 113.064C133.541 113.237 133.584 113.438 133.564 113.637C133.546 114.084 133.448 114.524 133.276 114.936C133.151 115.292 132.937 115.687 132.564 115.702C132.458 115.699 132.354 115.669 132.263 115.615C132.172 115.561 132.096 115.484 132.044 115.392C131.938 115.207 131.881 114.999 131.877 114.787C131.842 114.302 131.916 113.815 132.094 113.363C132.173 113.127 132.32 112.92 132.517 112.768C132.616 112.693 132.737 112.652 132.861 112.652C132.985 112.652 133.106 112.693 133.204 112.768" fill="black"/>
</g>
<g opacity="0.3">
<path d="M131.204 111.042C131.386 111.125 131.538 111.263 131.638 111.436C131.738 111.61 131.782 111.81 131.763 112.01C131.743 112.455 131.646 112.894 131.474 113.306C131.346 113.662 131.136 114.06 130.762 114.071C130.656 114.069 130.553 114.039 130.462 113.984C130.371 113.93 130.295 113.853 130.243 113.761C130.14 113.577 130.084 113.371 130.079 113.16C130.04 112.675 130.115 112.187 130.296 111.736C130.373 111.499 130.521 111.292 130.72 111.141C130.818 111.067 130.938 111.026 131.061 111.026C131.185 111.026 131.305 111.067 131.403 111.141" fill="black"/>
</g>
<g opacity="0.3">
<path d="M129.822 125.595C129.538 127.749 128.952 129.852 128.082 131.843C127.204 133.841 125.861 135.601 124.166 136.976C123.382 137.588 122.464 138.115 121.471 138.14C120.064 138.176 118.783 137.168 118.149 135.912C117.516 134.655 117.437 133.195 117.501 131.793C118.181 132.928 118.947 134.139 120.178 134.641C120.723 134.823 121.3 134.886 121.871 134.825C122.442 134.763 122.993 134.579 123.486 134.285C124.468 133.69 125.327 132.911 126.017 131.992C127.542 130.13 128.796 128.061 129.741 125.848" fill="black"/>
</g>
<path d="M50.0891 112.017C48.3376 111.479 46.1731 111.034 44.8844 112.352C44.5467 112.748 44.3065 113.218 44.1828 113.723C44.0592 114.229 44.0556 114.756 44.1724 115.264C44.413 116.277 44.8404 117.237 45.4327 118.094C48.6149 123.191 52.9763 127.447 58.149 130.504C60.0251 131.608 62.453 132.533 64.2829 131.348C65.9952 130.244 66.2515 127.72 65.4327 125.858C64.6139 123.996 63.0119 122.612 61.4776 121.248C57.8677 118.044 54.1725 114.42 50.0856 111.992" fill="#106FA4"/>
<path d="M50.0892 112.017C50.0892 112.017 50.139 112.038 50.2351 112.092L50.6445 112.334C51.0005 112.551 51.531 112.882 52.1896 113.334C54.0285 114.638 55.789 116.049 57.4619 117.56L60.94 120.671C62.1682 121.8 63.61 122.911 64.7314 124.459C65.3213 125.246 65.7198 126.159 65.8956 127.126C66.0783 128.143 65.935 129.192 65.4862 130.123C65.2425 130.597 64.8914 131.008 64.4609 131.323C64.0184 131.637 63.509 131.844 62.9728 131.928C61.8781 132.051 60.7705 131.874 59.7688 131.416C58.7753 130.982 57.8222 130.462 56.9208 129.86C56.0237 129.29 55.1728 128.678 54.3505 128.062C52.79 126.856 51.326 125.53 49.9717 124.096C48.7397 122.798 47.6024 121.413 46.5683 119.952C46.0877 119.265 45.6427 118.585 45.2333 117.92C44.8254 117.287 44.4966 116.607 44.2543 115.894C44.034 115.239 43.9778 114.54 44.0906 113.858C44.1736 113.283 44.4357 112.749 44.8396 112.331C45.2435 111.914 45.7687 111.635 46.3405 111.533C46.7805 111.451 47.2296 111.43 47.6755 111.469C48.287 111.53 48.8914 111.649 49.4804 111.825C49.6833 111.882 49.8364 111.928 49.9361 111.964L50.0892 112.021L49.9325 111.981L49.4697 111.86C48.8794 111.703 48.2768 111.597 47.6684 111.544C47.2301 111.511 46.7896 111.538 46.3583 111.622C45.8466 111.725 45.375 111.972 44.9984 112.334C44.1689 113.099 43.9304 114.545 44.3789 115.869C44.6225 116.569 44.9501 117.238 45.3544 117.859C45.7673 118.521 46.2135 119.194 46.6929 119.878C48.8763 122.934 51.5028 125.648 54.4858 127.93C55.3046 128.546 56.1518 129.155 57.0454 129.71C57.9333 130.307 58.8734 130.821 59.8542 131.248C60.8198 131.692 61.8875 131.867 62.9443 131.754C63.457 131.676 63.9445 131.479 64.3683 131.181C64.7768 130.884 65.1088 130.495 65.3366 130.045C65.7707 129.15 65.9103 128.14 65.7354 127.161C65.5667 126.22 65.1803 125.331 64.6068 124.566C63.5104 123.042 62.0792 121.928 60.851 120.792L57.3907 117.663C55.7279 116.144 53.982 114.717 52.1611 113.391C51.5132 112.928 50.9934 112.59 50.641 112.362L50.2387 112.106L50.0892 112.017Z" fill="#263238"/>
<g opacity="0.3">
<path d="M51.7054 116.83C51.0183 116.015 50.2102 116.008 49.3416 116.018C48.4729 116.029 47.5616 116.407 47.1486 117.165C46.6716 118.048 46.9848 119.158 47.5046 120.013C47.6679 120.321 47.9147 120.576 48.2166 120.75C48.3684 120.835 48.5435 120.869 48.7161 120.846C48.8886 120.824 49.0493 120.746 49.1742 120.625C49.4412 120.315 49.3665 119.799 49.6584 119.514C49.9503 119.23 50.552 119.39 51.0148 119.34C51.3278 119.287 51.613 119.128 51.8224 118.889C52.0319 118.651 52.1527 118.347 52.1646 118.03C52.1742 117.585 52.0093 117.155 51.7054 116.83Z" fill="black"/>
</g>
<g opacity="0.3">
<path d="M48.4908 112.679C48.3481 112.82 48.2534 113.003 48.2202 113.201C48.187 113.399 48.2169 113.603 48.3056 113.783C48.4753 114.193 48.7163 114.571 49.0176 114.897C49.2562 115.178 49.5979 115.484 49.9468 115.367C50.0451 115.327 50.1316 115.263 50.1977 115.18C50.2638 115.097 50.3074 114.998 50.3242 114.893C50.3562 114.684 50.3379 114.471 50.2708 114.27C50.1313 113.802 49.8879 113.371 49.5588 113.01C49.4032 112.815 49.1921 112.673 48.9535 112.601C48.8343 112.568 48.7076 112.575 48.5926 112.621C48.4777 112.666 48.3807 112.748 48.3163 112.854" fill="black"/>
</g>
<g opacity="0.3">
<path d="M44.8063 114.997C44.6639 115.138 44.5694 115.319 44.5362 115.517C44.503 115.714 44.5327 115.917 44.6211 116.097C44.7906 116.507 45.0316 116.885 45.3331 117.211C45.5752 117.492 45.9134 117.798 46.2659 117.681C46.3638 117.641 46.4499 117.576 46.5159 117.493C46.582 117.41 46.6258 117.312 46.6432 117.208C46.6741 116.998 46.6546 116.785 46.5863 116.585C46.4482 116.116 46.2046 115.685 45.8743 115.324C45.7187 115.13 45.5077 114.987 45.2691 114.915C45.1498 114.882 45.0231 114.889 44.9082 114.935C44.7932 114.98 44.6962 115.062 44.6318 115.168" fill="black"/>
</g>
<g opacity="0.3">
<path d="M45.9239 112.839C45.7816 112.98 45.6871 113.162 45.6539 113.36C45.6206 113.557 45.6504 113.76 45.7388 113.939C45.9082 114.35 46.1493 114.727 46.4508 115.054C46.6929 115.335 47.0311 115.641 47.3835 115.524C47.4817 115.484 47.5679 115.419 47.634 115.336C47.7001 115.253 47.7438 115.155 47.7609 115.05C47.7918 114.841 47.7723 114.627 47.7039 114.427C47.5658 113.958 47.3223 113.527 46.9919 113.167C46.8364 112.972 46.6253 112.829 46.3867 112.758C46.2675 112.725 46.1408 112.732 46.0258 112.777C45.9109 112.823 45.8139 112.905 45.7495 113.01" fill="black"/>
</g>
<g opacity="0.3">
<path d="M52.332 125.983C53.3492 127.897 54.6303 129.659 56.1377 131.216C57.6531 132.784 59.522 133.965 61.588 134.662C62.535 134.965 63.5781 135.136 64.5179 134.812C65.8493 134.352 66.6931 132.961 66.8462 131.561C66.9992 130.162 66.572 128.763 66.0096 127.475C65.771 128.778 65.4791 130.18 64.4966 131.07C64.0544 131.432 63.539 131.694 62.9859 131.838C62.4328 131.982 61.8551 132.004 61.2926 131.903C60.1635 131.691 59.0855 131.264 58.117 130.647C56.0378 129.435 54.1395 127.937 52.478 126.197" fill="black"/>
</g>
<g opacity="0.3">
<path d="M51.0078 124.05C50.9045 124.192 50.8013 124.338 50.7016 124.484C51.1413 123.775 51.7201 123.162 52.4032 122.683C53.0863 122.204 53.8594 121.868 54.6759 121.696C55.4924 121.524 56.3353 121.52 57.1536 121.683C57.9719 121.845 58.7487 122.173 59.4371 122.644C60.1254 123.116 60.7111 123.722 61.1585 124.426C61.606 125.131 61.906 125.918 62.0405 126.742C62.175 127.565 62.1412 128.407 61.941 129.217C61.7409 130.027 61.3786 130.789 60.8761 131.455C56.8738 129.818 53.2507 127.377 50.2317 124.281" fill="white"/>
</g>
<path d="M151.513 120.536C151.516 120.616 151.51 120.696 151.496 120.775C151.471 120.953 151.439 121.177 151.403 121.458C151.321 122.053 151.182 122.907 150.986 123.95C150.502 126.705 149.773 129.41 148.808 132.035C148.253 133.475 147.583 134.868 146.803 136.2C146.622 136.506 146.426 136.791 146.248 137.076L145.978 137.492L145.689 137.88L145.141 138.61C144.952 138.835 144.764 139.045 144.586 139.244C144.408 139.443 144.247 139.646 144.069 139.81L143.578 140.283L143.147 140.693L142.756 141.003L142.211 141.43C142.151 141.483 142.084 141.529 142.012 141.565C142.066 141.505 142.124 141.449 142.186 141.398L142.709 140.949L143.087 140.629L143.503 140.209L143.984 139.732C144.158 139.564 144.311 139.358 144.486 139.158L145.027 138.521L145.565 137.788L145.846 137.403C145.935 137.268 146.02 137.129 146.109 136.987C146.287 136.702 146.465 136.417 146.658 136.115C147.416 134.785 148.071 133.4 148.619 131.971C149.584 129.359 150.333 126.673 150.858 123.939C151.068 122.893 151.214 122.042 151.332 121.447C151.382 121.17 151.424 120.946 151.456 120.771C151.469 120.691 151.488 120.613 151.513 120.536Z" fill="#263238"/>
<path d="M69.6123 98.9411C69.6589 98.877 69.714 98.8195 69.7761 98.7702L70.2709 98.3074C70.4881 98.1045 70.7551 97.8624 71.0755 97.5954C71.3959 97.3284 71.7519 97.0045 72.1648 96.677C72.9801 96.0041 73.9804 95.253 75.1232 94.4342C76.2659 93.6154 77.5582 92.8001 78.9537 91.9884C80.3493 91.1768 81.7199 90.479 82.9801 89.8809C84.2403 89.2828 85.408 88.8129 86.3977 88.432C86.889 88.2362 87.3411 88.076 87.7363 87.9407C88.1314 87.8054 88.4767 87.688 88.758 87.6025L89.4095 87.4032C89.4831 87.3758 89.5595 87.3567 89.6373 87.3462C89.5675 87.3828 89.4949 87.4138 89.4201 87.4388L88.7793 87.6702C88.5017 87.7663 88.1635 87.8873 87.7719 88.0262C87.3803 88.165 86.9317 88.3359 86.444 88.5388C85.465 88.9268 84.308 89.4288 83.0549 90.0233C81.8017 90.6178 80.4561 91.3441 79.0321 92.1415C77.6081 92.939 76.3549 93.7791 75.2051 94.5694C74.0552 95.3598 73.0691 96.1145 72.2325 96.7731C71.8159 97.0935 71.4528 97.4032 71.1289 97.6702C70.8049 97.9372 70.5272 98.165 70.3065 98.3608L69.7867 98.7987C69.7343 98.8528 69.6758 98.9006 69.6123 98.9411Z" fill="#263238"/>
<path d="M59.5908 92.9959C59.5908 92.9959 59.6122 92.9781 59.6549 92.946L59.8543 92.8107L60.6375 92.3123C60.9757 92.0952 61.3922 91.8353 61.8906 91.5541C62.389 91.2728 62.9586 90.9311 63.5851 90.6036L64.5819 90.0731C64.9379 89.8915 65.2939 89.7171 65.682 89.532C66.4367 89.1511 67.2697 88.7951 68.1384 88.407C69.8935 87.6665 71.8515 86.9261 73.9519 86.271C76.0523 85.616 78.0921 85.1425 79.9611 84.7723C80.8974 84.6049 81.7874 84.4341 82.6276 84.3237C83.0441 84.2667 83.4499 84.1991 83.838 84.1564L84.9629 84.0318C85.6749 83.9463 86.3264 83.9107 86.896 83.868C87.4656 83.8253 87.964 83.8004 88.3627 83.7897L89.2883 83.7648H89.5269C89.5551 83.7594 89.5841 83.7594 89.6123 83.7648H89.5304L89.2883 83.7861L88.3663 83.8467C87.964 83.868 87.4727 83.8965 86.9067 83.9535C86.3407 84.0104 85.6892 84.0496 84.9772 84.1457L83.8558 84.281C83.4677 84.3273 83.0655 84.3985 82.6489 84.459C81.8123 84.5729 80.9259 84.7509 79.9932 84.9218C78.1349 85.3027 76.1021 85.794 74.0053 86.4312C71.9084 87.0685 69.9575 87.8125 68.206 88.5423C67.3374 88.9232 66.5043 89.2757 65.7496 89.6495C65.3687 89.8346 64.9949 90.0055 64.646 90.1799L63.6457 90.6997C63.0049 91.0201 62.4424 91.3476 61.944 91.6217C61.4456 91.8958 61.0184 92.145 60.6731 92.3515L59.8756 92.8214L59.6656 92.9389C59.6193 92.9887 59.5908 92.9994 59.5908 92.9959Z" fill="#263238"/>
<path d="M102.015 81.2622C102.037 81.3156 101.118 81.7036 100.104 82.3836C99.0891 83.0636 98.3736 83.7578 98.3237 83.7151C99.2961 82.568 100.572 81.7179 102.005 81.2622H102.015Z" fill="#263238"/>
<path d="M108.039 83.1952C108.039 83.2308 107.512 82.9923 106.64 82.7716C105.503 82.4748 104.326 82.3665 103.155 82.4511C101.983 82.5001 100.836 82.8051 99.794 83.3447C99.3793 83.5943 99.0225 83.9292 98.7473 84.3273C98.7836 84.1977 98.8454 84.0767 98.9289 83.9713C99.145 83.6758 99.4157 83.4245 99.7263 83.2308C100.502 82.7217 101.752 82.3693 103.14 82.2625C104.332 82.1762 105.529 82.304 106.675 82.6398C107.021 82.7364 107.36 82.8553 107.69 82.9958C107.813 83.0494 107.93 83.1163 108.039 83.1952Z" fill="#263238"/>
<path d="M96.3408 86.1643L96.7573 87.1611C96.8804 87.419 96.9644 87.6938 97.0065 87.9764C97.0266 88.1184 97.016 88.263 96.9755 88.4006C96.935 88.5381 96.8654 88.6654 96.7716 88.7738C96.6113 88.9092 96.411 88.9884 96.2015 88.9993C95.9919 89.0103 95.7846 88.9523 95.611 88.8343C95.2738 88.5846 95.0245 88.2344 94.899 87.834C94.7495 87.4424 94.6498 87.0294 94.4683 86.6521C94.6991 86.4415 94.8732 86.1763 94.9746 85.8808C95.0761 85.5853 95.1015 85.269 95.0485 84.9611C95.0485 84.9611 95.4081 86.1003 96.3408 86.1643Z" fill="#F5F5F5"/>
<path d="M90.5273 82.5331C90.8427 81.8981 91.287 81.3358 91.8319 80.8822C92.3769 80.4285 93.0105 80.0936 93.6922 79.8987C95.9635 79.3006 98.3202 81.6787 98.3202 81.6787C98.3202 81.6787 95.5754 80.8706 95.6146 82.2341C95.6537 83.5976 96.4619 83.5655 95.5505 84.4626C94.6391 85.3598 93.0763 84.4164 92.7025 83.359L91.9691 82.3266L90.5273 82.5331Z" fill="#263238"/>
<path d="M99.9329 83.868C99.9329 83.868 99.9329 83.9143 99.9507 83.9962C99.9627 84.1205 99.9627 84.2457 99.9507 84.37C99.8855 84.8262 99.7013 85.2572 99.4167 85.6196C99.2089 85.8947 98.9475 86.1248 98.6483 86.2961C98.3491 86.4675 98.0183 86.5764 97.6758 86.6164C97.253 86.6486 96.8286 86.5806 96.437 86.4179C96.0455 86.2552 95.6978 86.0024 95.4224 85.6801C95.1496 85.3669 94.9576 84.9917 94.8634 84.5872L95.0379 84.5373C95.145 84.8724 95.174 85.2275 95.1228 85.5755C95.0716 85.9235 94.9415 86.2552 94.7424 86.5452C94.4731 86.9223 94.0921 87.2053 93.6532 87.3542C93.2144 87.503 92.7398 87.5102 92.2967 87.3746C92.2033 87.3463 92.1127 87.3094 92.0261 87.2643C91.9692 87.2322 91.9407 87.2144 91.9407 87.2073C91.9407 87.2002 92.0724 87.2572 92.3145 87.3141C92.6566 87.3922 93.0119 87.3922 93.354 87.3141C93.8668 87.1985 94.3163 86.8917 94.6107 86.4562C94.7904 86.1849 94.9067 85.8767 94.9511 85.5544C94.9954 85.2321 94.9667 84.904 94.867 84.5943L95.0414 84.548C95.1322 84.9221 95.3117 85.2689 95.5648 85.559C95.8213 85.8598 96.1443 86.0968 96.5082 86.2513C96.8721 86.4058 97.267 86.4735 97.6616 86.449C97.984 86.4139 98.2963 86.3153 98.5804 86.1589C98.8646 86.0025 99.1149 85.7914 99.317 85.5377C99.5996 85.1965 99.7929 84.7903 99.8795 84.3558C99.9257 84.0567 99.9151 83.868 99.9329 83.868Z" fill="#263238"/>
<path d="M95.5326 80.2333C95.297 80.2686 95.0584 80.2793 94.8206 80.2653C94.2447 80.2592 93.6708 80.3335 93.1154 80.486C92.5668 80.6461 92.0689 80.9453 91.67 81.3547C91.3745 81.6786 91.2677 81.9385 91.2393 81.9278C91.2861 81.681 91.4021 81.4526 91.5739 81.2692C91.9622 80.8067 92.4807 80.4718 93.062 80.308C93.635 80.1492 94.2311 80.0902 94.8242 80.1336C95.0641 80.1298 95.3031 80.1634 95.5326 80.2333Z" fill="white"/>
<path d="M96.2162 89.0799C95.8728 88.5027 95.6139 87.8793 95.4472 87.2287C95.2248 86.5956 95.0953 85.9337 95.0627 85.2635C95.1161 85.2635 95.3048 86.1251 95.6252 87.1753C95.9456 88.2255 96.266 89.0585 96.2162 89.0799Z" fill="#263238"/>
<path d="M70.8689 93.0707C70.9122 93.0246 70.9599 92.9829 71.0113 92.9461L71.4421 92.6115C71.7981 92.3231 72.3783 91.928 73.0868 91.4652C73.7952 91.0024 74.6567 90.4826 75.6429 89.9486C76.629 89.4146 77.7397 88.8806 78.9359 88.3929C80.132 87.9052 81.2961 87.5064 82.3677 87.1825C83.4393 86.8585 84.4218 86.6236 85.2513 86.4705C86.0808 86.3174 86.7572 86.1857 87.2271 86.1145L87.7682 86.0468C87.8309 86.0397 87.8942 86.0397 87.9569 86.0468C87.8979 86.0723 87.8356 86.089 87.7718 86.0967L87.2378 86.1964C86.7714 86.2747 86.1021 86.41 85.2798 86.5951C84.4574 86.7802 83.4998 87.0294 82.4318 87.3534C81.3638 87.6773 80.2103 88.0867 79.0177 88.5709C77.8251 89.055 76.7251 89.5926 75.7354 90.1088C74.7457 90.625 73.8842 91.1341 73.1687 91.5826C72.4531 92.0312 71.8871 92.4086 71.499 92.6791L71.0469 92.9817C70.9294 93.0458 70.8725 93.0778 70.8689 93.0707Z" fill="#263238"/>
<path d="M88.7074 77.388C89.7357 73.0753 87.073 68.7456 82.7603 67.7173C78.4475 66.6891 74.1178 69.3517 73.0896 73.6645C72.0613 77.9772 74.724 82.3069 79.0367 83.3352C83.3495 84.3634 87.6792 81.7008 88.7074 77.388Z" fill="#F5F5F5"/>
<path d="M88.9325 75.5377C88.9325 79.4109 86.3159 82.5544 84.1015 82.5544C81.8872 82.5544 80.1001 79.4109 80.1001 75.5377C80.1001 71.6644 81.8801 68.5173 84.1158 68.5173C86.3515 68.5173 88.9325 71.6608 88.9325 75.5377Z" fill="#263238"/>
<path d="M85.8815 72.9424C86.6404 72.9424 87.2556 72.3272 87.2556 71.5683C87.2556 70.8093 86.6404 70.1941 85.8815 70.1941C85.1226 70.1941 84.5073 70.8093 84.5073 71.5683C84.5073 72.3272 85.1226 72.9424 85.8815 72.9424Z" fill="white"/>
<path d="M82.3287 80.6356C82.2486 80.5328 82.1816 80.4204 82.1293 80.301C81.9615 79.9859 81.8175 79.6586 81.6985 79.322C81.5139 78.8242 81.3698 78.3123 81.2678 77.7912C81.1468 77.1524 81.0801 76.5046 81.0684 75.8546C81.0662 75.2032 81.1198 74.5529 81.2286 73.9108C81.32 73.3883 81.4533 72.874 81.6273 72.3729C81.7387 72.0343 81.8756 71.7047 82.0367 71.3868C82.0851 71.2602 82.1497 71.1406 82.229 71.0308C82.261 71.0308 82.0154 71.547 81.7519 72.4014C81.599 72.9006 81.4801 73.4097 81.3959 73.925C81.2989 74.5576 81.2513 75.1968 81.2535 75.8368C81.2651 76.4765 81.3258 77.1144 81.4351 77.7449C81.5286 78.2601 81.6583 78.7681 81.8231 79.265C82.1044 80.1266 82.3607 80.6214 82.3287 80.6356Z" fill="white"/>
<path d="M78.8646 65.3133C78.8433 65.5732 78.5442 65.7726 78.1526 65.9577C77.761 66.1428 77.2306 66.3137 76.7073 66.5522C76.1839 66.7907 75.7247 66.9972 75.3331 67.1752C74.9415 67.3532 74.6211 67.46 74.3897 67.3212C74.1583 67.1823 74.1298 66.7943 74.3897 66.2781C74.7408 65.6268 75.3126 65.1219 76.0024 64.8541C76.6629 64.563 77.4004 64.4955 78.1028 64.6618C78.6047 64.7971 78.886 65.0641 78.8646 65.3133Z" fill="#263238"/>
<path d="M40.552 133.708L42.3569 130.881C50.9508 140.323 79.3453 151.551 104.767 126.172C115.686 115.271 114.803 96.8514 114.803 96.8514L112.631 90.0304H114.803C114.803 90.0304 121.097 101.64 114.507 116.841C114.507 116.841 107.743 134.858 87.0349 141.405C54.3684 151.722 40.552 133.708 40.552 133.708Z" fill="#106FA4"/>
<g opacity="0.7">
<path d="M40.552 133.708L42.3569 130.881C50.9508 140.323 79.3453 151.551 104.767 126.172C115.686 115.271 114.803 96.8514 114.803 96.8514L112.631 90.0304H114.803C114.803 90.0304 121.097 101.64 114.507 116.841C114.507 116.841 107.743 134.858 87.0349 141.405C54.3684 151.722 40.552 133.708 40.552 133.708Z" fill="white"/>
</g>
<path d="M40.0651 137.162C46.0919 131.135 46.0919 121.364 40.0651 115.337C34.0383 109.31 24.2669 109.31 18.2401 115.337C12.2133 121.364 12.2133 131.135 18.2401 137.162C24.2669 143.189 34.0383 143.189 40.0651 137.162Z" fill="#106FA4"/>
<g opacity="0.7">
<path d="M40.0651 137.162C46.0919 131.135 46.0919 121.364 40.0651 115.337C34.0383 109.31 24.2669 109.31 18.2401 115.337C12.2133 121.364 12.2133 131.135 18.2401 137.162C24.2669 143.189 34.0383 143.189 40.0651 137.162Z" fill="white"/>
</g>
<path d="M32.8516 111.248C32.8434 111.347 32.8255 111.445 32.7982 111.54C32.7555 111.746 32.6914 112.024 32.6167 112.377C32.574 112.558 32.5277 112.761 32.4778 112.978C32.428 113.195 32.3497 113.43 32.2785 113.69C32.1254 114.196 31.9794 114.78 31.7445 115.403L31.3885 116.385C31.2674 116.741 31.1144 117.072 30.9684 117.435C30.6907 118.165 30.3205 118.916 29.9467 119.71C29.0902 121.415 28.1122 123.055 27.0204 124.619C25.906 126.168 24.6818 127.635 23.3571 129.009C22.727 129.625 22.1432 130.219 21.5451 130.725C21.2532 130.981 20.9755 131.241 20.6942 131.469L19.879 132.12C19.3699 132.548 18.868 132.879 18.455 133.188C18.2378 133.341 18.042 133.487 17.8534 133.612L17.33 133.943L16.618 134.392C16.5369 134.449 16.4497 134.498 16.3582 134.538C16.4338 134.473 16.5135 134.414 16.5967 134.36L17.3087 133.883L17.8213 133.527C18.0064 133.395 18.1987 133.245 18.4123 133.092C18.8324 132.775 19.3272 132.434 19.8363 132.003L20.6408 131.348C20.9221 131.116 21.1926 130.857 21.481 130.597C22.072 130.088 22.6522 129.489 23.261 128.874C24.566 127.504 25.7746 126.046 26.878 124.509C27.9654 122.953 28.9432 121.324 29.8043 119.632C30.1816 118.842 30.5519 118.097 30.8367 117.375C30.9862 117.019 31.1428 116.663 31.2674 116.332C31.392 116.001 31.5095 115.666 31.6234 115.356C31.8655 114.737 32.0222 114.157 32.1824 113.658C32.2571 113.405 32.3354 113.17 32.396 112.946C32.4565 112.722 32.5028 112.53 32.549 112.348C32.6416 111.992 32.7128 111.725 32.7662 111.522C32.7869 111.429 32.8155 111.337 32.8516 111.248Z" fill="#106FA4"/>
<path d="M36.5007 112.822C36.4897 112.926 36.4695 113.03 36.4402 113.131C36.3903 113.348 36.3227 113.64 36.2337 114.011C36.1874 114.203 36.134 114.416 36.077 114.648C36.0201 114.879 35.9382 115.125 35.8563 115.392C35.689 115.922 35.5288 116.542 35.2689 117.193L34.888 118.229C34.7563 118.585 34.5819 118.941 34.4217 119.333C34.1119 120.098 33.7097 120.885 33.2931 121.714C32.3466 123.497 31.2635 125.204 30.0535 126.819C28.8245 128.418 27.4761 129.921 26.0201 131.316C25.3365 131.946 24.6886 132.551 24.0407 133.064C23.7203 133.324 23.4213 133.591 23.1115 133.815L22.2251 134.473C21.6733 134.904 21.1286 135.239 20.6658 135.541C20.203 135.844 19.7936 136.104 19.4554 136.3L18.6722 136.755C18.5833 136.812 18.4905 136.862 18.3945 136.905C18.4764 136.838 18.5633 136.777 18.6544 136.723L19.4163 136.239C19.7509 136.033 20.1567 135.78 20.6089 135.456C21.061 135.132 21.6021 134.794 22.1503 134.36L23.0225 133.708C23.3287 133.48 23.6242 133.21 23.941 132.95C24.5854 132.434 25.2226 131.828 25.9026 131.198C27.3426 129.799 28.6799 128.297 29.904 126.706C31.1071 125.099 32.1877 123.405 33.1365 121.636C33.5566 120.81 33.9624 120.031 34.2793 119.269C34.4395 118.891 34.6353 118.535 34.7492 118.176C34.8631 117.816 35.0162 117.464 35.1408 117.15C35.4078 116.499 35.5751 115.89 35.7531 115.37C35.8385 115.103 35.9275 114.858 35.9916 114.63C36.0557 114.402 36.1091 114.192 36.1589 114C36.2622 113.644 36.3405 113.345 36.401 113.131C36.428 113.026 36.4613 112.923 36.5007 112.822Z" fill="#106FA4"/>
<path d="M39.872 115.595C39.8541 115.699 39.8279 115.801 39.7937 115.901C39.7296 116.118 39.6406 116.407 39.5303 116.777C39.4733 116.965 39.4057 117.175 39.338 117.403C39.2704 117.631 39.1671 117.877 39.071 118.144C38.8717 118.667 38.6687 119.276 38.359 119.924L37.9211 120.946C37.7681 121.302 37.5829 121.658 37.4014 122.035C37.0454 122.79 36.6111 123.566 36.1625 124.388C35.1497 126.146 34.0186 127.832 32.7769 129.436C31.5053 131.023 30.1255 132.521 28.6473 133.918C27.9353 134.548 27.3017 135.153 26.6431 135.67C26.3191 135.93 26.0165 136.193 25.7032 136.424L24.8097 137.087C24.2472 137.517 23.7025 137.856 23.2361 138.155C23.0012 138.308 22.784 138.457 22.5775 138.582L22.0115 138.916L21.2212 139.372C21.1309 139.428 21.0369 139.478 20.9399 139.522C21.0228 139.454 21.1109 139.393 21.2034 139.34L21.9723 138.856L22.5313 138.5C22.7342 138.372 22.9478 138.219 23.1792 138.062C23.6384 137.738 24.176 137.396 24.7313 136.958C25.0161 136.745 25.3116 136.524 25.6178 136.289C25.9239 136.054 26.223 135.791 26.5469 135.527C27.1949 135.011 27.8428 134.402 28.5299 133.776C29.994 132.376 31.3641 130.881 32.631 129.301C33.8775 127.706 35.0168 126.03 36.0415 124.285C36.4936 123.466 36.9386 122.701 37.2946 121.949C37.4761 121.593 37.6506 121.237 37.8215 120.881C37.9923 120.525 38.1241 120.187 38.2665 119.867C38.5655 119.226 38.7755 118.621 38.9785 118.087C39.0817 117.827 39.1778 117.585 39.2597 117.357C39.3416 117.129 39.4057 116.923 39.4697 116.734C39.5943 116.378 39.694 116.086 39.7652 115.873C39.7943 115.778 39.83 115.685 39.872 115.595Z" fill="#106FA4"/>
<path d="M43.9198 130.237C43.7953 130.206 43.6755 130.158 43.5638 130.095C43.3502 129.995 43.0405 129.838 42.6632 129.643C41.9084 129.251 40.8832 128.681 39.7618 128.012C38.6404 127.343 37.6649 126.698 36.9636 126.214C36.6076 125.972 36.3335 125.773 36.1412 125.627C36.0372 125.56 35.9416 125.481 35.8564 125.392C35.9729 125.437 36.0831 125.497 36.184 125.57L37.0348 126.104C37.7468 126.56 38.7472 127.172 39.8579 127.852C40.9686 128.532 41.9939 129.109 42.7272 129.529L43.5994 130.031C43.7158 130.083 43.8237 130.153 43.9198 130.237Z" fill="#106FA4"/>
<path d="M44.5712 126.898C44.2123 126.696 43.8673 126.47 43.5388 126.221C42.9087 125.791 42.033 125.207 41.0468 124.602C40.0607 123.996 39.1316 123.491 38.4623 123.121C38.0919 122.937 37.735 122.728 37.3943 122.494C37.504 122.519 37.6095 122.56 37.7076 122.615C37.9034 122.701 38.181 122.832 38.5228 123.003C39.2063 123.359 40.1426 123.84 41.143 124.445C42.1433 125.05 43.0084 125.655 43.635 126.115C43.9411 126.346 44.1868 126.535 44.347 126.674C44.5072 126.812 44.5819 126.891 44.5712 126.898Z" fill="#106FA4"/>
<path d="M35.0625 140.187C35.0091 140.187 34.8881 137.361 34.792 133.868C34.6958 130.376 34.6567 127.542 34.7065 127.542C34.7563 127.542 34.8774 130.369 34.9771 133.861C35.0768 137.353 35.1123 140.187 35.0625 140.187Z" fill="#106FA4"/>
<path d="M27.4548 141.957C27.3609 140.781 27.3301 139.601 27.3622 138.422C27.33 137.242 27.3609 136.062 27.4548 134.886C27.5465 136.062 27.5774 137.242 27.5473 138.422C27.5773 139.601 27.5464 140.781 27.4548 141.957Z" fill="#106FA4"/>
<path d="M31.1928 141.54C31.143 141.54 31.1145 139.226 31.1358 136.375C31.1572 133.523 31.2106 131.205 31.264 131.205C31.3174 131.205 31.3388 133.519 31.321 136.375C31.3032 139.23 31.2426 141.54 31.1928 141.54Z" fill="#106FA4"/>
<path d="M23.3038 129.005C23.2753 129.048 21.2604 127.749 18.8075 126.1C16.3547 124.452 14.3825 123.081 14.4109 123.028C14.4394 122.975 16.4544 124.285 18.9108 125.933C21.3672 127.581 23.3323 128.963 23.3038 129.005Z" fill="#106FA4"/>
<path d="M20.6159 131.216C20.5091 131.2 20.4056 131.166 20.3097 131.116C20.121 131.042 19.8469 130.921 19.5158 130.76C18.6603 130.342 17.8284 129.878 17.0238 129.368C16.0769 128.77 15.2438 128.176 14.6671 127.734C14.3399 127.511 14.0337 127.258 13.7522 126.98C14.0977 127.173 14.4296 127.389 14.7454 127.628C15.3471 128.044 16.1694 128.617 17.1235 129.212C18.0776 129.806 18.9462 130.298 19.5906 130.636C19.9434 130.809 20.2858 131.003 20.6159 131.216Z" fill="#106FA4"/>
<path d="M29.8791 119.682C29.7049 119.766 29.5238 119.835 29.338 119.888C29.1234 119.967 28.9047 120.035 28.6829 120.091C28.4266 120.162 28.1347 120.244 27.8072 120.312C27.039 120.478 26.2615 120.596 25.4789 120.668C24.5202 120.753 23.5574 120.783 22.5953 120.757C21.6334 120.722 20.6742 120.633 19.7224 120.49C18.9459 120.37 18.1769 120.206 17.4191 119.998C17.0951 119.917 16.8068 119.824 16.554 119.742C16.3012 119.66 16.0805 119.586 15.9096 119.514C15.7242 119.454 15.5443 119.378 15.3721 119.286C15.5624 119.325 15.7494 119.378 15.931 119.447C16.109 119.507 16.3262 119.575 16.5825 119.642C16.8388 119.71 17.1272 119.799 17.4511 119.874C18.099 120.041 18.8751 120.184 19.7473 120.322C20.6918 120.454 21.6424 120.537 22.5953 120.572C23.5453 120.596 24.4959 120.571 25.4433 120.497C26.2234 120.434 26.9994 120.328 27.768 120.18C28.0991 120.123 28.391 120.048 28.6473 119.988C28.9036 119.927 29.1279 119.87 29.3059 119.817C29.492 119.753 29.684 119.708 29.8791 119.682Z" fill="#106FA4"/>
<path d="M31.5843 115.687C31.4167 115.782 31.2417 115.863 31.061 115.929C30.8901 116.008 30.6765 116.086 30.4273 116.175C30.1781 116.264 29.8933 116.367 29.5765 116.46C28.8291 116.689 28.0697 116.877 27.3017 117.022C26.3598 117.195 25.4089 117.313 24.4537 117.378C23.4981 117.435 22.5399 117.435 21.5843 117.378C20.8046 117.328 20.0292 117.226 19.2632 117.072C18.9321 117.015 18.6402 116.937 18.3839 116.869C18.1646 116.815 17.9483 116.75 17.7359 116.673C17.5503 116.619 17.3694 116.55 17.1948 116.467C17.3864 116.495 17.5747 116.541 17.7573 116.606C17.9317 116.659 18.1525 116.713 18.4088 116.766C18.6651 116.819 18.957 116.894 19.2845 116.944C20.049 117.076 20.8204 117.164 21.595 117.207C22.5441 117.25 23.4948 117.242 24.443 117.183C25.3906 117.111 26.334 116.992 27.2696 116.827C28.1276 116.659 28.9001 116.492 29.5338 116.307C29.8542 116.221 30.139 116.129 30.3917 116.047C30.6445 115.965 30.8581 115.901 31.0325 115.833C31.2115 115.768 31.3963 115.719 31.5843 115.687Z" fill="#106FA4"/>
<path d="M32.6381 112.17C32.4895 112.253 32.3318 112.319 32.1682 112.366C31.862 112.483 31.4099 112.636 30.851 112.807C29.3875 113.258 27.8914 113.595 26.376 113.815C24.8594 114.036 23.3262 114.123 21.7943 114.075C21.2069 114.05 20.7263 114.014 20.4059 113.975C20.2353 113.965 20.066 113.939 19.9004 113.897C20.0709 113.881 20.2425 113.881 20.413 113.897C20.737 113.914 21.2105 113.929 21.7979 113.936C23.3187 113.949 24.8383 113.848 26.344 113.633C27.8516 113.41 29.3438 113.092 30.8118 112.683C31.3743 112.526 31.83 112.394 32.1432 112.298C32.3043 112.242 32.4698 112.199 32.6381 112.17Z" fill="#106FA4"/>
<path d="M38.8752 127.354C38.2639 128.158 37.6041 128.925 36.8994 129.65C36.24 130.416 35.535 131.143 34.7883 131.825C35.4001 131.019 36.0599 130.251 36.7641 129.525C37.4229 128.759 38.128 128.034 38.8752 127.354Z" fill="#106FA4"/>
<path d="M41.8371 129.105C41.7987 129.212 41.7447 129.313 41.6769 129.404C41.563 129.593 41.385 129.853 41.1536 130.169C39.9387 131.815 38.3863 133.181 36.6004 134.178C36.2444 134.367 35.9774 134.509 35.778 134.598C35.6786 134.653 35.5719 134.694 35.4612 134.719C35.4612 134.694 35.8741 134.47 36.5292 134.064C37.3884 133.539 38.2028 132.943 38.9642 132.284C39.717 131.613 40.4125 130.881 41.0433 130.095C41.5381 129.482 41.8122 129.08 41.8371 129.105Z" fill="#106FA4"/>
<path d="M42.7379 130.686C42.672 131.386 42.4603 132.064 42.1163 132.677C41.7724 133.29 41.3038 133.825 40.7407 134.246C41.188 133.723 41.595 133.167 41.9582 132.583C42.2644 131.971 42.525 131.336 42.7379 130.686Z" fill="#106FA4"/>
<path d="M45.7246 133.957C45.6168 134.531 45.3547 135.064 44.9663 135.499C44.625 135.972 44.1592 136.342 43.6206 136.567C44.0464 136.197 44.4483 135.801 44.8239 135.381C45.1514 134.924 45.4521 134.449 45.7246 133.957Z" fill="#106FA4"/>
<path d="M50.552 136.912C50.5688 137.527 50.4081 138.134 50.0892 138.66C49.8221 139.214 49.3974 139.678 48.8682 139.992C49.2662 139.55 49.6237 139.073 49.9362 138.568C50.1896 138.035 50.3957 137.481 50.552 136.912Z" fill="#106FA4"/>
<path d="M56.0807 139.568C56.2126 140.146 56.1513 140.751 55.9062 141.291C55.7175 141.851 55.3529 142.336 54.8667 142.672C55.6092 141.804 56.0369 140.71 56.0807 139.568Z" fill="#106FA4"/>
<path d="M61.1857 144.121C61.1323 144.103 61.346 143.409 61.3958 142.54C61.4456 141.672 61.321 140.956 61.3744 140.945C61.715 141.99 61.6476 143.124 61.1857 144.121Z" fill="#106FA4"/>
<path d="M65.3687 144.427C65.3188 144.406 65.5752 143.786 65.6428 142.978C65.7104 142.17 65.5716 141.519 65.6428 141.508C65.8189 141.983 65.887 142.492 65.842 142.997C65.7971 143.502 65.6403 143.99 65.3829 144.427H65.3687Z" fill="#106FA4"/>
<path d="M71.2215 144.388C71.1681 144.388 71.2535 143.779 71.1574 143.05C71.0613 142.32 70.8334 141.761 70.8833 141.74C71.1536 142.118 71.3126 142.564 71.3425 143.028C71.4317 143.484 71.3897 143.955 71.2215 144.388Z" fill="#106FA4"/>
<path d="M75.2656 144.032C75.2087 144.032 75.2087 143.459 75.0164 142.793C74.8242 142.127 74.5358 141.633 74.5821 141.604C74.8671 141.934 75.076 142.322 75.1941 142.742C75.3123 143.162 75.3367 143.602 75.2656 144.032Z" fill="#106FA4"/>
<path d="M80.0109 142.989C79.9539 142.989 79.9824 142.43 79.7724 141.793C79.5623 141.156 79.2241 140.725 79.2704 140.682C79.5859 140.967 79.8205 141.331 79.9505 141.736C80.0806 142.141 80.1014 142.573 80.0109 142.989Z" fill="#106FA4"/>
<path d="M85.8529 141.8C85.796 141.8 85.7889 141.177 85.529 140.469C85.2691 139.76 84.8775 139.276 84.9202 139.24C85.2721 139.559 85.5409 139.959 85.7035 140.405C85.866 140.851 85.9173 141.33 85.8529 141.8Z" fill="#106FA4"/>
<path d="M90.7801 139.878C90.7267 139.878 90.5309 139.247 90.1108 138.543C89.6907 137.838 89.2244 137.353 89.2635 137.314C90.0784 137.943 90.6211 138.861 90.7801 139.878Z" fill="#106FA4"/>
<path d="M96.2873 136.99C96.2339 136.99 96.0666 136.321 95.6181 135.602C95.1695 134.883 94.6426 134.427 94.6782 134.385C95.1224 134.673 95.4971 135.056 95.7754 135.507C96.0536 135.957 96.2285 136.464 96.2873 136.99Z" fill="#106FA4"/>
<path d="M101.666 133.135C101.432 132.72 101.169 132.321 100.88 131.942C100.547 131.601 100.19 131.285 99.8115 130.995C100.295 131.131 100.722 131.421 101.025 131.821C101.374 132.179 101.599 132.639 101.666 133.135Z" fill="#106FA4"/>
<path d="M106.273 129.201C106.227 129.233 105.8 128.66 105.152 128.076C104.504 127.492 103.899 127.111 103.927 127.062C104.436 127.251 104.896 127.55 105.276 127.937C105.696 128.281 106.037 128.712 106.273 129.201Z" fill="#106FA4"/>
<path d="M110.399 124.071C110.353 124.1 109.997 123.523 109.37 123.003C108.744 122.483 108.121 122.22 108.142 122.167C108.638 122.294 109.098 122.531 109.489 122.862C109.88 123.192 110.191 123.607 110.399 124.075V124.071Z" fill="#106FA4"/>
<path d="M114.077 117.966C113.661 117.633 113.227 117.324 112.777 117.04C112.298 116.812 111.806 116.612 111.303 116.439C111.856 116.435 112.397 116.588 112.866 116.88C113.366 117.118 113.786 117.495 114.077 117.966Z" fill="#106FA4"/>
<path d="M116.312 111.369C115.351 110.812 114.246 110.551 113.137 110.621C113.686 110.462 114.266 110.448 114.823 110.579C115.379 110.709 115.892 110.982 116.312 111.369Z" fill="#106FA4"/>
<path d="M117.306 104.285C117.288 104.338 116.707 104.135 115.963 104.057C115.219 103.979 114.611 104.057 114.604 103.986C115.509 103.73 116.478 103.837 117.306 104.285Z" fill="#106FA4"/>
<path d="M116.939 97.1897C116.604 97.2323 116.266 97.2465 115.928 97.2324C115.594 97.2755 115.257 97.2922 114.92 97.2822C115.558 97.001 116.278 96.968 116.939 97.1897Z" fill="#106FA4"/>
<path d="M115.487 92.316C115.135 92.2429 114.777 92.2106 114.419 92.2198C114.071 92.2875 113.732 92.3938 113.407 92.5367C113.407 92.5189 113.472 92.4156 113.642 92.3017C113.87 92.1549 114.128 92.0635 114.397 92.0347C114.666 92.0045 114.938 92.0387 115.191 92.1344C115.398 92.2092 115.497 92.2946 115.487 92.316Z" fill="#106FA4"/>
<g opacity="0.3">
<path d="M91.3425 116.264C93.0691 119.543 97.0954 121.227 100.776 120.778C104.458 120.33 107.736 118.041 110.032 115.121C111.723 112.964 112.977 110.169 112.279 107.521C110.453 111.317 107.258 114.282 103.336 115.82C99.4148 117.359 95.0564 117.357 91.136 115.816" fill="black"/>
</g>
<path d="M112.888 88.051C112.06 86.7762 111.757 85.2314 112.041 83.7385C112.325 82.2456 113.174 80.9198 114.411 80.0375C115.394 79.3255 116.579 78.9446 117.508 78.1756C118.077 77.6773 118.539 77.0703 118.87 76.3905C119.2 75.7106 119.391 74.9716 119.431 74.2169C119.499 72.7028 119.164 71.1976 118.459 69.8559L119.449 69.3682L119.534 69.475C120.191 70.3379 120.649 71.3357 120.874 72.3966C121.099 73.4576 121.087 74.5553 120.837 75.6107C120.587 76.6661 120.106 77.653 119.429 78.5003C118.752 79.3477 117.895 80.0344 116.921 80.511C116.18 80.8511 115.483 81.2803 114.846 81.789C113.61 82.857 114.116 84.071 114.116 84.071" fill="#106FA4"/>
<g opacity="0.7">
<path d="M112.888 88.051C112.06 86.7762 111.757 85.2314 112.041 83.7385C112.325 82.2456 113.174 80.9198 114.411 80.0375C115.394 79.3255 116.579 78.9446 117.508 78.1756C118.077 77.6773 118.539 77.0703 118.87 76.3905C119.2 75.7106 119.391 74.9716 119.431 74.2169C119.499 72.7028 119.164 71.1976 118.459 69.8559L119.449 69.3682L119.534 69.475C120.191 70.3379 120.649 71.3357 120.874 72.3966C121.099 73.4576 121.087 74.5553 120.837 75.6107C120.587 76.6661 120.106 77.653 119.429 78.5003C118.752 79.3477 117.895 80.0344 116.921 80.511C116.18 80.8511 115.483 81.2803 114.846 81.789C113.61 82.857 114.116 84.071 114.116 84.071" fill="white"/>
</g>
<path d="M114.276 84.135C113.873 84.0551 113.462 84.0193 113.051 84.0282C112.644 84.0939 112.245 84.2049 111.862 84.3593C112.186 84.0651 112.596 83.8841 113.032 83.8436C113.467 83.8031 113.904 83.9054 114.276 84.135Z" fill="#106FA4"/>
<path d="M115.209 81.4189C115.159 81.4367 115.002 81.127 114.71 80.835C114.418 80.5431 114.112 80.3793 114.13 80.3295C114.148 80.2797 114.518 80.3758 114.842 80.7033C115.166 81.0308 115.255 81.4046 115.209 81.4189Z" fill="#106FA4"/>
<path d="M118.701 79.354C118.651 79.3718 118.523 79.0264 118.242 78.6882C117.961 78.35 117.658 78.1507 117.683 78.1044C117.708 78.0581 118.082 78.197 118.395 78.5743C118.708 78.9517 118.751 79.3468 118.701 79.354Z" fill="#106FA4"/>
<path d="M121.04 74.9254C120.768 74.9064 120.497 74.8648 120.232 74.8008C119.959 74.7946 119.688 74.7649 119.42 74.7118C119.687 74.6115 119.974 74.5786 120.257 74.6158C120.539 74.6531 120.808 74.7594 121.04 74.9254Z" fill="#106FA4"/>
<path d="M120.246 70.6462C120.246 70.6996 119.944 70.6818 119.613 70.7815C119.281 70.8812 119.036 71.0414 119 71.0022C118.965 70.9631 119.178 70.7103 119.559 70.6035C119.94 70.4967 120.26 70.6 120.246 70.6462Z" fill="#106FA4"/>
<path d="M87.2947 97.0009C88.5549 96.1821 90.2246 96.4527 91.6557 96.9261C93.0868 97.3996 94.5215 98.0547 96.0202 97.9123C97.6543 97.7592 99.0534 96.6698 100.132 95.4381C101.465 93.9151 102.456 92.1247 103.041 90.1871C103.632 88.2148 103.934 85.8973 105.632 84.7296C107.33 83.5619 109.687 84.1493 111.147 85.5306C112.606 86.9119 113.311 88.9055 113.774 90.8706C114.842 95.3989 114.86 100.23 113.393 104.648C111.926 109.066 108.911 113.024 104.817 115.239C100.723 117.453 95.561 117.77 91.3958 115.698" fill="#106FA4"/>
<path d="M91.3958 115.687C91.4613 115.71 91.5254 115.736 91.588 115.766L92.1434 116.008C92.3926 116.104 92.7023 116.218 93.069 116.364C93.4357 116.51 93.87 116.609 94.3648 116.72C95.5642 116.979 96.7911 117.088 98.0174 117.044C98.7824 117.013 99.544 116.925 100.296 116.78C101.139 116.626 101.967 116.398 102.77 116.097C104.62 115.406 106.324 114.376 107.797 113.06C109.491 111.56 110.901 109.767 111.958 107.766C113.125 105.556 113.889 103.156 114.215 100.678C114.566 98.0177 114.509 95.3189 114.045 92.6755C113.831 91.3344 113.496 90.0154 113.044 88.7346C112.62 87.4884 111.893 86.3668 110.93 85.4701C109.978 84.6297 108.742 84.184 107.473 84.2241C106.865 84.2503 106.275 84.4344 105.76 84.7581C105.263 85.0861 104.849 85.5248 104.55 86.0397C103.938 87.0507 103.674 88.2042 103.375 89.2935C103.113 90.368 102.736 91.4112 102.25 92.405C101.794 93.3322 101.236 94.2061 100.588 95.0109C100.002 95.7659 99.3114 96.4335 98.5372 96.9938C97.8307 97.51 97.0077 97.8439 96.1413 97.9657C95.3672 98.0363 94.5867 97.9528 93.8451 97.7201C92.4602 97.3107 91.3282 96.7838 90.3278 96.6236C89.5704 96.4554 88.7833 96.475 88.0352 96.6805C87.8434 96.7406 87.6575 96.8181 87.4798 96.9119C87.3588 96.9796 87.2947 97.0081 87.2947 97.0081L87.4691 96.8977C87.644 96.7949 87.8289 96.7102 88.0209 96.6449C88.7747 96.4205 89.5728 96.3886 90.342 96.5524C91.3531 96.7055 92.4994 97.2252 93.8736 97.6204C94.6023 97.8442 95.3682 97.9216 96.127 97.8482C96.9727 97.725 97.7749 97.3948 98.4624 96.887C99.2242 96.3313 99.9027 95.6695 100.477 94.9219C101.114 94.1218 101.661 93.2552 102.111 92.3373C102.59 91.3514 102.962 90.3165 103.219 89.2508C103.514 88.165 103.774 86.9973 104.404 85.9507C104.715 85.412 105.148 84.9535 105.668 84.6121C106.201 84.2709 106.815 84.0757 107.448 84.0461C108.094 84.016 108.739 84.1165 109.345 84.3416C109.965 84.5643 110.539 84.8999 111.036 85.3312C112.022 86.2476 112.766 87.3935 113.201 88.667C113.658 89.9602 113.997 91.2924 114.212 92.6471C114.682 95.3078 114.739 98.0253 114.379 100.703C114.049 103.202 113.275 105.622 112.094 107.848C111.025 109.869 109.598 111.678 107.882 113.188C106.392 114.504 104.669 115.531 102.802 116.214C101.993 116.512 101.159 116.739 100.31 116.891C99.5519 117.031 98.7844 117.114 98.0138 117.14C96.7791 117.177 95.5446 117.057 94.3399 116.784C93.8451 116.677 93.4179 116.535 93.0441 116.428C92.6703 116.321 92.3677 116.175 92.122 116.072L91.5738 115.812C91.4563 115.723 91.3958 115.687 91.3958 115.687Z" fill="#263238"/>
<path d="M106.718 88.9055C106.536 88.7548 106.39 88.565 106.291 88.3501C106.022 87.8417 105.887 87.2732 105.899 86.6983C105.906 86.1244 106.057 85.5614 106.337 85.0607C106.44 84.8464 106.593 84.6597 106.782 84.516C106.807 84.5374 106.636 84.7438 106.455 85.1212C106.219 85.6153 106.093 86.1546 106.085 86.7021C106.077 87.2496 106.187 87.7923 106.408 88.2931C106.583 88.6741 106.747 88.8877 106.718 88.9055Z" fill="#263238"/>
<path d="M108.879 88.5922C108.716 88.4243 108.588 88.2259 108.502 88.0084C108.263 87.4931 108.123 86.9377 108.089 86.3708C108.053 85.8046 108.125 85.2367 108.302 84.6976C108.36 84.4705 108.463 84.2574 108.605 84.071C108.339 84.8033 108.226 85.5824 108.273 86.3601C108.32 87.1377 108.527 87.8974 108.879 88.5922Z" fill="#263238"/>
<path d="M110.609 89.208C110.384 88.6681 110.291 88.0823 110.339 87.4993C110.323 86.9143 110.445 86.3339 110.695 85.8047C110.748 85.8225 110.545 86.563 110.524 87.5028C110.502 88.4426 110.663 89.208 110.609 89.208Z" fill="#263238"/>
<path d="M140.332 93.6581C137.074 95.6446 132.742 95.2672 129.367 93.4837C125.992 91.7001 123.436 88.7133 121.303 85.5805C120.698 84.6905 120.086 83.7471 119.146 83.2095C117.298 82.1415 114.746 83.1739 113.685 84.9895C112.624 86.8051 112.823 89.1333 113.642 91.0771C113.642 91.0771 115.814 101.6 127.135 108.144" fill="#106FA4"/>
<path d="M127.135 108.154C127.1 108.143 127.068 108.126 127.039 108.105L126.761 107.941C126.512 107.788 126.159 107.567 125.693 107.289C125.469 107.14 125.198 106.997 124.931 106.798L124.059 106.161C123.749 105.922 123.393 105.698 123.059 105.403L121.991 104.488C120.229 102.909 118.662 101.126 117.323 99.1761C116.516 98.0023 115.801 96.7667 115.187 95.4808C114.498 94.0819 113.954 92.6158 113.564 91.1056V91.1234C113.022 89.8843 112.796 88.5303 112.905 87.1825C112.975 86.4786 113.175 85.7939 113.496 85.1639C113.915 84.3693 114.557 83.7146 115.343 83.2806C116.13 82.8466 117.026 82.6523 117.921 82.7218C118.443 82.7837 118.943 82.964 119.385 83.2487C119.807 83.5366 120.181 83.8885 120.495 84.2917C120.812 84.6833 121.09 85.0963 121.36 85.4986C121.631 85.9009 121.912 86.296 122.19 86.6805C122.752 87.453 123.329 88.1899 123.924 88.877C125.039 90.1911 126.31 91.3649 127.708 92.3729C128.929 93.2502 130.284 93.9246 131.72 94.3701C133.794 95.0451 136.017 95.1142 138.128 94.5695C138.304 94.5261 138.478 94.4726 138.648 94.4093C138.808 94.3523 138.961 94.306 139.096 94.2491C139.367 94.128 139.602 94.0355 139.78 93.9429L140.189 93.7257C140.235 93.6992 140.282 93.6766 140.332 93.6581C140.29 93.6902 140.246 93.7187 140.2 93.7435L139.798 93.9749C139.62 94.0746 139.388 94.1707 139.118 94.2989C138.979 94.3594 138.829 94.4093 138.669 94.4698C138.498 94.5373 138.324 94.5944 138.146 94.6407C136.019 95.2196 133.769 95.1689 131.67 94.4947C130.219 94.0537 128.849 93.3791 127.615 92.4975C126.203 91.4873 124.919 90.3085 123.792 88.9874C123.19 88.2967 122.61 87.5634 122.044 86.7873C121.763 86.3993 121.485 86.0005 121.211 85.5983C120.937 85.196 120.663 84.7866 120.353 84.4057C120.05 84.019 119.69 83.6805 119.285 83.4017C118.867 83.1328 118.394 82.9635 117.9 82.9069C116.877 82.8136 115.854 83.0957 115.024 83.7008C114.466 84.1081 114.003 84.6323 113.669 85.2367C113.334 85.8411 113.136 86.5112 113.087 87.2003C112.981 88.5173 113.202 89.8402 113.728 91.0522V91.07C114.112 92.5698 114.649 94.0264 115.33 95.4167C115.945 96.6974 116.659 97.9282 117.466 99.0978C118.793 101.043 120.346 102.824 122.094 104.402L123.162 105.324C123.493 105.623 123.845 105.848 124.148 106.09L125.013 106.738C125.276 106.94 125.543 107.094 125.768 107.236L126.811 107.912L127.078 108.09C127.099 108.11 127.118 108.131 127.135 108.154Z" fill="#263238"/>
<path d="M116.704 89.1689C116.434 88.3087 116.055 87.4867 115.575 86.7232C114.742 85.4772 113.681 84.8222 113.724 84.7723C113.972 84.8756 114.202 85.0187 114.404 85.196C115.433 86.0087 116.186 87.1188 116.561 88.3751C116.655 88.6294 116.703 88.8981 116.704 89.1689Z" fill="#263238"/>
<path d="M118.904 87.7414C118.764 86.8381 118.505 85.9571 118.135 85.1213C117.708 84.3133 117.178 83.5642 116.558 82.8927C116.792 83.0345 117.002 83.2123 117.181 83.4196C117.636 83.8996 118.015 84.4472 118.302 85.0429C118.589 85.6379 118.783 86.2729 118.879 86.9262C118.934 87.1945 118.942 87.4703 118.904 87.7414Z" fill="#263238"/>
<g opacity="0.3">
<path d="M111.545 108.635C112.432 107.279 108.779 106.958 107.17 107.147C104.813 107.418 102.641 108.554 101.076 110.337C99.5101 112.119 98.6624 114.419 98.6973 116.791C98.6973 116.791 105.732 117.542 111.545 108.635Z" fill="white"/>
</g>
<g opacity="0.3">
<path d="M117.544 102.58C119.395 105.41 122.139 107.541 125.341 108.632C125.676 108.777 126.046 108.829 126.409 108.781C126.587 108.755 126.752 108.667 126.873 108.532C126.993 108.397 127.064 108.225 127.071 108.044C123.265 105.974 120.003 103.033 117.551 99.4609C117.364 100.557 117.521 101.683 118 102.686" fill="black"/>
</g>
<path d="M112.646 78.5561C115.781 75.4211 115.781 70.3382 112.646 67.2031C109.511 64.0681 104.428 64.0681 101.293 67.2031C98.1582 70.3382 98.1582 75.4211 101.293 78.5562C104.428 81.6912 109.511 81.6912 112.646 78.5561Z" fill="#F5F5F5"/>
<path d="M114.988 73.2166C114.988 77.0935 112.952 80.3366 110.684 80.3366C108.416 80.3366 106.576 77.1931 106.576 73.3199C106.576 69.4466 108.416 66.3031 110.684 66.3031C112.952 66.3031 114.988 69.3433 114.988 73.2166Z" fill="#263238"/>
<path d="M108.687 76.5451C108.62 76.4657 108.565 76.377 108.523 76.2817C108.394 76.03 108.284 75.7695 108.192 75.502C107.572 73.7153 107.624 71.7638 108.338 70.0125C108.443 69.7501 108.57 69.4965 108.715 69.2542C108.76 69.1606 108.819 69.0742 108.89 68.9979C108.918 68.9979 108.705 69.3966 108.463 70.0659C108.15 70.9303 107.977 71.8387 107.95 72.7573C107.926 73.6746 108.046 74.5899 108.306 75.47C108.523 76.1357 108.719 76.5309 108.687 76.5451Z" fill="white"/>
<path d="M111.709 70.1941C112.468 70.1941 113.083 69.5789 113.083 68.82C113.083 68.061 112.468 67.4458 111.709 67.4458C110.95 67.4458 110.335 68.061 110.335 68.82C110.335 69.5789 110.95 70.1941 111.709 70.1941Z" fill="white"/>
<path d="M112.169 62.9708C112.015 63.1809 111.627 63.1773 111.14 63.099C110.652 63.0207 110.04 62.8783 109.377 62.7715C108.715 62.6647 108.117 62.6006 107.637 62.533C107.156 62.4653 106.786 62.3692 106.69 62.1271C106.594 61.885 106.825 61.5397 107.366 61.2514C107.684 61.0887 108.027 60.9792 108.381 60.9274C108.812 60.86 109.252 60.86 109.684 60.9274C110.462 61.0455 111.186 61.3954 111.763 61.9313C112.19 62.3728 112.314 62.7679 112.169 62.9708Z" fill="#263238"/>
<path d="M108.53 82.9033C107.91 81.6301 107.774 80.1752 108.146 78.8089C108.518 77.4427 109.374 76.258 110.554 75.4749C111.733 74.6918 113.157 74.3637 114.561 74.5513C115.965 74.739 117.252 75.4298 118.185 76.4953" fill="#106FA4"/>
<path d="M118.192 76.4953C118.192 76.4953 118.021 76.3351 117.704 76.061C117.252 75.6768 116.743 75.3646 116.195 75.1354C115.386 74.7932 114.514 74.6258 113.635 74.6441C112.556 74.6341 111.497 74.947 110.597 75.5426C109.696 76.1383 108.994 76.9894 108.58 77.9869C108.223 78.7891 108.038 79.6577 108.039 80.5359C108.039 81.1287 108.129 81.7181 108.306 82.2838C108.434 82.6826 108.534 82.8962 108.516 82.9033C108.483 82.8582 108.455 82.8091 108.434 82.7573C108.359 82.6121 108.294 82.4623 108.238 82.3088C108.029 81.7384 107.918 81.1364 107.911 80.5288C107.887 79.6283 108.062 78.7337 108.423 77.9086C108.841 76.8785 109.56 75.9984 110.486 75.3836C111.412 74.7687 112.502 74.4477 113.614 74.4625C114.514 74.452 115.406 74.6379 116.227 75.0072C116.78 75.2502 117.288 75.5848 117.729 75.9969C117.85 76.1075 117.963 76.2265 118.068 76.3529C118.115 76.395 118.157 76.4428 118.192 76.4953Z" fill="#263238"/>
<path d="M92.5885 52.5045C92.5316 52.5344 92.4703 52.5549 92.4069 52.565L91.8765 52.7074C91.6451 52.7644 91.3638 52.8463 91.0399 52.946L90.5237 53.099L89.9469 53.2948C87.8544 54.0261 85.8468 54.981 83.959 56.1428C82.0689 57.3087 80.2609 58.6029 78.5478 60.0161C77.8892 60.5572 77.3588 60.9987 76.9992 61.312L76.5756 61.668C76.4795 61.7498 76.4261 61.789 76.4189 61.7819C76.4576 61.7309 76.5018 61.6844 76.5507 61.643L76.9494 61.2621C77.3054 60.9346 77.8145 60.4789 78.4624 59.92C80.1593 58.4779 81.9649 57.1687 83.8629 56.004C85.7613 54.8257 87.7928 53.8768 89.9149 53.1774L90.4952 52.9887L91.0221 52.8498C91.3496 52.7573 91.6308 52.6861 91.8658 52.6398L92.4069 52.533C92.4661 52.5162 92.527 52.5066 92.5885 52.5045Z" fill="#263238"/>
<path d="M17.5777 85.7475C17.514 85.6144 17.4651 85.4747 17.4318 85.331C17.3891 85.1957 17.3428 85.0248 17.3001 84.829C17.2573 84.6332 17.2004 84.4018 17.1648 84.1526C17.0672 83.5641 17.0124 82.9692 17.001 82.3726C16.9921 81.64 17.0421 80.9078 17.1505 80.1832C17.2691 79.4587 17.4441 78.7445 17.6739 78.0472C17.8706 77.4811 18.1085 76.9302 18.3859 76.399C18.4962 76.1676 18.6208 75.9718 18.7205 75.7938C18.8202 75.6158 18.9163 75.4734 18.9982 75.3559C19.0741 75.228 19.1637 75.1086 19.2652 74.9999C19.2937 75.0177 18.9412 75.541 18.5033 76.4524C18.2505 76.9862 18.0317 77.5356 17.8483 78.0971C17.6305 78.788 17.4615 79.4935 17.3428 80.2082C17.238 80.9237 17.1845 81.6459 17.1826 82.3691C17.1858 82.9645 17.2274 83.559 17.3072 84.1491C17.4353 85.1352 17.6133 85.7404 17.5777 85.7475Z" fill="#263238"/>
<path d="M21.0453 85.8545C20.9848 85.7204 20.9372 85.5809 20.9029 85.4379C20.8483 85.2724 20.8043 85.1036 20.7712 84.9324C20.7285 84.7366 20.668 84.5123 20.6359 84.2596C20.5371 83.6711 20.4812 83.0762 20.4686 82.4796C20.4406 81.0094 20.6695 79.5456 21.145 78.1542C21.3409 77.5866 21.5789 77.0344 21.857 76.5023C21.9638 76.2709 22.0884 76.0751 22.1881 75.9007C22.2732 75.7501 22.3659 75.604 22.4657 75.4628C22.5427 75.3355 22.6321 75.2163 22.7327 75.1068C22.7648 75.1282 22.4088 75.6479 21.9745 76.5629C21.7176 77.0954 21.4975 77.6449 21.3159 78.2076C21.098 78.8971 20.9303 79.6014 20.8139 80.3151C20.7062 81.0316 20.6514 81.755 20.6502 82.4796C20.6531 83.075 20.6947 83.6696 20.7748 84.2596C20.9029 85.2421 21.0809 85.8438 21.0453 85.8545Z" fill="#263238"/>
<path d="M147.686 49C147.752 49.1322 147.801 49.2722 147.832 49.4165C147.885 49.5813 147.929 49.7489 147.964 49.9185C148.006 50.1178 148.067 50.3421 148.099 50.5949C148.198 51.1834 148.254 51.7783 148.266 52.3749C148.293 53.845 148.065 55.3087 147.59 56.7003C147.395 57.267 147.157 57.818 146.878 58.3486C146.767 58.58 146.646 58.7758 146.543 58.9538C146.46 59.1054 146.367 59.2516 146.265 59.3916C146.191 59.5198 146.103 59.6392 146.002 59.7476C145.97 59.7298 146.326 59.2065 146.76 58.2952C147.013 57.7608 147.233 57.2115 147.419 56.6504C147.637 55.9598 147.805 55.2543 147.921 54.5394C148.028 53.8241 148.083 53.1018 148.085 52.3784C148.08 51.7831 148.038 51.1887 147.96 50.5984C147.832 49.6266 147.654 49.0214 147.686 49Z" fill="#263238"/>
<path d="M154.603 12.5978C154.75 12.6124 154.895 12.6453 155.034 12.6957C155.201 12.7384 155.367 12.7903 155.529 12.8511C155.72 12.921 155.942 12.989 156.173 13.0963C156.724 13.3255 157.258 13.5946 157.77 13.9014C159.029 14.6603 160.147 15.6326 161.073 16.7748C161.449 17.2415 161.789 17.7361 162.09 18.2544C162.227 18.4709 162.329 18.6776 162.424 18.8597C162.509 19.0109 162.583 19.1672 162.648 19.3277C162.717 19.4587 162.771 19.5971 162.809 19.7402C162.777 19.7578 162.523 19.178 161.982 18.3255C161.664 17.8273 161.316 17.3489 160.94 16.893C160.471 16.3409 159.963 15.8235 159.419 15.3451C158.871 14.8735 158.288 14.443 157.676 14.057C157.169 13.7447 156.644 13.4637 156.103 13.2158C155.211 12.8074 154.604 12.6362 154.603 12.5978Z" fill="#263238"/>
<path d="M150.003 49.6265C150.068 49.7591 150.117 49.8989 150.149 50.043C150.202 50.2078 150.246 50.3753 150.281 50.5449C150.324 50.7443 150.381 50.9686 150.416 51.2213C150.515 51.8098 150.571 52.4047 150.584 53.0013C150.591 53.7339 150.541 54.466 150.434 55.1907C150.316 55.9157 150.14 56.63 149.907 57.3267C149.711 57.8943 149.473 58.4465 149.195 58.9786C149.085 59.2064 148.964 59.4022 148.861 59.5802C148.775 59.7372 148.682 59.8893 148.579 60.0359C148.505 60.1641 148.417 60.2835 148.316 60.3919C148.284 60.3741 148.64 59.8508 149.074 58.9394C149.328 58.4056 149.548 57.8562 149.733 57.2947C149.951 56.6041 150.119 55.8985 150.235 55.1836C150.343 54.4683 150.397 53.7461 150.399 53.0227C150.394 52.4274 150.352 51.8329 150.274 51.2427C150.146 50.2388 149.968 49.6336 150.003 49.6265Z" fill="#263238"/>
<path d="M156.367 10.9685C156.513 10.9841 156.658 11.017 156.797 11.0665C156.965 11.1092 157.13 11.1611 157.292 11.2219C157.484 11.2918 157.704 11.3628 157.937 11.4671C158.488 11.6963 159.021 11.9654 159.533 12.2722C160.157 12.6556 160.751 13.0873 161.308 13.5633C161.859 14.0488 162.37 14.5779 162.836 15.1455C163.213 15.6133 163.554 16.1085 163.856 16.6271C163.991 16.8417 164.092 17.0483 164.188 17.2305C164.275 17.3861 164.354 17.5465 164.424 17.711C164.493 17.842 164.547 17.9803 164.585 18.1234C164.553 18.1411 164.3 17.5613 163.759 16.7087C163.442 16.2098 163.094 15.7314 162.716 15.2762C162.248 14.7241 161.739 14.2068 161.196 13.7283C160.647 13.2565 160.065 12.826 159.453 12.4403C158.946 12.1277 158.421 11.8467 157.879 11.599C156.961 11.1736 156.354 11.0025 156.367 10.9685Z" fill="#263238"/>
<path d="M63.2006 53.3266C65.4549 50.3155 66.4985 46.5688 66.1255 42.8259C65.7526 39.083 63.9901 35.6159 61.186 33.1089C58.3819 30.6019 54.7398 29.2371 50.9787 29.2839C47.2176 29.3307 43.6106 30.7857 40.8698 33.3617C38.1289 35.9377 36.4532 39.4476 36.1735 43.1986C35.8938 46.9496 37.0303 50.6691 39.3588 53.6232C41.6872 56.5773 45.0385 58.5511 48.7511 59.1553C52.4636 59.7594 56.2678 58.9499 59.4128 56.8866L64.5819 59.1756L63.2006 53.3266Z" fill="#FAFAFA"/>
<path d="M51.1501 29.3393C51.0624 29.3314 50.9743 29.3314 50.8867 29.3393L50.1212 29.3642C49.9504 29.3642 49.7653 29.3642 49.5552 29.3891L48.8788 29.4817L48.0885 29.5956L47.2056 29.8163C45.6886 30.1985 44.2451 30.8288 42.9336 31.6818C40.9882 32.9188 39.3518 34.5848 38.1498 36.552C36.9477 38.5193 36.2119 40.7355 35.9987 43.031C35.9398 43.72 35.9255 44.4121 35.956 45.103C35.9809 45.459 35.956 45.815 36.0237 46.171C36.0913 46.527 36.1305 46.883 36.1874 47.239C36.4522 48.7052 36.9321 50.1243 37.6114 51.4504C38.3383 52.839 39.2642 54.1139 40.3597 55.2347C41.5258 56.3826 42.8624 57.3433 44.322 58.0827C45.832 58.8583 47.4677 59.3597 49.1529 59.5637C49.5794 59.6308 50.01 59.6676 50.4417 59.674C50.8751 59.7073 51.3102 59.7156 51.7446 59.699C52.6222 59.6626 53.4952 59.5518 54.3541 59.3679C56.208 58.9664 57.9699 58.2201 59.5481 57.1678L59.3915 57.1856L64.6817 59.3216L64.9949 59.4498L64.9059 59.1222L63.368 53.4476L63.3431 53.5864C64.7774 51.684 65.7434 49.4704 66.1626 47.125C66.3664 46.034 66.4357 44.9221 66.3691 43.8142C66.3585 43.2783 66.3073 42.744 66.216 42.2158C66.1768 41.9559 66.1341 41.6996 66.095 41.4433C66.0558 41.187 65.9704 40.9413 65.9098 40.6921C65.0265 37.216 62.9356 34.1673 60.0109 32.0912C58.9301 31.315 57.7478 30.6909 56.4972 30.2364L55.7069 29.9552L54.9557 29.7629L54.2687 29.592C54.0479 29.5493 53.8343 29.528 53.635 29.4959C53.2363 29.4461 52.8838 29.3784 52.567 29.3606L51.7873 29.3357H51.3139C51.2607 29.3279 51.2068 29.3279 51.1537 29.3357C51.2063 29.3475 51.2599 29.3546 51.3139 29.3571L51.7873 29.3927L52.5563 29.4461C52.8625 29.471 53.2113 29.5458 53.6065 29.6063C56.4765 30.1017 59.1409 31.4197 61.2763 33.4002C63.4117 35.3807 64.9261 37.9386 65.6357 40.7633C65.6927 41.009 65.7674 41.251 65.8137 41.5002C65.86 41.7494 65.8885 42.0058 65.9277 42.2585C66.0137 42.7752 66.0601 43.2976 66.0665 43.8214C66.1272 44.9082 66.0555 45.9985 65.8529 47.0681C65.4338 49.3637 64.4801 51.5285 63.069 53.3871L63.0227 53.4512L63.044 53.5295C63.5424 55.3558 64.0551 57.2461 64.5855 59.1863L64.8098 58.987L59.5232 56.851L59.4413 56.8189L59.363 56.8652C57.8182 57.8863 56.0966 58.6106 54.2865 59.0012C53.4475 59.1812 52.5948 59.2896 51.7375 59.3252C51.3125 59.34 50.8871 59.3317 50.463 59.3002C50.0422 59.2932 49.6223 59.2576 49.2063 59.1934C47.5589 58.9955 45.9595 58.5073 44.4822 57.7516C43.0483 57.0341 41.7335 56.0999 40.584 54.982C39.51 53.8855 38.5999 52.6397 37.882 51.2831C37.2087 49.9871 36.7289 48.5993 36.458 47.1642C36.4046 46.8082 36.3512 46.4522 36.2978 46.1211C36.2444 45.79 36.2515 45.4091 36.2266 45.0816C36.0977 42.4722 36.6571 39.8749 37.8486 37.5499C39.0402 35.2249 40.822 33.254 43.0155 31.8348C44.3066 30.9794 45.7276 30.3386 47.2234 29.9374L48.0956 29.706L48.8788 29.5778L49.5481 29.4674C49.7546 29.4425 49.9432 29.439 50.1106 29.4247L50.876 29.3678C50.9679 29.3641 51.0594 29.3546 51.1501 29.3393Z" fill="#263238"/>
<path d="M51.7685 44.863C51.7485 44.8429 51.7372 44.8158 51.7372 44.7874C51.7372 44.7591 51.7485 44.7319 51.7685 44.7118L55.7232 40.7576C55.9733 40.5072 55.973 40.1015 55.7226 39.8514C55.4722 39.6014 55.0665 39.6016 54.8164 39.8521L50.8622 43.8046C50.8421 43.8247 50.815 43.836 50.7866 43.836C50.7582 43.836 50.7311 43.8247 50.711 43.8046L46.7568 39.8521C46.5067 39.6019 46.1012 39.6018 45.851 39.8518C45.6009 40.1019 45.6008 40.5074 45.8508 40.7576L49.8047 44.7118C49.8247 44.7319 49.836 44.7591 49.836 44.7874C49.836 44.8158 49.8247 44.8429 49.8047 44.863L45.8508 48.8177C45.6891 48.9795 45.6259 49.2153 45.6852 49.4363C45.7445 49.6573 45.9172 49.8299 46.1382 49.8891C46.3592 49.9483 46.595 49.885 46.7568 49.7232L50.711 45.7685C50.7311 45.7484 50.7582 45.7371 50.7866 45.7371C50.815 45.7371 50.8421 45.7484 50.8622 45.7685L54.8164 49.7232C55.0665 49.9734 55.472 49.9734 55.7222 49.7234C55.9723 49.4733 55.9724 49.0678 55.7224 48.8177L51.7685 44.863Z" fill="#2C97EB"/>
<mask id="mask0_4150_25824" style="mask-type:alpha" maskUnits="userSpaceOnUse" x="45" y="39" width="11" height="11">
<path d="M51.7685 44.863C51.7485 44.8429 51.7372 44.8158 51.7372 44.7874C51.7372 44.7591 51.7485 44.7319 51.7685 44.7118L55.7232 40.7576C55.9733 40.5072 55.973 40.1015 55.7226 39.8514C55.4722 39.6014 55.0665 39.6016 54.8164 39.8521L50.8622 43.8046C50.8421 43.8247 50.815 43.836 50.7866 43.836C50.7582 43.836 50.7311 43.8247 50.711 43.8046L46.7568 39.8521C46.5067 39.6019 46.1012 39.6018 45.851 39.8518C45.6009 40.1019 45.6008 40.5074 45.8508 40.7576L49.8047 44.7118C49.8247 44.7319 49.836 44.7591 49.836 44.7874C49.836 44.8158 49.8247 44.8429 49.8047 44.863L45.8508 48.8177C45.6891 48.9795 45.6259 49.2153 45.6852 49.4363C45.7445 49.6573 45.9172 49.8299 46.1382 49.8891C46.3592 49.9483 46.595 49.885 46.7568 49.7232L50.711 45.7685C50.7311 45.7484 50.7582 45.7371 50.7866 45.7371C50.815 45.7371 50.8421 45.7484 50.8622 45.7685L54.8164 49.7232C55.0665 49.9734 55.472 49.9734 55.7222 49.7234C55.9723 49.4733 55.9724 49.0678 55.7224 48.8177L51.7685 44.863Z" fill="white"/>
</mask>
<g mask="url(#mask0_4150_25824)">
</g>
</svg>
