<svg width="31" height="31" viewBox="0 0 31 31" fill="none" xmlns="http://www.w3.org/2000/svg">
<rect x="0.742188" y="0.25" width="30" height="30" rx="12.35" fill="#F5F5F5"/>
<g clip-path="url(#clip0_990_10454)">
<path d="M23.3254 22.5726V21.6247C23.3254 21.0559 22.9463 20.6768 22.3775 20.6768H9.10669C8.53794 20.6768 8.15877 21.0559 8.15877 21.6247V22.5726H7.21086C6.64211 22.5726 6.26294 22.9518 6.26294 23.5205V24.4684H25.2213V23.5205C25.2213 22.9518 24.8421 22.5726 24.2734 22.5726H23.3254Z" fill="#106FA4"/>
<path opacity="0.3" d="M25.2213 10.2497V11.1976C25.2213 11.7663 24.8421 12.1455 24.2734 12.1455H21.4296C21.9984 12.1455 22.3775 12.5247 22.3775 13.0934C22.3775 13.6622 21.9984 14.0413 21.4296 14.0413V18.7809C21.9984 18.7809 22.3775 19.1601 22.3775 19.7288V20.6767H18.5859V19.7288C18.5859 19.1601 18.965 18.7809 19.5338 18.7809V14.0413C18.965 14.0413 18.5859 13.6622 18.5859 13.0934C18.5859 12.5247 18.965 12.1455 19.5338 12.1455H16.69C17.2588 12.1455 17.6379 12.5247 17.6379 13.0934C17.6379 13.6622 17.2588 14.0413 16.69 14.0413V18.7809C17.2588 18.7809 17.6379 19.1601 17.6379 19.7288V20.6767H13.8463V19.7288C13.8463 19.1601 14.2254 18.7809 14.7942 18.7809V14.0413C14.2254 14.0413 13.8463 13.6622 13.8463 13.0934C13.8463 12.5247 14.2254 12.1455 14.7942 12.1455H11.9504C12.5192 12.1455 12.8984 12.5247 12.8984 13.0934C12.8984 13.6622 12.5192 14.0413 11.9504 14.0413V18.7809C12.5192 18.7809 12.8984 19.1601 12.8984 19.7288V20.6767H9.10669V19.7288C9.10669 19.1601 9.48586 18.7809 10.0546 18.7809V14.0413C9.48586 14.0413 9.10669 13.6622 9.10669 13.0934C9.10669 12.5247 9.48586 12.1455 10.0546 12.1455H7.21086C6.64211 12.1455 6.26294 11.7663 6.26294 11.1976V10.2497L14.7942 5.98403C15.3629 5.69966 16.1213 5.69966 16.7848 5.98403L25.2213 10.2497ZM15.7421 7.40591C14.9838 7.40591 14.3202 8.06945 14.3202 8.82778C14.3202 9.58612 14.9838 10.2497 15.7421 10.2497C16.5004 10.2497 17.164 9.58612 17.164 8.82778C17.164 8.06945 16.5004 7.40591 15.7421 7.40591Z" fill="#106FA4"/>
</g>
<defs>
<clipPath id="clip0_990_10454">
<rect width="22.75" height="22.75" fill="white" transform="translate(4.36719 3.875)"/>
</clipPath>
</defs>
</svg>
