<svg width="20" height="21" viewBox="0 0 20 21" fill="none" xmlns="http://www.w3.org/2000/svg">
<path d="M17.8941 18.0663V17.0879C17.8941 16.5007 17.5028 16.1094 16.9156 16.1094H3.21673C2.62964 16.1094 2.23824 16.5007 2.23824 17.0879V18.0663H1.25975C0.672651 18.0663 0.28125 18.4578 0.28125 19.0448V20.0233H19.8512V19.0448C19.8512 18.4578 19.4597 18.0663 18.8727 18.0663H17.8941Z" fill="#43A7FF"/>
<path opacity="0.3" d="M19.8512 5.34218V6.32066C19.8512 6.9077 19.4597 7.29913 18.8727 7.29913H15.9372C16.5243 7.29913 16.9156 7.69057 16.9156 8.27761C16.9156 8.86476 16.5243 9.25609 15.9372 9.25609V14.1486C16.5243 14.1486 16.9156 14.54 16.9156 15.1271V16.1055H13.0017V15.1271C13.0017 14.54 13.3931 14.1486 13.9802 14.1486V9.25609C13.3931 9.25609 13.0017 8.86476 13.0017 8.27761C13.0017 7.69057 13.3931 7.29913 13.9802 7.29913H11.0447C11.6318 7.29913 12.0231 7.69057 12.0231 8.27761C12.0231 8.86476 11.6318 9.25609 11.0447 9.25609V14.1486C11.6318 14.1486 12.0231 14.54 12.0231 15.1271V16.1055H8.10924V15.1271C8.10924 14.54 8.50056 14.1486 9.08771 14.1486V9.25609C8.50056 9.25609 8.10924 8.86476 8.10924 8.27761C8.10924 7.69057 8.50056 7.29913 9.08771 7.29913H6.15218C6.73933 7.29913 7.13076 7.69057 7.13076 8.27761C7.13076 8.86476 6.73933 9.25609 6.15218 9.25609V14.1486C6.73933 14.1486 7.13076 14.54 7.13076 15.1271V16.1055H3.21673V15.1271C3.21673 14.54 3.60814 14.1486 4.19522 14.1486V9.25609C3.60814 9.25609 3.21673 8.86476 3.21673 8.27761C3.21673 7.69057 3.60814 7.29913 4.19522 7.29913H1.25975C0.672651 7.29913 0.28125 6.9077 0.28125 6.32066V5.34218L9.08771 0.938907C9.67476 0.645364 10.4576 0.645364 11.1425 0.938907L19.8512 5.34218ZM10.0662 2.40665C9.28343 2.40665 8.59842 3.0916 8.59842 3.87439C8.59842 4.65719 9.28343 5.34218 10.0662 5.34218C10.849 5.34218 11.534 4.65719 11.534 3.87439C11.534 3.0916 10.849 2.40665 10.0662 2.40665Z" fill="#43A7FF"/>
</svg>
