<svg width="18" height="21" viewBox="0 0 18 21" fill="none" xmlns="http://www.w3.org/2000/svg">
<path opacity="0.3" d="M14.694 11.4822H8.13798C8.13798 10.8951 7.74665 10.5037 7.1595 10.5037C6.57235 10.5037 6.18092 10.8951 6.18092 11.4822H3.53906L6.18092 6.9811V2.67575C5.59388 2.67575 5.20244 2.28434 5.20244 1.69725C5.20244 1.11015 5.59388 0.71875 6.18092 0.71875H12.052C12.639 0.71875 13.0305 1.11015 13.0305 1.69725C13.0305 2.28434 12.639 2.67575 12.052 2.67575V6.9811L14.694 11.4822ZM10.095 7.56825C9.50789 7.56825 9.11646 7.95958 9.11646 8.54672C9.11646 9.13377 9.50789 9.5252 10.095 9.5252C10.6821 9.5252 11.0735 9.13377 11.0735 8.54672C11.0735 7.95958 10.6821 7.56825 10.095 7.56825Z" fill="#43A7FF"/>
<path d="M15.6734 20.2908H2.46368C0.702387 20.2908 -0.471796 18.3338 0.408854 16.7682L3.44213 11.4844H6.0841C6.0841 12.0714 6.47553 12.4629 7.06257 12.4629C7.64962 12.4629 8.04105 12.0714 8.04105 11.4844H14.597L17.6304 16.7682C18.6089 18.3338 17.5326 20.2908 15.6734 20.2908ZM11.0744 13.4413C9.99811 13.4413 9.11749 14.3221 9.11749 15.3984C9.11749 16.4747 9.99811 17.3553 11.0744 17.3553C12.1508 17.3553 13.0315 16.4747 13.0315 15.3984C13.0315 14.3221 12.1508 13.4413 11.0744 13.4413Z" fill="#43A7FF"/>
</svg>
