<svg width="37" height="37" viewBox="0 0 37 37" fill="none" xmlns="http://www.w3.org/2000/svg">
<g filter="url(#filter0_d_990_10491)">
<path d="M14.1794 3.5985C14.0439 3.3726 13.7997 3.23438 13.5363 3.23438H6.28558C5.70261 3.23438 5.34252 3.87035 5.64246 4.37025L13.7425 17.8702C13.878 18.0962 14.1221 18.2344 14.3856 18.2344H21.6363C22.2193 18.2344 22.5793 17.5984 22.2794 17.0985L14.1794 3.5985Z" fill="#C52229"/>
<path fill-rule="evenodd" clip-rule="evenodd" d="M13.5364 2.48438H6.28564C5.1197 2.48438 4.39953 3.75633 4.9994 4.75612L13.0994 18.2561C13.3705 18.7079 13.8587 18.9844 14.3856 18.9844H21.6364C22.8023 18.9844 23.5225 17.7124 22.9226 16.7126L14.8226 3.21263C14.5515 2.76082 14.0633 2.48438 13.5364 2.48438ZM13.5364 3.23438C13.7998 3.23438 14.0439 3.3726 14.1795 3.5985L22.2795 17.0985C22.5794 17.5984 22.2193 18.2344 21.6364 18.2344H14.3856C14.1222 18.2344 13.8781 18.0962 13.7425 17.8702L5.64252 4.37025C5.34259 3.87035 5.70267 3.23438 6.28564 3.23438H13.5364Z" fill="#9B0F15"/>
<path d="M21.9925 3.5985C22.128 3.3726 22.3721 3.23438 22.6356 3.23438H29.8863C30.4693 3.23438 30.8294 3.87035 30.5294 4.37025L22.4294 17.8702C22.2939 18.0962 22.0497 18.2344 21.7863 18.2344H14.5356C13.9526 18.2344 13.5925 17.5984 13.8925 17.0985L21.9925 3.5985Z" fill="#F1333B"/>
<path fill-rule="evenodd" clip-rule="evenodd" d="M22.6355 2.48438H29.8862C31.0522 2.48438 31.7723 3.75633 31.1725 4.75612L23.0725 18.2561C22.8014 18.7079 22.3131 18.9844 21.7862 18.9844H14.5355C13.3696 18.9844 12.6494 17.7124 13.2493 16.7126L21.3493 3.21263C21.6204 2.76082 22.1086 2.48438 22.6355 2.48438ZM22.6355 3.23438C22.3721 3.23438 22.1279 3.3726 21.9924 3.5985L13.8924 17.0985C13.5925 17.5984 13.9525 18.2344 14.5355 18.2344H21.7862C22.0497 18.2344 22.2938 18.0962 22.4294 17.8702L30.5294 4.37025C30.8293 3.87035 30.4692 3.23438 29.8862 3.23438H22.6355Z" fill="#9B0F15"/>
<path fill-rule="evenodd" clip-rule="evenodd" d="M22.7743 3.66014C22.9534 3.76414 23.0143 3.99363 22.9103 4.17274L19.5353 9.98524C19.4313 10.1643 19.2018 10.2252 19.0227 10.1212C18.8436 10.0172 18.7827 9.78774 18.8867 9.60864L22.2617 3.79614C22.3657 3.61703 22.5952 3.55615 22.7743 3.66014Z" fill="#FE666D"/>
<path fill-rule="evenodd" clip-rule="evenodd" d="M6.27257 3.66014C6.09347 3.76414 6.03258 3.99363 6.13658 4.17274L9.51158 9.98524C9.61558 10.1643 9.84507 10.2252 10.0242 10.1212C10.2033 10.0172 10.2642 9.78774 10.1602 9.60864L6.78517 3.79614C6.68118 3.61703 6.45168 3.55615 6.27257 3.66014Z" fill="#DF3840"/>
<path d="M13.3984 4.46484C13.3984 4.7302 13.1886 4.94531 12.9297 4.94531C12.6708 4.94531 12.4609 4.7302 12.4609 4.46484C12.4609 4.19949 12.6708 3.98438 12.9297 3.98438C13.1886 3.98438 13.3984 4.19949 13.3984 4.46484Z" fill="#AA161D"/>
<path d="M11.7521 4.58203C11.7521 4.91211 11.491 5.17969 11.169 5.17969C10.847 5.17969 10.5859 4.91211 10.5859 4.58203C10.5859 4.25195 10.847 3.98438 11.169 3.98438C11.491 3.98438 11.7521 4.25195 11.7521 4.58203Z" fill="#AA161D"/>
<path d="M13.2111 6.29297C13.2111 6.62305 12.95 6.89062 12.628 6.89062C12.306 6.89062 12.0449 6.62305 12.0449 6.29297C12.0449 5.96289 12.306 5.69531 12.628 5.69531C12.95 5.69531 13.2111 5.96289 13.2111 6.29297Z" fill="#AA161D"/>
<path d="M14.544 5.47852C14.544 5.64355 14.4135 5.77734 14.2525 5.77734C14.0915 5.77734 13.9609 5.64355 13.9609 5.47852C13.9609 5.31348 14.0915 5.17969 14.2525 5.17969C14.4135 5.17969 14.544 5.31348 14.544 5.47852Z" fill="#AA161D"/>
<path d="M11.4605 5.99414C11.4605 6.15918 11.33 6.29297 11.169 6.29297C11.008 6.29297 10.8774 6.15918 10.8774 5.99414C10.8774 5.8291 11.008 5.69531 11.169 5.69531C11.33 5.69531 11.4605 5.8291 11.4605 5.99414Z" fill="#AA161D"/>
<path d="M9.83601 4.16602C9.83601 4.33105 9.70548 4.46484 9.54447 4.46484C9.38346 4.46484 9.25293 4.33105 9.25293 4.16602C9.25293 4.00098 9.38346 3.86719 9.54447 3.86719C9.70548 3.86719 9.83601 4.00098 9.83601 4.16602Z" fill="#AA161D"/>
<path d="M14.2525 7.56445C14.2525 7.72949 14.122 7.86328 13.961 7.86328C13.8 7.86328 13.6694 7.72949 13.6694 7.56445C13.6694 7.39941 13.8 7.26562 13.961 7.26562C14.122 7.26562 14.2525 7.39941 14.2525 7.56445Z" fill="#AA161D"/>
<path d="M12.7525 7.86328C12.7525 8.02832 12.622 8.16211 12.461 8.16211C12.3 8.16211 12.1694 8.02832 12.1694 7.86328C12.1694 7.69824 12.3 7.56445 12.461 7.56445C12.622 7.56445 12.7525 7.69824 12.7525 7.86328Z" fill="#AA161D"/>
<path d="M15.6599 6.7793C15.6599 7.04789 15.4474 7.26562 15.1854 7.26562C14.9234 7.26562 14.7109 7.04789 14.7109 6.7793C14.7109 6.51071 14.9234 6.29297 15.1854 6.29297C15.4474 6.29297 15.6599 6.51071 15.6599 6.7793Z" fill="#AA161D"/>
<path d="M16.2784 8.16211C16.2784 8.32715 16.1479 8.46094 15.9869 8.46094C15.8258 8.46094 15.6953 8.32715 15.6953 8.16211C15.6953 7.99707 15.8258 7.86328 15.9869 7.86328C16.1479 7.86328 16.2784 7.99707 16.2784 8.16211Z" fill="#AA161D"/>
<path d="M28.2109 23.1094C28.2109 28.7013 23.6778 33.2344 18.0859 33.2344C12.4941 33.2344 7.96094 28.7013 7.96094 23.1094C7.96094 17.5175 12.4941 12.9844 18.0859 12.9844C23.6778 12.9844 28.2109 17.5175 28.2109 23.1094Z" fill="#FFBB0D"/>
<path fill-rule="evenodd" clip-rule="evenodd" d="M28.9609 23.1094C28.9609 29.1155 24.092 33.9844 18.0859 33.9844C12.0798 33.9844 7.21094 29.1155 7.21094 23.1094C7.21094 17.1033 12.0798 12.2344 18.0859 12.2344C24.092 12.2344 28.9609 17.1033 28.9609 23.1094ZM18.0859 33.2344C23.6778 33.2344 28.2109 28.7013 28.2109 23.1094C28.2109 17.5175 23.6778 12.9844 18.0859 12.9844C12.4941 12.9844 7.96094 17.5175 7.96094 23.1094C7.96094 28.7013 12.4941 33.2344 18.0859 33.2344Z" fill="#E89B05"/>
<path fill-rule="evenodd" clip-rule="evenodd" d="M8.71094 23.4844C8.50383 23.4844 8.33594 23.3165 8.33594 23.1094C8.33594 17.7246 12.7012 13.3594 18.0859 13.3594C18.293 13.3594 18.4609 13.5273 18.4609 13.7344C18.4609 13.9415 18.293 14.1094 18.0859 14.1094C13.1154 14.1094 9.08594 18.1388 9.08594 23.1094C9.08594 23.3165 8.91804 23.4844 8.71094 23.4844Z" fill="#E8AA0A"/>
<path fill-rule="evenodd" clip-rule="evenodd" d="M27.4609 22.7344C27.668 22.7344 27.8359 22.9023 27.8359 23.1094C27.8359 28.4942 23.4707 32.8594 18.0859 32.8594C17.8788 32.8594 17.7109 32.6915 17.7109 32.4844C17.7109 32.2773 17.8788 32.1094 18.0859 32.1094C23.0565 32.1094 27.0859 28.0799 27.0859 23.1094C27.0859 22.9023 27.2538 22.7344 27.4609 22.7344Z" fill="#E8AA0A"/>
<path d="M25.5859 23.1094C25.5859 27.2515 22.2281 30.6094 18.0859 30.6094C13.9438 30.6094 10.5859 27.2515 10.5859 23.1094C10.5859 18.9672 13.9438 15.6094 18.0859 15.6094C22.2281 15.6094 25.5859 18.9672 25.5859 23.1094Z" fill="#FFDD28"/>
<path fill-rule="evenodd" clip-rule="evenodd" d="M26.3359 23.1094C26.3359 27.6657 22.6423 31.3594 18.0859 31.3594C13.5296 31.3594 9.83594 27.6657 9.83594 23.1094C9.83594 18.553 13.5296 14.8594 18.0859 14.8594C22.6423 14.8594 26.3359 18.553 26.3359 23.1094ZM18.0859 30.6094C22.2281 30.6094 25.5859 27.2515 25.5859 23.1094C25.5859 18.9672 22.2281 15.6094 18.0859 15.6094C13.9438 15.6094 10.5859 18.9672 10.5859 23.1094C10.5859 27.2515 13.9438 30.6094 18.0859 30.6094Z" fill="#E89B05"/>
<path fill-rule="evenodd" clip-rule="evenodd" d="M18.0859 29.4844C21.6068 29.4844 24.4609 26.6302 24.4609 23.1094C24.4609 22.9023 24.6288 22.7344 24.8359 22.7344C25.043 22.7344 25.2109 22.9023 25.2109 23.1094C25.2109 27.0444 22.021 30.2344 18.0859 30.2344C17.8788 30.2344 17.7109 30.0665 17.7109 29.8594C17.7109 29.6523 17.8788 29.4844 18.0859 29.4844Z" fill="#ECC704"/>
<path fill-rule="evenodd" clip-rule="evenodd" d="M18.0859 16.7344C14.5651 16.7344 11.7109 19.5886 11.7109 23.1094C11.7109 23.3165 11.543 23.4844 11.3359 23.4844C11.1288 23.4844 10.9609 23.3165 10.9609 23.1094C10.9609 19.1743 14.1509 15.9844 18.0859 15.9844C18.293 15.9844 18.4609 16.1523 18.4609 16.3594C18.4609 16.5665 18.293 16.7344 18.0859 16.7344Z" fill="#FFEF9C"/>
<path d="M18.981 26.1094H17.7109V21.2139L16.1948 21.6841V20.6514L18.8447 19.7021H18.981V26.1094Z" fill="#FFEF9C"/>
<path fill-rule="evenodd" clip-rule="evenodd" d="M19.731 26.1094C19.731 26.5236 19.3952 26.8594 18.981 26.8594H17.7109C17.2967 26.8594 16.9609 26.5236 16.9609 26.1094V22.2317L16.417 22.4004C16.1894 22.471 15.9418 22.4292 15.7499 22.2879C15.5581 22.1465 15.4448 21.9224 15.4448 21.6841V20.6514C15.4448 20.3347 15.6438 20.0521 15.9419 19.9453L18.5918 18.9961C18.673 18.967 18.7585 18.9521 18.8447 18.9521H18.981C19.3952 18.9521 19.731 19.2879 19.731 19.7021V26.1094ZM17.7109 21.2139V26.1094H18.981V19.7021H18.8447L16.1948 20.6514V21.6841L17.7109 21.2139Z" fill="#E89B05"/>
</g>
<defs>
<filter id="filter0_d_990_10491" x="0.0859375" y="0.234375" width="38" height="38" filterUnits="userSpaceOnUse" color-interpolation-filters="sRGB">
<feFlood flood-opacity="0" result="BackgroundImageFix"/>
<feColorMatrix in="SourceAlpha" type="matrix" values="0 0 0 0 0 0 0 0 0 0 0 0 0 0 0 0 0 0 127 0" result="hardAlpha"/>
<feOffset dx="2" dy="2"/>
<feColorMatrix type="matrix" values="0 0 0 0 0.637788 0 0 0 0 0.545996 0 0 0 0 0.47948 0 0 0 0.2 0"/>
<feBlend mode="normal" in2="BackgroundImageFix" result="effect1_dropShadow_990_10491"/>
<feBlend mode="normal" in="SourceGraphic" in2="effect1_dropShadow_990_10491" result="shape"/>
</filter>
</defs>
</svg>
