<svg width="286" height="286" viewBox="0 0 286 286" fill="none" xmlns="http://www.w3.org/2000/svg">
<path d="M143 276.688C217.143 276.688 277.249 240.935 277.249 196.831C277.249 152.727 217.143 116.974 143 116.974C68.8568 116.974 8.75171 152.727 8.75171 196.831C8.75171 240.935 68.8568 276.688 143 276.688Z" fill="#F5F5F5"/>
<path d="M245.662 208.488L271.248 193.742C271.379 193.698 271.492 193.614 271.572 193.503C271.653 193.391 271.696 193.256 271.696 193.119C271.696 192.981 271.653 192.847 271.572 192.735C271.492 192.623 271.379 192.539 271.248 192.495L208.008 155.847C207.675 155.678 207.306 155.59 206.932 155.59C206.559 155.59 206.19 155.678 205.857 155.847L180.266 170.593C180.135 170.637 180.022 170.721 179.941 170.833C179.861 170.945 179.818 171.079 179.818 171.217C179.818 171.355 179.861 171.489 179.941 171.601C180.022 171.713 180.135 171.796 180.266 171.84L243.506 208.488C243.84 208.658 244.21 208.746 244.584 208.746C244.959 208.746 245.328 208.658 245.662 208.488Z" fill="#E6E6E6"/>
<path d="M204.896 193.851C182.805 181.095 141.404 184.321 112.415 201.058L100.449 207.968C71.4656 224.699 65.8714 248.608 87.9678 261.364C110.064 274.12 151.46 270.894 180.454 254.157L192.415 247.253C221.398 230.516 226.992 206.612 204.896 193.851Z" fill="#E0E0E0"/>
<path d="M99.4765 182.771L59.0761 159.468C58.0911 158.966 57.0013 158.705 55.8958 158.705C54.7903 158.705 53.7005 158.966 52.7155 159.468L18.058 179.568C16.302 180.592 16.302 182.239 18.058 183.252L58.4526 206.561C59.4377 207.062 60.5275 207.324 61.633 207.324C62.7384 207.324 63.8282 207.062 64.8133 206.561L99.4822 186.472C101.244 185.437 101.244 183.789 99.4765 182.771Z" fill="#E0E0E0"/>
<path d="M240.246 194.223L242.442 205.125L244.581 206.36L246.698 205.136L248.917 194.223L244.581 191.723L240.246 194.223Z" fill="#E0E0E0"/>
<path opacity="0.05" d="M240.246 194.223L242.442 205.125L244.581 206.36L246.698 205.136L248.917 194.223L244.581 191.723L240.246 194.223Z" fill="black"/>
<path d="M244.581 206.36V196.728L240.246 194.223L242.442 205.125L244.581 206.36Z" fill="#EBEBEB"/>
<path opacity="0.05" d="M240.246 194.223L241.664 201.264L244.581 202.951L247.481 201.275L248.917 194.223L244.581 191.723L240.246 194.223Z" fill="black"/>
<path d="M259.305 183.223L261.501 194.125L263.64 195.361L265.757 194.137L267.971 183.223L263.64 180.718L259.305 183.223Z" fill="#E0E0E0"/>
<path opacity="0.05" d="M259.305 183.223L261.501 194.125L263.64 195.361L265.757 194.137L267.971 183.223L263.64 180.718L259.305 183.223Z" fill="black"/>
<path d="M263.64 195.361V185.723L259.305 183.223L261.501 194.125L263.64 195.361Z" fill="#EBEBEB"/>
<path opacity="0.05" d="M259.305 183.223L260.723 190.264L263.64 191.946L266.541 190.27L267.971 183.223L263.64 180.718L259.305 183.223Z" fill="black"/>
<path opacity="0.05" d="M183.875 161.676L186.071 172.578L188.205 173.814L190.327 172.59L192.541 161.676L188.205 159.176L183.875 161.676Z" fill="black"/>
<path d="M188.205 173.814V164.175L183.875 161.676L186.071 172.578L188.205 173.814Z" fill="#EBEBEB"/>
<path opacity="0.05" d="M183.875 161.676L185.294 168.717L188.205 170.399L191.111 168.723L192.541 161.676L188.205 159.176L183.875 161.676Z" fill="black"/>
<path d="M244.581 201.19L268.199 187.553V136.439L244.581 150.07V201.19Z" fill="#E0E0E0"/>
<path d="M244.581 150.07L182.645 114.314V165.428L244.581 201.19V150.07Z" fill="#EBEBEB"/>
<path d="M182.645 114.314L244.581 150.07L268.199 136.439L206.263 100.678L182.645 114.314Z" fill="#F5F5F5"/>
<path d="M241.207 175.392L186.02 143.532V162.294L185.396 162.648L240.589 194.514L241.207 194.154V175.392Z" fill="#E0E0E0"/>
<path d="M240.589 175.753L185.396 143.892V162.648L240.589 194.514V175.753Z" fill="#F5F5F5"/>
<path d="M214.054 163.981L209.478 161.327C208.877 160.984 208.397 161.144 208.397 161.681C208.44 162.013 208.56 162.331 208.748 162.608C208.936 162.885 209.186 163.114 209.478 163.277L214.054 165.926C214.626 166.269 215.135 166.114 215.135 165.577C215.09 165.245 214.97 164.929 214.782 164.652C214.594 164.375 214.345 164.145 214.054 163.981Z" fill="#E0E0E0"/>
<path d="M241.207 152.741L186.02 120.881V139.637L185.402 139.997L240.589 171.863L241.207 171.503V152.741Z" fill="#E0E0E0"/>
<path d="M240.589 153.102L185.396 121.235L185.402 139.997L240.589 171.863V153.102Z" fill="#F5F5F5"/>
<path d="M214.054 141.33L209.478 138.676C208.906 138.333 208.397 138.493 208.397 139.03C208.441 139.362 208.562 139.679 208.75 139.955C208.937 140.232 209.186 140.462 209.478 140.626L214.054 143.275C214.626 143.618 215.135 143.463 215.135 142.926C215.09 142.594 214.97 142.278 214.782 142.001C214.594 141.724 214.345 141.494 214.054 141.33Z" fill="#E0E0E0"/>
<path d="M198.352 107.261C195.492 108.914 195.492 111.591 198.352 113.245C201.212 114.898 205.857 114.898 208.723 113.245C211.588 111.591 211.583 108.914 208.723 107.261C205.863 105.608 201.218 105.608 198.352 107.261Z" fill="#E0E0E0"/>
<path d="M208.099 110.625C210.593 108.079 212.057 101.724 209.621 99.7111H197.248C194.817 101.724 196.282 108.074 198.776 110.619L198.839 110.693L198.924 110.774C198.999 110.842 199.073 110.911 199.153 110.974L199.21 111.019L199.399 111.162C199.502 111.239 199.611 111.308 199.725 111.368C200.877 111.954 202.151 112.259 203.443 112.259C204.735 112.259 206.009 111.954 207.161 111.368C207.274 111.306 207.382 111.237 207.487 111.162C207.547 111.122 207.604 111.078 207.659 111.031L207.733 110.974C207.813 110.911 207.882 110.842 207.95 110.779L208.053 110.682L208.099 110.625Z" fill="#EBEBEB"/>
<path d="M198.324 98.8989C195.498 100.523 195.498 103.172 198.324 104.802C201.149 106.432 205.725 106.432 208.545 104.802C211.365 103.172 211.371 100.523 208.545 98.8989C205.72 97.2744 201.149 97.2687 198.324 98.8989Z" fill="#FAFAFA"/>
<path d="M200.326 100.054C198.61 101.044 198.61 102.651 200.326 103.641C201.29 104.131 202.356 104.386 203.437 104.386C204.519 104.386 205.585 104.131 206.549 103.641C208.265 102.651 208.265 101.044 206.549 100.054C205.585 99.5639 204.519 99.3083 203.437 99.3083C202.356 99.3083 201.29 99.5639 200.326 100.054Z" fill="#F5F5F5"/>
<path d="M206.543 101.759C205.58 101.269 204.515 101.014 203.435 101.014C202.354 101.014 201.289 101.269 200.326 101.759C199.909 101.982 199.555 102.307 199.296 102.703C199.557 103.095 199.91 103.418 200.326 103.641C201.289 104.13 202.354 104.385 203.435 104.385C204.515 104.385 205.58 104.13 206.543 103.641C206.96 103.419 207.314 103.097 207.573 102.703C207.316 102.305 206.961 101.981 206.543 101.759Z" fill="#EBEBEB"/>
<path d="M200.703 102.703C199.826 101.808 199.07 100.802 198.455 99.711C197.414 97.8692 197.225 95.4096 197.763 95.135C198.301 94.8605 200.486 97.24 200.486 97.24C200.286 96.2078 200.21 95.1557 200.257 94.1054C200.349 92.4695 200.743 90.9823 201.212 90.6734C201.681 90.3646 202.728 92.4409 203.18 93.9338C203.632 95.4268 203.901 96.6623 203.901 96.6623C204.08 95.499 204.349 94.3515 204.707 93.2303C205.251 91.6802 205.742 91.3255 206.126 91.4799C206.509 91.6344 206.766 92.3551 206.875 94.4258C206.917 95.4143 206.886 96.4046 206.784 97.3887C206.784 97.3887 207.556 96.5422 208.414 95.7185C209.272 94.8948 209.752 94.6889 210.021 94.8605C210.29 95.0321 210.364 96.4392 208.911 99.0704C208.186 100.412 207.258 101.633 206.16 102.691C206.16 102.691 204.147 104.001 200.703 102.703Z" fill="#E0E0E0"/>
<path d="M241.453 139.11L240.532 139.557L223.498 129.724L224.418 129.278L241.453 139.11Z" fill="#FAFAFA"/>
<path d="M224.418 129.278L240.623 138.63L242.98 114.394L226.775 105.048L224.418 129.278Z" fill="white"/>
<path d="M221.764 130.53L241.956 142.171L244.736 113.571L224.567 101.925L221.764 130.53ZM225.94 104.562L242.98 114.4L240.532 139.568L223.498 129.735L225.94 104.562Z" fill="#F0F0F0"/>
<path d="M223.498 129.724L224.418 129.278L226.775 105.048L225.946 104.562L223.498 129.724Z" fill="#E0E0E0"/>
<path d="M224.544 101.942L225.477 101.513L245.646 113.153L244.713 113.588L224.544 101.942Z" fill="#FAFAFA"/>
<path d="M245.645 113.153L244.713 113.588L241.933 142.171L242.865 141.742L245.645 113.153Z" fill="#E0E0E0"/>
<path d="M225.134 128.82L240.068 137.44L240.469 133.362L237.689 121.367L235.041 125.457L235.59 128.906L231.174 116.179L225.528 124.736L225.134 128.82Z" fill="#F0F0F0"/>
<path d="M237.918 116.316C238.229 116.51 238.485 116.782 238.658 117.105C238.832 117.428 238.918 117.791 238.907 118.158C238.839 118.827 238.295 119.085 237.683 118.73C237.372 118.535 237.117 118.262 236.943 117.938C236.769 117.614 236.683 117.25 236.694 116.882C236.762 116.219 237.306 115.962 237.918 116.316Z" fill="#F0F0F0"/>
<path d="M214.883 212.527C214.883 222.925 205.731 234.394 190.476 243.22L178.727 250.004C162.831 259.156 142.651 264.441 123.34 264.441C109.955 264.441 98.4754 261.89 90.1643 257.08C82.2135 252.504 78.0093 246.303 78.0093 239.199C78.0093 228.8 87.1613 217.331 102.417 208.511L114.171 201.721C130.061 192.569 150.253 187.284 169.564 187.284C182.937 187.284 194.417 189.835 202.74 194.652C210.679 199.239 214.883 205.422 214.883 212.527Z" fill="#43A7FF"/>
<path d="M123.335 264.441C109.955 264.441 98.4754 261.89 90.1586 257.08C82.2078 252.504 78.0093 246.303 78.0093 239.199C78.0093 228.806 87.1327 217.331 102.417 208.505L114.165 201.727C130.056 192.575 150.241 187.29 169.552 187.29C182.931 187.29 194.411 189.835 202.728 194.646C210.679 199.222 214.883 205.422 214.883 212.526C214.883 222.92 205.731 234.394 190.476 243.22L178.727 250.004C162.837 259.156 142.645 264.441 123.34 264.441H123.335Z" fill="#43A7FF"/>
<path opacity="0.7" d="M214.883 212.527C214.883 222.925 205.731 234.394 190.476 243.22L178.727 250.004C162.831 259.156 142.651 264.441 123.34 264.441C109.955 264.441 98.4754 261.89 90.1643 257.08C82.2135 252.504 78.0093 246.303 78.0093 239.199C78.0093 228.8 87.1613 217.331 102.417 208.511L114.171 201.721C130.061 192.569 150.253 187.284 169.564 187.284C182.937 187.284 194.417 189.835 202.74 194.652C210.679 199.239 214.883 205.422 214.883 212.527Z" fill="white"/>
<path d="M128.591 256.038C118.187 256.038 109.252 254.054 102.754 250.318C96.4906 246.703 93.1787 241.813 93.1787 236.184C93.1787 228.016 100.3 219.024 112.226 212.16L121.304 206.921C133.636 199.799 149.303 195.715 164.284 195.715C174.689 195.715 183.623 197.7 190.121 201.435C196.385 205.05 199.697 209.941 199.697 215.569C199.697 223.738 192.581 232.729 180.655 239.593L171.6 244.816C159.239 251.954 143.572 256.038 128.591 256.038ZM128.591 255.295C143.463 255.295 158.976 251.251 171.2 244.192L180.277 238.953C191.969 232.203 198.947 223.457 198.947 215.558C198.947 210.21 195.767 205.542 189.744 202.065C183.355 198.381 174.551 196.43 164.278 196.43C149.406 196.43 133.894 200.48 121.67 207.533L112.592 212.784C100.895 219.539 93.9166 228.279 93.9166 236.179C93.9166 241.527 97.0969 246.194 103.12 249.672C109.509 253.344 118.312 255.295 128.586 255.295H128.591Z" fill="white"/>
<path opacity="0.3" d="M132.012 249.964C123.661 249.964 116.488 248.374 111.282 245.388C106.318 242.528 103.698 238.661 103.698 234.223C103.698 227.736 109.418 220.569 118.936 215.061L126.269 210.828C136.193 205.108 148.8 201.813 160.852 201.813C169.209 201.813 176.376 203.403 181.581 206.389C186.546 209.249 189.172 213.116 189.172 217.554C189.172 224.047 183.452 231.208 173.928 236.716L166.595 240.949C156.671 246.669 144.07 249.964 132.012 249.964Z" fill="#43A7FF"/>
<path opacity="0.4" d="M135.438 244.244C129.066 244.244 123.603 243.031 119.634 240.743C115.847 238.524 113.828 235.595 113.828 232.232C113.828 227.284 118.175 221.827 125.451 217.623L131.039 214.397C138.607 210.027 148.199 207.533 157.414 207.533C163.781 207.533 169.243 208.746 173.219 211.039C177 213.224 179.002 216.187 179.002 219.551C179.002 224.498 174.66 229.961 167.384 234.16L161.807 237.38C154.24 241.744 144.647 244.244 135.438 244.244Z" fill="white"/>
<path d="M203.844 192.718C182.148 180.191 141.496 183.36 113.027 199.788L101.273 206.572C72.8155 223.006 67.3243 246.486 89.0203 259.013C110.716 271.54 151.368 268.371 179.842 251.937L191.62 245.153C220.048 228.72 225.54 205.245 203.844 192.718ZM190.476 243.22L178.727 250.004C162.831 259.156 142.651 264.441 123.34 264.441C109.955 264.441 98.4754 261.89 90.1643 257.08C82.2135 252.504 78.0093 246.303 78.0093 239.199C78.0093 228.8 87.1613 217.331 102.417 208.511L114.171 201.721C130.061 192.569 150.253 187.284 169.564 187.284C182.937 187.284 194.417 189.835 202.74 194.652C210.69 199.228 214.895 205.422 214.895 212.527C214.883 222.925 205.754 234.394 190.476 243.22Z" fill="#43A7FF"/>
<path opacity="0.3" d="M203.844 192.718C182.148 180.191 141.496 183.36 113.027 199.788L101.273 206.572C72.8155 223.006 67.3243 246.486 89.0203 259.013C110.716 271.54 151.368 268.371 179.842 251.937L191.62 245.153C220.048 228.72 225.54 205.245 203.844 192.718ZM190.476 243.22L178.727 250.004C162.831 259.156 142.651 264.441 123.34 264.441C109.955 264.441 98.4754 261.89 90.1643 257.08C82.2135 252.504 78.0093 246.303 78.0093 239.199C78.0093 228.8 87.1613 217.331 102.417 208.511L114.171 201.721C130.061 192.569 150.253 187.284 169.564 187.284C182.937 187.284 194.417 189.835 202.74 194.652C210.69 199.228 214.895 205.422 214.895 212.527C214.883 222.925 205.754 234.394 190.476 243.22Z" fill="white"/>
<path d="M92.4811 187.027L86.4236 183.526L92.4811 181.776V187.027Z" fill="#43A7FF"/>
<path opacity="0.6" d="M92.4811 187.027L86.4236 183.526L92.4811 181.776V187.027Z" fill="white"/>
<path opacity="0.05" d="M92.4811 187.027L86.4236 183.526L92.4811 181.776V187.027Z" fill="black"/>
<path d="M92.481 187.027L95.5126 185.277V180.026L92.481 181.776V187.027Z" fill="#43A7FF"/>
<path opacity="0.75" d="M92.481 187.027L95.5126 185.277V180.026L92.481 181.776V187.027Z" fill="white"/>
<path d="M62.1191 199.308V204.89L26.2375 184.138V178.561L62.1191 199.308Z" fill="#43A7FF"/>
<path opacity="0.6" d="M62.1191 199.308V204.89L26.2375 184.138V178.561L62.1191 199.308Z" fill="white"/>
<path opacity="0.1" d="M62.1191 199.308V204.89L26.2375 184.138V178.561L62.1191 199.308Z" fill="black"/>
<path d="M62.1191 204.89L65.1507 203.14V197.557L62.1191 199.308V204.89Z" fill="#43A7FF"/>
<path opacity="0.75" d="M62.1191 204.89L65.1507 203.14V197.557L62.1191 199.308V204.89Z" fill="white"/>
<path d="M23.2061 134.815L59.0876 155.561V201.058L23.2061 180.312V134.815Z" fill="#43A7FF"/>
<path opacity="0.6" d="M23.2061 134.815L59.0876 155.561V201.058L23.2061 180.312V134.815Z" fill="white"/>
<path d="M59.0876 155.561L98.5442 132.778V178.281L59.0876 201.058V155.561Z" fill="#43A7FF"/>
<path opacity="0.75" d="M59.0876 155.561L98.5442 132.778V178.281L59.0876 201.058V155.561Z" fill="white"/>
<path d="M98.5442 132.778L62.6626 112.032L23.2061 134.815L59.0876 155.561L98.5442 132.778Z" fill="#43A7FF"/>
<path opacity="0.85" d="M98.5442 132.778L62.6626 112.032L23.2061 134.815L59.0876 155.561L98.5442 132.778Z" fill="white"/>
<path d="M62.1191 171.308L95.5125 152.032V176.531L62.1191 195.807V171.308Z" fill="#43A7FF"/>
<path opacity="0.6" d="M62.1191 171.308L95.5125 152.032V176.531L62.1191 195.807V171.308Z" fill="white"/>
<path opacity="0.1" d="M95.5125 176.531L74.44 164.198L62.1191 171.308V195.807L95.5125 176.531Z" fill="black"/>
<path opacity="0.05" d="M95.5127 176.531L74.4402 164.198L95.5127 152.032V176.531Z" fill="black"/>
<path d="M62.1191 157.312L95.5125 138.029V148.531L62.1191 167.813V157.312Z" fill="#43A7FF"/>
<path opacity="0.85" d="M62.1191 157.312L95.5125 138.029V148.531L62.1191 167.813V157.312Z" fill="white"/>
<path d="M72.4668 153.548C72.4668 154.028 73.914 153.588 75.6986 152.558L81.3614 149.286C83.146 148.257 84.5932 147.033 84.5932 146.546V145.671L72.4668 152.673V153.548Z" fill="#455A64"/>
<path d="M40.7893 137.251L41.6759 137.68L58.1381 128.174L57.2457 127.75L40.7893 137.251Z" fill="#43A7FF"/>
<path opacity="0.2" d="M40.7893 137.251L41.6759 137.68L58.1381 128.174L57.2457 127.75L40.7893 137.251Z" fill="black"/>
<path d="M57.2459 127.75L41.5903 136.788L39.3137 113.365L54.9694 104.333L57.2459 127.75Z" fill="#43A7FF"/>
<g opacity="0.8">
<path d="M57.2459 127.75L41.5903 136.788L39.3137 113.365L54.9694 104.333L57.2459 127.75Z" fill="white"/>
</g>
<path d="M57.1257 101.336L37.6377 112.587L40.3261 140.209L59.8084 128.957L57.1257 101.336ZM58.1382 128.174L41.676 137.68L39.3137 113.365L55.7701 103.864L58.1382 128.174Z" fill="#43A7FF"/>
<path d="M57.1257 101.336L37.6377 112.587L40.3261 140.209L59.8084 128.957L57.1257 101.336ZM58.1382 128.174L41.676 137.68L39.3137 113.365L55.7701 103.864L58.1382 128.174Z" fill="#43A7FF"/>
<path d="M58.1381 128.174L57.2458 127.75L54.9692 104.333L55.77 103.864L58.1381 128.174Z" fill="#43A7FF"/>
<path opacity="0.35" d="M58.1381 128.174L57.2458 127.75L54.9692 104.333L55.77 103.864L58.1381 128.174Z" fill="black"/>
<path d="M57.1257 101.336L56.2219 100.918L36.7339 112.169L37.6376 112.587L57.1257 101.336Z" fill="#43A7FF"/>
<path opacity="0.6" d="M57.1257 101.336L56.2219 100.918L36.7339 112.169L37.6376 112.587L57.1257 101.336Z" fill="white"/>
<path d="M36.7339 112.169L37.6376 112.587L40.326 140.209L39.4223 139.791L36.7339 112.169Z" fill="#43A7FF"/>
<path opacity="0.35" d="M36.7339 112.169L37.6376 112.587L40.326 140.209L39.4223 139.791L36.7339 112.169Z" fill="black"/>
<path d="M56.5593 127.304L42.122 135.638L41.7388 131.691L44.4272 120.103L46.984 124.055L46.452 127.39L50.7192 115.092L56.176 123.357L56.5593 127.304Z" fill="#43A7FF"/>
<path d="M44.2041 115.218C43.9031 115.406 43.6566 115.67 43.4891 115.983C43.3215 116.296 43.2387 116.648 43.2489 117.003C43.3118 117.649 43.8209 117.895 44.4272 117.575C44.729 117.388 44.9762 117.126 45.1439 116.813C45.3117 116.501 45.3939 116.15 45.3824 115.796C45.3195 115.126 44.7933 114.88 44.2041 115.218Z" fill="#43A7FF"/>
<path opacity="0.05" d="M71.4371 130.885C74.2971 132.527 74.2971 135.186 71.4371 136.828C68.5771 138.47 64.0011 138.47 61.1411 136.828C58.2811 135.186 58.2811 132.527 61.1411 130.885C64.0011 129.243 68.5943 129.272 71.4371 130.885Z" fill="black"/>
<path d="M61.6673 135.026C59.1905 132.498 57.7376 126.195 60.1515 124.193H72.4323C74.8462 126.195 73.3933 132.498 70.9222 135.021L70.8536 135.095L70.7678 135.175C70.6975 135.246 70.623 135.313 70.5447 135.375L70.4818 135.421L70.2988 135.564C70.1959 135.637 70.089 135.704 69.9784 135.764C68.8363 136.345 67.5732 136.648 66.2919 136.648C65.0106 136.648 63.7475 136.345 62.6054 135.764C62.4928 135.705 62.3856 135.636 62.285 135.558L62.1077 135.432L62.0391 135.37C61.959 135.307 61.8904 135.244 61.8217 135.181L61.7245 135.084L61.6673 135.026Z" fill="#F5F5F5"/>
<path d="M71.3627 123.232C74.1655 124.85 74.1655 127.476 71.3627 129.089C68.5599 130.702 64.0182 130.708 61.2154 129.089C58.4126 127.47 58.4184 124.85 61.2154 123.232C64.0125 121.613 68.5656 121.613 71.3627 123.232Z" fill="white"/>
<path d="M69.3778 124.381C71.0938 125.365 71.0938 126.961 69.3778 127.945C68.4214 128.43 67.3642 128.682 66.2919 128.682C65.2196 128.682 64.1623 128.43 63.2059 127.945C61.4899 126.961 61.4899 125.365 63.2059 124.381C64.1623 123.896 65.2196 123.644 66.2919 123.644C67.3642 123.644 68.4214 123.896 69.3778 124.381Z" fill="#EBEBEB"/>
<path d="M63.206 126.069C64.1624 125.584 65.2196 125.331 66.2919 125.331C67.3643 125.331 68.4215 125.584 69.3779 126.069C69.7911 126.293 70.1427 126.615 70.4018 127.007C70.1427 127.399 69.7911 127.721 69.3779 127.945C68.4215 128.43 67.3643 128.683 66.2919 128.683C65.2196 128.683 64.1624 128.43 63.206 127.945C62.7928 127.721 62.4412 127.399 62.1821 127.007C62.4412 126.615 62.7928 126.293 63.206 126.069Z" fill="#E0E0E0"/>
<path d="M69.0004 126.984C69.8739 126.098 70.6259 125.099 71.2369 124.015C72.2665 122.191 72.4553 119.748 71.9233 119.439C71.3913 119.13 69.212 121.607 69.212 121.607C69.4078 120.582 69.4827 119.538 69.4351 118.495C69.3493 116.871 68.9489 115.395 68.4856 115.098C68.0223 114.8 66.9812 116.848 66.5351 118.33C66.0889 119.811 65.8201 121.035 65.8201 121.035C65.6421 119.872 65.3744 118.725 65.0193 117.603C64.4816 116.064 63.9897 115.716 63.6064 115.887C63.2232 116.059 62.9772 116.762 62.8628 118.816C62.8246 119.795 62.8552 120.775 62.9543 121.75C62.9543 121.75 62.1936 120.909 61.3413 120.091C60.489 119.273 60.0085 119.073 59.7454 119.245C59.4823 119.416 59.4022 120.812 60.8494 123.426C61.5662 124.755 62.4847 125.965 63.5721 127.013C63.5721 127.013 65.5855 128.3 69.0004 126.984Z" fill="#43A7FF"/>
<path opacity="0.2" d="M69.0004 126.984C69.8739 126.098 70.6259 125.099 71.2369 124.015C72.2665 122.191 72.4553 119.748 71.9233 119.439C71.3913 119.13 69.212 121.607 69.212 121.607C69.4078 120.582 69.4827 119.538 69.4351 118.495C69.3493 116.871 68.9489 115.395 68.4856 115.098C68.0223 114.8 66.9812 116.848 66.5351 118.33C66.0889 119.811 65.8201 121.035 65.8201 121.035C65.6421 119.872 65.3744 118.725 65.0193 117.603C64.4816 116.064 63.9897 115.716 63.6064 115.887C63.2232 116.059 62.9772 116.762 62.8628 118.816C62.8246 119.795 62.8552 120.775 62.9543 121.75C62.9543 121.75 62.1936 120.909 61.3413 120.091C60.489 119.273 60.0085 119.073 59.7454 119.245C59.4823 119.416 59.4022 120.812 60.8494 123.426C61.5662 124.755 62.4847 125.965 63.5721 127.013C63.5721 127.013 65.5855 128.3 69.0004 126.984Z" fill="black"/>
<path d="M267.479 108.388L265.677 109.458L198.427 70.4474L200.223 69.3778L267.479 108.388Z" fill="#FAFAFA"/>
<path d="M200.223 69.3778L265.677 107.341V57.1313L200.223 19.1791V69.3778Z" fill="white"/>
<path d="M232.901 36.2304V88.5512L229.509 86.5893V34.2684L232.901 36.2304Z" fill="#F0F0F0"/>
<path d="M234.6 35.2408L232.901 36.2304V88.5512L234.6 87.5674V35.2408Z" fill="#E0E0E0"/>
<path d="M195.052 72.4094L269.097 115.309V55.1751L195.052 12.2465V72.4094ZM198.45 18.1209L265.7 57.1313V109.458L198.427 70.4475L198.45 18.1209Z" fill="#F0F0F0"/>
<path d="M198.427 70.4474L200.223 69.3778V19.179L198.427 18.1208V70.4474Z" fill="#E0E0E0"/>
<path d="M195.029 12.2465L196.859 11.1997L270.899 54.1283L269.074 55.1751L195.029 12.2465Z" fill="#FAFAFA"/>
<path d="M270.899 54.1283L269.074 55.1751L269.069 115.332L270.899 114.291V54.1283Z" fill="#E0E0E0"/>
<path d="M232.901 38.181L229.515 36.2305V38.1867L232.901 40.1429V38.181Z" fill="#E0E0E0"/>
<path opacity="0.15" d="M232.901 40.1429L234.594 39.159L232.901 38.1809V40.1429Z" fill="black"/>
<path d="M27.6047 83.0086L28.6172 83.6149L49.4723 71.5686L48.4599 70.9623L27.6047 83.0086Z" fill="#FAFAFA"/>
<path d="M48.4599 70.9622L28.6172 82.4136V61.6386L48.4599 50.1929V70.9622Z" fill="white"/>
<path d="M51.3942 46.2747L26.7009 60.5346V86.9439L51.3942 72.6896V46.2747ZM49.4722 71.5685L28.6 83.6091V61.6386L49.4722 49.598V71.5685Z" fill="#F0F0F0"/>
<path d="M49.4724 71.5685L48.46 70.9622V50.1929L49.4724 49.598V71.5685Z" fill="#E0E0E0"/>
<path d="M51.3942 46.2804L50.3589 45.6855L25.6714 59.9455L26.701 60.5347L51.3942 46.2804Z" fill="#FAFAFA"/>
<path d="M25.6714 59.9456L26.701 60.5347V86.9325L25.6714 86.3434V59.9456Z" fill="#E0E0E0"/>
<path d="M47.6819 70.3444L29.395 80.9035V75.624L33.9653 65.0649L36.8139 67.7018L35.79 72.1291L42.1049 58.6241L47.6819 65.0649V70.3444Z" fill="#F0F0F0"/>
<path d="M36.6422 59.9627C36.2484 60.2197 35.9209 60.566 35.6863 60.9736C35.4517 61.3811 35.3167 61.8383 35.2922 62.3079C35.2922 63.1716 35.8642 63.5205 36.6422 63.0858C37.0369 62.8307 37.3655 62.4857 37.6012 62.079C37.8368 61.6723 37.9727 61.2156 37.9978 60.7463C37.9978 59.8826 37.3915 59.5337 36.6422 59.9627Z" fill="#F0F0F0"/>
<path d="M62.9944 56.1876L64.0125 56.7939L84.8677 44.7476L83.8495 44.1412L62.9944 56.1876Z" fill="#FAFAFA"/>
<path d="M83.8494 44.1412L64.0125 55.5983V34.8176L83.8494 23.3776V44.1412Z" fill="white"/>
<path d="M86.7838 19.448L62.0906 33.7137V60.1115L86.7838 45.8572V19.448ZM84.8676 44.7361L64.0068 56.7939V34.8176L84.8619 22.8056L84.8676 44.7361Z" fill="#F0F0F0"/>
<path d="M84.8678 44.7475L83.8496 44.1412V23.3776L84.8678 22.777V44.7475Z" fill="#E0E0E0"/>
<path d="M86.7839 19.4594L85.7486 18.8645L61.061 33.1245L62.0906 33.7136L86.7839 19.4594Z" fill="#FAFAFA"/>
<path d="M61.061 33.1245L62.0906 33.7137V60.1115L61.061 59.5223V33.1245Z" fill="#E0E0E0"/>
<path d="M83.0772 43.5234L64.7847 54.0825V48.8029L69.3549 38.2438L72.2035 40.8807L71.1796 45.308L77.4945 31.8031L83.0772 38.2438V43.5234Z" fill="#F0F0F0"/>
<path d="M72.0318 33.1416C71.639 33.3996 71.3122 33.7462 71.0777 34.1536C70.8433 34.5609 70.7077 35.0176 70.6819 35.4868C70.6819 36.3506 71.2882 36.6995 72.0318 36.2705C72.426 36.0134 72.7542 35.6672 72.9897 35.2598C73.2252 34.8523 73.3615 34.3952 73.3874 33.9253C73.3874 33.0616 72.7811 32.7126 72.0318 33.1416Z" fill="#F0F0F0"/>
<path d="M114.171 49.907C114.106 49.8719 114.033 49.8542 113.96 49.8555H113.485V57.772L118.152 52.7613C118.194 52.715 118.224 52.66 118.242 52.6003C118.26 52.5407 118.264 52.4778 118.254 52.4164C118.244 52.355 118.22 52.2966 118.185 52.2454C118.15 52.1943 118.103 52.1516 118.049 52.1207L114.171 49.907Z" fill="#43A7FF"/>
<path opacity="0.3" d="M114.171 49.907C114.106 49.8719 114.033 49.8542 113.96 49.8555H113.485V57.772L118.152 52.7613C118.194 52.715 118.224 52.66 118.242 52.6003C118.26 52.5407 118.264 52.4778 118.254 52.4164C118.244 52.355 118.22 52.2966 118.185 52.2454C118.15 52.1943 118.103 52.1516 118.049 52.1207L114.171 49.907Z" fill="white"/>
<path d="M113.485 57.772L118.152 52.7613C118.211 52.7012 118.251 52.6247 118.265 52.5419C118.28 52.4591 118.269 52.3738 118.235 52.2971C118.2 52.2204 118.143 52.156 118.071 52.1123C117.999 52.0685 117.916 52.0475 117.832 52.052H113.485L112.398 52.9672L113.485 57.772Z" fill="#43A7FF"/>
<path d="M113.485 47.373C113.451 46.7372 113.267 46.1184 112.949 45.5669C112.631 45.0153 112.188 44.5464 111.654 44.1984C111.086 43.9109 110.458 43.7611 109.821 43.7611C109.184 43.7611 108.556 43.9109 107.988 44.1984L81.2526 59.7168C80.7187 60.0645 80.2742 60.5331 79.9552 61.0847C79.6362 61.6362 79.4517 62.2552 79.4165 62.8914V77.0427C79.4517 77.6796 79.6362 78.2994 79.9552 78.8519C80.2741 79.4043 80.7186 79.874 81.2526 80.223C81.821 80.5105 82.449 80.6603 83.0859 80.6603C83.7228 80.6603 84.3508 80.5105 84.9191 80.223L111.803 64.5788C113.451 63.6407 113.462 62.6969 113.462 61.53L113.485 47.373Z" fill="#43A7FF"/>
<path opacity="0.2" d="M79.4165 77.0427C79.4517 77.6796 79.6362 78.2994 79.9552 78.8519C80.2741 79.4043 80.7186 79.874 81.2526 80.223C81.7683 80.4853 82.334 80.6348 82.9119 80.6615C83.4899 80.6881 84.0669 80.5913 84.6045 80.3774C83.7408 80.7035 83.0887 80.2115 83.0887 79.1648V65.0078C83.1094 64.3698 83.2925 63.7477 83.6207 63.2003L79.9542 61.0839C79.6245 61.631 79.4394 62.253 79.4165 62.8914V77.0427Z" fill="black"/>
<path opacity="0.3" d="M113.428 46.8525C113.21 46.0746 112.501 45.8229 111.654 46.3148L84.9192 61.8332C84.3758 62.1701 83.9301 62.6434 83.6265 63.206L79.96 61.0896C80.2669 60.5309 80.712 60.0602 81.2527 59.7225L107.982 44.1984C108.552 43.9135 109.181 43.7651 109.818 43.7651C110.456 43.7651 111.084 43.9135 111.654 44.1984C112.114 44.4981 112.508 44.8878 112.813 45.344C113.118 45.8001 113.327 46.3133 113.428 46.8525Z" fill="white"/>
<path d="M88.7858 64.4872C89.0387 64.3304 89.3246 64.2345 89.6209 64.207C89.8495 64.1876 90.0787 64.2374 90.2787 64.35C90.4621 64.4556 90.6126 64.6101 90.7134 64.7961C90.8158 64.9943 90.8707 65.2137 90.8736 65.4368C90.8747 65.5044 90.859 65.5712 90.8278 65.6312C90.8095 65.6855 90.7731 65.732 90.7248 65.7628L89.7925 66.3005C89.7711 66.3181 89.7465 66.3312 89.7199 66.3391C89.6934 66.347 89.6655 66.3494 89.6381 66.3462C89.5915 66.3396 89.5478 66.3198 89.5122 66.2891C89.4865 66.2692 89.4634 66.2461 89.4436 66.2204C89.4074 66.1815 89.3622 66.1521 89.312 66.1346C89.2423 66.1193 89.1701 66.1193 89.1004 66.1346C88.9892 66.1557 88.8827 66.1964 88.7858 66.2547C88.6063 66.3586 88.4442 66.4898 88.3053 66.6437C88.2418 66.7238 88.1898 66.8123 88.1508 66.9068C88.1098 67.0046 88.0884 67.1096 88.0879 67.2157C88.0795 67.2998 88.1041 67.3839 88.1566 67.4502C88.2208 67.5023 88.303 67.5269 88.3854 67.5189C88.5285 67.5156 88.6707 67.4945 88.8086 67.4559L89.4607 67.2843C89.6818 67.2205 89.9114 67.1916 90.1414 67.1985C90.3193 67.2038 90.4904 67.2682 90.6276 67.3816C90.7709 67.5135 90.8723 67.6845 90.9193 67.8735C90.9935 68.1454 91.0262 68.4269 91.0166 68.7086C91.0179 69.0769 90.9639 69.4432 90.8564 69.7954C90.6301 70.5081 90.238 71.1569 89.7124 71.6887C89.4487 71.9487 89.1526 72.1736 88.8315 72.358C88.5651 72.5274 88.2641 72.6349 87.9506 72.6726C87.7146 72.6959 87.4767 72.6523 87.2642 72.5467C87.0709 72.4399 86.9151 72.2762 86.8181 72.0777C86.7051 71.8542 86.6464 71.6073 86.6465 71.357C86.6479 71.2897 86.6635 71.2234 86.6922 71.1625C86.7124 71.1092 86.7483 71.0633 86.7952 71.0309L87.7276 70.4932C87.7717 70.4591 87.8262 70.4409 87.882 70.4418C87.9238 70.4492 87.9631 70.4669 87.9964 70.4932L88.0822 70.5848C88.1231 70.633 88.1738 70.672 88.2309 70.6992C88.3079 70.7342 88.3928 70.748 88.4769 70.7392C88.6041 70.7252 88.7259 70.68 88.8315 70.6077C89.0645 70.4781 89.2766 70.3142 89.4607 70.1214C89.614 69.9695 89.704 69.7651 89.7124 69.5494C89.7182 69.5075 89.7127 69.4648 89.6967 69.4256C89.6806 69.3864 89.6544 69.3522 89.6209 69.3264C89.5344 69.2892 89.4398 69.2754 89.3463 69.2863C89.1858 69.3037 89.027 69.3343 88.8716 69.3779L88.1966 69.5494C88.0193 69.6236 87.8246 69.6458 87.6352 69.6133C87.4458 69.5809 87.2695 69.4953 87.127 69.3664C86.8599 68.9849 86.7401 68.5196 86.7895 68.0565C86.7917 67.7258 86.8378 67.3969 86.9268 67.0784C87.0199 66.7355 87.1544 66.4051 87.3272 66.0946C87.5032 65.7751 87.7163 65.4775 87.9621 65.208C88.1967 64.9256 88.4748 64.6824 88.7858 64.4872Z" fill="white"/>
<path d="M95.5239 65.0994C95.5239 65.208 95.5239 65.3453 95.5239 65.5169C95.5239 65.6885 95.5239 65.8315 95.5239 65.9459C95.5123 66.3075 95.4585 66.6664 95.3638 67.0156C95.2747 67.3727 95.1441 67.7183 94.9748 68.0452C94.8123 68.3663 94.6105 68.666 94.3742 68.9375C94.149 69.1932 93.8844 69.4114 93.5906 69.5838C93.3542 69.7321 93.0852 69.8204 92.8069 69.8412C92.5992 69.8464 92.3965 69.7774 92.2349 69.6468C92.0549 69.4945 91.9186 69.2971 91.8402 69.0748C91.7423 68.7872 91.6902 68.4861 91.6858 68.1824C91.6858 68.0738 91.6858 67.9365 91.6858 67.7649C91.6858 67.5933 91.6858 67.4503 91.6858 67.3359C91.6939 66.9748 91.7438 66.6158 91.8345 66.2662C91.9301 65.9103 92.0623 65.5652 92.2292 65.2366C92.3971 64.9156 92.6005 64.6144 92.8355 64.3386C93.0578 64.0783 93.3228 63.8578 93.6192 63.6865C93.854 63.5358 94.1241 63.449 94.4028 63.4348C94.6217 63.431 94.8355 63.5016 95.0091 63.635C95.1901 63.7852 95.325 63.9835 95.3981 64.207C95.4863 64.4961 95.5287 64.7972 95.5239 65.0994ZM92.9385 67.3874C92.9314 67.4856 92.9451 67.5842 92.9786 67.6768C93.0121 67.7695 93.0647 67.854 93.133 67.925C93.2474 68.0166 93.4018 68.0051 93.5906 67.925C93.7884 67.8074 93.9475 67.6344 94.0482 67.4274C94.1681 67.1891 94.2344 66.9275 94.2426 66.6609C94.2426 66.5465 94.2426 66.4207 94.2426 66.2834C94.2491 66.1615 94.2491 66.0393 94.2426 65.9173C94.2497 65.8191 94.236 65.7205 94.2025 65.6278C94.169 65.5352 94.1164 65.4507 94.0482 65.3796C93.9338 65.2881 93.7793 65.2996 93.5906 65.4082C93.3905 65.5257 93.2309 65.7013 93.133 65.9116C93.013 66.1478 92.9466 66.4076 92.9385 66.6724C92.9385 66.7868 92.9385 66.9126 92.9385 67.0499C92.9349 67.1605 92.9368 67.2712 92.9442 67.3816L92.9385 67.3874Z" fill="white"/>
<path d="M98.956 60.695C98.9754 60.6792 98.9996 60.6705 99.0247 60.6705C99.0497 60.6705 99.0739 60.6792 99.0933 60.695C99.1344 60.7446 99.1548 60.808 99.1505 60.8723V61.9762C99.148 62.0594 99.1285 62.1411 99.0933 62.2165C99.0631 62.283 99.0157 62.3402 98.956 62.3824L98.3097 62.7542C98.0839 62.9023 97.9035 63.11 97.7884 63.3543C97.6733 63.5986 97.6281 63.87 97.6576 64.1384V66.8268C97.6578 66.9103 97.6382 66.9926 97.6004 67.067C97.5736 67.1356 97.5255 67.1938 97.4631 67.2329L96.5708 67.7534C96.5514 67.7692 96.5272 67.7779 96.5021 67.7779C96.4771 67.7779 96.4529 67.7692 96.4335 67.7534C96.3934 67.7033 96.3731 67.6402 96.3763 67.5761V62.4796C96.3788 62.3965 96.3983 62.3147 96.4335 62.2394C96.4637 62.1729 96.5111 62.1156 96.5708 62.0735L97.3945 61.5987C97.4133 61.5818 97.4378 61.5725 97.4631 61.5725C97.4884 61.5725 97.5129 61.5818 97.5317 61.5987C97.5522 61.6221 97.5677 61.6493 97.5776 61.6788C97.5874 61.7082 97.5912 61.7393 97.5889 61.7703V62.022C97.6963 61.8028 97.8266 61.5957 97.9779 61.4042C98.136 61.2104 98.3302 61.0491 98.5499 60.9295L98.956 60.695Z" fill="white"/>
<path d="M102.388 58.7101C102.408 58.6943 102.432 58.6857 102.457 58.6857C102.482 58.6857 102.506 58.6943 102.525 58.7101C102.566 58.7597 102.587 58.8232 102.583 58.8874V59.9914C102.58 60.0745 102.561 60.1562 102.525 60.2316C102.495 60.2981 102.448 60.3553 102.388 60.3975L101.742 60.7693C101.516 60.9175 101.336 61.1252 101.221 61.3695C101.105 61.6137 101.06 61.8851 101.09 62.1535V64.8419C101.09 64.9254 101.07 65.0078 101.033 65.0822C101.006 65.1508 100.958 65.2089 100.895 65.248L100.003 65.7628C99.984 65.7797 99.9596 65.7891 99.9343 65.7891C99.9089 65.7891 99.8845 65.7797 99.8656 65.7628C99.8256 65.7127 99.8052 65.6496 99.8084 65.5855V60.489C99.811 60.4059 99.8304 60.3241 99.8656 60.2488C99.8959 60.1823 99.9433 60.125 100.003 60.0829L100.827 59.6081C100.845 59.5912 100.87 59.5819 100.895 59.5819C100.921 59.5819 100.945 59.5912 100.964 59.6081C100.984 59.6315 101 59.6587 101.01 59.6882C101.019 59.7176 101.023 59.7488 101.021 59.7797V60.06C101.128 59.8408 101.259 59.6338 101.41 59.4422C101.568 59.2484 101.762 59.0871 101.982 58.9675L102.388 58.7101Z" fill="white"/>
<path d="M105.174 64.636C105.157 64.7103 105.134 64.783 105.105 64.8533C105.077 64.9212 105.029 64.9789 104.968 65.0192L104.035 65.5569C104.018 65.5704 103.997 65.5777 103.975 65.5777C103.954 65.5777 103.932 65.5704 103.915 65.5569C103.897 65.5359 103.884 65.5113 103.876 65.4846C103.868 65.458 103.866 65.43 103.87 65.4025C103.866 65.3759 103.866 65.349 103.87 65.3224L104.407 63.0344L102.96 58.7101C102.957 58.6873 102.957 58.6642 102.96 58.6414C102.96 58.566 102.978 58.4915 103.012 58.4241C103.037 58.3646 103.079 58.3132 103.132 58.2753L104.058 57.7377C104.121 57.7377 104.161 57.7377 104.196 57.7377C104.229 57.7781 104.254 57.8248 104.27 57.8749L105.054 60.2602L105.837 56.9655C105.837 56.8968 105.877 56.8282 105.906 56.7481C105.934 56.6803 105.982 56.6225 106.043 56.5822L106.981 56.0445C106.997 56.0288 107.019 56.02 107.041 56.02C107.064 56.02 107.085 56.0288 107.101 56.0445C107.12 56.0656 107.134 56.0901 107.143 56.1166C107.151 56.1431 107.155 56.1711 107.153 56.199C107.153 56.2333 107.153 56.2562 107.153 56.2848L105.174 64.636Z" fill="white"/>
<path d="M109.172 57.8349C109.172 57.9184 109.153 58.0007 109.115 58.0751C109.09 58.1433 109.044 58.2016 108.983 58.241L108.085 58.7558C108.067 58.7723 108.044 58.7815 108.019 58.7815C107.995 58.7815 107.971 58.7723 107.954 58.7558C107.932 58.7317 107.916 58.7036 107.907 58.6731C107.897 58.6426 107.893 58.6104 107.896 58.5785V53.8595C107.896 53.776 107.916 53.6937 107.954 53.6193C107.978 53.5511 108.024 53.4928 108.085 53.4534L108.983 52.9386C109.001 52.9221 109.025 52.913 109.049 52.913C109.073 52.913 109.097 52.9221 109.115 52.9386C109.136 52.9614 109.152 52.9885 109.162 53.0182C109.172 53.0478 109.175 53.0792 109.172 53.1102V57.8349ZM109.172 60.1858C109.172 60.2693 109.153 60.3517 109.115 60.4261C109.09 60.4942 109.044 60.5525 108.983 60.5919L108.085 61.1125C108.067 61.1278 108.043 61.1362 108.019 61.1362C107.995 61.1362 107.972 61.1278 107.954 61.1125C107.932 61.0886 107.916 61.0604 107.906 61.0299C107.896 60.9993 107.893 60.9671 107.896 60.9351V59.8312C107.896 59.7477 107.916 59.6654 107.954 59.5909C107.978 59.5228 108.024 59.4645 108.085 59.4251L108.983 58.9103C109.001 58.8938 109.025 58.8846 109.049 58.8846C109.073 58.8846 109.097 58.8938 109.115 58.9103C109.136 58.9331 109.152 58.9602 109.162 58.9898C109.172 59.0194 109.175 59.0508 109.172 59.0819V60.1858Z" fill="white"/>
<path opacity="0.2" d="M122.282 248.706C123.463 248.276 124.572 247.671 125.571 246.91C126.985 245.794 128.238 244.489 129.295 243.031C130.343 241.599 131.5 240.249 132.756 238.993C134.981 236.837 137.526 234.932 140.495 233.937C144.579 232.564 148.949 233.084 153.136 233.468C157.924 233.908 162.648 234.674 167.436 234.955C170.324 235.121 173.465 235.144 175.81 233.445C176.674 232.815 177.429 231.849 177.331 230.779C177.234 229.71 176.187 228.634 175.278 227.833C172.355 225.334 168.631 223.658 165.125 222.153C158.833 219.454 152.352 217.005 145.591 215.861C138.83 214.717 131.732 214.912 125.32 217.337C121.51 218.779 118.009 222.943 115.91 226.346C114.05 229.345 112.738 232.651 112.038 236.11C111.69 237.854 111.533 239.63 111.569 241.407C111.62 243.415 111.923 245.983 113.439 247.493C114.188 248.243 115.115 248.792 116.133 249.089C118.174 249.594 120.32 249.46 122.282 248.706Z" fill="black"/>
<path d="M159.588 211.64C159.485 208.168 160.08 179.974 160.08 179.974L146.426 188.554C148.6 203.998 150.379 211.308 150.608 213.991C150.656 214.179 150.689 214.37 150.705 214.563C150.751 217.629 154.4 219.242 157.254 221.255C159.689 223.031 162.27 224.596 164.971 225.934C167.035 226.901 171.217 226.947 171.72 225.683C168.248 223.212 164.227 220.535 161.424 217.675C160.16 216.25 159.685 214.838 159.588 211.64Z" fill="#FFA8A7"/>
<path d="M177.64 228.846C177.818 228.846 178.104 230.693 177.154 231.494C176.056 232.415 172.818 233.942 168.517 233.456C164.216 232.97 161.87 231.74 160.137 230.373C158.404 229.006 155.967 227.113 154.022 226.724C152.209 226.363 150.242 225.58 149.658 225.082C149.075 224.584 149.126 222.188 149.126 222.188L177.64 228.846Z" fill="#263238"/>
<path d="M150.499 213.122C150.499 213.122 150.196 213.122 150.093 213.636C149.967 214.294 149.847 216.188 149.572 217.257C149.195 218.75 148.966 221.793 149.218 222.977C149.469 224.161 152.421 225.002 154.308 225.66C156.52 226.554 158.588 227.768 160.446 229.263C162.482 230.831 166.738 232.375 169.552 232.387C173.825 232.387 176.582 231.271 177.423 229.801C178.458 227.976 177.617 226.941 172.681 224.819C171.743 224.419 168.46 222.611 167.339 221.959C164.301 220.186 161.813 217.789 160.395 214.609C160.274 214.211 160.019 213.868 159.674 213.636C159.37 213.517 159.037 213.491 158.719 213.562C157.744 213.655 156.784 213.862 155.859 214.18C155.206 214.489 154.274 214.849 154.297 215.65C154.316 215.931 154.382 216.208 154.491 216.468C154.549 216.628 154.6 216.845 154.451 216.948C154.303 217.051 154.12 216.948 153.988 216.828C153.5 216.367 153.053 215.866 152.65 215.33C152.415 215.051 152.15 214.8 151.86 214.58C151.568 214.427 151.286 214.257 151.014 214.071C150.737 213.824 150.554 213.488 150.499 213.122Z" fill="#37474F"/>
<path d="M173.476 225.191C167.293 225.66 165.382 229.321 165.142 231.574C166.563 232.068 168.049 232.349 169.552 232.409C173.825 232.409 176.759 231.294 177.6 229.824C178.578 228.102 177.892 226.735 173.476 225.191Z" fill="#FAFAFA"/>
<path d="M164.198 225.368C164.128 225.37 164.059 225.348 164.004 225.305C163.973 225.282 163.948 225.253 163.929 225.22C163.909 225.187 163.897 225.15 163.893 225.112C163.889 225.074 163.892 225.035 163.904 224.999C163.915 224.962 163.933 224.928 163.958 224.899C164.687 224.174 165.559 223.608 166.518 223.237C167.477 222.866 168.502 222.697 169.529 222.743C169.567 222.746 169.603 222.757 169.637 222.775C169.67 222.793 169.699 222.817 169.723 222.847C169.747 222.876 169.765 222.909 169.776 222.946C169.787 222.982 169.791 223.02 169.787 223.057C169.783 223.095 169.772 223.131 169.754 223.164C169.736 223.198 169.712 223.227 169.683 223.251C169.654 223.275 169.62 223.293 169.584 223.304C169.548 223.315 169.51 223.318 169.472 223.315C168.544 223.285 167.619 223.442 166.753 223.776C165.886 224.11 165.095 224.614 164.427 225.259C164.4 225.294 164.365 225.322 164.325 225.34C164.286 225.359 164.242 225.369 164.198 225.368Z" fill="#F0F0F0"/>
<path d="M161.516 223.892C161.445 223.894 161.377 223.872 161.321 223.829C161.291 223.807 161.265 223.778 161.246 223.746C161.227 223.713 161.215 223.677 161.211 223.639C161.206 223.602 161.21 223.563 161.221 223.527C161.232 223.491 161.251 223.458 161.275 223.429C162.004 222.703 162.875 222.136 163.834 221.764C164.793 221.391 165.819 221.222 166.847 221.267C166.884 221.27 166.921 221.282 166.954 221.299C166.987 221.317 167.017 221.342 167.041 221.371C167.064 221.4 167.082 221.434 167.093 221.47C167.104 221.506 167.108 221.544 167.104 221.581C167.1 221.619 167.089 221.655 167.071 221.689C167.053 221.722 167.029 221.751 167 221.775C166.971 221.799 166.937 221.817 166.901 221.828C166.865 221.839 166.827 221.842 166.789 221.839C165.861 221.809 164.936 221.966 164.07 222.3C163.203 222.634 162.413 223.138 161.744 223.784C161.717 223.818 161.682 223.846 161.643 223.865C161.603 223.883 161.56 223.893 161.516 223.892Z" fill="#F0F0F0"/>
<path d="M159.016 222.228C158.961 222.231 158.906 222.218 158.858 222.191C158.81 222.163 158.771 222.123 158.746 222.074C158.721 222.025 158.71 221.97 158.715 221.915C158.72 221.86 158.742 221.808 158.776 221.764C159.504 221.038 160.376 220.471 161.335 220.099C162.294 219.727 163.319 219.558 164.347 219.602C164.425 219.608 164.498 219.644 164.549 219.703C164.6 219.762 164.626 219.839 164.622 219.917C164.617 219.956 164.605 219.993 164.586 220.028C164.567 220.062 164.541 220.092 164.51 220.116C164.48 220.14 164.444 220.158 164.406 220.168C164.368 220.178 164.329 220.18 164.29 220.174C163.361 220.144 162.436 220.301 161.569 220.636C160.702 220.971 159.912 221.478 159.245 222.125C159.217 222.157 159.181 222.184 159.142 222.201C159.102 222.219 159.059 222.228 159.016 222.228Z" fill="#F0F0F0"/>
<path d="M156.585 220.563C156.518 220.564 156.452 220.544 156.396 220.506C156.365 220.484 156.339 220.455 156.32 220.422C156.3 220.389 156.287 220.352 156.283 220.314C156.278 220.276 156.281 220.237 156.291 220.201C156.302 220.164 156.32 220.129 156.345 220.1C157.489 218.664 160.183 217.698 162.431 217.909C162.47 217.911 162.508 217.921 162.543 217.938C162.578 217.955 162.609 217.979 162.634 218.009C162.66 218.038 162.68 218.072 162.692 218.109C162.704 218.146 162.709 218.185 162.706 218.224C162.694 218.301 162.653 218.371 162.591 218.419C162.53 218.467 162.452 218.489 162.374 218.481C160.349 218.292 157.861 219.179 156.82 220.455C156.792 220.49 156.756 220.518 156.715 220.537C156.675 220.556 156.63 220.565 156.585 220.563Z" fill="#F0F0F0"/>
<path d="M130.559 196.625L117.483 195.144C116.797 203.489 117.209 212.876 116.614 220.695C116.499 222.171 115.367 232.135 115.63 235.195C116.025 239.828 121.756 239.771 122.345 237.065C122.934 234.36 124.359 222.622 124.502 221.421C124.982 216.411 127.476 208.265 129.718 199.388C129.844 198.947 130.45 197.048 130.559 196.625Z" fill="#FFA8A7"/>
<path d="M124.279 239.159C124.118 241.842 123.678 243.621 122.677 245.194C121.676 246.767 119.817 247.264 117.884 246.801C115.95 246.338 113.525 245.085 112.982 242.797C112.438 240.509 112.541 238.896 112.982 236.408L124.279 239.159Z" fill="#263238"/>
<path d="M116.688 219.734C115.899 219.797 115.67 223.395 115.212 227.004C114.726 230.871 113.496 232.467 113.079 235.635C112.587 239.256 112.781 240.875 114.114 243.071C115.447 245.268 120.166 247.407 122.488 244.273C124.387 241.716 124.467 238.879 124.29 235.264C124.194 232.211 124.28 229.155 124.547 226.112C124.696 223.4 125.331 220.666 124.644 220.392C124.593 220.786 124.542 221.295 124.484 221.684C124.444 221.982 124.364 223.452 123.912 223.469C123.881 223.128 123.881 222.786 123.912 222.445C123.938 222.293 123.933 222.136 123.896 221.986C123.86 221.835 123.793 221.694 123.701 221.57C123.456 221.357 123.149 221.227 122.826 221.198C122.053 221.055 120.412 220.987 119.622 220.918C119.231 220.883 118.837 220.867 118.444 220.872C118.107 220.866 117.771 220.912 117.449 221.009C117.355 221.036 117.268 221.082 117.194 221.146C117.12 221.209 117.061 221.287 117.02 221.376C116.981 221.509 116.967 221.649 116.98 221.787C116.979 222.038 116.946 222.288 116.882 222.531C116.854 222.64 116.774 222.771 116.665 222.743C116.556 222.714 116.534 222.617 116.534 222.525C116.534 222.091 116.591 221.77 116.614 221.261C116.614 221.027 116.659 220.689 116.665 220.472C116.671 220.254 116.688 219.968 116.688 219.734Z" fill="#37474F"/>
<path d="M112.856 237.735C112.718 239.983 112.856 241.521 113.897 243.237C115.229 245.428 120.326 247.579 122.654 244.444C123.798 242.888 124.118 241.012 124.279 239.159C122.889 236.739 115.052 235.664 112.856 237.735Z" fill="#FAFAFA"/>
<path d="M122.259 235.224C122.226 235.22 122.193 235.21 122.162 235.195C120.013 234.32 117.657 234.085 115.378 234.52C115.303 234.536 115.225 234.523 115.159 234.484C115.093 234.445 115.045 234.382 115.024 234.309C115.016 234.272 115.016 234.235 115.023 234.198C115.03 234.161 115.045 234.127 115.066 234.096C115.086 234.065 115.113 234.039 115.144 234.018C115.175 233.998 115.21 233.984 115.247 233.977C117.652 233.507 120.143 233.756 122.408 234.692C122.442 234.707 122.473 234.728 122.498 234.755C122.523 234.782 122.543 234.814 122.556 234.848C122.569 234.883 122.574 234.92 122.573 234.957C122.571 234.994 122.562 235.03 122.545 235.064C122.519 235.116 122.478 235.159 122.427 235.188C122.376 235.216 122.318 235.229 122.259 235.224Z" fill="#F0F0F0"/>
<path d="M115.544 231.832C115.489 231.827 115.437 231.807 115.393 231.774C115.35 231.74 115.317 231.695 115.298 231.643C115.287 231.608 115.282 231.57 115.285 231.533C115.288 231.496 115.298 231.46 115.315 231.427C115.332 231.394 115.356 231.365 115.384 231.341C115.413 231.317 115.446 231.299 115.481 231.288C119.005 230.144 122.494 231.86 122.643 231.935C122.676 231.95 122.705 231.973 122.729 232C122.753 232.028 122.771 232.06 122.783 232.095C122.794 232.13 122.798 232.166 122.794 232.203C122.791 232.239 122.78 232.274 122.763 232.306C122.724 232.373 122.662 232.422 122.589 232.444C122.516 232.466 122.437 232.46 122.368 232.427C122.334 232.427 118.936 230.756 115.67 231.82C115.629 231.832 115.586 231.836 115.544 231.832Z" fill="#F0F0F0"/>
<path d="M115.767 229.286C115.713 229.281 115.662 229.261 115.619 229.229C115.575 229.197 115.542 229.153 115.521 229.103C115.51 229.068 115.505 229.031 115.508 228.995C115.51 228.958 115.52 228.922 115.536 228.889C115.553 228.856 115.576 228.827 115.604 228.803C115.631 228.779 115.664 228.76 115.699 228.749C116.893 228.363 118.152 228.22 119.402 228.327C120.652 228.434 121.869 228.789 122.98 229.372C123.013 229.389 123.041 229.413 123.064 229.442C123.087 229.47 123.103 229.504 123.112 229.539C123.122 229.575 123.123 229.612 123.117 229.648C123.111 229.684 123.098 229.719 123.077 229.75C123.036 229.814 122.971 229.861 122.897 229.879C122.822 229.897 122.743 229.885 122.677 229.847C120.574 228.769 118.13 228.563 115.876 229.275C115.841 229.286 115.804 229.29 115.767 229.286Z" fill="#F0F0F0"/>
<path d="M116.007 226.426C115.955 226.422 115.905 226.403 115.862 226.372C115.82 226.34 115.787 226.298 115.767 226.249C115.754 226.215 115.747 226.178 115.748 226.141C115.749 226.104 115.758 226.067 115.773 226.033C115.789 226 115.811 225.97 115.838 225.945C115.866 225.92 115.898 225.901 115.933 225.889C119.571 224.596 123.14 226.506 123.295 226.592C123.327 226.609 123.356 226.633 123.378 226.662C123.401 226.69 123.418 226.723 123.428 226.759C123.437 226.794 123.44 226.831 123.435 226.867C123.429 226.904 123.417 226.938 123.398 226.97C123.358 227.035 123.295 227.082 123.221 227.102C123.148 227.121 123.069 227.111 123.003 227.073C122.969 227.073 119.514 225.208 116.139 226.409C116.097 226.426 116.052 226.432 116.007 226.426Z" fill="#EBEBEB"/>
<path d="M127.322 103.492C127.178 104.601 126.744 105.653 126.063 106.541C122.597 111.437 119.891 116.139 119.617 125.022C118.925 146.987 119.462 169.741 119.462 169.741C119.314 171.68 117.683 175.112 116.946 185.151C116.294 193.931 116.522 205.966 116.522 205.966C116.522 205.966 122.854 208.963 128.294 206.852C130.462 199.714 134.964 181.181 137.326 171.623C139.471 162.946 140.901 150.173 140.901 150.173L144.665 167.871C144.29 171.678 144.339 175.515 144.813 179.311C145.506 185.191 148.183 202.036 148.183 202.036C148.183 202.036 155.144 204.101 159.823 200.801C159.823 200.801 160.967 171.446 161.041 164.336C161.138 151.1 161.041 124.015 157.008 107.136C156.853 105.829 156.767 104.516 156.751 103.2C152.152 107.033 133.471 107.622 127.322 103.492Z" fill="#37474F"/>
<path d="M134.614 109.715C134.55 109.699 134.482 109.709 134.424 109.742C134.367 109.775 134.324 109.829 134.306 109.893C134.054 110.917 133.859 111.838 133.671 112.724C132.996 115.933 132.527 118.255 130.096 120.732C129.299 121.521 128.351 122.143 127.31 122.559C126.268 122.976 125.154 123.179 124.032 123.157C125.073 116.585 127.276 111.34 130.788 107.01C130.808 106.985 130.823 106.955 130.831 106.924C130.84 106.893 130.842 106.861 130.838 106.829C130.834 106.796 130.823 106.766 130.806 106.738C130.79 106.71 130.768 106.686 130.742 106.667C130.687 106.628 130.62 106.611 130.553 106.619C130.486 106.628 130.425 106.661 130.382 106.712C126.772 111.163 124.524 116.562 123.483 123.335C123.485 123.344 123.485 123.354 123.483 123.363C123.08 126.078 122.858 128.816 122.82 131.56C122.591 143.915 122.248 162.585 122.065 167.487C121.968 170.113 121.384 172.389 120.64 175.278C120.006 177.761 119.279 180.58 118.633 184.43C117.26 192.764 117.952 206.492 117.958 206.629C117.964 206.693 117.993 206.752 118.041 206.795C118.089 206.837 118.151 206.86 118.215 206.858C118.248 206.857 118.281 206.85 118.311 206.837C118.341 206.823 118.369 206.804 118.392 206.78C118.414 206.757 118.432 206.728 118.444 206.698C118.456 206.667 118.462 206.634 118.461 206.601C118.461 206.469 117.746 192.804 119.13 184.51C119.771 180.672 120.492 177.863 121.127 175.387C121.876 172.475 122.465 170.176 122.568 167.499C122.751 162.591 123.094 143.921 123.317 131.566C123.356 128.918 123.564 126.276 123.941 123.655H124.21C125.371 123.659 126.522 123.433 127.595 122.989C128.668 122.545 129.643 121.893 130.462 121.07C132.967 118.478 133.47 116.105 134.163 112.816C134.351 111.929 134.546 111.014 134.792 110.001C134.806 109.94 134.795 109.876 134.762 109.822C134.728 109.769 134.676 109.73 134.614 109.715Z" fill="#455A64"/>
<path d="M116.482 203.26C118.347 205.022 126.149 205.96 129.003 204.404L127.808 209.112C127.808 209.112 125.954 210.256 121.807 209.89C116.997 209.455 116.482 207.911 116.482 207.911V203.26Z" fill="#455A64"/>
<path d="M147.782 199.479C150.253 200.303 157.237 199.794 159.926 198.106L159.811 202.036C159.811 202.036 158.301 203.506 154.16 203.952C150.019 204.398 148.337 203.26 148.337 203.26L147.782 199.479Z" fill="#455A64"/>
<path d="M140.901 150.173L143.606 128.483C145.703 128.503 147.775 128.036 149.661 127.12C151.547 126.204 153.194 124.863 154.474 123.203C154.474 123.203 154.652 128.626 145.809 131.12L142.571 151.14L144.665 167.899L140.901 150.173Z" fill="#263238"/>
<path d="M160.629 73.8681C158.404 70.6992 156.516 62.8743 156.511 53.8481V47.0756C156.512 45.0335 156.11 43.0112 155.329 41.1243C154.548 39.2374 153.403 37.5228 151.959 36.0786C150.515 34.6343 148.801 33.4886 146.915 32.7069C145.028 31.9253 143.006 31.5229 140.964 31.5229C136.839 31.5229 132.883 33.1615 129.966 36.0782C127.05 38.9949 125.411 42.9508 125.411 47.0756V98.058H156.511V67.1013C157.415 69.5037 158.839 72.215 160.629 73.8681Z" fill="#455A64"/>
<path d="M171.714 103.12C172.223 98.0237 166.092 87.2072 159.559 75.5841C156.848 70.7565 155.224 68.1767 148.537 67.0385L145.042 85.0622C145.042 85.0622 161.092 102.708 161.436 102.708C161.779 102.708 171.714 103.12 171.714 103.12Z" fill="#F28F8F"/>
<path d="M148.302 66.4436C152.535 67.4503 154.52 68.274 156.511 70.5792C158.501 72.8843 164.204 83.8038 165.914 86.8754C167.625 89.9471 169.598 94.7233 169.598 94.7233L158.953 98.4813L151.06 84.473L148.302 66.4436Z" fill="#43A7FF"/>
<path opacity="0.3" d="M148.302 66.4436C152.535 67.4503 154.52 68.274 156.511 70.5792C158.501 72.8843 164.204 83.8038 165.914 86.8754C167.625 89.9471 169.598 94.7233 169.598 94.7233L158.953 98.4813L151.06 84.473L148.302 66.4436Z" fill="black"/>
<path d="M157.569 96.668C158.759 95.3353 165.245 92.6926 169.226 93.8423C169.678 93.9592 170.081 94.2166 170.377 94.5775C170.673 94.9384 170.847 95.384 170.874 95.8501C171.005 96.668 171.875 97.6633 171.743 98.2639C171.611 98.8645 172.04 99.9456 172.166 100.723C172.292 101.501 172.332 102.565 171.714 103.132C170.101 102.148 164.067 100.466 158.393 101.198L157.569 96.668Z" fill="#37474F"/>
<path d="M162.78 118.804C162.328 116.047 150.127 113.176 143.601 113.502V80.652H159.617L162.78 118.804Z" fill="#43A7FF"/>
<path opacity="0.5" d="M162.78 118.804C162.328 116.047 150.127 113.176 143.601 113.502V80.652H159.617L162.78 118.804Z" fill="black"/>
<path d="M137.343 65.271L126.887 67.988C125.171 68.56 119.451 72.8557 121.665 82.5397C122.402 85.7372 123.409 90.2331 124.313 94.7233C125.005 98.1553 122.46 104.756 120.4 115.275C120.4 115.275 128.837 122.036 145.603 120.126C158.393 118.673 159.777 113.834 159.777 113.834C159.422 101.822 158.37 97.2058 158.393 92.6412C158.393 92.6412 160.263 90.3532 160.343 86.2691C160.423 81.9906 159.308 79.6911 155.504 74.8291C153.351 72.0781 151.024 69.4682 148.537 67.0156L137.343 65.271Z" fill="#FAFAFA"/>
<path d="M155.527 80.1887C158.49 86.9784 156.488 125.714 156.757 122.808C156.757 122.808 162.265 120.658 162.78 118.804C162.78 111.832 161.499 97.8235 161.424 93.0301C161.333 87.5218 161.384 83.5349 159.622 80.1544C157.861 76.7739 151.18 68.4742 148.537 67.0385C151.266 69.4237 154.406 76.1218 155.527 80.1887Z" fill="#43A7FF"/>
<path opacity="0.2" d="M155.527 80.1887C158.49 86.9784 156.488 125.714 156.757 122.808C156.757 122.808 162.265 120.658 162.78 118.804C162.78 111.832 161.499 97.8235 161.424 93.0301C161.333 87.5218 161.384 83.5349 159.622 80.1544C157.861 76.7739 151.18 68.4742 148.537 67.0385C151.266 69.4237 154.406 76.1218 155.527 80.1887Z" fill="black"/>
<path d="M144.853 67.5475C146.712 68.8345 154.955 74.4802 156.608 85.7142C156.608 80.7607 154.76 74.6975 153.004 71.8204C150.865 68.314 148.017 65.0422 144.831 64.0869L144.853 67.5475Z" fill="#37474F"/>
<path d="M133.579 65.3854C133.579 65.3854 133.488 65.5341 133.579 67.6391C133.671 69.744 136.965 85.6628 137.011 93.2933C137.033 103.554 136.422 113.807 135.181 123.993C135.181 123.993 121.876 124.387 117.38 118.273C119.29 112.973 120.703 107.508 121.601 101.948C123.106 92.6583 125.88 67.9937 125.88 67.9937L133.579 65.3854Z" fill="#43A7FF"/>
<path opacity="0.2" d="M133.579 65.3854C133.579 65.3854 133.488 65.5341 133.579 67.6391C133.671 69.744 136.965 85.6628 137.011 93.2933C137.033 103.554 136.422 113.807 135.181 123.993C135.181 123.993 121.876 124.387 117.38 118.273C119.29 112.973 120.703 107.508 121.601 101.948C123.106 92.6583 125.88 67.9937 125.88 67.9937L133.579 65.3854Z" fill="black"/>
<path d="M153.571 40.7722C154.349 42.4882 156.82 44.8963 155.676 54.3972C154.806 61.6387 152.673 63.2003 150.27 64.064C148.489 64.5442 146.612 64.5442 144.83 64.064V67.496C144.83 67.496 149.035 71.7631 147.37 80.1372C133.522 73.8452 133.562 66.6781 133.562 66.6781L133.499 55.2724C133.024 56.0045 130.776 56.9483 129.095 54.6546C127.116 51.9548 127.665 48.8145 129.524 47.7048C131.383 46.5951 133.579 47.7563 134.351 49.9356C136.296 50.8165 137.915 49.0547 138.001 41.3899C142.554 39.2106 148.629 37.9293 153.571 40.7722Z" fill="#FFA8A7"/>
<path d="M133.556 61.6044C132.624 61.5358 132.361 63.4634 131.085 64.8477C130.358 65.6483 129.559 66.3815 128.7 67.0384C129.644 74.0683 132.944 81.6302 136.799 89.3464L133.573 63.9382L133.556 61.6044Z" fill="#37474F"/>
<path d="M130.239 53.728C130.203 53.9309 130.229 54.1399 130.312 54.3284C130.395 54.5168 130.533 54.6763 130.707 54.7867C130.881 54.897 131.084 54.9533 131.29 54.9482C131.496 54.9432 131.695 54.8772 131.864 54.7584C132.032 54.6397 132.162 54.4737 132.236 54.2814C132.31 54.0891 132.325 53.8791 132.28 53.6781C132.234 53.4771 132.13 53.2941 131.981 53.1523C131.831 53.0105 131.643 52.9162 131.44 52.8814C131.168 52.8349 130.89 52.8979 130.664 53.0566C130.439 53.2152 130.286 53.4567 130.239 53.728Z" fill="#43A7FF"/>
<path d="M147.645 48.3512L147.393 55.9931L151.403 55.3124L147.645 48.3512Z" fill="#F28F8F"/>
<path d="M144.83 64.0641C138.985 62.2222 135.438 59.9857 134.883 57.4861C134.883 57.4861 134.855 59.9914 136.519 61.4901C138.859 63.5664 144.83 65.3797 144.83 65.3797V64.0641Z" fill="#F28F8F"/>
<path d="M142.8 51.5601C142.926 51.8672 143.167 52.1131 143.471 52.2455C143.775 52.3779 144.119 52.3865 144.43 52.2693C144.582 52.2148 144.722 52.1302 144.84 52.0205C144.959 51.9108 145.054 51.7782 145.12 51.6308C145.187 51.4834 145.222 51.3242 145.226 51.1627C145.229 51.0011 145.2 50.8406 145.139 50.6906C144.888 50.0557 144.287 50.05 143.641 50.2902C142.994 50.5305 142.542 50.908 142.8 51.5601Z" fill="#263238"/>
<path d="M153.496 51.5601C153.37 51.8672 153.129 52.1131 152.825 52.2455C152.521 52.3779 152.177 52.3865 151.866 52.2693C151.714 52.2148 151.574 52.1302 151.456 52.0205C151.337 51.9108 151.242 51.7782 151.176 51.6308C151.109 51.4834 151.074 51.3242 151.07 51.1627C151.067 51.0011 151.096 50.8406 151.157 50.6906C151.408 50.0557 152.009 50.05 152.655 50.2902C153.302 50.5305 153.754 50.908 153.496 51.5601Z" fill="#263238"/>
<path d="M147.399 58.6586C146.956 58.3001 146.441 58.0424 145.889 57.9036C145.592 57.8371 145.286 57.8216 144.985 57.8578C144.657 57.8632 144.337 57.9624 144.064 58.1438C144.024 58.1438 143.995 58.2926 144.064 58.3097C144.206 58.3326 144.351 58.3326 144.493 58.3097C144.641 58.3011 144.79 58.3011 144.939 58.3097C145.218 58.3437 145.493 58.4011 145.763 58.4813C146.311 58.6186 146.82 58.8809 147.25 59.2478C147.393 59.3794 147.822 59.9056 147.925 59.4766C148.011 59.162 147.633 58.8531 147.399 58.6586Z" fill="#B16668"/>
<path d="M152.226 36.3506C157.923 37.752 158.375 45.0393 157.872 48.048C157.054 48.4312 154.554 48.5742 152.753 48.3797C152.469 46.5117 151.91 44.6959 151.094 42.9915C151.326 44.8198 151.412 46.6636 151.351 48.5056C149.763 48.8607 148.114 48.8411 146.535 48.4484C146.535 48.4484 146.432 45.1136 146.632 40.8465C145.528 43.6207 145.259 48.3797 145.259 48.3797C145.259 48.3797 141.993 48.4884 139.883 47.6361C139.922 45.7804 140.123 43.9316 140.483 42.1106C139.379 43.9925 138.882 46.2119 138.39 48.4026C137.898 50.5934 135.221 51.8975 134.386 50.0385C134.226 48.1166 133.814 43.2775 135.844 40.0057C137.875 36.7338 145.786 34.7547 152.226 36.3506Z" fill="#455A64"/>
<path d="M152.152 46.7152L154.858 47.9908C154.783 48.1711 154.673 48.3344 154.534 48.4707C154.394 48.607 154.228 48.7135 154.046 48.7836C153.864 48.8537 153.67 48.886 153.475 48.8785C153.28 48.8711 153.089 48.8239 152.913 48.7401C152.55 48.565 152.269 48.257 152.127 47.8799C151.986 47.5029 151.995 47.0858 152.152 46.7152Z" fill="#263238"/>
<path d="M144.144 46.6008L141.627 48.3168C141.729 48.4855 141.864 48.6318 142.025 48.7468C142.185 48.8619 142.366 48.9432 142.559 48.986C142.751 49.0287 142.951 49.032 143.144 48.9957C143.338 48.9593 143.523 48.8841 143.686 48.7744C144.03 48.5425 144.27 48.186 144.355 47.7803C144.441 47.3746 144.365 46.9516 144.144 46.6008Z" fill="#263238"/>
<path d="M157.832 94.7233C158.204 97.7892 166.023 96.6109 168.786 98.6529C172.264 101.221 173.007 103.984 169.158 105.866C165.308 107.748 162.236 107.141 159.211 105.98C155.658 104.619 153.834 104.682 153.834 104.682L157.832 94.7233Z" fill="#FFA8A7"/>
<path d="M151.786 104.253C150.55 103.452 149.424 101.124 149.201 99.5738C148.886 97.3659 149.304 96.8168 149.418 94.6889C149.396 93.6922 149.591 92.7026 149.99 91.7889C149.99 91.7889 150.139 90.6163 149.178 87.5103C148.823 86.3663 148.989 85.4683 149.853 85.2967C149.572 83.7351 150.293 83.2489 151.025 83.3519C150.779 82.1278 150.671 81.0296 151.889 80.6292C152.015 80.5834 152.284 80.9781 152.587 81.859C152.678 81.0639 153.639 80.3031 153.977 80.9094C154.996 82.8885 155.914 84.9179 156.728 86.9898C157.649 89.4094 158.015 90.4218 157.872 94.7232C157.775 97.3888 157.838 98.4126 157.3 101.067C157.083 102.211 157.037 102.525 155.841 103.887C154.823 105.036 152.392 104.745 151.786 104.253Z" fill="#FFA8A7"/>
<path d="M154.228 96.1532C154.291 95.1591 154.135 94.1633 153.771 93.236C153.771 93.236 153.668 92.052 154.743 88.9861C155.138 87.8421 155.006 86.9498 154.171 86.7496C154.509 85.1994 153.805 84.6846 153.073 84.759C153.359 83.5521 153.502 82.471 152.301 82.0077C152.181 81.9619 151.895 82.3452 151.563 83.2146C151.513 82.8132 151.308 82.4475 150.991 82.1964C150.988 82.6984 151.061 83.1979 151.208 83.6779C150.47 83.6093 149.778 84.1355 150.139 85.6856C149.286 85.8973 149.166 86.8296 149.567 87.9279C150.711 90.9766 150.602 92.1607 150.602 92.1607C150.255 93.0939 150.115 94.091 150.19 95.0836C150.19 97.2114 149.492 98.5156 149.921 100.712C150.064 101.417 150.363 102.081 150.797 102.656C151.231 103.23 151.787 103.699 152.427 104.03C152.695 104.184 153.399 103.423 153.674 103.595C154.208 102.966 154.547 102.195 154.652 101.376C154.955 99.4136 154.268 98.2811 154.228 96.1532Z" fill="#F28F8F"/>
<path d="M151.832 105.414C153.336 104.687 153.834 103.532 154.223 102.011C154.829 99.6539 153.782 98.2525 153.748 96.1247C153.81 95.1305 153.654 94.1348 153.29 93.2074C153.29 93.2074 153.182 92.0291 154.257 88.9632C154.657 87.8192 154.52 86.9269 153.685 86.7267C154.022 85.1708 153.319 84.6618 152.581 84.7361C152.873 83.5235 153.016 82.4481 151.815 81.9848C151.694 81.939 151.408 82.3166 151.077 83.1917C151.014 82.3909 150.081 81.5959 149.721 82.1907C148.633 84.1303 147.648 86.1255 146.769 88.1681C145.757 90.5476 145.688 91.6001 145.688 95.8673C145.688 97.0113 145.58 98.9389 143.343 99.6138C141.107 100.289 127.379 100.054 127.379 100.054C127.379 100.054 127.236 91.8919 127.287 86.4464C129.678 78.6443 128.151 70.6764 126.309 67.9651C120.4 69.4008 117.048 71.8032 116.499 76.9627C115.95 82.1221 115.704 95.9073 116.185 102.617C116.682 109.515 118.433 111.351 123.438 111.197C131.96 110.917 142.868 109.721 151.832 105.414Z" fill="#FFA8A7"/>
<path d="M153.004 87.516C152.41 88.7866 151.924 90.105 151.551 91.4571C151.408 92.2178 151.174 93.8538 151.174 93.8538C151.098 93.0046 151.131 92.1492 151.271 91.3084C151.506 89.6496 153.004 87.516 153.004 87.516Z" fill="#F28F8F"/>
<path d="M152.375 84.8219C151.803 86.1146 150.659 87.9164 150.402 88.8717C150.047 90.3229 149.819 91.8024 149.721 93.2932C149.535 91.7567 149.671 90.1981 150.122 88.7172C150.596 87.23 151.38 86.475 152.375 84.8219Z" fill="#F28F8F"/>
<path d="M151.06 83.1917C150.236 84.942 148.926 87.3958 148.646 88.1223C148.366 88.8487 147.971 92.4638 147.971 92.4638C147.898 91.1885 147.946 89.9091 148.114 88.6428C148.388 87.3215 151.06 83.1917 151.06 83.1917Z" fill="#F28F8F"/>
<path d="M126.458 67.7935C124.782 68.2167 120.869 69.0576 118.45 71.6373C116.03 74.217 116.047 76.894 115.801 82.0077C115.555 87.1213 115.527 97.3659 115.63 99.0018C115.63 99.0018 117.437 99.7454 121.521 99.6195C125.605 99.4937 127.482 98.384 127.482 98.384C127.482 98.384 127.556 92.2636 127.705 89.764C127.853 87.2643 129.095 81.6873 128.849 77.3287C128.603 72.9701 128.357 70.1673 126.458 67.7935Z" fill="#43A7FF"/>
<path opacity="0.3" d="M126.458 67.7935C124.782 68.2167 120.869 69.0576 118.45 71.6373C116.03 74.217 116.047 76.894 115.801 82.0077C115.555 87.1213 115.527 97.3659 115.63 99.0018C115.63 99.0018 117.437 99.7454 121.521 99.6195C125.605 99.4937 127.482 98.384 127.482 98.384C127.482 98.384 127.556 92.2636 127.705 89.764C127.853 87.2643 129.095 81.6873 128.849 77.3287C128.603 72.9701 128.357 70.1673 126.458 67.7935Z" fill="black"/>
<path d="M127.505 96.9483C127.11 97.8406 125.159 98.4812 121.664 98.5842C119.577 98.6471 115.973 97.9149 115.59 97.2857V96.3076C115.59 96.3076 114.583 96.4907 114.829 98.4526C115.075 100.415 114.085 101.358 114.48 102.348C114.875 103.337 114.68 104.991 115.327 105.751C115.687 106.192 116.184 106.5 116.74 106.627C116.74 106.627 124.439 105.551 127.956 100.06C128.254 99.5223 127.956 98.8816 127.956 98.2867C127.956 97.6919 128.26 96.6108 127.516 96.3648L127.505 96.9483Z" fill="#37474F"/>
</svg>
