<svg width="26" height="27" viewBox="0 0 26 27" fill="none" xmlns="http://www.w3.org/2000/svg">
<rect x="4.67139" y="6.83594" width="16.0576" height="14.6613" rx="0.837267" stroke="#525252" stroke-width="0.837267"/>
<path d="M8.16211 5.43945V8.93025" stroke="#525252" stroke-width="0.837267"/>
<path d="M17.238 5.43945V8.93025" stroke="#525252" stroke-width="0.837267"/>
<path d="M4.67139 10.3262H20.729" stroke="#525252" stroke-width="0.837267"/>
<path d="M8.86011 18.3555H12.3509" stroke="#525252" stroke-width="0.837267"/>
<path d="M10.6055 18.355L10.6055 13.1188C10.6056 12.9846 10.5288 12.8623 10.4079 12.8041C10.287 12.7459 10.1434 12.7621 10.0386 12.8458L8.86011 13.789" stroke="#525252" stroke-width="0.837267"/>
<path d="M15.1439 18.3548L17.1902 13.2897C17.2563 13.1824 17.255 13.0466 17.1867 12.9406C17.115 12.8321 16.9928 12.7676 16.8627 12.7696H14.0966C13.9038 12.7696 13.7476 12.9259 13.7476 13.1187V13.8168" stroke="#525252" stroke-width="0.837267"/>
</svg>
