<svg width="282" height="282" viewBox="0 0 282 282" fill="none" xmlns="http://www.w3.org/2000/svg">
<g clip-path="url(#clip0_2458_17836)">
<path d="M281.375 215.143H0.625V215.283H281.375V215.143Z" fill="#EBEBEB"/>
<path d="M253.244 224.176H204.449V224.316H253.244V224.176Z" fill="#EBEBEB"/>
<path d="M206.331 218.965H201.451V219.105H206.331V218.965Z" fill="#EBEBEB"/>
<path d="M168.688 223.621H157.912V223.761H168.688V223.621Z" fill="#EBEBEB"/>
<path d="M42.2097 219.908H30.0813V220.049H42.2097V219.908Z" fill="#EBEBEB"/>
<path d="M62.8897 219.908H47.207V220.049H62.8897V219.908Z" fill="#EBEBEB"/>
<path d="M143.532 222.211H117.232V222.351H143.532V222.211Z" fill="#EBEBEB"/>
<path d="M133.7 190.099H25.2804C24.431 190.097 23.617 189.759 23.0169 189.158C22.4169 188.557 22.0798 187.742 22.0798 186.893V34.4847C22.0872 33.6402 22.4275 32.8328 23.0268 32.2377C23.626 31.6427 24.4359 31.3081 25.2804 31.3066H133.7C134.551 31.3066 135.366 31.6444 135.968 32.2457C136.569 32.847 136.907 33.6625 136.907 34.5128V186.893C136.907 187.743 136.569 188.559 135.968 189.16C135.366 189.761 134.551 190.099 133.7 190.099ZM25.2804 31.4189C24.4683 31.4204 23.6899 31.7441 23.1162 32.3189C22.5424 32.8937 22.2202 33.6726 22.2202 34.4847V186.893C22.2202 187.705 22.5424 188.484 23.1162 189.059C23.6899 189.633 24.4683 189.957 25.2804 189.958H133.7C134.513 189.957 135.292 189.633 135.867 189.059C136.441 188.484 136.765 187.705 136.766 186.893V34.4847C136.765 33.6721 136.441 32.8932 135.867 32.3185C135.292 31.7439 134.513 31.4204 133.7 31.4189H25.2804Z" fill="#EBEBEB"/>
<path d="M255.159 190.099H146.733C145.883 190.097 145.069 189.759 144.468 189.158C143.867 188.557 143.528 187.743 143.527 186.893V34.4847C143.536 33.6397 143.877 32.8323 144.477 32.2374C145.078 31.6425 145.888 31.3081 146.733 31.3066H255.159C256.002 31.3096 256.811 31.6448 257.409 32.2397C258.007 32.8346 258.346 33.6412 258.354 34.4847V186.893C258.354 187.741 258.017 188.555 257.419 189.156C256.82 189.757 256.007 190.096 255.159 190.099ZM146.733 31.4189C145.92 31.4204 145.141 31.7439 144.567 32.3185C143.992 32.8932 143.669 33.6721 143.667 34.4847V186.893C143.669 187.705 143.992 188.484 144.567 189.059C145.141 189.633 145.92 189.957 146.733 189.958H255.159C255.971 189.957 256.75 189.633 257.325 189.059C257.899 188.484 258.223 187.705 258.224 186.893V34.4847C258.223 33.6721 257.899 32.8932 257.325 32.3185C256.75 31.7439 255.971 31.4204 255.159 31.4189H146.733Z" fill="#EBEBEB"/>
<path d="M117.776 41.3809H30.9517V165.545H117.776V41.3809Z" fill="#E6E6E6"/>
<path d="M120.382 41.3809H32.1702V165.545H120.382V41.3809Z" fill="#F0F0F0"/>
<path d="M117.776 165.545H30.9517V167.819H117.776V165.545Z" fill="#E6E6E6"/>
<path d="M121.769 165.545H33.5569V167.819H121.769V165.545Z" fill="#F0F0F0"/>
<path d="M116.738 161.894L116.738 45.0234L35.8198 45.0234L35.8198 161.894H116.738Z" fill="#FAFAFA"/>
<path d="M73.2046 161.894L92.8346 45.0293H102.942L83.3116 161.894H73.2046Z" fill="white"/>
<path d="M47.7012 161.894L67.3312 45.0293H77.4382L57.8082 161.894H47.7012Z" fill="white"/>
<path d="M37.5044 103.236C37.3528 103.236 37.2292 103.05 37.2292 102.82V47.5349C37.2292 47.3047 37.3528 47.125 37.5044 47.125C37.656 47.125 37.7851 47.3047 37.7851 47.5349V102.82C37.7851 103.05 37.6841 103.236 37.5044 103.236Z" fill="#F0F0F0"/>
<path d="M85.4844 161.894L105.114 45.0293H109.051L89.4205 161.894H85.4844Z" fill="white"/>
<path d="M116.738 161.9L116.738 45.0293H116.277L116.277 161.9H116.738Z" fill="#E6E6E6"/>
<path opacity="0.5" d="M121.246 55.5697H34.4216L34.0847 46.4453H120.909L121.246 55.5697Z" fill="#E0E0E0"/>
<path opacity="0.5" d="M121.246 70.5602H34.4216L34.0847 61.4414H120.909L121.246 70.5602Z" fill="#E0E0E0"/>
<path opacity="0.5" d="M121.246 85.5582H34.4216L34.0847 76.4395H120.909L121.246 85.5582Z" fill="#E0E0E0"/>
<path opacity="0.5" d="M121.246 100.556H34.4216L34.0847 91.4316H120.909L121.246 100.556Z" fill="#E0E0E0"/>
<path opacity="0.5" d="M121.246 115.548H34.4216L34.0847 106.43H120.909L121.246 115.548Z" fill="#E0E0E0"/>
<path opacity="0.5" d="M121.246 130.546H34.4216L34.0847 121.428H120.909L121.246 130.546Z" fill="#E0E0E0"/>
<path opacity="0.5" d="M121.246 63.0658H34.4216L34.0847 53.9414H120.909L121.246 63.0658Z" fill="#E0E0E0"/>
<path opacity="0.5" d="M121.246 78.0619H34.4216L34.0847 68.9375H120.909L121.246 78.0619Z" fill="#E0E0E0"/>
<path opacity="0.5" d="M121.246 93.0543H34.4216L34.0847 83.9355H120.909L121.246 93.0543Z" fill="#E0E0E0"/>
<path opacity="0.5" d="M121.246 108.052H34.4216L34.0847 98.9336H120.909L121.246 108.052Z" fill="#E0E0E0"/>
<path opacity="0.5" d="M121.246 123.05H34.4216L34.0847 113.926H120.909L121.246 123.05Z" fill="#E0E0E0"/>
<path opacity="0.5" d="M121.246 138.048H34.4216L34.0847 128.924H120.909L121.246 138.048Z" fill="#E0E0E0"/>
<path d="M167.43 126.51H150.124V213.233H167.43V126.51Z" fill="#F0F0F0"/>
<path d="M238.785 213.232H153.448V215.142H238.785V213.232Z" fill="#F0F0F0"/>
<path d="M167.424 213.232H242.098V126.509L167.424 126.509V213.232Z" fill="#F5F5F5"/>
<path d="M233.513 175.37H176.009C175.463 175.368 174.94 175.151 174.554 174.765C174.168 174.379 173.95 173.855 173.949 173.309V159.889C173.949 159.342 174.166 158.818 174.552 158.43C174.938 158.043 175.462 157.824 176.009 157.823H185.516C185.899 157.829 186.273 157.941 186.597 158.146C186.921 158.351 187.182 158.641 187.352 158.985C187.536 159.326 187.81 159.61 188.143 159.808C188.476 160.006 188.857 160.109 189.244 160.108H220.289C220.856 160.107 221.399 159.881 221.8 159.479C221.962 159.314 222.098 159.124 222.204 158.918C222.374 158.581 222.633 158.297 222.955 158.099C223.276 157.9 223.646 157.795 224.023 157.795H233.513C234.061 157.795 234.586 158.013 234.974 158.4C235.361 158.788 235.579 159.313 235.579 159.861V173.309C235.577 173.856 235.359 174.38 234.972 174.767C234.584 175.153 234.06 175.37 233.513 175.37ZM176.009 158.39C175.611 158.392 175.23 158.551 174.949 158.833C174.668 159.115 174.51 159.497 174.51 159.895V173.309C174.512 173.706 174.67 174.087 174.951 174.368C175.232 174.648 175.612 174.807 176.009 174.808H233.513C233.911 174.808 234.293 174.651 234.575 174.37C234.857 174.089 235.016 173.707 235.017 173.309V159.889C235.017 159.49 234.859 159.107 234.577 158.825C234.295 158.543 233.912 158.385 233.513 158.385H224.023C223.751 158.384 223.484 158.458 223.252 158.598C223.019 158.739 222.829 158.941 222.704 159.182C222.572 159.442 222.4 159.679 222.193 159.884C221.943 160.135 221.647 160.334 221.32 160.47C220.993 160.605 220.643 160.675 220.289 160.675H189.244C188.754 160.676 188.274 160.543 187.854 160.292C187.433 160.041 187.089 159.681 186.858 159.249C186.734 158.996 186.544 158.782 186.308 158.629C186.071 158.477 185.797 158.392 185.516 158.385L176.009 158.39Z" fill="#EBEBEB"/>
<path d="M233.513 198.802H176.009C175.463 198.8 174.94 198.583 174.554 198.197C174.168 197.81 173.95 197.287 173.949 196.741V183.327C173.949 182.78 174.166 182.255 174.552 181.868C174.938 181.48 175.462 181.262 176.009 181.26H185.516C185.899 181.266 186.273 181.378 186.597 181.583C186.921 181.788 187.182 182.079 187.352 182.423C187.536 182.763 187.81 183.048 188.143 183.245C188.476 183.443 188.857 183.547 189.244 183.546H220.289C220.569 183.547 220.847 183.492 221.105 183.384C221.364 183.276 221.598 183.117 221.794 182.917C221.96 182.753 222.098 182.563 222.204 182.355C222.374 182.018 222.633 181.735 222.955 181.536C223.276 181.338 223.646 181.233 224.023 181.232H233.513C234.061 181.232 234.586 181.45 234.974 181.838C235.361 182.225 235.579 182.751 235.579 183.299V196.713C235.582 196.986 235.531 197.257 235.428 197.511C235.326 197.764 235.174 197.994 234.982 198.189C234.79 198.383 234.561 198.537 234.309 198.642C234.056 198.748 233.786 198.802 233.513 198.802ZM176.009 181.822C175.611 181.823 175.23 181.983 174.949 182.265C174.668 182.547 174.51 182.929 174.51 183.327V196.741C174.512 197.138 174.67 197.519 174.951 197.8C175.232 198.08 175.612 198.239 176.009 198.24H233.513C233.911 198.24 234.293 198.082 234.575 197.801C234.857 197.52 235.016 197.139 235.017 196.741V183.327C235.017 182.928 234.859 182.545 234.577 182.263C234.295 181.981 233.912 181.822 233.513 181.822H224.023C223.751 181.821 223.484 181.895 223.252 182.036C223.019 182.176 222.829 182.378 222.704 182.619C222.572 182.879 222.4 183.116 222.193 183.321C221.945 183.574 221.648 183.774 221.321 183.91C220.994 184.046 220.643 184.115 220.289 184.113H189.244C188.754 184.113 188.274 183.981 187.854 183.73C187.433 183.478 187.089 183.118 186.858 182.687C186.734 182.434 186.544 182.219 186.308 182.067C186.071 181.914 185.797 181.83 185.516 181.822H176.009Z" fill="#EBEBEB"/>
<path d="M235.579 209.234H173.949V204.248H235.579V209.234ZM174.51 208.673H235.017V204.81H174.51V208.673Z" fill="#EBEBEB"/>
<path d="M233.513 151.944H176.009C175.463 151.943 174.94 151.725 174.554 151.339C174.168 150.953 173.95 150.429 173.949 149.883V136.469C173.949 135.922 174.166 135.397 174.552 135.01C174.938 134.623 175.462 134.404 176.009 134.403H185.516C185.898 134.408 186.272 134.519 186.596 134.723C186.92 134.927 187.182 135.217 187.352 135.56C187.536 135.901 187.809 136.185 188.142 136.383C188.476 136.581 188.856 136.684 189.244 136.683H220.289C220.856 136.681 221.399 136.455 221.8 136.054C221.962 135.888 222.098 135.699 222.204 135.492C222.374 135.155 222.633 134.871 222.955 134.673C223.276 134.475 223.646 134.369 224.023 134.369H233.513C233.784 134.369 234.053 134.423 234.303 134.526C234.554 134.63 234.782 134.782 234.974 134.974C235.166 135.166 235.318 135.394 235.422 135.645C235.526 135.895 235.579 136.164 235.579 136.435V149.85C235.583 150.123 235.532 150.395 235.43 150.649C235.328 150.903 235.176 151.134 234.984 151.329C234.792 151.524 234.562 151.679 234.31 151.784C234.057 151.89 233.786 151.944 233.513 151.944ZM176.009 134.964C175.611 134.966 175.23 135.125 174.949 135.407C174.668 135.689 174.51 136.071 174.51 136.469V149.883C174.512 150.281 174.67 150.661 174.951 150.942C175.232 151.223 175.612 151.381 176.009 151.383H233.513C233.911 151.383 234.293 151.225 234.575 150.944C234.857 150.663 235.016 150.282 235.017 149.883V136.469C235.017 136.07 234.859 135.687 234.577 135.405C234.295 135.123 233.912 134.964 233.513 134.964H224.023C223.751 134.963 223.484 135.037 223.252 135.178C223.019 135.319 222.829 135.521 222.704 135.762C222.572 136.022 222.4 136.259 222.193 136.464C221.944 136.715 221.647 136.914 221.32 137.05C220.994 137.186 220.643 137.256 220.289 137.255H189.244C188.755 137.255 188.274 137.122 187.854 136.871C187.434 136.62 187.09 136.26 186.858 135.829C186.734 135.576 186.544 135.361 186.308 135.209C186.071 135.057 185.797 134.972 185.516 134.964H176.009Z" fill="#EBEBEB"/>
<path d="M244.411 125.111H167.43V126.509H244.411V125.111Z" fill="#F0F0F0"/>
<path d="M147.71 126.51H167.43V125.112H147.71V126.51Z" fill="#E6E6E6"/>
<path d="M227.651 44.373H161.602V109.928H227.651V44.373Z" fill="#E6E6E6"/>
<path d="M231.216 44.373H162.275V109.928H231.216V44.373Z" fill="#F0F0F0"/>
<path d="M228.032 106.75V47.5566L165.459 47.5566V106.75H228.032Z" fill="white"/>
<path d="M196.746 101.521C191.926 101.521 187.215 100.092 183.207 97.4145C179.2 94.7368 176.076 90.9308 174.232 86.478C172.387 82.0251 171.905 77.1253 172.845 72.3981C173.785 67.671 176.106 63.3288 179.514 59.9208C182.922 56.5127 187.264 54.1917 191.992 53.2515C196.719 52.3112 201.619 52.7938 206.071 54.6382C210.524 56.4826 214.33 59.6061 217.008 63.6136C219.686 67.621 221.115 72.3326 221.115 77.1523C221.107 83.6131 218.538 89.8072 213.969 94.3757C209.401 98.9442 203.207 101.514 196.746 101.521ZM196.746 53.2043C192.009 53.2043 187.379 54.6089 183.441 57.2403C179.503 59.8717 176.433 63.6119 174.621 67.9878C172.808 72.3637 172.334 77.1789 173.258 81.8243C174.182 86.4698 176.463 90.7369 179.812 94.0861C183.161 97.4353 187.428 99.7161 192.074 100.64C196.719 101.564 201.534 101.09 205.91 99.2774C210.286 97.4648 214.026 94.3953 216.658 90.4571C219.289 86.5189 220.694 81.8888 220.694 77.1523C220.688 70.8027 218.163 64.7149 213.673 60.2251C209.183 55.7353 203.095 53.2103 196.746 53.2043Z" fill="#F5F5F5"/>
<path d="M141 240.499C201.127 240.499 249.869 237.654 249.869 234.143C249.869 230.633 201.127 227.787 141 227.787C80.8733 227.787 32.1309 230.633 32.1309 234.143C32.1309 237.654 80.8733 240.499 141 240.499Z" fill="#F5F5F5"/>
<path d="M38.6833 202.328H176.189L186.071 116.783H48.5714L38.6833 202.328Z" fill="#106FA4"/>
<path opacity="0.4" d="M38.6833 202.328H176.189L186.071 116.783H48.5714L38.6833 202.328Z" fill="white"/>
<path d="M203.197 205.534H65.6914L48.5713 116.783H186.071L203.197 205.534Z" fill="#106FA4"/>
<path opacity="0.6" d="M203.197 205.534H65.6914L48.5713 116.783H186.071L203.197 205.534Z" fill="white"/>
<path d="M197.93 200.774H69.1166L55.2869 129.064H184.101L197.93 200.774Z" fill="white"/>
<g opacity="0.5">
<path d="M79.1451 146.453H65.6747L63.075 132.977H76.5453L79.1451 146.453Z" fill="#106FA4"/>
<path d="M180.423 146.453H166.947L164.353 132.977H177.823L180.423 146.453Z" fill="#106FA4"/>
<path d="M163.539 146.453H150.068L147.469 132.977H160.945L163.539 146.453Z" fill="#106FA4"/>
<path d="M146.66 146.453H133.189L130.59 132.977H144.066L146.66 146.453Z" fill="#106FA4"/>
<path d="M129.781 146.453H116.311L113.711 132.977H127.181L129.781 146.453Z" fill="#106FA4"/>
<path d="M112.902 146.453H99.432L96.8323 132.977H110.303L112.902 146.453Z" fill="#106FA4"/>
<path d="M96.0237 146.453H82.5534L79.9536 132.977H93.424L96.0237 146.453Z" fill="#106FA4"/>
<path opacity="0.5" d="M82.3848 163.254H68.9144L66.3147 149.783H79.7851L82.3848 163.254Z" fill="#106FA4"/>
<path d="M183.663 163.254H170.192L167.593 149.783H181.063L183.663 163.254Z" fill="#106FA4"/>
<path opacity="0.5" d="M166.784 163.254H153.314L150.714 149.783H164.184L166.784 163.254Z" fill="#106FA4"/>
<path d="M149.905 163.254H136.429L133.835 149.783H147.306L149.905 163.254Z" fill="#106FA4"/>
<path d="M133.021 163.254H119.551L116.951 149.783H130.427L133.021 163.254Z" fill="#106FA4"/>
<path d="M116.142 163.254H102.672L100.072 149.783H113.543L116.142 163.254Z" fill="#106FA4"/>
<path d="M99.2637 163.254H85.7933L83.1936 149.783H96.664L99.2637 163.254Z" fill="#106FA4"/>
<path d="M85.6248 180.052H72.1544L69.5547 166.582H83.0251L85.6248 180.052Z" fill="#106FA4"/>
<path d="M186.903 180.052H173.432L170.833 166.582H184.303L186.903 180.052Z" fill="#106FA4"/>
<path d="M170.024 180.052H156.553L153.954 166.582H167.424L170.024 180.052Z" fill="#106FA4"/>
<path d="M153.145 180.052H139.675L137.075 166.582H150.545L153.145 180.052Z" fill="#106FA4"/>
<path d="M136.266 180.052H122.79L120.196 166.582H133.667L136.266 180.052Z" fill="#106FA4"/>
<path d="M119.382 180.052H105.912L103.312 166.582H116.788L119.382 180.052Z" fill="#106FA4"/>
<path d="M102.503 180.052H89.0331L86.4333 166.582H99.9037L102.503 180.052Z" fill="#106FA4"/>
<path d="M88.8646 196.859H75.3942L72.7944 183.383H86.2704L88.8646 196.859Z" fill="#106FA4"/>
<path d="M190.142 196.859H176.672L174.072 183.383H187.543L190.142 196.859Z" fill="#106FA4"/>
<path d="M173.264 196.859H159.793L157.194 183.383H170.664L173.264 196.859Z" fill="#106FA4"/>
<path d="M156.385 196.859H142.915L140.315 183.383H153.785L156.385 196.859Z" fill="#106FA4"/>
<path d="M139.506 196.859H126.036L123.436 183.383H136.907L139.506 196.859Z" fill="#106FA4"/>
<path d="M122.628 196.859H109.152L106.558 183.383H120.028L122.628 196.859Z" fill="#106FA4"/>
<path opacity="0.5" d="M105.749 196.859H92.2728L89.6787 183.383H103.149L105.749 196.859Z" fill="#106FA4"/>
</g>
<path d="M65.5286 122.876L65.3545 121.983C66.9436 121.983 67.8307 119.602 67.2861 116.784C66.7414 113.965 64.939 111.579 63.3556 111.579C61.7721 111.579 60.8794 113.965 61.4184 116.784H60.5312C59.8687 113.364 61.0366 110.691 63.1815 110.691C65.3264 110.691 67.5275 113.364 68.1845 116.784C68.8414 120.203 67.6735 122.876 65.5286 122.876Z" fill="#263238"/>
<path d="M78.825 122.876L78.6509 121.983C80.2399 121.983 81.1271 119.602 80.5825 116.784C80.0378 113.965 78.2354 111.579 76.652 111.579C75.0685 111.579 74.1757 113.965 74.7148 116.784H73.8276C73.165 113.364 74.333 110.691 76.4779 110.691C78.6228 110.691 80.8239 113.364 81.4809 116.784C82.1378 120.203 80.9699 122.876 78.825 122.876Z" fill="#263238"/>
<path d="M92.1494 122.876L91.9754 121.983C93.5644 121.983 94.4516 119.602 93.9069 116.784C93.3623 113.965 91.5599 111.579 89.9764 111.579C88.393 111.579 87.4946 113.965 88.0392 116.784H87.0959C86.4334 113.364 87.6013 110.691 89.7462 110.691C91.8911 110.691 94.0922 113.364 94.7492 116.784C95.4061 120.203 94.2663 122.876 92.1494 122.876Z" fill="#263238"/>
<path d="M105.412 122.876L105.244 121.983C106.833 121.983 107.72 119.602 107.175 116.784C106.63 113.965 104.828 111.579 103.245 111.579C101.661 111.579 100.768 113.965 101.313 116.784H100.42C99.7633 113.364 100.931 110.691 103.076 110.691C105.221 110.691 107.416 113.364 108.079 116.784C108.742 120.203 107.562 122.876 105.412 122.876Z" fill="#263238"/>
<path d="M118.708 122.876L118.54 121.983C120.129 121.983 121.016 119.602 120.471 116.784C119.927 113.965 118.124 111.579 116.541 111.579C114.958 111.579 114.065 113.965 114.609 116.784H113.717C113.06 113.364 114.228 110.691 116.372 110.691C118.517 110.691 120.713 113.364 121.375 116.784C122.038 120.203 120.859 122.876 118.708 122.876Z" fill="#263238"/>
<path d="M132.016 122.876L131.847 121.983C133.437 121.983 134.324 119.602 133.779 116.784C133.234 113.965 131.432 111.579 129.849 111.579C128.265 111.579 127.372 113.965 127.917 116.784H127.024C126.367 113.364 127.53 110.691 129.68 110.691C131.831 110.691 134.021 113.364 134.683 116.784C135.346 120.203 134.155 122.876 132.016 122.876Z" fill="#263238"/>
<path d="M145.301 122.876L145.132 121.983C146.721 121.983 147.609 119.602 147.064 116.784C146.519 113.965 144.717 111.579 143.133 111.579C141.55 111.579 140.657 113.965 141.202 116.784H140.309C139.652 113.364 140.814 110.691 142.965 110.691C145.116 110.691 147.305 113.364 147.968 116.784C148.631 120.203 147.451 122.876 145.301 122.876Z" fill="#263238"/>
<path d="M158.597 122.876L158.429 121.983C160.018 121.983 160.905 119.602 160.36 116.784C159.816 113.965 158.013 111.579 156.43 111.579C154.846 111.579 153.954 113.965 154.498 116.784H153.606C152.949 113.364 154.111 110.691 156.261 110.691C158.412 110.691 160.602 113.364 161.264 116.784C161.927 120.203 160.742 122.876 158.597 122.876Z" fill="#263238"/>
<path d="M171.882 122.876L171.714 121.983C173.303 121.983 174.19 119.602 173.646 116.784C173.101 113.965 171.298 111.579 169.715 111.579C168.132 111.579 167.239 113.965 167.783 116.784H166.891C166.234 113.364 167.396 110.691 169.547 110.691C171.697 110.691 173.887 113.364 174.544 116.784C175.201 120.203 174.039 122.876 171.882 122.876Z" fill="#263238"/>
<path d="M114.435 144.556H67.202L64.6023 131.086H111.836L114.435 144.556Z" fill="#106FA4"/>
<path d="M134.565 161.361H121.089L118.495 147.885H131.965L134.565 161.361Z" fill="#106FA4"/>
<path d="M176.711 178.61L175.981 177.976C174.483 176.664 172.816 175.559 171.023 174.691L171.489 173.315C173.159 174.123 174.73 175.12 176.172 176.286C178.659 172.598 181.916 169.492 185.718 167.184L186.723 168.554C182.852 170.905 179.575 174.116 177.144 177.936L176.711 178.61Z" fill="#106FA4"/>
<path d="M129.624 150.115H128.405L126.367 153.804L122.914 150.115H121.696L125.918 154.624L123.431 159.127H124.655L126.687 155.444L130.141 159.127H131.365L127.136 154.624L129.624 150.115Z" fill="white"/>
<path d="M154.594 182.383L156.84 194.068H145.161L142.915 182.383H154.599M155.324 181.49H141.848L144.447 194.966H157.923L155.329 181.49H155.324Z" fill="#106FA4"/>
<path d="M120.915 178.162H90.566L87.9663 164.691H118.315L120.915 178.162Z" fill="#263238"/>
<path d="M100.01 170.064C100.091 170.377 100.098 170.705 100.029 171.021C99.9611 171.337 99.8198 171.632 99.6168 171.884C99.4139 172.135 99.1548 172.336 98.8605 172.47C98.5662 172.603 98.2447 172.666 97.9217 172.653C97.1926 172.626 96.4932 172.357 95.934 171.888C95.3748 171.419 94.9876 170.778 94.8334 170.064C94.7538 169.752 94.7482 169.425 94.8171 169.109C94.8859 168.794 95.0273 168.499 95.23 168.247C95.4328 167.996 95.6912 167.796 95.985 167.662C96.2787 167.528 96.5996 167.464 96.9222 167.476C97.6511 167.504 98.3499 167.774 98.9089 168.242C99.468 168.711 99.8554 169.352 100.01 170.064Z" fill="white"/>
<path d="M100.634 172.512C100.348 172.909 99.9692 173.229 99.5306 173.446C99.092 173.662 98.607 173.768 98.1181 173.753C97.0036 173.726 95.9389 173.286 95.131 172.517C94.631 172.788 94.2293 173.209 93.9832 173.721C93.7372 174.234 93.6594 174.811 93.7609 175.37H103.104C102.935 174.738 102.625 174.152 102.197 173.657C101.769 173.162 101.235 172.77 100.634 172.512Z" fill="white"/>
<path d="M115.856 170.586H105.524L105.238 169.098H115.57L115.856 170.586Z" fill="white"/>
<path d="M113.009 173.748H106.136L105.85 172.26H112.723L113.009 173.748Z" fill="white"/>
<path d="M167.256 132.343C169.917 132.343 173.685 132.731 176.532 134.589C177.049 134.894 177.5 135.3 177.857 135.782C178.215 136.264 178.473 136.813 178.615 137.397C179.114 139.603 177.941 142.012 176.644 143.321C174.594 145.387 171.405 146.69 167.66 146.948C167.233 146.982 166.795 146.998 166.363 146.998C163.726 146.975 161.116 146.457 158.67 145.471C156.261 144.511 153.707 143.225 152.988 140.721C152.8 140.144 152.743 139.532 152.819 138.93C152.896 138.329 153.105 137.751 153.431 137.24C153.856 136.59 154.417 136.042 155.077 135.634C158.188 133.709 161.733 132.599 165.386 132.405C166.009 132.366 166.638 132.343 167.256 132.343ZM167.087 131.479C166.419 131.479 165.773 131.479 165.167 131.546C161.387 131.745 157.718 132.892 154.498 134.881C153.758 135.342 153.128 135.959 152.651 136.689C152.27 137.296 152.027 137.979 151.939 138.69C151.85 139.402 151.919 140.123 152.14 140.805C152.982 143.714 155.863 145.224 158.479 146.263C161.037 147.296 163.767 147.837 166.526 147.857C166.98 147.857 167.43 147.857 167.879 147.813C171.439 147.554 174.987 146.341 177.323 143.983C179.659 141.625 181.147 136.622 176.908 133.876C174.05 132.029 170.31 131.479 167.081 131.479H167.087Z" fill="#263238"/>
<path d="M217.937 230.167L221.957 229.1L219.997 219.645L215.977 220.717L217.937 230.167Z" fill="#B55B52"/>
<path d="M222.086 228.358L217.645 229.818C217.569 229.839 217.504 229.889 217.465 229.958C217.427 230.026 217.416 230.107 217.437 230.183L218.38 233.771C218.44 233.956 218.57 234.11 218.742 234.2C218.915 234.289 219.116 234.307 219.301 234.248C220.84 233.687 221.547 233.378 223.501 232.738C224.703 232.339 227.611 231.446 229.268 230.902C230.924 230.357 230.346 228.734 229.593 228.813C226.224 229.184 224.254 228.886 222.855 228.381C222.609 228.285 222.338 228.277 222.086 228.358Z" fill="#263238"/>
<path opacity="0.2" d="M215.977 220.717L219.997 219.645L221.008 224.518L216.982 225.591L215.977 220.717Z" fill="black"/>
<path d="M205.668 124.357C205.668 124.357 211.283 158.244 212.967 170.064C214.792 183.006 221.626 221.941 221.626 221.941L214.888 224.49C214.888 224.49 204.135 186.212 201.165 173.629C197.936 159.968 190.827 124.357 190.827 124.357H205.668Z" fill="#263238"/>
<path opacity="0.3" d="M196.645 138.254C199.52 145.435 199.845 157.642 198.677 162.645C196.914 154.43 194.893 144.604 193.337 136.962C193.893 135.003 194.904 133.885 196.645 138.254Z" fill="black"/>
<path d="M214.584 225.444L222.406 223.097L222.181 219.896L212.872 222.62L214.584 225.444Z" fill="#263238"/>
<path d="M223.714 228.588C223.348 228.695 222.972 228.763 222.591 228.79C222.573 228.791 222.555 228.788 222.538 228.78C222.521 228.772 222.507 228.76 222.496 228.745C222.487 228.729 222.482 228.71 222.482 228.692C222.482 228.673 222.487 228.654 222.496 228.638C222.591 228.509 223.462 227.375 224.006 227.403C224.068 227.407 224.127 227.427 224.179 227.461C224.231 227.494 224.274 227.54 224.304 227.594C224.365 227.673 224.402 227.768 224.411 227.867C224.419 227.967 224.4 228.066 224.355 228.155C224.199 228.371 223.972 228.524 223.714 228.588ZM222.822 228.588C223.58 228.492 224.091 228.301 224.214 228.06C224.239 228.003 224.248 227.94 224.241 227.878C224.235 227.816 224.212 227.757 224.175 227.706C224.161 227.679 224.14 227.656 224.114 227.639C224.089 227.623 224.059 227.613 224.029 227.611C223.737 227.583 223.187 228.133 222.822 228.576V228.588Z" fill="#106FA4"/>
<path d="M222.636 228.785C222.622 228.791 222.606 228.791 222.592 228.785C222.576 228.783 222.561 228.776 222.548 228.767C222.535 228.757 222.525 228.744 222.519 228.729C222.519 228.679 222.036 227.572 222.305 227.045C222.341 226.979 222.39 226.921 222.451 226.877C222.511 226.832 222.58 226.801 222.653 226.786C222.734 226.763 222.82 226.767 222.897 226.799C222.975 226.831 223.039 226.887 223.08 226.96C223.316 227.359 222.996 228.381 222.681 228.74C222.665 228.774 222.653 228.785 222.636 228.785ZM222.636 227.005C222.564 227.031 222.504 227.083 222.468 227.151C222.374 227.603 222.427 228.074 222.62 228.493C222.893 228.074 222.994 227.565 222.9 227.073C222.872 227.022 222.822 226.966 222.681 226.994L222.636 227.005Z" fill="#106FA4"/>
<path d="M204.814 89.4708C204.977 89.7347 205.202 90.1053 205.409 90.4254L206.05 91.4361C206.493 92.1043 206.931 92.7725 207.397 93.4294C208.312 94.7377 209.278 96.0067 210.278 97.2139C211.253 98.3942 212.307 99.5067 213.433 100.544C214.451 101.495 215.583 102.317 216.802 102.992L215.915 102.739C216.785 102.918 217.676 102.969 218.56 102.891C219.043 102.846 219.537 102.784 220.042 102.694C220.547 102.604 221.058 102.481 221.575 102.34C222.638 102.051 223.683 101.696 224.703 101.279C225.225 101.066 225.747 100.847 226.269 100.611C226.791 100.375 227.325 100.111 227.78 99.8979L227.931 99.8249C228.367 99.6164 228.867 99.5892 229.323 99.7492C229.779 99.9092 230.153 100.243 230.363 100.678C230.52 101.014 230.572 101.389 230.513 101.754C230.454 102.12 230.286 102.459 230.031 102.728C229.52 103.256 229.071 103.677 228.566 104.12C228.06 104.564 227.555 104.957 227.022 105.35C225.936 106.143 224.786 106.846 223.585 107.45C222.318 108.087 220.982 108.579 219.604 108.916C218.864 109.086 218.114 109.208 217.358 109.281C216.564 109.348 215.766 109.348 214.972 109.281C214.746 109.258 214.525 109.203 214.315 109.118L214.09 109.022C212.235 108.219 210.501 107.159 208.941 105.872C207.462 104.679 206.085 103.364 204.826 101.942C203.595 100.579 202.444 99.1468 201.378 97.6519C200.85 96.9032 200.341 96.1546 199.851 95.4059C199.609 95.0185 199.368 94.6366 199.132 94.238C198.896 93.8393 198.683 93.4687 198.424 92.9858C197.946 92.1452 197.822 91.1491 198.078 90.2166C198.335 89.2842 198.951 88.4918 199.792 88.0137C200.632 87.5357 201.628 87.4112 202.561 87.6676C203.493 87.924 204.286 88.5403 204.764 89.381L204.814 89.4708Z" fill="#263238"/>
<path opacity="0.3" d="M208.273 99.7402C206.083 95.2482 202.349 95.5065 200.844 96.8934L201.271 97.5167C202.29 98.9614 203.389 100.349 204.562 101.672C205.762 103.032 207.061 104.303 208.447 105.473C208.885 105.833 209.34 106.186 209.8 106.523C209.738 104.184 209.219 101.88 208.273 99.7402Z" fill="black"/>
<path d="M229.026 99.2477L231.834 96.9062L233.518 100.539C233.518 100.539 229.335 103.532 228.375 102.476L228.263 101.123C228.231 100.772 228.284 100.419 228.417 100.093C228.549 99.7664 228.758 99.4767 229.026 99.2477Z" fill="#B55B52"/>
<path d="M235.579 97.3491L236.461 100.157L233.496 100.522L231.823 96.8887L235.579 97.3491Z" fill="#B55B52"/>
<path d="M182.764 230.032H186.925L187.464 220.391H183.303L182.764 230.032Z" fill="#B55B52"/>
<path d="M187.144 229.549H182.467C182.428 229.548 182.389 229.554 182.352 229.567C182.315 229.581 182.282 229.602 182.253 229.628C182.224 229.655 182.201 229.687 182.185 229.722C182.169 229.758 182.159 229.796 182.158 229.835L181.928 233.536C181.928 233.73 182.004 233.917 182.141 234.056C182.277 234.195 182.463 234.274 182.658 234.277C184.286 234.249 185.067 234.153 187.122 234.153C188.385 234.153 191.872 234.282 193.618 234.282C195.364 234.282 195.303 232.553 194.578 232.396C191.254 231.7 189.036 230.711 187.84 229.807C187.644 229.645 187.399 229.554 187.144 229.549Z" fill="#263238"/>
<path opacity="0.2" d="M183.303 220.396H187.464L187.183 225.366H183.022L183.303 220.396Z" fill="black"/>
<path d="M197.537 124.357C197.537 124.357 197.178 160.524 196.504 172.444C195.763 185.494 188.969 224.164 188.969 224.164H181.344C181.344 224.164 184.668 186.544 184.207 173.629C183.708 159.592 183.404 124.357 183.404 124.357H197.537Z" fill="#263238"/>
<path d="M180.732 224.163H190.03L190.485 221.271L180.339 221.721L180.732 224.163Z" fill="#263238"/>
<path d="M188.615 230.273C188.237 230.265 187.86 230.216 187.492 230.127C187.473 230.124 187.456 230.115 187.443 230.101C187.429 230.088 187.42 230.071 187.416 230.052C187.413 230.033 187.415 230.014 187.422 229.996C187.43 229.979 187.442 229.964 187.458 229.953C187.593 229.858 188.767 229.055 189.278 229.257C189.335 229.279 189.386 229.315 189.425 229.363C189.464 229.41 189.491 229.466 189.502 229.527C189.529 229.617 189.532 229.713 189.511 229.806C189.49 229.898 189.447 229.983 189.384 230.054C189.163 230.219 188.89 230.297 188.615 230.273ZM187.773 229.987C188.52 230.133 189.07 230.111 189.261 229.92C189.303 229.874 189.332 229.817 189.345 229.756C189.358 229.694 189.354 229.631 189.334 229.572C189.329 229.541 189.316 229.512 189.297 229.488C189.277 229.465 189.251 229.447 189.222 229.437C188.952 229.33 188.256 229.678 187.773 229.987Z" fill="#106FA4"/>
<path d="M187.531 230.126C187.517 230.132 187.501 230.132 187.486 230.126C187.472 230.119 187.459 230.108 187.45 230.094C187.441 230.08 187.436 230.064 187.436 230.048C187.436 229.997 187.335 228.801 187.756 228.397C187.81 228.345 187.875 228.306 187.946 228.283C188.017 228.259 188.092 228.252 188.166 228.262C188.249 228.265 188.328 228.295 188.392 228.348C188.456 228.401 188.501 228.473 188.52 228.554C188.615 229.009 187.992 229.879 187.582 230.126C187.565 230.131 187.548 230.131 187.531 230.126ZM188.093 228.442C188.015 228.442 187.941 228.472 187.885 228.526C187.654 228.925 187.558 229.387 187.61 229.845C187.975 229.542 188.385 228.88 188.323 228.582C188.323 228.526 188.278 228.458 188.138 228.442H188.093Z" fill="#106FA4"/>
<path d="M203.916 90.5383C203.706 89.8362 203.309 89.2042 202.768 88.7097C202.228 88.2153 201.563 87.8769 200.844 87.7308C199.818 87.4881 198.777 87.3099 197.728 87.1974C194.577 87.0175 191.418 87.0175 188.267 87.1974C186.616 87.276 184.932 87.4781 183.59 87.6746H183.539C183.186 87.7243 182.847 87.8444 182.542 88.0279C182.236 88.2113 181.971 88.4544 181.761 88.7425C181.552 89.0306 181.402 89.358 181.322 89.7051C181.241 90.0522 181.232 90.4119 181.293 90.7629C182.35 96.3474 183.043 101.995 183.365 107.67C183.691 115.907 183.247 122.375 183.404 124.363H205.668C207.021 104.256 205.275 95.1201 203.916 90.5383Z" fill="#E6E6E6"/>
<path d="M188.896 86.8262C190.648 93.9348 192.265 111.948 192.237 126.03H182.826C182.658 123.93 183.129 117.113 182.787 108.427C182.449 102.455 181.727 96.5118 180.625 90.6331C180.561 90.2647 180.571 89.8872 180.655 89.5228C180.739 89.1584 180.895 88.8144 181.113 88.511C181.332 88.2077 181.609 87.951 181.928 87.7562C182.247 87.5614 182.602 87.4322 182.972 87.3764H183.023C184.438 87.1687 186.212 86.9553 187.953 86.8711L188.896 86.8262Z" fill="#263238"/>
<path d="M205.061 90.6383C204.822 89.8622 204.386 89.1612 203.796 88.6034C203.205 88.0456 202.481 87.6498 201.692 87.4546C200.204 87.2206 198.705 87.0669 197.2 86.9941C198.98 93.1706 202.473 111.987 201.434 126.03H207.375C208.784 104.957 206.387 94.4902 205.061 90.6383Z" fill="#263238"/>
<path d="M239.762 110.106L195.465 129.062L190.142 116.687L234.445 97.7305L239.762 110.106Z" fill="#106FA4"/>
<path d="M202.377 117.3C202.579 117.771 202.636 118.29 202.543 118.793C202.449 119.296 202.208 119.76 201.851 120.127C201.493 120.493 201.035 120.745 200.535 120.851C200.034 120.957 199.513 120.913 199.038 120.723C198.563 120.533 198.154 120.207 197.865 119.785C197.575 119.363 197.416 118.865 197.41 118.353C197.403 117.841 197.548 117.339 197.827 116.91C198.105 116.481 198.505 116.144 198.975 115.941C199.287 115.807 199.623 115.735 199.964 115.731C200.304 115.726 200.642 115.789 200.958 115.915C201.274 116.041 201.562 116.229 201.806 116.466C202.049 116.704 202.244 116.987 202.377 117.3Z" fill="white"/>
<path d="M203.495 119.488C203.33 119.981 203.063 120.433 202.711 120.815C202.359 121.196 201.931 121.5 201.454 121.704C200.977 121.909 200.461 122.01 199.942 122.002C199.423 121.994 198.912 121.876 198.441 121.656C198.043 122.108 197.773 122.66 197.661 123.253C197.548 123.845 197.597 124.457 197.801 125.025L206.392 121.352C206.122 120.81 205.71 120.35 205.2 120.022C204.69 119.694 204.101 119.51 203.495 119.488Z" fill="white"/>
<path d="M233.462 104.569L207.571 115.648L206.987 114.278L232.878 103.199L233.462 104.569Z" fill="white"/>
<path d="M231.536 108.831L208.823 118.551L208.234 117.181L230.947 107.461L231.536 108.831Z" fill="white"/>
<path opacity="0.3" d="M185.735 97.8436C185.577 93.1214 182.091 91.3189 181.108 92.5879C181.065 92.6392 181.025 92.6937 180.99 92.7508C181.602 96.3893 182.349 101.398 182.674 106.333C184.331 105.379 185.881 102.33 185.735 97.8436Z" fill="black"/>
<path d="M197.279 87.1861C194.528 86.5347 194.045 84.8334 194.23 82.9636C194.274 82.4953 194.347 82.0302 194.449 81.5711L191.002 78.7074L188.469 76.6074C189.171 79.6564 189.963 85.2096 187.908 87.2422C187.908 87.2422 189.592 90.0497 194.326 89.8027C198.273 89.5837 197.279 87.1861 197.279 87.1861Z" fill="#B55B52"/>
<path d="M192.433 92.3123C192.759 91.3765 193.288 90.525 193.983 89.8192C191.87 89.1258 189.947 87.9492 188.368 86.3828L186.925 86.9443C186.925 86.9443 187.436 90.6109 192.433 92.3123Z" fill="white"/>
<path d="M196.285 91.6836C195.66 90.9044 194.875 90.2687 193.983 89.8195C195.37 89.4264 195.909 86.6133 195.909 86.6133L197.262 86.894C197.262 86.894 199.761 90.5606 196.285 91.6836Z" fill="white"/>
<path opacity="0.2" d="M194.449 81.5707C194.347 82.0298 194.274 82.4949 194.23 82.9632C192.944 82.7049 191.226 81.3348 191.046 80.0209C190.983 79.5859 190.968 79.1453 191.001 78.707L194.449 81.5707Z" fill="black"/>
<path d="M196.055 66.5954C197.79 66.281 199.811 68.1002 198.862 71.7949C197.913 75.4896 193.405 67.0727 196.055 66.5954Z" fill="#263238"/>
<path d="M187.425 72.2225C188.306 76.2709 188.615 78.6798 191.007 80.5271C191.778 81.1351 192.7 81.5209 193.674 81.6428C194.648 81.7646 195.637 81.6178 196.534 81.2183C197.431 80.8188 198.201 80.1818 198.762 79.3761C199.323 78.5704 199.653 77.6268 199.716 76.6471C200.03 72.8795 198.542 66.8939 194.281 65.7484C193.365 65.4755 192.394 65.4482 191.464 65.6693C190.535 65.8904 189.68 66.3521 188.985 67.0081C188.291 67.664 187.781 68.4911 187.507 69.4063C187.233 70.3216 187.205 71.2928 187.425 72.2225Z" fill="#B55B52"/>
<path d="M189.053 76.6073C189.648 75.2036 190.176 71.2955 189.693 69.6728C191.63 69.611 195.701 69.2517 197.397 67.365C200.002 64.4677 196.566 61.0425 192.242 63.7714C189.435 65.5289 183.376 65.1808 184.381 67.1404C181.428 70.3915 184.746 74.0637 189.053 76.6073Z" fill="#263238"/>
<path d="M184.376 67.2857C184.355 67.2855 184.335 67.2809 184.317 67.2722C184.298 67.2634 184.282 67.2508 184.269 67.2351C183.91 66.7916 183.797 66.421 183.921 66.1121C184.218 65.371 185.763 65.1688 187.543 64.9442C189.227 64.7309 191.091 64.4894 191.686 63.7314C191.713 63.7069 191.748 63.6934 191.785 63.6934C191.821 63.6934 191.856 63.7069 191.883 63.7314C191.896 63.744 191.907 63.7592 191.914 63.7761C191.922 63.793 191.926 63.8112 191.926 63.8296C191.926 63.8481 191.922 63.8663 191.914 63.8832C191.907 63.9001 191.896 63.9153 191.883 63.9279C191.215 64.7758 189.356 65.0116 187.559 65.2418C186.004 65.444 184.398 65.6461 184.19 66.2413C184.106 66.4547 184.19 66.741 184.488 67.0948C184.514 67.121 184.528 67.1563 184.528 67.193C184.528 67.2298 184.514 67.265 184.488 67.2913C184.451 67.3023 184.411 67.3004 184.376 67.2857Z" fill="#263238"/>
<path d="M186.801 75.49C187.285 76.246 188.015 76.8114 188.868 77.0902C189.951 77.4159 190.322 76.4165 189.884 75.3608C189.485 74.4063 188.441 73.0868 187.425 73.2271C186.408 73.3675 186.189 74.541 186.801 75.49Z" fill="#B55B52"/>
<path d="M193.219 72.6262C193.27 72.9575 193.489 73.1877 193.708 73.1877C193.927 73.1877 194.056 72.8733 194.006 72.542C193.955 72.2107 193.736 71.9805 193.517 71.9805C193.298 71.9805 193.169 72.2949 193.219 72.6262Z" fill="#263238"/>
<path d="M196.987 72.1767C197.038 72.508 197.257 72.7382 197.476 72.7382C197.695 72.7382 197.829 72.4182 197.773 72.0869C197.717 71.7556 197.504 71.5254 197.29 71.5254C197.077 71.5254 196.937 71.8454 196.987 72.1767Z" fill="#263238"/>
<path d="M196.409 72.4863C196.966 73.456 197.649 74.3472 198.441 75.1366C198.234 75.326 197.988 75.4675 197.72 75.551C197.452 75.6344 197.17 75.6578 196.892 75.6195L196.409 72.4863Z" fill="#A02724"/>
<path d="M195.667 76.681C195.278 76.6863 194.891 76.6124 194.531 76.4637C194.171 76.3151 193.845 76.0948 193.573 75.8163C193.565 75.8067 193.558 75.7956 193.554 75.7835C193.55 75.7714 193.548 75.7586 193.549 75.7458C193.55 75.733 193.553 75.7205 193.558 75.709C193.564 75.6975 193.572 75.6872 193.581 75.6788C193.591 75.6703 193.602 75.6638 193.614 75.6596C193.626 75.6554 193.639 75.6537 193.652 75.6545C193.665 75.6553 193.677 75.6585 193.689 75.6642C193.7 75.6698 193.711 75.6776 193.719 75.6872C194.022 75.982 194.387 76.2049 194.787 76.339C195.188 76.4732 195.613 76.5152 196.032 76.462C196.045 76.4597 196.059 76.46 196.072 76.463C196.084 76.466 196.096 76.4716 196.107 76.4796C196.118 76.4875 196.126 76.4975 196.133 76.509C196.139 76.5204 196.143 76.5332 196.145 76.5463C196.146 76.5588 196.145 76.5716 196.142 76.5837C196.139 76.5959 196.133 76.6073 196.125 76.6172C196.117 76.6272 196.107 76.6354 196.096 76.6416C196.085 76.6477 196.073 76.6516 196.06 76.653C195.93 76.6703 195.799 76.6797 195.667 76.681Z" fill="#263238"/>
<path d="M191.99 71.5535C191.956 71.5512 191.924 71.5416 191.894 71.5254C191.872 71.5126 191.852 71.4955 191.836 71.4749C191.82 71.4544 191.808 71.431 191.802 71.4059C191.795 71.3808 191.793 71.3547 191.796 71.3289C191.8 71.3032 191.808 71.2784 191.821 71.2559C191.966 70.9823 192.176 70.7485 192.433 70.5751C192.689 70.4018 192.984 70.2943 193.292 70.2621C193.318 70.2605 193.344 70.2641 193.368 70.2726C193.393 70.2811 193.415 70.2944 193.435 70.3116C193.454 70.3288 193.47 70.3496 193.481 70.3729C193.492 70.3962 193.499 70.4215 193.5 70.4474C193.502 70.4732 193.498 70.499 193.49 70.5235C193.481 70.5479 193.468 70.5704 193.451 70.5897C193.433 70.609 193.413 70.6247 193.389 70.6359C193.366 70.6472 193.341 70.6537 193.315 70.6551C193.072 70.6838 192.841 70.7715 192.64 70.9105C192.439 71.0495 192.276 71.2356 192.164 71.4524C192.147 71.4834 192.121 71.5092 192.091 71.5269C192.06 71.5447 192.025 71.5539 191.99 71.5535Z" fill="#263238"/>
<path d="M198.677 70.6943C198.645 70.6944 198.613 70.6863 198.584 70.6705C198.556 70.6548 198.532 70.6321 198.514 70.6044C198.378 70.3921 198.195 70.2138 197.979 70.0834C197.762 69.953 197.519 69.8738 197.268 69.852C197.216 69.852 197.166 69.8313 197.129 69.7945C197.092 69.7576 197.071 69.7076 197.071 69.6555C197.071 69.6034 197.092 69.5534 197.129 69.5165C197.166 69.4797 197.216 69.459 197.268 69.459C197.584 69.4811 197.89 69.5762 198.163 69.737C198.436 69.8978 198.668 70.1198 198.84 70.3855C198.868 70.4297 198.878 70.483 198.868 70.5344C198.857 70.5857 198.827 70.6309 198.784 70.6606C198.752 70.6819 198.715 70.6936 198.677 70.6943Z" fill="#263238"/>
<path d="M186.246 93.4913L186.206 93.553L186.111 93.7102L185.909 94.064C185.768 94.3167 185.634 94.575 185.499 94.8445C185.24 95.406 184.988 95.9675 184.763 96.529C184.315 97.705 183.958 98.914 183.696 100.145C183.175 102.687 183.022 105.291 183.242 107.877C183.272 108.421 183.345 108.962 183.461 109.494C183.589 110.032 183.767 110.556 183.994 111.061C184.515 112.212 185.153 113.307 185.897 114.329C187.537 116.546 189.371 118.613 191.378 120.505L191.456 120.584C191.769 120.887 191.962 121.293 192.001 121.726C192.039 122.16 191.921 122.593 191.668 122.947C191.414 123.302 191.042 123.553 190.619 123.656C190.196 123.759 189.75 123.707 189.362 123.509C187.954 122.789 186.605 121.957 185.33 121.022C184.033 120.085 182.811 119.048 181.675 117.922C180.469 116.723 179.414 115.383 178.531 113.93C178.046 113.139 177.641 112.302 177.323 111.431C177.013 110.55 176.786 109.642 176.644 108.719C176.353 107.094 176.203 105.446 176.195 103.795C176.169 102.123 176.295 100.452 176.571 98.803C176.849 97.1291 177.287 95.4857 177.879 93.8955C178.181 93.0851 178.528 92.2922 178.918 91.5204C179.12 91.1273 179.328 90.7399 179.564 90.3525C179.682 90.1559 179.805 89.9594 179.934 89.7573L180.142 89.4541L180.423 89.0666C181.017 88.327 181.876 87.8479 182.818 87.731C183.76 87.614 184.71 87.8684 185.467 88.4402C186.224 89.012 186.729 89.8562 186.874 90.7939C187.02 91.7316 186.794 92.689 186.246 93.4632V93.4913Z" fill="#263238"/>
<path d="M192.568 120.551L194.887 120.428L192.197 124.92C192.197 124.92 188.446 124.442 188.828 122.528L189.351 121.966C190.205 121.103 191.355 120.598 192.568 120.551Z" fill="#B55B52"/>
<path d="M197.29 122.039L195.269 126.812L192.198 124.937L194.887 120.428L197.29 122.039Z" fill="#B55B52"/>
</g>
<defs>
<clipPath id="clip0_2458_17836">
<rect width="280.75" height="280.75" fill="white" transform="translate(0.625 0.423828)"/>
</clipPath>
</defs>
</svg>
