<svg width="282" height="282" viewBox="0 0 282 282" fill="none" xmlns="http://www.w3.org/2000/svg">
<g clip-path="url(#clip0_2458_18830)">
<path d="M281.367 215.141H0.616699V215.281H281.367V215.141Z" fill="#EBEBEB"/>
<path d="M253.236 224.174H204.441V224.314H253.236V224.174Z" fill="#EBEBEB"/>
<path d="M206.322 218.963H201.443V219.103H206.322V218.963Z" fill="#EBEBEB"/>
<path d="M168.679 223.619H157.904V223.76H168.679V223.619Z" fill="#EBEBEB"/>
<path d="M42.2014 219.906H30.073V220.047H42.2014V219.906Z" fill="#EBEBEB"/>
<path d="M62.8814 219.906H47.1987V220.047H62.8814V219.906Z" fill="#EBEBEB"/>
<path d="M143.524 222.209H117.223V222.349H143.524V222.209Z" fill="#EBEBEB"/>
<path d="M133.692 190.097H25.2722C24.4229 190.095 23.6088 189.757 23.0087 189.156C22.4087 188.555 22.0717 187.74 22.0717 186.891V34.4828C22.079 33.6383 22.4193 32.8308 23.0186 32.2358C23.6179 31.6407 24.4277 31.3061 25.2722 31.3047H133.692C134.543 31.3047 135.358 31.6425 135.959 32.2438C136.561 32.845 136.898 33.6605 136.898 34.5109V186.891C136.898 187.741 136.561 188.557 135.959 189.158C135.358 189.759 134.543 190.097 133.692 190.097ZM25.2722 31.417C24.4601 31.4185 23.6817 31.7421 23.108 32.3169C22.5343 32.8917 22.212 33.6707 22.212 34.4828V186.891C22.212 187.703 22.5343 188.482 23.108 189.057C23.6817 189.631 24.4601 189.955 25.2722 189.957H133.692C134.505 189.955 135.284 189.632 135.858 189.057C136.433 188.482 136.757 187.703 136.758 186.891V34.4828C136.757 33.6701 136.433 32.8912 135.858 32.3166C135.284 31.742 134.505 31.4185 133.692 31.417H25.2722Z" fill="#EBEBEB"/>
<path d="M255.15 190.097H146.725C145.875 190.095 145.06 189.757 144.459 189.156C143.858 188.555 143.52 187.741 143.518 186.891V34.4828C143.527 33.6378 143.869 32.8303 144.469 32.2354C145.069 31.6405 145.88 31.3061 146.725 31.3047H255.15C255.994 31.3076 256.802 31.6429 257.4 32.2377C257.998 32.8326 258.338 33.6393 258.345 34.4828V186.891C258.345 187.739 258.009 188.553 257.41 189.154C256.811 189.755 255.999 190.094 255.15 190.097ZM146.725 31.417C145.912 31.4185 145.133 31.742 144.558 32.3166C143.984 32.8912 143.66 33.6701 143.659 34.4828V186.891C143.66 187.703 143.984 188.482 144.558 189.057C145.133 189.632 145.912 189.955 146.725 189.957H255.15C255.963 189.955 256.742 189.632 257.316 189.057C257.891 188.482 258.215 187.703 258.216 186.891V34.4828C258.215 33.6701 257.891 32.8912 257.316 32.3166C256.742 31.742 255.963 31.4185 255.15 31.417H146.725Z" fill="#EBEBEB"/>
<path d="M117.768 41.3789H30.9434V165.543H117.768V41.3789Z" fill="#E6E6E6"/>
<path d="M120.373 41.3789H32.1617V165.543H120.373V41.3789Z" fill="#F0F0F0"/>
<path d="M117.768 165.543H30.9434V167.817H117.768V165.543Z" fill="#E6E6E6"/>
<path d="M121.76 165.543H33.5487V167.817H121.76V165.543Z" fill="#F0F0F0"/>
<path d="M116.729 161.892L116.729 45.0215L35.8115 45.0215L35.8115 161.892H116.729Z" fill="#FAFAFA"/>
<path d="M73.1962 161.892L92.8262 45.0273H102.933L83.3032 161.892H73.1962Z" fill="white"/>
<path d="M47.6929 161.892L67.3229 45.0273H77.4299L57.7999 161.892H47.6929Z" fill="white"/>
<path d="M37.4961 103.234C37.3445 103.234 37.2209 103.048 37.2209 102.818V47.5329C37.2209 47.3027 37.3445 47.123 37.4961 47.123C37.6477 47.123 37.7768 47.3027 37.7768 47.5329V102.818C37.7768 103.048 37.6758 103.234 37.4961 103.234Z" fill="#F0F0F0"/>
<path d="M85.4762 161.892L105.106 45.0273H109.042L89.4123 161.892H85.4762Z" fill="white"/>
<path d="M116.729 161.898L116.729 45.0273H116.269L116.269 161.898H116.729Z" fill="#E6E6E6"/>
<path opacity="0.5" d="M121.238 55.5677H34.4134L34.0765 46.4434H120.901L121.238 55.5677Z" fill="#E0E0E0"/>
<path opacity="0.5" d="M121.238 70.5582H34.4134L34.0765 61.4395H120.901L121.238 70.5582Z" fill="#E0E0E0"/>
<path opacity="0.5" d="M121.238 85.5563H34.4134L34.0765 76.4375H120.901L121.238 85.5563Z" fill="#E0E0E0"/>
<path opacity="0.5" d="M121.238 100.554H34.4134L34.0765 91.4297H120.901L121.238 100.554Z" fill="#E0E0E0"/>
<path opacity="0.5" d="M121.238 115.546H34.4134L34.0765 106.428H120.901L121.238 115.546Z" fill="#E0E0E0"/>
<path opacity="0.5" d="M121.238 130.545H34.4134L34.0765 121.426H120.901L121.238 130.545Z" fill="#E0E0E0"/>
<path opacity="0.5" d="M121.238 63.0638H34.4134L34.0765 53.9395H120.901L121.238 63.0638Z" fill="#E0E0E0"/>
<path opacity="0.5" d="M121.238 78.0599H34.4134L34.0765 68.9355H120.901L121.238 78.0599Z" fill="#E0E0E0"/>
<path opacity="0.5" d="M121.238 93.0524H34.4134L34.0765 83.9336H120.901L121.238 93.0524Z" fill="#E0E0E0"/>
<path opacity="0.5" d="M121.238 108.05H34.4134L34.0765 98.9316H120.901L121.238 108.05Z" fill="#E0E0E0"/>
<path opacity="0.5" d="M121.238 123.048H34.4134L34.0765 113.924H120.901L121.238 123.048Z" fill="#E0E0E0"/>
<path opacity="0.5" d="M121.238 138.046H34.4134L34.0765 128.922H120.901L121.238 138.046Z" fill="#E0E0E0"/>
<path d="M167.422 126.508H150.116V213.231H167.422V126.508Z" fill="#F0F0F0"/>
<path d="M238.777 213.23H153.44V215.14H238.777V213.23Z" fill="#F0F0F0"/>
<path d="M167.416 213.23H242.09V126.507L167.416 126.507V213.23Z" fill="#F5F5F5"/>
<path d="M233.504 175.368H176.001C175.455 175.366 174.932 175.149 174.546 174.763C174.16 174.377 173.942 173.853 173.941 173.307V159.887C173.941 159.34 174.157 158.816 174.544 158.428C174.93 158.041 175.454 157.823 176.001 157.821H185.507C185.891 157.827 186.265 157.939 186.589 158.144C186.913 158.349 187.174 158.639 187.344 158.983C187.528 159.324 187.802 159.608 188.135 159.806C188.468 160.004 188.848 160.108 189.236 160.106H220.281C220.848 160.105 221.391 159.879 221.792 159.477C221.954 159.312 222.09 159.122 222.196 158.916C222.365 158.579 222.625 158.295 222.946 158.097C223.268 157.899 223.638 157.793 224.015 157.793H233.504C234.053 157.793 234.578 158.011 234.966 158.398C235.353 158.786 235.571 159.311 235.571 159.859V173.307C235.569 173.854 235.351 174.378 234.964 174.765C234.576 175.151 234.052 175.368 233.504 175.368ZM176.001 158.388C175.603 158.39 175.222 158.549 174.941 158.831C174.66 159.113 174.502 159.495 174.502 159.893V173.307C174.504 173.704 174.662 174.085 174.943 174.366C175.224 174.647 175.604 174.805 176.001 174.806H233.504C233.903 174.806 234.285 174.649 234.567 174.368C234.849 174.087 235.008 173.705 235.009 173.307V159.887C235.009 159.488 234.851 159.106 234.569 158.823C234.286 158.541 233.904 158.383 233.504 158.383H224.015C223.743 158.382 223.476 158.456 223.244 158.596C223.011 158.737 222.821 158.939 222.696 159.18C222.564 159.44 222.392 159.677 222.185 159.882C221.935 160.133 221.639 160.332 221.312 160.468C220.985 160.604 220.635 160.673 220.281 160.673H189.236C188.746 160.674 188.266 160.541 187.846 160.29C187.425 160.039 187.081 159.679 186.849 159.247C186.726 158.994 186.536 158.78 186.299 158.627C186.063 158.475 185.789 158.39 185.507 158.383L176.001 158.388Z" fill="#EBEBEB"/>
<path d="M233.504 198.8H176.001C175.455 198.798 174.932 198.581 174.546 198.195C174.16 197.808 173.942 197.285 173.941 196.739V183.325C173.941 182.778 174.157 182.253 174.544 181.866C174.93 181.478 175.454 181.26 176.001 181.259H185.507C185.891 181.265 186.265 181.376 186.589 181.581C186.913 181.786 187.174 182.077 187.344 182.421C187.528 182.761 187.802 183.046 188.135 183.243C188.468 183.441 188.848 183.545 189.236 183.544H220.281C220.561 183.545 220.839 183.49 221.097 183.382C221.356 183.274 221.59 183.115 221.786 182.915C221.952 182.751 222.09 182.561 222.196 182.353C222.365 182.016 222.625 181.733 222.946 181.534C223.268 181.336 223.638 181.231 224.015 181.23H233.504C234.053 181.23 234.578 181.448 234.966 181.836C235.353 182.223 235.571 182.749 235.571 183.297V196.711C235.574 196.984 235.523 197.255 235.42 197.509C235.317 197.762 235.166 197.992 234.974 198.187C234.781 198.381 234.553 198.535 234.3 198.64C234.048 198.746 233.778 198.8 233.504 198.8ZM176.001 181.82C175.603 181.822 175.222 181.981 174.941 182.263C174.66 182.545 174.502 182.927 174.502 183.325V196.739C174.504 197.136 174.662 197.517 174.943 197.798C175.224 198.078 175.604 198.237 176.001 198.238H233.504C233.903 198.238 234.285 198.081 234.567 197.8C234.849 197.519 235.008 197.137 235.009 196.739V183.325C235.009 182.926 234.851 182.543 234.569 182.261C234.286 181.979 233.904 181.82 233.504 181.82H224.015C223.743 181.819 223.476 181.893 223.244 182.034C223.011 182.174 222.821 182.376 222.696 182.617C222.564 182.877 222.392 183.114 222.185 183.319C221.936 183.572 221.64 183.772 221.313 183.908C220.986 184.044 220.635 184.113 220.281 184.111H189.236C188.746 184.111 188.266 183.979 187.846 183.728C187.425 183.477 187.081 183.116 186.849 182.685C186.726 182.432 186.536 182.217 186.299 182.065C186.063 181.912 185.789 181.828 185.507 181.82H176.001Z" fill="#EBEBEB"/>
<path d="M235.571 209.232H173.941V204.246H235.571V209.232ZM174.502 208.671H235.009V204.808H174.502V208.671Z" fill="#EBEBEB"/>
<path d="M233.504 151.942H176.001C175.455 151.941 174.932 151.723 174.546 151.337C174.16 150.951 173.942 150.428 173.941 149.881V136.467C173.941 135.92 174.157 135.395 174.544 135.008C174.93 134.621 175.454 134.402 176.001 134.401H185.507C185.89 134.406 186.264 134.517 186.588 134.721C186.912 134.925 187.173 135.215 187.344 135.558C187.528 135.899 187.801 136.183 188.134 136.381C188.468 136.579 188.848 136.682 189.236 136.681H220.281C220.848 136.679 221.391 136.453 221.792 136.052C221.954 135.886 222.09 135.697 222.196 135.49C222.365 135.153 222.625 134.869 222.946 134.671C223.268 134.473 223.638 134.368 224.015 134.367H233.504C233.776 134.367 234.045 134.421 234.295 134.524C234.546 134.628 234.774 134.781 234.966 134.972C235.157 135.164 235.31 135.392 235.414 135.643C235.517 135.893 235.571 136.162 235.571 136.434V149.848C235.575 150.121 235.524 150.393 235.422 150.647C235.319 150.901 235.168 151.132 234.976 151.327C234.783 151.522 234.554 151.677 234.302 151.782C234.049 151.888 233.778 151.942 233.504 151.942ZM176.001 134.962C175.603 134.964 175.222 135.123 174.941 135.405C174.66 135.687 174.502 136.069 174.502 136.467V149.881C174.504 150.279 174.662 150.659 174.943 150.94C175.224 151.221 175.604 151.379 176.001 151.381H233.504C233.903 151.381 234.285 151.223 234.567 150.942C234.849 150.661 235.008 150.28 235.009 149.881V136.467C235.009 136.068 234.851 135.685 234.569 135.403C234.286 135.121 233.904 134.962 233.504 134.962H224.015C223.743 134.961 223.476 135.035 223.244 135.176C223.011 135.317 222.821 135.519 222.696 135.76C222.564 136.02 222.392 136.257 222.185 136.462C221.936 136.713 221.639 136.912 221.312 137.048C220.986 137.184 220.635 137.254 220.281 137.253H189.236C188.746 137.253 188.266 137.12 187.846 136.869C187.426 136.618 187.082 136.258 186.849 135.827C186.726 135.574 186.536 135.36 186.299 135.207C186.063 135.055 185.789 134.97 185.507 134.962H176.001Z" fill="#EBEBEB"/>
<path d="M244.403 125.109H167.422V126.508H244.403V125.109Z" fill="#F0F0F0"/>
<path d="M147.702 126.508H167.422V125.11H147.702V126.508Z" fill="#E6E6E6"/>
<path d="M227.642 44.3711H161.593V109.926H227.642V44.3711Z" fill="#E6E6E6"/>
<path d="M231.208 44.3711H162.267V109.926H231.208V44.3711Z" fill="#F0F0F0"/>
<path d="M228.024 106.748V47.5547L165.451 47.5547V106.748H228.024Z" fill="white"/>
<path d="M196.737 101.519C191.918 101.519 187.206 100.09 183.199 97.4125C179.191 94.7348 176.068 90.9289 174.223 86.476C172.379 82.0231 171.896 77.1233 172.837 72.3962C173.777 67.669 176.098 63.3269 179.506 59.9188C182.914 56.5107 187.256 54.1898 191.983 53.2495C196.71 52.3092 201.61 52.7918 206.063 54.6362C210.516 56.4807 214.322 59.6041 217 63.6116C219.677 67.6191 221.106 72.3306 221.106 77.1504C221.099 83.6112 218.529 89.8052 213.961 94.3737C209.392 98.9422 203.198 101.512 196.737 101.519ZM196.737 53.2024C192.001 53.2024 187.371 54.6069 183.433 57.2383C179.494 59.8698 176.425 63.61 174.612 67.9859C172.8 72.3618 172.326 77.1769 173.25 81.8224C174.174 86.4678 176.454 90.735 179.804 94.0841C183.153 97.4333 187.42 99.7141 192.065 100.638C196.711 101.562 201.526 101.088 205.902 99.2754C210.278 97.4628 214.018 94.3934 216.649 90.4552C219.281 86.5169 220.685 81.8868 220.685 77.1504C220.679 70.8008 218.154 64.713 213.665 60.2232C209.175 55.7333 203.087 53.2083 196.737 53.2024Z" fill="#F5F5F5"/>
<path d="M140.992 240.498C201.118 240.498 249.861 237.652 249.861 234.141C249.861 230.631 201.118 227.785 140.992 227.785C80.8648 227.785 32.1224 230.631 32.1224 234.141C32.1224 237.652 80.8648 240.498 140.992 240.498Z" fill="#F5F5F5"/>
<path d="M38.6752 202.326H176.181L186.063 116.781H48.5632L38.6752 202.326Z" fill="#106FA4"/>
<path opacity="0.4" d="M38.6752 202.326H176.181L186.063 116.781H48.5632L38.6752 202.326Z" fill="white"/>
<path d="M203.189 205.532H65.6834L48.5632 116.781H186.063L203.189 205.532Z" fill="#106FA4"/>
<path opacity="0.6" d="M203.189 205.532H65.6834L48.5632 116.781H186.063L203.189 205.532Z" fill="white"/>
<path d="M197.922 200.772H69.1084L55.2787 129.062H184.092L197.922 200.772Z" fill="white"/>
<g opacity="0.5">
<path d="M79.1369 146.451H65.6665L63.0668 132.975H76.5372L79.1369 146.451Z" fill="#106FA4"/>
<path d="M180.415 146.451H166.939L164.344 132.975H177.815L180.415 146.451Z" fill="#106FA4"/>
<path d="M163.53 146.451H150.06L147.46 132.975H160.936L163.53 146.451Z" fill="#106FA4"/>
<path d="M146.652 146.451H133.181L130.582 132.975H144.058L146.652 146.451Z" fill="#106FA4"/>
<path d="M129.773 146.451H116.303L113.703 132.975H127.173L129.773 146.451Z" fill="#106FA4"/>
<path d="M112.894 146.451H99.4238L96.8241 132.975H110.294L112.894 146.451Z" fill="#106FA4"/>
<path d="M96.0156 146.451H82.5452L79.9454 132.975H93.4158L96.0156 146.451Z" fill="#106FA4"/>
<path opacity="0.5" d="M82.3768 163.252H68.9064L66.3066 149.781H79.777L82.3768 163.252Z" fill="#106FA4"/>
<path d="M183.654 163.252H170.184L167.584 149.781H181.055L183.654 163.252Z" fill="#106FA4"/>
<path opacity="0.5" d="M166.776 163.252H153.305L150.706 149.781H164.176L166.776 163.252Z" fill="#106FA4"/>
<path d="M149.897 163.252H136.421L133.827 149.781H147.297L149.897 163.252Z" fill="#106FA4"/>
<path d="M133.013 163.252H119.542L116.943 149.781H130.419L133.013 163.252Z" fill="#106FA4"/>
<path d="M116.134 163.252H102.664L100.064 149.781H113.534L116.134 163.252Z" fill="#106FA4"/>
<path d="M99.2554 163.252H85.785L83.1853 149.781H96.6557L99.2554 163.252Z" fill="#106FA4"/>
<path d="M85.6166 180.05H72.1463L69.5465 166.58H83.0169L85.6166 180.05Z" fill="#106FA4"/>
<path d="M186.894 180.05H173.424L170.824 166.58H184.295L186.894 180.05Z" fill="#106FA4"/>
<path d="M170.016 180.05H156.545L153.946 166.58H167.416L170.016 180.05Z" fill="#106FA4"/>
<path d="M153.137 180.05H139.667L137.067 166.58H150.537L153.137 180.05Z" fill="#106FA4"/>
<path d="M136.258 180.05H122.782L120.188 166.58H133.658L136.258 180.05Z" fill="#106FA4"/>
<path d="M119.374 180.05H105.904L103.304 166.58H116.78L119.374 180.05Z" fill="#106FA4"/>
<path d="M102.495 180.05H89.0249L86.4252 166.58H99.8956L102.495 180.05Z" fill="#106FA4"/>
<path d="M88.8565 196.857H75.3861L72.7864 183.381H86.2624L88.8565 196.857Z" fill="#106FA4"/>
<path d="M190.134 196.857H176.664L174.064 183.381H187.534L190.134 196.857Z" fill="#106FA4"/>
<path d="M173.256 196.857H159.785L157.185 183.381H170.656L173.256 196.857Z" fill="#106FA4"/>
<path d="M156.377 196.857H142.907L140.307 183.381H153.777L156.377 196.857Z" fill="#106FA4"/>
<path d="M139.498 196.857H126.028L123.428 183.381H136.898L139.498 196.857Z" fill="#106FA4"/>
<path d="M122.619 196.857H109.143L106.549 183.381H120.02L122.619 196.857Z" fill="#106FA4"/>
<path opacity="0.5" d="M105.741 196.857H92.2648L89.6707 183.381H103.141L105.741 196.857Z" fill="#106FA4"/>
</g>
<path d="M65.5205 122.874L65.3465 121.981C66.9355 121.981 67.8227 119.6 67.278 116.782C66.7334 113.963 64.9309 111.577 63.3475 111.577C61.7641 111.577 60.8713 113.963 61.4103 116.782H60.5232C59.8606 113.362 61.0285 110.689 63.1735 110.689C65.3184 110.689 67.5195 113.362 68.1764 116.782C68.8334 120.201 67.6654 122.874 65.5205 122.874Z" fill="#263238"/>
<path d="M78.8168 122.874L78.6427 121.981C80.2318 121.981 81.1189 119.6 80.5743 116.782C80.0296 113.963 78.2272 111.577 76.6438 111.577C75.0603 111.577 74.1676 113.963 74.7066 116.782H73.8194C73.1569 113.362 74.3248 110.689 76.4697 110.689C78.6146 110.689 80.8157 113.362 81.4727 116.782C82.1296 120.201 80.9617 122.874 78.8168 122.874Z" fill="#263238"/>
<path d="M92.1412 122.874L91.9672 121.981C93.5562 121.981 94.4434 119.6 93.8987 116.782C93.3541 113.963 91.5517 111.577 89.9682 111.577C88.3848 111.577 87.4864 113.963 88.0311 116.782H87.0877C86.4252 113.362 87.5931 110.689 89.738 110.689C91.883 110.689 94.084 113.362 94.741 116.782C95.3979 120.201 94.2581 122.874 92.1412 122.874Z" fill="#263238"/>
<path d="M105.404 122.874L105.235 121.981C106.824 121.981 107.712 119.6 107.167 116.782C106.622 113.963 104.82 111.577 103.236 111.577C101.653 111.577 100.76 113.963 101.305 116.782H100.412C99.7552 113.362 100.923 110.689 103.068 110.689C105.213 110.689 107.408 113.362 108.071 116.782C108.734 120.201 107.554 122.874 105.404 122.874Z" fill="#263238"/>
<path d="M118.7 122.874L118.532 121.981C120.121 121.981 121.008 119.6 120.463 116.782C119.919 113.963 118.116 111.577 116.533 111.577C114.949 111.577 114.057 113.963 114.601 116.782H113.708C113.051 113.362 114.219 110.689 116.364 110.689C118.509 110.689 120.705 113.362 121.367 116.782C122.03 120.201 120.851 122.874 118.7 122.874Z" fill="#263238"/>
<path d="M132.008 122.874L131.839 121.981C133.428 121.981 134.315 119.6 133.771 116.782C133.226 113.963 131.424 111.577 129.84 111.577C128.257 111.577 127.364 113.963 127.909 116.782H127.016C126.359 113.362 127.521 110.689 129.672 110.689C131.822 110.689 134.012 113.362 134.675 116.782C135.337 120.201 134.147 122.874 132.008 122.874Z" fill="#263238"/>
<path d="M145.293 122.874L145.124 121.981C146.713 121.981 147.601 119.6 147.056 116.782C146.511 113.963 144.709 111.577 143.125 111.577C141.542 111.577 140.649 113.963 141.194 116.782H140.301C139.644 113.362 140.806 110.689 142.957 110.689C145.108 110.689 147.297 113.362 147.96 116.782C148.622 120.201 147.443 122.874 145.293 122.874Z" fill="#263238"/>
<path d="M158.589 122.874L158.421 121.981C160.01 121.981 160.897 119.6 160.352 116.782C159.808 113.963 158.005 111.577 156.422 111.577C154.838 111.577 153.945 113.963 154.49 116.782H153.597C152.94 113.362 154.103 110.689 156.253 110.689C158.404 110.689 160.594 113.362 161.256 116.782C161.919 120.201 160.734 122.874 158.589 122.874Z" fill="#263238"/>
<path d="M171.874 122.874L171.706 121.981C173.295 121.981 174.182 119.6 173.637 116.782C173.093 113.963 171.29 111.577 169.707 111.577C168.123 111.577 167.231 113.963 167.775 116.782H166.882C166.226 113.362 167.388 110.689 169.538 110.689C171.689 110.689 173.879 113.362 174.536 116.782C175.193 120.201 174.03 122.874 171.874 122.874Z" fill="#263238"/>
<path d="M114.427 144.554H67.1937L64.594 131.084H111.827L114.427 144.554Z" fill="#106FA4"/>
<path d="M134.557 161.359H121.081L118.487 147.883H131.957L134.557 161.359Z" fill="#106FA4"/>
<path d="M176.703 178.608L175.973 177.974C174.475 176.662 172.807 175.557 171.015 174.689L171.481 173.313C173.151 174.121 174.722 175.118 176.164 176.284C178.651 172.596 181.908 169.49 185.71 167.182L186.715 168.552C182.844 170.903 179.567 174.114 177.135 177.934L176.703 178.608Z" fill="#106FA4"/>
<path d="M129.616 150.113H128.397L126.359 153.802L122.906 150.113H121.687L125.91 154.622L123.422 159.125H124.646L126.679 155.442L130.132 159.125H131.356L127.128 154.622L129.616 150.113Z" fill="white"/>
<path d="M154.586 182.381L156.832 194.066H145.152L142.906 182.381H154.591M155.316 181.488H141.84L144.439 194.964H157.915L155.321 181.488H155.316Z" fill="#106FA4"/>
<path d="M120.907 178.16H90.5577L87.958 164.689H118.307L120.907 178.16Z" fill="#263238"/>
<path d="M100.002 170.063C100.083 170.375 100.09 170.703 100.021 171.019C99.9528 171.335 99.8115 171.63 99.6085 171.882C99.4056 172.133 99.1465 172.334 98.8522 172.468C98.5579 172.601 98.2364 172.664 97.9134 172.651C97.1843 172.624 96.4849 172.355 95.9257 171.886C95.3665 171.417 94.9793 170.776 94.8251 170.063C94.7455 169.75 94.7399 169.423 94.8088 169.107C94.8776 168.792 95.019 168.497 95.2217 168.246C95.4245 167.994 95.6829 167.794 95.9767 167.66C96.2704 167.526 96.5913 167.462 96.9139 167.474C97.6428 167.502 98.3416 167.772 98.9006 168.24C99.4597 168.709 99.8471 169.35 100.002 170.063Z" fill="white"/>
<path d="M100.625 172.51C100.34 172.907 99.961 173.227 99.5224 173.444C99.0838 173.66 98.5988 173.766 98.11 173.751C96.9954 173.724 95.9307 173.284 95.1228 172.515C94.6228 172.786 94.2211 173.207 93.9751 173.719C93.729 174.232 93.6512 174.809 93.7527 175.368H103.096C102.927 174.736 102.617 174.15 102.189 173.655C101.761 173.16 101.227 172.768 100.625 172.51Z" fill="white"/>
<path d="M115.848 170.584H105.516L105.23 169.096H115.561L115.848 170.584Z" fill="white"/>
<path d="M113.001 173.746H106.128L105.842 172.258H112.715L113.001 173.746Z" fill="white"/>
<path d="M167.247 132.341C169.909 132.341 173.677 132.729 176.523 134.587C177.041 134.892 177.492 135.298 177.849 135.78C178.207 136.262 178.465 136.811 178.607 137.395C179.106 139.601 177.933 142.01 176.636 143.319C174.586 145.385 171.397 146.688 167.652 146.946C167.225 146.98 166.787 146.996 166.355 146.996C163.718 146.973 161.108 146.455 158.662 145.469C156.253 144.509 153.698 143.223 152.98 140.719C152.792 140.142 152.735 139.53 152.811 138.928C152.888 138.327 153.097 137.749 153.423 137.238C153.848 136.588 154.409 136.04 155.069 135.632C158.18 133.707 161.725 132.597 165.378 132.403C166.001 132.364 166.63 132.341 167.247 132.341ZM167.079 131.477C166.411 131.477 165.765 131.477 165.159 131.544C161.379 131.743 157.71 132.89 154.49 134.879C153.75 135.34 153.119 135.957 152.643 136.687C152.262 137.294 152.019 137.977 151.931 138.688C151.842 139.4 151.911 140.121 152.132 140.803C152.974 143.712 155.855 145.222 158.471 146.261C161.029 147.294 163.759 147.836 166.518 147.856C166.972 147.856 167.422 147.856 167.871 147.811C171.431 147.552 174.979 146.339 177.315 143.981C179.651 141.623 181.139 136.62 176.9 133.874C174.042 132.027 170.302 131.477 167.073 131.477H167.079Z" fill="#263238"/>
<path d="M217.928 230.165L221.949 229.098L219.989 219.643L215.969 220.715L217.928 230.165Z" fill="#B55B52"/>
<path d="M222.078 228.356L217.636 229.816C217.561 229.837 217.496 229.887 217.457 229.956C217.418 230.024 217.408 230.105 217.429 230.181L218.372 233.769C218.431 233.954 218.561 234.108 218.734 234.198C218.907 234.287 219.107 234.305 219.293 234.246C220.831 233.685 221.539 233.376 223.493 232.736C224.694 232.337 227.603 231.444 229.259 230.9C230.916 230.355 230.338 228.732 229.585 228.811C226.216 229.182 224.245 228.884 222.847 228.379C222.601 228.283 222.329 228.275 222.078 228.356Z" fill="#263238"/>
<path opacity="0.2" d="M215.969 220.715L219.989 219.643L221 224.516L216.974 225.589L215.969 220.715Z" fill="black"/>
<path d="M205.66 124.355C205.66 124.355 211.275 158.242 212.959 170.062C214.784 183.004 221.617 221.939 221.617 221.939L214.879 224.488C214.879 224.488 204.127 186.21 201.156 173.627C197.928 159.966 190.819 124.355 190.819 124.355H205.66Z" fill="#263238"/>
<path opacity="0.3" d="M196.636 138.252C199.511 145.433 199.837 157.64 198.669 162.643C196.906 154.428 194.884 144.602 193.329 136.96C193.885 135.001 194.896 133.883 196.636 138.252Z" fill="black"/>
<path d="M214.576 225.442L222.398 223.095L222.173 219.895L212.864 222.618L214.576 225.442Z" fill="#263238"/>
<path d="M223.706 228.586C223.34 228.693 222.964 228.761 222.583 228.788C222.565 228.789 222.546 228.786 222.53 228.778C222.513 228.77 222.499 228.758 222.488 228.743C222.479 228.727 222.474 228.708 222.474 228.69C222.474 228.671 222.479 228.652 222.488 228.636C222.583 228.507 223.454 227.373 223.998 227.401C224.06 227.405 224.119 227.425 224.171 227.459C224.223 227.492 224.266 227.538 224.296 227.592C224.357 227.671 224.394 227.766 224.402 227.865C224.411 227.965 224.392 228.065 224.347 228.153C224.191 228.369 223.964 228.522 223.706 228.586ZM222.814 228.586C223.572 228.49 224.083 228.299 224.206 228.058C224.231 228.001 224.24 227.938 224.233 227.876C224.226 227.814 224.204 227.755 224.167 227.704C224.153 227.677 224.132 227.654 224.106 227.637C224.081 227.621 224.051 227.611 224.021 227.609C223.729 227.581 223.179 228.131 222.814 228.574V228.586Z" fill="#106FA4"/>
<path d="M222.628 228.783C222.614 228.789 222.598 228.789 222.583 228.783C222.567 228.781 222.552 228.774 222.54 228.765C222.527 228.755 222.517 228.742 222.51 228.727C222.51 228.677 222.027 227.57 222.297 227.043C222.332 226.977 222.382 226.919 222.442 226.875C222.502 226.83 222.572 226.799 222.645 226.784C222.725 226.761 222.811 226.765 222.889 226.797C222.966 226.829 223.031 226.885 223.072 226.958C223.308 227.357 222.988 228.379 222.673 228.738C222.656 228.772 222.645 228.783 222.628 228.783ZM222.628 227.003C222.556 227.029 222.496 227.081 222.46 227.149C222.365 227.601 222.418 228.072 222.611 228.491C222.885 228.072 222.986 227.563 222.892 227.071C222.864 227.02 222.813 226.964 222.673 226.992L222.628 227.003Z" fill="#106FA4"/>
<path d="M204.806 89.4689C204.969 89.7328 205.194 90.1034 205.401 90.4234L206.042 91.4341C206.485 92.1023 206.923 92.7705 207.389 93.4275C208.304 94.7358 209.27 96.0048 210.27 97.212C211.245 98.3923 212.299 99.5048 213.425 100.542C214.443 101.493 215.575 102.315 216.794 102.99L215.907 102.737C216.777 102.916 217.667 102.967 218.552 102.889C219.035 102.844 219.529 102.782 220.034 102.692C220.539 102.602 221.05 102.479 221.567 102.338C222.63 102.049 223.675 101.694 224.695 101.277C225.217 101.064 225.739 100.845 226.261 100.609C226.783 100.373 227.317 100.109 227.772 99.8959L227.923 99.8229C228.359 99.6145 228.859 99.5873 229.315 99.7473C229.771 99.9072 230.145 100.241 230.354 100.676C230.512 101.012 230.564 101.387 230.505 101.752C230.446 102.118 230.278 102.457 230.023 102.726C229.512 103.254 229.063 103.675 228.558 104.118C228.052 104.562 227.547 104.955 227.014 105.348C225.928 106.141 224.778 106.844 223.577 107.448C222.31 108.085 220.974 108.577 219.596 108.914C218.856 109.084 218.106 109.206 217.35 109.279C216.556 109.346 215.758 109.346 214.964 109.279C214.738 109.256 214.517 109.202 214.307 109.116L214.082 109.02C212.227 108.217 210.493 107.157 208.933 105.87C207.454 104.677 206.077 103.363 204.817 101.94C203.587 100.577 202.436 99.1449 201.37 97.6499C200.842 96.9013 200.333 96.1526 199.843 95.4039C199.601 95.0165 199.36 94.6347 199.124 94.236C198.888 93.8374 198.675 93.4668 198.416 92.9839C197.938 92.1432 197.814 91.1471 198.07 90.2147C198.327 89.2822 198.943 88.4898 199.784 88.0118C200.624 87.5338 201.62 87.4093 202.553 87.6657C203.485 87.9221 204.278 88.5384 204.756 89.379L204.806 89.4689Z" fill="#263238"/>
<path opacity="0.3" d="M208.265 99.7383C206.075 95.2463 202.341 95.5046 200.836 96.8915L201.263 97.5147C202.282 98.9595 203.381 100.347 204.554 101.67C205.754 103.03 207.053 104.301 208.439 105.471C208.877 105.831 209.332 106.184 209.792 106.521C209.73 104.182 209.211 101.878 208.265 99.7383Z" fill="black"/>
<path d="M229.018 99.2458L231.826 96.9043L233.51 100.537C233.51 100.537 229.327 103.53 228.367 102.474L228.255 101.121C228.223 100.77 228.276 100.417 228.409 100.091C228.541 99.7644 228.75 99.4747 229.018 99.2458Z" fill="#B55B52"/>
<path d="M235.571 97.3471L236.452 100.155L233.487 100.52L231.814 96.8867L235.571 97.3471Z" fill="#B55B52"/>
<path d="M182.756 230.03H186.917L187.456 220.389H183.295L182.756 230.03Z" fill="#B55B52"/>
<path d="M187.136 229.547H182.458C182.419 229.546 182.38 229.552 182.344 229.565C182.307 229.579 182.273 229.6 182.245 229.626C182.216 229.653 182.193 229.685 182.177 229.72C182.16 229.756 182.151 229.794 182.15 229.833L181.919 233.534C181.919 233.728 181.996 233.915 182.133 234.054C182.269 234.193 182.455 234.272 182.649 234.275C184.278 234.247 185.058 234.151 187.113 234.151C188.377 234.151 191.864 234.281 193.61 234.281C195.356 234.281 195.294 232.551 194.57 232.394C191.246 231.698 189.028 230.709 187.832 229.805C187.636 229.643 187.39 229.552 187.136 229.547Z" fill="#263238"/>
<path opacity="0.2" d="M183.295 220.395H187.456L187.175 225.364H183.014L183.295 220.395Z" fill="black"/>
<path d="M197.529 124.355C197.529 124.355 197.17 160.522 196.496 172.442C195.755 185.492 188.961 224.162 188.961 224.162H181.335C181.335 224.162 184.66 186.542 184.199 173.627C183.699 159.59 183.396 124.355 183.396 124.355H197.529Z" fill="#263238"/>
<path d="M180.723 224.161H190.022L190.477 221.27L180.33 221.719L180.723 224.161Z" fill="#263238"/>
<path d="M188.607 230.271C188.228 230.263 187.852 230.214 187.484 230.125C187.465 230.122 187.448 230.113 187.434 230.099C187.421 230.086 187.412 230.069 187.408 230.05C187.404 230.031 187.406 230.012 187.414 229.994C187.421 229.977 187.434 229.962 187.45 229.951C187.585 229.856 188.758 229.053 189.269 229.255C189.327 229.277 189.377 229.313 189.417 229.361C189.456 229.408 189.483 229.464 189.494 229.525C189.52 229.615 189.523 229.711 189.503 229.804C189.482 229.896 189.439 229.982 189.376 230.052C189.155 230.217 188.881 230.295 188.607 230.271ZM187.765 229.985C188.511 230.131 189.062 230.109 189.253 229.918C189.295 229.872 189.324 229.815 189.337 229.754C189.35 229.692 189.346 229.629 189.326 229.57C189.321 229.539 189.308 229.51 189.288 229.486C189.268 229.463 189.243 229.445 189.213 229.435C188.944 229.328 188.247 229.676 187.765 229.985Z" fill="#106FA4"/>
<path d="M187.523 230.124C187.509 230.13 187.493 230.13 187.478 230.124C187.464 230.117 187.451 230.106 187.442 230.092C187.433 230.078 187.428 230.062 187.428 230.046C187.428 229.995 187.327 228.799 187.748 228.395C187.802 228.343 187.867 228.304 187.938 228.281C188.009 228.258 188.084 228.25 188.158 228.26C188.241 228.263 188.32 228.293 188.384 228.346C188.448 228.399 188.493 228.471 188.512 228.552C188.607 229.007 187.984 229.877 187.574 230.124C187.557 230.129 187.54 230.129 187.523 230.124ZM188.085 228.44C188.007 228.44 187.933 228.47 187.877 228.524C187.646 228.923 187.549 229.385 187.602 229.843C187.967 229.54 188.377 228.878 188.315 228.58C188.315 228.524 188.27 228.457 188.13 228.44H188.085Z" fill="#106FA4"/>
<path d="M203.908 90.5363C203.698 89.8342 203.301 89.2022 202.76 88.7078C202.219 88.2133 201.554 87.875 200.836 87.7288C199.81 87.4861 198.769 87.308 197.72 87.1954C194.569 87.0156 191.41 87.0156 188.259 87.1954C186.608 87.274 184.923 87.4762 183.581 87.6727H183.531C183.178 87.7223 182.839 87.8425 182.533 88.0259C182.228 88.2094 181.963 88.4524 181.753 88.7405C181.544 89.0287 181.394 89.3561 181.314 89.7032C181.233 90.0503 181.223 90.41 181.285 90.7609C182.342 96.3455 183.034 101.993 183.357 107.668C183.683 115.905 183.239 122.373 183.396 124.361H205.66C207.013 104.254 205.267 95.1182 203.908 90.5363Z" fill="#E6E6E6"/>
<path d="M188.888 86.8242C190.639 93.9328 192.257 111.946 192.228 126.028H182.818C182.649 123.928 183.121 117.112 182.778 108.425C182.441 102.454 181.719 96.5099 180.617 90.6312C180.553 90.2628 180.563 89.8853 180.647 89.5209C180.731 89.1564 180.886 88.8124 181.105 88.5091C181.324 88.2057 181.601 87.9491 181.92 87.7542C182.239 87.5594 182.594 87.4303 182.964 87.3745H183.014C184.429 87.1667 186.204 86.9534 187.944 86.8691L188.888 86.8242Z" fill="#263238"/>
<path d="M205.053 90.6363C204.814 89.8603 204.378 89.1593 203.787 88.6015C203.197 88.0436 202.472 87.6479 201.684 87.4526C200.196 87.2187 198.697 87.065 197.192 86.9922C198.972 93.1687 202.465 111.985 201.426 126.028H207.367C208.776 104.955 206.378 94.4882 205.053 90.6363Z" fill="#263238"/>
<path d="M239.754 110.104L195.457 129.06L190.134 116.685L234.437 97.7285L239.754 110.104Z" fill="#106FA4"/>
<path d="M202.369 117.298C202.571 117.769 202.628 118.288 202.534 118.791C202.441 119.294 202.2 119.758 201.842 120.125C201.485 120.491 201.027 120.743 200.526 120.849C200.026 120.955 199.505 120.911 199.03 120.721C198.554 120.531 198.146 120.205 197.856 119.783C197.566 119.361 197.408 118.863 197.401 118.351C197.395 117.84 197.54 117.337 197.818 116.908C198.097 116.479 198.496 116.142 198.966 115.939C199.279 115.805 199.615 115.733 199.955 115.729C200.296 115.724 200.634 115.787 200.95 115.913C201.266 116.039 201.554 116.227 201.797 116.464C202.041 116.702 202.235 116.985 202.369 117.298Z" fill="white"/>
<path d="M203.487 119.486C203.322 119.979 203.055 120.431 202.703 120.813C202.351 121.195 201.923 121.498 201.446 121.702C200.968 121.907 200.453 122.009 199.934 122C199.415 121.992 198.904 121.874 198.433 121.654C198.035 122.107 197.765 122.658 197.652 123.251C197.54 123.843 197.588 124.455 197.793 125.023L206.384 121.351C206.114 120.808 205.702 120.348 205.192 120.02C204.682 119.692 204.093 119.508 203.487 119.486Z" fill="white"/>
<path d="M233.454 104.567L207.563 115.646L206.979 114.276L232.87 103.197L233.454 104.567Z" fill="white"/>
<path d="M231.528 108.829L208.815 118.549L208.226 117.179L230.938 107.459L231.528 108.829Z" fill="white"/>
<path opacity="0.3" d="M185.726 97.8416C185.569 93.1194 182.082 91.317 181.1 92.586C181.056 92.6373 181.017 92.6917 180.982 92.7488C181.594 96.3873 182.341 101.396 182.666 106.331C184.323 105.377 185.872 102.328 185.726 97.8416Z" fill="black"/>
<path d="M197.271 87.1841C194.52 86.5328 194.037 84.8314 194.222 82.9617C194.266 82.4933 194.339 82.0282 194.441 81.5691L190.993 78.7055L188.461 76.6055C189.163 79.6544 189.955 85.2077 187.899 87.2403C187.899 87.2403 189.584 90.0478 194.317 89.8007C198.265 89.5817 197.271 87.1841 197.271 87.1841Z" fill="#B55B52"/>
<path d="M192.425 92.3103C192.75 91.3746 193.28 90.523 193.975 89.8172C191.861 89.1238 189.939 87.9472 188.36 86.3809L186.917 86.9424C186.917 86.9424 187.428 90.609 192.425 92.3103Z" fill="white"/>
<path d="M196.277 91.6817C195.652 90.9025 194.867 90.2667 193.975 89.8175C195.362 89.4244 195.901 86.6113 195.901 86.6113L197.254 86.8921C197.254 86.8921 199.753 90.5587 196.277 91.6817Z" fill="white"/>
<path opacity="0.2" d="M194.441 81.5687C194.339 82.0278 194.266 82.4929 194.222 82.9612C192.936 82.703 191.218 81.3329 191.038 80.019C190.975 79.584 190.96 79.1434 190.993 78.7051L194.441 81.5687Z" fill="black"/>
<path d="M196.047 66.5935C197.782 66.279 199.803 68.0983 198.854 71.7929C197.905 75.4876 193.396 67.0707 196.047 66.5935Z" fill="#263238"/>
<path d="M187.416 72.2206C188.298 76.269 188.607 78.6778 190.999 80.5251C191.77 81.1332 192.692 81.519 193.666 81.6408C194.64 81.7626 195.629 81.6159 196.526 81.2164C197.422 80.8169 198.193 80.1798 198.754 79.3742C199.314 78.5685 199.644 77.6248 199.708 76.6452C200.022 72.8775 198.534 66.8919 194.272 65.7465C193.357 65.4736 192.386 65.4463 191.456 65.6674C190.527 65.8885 189.672 66.3502 188.977 67.0061C188.283 67.662 187.773 68.4891 187.499 69.4044C187.225 70.3197 187.196 71.2909 187.416 72.2206Z" fill="#B55B52"/>
<path d="M189.045 76.6054C189.64 75.2016 190.168 71.2936 189.685 69.6709C191.622 69.6091 195.693 69.2497 197.389 67.3631C199.994 64.4657 196.558 61.0406 192.234 63.7695C189.427 65.527 183.368 65.1788 184.373 67.1385C181.42 70.3896 184.738 74.0618 189.045 76.6054Z" fill="#263238"/>
<path d="M184.368 67.2837C184.347 67.2836 184.327 67.2789 184.309 67.2702C184.29 67.2615 184.274 67.2488 184.261 67.2332C183.902 66.7896 183.789 66.419 183.913 66.1102C184.21 65.369 185.755 65.1669 187.535 64.9423C189.219 64.7289 191.083 64.4875 191.678 63.7294C191.705 63.705 191.74 63.6914 191.777 63.6914C191.813 63.6914 191.848 63.705 191.875 63.7294C191.888 63.742 191.899 63.7572 191.906 63.7741C191.914 63.7911 191.917 63.8093 191.917 63.8277C191.917 63.8461 191.914 63.8643 191.906 63.8812C191.899 63.8981 191.888 63.9133 191.875 63.926C191.207 64.7738 189.348 65.0096 187.551 65.2399C185.996 65.442 184.39 65.6441 184.182 66.2393C184.098 66.4527 184.182 66.7391 184.48 67.0928C184.506 67.1191 184.52 67.1543 184.52 67.1911C184.52 67.2278 184.506 67.2631 184.48 67.2893C184.443 67.3004 184.403 67.2984 184.368 67.2837Z" fill="#263238"/>
<path d="M186.793 75.488C187.277 76.244 188.007 76.8095 188.86 77.0883C189.943 77.414 190.314 76.4145 189.876 75.3589C189.477 74.4043 188.433 73.0848 187.417 73.2252C186.4 73.3656 186.181 74.5391 186.793 75.488Z" fill="#B55B52"/>
<path d="M193.211 72.6242C193.262 72.9555 193.481 73.1857 193.7 73.1857C193.919 73.1857 194.048 72.8713 193.997 72.54C193.947 72.2087 193.728 71.9785 193.509 71.9785C193.29 71.9785 193.161 72.293 193.211 72.6242Z" fill="#263238"/>
<path d="M196.979 72.1748C197.029 72.5061 197.248 72.7363 197.467 72.7363C197.686 72.7363 197.821 72.4162 197.765 72.0849C197.709 71.7537 197.495 71.5234 197.282 71.5234C197.069 71.5234 196.928 71.8435 196.979 72.1748Z" fill="#263238"/>
<path d="M196.401 72.4844C196.958 73.454 197.641 74.3453 198.433 75.1347C198.226 75.3241 197.98 75.4655 197.712 75.549C197.444 75.6325 197.161 75.6559 196.884 75.6175L196.401 72.4844Z" fill="#A02724"/>
<path d="M195.659 76.6791C195.27 76.6843 194.883 76.6104 194.523 76.4618C194.163 76.3131 193.837 76.0929 193.565 75.8144C193.557 75.8048 193.55 75.7936 193.546 75.7815C193.542 75.7694 193.54 75.7566 193.541 75.7438C193.541 75.7311 193.545 75.7186 193.55 75.7071C193.556 75.6956 193.564 75.6853 193.573 75.6768C193.583 75.6683 193.594 75.6618 193.606 75.6576C193.618 75.6535 193.631 75.6517 193.644 75.6525C193.657 75.6533 193.669 75.6566 193.681 75.6622C193.692 75.6678 193.703 75.6756 193.711 75.6852C194.013 75.9801 194.379 76.2029 194.779 76.3371C195.18 76.4712 195.605 76.5133 196.024 76.4601C196.037 76.4577 196.051 76.458 196.064 76.461C196.076 76.464 196.088 76.4697 196.099 76.4776C196.11 76.4855 196.118 76.4955 196.125 76.507C196.131 76.5185 196.135 76.5312 196.137 76.5443C196.138 76.5569 196.137 76.5696 196.134 76.5818C196.13 76.594 196.125 76.6053 196.117 76.6153C196.109 76.6252 196.099 76.6335 196.088 76.6396C196.077 76.6457 196.065 76.6496 196.052 76.651C195.922 76.6683 195.791 76.6777 195.659 76.6791Z" fill="#263238"/>
<path d="M191.982 71.5516C191.948 71.5493 191.916 71.5397 191.886 71.5235C191.864 71.5107 191.844 71.4935 191.828 71.473C191.812 71.4525 191.8 71.429 191.793 71.4039C191.787 71.3789 191.785 71.3527 191.788 71.327C191.792 71.3012 191.8 71.2764 191.813 71.254C191.958 70.9803 192.168 70.7465 192.425 70.5732C192.681 70.3999 192.976 70.2923 193.284 70.2601C193.31 70.2586 193.336 70.2622 193.36 70.2707C193.385 70.2792 193.407 70.2924 193.427 70.3096C193.446 70.3268 193.462 70.3477 193.473 70.371C193.484 70.3943 193.491 70.4196 193.492 70.4454C193.494 70.4712 193.49 70.4971 193.481 70.5215C193.473 70.5459 193.46 70.5684 193.443 70.5877C193.425 70.607 193.404 70.6228 193.381 70.634C193.358 70.6452 193.333 70.6517 193.307 70.6532C193.064 70.6819 192.833 70.7696 192.632 70.9086C192.431 71.0476 192.268 71.2336 192.156 71.4505C192.138 71.4815 192.113 71.5072 192.083 71.525C192.052 71.5428 192.017 71.552 191.982 71.5516Z" fill="#263238"/>
<path d="M198.669 70.6923C198.636 70.6925 198.604 70.6843 198.576 70.6686C198.547 70.6529 198.523 70.6301 198.506 70.6025C198.37 70.3901 198.186 70.2119 197.97 70.0814C197.754 69.951 197.511 69.8719 197.26 69.8501C197.207 69.8501 197.157 69.8294 197.121 69.7925C197.084 69.7557 197.063 69.7057 197.063 69.6536C197.063 69.6014 197.084 69.5514 197.121 69.5146C197.157 69.4777 197.207 69.457 197.26 69.457C197.575 69.4791 197.882 69.5743 198.155 69.7351C198.428 69.8958 198.659 70.1178 198.832 70.3835C198.86 70.4277 198.87 70.4811 198.859 70.5324C198.849 70.5837 198.819 70.629 198.776 70.6586C198.744 70.68 198.707 70.6917 198.669 70.6923Z" fill="#263238"/>
<path d="M186.237 93.4893L186.198 93.5511L186.103 93.7083L185.9 94.062C185.76 94.3147 185.625 94.573 185.491 94.8425C185.232 95.404 184.98 95.9655 184.755 96.527C184.307 97.703 183.95 98.912 183.688 100.143C183.167 102.685 183.013 105.289 183.233 107.875C183.264 108.419 183.337 108.96 183.452 109.492C183.58 110.03 183.759 110.554 183.986 111.059C184.506 112.21 185.144 113.305 185.889 114.327C187.529 116.544 189.363 118.611 191.369 120.503L191.448 120.582C191.76 120.885 191.954 121.291 191.992 121.724C192.031 122.158 191.913 122.591 191.66 122.946C191.406 123.3 191.034 123.551 190.611 123.654C190.188 123.757 189.742 123.705 189.354 123.507C187.945 122.787 186.597 121.955 185.322 121.02C184.025 120.083 182.803 119.046 181.667 117.92C180.461 116.721 179.405 115.381 178.522 113.928C178.038 113.137 177.633 112.3 177.315 111.429C177.005 110.548 176.778 109.64 176.636 108.717C176.345 107.092 176.194 105.444 176.187 103.793C176.161 102.121 176.287 100.45 176.563 98.8011C176.841 97.1271 177.279 95.4838 177.871 93.8936C178.173 93.0832 178.52 92.2902 178.91 91.5184C179.112 91.1254 179.32 90.738 179.556 90.3505C179.673 90.154 179.797 89.9575 179.926 89.7553L180.134 89.4521L180.415 89.0647C181.009 88.325 181.868 87.846 182.81 87.729C183.751 87.6121 184.702 87.8664 185.459 88.4382C186.216 89.01 186.721 89.8542 186.866 90.7919C187.012 91.7296 186.786 92.687 186.237 93.4612V93.4893Z" fill="#263238"/>
<path d="M192.56 120.549L194.879 120.426L192.189 124.918C192.189 124.918 188.438 124.441 188.82 122.526L189.342 121.964C190.197 121.101 191.347 120.596 192.56 120.549Z" fill="#B55B52"/>
<path d="M197.282 122.037L195.261 126.81L192.189 124.935L194.879 120.426L197.282 122.037Z" fill="#B55B52"/>
</g>
<defs>
<clipPath id="clip0_2458_18830">
<rect width="280.75" height="280.75" fill="white" transform="translate(0.616699 0.421875)"/>
</clipPath>
</defs>
</svg>
