<svg width="68" height="67" viewBox="0 0 68 67" fill="none" xmlns="http://www.w3.org/2000/svg">
<path fill-rule="evenodd" clip-rule="evenodd" d="M6.1394 33.4222C6.1394 18.04 18.6091 5.57031 33.9913 5.57031C49.3666 5.58694 61.8266 18.0469 61.8432 33.4222C61.8432 48.8044 49.3735 61.2741 33.9913 61.2741C18.6091 61.2741 6.1394 48.8044 6.1394 33.4222ZM42.781 45.6836C43.7336 46.5293 45.1856 46.4656 46.0605 45.5397V45.5421C46.476 45.0868 46.6933 44.485 46.6645 43.8693C46.6358 43.2537 46.3634 42.6748 45.9073 42.2602L35.1519 32.4006V20.6564C35.1519 19.3745 34.1127 18.3354 32.8309 18.3354C31.549 18.3354 30.5099 19.3745 30.5099 20.6564V33.4218C30.5122 34.0736 30.7885 34.6944 31.2712 35.1324L42.781 45.6836Z" fill="#FAB317"/>
</svg>
