<svg width="458" height="458" viewBox="0 0 458 458" fill="none" xmlns="http://www.w3.org/2000/svg">
<path d="M56.27 189.025C56.27 189.025 19.2361 244.947 45.5528 329.292C71.8695 413.637 148.548 435.154 194.018 411.732C239.488 388.31 246.12 357.825 282.87 335.704C319.62 313.583 395.401 314.361 424.584 253.502C453.768 192.643 393.248 107.345 324.74 58.2201C256.233 9.09506 107.31 67.1969 56.27 189.025Z" fill="#3498DB"/>
<path opacity="0.7" d="M56.27 189.025C56.27 189.025 19.2361 244.947 45.5528 329.292C71.8695 413.637 148.548 435.154 194.018 411.732C239.488 388.31 246.12 357.825 282.87 335.704C319.62 313.583 395.401 314.361 424.584 253.502C453.768 192.643 393.248 107.345 324.74 58.2201C256.233 9.09506 107.31 67.1969 56.27 189.025Z" fill="white"/>
<path d="M292.003 309.7C295.282 311.129 303.279 310.946 303.288 310.946C303.297 310.946 301.566 305.706 301.41 305.386C299.66 301.722 294.082 295.649 289.593 296.226C288.846 296.348 288.132 296.626 287.499 297.041C286.866 297.457 286.328 298.002 285.919 298.639C285.511 299.277 285.241 299.994 285.127 300.743C285.014 301.491 285.059 302.256 285.261 302.986C286.012 306.155 289.218 308.482 292.003 309.7Z" fill="#263238"/>
<path d="M294.769 332.875C298.158 333.37 305.303 331.3 305.871 331.135C307.047 335.221 308.495 339.223 310.203 343.116C311.184 345.388 312.246 347.651 313.336 349.904C312.686 348.988 312.09 348.072 311.999 347.989C309.333 344.912 302.381 340.524 298.185 342.31C297.497 342.625 296.882 343.082 296.381 343.651C295.88 344.219 295.505 344.887 295.279 345.61C295.054 346.334 294.983 347.096 295.072 347.849C295.161 348.601 295.407 349.326 295.795 349.977C297.343 352.798 301.053 354.191 304.039 354.63C307.025 355.07 313.199 353.43 314.829 352.972C315.251 353.834 315.672 354.695 316.102 355.556C318.173 359.668 320.252 363.8 322.166 367.857C322.844 369.296 323.458 370.734 324.081 372.172C323.504 371.329 323.009 370.624 322.918 370.523C320.252 367.445 313.3 363.058 309.104 364.844C308.416 365.158 307.801 365.614 307.3 366.182C306.8 366.749 306.424 367.416 306.199 368.139C305.973 368.861 305.902 369.623 305.991 370.375C306.08 371.127 306.326 371.851 306.713 372.502C308.261 375.323 311.971 376.724 314.957 377.155C317.944 377.585 323.531 376.12 325.455 375.579C326.041 377.082 326.636 378.575 327.14 380.049C327.461 381.066 327.846 382.019 328.111 383.054C328.377 384.089 328.679 385.087 328.954 386.086C329.421 388.037 329.916 390.043 330.328 391.948C330.621 393.277 330.878 394.55 331.134 395.832C330.484 394.394 329.137 391.6 328.991 391.38C326.829 387.927 320.618 382.541 316.167 383.668C315.437 383.875 314.76 384.233 314.179 384.719C313.597 385.205 313.125 385.809 312.792 386.489C312.459 387.17 312.274 387.914 312.248 388.671C312.221 389.429 312.355 390.183 312.64 390.886C313.748 393.909 317.22 395.85 320.105 396.739C323.311 397.71 330.392 396.821 331.281 396.739C331.702 398.855 332.096 400.925 332.435 402.876C332.618 403.911 332.783 404.882 332.939 405.853H335.76C335.549 404.736 335.329 403.582 335.091 402.382C334.67 400.229 334.175 397.939 333.644 395.585C335.78 394.732 337.863 393.754 339.882 392.654C342.218 395.182 348.19 398.15 348.969 398.516C348.153 400.513 347.338 402.455 346.55 404.269C346.312 404.818 346.074 405.331 345.845 405.853H348.813L349.033 405.322C349.875 403.298 350.718 401.108 351.579 398.855C352.431 399.038 359.448 400.467 362.718 399.725C365.686 399.056 369.276 397.38 370.604 394.449C370.94 393.77 371.129 393.028 371.159 392.272C371.189 391.515 371.06 390.76 370.779 390.057C370.498 389.354 370.072 388.717 369.529 388.189C368.986 387.661 368.338 387.254 367.627 386.993C363.304 385.536 356.709 390.446 354.291 393.725C354.153 393.918 352.834 396.18 352.037 397.628C352.376 396.712 352.724 395.796 353.063 394.88C353.75 393.048 354.382 391.106 355.078 389.072C355.371 388.074 355.674 387.066 355.994 386.049C356.315 385.033 356.535 383.952 356.81 382.898C357.396 380.425 357.872 377.897 358.293 375.341C359.942 375.937 365.823 377.988 368.864 377.769C371.905 377.549 375.707 376.44 377.465 373.747C377.898 373.126 378.195 372.42 378.337 371.676C378.48 370.931 378.464 370.166 378.291 369.428C378.119 368.69 377.793 367.997 377.335 367.394C376.877 366.79 376.297 366.29 375.633 365.925C371.575 363.836 364.312 367.683 361.426 370.56C361.252 370.734 359.411 373.033 358.422 374.306C358.669 372.767 358.916 371.238 359.109 369.671C359.667 365.146 360.098 360.557 360.547 355.977C360.684 354.575 360.831 353.174 360.977 351.782C361.564 352.002 368.507 354.585 371.914 354.346C374.946 354.127 378.757 353.018 380.506 350.316C380.941 349.695 381.239 348.989 381.382 348.244C381.525 347.5 381.51 346.734 381.337 345.996C381.164 345.258 380.838 344.564 380.379 343.961C379.92 343.357 379.339 342.857 378.674 342.493C374.626 340.405 367.362 344.261 364.476 347.128C364.257 347.348 361.618 350.655 360.986 351.525C361.316 348.447 361.664 345.379 362.141 342.365C362.753 338.297 363.631 334.273 364.77 330.32C365.035 330.43 372.262 333.15 375.762 332.912C378.794 332.692 382.595 331.584 384.354 328.882C384.788 328.26 385.086 327.554 385.229 326.81C385.372 326.066 385.357 325.299 385.184 324.561C385.011 323.823 384.685 323.13 384.226 322.527C383.767 321.923 383.187 321.423 382.522 321.059C378.473 318.971 371.209 322.827 368.324 325.694C368.095 325.923 365.255 329.477 364.788 330.164C364.852 329.935 364.898 329.688 364.971 329.459C366.221 325.527 367.818 321.713 369.743 318.064C370.778 316.039 371.878 314.162 372.995 312.348C374.296 312.998 380.241 315.884 383.41 316.012C386.58 316.14 390.353 315.444 392.396 312.962C392.897 312.394 393.273 311.727 393.5 311.005C393.727 310.283 393.8 309.521 393.714 308.769C393.627 308.016 393.384 307.291 392.999 306.639C392.614 305.987 392.097 305.423 391.48 304.983C387.679 302.464 380.039 305.496 376.824 308.034C376.65 308.171 375.047 309.765 373.902 310.946C374.415 310.14 374.928 309.298 375.441 308.528C377.346 305.661 379.27 303.151 380.992 300.935C381.981 299.689 382.897 298.58 383.74 297.545C385.343 297.545 391.792 297.326 394.613 295.997C397.434 294.669 400.512 292.333 401.181 289.146C401.361 288.41 401.384 287.645 401.25 286.9C401.116 286.155 400.826 285.446 400.401 284.82C399.975 284.194 399.422 283.664 398.779 283.265C398.135 282.867 397.415 282.607 396.665 282.505C392.14 282.019 386.754 288.23 385.096 291.949C384.949 292.269 383.264 297.554 383.374 297.554H383.474C382.613 298.525 381.706 299.579 380.726 300.751C378.949 302.931 376.971 305.405 374.992 308.244C372.831 311.285 370.846 314.447 369.047 317.716C367.02 321.368 365.322 325.194 363.973 329.147C363.973 329.193 363.973 329.248 363.973 329.294C363.973 327.957 363.973 324.219 363.899 323.935C363.377 319.896 359.997 312.403 355.509 311.578C354.761 311.462 353.996 311.504 353.266 311.702C352.535 311.901 351.854 312.25 351.268 312.729C350.681 313.208 350.202 313.804 349.861 314.481C349.52 315.157 349.325 315.897 349.289 316.653C349.033 319.859 351.35 323.065 353.622 325.099C356.177 327.379 363.276 329.587 363.844 329.761C362.571 333.819 361.568 337.956 360.84 342.145C360.409 344.591 360.043 347.055 359.713 349.537C359.713 348.383 359.713 347.348 359.658 347.211C359.127 343.171 355.747 335.678 351.268 334.845C350.519 334.727 349.754 334.768 349.022 334.966C348.29 335.163 347.608 335.513 347.02 335.992C346.433 336.47 345.952 337.068 345.611 337.744C345.27 338.421 345.075 339.162 345.039 339.919C344.782 343.125 347.109 346.331 349.372 348.365C351.634 350.399 357.689 352.432 359.283 352.945C359.173 353.861 359.045 354.85 358.925 355.803C358.376 360.383 357.854 364.963 357.203 369.415C356.974 370.981 356.69 372.529 356.406 374.068C356.406 373.042 356.406 372.181 356.352 372.044C355.829 368.013 352.449 360.52 347.97 359.687C347.221 359.569 346.456 359.61 345.724 359.808C344.992 360.005 344.31 360.355 343.723 360.833C343.135 361.312 342.655 361.91 342.313 362.586C341.972 363.263 341.777 364.004 341.741 364.761C341.485 367.967 343.802 371.173 346.074 373.207C348.346 375.24 353.805 377.072 355.701 377.686C355.371 379.253 355.042 380.828 354.648 382.339C354.355 383.365 354.144 384.364 353.796 385.381C353.448 386.397 353.145 387.387 352.825 388.376C352.138 390.263 351.442 392.205 350.727 394.028C350.242 395.292 349.756 396.492 349.271 397.692C349.518 396.134 349.93 393.057 349.939 392.8C349.891 389.22 348.923 385.712 347.127 382.614C347.144 382.213 347.12 381.811 347.054 381.414C346.961 380.662 346.711 379.938 346.319 379.289C345.927 378.641 345.403 378.082 344.781 377.649C344.158 377.217 343.452 376.921 342.707 376.781C341.962 376.64 341.196 376.658 340.459 376.834C336.053 378.007 333.259 385.738 333.048 389.805C333.048 390.043 333.195 392.663 333.323 394.312C333.103 393.35 332.893 392.415 332.655 391.435C332.197 389.484 331.674 387.552 331.125 385.472C330.823 384.483 330.52 383.475 330.209 382.459C329.897 381.442 329.494 380.416 329.137 379.381C328.267 376.999 327.305 374.627 326.215 372.254C327.919 371.851 333.955 370.312 336.374 368.453C338.792 366.593 341.347 363.571 341.32 360.355C341.338 359.6 341.197 358.85 340.906 358.153C340.615 357.456 340.181 356.828 339.631 356.31C339.082 355.791 338.43 355.394 337.717 355.145C337.004 354.895 336.247 354.798 335.494 354.859C330.96 355.354 327.03 362.572 326.206 366.557C326.16 366.804 325.885 369.735 325.766 371.347C325.125 369.928 324.484 368.508 323.779 367.097C321.754 363.012 319.583 358.954 317.422 354.887C316.762 353.641 316.121 352.386 315.47 351.14C316.084 351.003 323.293 349.308 326.004 347.247C328.423 345.415 330.978 342.365 330.951 339.15C330.969 338.395 330.828 337.645 330.537 336.948C330.246 336.251 329.812 335.623 329.262 335.104C328.713 334.586 328.061 334.189 327.348 333.939C326.635 333.689 325.878 333.592 325.125 333.654C320.6 334.149 316.661 341.367 315.837 345.351C315.782 345.654 315.397 349.867 315.351 350.939C313.922 348.191 312.53 345.443 311.266 342.695C309.53 338.966 308.042 335.125 306.814 331.199C307.098 331.135 314.628 329.422 317.412 327.297C319.821 325.465 322.386 322.415 322.359 319.2C322.375 318.445 322.233 317.695 321.942 316.999C321.65 316.302 321.216 315.675 320.667 315.157C320.118 314.639 319.466 314.242 318.754 313.992C318.042 313.741 317.285 313.643 316.533 313.704C311.999 314.189 308.069 321.416 307.245 325.401C307.181 325.712 306.778 330.247 306.759 331.071C306.686 330.842 306.594 330.613 306.521 330.384C305.397 326.417 304.624 322.359 304.213 318.256C303.965 315.994 303.846 313.813 303.782 311.688C305.22 311.514 311.77 310.644 314.481 308.995C317.193 307.347 319.977 304.699 320.289 301.493C320.393 300.743 320.338 299.979 320.128 299.251C319.917 298.524 319.555 297.849 319.066 297.27C318.577 296.692 317.971 296.223 317.288 295.895C316.606 295.567 315.861 295.386 315.104 295.365C310.524 295.365 305.843 302.098 304.588 305.973C304.524 306.183 304.066 308.4 303.755 310.021C303.755 309.059 303.709 308.07 303.709 307.154C303.709 303.71 303.938 300.55 304.149 297.756C304.286 296.171 304.442 294.733 304.597 293.396C305.917 292.48 311.193 288.816 312.842 286.114C314.49 283.411 315.718 279.766 314.536 276.77C314.282 276.057 313.881 275.404 313.358 274.856C312.835 274.308 312.203 273.876 311.502 273.588C310.801 273.3 310.048 273.163 309.291 273.186C308.533 273.209 307.79 273.391 307.107 273.72C303.059 275.818 301.996 283.97 302.665 287.982C302.72 288.33 304.249 293.652 304.323 293.607L304.396 293.552C304.222 294.834 304.048 296.217 303.883 297.729C303.608 300.522 303.315 303.683 303.242 307.145C303.112 310.872 303.2 314.604 303.507 318.32C303.827 322.487 304.52 326.616 305.578 330.659C305.59 330.708 305.605 330.757 305.623 330.805C304.9 329.679 302.793 326.592 302.601 326.372C299.944 323.294 292.983 318.916 288.787 320.693C288.098 321.008 287.484 321.465 286.983 322.033C286.482 322.602 286.107 323.269 285.881 323.993C285.656 324.716 285.585 325.479 285.674 326.231C285.763 326.983 286.009 327.709 286.397 328.36C288.055 331.043 291.764 332.436 294.769 332.875Z" fill="#263238"/>
<path d="M372.941 311.441C373.014 311.486 374.397 306.119 374.443 305.77C375.011 301.74 373.719 293.615 369.616 291.637C368.925 291.328 368.178 291.169 367.422 291.168C366.667 291.167 365.919 291.325 365.228 291.632C364.537 291.938 363.918 292.387 363.412 292.948C362.905 293.509 362.522 294.17 362.288 294.888C361.188 297.911 362.581 301.621 364.23 304.177C366.162 307.19 372.941 311.441 372.941 311.441Z" fill="#263238"/>
<path d="M177.539 249.756H56.1504V92.5156H177.539V249.756ZM57.0664 248.84H176.623V93.4316H57.0664V248.84Z" fill="#263238"/>
<path d="M174.113 245.324H59.54V96.9316H174.113V245.324ZM60.5293 244.408H173.197V97.8476H60.456L60.5293 244.408Z" fill="#263238"/>
<path d="M145.644 208.355H88.0547V133.93H145.644V208.355ZM88.989 207.439H144.728V134.846H88.9707L88.989 207.439Z" fill="#263238"/>
<path d="M308.49 183.2L288.714 180.406L291.462 160.767L311.248 163.515L308.49 183.2ZM289.749 179.628L307.712 182.165L310.231 164.34L292.259 161.802L289.749 179.628ZM311.641 153.76L293.55 151.204L296.17 132.646L296.344 132.536C301.136 129.599 305.693 126.294 309.974 122.653C313.979 119.277 317.464 115.33 320.316 110.937C323.012 106.75 324.769 102.028 325.464 97.0961C326.004 93.2764 325.565 90.1528 324.154 87.7896C322.743 85.4263 320.417 84.0614 317.202 83.6034C315.976 83.3615 314.714 83.3649 313.489 83.6133C312.264 83.8617 311.101 84.3502 310.066 85.0507C309.099 85.7993 308.298 86.7401 307.713 87.8137C307.128 88.8874 306.772 90.0706 306.668 91.2887C306.488 92.4833 306.457 93.6956 306.576 94.8977C306.695 96.0794 306.851 97.3526 307.043 98.6808L307.107 99.1663L288.21 100.568L288.137 100.174C287.745 98.2479 287.51 96.2936 287.432 94.3298C287.361 92.4196 287.459 90.5069 287.725 88.614C288.851 80.6356 292.25 74.5259 297.801 70.4497C303.352 66.3735 310.808 64.9537 319.904 66.2544C329.192 67.5643 336.135 71.155 340.56 76.9166C344.984 82.6783 346.569 90.3177 345.259 99.606C344.502 105.368 342.609 110.922 339.689 115.947C336.738 120.876 333.008 125.294 328.642 129.028C323.956 133.045 318.919 136.635 313.593 139.754L311.641 153.76ZM294.586 150.426L310.863 152.725L312.777 139.15L312.97 139.04C318.316 135.922 323.368 132.325 328.065 128.295C332.354 124.615 336.02 120.266 338.92 115.416C341.794 110.506 343.663 105.072 344.416 99.4319C345.689 90.4002 344.169 82.9989 339.9 77.4479C335.631 71.897 328.908 68.4162 319.84 67.1338C310.991 65.888 303.773 67.2437 298.405 71.1642C293.037 75.0846 289.722 80.9745 288.632 88.6964C288.373 90.5347 288.278 92.3923 288.348 94.2474C288.418 96.0278 288.62 97.8005 288.952 99.551L306.063 98.2778C305.907 97.1144 305.77 95.9969 305.66 94.9435C305.535 93.668 305.569 92.3818 305.761 91.1146C305.881 89.7758 306.278 88.4764 306.926 87.2986C307.574 86.1208 308.459 85.0903 309.525 84.2721C310.654 83.4981 311.925 82.9562 313.265 82.6778C314.605 82.3995 315.986 82.3903 317.33 82.6508C320.838 83.1455 323.394 84.7027 324.933 87.2308C326.472 89.759 326.939 93.1024 326.371 97.1328C325.664 102.208 323.861 107.069 321.085 111.377C318.185 115.841 314.641 119.854 310.57 123.285C306.306 126.907 301.774 130.202 297.013 133.141L294.586 150.426Z" fill="#263238"/>
<path d="M193.193 228.083C193.193 228.083 134.395 228.862 132.563 233.048C130.731 237.234 122.368 287.935 121.846 305.412C121.324 322.889 121.068 334.422 122.89 336.51C124.713 338.599 153.21 355.068 153.21 355.068C153.21 355.068 139.882 401.848 144.05 403.424C148.218 405 173.847 411.521 190.308 411.787C206.768 412.053 222.982 412.044 224.292 412.044C225.601 412.044 267.673 413.61 282.311 410.212C296.949 406.813 301.382 406.548 301.382 400.804C301.382 395.061 297.718 387.98 297.462 386.698C297.205 385.415 307.4 286.332 301.648 262.03C295.895 237.729 288.32 228.312 282.568 226.746C276.815 225.18 235.787 226.224 235.787 226.224L193.193 228.083Z" fill="#91BC25"/>
<path d="M246.853 412.917C240.441 412.917 233.287 412.816 225.574 412.596H224.301C221.37 412.596 205.981 412.596 190.317 412.34C173.582 412.074 147.971 405.47 143.904 403.94C142.988 403.61 140.908 402.822 146.652 378.649C149.161 368.005 152.148 357.407 152.697 355.383C149.445 353.505 124.347 338.94 122.579 336.907C120.646 334.699 120.866 324.083 121.416 305.497C121.947 287.791 130.448 236.88 132.17 232.932C134.002 228.691 183.328 227.821 193.212 227.692L235.806 225.86C237.491 225.814 277.026 224.834 282.723 226.401C286.259 227.317 295.209 232.758 302.133 262.015C306.869 282.039 300.915 351.545 298.671 377.706C298.24 382.734 297.929 386.371 297.957 386.728C298.162 387.366 298.401 387.993 298.671 388.606C299.789 391.354 301.877 396.52 301.877 400.899C301.877 406.395 298.149 407.201 287.065 409.701L282.485 410.755C276.165 412.202 263.808 412.917 246.853 412.917ZM261.829 226.401C249.381 226.401 236.044 226.73 235.806 226.74L193.212 228.572C170.587 228.874 134.24 230.404 132.994 233.262C131.281 237.173 122.845 287.846 122.314 305.488C121.856 320.904 121.452 334.223 123.23 336.275C124.686 337.942 145.525 350.161 153.458 354.732C153.546 354.783 153.614 354.863 153.653 354.957C153.691 355.052 153.696 355.156 153.668 355.254C147.155 378.054 141.852 402.126 144.224 403.042C148.264 404.554 173.701 411.112 190.327 411.378C205.999 411.625 221.37 411.634 224.301 411.634H225.602C253.549 412.422 273.655 411.772 282.21 409.802C283.887 409.408 285.426 409.069 286.836 408.749C297.663 406.303 300.934 405.561 300.934 400.835C300.934 396.639 298.891 391.592 297.792 388.881C297.493 388.207 297.236 387.516 297.022 386.811C296.976 386.545 297.105 384.933 297.737 377.559C299.972 351.435 305.917 282.048 301.208 262.143C294.402 233.362 285.829 228.123 282.458 227.198C280.049 226.593 271.191 226.401 261.829 226.401Z" fill="#263238"/>
<path d="M218.401 252.67C218.312 252.672 218.224 252.647 218.149 252.598C218.073 252.549 218.015 252.478 217.98 252.396C217.956 252.34 217.943 252.281 217.941 252.22C217.94 252.16 217.951 252.1 217.973 252.044C217.995 251.988 218.028 251.936 218.07 251.893C218.112 251.85 218.163 251.815 218.218 251.791C220.301 250.901 222.326 249.883 224.282 248.741C224.334 248.711 224.392 248.691 224.452 248.683C224.512 248.676 224.573 248.68 224.631 248.696C224.689 248.711 224.744 248.738 224.792 248.775C224.839 248.812 224.879 248.858 224.91 248.91C224.94 248.963 224.959 249.02 224.967 249.08C224.975 249.14 224.97 249.201 224.955 249.259C224.939 249.317 224.912 249.372 224.875 249.42C224.838 249.468 224.792 249.508 224.74 249.538C222.751 250.697 220.693 251.731 218.575 252.634C218.521 252.659 218.461 252.672 218.401 252.67Z" fill="#263238"/>
<path d="M227.277 247.89C227.202 247.889 227.128 247.87 227.061 247.835C226.994 247.8 226.936 247.75 226.893 247.688C226.827 247.586 226.805 247.462 226.831 247.344C226.857 247.225 226.928 247.122 227.03 247.056C234.312 242.206 240.704 236.139 245.927 229.121C245.962 229.071 246.006 229.029 246.057 228.997C246.108 228.965 246.165 228.943 246.225 228.932C246.284 228.922 246.346 228.924 246.405 228.937C246.463 228.951 246.519 228.976 246.568 229.011C246.618 229.045 246.66 229.088 246.692 229.139C246.724 229.189 246.746 229.245 246.756 229.304C246.766 229.363 246.765 229.423 246.751 229.481C246.738 229.54 246.713 229.595 246.678 229.643C241.385 236.753 234.909 242.9 227.534 247.817C227.458 247.867 227.368 247.893 227.277 247.89Z" fill="#263238"/>
<path d="M232.664 250.453C232.581 250.452 232.501 250.43 232.43 250.388C232.359 250.346 232.301 250.286 232.261 250.215C232.232 250.162 232.213 250.104 232.207 250.044C232.2 249.984 232.206 249.923 232.223 249.865C232.24 249.807 232.268 249.754 232.306 249.707C232.344 249.66 232.391 249.621 232.444 249.592C237.024 247.137 242.382 239.653 242.437 239.58C242.47 239.525 242.513 239.478 242.565 239.441C242.616 239.404 242.675 239.378 242.737 239.365C242.799 239.352 242.863 239.352 242.926 239.365C242.988 239.378 243.046 239.404 243.098 239.441C243.15 239.478 243.193 239.525 243.225 239.58C243.258 239.635 243.278 239.695 243.286 239.758C243.294 239.821 243.288 239.885 243.27 239.946C243.251 240.007 243.221 240.063 243.179 240.111C242.959 240.423 237.683 247.842 232.874 250.398C232.81 250.434 232.737 250.453 232.664 250.453Z" fill="#263238"/>
<path d="M205.449 324.045C205.353 324.044 205.26 324.012 205.182 323.955C205.105 323.897 205.048 323.817 205.019 323.725L203.48 318.943C203.46 318.886 203.452 318.826 203.456 318.765C203.46 318.705 203.476 318.646 203.504 318.592C203.531 318.538 203.569 318.491 203.615 318.452C203.662 318.413 203.715 318.384 203.773 318.366C203.889 318.329 204.014 318.338 204.122 318.393C204.231 318.448 204.313 318.544 204.35 318.659L205.889 323.441C205.927 323.556 205.917 323.682 205.862 323.79C205.807 323.898 205.711 323.98 205.596 324.018C205.549 324.036 205.5 324.045 205.449 324.045Z" fill="#263238"/>
<path d="M213.84 350.096C213.744 350.097 213.649 350.065 213.572 350.008C213.494 349.95 213.437 349.869 213.41 349.776L206.595 328.625C206.557 328.504 206.569 328.372 206.628 328.26C206.688 328.147 206.789 328.063 206.911 328.025C207.032 327.988 207.164 328 207.276 328.059C207.389 328.118 207.473 328.22 207.511 328.341L214.326 349.501C214.361 349.616 214.35 349.741 214.295 349.849C214.241 349.956 214.147 350.038 214.033 350.078L213.84 350.096Z" fill="#263238"/>
<path d="M215.937 350.618C215.849 350.622 215.762 350.596 215.69 350.544C215.639 350.513 215.594 350.471 215.559 350.422C215.524 350.373 215.499 350.318 215.485 350.259C215.472 350.2 215.47 350.139 215.48 350.08C215.49 350.02 215.511 349.963 215.543 349.912L222.34 339.204C222.371 339.152 222.412 339.107 222.461 339.071C222.51 339.035 222.566 339.01 222.625 338.996C222.684 338.982 222.745 338.981 222.805 338.991C222.865 339.002 222.921 339.025 222.972 339.058C223.074 339.124 223.146 339.226 223.173 339.344C223.2 339.462 223.181 339.586 223.119 339.69L216.322 350.407C216.28 350.471 216.223 350.524 216.156 350.56C216.089 350.597 216.014 350.617 215.937 350.618Z" fill="#263238"/>
<path d="M231.354 344.343C231.265 344.346 231.177 344.323 231.101 344.275C231.025 344.228 230.965 344.159 230.929 344.077C230.892 343.996 230.881 343.905 230.896 343.817C230.912 343.729 230.953 343.647 231.016 343.583L247.504 325.025C247.585 324.934 247.699 324.879 247.821 324.872C247.943 324.865 248.063 324.907 248.154 324.988C248.245 325.07 248.3 325.184 248.307 325.306C248.314 325.428 248.272 325.547 248.191 325.639L231.703 344.197C231.659 344.245 231.605 344.283 231.545 344.308C231.485 344.334 231.42 344.346 231.354 344.343Z" fill="#263238"/>
<path d="M224.301 412.558H224.173L188.696 402.216C188.638 402.2 188.584 402.172 188.537 402.134C188.491 402.096 188.452 402.05 188.423 401.997C188.394 401.944 188.375 401.886 188.369 401.827C188.362 401.767 188.368 401.706 188.385 401.648C188.4 401.59 188.428 401.535 188.465 401.488C188.502 401.44 188.549 401.401 188.602 401.372C188.655 401.343 188.714 401.325 188.774 401.319C188.834 401.313 188.895 401.319 188.952 401.337L224.42 411.66C224.541 411.677 224.651 411.742 224.725 411.84C224.799 411.938 224.831 412.061 224.814 412.182C224.797 412.304 224.732 412.414 224.634 412.488C224.536 412.561 224.413 412.593 224.292 412.576L224.301 412.558Z" fill="#263238"/>
<path d="M184.647 401.008H184.518L178.436 399.23C178.315 399.196 178.212 399.116 178.15 399.006C178.088 398.896 178.072 398.766 178.106 398.644C178.14 398.523 178.221 398.42 178.331 398.358C178.441 398.296 178.571 398.28 178.693 398.314L184.775 400.092C184.833 400.108 184.887 400.136 184.933 400.174C184.98 400.212 185.019 400.258 185.048 400.311C185.077 400.364 185.095 400.422 185.102 400.481C185.109 400.541 185.103 400.602 185.086 400.659C185.062 400.758 185.006 400.846 184.926 400.909C184.846 400.972 184.748 401.006 184.647 401.008Z" fill="#263238"/>
<path d="M192.827 111.872C192.827 111.872 174.37 107.631 170.843 112.376C167.317 117.121 174.343 121.609 173.344 122.608C172.346 123.606 150.884 134.58 152.624 145.315C154.365 156.051 168.847 167.024 169.35 170.047C169.854 173.07 152.624 174.041 150.38 178.529C148.136 183.018 144.884 204.232 163.607 211.221C182.33 218.211 205.743 206.477 212.265 206.477C218.787 206.477 225.245 219.209 232.728 218.458C237.287 217.936 241.48 215.707 244.462 212.22C244.462 212.22 252.193 222.955 263.424 218.458C274.654 213.96 287.633 198.242 282.147 193.506C276.66 188.77 270.413 187.268 274.406 183.027C278.4 178.786 286.635 167.556 285.398 157.819C284.162 148.082 272.666 147.34 268.178 144.344C263.689 141.349 273.17 136.357 272.922 128.122C272.675 119.887 266.675 106.138 236.237 96.9779C205.798 87.8179 190.821 92.2331 189.319 99.9733C188.85 102.091 188.925 104.294 189.539 106.375C190.152 108.456 191.284 110.347 192.827 111.872Z" fill="#263238"/>
<path d="M258.001 219.978C250.865 219.978 245.827 214.546 244.48 212.916C241.452 216.278 237.297 218.415 232.801 218.925C228.634 219.346 224.86 215.875 221.223 212.513C218.109 209.637 215.159 206.925 212.292 206.925C210.543 206.925 207.401 207.841 203.425 209.014C192.937 212.082 177.081 216.717 163.479 211.643C156.975 209.215 152.487 204.901 150.068 198.819C146.862 190.648 148.438 181.415 149.995 178.319C151.277 175.763 156.737 174.334 161.555 173.079C164.917 172.163 169.094 171.11 168.883 170.111C168.672 169.113 166.813 167.134 164.587 164.734C160.108 159.889 153.329 152.57 152.166 145.407C150.636 136.018 165.677 126.821 171.347 123.359C172.135 122.873 172.886 122.443 173.005 122.296C172.707 121.794 172.37 121.316 171.997 120.867C170.477 118.889 167.93 115.563 170.468 112.119C173.545 107.942 186.956 110.287 191.462 111.139C190.218 109.568 189.34 107.738 188.895 105.784C188.449 103.83 188.447 101.8 188.888 99.8449C189.162 98.6663 189.685 97.5597 190.421 96.5993C191.157 95.6388 192.09 94.8466 193.157 94.2756C200.787 89.6956 216.552 90.4834 236.383 96.5015C268.04 106.101 273.16 120.427 273.399 128.122C273.518 132.262 271.301 135.569 269.515 138.198C268.296 140.03 267.252 141.569 267.472 142.695C267.542 142.959 267.665 143.205 267.834 143.419C268.002 143.633 268.213 143.811 268.452 143.941C269.981 144.824 271.599 145.543 273.279 146.085C278.473 148.008 284.931 150.408 285.865 157.745C287.093 167.317 279.453 178.328 274.763 183.32C274.418 183.607 274.138 183.964 273.943 184.369C273.749 184.774 273.644 185.216 273.637 185.665C273.783 187.002 275.588 188.221 277.878 189.75C279.471 190.788 281 191.919 282.458 193.14C283.079 193.729 283.531 194.474 283.77 195.296C284.008 196.119 284.023 196.99 283.813 197.82C282.659 204.709 272.464 215.325 263.616 218.888C261.83 219.605 259.924 219.975 258.001 219.978ZM244.49 211.734C244.56 211.735 244.63 211.753 244.692 211.787C244.754 211.82 244.807 211.868 244.847 211.927C244.929 212.027 252.514 222.314 263.277 218.009C271.887 214.565 281.798 204.269 282.907 197.665C283.191 195.961 282.842 194.669 281.862 193.827C280.43 192.639 278.928 191.537 277.365 190.529C274.882 188.862 272.922 187.543 272.721 185.793C272.711 185.209 272.83 184.629 273.069 184.096C273.308 183.563 273.661 183.088 274.104 182.706C278.372 178.126 286.149 167.134 284.958 157.874C284.088 151.095 277.914 148.805 272.959 146.964C271.211 146.398 269.529 145.649 267.939 144.729C267.6 144.531 267.304 144.267 267.07 143.952C266.835 143.637 266.667 143.278 266.574 142.897C266.281 141.404 267.371 139.773 268.754 137.712C270.467 135.166 272.592 131.997 272.483 128.149C272.254 120.702 267.234 106.816 236.117 97.3809C216.533 91.436 201.044 90.5933 193.633 95.0634C192.677 95.5686 191.839 96.2719 191.175 97.1264C190.512 97.9809 190.038 98.967 189.786 100.019C189.326 102.069 189.391 104.201 189.975 106.219C190.56 108.237 191.645 110.074 193.129 111.561C193.205 111.629 193.257 111.721 193.277 111.822C193.297 111.922 193.284 112.027 193.239 112.119C193.193 112.211 193.117 112.284 193.024 112.327C192.931 112.37 192.826 112.381 192.726 112.357C187.67 111.194 173.958 108.996 171.237 112.678C169.112 115.573 171.237 118.321 172.758 120.336C173.674 121.499 174.306 122.351 173.674 122.965C173.093 123.409 172.481 123.811 171.842 124.165C166.849 127.215 151.69 136.494 153.091 145.279C154.209 152.167 160.868 159.367 165.283 164.13C167.894 166.951 169.616 168.811 169.808 169.983C170.11 171.815 166.611 172.731 161.775 173.986C157.369 175.131 151.891 176.56 150.783 178.749C149.335 181.644 147.815 190.703 150.884 198.498C152.002 201.365 153.734 203.952 155.959 206.077C158.184 208.202 160.848 209.814 163.762 210.8C177.081 215.774 192.754 211.185 203.15 208.153C207.199 206.971 210.387 206.028 212.31 206.028C215.535 206.028 218.613 208.858 221.864 211.853C225.354 215.069 228.963 218.384 232.728 218.009C237.158 217.489 241.231 215.325 244.141 211.945C244.18 211.886 244.231 211.836 244.291 211.8C244.352 211.763 244.419 211.741 244.49 211.734Z" fill="#263238"/>
<path d="M196.152 191.939C196.152 191.939 189.914 230.869 189.667 232.114C189.42 233.36 200.659 244.59 215.865 242.594C224.772 241.523 232.958 237.165 238.82 230.374L234.084 191.691C234.084 191.691 221.104 197.929 213.117 197.682C205.129 197.435 196.152 191.939 196.152 191.939Z" fill="#FCECC2"/>
<path d="M212.274 243.291C204.102 243.158 196.296 239.877 190.482 234.131C189.081 232.638 189.182 232.162 189.218 231.979C189.456 230.76 195.63 192.215 195.694 191.821C195.708 191.747 195.739 191.677 195.785 191.618C195.831 191.558 195.891 191.511 195.959 191.479C196.027 191.448 196.102 191.433 196.177 191.437C196.253 191.441 196.326 191.462 196.391 191.501C196.482 191.556 205.367 196.932 213.135 197.18C220.903 197.427 233.754 191.299 233.882 191.235C233.948 191.201 234.02 191.184 234.093 191.184C234.166 191.184 234.239 191.201 234.304 191.235C234.366 191.271 234.42 191.322 234.459 191.382C234.499 191.442 234.524 191.511 234.533 191.583L239.278 230.257C239.285 230.316 239.281 230.377 239.266 230.435C239.25 230.493 239.223 230.548 239.186 230.595C233.229 237.457 224.946 241.874 215.929 242.998C214.718 243.176 213.497 243.274 212.274 243.291ZM196.501 192.673C195.649 197.977 190.345 231.044 190.089 232.208C190.281 233.343 200.925 244.116 215.737 242.146C224.445 241.047 232.455 236.814 238.27 230.238L233.708 192.362C231.07 193.58 220.252 198.352 213.108 198.132C206.173 197.922 198.635 193.9 196.501 192.673Z" fill="#263238"/>
<path d="M193.587 212.826L219.867 207.742L196.152 191.941L193.587 212.826Z" fill="#263238"/>
<path d="M193.587 213.283C193.473 213.279 193.363 213.237 193.275 213.164C193.224 213.113 193.185 213.051 193.161 212.982C193.138 212.914 193.13 212.841 193.138 212.77L195.694 191.885C195.703 191.807 195.733 191.734 195.779 191.671C195.826 191.608 195.888 191.559 195.959 191.528C196.029 191.492 196.106 191.473 196.184 191.473C196.262 191.473 196.339 191.492 196.408 191.528L220.114 207.338C220.191 207.386 220.252 207.457 220.288 207.54C220.324 207.623 220.333 207.716 220.316 207.805C220.297 207.894 220.252 207.976 220.187 208.04C220.122 208.103 220.039 208.146 219.949 208.162L193.678 213.246L193.587 213.283ZM196.518 192.737L194.118 212.257L218.676 207.503L196.518 192.737Z" fill="#263238"/>
<path d="M182.284 157.616C182.284 157.616 177.887 152.046 175.872 159.081C173.856 166.116 182.613 174.653 182.613 174.653L182.284 157.616Z" fill="#FCECC2"/>
<path d="M182.577 175.074C182.468 175.069 182.365 175.027 182.283 174.955C181.917 174.598 173.316 166.18 175.423 158.962C176.091 156.672 177.099 155.38 178.418 155.124C180.561 154.711 182.586 157.23 182.668 157.34C182.732 157.418 182.768 157.515 182.769 157.615L183.062 174.616C183.062 174.707 183.036 174.795 182.987 174.871C182.939 174.948 182.869 175.008 182.787 175.047C182.719 175.066 182.648 175.075 182.577 175.074ZM178.913 155.985C178.809 155.975 178.705 155.975 178.601 155.985C177.685 156.168 176.87 157.276 176.311 159.182C174.726 164.623 180.048 171.144 182.137 173.425L181.862 157.753C181.303 157.166 180.039 155.985 178.876 155.985H178.913Z" fill="#263238"/>
<path d="M245.277 157.616C245.277 157.616 249.674 152.046 251.689 159.081C253.704 166.116 244.947 174.653 244.947 174.653L245.277 157.616Z" fill="#FCECC2"/>
<path d="M244.984 175.076C244.923 175.085 244.861 175.085 244.8 175.076C244.716 175.04 244.645 174.98 244.596 174.903C244.547 174.827 244.522 174.736 244.526 174.645L244.819 157.644C244.821 157.546 244.853 157.45 244.91 157.37C245.002 157.26 247.036 154.731 249.161 155.153C250.489 155.409 251.496 156.701 252.165 158.991C254.263 166.209 245.662 174.627 245.295 174.984C245.206 175.053 245.095 175.085 244.984 175.076ZM245.726 157.782L245.487 173.454C247.567 171.174 252.898 164.652 251.313 159.211C250.754 157.305 249.958 156.197 249.014 156.014C247.75 155.776 246.303 157.113 245.726 157.782Z" fill="#263238"/>
<path d="M196.097 122.424C196.097 122.424 183.511 134.653 181.688 138.317C179.866 141.981 180.598 183.732 182.604 187.781C184.61 191.829 204.671 207.484 207.95 208.757C211.229 210.03 218.713 211.313 224.548 208.391C230.383 205.469 244.425 190.52 245.891 186.691C247.356 182.862 245.524 139.059 244.608 134.891C243.692 130.723 221.672 115.673 212.329 114.95C202.985 114.226 196.097 122.424 196.097 122.424Z" fill="#FCECC2"/>
<path d="M216.176 210.553C213.308 210.568 210.46 210.085 207.758 209.124C204.231 207.75 184.198 191.985 182.165 187.928C180.131 183.87 179.343 141.899 181.249 138.088C183.081 134.424 194.989 122.8 195.73 122.113C196.188 121.572 203.058 113.759 212.338 114.492C221.397 115.206 244.004 129.991 245.03 134.726C245.881 138.665 247.778 182.862 246.285 186.792C244.718 190.914 230.502 205.854 224.722 208.776C222.047 210.015 219.123 210.623 216.176 210.553ZM211.138 115.362C202.747 115.362 196.482 122.644 196.417 122.69C196.289 122.809 183.868 134.9 182.1 138.436C180.333 141.972 181.111 183.65 183.016 187.451C184.922 191.253 204.781 206.898 208.124 208.199C211.641 209.563 218.859 210.599 224.355 207.851C230.245 204.91 244.123 189.934 245.469 186.398C246.944 182.532 245.02 138.766 244.169 134.864C243.317 130.961 221.488 116.122 212.292 115.417C211.916 115.417 211.541 115.362 211.165 115.362H211.138Z" fill="#263238"/>
<path d="M205.99 114.95C205.99 114.95 224.841 132.152 238.398 132.812L251.964 133.471C251.964 133.471 222.194 129.505 212.933 109.335C212.933 109.335 202.683 100.761 205.99 114.95Z" fill="#263238"/>
<path d="M251.964 133.93L238.407 133.27C224.841 132.611 206.484 116.003 205.706 115.289C205.639 115.227 205.592 115.148 205.568 115.06C204.478 110.37 204.716 107.622 206.301 106.651C208.646 105.213 212.795 108.593 213.253 108.978C213.308 109.022 213.352 109.078 213.382 109.143C222.432 128.855 251.753 132.959 252.046 133.023C252.164 133.037 252.273 133.096 252.348 133.188C252.423 133.281 252.459 133.399 252.449 133.517C252.435 133.635 252.377 133.743 252.287 133.819C252.197 133.896 252.082 133.935 251.964 133.93ZM206.402 114.694C207.941 116.068 225.702 131.713 238.462 132.336L246.119 132.711C236.959 130.403 219.363 124.202 212.603 109.601C211.412 108.621 208.27 106.505 206.786 107.411C205.944 107.924 205.238 109.591 206.402 114.712V114.694Z" fill="#263238"/>
<path d="M218.008 167.932C217.892 167.932 217.781 167.889 217.696 167.811C217.611 167.733 217.559 167.626 217.55 167.511L216.093 149.09C216.088 149.03 216.096 148.969 216.114 148.912C216.133 148.854 216.162 148.801 216.201 148.755C216.241 148.709 216.288 148.672 216.342 148.644C216.396 148.617 216.454 148.6 216.515 148.595C216.575 148.59 216.635 148.597 216.693 148.616C216.75 148.635 216.803 148.664 216.849 148.703C216.895 148.743 216.933 148.79 216.96 148.844C216.988 148.898 217.004 148.956 217.009 149.017L218.466 167.437C218.471 167.498 218.464 167.558 218.445 167.616C218.427 167.673 218.397 167.726 218.358 167.772C218.319 167.818 218.271 167.856 218.217 167.883C218.163 167.911 218.105 167.927 218.044 167.932H218.008Z" fill="#263238"/>
<path d="M213.785 176.688C211.238 176.688 208.802 173.94 208.701 173.793C208.658 173.749 208.625 173.696 208.603 173.638C208.581 173.58 208.571 173.519 208.574 173.457C208.576 173.395 208.591 173.335 208.618 173.279C208.645 173.223 208.682 173.173 208.729 173.132C208.775 173.092 208.829 173.061 208.888 173.041C208.947 173.022 209.009 173.015 209.07 173.02C209.132 173.025 209.192 173.043 209.246 173.072C209.301 173.101 209.349 173.141 209.388 173.189C209.388 173.189 211.66 175.772 213.785 175.772C215.534 175.772 218.182 172.365 219.061 171.055C219.093 171.004 219.136 170.96 219.185 170.926C219.235 170.892 219.291 170.869 219.35 170.857C219.409 170.845 219.469 170.845 219.528 170.857C219.587 170.869 219.643 170.892 219.693 170.926C219.793 170.994 219.863 171.098 219.887 171.216C219.911 171.334 219.887 171.457 219.821 171.558C219.473 172.081 216.331 176.688 213.785 176.688Z" fill="#263238"/>
<path d="M210.891 185.133C210.332 185.133 209.764 185.133 209.196 185.078C203.554 184.703 199.349 177.851 199.166 177.558C199.135 177.506 199.114 177.449 199.105 177.389C199.096 177.329 199.099 177.268 199.113 177.21C199.127 177.151 199.153 177.096 199.189 177.047C199.225 176.998 199.27 176.957 199.322 176.926C199.373 176.894 199.431 176.874 199.491 176.865C199.55 176.856 199.611 176.858 199.67 176.873C199.729 176.887 199.784 176.913 199.833 176.949C199.881 176.985 199.922 177.03 199.954 177.082C199.954 177.155 204.094 183.814 209.26 184.162C213.018 184.29 216.774 183.864 220.408 182.898C220.53 182.864 220.66 182.88 220.769 182.942C220.879 183.003 220.96 183.106 220.994 183.228C221.028 183.349 221.013 183.479 220.951 183.589C220.889 183.699 220.786 183.78 220.665 183.814C217.472 184.646 214.19 185.088 210.891 185.133Z" fill="#263238"/>
<path d="M218.713 146.14C218.713 146.14 225.125 141.396 227.644 139.728C230.163 138.061 238.407 141.185 238.407 141.185C238.407 141.185 232.206 137.722 228.927 137.173C225.647 136.623 218.896 141.368 218.347 143.585C217.797 145.802 216.176 145.224 218.713 146.14Z" fill="#263238"/>
<path d="M218.713 146.559C218.662 146.568 218.609 146.568 218.558 146.559C217.349 146.128 216.991 146 216.881 145.643C216.861 145.5 216.878 145.355 216.929 145.22C216.98 145.086 217.065 144.967 217.175 144.874C217.533 144.49 217.786 144.02 217.907 143.509C218.503 141.118 225.419 136.181 229 136.785C232.325 137.335 238.38 140.706 238.636 140.843C238.736 140.901 238.811 140.994 238.847 141.104C238.883 141.214 238.876 141.333 238.829 141.439C238.781 141.544 238.694 141.627 238.587 141.671C238.48 141.715 238.36 141.717 238.252 141.677C236.026 140.834 229.834 138.929 227.901 140.174C225.382 141.787 219.052 146.495 218.988 146.541C218.9 146.571 218.805 146.578 218.713 146.559ZM217.935 145.322L218.64 145.588C219.73 144.773 225.116 140.797 227.397 139.332C228.707 138.489 231.208 138.736 233.516 139.24C232.03 138.518 230.466 137.971 228.854 137.61C225.822 137.115 219.281 141.713 218.778 143.655C218.647 144.286 218.357 144.873 217.935 145.359V145.322Z" fill="#263238"/>
<path d="M205.577 147.009C205.242 146.214 204.686 145.533 203.975 145.046C203.263 144.558 202.427 144.286 201.565 144.261C198.469 144.077 184.784 147.732 187.157 147.732C189.529 147.732 199.376 147.549 201.932 147.549C203.171 147.626 204.413 147.442 205.577 147.009Z" fill="#263238"/>
<path d="M187.157 148.202C187.03 148.22 186.9 148.202 186.781 148.151C186.663 148.099 186.562 148.015 186.489 147.909C186.446 147.832 186.424 147.745 186.424 147.657C186.424 147.569 186.446 147.483 186.489 147.405C187.047 146.489 199.038 143.659 201.575 143.815C202.526 143.84 203.45 144.141 204.233 144.681C205.017 145.221 205.627 145.976 205.99 146.856C206.028 146.961 206.026 147.076 205.986 147.181C205.945 147.285 205.869 147.371 205.77 147.424C204.54 147.886 203.227 148.089 201.914 148.019C200.613 148.019 197.426 148.019 194.293 148.111C191.16 148.202 188.321 148.202 187.157 148.202ZM201.3 144.731C198.992 144.731 192.562 146.279 189.237 147.268L194.302 147.195C197.435 147.149 200.632 147.103 201.932 147.103C202.948 147.126 203.962 147.009 204.946 146.755C204.598 146.151 204.099 145.648 203.499 145.293C202.899 144.938 202.217 144.745 201.52 144.731H201.3Z" fill="#263238"/>
<path d="M236.951 157.441C234.198 158.066 231.383 158.373 228.56 158.357C224.896 158.174 221.626 157.075 223.064 158.715C224.503 160.354 227.443 161.82 231.995 160.904C236.548 159.988 238.224 159.081 236.951 157.441Z" fill="#263238"/>
<path d="M203.938 157.441C201.185 158.066 198.37 158.373 195.548 158.357C191.884 158.174 188.623 157.075 190.052 158.715C191.481 160.354 194.43 161.82 198.992 160.904C203.553 159.988 205.184 159.081 203.938 157.441Z" fill="#263238"/>
<path d="M143.244 262.563C143.244 262.563 148.74 232.335 151.232 229.376C153.723 226.418 180.928 204.168 182.421 202.675C183.915 201.182 194.65 184.95 195.154 186.947C195.658 188.944 193.908 197.683 190.656 202.419C187.404 207.154 182.925 212.907 182.925 212.907C182.925 212.907 199.688 217.148 200.604 218.146C201.52 219.145 207.291 231.566 207.593 233.114C208.124 235.788 207.355 238.655 205.102 238.857C203.05 239.031 189.63 232.115 189.63 232.115L178.931 233.581C178.931 233.581 171.2 243.061 165.952 244.811C163.598 245.672 161.178 246.34 158.715 246.808L158.972 265.274L143.244 262.563Z" fill="#FCECC2"/>
<path d="M158.972 265.768H158.889L143.171 263.02C143.049 262.998 142.94 262.929 142.868 262.828C142.802 262.728 142.776 262.607 142.795 262.489C143.024 261.252 148.337 232.142 150.883 229.092C152.551 227.086 164.697 216.955 173.564 209.563C178.052 205.816 181.606 202.857 182.101 202.354C182.595 201.85 183.997 199.89 185.673 197.554C192.195 188.467 194.128 186.159 195.09 186.342C195.213 186.368 195.327 186.429 195.417 186.519C195.506 186.608 195.568 186.722 195.593 186.846C196.134 189.007 194.329 197.884 191.013 202.693C188.375 206.531 184.894 211.083 183.685 212.64C187.588 213.639 199.972 216.863 200.943 217.825C201.914 218.787 207.73 231.409 208.051 233.04C208.266 233.896 208.307 234.787 208.174 235.66C208.04 236.533 207.734 237.37 207.272 238.123C207.023 238.463 206.705 238.745 206.339 238.952C205.972 239.159 205.566 239.285 205.147 239.323C203.059 239.507 191.407 233.571 189.575 232.6L179.169 234.038C178.153 235.275 171.118 243.61 166.098 245.277C163.838 246.077 161.527 246.728 159.182 247.228L159.43 265.301C159.429 265.369 159.413 265.436 159.385 265.497C159.357 265.559 159.316 265.614 159.265 265.658C159.181 265.725 159.079 265.764 158.972 265.768ZM143.812 262.187L158.468 264.724L158.221 246.807C158.222 246.695 158.263 246.587 158.337 246.503C158.411 246.419 158.513 246.364 158.624 246.349C161.058 245.885 163.451 245.223 165.778 244.371C170.825 242.685 178.464 233.379 178.537 233.287C178.612 233.198 178.716 233.14 178.831 233.122L189.612 231.666C189.703 231.648 189.797 231.665 189.878 231.711C195.025 234.359 203.727 238.536 205.101 238.398C205.393 238.372 205.676 238.284 205.931 238.138C206.186 237.993 206.406 237.794 206.576 237.555C206.96 236.907 207.213 236.188 207.318 235.441C207.423 234.695 207.38 233.934 207.19 233.204C206.86 231.556 201.153 219.29 200.329 218.466C199.55 217.779 189.172 214.958 182.824 213.346C182.751 213.327 182.683 213.29 182.628 213.238C182.572 213.187 182.53 213.122 182.506 213.05C182.481 212.979 182.475 212.902 182.487 212.827C182.5 212.752 182.531 212.682 182.577 212.622C182.577 212.558 187.093 206.833 190.29 202.161C193.487 197.49 194.989 189.64 194.769 187.368C193.377 188.394 188.907 194.632 186.424 198.085C184.656 200.549 183.264 202.491 182.76 202.995C182.256 203.499 178.84 206.347 174.159 210.259C165.814 217.211 153.21 227.727 151.589 229.669C149.638 232.005 145.369 253.503 143.812 262.187Z" fill="#263238"/>
<path d="M207.629 233.58C207.555 233.582 207.481 233.564 207.415 233.529C207.349 233.493 207.294 233.441 207.254 233.378C204.35 229.1 199.514 222.121 198.9 221.635C198.286 221.15 190.546 219.986 183.667 219.061C183.545 219.044 183.436 218.98 183.362 218.882C183.288 218.784 183.256 218.66 183.273 218.539C183.29 218.418 183.355 218.308 183.453 218.234C183.55 218.16 183.674 218.128 183.795 218.145C187.239 218.612 198.561 220.179 199.477 220.893C200.393 221.608 207.236 231.693 208.005 232.801C208.04 232.851 208.064 232.907 208.077 232.966C208.09 233.026 208.091 233.087 208.08 233.147C208.068 233.206 208.046 233.263 208.012 233.314C207.979 233.365 207.936 233.408 207.886 233.442C207.815 233.511 207.726 233.559 207.629 233.58Z" fill="#263238"/>
<path d="M207.016 237.363C206.95 237.363 206.884 237.348 206.824 237.32C206.763 237.291 206.71 237.249 206.668 237.198C204.708 234.935 200.788 230.474 199.972 229.787C199.313 229.256 191.582 227.278 184.629 225.684C184.512 225.655 184.41 225.582 184.346 225.479C184.283 225.376 184.263 225.252 184.29 225.134C184.303 225.075 184.328 225.02 184.363 224.97C184.398 224.921 184.442 224.88 184.493 224.848C184.545 224.816 184.602 224.795 184.661 224.786C184.721 224.777 184.782 224.78 184.84 224.795C187.267 225.345 199.496 228.175 200.559 229.091C201.621 230.007 207.126 236.328 207.364 236.602C207.404 236.647 207.435 236.7 207.454 236.756C207.473 236.813 207.481 236.873 207.477 236.933C207.472 236.992 207.456 237.051 207.429 237.104C207.402 237.158 207.364 237.205 207.319 237.244C207.237 237.32 207.129 237.363 207.016 237.363Z" fill="#263238"/>
<path d="M207.309 352.513C207.309 352.513 187.706 348.849 186.928 348.593C186.149 348.336 172.272 344.15 170.44 343.363C168.608 342.575 146.395 338.664 145.351 340.23C144.306 341.796 143.262 350.947 142.996 351.726C142.731 352.504 140.642 356.168 141.164 358.266C141.446 360.17 141.446 362.105 141.164 364.009C141.164 364.009 140.899 376.293 144.032 376.558C147.164 376.824 150.05 365.053 150.05 365.053C150.05 365.053 154.492 367.673 163.634 368.195C172.776 368.717 181.67 364.275 181.67 364.275L205.999 370.064L207.309 352.513Z" fill="#FCECC2"/>
<path d="M144.16 377.018H144.023C140.633 376.734 140.688 366.127 140.725 364.002C141.002 362.137 141.002 360.242 140.725 358.377C140.267 356.545 141.54 353.798 142.227 352.359C142.383 352.011 142.511 351.736 142.566 351.59C142.621 351.443 142.795 350.317 142.96 349.181C143.601 344.958 144.233 341.074 144.966 339.975C146.34 337.923 169.277 342.366 170.614 342.943C171.951 343.52 180.553 346.167 184.666 347.431L187.038 348.155C187.633 348.347 199.523 350.601 207.364 352.066C207.476 352.086 207.576 352.147 207.645 352.237C207.715 352.326 207.748 352.439 207.74 352.552L206.457 370.066C206.454 370.132 206.435 370.197 206.404 370.256C206.372 370.314 206.328 370.365 206.274 370.405C206.221 370.445 206.16 370.473 206.095 370.485C206.03 370.498 205.962 370.495 205.898 370.478L181.753 364.771C180.525 365.348 172.153 369.15 163.634 368.664C156.16 368.234 151.818 366.447 150.38 365.742C149.647 368.573 147.21 377.018 144.16 377.018ZM147.238 340.305C146.724 340.251 146.206 340.323 145.726 340.515C145.067 341.505 144.297 346.589 143.894 349.318C143.665 350.866 143.546 351.617 143.464 351.874C143.381 352.13 143.262 352.35 143.079 352.744C142.493 354.008 141.247 356.655 141.641 358.158C141.938 360.119 141.938 362.114 141.641 364.075C141.54 368.948 142.236 375.983 144.105 376.102C146.12 376.23 148.557 369.351 149.601 364.954C149.619 364.885 149.653 364.82 149.699 364.765C149.744 364.709 149.802 364.665 149.867 364.634C149.931 364.602 150.001 364.586 150.073 364.586C150.144 364.586 150.215 364.602 150.279 364.634C150.279 364.634 154.758 367.199 163.662 367.712C172.565 368.224 181.377 363.883 181.469 363.837C181.567 363.805 181.673 363.805 181.771 363.837L205.587 369.461L206.824 352.9C203.526 352.286 187.533 349.291 186.782 349.034L184.427 348.311C179.976 346.946 171.704 344.409 170.275 343.795C168.489 343.016 152.404 340.305 147.238 340.305Z" fill="#263238"/>
<path d="M139.516 257.23L165.796 262.039L164.816 278.463C164.816 278.463 170.633 281.211 172.401 297.434C174.169 313.656 179.234 351.23 177.97 354.015C176.706 356.8 168.865 368.946 150.646 369.706C132.426 370.466 122.561 353.768 120.793 348.446C119.025 343.124 128.387 308.316 128.891 305.284C129.394 302.252 131.923 281.468 134.203 277.96C135.609 275.792 137.311 273.831 139.26 272.134L139.516 257.23Z" fill="#91BC25"/>
<path d="M149.436 370.202C131.308 370.202 121.956 353.265 120.362 348.612C118.933 344.334 124.228 322.671 127.067 311.056C127.8 308.051 128.331 305.88 128.441 305.239C128.551 304.598 128.68 303.636 128.881 302.207C129.852 295.246 131.886 280.755 133.818 277.75C135.209 275.6 136.888 273.652 138.811 271.961L139.058 257.241C139.058 257.174 139.073 257.108 139.101 257.048C139.13 256.988 139.171 256.935 139.223 256.893C139.275 256.852 139.336 256.822 139.401 256.806C139.465 256.79 139.533 256.789 139.598 256.801L165.906 261.601C166.017 261.621 166.118 261.682 166.187 261.771C166.256 261.861 166.29 261.973 166.281 262.086L165.292 278.245C166.51 279.032 171.283 282.98 172.858 297.426C173.298 301.474 173.957 306.934 174.69 312.714C177.374 334.991 179.353 352.203 178.428 354.245C178.354 354.392 171.329 369.341 150.7 370.193L149.436 370.202ZM139.965 257.781L139.717 272.162C139.717 272.229 139.703 272.295 139.674 272.355C139.646 272.415 139.604 272.468 139.552 272.511C137.642 274.178 135.971 276.101 134.588 278.226C132.756 281.057 130.676 295.96 129.788 302.317C129.586 303.755 129.431 304.836 129.339 305.377C129.229 306.054 128.698 308.235 127.956 311.248C125.336 321.975 119.886 344.288 121.232 348.328C122.771 352.908 132.27 370.037 150.627 369.258C167.28 368.571 175.707 357.9 177.557 353.842C178.473 351.873 175.725 329.293 173.747 312.805C173.051 307.016 172.391 301.557 171.915 297.508C170.193 281.753 164.633 278.923 164.587 278.895C164.506 278.854 164.439 278.791 164.393 278.713C164.348 278.635 164.326 278.546 164.33 278.455L165.32 262.416L139.965 257.781Z" fill="#263238"/>
<path d="M160.3 276.916C158.812 276.91 157.325 276.815 155.848 276.632C155.728 276.618 155.618 276.558 155.543 276.463C155.467 276.369 155.432 276.249 155.445 276.128C155.461 276.008 155.524 275.898 155.619 275.822C155.715 275.747 155.837 275.712 155.958 275.725C157.399 275.901 158.848 275.992 160.3 276C160.421 276 160.538 276.048 160.624 276.134C160.71 276.22 160.758 276.337 160.758 276.458C160.758 276.58 160.71 276.696 160.624 276.782C160.538 276.868 160.421 276.916 160.3 276.916Z" fill="#263238"/>
<path d="M149.72 275.581H149.619C146.059 274.792 142.548 273.795 139.104 272.595C138.993 272.551 138.903 272.466 138.854 272.357C138.805 272.249 138.8 272.125 138.841 272.013C138.881 271.901 138.964 271.809 139.071 271.757C139.178 271.705 139.302 271.697 139.415 271.734C142.82 272.921 146.291 273.906 149.812 274.684C149.871 274.697 149.927 274.721 149.976 274.756C150.026 274.791 150.068 274.835 150.1 274.886C150.133 274.937 150.154 274.994 150.165 275.053C150.175 275.113 150.173 275.174 150.16 275.233C150.137 275.332 150.081 275.421 150.001 275.484C149.921 275.548 149.822 275.582 149.72 275.581Z" fill="#263238"/>
<path d="M284.144 265.486L281.533 332.913C281.533 332.913 278.657 333.179 277.612 334.479C276.917 335.381 276.304 336.344 275.78 337.356C275.78 337.356 249.39 338.4 236.841 342.064C229.639 344.112 222.641 346.823 215.938 350.161L204.433 349.914L202.079 380.224L217.505 380.747C217.505 380.747 225.08 385.189 259.576 388.331C294.073 391.473 310.021 392.251 313.675 388.065C317.33 383.879 318.906 377.348 319.428 373.959C319.95 370.57 326.225 349.648 326.225 319.329C326.225 289.009 297.737 245.133 291.462 235.176C285.188 225.219 278.638 226.016 274.214 227.078" fill="#91BC25"/>
<path d="M299.047 391.379C290.299 391.379 277.493 390.408 259.54 388.777C227.058 385.819 218.43 381.752 217.404 381.193L202.097 380.671C202.035 380.671 201.973 380.658 201.915 380.633C201.858 380.608 201.807 380.57 201.765 380.523C201.724 380.477 201.693 380.421 201.674 380.361C201.655 380.302 201.65 380.238 201.658 380.176L203.975 349.912C203.982 349.794 204.035 349.684 204.123 349.605C204.21 349.527 204.325 349.485 204.442 349.49L215.828 349.747C222.532 346.43 229.522 343.726 236.713 341.668C248.493 338.233 272.694 337.088 275.497 336.95C276.001 335.984 276.589 335.065 277.255 334.202C278.171 333.057 280.223 332.645 281.093 332.517L283.686 265.475C283.685 265.414 283.698 265.353 283.722 265.298C283.747 265.242 283.782 265.191 283.827 265.15C283.872 265.109 283.925 265.077 283.982 265.057C284.04 265.038 284.101 265.03 284.162 265.035C284.222 265.037 284.281 265.052 284.336 265.077C284.39 265.102 284.44 265.138 284.48 265.182C284.521 265.226 284.553 265.278 284.574 265.335C284.595 265.391 284.604 265.451 284.602 265.511L281.991 332.938C281.987 333.049 281.943 333.154 281.867 333.235C281.792 333.316 281.689 333.367 281.579 333.378C280.828 333.442 278.73 333.827 277.97 334.77C277.298 335.649 276.704 336.583 276.193 337.564C276.157 337.639 276.102 337.703 276.032 337.748C275.962 337.793 275.882 337.818 275.799 337.82C275.542 337.82 249.317 338.901 236.97 342.51C229.8 344.561 222.831 347.259 216.149 350.571C216.078 350.607 215.999 350.625 215.92 350.626L204.855 350.379L202.574 379.782L217.514 380.286C217.591 380.292 217.665 380.314 217.734 380.35C217.807 380.35 225.739 384.793 259.622 387.871C293.972 390.994 309.874 391.718 313.336 387.761C317.284 383.254 318.649 375.999 318.979 373.883C319.061 373.306 319.3 372.317 319.648 370.806C323.704 353.946 325.758 336.667 325.767 319.326C325.767 299.962 314.326 272.097 291.774 236.511L291.078 235.421C284.565 225.107 277.64 226.737 274.324 227.516C274.205 227.543 274.08 227.524 273.976 227.46C273.871 227.397 273.796 227.295 273.765 227.177C273.752 227.118 273.75 227.057 273.76 226.997C273.771 226.938 273.792 226.881 273.825 226.829C273.857 226.778 273.899 226.734 273.949 226.699C273.998 226.665 274.054 226.64 274.113 226.627C279.49 225.363 285.811 225.363 291.856 234.926L292.543 236.025C315.196 271.749 326.683 299.788 326.683 319.326C326.671 336.737 324.611 354.087 320.545 371.016C320.206 372.445 319.968 373.48 319.886 374.021C319.547 376.201 318.136 383.666 314.023 388.365C312.182 390.463 307.52 391.379 299.047 391.379Z" fill="#263238"/>
<path d="M281.533 333.37C281.452 333.372 281.373 333.351 281.304 333.311C281.234 333.27 281.177 333.212 281.139 333.141C281.086 333.051 281.065 332.946 281.08 332.843C281.095 332.739 281.145 332.644 281.221 332.573L296.381 318.467C296.423 318.424 296.473 318.39 296.528 318.367C296.583 318.344 296.642 318.332 296.702 318.332C296.761 318.332 296.82 318.344 296.875 318.367C296.93 318.39 296.98 318.424 297.022 318.467C297.065 318.509 297.099 318.56 297.122 318.616C297.146 318.672 297.158 318.731 297.158 318.792C297.158 318.852 297.146 318.912 297.122 318.968C297.099 319.024 297.065 319.075 297.022 319.117L283.282 331.941L297.471 327.819C297.592 327.785 297.722 327.801 297.832 327.863C297.942 327.924 298.023 328.027 298.057 328.149C298.091 328.27 298.076 328.4 298.014 328.51C297.952 328.62 297.849 328.701 297.727 328.735L281.688 333.388L281.533 333.37Z" fill="#263238"/>
<path d="M302.592 327.262C302.47 327.277 302.347 327.244 302.25 327.17C302.153 327.095 302.09 326.985 302.074 326.863C302.058 326.742 302.091 326.619 302.166 326.522C302.241 326.425 302.351 326.361 302.473 326.346L307.538 324.88C307.596 324.862 307.657 324.856 307.717 324.862C307.777 324.868 307.835 324.886 307.888 324.915C307.942 324.944 307.988 324.983 308.026 325.031C308.063 325.078 308.09 325.133 308.106 325.191C308.14 325.308 308.126 325.433 308.068 325.54C308.01 325.646 307.911 325.725 307.795 325.759L302.72 327.225C302.681 327.247 302.637 327.259 302.592 327.262Z" fill="#263238"/>
<path d="M299.303 341.732H299.138C292.488 339.168 275.917 337.848 275.743 337.839C275.683 337.835 275.624 337.818 275.571 337.79C275.517 337.763 275.469 337.725 275.43 337.679C275.391 337.633 275.361 337.58 275.343 337.523C275.324 337.465 275.317 337.405 275.322 337.345C275.327 337.285 275.343 337.226 275.371 337.172C275.398 337.118 275.436 337.071 275.482 337.032C275.528 336.992 275.581 336.963 275.638 336.944C275.696 336.926 275.756 336.919 275.816 336.923C276.503 336.978 292.689 338.27 299.468 340.871C299.528 340.882 299.585 340.905 299.637 340.938C299.688 340.971 299.732 341.014 299.767 341.064C299.802 341.114 299.827 341.17 299.84 341.23C299.853 341.29 299.854 341.352 299.843 341.412C299.832 341.472 299.81 341.529 299.777 341.581C299.744 341.632 299.701 341.677 299.651 341.711C299.6 341.746 299.544 341.771 299.484 341.784C299.424 341.797 299.363 341.798 299.303 341.787V341.732Z" fill="#263238"/>
<path d="M304.011 355.328C303.94 355.328 303.87 355.311 303.806 355.279C303.743 355.247 303.688 355.201 303.644 355.145C302.957 354.229 302.206 353.396 301.409 352.562C301.336 352.473 301.299 352.359 301.305 352.244C301.312 352.128 301.362 352.02 301.446 351.94C301.529 351.86 301.64 351.814 301.755 351.813C301.871 351.811 301.983 351.853 302.069 351.93C302.88 352.776 303.647 353.662 304.368 354.586C304.443 354.681 304.477 354.802 304.464 354.922C304.45 355.042 304.389 355.152 304.295 355.228C304.213 355.29 304.114 355.326 304.011 355.328Z" fill="#263238"/>
<path d="M298.543 349.749C298.437 349.746 298.334 349.711 298.249 349.648C293.598 345.882 288.233 343.096 282.476 341.459C282.416 341.445 282.359 341.42 282.309 341.384C282.258 341.348 282.216 341.303 282.183 341.251C282.15 341.198 282.128 341.14 282.118 341.079C282.108 341.018 282.109 340.956 282.123 340.896C282.137 340.836 282.163 340.779 282.198 340.729C282.234 340.678 282.28 340.636 282.332 340.603C282.384 340.57 282.442 340.548 282.503 340.538C282.564 340.528 282.626 340.529 282.687 340.543C288.581 342.208 294.075 345.053 298.836 348.906C298.91 348.966 298.964 349.047 298.99 349.139C299.016 349.231 299.012 349.329 298.98 349.419C298.948 349.508 298.888 349.586 298.81 349.64C298.731 349.694 298.638 349.723 298.543 349.722V349.749Z" fill="#263238"/>
<path d="M215.938 378.849C215.816 378.849 215.7 378.801 215.614 378.715C215.528 378.629 215.48 378.512 215.48 378.391L215.26 353.045C215.259 352.985 215.269 352.925 215.291 352.869C215.313 352.813 215.346 352.762 215.387 352.719C215.429 352.675 215.479 352.641 215.534 352.616C215.589 352.592 215.649 352.579 215.709 352.578C215.83 352.578 215.947 352.626 216.033 352.712C216.118 352.798 216.167 352.915 216.167 353.036L216.432 378.382C216.432 378.504 216.384 378.622 216.299 378.709C216.213 378.796 216.097 378.847 215.974 378.849H215.938Z" fill="#263238"/>
<path d="M214.105 372.576H203.113C202.992 372.576 202.875 372.528 202.789 372.442C202.704 372.356 202.655 372.24 202.655 372.118C202.655 371.997 202.704 371.88 202.789 371.794C202.875 371.708 202.992 371.66 203.113 371.66H214.105C214.227 371.66 214.343 371.708 214.429 371.794C214.515 371.88 214.563 371.997 214.563 372.118C214.561 372.239 214.512 372.354 214.427 372.439C214.341 372.525 214.226 372.574 214.105 372.576Z" fill="#263238"/>
<path d="M205.743 357.673C205.626 357.674 205.514 357.629 205.429 357.549C205.343 357.469 205.292 357.359 205.285 357.243C205.281 357.183 205.29 357.123 205.309 357.067C205.329 357.01 205.36 356.958 205.4 356.914C205.44 356.87 205.489 356.834 205.543 356.808C205.597 356.783 205.656 356.769 205.716 356.767L210.158 356.501C210.218 356.497 210.279 356.505 210.336 356.525C210.393 356.545 210.445 356.575 210.49 356.615C210.535 356.655 210.572 356.704 210.598 356.758C210.625 356.812 210.64 356.871 210.644 356.931C210.649 357.052 210.607 357.171 210.526 357.261C210.446 357.352 210.334 357.407 210.213 357.417L205.771 357.673H205.743Z" fill="#263238"/>
</svg>
