<svg width="30" height="30" viewBox="0 0 30 30" fill="none" xmlns="http://www.w3.org/2000/svg">
<path fill-rule="evenodd" clip-rule="evenodd" d="M24.4985 6.3C24.1795 5.98684 23.7461 5.81808 23.2994 5.83304C20.0965 5.9281 16.8729 6.55683 15.2477 7.75758C15.1005 7.86628 14.8996 7.86628 14.7524 7.75758C13.1272 6.55683 9.90351 5.9281 6.70067 5.83304C6.25379 5.81729 5.82013 5.98617 5.50159 6.3C5.17788 6.61612 4.99488 7.04913 4.99377 7.50158V19.5925C4.99356 20.4994 5.7181 21.2402 6.62479 21.2602C11.6004 21.4011 14.1662 22.7761 14.1662 23.3315C14.1662 23.792 14.5395 24.1653 15 24.1653C15.4605 24.1653 15.8339 23.792 15.8339 23.3315C15.8339 22.7761 18.3996 21.4011 23.3753 21.2585C24.2819 21.2386 25.0065 20.4977 25.0063 19.5908V7.50158C25.0052 7.04913 24.8222 6.61612 24.4985 6.3ZM7.06007 19.6066C6.837 19.5968 6.66127 19.413 6.66148 19.1897L6.65148 7.93269C6.65136 7.81871 6.6979 7.70965 6.78029 7.63088C6.86268 7.55212 6.97372 7.51052 7.08758 7.51576C11.7588 7.72839 14.1662 9.03588 14.1662 9.57288V20.4839C14.1661 20.6245 14.0952 20.7556 13.9775 20.8325C13.8599 20.9095 13.7113 20.922 13.5825 20.8658C11.4984 20.0688 9.291 19.6427 7.06007 19.6066ZM22.9283 19.6066C23.1517 19.5973 23.3279 19.4133 23.3277 19.1897L23.3386 7.93519C23.3387 7.82121 23.2921 7.71215 23.2097 7.63338C23.1274 7.55462 23.0163 7.51302 22.9025 7.51826C18.2404 7.72923 15.8339 9.03671 15.8339 9.57288V20.4839C15.834 20.6245 15.9049 20.7556 16.0225 20.8325C16.1402 20.9095 16.2887 20.922 16.4176 20.8658C18.4978 20.0697 20.7013 19.6436 22.9283 19.6066Z" fill="#3EB449"/>
<mask id="mask0_4369_1956" style="mask-type:alpha" maskUnits="userSpaceOnUse" x="4" y="5" width="22" height="20">
<path fill-rule="evenodd" clip-rule="evenodd" d="M24.4985 6.3C24.1795 5.98684 23.7461 5.81808 23.2994 5.83304C20.0965 5.9281 16.8729 6.55683 15.2477 7.75758C15.1005 7.86628 14.8996 7.86628 14.7524 7.75758C13.1272 6.55683 9.90351 5.9281 6.70067 5.83304C6.25379 5.81729 5.82013 5.98617 5.50159 6.3C5.17788 6.61612 4.99488 7.04913 4.99377 7.50158V19.5925C4.99356 20.4994 5.7181 21.2402 6.62479 21.2602C11.6004 21.4011 14.1662 22.7761 14.1662 23.3315C14.1662 23.792 14.5395 24.1653 15 24.1653C15.4605 24.1653 15.8339 23.792 15.8339 23.3315C15.8339 22.7761 18.3996 21.4011 23.3753 21.2585C24.2819 21.2386 25.0065 20.4977 25.0063 19.5908V7.50158C25.0052 7.04913 24.8222 6.61612 24.4985 6.3ZM7.06007 19.6066C6.837 19.5968 6.66127 19.413 6.66148 19.1897L6.65148 7.93269C6.65136 7.81871 6.6979 7.70965 6.78029 7.63088C6.86268 7.55212 6.97372 7.51052 7.08758 7.51576C11.7588 7.72839 14.1662 9.03588 14.1662 9.57288V20.4839C14.1661 20.6245 14.0952 20.7556 13.9775 20.8325C13.8599 20.9095 13.7113 20.922 13.5825 20.8658C11.4984 20.0688 9.291 19.6427 7.06007 19.6066ZM22.9283 19.6066C23.1517 19.5973 23.3279 19.4133 23.3277 19.1897L23.3386 7.93519C23.3387 7.82121 23.2921 7.71215 23.2097 7.63338C23.1274 7.55462 23.0163 7.51302 22.9025 7.51826C18.2404 7.72923 15.8339 9.03671 15.8339 9.57288V20.4839C15.834 20.6245 15.9049 20.7556 16.0225 20.8325C16.1402 20.9095 16.2887 20.922 16.4176 20.8658C18.4978 20.0697 20.7013 19.6436 22.9283 19.6066Z" fill="white"/>
</mask>
<g mask="url(#mask0_4369_1956)">
</g>
</svg>
