<svg width="100" height="100" viewBox="0 0 100 100" fill="none" xmlns="http://www.w3.org/2000/svg">
<path fill-rule="evenodd" clip-rule="evenodd" d="M81.6611 21.0041C80.5979 19.9603 79.1533 19.3977 77.6642 19.4476C66.9881 19.7644 56.2425 21.8602 50.8252 25.8627C50.3345 26.225 49.6649 26.225 49.1742 25.8627C43.7569 21.8602 33.0113 19.7644 22.3352 19.4476C20.8456 19.3951 19.4 19.958 18.3382 21.0041C17.2592 22.0578 16.6492 23.5012 16.6455 25.0094V65.3123C16.6448 68.3354 19.0599 70.8049 22.0822 70.8714C38.6676 71.3411 47.2202 75.9245 47.2202 77.7757C47.2202 79.3108 48.4646 80.5552 49.9997 80.5552C51.5348 80.5552 52.7792 79.3108 52.7792 77.7757C52.7792 75.9245 61.3318 71.3411 77.9171 70.8658C80.9394 70.7993 83.3546 68.3298 83.3538 65.3068V25.0094C83.3502 23.5012 82.7402 22.0578 81.6611 21.0041ZM23.5331 65.3596C22.7896 65.3268 22.2038 64.7141 22.2045 63.9698L22.1712 26.4464C22.1708 26.0665 22.3259 25.7029 22.6006 25.4404C22.8752 25.1778 23.2453 25.0392 23.6249 25.0566C39.1957 25.7654 47.2202 30.1237 47.2202 31.9137V68.2836C47.2199 68.7523 46.9835 69.1893 46.5913 69.4459C46.1991 69.7025 45.704 69.7441 45.2745 69.5567C38.3277 66.9002 30.9696 65.4797 23.5331 65.3596ZM76.4273 65.3596C77.1719 65.3283 77.7593 64.7152 77.7587 63.9698L77.7948 26.4547C77.7952 26.0748 77.64 25.7113 77.3654 25.4487C77.0908 25.1862 76.7207 25.0475 76.3411 25.065C60.8009 25.7682 52.7792 30.1265 52.7792 31.9137V68.2836C52.7794 68.7523 53.0159 69.1893 53.408 69.4459C53.8002 69.7025 54.2953 69.7441 54.7248 69.5567C61.659 66.9031 69.0038 65.4827 76.4273 65.3596Z" fill="#3EB449"/>
<mask id="mask0_4158_5396" style="mask-type:alpha" maskUnits="userSpaceOnUse" x="16" y="19" width="68" height="62">
<path fill-rule="evenodd" clip-rule="evenodd" d="M81.6611 21.0041C80.5979 19.9603 79.1533 19.3977 77.6642 19.4476C66.9881 19.7644 56.2425 21.8602 50.8252 25.8627C50.3345 26.225 49.6649 26.225 49.1742 25.8627C43.7569 21.8602 33.0113 19.7644 22.3352 19.4476C20.8456 19.3951 19.4 19.958 18.3382 21.0041C17.2592 22.0578 16.6492 23.5012 16.6455 25.0094V65.3123C16.6448 68.3354 19.0599 70.8049 22.0822 70.8714C38.6676 71.3411 47.2202 75.9245 47.2202 77.7757C47.2202 79.3108 48.4646 80.5552 49.9997 80.5552C51.5348 80.5552 52.7792 79.3108 52.7792 77.7757C52.7792 75.9245 61.3318 71.3411 77.9171 70.8658C80.9394 70.7993 83.3546 68.3298 83.3538 65.3068V25.0094C83.3502 23.5012 82.7402 22.0578 81.6611 21.0041ZM23.5331 65.3596C22.7896 65.3268 22.2038 64.7141 22.2045 63.9698L22.1712 26.4464C22.1708 26.0665 22.3259 25.7029 22.6006 25.4404C22.8752 25.1778 23.2453 25.0392 23.6249 25.0566C39.1957 25.7654 47.2202 30.1237 47.2202 31.9137V68.2836C47.2199 68.7523 46.9835 69.1893 46.5913 69.4459C46.1991 69.7025 45.704 69.7441 45.2745 69.5567C38.3277 66.9002 30.9696 65.4797 23.5331 65.3596ZM76.4273 65.3596C77.1719 65.3283 77.7593 64.7152 77.7587 63.9698L77.7948 26.4547C77.7952 26.0748 77.64 25.7113 77.3654 25.4487C77.0908 25.1862 76.7207 25.0475 76.3411 25.065C60.8009 25.7682 52.7792 30.1265 52.7792 31.9137V68.2836C52.7794 68.7523 53.0159 69.1893 53.408 69.4459C53.8002 69.7025 54.2953 69.7441 54.7248 69.5567C61.659 66.9031 69.0038 65.4827 76.4273 65.3596Z" fill="white"/>
</mask>
<g mask="url(#mask0_4158_5396)">
</g>
</svg>
