<svg width="405" height="128" viewBox="0 0 405 128" fill="none" xmlns="http://www.w3.org/2000/svg">
<g filter="url(#filter0_d_4333_24719)">
<rect x="32" y="29" width="341" height="64" rx="8" fill="white" shape-rendering="crispEdges"/>
<rect x="52.5" y="49.5" width="23" height="23" rx="5.5" stroke="#106FA4"/>
<path d="M92.298 66.084C91.57 66.084 90.87 65.9673 90.198 65.734C89.5353 65.4913 89.022 65.1833 88.658 64.81L89.064 64.012C89.4093 64.348 89.8713 64.6327 90.45 64.866C91.038 65.09 91.654 65.202 92.298 65.202C92.914 65.202 93.4133 65.1273 93.796 64.978C94.188 64.8193 94.4727 64.6093 94.65 64.348C94.8367 64.0867 94.93 63.7973 94.93 63.48C94.93 63.0973 94.818 62.7893 94.594 62.556C94.3793 62.3227 94.0947 62.1407 93.74 62.01C93.3853 61.87 92.9933 61.7487 92.564 61.646C92.1347 61.5433 91.7053 61.436 91.276 61.324C90.8467 61.2027 90.45 61.044 90.086 60.848C89.7313 60.652 89.442 60.3953 89.218 60.078C89.0033 59.7513 88.896 59.3267 88.896 58.804C88.896 58.3187 89.022 57.8753 89.274 57.474C89.5353 57.0633 89.932 56.7367 90.464 56.494C90.996 56.242 91.6773 56.116 92.508 56.116C93.0587 56.116 93.6047 56.1953 94.146 56.354C94.6873 56.5033 95.154 56.7133 95.546 56.984L95.196 57.81C94.776 57.53 94.328 57.3247 93.852 57.194C93.3853 57.0633 92.9327 56.998 92.494 56.998C91.906 56.998 91.4207 57.0773 91.038 57.236C90.6553 57.3947 90.3707 57.6093 90.184 57.88C90.0067 58.1413 89.918 58.44 89.918 58.776C89.918 59.1587 90.0253 59.4667 90.24 59.7C90.464 59.9333 90.7533 60.1153 91.108 60.246C91.472 60.3767 91.8687 60.4933 92.298 60.596C92.7273 60.6987 93.152 60.8107 93.572 60.932C94.0013 61.0533 94.3933 61.212 94.748 61.408C95.112 61.5947 95.4013 61.8467 95.616 62.164C95.84 62.4813 95.952 62.8967 95.952 63.41C95.952 63.886 95.8213 64.3293 95.56 64.74C95.2987 65.1413 94.8973 65.468 94.356 65.72C93.824 65.9627 93.138 66.084 92.298 66.084ZM102.605 66V64.376L102.563 64.11V61.394C102.563 60.7687 102.386 60.288 102.031 59.952C101.686 59.616 101.168 59.448 100.477 59.448C100.001 59.448 99.5486 59.5273 99.1193 59.686C98.6899 59.8447 98.3259 60.0547 98.0273 60.316L97.5793 59.574C97.9526 59.2567 98.4006 59.014 98.9233 58.846C99.4459 58.6687 99.9966 58.58 100.575 58.58C101.527 58.58 102.26 58.818 102.773 59.294C103.296 59.7607 103.557 60.4747 103.557 61.436V66H102.605ZM100.071 66.07C99.5206 66.07 99.0399 65.9813 98.6293 65.804C98.2279 65.6173 97.9199 65.3653 97.7053 65.048C97.4906 64.7213 97.3833 64.348 97.3833 63.928C97.3833 63.5453 97.4719 63.2 97.6493 62.892C97.8359 62.5747 98.1346 62.3227 98.5453 62.136C98.9653 61.94 99.5253 61.842 100.225 61.842H102.759V62.584H100.253C99.5439 62.584 99.0493 62.71 98.7693 62.962C98.4986 63.214 98.3633 63.5267 98.3633 63.9C98.3633 64.32 98.5266 64.656 98.8533 64.908C99.1799 65.16 99.6373 65.286 100.225 65.286C100.785 65.286 101.266 65.16 101.667 64.908C102.078 64.6467 102.377 64.2733 102.563 63.788L102.787 64.474C102.601 64.9593 102.274 65.3467 101.807 65.636C101.35 65.9253 100.771 66.07 100.071 66.07ZM106.176 68.786C105.831 68.786 105.5 68.73 105.182 68.618C104.874 68.506 104.608 68.338 104.384 68.114L104.846 67.372C105.033 67.5493 105.234 67.6847 105.448 67.778C105.672 67.8807 105.92 67.932 106.19 67.932C106.517 67.932 106.797 67.8387 107.03 67.652C107.273 67.4747 107.502 67.1573 107.716 66.7L108.192 65.622L108.304 65.468L111.328 58.65H112.308L108.626 66.882C108.421 67.358 108.192 67.736 107.94 68.016C107.698 68.296 107.432 68.492 107.142 68.604C106.853 68.7253 106.531 68.786 106.176 68.786ZM108.136 66.21L104.748 58.65H105.784L108.78 65.398L108.136 66.21ZM118.096 66V64.376L118.054 64.11V61.394C118.054 60.7687 117.876 60.288 117.522 59.952C117.176 59.616 116.658 59.448 115.968 59.448C115.492 59.448 115.039 59.5273 114.61 59.686C114.18 59.8447 113.816 60.0547 113.518 60.316L113.07 59.574C113.443 59.2567 113.891 59.014 114.414 58.846C114.936 58.6687 115.487 58.58 116.066 58.58C117.018 58.58 117.75 58.818 118.264 59.294C118.786 59.7607 119.048 60.4747 119.048 61.436V66H118.096ZM115.562 66.07C115.011 66.07 114.53 65.9813 114.12 65.804C113.718 65.6173 113.41 65.3653 113.196 65.048C112.981 64.7213 112.874 64.348 112.874 63.928C112.874 63.5453 112.962 63.2 113.14 62.892C113.326 62.5747 113.625 62.3227 114.036 62.136C114.456 61.94 115.016 61.842 115.716 61.842H118.25V62.584H115.744C115.034 62.584 114.54 62.71 114.26 62.962C113.989 63.214 113.854 63.5267 113.854 63.9C113.854 64.32 114.017 64.656 114.344 64.908C114.67 65.16 115.128 65.286 115.716 65.286C116.276 65.286 116.756 65.16 117.158 64.908C117.568 64.6467 117.867 64.2733 118.054 63.788L118.278 64.474C118.091 64.9593 117.764 65.3467 117.298 65.636C116.84 65.9253 116.262 66.07 115.562 66.07ZM127.385 66.07C126.779 66.07 126.205 65.986 125.663 65.818C125.122 65.6407 124.697 65.4213 124.389 65.16L124.837 64.376C125.136 64.6 125.519 64.796 125.985 64.964C126.452 65.1227 126.942 65.202 127.455 65.202C128.155 65.202 128.659 65.0947 128.967 64.88C129.275 64.656 129.429 64.362 129.429 63.998C129.429 63.7273 129.341 63.5173 129.163 63.368C128.995 63.2093 128.771 63.0927 128.491 63.018C128.211 62.934 127.899 62.864 127.553 62.808C127.208 62.752 126.863 62.6867 126.517 62.612C126.181 62.5373 125.873 62.43 125.593 62.29C125.313 62.1407 125.085 61.94 124.907 61.688C124.739 61.436 124.655 61.1 124.655 60.68C124.655 60.2787 124.767 59.9193 124.991 59.602C125.215 59.2847 125.542 59.0373 125.971 58.86C126.41 58.6733 126.942 58.58 127.567 58.58C128.043 58.58 128.519 58.6453 128.995 58.776C129.471 58.8973 129.863 59.0607 130.171 59.266L129.737 60.064C129.411 59.84 129.061 59.6813 128.687 59.588C128.314 59.4853 127.941 59.434 127.567 59.434C126.905 59.434 126.415 59.5507 126.097 59.784C125.789 60.008 125.635 60.2973 125.635 60.652C125.635 60.932 125.719 61.1513 125.887 61.31C126.065 61.4687 126.293 61.5947 126.573 61.688C126.863 61.772 127.175 61.842 127.511 61.898C127.857 61.954 128.197 62.024 128.533 62.108C128.879 62.1827 129.191 62.29 129.471 62.43C129.761 62.5607 129.989 62.752 130.157 63.004C130.335 63.2467 130.423 63.5687 130.423 63.97C130.423 64.3993 130.302 64.7727 130.059 65.09C129.826 65.398 129.481 65.6407 129.023 65.818C128.575 65.986 128.029 66.07 127.385 66.07ZM135.369 66.07C134.604 66.07 133.932 65.9113 133.353 65.594C132.775 65.2673 132.322 64.824 131.995 64.264C131.669 63.6947 131.505 63.046 131.505 62.318C131.505 61.59 131.659 60.946 131.967 60.386C132.285 59.826 132.714 59.3873 133.255 59.07C133.806 58.7433 134.422 58.58 135.103 58.58C135.794 58.58 136.405 58.7387 136.937 59.056C137.479 59.364 137.903 59.8027 138.211 60.372C138.519 60.932 138.673 61.5807 138.673 62.318C138.673 62.3647 138.669 62.416 138.659 62.472C138.659 62.5187 138.659 62.57 138.659 62.626H132.261V61.884H138.127L137.735 62.178C137.735 61.646 137.619 61.1747 137.385 60.764C137.161 60.344 136.853 60.0173 136.461 59.784C136.069 59.5507 135.617 59.434 135.103 59.434C134.599 59.434 134.147 59.5507 133.745 59.784C133.344 60.0173 133.031 60.344 132.807 60.764C132.583 61.184 132.471 61.6647 132.471 62.206V62.36C132.471 62.92 132.593 63.4147 132.835 63.844C133.087 64.264 133.433 64.5953 133.871 64.838C134.319 65.0713 134.828 65.188 135.397 65.188C135.845 65.188 136.261 65.1087 136.643 64.95C137.035 64.7913 137.371 64.5487 137.651 64.222L138.211 64.866C137.885 65.258 137.474 65.5567 136.979 65.762C136.494 65.9673 135.957 66.07 135.369 66.07ZM143.021 66.07C142.33 66.07 141.798 65.8833 141.425 65.51C141.051 65.1367 140.865 64.6093 140.865 63.928V57.026H141.859V63.872C141.859 64.3013 141.966 64.6327 142.181 64.866C142.405 65.0993 142.722 65.216 143.133 65.216C143.571 65.216 143.935 65.09 144.225 64.838L144.575 65.552C144.379 65.7293 144.141 65.86 143.861 65.944C143.59 66.028 143.31 66.07 143.021 66.07ZM139.549 59.476V58.65H144.099V59.476H139.549ZM149.422 66.07C148.797 66.07 148.251 65.9533 147.784 65.72C147.317 65.4867 146.953 65.1367 146.692 64.67C146.44 64.2033 146.314 63.62 146.314 62.92V58.65H147.308V62.808C147.308 63.592 147.499 64.1847 147.882 64.586C148.274 64.978 148.82 65.174 149.52 65.174C150.033 65.174 150.477 65.0713 150.85 64.866C151.233 64.6513 151.522 64.3433 151.718 63.942C151.923 63.5407 152.026 63.06 152.026 62.5V58.65H153.02V66H152.068V63.984L152.222 64.348C151.989 64.8893 151.625 65.314 151.13 65.622C150.645 65.9207 150.075 66.07 149.422 66.07ZM154.698 68.786C154.4 68.786 154.115 68.744 153.844 68.66C153.564 68.5853 153.331 68.4687 153.144 68.31L153.494 67.554C153.793 67.806 154.176 67.932 154.642 67.932C155.034 67.932 155.333 67.8153 155.538 67.582C155.753 67.3487 155.86 67.0033 155.86 66.546V58.65H156.854V66.546C156.854 67.2273 156.668 67.7687 156.294 68.17C155.93 68.5807 155.398 68.786 154.698 68.786ZM156.364 57.026C156.159 57.026 155.986 56.956 155.846 56.816C155.706 56.676 155.636 56.508 155.636 56.312C155.636 56.116 155.706 55.9527 155.846 55.822C155.986 55.682 156.159 55.612 156.364 55.612C156.57 55.612 156.742 55.6773 156.882 55.808C157.022 55.9387 157.092 56.102 157.092 56.298C157.092 56.5033 157.022 56.676 156.882 56.816C156.752 56.956 156.579 57.026 156.364 57.026ZM162.67 66.07C162.045 66.07 161.499 65.9533 161.032 65.72C160.565 65.4867 160.201 65.1367 159.94 64.67C159.688 64.2033 159.562 63.62 159.562 62.92V58.65H160.556V62.808C160.556 63.592 160.747 64.1847 161.13 64.586C161.522 64.978 162.068 65.174 162.768 65.174C163.281 65.174 163.725 65.0713 164.098 64.866C164.481 64.6513 164.77 64.3433 164.966 63.942C165.171 63.5407 165.274 63.06 165.274 62.5V58.65H166.268V66H165.316V63.984L165.47 64.348C165.237 64.8893 164.873 65.314 164.378 65.622C163.893 65.9207 163.323 66.07 162.67 66.07ZM175.628 66.07C174.928 66.07 174.298 65.9113 173.738 65.594C173.188 65.2767 172.754 64.838 172.436 64.278C172.119 63.7087 171.96 63.0553 171.96 62.318C171.96 61.5713 172.119 60.918 172.436 60.358C172.754 59.798 173.188 59.364 173.738 59.056C174.298 58.7387 174.928 58.58 175.628 58.58C176.272 58.58 176.846 58.7247 177.35 59.014C177.864 59.3033 178.27 59.728 178.568 60.288C178.876 60.8387 179.03 61.5153 179.03 62.318C179.03 63.1113 178.881 63.788 178.582 64.348C178.284 64.908 177.878 65.3373 177.364 65.636C176.86 65.9253 176.282 66.07 175.628 66.07ZM175.698 65.188C176.221 65.188 176.688 65.0713 177.098 64.838C177.518 64.5953 177.845 64.2593 178.078 63.83C178.321 63.3913 178.442 62.8873 178.442 62.318C178.442 61.7393 178.321 61.2353 178.078 60.806C177.845 60.3767 177.518 60.0453 177.098 59.812C176.688 59.5693 176.221 59.448 175.698 59.448C175.185 59.448 174.723 59.5693 174.312 59.812C173.902 60.0453 173.575 60.3767 173.332 60.806C173.09 61.2353 172.968 61.7393 172.968 62.318C172.968 62.8873 173.09 63.3913 173.332 63.83C173.575 64.2593 173.902 64.5953 174.312 64.838C174.723 65.0713 175.185 65.188 175.698 65.188ZM178.47 66V63.788L178.568 62.304L178.428 60.82V55.612H179.422V66H178.47ZM185.313 66.07C184.547 66.07 183.875 65.9113 183.297 65.594C182.718 65.2673 182.265 64.824 181.939 64.264C181.612 63.6947 181.449 63.046 181.449 62.318C181.449 61.59 181.603 60.946 181.911 60.386C182.228 59.826 182.657 59.3873 183.199 59.07C183.749 58.7433 184.365 58.58 185.047 58.58C185.737 58.58 186.349 58.7387 186.881 59.056C187.422 59.364 187.847 59.8027 188.155 60.372C188.463 60.932 188.617 61.5807 188.617 62.318C188.617 62.3647 188.612 62.416 188.603 62.472C188.603 62.5187 188.603 62.57 188.603 62.626H182.205V61.884H188.071L187.679 62.178C187.679 61.646 187.562 61.1747 187.329 60.764C187.105 60.344 186.797 60.0173 186.405 59.784C186.013 59.5507 185.56 59.434 185.047 59.434C184.543 59.434 184.09 59.5507 183.689 59.784C183.287 60.0173 182.975 60.344 182.751 60.764C182.527 61.184 182.415 61.6647 182.415 62.206V62.36C182.415 62.92 182.536 63.4147 182.779 63.844C183.031 64.264 183.376 64.5953 183.815 64.838C184.263 65.0713 184.771 65.188 185.341 65.188C185.789 65.188 186.204 65.1087 186.587 64.95C186.979 64.7913 187.315 64.5487 187.595 64.222L188.155 64.866C187.828 65.258 187.417 65.5567 186.923 65.762C186.437 65.9673 185.901 66.07 185.313 66.07ZM194.392 58.58C194.989 58.58 195.512 58.6967 195.96 58.93C196.417 59.154 196.772 59.4993 197.024 59.966C197.285 60.4327 197.416 61.0207 197.416 61.73V66H196.422V61.828C196.422 61.0533 196.226 60.47 195.834 60.078C195.451 59.6767 194.91 59.476 194.21 59.476C193.687 59.476 193.23 59.5833 192.838 59.798C192.455 60.0033 192.157 60.3067 191.942 60.708C191.737 61.1 191.634 61.576 191.634 62.136V66H190.64V58.65H191.592V60.666L191.438 60.288C191.671 59.756 192.045 59.3407 192.558 59.042C193.071 58.734 193.683 58.58 194.392 58.58ZM203.237 68.786C202.565 68.786 201.921 68.688 201.305 68.492C200.689 68.296 200.19 68.016 199.807 67.652L200.311 66.896C200.656 67.204 201.081 67.4467 201.585 67.624C202.098 67.8107 202.64 67.904 203.209 67.904C204.142 67.904 204.828 67.6847 205.267 67.246C205.706 66.8167 205.925 66.1447 205.925 65.23V63.396L206.065 62.136L205.967 60.876V58.65H206.919V65.104C206.919 66.3733 206.606 67.302 205.981 67.89C205.365 68.4873 204.45 68.786 203.237 68.786ZM203.055 65.72C202.355 65.72 201.725 65.5707 201.165 65.272C200.605 64.964 200.162 64.5393 199.835 63.998C199.518 63.4567 199.359 62.836 199.359 62.136C199.359 61.436 199.518 60.82 199.835 60.288C200.162 59.7467 200.605 59.3267 201.165 59.028C201.725 58.7293 202.355 58.58 203.055 58.58C203.708 58.58 204.296 58.7153 204.819 58.986C205.342 59.2567 205.757 59.658 206.065 60.19C206.373 60.722 206.527 61.3707 206.527 62.136C206.527 62.9013 206.373 63.55 206.065 64.082C205.757 64.614 205.342 65.02 204.819 65.3C204.296 65.58 203.708 65.72 203.055 65.72ZM203.153 64.838C203.694 64.838 204.175 64.726 204.595 64.502C205.015 64.2687 205.346 63.9513 205.589 63.55C205.832 63.1393 205.953 62.668 205.953 62.136C205.953 61.604 205.832 61.1373 205.589 60.736C205.346 60.3347 205.015 60.022 204.595 59.798C204.175 59.5647 203.694 59.448 203.153 59.448C202.621 59.448 202.14 59.5647 201.711 59.798C201.291 60.022 200.96 60.3347 200.717 60.736C200.484 61.1373 200.367 61.604 200.367 62.136C200.367 62.668 200.484 63.1393 200.717 63.55C200.96 63.9513 201.291 64.2687 201.711 64.502C202.14 64.726 202.621 64.838 203.153 64.838ZM214.291 66V64.376L214.249 64.11V61.394C214.249 60.7687 214.071 60.288 213.717 59.952C213.371 59.616 212.853 59.448 212.163 59.448C211.687 59.448 211.234 59.5273 210.805 59.686C210.375 59.8447 210.011 60.0547 209.713 60.316L209.265 59.574C209.638 59.2567 210.086 59.014 210.609 58.846C211.131 58.6687 211.682 58.58 212.261 58.58C213.213 58.58 213.945 58.818 214.459 59.294C214.981 59.7607 215.243 60.4747 215.243 61.436V66H214.291ZM211.757 66.07C211.206 66.07 210.725 65.9813 210.315 65.804C209.913 65.6173 209.605 65.3653 209.391 65.048C209.176 64.7213 209.069 64.348 209.069 63.928C209.069 63.5453 209.157 63.2 209.335 62.892C209.521 62.5747 209.82 62.3227 210.231 62.136C210.651 61.94 211.211 61.842 211.911 61.842H214.445V62.584H211.939C211.229 62.584 210.735 62.71 210.455 62.962C210.184 63.214 210.049 63.5267 210.049 63.9C210.049 64.32 210.212 64.656 210.539 64.908C210.865 65.16 211.323 65.286 211.911 65.286C212.471 65.286 212.951 65.16 213.353 64.908C213.763 64.6467 214.062 64.2733 214.249 63.788L214.473 64.474C214.286 64.9593 213.959 65.3467 213.493 65.636C213.035 65.9253 212.457 66.07 211.757 66.07ZM221.695 58.58C222.292 58.58 222.815 58.6967 223.263 58.93C223.72 59.154 224.075 59.4993 224.327 59.966C224.588 60.4327 224.719 61.0207 224.719 61.73V66H223.725V61.828C223.725 61.0533 223.529 60.47 223.137 60.078C222.754 59.6767 222.213 59.476 221.513 59.476C220.99 59.476 220.533 59.5833 220.141 59.798C219.758 60.0033 219.459 60.3067 219.245 60.708C219.039 61.1 218.937 61.576 218.937 62.136V66H217.943V58.65H218.895V60.666L218.741 60.288C218.974 59.756 219.347 59.3407 219.861 59.042C220.374 58.734 220.985 58.58 221.695 58.58ZM233.042 66.07C232.435 66.07 231.861 65.986 231.32 65.818C230.778 65.6407 230.354 65.4213 230.046 65.16L230.494 64.376C230.792 64.6 231.175 64.796 231.642 64.964C232.108 65.1227 232.598 65.202 233.112 65.202C233.812 65.202 234.316 65.0947 234.624 64.88C234.932 64.656 235.086 64.362 235.086 63.998C235.086 63.7273 234.997 63.5173 234.82 63.368C234.652 63.2093 234.428 63.0927 234.148 63.018C233.868 62.934 233.555 62.864 233.21 62.808C232.864 62.752 232.519 62.6867 232.174 62.612C231.838 62.5373 231.53 62.43 231.25 62.29C230.97 62.1407 230.741 61.94 230.564 61.688C230.396 61.436 230.312 61.1 230.312 60.68C230.312 60.2787 230.424 59.9193 230.648 59.602C230.872 59.2847 231.198 59.0373 231.628 58.86C232.066 58.6733 232.598 58.58 233.224 58.58C233.7 58.58 234.176 58.6453 234.652 58.776C235.128 58.8973 235.52 59.0607 235.828 59.266L235.394 60.064C235.067 59.84 234.717 59.6813 234.344 59.588C233.97 59.4853 233.597 59.434 233.224 59.434C232.561 59.434 232.071 59.5507 231.754 59.784C231.446 60.008 231.292 60.2973 231.292 60.652C231.292 60.932 231.376 61.1513 231.544 61.31C231.721 61.4687 231.95 61.5947 232.23 61.688C232.519 61.772 232.832 61.842 233.168 61.898C233.513 61.954 233.854 62.024 234.19 62.108C234.535 62.1827 234.848 62.29 235.128 62.43C235.417 62.5607 235.646 62.752 235.814 63.004C235.991 63.2467 236.08 63.5687 236.08 63.97C236.08 64.3993 235.958 64.7727 235.716 65.09C235.482 65.398 235.137 65.6407 234.68 65.818C234.232 65.986 233.686 66.07 233.042 66.07ZM237.823 68.786C237.478 68.786 237.146 68.73 236.829 68.618C236.521 68.506 236.255 68.338 236.031 68.114L236.493 67.372C236.68 67.5493 236.88 67.6847 237.095 67.778C237.319 67.8807 237.566 67.932 237.837 67.932C238.164 67.932 238.444 67.8387 238.677 67.652C238.92 67.4747 239.148 67.1573 239.363 66.7L239.839 65.622L239.951 65.468L242.975 58.65H243.955L240.273 66.882C240.068 67.358 239.839 67.736 239.587 68.016C239.344 68.296 239.078 68.492 238.789 68.604C238.5 68.7253 238.178 68.786 237.823 68.786ZM239.783 66.21L236.395 58.65H237.431L240.427 65.398L239.783 66.21ZM249.742 66V64.376L249.7 64.11V61.394C249.7 60.7687 249.523 60.288 249.168 59.952C248.823 59.616 248.305 59.448 247.614 59.448C247.138 59.448 246.685 59.5273 246.256 59.686C245.827 59.8447 245.463 60.0547 245.164 60.316L244.716 59.574C245.089 59.2567 245.537 59.014 246.06 58.846C246.583 58.6687 247.133 58.58 247.712 58.58C248.664 58.58 249.397 58.818 249.91 59.294C250.433 59.7607 250.694 60.4747 250.694 61.436V66H249.742ZM247.208 66.07C246.657 66.07 246.177 65.9813 245.766 65.804C245.365 65.6173 245.057 65.3653 244.842 65.048C244.627 64.7213 244.52 64.348 244.52 63.928C244.52 63.5453 244.609 63.2 244.786 62.892C244.973 62.5747 245.271 62.3227 245.682 62.136C246.102 61.94 246.662 61.842 247.362 61.842H249.896V62.584H247.39C246.681 62.584 246.186 62.71 245.906 62.962C245.635 63.214 245.5 63.5267 245.5 63.9C245.5 64.32 245.663 64.656 245.99 64.908C246.317 65.16 246.774 65.286 247.362 65.286C247.922 65.286 248.403 65.16 248.804 64.908C249.215 64.6467 249.513 64.2733 249.7 63.788L249.924 64.474C249.737 64.9593 249.411 65.3467 248.944 65.636C248.487 65.9253 247.908 66.07 247.208 66.07ZM253.394 66V58.65H254.346V60.652L254.248 60.302C254.453 59.742 254.798 59.3173 255.284 59.028C255.769 58.7293 256.371 58.58 257.09 58.58V59.546C257.052 59.546 257.015 59.546 256.978 59.546C256.94 59.5367 256.903 59.532 256.866 59.532C256.091 59.532 255.484 59.77 255.046 60.246C254.607 60.7127 254.388 61.38 254.388 62.248V66H253.394ZM262.963 66V64.376L262.921 64.11V61.394C262.921 60.7687 262.743 60.288 262.389 59.952C262.043 59.616 261.525 59.448 260.835 59.448C260.359 59.448 259.906 59.5273 259.477 59.686C259.047 59.8447 258.683 60.0547 258.385 60.316L257.937 59.574C258.31 59.2567 258.758 59.014 259.281 58.846C259.803 58.6687 260.354 58.58 260.933 58.58C261.885 58.58 262.617 58.818 263.131 59.294C263.653 59.7607 263.915 60.4747 263.915 61.436V66H262.963ZM260.429 66.07C259.878 66.07 259.397 65.9813 258.987 65.804C258.585 65.6173 258.277 65.3653 258.063 65.048C257.848 64.7213 257.741 64.348 257.741 63.928C257.741 63.5453 257.829 63.2 258.007 62.892C258.193 62.5747 258.492 62.3227 258.903 62.136C259.323 61.94 259.883 61.842 260.583 61.842H263.117V62.584H260.611C259.901 62.584 259.407 62.71 259.127 62.962C258.856 63.214 258.721 63.5267 258.721 63.9C258.721 64.32 258.884 64.656 259.211 64.908C259.537 65.16 259.995 65.286 260.583 65.286C261.143 65.286 261.623 65.16 262.025 64.908C262.435 64.6467 262.734 64.2733 262.921 63.788L263.145 64.474C262.958 64.9593 262.631 65.3467 262.165 65.636C261.707 65.9253 261.129 66.07 260.429 66.07ZM268.939 66.07C268.248 66.07 267.716 65.8833 267.343 65.51C266.969 65.1367 266.783 64.6093 266.783 63.928V57.026H267.777V63.872C267.777 64.3013 267.884 64.6327 268.099 64.866C268.323 65.0993 268.64 65.216 269.051 65.216C269.489 65.216 269.853 65.09 270.143 64.838L270.493 65.552C270.297 65.7293 270.059 65.86 269.779 65.944C269.508 66.028 269.228 66.07 268.939 66.07ZM265.467 59.476V58.65H270.017V59.476H265.467ZM278.556 66.084C277.921 66.084 277.357 65.9813 276.862 65.776C276.367 65.5613 275.975 65.2673 275.686 64.894C275.406 64.5207 275.266 64.0867 275.266 63.592C275.266 63.172 275.359 62.7893 275.546 62.444C275.733 62.0893 276.031 61.744 276.442 61.408C276.862 61.0627 277.417 60.7033 278.108 60.33C278.696 60.0033 279.153 59.7233 279.48 59.49C279.816 59.2473 280.054 59.0187 280.194 58.804C280.334 58.58 280.404 58.342 280.404 58.09C280.404 57.726 280.278 57.432 280.026 57.208C279.783 56.984 279.433 56.872 278.976 56.872C278.481 56.872 278.099 56.998 277.828 57.25C277.557 57.4927 277.422 57.81 277.422 58.202C277.422 58.398 277.45 58.5847 277.506 58.762C277.571 58.9393 277.688 59.1353 277.856 59.35C278.033 59.5647 278.276 59.8353 278.584 60.162L283.764 65.496L283.19 66.154L277.786 60.596C277.459 60.2507 277.198 59.952 277.002 59.7C276.815 59.4387 276.685 59.1913 276.61 58.958C276.535 58.7247 276.498 58.4773 276.498 58.216C276.498 57.796 276.596 57.432 276.792 57.124C276.997 56.8067 277.287 56.564 277.66 56.396C278.033 56.2187 278.472 56.13 278.976 56.13C279.433 56.13 279.83 56.2093 280.166 56.368C280.511 56.5173 280.777 56.7367 280.964 57.026C281.16 57.3153 281.258 57.6653 281.258 58.076C281.258 58.4307 281.169 58.762 280.992 59.07C280.824 59.378 280.544 59.6813 280.152 59.98C279.76 60.2693 279.228 60.596 278.556 60.96C277.968 61.2867 277.501 61.5853 277.156 61.856C276.82 62.1267 276.582 62.3927 276.442 62.654C276.302 62.906 276.232 63.186 276.232 63.494C276.232 63.8487 276.33 64.1613 276.526 64.432C276.731 64.6933 277.011 64.8987 277.366 65.048C277.73 65.188 278.145 65.258 278.612 65.258C279.265 65.258 279.849 65.1227 280.362 64.852C280.875 64.5813 281.305 64.1707 281.65 63.62C282.005 63.0693 282.261 62.3787 282.42 61.548L283.218 61.8C283.041 62.7333 282.737 63.5173 282.308 64.152C281.879 64.7867 281.347 65.2673 280.712 65.594C280.077 65.9207 279.359 66.084 278.556 66.084ZM289.779 64.096L289.807 62.822L294.385 58.65H295.603L292.369 61.744L291.809 62.22L289.779 64.096ZM288.995 66V55.612H289.989V66H288.995ZM294.693 66L291.627 62.178L292.271 61.408L295.911 66H294.693ZM300.238 66.07C299.473 66.07 298.801 65.9113 298.222 65.594C297.644 65.2673 297.191 64.824 296.864 64.264C296.538 63.6947 296.374 63.046 296.374 62.318C296.374 61.59 296.528 60.946 296.836 60.386C297.154 59.826 297.583 59.3873 298.124 59.07C298.675 58.7433 299.291 58.58 299.972 58.58C300.663 58.58 301.274 58.7387 301.806 59.056C302.348 59.364 302.772 59.8027 303.08 60.372C303.388 60.932 303.542 61.5807 303.542 62.318C303.542 62.3647 303.538 62.416 303.528 62.472C303.528 62.5187 303.528 62.57 303.528 62.626H297.13V61.884H302.996L302.604 62.178C302.604 61.646 302.488 61.1747 302.254 60.764C302.03 60.344 301.722 60.0173 301.33 59.784C300.938 59.5507 300.486 59.434 299.972 59.434C299.468 59.434 299.016 59.5507 298.614 59.784C298.213 60.0173 297.9 60.344 297.676 60.764C297.452 61.184 297.34 61.6647 297.34 62.206V62.36C297.34 62.92 297.462 63.4147 297.704 63.844C297.956 64.264 298.302 64.5953 298.74 64.838C299.188 65.0713 299.697 65.188 300.266 65.188C300.714 65.188 301.13 65.1087 301.512 64.95C301.904 64.7913 302.24 64.5487 302.52 64.222L303.08 64.866C302.754 65.258 302.343 65.5567 301.848 65.762C301.363 65.9673 300.826 66.07 300.238 66.07ZM307.89 66.07C307.199 66.07 306.667 65.8833 306.294 65.51C305.92 65.1367 305.734 64.6093 305.734 63.928V57.026H306.728V63.872C306.728 64.3013 306.835 64.6327 307.05 64.866C307.274 65.0993 307.591 65.216 308.002 65.216C308.44 65.216 308.804 65.09 309.094 64.838L309.444 65.552C309.248 65.7293 309.01 65.86 308.73 65.944C308.459 66.028 308.179 66.07 307.89 66.07ZM304.418 59.476V58.65H308.968V59.476H304.418ZM314.115 66.07C313.35 66.07 312.678 65.9113 312.099 65.594C311.521 65.2673 311.068 64.824 310.741 64.264C310.415 63.6947 310.251 63.046 310.251 62.318C310.251 61.59 310.405 60.946 310.713 60.386C311.031 59.826 311.46 59.3873 312.001 59.07C312.552 58.7433 313.168 58.58 313.849 58.58C314.54 58.58 315.151 58.7387 315.683 59.056C316.225 59.364 316.649 59.8027 316.957 60.372C317.265 60.932 317.419 61.5807 317.419 62.318C317.419 62.3647 317.415 62.416 317.405 62.472C317.405 62.5187 317.405 62.57 317.405 62.626H311.007V61.884H316.873L316.481 62.178C316.481 61.646 316.365 61.1747 316.131 60.764C315.907 60.344 315.599 60.0173 315.207 59.784C314.815 59.5507 314.363 59.434 313.849 59.434C313.345 59.434 312.893 59.5507 312.491 59.784C312.09 60.0173 311.777 60.344 311.553 60.764C311.329 61.184 311.217 61.6647 311.217 62.206V62.36C311.217 62.92 311.339 63.4147 311.581 63.844C311.833 64.264 312.179 64.5953 312.617 64.838C313.065 65.0713 313.574 65.188 314.143 65.188C314.591 65.188 315.007 65.1087 315.389 64.95C315.781 64.7913 316.117 64.5487 316.397 64.222L316.957 64.866C316.631 65.258 316.22 65.5567 315.725 65.762C315.24 65.9673 314.703 66.07 314.115 66.07ZM323.195 58.58C323.792 58.58 324.315 58.6967 324.763 58.93C325.22 59.154 325.575 59.4993 325.827 59.966C326.088 60.4327 326.219 61.0207 326.219 61.73V66H325.225V61.828C325.225 61.0533 325.029 60.47 324.637 60.078C324.254 59.6767 323.713 59.476 323.013 59.476C322.49 59.476 322.033 59.5833 321.641 59.798C321.258 60.0033 320.959 60.3067 320.745 60.708C320.539 61.1 320.437 61.576 320.437 62.136V66H319.443V58.65H320.395V60.666L320.241 60.288C320.474 59.756 320.847 59.3407 321.361 59.042C321.874 58.734 322.485 58.58 323.195 58.58ZM331.228 66.07C330.537 66.07 330.005 65.8833 329.632 65.51C329.258 65.1367 329.072 64.6093 329.072 63.928V57.026H330.066V63.872C330.066 64.3013 330.173 64.6327 330.388 64.866C330.612 65.0993 330.929 65.216 331.34 65.216C331.778 65.216 332.142 65.09 332.432 64.838L332.782 65.552C332.586 65.7293 332.348 65.86 332.068 65.944C331.797 66.028 331.517 66.07 331.228 66.07ZM327.756 59.476V58.65H332.306V59.476H327.756ZM337.629 66.07C337.004 66.07 336.458 65.9533 335.991 65.72C335.524 65.4867 335.16 65.1367 334.899 64.67C334.647 64.2033 334.521 63.62 334.521 62.92V58.65H335.515V62.808C335.515 63.592 335.706 64.1847 336.089 64.586C336.481 64.978 337.027 65.174 337.727 65.174C338.24 65.174 338.684 65.0713 339.057 64.866C339.44 64.6513 339.729 64.3433 339.925 63.942C340.13 63.5407 340.233 63.06 340.233 62.5V58.65H341.227V66H340.275V63.984L340.429 64.348C340.196 64.8893 339.832 65.314 339.337 65.622C338.852 65.9207 338.282 66.07 337.629 66.07ZM348.603 66V64.376L348.561 64.11V61.394C348.561 60.7687 348.384 60.288 348.029 59.952C347.684 59.616 347.166 59.448 346.475 59.448C345.999 59.448 345.547 59.5273 345.117 59.686C344.688 59.8447 344.324 60.0547 344.025 60.316L343.577 59.574C343.951 59.2567 344.399 59.014 344.921 58.846C345.444 58.6687 345.995 58.58 346.573 58.58C347.525 58.58 348.258 58.818 348.771 59.294C349.294 59.7607 349.555 60.4747 349.555 61.436V66H348.603ZM346.069 66.07C345.519 66.07 345.038 65.9813 344.627 65.804C344.226 65.6173 343.918 65.3653 343.703 65.048C343.489 64.7213 343.381 64.348 343.381 63.928C343.381 63.5453 343.47 63.2 343.647 62.892C343.834 62.5747 344.133 62.3227 344.543 62.136C344.963 61.94 345.523 61.842 346.223 61.842H348.757V62.584H346.251C345.542 62.584 345.047 62.71 344.767 62.962C344.497 63.214 344.361 63.5267 344.361 63.9C344.361 64.32 344.525 64.656 344.851 64.908C345.178 65.16 345.635 65.286 346.223 65.286C346.783 65.286 347.264 65.16 347.665 64.908C348.076 64.6467 348.375 64.2733 348.561 63.788L348.785 64.474C348.599 64.9593 348.272 65.3467 347.805 65.636C347.348 65.9253 346.769 66.07 346.069 66.07ZM356.007 58.58C356.604 58.58 357.127 58.6967 357.575 58.93C358.032 59.154 358.387 59.4993 358.639 59.966C358.9 60.4327 359.031 61.0207 359.031 61.73V66H358.037V61.828C358.037 61.0533 357.841 60.47 357.449 60.078C357.066 59.6767 356.525 59.476 355.825 59.476C355.302 59.476 354.845 59.5833 354.453 59.798C354.07 60.0033 353.772 60.3067 353.557 60.708C353.352 61.1 353.249 61.576 353.249 62.136V66H352.255V58.65H353.207V60.666L353.053 60.288C353.286 59.756 353.66 59.3407 354.173 59.042C354.686 58.734 355.298 58.58 356.007 58.58Z" fill="#171717"/>
</g>
<defs>
<filter id="filter0_d_4333_24719" x="0" y="0" width="405" height="128" filterUnits="userSpaceOnUse" color-interpolation-filters="sRGB">
<feFlood flood-opacity="0" result="BackgroundImageFix"/>
<feColorMatrix in="SourceAlpha" type="matrix" values="0 0 0 0 0 0 0 0 0 0 0 0 0 0 0 0 0 0 127 0" result="hardAlpha"/>
<feMorphology radius="10" operator="dilate" in="SourceAlpha" result="effect1_dropShadow_4333_24719"/>
<feOffset dy="3"/>
<feGaussianBlur stdDeviation="11"/>
<feComposite in2="hardAlpha" operator="out"/>
<feColorMatrix type="matrix" values="0 0 0 0 0.5875 0 0 0 0 0.5875 0 0 0 0 0.5875 0 0 0 0.1 0"/>
<feBlend mode="normal" in2="BackgroundImageFix" result="effect1_dropShadow_4333_24719"/>
<feBlend mode="normal" in="SourceGraphic" in2="effect1_dropShadow_4333_24719" result="shape"/>
</filter>
</defs>
</svg>
