<svg width="405" height="140" viewBox="0 0 405 140" fill="none" xmlns="http://www.w3.org/2000/svg">
<g filter="url(#filter0_d_4333_24595)">
<rect x="32" y="29" width="341" height="76" rx="8" fill="white" shape-rendering="crispEdges"/>
<rect x="52.5" y="49" width="36" height="36" rx="8" fill="#F5F5F5"/>
<path opacity="0.34" fill-rule="evenodd" clip-rule="evenodd" d="M62.3501 58.8497C62.9253 58.2745 63.7373 58.0417 64.667 58.0417H66.3337C67.2633 58.0417 68.0754 58.2745 68.6506 58.8497C69.2258 59.4249 69.4587 60.237 69.4587 61.1667V62.8333C69.4587 63.763 69.2258 64.5751 68.6506 65.1503C68.0754 65.7255 67.2633 65.9583 66.3337 65.9583H64.667C63.7373 65.9583 62.9253 65.7255 62.3501 65.1503C61.7748 64.5751 61.542 63.763 61.542 62.8333V61.1667C61.542 60.237 61.7748 59.4249 62.3501 58.8497ZM63.2339 59.7336C62.9758 59.9917 62.792 60.4297 62.792 61.1667V62.8333C62.792 63.5703 62.9758 64.0083 63.2339 64.2664C63.4921 64.5245 63.93 64.7083 64.667 64.7083H66.3337C67.0707 64.7083 67.5086 64.5245 67.7667 64.2664C68.0248 64.0083 68.2087 63.5703 68.2087 62.8333V61.1667C68.2087 60.4297 68.0248 59.9917 67.7667 59.7336C67.5086 59.4755 67.0707 59.2917 66.3337 59.2917H64.667C63.93 59.2917 63.4921 59.4755 63.2339 59.7336Z" fill="#171717"/>
<path fill-rule="evenodd" clip-rule="evenodd" d="M72.3501 58.8497C72.9253 58.2745 73.7373 58.0417 74.667 58.0417H76.3337C77.2633 58.0417 78.0754 58.2745 78.6506 58.8497C79.2258 59.4249 79.4587 60.237 79.4587 61.1667V62.8333C79.4587 63.763 79.2258 64.5751 78.6506 65.1503C78.0754 65.7255 77.2633 65.9583 76.3337 65.9583H74.667C73.7373 65.9583 72.9253 65.7255 72.3501 65.1503C71.7748 64.5751 71.542 63.763 71.542 62.8333V61.1667C71.542 60.237 71.7748 59.4249 72.3501 58.8497ZM73.2339 59.7336C72.9758 59.9917 72.792 60.4297 72.792 61.1667V62.8333C72.792 63.5703 72.9758 64.0083 73.2339 64.2664C73.4921 64.5245 73.93 64.7083 74.667 64.7083H76.3337C77.0707 64.7083 77.5086 64.5245 77.7667 64.2664C78.0248 64.0083 78.2087 63.5703 78.2087 62.8333V61.1667C78.2087 60.4297 78.0248 59.9917 77.7667 59.7336C77.5086 59.4755 77.0707 59.2917 76.3337 59.2917H74.667C73.93 59.2917 73.4921 59.4755 73.2339 59.7336Z" fill="#171717"/>
<path opacity="0.34" fill-rule="evenodd" clip-rule="evenodd" d="M72.3501 68.8497C72.9253 68.2745 73.7373 68.0417 74.667 68.0417H76.3337C77.2633 68.0417 78.0754 68.2745 78.6506 68.8497C79.2258 69.4249 79.4587 70.237 79.4587 71.1667V72.8333C79.4587 73.763 79.2258 74.5751 78.6506 75.1503C78.0754 75.7255 77.2633 75.9583 76.3337 75.9583H74.667C73.7373 75.9583 72.9253 75.7255 72.3501 75.1503C71.7748 74.5751 71.542 73.763 71.542 72.8333V71.1667C71.542 70.237 71.7748 69.4249 72.3501 68.8497ZM73.2339 69.7336C72.9758 69.9917 72.792 70.4297 72.792 71.1667V72.8333C72.792 73.5703 72.9758 74.0083 73.2339 74.2664C73.4921 74.5245 73.93 74.7083 74.667 74.7083H76.3337C77.0707 74.7083 77.5086 74.5245 77.7667 74.2664C78.0248 74.0083 78.2087 73.5703 78.2087 72.8333V71.1667C78.2087 70.4297 78.0248 69.9917 77.7667 69.7336C77.5086 69.4755 77.0707 69.2917 76.3337 69.2917H74.667C73.93 69.2917 73.4921 69.4755 73.2339 69.7336Z" fill="#171717"/>
<path fill-rule="evenodd" clip-rule="evenodd" d="M62.3501 68.8497C62.9253 68.2745 63.7373 68.0417 64.667 68.0417H66.3337C67.2633 68.0417 68.0754 68.2745 68.6506 68.8497C69.2258 69.4249 69.4587 70.237 69.4587 71.1667V72.8333C69.4587 73.763 69.2258 74.5751 68.6506 75.1503C68.0754 75.7255 67.2633 75.9583 66.3337 75.9583H64.667C63.7373 75.9583 62.9253 75.7255 62.3501 75.1503C61.7748 74.5751 61.542 73.763 61.542 72.8333V71.1667C61.542 70.237 61.7748 69.4249 62.3501 68.8497ZM63.2339 69.7336C62.9758 69.9917 62.792 70.4297 62.792 71.1667V72.8333C62.792 73.5703 62.9758 74.0083 63.2339 74.2664C63.4921 74.5245 63.93 74.7083 64.667 74.7083H66.3337C67.0707 74.7083 67.5086 74.5245 67.7667 74.2664C68.0248 74.0083 68.2087 73.5703 68.2087 72.8333V71.1667C68.2087 70.4297 68.0248 69.9917 67.7667 69.7336C67.5086 69.4755 67.0707 69.2917 66.3337 69.2917H64.667C63.93 69.2917 63.4921 69.4755 63.2339 69.7336Z" fill="#171717"/>
<rect x="108.5" y="49" width="36" height="36" rx="8" fill="#F5F5F5"/>
<path fill-rule="evenodd" clip-rule="evenodd" d="M122.228 62.7279C123.361 61.5949 124.897 60.9583 126.5 60.9583C128.102 60.9583 129.639 61.5949 130.772 62.7279C131.905 63.8609 132.541 65.3976 132.541 67C132.541 68.6023 131.905 70.1391 130.772 71.2721C129.639 72.4051 128.102 73.0417 126.5 73.0417C124.897 73.0417 123.361 72.4051 122.228 71.2721C121.095 70.1391 120.458 68.6023 120.458 67C120.458 65.3976 121.095 63.8609 122.228 62.7279ZM126.5 62.2083C125.229 62.2083 124.01 62.7132 123.111 63.6118C122.213 64.5104 121.708 65.7292 121.708 67C121.708 68.2708 122.213 69.4896 123.111 70.3882C124.01 71.2868 125.229 71.7917 126.5 71.7917C127.771 71.7917 128.989 71.2868 129.888 70.3882C130.787 69.4896 131.291 68.2708 131.291 67C131.291 65.7292 130.787 64.5104 129.888 63.6118C128.989 62.7132 127.771 62.2083 126.5 62.2083Z" fill="#171717"/>
<path opacity="0.4" fill-rule="evenodd" clip-rule="evenodd" d="M126.5 57.8333C126.96 57.8333 127.333 58.2064 127.333 58.6667V58.7333C127.333 59.1936 126.96 59.5667 126.5 59.5667C126.039 59.5667 125.666 59.1936 125.666 58.7333V58.6667C125.666 58.2064 126.039 57.8333 126.5 57.8333ZM119.96 60.4607C120.286 60.1353 120.813 60.1353 121.139 60.4607L121.247 60.5691C121.573 60.8945 121.573 61.4221 121.247 61.7476C120.922 62.073 120.394 62.073 120.069 61.7476L119.96 61.6393C119.635 61.3138 119.635 60.7862 119.96 60.4607ZM133.039 60.4607C133.364 60.7862 133.364 61.3138 133.039 61.6392L132.931 61.7476C132.605 62.073 132.078 62.073 131.752 61.7476C131.427 61.4221 131.427 60.8945 131.752 60.5691L131.86 60.4607C132.186 60.1353 132.713 60.1353 133.039 60.4607ZM117.333 67C117.333 66.5398 117.706 66.1667 118.166 66.1667H118.233C118.693 66.1667 119.066 66.5398 119.066 67C119.066 67.4602 118.693 67.8333 118.233 67.8333H118.166C117.706 67.8333 117.333 67.4602 117.333 67ZM133.933 67C133.933 66.5398 134.306 66.1667 134.766 66.1667H134.833C135.293 66.1667 135.666 66.5398 135.666 67C135.666 67.4602 135.293 67.8333 134.833 67.8333H134.766C134.306 67.8333 133.933 67.4602 133.933 67ZM121.247 72.2524C121.573 72.5778 121.573 73.1055 121.247 73.4309L121.139 73.5392C120.813 73.8647 120.286 73.8647 119.96 73.5392C119.635 73.2138 119.635 72.6862 119.96 72.3607L120.069 72.2524C120.394 71.927 120.922 71.927 121.247 72.2524ZM131.752 72.2524C132.078 71.927 132.605 71.927 132.931 72.2524L133.039 72.3607C133.364 72.6862 133.364 73.2138 133.039 73.5392C132.713 73.8647 132.186 73.8647 131.86 73.5392L131.752 73.4309C131.427 73.1055 131.427 72.5778 131.752 72.2524ZM126.5 74.4333C126.96 74.4333 127.333 74.8064 127.333 75.2667V75.3333C127.333 75.7936 126.96 76.1667 126.5 76.1667C126.039 76.1667 125.666 75.7936 125.666 75.3333V75.2667C125.666 74.8064 126.039 74.4333 126.5 74.4333Z" fill="#171717"/>
<path d="M185.97 72V62.2H187.118L191.514 69.606H190.898L195.238 62.2H196.386L196.4 72H195.056L195.042 64.314H195.364L191.5 70.81H190.856L186.964 64.314H187.314V72H185.97ZM203.751 72V70.432L203.681 70.138V67.464C203.681 66.8947 203.513 66.456 203.177 66.148C202.85 65.8307 202.356 65.672 201.693 65.672C201.254 65.672 200.825 65.7467 200.405 65.896C199.985 66.036 199.63 66.2273 199.341 66.47L198.781 65.462C199.164 65.154 199.621 64.9207 200.153 64.762C200.694 64.594 201.259 64.51 201.847 64.51C202.864 64.51 203.648 64.7573 204.199 65.252C204.75 65.7467 205.025 66.5027 205.025 67.52V72H203.751ZM201.315 72.084C200.764 72.084 200.279 71.9907 199.859 71.804C199.448 71.6173 199.131 71.3607 198.907 71.034C198.683 70.698 198.571 70.32 198.571 69.9C198.571 69.4987 198.664 69.1347 198.851 68.808C199.047 68.4813 199.36 68.22 199.789 68.024C200.228 67.828 200.816 67.73 201.553 67.73H203.905V68.696H201.609C200.937 68.696 200.484 68.808 200.251 69.032C200.018 69.256 199.901 69.5267 199.901 69.844C199.901 70.208 200.046 70.502 200.335 70.726C200.624 70.9407 201.026 71.048 201.539 71.048C202.043 71.048 202.482 70.936 202.855 70.712C203.238 70.488 203.513 70.1613 203.681 69.732L203.947 70.656C203.77 71.0947 203.457 71.4447 203.009 71.706C202.561 71.958 201.996 72.084 201.315 72.084ZM209.64 72.084C209.024 72.084 208.436 72 207.876 71.832C207.326 71.664 206.892 71.4587 206.574 71.216L207.134 70.152C207.452 70.3667 207.844 70.5487 208.31 70.698C208.777 70.8473 209.253 70.922 209.738 70.922C210.364 70.922 210.812 70.8333 211.082 70.656C211.362 70.4787 211.502 70.2313 211.502 69.914C211.502 69.6807 211.418 69.4987 211.25 69.368C211.082 69.2373 210.858 69.1393 210.578 69.074C210.308 69.0087 210.004 68.9527 209.668 68.906C209.332 68.85 208.996 68.7847 208.66 68.71C208.324 68.626 208.016 68.514 207.736 68.374C207.456 68.2247 207.232 68.024 207.064 67.772C206.896 67.5107 206.812 67.1653 206.812 66.736C206.812 66.288 206.938 65.896 207.19 65.56C207.442 65.224 207.797 64.9673 208.254 64.79C208.721 64.6033 209.272 64.51 209.906 64.51C210.392 64.51 210.882 64.5707 211.376 64.692C211.88 64.804 212.291 64.9673 212.608 65.182L212.034 66.246C211.698 66.022 211.348 65.868 210.984 65.784C210.62 65.7 210.256 65.658 209.892 65.658C209.304 65.658 208.866 65.756 208.576 65.952C208.287 66.1387 208.142 66.3813 208.142 66.68C208.142 66.932 208.226 67.128 208.394 67.268C208.572 67.3987 208.796 67.5013 209.066 67.576C209.346 67.6507 209.654 67.716 209.99 67.772C210.326 67.8187 210.662 67.884 210.998 67.968C211.334 68.0427 211.638 68.15 211.908 68.29C212.188 68.43 212.412 68.626 212.58 68.878C212.758 69.13 212.846 69.466 212.846 69.886C212.846 70.334 212.716 70.7213 212.454 71.048C212.193 71.3747 211.824 71.6313 211.348 71.818C210.872 71.9953 210.303 72.084 209.64 72.084ZM217.648 72.084C217.013 72.084 216.453 71.9673 215.968 71.734C215.492 71.5007 215.119 71.146 214.848 70.67C214.587 70.1847 214.456 69.578 214.456 68.85V64.58H215.8V68.696C215.8 69.424 215.973 69.97 216.318 70.334C216.673 70.698 217.167 70.88 217.802 70.88C218.269 70.88 218.675 70.7867 219.02 70.6C219.365 70.404 219.631 70.124 219.818 69.76C220.005 69.3867 220.098 68.9387 220.098 68.416V64.58H221.442V72H220.168V69.998L220.378 70.53C220.135 71.0247 219.771 71.4073 219.286 71.678C218.801 71.9487 218.255 72.084 217.648 72.084ZM225.093 70.208L225.121 68.486L229.391 64.58H231.015L227.739 67.8L227.011 68.416L225.093 70.208ZM224.001 72V61.612H225.345V72H224.001ZM229.671 72L226.759 68.388L227.627 67.31L231.323 72H229.671Z" fill="#106FA4"/>
<rect x="165.5" y="50" width="85" height="34" rx="7" stroke="#106FA4" stroke-width="2"/>
<rect x="267.5" y="49" width="85" height="36" rx="8" fill="#106FA4"/>
<path d="M288.97 72V62.2H293.1C294.145 62.2 295.065 62.4053 295.858 62.816C296.661 63.2267 297.281 63.8007 297.72 64.538C298.168 65.2753 298.392 66.1293 298.392 67.1C298.392 68.0707 298.168 68.9247 297.72 69.662C297.281 70.3993 296.661 70.9733 295.858 71.384C295.065 71.7947 294.145 72 293.1 72H288.97ZM290.37 70.782H293.016C293.828 70.782 294.528 70.628 295.116 70.32C295.713 70.012 296.175 69.5827 296.502 69.032C296.829 68.472 296.992 67.828 296.992 67.1C296.992 66.3627 296.829 65.7187 296.502 65.168C296.175 64.6173 295.713 64.188 295.116 63.88C294.528 63.572 293.828 63.418 293.016 63.418H290.37V70.782ZM304.946 72V70.432L304.876 70.138V67.464C304.876 66.8947 304.708 66.456 304.372 66.148C304.046 65.8307 303.551 65.672 302.888 65.672C302.45 65.672 302.02 65.7467 301.6 65.896C301.18 66.036 300.826 66.2273 300.536 66.47L299.976 65.462C300.359 65.154 300.816 64.9207 301.348 64.762C301.89 64.594 302.454 64.51 303.042 64.51C304.06 64.51 304.844 64.7573 305.394 65.252C305.945 65.7467 306.22 66.5027 306.22 67.52V72H304.946ZM302.51 72.084C301.96 72.084 301.474 71.9907 301.054 71.804C300.644 71.6173 300.326 71.3607 300.102 71.034C299.878 70.698 299.766 70.32 299.766 69.9C299.766 69.4987 299.86 69.1347 300.046 68.808C300.242 68.4813 300.555 68.22 300.984 68.024C301.423 67.828 302.011 67.73 302.748 67.73H305.1V68.696H302.804C302.132 68.696 301.68 68.808 301.446 69.032C301.213 69.256 301.096 69.5267 301.096 69.844C301.096 70.208 301.241 70.502 301.53 70.726C301.82 70.9407 302.221 71.048 302.734 71.048C303.238 71.048 303.677 70.936 304.05 70.712C304.433 70.488 304.708 70.1613 304.876 69.732L305.142 70.656C304.965 71.0947 304.652 71.4447 304.204 71.706C303.756 71.958 303.192 72.084 302.51 72.084ZM308.904 72V63.922C308.904 63.194 309.114 62.6153 309.534 62.186C309.963 61.7473 310.57 61.528 311.354 61.528C311.643 61.528 311.918 61.5653 312.18 61.64C312.45 61.7053 312.679 61.8127 312.866 61.962L312.46 62.984C312.32 62.872 312.161 62.788 311.984 62.732C311.806 62.6667 311.62 62.634 311.424 62.634C311.032 62.634 310.733 62.746 310.528 62.97C310.322 63.1847 310.22 63.5067 310.22 63.936V64.93L310.248 65.546V72H308.904ZM307.644 65.686V64.58H312.376V65.686H307.644ZM316.191 72.084C315.444 72.084 314.866 71.8833 314.455 71.482C314.044 71.0807 313.839 70.5067 313.839 69.76V62.956H315.183V69.704C315.183 70.1053 315.281 70.4133 315.477 70.628C315.682 70.8427 315.972 70.95 316.345 70.95C316.765 70.95 317.115 70.8333 317.395 70.6L317.815 71.566C317.61 71.7433 317.362 71.874 317.073 71.958C316.793 72.042 316.499 72.084 316.191 72.084ZM312.579 65.686V64.58H317.311V65.686H312.579ZM324.046 72V70.432L323.976 70.138V67.464C323.976 66.8947 323.808 66.456 323.472 66.148C323.145 65.8307 322.651 65.672 321.988 65.672C321.549 65.672 321.12 65.7467 320.7 65.896C320.28 66.036 319.925 66.2273 319.636 66.47L319.076 65.462C319.459 65.154 319.916 64.9207 320.448 64.762C320.989 64.594 321.554 64.51 322.142 64.51C323.159 64.51 323.943 64.7573 324.494 65.252C325.045 65.7467 325.32 66.5027 325.32 67.52V72H324.046ZM321.61 72.084C321.059 72.084 320.574 71.9907 320.154 71.804C319.743 71.6173 319.426 71.3607 319.202 71.034C318.978 70.698 318.866 70.32 318.866 69.9C318.866 69.4987 318.959 69.1347 319.146 68.808C319.342 68.4813 319.655 68.22 320.084 68.024C320.523 67.828 321.111 67.73 321.848 67.73H324.2V68.696H321.904C321.232 68.696 320.779 68.808 320.546 69.032C320.313 69.256 320.196 69.5267 320.196 69.844C320.196 70.208 320.341 70.502 320.63 70.726C320.919 70.9407 321.321 71.048 321.834 71.048C322.338 71.048 322.777 70.936 323.15 70.712C323.533 70.488 323.808 70.1613 323.976 69.732L324.242 70.656C324.065 71.0947 323.752 71.4447 323.304 71.706C322.856 71.958 322.291 72.084 321.61 72.084ZM327.807 72V64.58H329.095V66.596L328.969 66.092C329.175 65.5787 329.52 65.1867 330.005 64.916C330.491 64.6453 331.088 64.51 331.797 64.51V65.812C331.741 65.8027 331.685 65.798 331.629 65.798C331.583 65.798 331.536 65.798 331.489 65.798C330.771 65.798 330.201 66.0127 329.781 66.442C329.361 66.8713 329.151 67.492 329.151 68.304V72H327.807Z" fill="white"/>
</g>
<defs>
<filter id="filter0_d_4333_24595" x="0" y="0" width="405" height="140" filterUnits="userSpaceOnUse" color-interpolation-filters="sRGB">
<feFlood flood-opacity="0" result="BackgroundImageFix"/>
<feColorMatrix in="SourceAlpha" type="matrix" values="0 0 0 0 0 0 0 0 0 0 0 0 0 0 0 0 0 0 127 0" result="hardAlpha"/>
<feMorphology radius="10" operator="dilate" in="SourceAlpha" result="effect1_dropShadow_4333_24595"/>
<feOffset dy="3"/>
<feGaussianBlur stdDeviation="11"/>
<feComposite in2="hardAlpha" operator="out"/>
<feColorMatrix type="matrix" values="0 0 0 0 0.5875 0 0 0 0 0.5875 0 0 0 0 0.5875 0 0 0 0.1 0"/>
<feBlend mode="normal" in2="BackgroundImageFix" result="effect1_dropShadow_4333_24595"/>
<feBlend mode="normal" in="SourceGraphic" in2="effect1_dropShadow_4333_24595" result="shape"/>
</filter>
</defs>
</svg>
