<svg width="451" height="300" viewBox="0 0 451 300" fill="none" xmlns="http://www.w3.org/2000/svg">
<path d="M355.342 40.0156C312.316 34.4116 287.884 58.2735 230.038 60.8715C172.589 56.4015 150.682 31.7355 107.141 35.9115C60.2925 40.3995 24.0045 101.444 34.3305 162.512C44.6565 223.58 108.646 257.714 141.358 257.504C167.507 257.336 190.6 246.704 220.414 244.148C249.904 247.676 271.846 259.058 297.928 260.09C330.562 261.386 398.02 229.418 414.736 168.8C431.452 108.182 401.638 46.0396 355.342 40.0156Z" fill="#43A7FF"/>
<path opacity="0.7" d="M355.342 40.0156C312.316 34.4116 287.884 58.2735 230.038 60.8715C172.589 56.4015 150.682 31.7355 107.141 35.9115C60.2925 40.3995 24.0045 101.444 34.3305 162.512C44.6565 223.58 108.646 257.714 141.358 257.504C167.507 257.336 190.6 246.704 220.414 244.148C249.904 247.676 271.846 259.058 297.928 260.09C330.562 261.386 398.02 229.418 414.736 168.8C431.452 108.182 401.638 46.0396 355.342 40.0156Z" fill="white"/>
<path d="M22.5625 271.734H442.233" stroke="#263238" stroke-linecap="round" stroke-linejoin="round"/>
<g opacity="0.15">
<path d="M122.815 47.774C120.283 50.264 112.789 52.94 112.783 52.94C112.777 52.94 112.519 47.462 112.549 47.114C112.873 43.082 115.873 35.474 120.289 34.436C123.469 33.686 126.289 36.068 126.715 39.176C127.141 42.284 124.975 45.65 122.815 47.774Z" fill="black"/>
<path d="M118.277 148.695C118.313 148.875 118.349 149.043 118.379 149.223L116.027 151.395C115.895 150.669 115.763 149.937 115.637 149.175C115.259 147.027 114.905 144.723 114.563 142.353C112.279 142.317 109.999 142.147 107.735 141.843C106.463 145.023 101.963 149.895 101.375 150.519C102.839 152.085 104.285 153.597 105.671 155.007C106.619 155.975 107.539 156.899 108.431 157.779L105.623 158.859L103.727 156.867C102.233 155.277 100.667 153.549 99.0709 151.767C98.3389 152.235 92.3329 156.051 89.0329 156.531C86.0329 156.963 82.1029 156.681 79.8289 154.425C77.5549 152.169 77.4289 148.521 79.9429 146.445C83.4409 143.559 91.3129 145.773 94.7209 147.957C94.9249 148.089 96.9529 149.727 98.2129 150.783C97.5649 150.051 96.9289 149.343 96.2749 148.581C94.9609 147.081 93.7009 145.545 92.3389 143.895L90.4249 141.417C89.7709 140.601 89.1829 139.653 88.5529 138.771C87.1249 136.689 85.7869 134.505 84.4849 132.279C83.1709 133.425 78.4309 137.415 75.5269 138.279C72.6229 139.143 68.7049 139.479 66.1129 137.595C63.5209 135.711 62.8429 132.123 65.0149 129.687C68.0149 126.303 76.1569 127.287 79.8529 128.943C80.0869 129.045 82.6069 130.521 83.9809 131.343C83.2069 129.999 82.4329 128.661 81.6949 127.275C79.5649 123.279 77.5369 119.163 75.4969 115.065C74.8969 113.811 74.2309 112.569 73.5949 111.321C73.1329 111.735 67.5949 116.601 64.3489 117.591C61.4569 118.473 57.5269 118.791 54.9409 116.907C52.3549 115.023 51.6649 111.435 53.8429 108.999C56.8429 105.615 64.9789 106.599 68.6809 108.255C68.9569 108.381 72.5869 110.511 73.4809 111.093C72.0829 108.351 70.6669 105.627 69.1609 102.999C67.1447 99.4414 64.9 96.0182 62.4409 92.751C62.2249 92.943 56.4829 98.049 53.1469 99.063C50.2549 99.945 46.3249 100.263 43.7329 98.379C41.1409 96.495 40.4629 92.907 42.6409 90.471C45.6409 87.087 53.7769 88.071 57.4789 89.727C57.7669 89.859 61.6789 92.127 62.3449 92.613C62.2009 92.427 62.0749 92.217 61.9249 92.013C59.3704 88.8034 56.533 85.8294 53.4469 83.127C51.7669 81.609 50.0689 80.253 48.3949 78.975C47.4169 80.031 42.9229 84.831 40.0249 86.073C37.2409 87.273 33.3709 88.011 30.5929 86.427C27.8149 84.843 26.7409 81.351 28.6309 78.687C31.2649 74.997 39.4309 75.087 43.3009 76.323C43.5109 76.389 45.5689 77.301 47.0569 77.985C46.2889 77.421 45.5089 76.821 44.7649 76.293C41.9749 74.301 39.2929 72.657 36.9109 71.211C35.5489 70.401 34.3009 69.699 33.1249 69.051C31.6249 69.591 25.5649 71.703 22.4749 71.451C19.3849 71.199 15.6769 70.203 13.9429 67.497C12.2089 64.791 12.8629 61.203 15.7729 59.727C19.8049 57.663 27.0169 61.527 29.8789 64.383C30.1249 64.635 33.5449 68.949 33.4789 68.979L33.3889 69.009C34.5349 69.609 35.7529 70.269 37.0669 71.013C39.4669 72.405 42.2149 74.013 45.0589 75.939C48.1455 77.991 51.1086 80.2229 53.9329 82.623C57.116 85.2933 60.0537 88.2431 62.7109 91.437C62.7442 91.4744 62.7743 91.5145 62.8009 91.557C62.3029 90.321 61.0009 86.829 60.9649 86.553C60.0169 82.617 60.4969 74.451 64.3669 72.087C67.1569 70.389 70.5949 71.763 71.9509 74.589C73.3069 77.415 72.3169 81.285 70.9249 83.973C69.3649 87.003 63.5569 91.581 63.0949 91.947C65.7238 95.2614 68.1291 98.7471 70.2949 102.381C71.5609 104.493 72.7789 106.659 73.9669 108.843C73.5709 107.763 73.2289 106.797 73.1929 106.659C72.2449 102.723 72.7249 94.557 76.5949 92.199C79.3849 90.495 82.8229 91.875 84.1789 94.695C85.5349 97.515 84.5449 101.391 83.1589 104.079C81.7729 106.767 76.8769 110.811 75.5749 111.849C76.0189 112.695 76.4809 113.529 76.9249 114.375C79.0549 118.431 81.1669 122.487 83.3629 126.375C84.1309 127.755 84.9469 129.081 85.7629 130.419C85.4149 129.459 85.1269 128.649 85.0969 128.523C84.1489 124.587 84.6289 116.421 88.4989 114.057C91.2829 112.359 94.7269 113.733 96.0829 116.559C97.4389 119.385 96.4429 123.255 95.0569 125.943C93.6709 128.631 89.2489 132.279 87.7069 133.527C88.5769 134.865 89.4409 136.209 90.3409 137.475C90.9769 138.321 91.5409 139.179 92.2129 139.995L94.1809 142.437C95.4829 143.937 96.8209 145.503 98.1289 146.937C99.0349 147.945 99.9289 148.881 100.799 149.835C100.013 148.473 98.5309 145.767 98.4349 145.527C97.2068 142.183 96.8577 138.58 97.4209 135.063C97.2697 134.696 97.1512 134.317 97.0669 133.929C96.4249 130.863 98.3209 127.677 101.567 127.329C106.079 126.849 111.419 133.041 113.057 136.743C113.159 136.959 113.939 139.449 114.407 141.021C114.275 140.055 114.131 139.113 114.005 138.117C113.741 136.143 113.537 134.163 113.309 132.039C113.237 131.007 113.159 129.963 113.087 128.913C113.015 127.863 113.021 126.759 112.979 125.673C112.943 123.153 113.027 120.591 113.171 118.017C111.443 118.245 105.287 118.959 102.371 118.095C99.4549 117.231 96.0229 115.329 94.8949 112.329C93.7669 109.329 95.1889 105.963 98.3449 105.129C102.731 103.977 108.953 109.287 111.131 112.695C111.269 112.911 112.559 115.533 113.237 116.985C113.339 115.437 113.429 113.895 113.579 112.335C114.005 107.823 114.581 103.275 115.139 98.733C115.313 97.341 115.463 95.949 115.625 94.533C115.025 94.617 107.717 95.625 104.453 94.659C101.555 93.795 98.1049 91.893 96.9829 88.893C95.8609 85.893 97.2709 82.527 100.433 81.693C104.813 80.541 111.035 85.851 113.213 89.259C113.381 89.517 115.229 93.297 115.655 94.275C116.003 91.221 116.321 88.167 116.513 85.143C116.798 81.0645 116.816 76.9718 116.567 72.891C116.279 72.927 108.671 74.019 105.329 73.023C102.431 72.165 98.9809 70.257 97.8589 67.263C96.7369 64.269 98.1469 60.891 101.309 60.063C105.689 58.905 111.911 64.215 114.089 67.623C114.263 67.893 116.249 71.961 116.561 72.723C116.561 72.483 116.561 72.237 116.561 72.003C116.175 67.946 115.434 63.9307 114.347 60.003C113.747 57.807 113.111 55.743 112.421 53.751C111.023 54.099 104.621 55.617 101.519 55.053C98.5189 54.519 94.9189 53.007 93.4609 50.151C92.0029 47.295 93.0469 43.785 96.0949 42.615C100.325 40.983 107.093 45.579 109.637 48.729C109.775 48.897 110.987 50.799 111.851 52.191C111.521 51.297 111.203 50.391 110.873 49.515C109.673 46.317 108.317 43.461 107.123 40.941C106.433 39.513 105.779 38.241 105.155 37.053C103.607 36.675 97.3909 35.091 94.9549 33.201C92.5189 31.311 90.0289 28.329 90.0649 25.131C90.1009 21.933 92.6329 19.293 95.8789 19.659C100.385 20.163 104.279 27.357 105.077 31.323C105.143 31.665 105.611 37.155 105.533 37.137H105.443C106.043 38.265 106.715 39.489 107.405 40.833C108.653 43.329 110.045 46.167 111.353 49.353C112.794 52.7552 114.04 56.2369 115.085 59.781C116.264 63.7643 117.087 67.8443 117.545 71.973C117.542 72.023 117.542 72.073 117.545 72.123C117.809 70.821 118.673 67.209 118.775 66.939C120.155 63.129 125.057 56.589 129.575 56.739C132.839 56.859 134.975 59.907 134.519 63.009C134.063 66.111 131.129 68.793 128.519 70.269C125.519 71.937 118.169 72.549 117.587 72.597C117.946 76.8111 118.024 81.0445 117.821 85.269C117.719 87.729 117.533 90.207 117.323 92.685C117.587 91.569 117.833 90.573 117.881 90.435C119.261 86.631 124.169 80.085 128.681 80.235C131.945 80.349 134.081 83.397 133.625 86.499C133.169 89.601 130.235 92.289 127.625 93.765C125.015 95.241 118.679 95.913 117.017 96.063C116.921 97.011 116.843 97.965 116.747 98.913C116.291 103.473 115.811 108.021 115.481 112.497C115.367 114.069 115.307 115.629 115.247 117.189C115.481 116.193 115.691 115.359 115.733 115.239C117.113 111.429 122.021 104.889 126.533 105.039C129.797 105.159 131.933 108.207 131.477 111.309C131.021 114.411 128.087 117.093 125.447 118.569C122.807 120.045 117.107 120.651 115.133 120.837C115.133 122.439 115.097 124.035 115.133 125.583C115.193 126.645 115.181 127.665 115.301 128.721C115.421 129.777 115.499 130.809 115.595 131.841C115.853 133.815 116.105 135.855 116.405 137.775C116.603 139.113 116.819 140.385 117.005 141.663C117.107 140.091 117.359 137.019 117.413 136.767C118.199 132.795 122.057 125.589 126.557 125.061C129.803 124.683 132.347 127.377 132.395 130.509C132.443 133.641 129.923 136.743 127.541 138.603C124.913 140.649 118.013 142.335 117.149 142.539C117.527 144.699 117.899 146.757 118.277 148.695Z" fill="black"/>
<path d="M48.2659 78.1687C48.2179 78.2347 45.0199 73.7467 44.8519 73.4407C42.9019 69.8947 41.2099 61.8967 44.3179 58.5967C46.5559 56.1967 50.2339 56.6407 52.2919 59.0047C54.3499 61.3687 54.4099 65.3647 53.7799 68.3227C53.0419 71.7967 48.2659 78.1627 48.2659 78.1687Z" fill="black"/>
</g>
<g opacity="0.15">
<path d="M292.603 63.5318C295.135 66.0218 302.629 68.6978 302.635 68.6978C302.641 68.6978 302.899 63.2198 302.869 62.8718C302.545 58.8398 299.545 51.2318 295.129 50.1938C291.949 49.4438 289.129 51.8258 288.709 54.9338C288.289 58.0418 290.449 61.4078 292.603 63.5318Z" fill="black"/>
<path d="M297.14 164.451C297.104 164.631 297.074 164.799 297.038 164.979L299.396 167.151C299.522 166.425 299.654 165.693 299.786 164.931C300.158 162.783 300.512 160.479 300.854 158.109C303.14 158.073 305.422 157.903 307.688 157.599C308.954 160.779 313.46 165.651 314.042 166.275C312.578 167.841 311.132 169.353 309.752 170.757C308.798 171.729 307.88 172.653 306.986 173.535L309.794 174.609C310.394 173.967 311.042 173.307 311.69 172.623C313.184 171.033 314.75 169.305 316.346 167.523C317.078 167.991 323.09 171.807 326.39 172.287C329.39 172.719 333.314 172.437 335.588 170.181C337.862 167.925 337.988 164.277 335.474 162.201C331.976 159.315 324.074 161.529 320.696 163.713C320.492 163.839 318.47 165.483 317.204 166.539C317.852 165.807 318.488 165.099 319.148 164.337C320.456 162.837 321.716 161.301 323.078 159.651L324.992 157.173C325.646 156.357 326.234 155.409 326.87 154.527C328.292 152.445 329.63 150.261 330.932 148.035C332.252 149.181 336.986 153.171 339.89 154.035C342.794 154.899 346.712 155.235 349.304 153.351C351.896 151.467 352.574 147.879 350.402 145.443C347.402 142.059 339.266 143.043 335.564 144.699C335.33 144.801 332.81 146.277 331.436 147.099C332.21 145.755 332.99 144.417 333.722 143.031C335.852 139.029 337.88 134.919 339.926 130.821C340.526 129.567 341.186 128.325 341.822 127.077C342.284 127.491 347.822 132.357 351.068 133.347C353.96 134.223 357.89 134.547 360.476 132.663C363.062 130.779 363.752 127.191 361.574 124.755C358.574 121.371 350.438 122.355 346.736 124.011C346.46 124.131 342.83 126.261 341.936 126.849C343.334 124.107 344.75 121.383 346.256 118.755C348.273 115.198 350.517 111.775 352.976 108.507C353.192 108.699 358.934 113.805 362.27 114.819C365.162 115.695 369.092 116.019 371.684 114.135C374.276 112.251 374.954 108.663 372.776 106.227C369.776 102.843 361.64 103.827 357.938 105.483C357.65 105.609 353.738 107.883 353.072 108.369C353.216 108.183 353.342 107.973 353.492 107.769C356.047 104.56 358.884 101.586 361.97 98.8833C363.65 97.3653 365.348 96.0093 367.028 94.7313C368 95.7873 372.494 100.587 375.428 101.829C378.206 103.029 382.076 103.767 384.854 102.183C387.632 100.599 388.712 97.1013 386.816 94.4433C384.182 90.7533 376.016 90.8433 372.146 92.0793C371.936 92.1453 369.884 93.0573 368.39 93.7413C369.158 93.1773 369.938 92.5773 370.682 92.0493C373.472 90.0573 376.154 88.4073 378.536 86.9673C379.904 86.1573 381.146 85.4553 382.322 84.8073C383.822 85.3473 389.882 87.4593 392.972 87.2073C396.062 86.9553 399.77 85.8633 401.504 83.1753C403.238 80.4873 402.584 76.8933 399.674 75.3753C395.642 73.3113 388.43 77.1753 385.568 80.0313C385.322 80.2773 381.902 84.5973 381.968 84.6273L382.058 84.6573C380.912 85.2573 379.694 85.9173 378.38 86.6613C375.98 88.0533 373.238 89.6613 370.388 91.5873C367.289 93.6825 364.316 95.9585 361.484 98.4033C358.294 101.065 355.348 104.007 352.682 107.193L352.592 107.307C353.09 106.077 354.392 102.585 354.428 102.309C355.376 98.3733 354.896 90.2073 351.026 87.8433C348.242 86.1453 344.798 87.5193 343.442 90.3453C342.086 93.1713 343.082 97.0413 344.468 99.7293C346.028 102.729 351.836 107.337 352.268 107.703C349.637 111.016 347.232 114.502 345.068 118.137C343.796 120.249 342.578 122.415 341.39 124.599C341.786 123.519 342.128 122.553 342.164 122.415C343.112 118.479 342.632 110.313 338.762 107.949C335.972 106.251 332.534 107.625 331.178 110.451C329.822 113.277 330.812 117.147 332.198 119.835C333.584 122.523 338.48 126.567 339.782 127.605C339.338 128.451 338.882 129.285 338.432 130.131C336.302 134.187 334.19 138.243 331.994 142.161C331.226 143.541 330.41 144.867 329.594 146.205C329.942 145.245 330.23 144.435 330.26 144.309C331.208 140.367 330.728 132.207 326.864 129.843C324.074 128.145 320.63 129.519 319.28 132.345C317.93 135.171 318.914 139.041 320.3 141.729C321.686 144.417 326.108 148.065 327.65 149.313C326.78 150.651 325.916 151.995 325.016 153.261C324.38 154.107 323.816 154.965 323.144 155.781L321.182 158.217C319.874 159.723 318.536 161.283 317.228 162.723C316.322 163.731 315.428 164.667 314.558 165.621C315.344 164.253 316.826 161.553 316.922 161.313C318.15 157.97 318.5 154.367 317.936 150.849C318.088 150.483 318.206 150.103 318.29 149.715C318.932 146.649 317.036 143.463 313.79 143.115C309.278 142.641 303.938 148.833 302.3 152.535C302.204 152.751 301.418 155.241 300.95 156.813C301.082 155.847 301.226 154.905 301.352 153.909C301.616 151.935 301.82 149.955 302.048 147.831C302.12 146.799 302.198 145.755 302.27 144.705C302.342 143.655 302.342 142.551 302.378 141.465C302.414 138.945 302.33 136.383 302.186 133.809C303.92 134.037 310.07 134.751 312.986 133.887C315.902 133.023 319.34 131.121 320.462 128.121C321.584 125.121 320.168 121.755 317.012 120.921C312.626 119.769 306.404 125.079 304.226 128.487C304.088 128.703 302.798 131.325 302.12 132.777C302.024 131.229 301.934 129.687 301.784 128.127C301.352 123.615 300.776 119.067 300.218 114.519C300.044 113.133 299.894 111.741 299.732 110.355C300.332 110.439 307.64 111.447 310.904 110.481C313.802 109.617 317.252 107.715 318.374 104.715C319.496 101.715 318.086 98.3493 314.93 97.5153C310.544 96.3633 304.322 101.673 302.144 105.081C301.976 105.339 300.128 109.113 299.702 110.097C299.354 107.043 299.036 103.989 298.844 100.965C298.56 96.8869 298.542 92.7942 298.79 88.7133C299.078 88.7493 306.686 89.8413 310.028 88.8453C312.926 87.9813 316.376 86.0793 317.498 83.0853C318.62 80.0913 317.21 76.7133 314.054 75.8853C309.668 74.7333 303.446 80.0433 301.268 83.4513C301.094 83.7213 299.108 87.7893 298.802 88.5513C298.802 88.3113 298.802 88.0653 298.802 87.8313C299.202 83.7396 299.965 79.6916 301.082 75.7353C301.652 73.5393 302.318 71.4753 303.008 69.4833C304.406 69.8313 310.808 71.3493 313.91 70.7853C316.91 70.2513 320.51 68.7333 321.974 65.8833C323.438 63.0333 322.382 59.5173 319.334 58.3413C315.134 56.7153 308.336 61.3413 305.798 64.4613C305.66 64.6293 304.442 66.5313 303.584 67.9233C303.908 67.0293 304.226 66.1233 304.556 65.2473C305.786 62.0493 307.112 59.1933 308.306 56.6733C308.996 55.2453 309.65 53.9673 310.274 52.7853C311.822 52.4073 318.038 50.8233 320.474 48.9333C322.91 47.0433 325.4 44.0613 325.364 40.8633C325.328 37.6653 322.802 35.0253 319.562 35.4033C315.056 35.9073 311.162 43.1013 310.364 47.0673C310.292 47.4093 309.824 52.8993 309.902 52.8813H309.998C309.398 54.0093 308.72 55.2333 308.03 56.5773C306.782 59.0733 305.39 61.9113 304.088 65.0973C302.642 68.5133 301.398 72.0113 300.362 75.5733C299.178 79.5552 298.355 83.6357 297.902 87.7653C297.902 87.8133 297.902 87.8673 297.902 87.9153C297.638 86.6133 296.774 83.0013 296.672 82.7313C295.292 78.9213 290.39 72.3813 285.872 72.5313C282.608 72.6513 280.472 75.6993 280.928 78.8013C281.384 81.9033 284.318 84.5853 286.928 86.0613C289.928 87.7293 297.278 88.3413 297.866 88.3893C297.503 92.6032 297.423 96.8367 297.626 101.061C297.728 103.521 297.914 105.999 298.124 108.477C297.86 107.361 297.614 106.365 297.566 106.227C296.186 102.423 291.278 95.8773 286.766 96.0273C283.502 96.1413 281.396 99.1893 281.822 102.291C282.248 105.393 285.212 108.081 287.852 109.557C290.492 111.033 296.798 111.705 298.466 111.855C298.556 112.803 298.634 113.751 298.73 114.705C299.192 119.265 299.666 123.813 299.996 128.289C300.11 129.861 300.17 131.421 300.236 132.981C299.996 131.985 299.786 131.151 299.744 131.031C298.364 127.221 293.462 120.681 288.944 120.831C285.68 120.951 283.574 123.999 284 127.101C284.426 130.203 287.39 132.885 290 134.361C292.61 135.837 298.34 136.443 300.314 136.629C300.314 138.231 300.35 139.827 300.314 141.375C300.248 142.437 300.266 143.457 300.14 144.513C300.014 145.569 299.948 146.601 299.852 147.633C299.594 149.607 299.336 151.647 299.036 153.567C298.838 154.905 298.622 156.177 298.436 157.455C298.34 155.883 298.082 152.811 298.028 152.559C297.242 148.587 293.384 141.381 288.884 140.853C285.638 140.475 283.094 143.169 283.046 146.301C282.998 149.433 285.518 152.535 287.906 154.389C290.528 156.441 297.428 158.127 298.292 158.331C297.89 160.455 297.518 162.513 297.14 164.451Z" fill="black"/>
<path d="M367.152 93.9265C367.206 93.9925 370.398 89.5045 370.566 89.1985C372.522 85.6525 374.214 77.6545 371.106 74.3545C368.862 71.9545 365.184 72.3985 363.132 74.7625C361.08 77.1265 361.008 81.1225 361.638 84.0805C362.376 87.5545 367.152 93.9205 367.152 93.9265Z" fill="black"/>
</g>
<path d="M297.598 258.755V236.603C297.6 233.162 298.968 229.861 301.401 227.428C303.835 224.994 307.135 223.627 310.576 223.625H188.212C184.77 223.625 181.469 224.992 179.036 227.426C176.602 229.86 175.234 233.161 175.234 236.603V258.755C175.234 260.46 175.569 262.147 176.221 263.722C176.873 265.297 177.829 266.728 179.034 267.934C180.239 269.139 181.67 270.095 183.245 270.747C184.82 271.399 186.508 271.734 188.212 271.733H310.576C307.134 271.733 303.833 270.366 301.4 267.932C298.966 265.498 297.598 262.197 297.598 258.755Z" fill="#263238" stroke="#263238" stroke-linecap="round" stroke-linejoin="round"/>
<path d="M419.538 225.383L420.996 224.423C421.072 224.37 421.129 224.295 421.16 224.208C421.19 224.12 421.193 224.025 421.166 223.937C421.139 223.848 421.085 223.77 421.011 223.714C420.938 223.658 420.848 223.627 420.756 223.625H310.572C307.13 223.627 303.83 224.994 301.397 227.428C298.963 229.861 297.595 233.162 297.594 236.603V258.755C297.594 262.197 298.961 265.498 301.395 267.932C303.829 270.366 307.13 271.733 310.572 271.733H420.756C420.85 271.735 420.943 271.707 421.02 271.651C421.097 271.595 421.153 271.516 421.18 271.426C421.207 271.335 421.204 271.238 421.171 271.149C421.138 271.06 421.076 270.985 420.996 270.935L419.538 269.975V225.383Z" fill="#949494" stroke="#263238" stroke-linecap="round" stroke-linejoin="round"/>
<path d="M317.064 225.383H419.538V269.999H317.064C312.538 269.999 308.198 268.201 304.998 265.001C301.798 261.801 300 257.46 300 252.935V242.447C300 237.921 301.798 233.581 304.998 230.381C308.198 227.181 312.538 225.383 317.064 225.383Z" fill="white" stroke="#263238" stroke-linecap="round" stroke-linejoin="round"/>
<path d="M303.742 233.594H346.732" stroke="#263238" stroke-linecap="round" stroke-linejoin="round"/>
<path d="M335.445 237.672H375.555" stroke="#263238" stroke-linecap="round" stroke-linejoin="round"/>
<path d="M359.703 242.719H321.273" stroke="#263238" stroke-linecap="round" stroke-linejoin="round"/>
<path d="M304.703 258.086H329.921" stroke="#263238" stroke-linecap="round" stroke-linejoin="round"/>
<path d="M323.438 261.688H361.141" stroke="#263238" stroke-linecap="round" stroke-linejoin="round"/>
<path d="M318.875 265.055H328.961" stroke="#263238" stroke-linecap="round" stroke-linejoin="round"/>
<path d="M347.219 254.727H411.341" stroke="#263238" stroke-linecap="round" stroke-linejoin="round"/>
<path d="M418.784 244.398H405.578" stroke="#263238" stroke-linecap="round" stroke-linejoin="round"/>
<path d="M416.624 241.039H403.172" stroke="#263238" stroke-linecap="round" stroke-linejoin="round"/>
<path d="M416.624 262.656H383" stroke="#263238" stroke-linecap="round" stroke-linejoin="round"/>
<path d="M291.825 210.419V188.267C291.824 186.563 292.159 184.875 292.811 183.3C293.463 181.725 294.419 180.294 295.624 179.088C296.83 177.883 298.261 176.927 299.836 176.275C301.41 175.623 303.098 175.288 304.803 175.289H182.433C180.729 175.289 179.042 175.625 177.467 176.277C175.893 176.929 174.463 177.885 173.258 179.091C172.054 180.296 171.098 181.727 170.447 183.301C169.795 184.876 169.46 186.563 169.461 188.267V210.419C169.461 213.86 170.827 217.16 173.26 219.594C175.693 222.027 178.992 223.395 182.433 223.397H304.833C303.126 223.401 301.435 223.068 299.857 222.418C298.279 221.767 296.845 220.812 295.637 219.607C294.428 218.401 293.47 216.969 292.816 215.392C292.162 213.816 291.825 212.126 291.825 210.419Z" fill="#8C8C8C" stroke="#263238" stroke-linecap="round" stroke-linejoin="round"/>
<path d="M413.766 177.047L415.23 176.087C415.31 176.037 415.372 175.962 415.405 175.873C415.439 175.784 415.442 175.687 415.415 175.597C415.387 175.506 415.331 175.427 415.254 175.371C415.178 175.316 415.085 175.287 414.99 175.289H304.806C303.102 175.288 301.414 175.624 299.839 176.275C298.264 176.927 296.833 177.883 295.628 179.089C294.422 180.294 293.466 181.725 292.814 183.3C292.162 184.875 291.827 186.563 291.828 188.267V210.419C291.828 213.861 293.195 217.162 295.629 219.596C298.063 222.03 301.364 223.397 304.806 223.397H414.99C415.083 223.395 415.172 223.364 415.246 223.308C415.32 223.252 415.374 223.174 415.4 223.085C415.427 222.997 415.425 222.902 415.394 222.815C415.364 222.727 415.306 222.652 415.23 222.599L413.766 221.639V177.047Z" fill="#949494" stroke="#263238" stroke-linecap="round" stroke-linejoin="round"/>
<path d="M311.285 177.047H413.765V221.639H311.285C306.764 221.637 302.429 219.842 299.231 216.647C296.033 213.453 294.233 209.119 294.227 204.599V194.111C294.227 189.586 296.024 185.247 299.222 182.047C302.421 178.847 306.76 177.048 311.285 177.047Z" fill="white" stroke="#263238" stroke-linecap="round" stroke-linejoin="round"/>
<path d="M297.969 185.258H340.959" stroke="#263238" stroke-linecap="round" stroke-linejoin="round"/>
<path d="M329.672 189.336H369.782" stroke="#263238" stroke-linecap="round" stroke-linejoin="round"/>
<path d="M353.93 194.383H315.5" stroke="#263238" stroke-linecap="round" stroke-linejoin="round"/>
<path d="M298.93 209.75H324.148" stroke="#263238" stroke-linecap="round" stroke-linejoin="round"/>
<path d="M317.664 213.352H355.374" stroke="#263238" stroke-linecap="round" stroke-linejoin="round"/>
<path d="M313.102 216.711H323.188" stroke="#263238" stroke-linecap="round" stroke-linejoin="round"/>
<path d="M341.438 206.391H405.565" stroke="#263238" stroke-linecap="round" stroke-linejoin="round"/>
<path d="M413.011 196.062H399.805" stroke="#263238" stroke-linecap="round" stroke-linejoin="round"/>
<path d="M410.85 192.703H397.398" stroke="#263238" stroke-linecap="round" stroke-linejoin="round"/>
<path d="M410.851 214.312H377.227" stroke="#263238" stroke-linecap="round" stroke-linejoin="round"/>
<path d="M393.31 249.016L383.428 239.134L373.57 249.016V192.664H393.31V249.016Z" fill="#263238" stroke="#263238" stroke-linecap="round" stroke-linejoin="round"/>
<path d="M302.548 162.083V139.925C302.547 136.484 301.179 133.185 298.745 130.752C296.311 128.32 293.011 126.953 289.57 126.953H411.934C413.638 126.952 415.326 127.287 416.9 127.939C418.475 128.59 419.906 129.546 421.111 130.75C422.316 131.955 423.272 133.385 423.924 134.96C424.577 136.534 424.912 138.221 424.912 139.925V162.083C424.912 163.787 424.577 165.474 423.924 167.049C423.272 168.623 422.316 170.053 421.111 171.258C419.906 172.462 418.475 173.418 416.9 174.069C415.326 174.721 413.638 175.056 411.934 175.055H289.57C293.011 175.055 296.311 173.689 298.745 171.256C301.179 168.824 302.547 165.524 302.548 162.083Z" fill="#43A7FF" stroke="#263238" stroke-linecap="round" stroke-linejoin="round"/>
<path d="M180.606 128.705L179.148 127.751C179.068 127.701 179.006 127.626 178.973 127.537C178.94 127.449 178.936 127.351 178.964 127.261C178.991 127.17 179.047 127.091 179.124 127.035C179.201 126.98 179.293 126.951 179.388 126.953H289.572C293.013 126.953 296.313 128.32 298.747 130.752C301.18 133.185 302.548 136.484 302.55 139.925V162.083C302.548 165.524 301.18 168.824 298.747 171.256C296.313 173.689 293.013 175.055 289.572 175.055H179.388C179.293 175.058 179.201 175.029 179.124 174.973C179.047 174.918 178.991 174.838 178.964 174.748C178.936 174.657 178.94 174.56 178.973 174.471C179.006 174.383 179.068 174.308 179.148 174.257L180.606 173.303V128.705Z" fill="#949494" stroke="#263238" stroke-linecap="round" stroke-linejoin="round"/>
<path d="M283.077 173.305L180.603 173.305V128.713H283.077C287.601 128.713 291.941 130.51 295.141 133.708C298.341 136.907 300.139 141.246 300.141 145.771V156.211C300.145 158.454 299.706 160.676 298.85 162.75C297.995 164.824 296.738 166.708 295.153 168.296C293.568 169.884 291.686 171.143 289.614 172.003C287.541 172.862 285.32 173.305 283.077 173.305Z" fill="white" stroke="#263238" stroke-linecap="round" stroke-linejoin="round"/>
<path d="M296.402 136.914H253.406" stroke="#263238" stroke-linecap="round" stroke-linejoin="round"/>
<path d="M264.696 141H224.586" stroke="#263238" stroke-linecap="round" stroke-linejoin="round"/>
<path d="M240.438 146.039H278.862" stroke="#263238" stroke-linecap="round" stroke-linejoin="round"/>
<path d="M295.437 161.414H270.219" stroke="#263238" stroke-linecap="round" stroke-linejoin="round"/>
<path d="M276.702 165.016H238.992" stroke="#263238" stroke-linecap="round" stroke-linejoin="round"/>
<path d="M281.272 168.375H271.18" stroke="#263238" stroke-linecap="round" stroke-linejoin="round"/>
<path d="M252.925 158.055H188.797" stroke="#263238" stroke-linecap="round" stroke-linejoin="round"/>
<path d="M181.352 147.727H194.564" stroke="#263238" stroke-linecap="round" stroke-linejoin="round"/>
<path d="M183.516 144.359H196.962" stroke="#263238" stroke-linecap="round" stroke-linejoin="round"/>
<path d="M183.516 165.977H217.14" stroke="#263238" stroke-linecap="round" stroke-linejoin="round"/>
<path d="M317.25 158.955V143.187H320.964C321.991 143.141 323.015 143.321 323.964 143.715C324.663 144.04 325.213 144.616 325.506 145.329C325.835 146.212 325.99 147.152 325.962 148.095V153.855C325.989 154.825 325.834 155.791 325.506 156.705C325.224 157.437 324.684 158.041 323.988 158.403C323.074 158.811 322.078 159 321.078 158.955H317.25ZM320.13 156.951H321.006C321.503 156.993 322.001 156.871 322.422 156.603C322.724 156.341 322.913 155.974 322.95 155.577C323.021 155.032 323.053 154.482 323.046 153.933V147.897C323.058 147.381 323.013 146.866 322.914 146.361C322.876 146.185 322.804 146.018 322.701 145.871C322.598 145.723 322.466 145.598 322.314 145.503C321.886 145.291 321.41 145.198 320.934 145.233H320.1L320.13 156.951Z" fill="#263238"/>
<path d="M328.164 158.948V143.18H331.008V158.948H328.164Z" fill="#263238"/>
<path d="M337.687 159.166C336.732 159.22 335.784 158.981 334.969 158.482C334.319 158.03 333.836 157.376 333.595 156.622C333.321 155.744 333.19 154.829 333.205 153.91V148.282C333.187 147.333 333.319 146.388 333.595 145.48C333.828 144.73 334.313 144.083 334.969 143.65C335.785 143.242 336.683 143.023 337.596 143.009C338.509 142.994 339.413 143.184 340.243 143.566C340.854 143.922 341.319 144.483 341.557 145.15C341.83 145.92 341.962 146.733 341.947 147.55V148.876H339.181V147.514C339.185 147.113 339.163 146.712 339.115 146.314C339.087 145.991 338.957 145.686 338.743 145.444C338.6 145.323 338.435 145.232 338.257 145.178C338.078 145.123 337.89 145.105 337.705 145.126C337.315 145.093 336.927 145.213 336.625 145.462C336.386 145.714 336.232 146.035 336.187 146.38C336.118 146.808 336.086 147.242 336.091 147.676V154.522C336.08 154.997 336.124 155.473 336.223 155.938C336.288 156.265 336.464 156.559 336.721 156.772C337.008 156.973 337.354 157.072 337.705 157.054C337.889 157.073 338.076 157.053 338.252 156.994C338.428 156.935 338.589 156.839 338.725 156.712C338.941 156.458 339.073 156.144 339.103 155.812C339.158 155.392 339.184 154.969 339.181 154.546V153.124H341.947V154.39C341.96 155.231 341.834 156.068 341.575 156.868C341.346 157.562 340.892 158.16 340.285 158.566C339.495 159.013 338.592 159.222 337.687 159.166Z" fill="#263238"/>
<path d="M345.522 158.948V145.304H343.008V143.18H350.88V145.304H348.408V158.948H345.522Z" fill="#263238"/>
<path d="M352.398 158.948V143.18H355.242V158.948H352.398Z" fill="#263238"/>
<path d="M361.95 159.171C361.021 159.223 360.097 159.015 359.28 158.571C358.615 158.15 358.113 157.515 357.858 156.771C357.556 155.883 357.412 154.949 357.432 154.011V148.113C357.411 147.183 357.556 146.257 357.858 145.377C358.12 144.652 358.621 144.038 359.28 143.637C360.117 143.238 361.034 143.031 361.962 143.031C362.889 143.031 363.806 143.238 364.644 143.637C365.299 144.042 365.799 144.654 366.066 145.377C366.375 146.255 366.523 147.182 366.504 148.113V154.029C366.521 154.96 366.373 155.886 366.066 156.765C365.803 157.506 365.303 158.138 364.644 158.565C363.822 159.021 362.887 159.231 361.95 159.171ZM361.95 157.047C362.328 157.081 362.706 156.969 363.006 156.735C363.248 156.506 363.41 156.205 363.468 155.877C363.549 155.482 363.587 155.08 363.582 154.677V147.417C363.588 147.014 363.55 146.612 363.468 146.217C363.408 145.898 363.246 145.607 363.006 145.389C362.693 145.193 362.331 145.089 361.962 145.089C361.592 145.089 361.231 145.193 360.918 145.389C360.673 145.605 360.509 145.896 360.45 146.217C360.365 146.611 360.325 147.014 360.33 147.417V154.677C360.326 155.08 360.362 155.482 360.438 155.877C360.49 156.207 360.653 156.509 360.9 156.735C361.198 156.967 361.573 157.078 361.95 157.047Z" fill="#263238"/>
<path d="M368.625 158.948V143.18H370.629L374.469 152.18V143.18H376.869V158.948H374.961L371.109 149.528V158.948H368.625Z" fill="#263238"/>
<path d="M378.438 158.948L381.594 143.18H384.666L387.822 158.948H385.152L384.552 155.306H381.786L381.144 158.948H378.438ZM382.086 153.476H384.228L383.154 146.876L382.086 153.476Z" fill="#263238"/>
<path d="M389.32 158.95V143.182H393.094C394.007 143.161 394.917 143.291 395.788 143.566C396.48 143.787 397.072 144.244 397.462 144.856C397.891 145.615 398.099 146.48 398.062 147.352C398.067 147.926 398.009 148.5 397.888 149.062C397.783 149.531 397.578 149.973 397.288 150.358C396.982 150.73 396.582 151.016 396.13 151.186L398.284 158.95H395.404L393.496 151.75H392.176V158.95H389.32ZM392.2 149.92H393.094C393.551 149.939 394.006 149.855 394.426 149.674C394.754 149.516 395.009 149.239 395.14 148.9C395.293 148.458 395.364 147.993 395.35 147.526C395.398 146.895 395.245 146.265 394.912 145.726C394.702 145.502 394.442 145.331 394.153 145.227C393.864 145.122 393.555 145.088 393.25 145.126H392.2V149.92Z" fill="#263238"/>
<path d="M402.247 158.948V152.948L399.055 143.192H401.737L403.687 149.432L405.487 143.18H408.115L404.965 152.936V158.936L402.247 158.948Z" fill="#263238"/>
<path d="M404.981 163.836H317.453V165.846H404.981V163.836Z" fill="#263238" stroke="#263238" stroke-linecap="round" stroke-linejoin="round"/>
<path d="M404.981 136.859H317.453V138.869H404.981V136.859Z" fill="#263238" stroke="#263238" stroke-linecap="round" stroke-linejoin="round"/>
<path d="M301.381 90.7412C301.379 90.0786 301.115 89.4438 300.646 88.9759C300.177 88.508 299.541 88.2452 298.879 88.2452H112.519C112.18 88.2286 111.842 88.2809 111.524 88.399C111.207 88.5171 110.916 88.6985 110.671 88.9322C110.425 89.1659 110.23 89.447 110.097 89.7585C109.963 90.07 109.894 90.4053 109.894 90.7442C109.894 91.0831 109.963 91.4184 110.097 91.7299C110.23 92.0414 110.425 92.3225 110.671 92.5561C110.916 92.7898 111.207 92.9712 111.524 93.0893C111.842 93.2074 112.18 93.2598 112.519 93.2432H296.119L282.691 266.643H171.301L165.001 259.977L156.601 266.643H79.8667C79.5282 266.627 79.1899 266.679 78.8722 266.797C78.5546 266.915 78.2643 267.097 78.0189 267.33C77.7734 267.564 77.578 267.845 77.4445 268.156C77.311 268.468 77.2422 268.803 77.2422 269.142C77.2422 269.481 77.311 269.816 77.4445 270.128C77.578 270.439 77.7734 270.72 78.0189 270.954C78.2643 271.188 78.5546 271.369 78.8722 271.487C79.1899 271.605 79.5282 271.658 79.8667 271.641H284.287C284.449 271.689 284.616 271.719 284.785 271.731C285.112 271.757 285.441 271.717 285.754 271.615C286.066 271.513 286.355 271.35 286.604 271.136C286.853 270.922 287.058 270.661 287.206 270.368C287.354 270.074 287.442 269.755 287.467 269.427L301.267 91.3892C301.332 91.179 301.371 90.9612 301.381 90.7412Z" fill="#263238" stroke="#263238" stroke-linecap="round" stroke-linejoin="round"/>
<path d="M165.582 262.525C166.572 262.921 168.504 266.275 169.656 268.405H285.222L275.928 246.265C275.928 246.265 267.03 242.233 243.798 234.589C220.566 226.945 205.866 224.299 190.278 227.533C174.69 230.767 168.522 232.801 168.522 232.801C168.522 232.801 163.23 228.391 147.054 228.097C130.878 227.803 82.8119 246.241 82.8119 246.241L79.4219 268.381H160.602C162.096 265.921 164.58 262.123 165.582 262.525Z" fill="white" stroke="#263238" stroke-linecap="round" stroke-linejoin="round"/>
<path d="M186.117 70.9349L167.211 242.403C167.211 242.403 187.839 233.811 201.159 233.403C212.079 233.049 244.959 240.789 256.449 243.603C259.18 244.271 261.952 244.76 264.747 245.067L275.931 246.315L289.251 76.5689C289.251 76.5689 267.339 71.4149 251.451 66.2549C235.563 61.0949 204.165 57.1829 186.117 70.9349Z" fill="white" stroke="#263238" stroke-linecap="round" stroke-linejoin="round"/>
<path d="M261.766 83.55L263.23 72.75L265.498 73.524C266.154 73.7308 266.772 74.0429 267.328 74.448C267.77 74.7745 268.108 75.2228 268.3 75.738C268.487 76.3187 268.533 76.9361 268.432 77.538C268.384 77.9118 268.285 78.2773 268.138 78.624C268.019 78.9097 267.824 79.1569 267.574 79.338C267.316 79.5116 267.008 79.5959 266.698 79.578L267.568 85.524L266.05 85.008L265.252 79.446L264.052 79.026L263.368 84.084L261.766 83.55ZM264.166 77.952L264.766 78.156C265.119 78.2947 265.496 78.3679 265.876 78.372C266.008 78.3712 266.139 78.3405 266.259 78.2824C266.378 78.2242 266.483 78.14 266.566 78.036C266.76 77.7312 266.876 77.3827 266.902 77.022C267.008 76.5203 266.947 75.9977 266.728 75.534C266.389 75.0783 265.9 74.7573 265.348 74.628L264.652 74.388L264.166 77.952Z" fill="black"/>
<path d="M269.289 82.4863L269.433 81.4062L272.547 82.4683L272.397 83.5483L269.289 82.4863Z" fill="black"/>
<path d="M274.723 87.9829L276.031 78.3169L274.117 77.6629L274.273 76.5469L279.613 78.3469L279.457 79.4629L277.603 78.8329L276.295 88.4929L274.723 87.9829Z" fill="black"/>
<path d="M186.115 70.9365L167.208 242.404C167.208 242.404 153.895 233.812 143.604 233.404C135.744 233.074 111.685 239.758 100.729 242.938C96.9059 244.044 93.0075 244.868 89.0645 245.404L82.8125 246.274L105.96 79.1265C105.96 79.1265 116.412 75.6345 129.816 70.4745C143.221 65.3145 174.775 57.1845 186.115 70.9365Z" fill="white" stroke="#263238" stroke-linecap="round" stroke-linejoin="round"/>
<path d="M114.992 85.8525L116.156 77.2665L118.112 76.6665C118.62 76.4949 119.154 76.4098 119.69 76.4145C119.857 76.4093 120.023 76.4481 120.17 76.5271C120.318 76.6061 120.442 76.7225 120.53 76.8645C120.701 77.2403 120.747 77.6607 120.662 78.0645C120.619 78.3893 120.536 78.7076 120.416 79.0125C120.302 79.3055 120.14 79.5774 119.936 79.8165C119.725 80.0611 119.471 80.2645 119.186 80.4165L119.984 84.3105L118.676 84.7005L117.95 81.0525L116.894 81.3705L116.348 85.3965L114.992 85.8525ZM117.008 80.5605L117.524 80.4045C117.859 80.311 118.179 80.1738 118.478 79.9965C118.726 79.851 118.933 79.6444 119.078 79.3965C119.231 79.1156 119.329 78.8081 119.366 78.4905C119.432 77.9865 119.366 77.6565 119.198 77.4945C119.03 77.3325 118.598 77.3505 117.998 77.5305L117.398 77.7105L117.008 80.5605Z" fill="black"/>
<path d="M121.422 81.2636L121.542 80.4056L124.218 79.6016L124.086 80.4596L121.422 81.2636Z" fill="black"/>
<path d="M126.139 82.5052L127.183 74.8072L125.539 75.3053L125.659 74.4112L130.255 73.0312L130.135 73.9252L128.539 74.4053L127.495 82.0973L126.139 82.5052Z" fill="black"/>
<path d="M289.25 76.5234L297.608 93.4494L285.224 268.409L275.93 246.269L289.25 76.5234Z" fill="white" stroke="#263238" stroke-linecap="round" stroke-linejoin="round"/>
<path d="M160.603 268.409C160.603 268.409 154.891 264.497 149.167 263.069C143.443 261.641 127.117 263.639 111.367 265.073" stroke="#263238" stroke-linecap="round" stroke-linejoin="round"/>
<path d="M160.904 264.498C160.904 264.498 154.904 259.632 147.164 259.062" stroke="#263238" stroke-linecap="round" stroke-linejoin="round"/>
<path d="M163.481 261.634C163.481 261.634 154.031 253.906 142.289 253.906C133.373 253.906 122.531 255.91 122.531 255.91" stroke="#263238" stroke-linecap="round" stroke-linejoin="round"/>
<path d="M164.342 254.764C164.342 254.764 156.896 249.322 150.308 248.764C143.72 248.206 135.422 249.604 135.422 249.604" stroke="#263238" stroke-linecap="round" stroke-linejoin="round"/>
<path d="M164.885 247.893C164.885 247.893 159.449 243.021 152.003 241.893C147.349 241.213 142.622 241.213 137.969 241.893" stroke="#263238" stroke-linecap="round" stroke-linejoin="round"/>
<path d="M167.773 249.895C167.773 249.895 176.941 243.295 192.373 245.023" stroke="#263238" stroke-linecap="round" stroke-linejoin="round"/>
<path d="M167.203 256.205C167.203 256.205 171.787 252.773 183.523 252.773" stroke="#263238" stroke-linecap="round" stroke-linejoin="round"/>
<path d="M168.062 262.199C168.062 262.199 177.512 258.473 186.104 259.331C194.696 260.189 195.836 260.765 206.432 261.911" stroke="#263238" stroke-linecap="round" stroke-linejoin="round"/>
<path d="M173.211 266.213C177.889 264.554 182.879 263.965 187.815 264.491" stroke="#263238" stroke-linecap="round" stroke-linejoin="round"/>
<path d="M188.961 253.047C188.961 253.047 198.123 253.617 202.701 255.333" stroke="#263238" stroke-linecap="round" stroke-linejoin="round"/>
<path d="M133.99 242.453L128.266 243.881" stroke="#263238" stroke-linecap="round" stroke-linejoin="round"/>
<path d="M119.101 257.055L114.805 258.195" stroke="#263238" stroke-linecap="round" stroke-linejoin="round"/>
<path d="M195.836 245.883L200.42 246.747" stroke="#263238" stroke-linecap="round" stroke-linejoin="round"/>
<path d="M262.836 263.641C262.836 263.641 275.148 264.499 279.726 264.499" stroke="#263238" stroke-linecap="round" stroke-linejoin="round"/>
<path d="M279.725 262.493L274.859 262.211" stroke="#263238" stroke-linecap="round" stroke-linejoin="round"/>
<path d="M262.547 256.477C262.547 256.477 272.285 257.077 277.151 257.623" stroke="#263238" stroke-linecap="round" stroke-linejoin="round"/>
<path d="M84.1719 251.899C89.9891 251.268 95.7381 250.118 101.35 248.461" stroke="#263238" stroke-linecap="round" stroke-linejoin="round"/>
<path d="M90.75 254.473C90.75 254.473 97.626 253.903 101.634 252.469" stroke="#263238" stroke-linecap="round" stroke-linejoin="round"/>
<path d="M273.712 251.327C273.712 251.327 265.696 252.473 254.242 249.899C247.722 248.401 241.127 247.253 234.484 246.461" stroke="#263238" stroke-linecap="round" stroke-linejoin="round"/>
<path d="M249.375 264.211L257.103 264.493" stroke="#263238" stroke-linecap="round" stroke-linejoin="round"/>
<path d="M293.181 86.6875L290.031 127.35" stroke="#263238" stroke-linecap="round" stroke-linejoin="round"/>
<path d="M294.911 97.2812L293.477 115.035" stroke="#263238" stroke-linecap="round" stroke-linejoin="round"/>
<path d="M289.751 163.992L286.883 201.504" stroke="#263238" stroke-linecap="round" stroke-linejoin="round"/>
<path d="M285.456 212.383L282.594 249.895" stroke="#263238" stroke-linecap="round" stroke-linejoin="round"/>
<path d="M287.596 159.695L285.742 184.037" stroke="#263238" stroke-linecap="round" stroke-linejoin="round"/>
<path d="M285.307 188.328L283.453 212.67" stroke="#263238" stroke-linecap="round" stroke-linejoin="round"/>
<path d="M190.984 90.642C190.984 90.642 203.122 82.14 224.98 85.782" stroke="#B2B2B2" stroke-linecap="round" stroke-linejoin="round"/>
<path d="M190.336 96.065C190.336 96.065 202.51 87.533 224.368 91.097" stroke="#B2B2B2" stroke-linecap="round" stroke-linejoin="round"/>
<path d="M189.703 101.484C189.703 101.484 201.907 92.9223 223.765 96.4023" stroke="#B2B2B2" stroke-linecap="round" stroke-linejoin="round"/>
<path d="M189.07 106.893C189.07 106.893 201.304 98.3011 223.156 101.703" stroke="#B2B2B2" stroke-linecap="round" stroke-linejoin="round"/>
<path d="M188.422 112.31C188.422 112.31 200.692 103.688 222.544 107.012" stroke="#B2B2B2" stroke-linecap="round" stroke-linejoin="round"/>
<path d="M187.789 117.733C187.789 117.733 200.083 109.081 221.941 112.333" stroke="#B2B2B2" stroke-linecap="round" stroke-linejoin="round"/>
<path d="M187.148 123.148C187.148 123.148 199.478 114.46 221.348 117.622" stroke="#B2B2B2" stroke-linecap="round" stroke-linejoin="round"/>
<path d="M186.484 128.564C186.484 128.564 198.844 119.846 220.684 122.924" stroke="#B2B2B2" stroke-linecap="round" stroke-linejoin="round"/>
<path d="M185.883 133.984C185.883 133.984 198.273 125.236 220.125 128.236" stroke="#B2B2B2" stroke-linecap="round" stroke-linejoin="round"/>
<path d="M185.234 139.403C185.234 139.403 197.66 130.619 219.512 133.541" stroke="#B2B2B2" stroke-linecap="round" stroke-linejoin="round"/>
<path d="M184.594 144.82C184.594 144.82 197.044 136.006 218.902 138.82" stroke="#B2B2B2" stroke-linecap="round" stroke-linejoin="round"/>
<path d="M183.961 150.233C183.961 150.233 196.441 141.395 218.299 144.149" stroke="#B2B2B2" stroke-linecap="round" stroke-linejoin="round"/>
<path d="M183.32 155.65C183.32 155.65 195.836 146.776 217.694 149.458" stroke="#B2B2B2" stroke-linecap="round" stroke-linejoin="round"/>
<path d="M182.68 161.07C182.68 161.07 195.226 152.166 217.084 154.764" stroke="#B2B2B2" stroke-linecap="round" stroke-linejoin="round"/>
<path d="M182.039 166.483C182.039 166.483 194.639 157.549 216.473 160.063" stroke="#B2B2B2" stroke-linecap="round" stroke-linejoin="round"/>
<path d="M181.406 171.905C181.406 171.905 194.006 162.941 215.87 165.371" stroke="#B2B2B2" stroke-linecap="round" stroke-linejoin="round"/>
<path d="M180.766 177.317C180.766 177.317 193.402 168.317 215.26 170.675" stroke="#B2B2B2" stroke-linecap="round" stroke-linejoin="round"/>
<path d="M180.125 182.74C180.125 182.74 192.797 173.71 214.685 175.984" stroke="#B2B2B2" stroke-linecap="round" stroke-linejoin="round"/>
<path d="M179.492 188.157C179.492 188.157 192.194 179.097 214.052 181.287" stroke="#B2B2B2" stroke-linecap="round" stroke-linejoin="round"/>
<path d="M178.852 193.569C178.852 193.569 191.584 184.479 213.436 186.603" stroke="#B2B2B2" stroke-linecap="round" stroke-linejoin="round"/>
<path d="M178.211 198.983C178.211 198.983 190.979 189.863 212.831 191.897" stroke="#B2B2B2" stroke-linecap="round" stroke-linejoin="round"/>
<path d="M177.578 204.402C177.578 204.402 190.37 195.252 212.228 197.202" stroke="#B2B2B2" stroke-linecap="round" stroke-linejoin="round"/>
<path d="M176.938 209.823C176.938 209.823 189.766 200.637 211.624 202.509" stroke="#B2B2B2" stroke-linecap="round" stroke-linejoin="round"/>
<path d="M176.289 215.24C176.289 215.24 189.147 206.024 211.005 207.818" stroke="#B2B2B2" stroke-linecap="round" stroke-linejoin="round"/>
<path d="M175.688 220.661C175.688 220.661 188.576 211.415 210.434 213.125" stroke="#B2B2B2" stroke-linecap="round" stroke-linejoin="round"/>
<path d="M175.023 226.077C175.023 226.077 187.947 216.795 209.823 218.427" stroke="#B2B2B2" stroke-linecap="round" stroke-linejoin="round"/>
<path d="M174.383 231.492C174.383 231.492 187.337 222.18 209.183 223.728" stroke="#B2B2B2" stroke-linecap="round" stroke-linejoin="round"/>
<path d="M235.086 86.5984C235.086 86.5984 252.084 84.1983 275.964 96.7203" stroke="#B2B2B2" stroke-linecap="round" stroke-linejoin="round"/>
<path d="M234.484 91.9565C234.484 91.9565 251.746 89.6645 275.44 102.042" stroke="#B2B2B2" stroke-linecap="round" stroke-linejoin="round"/>
<path d="M233.883 97.3019C233.883 97.3019 251.409 95.1539 274.917 107.358" stroke="#B2B2B2" stroke-linecap="round" stroke-linejoin="round"/>
<path d="M233.32 102.665C233.32 102.665 251.11 100.655 274.426 112.691" stroke="#B2B2B2" stroke-linecap="round" stroke-linejoin="round"/>
<path d="M232.727 108.005C232.727 108.005 250.787 106.139 273.917 118.001" stroke="#B2B2B2" stroke-linecap="round" stroke-linejoin="round"/>
<path d="M232.133 113.402C232.133 113.402 250.457 111.674 273.401 123.362" stroke="#B2B2B2" stroke-linecap="round" stroke-linejoin="round"/>
<path d="M231.547 118.722C231.547 118.722 250.147 117.138 272.893 128.658" stroke="#B2B2B2" stroke-linecap="round" stroke-linejoin="round"/>
<path d="M230.953 124.084C230.953 124.084 249.805 122.632 272.353 133.984" stroke="#B2B2B2" stroke-linecap="round" stroke-linejoin="round"/>
<path d="M230.367 129.438C230.367 129.438 249.483 128.13 271.863 139.308" stroke="#B2B2B2" stroke-linecap="round" stroke-linejoin="round"/>
<path d="M229.773 134.796C229.773 134.796 249.153 133.596 271.353 144.63" stroke="#B2B2B2" stroke-linecap="round" stroke-linejoin="round"/>
<path d="M229.18 140.143C229.18 140.143 248.83 139.117 270.838 149.953" stroke="#B2B2B2" stroke-linecap="round" stroke-linejoin="round"/>
<path d="M228.586 145.502C228.586 145.502 248.494 144.614 270.322 155.276" stroke="#B2B2B2" stroke-linecap="round" stroke-linejoin="round"/>
<path d="M227.992 150.855C227.992 150.855 248.17 150.111 269.806 160.599" stroke="#B2B2B2" stroke-linecap="round" stroke-linejoin="round"/>
<path d="M227.406 156.21C227.406 156.21 247.842 155.61 269.292 165.924" stroke="#B2B2B2" stroke-linecap="round" stroke-linejoin="round"/>
<path d="M226.812 161.566C226.812 161.566 247.518 161.098 268.813 171.25" stroke="#B2B2B2" stroke-linecap="round" stroke-linejoin="round"/>
<path d="M226.219 166.923C226.219 166.923 247.189 166.593 268.267 176.571" stroke="#B2B2B2" stroke-linecap="round" stroke-linejoin="round"/>
<path d="M225.633 172.274C225.633 172.274 246.867 172.088 267.753 181.874" stroke="#B2B2B2" stroke-linecap="round" stroke-linejoin="round"/>
<path d="M225.039 177.633C225.039 177.633 246.537 177.585 267.243 187.233" stroke="#B2B2B2" stroke-linecap="round" stroke-linejoin="round"/>
<path d="M224.445 183C224.445 183 246.207 183.096 266.721 192.558" stroke="#B2B2B2" stroke-linecap="round" stroke-linejoin="round"/>
<path d="M223.852 188.344C223.852 188.344 245.878 188.578 266.212 197.866" stroke="#B2B2B2" stroke-linecap="round" stroke-linejoin="round"/>
<path d="M223.266 193.695C223.266 193.695 245.556 194.067 265.698 203.193" stroke="#B2B2B2" stroke-linecap="round" stroke-linejoin="round"/>
<path d="M222.672 199.055C222.672 199.055 245.226 199.565 265.182 208.517" stroke="#B2B2B2" stroke-linecap="round" stroke-linejoin="round"/>
<path d="M222.078 204.406C222.078 204.406 244.878 205.06 264.678 213.838" stroke="#B2B2B2" stroke-linecap="round" stroke-linejoin="round"/>
<path d="M221.492 209.766C221.492 209.766 244.574 210.558 264.158 219.168" stroke="#B2B2B2" stroke-linecap="round" stroke-linejoin="round"/>
<path d="M220.898 215.117C220.898 215.117 244.25 216.053 263.648 224.489" stroke="#B2B2B2" stroke-linecap="round" stroke-linejoin="round"/>
<path d="M220.312 220.477C220.312 220.477 243.922 221.551 263.134 229.813" stroke="#B2B2B2" stroke-linecap="round" stroke-linejoin="round"/>
<path d="M219.711 225.828C219.711 225.828 243.591 227.028 262.611 235.14" stroke="#B2B2B2" stroke-linecap="round" stroke-linejoin="round"/>
<path d="M112.516 93.2392C112.516 93.2392 118.516 86.1893 137.956 85.7812" stroke="#B2B2B2" stroke-linecap="round" stroke-linejoin="round"/>
<path d="M111.789 98.6166C111.789 98.6166 117.789 91.6686 137.259 91.1406" stroke="#B2B2B2" stroke-linecap="round" stroke-linejoin="round"/>
<path d="M111.047 103.998C111.047 103.998 117.047 97.1462 136.553 96.4922" stroke="#B2B2B2" stroke-linecap="round" stroke-linejoin="round"/>
<path d="M110.32 109.382C110.32 109.382 116.32 102.632 135.862 101.852" stroke="#B2B2B2" stroke-linecap="round" stroke-linejoin="round"/>
<path d="M109.586 114.757C109.586 114.757 115.586 108.109 135.158 107.203" stroke="#B2B2B2" stroke-linecap="round" stroke-linejoin="round"/>
<path d="M108.844 120.14C108.844 120.14 114.844 113.589 134.452 112.562" stroke="#B2B2B2" stroke-linecap="round" stroke-linejoin="round"/>
<path d="M108.117 125.516C108.117 125.516 114.117 119.066 133.755 117.914" stroke="#B2B2B2" stroke-linecap="round" stroke-linejoin="round"/>
<path d="M107.383 130.899C107.383 130.899 113.383 124.551 133.057 123.273" stroke="#B2B2B2" stroke-linecap="round" stroke-linejoin="round"/>
<path d="M106.648 136.281C106.648 136.281 112.684 130.029 132.358 128.625" stroke="#B2B2B2" stroke-linecap="round" stroke-linejoin="round"/>
<path d="M105.914 141.658C105.914 141.658 111.95 135.508 131.654 133.984" stroke="#B2B2B2" stroke-linecap="round" stroke-linejoin="round"/>
<path d="M105.18 147.04C105.18 147.01 111.216 140.986 130.95 139.336" stroke="#B2B2B2" stroke-linecap="round" stroke-linejoin="round"/>
<path d="M104.445 152.402C104.445 152.372 110.481 146.456 130.245 144.68" stroke="#B2B2B2" stroke-linecap="round" stroke-linejoin="round"/>
<path d="M103.688 157.807C103.718 157.771 109.73 151.957 129.53 150.055" stroke="#B2B2B2" stroke-linecap="round" stroke-linejoin="round"/>
<path d="M102.977 163.206C103.007 163.164 109.019 157.452 128.849 155.406" stroke="#B2B2B2" stroke-linecap="round" stroke-linejoin="round"/>
<path d="M102.25 168.558C102.28 168.516 108.292 162.906 128.152 160.758" stroke="#B2B2B2" stroke-linecap="round" stroke-linejoin="round"/>
<path d="M101.508 173.941C101.544 173.893 107.556 168.391 127.452 166.141" stroke="#B2B2B2" stroke-linecap="round" stroke-linejoin="round"/>
<path d="M100.773 179.317C100.809 179.269 106.821 173.869 126.747 171.469" stroke="#B2B2B2" stroke-linecap="round" stroke-linejoin="round"/>
<path d="M100.047 184.692C100.083 184.638 106.095 179.34 126.051 176.82" stroke="#B2B2B2" stroke-linecap="round" stroke-linejoin="round"/>
<path d="M99.3047 190.074C99.3467 190.02 105.359 184.818 125.345 182.172" stroke="#B2B2B2" stroke-linecap="round" stroke-linejoin="round"/>
<path d="M98.5781 195.451C98.6201 195.397 104.632 190.303 124.654 187.531" stroke="#B2B2B2" stroke-linecap="round" stroke-linejoin="round"/>
<path d="M97.8438 200.833C97.8858 200.773 103.898 195.781 123.95 192.883" stroke="#B2B2B2" stroke-linecap="round" stroke-linejoin="round"/>
<path d="M97.0859 206.21C97.1399 206.15 103.146 201.26 123.228 198.242" stroke="#B2B2B2" stroke-linecap="round" stroke-linejoin="round"/>
<path d="M96.375 211.592C96.429 211.526 102.435 206.738 122.547 203.594" stroke="#B2B2B2" stroke-linecap="round" stroke-linejoin="round"/>
<path d="M95.6406 216.975C95.6946 216.903 101.701 212.223 121.849 208.953" stroke="#B2B2B2" stroke-linecap="round" stroke-linejoin="round"/>
<path d="M94.9062 222.351C94.9663 222.279 100.978 217.701 121.15 214.305" stroke="#B2B2B2" stroke-linecap="round" stroke-linejoin="round"/>
<path d="M94.1719 227.734C94.2319 227.656 100.244 223.18 120.446 219.664" stroke="#B2B2B2" stroke-linecap="round" stroke-linejoin="round"/>
<path d="M93.4375 233.11C93.4975 233.032 99.5095 228.658 119.741 225.016" stroke="#B2B2B2" stroke-linecap="round" stroke-linejoin="round"/>
<path d="M145.648 84.1696C145.648 84.1696 160.27 78.9076 173.98 88.2136" stroke="#B2B2B2" stroke-linecap="round" stroke-linejoin="round"/>
<path d="M144.977 89.5104C144.977 89.5104 159.551 84.2784 173.435 93.4944" stroke="#B2B2B2" stroke-linecap="round" stroke-linejoin="round"/>
<path d="M144.305 94.8411C144.305 94.8411 158.831 89.6451 172.889 98.7651" stroke="#B2B2B2" stroke-linecap="round" stroke-linejoin="round"/>
<path d="M143.641 100.205C143.641 100.205 158.119 95.0394 172.345 104.069" stroke="#B2B2B2" stroke-linecap="round" stroke-linejoin="round"/>
<path d="M142.969 105.526C147.768 104.109 152.811 103.715 157.772 104.37C162.732 105.024 167.501 106.711 171.769 109.324" stroke="#B2B2B2" stroke-linecap="round" stroke-linejoin="round"/>
<path d="M142.305 110.866C147.126 109.452 152.189 109.054 157.172 109.697C162.155 110.341 166.951 112.012 171.255 114.604" stroke="#B2B2B2" stroke-linecap="round" stroke-linejoin="round"/>
<path d="M141.633 116.201C146.474 114.794 151.552 114.393 156.554 115.025C161.556 115.657 166.375 117.307 170.715 119.873" stroke="#B2B2B2" stroke-linecap="round" stroke-linejoin="round"/>
<path d="M140.961 121.542C140.961 121.542 155.241 116.496 170.163 125.142" stroke="#B2B2B2" stroke-linecap="round" stroke-linejoin="round"/>
<path d="M140.289 126.882C140.289 126.882 154.521 121.866 169.617 130.428" stroke="#B2B2B2" stroke-linecap="round" stroke-linejoin="round"/>
<path d="M139.625 132.223C139.625 132.223 153.809 127.237 169.073 135.709" stroke="#B2B2B2" stroke-linecap="round" stroke-linejoin="round"/>
<path d="M138.953 137.563C138.953 137.563 153.089 132.613 168.527 140.983" stroke="#B2B2B2" stroke-linecap="round" stroke-linejoin="round"/>
<path d="M138.281 142.901C138.281 142.901 152.369 137.987 167.987 146.267" stroke="#B2B2B2" stroke-linecap="round" stroke-linejoin="round"/>
<path d="M137.617 148.243C137.617 148.243 151.657 143.359 167.443 151.543" stroke="#B2B2B2" stroke-linecap="round" stroke-linejoin="round"/>
<path d="M136.945 153.6C136.945 153.6 150.937 148.746 166.897 156.84" stroke="#B2B2B2" stroke-linecap="round" stroke-linejoin="round"/>
<path d="M136.281 158.917C136.281 158.917 150.219 154.117 166.353 162.091" stroke="#B2B2B2" stroke-linecap="round" stroke-linejoin="round"/>
<path d="M135.609 164.262C135.609 164.262 149.505 159.462 165.807 167.376" stroke="#B2B2B2" stroke-linecap="round" stroke-linejoin="round"/>
<path d="M134.938 169.602C134.938 169.602 148.78 164.838 165.262 172.65" stroke="#B2B2B2" stroke-linecap="round" stroke-linejoin="round"/>
<path d="M134.289 174.942C134.289 174.942 148.089 170.208 164.739 177.942" stroke="#B2B2B2" stroke-linecap="round" stroke-linejoin="round"/>
<path d="M133.602 180.278C133.602 180.278 147.348 175.574 164.172 183.206" stroke="#B2B2B2" stroke-linecap="round" stroke-linejoin="round"/>
<path d="M132.93 185.62C132.93 185.62 146.628 180.946 163.626 188.482" stroke="#B2B2B2" stroke-linecap="round" stroke-linejoin="round"/>
<path d="M132.258 190.962C132.258 190.962 145.908 186.318 163.08 193.764" stroke="#B2B2B2" stroke-linecap="round" stroke-linejoin="round"/>
<path d="M131.594 196.293C131.594 196.293 145.19 191.685 162.542 199.035" stroke="#B2B2B2" stroke-linecap="round" stroke-linejoin="round"/>
<path d="M130.922 201.633C130.922 201.633 144.476 197.061 161.996 204.315" stroke="#B2B2B2" stroke-linecap="round" stroke-linejoin="round"/>
<path d="M130.258 207.007C130.258 207.007 143.758 202.465 161.458 209.623" stroke="#B2B2B2" stroke-linecap="round" stroke-linejoin="round"/>
<path d="M129.586 212.31C129.586 212.31 143.038 207.798 160.906 214.866" stroke="#B2B2B2" stroke-linecap="round" stroke-linejoin="round"/>
<path d="M128.914 217.653C128.914 217.653 142.318 213.171 160.354 220.143" stroke="#B2B2B2" stroke-linecap="round" stroke-linejoin="round"/>
<path d="M128.242 222.995C128.242 222.995 141.598 218.543 159.814 225.425" stroke="#B2B2B2" stroke-linecap="round" stroke-linejoin="round"/>
<path d="M190.444 67.9018L182.086 144.222L189.568 133.668L195.286 139.8L203.206 63.2578C203.206 63.2578 196.162 63.7258 190.444 67.9018Z" fill="#263238" stroke="#263238" stroke-linecap="round" stroke-linejoin="round"/>
<path d="M51.3717 273.425C51.3717 273.425 50.6037 273.713 51.2757 274.385C51.9477 275.057 54.6477 275.543 57.0537 275.351C59.1411 275.085 61.1822 274.534 63.1197 273.713C64.0797 273.329 63.4077 271.211 63.4077 271.211L51.3717 273.425Z" fill="#263238" stroke="#263238" stroke-linecap="round" stroke-linejoin="round"/>
<path d="M55.686 255.924C55.686 255.924 57.132 266.592 57.132 267.072C57.132 267.552 53.376 271.788 51.546 272.748C49.716 273.708 54.438 274.578 56.46 274.386C58.482 274.194 61.464 273.618 62.04 273.234C62.616 272.85 63.294 272.556 63.39 271.212C63.486 269.868 62.718 265.722 62.718 265.722L62.886 255.57L55.686 255.924Z" fill="white" stroke="#263238" stroke-linecap="round" stroke-linejoin="round"/>
<path d="M62.7561 265.859C60.8746 266.285 58.928 266.338 57.0261 266.015C57.0981 266.615 57.1461 266.981 57.1461 267.065C56.8743 267.62 56.5136 268.127 56.0781 268.565C57.0321 268.391 58.9701 268.211 60.2061 269.219C61.1241 269.969 61.5201 271.301 61.3701 273.173C61.3645 273.278 61.3808 273.382 61.4181 273.479C61.6398 273.422 61.8535 273.338 62.0541 273.227C62.3028 273.076 62.5395 272.905 62.7621 272.717C62.8221 270.659 62.2581 269.117 61.0701 268.151C60.7991 267.931 60.503 267.744 60.1881 267.593C61.1312 267.552 62.0688 267.427 62.9901 267.221C62.8821 266.597 62.7981 266.093 62.7561 265.859Z" fill="#263238"/>
<path d="M59.4754 270.341C58.2387 269.597 56.7962 269.269 55.3594 269.405C54.8914 269.915 54.3754 270.443 53.8594 270.941C55.3174 270.695 57.4594 270.599 58.6594 271.481C59.0307 271.759 59.3294 272.122 59.53 272.54C59.7306 272.958 59.8271 273.418 59.8114 273.881C59.8114 273.881 59.8114 273.881 59.8114 273.911C60.3154 273.809 60.7834 273.701 61.1614 273.593C61.1442 272.959 60.9836 272.337 60.6916 271.774C60.3996 271.21 59.9838 270.721 59.4754 270.341Z" fill="#263238"/>
<path d="M89.0115 272.768C88.9207 272.829 88.8433 272.909 88.7841 273.001C88.7249 273.094 88.6851 273.197 88.6672 273.306C88.6492 273.414 88.6534 273.525 88.6796 273.631C88.7058 273.738 88.7534 273.838 88.8195 273.926C89.2995 274.598 91.0335 274.598 91.9935 274.598C92.9535 274.598 97.9635 274.694 97.9635 274.694C97.9635 274.694 105.278 274.598 106.364 274.31C107.45 274.022 107.516 273.446 107.132 273.152C106.776 272.972 106.374 272.905 105.98 272.96C104.221 273.171 102.446 273.203 100.682 273.056C98.5635 272.768 92.2095 272.864 91.2495 272.768C90.5045 272.713 89.7565 272.713 89.0115 272.768Z" fill="#263238" stroke="#263238" stroke-linecap="round" stroke-linejoin="round"/>
<path d="M85.6094 256.362C85.6094 256.362 88.8254 266.028 88.9214 266.508C89.065 267.502 89.1292 268.505 89.1134 269.508C89.1134 270.852 88.2434 272.298 89.7854 273.258C91.3274 274.218 95.5634 273.552 97.6814 273.744C99.861 273.889 102.048 273.889 104.227 273.744C107.113 273.648 108.175 272.106 107.497 271.818C106.819 271.53 106.537 272.298 103.357 270.468C100.177 268.638 94.5974 265.944 94.4054 265.368C94.2134 264.792 93.1574 256.32 93.1574 256.32L85.6094 256.362Z" fill="white" stroke="#263238" stroke-linecap="round" stroke-linejoin="round"/>
<path d="M100.084 268.672C99.4816 270.323 99.1809 272.069 99.1958 273.826C99.6518 273.826 100.108 273.826 100.576 273.826C100.567 272.292 100.815 270.767 101.308 269.314L100.084 268.672Z" fill="#263238"/>
<path d="M93.3211 273.782C93.565 271.155 94.5889 268.66 96.2611 266.618C95.7811 266.348 95.3671 266.102 95.0611 265.898C93.2665 268.149 92.1844 270.883 91.9531 273.752C92.3791 273.782 92.8411 273.788 93.3211 273.782Z" fill="#263238"/>
<path d="M94.4006 265.358C94.3706 265.268 94.3226 264.986 94.2566 264.578C92.4282 265.102 90.5417 265.396 88.6406 265.454C88.7966 266.024 88.8986 266.42 88.9166 266.51L88.9646 266.828C90.9843 266.75 92.9852 266.41 94.9166 265.814C94.7142 265.701 94.5382 265.545 94.4006 265.358Z" fill="#263238"/>
<path d="M78.0403 120.688C78.0403 120.688 78.4963 124.779 79.3483 126.537C80.2003 128.295 82.2463 129.723 81.7483 133.359C81.2503 136.995 78.5623 138.873 77.1403 139.161C76.3519 139.33 75.5463 139.405 74.7403 139.384L75.0223 143.421C77.3547 143.334 79.6884 143.552 81.9643 144.069C84.9283 144.891 89.7643 146.536 91.9123 146.866C94.0603 147.196 102.268 147.615 103.912 149.421C105.556 151.227 105.142 152.877 104.158 153.861C103.174 154.845 97.9963 154.593 91.1743 154.593H84.3583C84.3583 154.593 85.9183 158.619 85.6723 161.5C85.4263 164.38 82.9603 169.474 82.9603 169.474C82.9603 169.474 83.2063 175.228 83.6983 179.674C84.1903 184.12 84.2983 186.988 84.2983 186.988C84.2983 186.988 87.0103 205.317 90.2143 217.485C93.4183 229.653 93.0943 247.815 93.9163 251.019C94.7383 254.223 95.2063 257.403 95.2063 257.403C95.2063 257.403 87.3163 258.964 84.5203 259.132C83.1527 259.23 81.7808 259.258 80.4103 259.215L78.7663 243.183C78.7663 243.183 75.5623 221.895 75.3943 221.583C75.2263 221.271 70.6303 205.635 70.6303 205.635L67.7503 233.403L65.0383 258.717L52.6843 257.181L52.9303 226.521C52.9303 226.521 52.2763 208.683 52.4383 201.285C52.6003 193.887 54.9043 187.312 56.9563 184.678C59.0083 182.044 64.1083 174.478 64.1083 174.478L63.2083 169.299L58.4083 159.849C58.4083 159.849 47.3563 167.794 45.4663 169.114C43.5763 170.434 41.2663 169.444 40.6663 166.317C40.0663 163.191 54.7603 150.231 57.0643 148.587C59.3683 146.943 67.2643 142.503 67.2643 142.503L66.9343 138.555C66.9343 138.555 64.1383 137.656 63.1543 135.436C62.1703 133.215 65.7823 130.42 65.8663 128.614C65.9503 126.808 64.5523 123.513 66.8503 122.691C69.1483 121.869 78.0403 120.688 78.0403 120.688Z" fill="white" stroke="#263238" stroke-linecap="round" stroke-linejoin="round"/>
<path d="M80.4119 259.239C81.7824 259.282 83.1542 259.254 84.5219 259.155C87.3179 258.987 95.2079 257.427 95.2079 257.427C95.2079 257.427 94.7159 254.223 93.8939 251.013C93.0719 247.803 93.4019 229.641 90.1919 217.479C86.9819 205.317 84.2759 186.981 84.2759 186.981C84.2759 186.981 84.1919 184.101 83.6759 179.667C83.4659 177.795 83.3039 175.689 83.1839 173.883L64.0379 174.051L64.1099 174.483C64.1099 174.483 59.0159 182.049 56.9579 184.683C54.8999 187.317 52.6019 193.893 52.4399 201.291C52.2779 208.689 52.9319 226.527 52.9319 226.527L52.6859 257.181L65.0159 258.741L67.7519 233.403L70.6319 205.617C70.6319 205.617 75.2339 221.217 75.3959 221.565C75.5579 221.913 78.7679 243.165 78.7679 243.165L80.4119 259.239Z" fill="#43A7FF" stroke="#263238" stroke-linecap="round" stroke-linejoin="round"/>
<path d="M76.7266 180.272L82.5946 180.188" stroke="#263238" stroke-linecap="round" stroke-linejoin="round"/>
<path d="M68.2344 180.399L75.2844 180.297" stroke="#263238" stroke-linecap="round" stroke-linejoin="round"/>
<path d="M79.3828 180.289L80.7808 192.619" stroke="#263238" stroke-linecap="round" stroke-linejoin="round"/>
<path d="M80.3438 181.898L83.5598 196.376" stroke="#263238" stroke-linecap="round" stroke-linejoin="round"/>
<path d="M67.2684 181.469L64.4844 191.975" stroke="#263238" stroke-linecap="round" stroke-linejoin="round"/>
<path d="M66.4649 194.398L66.2969 196.054" stroke="#263238" stroke-linecap="round" stroke-linejoin="round"/>
<path d="M67.5881 183.188L66.6641 192.409" stroke="#263238" stroke-linecap="round" stroke-linejoin="round"/>
<path d="M70.2734 126.084C70.6251 125.74 71.0464 125.475 71.5091 125.308C71.9717 125.14 72.4649 125.073 72.9554 125.112" stroke="#263238" stroke-miterlimit="10"/>
<path d="M76.3828 123.798C76.777 123.346 77.3282 123.061 77.9248 123" stroke="#263238" stroke-miterlimit="10"/>
<path d="M82.1878 126.203C82.1878 126.781 82.0164 127.346 81.6953 127.827C81.3742 128.307 80.9179 128.682 80.384 128.903C79.85 129.124 79.2625 129.182 78.6957 129.069C78.1289 128.956 77.6082 128.678 77.1996 128.269C76.7909 127.861 76.5126 127.34 76.3999 126.773C76.2872 126.206 76.345 125.619 76.5662 125.085C76.7873 124.551 77.1619 124.095 77.6424 123.774C78.1229 123.453 78.6878 123.281 79.2658 123.281C80.0407 123.281 80.7839 123.589 81.3319 124.137C81.8799 124.685 82.1878 125.428 82.1878 126.203Z" stroke="#263238" stroke-linecap="round" stroke-linejoin="round"/>
<path d="M74.8203 132.977C75.3518 133.283 75.9436 133.471 76.5547 133.527C77.1659 133.583 77.7819 133.506 78.3603 133.301" stroke="#263238" stroke-linecap="round" stroke-linejoin="round"/>
<path d="M75.3945 128.658C75.3945 129.235 75.2235 129.799 74.9031 130.278C74.5827 130.758 74.1272 131.132 73.5944 131.352C73.0616 131.573 72.4753 131.631 71.9096 131.518C71.344 131.406 70.8244 131.128 70.4166 130.72C70.0088 130.312 69.731 129.793 69.6185 129.227C69.506 128.661 69.5638 128.075 69.7845 127.542C70.0052 127.009 70.3789 126.554 70.8585 126.234C71.338 125.913 71.9018 125.742 72.4785 125.742C73.2519 125.742 73.9936 126.049 74.5404 126.596C75.0873 127.143 75.3945 127.885 75.3945 128.658Z" stroke="#263238" stroke-linecap="round" stroke-linejoin="round"/>
<path d="M73.8299 128.485C73.9199 129.001 73.7819 129.457 73.5119 129.505C73.2419 129.553 72.9539 129.175 72.8579 128.665C72.7619 128.155 72.9059 127.693 73.1759 127.645C73.4459 127.597 73.7339 127.969 73.8299 128.485Z" fill="#263238"/>
<path d="M78.6185 126.773C78.7145 127.283 78.5765 127.739 78.3065 127.787C78.0365 127.835 77.7425 127.463 77.6525 126.947C77.5625 126.431 77.7005 125.981 77.9645 125.927C78.2285 125.873 78.5285 126.257 78.6185 126.773Z" fill="#263238"/>
<path d="M69.7232 129.688L65.3672 131.739" stroke="#263238" stroke-linecap="round" stroke-linejoin="round"/>
<path d="M75.3203 127.802C75.4213 127.652 75.559 127.531 75.7205 127.449C75.8819 127.368 76.0615 127.329 76.2422 127.337C76.4228 127.345 76.5985 127.399 76.7522 127.494C76.906 127.589 77.0327 127.722 77.1203 127.88" stroke="#263238" stroke-linecap="round" stroke-linejoin="round"/>
<path d="M76.0859 127.055C76.3367 127.443 76.7139 127.734 77.1539 127.877C77.8139 128.045 79.7039 128.207 79.5539 129.113C79.4923 129.485 79.3404 129.837 79.1113 130.137C78.8822 130.437 78.583 130.677 78.2399 130.835" stroke="#263238" stroke-linecap="round" stroke-linejoin="round"/>
<path d="M66.7304 123.873C66.7304 123.873 67.2404 127.269 66.8144 129.483C66.3884 131.697 64.5224 132.537 64.7744 134.325C65.0264 136.113 67.7744 138.741 67.7744 138.741C67.0488 139.614 66.1402 140.318 65.1128 140.802C64.0854 141.287 62.9642 141.539 61.8284 141.543C57.8084 141.603 54.4844 140.097 54.4844 133.389C54.4844 126.681 55.4204 119.115 60.2624 116.739C65.1044 114.363 74.1944 115.293 76.2344 116.061C78.2744 116.829 80.5664 119.457 79.7984 120.729C79.0304 122.001 70.1264 124.299 66.7304 123.873Z" fill="#263238" stroke="#263238" stroke-linecap="round" stroke-linejoin="round"/>
<path d="M66.6804 132.805C66.6804 132.805 64.2144 130.669 63.2304 131.737C62.2464 132.805 63.4764 134.695 64.3764 135.763C64.5191 135.949 64.7043 136.099 64.9165 136.199C65.1287 136.3 65.3618 136.348 65.5965 136.341C65.8312 136.333 66.0607 136.27 66.2659 136.155C66.4711 136.041 66.6461 135.88 66.7764 135.685" fill="white"/>
<path d="M66.6804 132.805C66.6804 132.805 64.2144 130.669 63.2304 131.737C62.2464 132.805 63.4764 134.695 64.3764 135.763C64.5191 135.949 64.7043 136.099 64.9165 136.199C65.1287 136.3 65.3618 136.348 65.5965 136.341C65.8312 136.333 66.0607 136.27 66.2659 136.155C66.4711 136.041 66.6461 135.88 66.7764 135.685" stroke="#263238" stroke-linecap="round" stroke-linejoin="round"/>
<path d="M74.7483 139.388L71.8203 138.992L74.9103 142.718L74.7483 139.388Z" fill="#263238" stroke="#263238" stroke-linecap="round" stroke-linejoin="round"/>
<path d="M101.976 153.682C100.814 153.545 99.7017 153.134 98.7301 152.482C97.3021 151.45 96.7501 148.282 95.4841 145.984C94.2181 143.686 87.6841 132.49 87.6841 132.49C87.0473 132.46 86.4282 132.27 85.8841 131.938C85.0141 131.38 84.1441 130.666 82.8001 130.51C81.4561 130.354 80.7361 130.588 80.2621 130.432C79.7881 130.276 80.1061 128.926 81.2161 128.632C82.3261 128.338 83.9881 128.95 83.9881 128.95C84.073 128.099 83.9915 127.239 83.7481 126.418C83.3521 125.386 82.0081 124.198 81.0541 123.646C80.1001 123.094 79.0741 123.088 79.4701 122.536C79.8661 121.984 80.4241 121.822 81.6121 121.978C82.8001 122.134 84.8581 124.276 84.8581 124.276C84.8581 124.276 86.6581 125.704 87.0721 125.704C87.4861 125.704 89.1361 125.626 89.9281 126.904C90.7201 128.182 91.4281 130.864 91.3501 131.578C91.3039 132.025 91.3039 132.475 91.3501 132.922C91.3501 132.922 100.284 143.332 102.15 145.15C104.016 146.968 105.318 151.15 105 152.2C104.821 152.803 104.545 153.372 104.184 153.886" fill="white"/>
<path d="M101.976 153.682C100.814 153.545 99.7017 153.134 98.7301 152.482C97.3021 151.45 96.7501 148.282 95.4841 145.984C94.2181 143.686 87.6841 132.49 87.6841 132.49C87.0473 132.46 86.4282 132.27 85.8841 131.938C85.0141 131.38 84.1441 130.666 82.8001 130.51C81.4561 130.354 80.7361 130.588 80.2621 130.432C79.7881 130.276 80.1061 128.926 81.2161 128.632C82.3261 128.338 83.9881 128.95 83.9881 128.95C84.073 128.099 83.9915 127.239 83.7481 126.418C83.3521 125.386 82.0081 124.198 81.0541 123.646C80.1001 123.094 79.0741 123.088 79.4701 122.536C79.8661 121.984 80.4241 121.822 81.6121 121.978C82.8001 122.134 84.8581 124.276 84.8581 124.276C84.8581 124.276 86.6581 125.704 87.0721 125.704C87.4861 125.704 89.1361 125.626 89.9281 126.904C90.7201 128.182 91.4281 130.864 91.3501 131.578C91.3039 132.025 91.3039 132.475 91.3501 132.922C91.3501 132.922 100.284 143.332 102.15 145.15C104.016 146.968 105.318 151.15 105 152.2C104.821 152.803 104.545 153.372 104.184 153.886" stroke="#263238" stroke-linecap="round" stroke-linejoin="round"/>
<path d="M86.7041 124.803C86.6135 124.611 86.4751 124.446 86.3021 124.323C85.1021 123.447 84.6221 125.145 84.6581 125.931C84.7115 126.554 84.8718 127.163 85.1321 127.731C85.2161 127.935 85.3601 128.169 85.5941 128.157C85.6514 128.153 85.7073 128.138 85.758 128.111C85.8087 128.084 85.8531 128.046 85.8881 128.001C86.3321 127.503 85.9541 126.735 86.2061 126.141C86.3501 125.793 86.7101 125.541 86.7581 125.157C86.7708 125.036 86.7522 124.914 86.7041 124.803Z" fill="white" stroke="#263238" stroke-linecap="round" stroke-linejoin="round"/>
<path d="M88.2901 124.886C88.1995 124.695 88.061 124.529 87.8881 124.406C86.6881 123.536 86.2081 125.228 86.2441 126.014C86.2973 126.637 86.4576 127.246 86.7181 127.814C86.8021 128.012 86.9461 128.252 87.1801 128.24C87.2375 128.235 87.2932 128.217 87.3437 128.19C87.3942 128.162 87.4386 128.124 87.4741 128.078C87.9181 127.586 87.5401 126.818 87.7921 126.224C87.9361 125.876 88.2961 125.624 88.3441 125.234C88.3549 125.116 88.3364 124.996 88.2901 124.886Z" fill="white" stroke="#263238" stroke-linecap="round" stroke-linejoin="round"/>
<path d="M89.7478 125.544C89.6681 125.371 89.5439 125.221 89.3878 125.112C88.3258 124.32 87.8698 125.856 87.8998 126.564C87.9464 127.134 88.0905 127.692 88.3258 128.214C88.4038 128.394 88.5358 128.61 88.7458 128.598C88.7982 128.593 88.8491 128.578 88.8955 128.553C88.9419 128.529 88.9829 128.495 89.0158 128.454C89.4178 128.01 89.0698 127.314 89.2978 126.774C89.4298 126.462 89.7538 126.216 89.8018 125.88C89.8138 125.765 89.7952 125.649 89.7478 125.544Z" fill="white" stroke="#263238" stroke-linecap="round" stroke-linejoin="round"/>
<path d="M87.4219 129.734C87.5034 130.434 87.7172 131.112 88.0519 131.732C88.4607 132.148 89.0113 132.395 89.5939 132.422" stroke="#263238" stroke-linecap="round" stroke-linejoin="round"/>
<path d="M82.9601 169.472C82.9601 169.472 85.4261 164.372 85.6721 161.498C85.9181 158.624 84.3581 154.592 84.3581 154.592C84.3581 154.592 79.6901 145.736 78.3581 143.498C77.7041 143.444 77.1041 143.42 76.5581 143.414C77.1319 144.238 77.6204 145.119 78.0161 146.042C78.2621 146.948 80.3201 152.12 80.3201 152.12L75.1421 157.292L67.1381 153.602C66.8222 151.299 66.1586 149.058 65.1701 146.954C64.7473 146.121 64.2661 145.319 63.7301 144.554L62.6861 145.154C63.0224 145.615 63.3309 146.096 63.6101 146.594C65.0021 149.06 65.3321 154.064 65.3321 154.064C65.3321 154.064 62.2121 158.42 61.4741 160.718C61.161 161.681 60.7779 162.619 60.3281 163.526L63.2321 169.28L63.6641 171.752L82.9901 170.15C82.9721 169.73 82.9601 169.472 82.9601 169.472Z" fill="#43A7FF" stroke="#263238" stroke-linecap="round" stroke-linejoin="round"/>
<path d="M43.9733 161.367C43.9733 161.367 39.6113 164.829 39.5393 166.665C39.4673 168.501 54.2933 182.067 55.4273 182.865C56.5613 183.663 57.6173 183.921 58.2533 183.639C58.8893 183.357 62.4893 181.311 62.4893 181.311C62.4893 181.311 66.8633 180.957 67.1453 180.537C67.4273 180.117 67.2173 180.039 66.3713 179.967C65.5253 179.895 64.4633 179.685 64.2533 179.685C64.0433 179.685 62.9813 179.547 62.9813 179.547C62.9813 179.547 67.7153 177.783 67.9973 177.711C68.2793 177.639 69.5513 177.567 69.3353 177.075C69.1193 176.583 67.7813 175.875 66.5813 175.521C65.3813 175.167 62.4173 174.885 61.5713 175.521C60.7253 176.157 57.3353 180.111 57.3353 180.111C55.7151 178.26 54.4901 176.098 53.7353 173.757C52.5353 169.941 47.8793 164.631 46.3253 163.557" fill="white"/>
<path d="M43.9733 161.367C43.9733 161.367 39.6113 164.829 39.5393 166.665C39.4673 168.501 54.2933 182.067 55.4273 182.865C56.5613 183.663 57.6173 183.921 58.2533 183.639C58.8893 183.357 62.4893 181.311 62.4893 181.311C62.4893 181.311 66.8633 180.957 67.1453 180.537C67.4273 180.117 67.2173 180.039 66.3713 179.967C65.5253 179.895 64.4633 179.685 64.2533 179.685C64.0433 179.685 62.9813 179.547 62.9813 179.547C62.9813 179.547 67.7153 177.783 67.9973 177.711C68.2793 177.639 69.5513 177.567 69.3353 177.075C69.1193 176.583 67.7813 175.875 66.5813 175.521C65.3813 175.167 62.4173 174.885 61.5713 175.521C60.7253 176.157 57.3353 180.111 57.3353 180.111C55.7151 178.26 54.4901 176.098 53.7353 173.757C52.5353 169.941 47.8793 164.631 46.3253 163.557" stroke="#263238" stroke-linecap="round" stroke-linejoin="round"/>
<path d="M62.7734 178.043C62.7734 178.043 64.5374 177.407 65.8094 176.981C67.0814 176.555 68.0654 176.207 68.7014 176.627" stroke="#263238" stroke-linecap="round" stroke-linejoin="round"/>
<path d="M62.2109 176.7C63.6117 176.115 65.0817 175.712 66.5849 175.5" stroke="#263238" stroke-linecap="round" stroke-linejoin="round"/>
<path d="M61.7812 175.996C62.4185 175.599 63.1068 175.29 63.8272 175.078" stroke="#263238" stroke-linecap="round" stroke-linejoin="round"/>
</svg>
