<svg width="450" height="300" viewBox="0 0 450 300" fill="none" xmlns="http://www.w3.org/2000/svg">
<path d="M354.858 40.0156C311.832 34.4116 287.4 58.2735 229.554 60.8715C172.104 56.4015 150.198 31.7355 106.656 35.9115C59.808 40.3995 23.52 101.444 33.846 162.512C44.172 223.58 108.162 257.714 140.874 257.504C167.022 257.336 190.116 246.704 219.93 244.148C249.42 247.676 271.362 259.058 297.444 260.09C330.078 261.386 397.536 229.418 414.252 168.8C430.968 108.182 401.154 46.0396 354.858 40.0156Z" fill="#106FA4"/>
<path opacity="0.7" d="M354.858 40.0156C311.832 34.4116 287.4 58.2735 229.554 60.8715C172.104 56.4015 150.198 31.7355 106.656 35.9115C59.808 40.3995 23.52 101.444 33.846 162.512C44.172 223.58 108.162 257.714 140.874 257.504C167.022 257.336 190.116 246.704 219.93 244.148C249.42 247.676 271.362 259.058 297.444 260.09C330.078 261.386 397.536 229.418 414.252 168.8C430.968 108.182 401.154 46.0396 354.858 40.0156Z" fill="white"/>
<path d="M22.08 271.734H441.75" stroke="#263238" stroke-linecap="round" stroke-linejoin="round"/>
<g opacity="0.15">
<path d="M122.328 47.7701C119.796 50.2601 112.302 52.9361 112.296 52.9361C112.29 52.9361 112.032 47.4581 112.062 47.1101C112.386 43.0781 115.386 35.4701 119.802 34.4321C122.982 33.6821 125.802 36.0641 126.228 39.1721C126.654 42.2801 124.488 45.6461 122.328 47.7701Z" fill="black"/>
<path d="M117.792 148.691C117.828 148.871 117.864 149.039 117.894 149.219L115.542 151.391C115.41 150.665 115.278 149.933 115.152 149.171C114.774 147.023 114.42 144.719 114.078 142.349C111.794 142.313 109.514 142.143 107.25 141.839C105.978 145.019 101.478 149.891 100.89 150.515C102.354 152.081 103.8 153.593 105.186 155.003C106.134 155.971 107.054 156.895 107.946 157.775L105.138 158.855L103.242 156.863C101.748 155.273 100.182 153.545 98.586 151.763C97.854 152.231 91.848 156.047 88.548 156.527C85.548 156.959 81.618 156.677 79.344 154.421C77.07 152.165 76.944 148.517 79.458 146.441C82.956 143.555 90.828 145.769 94.236 147.953C94.44 148.085 96.468 149.723 97.728 150.779C97.08 150.047 96.444 149.339 95.79 148.577C94.476 147.077 93.216 145.541 91.854 143.891L89.94 141.413C89.286 140.597 88.698 139.649 88.068 138.767C86.64 136.685 85.302 134.501 84 132.275C82.686 133.421 77.946 137.411 75.042 138.275C72.138 139.139 68.22 139.475 65.628 137.591C63.036 135.707 62.358 132.119 64.53 129.683C67.53 126.299 75.672 127.283 79.368 128.939C79.602 129.041 82.122 130.517 83.496 131.339C82.722 129.995 81.948 128.657 81.21 127.271C79.08 123.275 77.052 119.159 75.012 115.061C74.412 113.807 73.746 112.565 73.11 111.317C72.648 111.731 67.11 116.597 63.864 117.587C60.972 118.469 57.042 118.787 54.456 116.903C51.87 115.019 51.18 111.431 53.358 108.995C56.358 105.611 64.494 106.595 68.196 108.251C68.472 108.377 72.102 110.507 72.996 111.089C71.598 108.347 70.182 105.623 68.676 102.995C66.6597 99.4375 64.415 96.0143 61.956 92.7471C61.74 92.9391 55.998 98.0451 52.662 99.0591C49.77 99.9411 45.84 100.259 43.248 98.3751C40.656 96.4911 39.978 92.9031 42.156 90.4671C45.156 87.0831 53.292 88.0671 56.994 89.7231C57.282 89.8551 61.194 92.1231 61.86 92.6091C61.716 92.4231 61.59 92.2131 61.44 92.0091C58.8855 88.7995 56.0481 85.8255 52.962 83.1231C51.282 81.6051 49.584 80.2491 47.91 78.9711C46.932 80.0271 42.438 84.8271 39.54 86.0691C36.756 87.2691 32.886 88.0071 30.108 86.4231C27.33 84.8391 26.256 81.3471 28.146 78.6831C30.78 74.9931 38.946 75.0831 42.816 76.3191C43.026 76.3851 45.084 77.2971 46.572 77.9811C45.804 77.4171 45.024 76.8171 44.28 76.2891C41.49 74.2971 38.808 72.6531 36.426 71.2071C35.064 70.3971 33.816 69.6951 32.64 69.0471C31.14 69.5871 25.08 71.6991 21.99 71.4471C18.9 71.1951 15.192 70.1991 13.458 67.4931C11.724 64.7871 12.378 61.1991 15.288 59.7231C19.32 57.6591 26.532 61.5231 29.394 64.3791C29.64 64.6311 33.06 68.9451 32.994 68.9751L32.904 69.0051C34.05 69.6051 35.268 70.2651 36.582 71.0091C38.982 72.4011 41.73 74.0091 44.574 75.9351C47.6605 77.9871 50.6237 80.219 53.448 82.6191C56.631 85.2894 59.5687 88.2392 62.226 91.4331C62.2593 91.4705 62.2894 91.5106 62.316 91.5531C61.818 90.3171 60.516 86.8251 60.48 86.5491C59.532 82.6131 60.012 74.4471 63.882 72.0831C66.672 70.3851 70.11 71.7591 71.466 74.5851C72.822 77.4111 71.832 81.2811 70.44 83.9691C68.88 86.9991 63.072 91.5771 62.61 91.9431C65.2389 95.2575 67.6442 98.7432 69.81 102.377C71.076 104.489 72.294 106.655 73.482 108.839C73.086 107.759 72.744 106.793 72.708 106.655C71.76 102.719 72.24 94.5531 76.11 92.1951C78.9 90.4911 82.338 91.8711 83.694 94.6911C85.05 97.5111 84.06 101.387 82.674 104.075C81.288 106.763 76.392 110.807 75.09 111.845C75.534 112.691 75.996 113.525 76.44 114.371C78.57 118.427 80.682 122.483 82.878 126.371C83.646 127.751 84.462 129.077 85.278 130.415C84.93 129.455 84.642 128.645 84.612 128.519C83.664 124.583 84.144 116.417 88.014 114.053C90.798 112.355 94.242 113.729 95.598 116.555C96.954 119.381 95.958 123.251 94.572 125.939C93.186 128.627 88.764 132.275 87.222 133.523C88.092 134.861 88.956 136.205 89.856 137.471C90.492 138.317 91.056 139.175 91.728 139.991L93.696 142.433C94.998 143.933 96.336 145.499 97.644 146.933C98.55 147.941 99.444 148.877 100.314 149.831C99.528 148.469 98.046 145.763 97.95 145.523C96.7219 142.179 96.3728 138.576 96.936 135.059C96.7847 134.692 96.6663 134.313 96.582 133.925C95.94 130.859 97.836 127.673 101.082 127.325C105.594 126.845 110.934 133.037 112.572 136.739C112.674 136.955 113.454 139.445 113.922 141.017C113.79 140.051 113.646 139.109 113.52 138.113C113.256 136.139 113.052 134.159 112.824 132.035C112.752 131.003 112.674 129.959 112.602 128.909C112.53 127.859 112.536 126.755 112.494 125.669C112.458 123.149 112.542 120.587 112.686 118.013C110.958 118.241 104.802 118.955 101.886 118.091C98.97 117.227 95.538 115.325 94.41 112.325C93.282 109.325 94.704 105.959 97.86 105.125C102.246 103.973 108.468 109.283 110.646 112.691C110.784 112.907 112.074 115.529 112.752 116.981C112.854 115.433 112.944 113.891 113.094 112.331C113.52 107.819 114.096 103.271 114.654 98.7291C114.828 97.3371 114.978 95.9451 115.14 94.5291C114.54 94.6131 107.232 95.6211 103.968 94.6551C101.07 93.7911 97.62 91.8891 96.498 88.8891C95.376 85.8891 96.786 82.5231 99.948 81.6891C104.328 80.5371 110.55 85.8471 112.728 89.2551C112.896 89.5131 114.744 93.2931 115.17 94.2711C115.518 91.2171 115.836 88.1631 116.028 85.1391C116.313 81.0606 116.331 76.9679 116.082 72.8871C115.794 72.9231 108.186 74.0151 104.844 73.0191C101.946 72.1611 98.496 70.2531 97.374 67.2591C96.252 64.2651 97.662 60.8871 100.824 60.0591C105.204 58.9011 111.426 64.2111 113.604 67.6191C113.778 67.8891 115.764 71.9571 116.076 72.7191C116.076 72.4791 116.076 72.2331 116.076 71.9991C115.69 67.9421 114.949 63.9268 113.862 59.9991C113.262 57.8031 112.626 55.7391 111.936 53.7471C110.538 54.0951 104.136 55.6131 101.034 55.0491C98.034 54.5151 94.434 53.0031 92.976 50.1471C91.518 47.2911 92.562 43.7811 95.61 42.6111C99.84 40.9791 106.608 45.5751 109.152 48.7251C109.29 48.8931 110.502 50.7951 111.366 52.1871C111.036 51.2931 110.718 50.3871 110.388 49.5111C109.188 46.3131 107.832 43.4571 106.638 40.9371C105.948 39.5091 105.294 38.2371 104.67 37.0491C103.122 36.6711 96.906 35.0871 94.47 33.1971C92.034 31.3071 89.544 28.3251 89.58 25.1271C89.616 21.9291 92.148 19.2891 95.394 19.6551C99.9 20.1591 103.794 27.3531 104.592 31.3191C104.658 31.6611 105.126 37.1511 105.048 37.1331H104.958C105.558 38.2611 106.23 39.4851 106.92 40.8291C108.168 43.3251 109.56 46.1631 110.868 49.3491C112.309 52.7513 113.555 56.233 114.6 59.7771C115.779 63.7604 116.602 67.8404 117.06 71.9691C117.057 72.019 117.057 72.0691 117.06 72.1191C117.324 70.8171 118.188 67.2051 118.29 66.9351C119.67 63.1251 124.572 56.5851 129.09 56.7351C132.354 56.8551 134.49 59.9031 134.034 63.0051C133.578 66.1071 130.644 68.7891 128.034 70.2651C125.034 71.9331 117.684 72.5451 117.102 72.5931C117.461 76.8072 117.539 81.0406 117.336 85.2651C117.234 87.7251 117.048 90.2031 116.838 92.6811C117.102 91.5651 117.348 90.5691 117.396 90.4311C118.776 86.6271 123.684 80.0811 128.196 80.2311C131.46 80.3451 133.596 83.3931 133.14 86.4951C132.684 89.5971 129.75 92.2851 127.14 93.7611C124.53 95.2371 118.194 95.9091 116.532 96.0591C116.436 97.0071 116.358 97.9611 116.262 98.9091C115.806 103.469 115.326 108.017 114.996 112.493C114.882 114.065 114.822 115.625 114.762 117.185C114.996 116.189 115.206 115.355 115.248 115.235C116.628 111.425 121.536 104.885 126.048 105.035C129.312 105.155 131.448 108.203 130.992 111.305C130.536 114.407 127.602 117.089 124.962 118.565C122.322 120.041 116.622 120.647 114.648 120.833C114.648 122.435 114.612 124.031 114.648 125.579C114.708 126.641 114.696 127.661 114.816 128.717C114.936 129.773 115.014 130.805 115.11 131.837C115.368 133.811 115.62 135.851 115.92 137.771C116.118 139.109 116.334 140.381 116.52 141.659C116.622 140.087 116.874 137.015 116.928 136.763C117.714 132.791 121.572 125.585 126.072 125.057C129.318 124.679 131.862 127.373 131.91 130.505C131.958 133.637 129.438 136.739 127.056 138.599C124.428 140.645 117.528 142.331 116.664 142.535C117.042 144.695 117.414 146.753 117.792 148.691Z" fill="black"/>
<path d="M47.778 78.1687C47.73 78.2347 44.532 73.7467 44.364 73.4407C42.414 69.8947 40.722 61.8967 43.83 58.5967C46.068 56.1967 49.746 56.6407 51.804 59.0047C53.862 61.3687 53.922 65.3647 53.292 68.3227C52.554 71.7967 47.778 78.1627 47.778 78.1687Z" fill="black"/>
</g>
<g opacity="0.15">
<path d="M292.122 63.5279C294.654 66.0179 302.148 68.6939 302.154 68.6939C302.16 68.6939 302.418 63.2159 302.388 62.8679C302.064 58.8359 299.064 51.2279 294.648 50.1899C291.468 49.4399 288.648 51.8219 288.228 54.9299C287.808 58.0379 289.968 61.4039 292.122 63.5279Z" fill="black"/>
<path d="M296.658 164.447C296.622 164.627 296.592 164.795 296.556 164.975L298.914 167.147C299.04 166.421 299.172 165.689 299.304 164.927C299.676 162.779 300.03 160.475 300.372 158.105C302.658 158.069 304.94 157.899 307.206 157.595C308.472 160.775 312.978 165.647 313.56 166.271C312.096 167.837 310.65 169.349 309.27 170.753C308.316 171.725 307.398 172.649 306.504 173.531L309.312 174.605C309.912 173.963 310.56 173.303 311.208 172.619C312.702 171.029 314.268 169.301 315.864 167.519C316.596 167.987 322.608 171.803 325.908 172.283C328.908 172.715 332.832 172.433 335.106 170.177C337.38 167.921 337.506 164.273 334.992 162.197C331.494 159.311 323.592 161.525 320.214 163.709C320.01 163.835 317.988 165.479 316.722 166.535C317.37 165.803 318.006 165.095 318.666 164.333C319.974 162.833 321.234 161.297 322.596 159.647L324.51 157.169C325.164 156.353 325.752 155.405 326.388 154.523C327.81 152.441 329.148 150.257 330.45 148.031C331.77 149.177 336.504 153.167 339.408 154.031C342.312 154.895 346.23 155.231 348.822 153.347C351.414 151.463 352.092 147.875 349.92 145.439C346.92 142.055 338.784 143.039 335.082 144.695C334.848 144.797 332.328 146.273 330.954 147.095C331.728 145.751 332.508 144.413 333.24 143.027C335.37 139.025 337.398 134.915 339.444 130.817C340.044 129.563 340.704 128.321 341.34 127.073C341.802 127.487 347.34 132.353 350.586 133.343C353.478 134.219 357.408 134.543 359.994 132.659C362.58 130.775 363.27 127.187 361.092 124.751C358.092 121.367 349.956 122.351 346.254 124.007C345.978 124.127 342.348 126.257 341.454 126.845C342.852 124.103 344.268 121.379 345.774 118.751C347.79 115.194 350.035 111.771 352.494 108.503C352.71 108.695 358.452 113.801 361.788 114.815C364.68 115.691 368.61 116.015 371.202 114.131C373.794 112.247 374.472 108.659 372.294 106.223C369.294 102.839 361.158 103.823 357.456 105.479C357.168 105.605 353.256 107.879 352.59 108.365C352.734 108.179 352.86 107.969 353.01 107.765C355.564 104.556 358.402 101.582 361.488 98.8794C363.168 97.3614 364.866 96.0054 366.546 94.7274C367.518 95.7834 372.012 100.583 374.946 101.825C377.724 103.025 381.594 103.763 384.372 102.179C387.15 100.595 388.23 97.0974 386.334 94.4394C383.7 90.7494 375.534 90.8394 371.664 92.0754C371.454 92.1414 369.402 93.0534 367.908 93.7374C368.676 93.1734 369.456 92.5734 370.2 92.0454C372.99 90.0534 375.672 88.4034 378.054 86.9634C379.422 86.1534 380.664 85.4514 381.84 84.8034C383.34 85.3434 389.4 87.4554 392.49 87.2034C395.58 86.9514 399.288 85.8594 401.022 83.1714C402.756 80.4834 402.102 76.8894 399.192 75.3714C395.16 73.3074 387.948 77.1714 385.086 80.0274C384.84 80.2734 381.42 84.5934 381.486 84.6234L381.576 84.6534C380.43 85.2534 379.212 85.9134 377.898 86.6574C375.498 88.0494 372.756 89.6574 369.906 91.5834C366.807 93.6786 363.834 95.9546 361.002 98.3994C357.812 101.061 354.866 104.003 352.2 107.189L352.11 107.303C352.608 106.073 353.91 102.581 353.946 102.305C354.894 98.3694 354.414 90.2034 350.544 87.8394C347.76 86.1414 344.316 87.5154 342.96 90.3414C341.604 93.1674 342.6 97.0374 343.986 99.7254C345.546 102.725 351.354 107.333 351.786 107.699C349.155 111.012 346.75 114.498 344.586 118.133C343.314 120.245 342.096 122.411 340.908 124.595C341.304 123.515 341.646 122.549 341.682 122.411C342.63 118.475 342.15 110.309 338.28 107.945C335.49 106.247 332.052 107.621 330.696 110.447C329.34 113.273 330.33 117.143 331.716 119.831C333.102 122.519 337.998 126.563 339.3 127.601C338.856 128.447 338.4 129.281 337.95 130.127C335.82 134.183 333.708 138.239 331.512 142.157C330.744 143.537 329.928 144.863 329.112 146.201C329.46 145.241 329.748 144.431 329.778 144.305C330.726 140.363 330.246 132.203 326.382 129.839C323.592 128.141 320.148 129.515 318.798 132.341C317.448 135.167 318.432 139.037 319.818 141.725C321.204 144.413 325.626 148.061 327.168 149.309C326.298 150.647 325.434 151.991 324.534 153.257C323.898 154.103 323.334 154.961 322.662 155.777L320.7 158.213C319.392 159.719 318.054 161.279 316.746 162.719C315.84 163.727 314.946 164.663 314.076 165.617C314.862 164.249 316.344 161.549 316.44 161.309C317.668 157.966 318.017 154.363 317.454 150.845C317.605 150.479 317.724 150.099 317.808 149.711C318.45 146.645 316.554 143.459 313.308 143.111C308.796 142.637 303.456 148.829 301.818 152.531C301.722 152.747 300.936 155.237 300.468 156.809C300.6 155.843 300.744 154.901 300.87 153.905C301.134 151.931 301.338 149.951 301.566 147.827C301.638 146.795 301.716 145.751 301.788 144.701C301.86 143.651 301.86 142.547 301.896 141.461C301.932 138.941 301.848 136.379 301.704 133.805C303.438 134.033 309.588 134.747 312.504 133.883C315.42 133.019 318.858 131.117 319.98 128.117C321.102 125.117 319.686 121.751 316.53 120.917C312.144 119.765 305.922 125.075 303.744 128.483C303.606 128.699 302.316 131.321 301.638 132.773C301.542 131.225 301.452 129.683 301.302 128.123C300.87 123.611 300.294 119.063 299.736 114.515C299.562 113.129 299.412 111.737 299.25 110.351C299.85 110.435 307.158 111.443 310.422 110.477C313.32 109.613 316.77 107.711 317.892 104.711C319.014 101.711 317.604 98.3454 314.448 97.5114C310.062 96.3594 303.84 101.669 301.662 105.077C301.494 105.335 299.646 109.109 299.22 110.093C298.872 107.039 298.554 103.985 298.362 100.961C298.077 96.8829 298.059 92.7902 298.308 88.7094C298.596 88.7454 306.204 89.8374 309.546 88.8414C312.444 87.9774 315.894 86.0754 317.016 83.0814C318.138 80.0874 316.728 76.7094 313.572 75.8814C309.186 74.7294 302.964 80.0394 300.786 83.4474C300.612 83.7174 298.626 87.7854 298.32 88.5474C298.32 88.3074 298.32 88.0614 298.32 87.8274C298.719 83.7357 299.482 79.6877 300.6 75.7314C301.17 73.5354 301.836 71.4714 302.526 69.4794C303.924 69.8274 310.326 71.3454 313.428 70.7814C316.428 70.2474 320.028 68.7294 321.492 65.8794C322.956 63.0294 321.9 59.5134 318.852 58.3374C314.652 56.7114 307.854 61.3374 305.316 64.4574C305.178 64.6254 303.96 66.5274 303.102 67.9194C303.426 67.0254 303.744 66.1194 304.074 65.2434C305.304 62.0454 306.63 59.1894 307.824 56.6694C308.514 55.2414 309.168 53.9634 309.792 52.7814C311.34 52.4034 317.556 50.8194 319.992 48.9294C322.428 47.0394 324.918 44.0574 324.882 40.8594C324.846 37.6614 322.32 35.0214 319.08 35.3994C314.574 35.9034 310.68 43.0974 309.882 47.0634C309.81 47.4054 309.342 52.8954 309.42 52.8774H309.516C308.916 54.0054 308.238 55.2294 307.548 56.5734C306.3 59.0694 304.908 61.9074 303.606 65.0934C302.16 68.5094 300.916 72.0074 299.88 75.5694C298.696 79.5513 297.872 83.6318 297.42 87.7614C297.42 87.8094 297.42 87.8634 297.42 87.9114C297.156 86.6094 296.292 82.9974 296.19 82.7274C294.81 78.9174 289.908 72.3774 285.39 72.5274C282.126 72.6474 279.99 75.6954 280.446 78.7974C280.902 81.8994 283.836 84.5814 286.446 86.0574C289.446 87.7254 296.796 88.3374 297.384 88.3854C297.02 92.5993 296.94 96.8328 297.144 101.057C297.246 103.517 297.432 105.995 297.642 108.473C297.378 107.357 297.132 106.361 297.084 106.223C295.704 102.419 290.796 95.8734 286.284 96.0234C283.02 96.1374 280.914 99.1854 281.34 102.287C281.766 105.389 284.73 108.077 287.37 109.553C290.01 111.029 296.316 111.701 297.984 111.851C298.074 112.799 298.152 113.747 298.248 114.701C298.71 119.261 299.184 123.809 299.514 128.285C299.628 129.857 299.688 131.417 299.754 132.977C299.514 131.981 299.304 131.147 299.262 131.027C297.882 127.217 292.98 120.677 288.462 120.827C285.198 120.947 283.092 123.995 283.518 127.097C283.944 130.199 286.908 132.881 289.518 134.357C292.128 135.833 297.858 136.439 299.832 136.625C299.832 138.227 299.868 139.823 299.832 141.371C299.766 142.433 299.784 143.453 299.658 144.509C299.532 145.565 299.466 146.597 299.37 147.629C299.112 149.603 298.854 151.643 298.554 153.563C298.356 154.901 298.14 156.173 297.954 157.451C297.858 155.879 297.6 152.807 297.546 152.555C296.76 148.583 292.902 141.377 288.402 140.849C285.156 140.471 282.612 143.165 282.564 146.297C282.516 149.429 285.036 152.531 287.424 154.385C290.046 156.437 296.946 158.123 297.81 158.327C297.408 160.451 297.036 162.509 296.658 164.447Z" fill="black"/>
<path d="M366.672 93.9226C366.726 93.9886 369.918 89.5006 370.086 89.1946C372.042 85.6486 373.734 77.6506 370.626 74.3506C368.382 71.9506 364.704 72.3946 362.652 74.7586C360.6 77.1226 360.528 81.1186 361.158 84.0766C361.896 87.5506 366.672 93.9166 366.672 93.9226Z" fill="black"/>
</g>
<path d="M297.114 258.755V236.603C297.116 233.162 298.483 229.861 300.917 227.428C303.35 224.994 306.651 223.627 310.092 223.625H187.728C184.286 223.625 180.985 224.992 178.551 227.426C176.117 229.86 174.75 233.161 174.75 236.603V258.755C174.749 260.46 175.084 262.147 175.736 263.722C176.388 265.297 177.344 266.728 178.549 267.934C179.755 269.139 181.186 270.095 182.761 270.747C184.336 271.399 186.023 271.734 187.728 271.733H310.092C306.65 271.733 303.349 270.366 300.915 267.932C298.481 265.498 297.114 262.197 297.114 258.755Z" fill="#263238" stroke="#263238" stroke-linecap="round" stroke-linejoin="round"/>
<path d="M419.058 225.383L420.516 224.423C420.592 224.37 420.65 224.295 420.68 224.208C420.711 224.12 420.713 224.025 420.686 223.937C420.659 223.848 420.605 223.77 420.532 223.714C420.458 223.658 420.369 223.627 420.276 223.625H310.092C306.651 223.627 303.35 224.994 300.917 227.428C298.483 229.861 297.116 233.162 297.114 236.603V258.755C297.114 262.197 298.481 265.498 300.915 267.932C303.349 270.366 306.65 271.733 310.092 271.733H420.276C420.371 271.735 420.463 271.707 420.54 271.651C420.617 271.595 420.673 271.516 420.7 271.426C420.728 271.335 420.724 271.238 420.691 271.149C420.658 271.06 420.596 270.985 420.516 270.935L419.058 269.975V225.383Z" fill="#949494" stroke="#263238" stroke-linecap="round" stroke-linejoin="round"/>
<path d="M316.584 225.383H419.058V269.999H316.584C312.058 269.999 307.718 268.201 304.518 265.001C301.318 261.801 299.52 257.46 299.52 252.935V242.447C299.52 237.921 301.318 233.581 304.518 230.381C307.718 227.181 312.058 225.383 316.584 225.383Z" fill="white" stroke="#263238" stroke-linecap="round" stroke-linejoin="round"/>
<path d="M303.258 233.59H346.248" stroke="#263238" stroke-linecap="round" stroke-linejoin="round"/>
<path d="M334.962 237.672H375.072" stroke="#263238" stroke-linecap="round" stroke-linejoin="round"/>
<path d="M359.22 242.719H320.79" stroke="#263238" stroke-linecap="round" stroke-linejoin="round"/>
<path d="M304.218 258.09H329.436" stroke="#263238" stroke-linecap="round" stroke-linejoin="round"/>
<path d="M322.956 261.688H360.66" stroke="#263238" stroke-linecap="round" stroke-linejoin="round"/>
<path d="M318.39 265.055H328.476" stroke="#263238" stroke-linecap="round" stroke-linejoin="round"/>
<path d="M346.734 254.73H410.856" stroke="#263238" stroke-linecap="round" stroke-linejoin="round"/>
<path d="M418.302 244.398H405.096" stroke="#263238" stroke-linecap="round" stroke-linejoin="round"/>
<path d="M416.142 241.039H402.69" stroke="#263238" stroke-linecap="round" stroke-linejoin="round"/>
<path d="M416.142 262.656H382.518" stroke="#263238" stroke-linecap="round" stroke-linejoin="round"/>
<path d="M291.342 210.419V188.267C291.341 186.563 291.676 184.875 292.328 183.3C292.98 181.725 293.936 180.294 295.141 179.088C296.347 177.883 297.778 176.927 299.353 176.275C300.928 175.623 302.615 175.288 304.32 175.289H181.95C180.246 175.289 178.559 175.625 176.984 176.277C175.41 176.929 173.98 177.885 172.775 179.091C171.571 180.296 170.615 181.727 169.964 183.301C169.312 184.876 168.977 186.563 168.978 188.267V210.419C168.978 213.86 170.344 217.16 172.777 219.594C175.21 222.027 178.509 223.395 181.95 223.397H304.35C302.643 223.401 300.952 223.068 299.374 222.418C297.796 221.767 296.362 220.812 295.154 219.607C293.945 218.401 292.987 216.969 292.333 215.392C291.679 213.816 291.342 212.126 291.342 210.419Z" fill="#8C8C8C" stroke="#263238" stroke-linecap="round" stroke-linejoin="round"/>
<path d="M413.28 177.047L414.744 176.087C414.824 176.037 414.886 175.962 414.919 175.873C414.952 175.784 414.956 175.687 414.928 175.597C414.901 175.506 414.845 175.427 414.768 175.371C414.691 175.316 414.599 175.287 414.504 175.289H304.32C302.615 175.288 300.928 175.624 299.353 176.275C297.778 176.927 296.347 177.883 295.141 179.089C293.936 180.294 292.98 181.725 292.328 183.3C291.676 184.875 291.341 186.563 291.342 188.267V210.419C291.342 213.861 292.709 217.162 295.143 219.596C297.577 222.03 300.878 223.397 304.32 223.397H414.504C414.597 223.395 414.686 223.364 414.76 223.308C414.833 223.252 414.887 223.174 414.914 223.085C414.941 222.997 414.939 222.902 414.908 222.815C414.878 222.727 414.82 222.652 414.744 222.599L413.28 221.639V177.047Z" fill="#949494" stroke="#263238" stroke-linecap="round" stroke-linejoin="round"/>
<path d="M310.8 177.047H413.28V221.639H310.8C306.28 221.637 301.944 219.842 298.746 216.647C295.548 213.453 293.748 209.119 293.742 204.599V194.111C293.742 189.586 295.539 185.247 298.738 182.047C301.937 178.847 306.275 177.048 310.8 177.047Z" fill="white" stroke="#263238" stroke-linecap="round" stroke-linejoin="round"/>
<path d="M297.486 185.254H340.476" stroke="#263238" stroke-linecap="round" stroke-linejoin="round"/>
<path d="M329.19 189.336H369.3" stroke="#263238" stroke-linecap="round" stroke-linejoin="round"/>
<path d="M353.448 194.383H315.018" stroke="#263238" stroke-linecap="round" stroke-linejoin="round"/>
<path d="M298.446 209.754H323.664" stroke="#263238" stroke-linecap="round" stroke-linejoin="round"/>
<path d="M317.178 213.352H354.888" stroke="#263238" stroke-linecap="round" stroke-linejoin="round"/>
<path d="M312.618 216.715H322.704" stroke="#263238" stroke-linecap="round" stroke-linejoin="round"/>
<path d="M340.956 206.387H405.084" stroke="#263238" stroke-linecap="round" stroke-linejoin="round"/>
<path d="M412.53 196.062H399.324" stroke="#263238" stroke-linecap="round" stroke-linejoin="round"/>
<path d="M410.37 192.703H396.918" stroke="#263238" stroke-linecap="round" stroke-linejoin="round"/>
<path d="M410.37 214.312H376.746" stroke="#263238" stroke-linecap="round" stroke-linejoin="round"/>
<path d="M392.826 249.016L382.944 239.134L373.086 249.016V192.664H392.826V249.016Z" fill="#263238" stroke="#263238" stroke-linecap="round" stroke-linejoin="round"/>
<path d="M302.064 162.083V139.925C302.062 136.484 300.694 133.185 298.261 130.752C295.827 128.32 292.527 126.953 289.086 126.953H411.45C413.154 126.952 414.841 127.287 416.416 127.939C417.991 128.59 419.421 129.546 420.626 130.75C421.832 131.955 422.788 133.385 423.44 134.96C424.092 136.534 424.428 138.221 424.428 139.925V162.083C424.428 163.787 424.092 165.474 423.44 167.049C422.788 168.623 421.832 170.053 420.626 171.258C419.421 172.462 417.991 173.418 416.416 174.069C414.841 174.721 413.154 175.056 411.45 175.055H289.086C292.527 175.055 295.827 173.689 298.261 171.256C300.694 168.824 302.062 165.524 302.064 162.083Z" fill="#106FA4" stroke="#263238" stroke-linecap="round" stroke-linejoin="round"/>
<path d="M180.12 128.705L178.662 127.751C178.582 127.701 178.52 127.626 178.487 127.537C178.454 127.449 178.45 127.351 178.478 127.261C178.505 127.17 178.561 127.091 178.638 127.035C178.715 126.98 178.807 126.951 178.902 126.953H289.086C292.527 126.953 295.827 128.32 298.261 130.752C300.694 133.185 302.062 136.484 302.064 139.925V162.083C302.062 165.524 300.694 168.824 298.261 171.256C295.827 173.689 292.527 175.055 289.086 175.055H178.902C178.807 175.058 178.715 175.029 178.638 174.973C178.561 174.918 178.505 174.838 178.478 174.748C178.45 174.657 178.454 174.56 178.487 174.471C178.52 174.383 178.582 174.308 178.662 174.257L180.12 173.303V128.705Z" fill="#949494" stroke="#263238" stroke-linecap="round" stroke-linejoin="round"/>
<path d="M282.594 173.305L180.12 173.305V128.713H282.594C287.119 128.713 291.458 130.51 294.658 133.708C297.858 136.907 299.656 141.246 299.658 145.771V156.211C299.662 158.454 299.223 160.676 298.368 162.75C297.512 164.824 296.256 166.708 294.671 168.296C293.086 169.884 291.203 171.143 289.131 172.003C287.059 172.862 284.837 173.305 282.594 173.305Z" fill="white" stroke="#263238" stroke-linecap="round" stroke-linejoin="round"/>
<path d="M295.92 136.914H252.924" stroke="#263238" stroke-linecap="round" stroke-linejoin="round"/>
<path d="M264.216 141H224.106" stroke="#263238" stroke-linecap="round" stroke-linejoin="round"/>
<path d="M239.958 146.039H278.382" stroke="#263238" stroke-linecap="round" stroke-linejoin="round"/>
<path d="M294.954 161.41H269.736" stroke="#263238" stroke-linecap="round" stroke-linejoin="round"/>
<path d="M276.222 165.016H238.512" stroke="#263238" stroke-linecap="round" stroke-linejoin="round"/>
<path d="M280.788 168.379H270.696" stroke="#263238" stroke-linecap="round" stroke-linejoin="round"/>
<path d="M252.444 158.051H188.316" stroke="#263238" stroke-linecap="round" stroke-linejoin="round"/>
<path d="M180.87 147.727H194.082" stroke="#263238" stroke-linecap="round" stroke-linejoin="round"/>
<path d="M183.036 144.359H196.482" stroke="#263238" stroke-linecap="round" stroke-linejoin="round"/>
<path d="M183.036 165.977H216.66" stroke="#263238" stroke-linecap="round" stroke-linejoin="round"/>
<path d="M316.764 158.951V143.183H320.478C321.505 143.137 322.529 143.318 323.478 143.711C324.177 144.036 324.727 144.612 325.02 145.325C325.349 146.208 325.504 147.148 325.476 148.091V153.851C325.503 154.821 325.348 155.787 325.02 156.701C324.738 157.433 324.198 158.037 323.502 158.399C322.588 158.807 321.592 158.996 320.592 158.951H316.764ZM319.644 156.947H320.52C321.017 156.989 321.515 156.867 321.936 156.599C322.238 156.337 322.427 155.97 322.464 155.573C322.535 155.028 322.567 154.478 322.56 153.929V147.893C322.572 147.377 322.528 146.862 322.428 146.357C322.39 146.181 322.318 146.014 322.215 145.867C322.112 145.719 321.98 145.594 321.828 145.499C321.4 145.287 320.924 145.194 320.448 145.229H319.614L319.644 156.947Z" fill="#263238"/>
<path d="M327.678 158.952V143.184H330.522V158.952H327.678Z" fill="#263238"/>
<path d="M337.2 159.166C336.245 159.22 335.297 158.981 334.482 158.482C333.832 158.03 333.349 157.376 333.108 156.622C332.835 155.744 332.703 154.829 332.718 153.91V148.282C332.701 147.333 332.832 146.388 333.108 145.48C333.341 144.73 333.826 144.083 334.482 143.65C335.299 143.242 336.197 143.023 337.109 143.009C338.022 142.994 338.927 143.184 339.756 143.566C340.367 143.922 340.832 144.483 341.07 145.15C341.343 145.92 341.475 146.733 341.46 147.55V148.876H338.694V147.514C338.698 147.113 338.676 146.712 338.628 146.314C338.601 145.991 338.47 145.686 338.256 145.444C338.114 145.323 337.948 145.232 337.77 145.178C337.591 145.123 337.404 145.105 337.218 145.126C336.828 145.093 336.44 145.213 336.138 145.462C335.899 145.714 335.746 146.035 335.7 146.38C335.632 146.808 335.6 147.242 335.604 147.676V154.522C335.593 154.997 335.638 155.473 335.736 155.938C335.802 156.265 335.978 156.559 336.234 156.772C336.521 156.973 336.868 157.072 337.218 157.054C337.403 157.073 337.589 157.053 337.765 156.994C337.941 156.935 338.102 156.839 338.238 156.712C338.454 156.458 338.586 156.144 338.616 155.812C338.672 155.392 338.698 154.969 338.694 154.546V153.124H341.46V154.39C341.473 155.231 341.347 156.068 341.088 156.868C340.86 157.562 340.406 158.16 339.798 158.566C339.008 159.013 338.106 159.222 337.2 159.166Z" fill="#263238"/>
<path d="M345.042 158.952V145.308H342.528V143.184H350.4V145.308H347.928V158.952H345.042Z" fill="#263238"/>
<path d="M351.912 158.952V143.184H354.756V158.952H351.912Z" fill="#263238"/>
<path d="M361.47 159.167C360.542 159.219 359.617 159.011 358.8 158.567C358.135 158.146 357.634 157.511 357.378 156.767C357.077 155.879 356.933 154.945 356.952 154.007V148.109C356.932 147.179 357.076 146.253 357.378 145.373C357.64 144.648 358.142 144.034 358.8 143.633C359.638 143.234 360.554 143.027 361.482 143.027C362.41 143.027 363.326 143.234 364.164 143.633C364.819 144.038 365.32 144.65 365.586 145.373C365.895 146.251 366.044 147.178 366.024 148.109V154.025C366.042 154.956 365.893 155.882 365.586 156.761C365.324 157.502 364.824 158.135 364.164 158.561C363.343 159.017 362.408 159.227 361.47 159.167ZM361.47 157.043C361.849 157.077 362.226 156.965 362.526 156.731C362.768 156.502 362.93 156.201 362.988 155.873C363.069 155.478 363.107 155.076 363.102 154.673V147.413C363.108 147.01 363.07 146.608 362.988 146.213C362.929 145.894 362.767 145.603 362.526 145.385C362.213 145.189 361.851 145.085 361.482 145.085C361.113 145.085 360.751 145.189 360.438 145.385C360.194 145.601 360.029 145.893 359.97 146.213C359.886 146.607 359.845 147.01 359.85 147.413V154.673C359.846 155.076 359.882 155.478 359.958 155.873C360.011 156.203 360.174 156.505 360.42 156.731C360.719 156.963 361.093 157.074 361.47 157.043Z" fill="#263238"/>
<path d="M368.142 158.952V143.184H370.146L373.986 152.184V143.184H376.386V158.952H374.478L370.626 149.532V158.952H368.142Z" fill="#263238"/>
<path d="M377.952 158.952L381.108 143.184H384.18L387.336 158.952H384.666L384.066 155.31H381.3L380.658 158.952H377.952ZM381.6 153.48H383.742L382.668 146.88L381.6 153.48Z" fill="#263238"/>
<path d="M388.836 158.95V143.182H392.61C393.523 143.161 394.433 143.291 395.304 143.566C395.995 143.787 396.587 144.244 396.978 144.856C397.407 145.615 397.615 146.48 397.578 147.352C397.583 147.926 397.525 148.5 397.404 149.062C397.298 149.531 397.094 149.973 396.804 150.358C396.497 150.73 396.098 151.016 395.646 151.186L397.8 158.95H394.92L393.012 151.75H391.692V158.95H388.836ZM391.716 149.92H392.61C393.067 149.939 393.522 149.855 393.942 149.674C394.27 149.516 394.525 149.239 394.656 148.9C394.808 148.458 394.879 147.993 394.866 147.526C394.914 146.895 394.76 146.265 394.428 145.726C394.218 145.502 393.958 145.331 393.669 145.227C393.38 145.122 393.071 145.088 392.766 145.126H391.716V149.92Z" fill="#263238"/>
<path d="M401.76 158.952V152.952L398.568 143.196H401.25L403.2 149.436L405 143.184H407.628L404.478 152.94V158.94L401.76 158.952Z" fill="#263238"/>
<path d="M404.502 163.836H316.974V165.846H404.502V163.836Z" fill="#263238" stroke="#263238" stroke-linecap="round" stroke-linejoin="round"/>
<path d="M404.502 136.859H316.974V138.869H404.502V136.859Z" fill="#263238" stroke="#263238" stroke-linecap="round" stroke-linejoin="round"/>
<path d="M300.894 90.7373C300.892 90.0747 300.628 89.4399 300.159 88.972C299.69 88.5041 299.055 88.2413 298.392 88.2413H112.032C111.694 88.2247 111.355 88.277 111.038 88.3951C110.72 88.5132 110.43 88.6946 110.184 88.9283C109.939 89.162 109.743 89.4431 109.61 89.7546C109.476 90.066 109.408 90.4014 109.408 90.7403C109.408 91.0792 109.476 91.4145 109.61 91.726C109.743 92.0375 109.939 92.3186 110.184 92.5522C110.43 92.7859 110.72 92.9673 111.038 93.0854C111.355 93.2035 111.694 93.2559 112.032 93.2393H295.632L282.204 266.639H170.814L164.514 259.973L156.114 266.639H79.38C79.0415 266.623 78.7032 266.675 78.3856 266.793C78.0679 266.911 77.7776 267.093 77.5322 267.326C77.2868 267.56 77.0914 267.841 76.9579 268.153C76.8244 268.464 76.7555 268.799 76.7555 269.138C76.7555 269.477 76.8244 269.812 76.9579 270.124C77.0914 270.435 77.2868 270.717 77.5322 270.95C77.7776 271.184 78.0679 271.365 78.3856 271.483C78.7032 271.602 79.0415 271.654 79.38 271.637H283.8C283.962 271.685 284.129 271.715 284.298 271.727C284.625 271.753 284.955 271.713 285.267 271.611C285.579 271.509 285.868 271.346 286.117 271.132C286.366 270.918 286.571 270.657 286.719 270.364C286.867 270.07 286.956 269.751 286.98 269.423L300.78 91.3853C300.846 91.1751 300.884 90.9573 300.894 90.7373Z" fill="#263238" stroke="#263238" stroke-linecap="round" stroke-linejoin="round"/>
<path d="M165.096 262.525C166.086 262.921 168.018 266.275 169.17 268.405H284.736L275.442 246.265C275.442 246.265 266.544 242.233 243.312 234.589C220.08 226.945 205.38 224.299 189.792 227.533C174.204 230.767 168.036 232.801 168.036 232.801C168.036 232.801 162.744 228.391 146.568 228.097C130.392 227.803 82.326 246.241 82.326 246.241L78.936 268.381H160.116C161.61 265.921 164.094 262.123 165.096 262.525Z" fill="white" stroke="#263238" stroke-linecap="round" stroke-linejoin="round"/>
<path d="M185.628 70.931L166.722 242.399C166.722 242.399 187.35 233.807 200.67 233.399C211.59 233.045 244.47 240.785 255.96 243.599C258.691 244.267 261.463 244.756 264.258 245.063L275.442 246.311L288.762 76.565C288.762 76.565 266.85 71.411 250.962 66.251C235.074 61.091 203.676 57.179 185.628 70.931Z" fill="white" stroke="#263238" stroke-linecap="round" stroke-linejoin="round"/>
<path d="M261.282 83.55L262.746 72.75L265.014 73.524C265.67 73.7308 266.288 74.0429 266.844 74.448C267.286 74.7745 267.624 75.2228 267.816 75.738C268.004 76.3187 268.049 76.9361 267.948 77.538C267.901 77.9118 267.802 78.2773 267.654 78.624C267.536 78.9097 267.341 79.1569 267.09 79.338C266.832 79.5116 266.524 79.5959 266.214 79.578L267.084 85.524L265.566 85.008L264.768 79.446L263.568 79.026L262.884 84.084L261.282 83.55ZM263.682 77.952L264.282 78.156C264.636 78.2947 265.012 78.3679 265.392 78.372C265.525 78.3712 265.656 78.3405 265.775 78.2824C265.895 78.2242 265.999 78.14 266.082 78.036C266.277 77.7312 266.392 77.3827 266.418 77.022C266.524 76.5203 266.463 75.9977 266.244 75.534C265.906 75.0783 265.417 74.7573 264.864 74.628L264.168 74.388L263.682 77.952Z" fill="black"/>
<path d="M268.8 82.4823L268.944 81.4023L272.058 82.4643L271.908 83.5443L268.8 82.4823Z" fill="black"/>
<path d="M274.236 87.979L275.544 78.313L273.63 77.659L273.786 76.543L279.126 78.343L278.97 79.459L277.116 78.829L275.808 88.489L274.236 87.979Z" fill="black"/>
<path d="M185.628 70.9325L166.722 242.401C166.722 242.401 153.408 233.809 143.118 233.401C135.258 233.071 111.198 239.755 100.242 242.935C96.4194 244.04 92.521 244.864 88.578 245.401L82.326 246.271L105.474 79.1225C105.474 79.1225 115.926 75.6305 129.33 70.4705C142.734 65.3105 174.288 57.1805 185.628 70.9325Z" fill="white" stroke="#263238" stroke-linecap="round" stroke-linejoin="round"/>
<path d="M114.504 85.8486L115.668 77.2626L117.624 76.6626C118.132 76.491 118.666 76.4059 119.202 76.4106C119.369 76.4054 119.535 76.4442 119.682 76.5232C119.83 76.6022 119.954 76.7186 120.042 76.8606C120.213 77.2364 120.259 77.6568 120.174 78.0606C120.13 78.3854 120.048 78.7037 119.928 79.0086C119.814 79.3016 119.652 79.5734 119.448 79.8126C119.237 80.0572 118.983 80.2606 118.698 80.4126L119.496 84.3066L118.188 84.6966L117.462 81.0486L116.406 81.3666L115.86 85.3926L114.504 85.8486ZM116.52 80.5566L117.036 80.4006C117.371 80.307 117.691 80.1699 117.99 79.9926C118.238 79.847 118.444 79.6405 118.59 79.3926C118.743 79.1117 118.84 78.8042 118.878 78.4866C118.944 77.9826 118.878 77.6526 118.71 77.4906C118.542 77.3286 118.11 77.3466 117.51 77.5266L116.91 77.7066L116.52 80.5566Z" fill="black"/>
<path d="M120.936 81.2636L121.056 80.4056L123.732 79.6016L123.6 80.4596L120.936 81.2636Z" fill="black"/>
<path d="M125.652 82.5052L126.696 74.8072L125.052 75.3053L125.172 74.4112L129.768 73.0312L129.648 73.9252L128.052 74.4053L127.008 82.0973L125.652 82.5052Z" fill="black"/>
<path d="M288.762 76.5156L297.12 93.4416L284.736 268.402L275.442 246.262L288.762 76.5156Z" fill="white" stroke="#263238" stroke-linecap="round" stroke-linejoin="round"/>
<path d="M160.116 268.402C160.116 268.402 154.404 264.49 148.68 263.062C142.956 261.634 126.63 263.632 110.88 265.066" stroke="#263238" stroke-linecap="round" stroke-linejoin="round"/>
<path d="M160.416 264.491C160.416 264.491 154.416 259.625 146.676 259.055" stroke="#263238" stroke-linecap="round" stroke-linejoin="round"/>
<path d="M162.996 261.63C162.996 261.63 153.546 253.902 141.804 253.902C132.888 253.902 122.046 255.906 122.046 255.906" stroke="#263238" stroke-linecap="round" stroke-linejoin="round"/>
<path d="M163.854 254.76C163.854 254.76 156.408 249.318 149.82 248.76C143.232 248.202 134.934 249.6 134.934 249.6" stroke="#263238" stroke-linecap="round" stroke-linejoin="round"/>
<path d="M164.4 247.889C164.4 247.889 158.964 243.017 151.518 241.889C146.865 241.209 142.137 241.209 137.484 241.889" stroke="#263238" stroke-linecap="round" stroke-linejoin="round"/>
<path d="M167.286 249.895C167.286 249.895 176.454 243.295 191.886 245.023" stroke="#263238" stroke-linecap="round" stroke-linejoin="round"/>
<path d="M166.716 256.198C166.716 256.198 171.3 252.766 183.036 252.766" stroke="#263238" stroke-linecap="round" stroke-linejoin="round"/>
<path d="M167.574 262.199C167.574 262.199 177.024 258.473 185.616 259.331C194.208 260.189 195.348 260.765 205.944 261.911" stroke="#263238" stroke-linecap="round" stroke-linejoin="round"/>
<path d="M172.728 266.213C177.406 264.554 182.396 263.965 187.332 264.491" stroke="#263238" stroke-linecap="round" stroke-linejoin="round"/>
<path d="M188.478 253.043C188.478 253.043 197.64 253.613 202.218 255.329" stroke="#263238" stroke-linecap="round" stroke-linejoin="round"/>
<path d="M133.5 242.445L127.776 243.873" stroke="#263238" stroke-linecap="round" stroke-linejoin="round"/>
<path d="M118.614 257.051L114.318 258.191" stroke="#263238" stroke-linecap="round" stroke-linejoin="round"/>
<path d="M195.348 245.879L199.932 246.743" stroke="#263238" stroke-linecap="round" stroke-linejoin="round"/>
<path d="M262.35 263.633C262.35 263.633 274.662 264.491 279.24 264.491" stroke="#263238" stroke-linecap="round" stroke-linejoin="round"/>
<path d="M279.24 262.485L274.374 262.203" stroke="#263238" stroke-linecap="round" stroke-linejoin="round"/>
<path d="M262.062 256.477C262.062 256.477 271.8 257.077 276.666 257.623" stroke="#263238" stroke-linecap="round" stroke-linejoin="round"/>
<path d="M83.682 251.899C89.4992 251.268 95.2482 250.118 100.86 248.461" stroke="#263238" stroke-linecap="round" stroke-linejoin="round"/>
<path d="M90.264 254.473C90.264 254.473 97.14 253.903 101.148 252.469" stroke="#263238" stroke-linecap="round" stroke-linejoin="round"/>
<path d="M273.228 251.319C273.228 251.319 265.212 252.465 253.758 249.891C247.238 248.393 240.643 247.246 234 246.453" stroke="#263238" stroke-linecap="round" stroke-linejoin="round"/>
<path d="M248.892 264.211L256.62 264.493" stroke="#263238" stroke-linecap="round" stroke-linejoin="round"/>
<path d="M292.698 86.6797L289.548 127.342" stroke="#263238" stroke-linecap="round" stroke-linejoin="round"/>
<path d="M294.42 97.2773L292.986 115.031" stroke="#263238" stroke-linecap="round" stroke-linejoin="round"/>
<path d="M289.266 163.992L286.398 201.504" stroke="#263238" stroke-linecap="round" stroke-linejoin="round"/>
<path d="M284.97 212.383L282.108 249.895" stroke="#263238" stroke-linecap="round" stroke-linejoin="round"/>
<path d="M287.112 159.695L285.258 184.037" stroke="#263238" stroke-linecap="round" stroke-linejoin="round"/>
<path d="M284.82 188.328L282.966 212.67" stroke="#263238" stroke-linecap="round" stroke-linejoin="round"/>
<path d="M190.494 90.642C190.494 90.642 202.632 82.14 224.49 85.782" stroke="#B2B2B2" stroke-linecap="round" stroke-linejoin="round"/>
<path d="M189.852 96.0572C189.852 96.0572 202.026 87.5252 223.884 91.0892" stroke="#B2B2B2" stroke-linecap="round" stroke-linejoin="round"/>
<path d="M189.216 101.477C189.216 101.477 201.42 92.9145 223.278 96.3945" stroke="#B2B2B2" stroke-linecap="round" stroke-linejoin="round"/>
<path d="M188.58 106.889C188.58 106.889 200.814 98.2972 222.666 101.699" stroke="#B2B2B2" stroke-linecap="round" stroke-linejoin="round"/>
<path d="M187.938 112.306C187.938 112.306 200.208 103.684 222.06 107.008" stroke="#B2B2B2" stroke-linecap="round" stroke-linejoin="round"/>
<path d="M187.302 117.725C187.302 117.725 199.596 109.073 221.454 112.325" stroke="#B2B2B2" stroke-linecap="round" stroke-linejoin="round"/>
<path d="M186.66 123.145C186.66 123.145 198.99 114.457 220.86 117.619" stroke="#B2B2B2" stroke-linecap="round" stroke-linejoin="round"/>
<path d="M186 128.56C186 128.56 198.36 119.842 220.2 122.92" stroke="#B2B2B2" stroke-linecap="round" stroke-linejoin="round"/>
<path d="M185.4 133.98C185.4 133.98 197.79 125.232 219.642 128.232" stroke="#B2B2B2" stroke-linecap="round" stroke-linejoin="round"/>
<path d="M184.746 139.399C184.746 139.399 197.172 130.615 219.024 133.537" stroke="#B2B2B2" stroke-linecap="round" stroke-linejoin="round"/>
<path d="M184.11 144.816C184.11 144.816 196.56 136.002 218.418 138.816" stroke="#B2B2B2" stroke-linecap="round" stroke-linejoin="round"/>
<path d="M183.474 150.225C183.474 150.225 195.954 141.387 217.812 144.141" stroke="#B2B2B2" stroke-linecap="round" stroke-linejoin="round"/>
<path d="M182.832 155.646C182.832 155.646 195.348 146.772 217.206 149.454" stroke="#B2B2B2" stroke-linecap="round" stroke-linejoin="round"/>
<path d="M182.196 161.062C182.196 161.062 194.742 152.158 216.6 154.756" stroke="#B2B2B2" stroke-linecap="round" stroke-linejoin="round"/>
<path d="M181.554 166.479C181.554 166.479 194.154 157.545 215.988 160.059" stroke="#B2B2B2" stroke-linecap="round" stroke-linejoin="round"/>
<path d="M180.918 171.897C180.918 171.897 193.518 162.933 215.382 165.363" stroke="#B2B2B2" stroke-linecap="round" stroke-linejoin="round"/>
<path d="M180.282 177.317C180.282 177.317 192.918 168.317 214.776 170.675" stroke="#B2B2B2" stroke-linecap="round" stroke-linejoin="round"/>
<path d="M179.64 182.737C179.64 182.737 192.312 173.707 214.2 175.981" stroke="#B2B2B2" stroke-linecap="round" stroke-linejoin="round"/>
<path d="M179.004 188.153C179.004 188.153 191.706 179.093 213.564 181.283" stroke="#B2B2B2" stroke-linecap="round" stroke-linejoin="round"/>
<path d="M178.368 193.565C178.368 193.565 191.1 184.475 212.952 186.599" stroke="#B2B2B2" stroke-linecap="round" stroke-linejoin="round"/>
<path d="M177.726 198.983C177.726 198.983 190.494 189.863 212.346 191.897" stroke="#B2B2B2" stroke-linecap="round" stroke-linejoin="round"/>
<path d="M177.09 204.402C177.09 204.402 189.882 195.252 211.74 197.202" stroke="#B2B2B2" stroke-linecap="round" stroke-linejoin="round"/>
<path d="M176.448 209.82C176.448 209.82 189.276 200.634 211.134 202.506" stroke="#B2B2B2" stroke-linecap="round" stroke-linejoin="round"/>
<path d="M175.8 215.236C175.8 215.236 188.658 206.02 210.516 207.814" stroke="#B2B2B2" stroke-linecap="round" stroke-linejoin="round"/>
<path d="M175.2 220.653C175.2 220.653 188.088 211.407 209.946 213.117" stroke="#B2B2B2" stroke-linecap="round" stroke-linejoin="round"/>
<path d="M174.534 226.073C174.534 226.073 187.458 216.791 209.334 218.423" stroke="#B2B2B2" stroke-linecap="round" stroke-linejoin="round"/>
<path d="M173.898 231.492C173.898 231.492 186.852 222.18 208.698 223.728" stroke="#B2B2B2" stroke-linecap="round" stroke-linejoin="round"/>
<path d="M234.6 86.5905C234.6 86.5905 251.598 84.1905 275.478 96.7125" stroke="#B2B2B2" stroke-linecap="round" stroke-linejoin="round"/>
<path d="M234 91.9486C234 91.9486 251.262 89.6566 274.956 102.035" stroke="#B2B2B2" stroke-linecap="round" stroke-linejoin="round"/>
<path d="M233.4 97.3019C233.4 97.3019 250.926 95.1539 274.434 107.358" stroke="#B2B2B2" stroke-linecap="round" stroke-linejoin="round"/>
<path d="M232.836 102.657C232.836 102.657 250.626 100.647 273.942 112.683" stroke="#B2B2B2" stroke-linecap="round" stroke-linejoin="round"/>
<path d="M232.242 107.998C232.242 107.998 250.302 106.132 273.432 117.994" stroke="#B2B2B2" stroke-linecap="round" stroke-linejoin="round"/>
<path d="M231.648 113.399C231.648 113.399 249.972 111.671 272.916 123.359" stroke="#B2B2B2" stroke-linecap="round" stroke-linejoin="round"/>
<path d="M231.06 118.722C231.06 118.722 249.66 117.138 272.406 128.658" stroke="#B2B2B2" stroke-linecap="round" stroke-linejoin="round"/>
<path d="M230.466 124.08C230.466 124.08 249.318 122.628 271.866 133.98" stroke="#B2B2B2" stroke-linecap="round" stroke-linejoin="round"/>
<path d="M229.878 129.43C229.878 129.43 248.994 128.122 271.374 139.3" stroke="#B2B2B2" stroke-linecap="round" stroke-linejoin="round"/>
<path d="M229.284 134.788C229.284 134.788 248.664 133.588 270.864 144.622" stroke="#B2B2B2" stroke-linecap="round" stroke-linejoin="round"/>
<path d="M228.69 140.139C228.69 140.139 248.34 139.113 270.348 149.949" stroke="#B2B2B2" stroke-linecap="round" stroke-linejoin="round"/>
<path d="M228.102 145.499C228.102 145.499 248.01 144.611 269.838 155.273" stroke="#B2B2B2" stroke-linecap="round" stroke-linejoin="round"/>
<path d="M227.508 150.851C227.508 150.851 247.686 150.107 269.322 160.595" stroke="#B2B2B2" stroke-linecap="round" stroke-linejoin="round"/>
<path d="M226.92 156.21C226.92 156.21 247.356 155.61 268.806 165.924" stroke="#B2B2B2" stroke-linecap="round" stroke-linejoin="round"/>
<path d="M226.326 161.562C226.326 161.562 247.032 161.094 268.326 171.246" stroke="#B2B2B2" stroke-linecap="round" stroke-linejoin="round"/>
<path d="M225.732 166.919C225.732 166.919 246.702 166.589 267.78 176.567" stroke="#B2B2B2" stroke-linecap="round" stroke-linejoin="round"/>
<path d="M225.144 172.27C225.144 172.27 246.378 172.084 267.264 181.87" stroke="#B2B2B2" stroke-linecap="round" stroke-linejoin="round"/>
<path d="M224.55 177.629C224.55 177.629 246.048 177.581 266.754 187.229" stroke="#B2B2B2" stroke-linecap="round" stroke-linejoin="round"/>
<path d="M223.962 183C223.962 183 245.724 183.096 266.238 192.558" stroke="#B2B2B2" stroke-linecap="round" stroke-linejoin="round"/>
<path d="M223.368 188.34C223.368 188.34 245.394 188.574 265.728 197.862" stroke="#B2B2B2" stroke-linecap="round" stroke-linejoin="round"/>
<path d="M222.78 193.691C222.78 193.691 245.07 194.063 265.212 203.189" stroke="#B2B2B2" stroke-linecap="round" stroke-linejoin="round"/>
<path d="M222.186 199.051C222.186 199.051 244.74 199.561 264.696 208.513" stroke="#B2B2B2" stroke-linecap="round" stroke-linejoin="round"/>
<path d="M221.592 204.402C221.592 204.402 244.392 205.056 264.192 213.834" stroke="#B2B2B2" stroke-linecap="round" stroke-linejoin="round"/>
<path d="M221.004 209.758C221.004 209.758 244.086 210.55 263.67 219.16" stroke="#B2B2B2" stroke-linecap="round" stroke-linejoin="round"/>
<path d="M220.41 215.109C220.41 215.109 243.762 216.045 263.16 224.481" stroke="#B2B2B2" stroke-linecap="round" stroke-linejoin="round"/>
<path d="M219.822 220.469C219.822 220.469 243.432 221.543 262.644 229.805" stroke="#B2B2B2" stroke-linecap="round" stroke-linejoin="round"/>
<path d="M219.228 225.82C219.228 225.82 243.108 227.02 262.128 235.132" stroke="#B2B2B2" stroke-linecap="round" stroke-linejoin="round"/>
<path d="M112.032 93.2392C112.032 93.2392 118.032 86.1893 137.472 85.7812" stroke="#B2B2B2" stroke-linecap="round" stroke-linejoin="round"/>
<path d="M111.3 98.6166C111.3 98.6166 117.3 91.6686 136.77 91.1406" stroke="#B2B2B2" stroke-linecap="round" stroke-linejoin="round"/>
<path d="M110.562 103.998C110.562 103.998 116.562 97.1462 136.068 96.4922" stroke="#B2B2B2" stroke-linecap="round" stroke-linejoin="round"/>
<path d="M109.83 109.378C109.83 109.378 115.83 102.628 135.372 101.848" stroke="#B2B2B2" stroke-linecap="round" stroke-linejoin="round"/>
<path d="M109.098 114.753C109.098 114.753 115.098 108.105 134.67 107.199" stroke="#B2B2B2" stroke-linecap="round" stroke-linejoin="round"/>
<path d="M108.36 120.137C108.36 120.137 114.36 113.585 133.968 112.559" stroke="#B2B2B2" stroke-linecap="round" stroke-linejoin="round"/>
<path d="M107.628 125.512C107.628 125.512 113.628 119.062 133.266 117.91" stroke="#B2B2B2" stroke-linecap="round" stroke-linejoin="round"/>
<path d="M106.896 130.896C106.896 130.896 112.896 124.548 132.57 123.27" stroke="#B2B2B2" stroke-linecap="round" stroke-linejoin="round"/>
<path d="M106.158 136.277C106.158 136.277 112.194 130.025 131.868 128.621" stroke="#B2B2B2" stroke-linecap="round" stroke-linejoin="round"/>
<path d="M105.426 141.654C105.426 141.654 111.462 135.504 131.166 133.98" stroke="#B2B2B2" stroke-linecap="round" stroke-linejoin="round"/>
<path d="M104.694 147.036C104.694 147.006 110.73 140.982 130.464 139.332" stroke="#B2B2B2" stroke-linecap="round" stroke-linejoin="round"/>
<path d="M103.962 152.398C103.962 152.368 109.998 146.452 129.762 144.676" stroke="#B2B2B2" stroke-linecap="round" stroke-linejoin="round"/>
<path d="M103.2 157.799C103.23 157.763 109.242 151.949 129.042 150.047" stroke="#B2B2B2" stroke-linecap="round" stroke-linejoin="round"/>
<path d="M102.492 163.198C102.522 163.156 108.534 157.444 128.364 155.398" stroke="#B2B2B2" stroke-linecap="round" stroke-linejoin="round"/>
<path d="M101.76 168.55C101.79 168.508 107.802 162.898 127.662 160.75" stroke="#B2B2B2" stroke-linecap="round" stroke-linejoin="round"/>
<path d="M101.022 173.933C101.058 173.885 107.07 168.383 126.966 166.133" stroke="#B2B2B2" stroke-linecap="round" stroke-linejoin="round"/>
<path d="M100.29 179.309C100.326 179.261 106.338 173.861 126.264 171.461" stroke="#B2B2B2" stroke-linecap="round" stroke-linejoin="round"/>
<path d="M99.558 184.692C99.594 184.638 105.606 179.34 125.562 176.82" stroke="#B2B2B2" stroke-linecap="round" stroke-linejoin="round"/>
<path d="M98.82 190.074C98.862 190.02 104.874 184.818 124.86 182.172" stroke="#B2B2B2" stroke-linecap="round" stroke-linejoin="round"/>
<path d="M98.088 195.447C98.13 195.393 104.142 190.299 124.164 187.527" stroke="#B2B2B2" stroke-linecap="round" stroke-linejoin="round"/>
<path d="M97.356 200.833C97.398 200.773 103.41 195.781 123.462 192.883" stroke="#B2B2B2" stroke-linecap="round" stroke-linejoin="round"/>
<path d="M96.6 206.206C96.654 206.146 102.66 201.256 122.742 198.238" stroke="#B2B2B2" stroke-linecap="round" stroke-linejoin="round"/>
<path d="M95.886 211.588C95.94 211.522 101.946 206.734 122.058 203.59" stroke="#B2B2B2" stroke-linecap="round" stroke-linejoin="round"/>
<path d="M95.154 216.971C95.208 216.899 101.214 212.219 121.362 208.949" stroke="#B2B2B2" stroke-linecap="round" stroke-linejoin="round"/>
<path d="M94.416 222.347C94.476 222.275 100.488 217.697 120.66 214.301" stroke="#B2B2B2" stroke-linecap="round" stroke-linejoin="round"/>
<path d="M93.684 227.73C93.744 227.652 99.756 223.176 119.958 219.66" stroke="#B2B2B2" stroke-linecap="round" stroke-linejoin="round"/>
<path d="M92.952 233.106C93.012 233.028 99.024 228.654 119.256 225.012" stroke="#B2B2B2" stroke-linecap="round" stroke-linejoin="round"/>
<path d="M145.164 84.1657C145.164 84.1657 159.786 78.9037 173.496 88.2097" stroke="#B2B2B2" stroke-linecap="round" stroke-linejoin="round"/>
<path d="M144.492 89.5065C144.492 89.5065 159.066 84.2745 172.95 93.4905" stroke="#B2B2B2" stroke-linecap="round" stroke-linejoin="round"/>
<path d="M143.82 94.8411C143.82 94.8411 158.346 89.6451 172.404 98.7651" stroke="#B2B2B2" stroke-linecap="round" stroke-linejoin="round"/>
<path d="M143.154 100.198C143.154 100.198 157.632 95.0316 171.858 104.062" stroke="#B2B2B2" stroke-linecap="round" stroke-linejoin="round"/>
<path d="M142.482 105.522C147.281 104.105 152.324 103.711 157.285 104.366C162.246 105.02 167.014 106.708 171.282 109.32" stroke="#B2B2B2" stroke-linecap="round" stroke-linejoin="round"/>
<path d="M141.816 110.862C146.637 109.448 151.7 109.05 156.683 109.693C161.666 110.337 166.462 112.008 170.766 114.6" stroke="#B2B2B2" stroke-linecap="round" stroke-linejoin="round"/>
<path d="M141.144 116.201C145.985 114.794 151.063 114.393 156.065 115.025C161.067 115.657 165.887 117.307 170.226 119.873" stroke="#B2B2B2" stroke-linecap="round" stroke-linejoin="round"/>
<path d="M140.478 121.542C140.478 121.542 154.758 116.496 169.68 125.142" stroke="#B2B2B2" stroke-linecap="round" stroke-linejoin="round"/>
<path d="M139.8 126.882C139.8 126.882 154.032 121.866 169.128 130.428" stroke="#B2B2B2" stroke-linecap="round" stroke-linejoin="round"/>
<path d="M139.14 132.219C139.14 132.219 153.324 127.233 168.588 135.705" stroke="#B2B2B2" stroke-linecap="round" stroke-linejoin="round"/>
<path d="M138.468 137.563C138.468 137.563 152.604 132.613 168.042 140.983" stroke="#B2B2B2" stroke-linecap="round" stroke-linejoin="round"/>
<path d="M137.796 142.897C137.796 142.897 151.884 137.983 167.502 146.263" stroke="#B2B2B2" stroke-linecap="round" stroke-linejoin="round"/>
<path d="M137.13 148.235C137.13 148.235 151.17 143.351 166.956 151.535" stroke="#B2B2B2" stroke-linecap="round" stroke-linejoin="round"/>
<path d="M136.458 153.6C136.458 153.6 150.45 148.746 166.41 156.84" stroke="#B2B2B2" stroke-linecap="round" stroke-linejoin="round"/>
<path d="M135.792 158.917C135.792 158.917 149.73 154.117 165.864 162.091" stroke="#B2B2B2" stroke-linecap="round" stroke-linejoin="round"/>
<path d="M135.12 164.255C135.12 164.255 149.016 159.455 165.318 167.369" stroke="#B2B2B2" stroke-linecap="round" stroke-linejoin="round"/>
<path d="M134.454 169.595C134.454 169.595 148.296 164.831 164.778 172.643" stroke="#B2B2B2" stroke-linecap="round" stroke-linejoin="round"/>
<path d="M133.8 174.934C133.8 174.934 147.6 170.2 164.25 177.934" stroke="#B2B2B2" stroke-linecap="round" stroke-linejoin="round"/>
<path d="M133.116 180.274C133.116 180.274 146.862 175.57 163.686 183.202" stroke="#B2B2B2" stroke-linecap="round" stroke-linejoin="round"/>
<path d="M132.444 185.616C132.444 185.616 146.142 180.942 163.14 188.478" stroke="#B2B2B2" stroke-linecap="round" stroke-linejoin="round"/>
<path d="M131.772 190.954C131.772 190.954 145.422 186.31 162.594 193.756" stroke="#B2B2B2" stroke-linecap="round" stroke-linejoin="round"/>
<path d="M131.106 196.289C131.106 196.289 144.702 191.681 162.054 199.031" stroke="#B2B2B2" stroke-linecap="round" stroke-linejoin="round"/>
<path d="M130.434 201.629C130.434 201.629 143.988 197.057 161.508 204.311" stroke="#B2B2B2" stroke-linecap="round" stroke-linejoin="round"/>
<path d="M129.768 206.999C129.768 206.999 143.268 202.457 160.968 209.615" stroke="#B2B2B2" stroke-linecap="round" stroke-linejoin="round"/>
<path d="M129.096 212.31C129.096 212.31 142.548 207.798 160.416 214.866" stroke="#B2B2B2" stroke-linecap="round" stroke-linejoin="round"/>
<path d="M128.43 217.649C128.43 217.649 141.834 213.167 159.87 220.139" stroke="#B2B2B2" stroke-linecap="round" stroke-linejoin="round"/>
<path d="M127.758 222.991C127.758 222.991 141.114 218.539 159.33 225.421" stroke="#B2B2B2" stroke-linecap="round" stroke-linejoin="round"/>
<path d="M189.954 67.9018L181.596 144.222L189.078 133.668L194.796 139.8L202.716 63.2578C202.716 63.2578 195.672 63.7258 189.954 67.9018Z" fill="#263238" stroke="#263238" stroke-linecap="round" stroke-linejoin="round"/>
<path d="M50.886 273.417C50.886 273.417 50.118 273.705 50.79 274.377C51.462 275.049 54.162 275.535 56.568 275.343C58.6555 275.077 60.6965 274.526 62.634 273.705C63.594 273.321 62.922 271.203 62.922 271.203L50.886 273.417Z" fill="#263238" stroke="#263238" stroke-linecap="round" stroke-linejoin="round"/>
<path d="M55.2 255.916C55.2 255.916 56.646 266.584 56.646 267.064C56.646 267.544 52.89 271.781 51.06 272.741C49.23 273.701 53.952 274.57 55.974 274.378C57.996 274.186 60.978 273.611 61.554 273.227C62.13 272.843 62.808 272.549 62.904 271.205C63 269.861 62.232 265.714 62.232 265.714L62.4 255.562L55.2 255.916Z" fill="white" stroke="#263238" stroke-linecap="round" stroke-linejoin="round"/>
<path d="M62.274 265.859C60.3924 266.285 58.4459 266.338 56.544 266.015C56.616 266.615 56.664 266.981 56.664 267.065C56.3922 267.62 56.0314 268.127 55.596 268.565C56.55 268.391 58.488 268.211 59.724 269.219C60.642 269.969 61.038 271.301 60.888 273.173C60.8824 273.278 60.8987 273.382 60.936 273.479C61.1577 273.422 61.3714 273.338 61.572 273.227C61.8207 273.076 62.0574 272.905 62.28 272.717C62.34 270.659 61.776 269.117 60.588 268.151C60.3169 267.931 60.0209 267.744 59.706 267.593C60.6491 267.552 61.5867 267.427 62.508 267.221C62.4 266.597 62.316 266.093 62.274 265.859Z" fill="#263238"/>
<path d="M58.992 270.333C57.7553 269.589 56.3128 269.261 54.876 269.397C54.408 269.907 53.892 270.435 53.376 270.933C54.834 270.687 56.976 270.591 58.176 271.473C58.5473 271.751 58.846 272.114 59.0466 272.532C59.2472 272.95 59.3438 273.41 59.328 273.873C59.328 273.873 59.328 273.873 59.328 273.903C59.832 273.801 60.3 273.693 60.678 273.585C60.6608 272.951 60.5002 272.329 60.2082 271.766C59.9162 271.203 59.5004 270.713 58.992 270.333Z" fill="#263238"/>
<path d="M88.53 272.764C88.4391 272.825 88.3618 272.905 88.3026 272.997C88.2434 273.09 88.2036 273.193 88.1856 273.302C88.1677 273.41 88.1719 273.521 88.1981 273.627C88.2243 273.734 88.2719 273.834 88.338 273.922C88.818 274.594 90.552 274.594 91.512 274.594C92.472 274.594 97.482 274.69 97.482 274.69C97.482 274.69 104.796 274.594 105.882 274.306C106.968 274.018 107.034 273.442 106.65 273.148C106.295 272.968 105.893 272.901 105.498 272.956C103.74 273.167 101.965 273.199 100.2 273.052C98.082 272.764 91.728 272.86 90.768 272.764C90.023 272.709 89.275 272.709 88.53 272.764Z" fill="#263238" stroke="#263238" stroke-linecap="round" stroke-linejoin="round"/>
<path d="M85.122 256.362C85.122 256.362 88.338 266.028 88.434 266.508C88.5776 267.502 88.6418 268.505 88.626 269.508C88.626 270.852 87.756 272.298 89.298 273.258C90.84 274.218 95.076 273.552 97.194 273.744C99.3736 273.889 101.56 273.889 103.74 273.744C106.626 273.648 107.688 272.106 107.01 271.818C106.332 271.53 106.05 272.298 102.87 270.468C99.69 268.638 94.11 265.944 93.918 265.368C93.726 264.792 92.67 256.32 92.67 256.32L85.122 256.362Z" fill="white" stroke="#263238" stroke-linecap="round" stroke-linejoin="round"/>
<path d="M99.6 268.668C98.9978 270.319 98.697 272.065 98.712 273.822C99.168 273.822 99.624 273.822 100.092 273.822C100.083 272.288 100.331 270.763 100.824 269.31L99.6 268.668Z" fill="#263238"/>
<path d="M92.838 273.779C93.0819 271.151 94.1057 268.656 95.778 266.615C95.298 266.345 94.884 266.099 94.578 265.895C92.7834 268.145 91.7012 270.88 91.47 273.749C91.896 273.779 92.358 273.785 92.838 273.779Z" fill="#263238"/>
<path d="M93.918 265.354C93.888 265.264 93.84 264.982 93.774 264.574C91.9456 265.098 90.0591 265.392 88.158 265.45C88.314 266.02 88.416 266.416 88.434 266.506L88.482 266.824C90.5017 266.746 92.5025 266.406 94.434 265.81C94.2315 265.697 94.0556 265.541 93.918 265.354Z" fill="#263238"/>
<path d="M77.556 120.684C77.556 120.684 78.012 124.776 78.864 126.534C79.716 128.292 81.762 129.72 81.264 133.356C80.766 136.992 78.078 138.87 76.656 139.158C75.8676 139.326 75.062 139.401 74.256 139.38L74.538 143.418C76.8703 143.33 79.2041 143.548 81.48 144.066C84.444 144.888 89.28 146.532 91.428 146.862C93.576 147.192 101.784 147.612 103.428 149.418C105.072 151.224 104.658 152.874 103.674 153.858C102.69 154.842 97.512 154.59 90.69 154.59H83.874C83.874 154.59 85.434 158.616 85.188 161.496C84.942 164.376 82.476 169.47 82.476 169.47C82.476 169.47 82.722 175.224 83.214 179.67C83.706 184.116 83.814 186.984 83.814 186.984C83.814 186.984 86.526 205.314 89.73 217.482C92.934 229.65 92.61 247.812 93.432 251.016C94.254 254.22 94.722 257.4 94.722 257.4C94.722 257.4 86.832 258.96 84.036 259.128C82.6684 259.226 81.2965 259.254 79.926 259.212L78.282 243.18C78.282 243.18 75.078 221.892 74.91 221.58C74.742 221.268 70.146 205.632 70.146 205.632L67.266 233.4L64.554 258.714L52.2 257.178L52.446 226.518C52.446 226.518 51.792 208.68 51.954 201.282C52.116 193.884 54.42 187.308 56.472 184.674C58.524 182.04 63.624 174.474 63.624 174.474L62.724 169.296L57.924 159.846C57.924 159.846 46.872 167.79 44.982 169.11C43.092 170.43 40.782 169.44 40.182 166.314C39.582 163.188 54.276 150.228 56.58 148.584C58.884 146.94 66.78 142.5 66.78 142.5L66.45 138.552C66.45 138.552 63.654 137.652 62.67 135.432C61.686 133.212 65.298 130.416 65.382 128.61C65.466 126.804 64.068 123.51 66.366 122.688C68.664 121.866 77.556 120.684 77.556 120.684Z" fill="white" stroke="#263238" stroke-linecap="round" stroke-linejoin="round"/>
<path d="M79.926 259.235C81.2965 259.278 82.6684 259.25 84.036 259.151C86.832 258.983 94.722 257.423 94.722 257.423C94.722 257.423 94.23 254.219 93.408 251.009C92.586 247.799 92.916 229.637 89.706 217.475C86.496 205.313 83.79 186.977 83.79 186.977C83.79 186.977 83.706 184.097 83.19 179.663C82.98 177.791 82.818 175.685 82.698 173.879L63.552 174.047L63.624 174.479C63.624 174.479 58.53 182.045 56.472 184.679C54.414 187.313 52.116 193.889 51.954 201.287C51.792 208.685 52.446 226.523 52.446 226.523L52.2 257.177L64.53 258.737L67.266 233.399L70.146 205.613C70.146 205.613 74.748 221.213 74.91 221.561C75.072 221.909 78.282 243.161 78.282 243.161L79.926 259.235Z" fill="#106FA4" stroke="#263238" stroke-linecap="round" stroke-linejoin="round"/>
<path d="M76.242 180.268L82.11 180.184" stroke="#263238" stroke-linecap="round" stroke-linejoin="round"/>
<path d="M67.746 180.395L74.796 180.293" stroke="#263238" stroke-linecap="round" stroke-linejoin="round"/>
<path d="M78.894 180.285L80.292 192.615" stroke="#263238" stroke-linecap="round" stroke-linejoin="round"/>
<path d="M79.86 181.895L83.076 196.373" stroke="#263238" stroke-linecap="round" stroke-linejoin="round"/>
<path d="M66.78 181.469L63.996 191.975" stroke="#263238" stroke-linecap="round" stroke-linejoin="round"/>
<path d="M65.982 194.395L65.814 196.051" stroke="#263238" stroke-linecap="round" stroke-linejoin="round"/>
<path d="M67.104 183.184L66.18 192.406" stroke="#263238" stroke-linecap="round" stroke-linejoin="round"/>
<path d="M69.786 126.077C70.1377 125.732 70.559 125.468 71.0216 125.3C71.4843 125.132 71.9775 125.066 72.468 125.105" stroke="#263238" stroke-miterlimit="10"/>
<path d="M75.894 123.798C76.2882 123.346 76.8394 123.061 77.436 123" stroke="#263238" stroke-miterlimit="10"/>
<path d="M81.702 126.203C81.702 126.781 81.5306 127.346 81.2096 127.827C80.8885 128.307 80.4321 128.682 79.8982 128.903C79.3643 129.124 78.7768 129.182 78.21 129.069C77.6431 128.956 77.1225 128.678 76.7138 128.269C76.3052 127.861 76.0269 127.34 75.9141 126.773C75.8014 126.206 75.8593 125.619 76.0804 125.085C76.3016 124.551 76.6761 124.095 77.1566 123.774C77.6371 123.453 78.2021 123.281 78.78 123.281C79.555 123.281 80.2982 123.589 80.8462 124.137C81.3941 124.685 81.702 125.428 81.702 126.203Z" stroke="#263238" stroke-linecap="round" stroke-linejoin="round"/>
<path d="M74.334 132.973C74.8655 133.28 75.4573 133.467 76.0684 133.523C76.6796 133.579 77.2956 133.502 77.874 133.297" stroke="#263238" stroke-linecap="round" stroke-linejoin="round"/>
<path d="M74.91 128.65C74.91 129.227 74.739 129.791 74.4186 130.27C74.0981 130.75 73.6427 131.124 73.1099 131.344C72.5771 131.565 71.9908 131.623 71.4251 131.51C70.8595 131.398 70.3399 131.12 69.9321 130.712C69.5243 130.304 69.2465 129.785 69.134 129.219C69.0215 128.654 69.0793 128.067 69.3 127.534C69.5207 127.002 69.8944 126.546 70.374 126.226C70.8535 125.905 71.4173 125.734 71.994 125.734C72.7674 125.734 73.5091 126.042 74.0559 126.588C74.6028 127.135 74.91 127.877 74.91 128.65Z" stroke="#263238" stroke-linecap="round" stroke-linejoin="round"/>
<path d="M73.344 128.481C73.434 128.997 73.296 129.453 73.026 129.501C72.756 129.549 72.468 129.171 72.372 128.661C72.276 128.151 72.42 127.689 72.69 127.641C72.96 127.593 73.248 127.965 73.344 128.481Z" fill="#263238"/>
<path d="M78.132 126.773C78.228 127.283 78.09 127.739 77.82 127.787C77.55 127.835 77.256 127.463 77.166 126.947C77.076 126.431 77.214 125.981 77.478 125.927C77.742 125.873 78.042 126.257 78.132 126.773Z" fill="#263238"/>
<path d="M69.24 129.684L64.884 131.736" stroke="#263238" stroke-linecap="round" stroke-linejoin="round"/>
<path d="M74.832 127.799C74.9329 127.649 75.0707 127.527 75.2321 127.445C75.3936 127.364 75.5732 127.325 75.7539 127.333C75.9345 127.341 76.1101 127.395 76.2639 127.49C76.4177 127.585 76.5444 127.718 76.632 127.877" stroke="#263238" stroke-linecap="round" stroke-linejoin="round"/>
<path d="M75.6 127.047C75.8508 127.436 76.228 127.726 76.668 127.869C77.328 128.037 79.218 128.199 79.068 129.105C79.0064 129.477 78.8544 129.829 78.6253 130.129C78.3963 130.43 78.0971 130.669 77.754 130.827" stroke="#263238" stroke-linecap="round" stroke-linejoin="round"/>
<path d="M66.246 123.869C66.246 123.869 66.756 127.265 66.33 129.479C65.904 131.693 64.038 132.533 64.29 134.321C64.542 136.109 67.29 138.737 67.29 138.737C66.5644 139.611 65.6558 140.314 64.6284 140.799C63.601 141.283 62.4798 141.535 61.344 141.539C57.324 141.599 54 140.093 54 133.385C54 126.677 54.936 119.111 59.778 116.735C64.62 114.359 73.71 115.289 75.75 116.057C77.79 116.825 80.082 119.453 79.314 120.725C78.546 121.997 69.642 124.295 66.246 123.869Z" fill="#263238" stroke="#263238" stroke-linecap="round" stroke-linejoin="round"/>
<path d="M66.198 132.805C66.198 132.805 63.732 130.669 62.748 131.737C61.764 132.805 62.994 134.695 63.894 135.763C64.0367 135.949 64.2219 136.099 64.4341 136.199C64.6462 136.3 64.8794 136.348 65.1141 136.341C65.3488 136.333 65.5782 136.27 65.7835 136.155C65.9887 136.041 66.1637 135.88 66.294 135.685" fill="white"/>
<path d="M66.198 132.805C66.198 132.805 63.732 130.669 62.748 131.737C61.764 132.805 62.994 134.695 63.894 135.763C64.0367 135.949 64.2219 136.099 64.4341 136.199C64.6462 136.3 64.8794 136.348 65.1141 136.341C65.3488 136.333 65.5782 136.27 65.7835 136.155C65.9887 136.041 66.1637 135.88 66.294 135.685" stroke="#263238" stroke-linecap="round" stroke-linejoin="round"/>
<path d="M74.262 139.384L71.334 138.988L74.424 142.714L74.262 139.384Z" fill="#263238" stroke="#263238" stroke-linecap="round" stroke-linejoin="round"/>
<path d="M101.49 153.678C100.328 153.541 99.2156 153.13 98.244 152.478C96.816 151.446 96.264 148.278 94.998 145.98C93.732 143.682 87.198 132.486 87.198 132.486C86.5612 132.456 85.9422 132.267 85.398 131.934C84.528 131.376 83.658 130.662 82.314 130.506C80.97 130.35 80.25 130.584 79.776 130.428C79.302 130.272 79.62 128.922 80.73 128.628C81.84 128.334 83.502 128.946 83.502 128.946C83.5869 128.095 83.5054 127.235 83.262 126.414C82.866 125.382 81.522 124.194 80.568 123.642C79.614 123.09 78.588 123.084 78.984 122.532C79.38 121.98 79.938 121.818 81.126 121.974C82.314 122.13 84.372 124.272 84.372 124.272C84.372 124.272 86.172 125.7 86.586 125.7C87 125.7 88.65 125.622 89.442 126.9C90.234 128.178 90.942 130.86 90.864 131.574C90.8178 132.021 90.8178 132.472 90.864 132.918C90.864 132.918 99.798 143.328 101.664 145.146C103.53 146.964 104.832 151.146 104.514 152.196C104.335 152.799 104.059 153.368 103.698 153.882" fill="white"/>
<path d="M101.49 153.678C100.328 153.541 99.2156 153.13 98.244 152.478C96.816 151.446 96.264 148.278 94.998 145.98C93.732 143.682 87.198 132.486 87.198 132.486C86.5612 132.456 85.9422 132.267 85.398 131.934C84.528 131.376 83.658 130.662 82.314 130.506C80.97 130.35 80.25 130.584 79.776 130.428C79.302 130.272 79.62 128.922 80.73 128.628C81.84 128.334 83.502 128.946 83.502 128.946C83.5869 128.095 83.5054 127.235 83.262 126.414C82.866 125.382 81.522 124.194 80.568 123.642C79.614 123.09 78.588 123.084 78.984 122.532C79.38 121.98 79.938 121.818 81.126 121.974C82.314 122.13 84.372 124.272 84.372 124.272C84.372 124.272 86.172 125.7 86.586 125.7C87 125.7 88.65 125.622 89.442 126.9C90.234 128.178 90.942 130.86 90.864 131.574C90.8178 132.021 90.8178 132.472 90.864 132.918C90.864 132.918 99.798 143.328 101.664 145.146C103.53 146.964 104.832 151.146 104.514 152.196C104.335 152.799 104.059 153.368 103.698 153.882" stroke="#263238" stroke-linecap="round" stroke-linejoin="round"/>
<path d="M86.22 124.799C86.1294 124.607 85.991 124.442 85.818 124.319C84.618 123.443 84.138 125.141 84.174 125.927C84.2273 126.55 84.3877 127.159 84.648 127.727C84.732 127.931 84.876 128.165 85.11 128.153C85.1673 128.149 85.2232 128.134 85.2739 128.107C85.3246 128.08 85.369 128.042 85.404 127.997C85.848 127.499 85.47 126.731 85.722 126.137C85.866 125.789 86.226 125.537 86.274 125.153C86.2866 125.032 86.268 124.91 86.22 124.799Z" fill="white" stroke="#263238" stroke-linecap="round" stroke-linejoin="round"/>
<path d="M87.804 124.883C87.7134 124.691 87.575 124.525 87.402 124.403C86.202 123.533 85.722 125.225 85.758 126.011C85.8112 126.633 85.9716 127.242 86.232 127.811C86.316 128.009 86.46 128.249 86.694 128.237C86.7514 128.231 86.8071 128.214 86.8576 128.186C86.9082 128.158 86.9525 128.12 86.988 128.075C87.432 127.583 87.054 126.815 87.306 126.221C87.45 125.873 87.81 125.621 87.858 125.231C87.8688 125.112 87.8503 124.992 87.804 124.883Z" fill="white" stroke="#263238" stroke-linecap="round" stroke-linejoin="round"/>
<path d="M89.262 125.544C89.1823 125.371 89.058 125.221 88.902 125.112C87.84 124.32 87.384 125.856 87.414 126.564C87.4606 127.134 87.6047 127.692 87.84 128.214C87.918 128.394 88.05 128.61 88.26 128.598C88.3124 128.593 88.3633 128.578 88.4097 128.553C88.4561 128.529 88.497 128.495 88.53 128.454C88.932 128.01 88.584 127.314 88.812 126.774C88.944 126.462 89.268 126.216 89.316 125.88C89.328 125.765 89.3093 125.649 89.262 125.544Z" fill="white" stroke="#263238" stroke-linecap="round" stroke-linejoin="round"/>
<path d="M86.934 129.73C87.0155 130.43 87.2293 131.108 87.564 131.728C87.9728 132.144 88.5235 132.391 89.106 132.418" stroke="#263238" stroke-linecap="round" stroke-linejoin="round"/>
<path d="M82.476 169.468C82.476 169.468 84.942 164.368 85.188 161.494C85.434 158.62 83.874 154.588 83.874 154.588C83.874 154.588 79.206 145.732 77.874 143.494C77.22 143.44 76.62 143.416 76.074 143.41C76.6478 144.235 77.1363 145.115 77.532 146.038C77.778 146.944 79.836 152.116 79.836 152.116L74.658 157.288L66.654 153.598C66.3381 151.295 65.6745 149.054 64.686 146.95C64.2632 146.117 63.782 145.315 63.246 144.55L62.202 145.15C62.5383 145.611 62.8468 146.092 63.126 146.59C64.518 149.056 64.848 154.06 64.848 154.06C64.848 154.06 61.728 158.416 60.99 160.714C60.6768 161.677 60.2938 162.615 59.844 163.522L62.748 169.276L63.18 171.748L82.506 170.146C82.488 169.726 82.476 169.468 82.476 169.468Z" fill="#106FA4" stroke="#263238" stroke-linecap="round" stroke-linejoin="round"/>
<path d="M43.488 161.363C43.488 161.363 39.126 164.825 39.054 166.661C38.982 168.497 53.808 182.063 54.942 182.861C56.076 183.659 57.132 183.917 57.768 183.635C58.404 183.353 62.004 181.307 62.004 181.307C62.004 181.307 66.378 180.953 66.66 180.533C66.942 180.113 66.732 180.035 65.886 179.963C65.04 179.891 63.978 179.681 63.768 179.681C63.558 179.681 62.496 179.543 62.496 179.543C62.496 179.543 67.23 177.779 67.512 177.707C67.794 177.635 69.066 177.563 68.85 177.071C68.634 176.579 67.296 175.871 66.096 175.517C64.896 175.163 61.932 174.881 61.086 175.517C60.24 176.153 56.85 180.107 56.85 180.107C55.2298 178.257 54.0048 176.094 53.25 173.753C52.05 169.937 47.394 164.627 45.84 163.553" fill="white"/>
<path d="M43.488 161.363C43.488 161.363 39.126 164.825 39.054 166.661C38.982 168.497 53.808 182.063 54.942 182.861C56.076 183.659 57.132 183.917 57.768 183.635C58.404 183.353 62.004 181.307 62.004 181.307C62.004 181.307 66.378 180.953 66.66 180.533C66.942 180.113 66.732 180.035 65.886 179.963C65.04 179.891 63.978 179.681 63.768 179.681C63.558 179.681 62.496 179.543 62.496 179.543C62.496 179.543 67.23 177.779 67.512 177.707C67.794 177.635 69.066 177.563 68.85 177.071C68.634 176.579 67.296 175.871 66.096 175.517C64.896 175.163 61.932 174.881 61.086 175.517C60.24 176.153 56.85 180.107 56.85 180.107C55.2298 178.257 54.0048 176.094 53.25 173.753C52.05 169.937 47.394 164.627 45.84 163.553" stroke="#263238" stroke-linecap="round" stroke-linejoin="round"/>
<path d="M62.286 178.043C62.286 178.043 64.05 177.407 65.322 176.981C66.594 176.555 67.578 176.207 68.214 176.627" stroke="#263238" stroke-linecap="round" stroke-linejoin="round"/>
<path d="M61.722 176.7C63.1228 176.115 64.5928 175.712 66.096 175.5" stroke="#263238" stroke-linecap="round" stroke-linejoin="round"/>
<path d="M61.296 175.992C61.9333 175.595 62.6216 175.286 63.342 175.074" stroke="#263238" stroke-linecap="round" stroke-linejoin="round"/>
</svg>
