<svg width="450" height="300" viewBox="0 0 450 300" fill="none" xmlns="http://www.w3.org/2000/svg">
<path d="M420.258 73.3568C409.517 58.2899 395.304 46.0321 378.822 37.6208C356.706 26.4008 321.738 11.1128 295.752 11.5808C254.766 12.3128 162.552 62.6528 114.336 72.2288C66.12 81.8048 -4.72198 117.559 10.02 190.339C24.762 263.119 63.876 284.821 138.714 275.245C213.552 265.669 240.192 256.093 300.858 268.201C361.524 280.309 431.25 272.053 438.6 185.233C444 121.663 436.044 95.4008 420.258 73.3568Z" fill="#106FA4"/>
<path opacity="0.7" d="M420.258 73.3568C409.517 58.2899 395.304 46.0321 378.822 37.6208C356.706 26.4008 321.738 11.1128 295.752 11.5808C254.766 12.3128 162.552 62.6528 114.336 72.2288C66.12 81.8048 -4.72198 117.559 10.02 190.339C24.762 263.119 63.876 284.821 138.714 275.245C213.552 265.669 240.192 256.093 300.858 268.201C361.524 280.309 431.25 272.053 438.6 185.233C444 121.663 436.044 95.4008 420.258 73.3568Z" fill="white"/>
<path d="M54.654 76.1016L56.274 95.8236C56.274 95.8236 42.216 93.5196 38.49 100.978C34.764 108.436 34.758 127.93 43.464 138.292C49.734 145.762 56.436 142.684 59.694 140.38L61.386 161.926C61.386 169.972 76.842 184.792 95.91 184.792C114.978 184.792 130.434 169.972 130.434 161.926L137.16 76.1256L54.654 76.1016ZM48.438 129.598C43.038 125.038 45.948 105.136 48.438 102.652C50.28 100.804 54.636 102.154 56.76 102.976L58.986 131.356C56.208 132.046 51.828 132.46 48.438 129.598Z" fill="#263238"/>
<path d="M95.91 185.093C77.358 185.093 61.11 170.657 61.11 161.927L59.46 140.927C55.86 143.327 49.374 145.781 43.26 138.497C34.74 128.345 34.344 108.665 38.25 100.853C41.736 93.8872 53.64 95.1532 55.974 95.4532L54.36 75.7852H137.484V76.1092L130.758 161.909C130.734 170.657 114.456 185.093 95.91 185.093ZM59.952 139.829L61.68 161.903C61.68 169.451 76.482 184.493 95.91 184.493C115.338 184.493 130.11 169.451 130.11 161.927L136.812 76.4032H54.984L56.604 96.2032L56.22 96.1432C56.082 96.1432 42.348 93.9592 38.754 101.141C34.92 108.809 35.31 128.141 43.692 138.125C49.758 145.325 56.214 142.499 59.52 140.159L59.952 139.829ZM55.056 132.161C52.5771 132.228 50.1579 131.394 48.246 129.815C45.918 127.853 45.246 123.389 45.126 119.993C44.82 112.649 46.602 104.051 48.228 102.425C50.154 100.493 54.468 101.759 56.868 102.683L57.048 102.749L59.304 131.549L59.058 131.609C57.7518 131.957 56.4076 132.143 55.056 132.161ZM48.63 129.359C51.768 132.011 55.776 131.801 58.668 131.111L56.478 103.199C54.558 102.479 50.352 101.177 48.678 102.875C47.124 104.399 45.432 112.955 45.726 119.999C45.918 124.697 46.926 127.943 48.63 129.389V129.359Z" fill="#263238"/>
<path d="M95.91 93.5154C118.692 93.5154 137.16 85.7198 137.16 76.1034C137.16 66.487 118.692 58.6914 95.91 58.6914C73.1282 58.6914 54.66 66.487 54.66 76.1034C54.66 85.7198 73.1282 93.5154 95.91 93.5154Z" fill="white"/>
<path d="M95.91 93.8206C72.996 93.8206 54.354 85.8706 54.354 76.1026C54.354 66.3346 72.996 58.3906 95.91 58.3906C118.824 58.3906 137.46 66.3406 137.46 76.1026C137.46 85.8646 118.8 93.8206 95.91 93.8206ZM95.91 58.9906C73.326 58.9906 54.954 66.6706 54.954 76.1026C54.954 85.5346 73.326 93.2206 95.91 93.2206C118.494 93.2206 136.86 85.5406 136.86 76.1026C136.86 66.6646 118.488 58.9906 95.91 58.9906Z" fill="#263238"/>
<path d="M95.91 91.5934C116.18 91.5934 132.612 84.6574 132.612 76.1014C132.612 67.5454 116.18 60.6094 95.91 60.6094C75.6401 60.6094 59.208 67.5454 59.208 76.1014C59.208 84.6574 75.6401 91.5934 95.91 91.5934Z" fill="white"/>
<path d="M95.91 91.9025C75.51 91.9025 58.902 84.8165 58.902 76.1045C58.902 67.3925 75.504 60.3125 95.91 60.3125C116.316 60.3125 132.912 67.3985 132.912 76.1045C132.912 84.8105 116.31 91.9025 95.91 91.9025ZM95.91 60.9125C75.834 60.9125 59.502 67.7285 59.502 76.1045C59.502 84.4805 75.834 91.3025 95.91 91.3025C115.986 91.3025 132.312 84.4865 132.312 76.1045C132.312 67.7225 115.98 60.9125 95.91 60.9125Z" fill="#263238"/>
<path d="M95.91 91.5963C110.152 91.5963 121.698 89.595 121.698 87.1263C121.698 84.6575 110.152 82.6562 95.91 82.6562C81.6677 82.6562 70.122 84.6575 70.122 87.1263C70.122 89.595 81.6677 91.5963 95.91 91.5963Z" fill="#106FA4"/>
<path d="M95.91 91.9015C86.154 91.9015 76.956 90.3055 70.002 87.4015L69.342 87.1255L70.002 86.8495C76.956 83.9515 86.154 82.3555 95.91 82.3555C105.666 82.3555 114.864 83.9515 121.812 86.8495L122.478 87.1255L121.812 87.4015C114.864 90.3055 105.66 91.9015 95.91 91.9015ZM70.914 87.1015C77.712 89.7955 86.55 91.3015 95.91 91.3015C105.27 91.3015 114.108 89.8195 120.9 87.1015C114.108 84.4075 105.27 82.9015 95.91 82.9015C86.55 82.9015 77.712 84.4315 70.914 87.1255V87.1015Z" fill="#263238"/>
<path d="M241.8 121.947C241.8 121.947 261.42 168.543 266.142 171.009C270.864 173.475 409.296 161.457 409.296 161.457L405.366 157.083L405.18 126.927L410.358 126.699L357.474 57.0508L237.978 65.7808C237.978 65.7808 231.6 70.1968 230.712 74.0608C229.824 77.9248 230.052 83.7028 230.052 83.7028L241.8 121.947Z" fill="#263238"/>
<path d="M270.768 171.6C268.134 171.6 266.472 171.492 266.01 171.252C261.246 168.768 242.328 123.948 241.53 122.052V122.022L229.752 83.7602V83.7182C229.752 83.6582 229.566 77.8322 230.418 73.9982C231.27 70.1642 237.54 65.7182 237.81 65.5322L237.876 65.4902H237.954L357.6 56.7422L357.696 56.8742L410.94 126.972L405.48 127.218L405.666 156.972L409.92 161.706L409.32 161.754C404.214 162.198 295.338 171.6 270.768 171.6ZM242.088 121.8C248.862 137.886 262.626 168.786 266.286 170.694C269.946 172.602 360.666 165.324 408.672 161.16L405.072 157.152V157.038L404.886 126.594L409.776 126.378L357.336 57.3662L238.086 66.0722C237.408 66.5582 231.78 70.6562 231.006 74.1302C230.202 77.7302 230.334 83.1302 230.346 83.6582L242.088 121.8Z" fill="#263238"/>
<path d="M405.18 126.93L269.4 137.862C267.348 139.215 265.62 141.005 264.339 143.103C263.058 145.201 262.256 147.556 261.99 150C260.994 158.478 264.42 167.088 266.97 168.324C268.828 169.119 270.813 169.572 272.832 169.662L405.366 157.062L405.18 126.93Z" fill="#E0E0E0"/>
<path d="M272.862 169.966C270.795 169.879 268.762 169.415 266.862 168.598C264.12 167.266 260.724 158.398 261.714 149.998C261.992 147.511 262.811 145.115 264.112 142.977C265.414 140.84 267.168 139.014 269.25 137.626L269.376 137.584L405.48 126.598L405.672 157.348L405.396 157.378L272.862 169.966ZM269.466 138.166C267.478 139.509 265.805 141.267 264.563 143.319C263.32 145.371 262.536 147.668 262.266 150.052C261.264 158.62 264.834 166.978 267.066 168.052C268.886 168.828 270.831 169.271 272.808 169.36L405.03 156.808L404.844 127.246L269.466 138.166Z" fill="#263238"/>
<path d="M267 21.6811L212.226 97.3111C212.226 97.3111 209.226 100.251 209.382 107.457C209.538 114.663 209.892 126.417 212.034 127.257C214.176 128.097 372.672 140.097 372.672 140.097L409.272 55.5751L406.416 54.3751L407.4 33.5371L409.8 26.7931L271.026 20.2891L267 21.6811Z" fill="#106FA4"/>
<path d="M372.864 140.398H372.648C366.174 139.912 214.092 128.356 211.932 127.528C210.198 126.862 209.346 120.862 209.082 107.47C208.938 100.216 211.89 97.2284 212.016 97.1024L266.814 21.4304L270.978 19.9844H271.038L410.196 26.5124L407.7 33.5984L406.716 54.1544L409.656 55.4144L409.536 55.6964L372.864 140.398ZM267.186 21.9344L212.466 97.4864C212.406 97.5524 209.544 100.486 209.682 107.452C209.772 112.078 210.054 126.16 212.142 126.964C214.2 127.63 317.784 135.628 372.48 139.798L408.87 55.7324L406.098 54.5324L407.118 33.4304L409.362 27.0584L271.068 20.5904L267.186 21.9344Z" fill="#263238"/>
<path d="M217.152 99.4671C217.152 99.4671 212.196 97.9311 210.786 102.695C209.376 107.459 212.844 124.721 212.844 124.721C212.844 124.721 215.802 125.957 217.164 125.999C218.526 126.041 371.046 136.109 371.046 136.109L406.404 54.3531L407.4 33.5391L373.572 106.799L217.152 99.4671Z" fill="white"/>
<path d="M371.238 136.422H371.028C369.504 136.32 218.49 126.348 217.152 126.312C215.814 126.276 212.85 125.064 212.724 125.016L212.58 124.95L212.55 124.794C212.406 124.086 209.088 107.394 210.504 102.624C210.661 101.976 210.949 101.368 211.35 100.836C211.752 100.305 212.258 99.8615 212.838 99.5336C214.205 98.8967 215.755 98.7711 217.206 99.1796L373.386 106.506L407.772 32.0156L406.68 54.4676L371.238 136.422ZM213.102 124.506C213.702 124.752 216.048 125.664 217.17 125.706C218.508 125.742 362.118 135.228 370.854 135.804L406.11 54.2816L407.028 35.0816L373.764 107.112H373.56L217.104 99.7616H217.062C215.755 99.3905 214.358 99.4947 213.12 100.056C212.612 100.349 212.169 100.742 211.817 101.211C211.466 101.68 211.213 102.216 211.074 102.786C209.778 107.178 212.766 122.766 213.102 124.506Z" fill="#263238"/>
<path d="M370.074 106.637L217.152 99.4665C217.152 99.4665 212.196 97.9305 210.786 102.695C209.376 107.459 212.844 124.721 212.844 124.721C212.844 124.721 215.802 125.957 217.164 125.999C218.526 126.041 371.046 136.109 371.046 136.109L370.836 107.309L370.074 106.637Z" fill="#E0E0E0"/>
<path d="M371.352 136.427H371.028C369.504 136.325 218.49 126.353 217.152 126.317C215.814 126.281 212.85 125.069 212.724 125.021L212.58 124.955L212.55 124.799C212.406 124.091 209.088 107.399 210.504 102.629C210.661 101.981 210.949 101.373 211.35 100.842C211.752 100.31 212.258 99.8667 212.838 99.5388C214.205 98.9019 215.755 98.7763 217.206 99.1849L370.206 106.385L371.148 107.189V107.327L371.352 136.427ZM213.102 124.505C213.702 124.751 216.048 125.663 217.17 125.705C218.502 125.741 360.972 135.149 370.77 135.791L370.56 107.435L369.96 106.937L217.104 99.7609H217.062C215.755 99.3897 214.358 99.4939 213.12 100.055C212.612 100.348 212.169 100.741 211.817 101.21C211.466 101.68 211.213 102.215 211.074 102.785C209.778 107.177 212.766 122.765 213.102 124.505Z" fill="#263238"/>
<path d="M237.696 254.401C237.696 254.401 243.3 262.483 249.156 262.357C288.192 261.505 355.512 280.201 363.324 280.201C371.136 280.201 376.944 279.511 376.944 277.849C376.944 276.187 349.47 167.449 349.47 167.449L344.022 165.793L362.73 271.909C362.73 271.909 339.516 268.597 292.62 260.779C245.724 252.961 247.62 246.379 241.956 247.543C236.292 248.707 237.696 254.401 237.696 254.401Z" fill="#106FA4"/>
<path d="M363.324 280.49C360.96 280.49 353.28 278.816 342.654 276.5C317.91 271.1 276.48 262.052 249.162 262.7H249C243.108 262.7 237.666 254.948 237.438 254.618L237.39 254.516C237.39 254.408 236.742 251.828 238.074 249.716C238.509 249.074 239.072 248.53 239.728 248.117C240.383 247.704 241.118 247.431 241.884 247.316C243.924 246.896 245.04 247.424 247.476 248.588C252.126 250.802 261.798 255.404 292.656 260.552C335.688 267.752 359.04 271.142 362.352 271.622L343.626 165.422L349.704 167.276L349.746 167.438C350.868 171.878 377.232 276.218 377.232 277.892C377.232 279.566 372.564 280.49 363.324 280.49ZM251.844 262.046C279.216 262.046 318.81 270.68 342.78 275.912C353.37 278.222 361.02 279.89 363.324 279.89C373.146 279.89 376.644 278.834 376.644 277.838C376.56 276.224 358.692 205.202 349.2 167.696L344.4 166.232L363.102 272.276L362.688 272.216C362.46 272.18 338.934 268.808 292.572 261.08C261.624 255.926 251.904 251.294 247.23 249.08C244.83 247.946 243.858 247.472 242.022 247.88C241.332 247.982 240.671 248.226 240.08 248.597C239.489 248.968 238.982 249.457 238.59 250.034C237.883 251.348 237.67 252.872 237.99 254.33C238.458 254.984 243.78 262.226 249.168 262.13C250.032 262.052 250.932 262.046 251.844 262.046Z" fill="#263238"/>
<path d="M368.892 277.363C360.84 276.889 345.174 272.815 306.492 264.877C267.81 256.939 238.848 252.133 238.848 252.133L238.032 254.923C239.37 256.681 244.158 262.483 249.126 262.375C288.192 261.505 355.512 280.201 363.324 280.201C371.136 280.201 376.944 279.511 376.944 277.849C376.944 277.705 372.906 277.603 368.892 277.363Z" fill="#263238"/>
<path d="M363.324 280.488C360.96 280.488 353.28 278.814 342.654 276.498C317.91 271.098 276.492 262.056 249.162 262.698C244.038 262.83 239.196 256.932 237.822 255.126L237.732 255.006L238.662 251.82L238.926 251.862C239.214 251.91 268.374 256.764 306.582 264.606C320.43 267.45 331.272 269.784 339.978 271.662C355.314 274.968 363.762 276.786 368.91 277.062C370.44 277.152 371.982 277.224 373.296 277.284C377.244 277.47 377.244 277.47 377.244 277.836C377.244 279.6 372.564 280.488 363.324 280.488ZM251.844 262.044C279.216 262.044 318.81 270.678 342.78 275.91C353.37 278.22 361.02 279.888 363.324 279.888C372.39 279.888 376.068 278.988 376.578 278.088C376.026 278.028 374.676 277.968 373.266 277.902C371.952 277.842 370.41 277.77 368.874 277.68C363.684 277.374 355.218 275.55 339.852 272.244C331.146 270.366 320.304 268.044 306.462 265.188C270.192 257.742 242.088 252.996 239.088 252.492L238.392 254.892C239.82 256.746 244.35 262.092 249.018 262.092H249.15C250.032 262.05 250.932 262.044 251.844 262.044Z" fill="#263238"/>
<path d="M111.204 163.199C111.204 163.199 108.36 164.147 107.892 166.277C107.424 168.407 80.178 277.607 82.782 277.877C85.386 278.147 228.93 279.077 230.586 277.403C232.242 275.729 237.696 254.399 237.696 254.399L225.6 270.761L101.01 267.683L115.932 165.827L111.204 163.199Z" fill="#106FA4"/>
<path d="M172.746 278.69C131.592 278.69 83.532 278.24 82.746 278.168C82.6871 278.163 82.6301 278.145 82.5792 278.115C82.5284 278.085 82.4849 278.043 82.452 277.994C82.02 277.394 80.7 275.534 106.338 171.356C107.082 168.356 107.538 166.496 107.592 166.238C108.096 163.97 110.982 162.98 111.102 162.944L111.228 162.902L116.262 165.668L101.364 267.392L225.468 270.464L238.362 253.01L237.984 254.498C237.426 256.688 232.47 275.942 230.784 277.61C229.968 278.444 203.25 278.69 172.746 278.69ZM82.926 277.58C87.684 277.712 227.274 278.738 230.412 277.16C231.612 275.96 235.278 262.532 237.012 255.842L225.756 271.07H225.6L100.668 267.986L100.716 267.65L115.608 165.998L111.174 163.562C110.646 163.766 108.552 164.678 108.174 166.376C108.12 166.64 107.67 168.47 106.92 171.506C85.23 259.664 82.512 276.002 82.926 277.58Z" fill="#263238"/>
<path d="M230.586 277.398C232.248 275.736 237.696 254.418 237.696 254.418L236.892 255.498L229.404 274.8L84.204 276.672L82.758 277.872C85.386 278.106 228.93 279.054 230.586 277.398Z" fill="#263238"/>
<path d="M172.746 278.688C131.592 278.688 83.532 278.238 82.746 278.166L82.026 278.1L84.114 276.36H84.222L229.2 274.494L236.652 255.324L238.362 253.008L237.984 254.496C237.426 256.686 232.47 275.94 230.784 277.608C229.968 278.442 203.256 278.688 172.746 278.688ZM83.586 277.59C94.986 277.764 226.92 278.694 230.394 277.164C231.594 275.862 235.098 263.178 236.88 256.368L229.608 275.088H229.41L84.342 276.96L83.586 277.59Z" fill="#263238"/>
<path d="M114.522 161.804L111.204 163.226L88.23 274.316L229.404 274.79L238.878 250.394L106.23 256.79L118.548 161.57L114.522 161.804Z" fill="white"/>
<path d="M229.608 275.088H229.404L87.858 274.614L110.946 163.014L114.504 161.508L118.89 161.25L118.848 161.61L106.572 256.47L239.328 250.074L229.608 275.088ZM88.608 274.02L229.212 274.488L238.446 250.716L105.888 257.106L105.936 256.752L118.2 161.886L114.6 162.102L111.474 163.44L88.608 274.02Z" fill="#263238"/>
<path d="M97.704 260.339L91.266 271.049L88.23 274.313L229.404 274.787L238.878 250.391L106.23 256.787L97.704 260.339Z" fill="#E0E0E0"/>
<path d="M229.608 275.088H229.404L87.54 274.614L91.026 270.864L97.5 260.1L106.218 256.5L239.328 250.086L229.608 275.088ZM88.914 274.02L229.2 274.488L238.434 250.716L106.296 257.088L97.896 260.58L91.476 271.254L88.914 274.02Z" fill="#263238"/>
<path d="M238.878 250.394V228.602L124.944 241.154L116.418 256.082L238.878 250.394Z" fill="#B8B8B8"/>
<path d="M115.884 256.405L124.758 240.877H124.914L239.178 228.277V250.681H238.89L115.884 256.405ZM125.13 241.435L116.946 255.751L238.578 250.105V228.937L125.13 241.435Z" fill="#263238"/>
<path d="M119.73 149.723L116.418 150.197L97.704 260.339C97.704 260.339 113.1 259.139 133.944 254.183C154.788 249.227 197.19 241.625 211.404 243.761C225.618 245.897 237.696 254.399 237.696 254.399C237.696 254.399 255.432 257.921 275.328 261.947C295.224 265.973 324.834 272.147 344.496 275.453C364.158 278.759 368.892 277.343 368.892 277.343L344.496 163.883L342.126 163.199L355.152 265.997C355.152 265.997 273 243.287 262.092 243.287C251.184 243.287 245.292 231.677 223.482 227.417C201.672 223.157 177.282 231.677 156.684 235.217C143.769 237.497 131.027 240.665 118.548 244.697L123.996 149.711L119.73 149.723Z" fill="#E0E0E0"/>
<path d="M364.86 277.976C361.32 277.976 355.05 277.556 344.46 275.768C327.9 273.002 304.332 268.202 285.396 264.32L275.268 262.262C255.6 258.284 237.816 254.75 237.636 254.714L237.522 254.666C237.402 254.582 225.33 246.158 211.356 244.058C196.92 241.892 153.156 249.908 134.016 254.474C122.08 257.38 109.954 259.441 97.728 260.642L97.344 260.672L97.41 260.294L116.16 149.93L119.76 149.426H124.344L118.902 244.286C131.266 240.327 143.883 237.204 156.666 234.938C161.862 234.044 167.22 232.85 172.896 231.584C189.774 227.816 207.222 223.928 223.572 227.126C235.374 229.436 242.568 233.906 248.352 237.494C253.29 240.566 257.19 242.99 262.122 242.99C272.64 242.99 347.694 263.618 354.828 265.586L341.766 162.776L344.766 163.67L344.802 163.844L369.24 277.574L368.976 277.652C368.886 277.682 367.83 277.976 364.86 277.976ZM237.816 254.138C238.98 254.372 256.296 257.81 275.388 261.674L285.516 263.732C304.446 267.59 328.008 272.384 344.544 275.174C361.386 278.018 367.278 277.358 368.544 277.136L344.238 164.144L342.48 163.616L355.506 266.402L355.074 266.282C354.252 266.054 272.826 243.584 262.074 243.584C256.968 243.584 253.002 241.118 247.986 237.998C242.25 234.434 235.104 229.994 223.386 227.708C207.186 224.534 189.786 228.41 172.986 232.16C167.304 233.426 161.94 234.626 156.726 235.526C143.827 237.809 131.1 240.97 118.632 244.988L118.212 245.132L123.678 150.002H119.754L116.676 150.44L98.076 259.988C110.139 258.766 122.105 256.721 133.89 253.868C153.69 249.146 196.752 241.268 211.458 243.44C225.09 245.51 236.922 253.52 237.816 254.138Z" fill="#263238"/>
<path d="M106.23 256.787L97.704 260.339L116.418 150.197L123.996 149.723L106.23 256.787Z" fill="white"/>
<path d="M97.314 260.828L116.16 149.912L124.356 149.402L106.5 257.006L97.314 260.828ZM116.67 150.482L98.07 259.856L105.942 256.574L123.618 150.05L116.67 150.482Z" fill="#263238"/>
<path d="M236.034 135.035C236.034 135.035 238.17 131.243 257.592 136.235C277.014 141.227 297.354 153.731 313.938 156.095C330.522 158.459 341.4 160.799 341.4 160.799L363.906 274.973C363.906 274.973 327.204 269.999 292.62 260.783C258.036 251.567 243.378 245.399 238.878 250.391L236.034 135.035Z" fill="white"/>
<path d="M364.29 275.352L363.876 275.292C363.51 275.244 326.748 270.21 292.542 261.072C284.31 258.876 277.29 256.872 271.104 255.114C252 249.672 242.4 246.942 239.1 250.596L238.596 251.148L235.734 134.964L235.776 134.892C235.866 134.724 238.242 130.956 257.664 135.93C266.532 138.204 275.604 142.05 284.376 145.764C294.978 150.258 304.986 154.506 313.98 155.79C330.378 158.13 341.37 160.506 341.478 160.53L341.67 160.572L364.29 275.352ZM244.2 248.31C249.42 248.31 257.922 250.71 271.29 254.538C277.476 256.296 284.49 258.294 292.722 260.496C324.9 269.094 359.4 274.056 363.54 274.638L341.16 161.076C339.624 160.752 329.088 158.556 313.896 156.384C304.824 155.088 294.78 150.828 284.142 146.322C275.394 142.608 266.34 138.774 257.514 136.512C240.114 132.048 236.742 134.712 236.34 135.138L239.16 249.738C240.318 248.748 241.95 248.31 244.2 248.31Z" fill="#263238"/>
<path d="M335.304 175.199C297.072 166.799 294.774 166.547 294.69 166.541V165.941C294.738 165.941 296.364 166.037 335.412 174.617L335.304 175.199Z" fill="#263238"/>
<path d="M336.144 180.126C331.272 179.052 326.784 178.056 322.758 177.156C317.664 176.022 313.266 175.044 309.762 174.294C296.526 171.456 295.14 171.336 295.086 171.33L295.116 170.73C295.164 170.73 296.406 170.82 309.888 173.73C313.392 174.48 317.79 175.464 322.884 176.598L336.276 179.562L336.144 180.126Z" fill="#263238"/>
<path d="M336.984 185.059C331.908 183.943 326.898 182.803 322.47 181.795C317.748 180.721 313.674 179.797 310.326 179.077C297.33 176.293 295.548 176.137 295.476 176.131L295.518 175.531C295.584 175.531 297.318 175.675 310.452 178.489C313.8 179.209 317.88 180.139 322.608 181.213C327.03 182.215 332.04 183.355 337.116 184.471L336.984 185.059Z" fill="#263238"/>
<path d="M337.8 189.992C333 188.942 328.11 187.802 323.364 186.698C318.72 185.624 314.328 184.604 310.872 183.86C298.17 181.136 295.872 180.938 295.872 180.932L295.914 180.332C296.004 180.332 298.224 180.524 311.028 183.272C314.49 184.016 318.882 185.03 323.532 186.11C328.278 187.208 333.186 188.348 337.932 189.398L337.8 189.992Z" fill="#263238"/>
<path d="M338.67 194.924C334.302 193.964 329.382 192.8 324.63 191.678C319.74 190.526 315.12 189.428 311.46 188.678C299.076 186.02 296.286 185.768 296.256 185.768L296.304 185.168C296.412 185.168 299.124 185.414 311.586 188.09C315.252 188.876 319.872 189.968 324.786 191.126C329.538 192.248 334.452 193.406 338.814 194.366L338.67 194.924Z" fill="#263238"/>
<path d="M339.51 199.855C335.586 198.991 330.732 197.827 326.034 196.699C321.066 195.499 315.924 194.264 312.03 193.43C299.964 190.838 296.682 190.538 296.646 190.538L296.7 189.938C296.832 189.938 300.03 190.237 312.156 192.841C316.056 193.681 321.198 194.918 326.178 196.112C330.87 197.24 335.718 198.409 339.636 199.267L339.51 199.855Z" fill="#263238"/>
<path d="M340.35 204.788C336.876 204.026 332.334 202.916 327.522 201.74C322.23 200.444 316.722 199.106 312.594 198.212C300.864 195.692 297.078 195.344 297.042 195.338L297.09 194.738C297.126 194.738 300.936 195.086 312.72 197.618C316.884 198.518 322.368 199.856 327.666 201.152C332.466 202.322 337.008 203.432 340.476 204.194L340.35 204.788Z" fill="#263238"/>
<path d="M341.19 209.719C338.19 209.053 333.756 207.961 329.094 206.803C323.448 205.399 317.61 203.953 313.164 202.993C301.764 200.545 297.474 200.143 297.432 200.143L297.486 199.543C297.528 199.543 301.842 199.951 313.29 202.405C317.742 203.365 323.586 204.805 329.238 206.221C333.9 207.379 338.298 208.471 341.316 209.131L341.19 209.719Z" fill="#263238"/>
<path d="M342.03 214.652C339.438 214.082 335.22 213.02 330.762 211.898C325.014 210.446 318.498 208.802 313.728 207.776C302.664 205.376 297.87 204.95 297.822 204.944L297.876 204.344C297.924 204.344 302.748 204.806 313.854 207.194C318.654 208.22 325.152 209.864 330.906 211.316C335.364 212.438 339.576 213.5 342.162 214.07L342.03 214.652Z" fill="#263238"/>
<path d="M342.87 219.6C340.698 219.126 336.87 218.154 332.49 217.026C326.358 215.454 319.41 213.678 314.298 212.574C303.57 210.27 298.266 209.766 298.218 209.76L298.272 209.16C298.326 209.16 303.672 209.67 314.424 211.986C319.548 213.09 326.502 214.866 332.64 216.438C337.038 217.56 340.836 218.538 343.002 219.012L342.87 219.6Z" fill="#263238"/>
<path d="M343.71 224.519C341.946 224.129 338.412 223.211 334.32 222.149C328.098 220.535 320.358 218.549 314.862 217.349C304.476 215.111 298.662 214.553 298.608 214.553L298.662 213.953C304.153 214.599 309.607 215.535 315 216.755C320.508 217.955 328.254 219.953 334.482 221.555C338.568 222.617 342.096 223.535 343.854 223.919L343.71 224.519Z" fill="#263238"/>
<path d="M344.556 229.454C343.17 229.148 340.104 228.338 336.222 227.318C329.946 225.668 321.348 223.406 315.432 222.128C310.007 220.912 304.521 219.985 298.998 219.35L299.058 218.75C304.603 219.39 310.111 220.321 315.558 221.54C321.486 222.818 330.09 225.086 336.378 226.742C340.248 227.756 343.308 228.542 344.682 228.866L344.556 229.454Z" fill="#263238"/>
<path d="M345.396 234.383C344.37 234.155 341.67 233.435 338.256 232.523C331.56 230.723 322.392 228.287 315.996 226.907C310.514 225.696 304.973 224.774 299.394 224.147L299.448 223.547C305.051 224.174 310.617 225.098 316.122 226.313C322.53 227.699 331.722 230.147 338.412 231.941C341.82 232.847 344.508 233.567 345.522 233.789L345.396 234.383Z" fill="#263238"/>
<path d="M346.236 239.316C345.54 239.16 343.398 238.584 340.434 237.78C334.11 236.064 323.514 233.196 316.566 231.69C311.017 230.486 305.41 229.571 299.766 228.948L299.826 228.348C305.486 228.969 311.11 229.888 316.674 231.102C323.64 232.602 334.242 235.476 340.572 237.192C343.53 237.996 345.666 238.572 346.344 238.722L346.236 239.316Z" fill="#263238"/>
<path d="M347.076 244.248C346.674 244.158 345.126 243.732 342.786 243.09C336.486 241.35 324.786 238.122 317.13 236.49C311.529 235.29 305.869 234.383 300.174 233.772L300.234 233.172C305.952 233.787 311.633 234.7 317.256 235.908C324.9 237.558 336.636 240.792 342.942 242.508C345.192 243.108 346.818 243.576 347.202 243.66L347.076 244.248Z" fill="#263238"/>
<path d="M347.916 249.179C347.76 249.143 346.938 248.915 345.456 248.501C339.708 246.887 326.256 243.101 317.7 241.259C312.05 240.064 306.343 239.161 300.6 238.553L300.654 237.953C306.43 238.567 312.172 239.474 317.856 240.671C326.43 242.525 339.9 246.305 345.648 247.919C346.974 248.291 347.934 248.561 348.078 248.591L347.916 249.179Z" fill="#263238"/>
<path d="M348.738 254.106C348.546 254.052 329.19 248.406 318.264 246.042C309.9 244.242 301.05 243.366 300.96 243.354L301.02 242.754C306.852 243.36 312.649 244.259 318.39 245.448C329.334 247.848 348.714 253.47 348.906 253.524L348.738 254.106Z" fill="#263238"/>
<path d="M288.6 164.856C281.154 161.43 275.916 158.442 271.71 156.042C267.336 153.54 263.874 151.572 260.058 150.336C254.651 148.705 249.066 147.734 243.426 147.444V146.844C249.124 147.134 254.765 148.116 260.226 149.766C264.108 151.02 267.588 153.006 271.998 155.52C276.198 157.92 281.418 160.92 288.84 164.31L288.6 164.856Z" fill="#263238"/>
<path d="M289.002 169.727C282.324 166.655 277.404 163.883 273.45 161.657C268.836 159.059 265.188 157.007 260.91 155.621C252.618 152.927 244.206 152.483 243.558 152.585L243.402 151.985C243.798 151.865 252.402 152.213 261.096 155.033C265.434 156.437 269.1 158.501 273.744 161.117C277.89 163.451 282.594 166.103 289.254 169.169L289.002 169.727Z" fill="#263238"/>
<path d="M289.38 174.601C283.428 171.859 279.03 169.417 275.148 167.257C270.318 164.569 266.502 162.457 261.744 160.897C252.432 157.861 244.122 157.573 243.612 157.723L243.432 157.123C244.152 156.895 252.756 157.309 261.93 160.303C266.73 161.875 270.582 164.005 275.442 166.711C279.312 168.859 283.698 171.301 289.632 174.031L289.38 174.601Z" fill="#263238"/>
<path d="M289.764 179.479C284.496 177.079 280.428 174.823 276.84 172.879C272.04 170.227 267.84 167.941 262.578 166.213C252.762 162.997 244.524 162.613 243.642 162.895L243.462 162.325C244.662 161.941 253.152 162.493 262.764 165.643C268.086 167.383 272.274 169.687 277.128 172.351C280.728 174.319 284.766 176.551 290.01 178.951L289.764 179.479Z" fill="#263238"/>
<path d="M290.142 184.355C285.528 182.231 281.802 180.209 278.514 178.427C273.522 175.715 269.214 173.381 263.406 171.467C252.894 168.011 244.806 167.657 243.672 168.017L243.492 167.447C244.95 166.979 253.554 167.597 263.598 170.897C269.454 172.823 273.798 175.175 278.802 177.899C282.078 179.699 285.798 181.691 290.388 183.809L290.142 184.355Z" fill="#263238"/>
<path d="M290.52 189.229C286.524 187.393 283.29 185.659 280.17 183.979C275.04 181.231 270.606 178.855 264.24 176.779C253.122 173.107 245.154 172.729 243.702 173.179L243.522 172.609C245.352 172.009 253.908 172.723 264.426 176.209C270.846 178.327 275.514 180.829 280.452 183.475C283.566 185.149 286.794 186.877 290.772 188.707L290.52 189.229Z" fill="#263238"/>
<path d="M290.898 194.101C287.484 192.535 284.592 190.999 281.802 189.517C276.78 186.859 272.04 184.345 265.074 182.035C253.632 178.249 245.526 177.739 243.732 178.315L243.552 177.715C245.7 177.031 254.088 177.715 265.26 181.441C272.274 183.769 277.038 186.289 282.06 188.965C284.85 190.441 287.736 191.965 291.132 193.531L290.898 194.101Z" fill="#263238"/>
<path d="M291.276 198.978C288.408 197.658 285.876 196.32 283.398 195.03C278.31 192.36 273.498 189.84 265.902 187.32C253.692 183.258 245.844 182.796 243.762 183.456L243.582 182.886C246.276 182.028 255.084 183.09 266.094 186.75C273.738 189.288 278.79 191.94 283.68 194.502C286.134 195.786 288.672 197.118 291.528 198.432L291.276 198.978Z" fill="#263238"/>
<path d="M291.654 203.851C289.29 202.765 287.19 201.673 284.964 200.521C279.131 197.354 273.031 194.704 266.736 192.601C254.82 188.629 246.486 187.747 243.792 188.605L243.612 188.035C246.492 187.117 254.814 187.999 266.928 192.031C273.252 194.145 279.379 196.807 285.24 199.987C287.46 201.139 289.554 202.225 291.906 203.305L291.654 203.851Z" fill="#263238"/>
<path d="M292.032 208.723C290.136 207.853 288.366 206.923 286.488 205.981C280.433 202.753 274.114 200.046 267.6 197.887C254.37 193.465 246.54 192.901 243.852 193.753L243.672 193.183C246.576 192.259 254.436 192.859 267.792 197.317C274.345 199.484 280.702 202.204 286.794 205.447C288.66 206.407 290.43 207.313 292.314 208.183L292.032 208.723Z" fill="#263238"/>
<path d="M292.41 213.599C290.94 212.921 289.494 212.183 287.958 211.409C281.677 208.131 275.137 205.374 268.404 203.165C251.706 197.579 245.67 198.317 243.852 198.899L243.672 198.299C247.632 197.045 256.716 198.599 268.59 202.571C275.353 204.785 281.922 207.554 288.228 210.851C289.758 211.625 291.198 212.357 292.662 213.029L292.41 213.599Z" fill="#263238"/>
<path d="M292.8 218.471C291.708 217.967 290.574 217.397 289.374 216.797C282.897 213.482 276.165 210.689 269.244 208.445C253.476 203.159 246.756 203.135 243.894 204.047L243.714 203.447C247.914 202.103 256.836 203.627 269.436 207.857C276.384 210.117 283.141 212.926 289.644 216.257C290.844 216.857 291.972 217.421 293.052 217.919L292.8 218.471Z" fill="#263238"/>
<path d="M293.166 223.349C292.41 222.995 291.612 222.599 290.688 222.149C287.016 220.349 281.466 217.571 270.066 213.749C257.022 209.363 248.226 207.839 243.912 209.207L243.732 208.637C248.226 207.209 256.902 208.691 270.258 213.179C281.694 217.025 287.268 219.779 290.952 221.621C291.876 222.077 292.668 222.473 293.418 222.821L293.166 223.349Z" fill="#263238"/>
<path d="M293.544 228.223C293.07 228.001 292.536 227.743 291.912 227.437C288.666 225.841 283.23 223.171 270.912 219.037C257.112 214.393 248.538 212.905 243.954 214.363L243.774 213.763C248.484 212.263 257.166 213.763 271.104 218.443C283.47 222.607 288.93 225.289 292.188 226.891C292.788 227.197 293.34 227.455 293.808 227.671L293.544 228.223Z" fill="#263238"/>
<path d="M293.922 233.096L293.01 232.658C290.61 231.506 285.084 228.8 271.734 224.3C257.142 219.38 248.838 217.94 243.978 219.5L243.792 218.93C248.79 217.34 257.202 218.78 271.926 223.73C285.312 228.248 290.892 230.96 293.274 232.13C293.634 232.31 293.928 232.454 294.174 232.562L293.922 233.096Z" fill="#263238"/>
<path d="M294.3 237.972L293.952 237.804C289.38 235.596 282.186 232.83 272.562 229.578C257.364 224.448 249.09 223.014 244.008 224.634L243.822 224.034C249.114 222.354 257.226 223.74 272.754 228.99C282.402 232.248 289.62 235.02 294.21 237.24L294.552 237.402L294.3 237.972Z" fill="#263238"/>
<path d="M294.672 242.839C294.624 242.839 289.644 240.361 273.396 234.865C257.376 229.465 249.396 228.067 244.038 229.777L243.852 229.207C249.372 227.449 257.43 228.829 273.588 234.295C289.89 239.809 294.894 242.281 294.942 242.305L294.672 242.839Z" fill="#263238"/>
<path d="M236.034 135.036L238.878 250.392C238.878 250.392 230.352 232.866 207.612 233.592C184.872 234.318 134.658 251.832 126.612 253.488C118.566 255.144 106.23 256.8 106.23 256.8L119.73 146.658C119.73 146.658 179.4 135.75 192 131.958C204.6 128.166 215.454 124.158 223.506 126.036C231.558 127.914 236.034 129.354 236.034 135.036Z" fill="white"/>
<path d="M105.888 257.136L105.936 256.752L119.46 146.4L119.676 146.358C120.276 146.25 179.496 135.426 191.892 131.682C193.516 131.19 195.116 130.7 196.692 130.212C207.306 126.924 216.492 124.086 223.56 125.754C231.486 127.62 236.346 129.066 236.346 135.042L239.226 251.772L238.626 250.536C238.542 250.362 229.908 233.184 207.636 233.886C190.932 234.408 159.414 244.014 140.58 249.75C133.752 251.832 128.814 253.35 126.678 253.776C118.71 255.42 106.41 257.082 106.278 257.1L105.888 257.136ZM120 146.898L106.578 256.44C108.726 256.14 119.388 254.64 126.54 253.176C128.652 252.744 133.83 251.166 140.388 249.168C159.252 243.42 190.788 233.802 207.588 233.274C226.986 232.674 236.22 245.4 238.536 249.204L235.722 135.036C235.722 129.498 231.27 128.178 223.404 126.33C216.468 124.698 207.378 127.53 196.848 130.776C195.276 131.256 193.68 131.754 192.048 132.246C180 135.882 123.972 146.172 120 146.898Z" fill="#263238"/>
<path d="M177.974 149.969L133.551 159.941L133.683 160.529L178.106 150.557L177.974 149.969Z" fill="#263238"/>
<path d="M132.306 165.152L132.174 164.552C141.888 162.362 160.374 158.18 160.896 158.018C161.496 157.826 176.172 154.562 176.796 154.418L176.922 155.018C171.648 156.218 161.544 158.456 161.076 158.618C160.416 158.816 133.452 164.894 132.306 165.152Z" fill="#263238"/>
<path d="M131.82 170.082L131.688 169.482C131.964 169.416 159.366 163.17 160.644 162.768C161.922 162.366 176.076 159.228 176.682 159.09L176.814 159.69C176.664 159.69 162.006 162.978 160.824 163.35C159.522 163.8 132.954 169.8 131.82 170.082Z" fill="#263238"/>
<path d="M131.34 175.016L131.202 174.416C131.472 174.356 158.466 168.128 160.398 167.522C162.198 166.958 175.998 163.892 176.568 163.766L176.7 164.366C176.556 164.402 162.348 167.552 160.578 168.11C158.628 168.722 132.45 174.764 131.34 175.016Z" fill="#263238"/>
<path d="M130.854 179.952L130.716 179.352C130.986 179.292 157.572 173.081 160.146 172.271C162.546 171.521 175.89 168.563 176.46 168.438L176.586 169.037C176.448 169.037 162.69 172.115 160.326 172.859C157.728 173.675 131.946 179.694 130.854 179.952Z" fill="#263238"/>
<path d="M130.368 184.877L130.23 184.277C130.494 184.217 156.678 178.031 159.9 177.017C162.9 176.081 175.8 173.225 176.346 173.105L176.478 173.705C176.34 173.735 163.038 176.705 160.08 177.605C156.834 178.625 131.448 184.625 130.368 184.877Z" fill="#263238"/>
<path d="M129.882 189.817L129.744 189.217C130.002 189.157 155.778 182.995 159.648 181.777C163.248 180.649 176.106 177.811 176.232 177.781L176.364 178.381C176.232 178.411 163.38 181.243 159.828 182.359C155.94 183.601 130.14 189.751 129.882 189.817Z" fill="#263238"/>
<path d="M129.396 194.747L129.258 194.147C129.51 194.087 154.884 187.943 159.396 186.527C163.596 185.213 175.998 182.477 176.124 182.453L176.25 183.053C176.124 183.083 163.728 185.813 159.576 187.115C155.046 188.537 129.654 194.681 129.396 194.747Z" fill="#263238"/>
<path d="M128.91 199.679L128.772 199.079C129.018 199.013 153.972 192.893 159.15 191.279C163.914 189.779 175.89 187.151 176.01 187.121L176.142 187.721C176.016 187.721 164.07 190.373 159.342 191.861C154.146 193.487 129.162 199.619 128.91 199.679Z" fill="#263238"/>
<path d="M128.43 204.599L128.28 203.999C128.532 203.939 153.09 197.837 158.88 196.007C164.244 194.321 175.764 191.807 175.878 191.777L176.01 192.377C175.896 192.377 164.4 194.915 159.06 196.577C153.252 198.443 128.676 204.551 128.43 204.599Z" fill="#263238"/>
<path d="M127.944 209.543L127.794 208.943C128.04 208.883 152.19 202.799 158.652 200.771C164.604 198.899 175.674 196.481 175.788 196.457L175.914 197.057C175.806 197.057 164.76 199.493 158.826 201.353C152.358 203.399 128.184 209.483 127.944 209.543Z" fill="#263238"/>
<path d="M127.458 214.477L127.308 213.877C127.548 213.817 151.308 207.757 158.4 205.525C164.952 203.467 175.566 201.157 175.674 201.133L175.8 201.733C175.698 201.733 165.102 204.055 158.58 206.107C151.458 208.351 127.698 214.417 127.458 214.477Z" fill="#263238"/>
<path d="M126.972 219.409L126.822 218.809C127.056 218.749 150.402 212.713 158.148 210.277C165.294 208.027 175.464 205.825 175.548 205.801L175.674 206.401C175.572 206.401 165.432 208.621 158.31 210.859C150.564 213.307 127.2 219.349 126.972 219.409Z" fill="#263238"/>
<path d="M126.486 224.339L126.336 223.739C126.564 223.679 149.502 217.661 157.902 215.027C165.642 212.591 175.356 210.491 175.452 210.473L175.578 211.073C175.482 211.073 165.792 213.185 158.082 215.609C149.67 218.255 126.72 224.279 126.486 224.339Z" fill="#263238"/>
<path d="M126 229.273L125.844 228.673C126.072 228.607 148.602 222.613 157.644 219.769C165.978 217.153 175.242 215.161 175.332 215.137L175.458 215.737C175.368 215.737 166.134 217.741 157.824 220.357C148.8 223.201 126.228 229.201 126 229.273Z" fill="#263238"/>
<path d="M125.52 234.203L125.364 233.603C125.586 233.543 147.708 227.567 157.398 224.519C166.332 221.711 175.14 219.827 175.23 219.809L175.35 220.409C175.266 220.409 166.482 222.305 157.578 225.101C147.876 228.167 125.742 234.143 125.52 234.203Z" fill="#263238"/>
<path d="M125.034 239.137L124.878 238.537C125.094 238.477 146.814 232.537 157.152 229.273C166.674 226.273 175.032 224.473 175.116 224.473L175.242 225.073C175.158 225.073 166.842 226.873 157.332 229.873C147 233.119 125.25 239.077 125.034 239.137Z" fill="#263238"/>
<path d="M183.342 148.554L183.156 147.954C184.848 147.414 224.664 134.814 230.706 141.456L230.262 141.864C224.478 135.528 183.75 148.422 183.342 148.554Z" fill="#263238"/>
<path d="M183.21 153.336L183.024 152.766C183.168 152.718 197.19 148.218 209.664 145.872C214.956 144.888 227.604 142.968 230.724 146.4L230.28 146.808C228.258 144.576 220.59 144.45 209.772 146.46C197.34 148.8 183.348 153.288 183.21 153.336Z" fill="#263238"/>
<path d="M183.078 158.119L182.898 157.549C183.036 157.501 197.298 152.875 209.616 150.595C220.29 148.663 228.588 148.945 230.742 151.315L230.298 151.723C228.312 149.533 220.038 149.323 209.724 151.189C197.46 153.457 183.222 158.071 183.078 158.119Z" fill="#263238"/>
<path d="M182.952 162.9L182.76 162.33C182.91 162.282 197.424 157.5 209.562 155.322C219.708 153.522 228.624 153.882 230.76 156.228L230.316 156.636C228.342 154.464 219.468 154.152 209.67 155.91C197.574 158.082 183.096 162.852 182.952 162.9Z" fill="#263238"/>
<path d="M182.82 167.684L182.634 167.084C182.778 167.036 197.544 162.122 209.514 160.016C219.312 158.294 228.654 158.774 230.778 161.114L230.334 161.522C228.618 159.632 220.212 158.744 209.616 160.604C197.694 162.734 183 167.636 182.82 167.684Z" fill="#263238"/>
<path d="M182.694 172.47L182.502 171.9C182.652 171.846 197.664 166.8 209.466 164.766C219.894 162.966 228.912 163.986 230.802 166.056L230.352 166.464C228.852 164.808 220.584 163.464 209.568 165.36C197.814 167.4 182.844 172.416 182.694 172.47Z" fill="#263238"/>
<path d="M182.562 177.253L182.37 176.683C182.52 176.629 197.784 171.451 209.418 169.483C220.614 167.605 229.2 169.201 230.82 171.001L230.376 171.409C229.014 169.909 220.878 168.199 209.514 170.113C197.934 172.033 182.712 177.199 182.562 177.253Z" fill="#263238"/>
<path d="M182.43 182.035L182.238 181.465C182.394 181.411 197.91 176.107 209.364 174.217C220.818 172.327 229.398 174.307 230.838 175.885L230.394 176.293C229.068 174.835 220.482 172.993 209.466 174.805C198.054 176.689 182.586 181.981 182.43 182.035Z" fill="#263238"/>
<path d="M182.304 186.816L182.106 186.252C182.262 186.192 198.03 180.762 209.316 178.938C220.512 177.138 229.416 179.22 230.856 180.798L230.4 181.2C229.2 179.88 220.608 177.714 209.4 179.526C198.192 181.338 182.46 186.762 182.304 186.816Z" fill="#263238"/>
<path d="M182.172 191.597L181.974 191.033C182.136 190.973 198.174 185.417 209.268 183.659C220.668 181.859 229.572 184.259 230.868 185.711L230.424 186.119C229.464 185.063 221.016 182.411 209.352 184.253C198.3 185.999 182.334 191.543 182.172 191.597Z" fill="#263238"/>
<path d="M182.04 196.38L181.842 195.816C182.004 195.756 198.27 190.074 209.22 188.388C221.07 186.558 229.854 189.486 230.892 190.626L230.448 191.034C229.728 190.242 221.604 187.08 209.31 188.976C198.42 190.662 182.202 196.326 182.04 196.38Z" fill="#263238"/>
<path d="M181.908 201.169L181.71 200.599C181.878 200.539 198.396 194.737 209.166 193.111C221.664 191.221 230.136 194.689 230.91 195.511L230.466 195.919C229.824 195.205 221.466 191.833 209.256 193.675C198.54 195.319 182.076 201.109 181.908 201.169Z" fill="#263238"/>
<path d="M181.8 205.95L181.596 205.38C181.764 205.326 198.534 199.38 209.136 197.832C221.544 196.032 230.256 199.692 230.946 200.454L230.502 200.862C230.124 200.442 222.006 196.542 209.226 198.426C198.66 199.98 181.95 205.89 181.8 205.95Z" fill="#263238"/>
<path d="M181.65 210.732L181.446 210.168C181.62 210.102 198.636 204.06 209.046 202.554C221.418 200.754 230.214 204.588 230.922 205.368L230.478 205.776C229.992 205.29 221.694 201.342 209.13 203.148C198.786 204.642 181.8 210.672 181.65 210.732Z" fill="#263238"/>
<path d="M181.518 215.514L181.32 214.95C181.488 214.89 198.762 208.74 209.016 207.282C221.988 205.482 230.556 209.832 230.964 210.282L230.526 210.69C229.848 210.09 221.436 206.166 209.1 207.876C198.906 209.328 181.692 215.454 181.518 215.514Z" fill="#263238"/>
<path d="M181.392 220.296L181.188 219.732C181.362 219.672 198.882 213.396 208.968 212.004C221.904 210.246 230.568 214.734 230.988 215.196L230.544 215.604C230.502 215.604 222.276 210.804 209.052 212.604C199.026 213.978 181.566 220.236 181.392 220.296Z" fill="#263238"/>
<path d="M181.26 225.078L181.056 224.514C181.236 224.448 199.008 218.052 208.92 216.714C222.318 214.914 230.856 219.996 230.94 220.044L230.628 220.56C230.544 220.506 222.18 215.556 208.998 217.314C199.152 218.634 181.434 225 181.26 225.078Z" fill="#263238"/>
<path d="M284.88 261.559C284.88 261.559 283.02 261.097 280.128 260.491L280.254 259.891C283.158 260.491 285.012 260.959 285.054 260.965L284.88 261.559Z" fill="#263238"/>
<path d="M277.974 260.051C275.442 259.553 273.336 257.741 271.11 255.851C268.302 253.451 265.398 250.925 261.318 250.805C253.306 250.655 245.335 251.983 237.804 254.723L237.57 254.813L237.438 254.597C236.519 253.196 235.507 251.859 234.408 250.595L234.858 250.205C235.925 251.431 236.913 252.723 237.816 254.075C245.359 251.381 253.327 250.07 261.336 250.205C265.626 250.331 268.614 252.905 271.506 255.395C273.666 257.255 275.706 258.995 278.106 259.487L277.974 260.051Z" fill="#263238"/>
<path d="M232.842 248.858C231.356 247.305 229.751 245.871 228.042 244.568L228.402 244.094C230.135 245.413 231.76 246.867 233.262 248.444L232.842 248.858Z" fill="#263238"/>
<path d="M228.054 244.567C225.639 242.71 222.97 241.208 220.128 240.109C207.792 235.429 194.064 238.945 192.528 239.359L192.372 238.759C193.914 238.339 207.816 234.781 220.332 239.533C223.226 240.652 225.944 242.182 228.402 244.075L228.054 244.567Z" fill="#263238"/>
<path d="M157.584 247.901L157.452 247.301C157.788 247.223 191.184 239.765 205.452 240.101C211.015 240.18 216.528 241.159 221.778 242.999L221.574 243.563C216.378 241.743 210.921 240.78 205.416 240.713C191.226 240.383 157.92 247.829 157.584 247.901Z" fill="#263238"/>
<path d="M226.98 246.149C226.101 245.576 225.176 245.076 224.214 244.655L224.46 244.109C225.451 244.551 226.408 245.066 227.322 245.651L226.98 246.149Z" fill="#263238"/>
<path d="M225.004 255.345L134.34 259.684L134.368 260.283L225.033 255.944L225.004 255.345Z" fill="#263238"/>
<path d="M233.534 254.923L228.584 255.16L228.612 255.759L233.563 255.523L233.534 254.923Z" fill="#263238"/>
<path d="M162.643 263.819L157.359 263.953L157.374 264.553L162.658 264.419L162.643 263.819Z" fill="#263238"/>
<path d="M154.329 264.037L112.414 265.098L112.43 265.697L154.344 264.636L154.329 264.037Z" fill="#263238"/>
<path d="M220.435 267.204L215.779 267.344L215.797 267.944L220.453 267.804L220.435 267.204Z" fill="#263238"/>
<path d="M212.034 267.451L152.994 269.223L153.012 269.823L212.052 268.051L212.034 267.451Z" fill="#263238"/>
<path d="M196.021 262.104L183.657 262.527L183.677 263.127L196.042 262.704L196.021 262.104Z" fill="#263238"/>
<path d="M230.076 260.939L199.41 261.988L199.431 262.588L230.097 261.538L230.076 260.939Z" fill="#263238"/>
<path d="M142.969 268.887L138.693 269.004L138.709 269.604L142.986 269.486L142.969 268.887Z" fill="#263238"/>
<path d="M136.024 269.077L96.2352 270.168L96.2517 270.768L136.041 269.677L136.024 269.077Z" fill="#263238"/>
<path d="M167.472 138.177C167.472 138.177 176.292 126.579 181.872 121.749C187.452 116.919 196.974 109.305 200.844 109.305C204.714 109.305 205.674 111.705 205.92 112.563C206.166 113.421 209.4 125.613 209.4 126.219C209.4 126.825 206.022 127.791 205.8 127.065C205.578 126.339 204.108 115.947 203.508 114.015C202.908 112.083 203.022 111.015 198.432 112.929C193.842 114.843 180.312 129.357 177.528 132.729C174.744 136.101 172.092 139.617 172.092 139.617C172.092 139.617 168.804 138.177 167.472 138.177Z" fill="#263238"/>
<path d="M172.158 140L171.942 139.904C171.912 139.904 168.72 138.476 167.472 138.476H166.872L167.238 137.996C167.328 137.882 176.142 126.32 181.638 121.52C185.964 117.758 196.494 109.004 200.802 109.004C204.744 109.004 205.866 111.434 206.166 112.484C206.334 113.084 209.676 125.528 209.676 126.218C209.676 126.908 207.654 127.472 207.114 127.562C206.16 127.712 205.608 127.562 205.47 127.16C205.374 126.86 205.14 125.402 204.732 122.846C204.228 119.642 203.532 115.25 203.172 114.104L203.04 113.66C202.842 112.976 202.692 112.46 202.314 112.304C201.774 112.046 200.592 112.304 198.498 113.204C194.046 115.076 180.666 129.338 177.714 132.932C174.972 136.274 172.314 139.772 172.284 139.808L172.158 140ZM168.036 137.936C169.386 138.25 170.702 138.694 171.966 139.262C172.566 138.488 174.882 135.458 177.27 132.554C179.916 129.326 193.524 114.656 198.27 112.652C200.622 111.662 201.834 111.41 202.572 111.764C203.172 112.058 203.388 112.724 203.616 113.492C203.658 113.63 203.7 113.774 203.748 113.924C204.12 115.124 204.786 119.324 205.326 122.75C205.65 124.784 205.926 126.704 206.04 126.95C206.354 127.037 206.686 127.037 207 126.95C207.753 126.867 208.472 126.592 209.088 126.152C209.046 125.552 205.902 113.72 205.584 112.622C205.266 111.524 204.21 109.58 200.784 109.58C196.584 109.58 185.346 119.048 182.01 121.952C177.174 126.206 169.686 135.8 168.036 137.936Z" fill="#263238"/>
<path d="M316.764 150.001C316.482 149.593 316.104 149.119 315.84 149.053C315.414 148.945 312.582 153.757 311.886 154.945C312.267 154.463 312.702 154.026 313.182 153.643C313.182 154.003 311.73 161.131 310.404 164.515C309.078 167.899 309.432 169.471 310.764 169.351C312.096 169.231 313.902 163.189 314.964 159.805C315.91 156.61 316.513 153.323 316.764 150.001Z" fill="white"/>
<path d="M310.626 169.659C310.43 169.669 310.234 169.63 310.056 169.547C309.878 169.463 309.724 169.337 309.606 169.179C309.006 168.399 309.204 166.779 310.122 164.409C311.19 161.691 312.342 156.507 312.738 154.467L312.108 155.151L310.2 157.203L311.616 154.773C315.216 148.569 315.636 148.671 315.9 148.737C316.164 148.803 316.404 148.947 316.998 149.805L317.058 149.895V150.003C316.814 153.35 316.211 156.662 315.258 159.879L314.988 160.737C313.404 165.705 312.09 169.509 310.788 169.629L310.626 169.659ZM313.2 153.327L313.29 153.357L313.482 153.429V153.645C313.482 154.065 312.012 161.229 310.68 164.625C309.522 167.577 309.876 168.537 310.08 168.825C310.157 168.919 310.258 168.99 310.372 169.032C310.486 169.073 310.609 169.082 310.728 169.059C311.754 168.963 313.56 163.299 314.424 160.581L314.7 159.717C315.621 156.588 316.208 153.37 316.452 150.117C316.292 149.852 316.089 149.615 315.852 149.415C314.862 150.644 313.975 151.953 313.2 153.327Z" fill="#263238"/>
<path d="M316.686 147.484C316.2 145.306 313.086 148.084 311.73 150.022C310.374 151.96 304.362 158.476 300.978 161.74C297.594 165.004 284.91 175.876 283.578 176.842C282.246 177.808 280.68 179.5 279.714 179.62C278.748 179.74 276.21 179.62 275.004 178.894C273.798 178.168 273.204 176.842 267.39 173.704C261.576 170.566 236.46 163.312 234.648 163.204C232.836 163.096 231.384 164.896 228.846 165.982C226.308 167.068 222.084 167.308 220.272 165.736C218.46 164.164 216.282 160.18 215.076 157.282C213.87 154.384 211.932 153.682 210.24 152.692C208.548 151.702 188.256 142.804 184.506 141.562C180.756 140.32 177.018 139.51 175.326 139.39C174.232 139.327 173.135 139.408 172.062 139.63C172.062 139.63 171.822 139.99 170.862 139.27C169.902 138.55 166.752 137.212 165.786 139.144C164.82 141.076 163.386 145.552 164.214 147.244L165.06 148.936C165.06 148.936 164.214 159.808 164.58 163.552C164.946 167.296 167.844 172.132 170.256 175.03C172.668 177.928 182.34 183.364 189.456 185.056C196.572 186.748 200.934 185.782 202.866 184.456C204.798 183.13 210.72 176.482 212.172 174.91C213.624 173.338 213.498 172.372 218.208 173.824C222.918 175.276 224.616 178.654 225.462 181.192C226.308 183.73 229.446 193.876 231.984 197.14C235.161 201.428 239.411 204.803 244.308 206.926C250.47 209.584 254.574 211.636 260.376 210.916C266.178 210.196 269.316 207.532 271.128 204.388C272.94 201.244 274.128 194.968 274.728 193.03C275.226 191.744 276.113 190.647 277.266 189.892C277.266 189.892 279.666 188.806 280.41 187.114C281.154 185.422 286.812 180.226 286.812 180.226C286.812 180.226 295.992 172.978 299.496 168.988C303 164.998 313.2 153.28 313.2 153.646C313.2 154.012 311.748 161.134 310.422 164.518C309.096 167.902 309.45 169.474 310.782 169.354C312.114 169.234 313.92 163.192 314.982 159.808C316.044 156.424 317.166 149.656 316.686 147.484ZM213.99 167.404C213.775 168.135 213.449 168.829 213.024 169.462C212.298 170.548 207.462 178.282 204.444 180.694C201.426 183.106 197.922 185.164 194.292 184.804C190.662 184.444 181.368 180.94 174.492 175.504C167.616 170.068 166.638 162.934 167.364 156.052C168.09 149.17 170.508 144.448 174.132 143.728C177.756 143.008 189.732 146.02 197.934 150.37C206.136 154.72 213.156 160.036 213.636 161.848C214.116 163.66 213.99 167.404 213.99 167.404ZM271.86 192.184C271.134 198.466 269.688 202.096 267.51 204.994C265.332 207.892 262.8 209.224 256.032 208.594C249.264 207.964 244.194 205.45 239.478 202.072C234.762 198.694 233.196 194.218 231.384 189.988C229.572 185.758 226.434 177.304 228.246 171.988C230.058 166.672 235.374 168.004 235.374 168.004C235.374 168.004 239.844 168.97 240.174 169.09C240.504 169.21 267.24 177.064 268.446 178.876C269.652 180.688 272.586 185.902 271.86 192.184Z" fill="#263238"/>
<path d="M258.066 211.358C253.764 211.358 250.212 209.816 245.568 207.794L244.194 207.194C239.251 205.054 234.961 201.647 231.756 197.318C229.44 194.318 226.686 185.882 225.504 182.27C225.378 181.874 225.264 181.538 225.18 181.28C224.382 178.88 222.78 175.532 218.13 174.08C214.242 172.88 213.858 173.354 212.922 174.476C212.766 174.668 212.598 174.872 212.394 175.076L211.494 176.06C209.298 178.46 204.72 183.512 203.04 184.664C202.056 185.342 198.156 187.394 189.39 185.312C182.376 183.644 172.53 178.196 170.022 175.184C167.418 172.064 164.622 167.252 164.274 163.544C163.926 159.944 164.67 150.044 164.748 148.952L163.944 147.338C163.032 145.538 164.544 140.918 165.516 138.974C165.65 138.696 165.845 138.454 166.088 138.264C166.33 138.075 166.613 137.944 166.914 137.882C168.414 137.528 170.376 138.482 171.036 138.992C171.552 139.376 171.786 139.388 171.846 139.382L171.882 139.328L171.996 139.298C173.098 139.067 174.226 138.984 175.35 139.052C177.186 139.184 181.074 140.102 184.602 141.242C188.346 142.442 208.758 151.442 210.402 152.378L211.05 152.738C212.556 153.56 214.266 154.484 215.364 157.118C216.63 160.16 218.796 164.006 220.476 165.464C222.156 166.922 226.2 166.742 228.744 165.656C229.636 165.246 230.491 164.76 231.3 164.204C232.5 163.436 233.49 162.782 234.678 162.854C236.61 162.98 261.888 170.336 267.546 173.402C271.674 175.634 273.168 176.942 274.146 177.806C274.457 178.1 274.795 178.365 275.154 178.598C276.27 179.27 278.754 179.402 279.678 179.288C280.236 179.216 281.142 178.436 282.024 177.686C282.48 177.296 282.954 176.888 283.404 176.564C284.688 175.628 297.354 164.78 300.768 161.486C304.062 158.306 310.158 151.736 311.484 149.81C312.402 148.478 314.706 146.108 316.086 146.372C316.321 146.426 316.533 146.552 316.692 146.733C316.851 146.914 316.95 147.14 316.974 147.38C317.496 149.726 316.32 156.614 315.276 159.86L315.006 160.718C313.422 165.686 312.108 169.49 310.806 169.61C310.582 169.649 310.352 169.626 310.141 169.543C309.929 169.461 309.744 169.322 309.606 169.142C309.006 168.362 309.204 166.742 310.122 164.372C311.19 161.654 312.342 156.464 312.738 154.43C311.004 156.272 305.922 162.086 302.7 165.776L299.754 169.202C296.274 173.168 287.118 180.404 287.028 180.476C285.096 182.246 281.268 185.954 280.716 187.244C279.954 189.044 277.524 190.136 277.422 190.178C276.338 190.894 275.5 191.927 275.022 193.136C274.872 193.622 274.674 194.42 274.422 195.344C273.744 198.068 272.724 202.184 271.35 204.554C269.136 208.4 265.548 210.554 260.376 211.226C259.609 211.317 258.838 211.361 258.066 211.358ZM214.8 172.802C215.996 172.883 217.175 173.129 218.304 173.534C223.224 175.046 224.904 178.574 225.75 181.094C225.834 181.352 225.948 181.694 226.074 182.09C227.244 185.69 229.98 194.09 232.224 196.952C235.369 201.202 239.581 204.547 244.434 206.648L245.808 207.248C251.208 209.588 255.066 211.28 260.346 210.62C265.314 210.02 268.746 207.914 270.876 204.242C272.202 201.944 273.216 197.876 273.876 195.182C274.11 194.252 274.308 193.454 274.476 192.944C274.99 191.587 275.923 190.429 277.14 189.638C277.194 189.608 279.492 188.558 280.14 186.998C280.878 185.264 286.38 180.224 286.614 180.008C286.722 179.924 295.83 172.718 299.28 168.794L302.226 165.428C312.888 153.218 312.948 153.242 313.26 153.362L313.452 153.434V153.65C313.452 154.07 311.982 161.234 310.65 164.63C309.492 167.582 309.846 168.542 310.05 168.83C310.127 168.923 310.228 168.995 310.342 169.036C310.456 169.077 310.579 169.087 310.698 169.064C311.724 168.968 313.53 163.304 314.394 160.586L314.67 159.722C315.78 156.272 316.812 149.63 316.356 147.56C316.26 147.122 316.068 147.038 315.936 147.008C315.048 146.846 313.032 148.616 311.94 150.2C310.566 152.198 304.506 158.732 301.14 161.966C297.774 165.2 285 176.156 283.71 177.092C283.278 177.404 282.816 177.806 282.366 178.19C281.376 179.036 280.44 179.834 279.702 179.93C278.82 180.038 276.15 179.978 274.8 179.162C274.409 178.912 274.041 178.627 273.702 178.31C272.736 177.458 271.266 176.18 267.198 173.972C261.582 170.93 236.49 163.628 234.582 163.502C233.592 163.43 232.698 164.018 231.582 164.756C230.744 165.333 229.857 165.835 228.93 166.256C226.224 167.414 221.904 167.582 220.038 165.962C218.172 164.342 216.018 160.406 214.764 157.394C213.75 154.958 212.208 154.124 210.714 153.314L210.06 152.948C208.434 152.018 188.112 143.06 184.38 141.86C181.419 140.847 178.367 140.124 175.266 139.7C174.229 139.641 173.189 139.713 172.17 139.916C172.095 139.968 172.009 140.003 171.918 140.018C171.443 140.027 170.984 139.848 170.64 139.52C170.004 139.04 168.24 138.23 167.04 138.512C166.825 138.556 166.623 138.649 166.45 138.785C166.278 138.92 166.139 139.094 166.044 139.292C165.084 141.206 163.704 145.58 164.472 147.092L165.354 148.892V148.97C165.354 149.084 164.514 159.86 164.874 163.538C165.216 167.138 167.94 171.8 170.484 174.854C172.932 177.8 182.616 183.14 189.528 184.784C198.06 186.806 201.768 184.868 202.728 184.22C204.348 183.11 208.89 178.112 211.074 175.712C211.458 175.292 211.764 174.95 211.98 174.722C212.196 174.494 212.334 174.314 212.484 174.122C213.132 173.306 213.6 172.802 214.8 172.802ZM258.954 209.06C258.072 209.06 257.094 209.012 256.008 208.916C250.056 208.382 244.902 206.354 239.304 202.316C234.936 199.178 233.232 195.116 231.582 191.222C231.426 190.85 231.27 190.478 231.108 190.112C228.708 184.562 226.254 176.912 227.958 171.89C229.842 166.382 235.392 167.69 235.446 167.69C235.896 167.786 239.934 168.656 240.3 168.782L240.936 168.974C253.08 172.604 267.762 177.242 268.728 178.688C269.694 180.134 272.928 185.576 272.16 192.176C271.482 198.038 270.162 201.914 267.75 205.13C265.902 207.632 263.814 209.06 258.954 209.06ZM233.898 168.164C232.272 168.164 229.698 168.764 228.528 172.106C226.8 177.182 229.728 185.426 231.66 189.89C231.822 190.262 231.978 190.634 232.134 191.006C233.748 194.84 235.422 198.806 239.658 201.848C245.16 205.802 250.218 207.794 256.062 208.316C262.818 208.916 265.218 207.554 267.27 204.812C269.616 201.686 270.9 197.9 271.56 192.152C272.298 185.75 269.196 180.512 268.23 179.06C267.984 178.694 265.278 176.924 240.762 169.586L240.108 169.394C239.856 169.31 237.108 168.704 235.308 168.314C234.845 168.21 234.372 168.159 233.898 168.164ZM195.156 185.156C194.857 185.157 194.559 185.143 194.262 185.114C190.47 184.73 181.176 181.178 174.294 175.748C166.584 169.658 166.494 161.576 167.052 156.026C167.82 148.766 170.37 144.182 174.06 143.426C177.75 142.67 189.738 145.694 198.06 150.098C205.962 154.298 213.372 159.734 213.918 161.762C214.404 163.598 214.29 167.252 214.29 167.408V167.474C214.066 168.235 213.726 168.958 213.282 169.616C213.204 169.736 213.084 169.928 212.916 170.18C211.548 172.292 207.378 178.736 204.642 180.92C201.054 183.8 198 185.156 195.156 185.156ZM175.47 143.924C175.036 143.917 174.601 143.953 174.174 144.032C170.814 144.704 168.372 149.21 167.652 156.092C166.746 164.684 168.972 170.78 174.666 175.292C181.2 180.452 190.518 184.154 194.322 184.532C197.28 184.832 200.436 183.548 204.258 180.488C206.916 178.364 211.044 171.986 212.406 169.886L212.772 169.322C213.172 168.727 213.482 168.076 213.69 167.39C213.69 167.012 213.78 163.61 213.336 161.954C212.892 160.298 206.004 155.018 197.778 150.662C190.374 146.726 180.048 143.924 175.47 143.924Z" fill="#263238"/>
<path d="M222.978 169.689C222.451 169.692 221.926 169.635 221.412 169.521C217.104 168.567 215.442 163.911 214.344 160.827L214.188 160.389C213.162 157.539 212.136 156.789 212.13 156.789L212.46 156.297C212.508 156.327 213.66 157.107 214.752 160.185L214.908 160.623C215.964 163.581 217.56 168.051 221.544 168.939C225.696 169.857 229.944 166.257 229.98 166.221L230.376 166.677C230.214 166.803 226.8 169.689 222.978 169.689Z" fill="white"/>
<path d="M277.074 183.462C275.655 183.407 274.265 183.044 273 182.4C272.862 182.281 272.749 182.134 272.67 181.968C272.112 181.02 270.402 178.152 263.256 174.93C254.802 171.12 235.47 166.296 235.278 166.248L235.422 165.648C235.614 165.696 255 170.532 263.502 174.366C270.816 177.666 272.604 180.654 273.186 181.638C273.252 181.746 273.324 181.866 273.348 181.896C273.594 182.052 277.116 183.6 278.784 182.37L279.144 182.856C278.535 183.27 277.81 183.482 277.074 183.462Z" fill="white"/>
<path d="M211.14 155.683C211.14 155.683 208.74 153.709 198.762 149.203C192.212 146.318 185.425 144.006 178.476 142.291C177.768 142.105 177.21 141.961 176.814 141.847C174.674 141.318 172.428 141.404 170.334 142.093C168.504 142.609 166.278 140.659 166.188 140.575L166.584 140.125C166.584 140.125 168.66 141.925 170.184 141.511C172.384 140.793 174.743 140.71 176.988 141.271C177.384 141.385 177.942 141.529 178.638 141.709C185.626 143.431 192.452 145.755 199.038 148.657C209.112 153.211 211.458 155.143 211.554 155.227L211.14 155.683Z" fill="white"/>
<path d="M171.144 174.41C165.66 169.652 166.08 161.558 166.086 161.48L166.686 161.516C166.686 161.594 166.278 169.4 171.534 173.954L171.144 174.41Z" fill="white"/>
</svg>
