<svg width="100" height="100" viewBox="0 0 100 100" fill="none" xmlns="http://www.w3.org/2000/svg">
<path d="M72.9308 21.51H68.0666C67.2991 21.51 66.6769 20.8878 66.6769 20.1203V19.4254C66.6769 17.8903 65.4324 16.6459 63.8974 16.6459H55.5588C54.0237 16.6459 52.7793 17.8903 52.7793 19.4254V45.8308C52.7783 46.3936 53.1169 46.9015 53.6369 47.1171C54.1569 47.3326 54.7555 47.2132 55.153 46.8147L59.2361 42.7288C59.3665 42.5981 59.5435 42.5247 59.7281 42.5247C59.9127 42.5247 60.0897 42.5981 60.2201 42.7288L64.3032 46.8147C64.7007 47.2132 65.2993 47.3326 65.8193 47.1171C66.3393 46.9015 66.6779 46.3936 66.6769 45.8308V28.4588C66.6769 27.6913 67.2991 27.0691 68.0666 27.0691H71.541C72.3086 27.0691 72.9308 27.6913 72.9308 28.4588V76.4054C72.9308 77.173 72.3086 77.7952 71.541 77.7952H36.7971C36.0296 77.7952 35.4073 77.173 35.4073 76.4054V28.4588C35.4073 27.6913 36.0296 27.0691 36.7971 27.0691H47.9151C48.2989 27.0691 48.61 26.7579 48.61 26.3742V22.2049C48.61 21.8211 48.2989 21.51 47.9151 21.51H27.0688C23.9986 21.51 21.5098 23.9989 21.5098 27.0691V77.7952C21.5098 80.8653 23.9986 83.3542 27.0688 83.3542H72.9308C76.0009 83.3542 78.4898 80.8653 78.4898 77.7952V27.0691C78.4898 23.9989 76.0009 21.51 72.9308 21.51Z" fill="#FAB317"/>
<mask id="mask0_4158_6821" style="mask-type:alpha" maskUnits="userSpaceOnUse" x="21" y="16" width="58" height="68">
<path d="M72.9308 21.51H68.0666C67.2991 21.51 66.6769 20.8878 66.6769 20.1203V19.4254C66.6769 17.8903 65.4324 16.6459 63.8974 16.6459H55.5588C54.0237 16.6459 52.7793 17.8903 52.7793 19.4254V45.8308C52.7783 46.3936 53.1169 46.9015 53.6369 47.1171C54.1569 47.3326 54.7555 47.2132 55.153 46.8147L59.2361 42.7288C59.3665 42.5981 59.5435 42.5247 59.7281 42.5247C59.9127 42.5247 60.0897 42.5981 60.2201 42.7288L64.3032 46.8147C64.7007 47.2132 65.2993 47.3326 65.8193 47.1171C66.3393 46.9015 66.6779 46.3936 66.6769 45.8308V28.4588C66.6769 27.6913 67.2991 27.0691 68.0666 27.0691H71.541C72.3086 27.0691 72.9308 27.6913 72.9308 28.4588V76.4054C72.9308 77.173 72.3086 77.7952 71.541 77.7952H36.7971C36.0296 77.7952 35.4073 77.173 35.4073 76.4054V28.4588C35.4073 27.6913 36.0296 27.0691 36.7971 27.0691H47.9151C48.2989 27.0691 48.61 26.7579 48.61 26.3742V22.2049C48.61 21.8211 48.2989 21.51 47.9151 21.51H27.0688C23.9986 21.51 21.5098 23.9989 21.5098 27.0691V77.7952C21.5098 80.8653 23.9986 83.3542 27.0688 83.3542H72.9308C76.0009 83.3542 78.4898 80.8653 78.4898 77.7952V27.0691C78.4898 23.9989 76.0009 21.51 72.9308 21.51Z" fill="white"/>
</mask>
<g mask="url(#mask0_4158_6821)">
</g>
</svg>
