<svg width="405" height="277" viewBox="0 0 405 277" fill="none" xmlns="http://www.w3.org/2000/svg">
<g filter="url(#filter0_d_4333_24741)">
<rect x="32" y="29" width="341" height="213" rx="8" fill="white" shape-rendering="crispEdges"/>
<rect x="52" y="49" width="301" height="48" rx="8" fill="#106FA4"/>
<path d="M177.504 79V67.8H182.4C183.616 67.8 184.683 68.0347 185.6 68.504C186.517 68.9733 187.232 69.624 187.744 70.456C188.256 71.288 188.512 72.2693 188.512 73.4C188.512 74.52 188.256 75.5013 187.744 76.344C187.232 77.176 186.517 77.8267 185.6 78.296C184.683 78.7653 183.616 79 182.4 79H177.504ZM179.584 77.24H182.304C183.147 77.24 183.872 77.08 184.48 76.76C185.099 76.44 185.573 75.992 185.904 75.416C186.245 74.84 186.416 74.168 186.416 73.4C186.416 72.6213 186.245 71.9493 185.904 71.384C185.573 70.808 185.099 70.36 184.48 70.04C183.872 69.72 183.147 69.56 182.304 69.56H179.584V77.24ZM195.795 79V77.272L195.683 76.904V73.88C195.683 73.2933 195.507 72.84 195.155 72.52C194.803 72.1893 194.269 72.024 193.555 72.024C193.075 72.024 192.6 72.0987 192.131 72.248C191.672 72.3973 191.283 72.6053 190.963 72.872L190.179 71.416C190.637 71.064 191.181 70.8027 191.811 70.632C192.451 70.4507 193.112 70.36 193.795 70.36C195.032 70.36 195.987 70.6587 196.659 71.256C197.341 71.8427 197.683 72.7547 197.683 73.992V79H195.795ZM193.107 79.112C192.467 79.112 191.907 79.0053 191.427 78.792C190.947 78.568 190.573 78.264 190.307 77.88C190.051 77.4853 189.923 77.0427 189.923 76.552C189.923 76.072 190.035 75.64 190.259 75.256C190.493 74.872 190.872 74.568 191.395 74.344C191.917 74.12 192.611 74.008 193.475 74.008H195.955V75.336H193.619C192.936 75.336 192.477 75.448 192.243 75.672C192.008 75.8853 191.891 76.152 191.891 76.472C191.891 76.8347 192.035 77.1227 192.323 77.336C192.611 77.5493 193.011 77.656 193.523 77.656C194.013 77.656 194.451 77.544 194.835 77.32C195.229 77.096 195.512 76.7653 195.683 76.328L196.019 77.528C195.827 78.0293 195.48 78.4187 194.979 78.696C194.488 78.9733 193.864 79.112 193.107 79.112ZM200.522 79V69.976C200.522 69.08 200.783 68.3653 201.306 67.832C201.839 67.288 202.596 67.016 203.578 67.016C203.93 67.016 204.26 67.0533 204.57 67.128C204.89 67.2027 205.156 67.32 205.37 67.48L204.826 68.984C204.676 68.8667 204.506 68.7813 204.314 68.728C204.122 68.664 203.924 68.632 203.722 68.632C203.306 68.632 202.991 68.7493 202.778 68.984C202.564 69.208 202.458 69.5493 202.458 70.008V70.968L202.522 71.864V79H200.522ZM199.114 72.12V70.52H204.81V72.12H199.114ZM209.372 79.112C208.433 79.112 207.708 78.872 207.196 78.392C206.684 77.9013 206.428 77.1813 206.428 76.232V68.568H208.428V76.184C208.428 76.5893 208.529 76.904 208.732 77.128C208.945 77.352 209.238 77.464 209.612 77.464C210.06 77.464 210.433 77.3467 210.732 77.112L211.292 78.536C211.057 78.728 210.769 78.872 210.428 78.968C210.086 79.064 209.734 79.112 209.372 79.112ZM205.02 72.12V70.52H210.716V72.12H205.02ZM218.201 79V77.272L218.089 76.904V73.88C218.089 73.2933 217.913 72.84 217.561 72.52C217.209 72.1893 216.676 72.024 215.961 72.024C215.481 72.024 215.006 72.0987 214.537 72.248C214.078 72.3973 213.689 72.6053 213.369 72.872L212.585 71.416C213.044 71.064 213.588 70.8027 214.217 70.632C214.857 70.4507 215.518 70.36 216.201 70.36C217.438 70.36 218.393 70.6587 219.065 71.256C219.748 71.8427 220.089 72.7547 220.089 73.992V79H218.201ZM215.513 79.112C214.873 79.112 214.313 79.0053 213.833 78.792C213.353 78.568 212.98 78.264 212.713 77.88C212.457 77.4853 212.329 77.0427 212.329 76.552C212.329 76.072 212.441 75.64 212.665 75.256C212.9 74.872 213.278 74.568 213.801 74.344C214.324 74.12 215.017 74.008 215.881 74.008H218.361V75.336H216.025C215.342 75.336 214.884 75.448 214.649 75.672C214.414 75.8853 214.297 76.152 214.297 76.472C214.297 76.8347 214.441 77.1227 214.729 77.336C215.017 77.5493 215.417 77.656 215.929 77.656C216.42 77.656 216.857 77.544 217.241 77.32C217.636 77.096 217.918 76.7653 218.089 76.328L218.425 77.528C218.233 78.0293 217.886 78.4187 217.385 78.696C216.894 78.9733 216.27 79.112 215.513 79.112ZM222.656 79V70.456H224.56V72.808L224.336 72.12C224.592 71.544 224.992 71.1067 225.536 70.808C226.09 70.5093 226.778 70.36 227.6 70.36V72.264C227.514 72.2427 227.434 72.232 227.36 72.232C227.285 72.2213 227.21 72.216 227.136 72.216C226.378 72.216 225.776 72.44 225.328 72.888C224.88 73.3253 224.656 73.9813 224.656 74.856V79H222.656Z" fill="white"/>
<rect x="52" y="135" width="97.3761" height="1" fill="#D9D9D9"/>
<path d="M183.156 141L188.228 129.8H189.812L194.9 141H193.22L188.692 130.696H189.332L184.804 141H183.156ZM185.316 138.2L185.748 136.92H192.052L192.516 138.2H185.316ZM199.18 141.096C198.327 141.096 197.666 140.867 197.196 140.408C196.727 139.949 196.492 139.293 196.492 138.44V130.664H198.028V138.376C198.028 138.835 198.14 139.187 198.364 139.432C198.599 139.677 198.93 139.8 199.356 139.8C199.836 139.8 200.236 139.667 200.556 139.4L201.036 140.504C200.802 140.707 200.519 140.856 200.188 140.952C199.868 141.048 199.532 141.096 199.18 141.096ZM195.052 133.784V132.52H200.46V133.784H195.052ZM208.157 141V139.208L208.077 138.872V135.816C208.077 135.165 207.885 134.664 207.501 134.312C207.128 133.949 206.563 133.768 205.805 133.768C205.304 133.768 204.813 133.853 204.333 134.024C203.853 134.184 203.448 134.403 203.117 134.68L202.477 133.528C202.915 133.176 203.437 132.909 204.045 132.728C204.664 132.536 205.309 132.44 205.981 132.44C207.144 132.44 208.04 132.723 208.669 133.288C209.299 133.853 209.613 134.717 209.613 135.88V141H208.157ZM205.373 141.096C204.744 141.096 204.189 140.989 203.709 140.776C203.24 140.563 202.877 140.269 202.621 139.896C202.365 139.512 202.237 139.08 202.237 138.6C202.237 138.141 202.344 137.725 202.557 137.352C202.781 136.979 203.139 136.68 203.629 136.456C204.131 136.232 204.803 136.12 205.645 136.12H208.333V137.224H205.709C204.941 137.224 204.424 137.352 204.157 137.608C203.891 137.864 203.757 138.173 203.757 138.536C203.757 138.952 203.923 139.288 204.253 139.544C204.584 139.789 205.043 139.912 205.629 139.912C206.205 139.912 206.707 139.784 207.133 139.528C207.571 139.272 207.885 138.899 208.077 138.408L208.381 139.464C208.179 139.965 207.821 140.365 207.309 140.664C206.797 140.952 206.152 141.096 205.373 141.096ZM216.024 141.096C215.299 141.096 214.659 140.963 214.104 140.696C213.56 140.429 213.133 140.024 212.824 139.48C212.525 138.925 212.376 138.232 212.376 137.4V132.52H213.912V137.224C213.912 138.056 214.109 138.68 214.504 139.096C214.909 139.512 215.475 139.72 216.2 139.72C216.733 139.72 217.197 139.613 217.592 139.4C217.987 139.176 218.291 138.856 218.504 138.44C218.717 138.013 218.824 137.501 218.824 136.904V132.52H220.36V141H218.904V138.712L219.144 139.32C218.867 139.885 218.451 140.323 217.896 140.632C217.341 140.941 216.717 141.096 216.024 141.096Z" fill="#737373"/>
<rect x="255.624" y="135" width="97.3761" height="1" fill="#D9D9D9"/>
<rect x="52.5" y="174.5" width="300" height="47" rx="7.5" fill="white"/>
<path d="M116.806 196.042H116V196H107V200H112.652C111.827 202.329 109.612 204 107 204C103.687 204 101 201.313 101 198C101 194.687 103.687 192 107 192C108.53 192 109.921 192.577 110.981 193.519L113.809 190.691C112.023 189.026 109.634 188 107 188C101.477 188 97 192.477 97 198C97 203.523 101.477 208 107 208C112.523 208 117 203.523 117 198C117 197.33 116.931 196.675 116.806 196.042Z" fill="#FFC107"/>
<path d="M98.1533 193.345L101.439 195.755C102.328 193.554 104.481 192 107 192C108.53 192 109.921 192.577 110.981 193.519L113.809 190.691C112.023 189.026 109.634 188 107 188C103.159 188 99.8283 190.168 98.1533 193.345Z" fill="#FF3D00"/>
<path d="M107 208C109.583 208 111.93 207.011 113.705 205.404L110.61 202.785C109.606 203.545 108.358 204 107 204C104.399 204 102.191 202.341 101.359 200.027L98.0977 202.539C99.7527 205.778 103.114 208 107 208Z" fill="#4CAF50"/>
<path d="M116.806 196.042H116V196H107V200H112.652C112.256 201.118 111.536 202.083 110.608 202.785C110.608 202.785 110.609 202.785 110.609 202.785L113.705 205.403C113.486 205.602 117 203 117 198C117 197.33 116.931 196.675 116.806 196.042Z" fill="#1976D2"/>
<path d="M128.504 204V192.8H133.4C134.616 192.8 135.683 193.035 136.6 193.504C137.517 193.973 138.232 194.624 138.744 195.456C139.256 196.288 139.512 197.269 139.512 198.4C139.512 199.52 139.256 200.501 138.744 201.344C138.232 202.176 137.517 202.827 136.6 203.296C135.683 203.765 134.616 204 133.4 204H128.504ZM130.584 202.24H133.304C134.147 202.24 134.872 202.08 135.48 201.76C136.099 201.44 136.573 200.992 136.904 200.416C137.245 199.84 137.416 199.168 137.416 198.4C137.416 197.621 137.245 196.949 136.904 196.384C136.573 195.808 136.099 195.36 135.48 195.04C134.872 194.72 134.147 194.56 133.304 194.56H130.584V202.24ZM146.795 204V202.272L146.683 201.904V198.88C146.683 198.293 146.507 197.84 146.155 197.52C145.803 197.189 145.269 197.024 144.555 197.024C144.075 197.024 143.6 197.099 143.131 197.248C142.672 197.397 142.283 197.605 141.963 197.872L141.179 196.416C141.637 196.064 142.181 195.803 142.811 195.632C143.451 195.451 144.112 195.36 144.795 195.36C146.032 195.36 146.987 195.659 147.659 196.256C148.341 196.843 148.683 197.755 148.683 198.992V204H146.795ZM144.107 204.112C143.467 204.112 142.907 204.005 142.427 203.792C141.947 203.568 141.573 203.264 141.307 202.88C141.051 202.485 140.923 202.043 140.923 201.552C140.923 201.072 141.035 200.64 141.259 200.256C141.493 199.872 141.872 199.568 142.395 199.344C142.917 199.12 143.611 199.008 144.475 199.008H146.955V200.336H144.619C143.936 200.336 143.477 200.448 143.243 200.672C143.008 200.885 142.891 201.152 142.891 201.472C142.891 201.835 143.035 202.123 143.323 202.336C143.611 202.549 144.011 202.656 144.523 202.656C145.013 202.656 145.451 202.544 145.835 202.32C146.229 202.096 146.512 201.765 146.683 201.328L147.019 202.528C146.827 203.029 146.48 203.419 145.979 203.696C145.488 203.973 144.864 204.112 144.107 204.112ZM151.522 204V194.976C151.522 194.08 151.783 193.365 152.306 192.832C152.839 192.288 153.596 192.016 154.578 192.016C154.93 192.016 155.26 192.053 155.57 192.128C155.89 192.203 156.156 192.32 156.37 192.48L155.826 193.984C155.676 193.867 155.506 193.781 155.314 193.728C155.122 193.664 154.924 193.632 154.722 193.632C154.306 193.632 153.991 193.749 153.778 193.984C153.564 194.208 153.458 194.549 153.458 195.008V195.968L153.522 196.864V204H151.522ZM150.114 197.12V195.52H155.81V197.12H150.114ZM160.372 204.112C159.433 204.112 158.708 203.872 158.196 203.392C157.684 202.901 157.428 202.181 157.428 201.232V193.568H159.428V201.184C159.428 201.589 159.529 201.904 159.732 202.128C159.945 202.352 160.238 202.464 160.612 202.464C161.06 202.464 161.433 202.347 161.732 202.112L162.292 203.536C162.057 203.728 161.769 203.872 161.428 203.968C161.086 204.064 160.734 204.112 160.372 204.112ZM156.02 197.12V195.52H161.716V197.12H156.02ZM169.201 204V202.272L169.089 201.904V198.88C169.089 198.293 168.913 197.84 168.561 197.52C168.209 197.189 167.676 197.024 166.961 197.024C166.481 197.024 166.006 197.099 165.537 197.248C165.078 197.397 164.689 197.605 164.369 197.872L163.585 196.416C164.044 196.064 164.588 195.803 165.217 195.632C165.857 195.451 166.518 195.36 167.201 195.36C168.438 195.36 169.393 195.659 170.065 196.256C170.748 196.843 171.089 197.755 171.089 198.992V204H169.201ZM166.513 204.112C165.873 204.112 165.313 204.005 164.833 203.792C164.353 203.568 163.98 203.264 163.713 202.88C163.457 202.485 163.329 202.043 163.329 201.552C163.329 201.072 163.441 200.64 163.665 200.256C163.9 199.872 164.278 199.568 164.801 199.344C165.324 199.12 166.017 199.008 166.881 199.008H169.361V200.336H167.025C166.342 200.336 165.884 200.448 165.649 200.672C165.414 200.885 165.297 201.152 165.297 201.472C165.297 201.835 165.441 202.123 165.729 202.336C166.017 202.549 166.417 202.656 166.929 202.656C167.42 202.656 167.857 202.544 168.241 202.32C168.636 202.096 168.918 201.765 169.089 201.328L169.425 202.528C169.233 203.029 168.886 203.419 168.385 203.696C167.894 203.973 167.27 204.112 166.513 204.112ZM173.656 204V195.456H175.56V197.808L175.336 197.12C175.592 196.544 175.992 196.107 176.536 195.808C177.09 195.509 177.778 195.36 178.6 195.36V197.264C178.514 197.243 178.434 197.232 178.36 197.232C178.285 197.221 178.21 197.216 178.136 197.216C177.378 197.216 176.776 197.44 176.328 197.888C175.88 198.325 175.656 198.981 175.656 199.856V204H173.656ZM188.412 204.112C187.591 204.112 186.85 203.931 186.188 203.568C185.538 203.195 185.026 202.683 184.652 202.032C184.279 201.381 184.092 200.613 184.092 199.728C184.092 198.843 184.279 198.075 184.652 197.424C185.026 196.773 185.538 196.267 186.188 195.904C186.85 195.541 187.591 195.36 188.412 195.36C189.127 195.36 189.767 195.52 190.332 195.84C190.898 196.149 191.346 196.624 191.676 197.264C192.007 197.904 192.172 198.725 192.172 199.728C192.172 200.72 192.012 201.541 191.692 202.192C191.372 202.832 190.93 203.312 190.364 203.632C189.799 203.952 189.148 204.112 188.412 204.112ZM188.652 202.4C189.132 202.4 189.559 202.293 189.932 202.08C190.316 201.867 190.62 201.557 190.844 201.152C191.079 200.747 191.196 200.272 191.196 199.728C191.196 199.173 191.079 198.699 190.844 198.304C190.62 197.899 190.316 197.589 189.932 197.376C189.559 197.163 189.132 197.056 188.652 197.056C188.172 197.056 187.74 197.163 187.356 197.376C186.983 197.589 186.679 197.899 186.444 198.304C186.22 198.699 186.108 199.173 186.108 199.728C186.108 200.272 186.22 200.747 186.444 201.152C186.679 201.557 186.983 201.867 187.356 202.08C187.74 202.293 188.172 202.4 188.652 202.4ZM191.244 204V201.984L191.324 199.712L191.164 197.44V192.128H193.148V204H191.244ZM199.797 204.112C198.847 204.112 198.015 203.925 197.301 203.552C196.597 203.168 196.047 202.645 195.653 201.984C195.269 201.323 195.077 200.571 195.077 199.728C195.077 198.875 195.263 198.123 195.637 197.472C196.021 196.811 196.543 196.293 197.205 195.92C197.877 195.547 198.639 195.36 199.493 195.36C200.325 195.36 201.066 195.541 201.717 195.904C202.367 196.267 202.879 196.779 203.253 197.44C203.626 198.101 203.813 198.88 203.813 199.776C203.813 199.861 203.807 199.957 203.797 200.064C203.797 200.171 203.791 200.272 203.781 200.368H196.661V199.04H202.725L201.941 199.456C201.951 198.965 201.85 198.533 201.637 198.16C201.423 197.787 201.13 197.493 200.757 197.28C200.394 197.067 199.973 196.96 199.493 196.96C199.002 196.96 198.57 197.067 198.197 197.28C197.834 197.493 197.546 197.792 197.333 198.176C197.13 198.549 197.029 198.992 197.029 199.504V199.824C197.029 200.336 197.146 200.789 197.381 201.184C197.615 201.579 197.946 201.883 198.373 202.096C198.799 202.309 199.29 202.416 199.845 202.416C200.325 202.416 200.757 202.341 201.141 202.192C201.525 202.043 201.866 201.808 202.165 201.488L203.237 202.72C202.853 203.168 202.367 203.515 201.781 203.76C201.205 203.995 200.543 204.112 199.797 204.112ZM210.582 195.36C211.265 195.36 211.873 195.493 212.406 195.76C212.95 196.027 213.377 196.437 213.686 196.992C213.995 197.536 214.15 198.24 214.15 199.104V204H212.15V199.36C212.15 198.603 211.969 198.037 211.606 197.664C211.254 197.291 210.758 197.104 210.118 197.104C209.649 197.104 209.233 197.2 208.87 197.392C208.507 197.584 208.225 197.872 208.022 198.256C207.83 198.629 207.734 199.104 207.734 199.68V204H205.734V195.456H207.638V197.76L207.302 197.056C207.601 196.512 208.033 196.096 208.598 195.808C209.174 195.509 209.835 195.36 210.582 195.36ZM220.575 207.216C219.785 207.216 219.012 207.109 218.255 206.896C217.508 206.693 216.895 206.395 216.415 206L217.311 204.496C217.684 204.805 218.153 205.051 218.719 205.232C219.295 205.424 219.876 205.52 220.463 205.52C221.401 205.52 222.089 205.301 222.527 204.864C222.964 204.437 223.183 203.792 223.183 202.928V201.408L223.343 199.472L223.279 197.536V195.456H225.183V202.704C225.183 204.251 224.788 205.387 223.999 206.112C223.209 206.848 222.068 207.216 220.575 207.216ZM220.319 203.616C219.508 203.616 218.772 203.445 218.111 203.104C217.46 202.752 216.943 202.267 216.559 201.648C216.185 201.029 215.999 200.304 215.999 199.472C215.999 198.651 216.185 197.931 216.559 197.312C216.943 196.693 217.46 196.213 218.111 195.872C218.772 195.531 219.508 195.36 220.319 195.36C221.044 195.36 221.695 195.504 222.271 195.792C222.847 196.08 223.305 196.528 223.647 197.136C223.999 197.744 224.175 198.523 224.175 199.472C224.175 200.421 223.999 201.205 223.647 201.824C223.305 202.432 222.847 202.885 222.271 203.184C221.695 203.472 221.044 203.616 220.319 203.616ZM220.623 201.92C221.124 201.92 221.572 201.819 221.967 201.616C222.361 201.403 222.665 201.115 222.879 200.752C223.103 200.379 223.215 199.952 223.215 199.472C223.215 198.992 223.103 198.571 222.879 198.208C222.665 197.835 222.361 197.552 221.967 197.36C221.572 197.157 221.124 197.056 220.623 197.056C220.121 197.056 219.668 197.157 219.263 197.36C218.868 197.552 218.559 197.835 218.335 198.208C218.121 198.571 218.015 198.992 218.015 199.472C218.015 199.952 218.121 200.379 218.335 200.752C218.559 201.115 218.868 201.403 219.263 201.616C219.668 201.819 220.121 201.92 220.623 201.92ZM233.076 204V202.272L232.964 201.904V198.88C232.964 198.293 232.788 197.84 232.436 197.52C232.084 197.189 231.551 197.024 230.836 197.024C230.356 197.024 229.881 197.099 229.412 197.248C228.953 197.397 228.564 197.605 228.244 197.872L227.46 196.416C227.919 196.064 228.463 195.803 229.092 195.632C229.732 195.451 230.393 195.36 231.076 195.36C232.313 195.36 233.268 195.659 233.94 196.256C234.623 196.843 234.964 197.755 234.964 198.992V204H233.076ZM230.388 204.112C229.748 204.112 229.188 204.005 228.708 203.792C228.228 203.568 227.855 203.264 227.588 202.88C227.332 202.485 227.204 202.043 227.204 201.552C227.204 201.072 227.316 200.64 227.54 200.256C227.775 199.872 228.153 199.568 228.676 199.344C229.199 199.12 229.892 199.008 230.756 199.008H233.236V200.336H230.9C230.217 200.336 229.759 200.448 229.524 200.672C229.289 200.885 229.172 201.152 229.172 201.472C229.172 201.835 229.316 202.123 229.604 202.336C229.892 202.549 230.292 202.656 230.804 202.656C231.295 202.656 231.732 202.544 232.116 202.32C232.511 202.096 232.793 201.765 232.964 201.328L233.3 202.528C233.108 203.029 232.761 203.419 232.26 203.696C231.769 203.973 231.145 204.112 230.388 204.112ZM242.379 195.36C243.061 195.36 243.669 195.493 244.203 195.76C244.747 196.027 245.173 196.437 245.483 196.992C245.792 197.536 245.947 198.24 245.947 199.104V204H243.947V199.36C243.947 198.603 243.765 198.037 243.403 197.664C243.051 197.291 242.555 197.104 241.915 197.104C241.445 197.104 241.029 197.2 240.667 197.392C240.304 197.584 240.021 197.872 239.819 198.256C239.627 198.629 239.531 199.104 239.531 199.68V204H237.531V195.456H239.435V197.76L239.099 197.056C239.397 196.512 239.829 196.096 240.395 195.808C240.971 195.509 241.632 195.36 242.379 195.36ZM256.778 207.216C255.988 207.216 255.215 207.109 254.458 206.896C253.711 206.693 253.098 206.395 252.618 206L253.514 204.496C253.887 204.805 254.356 205.051 254.922 205.232C255.498 205.424 256.079 205.52 256.666 205.52C257.604 205.52 258.292 205.301 258.73 204.864C259.167 204.437 259.386 203.792 259.386 202.928V201.408L259.546 199.472L259.482 197.536V195.456H261.386V202.704C261.386 204.251 260.991 205.387 260.202 206.112C259.412 206.848 258.271 207.216 256.778 207.216ZM256.522 203.616C255.711 203.616 254.975 203.445 254.314 203.104C253.663 202.752 253.146 202.267 252.762 201.648C252.388 201.029 252.202 200.304 252.202 199.472C252.202 198.651 252.388 197.931 252.762 197.312C253.146 196.693 253.663 196.213 254.314 195.872C254.975 195.531 255.711 195.36 256.522 195.36C257.247 195.36 257.898 195.504 258.474 195.792C259.05 196.08 259.508 196.528 259.85 197.136C260.202 197.744 260.378 198.523 260.378 199.472C260.378 200.421 260.202 201.205 259.85 201.824C259.508 202.432 259.05 202.885 258.474 203.184C257.898 203.472 257.247 203.616 256.522 203.616ZM256.826 201.92C257.327 201.92 257.775 201.819 258.17 201.616C258.564 201.403 258.868 201.115 259.082 200.752C259.306 200.379 259.418 199.952 259.418 199.472C259.418 198.992 259.306 198.571 259.082 198.208C258.868 197.835 258.564 197.552 258.17 197.36C257.775 197.157 257.327 197.056 256.826 197.056C256.324 197.056 255.871 197.157 255.466 197.36C255.071 197.552 254.762 197.835 254.538 198.208C254.324 198.571 254.218 198.992 254.218 199.472C254.218 199.952 254.324 200.379 254.538 200.752C254.762 201.115 255.071 201.403 255.466 201.616C255.871 201.819 256.324 201.92 256.826 201.92ZM267.855 204.112C266.98 204.112 266.202 203.925 265.519 203.552C264.836 203.168 264.298 202.645 263.903 201.984C263.508 201.323 263.311 200.571 263.311 199.728C263.311 198.875 263.508 198.123 263.903 197.472C264.298 196.811 264.836 196.293 265.519 195.92C266.202 195.547 266.98 195.36 267.855 195.36C268.74 195.36 269.524 195.547 270.207 195.92C270.9 196.293 271.439 196.805 271.823 197.456C272.218 198.107 272.415 198.864 272.415 199.728C272.415 200.571 272.218 201.323 271.823 201.984C271.439 202.645 270.9 203.168 270.207 203.552C269.524 203.925 268.74 204.112 267.855 204.112ZM267.855 202.4C268.346 202.4 268.783 202.293 269.167 202.08C269.551 201.867 269.85 201.557 270.063 201.152C270.287 200.747 270.399 200.272 270.399 199.728C270.399 199.173 270.287 198.699 270.063 198.304C269.85 197.899 269.551 197.589 269.167 197.376C268.783 197.163 268.351 197.056 267.871 197.056C267.38 197.056 266.943 197.163 266.559 197.376C266.186 197.589 265.887 197.899 265.663 198.304C265.439 198.699 265.327 199.173 265.327 199.728C265.327 200.272 265.439 200.747 265.663 201.152C265.887 201.557 266.186 201.867 266.559 202.08C266.943 202.293 267.375 202.4 267.855 202.4ZM278.168 204.112C277.293 204.112 276.514 203.925 275.832 203.552C275.149 203.168 274.61 202.645 274.216 201.984C273.821 201.323 273.624 200.571 273.624 199.728C273.624 198.875 273.821 198.123 274.216 197.472C274.61 196.811 275.149 196.293 275.832 195.92C276.514 195.547 277.293 195.36 278.168 195.36C279.053 195.36 279.837 195.547 280.52 195.92C281.213 196.293 281.752 196.805 282.136 197.456C282.53 198.107 282.728 198.864 282.728 199.728C282.728 200.571 282.53 201.323 282.136 201.984C281.752 202.645 281.213 203.168 280.52 203.552C279.837 203.925 279.053 204.112 278.168 204.112ZM278.168 202.4C278.658 202.4 279.096 202.293 279.48 202.08C279.864 201.867 280.162 201.557 280.376 201.152C280.6 200.747 280.712 200.272 280.712 199.728C280.712 199.173 280.6 198.699 280.376 198.304C280.162 197.899 279.864 197.589 279.48 197.376C279.096 197.163 278.664 197.056 278.184 197.056C277.693 197.056 277.256 197.163 276.872 197.376C276.498 197.589 276.2 197.899 275.976 198.304C275.752 198.699 275.64 199.173 275.64 199.728C275.64 200.272 275.752 200.747 275.976 201.152C276.2 201.557 276.498 201.867 276.872 202.08C277.256 202.293 277.688 202.4 278.168 202.4ZM288.512 207.216C287.723 207.216 286.949 207.109 286.192 206.896C285.445 206.693 284.832 206.395 284.352 206L285.248 204.496C285.621 204.805 286.091 205.051 286.656 205.232C287.232 205.424 287.813 205.52 288.4 205.52C289.339 205.52 290.027 205.301 290.464 204.864C290.901 204.437 291.12 203.792 291.12 202.928V201.408L291.28 199.472L291.216 197.536V195.456H293.12V202.704C293.12 204.251 292.725 205.387 291.936 206.112C291.147 206.848 290.005 207.216 288.512 207.216ZM288.256 203.616C287.445 203.616 286.709 203.445 286.048 203.104C285.397 202.752 284.88 202.267 284.496 201.648C284.123 201.029 283.936 200.304 283.936 199.472C283.936 198.651 284.123 197.931 284.496 197.312C284.88 196.693 285.397 196.213 286.048 195.872C286.709 195.531 287.445 195.36 288.256 195.36C288.981 195.36 289.632 195.504 290.208 195.792C290.784 196.08 291.243 196.528 291.584 197.136C291.936 197.744 292.112 198.523 292.112 199.472C292.112 200.421 291.936 201.205 291.584 201.824C291.243 202.432 290.784 202.885 290.208 203.184C289.632 203.472 288.981 203.616 288.256 203.616ZM288.56 201.92C289.061 201.92 289.509 201.819 289.904 201.616C290.299 201.403 290.603 201.115 290.816 200.752C291.04 200.379 291.152 199.952 291.152 199.472C291.152 198.992 291.04 198.571 290.816 198.208C290.603 197.835 290.299 197.552 289.904 197.36C289.509 197.157 289.061 197.056 288.56 197.056C288.059 197.056 287.605 197.157 287.2 197.36C286.805 197.552 286.496 197.835 286.272 198.208C286.059 198.571 285.952 198.992 285.952 199.472C285.952 199.952 286.059 200.379 286.272 200.752C286.496 201.115 286.805 201.403 287.2 201.616C287.605 201.819 288.059 201.92 288.56 201.92ZM295.75 204V192.128H297.75V204H295.75ZM304.391 204.112C303.441 204.112 302.609 203.925 301.895 203.552C301.191 203.168 300.641 202.645 300.247 201.984C299.863 201.323 299.671 200.571 299.671 199.728C299.671 198.875 299.857 198.123 300.231 197.472C300.615 196.811 301.137 196.293 301.799 195.92C302.471 195.547 303.233 195.36 304.087 195.36C304.919 195.36 305.66 195.541 306.311 195.904C306.961 196.267 307.473 196.779 307.847 197.44C308.22 198.101 308.407 198.88 308.407 199.776C308.407 199.861 308.401 199.957 308.391 200.064C308.391 200.171 308.385 200.272 308.375 200.368H301.255V199.04H307.319L306.535 199.456C306.545 198.965 306.444 198.533 306.231 198.16C306.017 197.787 305.724 197.493 305.351 197.28C304.988 197.067 304.567 196.96 304.087 196.96C303.596 196.96 303.164 197.067 302.791 197.28C302.428 197.493 302.14 197.792 301.927 198.176C301.724 198.549 301.623 198.992 301.623 199.504V199.824C301.623 200.336 301.74 200.789 301.975 201.184C302.209 201.579 302.54 201.883 302.967 202.096C303.393 202.309 303.884 202.416 304.439 202.416C304.919 202.416 305.351 202.341 305.735 202.192C306.119 202.043 306.46 201.808 306.759 201.488L307.831 202.72C307.447 203.168 306.961 203.515 306.375 203.76C305.799 203.995 305.137 204.112 304.391 204.112Z" fill="#171717"/>
<rect x="52.5" y="174.5" width="300" height="47" rx="7.5" stroke="#D4D4D4"/>
</g>
<defs>
<filter id="filter0_d_4333_24741" x="0" y="0" width="405" height="277" filterUnits="userSpaceOnUse" color-interpolation-filters="sRGB">
<feFlood flood-opacity="0" result="BackgroundImageFix"/>
<feColorMatrix in="SourceAlpha" type="matrix" values="0 0 0 0 0 0 0 0 0 0 0 0 0 0 0 0 0 0 127 0" result="hardAlpha"/>
<feMorphology radius="10" operator="dilate" in="SourceAlpha" result="effect1_dropShadow_4333_24741"/>
<feOffset dy="3"/>
<feGaussianBlur stdDeviation="11"/>
<feComposite in2="hardAlpha" operator="out"/>
<feColorMatrix type="matrix" values="0 0 0 0 0.5875 0 0 0 0 0.5875 0 0 0 0 0.5875 0 0 0 0.1 0"/>
<feBlend mode="normal" in2="BackgroundImageFix" result="effect1_dropShadow_4333_24741"/>
<feBlend mode="normal" in="SourceGraphic" in2="effect1_dropShadow_4333_24741" result="shape"/>
</filter>
</defs>
</svg>
