<svg width="355" height="355" viewBox="0 0 355 355" fill="none" xmlns="http://www.w3.org/2000/svg">
<path d="M60.6622 93.01L70.0555 77.7308C87.1026 60.421 113.209 52.54 136.994 57.581C160.779 62.622 181.476 80.3649 190.053 103.113C195.101 116.49 196.507 131.89 206.084 142.511C218.538 156.328 239.696 156.761 258.291 156.2C276.886 155.639 298.051 156.115 310.454 169.988C318.222 178.679 320.685 191.033 320.061 202.648C318.406 233.455 296.666 260.996 269.019 274.692C241.371 288.388 208.818 289.602 178.565 283.588C136.178 275.146 95.864 251.979 71.6388 216.188C47.4136 180.397 41.2792 131.655 60.6622 93.01Z" fill="#EBEBEB"/>
<path d="M24.6868 321.069C24.6868 321.169 93.1096 321.254 177.493 321.254C261.877 321.254 330.313 321.169 330.313 321.069C330.313 320.97 261.905 320.92 177.5 320.92C93.0954 320.92 24.6868 320.97 24.6868 321.069Z" fill="#263238"/>
<path d="M57.0841 307.693C57.5669 305.783 56.3031 303.873 54.8902 302.496C53.4773 301.118 51.7946 299.89 51.0562 298.058C49.8563 295.104 51.4254 291.256 49.3948 288.793C48.202 287.373 46.0649 286.869 45.007 285.314C44.5099 284.472 44.1752 283.545 44.0201 282.58C42.8683 277.657 40.4164 273.133 36.9201 269.481C36.7129 273.874 37.694 278.243 39.7601 282.126C40.5837 283.681 41.599 285.186 41.8901 286.925C42.3445 289.765 40.7896 292.655 41.4996 295.445C42.309 298.612 45.8803 300.706 46.0649 303.965C46.2211 306.72 43.8355 309.155 44.0272 311.903C44.1771 313.074 44.6056 314.191 45.2768 315.162C47.4068 318.712 50.5663 321.119 55.3091 321.012L61.124 321.183L57.0841 307.693Z" fill="#106FA4"/>
<path d="M62.3022 321.261C62.833 321.341 63.3738 321.326 63.8997 321.218C64.5413 321.12 65.1715 320.958 65.7812 320.735C66.6232 320.436 67.4101 319.999 68.11 319.443C68.5289 319.101 68.8559 318.659 69.0614 318.158C69.2335 317.594 69.322 317.008 69.3241 316.419C69.3325 315.792 69.3752 315.166 69.4519 314.544C69.5634 313.879 69.8047 313.242 70.1619 312.67C70.8719 311.463 71.9724 310.313 72.3274 308.68C72.6824 307.047 72.4267 305.336 72.1427 303.589C71.8587 301.842 71.589 299.947 72.2493 298.129C72.9096 296.311 74.1237 294.657 74.7485 292.605C75.3733 290.553 75.068 288.31 75.1887 286.116C75.216 285.004 75.457 283.907 75.8987 282.885C76.3602 281.856 77.0063 280.883 77.5104 279.797C78.5328 277.603 78.6961 275.118 78.9659 272.697C79.0937 271.476 79.2286 270.233 79.3635 268.984C79.4399 267.725 79.6494 266.478 79.9883 265.263C80.3697 264.036 80.8274 262.834 81.3586 261.663C81.6314 261.056 81.8523 260.427 82.0189 259.782C82.1161 259.119 82.1754 258.45 82.1964 257.78C82.2507 256.438 82.1913 255.093 82.0189 253.761C81.8556 252.419 81.6071 251.092 81.4509 249.75C81.4509 249.672 81.4509 249.586 81.4509 249.515V249.253L81.2095 249.366C79.9824 250.004 78.9184 250.915 78.0997 252.029C77.3009 253.116 76.6603 254.312 76.1969 255.579C75.2384 258.078 74.9047 260.698 74.429 263.197C74.0783 265.667 73.2846 268.053 72.086 270.24C71.4541 271.277 70.666 272.228 70.0199 273.236C69.3064 274.225 68.8214 275.36 68.5999 276.559C68.2662 279.016 69.6365 281.167 69.3667 283.347C69.2372 284.418 68.8814 285.449 68.323 286.371C67.7976 287.302 67.187 288.168 66.5977 289.034C66.0015 289.881 65.4857 290.782 65.057 291.725C64.6494 292.648 64.409 293.636 64.347 294.643C64.2121 296.603 64.5032 298.456 64.347 300.216C64.1908 301.887 63.7083 303.51 62.927 304.995C62.217 306.415 61.4573 307.728 60.797 308.985C60.4704 309.61 60.1722 310.227 59.9237 310.838C59.694 311.434 59.5274 312.053 59.4267 312.684C59.2674 313.784 59.2674 314.9 59.4267 316C59.5907 317.534 60.1755 318.994 61.1164 320.217C61.2607 320.398 61.4198 320.567 61.5922 320.721C61.7066 320.845 61.8353 320.955 61.9756 321.048C62.1886 321.204 62.3093 321.275 62.3093 321.275C61.8891 320.951 61.5079 320.579 61.1733 320.167C60.2707 318.942 59.7185 317.494 59.5758 315.979C59.4398 314.893 59.4589 313.793 59.6326 312.712C59.7309 312.096 59.9001 311.494 60.1367 310.916C60.3956 310.291 60.6871 309.679 61.01 309.084C61.6632 307.835 62.43 306.543 63.14 305.101C63.9385 303.588 64.433 301.934 64.5955 300.231C64.7375 298.441 64.4606 296.574 64.5955 294.664C64.6633 293.683 64.9037 292.722 65.3055 291.824C65.733 290.898 66.2465 290.014 66.8391 289.183C67.4213 288.324 68.039 287.458 68.5786 286.506C69.1629 285.548 69.5357 284.475 69.672 283.361C69.9347 281.039 68.5786 278.874 68.9194 276.588C69.1362 275.444 69.6042 274.362 70.2897 273.421C70.95 272.427 71.7097 271.476 72.37 270.411C73.5946 268.189 74.4076 265.765 74.7698 263.254C75.2526 260.74 75.5863 258.149 76.5235 255.699C76.9729 254.462 77.5969 253.295 78.3766 252.235C79.1615 251.169 80.182 250.299 81.3586 249.693L81.0888 249.544C81.0888 249.615 81.0888 249.7 81.0888 249.778C81.245 251.134 81.4935 252.469 81.6568 253.79C81.8289 255.103 81.8883 256.428 81.8343 257.751C81.8108 258.4 81.7539 259.047 81.6639 259.69C81.4996 260.312 81.2859 260.919 81.0249 261.507C80.4923 262.693 80.03 263.909 79.6404 265.15C79.2997 266.383 79.0879 267.649 79.0085 268.927C78.8807 270.183 78.7458 271.419 78.618 272.647C78.3553 275.09 78.1849 277.532 77.198 279.648C76.7152 280.706 76.0691 281.685 75.5934 282.75C75.123 283.804 74.8649 284.941 74.8337 286.095C74.7201 288.338 75.0183 290.532 74.429 292.52C73.8397 294.508 72.5759 296.155 71.944 298.037C71.3121 299.918 71.5677 301.892 71.8517 303.632C72.1357 305.371 72.4339 307.075 72.0718 308.602C71.7097 310.128 70.6518 311.3 69.9418 312.542C69.5814 313.138 69.3403 313.799 69.2318 314.487C69.1569 315.119 69.1189 315.754 69.1182 316.39C69.1195 316.963 69.0357 317.532 68.8697 318.08C68.6787 318.558 68.3711 318.98 67.9751 319.308C67.2968 319.863 66.5316 320.302 65.7101 320.608C65.1076 320.838 64.4848 321.012 63.85 321.126C63.4603 321.193 63.0665 321.234 62.6714 321.247C62.4371 321.254 62.3022 321.261 62.3022 321.261Z" fill="#263238"/>
<path d="M80.2723 252.71C80.2432 252.766 80.224 252.826 80.2155 252.888C80.18 253.023 80.1373 253.193 80.0876 253.406C79.974 253.868 79.8463 254.556 79.6333 255.423C79.4203 256.289 78.8878 257.261 78.4405 258.461C77.9188 259.815 77.4662 261.194 77.0844 262.594C76.6513 264.148 76.2679 265.867 75.8632 267.713C75.5215 269.681 74.9074 271.593 74.0385 273.393C73.5699 274.337 73.0374 275.295 72.6185 276.346C72.2045 277.419 71.9301 278.541 71.802 279.683C71.5208 282.048 71.1156 284.397 70.5879 286.719C69.4519 291.491 68.3656 296.027 67.3787 300.167C66.3918 304.306 65.4545 307.977 64.6877 311.129C63.9209 314.282 63.3317 316.752 62.9057 318.527L62.4371 320.544C62.3945 320.757 62.3519 320.934 62.3235 321.076C62.314 321.135 62.314 321.195 62.3235 321.254L62.3802 321.083C62.4228 320.941 62.4726 320.771 62.5294 320.565C62.6643 320.075 62.8417 319.408 63.0689 318.563L64.9647 311.193C65.7528 308.069 66.69 304.363 67.7337 300.245L70.95 286.84C71.4806 284.509 71.8859 282.15 72.1641 279.776C72.2854 278.661 72.5478 277.565 72.9451 276.517C73.3569 275.494 73.8752 274.543 74.3651 273.584C75.2431 271.756 75.8575 269.813 76.1898 267.812C76.5803 265.966 76.9424 264.262 77.3613 262.7C77.7802 261.138 78.2204 259.768 78.6606 258.575C79.1008 257.382 79.5836 256.388 79.7895 255.494C79.9954 254.599 80.0948 253.924 80.1871 253.456L80.2723 252.93C80.279 252.857 80.279 252.784 80.2723 252.71Z" fill="#263238"/>
<path d="M63.3242 321.275C67.1085 318.996 68.1593 312.144 66.5476 308.034C64.9359 303.923 62.1527 300.167 61.6983 295.779C61.3504 292.399 62.4083 288.927 61.6344 285.633C60.5481 281.181 56.1745 277.752 56.2029 273.173C56.2029 270.602 57.6655 268.203 57.5306 265.611C57.3673 262.466 54.9391 259.981 53.4268 257.212C51.1122 252.952 50.9347 247.982 50.1182 243.203C49.3017 238.425 47.4699 233.363 43.2383 231.041C42.6348 235.088 41.584 237.864 41.9532 243.338C42.081 245.305 44.3885 249.018 44.7222 253.364C44.9281 255.941 45.0701 258.518 45.2405 261.095C45.4109 263.673 45.5813 266.158 46.4972 268.494C47.2072 270.29 48.3148 271.916 48.8331 273.776C49.82 277.262 48.5775 281.054 49.3727 284.589C50.0472 287.578 52.1346 290.149 52.5748 293.187C53.1996 297.447 50.4448 301.913 51.8648 305.967C52.5748 307.991 54.2575 309.603 54.7403 311.69C55.1166 313.302 54.7403 315.02 55.0669 316.66C55.6136 319.28 60.6262 321.289 63.2958 321.112" fill="#455A64"/>
<path d="M44.3037 235.053C44.2943 235.128 44.2943 235.204 44.3037 235.28L44.3889 235.94C44.4812 236.529 44.5806 237.36 44.7865 238.489C44.9924 239.618 45.5888 240.853 46.0574 242.366C46.526 243.878 47.0372 245.61 47.4774 247.556C47.9176 249.501 48.2939 251.652 48.6844 253.946C49.0071 256.443 49.6762 258.883 50.6724 261.195C51.212 262.409 51.8155 263.616 52.2699 264.908C52.7157 266.234 52.9948 267.61 53.1006 269.005C53.3242 271.97 53.7105 274.921 54.2579 277.844C55.4578 283.823 56.5938 289.524 57.6304 294.707C58.667 299.89 59.7107 304.526 60.5343 308.445C61.3579 312.365 62.0466 315.489 62.5223 317.675C62.7637 318.747 62.9483 319.592 63.0832 320.189C63.1471 320.459 63.1968 320.679 63.2394 320.842C63.2515 320.918 63.273 320.992 63.3033 321.062C63.3143 320.987 63.3143 320.91 63.3033 320.835C63.3033 320.664 63.2323 320.451 63.1826 320.175C63.069 319.571 62.9057 318.755 62.6927 317.647C62.2454 315.432 61.6064 312.272 60.8254 308.367C60.0444 304.462 59.0575 299.79 57.9854 294.615C56.9133 289.439 55.8554 283.737 54.6413 277.752C54.0973 274.84 53.7086 271.901 53.4769 268.948C53.3694 267.526 53.0832 266.124 52.6249 264.773C52.1563 263.453 51.5386 262.239 50.999 261.039C50.0053 258.768 49.3292 256.372 48.9897 253.917C48.585 251.603 48.1945 249.444 47.733 247.492C47.3267 245.738 46.8314 244.005 46.2491 242.302C45.7592 240.782 45.1628 239.54 44.9285 238.461C44.6942 237.381 44.5806 236.508 44.467 235.933L44.3392 235.273C44.3379 235.198 44.3259 235.124 44.3037 235.053Z" fill="#263238"/>
<path d="M79.4558 304.306C76.062 310.902 80.8119 319.606 86.7262 321.048C92.6405 322.489 100.926 316.944 100.884 309.525C100.884 299.514 96.7727 294.693 93.3505 293.862C88.9485 292.79 82.8496 297.696 79.4558 304.306Z" fill="#106FA4"/>
<path opacity="0.5" d="M79.4558 304.306C76.062 310.902 80.8119 319.606 86.7262 321.048C92.6405 322.489 100.926 316.944 100.884 309.525C100.884 299.514 96.7727 294.693 93.3505 293.862C88.9485 292.79 82.8496 297.696 79.4558 304.306Z" fill="black"/>
<path d="M63.6516 304.185C61.6494 312.528 69.3671 321.019 76.4316 321.019C83.4961 321.019 91.2209 312.499 89.2116 304.185C86.4568 292.932 80.5283 288.643 76.4316 288.643C71.1705 288.643 65.6538 295.829 63.6516 304.185Z" fill="#106FA4"/>
<path d="M63.4665 304.817C63.7613 305.01 64.0754 305.172 64.4036 305.3C65.279 305.705 66.1776 306.058 67.0946 306.358C68.4485 306.81 69.8314 307.171 71.2338 307.437C74.684 308.094 78.2172 308.195 81.6993 307.735C83.1157 307.55 84.5177 307.268 85.8954 306.89C86.827 306.648 87.7423 306.347 88.636 305.989C88.9736 305.883 89.2977 305.737 89.6016 305.556C89.6016 305.485 88.1816 306.031 85.8244 306.599C84.4475 306.915 83.0536 307.153 81.6496 307.309C79.929 307.503 78.1975 307.581 76.4666 307.544C74.7364 307.48 73.0122 307.305 71.3048 307.018C69.9141 306.773 68.539 306.446 67.1869 306.038C64.8723 305.364 63.502 304.739 63.4665 304.817Z" fill="#FAFAFA"/>
<path d="M65.5547 299.428C65.7319 299.697 65.9499 299.937 66.2008 300.138C66.8488 300.723 67.5638 301.228 68.3308 301.644C70.8819 302.991 73.7403 303.649 76.6236 303.553C79.4802 303.443 82.3073 302.934 85.0229 302.041C86.0666 301.722 86.8973 301.431 87.4724 301.218C87.7773 301.127 88.0704 301.001 88.3457 300.841C88.0283 300.875 87.7161 300.947 87.4156 301.054L84.9377 301.764C82.2307 302.561 79.436 303.021 76.6165 303.135C73.8002 303.224 71.0048 302.624 68.4728 301.388C67.4468 300.818 66.4706 300.162 65.5547 299.428Z" fill="#263238"/>
<path d="M67.3436 295.204C67.5364 295.365 67.7487 295.501 67.9755 295.609C68.5698 295.938 69.1867 296.225 69.8215 296.468C74.0533 298.115 78.7226 298.261 83.0488 296.879C83.6974 296.676 84.3309 296.427 84.9445 296.134C85.1788 296.043 85.3988 295.918 85.5977 295.765C85.5622 295.694 84.5966 296.134 82.9636 296.588C78.6753 297.777 74.1272 297.636 69.9209 296.184C68.3163 295.63 67.3791 295.133 67.3436 295.204Z" fill="#FAFAFA"/>
<path d="M70.7515 291.81C71.2919 292.083 71.8716 292.27 72.4697 292.364C73.8921 292.674 75.3453 292.819 76.8008 292.797C78.2568 292.781 79.7059 292.593 81.1175 292.236C81.7113 292.129 82.2841 291.927 82.8145 291.64C82.8145 291.505 80.1519 292.35 76.7936 292.35C73.4353 292.35 70.787 291.668 70.7515 291.81Z" fill="#263238"/>
<path d="M65.0145 311.69C65.2815 311.847 65.5679 311.969 65.8665 312.052C66.657 312.346 67.4628 312.598 68.2805 312.805C73.6946 314.219 79.3705 314.302 84.8235 313.046C85.6475 312.854 86.4604 312.617 87.2588 312.336C87.5604 312.258 87.8513 312.144 88.125 311.995C88.125 311.924 86.8399 312.308 84.7596 312.705C79.3342 313.781 73.7429 313.698 68.3515 312.464C66.2854 312.002 65.0358 311.584 65.0145 311.69Z" fill="#263238"/>
<path d="M68.6995 317.54C68.8791 317.665 69.0783 317.758 69.2888 317.817C69.8431 318.027 70.4098 318.203 70.9857 318.343C74.7951 319.298 78.7923 319.202 82.5516 318.066C83.12 317.9 83.6772 317.698 84.2201 317.462C84.6035 317.292 84.8094 317.185 84.7952 317.157C84.781 317.129 83.9077 317.413 82.4735 317.775C78.7359 318.734 74.8283 318.827 71.0496 318.044C69.5799 317.753 68.7279 317.476 68.6995 317.54Z" fill="#FAFAFA"/>
<path d="M108.112 308.452C105.556 313.422 109.141 319.997 113.6 321.09C118.059 322.184 124.25 317.988 124.25 312.4C124.25 304.846 121.154 301.21 118.57 300.586C115.276 299.769 110.675 303.468 108.112 308.452Z" fill="#106FA4"/>
<path d="M107.253 313.522C107.346 313.63 107.453 313.726 107.572 313.806C107.906 314.043 108.269 314.236 108.651 314.381C109.866 314.863 111.219 314.863 112.434 314.381C113.65 313.9 114.635 312.973 115.19 311.789C115.744 310.692 115.885 309.432 115.588 308.239C115.508 307.888 115.333 307.566 115.083 307.306C114.833 307.047 114.516 306.862 114.168 306.77C113.978 306.728 113.781 306.728 113.591 306.769C113.401 306.811 113.222 306.893 113.067 307.011C112.763 307.25 112.55 307.586 112.464 307.962C112.402 308.336 112.418 308.718 112.512 309.085C112.607 309.452 112.776 309.795 113.011 310.092C113.441 310.694 114.011 311.181 114.672 311.512C115.32 311.862 116.045 312.046 116.781 312.046C117.517 312.046 118.242 311.862 118.889 311.512C119.493 311.191 120.017 310.739 120.422 310.188C120.828 309.638 121.105 309.003 121.232 308.332C121.365 307.682 121.243 307.006 120.892 306.443C120.712 306.178 120.464 305.965 120.175 305.828C119.885 305.691 119.564 305.633 119.244 305.662C118.942 305.704 118.661 305.843 118.443 306.058C118.226 306.273 118.083 306.553 118.037 306.855C117.984 307.117 117.985 307.386 118.04 307.648C118.095 307.909 118.203 308.156 118.357 308.374C118.874 309.087 119.63 309.591 120.487 309.794C121.127 309.946 121.793 309.946 122.432 309.794C122.836 309.711 123.223 309.56 123.575 309.347C123.701 309.28 123.814 309.191 123.909 309.084C123.437 309.339 122.93 309.524 122.404 309.631C121.786 309.734 121.154 309.7 120.551 309.532C119.758 309.322 119.067 308.833 118.605 308.154C118.479 307.968 118.392 307.758 118.349 307.537C118.307 307.316 118.309 307.089 118.357 306.869C118.405 306.649 118.519 306.449 118.684 306.295C118.849 306.142 119.057 306.042 119.28 306.01C119.533 305.991 119.786 306.041 120.013 306.153C120.24 306.266 120.433 306.437 120.572 306.649C120.858 307.135 120.951 307.709 120.835 308.261C120.708 308.861 120.452 309.426 120.084 309.916C119.716 310.407 119.245 310.811 118.705 311.101C118.117 311.415 117.461 311.58 116.795 311.58C116.129 311.58 115.473 311.415 114.885 311.101C114.282 310.794 113.765 310.343 113.38 309.787C113.182 309.543 113.037 309.26 112.953 308.958C112.868 308.655 112.847 308.338 112.89 308.026C112.91 307.888 112.957 307.756 113.029 307.636C113.1 307.517 113.195 307.412 113.308 307.33C113.42 307.247 113.548 307.188 113.683 307.155C113.819 307.122 113.959 307.117 114.097 307.139C114.369 307.219 114.614 307.371 114.808 307.578C115.001 307.786 115.136 308.041 115.197 308.317C115.476 309.421 115.356 310.588 114.857 311.612C114.435 312.527 113.751 313.296 112.89 313.82C112.256 314.175 111.554 314.394 110.83 314.463C110.107 314.531 109.376 314.448 108.687 314.218C108.188 314.032 107.707 313.799 107.253 313.522Z" fill="#FAFAFA"/>
<path d="M112.066 320.664C112.515 319.703 113.158 318.844 113.955 318.144C114.831 317.415 115.903 316.96 117.036 316.838C117.345 316.788 117.661 316.806 117.961 316.892C118.262 316.978 118.54 317.129 118.776 317.335C118.892 317.434 118.984 317.559 119.045 317.699C119.106 317.84 119.133 317.992 119.126 318.145C119.118 318.298 119.076 318.447 119.002 318.581C118.927 318.715 118.823 318.83 118.698 318.918C118.559 318.99 118.406 319.032 118.249 319.042C118.093 319.052 117.936 319.029 117.789 318.975C117.502 318.851 117.273 318.623 117.15 318.336C117.029 318.048 116.985 317.733 117.022 317.423C117.059 317.113 117.177 316.819 117.363 316.568C117.688 316.121 118.116 315.76 118.61 315.512C119.104 315.265 119.651 315.14 120.203 315.148C120.97 315.155 121.715 315.404 122.333 315.858C122.766 316.191 122.951 316.44 122.979 316.419C123.007 316.397 122.858 316.113 122.439 315.709C121.826 315.162 121.045 314.839 120.224 314.793C119.608 314.759 118.992 314.878 118.433 315.141C117.874 315.404 117.389 315.801 117.022 316.298C116.8 316.601 116.659 316.956 116.613 317.329C116.567 317.702 116.617 318.08 116.759 318.428C116.839 318.622 116.957 318.799 117.106 318.948C117.255 319.096 117.431 319.214 117.626 319.294C117.831 319.373 118.05 319.407 118.27 319.393C118.489 319.38 118.703 319.319 118.897 319.216C119.098 319.109 119.265 318.948 119.381 318.751C119.496 318.554 119.554 318.329 119.55 318.101C119.539 317.68 119.372 317.277 119.081 316.972C118.797 316.713 118.457 316.523 118.088 316.417C117.718 316.311 117.329 316.292 116.951 316.362C115.748 316.512 114.619 317.025 113.714 317.832C113.112 318.365 112.629 319.018 112.294 319.749C112.152 320.034 112.075 320.346 112.066 320.664Z" fill="#FAFAFA"/>
<path d="M114.168 301.651C114.132 301.686 114.388 302.027 114.949 302.361C115.695 302.828 116.561 303.071 117.442 303.061C118.323 303.051 119.183 302.788 119.919 302.304C120.472 301.92 120.714 301.594 120.678 301.544C120.643 301.494 120.323 301.75 119.762 302.041C119.041 302.423 118.239 302.627 117.423 302.637C116.606 302.647 115.8 302.462 115.069 302.098C114.53 301.849 114.217 301.601 114.168 301.651Z" fill="#FAFAFA"/>
<g opacity="0.2">
<path d="M115.858 320.991C116.552 320.784 117.2 320.447 117.768 319.997C118.047 319.766 118.256 319.461 118.37 319.117C118.485 318.773 118.5 318.404 118.414 318.052C118.282 317.754 118.086 317.488 117.841 317.274C117.596 317.059 117.307 316.901 116.994 316.809C116.374 316.624 115.765 316.406 115.169 316.156C114.627 315.82 114.156 315.381 113.783 314.863C113.41 314.346 113.143 313.759 112.997 313.138C112.627 311.917 112.507 310.632 112.145 309.411C112.084 309.065 111.941 308.74 111.729 308.46C111.516 308.181 111.24 307.957 110.923 307.806C110.015 307.529 109.148 308.374 108.694 309.226C108.015 310.524 107.697 311.98 107.774 313.443C107.85 314.905 108.317 316.32 109.127 317.54C110.781 319.947 112.94 321.381 115.837 321.005" fill="black"/>
</g>
<path d="M253.938 308.85L245.461 305.932L250.821 290.021L263.268 294.16L262.998 295.168C261.762 299.641 256.395 317.824 254.52 320.458C252.426 323.412 253.938 308.85 253.938 308.85Z" fill="#106FA4"/>
<g opacity="0.4">
<path d="M261.201 299.897C259.936 299.211 258.97 298.08 258.489 296.723C258.008 295.389 258.043 293.922 258.589 292.612L263.033 294.11L261.201 299.897Z" fill="black"/>
</g>
<path opacity="0.4" d="M253.434 316.049C253.434 316.049 253.2 321.254 254.18 320.92C255.159 320.586 261.28 302.46 263.268 294.174L262.905 294.075L255.955 315.332C255.955 315.332 253.782 315.141 253.434 316.049Z" fill="black"/>
<path d="M262.977 293.826C262.965 293.923 262.944 294.018 262.913 294.11L262.7 294.905L261.848 297.845C261.138 300.316 260.058 303.717 258.802 307.451C257.545 311.186 256.345 314.551 255.436 316.951C255.01 318.08 254.641 319.031 254.343 319.791L254.038 320.558L253.917 320.828C253.934 320.731 253.96 320.636 253.995 320.544C254.08 320.309 254.173 320.054 254.272 319.763C254.549 318.982 254.897 318.023 255.301 316.887C256.175 314.459 257.36 311.101 258.61 307.373C259.86 303.646 260.946 300.273 261.713 297.788C262.068 296.638 262.373 295.658 262.622 294.87L262.877 294.082C262.901 293.993 262.934 293.907 262.977 293.826Z" fill="#263238"/>
<path d="M256.203 315.41C255.681 315.381 255.158 315.407 254.641 315.488C254.146 315.64 253.67 315.847 253.221 316.106C253.591 315.697 254.076 315.411 254.612 315.284C255.149 315.157 255.711 315.196 256.225 315.396L256.203 315.41Z" fill="#263238"/>
<path d="M255.4 309.915C255.4 309.972 255.067 310.099 254.619 310.213C254.356 310.307 254.074 310.341 253.796 310.312C253.796 310.256 254.129 310.121 254.57 310.014C255.01 309.908 255.386 309.858 255.4 309.915Z" fill="#263238"/>
<path d="M255.152 308.395C255.152 308.445 254.925 308.644 254.591 308.836C254.258 309.027 253.952 309.141 253.924 309.091C253.896 309.042 254.151 308.85 254.492 308.658C254.833 308.466 255.124 308.346 255.152 308.395Z" fill="#263238"/>
<path d="M253.924 307.075C253.936 307.373 253.878 307.67 253.754 307.941C253.693 308.233 253.567 308.507 253.385 308.743C253.372 308.448 253.431 308.153 253.555 307.884C253.704 307.43 253.867 307.061 253.924 307.075Z" fill="#263238"/>
<path d="M252.958 306.443C253.05 306.778 253.035 307.133 252.916 307.458C252.86 307.801 252.704 308.119 252.468 308.374C252.519 308.045 252.603 307.722 252.717 307.409C252.767 307.08 252.848 306.757 252.958 306.443Z" fill="#263238"/>
<path d="M253.832 309.986C253.768 310.335 253.646 310.672 253.47 310.98C253.303 311.335 253.1 311.673 252.866 311.988C252.732 312.186 252.575 312.368 252.397 312.528C252.288 312.624 252.146 312.675 252 312.67C251.918 312.661 251.841 312.628 251.776 312.577C251.712 312.525 251.664 312.457 251.638 312.379C251.579 311.924 251.681 311.463 251.924 311.075C252.167 310.686 252.538 310.394 252.973 310.249C253.226 310.164 253.494 310.13 253.761 310.149C253.952 310.149 254.052 310.199 254.052 310.213C253.702 310.214 253.354 310.271 253.022 310.384C252.67 310.53 252.369 310.777 252.156 311.094C252.023 311.269 251.925 311.469 251.869 311.682C251.813 311.895 251.799 312.118 251.829 312.336C251.893 312.542 252.106 312.542 252.277 312.4C252.438 312.248 252.586 312.082 252.717 311.903C252.949 311.6 253.158 311.279 253.342 310.944C253.668 310.369 253.796 309.979 253.832 309.986Z" fill="#263238"/>
<path d="M253.789 310.27C253.546 310.318 253.293 310.275 253.079 310.149C252.821 310.029 252.596 309.846 252.426 309.617C252.301 309.482 252.213 309.316 252.172 309.137C252.131 308.957 252.138 308.77 252.192 308.594C252.219 308.546 252.256 308.504 252.299 308.47C252.343 308.436 252.393 308.411 252.447 308.396C252.5 308.382 252.556 308.378 252.611 308.385C252.666 308.392 252.719 308.41 252.767 308.438C252.922 308.515 253.058 308.627 253.164 308.765C253.349 308.98 253.504 309.219 253.626 309.475C253.749 309.692 253.822 309.935 253.839 310.185C253.839 310.185 253.725 309.922 253.498 309.532C253.365 309.302 253.208 309.088 253.029 308.893C252.859 308.68 252.504 308.452 252.369 308.694C252.234 308.935 252.426 309.29 252.575 309.517C252.726 309.726 252.919 309.901 253.143 310.029C253.351 310.129 253.567 310.209 253.789 310.27Z" fill="#263238"/>
<path d="M258.51 292.683C258.546 292.683 258.318 293.123 258.162 293.876C257.948 294.848 258.015 295.86 258.354 296.795C258.693 297.731 259.292 298.55 260.079 299.158C260.683 299.634 261.13 299.812 261.116 299.868C261.004 299.849 260.896 299.81 260.796 299.755C260.513 299.631 260.244 299.476 259.994 299.293C259.153 298.695 258.514 297.855 258.162 296.885C257.809 295.915 257.76 294.861 258.02 293.862C258.097 293.564 258.202 293.274 258.333 292.996C258.373 292.882 258.433 292.776 258.51 292.683Z" fill="#263238"/>
<path d="M251.339 292.108C252.463 292.36 253.571 292.68 254.655 293.067C255.764 293.385 256.853 293.772 257.914 294.224C256.791 293.968 255.684 293.645 254.598 293.258C253.491 292.936 252.403 292.552 251.339 292.108Z" fill="#263238"/>
<path d="M258.972 301.381C258.89 302.201 258.704 303.007 258.418 303.781C258.196 304.574 257.872 305.336 257.452 306.045C257.395 306.045 257.814 305.002 258.226 303.717C258.638 302.432 258.915 301.367 258.972 301.381Z" fill="#263238"/>
<path d="M260.016 298.257C260.072 298.257 260.207 298.42 260.413 298.605C260.619 298.789 260.804 298.917 260.783 298.974C260.761 299.031 260.506 298.974 260.271 298.754C260.037 298.534 259.966 298.278 260.016 298.257Z" fill="#263238"/>
<path d="M258.951 296.588C259.001 296.588 259.129 296.723 259.242 296.943C259.356 297.163 259.405 297.362 259.356 297.391C259.306 297.419 259.171 297.256 259.058 297.036C258.944 296.815 258.901 296.617 258.951 296.588Z" fill="#263238"/>
<path d="M258.844 294.685C258.894 294.685 258.844 294.927 258.844 295.182C258.844 295.438 258.915 295.658 258.844 295.686C258.773 295.715 258.617 295.509 258.617 295.19C258.617 294.87 258.802 294.65 258.844 294.685Z" fill="#263238"/>
<path d="M258.936 293.379C258.993 293.379 259.043 293.5 259.05 293.649C259.057 293.798 259.015 293.919 258.958 293.919C258.901 293.919 258.851 293.805 258.844 293.656C258.837 293.507 258.88 293.386 258.936 293.379Z" fill="#263238"/>
<path d="M155.596 315.524L153.97 307.636L168.738 304.49L171.237 316.014L170.336 316.269C166.31 317.363 149.788 321.538 146.906 321.296C143.654 321.019 155.596 315.524 155.596 315.524Z" fill="#106FA4"/>
<g opacity="0.4">
<path d="M165.856 317.036C165.811 315.744 166.243 314.48 167.07 313.486C167.882 312.504 169.032 311.861 170.293 311.683L171.174 315.808L165.856 317.036Z" fill="black"/>
</g>
<path opacity="0.4" d="M149.81 318.428C149.81 318.428 145.685 320.629 146.38 321.268C147.076 321.907 163.939 318.279 171.23 316.042L171.138 315.716L151.514 320.082C151.514 320.082 150.676 318.279 149.81 318.428Z" fill="black"/>
<path d="M171.372 315.63L171.124 315.716L170.414 315.914L167.751 316.624C165.507 317.185 162.391 317.924 158.926 318.669C155.461 319.415 152.323 320.011 150.037 320.416L147.331 320.877L146.621 320.991C146.534 321 146.446 321 146.359 320.991L146.614 320.927L147.324 320.785L150.022 320.267C152.294 319.826 155.44 319.209 158.897 318.463C162.355 317.718 165.472 317.008 167.73 316.475L170.399 315.843L171.109 315.68C171.194 315.652 171.283 315.635 171.372 315.63Z" fill="#263238"/>
<path d="M151.57 320.281C151.36 319.859 151.1 319.463 150.796 319.102C150.449 318.785 150.068 318.507 149.66 318.272C150.156 318.346 150.608 318.599 150.931 318.982C151.297 319.321 151.524 319.784 151.57 320.281Z" fill="#263238"/>
<path d="M155.454 317.143C155.418 317.178 155.156 316.965 154.872 316.674C154.588 316.383 154.375 316.113 154.41 316.078C154.446 316.042 154.708 316.255 154.999 316.546C155.291 316.837 155.489 317.107 155.454 317.143Z" fill="#263238"/>
<path d="M156.519 316.255C156.519 316.298 156.228 316.191 155.923 316.014C155.617 315.836 155.39 315.666 155.419 315.623C155.447 315.581 155.71 315.687 156.015 315.858C156.32 316.028 156.54 316.213 156.519 316.255Z" fill="#263238"/>
<path d="M156.974 314.7C156.974 314.75 156.647 314.864 156.264 314.963C156.008 315.049 155.737 315.078 155.468 315.048C155.696 314.905 155.953 314.815 156.221 314.786C156.462 314.702 156.72 314.672 156.974 314.7Z" fill="#263238"/>
<path d="M157.023 313.664C156.804 313.883 156.525 314.033 156.221 314.097C155.929 314.208 155.611 314.232 155.305 314.168C155.583 314.059 155.871 313.976 156.164 313.919C156.441 313.805 156.729 313.719 157.023 313.664Z" fill="#263238"/>
<path d="M154.681 315.95C154.378 316.072 154.056 316.139 153.729 316.149C153.377 316.181 153.023 316.181 152.671 316.149C152.46 316.133 152.25 316.095 152.047 316.035C151.983 316.016 151.924 315.983 151.873 315.941C151.821 315.898 151.779 315.846 151.748 315.787C151.718 315.72 151.708 315.647 151.719 315.575C151.73 315.503 151.763 315.436 151.812 315.382C152.135 315.126 152.538 314.99 152.95 314.999C153.362 315.008 153.759 315.161 154.07 315.432C154.256 315.589 154.408 315.782 154.517 316C154.562 316.075 154.589 316.16 154.595 316.248C154.431 315.981 154.225 315.741 153.985 315.538C153.721 315.332 153.403 315.209 153.069 315.183C152.871 315.16 152.671 315.176 152.479 315.231C152.288 315.286 152.11 315.378 151.954 315.503C151.826 315.645 151.954 315.808 152.11 315.872C152.3 315.931 152.495 315.97 152.693 315.985C153.034 316.028 153.378 316.045 153.722 316.035C154.311 316.007 154.674 315.95 154.681 315.95Z" fill="#263238"/>
<path d="M154.446 316.056C154.285 315.886 154.196 315.659 154.198 315.425C154.174 315.169 154.21 314.911 154.304 314.672C154.356 314.512 154.449 314.368 154.573 314.254C154.698 314.141 154.85 314.062 155.014 314.026C155.115 314.026 155.211 314.065 155.283 314.136C155.354 314.206 155.396 314.302 155.397 314.402C155.412 314.557 155.387 314.713 155.326 314.857C155.252 315.094 155.142 315.32 155 315.524C154.89 315.725 154.734 315.898 154.545 316.028C154.651 315.832 154.767 315.643 154.893 315.46C155.009 315.253 155.101 315.034 155.17 314.807C155.255 314.58 155.27 314.196 155.021 314.203C154.773 314.21 154.588 314.523 154.482 314.743C154.386 314.955 154.34 315.185 154.347 315.417C154.358 315.633 154.391 315.847 154.446 316.056Z" fill="#263238"/>
<path d="M170.208 311.69C170.208 311.725 169.775 311.74 169.129 311.96C168.278 312.241 167.525 312.758 166.957 313.45C166.389 314.143 166.029 314.983 165.92 315.872C165.827 316.582 165.92 316.979 165.863 316.979C165.806 316.979 165.82 316.88 165.799 316.688C165.769 316.412 165.769 316.134 165.799 315.858C165.88 314.934 166.236 314.056 166.821 313.337C167.415 312.625 168.205 312.104 169.093 311.839C169.359 311.758 169.633 311.708 169.91 311.69C170.009 311.677 170.109 311.677 170.208 311.69Z" fill="#263238"/>
<path d="M167.368 305.84C167.943 307.827 168.401 309.847 168.738 311.889C168.42 310.904 168.162 309.901 167.964 308.885C167.707 307.883 167.507 306.866 167.368 305.84Z" fill="#263238"/>
<path d="M163.69 315.993C163.015 316.316 162.298 316.543 161.56 316.667C160.844 316.855 160.107 316.953 159.367 316.958C159.367 316.901 160.339 316.752 161.497 316.49C162.654 316.227 163.676 315.95 163.69 315.993Z" fill="#263238"/>
<path d="M166.587 315.375C166.63 315.375 166.552 315.595 166.502 315.836C166.452 316.078 166.438 316.284 166.381 316.291C166.325 316.298 166.261 316.078 166.318 315.794C166.374 315.51 166.545 315.346 166.587 315.375Z" fill="#263238"/>
<path d="M167.39 313.82C167.432 313.82 167.39 314.019 167.248 314.21C167.106 314.402 166.999 314.523 166.956 314.494C166.914 314.466 166.956 314.296 167.091 314.111C167.226 313.926 167.347 313.756 167.39 313.82Z" fill="#263238"/>
<path d="M168.816 312.833C168.816 312.883 168.618 312.925 168.419 313.046C168.22 313.167 168.085 313.316 168.043 313.295C168 313.273 168.043 313.039 168.327 312.89C168.611 312.741 168.816 312.783 168.816 312.833Z" fill="#263238"/>
<path d="M169.86 312.301C169.86 312.343 169.825 312.435 169.711 312.514C169.598 312.592 169.484 312.606 169.456 312.57C169.427 312.535 169.498 312.428 169.612 312.357C169.725 312.286 169.832 312.258 169.86 312.301Z" fill="#263238"/>
<path d="M196.669 203.259C196.669 203.259 171.599 274.848 177.499 280.265C183.399 285.683 250.203 310.334 250.203 310.334L257.445 290.035L204.905 268.735L227.199 218.758C228.891 214.969 229.672 210.836 229.478 206.69C229.284 202.545 228.122 198.503 226.085 194.888L219.943 196.308L196.669 203.259Z" fill="#263238"/>
<path d="M179.061 207.32C179.061 207.32 130.781 230.253 131.307 238.219C131.832 246.185 152.266 312.535 152.266 312.535L172.224 307.757L159.146 248.734L226.12 212.851L206.908 200.22L179.061 207.32Z" fill="#263238"/>
<path d="M199.865 271.873C199.794 271.738 200.816 271.099 201.995 270.212C203.173 269.324 204.068 268.536 204.175 268.643C204.281 268.749 203.528 269.722 202.307 270.638C201.086 271.554 199.922 272.001 199.865 271.873Z" fill="#455A64"/>
<path d="M198.09 268.948C198.09 268.806 199.368 268.593 200.972 268.479C202.577 268.366 203.89 268.394 203.897 268.536C203.905 268.678 202.619 268.891 201.015 269.005C199.41 269.118 198.09 269.09 198.09 268.948Z" fill="#455A64"/>
<path d="M193.581 219.88C193.54 219.926 193.506 219.979 193.482 220.036L193.219 220.498L192.246 222.308C191.423 223.884 190.301 226.206 189.037 229.124C187.773 232.042 186.424 235.592 185.089 239.589C183.755 243.587 182.47 248.024 181.248 252.76C180.027 257.496 179.019 261.99 178.146 266.094C177.715 268.153 177.308 270.103 176.924 271.944C176.747 272.853 176.534 273.74 176.442 274.614C176.349 275.451 176.349 276.297 176.442 277.134C176.522 277.899 176.698 278.65 176.967 279.371C177.23 280.017 177.674 280.574 178.245 280.975C179.114 281.628 180.044 282.196 181.021 282.672C181.823 283.07 182.441 283.382 182.888 283.524L183.385 283.716C183.441 283.744 183.501 283.763 183.563 283.773L183.4 283.688L182.917 283.453C182.498 283.254 181.873 282.963 181.092 282.544C180.134 282.053 179.224 281.473 178.373 280.812C177.841 280.426 177.429 279.897 177.187 279.286C176.934 278.585 176.769 277.855 176.697 277.113C176.609 276.294 176.609 275.468 176.697 274.649C176.79 273.797 177.01 272.924 177.194 272.001C177.592 270.176 178.011 268.224 178.451 266.165C179.346 262.061 180.368 257.552 181.575 252.852C182.782 248.152 184.067 243.715 185.388 239.724C186.708 235.734 188.043 232.198 189.25 229.252C190.457 226.305 191.565 223.991 192.346 222.4L193.254 220.561L193.482 220.079C193.521 220.016 193.554 219.949 193.581 219.88Z" fill="#455A64"/>
<path d="M155.49 88.3168C155.163 86.2507 153.303 84.6674 151.272 84.142C149.21 83.7277 147.076 83.8499 145.074 84.497C143.563 84.7833 142.17 85.5095 141.07 86.5844C140.109 87.8284 139.608 89.3657 139.65 90.9367C139.607 92.4916 139.813 94.0465 139.65 95.5943C139.465 97.4637 138.804 99.2546 137.73 100.796C136.656 102.337 135.205 103.577 133.515 104.398C130.015 106.06 125.755 105.769 122.446 107.785C120.878 108.745 119.641 110.162 118.904 111.847C118.167 113.532 117.965 115.402 118.325 117.205C118.685 119.009 119.59 120.658 120.918 121.93C122.245 123.203 123.931 124.037 125.748 124.321C125.087 125.827 124.954 127.513 125.372 129.104C125.79 130.695 126.733 132.098 128.049 133.086C129.366 134.073 130.977 134.586 132.621 134.541C134.266 134.497 135.847 133.898 137.108 132.841C137.7 134.039 138.608 135.053 139.734 135.774C140.86 136.495 142.162 136.895 143.498 136.931C144.831 136.948 146.154 136.703 147.392 136.208C148.63 135.713 149.758 134.979 150.712 134.048C152.61 132.168 154.03 129.86 154.851 127.317C157.031 121.09 156.619 114.303 156.271 107.714C155.923 101.125 158.33 96.7232 155.49 88.3168Z" fill="#263238"/>
<path d="M133.48 107.487C129.646 107.664 127.523 103.078 127.622 100.891C127.722 98.7042 129.241 97.0215 131.023 95.7648C133.363 94.2747 135.922 93.1606 138.606 92.4632C143.676 91.4337 142.554 87.3016 149.774 87.5927C153.097 87.7276 157.925 89.5025 159.835 92.2218C161.745 94.9411 162.81 98.1575 163.847 101.324" fill="#263238"/>
<path d="M154.921 91.8811L156.199 94.3377L177.208 130.235C179.643 134.403 178.003 139.82 173.523 142.398C168.993 145.003 163.278 143.732 160.743 139.558C158.081 135.177 155.205 130.619 155.205 130.619C155.205 130.619 148.993 133.09 143.377 126.43C140.579 123.114 137.143 116.994 134.487 111.896C133.918 110.798 133.578 109.596 133.488 108.363C133.397 107.129 133.559 105.89 133.963 104.721C134.367 103.552 135.004 102.478 135.837 101.563C136.669 100.648 137.679 99.9122 138.804 99.4L154.921 91.8811Z" fill="#FFBE9D"/>
<path d="M138.769 114.956C138.915 115.204 139.152 115.385 139.429 115.461C139.706 115.536 140.002 115.5 140.253 115.361C140.502 115.233 140.691 115.012 140.777 114.746C140.864 114.48 140.841 114.19 140.715 113.941C140.569 113.693 140.333 113.512 140.055 113.436C139.778 113.36 139.482 113.396 139.231 113.536C139.107 113.598 138.996 113.685 138.906 113.79C138.816 113.896 138.747 114.018 138.704 114.15C138.661 114.282 138.645 114.421 138.656 114.559C138.667 114.698 138.706 114.833 138.769 114.956Z" fill="#263238"/>
<path d="M137.675 114.239C137.867 114.296 138.265 113.33 139.28 112.72C140.295 112.109 141.353 112.173 141.41 112.01C141.467 111.846 141.176 111.768 140.7 111.726C140.076 111.685 139.455 111.842 138.925 112.173C138.394 112.489 137.979 112.967 137.739 113.536C137.555 113.934 137.583 114.225 137.675 114.239Z" fill="#263238"/>
<path d="M148.496 109.077C148.642 109.325 148.879 109.506 149.156 109.582C149.433 109.658 149.729 109.622 149.98 109.482C150.104 109.42 150.215 109.333 150.305 109.228C150.396 109.122 150.464 109 150.507 108.868C150.55 108.736 150.566 108.597 150.555 108.459C150.544 108.32 150.505 108.185 150.442 108.062C150.296 107.814 150.06 107.633 149.782 107.557C149.505 107.482 149.209 107.518 148.958 107.657C148.834 107.72 148.724 107.806 148.633 107.911C148.543 108.017 148.474 108.139 148.431 108.271C148.388 108.403 148.372 108.542 148.383 108.681C148.394 108.819 148.433 108.954 148.496 109.077Z" fill="#263238"/>
<path d="M147.786 108.403C147.977 108.452 148.375 107.494 149.397 106.883C150.42 106.273 151.463 106.33 151.527 106.173C151.591 106.017 151.3 105.932 150.817 105.896C150.195 105.857 149.575 106.011 149.042 106.337C148.512 106.653 148.096 107.13 147.857 107.7C147.679 108.09 147.679 108.381 147.786 108.403Z" fill="#263238"/>
<path d="M148.646 118.172C148.007 118.328 147.391 118.567 146.814 118.882C146.537 119.01 146.26 119.11 146.104 118.96C145.923 118.704 145.822 118.4 145.813 118.087C145.678 117.306 145.536 116.497 145.387 115.645C144.755 112.187 144.13 109.404 143.967 109.432C143.803 109.461 144.222 112.272 144.854 115.737L145.323 118.172C145.347 118.585 145.518 118.975 145.806 119.273C145.896 119.345 146.003 119.393 146.117 119.414C146.231 119.435 146.348 119.428 146.459 119.394C146.624 119.345 146.784 119.278 146.934 119.195C147.546 118.928 148.121 118.585 148.646 118.172Z" fill="#263238"/>
<path d="M155.205 130.64C158.706 128.6 161.572 125.628 163.484 122.056C163.484 122.056 164.144 128.56 156.384 132.323L155.205 130.64Z" fill="#EB996E"/>
<path d="M145.123 104.576C145.386 104.789 146.323 104.043 147.601 103.468C148.879 102.893 150.044 102.638 150.051 102.29C150.051 102.133 149.731 101.97 149.177 101.942C148.459 101.917 147.746 102.065 147.097 102.375C146.445 102.671 145.871 103.116 145.422 103.674C145.088 104.114 144.996 104.469 145.123 104.576Z" fill="#263238"/>
<path d="M136.277 111.072C136.589 111.193 137.15 110.533 137.981 110.014C138.812 109.496 139.635 109.233 139.649 108.893C139.649 108.729 139.401 108.566 138.939 108.538C138.362 108.525 137.794 108.685 137.308 108.997C136.822 109.31 136.441 109.76 136.213 110.291C136.078 110.71 136.128 111.008 136.277 111.072Z" fill="#263238"/>
<path d="M132.45 107.345C132.45 107.345 137.484 107.189 141.346 101.842C143.888 98.335 147.445 95.4027 148.695 95.637C149.945 95.8713 151.968 99.3006 155.909 98.5551C155.909 98.5551 159.203 105.428 161.766 103.781C164.329 102.133 160.346 94.6572 160.346 94.6572L151.72 88.75L141.034 95.2181L134.765 99.7053L130.278 103.88L132.45 107.345Z" fill="#263238"/>
<path d="M160.104 101.899C160.182 101.786 163.654 97.9161 166.21 102.325C168.766 106.734 163.796 108.389 163.718 108.268C163.64 108.147 160.104 101.899 160.104 101.899Z" fill="#FFBE9D"/>
<path d="M164.102 105.79C164.102 105.79 164.209 105.79 164.372 105.79C164.485 105.778 164.595 105.743 164.695 105.688C164.795 105.633 164.883 105.559 164.954 105.47C165.136 105.125 165.221 104.738 165.203 104.348C165.184 103.959 165.061 103.581 164.848 103.255C164.642 102.868 164.35 102.533 163.996 102.275C163.875 102.163 163.728 102.081 163.569 102.036C163.41 101.992 163.242 101.986 163.08 102.02C162.979 102.05 162.891 102.113 162.83 102.2C162.77 102.286 162.74 102.39 162.746 102.496C162.746 102.652 162.839 102.723 162.817 102.744C162.796 102.765 162.682 102.744 162.611 102.524C162.569 102.402 162.569 102.269 162.611 102.148C162.645 102.066 162.694 101.993 162.756 101.93C162.818 101.868 162.892 101.819 162.973 101.786C163.176 101.718 163.392 101.703 163.602 101.741C163.811 101.78 164.008 101.871 164.173 102.006C164.579 102.282 164.913 102.652 165.146 103.085C165.636 103.994 165.657 105.087 165.146 105.641C165.048 105.743 164.928 105.822 164.795 105.873C164.663 105.923 164.521 105.943 164.379 105.932C164.173 105.918 164.088 105.833 164.102 105.79Z" fill="#EB996E"/>
<path d="M164.719 109.922C164.719 109.922 164.769 110.029 164.939 110.149C165.185 110.315 165.474 110.406 165.77 110.412C165.992 110.423 166.214 110.388 166.422 110.308C166.63 110.229 166.819 110.107 166.977 109.951C167.171 109.757 167.32 109.523 167.413 109.265C167.506 109.007 167.542 108.732 167.517 108.46C167.474 108.147 167.359 107.849 167.181 107.589C167.003 107.33 166.766 107.115 166.49 106.962C166.215 106.81 165.907 106.724 165.592 106.712C165.277 106.699 164.964 106.76 164.677 106.89C164.575 106.926 164.483 106.984 164.407 107.061C164.763 106.935 165.137 106.868 165.514 106.862C165.916 106.877 166.303 107.016 166.622 107.26C167.011 107.56 167.266 108.001 167.332 108.488C167.352 108.727 167.322 108.968 167.242 109.194C167.163 109.421 167.036 109.628 166.871 109.801C166.734 109.944 166.569 110.056 166.387 110.133C166.206 110.21 166.01 110.249 165.813 110.249C165.424 110.253 165.042 110.139 164.719 109.922Z" fill="#455A64"/>
<path d="M146.153 88.2032C146.153 88.2032 146.082 88.2458 145.954 88.3523L145.72 88.5511L145.436 88.8493C144.855 89.5137 144.357 90.2455 143.952 91.029C143.375 92.1903 142.66 93.2774 141.822 94.2666C141.303 94.8149 140.667 95.2395 139.962 95.5091C139.252 95.7931 138.421 95.9635 137.604 96.2191C136.785 96.4162 136.018 96.792 135.361 97.3196C134.771 97.849 134.337 98.5289 134.104 99.2863C133.886 99.9742 133.83 100.703 133.941 101.416C134.042 102.027 134.258 102.613 134.58 103.142C135.047 103.899 135.69 104.532 136.454 104.988C136.663 105.104 136.879 105.209 137.1 105.3C137.178 105.335 137.259 105.361 137.342 105.378C137.342 105.378 137.022 105.236 136.504 104.91C135.77 104.441 135.157 103.807 134.715 103.056C134.413 102.543 134.21 101.977 134.118 101.388C134.03 100.713 134.093 100.026 134.303 99.3786C134.525 98.6602 134.94 98.0167 135.503 97.5184C136.127 97.0144 136.854 96.6533 137.633 96.4605C138.442 96.2262 139.259 96.0558 140.011 95.7505C140.77 95.4748 141.451 95.0221 141.999 94.4299C142.834 93.4208 143.535 92.3089 144.087 91.1213C144.481 90.3417 144.957 89.6063 145.507 88.9274L145.776 88.615L145.989 88.4091C146.096 88.2742 146.16 88.2103 146.153 88.2032Z" fill="#455A64"/>
<path d="M130.455 96.8723C130.295 96.9405 130.148 97.0366 130.022 97.1563C129.661 97.4662 129.361 97.8391 129.134 98.2568C128.802 98.8798 128.61 99.5681 128.573 100.273C128.535 101.138 128.695 102 129.042 102.794C129.691 104.211 130.678 105.447 131.917 106.393C132.379 106.763 132.769 107.04 133.046 107.224C133.181 107.33 133.329 107.418 133.486 107.487C133.486 107.487 132.918 107.032 132.031 106.266C130.85 105.308 129.904 104.094 129.262 102.716C128.931 101.955 128.771 101.131 128.793 100.302C128.818 99.6236 128.985 98.9584 129.283 98.3491C129.579 97.7888 129.976 97.2882 130.455 96.8723Z" fill="#455A64"/>
<path d="M149.76 87.053C149.76 87.053 149.76 87.0956 149.703 87.1879C149.679 87.3266 149.679 87.4681 149.703 87.6068C149.79 88.1285 150.074 88.5965 150.498 88.9132C151.131 89.3348 151.823 89.6624 152.55 89.8859C153.389 90.2211 154.138 90.7489 154.737 91.4266C155.34 92.1027 155.777 92.9096 156.015 93.7838C156.2 94.4994 156.256 95.2425 156.178 95.9777C156.081 96.657 155.902 97.3222 155.645 97.9586C155.762 97.8105 155.856 97.6452 155.922 97.4687C156.131 97.0005 156.274 96.506 156.348 95.999C156.444 95.2367 156.394 94.4632 156.199 93.7199C155.965 92.8086 155.516 91.9663 154.892 91.2626C154.267 90.5588 153.484 90.0139 152.607 89.6729C151.893 89.4657 151.21 89.1648 150.576 88.7783C150.29 88.596 150.06 88.337 149.913 88.0308C149.766 87.7246 149.708 87.3834 149.745 87.0459L149.76 87.053Z" fill="#455A64"/>
<path d="M152.77 118.272C153.1 118.423 153.384 118.658 153.594 118.953C153.805 119.248 153.934 119.594 153.97 119.954C153.939 120.219 153.837 120.471 153.675 120.682C153.512 120.894 153.295 121.057 153.047 121.154C152.677 121.315 152.266 121.351 151.874 121.258C151.482 121.164 151.131 120.946 150.874 120.636C150.633 120.314 150.519 119.915 150.553 119.515C150.587 119.114 150.767 118.74 151.059 118.463C151.214 118.335 151.393 118.239 151.587 118.183C151.78 118.127 151.983 118.111 152.182 118.136C152.382 118.161 152.574 118.228 152.748 118.33C152.921 118.433 153.071 118.57 153.189 118.733" fill="#EB996E"/>
<path d="M142.248 89.0056C142.248 89.0553 142.88 88.5867 143.959 88.0684C145.363 87.3973 146.891 87.0273 148.446 86.9821C150.003 86.9615 151.547 87.2713 152.976 87.8909C154.076 88.3666 154.687 88.8068 154.723 88.7571C154.758 88.7074 154.602 88.608 154.325 88.4021C153.937 88.1156 153.524 87.866 153.09 87.6566C151.645 86.9436 150.05 86.5858 148.439 86.6129C146.831 86.6531 145.255 87.0715 143.838 87.8341C143.412 88.0635 143.008 88.3321 142.631 88.6364C142.361 88.8494 142.234 88.9843 142.248 89.0056Z" fill="#106FA4"/>
<path d="M152.068 117.065C151.89 117.157 152.557 118.265 152.068 119.614C151.578 120.963 150.349 121.559 150.435 121.744C150.52 121.928 150.825 121.8 151.329 121.516C151.986 121.137 152.488 120.539 152.749 119.827C152.989 119.143 152.958 118.394 152.664 117.732C152.423 117.214 152.139 117.015 152.068 117.065Z" fill="#263238"/>
<path d="M176.576 127.175C176.576 127.175 173.076 121.076 172.408 122.042C171.741 123.007 155.283 133.693 156.391 135.61C157.498 137.527 160.743 139.536 160.743 139.536L176.576 127.175Z" fill="#106FA4"/>
<path d="M111.811 194.348C108.616 195.136 102.375 196.592 100.387 196.812C96.29 197.266 96.2473 196.911 96.2828 196.429C96.3751 195.136 103.461 195.356 101.963 194.433C100.465 193.51 93.244 195.143 93.4002 193.816C93.599 192.062 101.019 192.396 101.643 192.396C102.268 192.396 102.289 191.473 101.721 191.522C100.905 191.579 92.2997 192.034 92.4914 190.308C92.5908 189.35 94.309 189.662 94.309 189.662C94.309 189.662 102.382 189.833 102.439 189.016C102.495 188.2 97.7596 187.93 96.155 187.958C94.5504 187.987 93.9256 187.248 94.5078 186.538C94.8983 186.063 99.8115 185.871 101.402 185.878C102.992 185.885 107.338 185.999 105.264 184.217C103.191 182.434 102.275 180.29 102.424 179.531C102.48 179.36 102.586 179.211 102.73 179.104C102.873 178.996 103.047 178.936 103.226 178.932C103.405 178.927 103.581 178.978 103.73 179.078C103.879 179.177 103.993 179.321 104.057 179.488C104.526 180.272 105.1 180.988 105.761 181.618C106.28 182.152 106.888 182.592 107.558 182.917C108.339 183.301 110.234 184.138 110.817 184.373" fill="#FFBE9D"/>
<path d="M152.358 145.855L141.879 179.63L109.794 182.86L110.405 194.93C110.405 194.93 148.205 200.057 153.828 194.426C159.451 188.796 167.56 164.905 167.56 164.905L152.358 145.855Z" fill="#106FA4"/>
<path d="M201.256 132.223L226.106 194.888L178.536 208.342L179.246 188.32L153.36 152.458C152.547 151.336 152.122 149.979 152.147 148.593C152.173 147.208 152.648 145.868 153.502 144.776C158.301 138.62 168.93 126.912 183.471 121.957C187.979 120.409 198.921 122.184 201.256 132.223Z" fill="#106FA4"/>
<path d="M178.21 190.166C175.277 195.704 179.19 203.11 184.181 204.366C189.172 205.623 196.187 201.044 196.251 194.781C196.35 186.318 192.935 182.2 190.045 181.462C186.382 180.539 181.178 184.6 178.21 190.166Z" fill="#263238"/>
<path d="M177.997 190.578C177.997 190.578 178.182 190.784 178.565 191.103C179.107 191.553 179.676 191.968 180.269 192.346C184.203 194.886 188.8 196.207 193.482 196.145C194.195 196.143 194.906 196.093 195.612 195.995C195.873 195.984 196.131 195.936 196.379 195.853C196.379 195.79 195.278 195.91 193.539 195.853C188.924 195.776 184.411 194.477 180.461 192.09C178.92 191.21 178.04 190.521 177.997 190.578Z" fill="#FAFAFA"/>
<path d="M180.446 187.149C180.522 187.371 180.632 187.579 180.773 187.767C181.121 188.298 181.53 188.787 181.994 189.222C183.552 190.647 185.457 191.639 187.518 192.098C189.562 192.54 191.658 192.693 193.744 192.552C194.54 192.509 195.164 192.452 195.626 192.403C195.868 192.401 196.107 192.36 196.336 192.282C195.48 192.235 194.622 192.235 193.766 192.282C191.706 192.345 189.646 192.159 187.631 191.728C185.628 191.282 183.763 190.353 182.2 189.023C181.573 188.44 180.987 187.813 180.446 187.149Z" fill="#106FA4"/>
<path d="M182.47 184.479C182.47 184.479 182.583 184.643 182.832 184.891C183.19 185.237 183.575 185.555 183.982 185.842C185.319 186.799 186.811 187.52 188.391 187.972C189.977 188.428 191.629 188.613 193.276 188.519C193.772 188.488 194.265 188.424 194.753 188.327C195.094 188.249 195.285 188.2 195.278 188.171C195.271 188.143 194.504 188.235 193.262 188.256C190.018 188.308 186.835 187.383 184.124 185.601C183.109 184.948 182.527 184.437 182.47 184.479Z" fill="#FAFAFA"/>
<path d="M185.516 182.697C185.839 182.998 186.214 183.239 186.623 183.407C187.568 183.898 188.569 184.27 189.605 184.515C190.64 184.766 191.7 184.895 192.765 184.898C193.207 184.934 193.652 184.888 194.078 184.763C192.605 184.646 191.14 184.444 189.69 184.16C188.272 183.753 186.878 183.264 185.516 182.697Z" fill="#106FA4"/>
<path d="M177.841 195.697C177.997 195.861 178.177 196.002 178.373 196.116C178.878 196.47 179.402 196.797 179.942 197.096C183.513 199.097 187.522 200.19 191.615 200.277C192.23 200.296 192.846 200.281 193.461 200.234C193.687 200.239 193.913 200.205 194.128 200.135C194.128 200.078 193.169 200.135 191.622 200.021C187.593 199.777 183.658 198.704 180.063 196.869C178.685 196.166 177.876 195.64 177.841 195.697Z" fill="#106FA4"/>
<path d="M179.381 200.532C179.816 200.936 180.309 201.274 180.843 201.533C183.365 202.911 186.216 203.571 189.086 203.443C189.678 203.45 190.268 203.363 190.833 203.188C186.839 203.427 182.862 202.505 179.381 200.532Z" fill="#FAFAFA"/>
<path d="M170.669 189.471C169.547 194.157 173.885 198.928 177.84 198.928C181.795 198.928 186.154 194.157 185.011 189.471C183.463 183.144 180.133 180.738 177.84 180.738C174.893 180.738 171.819 184.77 170.669 189.471Z" fill="#106FA4"/>
<path opacity="0.3" d="M170.669 189.471C169.547 194.157 173.885 198.928 177.84 198.928C181.795 198.928 186.154 194.157 185.011 189.471C183.463 183.144 180.133 180.738 177.84 180.738C174.893 180.738 171.819 184.77 170.669 189.471Z" fill="white"/>
<path d="M173.175 196.4C171.94 200.717 175.781 205.318 179.466 205.474C183.151 205.63 187.375 201.37 186.502 196.954C185.309 191.018 182.313 188.647 180.183 188.555C177.443 188.455 174.404 192.083 173.175 196.4Z" fill="#106FA4"/>
<path d="M173.29 200.525C173.378 200.596 173.476 200.653 173.581 200.696C173.882 200.831 174.199 200.926 174.525 200.98C175.557 201.168 176.621 200.956 177.502 200.388C178.383 199.819 179.014 198.937 179.268 197.92C179.532 196.963 179.447 195.943 179.027 195.044C178.909 194.782 178.723 194.556 178.488 194.391C178.253 194.226 177.978 194.128 177.692 194.107C177.534 194.101 177.377 194.13 177.232 194.193C177.087 194.256 176.958 194.35 176.854 194.469C176.647 194.705 176.531 195.007 176.527 195.321C176.537 195.622 176.61 195.918 176.741 196.189C176.872 196.461 177.058 196.702 177.287 196.897C177.72 197.315 178.249 197.62 178.828 197.785C179.393 197.959 179.994 197.99 180.574 197.873C181.154 197.756 181.696 197.497 182.151 197.117C182.575 196.767 182.916 196.326 183.15 195.828C183.383 195.329 183.502 194.785 183.5 194.235C183.497 193.706 183.294 193.199 182.932 192.815C182.75 192.631 182.522 192.5 182.272 192.436C182.022 192.372 181.759 192.378 181.512 192.453C181.281 192.539 181.083 192.694 180.945 192.898C180.806 193.101 180.734 193.342 180.738 193.589C180.739 193.805 180.784 194.019 180.869 194.217C180.954 194.416 181.079 194.596 181.235 194.746C181.756 195.235 182.437 195.52 183.152 195.548C183.678 195.572 184.203 195.475 184.685 195.264C184.99 195.136 185.269 194.953 185.509 194.725C185.672 194.568 185.736 194.476 185.729 194.469C185.396 194.742 185.026 194.964 184.628 195.129C184.163 195.307 183.663 195.38 183.166 195.342C182.512 195.297 181.895 195.02 181.426 194.561C181.297 194.437 181.195 194.286 181.126 194.12C181.058 193.954 181.025 193.775 181.029 193.596C181.025 193.412 181.079 193.231 181.182 193.079C181.285 192.926 181.432 192.809 181.604 192.744C181.799 192.693 182.003 192.695 182.197 192.747C182.391 192.799 182.568 192.901 182.711 193.042C183.01 193.378 183.173 193.813 183.166 194.263C183.164 194.759 183.052 195.249 182.838 195.697C182.625 196.145 182.315 196.54 181.93 196.855C181.518 197.192 181.029 197.422 180.506 197.525C179.984 197.627 179.444 197.6 178.934 197.444C178.415 197.296 177.939 197.023 177.55 196.649C177.359 196.488 177.202 196.289 177.09 196.066C176.978 195.843 176.912 195.599 176.897 195.349C176.891 195.24 176.907 195.13 176.944 195.026C176.981 194.923 177.038 194.828 177.112 194.747C177.186 194.665 177.275 194.6 177.375 194.553C177.474 194.507 177.582 194.481 177.692 194.476C177.916 194.494 178.131 194.573 178.314 194.704C178.497 194.836 178.64 195.015 178.728 195.222C179.121 196.045 179.209 196.981 178.977 197.863C178.788 198.638 178.373 199.34 177.784 199.879C177.343 200.257 176.828 200.539 176.271 200.706C175.715 200.874 175.13 200.923 174.554 200.852C174.123 200.781 173.7 200.672 173.29 200.525Z" fill="#FAFAFA"/>
<path d="M178.209 205.382C178.423 204.559 178.797 203.787 179.31 203.11C179.884 202.405 180.651 201.885 181.518 201.612C181.748 201.525 181.995 201.49 182.241 201.51C182.486 201.53 182.724 201.603 182.938 201.725C183.35 202.002 183.534 202.648 183.122 202.961C183.024 203.041 182.91 203.098 182.788 203.13C182.665 203.162 182.537 203.167 182.412 203.145C182.169 203.095 181.955 202.953 181.816 202.748C181.675 202.541 181.591 202.301 181.572 202.052C181.553 201.803 181.601 201.553 181.71 201.328C181.894 200.923 182.174 200.57 182.525 200.298C182.876 200.026 183.288 199.843 183.726 199.766C184.329 199.658 184.951 199.745 185.501 200.014C185.899 200.199 186.083 200.369 186.104 200.341C185.968 200.147 185.785 199.991 185.572 199.886C185.005 199.545 184.338 199.412 183.683 199.51C183.192 199.576 182.725 199.765 182.325 200.059C181.926 200.353 181.607 200.743 181.397 201.193C181.262 201.47 181.203 201.779 181.225 202.087C181.248 202.395 181.351 202.691 181.525 202.946C181.717 203.23 182.013 203.426 182.349 203.493C182.525 203.523 182.705 203.515 182.877 203.47C183.05 203.424 183.211 203.343 183.35 203.23C183.491 203.112 183.597 202.958 183.657 202.784C183.717 202.61 183.728 202.423 183.69 202.243C183.615 201.91 183.417 201.616 183.137 201.42C182.877 201.262 182.584 201.167 182.281 201.141C181.978 201.115 181.673 201.159 181.39 201.271C180.465 201.575 179.655 202.155 179.068 202.932C178.675 203.448 178.394 204.04 178.245 204.672C178.187 204.904 178.175 205.145 178.209 205.382Z" fill="#FAFAFA"/>
<path d="M176.868 190.102C176.868 190.138 177.095 190.372 177.578 190.571C178.242 190.83 178.967 190.889 179.665 190.741C180.362 190.594 181.001 190.246 181.504 189.74C181.887 189.357 182.015 189.03 181.98 189.03C181.944 189.03 181.724 189.243 181.334 189.556C180.827 189.967 180.23 190.251 179.592 190.386C178.953 190.52 178.292 190.501 177.663 190.33C177.187 190.202 176.896 190.053 176.868 190.102Z" fill="#FAFAFA"/>
<g opacity="0.2">
<path d="M181.22 205.048C181.736 204.78 182.195 204.413 182.569 203.969C182.752 203.743 182.868 203.47 182.905 203.182C182.941 202.893 182.896 202.6 182.775 202.336C182.625 202.124 182.432 201.946 182.208 201.815C181.984 201.684 181.734 201.602 181.476 201.576C180.96 201.533 180.448 201.457 179.942 201.349C179.463 201.171 179.023 200.9 178.649 200.552C178.275 200.203 177.974 199.784 177.763 199.318C177.28 198.417 176.982 197.423 176.506 196.521C176.405 196.26 176.242 196.026 176.032 195.841C175.822 195.656 175.571 195.524 175.299 195.456C174.539 195.378 173.992 196.166 173.765 196.876C173.434 198.002 173.412 199.196 173.7 200.334C173.989 201.472 174.578 202.511 175.405 203.344C177.081 204.977 179.005 205.765 181.22 205.02" fill="black"/>
</g>
<path d="M163.484 183.13C168.156 176.953 173.537 170.954 175.611 163.485C177.244 157.606 176.654 151.415 176.463 145.28C176.271 139.146 176.598 132.763 179.75 127.53C182.902 122.297 188.575 120.324 195.484 123.064C197.782 124.202 199.576 126.153 200.517 128.538C205.686 143.235 207.255 154.666 208.2 170.222C208.697 178.409 208.505 186.73 206.41 194.668C204.316 202.605 200.219 210.16 193.886 215.407C187.553 220.654 178.862 223.252 170.889 221.314C162.916 219.376 156.107 212.46 155.269 204.274C154.531 196.585 158.805 189.307 163.484 183.13ZM170.91 188.81C171.62 191.693 173.999 193.858 176.59 195.335C180.02 197.309 184.095 198.402 187.95 197.635C192.686 196.691 196.577 193.07 198.842 188.796C201.107 184.522 201.937 179.651 202.392 174.837C203.606 161.894 202.271 148.667 200.809 135.745L185.103 160.673C181.134 167.595 175.767 173.701 172.373 180.922C171.216 183.421 170.279 186.183 170.91 188.86V188.81Z" fill="#455A64"/>
<path d="M182.625 210.742C182.792 210.777 182.963 210.777 183.13 210.742C183.593 210.717 184.053 210.641 184.5 210.515C185.993 210.111 187.323 209.252 188.306 208.057C189.288 206.862 189.874 205.391 189.981 203.848C190.016 203.386 190 202.922 189.931 202.463C189.882 202.144 189.832 201.966 189.804 201.974C189.775 201.981 189.86 202.684 189.718 203.82C189.55 205.29 188.961 206.681 188.022 207.825C187.082 208.968 185.832 209.816 184.422 210.266C183.343 210.65 182.618 210.671 182.625 210.742Z" fill="#263238"/>
<path d="M166.644 207.121C166.715 207.121 166.743 206.475 167.098 205.509C167.538 204.25 168.337 203.147 169.397 202.337C170.457 201.526 171.731 201.045 173.062 200.951C174.084 200.873 174.723 201.008 174.73 200.951C174.198 200.733 173.621 200.645 173.048 200.696C171.646 200.734 170.291 201.208 169.171 202.052C168.061 202.906 167.249 204.089 166.849 205.431C166.652 205.971 166.581 206.55 166.644 207.121Z" fill="#263238"/>
<path d="M160.268 197.522C160.325 197.557 160.637 196.855 161.425 195.946C162.447 194.745 163.802 193.874 165.318 193.443C166.835 193.012 168.445 193.041 169.945 193.525C171.095 193.873 171.727 194.306 171.763 194.235C171.798 194.164 171.635 194.086 171.344 193.901C170.929 193.639 170.486 193.425 170.023 193.262C168.485 192.696 166.806 192.634 165.23 193.085C163.654 193.535 162.262 194.475 161.255 195.768C160.951 196.151 160.689 196.565 160.474 197.004C160.296 197.33 160.247 197.515 160.268 197.522Z" fill="#263238"/>
<path d="M172.53 152.224C172.608 152.288 173.183 151.741 173.815 151.003C174.447 150.264 174.901 149.583 174.823 149.54C174.745 149.498 174.17 150.023 173.538 150.761C172.906 151.5 172.445 152.16 172.53 152.224Z" fill="white"/>
<path d="M171.067 148.39C170.98 147.739 170.832 147.097 170.627 146.473C170.542 145.823 170.399 145.181 170.201 144.556C169.987 145.898 170.297 147.271 171.067 148.39Z" fill="white"/>
<path d="M166.516 150.35C166.587 150.279 166.204 149.746 165.657 149.157C165.11 148.567 164.599 148.141 164.521 148.212C164.443 148.283 164.833 148.816 165.38 149.405C165.927 149.995 166.438 150.413 166.516 150.35Z" fill="white"/>
<path d="M171.898 137.03C172.143 137.688 172.443 138.324 172.793 138.933C173.03 139.592 173.323 140.231 173.666 140.843C173.555 139.4 172.927 138.046 171.898 137.03Z" fill="white"/>
<path d="M174.894 133.707C175.288 133.096 175.574 132.421 175.739 131.712C176.023 131.035 176.189 130.315 176.229 129.582C175.836 130.194 175.553 130.869 175.391 131.577C175.11 132.255 174.942 132.975 174.894 133.707Z" fill="white"/>
<path d="M165.955 137.697C167.121 136.889 168.133 135.879 168.944 134.715C167.783 135.529 166.772 136.538 165.955 137.697Z" fill="white"/>
<path d="M158.976 142.327C159.817 142.511 160.681 142.569 161.539 142.497C162.396 142.552 163.256 142.485 164.095 142.298C162.397 142.052 160.673 142.052 158.976 142.298V142.327Z" fill="white"/>
<path d="M159.948 148.106C160.012 148.021 159.323 147.396 158.414 146.764C157.897 146.311 157.3 145.957 156.654 145.72C157.087 146.252 157.608 146.706 158.194 147.062C158.711 147.513 159.305 147.867 159.948 148.106Z" fill="white"/>
<path d="M161.681 132.571C161.603 132.642 161.922 133.139 162.391 133.686C162.859 134.233 163.307 134.63 163.385 134.566C163.463 134.502 163.143 133.998 162.675 133.452C162.206 132.905 161.759 132.507 161.681 132.571Z" fill="white"/>
<path d="M168.27 129.461C168.355 129.518 168.817 129 169.299 128.304C169.782 127.608 170.109 126.998 170.009 126.941C169.91 126.884 169.463 127.395 168.98 128.091C168.497 128.787 168.163 129.405 168.27 129.461Z" fill="white"/>
<path d="M159.188 180.184C159.225 179.545 159.135 178.906 158.926 178.302C158.833 177.667 158.621 177.055 158.301 176.499C158.269 177.139 158.358 177.78 158.564 178.387C158.656 179.02 158.868 179.63 159.188 180.184Z" fill="white"/>
<path d="M150.874 173.666C151.416 173.728 151.964 173.668 152.479 173.488C153.345 173.29 154.027 173.055 153.998 172.956C152.915 172.943 151.845 173.186 150.874 173.666Z" fill="white"/>
<path d="M148.127 174.064C148.068 172.88 147.764 171.722 147.232 170.663C147.2 171.257 147.289 171.851 147.495 172.409C147.587 172.999 147.803 173.562 148.127 174.064Z" fill="white"/>
<path d="M152.252 182.569C152.812 182.323 153.317 181.965 153.736 181.519C154.495 180.865 155.049 180.269 154.985 180.191C154.423 180.438 153.916 180.795 153.494 181.242C152.742 181.895 152.181 182.47 152.252 182.569Z" fill="white"/>
<path d="M147.488 182.051C147.638 181.397 147.619 180.715 147.431 180.07C147.359 179.401 147.115 178.763 146.721 178.217C146.916 179.506 147.167 180.785 147.474 182.051H147.488Z" fill="white"/>
<path d="M150.435 190.422C151.167 190.161 151.852 189.784 152.465 189.307C153.146 188.935 153.762 188.455 154.29 187.887C153.558 188.148 152.873 188.525 152.259 189.002C151.581 189.377 150.965 189.856 150.435 190.422Z" fill="white"/>
<path d="M141.062 187.312C141.447 187.887 141.927 188.391 142.482 188.803C142.969 189.304 143.542 189.715 144.172 190.017C143.294 188.939 142.235 188.024 141.041 187.312H141.062Z" fill="white"/>
<path d="M137.079 183.215C137.914 183.426 138.775 183.512 139.635 183.471C140.491 183.556 141.354 183.518 142.198 183.357C140.508 183.064 138.783 183.016 137.079 183.215Z" fill="white"/>
<path d="M138.776 194.497C139.561 194.518 140.345 194.492 141.126 194.419C141.909 194.459 142.694 194.459 143.477 194.419C142.737 194.089 141.926 193.955 141.119 194.029C140.311 193.985 139.505 194.146 138.776 194.497Z" fill="white"/>
<path d="M136.823 190.429C136.736 189.844 136.528 189.283 136.213 188.782C136.001 188.229 135.68 187.724 135.268 187.298C135.354 187.884 135.562 188.445 135.879 188.945C136.093 189.497 136.414 190.002 136.823 190.429Z" fill="white"/>
<path d="M128.411 192.999C128.956 192.45 129.455 191.856 129.902 191.224C130.446 190.674 130.944 190.08 131.393 189.449C130.048 190.287 129.004 191.53 128.411 192.999Z" fill="white"/>
<path d="M125.428 184.075C126.264 184.065 127.098 183.987 127.921 183.84C128.753 183.813 129.582 183.716 130.398 183.549C129.572 183.352 128.715 183.325 127.878 183.471C127.029 183.501 126.195 183.706 125.428 184.075Z" fill="white"/>
<path d="M119.77 184.721C120.393 185.513 121.108 186.228 121.9 186.851C122.625 187.558 123.433 188.176 124.307 188.69C123.673 187.895 122.946 187.18 122.141 186.56C121.428 185.853 120.632 185.236 119.77 184.721Z" fill="white"/>
<path d="M119.28 192.573C119.839 192.25 120.365 191.871 120.849 191.444C121.403 191.112 121.926 190.729 122.411 190.301C121.751 190.408 121.135 190.701 120.636 191.146C119.77 191.785 119.237 192.509 119.28 192.573Z" fill="white"/>
<path d="M114.459 185.899C114.649 186.551 114.957 187.162 115.368 187.703C115.675 188.309 116.089 188.854 116.589 189.314C116.092 188.056 115.37 186.899 114.459 185.899Z" fill="white"/>
<path d="M112.627 190.99C112.563 191.068 112.726 191.324 113.003 191.558C113.28 191.792 113.557 191.92 113.621 191.842C113.685 191.764 113.522 191.508 113.245 191.274C112.968 191.04 112.691 190.933 112.627 190.99Z" fill="white"/>
<path d="M216.698 189.158C217.244 188.635 217.634 187.972 217.827 187.241C218.129 186.549 218.24 185.789 218.147 185.04C217.886 185.721 217.663 186.415 217.479 187.12C217.181 187.784 216.92 188.465 216.698 189.158Z" fill="white"/>
<path d="M219.83 193.425C220.434 193.015 220.962 192.504 221.392 191.913C221.915 191.405 222.35 190.812 222.677 190.159C222.073 190.569 221.544 191.081 221.115 191.671C220.591 192.18 220.156 192.773 219.83 193.425Z" fill="white"/>
<path d="M210.081 191.153C209.831 192.323 209.831 193.533 210.081 194.703C210.256 194.129 210.314 193.525 210.252 192.928C210.316 192.331 210.258 191.727 210.081 191.153Z" fill="white"/>
<path d="M211.721 178.359C211.643 178.43 212.431 179.445 213.276 180.809C214.121 182.172 214.618 183.364 214.696 183.329C214.509 182.357 214.125 181.435 213.567 180.617C213.12 179.741 212.49 178.972 211.721 178.359Z" fill="white"/>
<path d="M212.815 171.195C213.014 171.898 213.329 172.562 213.746 173.162C214.053 173.825 214.476 174.429 214.995 174.944C214.796 174.241 214.482 173.577 214.065 172.977C213.754 172.316 213.332 171.713 212.815 171.195Z" fill="white"/>
<path d="M198.416 181.497C198.738 180.838 198.949 180.131 199.041 179.403C199.246 178.7 199.333 177.968 199.297 177.237C198.767 178.598 198.469 180.038 198.416 181.497Z" fill="white"/>
<path d="M197.202 174.326C197.803 174.274 198.387 174.102 198.921 173.822C199.501 173.65 200.04 173.36 200.504 172.97C199.904 173.024 199.32 173.195 198.786 173.474C198.205 173.646 197.666 173.936 197.202 174.326Z" fill="white"/>
<path d="M191.699 179.992C192.253 180.15 192.822 180.246 193.396 180.276C193.956 180.42 194.53 180.501 195.107 180.517C194.63 180.152 194.053 179.939 193.453 179.907C192.873 179.757 192.262 179.787 191.699 179.992Z" fill="white"/>
<path d="M209.166 186.183C209.102 186.261 209.677 186.751 210.586 186.893C210.847 186.973 211.123 186.999 211.395 186.97C211.667 186.94 211.93 186.856 212.169 186.723C211.669 186.63 211.164 186.566 210.657 186.531C210.166 186.389 209.668 186.273 209.166 186.183Z" fill="white"/>
<path d="M213.823 197.827C213.923 197.827 214.164 197.337 214.363 196.67C214.562 196.003 214.647 195.442 214.555 195.413C214.462 195.385 214.214 195.896 214.008 196.563C213.802 197.231 213.71 197.792 213.823 197.827Z" fill="white"/>
<path d="M209.024 161.88C208.967 162.467 209.032 163.059 209.216 163.619C209.278 164.206 209.464 164.772 209.762 165.281C209.774 164.109 209.532 162.949 209.052 161.88H209.024Z" fill="white"/>
<g opacity="0.2">
<path d="M164.052 174.461C162.638 174.969 161.136 175.189 159.636 175.107C156.635 175.088 153.67 174.452 150.924 173.24C148.262 171.969 145.542 169.243 145.912 166.317C145.912 166.317 158.301 171.181 164.173 174.326" fill="black"/>
</g>
<g opacity="0.2">
<path d="M200.93 142.433C201.214 149.015 203.678 166.367 200.539 172.154C199.262 174.512 197.482 176.56 195.325 178.155C193.169 179.75 190.689 180.851 188.06 181.382C185.431 181.913 182.718 181.86 180.112 181.228C177.505 180.595 175.07 179.397 172.977 177.72C175.503 178.511 178.092 179.084 180.716 179.431C183.36 179.779 186.05 179.442 188.526 178.451C190.13 177.697 191.612 176.706 192.921 175.512C194.974 173.805 196.73 171.771 198.118 169.491C200.348 165.678 201.107 161.191 201.349 156.782C201.59 152.373 201.072 146.913 200.951 142.433" fill="black"/>
</g>
<path d="M116.374 141.313L119.087 139.046L130.12 152.245L127.407 154.513L116.374 141.313Z" fill="#263238"/>
<path d="M106.997 139.488C103.579 134.989 103.689 129.153 107.242 126.454C110.796 123.755 116.447 125.214 119.865 129.714C123.283 134.213 123.173 140.049 119.62 142.748C116.066 145.448 110.415 143.988 106.997 139.488Z" fill="#263238"/>
<path d="M105.934 140.454C102.516 135.955 102.568 130.163 106.049 127.518C109.531 124.874 115.124 126.378 118.542 130.877C121.96 135.377 121.908 141.168 118.426 143.813C114.945 146.458 109.352 144.954 105.934 140.454Z" fill="#455A64"/>
<path d="M106.987 139.643C103.868 135.537 103.914 130.253 107.09 127.841C110.266 125.429 115.368 126.802 118.487 130.908C121.606 135.014 121.56 140.298 118.385 142.711C115.209 145.123 110.106 143.75 106.987 139.643Z" fill="#E0E0E0"/>
<path d="M133.891 158.394L130.433 158.884C127.252 159.054 125.463 159.274 124.491 158.578C123.149 157.634 124.59 156.292 124.59 156.292C124.59 156.292 122.197 155.866 122.204 154.446C122.204 153.481 123.262 153.211 123.262 153.211C123.262 153.211 121.132 152.735 120.614 151.961C119.904 150.91 121.225 150.087 121.225 150.087C118.235 148.823 118.228 147.119 118.832 146.856C119.435 146.594 121.722 147.247 121.722 147.247C123.596 147.488 128.729 148.234 126.5 145.827C124.27 143.42 123.468 140.694 123.759 139.813C123.847 139.618 123.994 139.455 124.179 139.347C124.364 139.239 124.578 139.192 124.792 139.211C125.005 139.231 125.207 139.316 125.369 139.456C125.532 139.596 125.646 139.783 125.698 139.991C126.145 141.014 126.733 141.97 127.444 142.831C127.988 143.543 128.648 144.157 129.397 144.648C130.27 145.216 131.037 145.664 131.697 146.026L136.376 148.653L133.891 158.394Z" fill="#FFBE9D"/>
<path d="M189.924 123.27C191.32 123.27 192.702 123.546 193.991 124.082C195.28 124.618 196.45 125.403 197.435 126.393C198.419 127.383 199.198 128.557 199.727 129.849C200.256 131.141 200.525 132.524 200.517 133.92V160.19C200.517 166.829 196.591 175.413 190.67 178.409C188.38 179.566 185.867 180.211 183.303 180.299C180.739 180.388 178.187 179.917 175.824 178.92L131.804 160.353L136.504 144.577L179.814 157.513C179.814 157.513 179.509 144.357 179.367 133.97C179.347 132.567 179.606 131.173 180.13 129.871C180.653 128.569 181.431 127.384 182.416 126.385C183.402 125.386 184.577 124.593 185.872 124.052C187.167 123.512 188.556 123.234 189.96 123.235L189.924 123.27Z" fill="#106FA4"/>
<path d="M136.483 144.613L136.654 144.684L137.165 144.868L139.16 145.55L146.416 147.9C152.551 149.852 161.056 152.487 170.506 155.177C173.73 156.093 176.854 156.952 179.736 157.733L179.971 157.797V157.563C179.836 150.065 179.722 143.576 179.637 138.933C179.58 136.639 179.538 134.808 179.502 133.515C179.502 132.905 179.467 132.429 179.452 132.095C179.463 131.93 179.463 131.764 179.452 131.598C179.434 131.766 179.434 131.935 179.452 132.102C179.452 132.457 179.452 132.94 179.452 133.522C179.452 134.815 179.452 136.646 179.452 138.933C179.502 143.583 179.573 150.073 179.658 157.563L179.878 157.393C176.982 156.605 173.858 155.738 170.648 154.815C161.198 152.132 152.685 149.54 146.508 147.651L139.16 145.394L137.172 144.797L136.654 144.648C136.598 144.629 136.541 144.617 136.483 144.613Z" fill="#263238"/>
<path d="M132.394 160.297C132.473 160.346 132.556 160.389 132.642 160.424L133.402 160.772L136.32 162.093L147.169 166.85L163.25 173.893C166.289 175.192 169.434 176.648 172.786 177.976C174.493 178.654 176.247 179.211 178.033 179.644C179.878 180.1 181.777 180.301 183.677 180.241C185.587 180.175 187.467 179.743 189.215 178.97C190.91 178.22 192.469 177.195 193.83 175.938C196.357 173.534 198.3 170.583 199.51 167.311C200.097 165.798 200.505 164.22 200.724 162.611C200.824 161.83 200.923 161.063 200.966 160.304C201.008 159.544 201.079 158.799 201.108 158.06C201.235 155.121 201.25 152.38 201.221 149.881C201.164 144.911 200.973 140.843 200.831 138.045C200.745 136.668 200.682 135.589 200.639 134.836C200.639 134.481 200.589 134.204 200.575 133.998C200.561 133.792 200.54 133.714 200.54 133.721C200.532 133.816 200.532 133.911 200.54 134.005C200.54 134.211 200.54 134.488 200.54 134.843C200.54 135.596 200.611 136.675 200.667 138.052C200.767 140.85 200.916 144.89 200.937 149.881C200.937 152.38 200.937 155.114 200.781 158.046C200.625 160.978 200.419 164.131 199.169 167.191C197.954 170.429 196.011 173.344 193.489 175.711C192.158 176.941 190.636 177.946 188.981 178.686C187.275 179.437 185.441 179.857 183.578 179.921C181.711 179.98 179.845 179.781 178.033 179.332C176.263 178.908 174.526 178.358 172.835 177.685C169.498 176.371 166.339 174.923 163.307 173.63L147.19 166.665L136.313 161.994L133.352 160.744L132.578 160.424C132.521 160.376 132.459 160.334 132.394 160.297Z" fill="#263238"/>
<path d="M194.27 143.257C194.355 143.313 194.874 142.653 195.428 141.794C195.813 141.299 196.099 140.735 196.272 140.133C195.798 140.543 195.405 141.039 195.115 141.595C194.723 142.086 194.436 142.651 194.27 143.257Z" fill="white"/>
<path d="M185.451 140.665C185.705 141.932 186.202 143.137 186.914 144.215C186.66 142.948 186.164 141.743 185.451 140.665Z" fill="white"/>
<path d="M190.088 134.829C190.173 134.893 190.684 134.339 191.245 133.594C191.806 132.848 192.183 132.174 192.097 132.174C192.012 132.174 191.501 132.663 190.947 133.402C190.566 133.813 190.273 134.299 190.088 134.829Z" fill="white"/>
<path d="M184.429 130.299C184.97 130.485 185.546 130.544 186.112 130.47C186.679 130.396 187.221 130.192 187.695 129.873C187.147 129.898 186.603 129.974 186.069 130.1C185.518 130.113 184.968 130.18 184.429 130.299Z" fill="white"/>
<path d="M191.394 152.65C191.606 151.767 191.694 150.859 191.657 149.952C191.738 149.049 191.7 148.14 191.543 147.247C191.332 148.13 191.244 149.038 191.281 149.945C191.2 150.848 191.238 151.757 191.394 152.65Z" fill="white"/>
<path d="M195.867 154.006C196.342 153.466 196.721 152.849 196.989 152.181C197.366 151.572 197.635 150.902 197.784 150.2C197.306 150.736 196.927 151.351 196.662 152.018C196.284 152.629 196.014 153.302 195.867 154.006Z" fill="white"/>
<path d="M183.293 149.916C183.612 150.737 184.044 151.509 184.578 152.21C185.014 152.975 185.551 153.677 186.176 154.297C185.428 152.707 184.458 151.232 183.293 149.916Z" fill="white"/>
<path d="M187.83 160.403C188.838 160.325 189.833 160.122 190.791 159.8C191.774 159.599 192.728 159.277 193.631 158.841C191.632 159.124 189.674 159.648 187.802 160.403H187.83Z" fill="white"/>
<path d="M190.692 165.693C191.131 166.355 191.667 166.949 192.282 167.453C192.818 168.042 193.44 168.544 194.128 168.944C193.69 168.28 193.154 167.687 192.538 167.184C192 166.597 191.378 166.095 190.692 165.693Z" fill="white"/>
<path d="M186.211 174.66C186.362 173.91 186.393 173.141 186.304 172.381C186.333 171.616 186.239 170.851 186.027 170.116C185.868 170.865 185.837 171.636 185.934 172.395C185.905 173.16 185.999 173.925 186.211 174.66Z" fill="white"/>
<path d="M179.708 165.806C180.478 165.447 181.195 164.984 181.838 164.429C182.555 163.969 183.2 163.407 183.755 162.76C182.982 163.114 182.264 163.578 181.625 164.138C180.907 164.596 180.261 165.158 179.708 165.806Z" fill="white"/>
<path d="M172.899 170.272C174.054 171.351 175.267 172.366 176.534 173.311C176.123 172.619 175.572 172.022 174.915 171.557C174.338 170.996 173.652 170.558 172.899 170.272Z" fill="white"/>
<path d="M175.909 164.564C176.137 163.877 176.248 163.157 176.235 162.434C176.339 161.726 176.325 161.006 176.193 160.304C175.961 160.989 175.85 161.71 175.866 162.434C175.761 163.141 175.776 163.861 175.909 164.564Z" fill="white"/>
<path d="M167.943 162.157C168.594 161.697 169.22 161.201 169.817 160.673C170.492 160.237 171.142 159.763 171.763 159.253C170.195 159.722 168.843 160.727 167.943 162.093V162.157Z" fill="white"/>
<path d="M160.97 167.404C161.799 167.747 162.671 167.974 163.562 168.078C164.433 168.305 165.331 168.413 166.231 168.398C165.401 168.045 164.527 167.806 163.633 167.688C162.763 167.47 161.867 167.374 160.97 167.404Z" fill="white"/>
<path d="M157.981 159.161C158.642 159.717 159.337 160.232 160.062 160.701C160.714 161.268 161.396 161.799 162.106 162.292C161.087 160.848 159.646 159.755 157.981 159.161Z" fill="white"/>
<path d="M159.118 155.319C161.158 155.867 163.292 155.964 165.373 155.603C164.337 155.478 163.293 155.421 162.249 155.433C161.209 155.326 160.163 155.288 159.118 155.319Z" fill="white"/>
<path d="M149.597 160.46C150.027 161.149 150.558 161.768 151.173 162.299C151.701 162.915 152.322 163.447 153.012 163.875C152.579 163.188 152.048 162.569 151.436 162.036C150.905 161.421 150.285 160.89 149.597 160.46Z" fill="white"/>
<path d="M150.165 156.463C151.022 156.044 151.823 155.519 152.55 154.901C153.346 154.375 154.073 153.752 154.716 153.047C153.052 153.975 151.521 155.124 150.165 156.463Z" fill="white"/>
<path d="M141.957 148.617C142.245 149.478 142.646 150.297 143.15 151.052C143.552 151.868 144.064 152.625 144.669 153.303C144.38 152.441 143.976 151.622 143.469 150.868C143.07 150.052 142.561 149.295 141.957 148.617Z" fill="white"/>
<path d="M136.377 159.04C137.448 158.998 138.515 158.884 139.572 158.699C140.644 158.638 141.711 158.507 142.767 158.309C141.697 158.132 140.606 158.132 139.536 158.309C138.451 158.382 137.384 158.629 136.377 159.04Z" fill="white"/>
<path d="M137.555 156.747C137.94 155.459 138.086 154.111 137.988 152.771C137.73 153.395 137.593 154.062 137.583 154.737C137.455 155.4 137.446 156.08 137.555 156.747Z" fill="white"/>
<path d="M194.66 126.323C195.086 127.197 195.617 128.015 196.244 128.758C196.768 129.578 197.398 130.325 198.118 130.981C197.694 130.104 197.162 129.283 196.535 128.538C196.009 127.721 195.379 126.977 194.66 126.323Z" fill="white"/>
</svg>
