<svg width="451" height="300" viewBox="0 0 451 300" fill="none" xmlns="http://www.w3.org/2000/svg">
<path d="M293.084 220.079L299.006 223.637L292.994 227.201L286.982 230.771L287.072 223.649L287.168 216.527L293.084 220.079Z" fill="#E0E0E0"/>
<path d="M60.188 255.535V283.231H100.688H145.364V255.535H60.188Z" fill="#F5F5F5"/>
<path d="M56.612 247.789V255.535H148.34V247.789H100.688H56.612Z" fill="#E0E0E0"/>
<path d="M102.476 283.231H145.364V255.535H148.34V247.789H100.688V254.815L102.476 283.231Z" fill="#E0E0E0"/>
<path d="M89.372 260H72.098V264.17H89.372V260Z" fill="#E0E0E0"/>
<path d="M92.06 269.383H69.878V278.185H92.06V269.383Z" fill="white"/>
<path d="M73.292 220.129V247.825H113.792H158.468V220.129H73.292Z" fill="#F5F5F5"/>
<path d="M69.716 212.383V220.129H161.444V212.383H113.792H69.716Z" fill="#E0E0E0"/>
<path d="M115.58 247.825H158.468V220.129H161.444V212.383H113.792V219.415L115.58 247.825Z" fill="#E0E0E0"/>
<path d="M102.476 224.594H85.202V228.764H102.476V224.594Z" fill="#E0E0E0"/>
<path d="M105.164 233.977H82.982V242.779H105.164V233.977Z" fill="white"/>
<path d="M400.526 119.406H300.224C297.616 119.406 295.502 121.52 295.502 124.128V182.7C295.502 185.308 297.616 187.422 300.224 187.422H400.526C403.134 187.422 405.248 185.308 405.248 182.7V124.128C405.248 121.52 403.134 119.406 400.526 119.406Z" fill="#E0E0E0"/>
<path d="M350.372 162.696C354.988 162.696 358.73 158.954 358.73 154.338C358.73 149.722 354.988 145.98 350.372 145.98C345.756 145.98 342.014 149.722 342.014 154.338C342.014 158.954 345.756 162.696 350.372 162.696Z" fill="#EBEBEB"/>
<path d="M348.362 156.779V151.847C348.362 151.792 348.376 151.738 348.404 151.691C348.431 151.644 348.471 151.604 348.518 151.577C348.566 151.55 348.619 151.535 348.674 151.535C348.729 151.535 348.783 151.55 348.83 151.577L353.234 154.061C353.283 154.088 353.323 154.127 353.352 154.176C353.38 154.224 353.395 154.278 353.395 154.334C353.395 154.39 353.38 154.444 353.352 154.492C353.323 154.54 353.283 154.58 353.234 154.607L348.824 157.055C348.776 157.081 348.723 157.094 348.668 157.093C348.614 157.092 348.561 157.077 348.514 157.049C348.467 157.021 348.429 156.982 348.402 156.934C348.375 156.887 348.362 156.833 348.362 156.779Z" fill="white"/>
<path d="M301.778 179.611V179.785H300.95V179.647L301.394 179.221C301.432 179.194 301.462 179.159 301.484 179.119C301.506 179.078 301.518 179.033 301.52 178.987C301.52 178.885 301.454 178.831 301.316 178.831C301.266 178.828 301.216 178.837 301.17 178.857C301.125 178.876 301.084 178.907 301.052 178.945L300.908 178.831C300.96 178.769 301.025 178.72 301.099 178.688C301.173 178.656 301.253 178.641 301.334 178.645C301.574 178.645 301.73 178.771 301.73 178.969C301.729 179.039 301.711 179.107 301.679 179.168C301.647 179.23 301.601 179.283 301.544 179.323L301.244 179.611H301.778Z" fill="white"/>
<path d="M301.886 179.054C301.886 179.028 301.894 179.002 301.908 178.981C301.923 178.959 301.943 178.942 301.967 178.932C301.992 178.922 302.018 178.919 302.044 178.924C302.069 178.93 302.093 178.942 302.111 178.961C302.13 178.979 302.142 179.003 302.147 179.028C302.153 179.054 302.15 179.08 302.14 179.104C302.13 179.129 302.113 179.149 302.091 179.164C302.07 179.178 302.044 179.186 302.018 179.186C301.983 179.186 301.949 179.172 301.925 179.147C301.9 179.122 301.886 179.089 301.886 179.054ZM301.886 179.654C301.886 179.619 301.9 179.585 301.925 179.561C301.949 179.536 301.983 179.522 302.018 179.522C302.053 179.522 302.087 179.536 302.111 179.561C302.136 179.585 302.15 179.619 302.15 179.654C302.15 179.689 302.136 179.722 302.111 179.747C302.087 179.772 302.053 179.786 302.018 179.786C301.983 179.786 301.949 179.772 301.925 179.747C301.9 179.722 301.886 179.689 301.886 179.654Z" fill="white"/>
<path d="M302.672 178.664V179.786H302.462V178.838H302.228V178.664H302.672Z" fill="white"/>
<path d="M303.89 179.526H303.692V179.784H303.5V179.526H302.9V179.4L303.452 178.68H303.674L303.158 179.37H303.5V179.142H303.692V179.37H303.89V179.526Z" fill="white"/>
<path d="M390.716 179.051H305.72V179.501H390.716V179.051Z" fill="white"/>
<path d="M332.222 178.578H305.66V179.778H332.222V178.578Z" fill="#EBEBEB"/>
<path d="M333.074 179.274C333.075 179.531 333 179.783 332.858 179.997C332.716 180.211 332.514 180.378 332.277 180.477C332.04 180.575 331.779 180.602 331.527 180.552C331.275 180.502 331.043 180.378 330.862 180.197C330.68 180.015 330.556 179.784 330.507 179.532C330.457 179.28 330.483 179.019 330.582 178.782C330.681 178.545 330.848 178.342 331.062 178.2C331.276 178.058 331.527 177.983 331.784 177.984C332.126 177.986 332.453 178.122 332.694 178.364C332.936 178.606 333.072 178.933 333.074 179.274Z" fill="#EBEBEB"/>
<path d="M392.858 179.261C392.857 179.313 392.846 179.364 392.825 179.411C392.804 179.457 392.773 179.499 392.734 179.534C392.696 179.568 392.651 179.594 392.602 179.61C392.553 179.626 392.501 179.632 392.45 179.627C392.144 179.627 391.964 179.429 391.964 179.069C391.954 178.993 391.962 178.915 391.985 178.842C392.008 178.768 392.047 178.701 392.099 178.644C392.151 178.587 392.214 178.541 392.285 178.511C392.356 178.481 392.433 178.467 392.51 178.469C392.613 178.465 392.715 178.49 392.804 178.541L392.732 178.703C392.667 178.664 392.592 178.645 392.516 178.649C392.306 178.649 392.174 178.775 392.174 179.033C392.213 178.993 392.259 178.962 392.311 178.943C392.363 178.923 392.419 178.915 392.474 178.919C392.522 178.914 392.571 178.919 392.617 178.934C392.663 178.949 392.705 178.973 392.741 179.005C392.778 179.038 392.807 179.077 392.827 179.121C392.847 179.165 392.857 179.213 392.858 179.261ZM392.654 179.261C392.654 179.141 392.57 179.069 392.432 179.069C392.294 179.069 392.204 179.147 392.204 179.261C392.204 179.375 392.288 179.447 392.438 179.447C392.464 179.451 392.49 179.449 392.515 179.442C392.54 179.435 392.563 179.423 392.583 179.406C392.603 179.39 392.62 179.37 392.632 179.347C392.644 179.324 392.652 179.299 392.654 179.273V179.261Z" fill="white"/>
<path d="M392.96 178.878C392.959 178.861 392.962 178.843 392.968 178.827C392.975 178.81 392.984 178.795 392.997 178.783C393.009 178.771 393.024 178.761 393.04 178.755C393.057 178.748 393.074 178.745 393.092 178.746C393.127 178.746 393.161 178.76 393.185 178.785C393.21 178.81 393.224 178.843 393.224 178.878C393.224 178.913 393.21 178.947 393.185 178.972C393.161 178.996 393.127 179.01 393.092 179.01C393.074 179.011 393.057 179.008 393.04 179.002C393.024 178.996 393.009 178.986 392.997 178.973C392.984 178.961 392.975 178.946 392.968 178.93C392.962 178.913 392.959 178.896 392.96 178.878ZM392.96 179.478C392.958 179.46 392.96 179.442 392.966 179.426C392.972 179.409 392.982 179.393 392.994 179.381C393.007 179.368 393.022 179.358 393.039 179.352C393.056 179.346 393.074 179.344 393.092 179.346C393.109 179.345 393.127 179.348 393.143 179.354C393.159 179.361 393.173 179.371 393.185 179.383C393.197 179.396 393.206 179.411 393.212 179.427C393.218 179.444 393.22 179.461 393.218 179.478C393.222 179.498 393.222 179.517 393.217 179.537C393.213 179.556 393.204 179.574 393.192 179.589C393.179 179.604 393.164 179.617 393.146 179.625C393.128 179.634 393.109 179.638 393.089 179.638C393.069 179.638 393.05 179.634 393.032 179.625C393.014 179.617 392.999 179.604 392.986 179.589C392.974 179.574 392.965 179.556 392.961 179.537C392.956 179.517 392.956 179.498 392.96 179.478Z" fill="white"/>
<path d="M393.356 179.053C393.356 178.681 393.554 178.453 393.824 178.453C394.094 178.453 394.292 178.663 394.292 179.053C394.292 179.443 394.088 179.653 393.824 179.653C393.56 179.653 393.356 179.401 393.356 179.053ZM394.082 179.053C394.082 178.777 393.974 178.657 393.824 178.657C393.674 178.657 393.566 178.777 393.566 179.053C393.566 179.329 393.668 179.443 393.824 179.443C393.98 179.443 394.1 179.323 394.1 179.053H394.082Z" fill="white"/>
<path d="M394.43 179.053C394.43 178.681 394.634 178.453 394.898 178.453C395.162 178.453 395.366 178.663 395.366 179.053C395.366 179.443 395.168 179.653 394.898 179.653C394.628 179.653 394.43 179.401 394.43 179.053ZM395.156 179.053C395.156 178.777 395.054 178.657 394.898 178.657C394.742 178.657 394.64 178.777 394.64 179.053C394.64 179.329 394.748 179.443 394.898 179.443C395.048 179.443 395.156 179.323 395.156 179.053Z" fill="white"/>
<path d="M397.208 178.982H396.758V177.836H397.904V178.286H397.208V178.982Z" fill="white"/>
<path d="M397.904 180.466H396.758V179.32H397.208V180.016H397.904V180.466Z" fill="white"/>
<path d="M399.716 180.466H398.57V180.016H399.266V179.32H399.716V180.466Z" fill="white"/>
<path d="M399.716 178.982H399.266V178.286H398.57V177.836H399.716V178.982Z" fill="white"/>
<path d="M385.22 125.999C385.986 125.904 386.758 125.862 387.53 125.873H387.656V125.999C387.656 126.875 387.656 127.865 387.656 128.933V129.311L387.386 129.041C387.29 128.945 387.182 128.843 387.08 128.735C386.81 128.465 386.552 128.201 386.294 127.949H386.504L385.304 129.029L385.076 129.233V128.927C385.076 128.021 385.124 127.265 385.148 126.755C385.142 126.499 385.165 126.244 385.214 125.993C385.26 126.275 385.282 126.56 385.28 126.845C385.31 127.361 385.34 128.081 385.352 128.927L385.124 128.825L386.324 127.721L386.432 127.625L386.534 127.727L387.326 128.507L387.632 128.819L387.368 128.927C387.368 127.859 387.368 126.869 387.398 125.993L387.518 126.119C386.192 126.107 385.262 126.041 385.22 125.999Z" fill="white"/>
<path d="M393.722 126.385C393.722 126.385 393.542 126.625 393.164 127.099C392.786 127.573 392.216 128.269 391.52 129.055L391.262 129.343V128.953C391.262 128.491 391.262 128.005 391.262 127.495V127.357L391.31 127.465L390.284 126.469L390.02 126.211H390.386C391.406 126.211 392.276 126.277 392.858 126.313C393.149 126.315 393.44 126.337 393.728 126.379C393.728 126.379 393.32 126.379 392.72 126.433C392.12 126.487 391.316 126.505 390.386 126.505L390.488 126.253L391.526 127.237L391.574 127.279V127.489C391.574 127.999 391.574 128.485 391.574 128.947L391.31 128.845C391.958 128.137 392.546 127.555 392.99 127.111C393.434 126.667 393.692 126.397 393.722 126.385Z" fill="white"/>
<path d="M393.722 126.385C393.758 126.463 393.266 126.745 392.624 127.015C392.256 127.22 391.845 127.337 391.424 127.357C391.388 127.273 391.88 126.991 392.516 126.757C393.152 126.523 393.686 126.301 393.722 126.385Z" fill="white"/>
<path d="M397.868 126.001C397.868 126.001 398.012 125.947 398.282 126.001C398.667 126.079 399.011 126.292 399.254 126.601C399.439 126.832 399.562 127.106 399.611 127.398C399.661 127.69 399.635 127.99 399.536 128.269C399.402 128.602 399.172 128.889 398.874 129.09C398.576 129.292 398.225 129.399 397.865 129.399C397.505 129.399 397.154 129.292 396.856 129.09C396.558 128.889 396.328 128.602 396.194 128.269C396.098 127.988 396.076 127.687 396.13 127.395C396.184 127.103 396.311 126.829 396.5 126.601C396.744 126.29 397.091 126.078 397.478 126.001C397.742 125.959 397.892 126.001 397.892 126.001C397.766 126.043 397.638 126.079 397.508 126.109C397.173 126.214 396.881 126.425 396.674 126.709C396.529 126.913 396.436 127.15 396.403 127.399C396.371 127.648 396.4 127.901 396.488 128.137C396.567 128.333 396.687 128.509 396.84 128.656C396.993 128.802 397.175 128.914 397.374 128.986C397.573 129.057 397.785 129.085 397.995 129.068C398.206 129.052 398.411 128.991 398.597 128.89C398.782 128.788 398.944 128.649 399.072 128.48C399.2 128.312 399.291 128.119 399.339 127.913C399.387 127.707 399.391 127.493 399.35 127.285C399.31 127.078 399.226 126.881 399.104 126.709C398.898 126.426 398.608 126.216 398.276 126.109C398.138 126.082 398.001 126.045 397.868 126.001Z" fill="white"/>
<path d="M398.426 128.351C398.36 128.411 398 128.147 397.616 127.751L397.568 127.703V127.637C397.568 127.085 397.64 126.641 397.724 126.641C397.808 126.641 397.88 127.085 397.88 127.637L397.838 127.529C398.222 127.925 398.486 128.291 398.426 128.351Z" fill="white"/>
<path d="M358.1 128.246C358.1 128.33 346.82 128.402 332.9 128.402C318.98 128.402 307.7 128.33 307.7 128.246C307.7 128.162 318.974 128.09 332.9 128.09C346.826 128.09 358.1 128.156 358.1 128.246Z" fill="white"/>
<path d="M305.36 128.244C305.361 128.638 305.245 129.024 305.027 129.353C304.808 129.681 304.497 129.938 304.133 130.089C303.769 130.241 303.368 130.281 302.981 130.204C302.594 130.127 302.238 129.937 301.959 129.658C301.681 129.379 301.491 129.024 301.414 128.637C301.337 128.25 301.377 127.849 301.529 127.485C301.68 127.121 301.937 126.809 302.265 126.591C302.594 126.373 302.98 126.257 303.374 126.258C303.901 126.258 304.406 126.467 304.778 126.84C305.151 127.212 305.36 127.717 305.36 128.244Z" fill="white"/>
<path d="M353.612 229.292C353.558 229.358 353.09 229.076 352.568 228.692C352.046 228.308 351.662 227.876 351.722 227.804C351.782 227.732 352.244 228.014 352.772 228.434C353.3 228.854 353.672 229.202 353.612 229.292Z" fill="#263238"/>
<path d="M367.874 207.974C367.964 205.982 368.018 203.936 367.388 202.046C366.758 200.156 365.3 198.416 363.35 198.014C361.124 197.552 358.838 198.956 357.59 200.858C356.342 202.76 355.916 205.058 355.544 207.314C353.004 222.799 352.067 238.504 352.748 254.18L361.868 255.458C365.9 239.102 367.148 224.798 367.874 207.974Z" fill="#455A64"/>
<path d="M362.084 197.942C362.084 197.942 362.084 197.99 362.042 198.086L361.892 198.5C361.742 198.884 361.544 199.412 361.292 200.072C361.166 200.42 360.992 200.792 360.86 201.212C360.728 201.632 360.572 202.1 360.416 202.592C360.26 203.084 360.086 203.618 359.906 204.182C359.726 204.746 359.6 205.382 359.432 205.982C358.675 208.946 358.088 211.951 357.674 214.982C357.182 218.408 356.858 222.182 356.6 226.196C356.138 234.182 356.066 241.436 355.856 246.68C355.76 249.302 355.67 251.42 355.568 252.884C355.52 253.598 355.484 254.162 355.454 254.57C355.454 254.75 355.454 254.894 355.418 255.008C355.424 255.058 355.424 255.108 355.418 255.158C355.413 255.108 355.413 255.058 355.418 255.008C355.418 254.888 355.418 254.744 355.418 254.57C355.418 254.17 355.436 253.606 355.472 252.878C355.538 251.414 355.592 249.278 355.658 246.674C355.802 241.43 355.838 234.176 356.306 226.178C356.564 222.182 356.906 218.378 357.404 214.94C357.835 211.892 358.448 208.872 359.24 205.898L359.738 204.098L360.272 202.514C360.44 202.022 360.596 201.56 360.746 201.134C360.896 200.708 361.064 200.342 361.202 200.006L361.868 198.452L362.048 198.05C362.054 198.002 362.078 197.936 362.084 197.942Z" fill="#263238"/>
<path d="M362.93 197.945C363.405 198.505 363.78 199.143 364.04 199.829C364.74 201.712 365.025 203.724 364.874 205.727C364.634 210.767 364.178 217.727 363.584 225.371C362.99 233.015 362.312 239.963 361.784 244.973C361.514 247.481 361.28 249.503 361.112 250.901C361.022 251.579 360.956 252.101 360.902 252.509C360.902 252.677 360.86 252.815 360.842 252.929C360.847 252.977 360.847 253.025 360.842 253.073C360.836 253.024 360.836 252.973 360.842 252.923C360.842 252.809 360.842 252.671 360.842 252.503C360.878 252.107 360.932 251.567 360.992 250.889C361.13 249.455 361.322 247.439 361.592 244.949C362.072 239.939 362.702 233.009 363.302 225.347C363.902 217.685 364.394 210.743 364.694 205.721C364.86 203.744 364.615 201.755 363.974 199.877C363.684 199.204 363.334 198.557 362.93 197.945Z" fill="#263238"/>
<path d="M369.248 221.54C368.65 221.497 368.065 221.346 367.52 221.096C366.94 220.945 366.393 220.688 365.906 220.34C367.083 220.535 368.215 220.942 369.248 221.54Z" fill="#263238"/>
<path d="M370.346 212.25C369.854 212.645 369.298 212.954 368.702 213.162C368.142 213.467 367.533 213.67 366.902 213.762C367.394 213.365 367.95 213.055 368.546 212.844C369.107 212.543 369.716 212.342 370.346 212.25Z" fill="#263238"/>
<path d="M369.776 204.668C368.876 204.819 367.953 204.755 367.082 204.482C367.524 204.354 367.99 204.329 368.444 204.41C368.902 204.39 369.359 204.478 369.776 204.668Z" fill="#263238"/>
<path d="M360.368 199.8C360.296 199.848 359.894 199.35 359.48 198.69C359.188 198.311 358.983 197.873 358.88 197.406C358.958 197.358 359.354 197.856 359.774 198.516C360.194 199.176 360.446 199.758 360.368 199.8Z" fill="#263238"/>
<path d="M357.26 204.393C356.847 204.542 356.405 204.59 355.97 204.531C355.531 204.571 355.088 204.505 354.68 204.339C355.094 204.189 355.539 204.141 355.976 204.201C356.69 204.219 357.266 204.303 357.26 204.393Z" fill="#263238"/>
<path d="M355.028 213.566C354.552 213.545 354.086 213.418 353.666 213.194C352.946 212.906 352.394 212.594 352.424 212.516C352.901 212.535 353.367 212.664 353.786 212.894C354.5 213.182 355.064 213.482 355.028 213.566Z" fill="#263238"/>
<path d="M354.794 221.281C354.794 221.371 354.29 221.557 353.63 221.695C353.244 221.824 352.831 221.855 352.43 221.786C352.43 221.696 352.928 221.515 353.588 221.377C353.976 221.245 354.39 221.212 354.794 221.281Z" fill="#263238"/>
<path d="M353.738 233.904C353.738 233.994 353.204 234.168 352.508 234.288C351.812 234.408 351.236 234.444 351.218 234.354C351.2 234.264 351.758 234.096 352.454 233.97C353.15 233.844 353.726 233.814 353.738 233.904Z" fill="#263238"/>
<path d="M353.042 240.873C353.084 240.951 352.628 241.281 352.016 241.599C351.404 241.917 350.882 242.121 350.816 242.043C350.75 241.965 351.23 241.635 351.842 241.311C352.454 240.987 353 240.795 353.042 240.873Z" fill="#263238"/>
<path d="M358.73 248.781C358.652 248.829 358.256 248.271 357.836 247.545C357.541 247.126 357.337 246.649 357.236 246.147C357.314 246.105 357.716 246.657 358.13 247.383C358.427 247.801 358.632 248.277 358.73 248.781Z" fill="#263238"/>
<path d="M360.374 235.639C360.44 235.705 359.99 236.239 359.378 236.839C358.766 237.439 358.214 237.877 358.178 237.811C358.142 237.745 358.562 237.211 359.174 236.611C359.786 236.011 360.314 235.573 360.374 235.639Z" fill="#263238"/>
<path d="M360.008 228.747C359.942 228.807 359.528 228.465 359.084 227.985C358.64 227.505 358.334 227.067 358.4 227.007C358.466 226.947 358.88 227.283 359.324 227.763C359.768 228.243 360.074 228.687 360.008 228.747Z" fill="#263238"/>
<path d="M361.142 219.932C361.208 219.992 360.836 220.532 360.308 221.132C359.78 221.732 359.3 222.146 359.234 222.086C359.168 222.026 359.54 221.486 360.068 220.886C360.596 220.286 361.1 219.872 361.142 219.932Z" fill="#263238"/>
<path d="M361.772 213.541C361.712 213.601 361.172 213.193 360.614 212.629C360.056 212.065 359.624 211.549 359.684 211.483C359.744 211.417 360.284 211.831 360.842 212.395C361.4 212.959 361.838 213.475 361.772 213.541Z" fill="#263238"/>
<path d="M363.02 204.894C363.098 204.942 362.84 205.494 362.42 206.19C362 206.886 361.64 207.39 361.562 207.318C361.484 207.246 361.742 206.718 362.162 206.022C362.582 205.326 362.948 204.846 363.02 204.894Z" fill="#263238"/>
<path d="M365.372 196.885C365.302 197.351 365.125 197.794 364.856 198.181C364.49 198.853 364.136 199.381 364.052 199.321C364.126 198.856 364.302 198.414 364.568 198.025C364.934 197.353 365.3 196.843 365.372 196.885Z" fill="#263238"/>
<path d="M368.036 200.527C368.072 200.605 367.712 200.863 367.22 201.127C366.728 201.391 366.302 201.481 366.266 201.403C366.23 201.325 366.59 201.067 367.082 200.833C367.574 200.599 367.994 200.443 368.036 200.527Z" fill="#263238"/>
<path d="M368.102 229.293C367.475 229.303 366.856 229.154 366.302 228.861C365.713 228.667 365.182 228.326 364.76 227.871C365.882 228.317 366.992 228.791 368.09 229.293H368.102Z" fill="#263238"/>
<path d="M367.01 235.38C367.01 235.47 366.476 235.65 365.81 235.782C365.144 235.914 364.538 235.956 364.52 235.866C364.502 235.776 365.054 235.596 365.72 235.464C366.137 235.335 366.579 235.306 367.01 235.38Z" fill="#263238"/>
<path d="M365.672 245.828C364.601 245.184 363.8 244.174 363.416 242.984C363.831 243.424 364.207 243.9 364.538 244.406C364.957 244.847 365.336 245.322 365.672 245.828Z" fill="#263238"/>
<path d="M351.02 250.61C350.96 250.538 351.332 250.124 351.842 249.686C352.352 249.248 352.826 248.942 352.886 249.014C352.946 249.086 352.574 249.494 352.058 249.932C351.542 250.37 351.074 250.676 351.02 250.61Z" fill="#263238"/>
<path d="M346.802 227.81C346.202 225.956 345.098 223.796 343.154 223.766C342.576 223.797 342.016 223.983 341.535 224.305C341.053 224.627 340.667 225.073 340.418 225.596C339.885 226.631 339.631 227.786 339.68 228.95C339.927 237.201 341.341 245.376 343.88 253.232H351.002C350.912 244.593 349.495 236.019 346.802 227.81Z" fill="#455A64"/>
<path d="M333.932 216.146C332.936 212.162 329.966 210.014 326.522 209.816C323.372 210.368 322.154 213.464 321.782 216.638C321.41 219.812 322.382 222.968 323.366 226.01C326.486 235.778 329.608 245.546 332.732 255.314L341.588 254.348C338.786 241.262 337.178 229.13 333.932 216.146Z" fill="#455A64"/>
<path d="M343.154 223.766C342.927 224.085 342.726 224.422 342.554 224.774C342.192 225.78 342.079 226.858 342.224 227.918C342.362 229.274 342.512 230.918 342.74 232.688C342.968 234.458 343.298 236.438 343.694 238.478C344.498 242.57 345.41 246.242 345.98 248.912C346.274 250.25 346.496 251.312 346.634 252.086C346.694 252.434 346.742 252.722 346.784 252.956C346.799 253.057 346.799 253.16 346.784 253.262C346.784 253.262 346.736 253.166 346.688 252.968C346.64 252.77 346.562 252.458 346.478 252.116C346.292 251.324 346.034 250.256 345.728 248.966C345.128 246.308 344.156 242.648 343.328 238.544C342.926 236.492 342.614 234.524 342.398 232.724C342.284 231.824 342.206 230.972 342.134 230.168C342.062 229.364 341.984 228.626 341.942 227.936C341.817 226.843 341.972 225.736 342.392 224.72C342.573 224.349 342.833 224.024 343.154 223.766Z" fill="#263238"/>
<path d="M326.648 209.562C326.257 210.013 325.9 210.493 325.58 210.997C324.762 212.411 324.299 214.002 324.23 215.635C324.191 218.055 324.562 220.465 325.328 222.762C326.102 225.396 326.96 228.289 327.854 231.325C329.618 237.397 331.22 242.887 332.384 246.925L333.722 251.653C333.866 252.193 333.986 252.618 334.07 252.948C334.12 253.097 334.154 253.249 334.172 253.405C334.105 253.264 334.051 253.117 334.01 252.966C333.908 252.642 333.77 252.223 333.602 251.689L332.162 246.991C330.962 242.977 329.342 237.493 327.542 231.439L325.04 222.865C324.277 220.533 323.926 218.086 324.002 215.635C324.091 213.974 324.597 212.363 325.472 210.948C325.783 210.423 326.181 209.955 326.648 209.562Z" fill="#263238"/>
<path d="M339.656 253.398C339.578 253.264 339.512 253.124 339.458 252.978C339.344 252.69 339.152 252.282 338.954 251.73C338.534 250.644 337.988 249.042 337.43 247.026C336.872 245.01 336.314 242.592 335.78 239.886C335.246 237.18 334.7 234.198 334.1 231.078C333.5 227.958 332.798 225.012 332.006 222.378C331.317 220.042 330.452 217.762 329.42 215.556C328.72 214.069 327.918 212.631 327.02 211.254C326.72 210.756 326.42 210.396 326.276 210.138C326.181 210.014 326.099 209.882 326.03 209.742C326.139 209.854 326.24 209.975 326.33 210.102C326.51 210.348 326.804 210.702 327.128 211.182C328.068 212.539 328.901 213.967 329.618 215.454C330.693 217.657 331.59 219.942 332.3 222.288C333.161 225.153 333.872 228.061 334.43 231C335.03 234.126 335.57 237.102 336.074 239.814C336.578 242.526 337.124 244.944 337.652 246.954C338.18 248.964 338.69 250.554 339.074 251.676C339.254 252.228 339.422 252.648 339.518 252.942C339.58 253.089 339.626 253.242 339.656 253.398Z" fill="#263238"/>
<path d="M323.522 224.545C323.522 224.635 323.06 224.827 322.448 224.977C321.836 225.127 321.314 225.175 321.296 225.085C321.278 224.995 321.752 224.809 322.37 224.659C322.988 224.509 323.504 224.461 323.522 224.545Z" fill="#263238"/>
<path d="M322.586 218.502C322.101 218.639 321.596 218.694 321.092 218.664C320.591 218.735 320.081 218.719 319.586 218.616C320.054 218.403 320.567 218.306 321.08 218.334C321.588 218.263 322.106 218.321 322.586 218.502Z" fill="#263238"/>
<path d="M323.582 213.001C323.522 213.067 323.042 212.755 322.508 212.299C321.974 211.843 321.584 211.423 321.644 211.357C321.704 211.291 322.184 211.597 322.718 212.053C323.252 212.509 323.642 212.911 323.582 213.001Z" fill="#263238"/>
<path d="M326.3 207.872C326.39 207.872 326.366 208.322 326.354 208.844C326.342 209.366 326.354 209.798 326.246 209.81C326.138 209.822 326.012 209.39 326.03 208.832C326.048 208.274 326.198 207.854 326.3 207.872Z" fill="#263238"/>
<path d="M331.802 210.278C331.88 210.332 331.664 210.77 331.322 211.256C330.98 211.742 330.644 212.096 330.572 212.042C330.5 211.988 330.716 211.556 331.052 211.07C331.388 210.584 331.73 210.23 331.802 210.278Z" fill="#263238"/>
<path d="M335.384 216.507C335.42 216.591 334.964 216.855 334.364 217.107C333.764 217.359 333.248 217.479 333.212 217.395C333.176 217.311 333.638 217.047 334.238 216.795C334.838 216.543 335.354 216.423 335.384 216.507Z" fill="#263238"/>
<path d="M337.562 222.906C336.702 223.493 335.651 223.731 334.622 223.572C335.092 223.386 335.584 223.261 336.086 223.2C336.563 223.038 337.059 222.939 337.562 222.906Z" fill="#263238"/>
<path d="M327.584 221.091C327.494 221.061 327.584 220.623 327.722 220.101C327.86 219.579 328.082 219.183 328.172 219.213C328.262 219.243 328.172 219.681 328.028 220.197C327.884 220.713 327.668 221.115 327.584 221.091Z" fill="#263238"/>
<path d="M328.976 229.127C329.004 228.659 329.139 228.203 329.372 227.795C329.678 227.093 329.972 226.559 330.074 226.595C330.045 227.063 329.908 227.517 329.672 227.921C329.366 228.599 329.054 229.163 328.976 229.127Z" fill="#263238"/>
<path d="M325.532 231.326C325.094 231.322 324.661 231.228 324.26 231.05C323.582 230.834 323.03 230.642 323.06 230.552C323.09 230.462 323.66 230.522 324.362 230.738C325.064 230.954 325.568 231.248 325.532 231.326Z" fill="#263238"/>
<path d="M327.5 237.884C327.554 237.956 327.17 238.316 326.654 238.688C326.138 239.06 325.67 239.288 325.616 239.228C325.562 239.168 325.94 238.796 326.462 238.424C326.984 238.052 327.464 237.812 327.5 237.884Z" fill="#263238"/>
<path d="M329.108 244.419C329.108 244.509 328.658 244.695 328.058 244.839C327.458 244.983 326.954 245.037 326.936 244.947C326.918 244.857 327.38 244.671 327.98 244.527C328.58 244.383 329.084 244.329 329.108 244.419Z" fill="#263238"/>
<path d="M337.736 228.368C337.778 228.44 337.376 228.764 336.794 228.968C336.212 229.172 335.696 229.214 335.684 229.13C335.672 229.046 336.122 228.872 336.68 228.662C337.238 228.452 337.7 228.29 337.736 228.368Z" fill="#263238"/>
<path d="M338.966 238.531C338.93 238.615 338.45 238.471 337.898 238.207C337.346 237.943 336.932 237.673 336.968 237.607C337.004 237.541 337.484 237.667 338.036 237.925C338.588 238.183 339.008 238.453 338.966 238.531Z" fill="#263238"/>
<path d="M341.144 245.808C340.652 245.785 340.171 245.656 339.734 245.43C338.99 245.136 338.408 244.83 338.444 244.746C338.935 244.771 339.416 244.9 339.854 245.124C340.328 245.256 340.768 245.49 341.144 245.808Z" fill="#263238"/>
<path d="M329.456 251.511C329.414 251.427 329.99 251.037 330.656 250.509C331.322 249.981 331.856 249.507 331.916 249.573C331.976 249.639 331.556 250.215 330.86 250.773C330.469 251.143 329.983 251.398 329.456 251.511Z" fill="#263238"/>
<path d="M335.21 247.803C335.114 247.803 334.988 247.323 334.766 246.759C334.544 246.195 334.316 245.739 334.388 245.685C334.46 245.631 334.838 246.027 335.072 246.639C335.306 247.251 335.3 247.803 335.21 247.803Z" fill="#263238"/>
<path d="M333.68 239.061C333.632 239.133 333.26 238.953 332.852 238.665C332.444 238.377 332.162 238.065 332.216 238.005C332.27 237.945 332.636 238.107 333.044 238.401C333.452 238.695 333.734 238.989 333.68 239.061Z" fill="#263238"/>
<path d="M347.09 225.345C347.144 225.423 346.784 225.777 346.286 226.149C345.788 226.521 345.338 226.749 345.284 226.683C345.23 226.617 345.59 226.251 346.088 225.885C346.586 225.519 347.036 225.273 347.09 225.345Z" fill="#263238"/>
<path d="M349.1 230.869C349.1 230.959 348.542 231.079 347.84 231.001C347.138 230.923 346.64 230.689 346.64 230.605C346.64 230.521 347.24 230.605 347.876 230.677C348.512 230.749 349.1 230.779 349.1 230.869Z" fill="#263238"/>
<path d="M340.424 232.112C340.424 232.196 339.92 232.382 339.224 232.43C338.528 232.478 338.024 232.358 338.024 232.268C338.024 232.178 338.564 232.148 339.224 232.106C339.884 232.064 340.406 232.022 340.424 232.112Z" fill="#263238"/>
<path d="M341.174 226.883C341.174 226.973 340.634 226.985 340.058 226.715C339.482 226.445 339.14 226.037 339.2 225.977C339.26 225.917 339.662 226.181 340.19 226.421C340.718 226.661 341.186 226.799 341.174 226.883Z" fill="#263238"/>
<path d="M349.856 236.803C349.808 236.875 349.256 236.623 348.656 236.233C348.056 235.843 347.57 235.459 347.618 235.387C347.666 235.315 348.218 235.561 348.818 235.957C349.418 236.353 349.904 236.725 349.856 236.803Z" fill="#263238"/>
<path d="M371.054 252.309H324.71V260.523H371.054V252.309Z" fill="#106FA4"/>
<path d="M328.172 258.891L333.806 283.437H361.43L367.592 258.891H328.172Z" fill="#106FA4"/>
<path d="M371.03 260.525C371.03 260.615 360.578 260.693 347.684 260.693C334.79 260.693 324.332 260.615 324.332 260.525C324.332 260.435 334.784 260.363 347.684 260.363C360.584 260.363 371.03 260.441 371.03 260.525Z" fill="#263238"/>
<path d="M345.254 232.293C345.176 232.341 344.864 231.969 344.546 231.465C344.228 230.961 344.042 230.517 344.114 230.469C344.186 230.421 344.51 230.793 344.822 231.291C345.134 231.789 345.332 232.245 345.254 232.293Z" fill="#263238"/>
<path d="M345.272 238.897C345.248 238.468 345.331 238.039 345.512 237.649C345.734 236.989 345.98 236.479 346.064 236.509C346.148 236.539 346.064 237.109 345.824 237.751C345.584 238.393 345.356 238.927 345.272 238.897Z" fill="#263238"/>
<path d="M347.534 245.839C347.45 245.875 347.108 245.323 346.76 244.597C346.501 244.177 346.337 243.706 346.28 243.217C346.364 243.181 346.706 243.733 347.054 244.459C347.316 244.876 347.48 245.348 347.534 245.839Z" fill="#263238"/>
<path d="M342.638 251.399C342.572 251.339 342.848 250.907 343.238 250.439C343.628 249.971 344.036 249.635 344.102 249.689C344.168 249.743 343.892 250.181 343.502 250.649C343.112 251.117 342.71 251.477 342.638 251.399Z" fill="#263238"/>
<path d="M341.612 241.286C341.612 241.37 341.15 241.37 340.616 241.286C340.082 241.202 339.662 241.046 339.674 240.956C339.686 240.866 340.136 240.872 340.67 240.956C341.204 241.04 341.63 241.202 341.612 241.286Z" fill="#263238"/>
<path d="M239.546 116.857L207.746 105.457C209.828 130.261 211.85 155.683 205.256 179.683C204.542 182.281 203.912 185.533 205.976 187.261C207.212 188.293 208.976 188.329 210.59 188.281C213.886 188.181 217.176 187.939 220.46 187.555C223.952 187.153 227.66 186.469 230.162 183.985C232.244 181.897 233.084 178.909 233.762 176.047C238.513 156.696 240.461 136.762 239.546 116.857Z" fill="#263238"/>
<path d="M187.484 219.24L191.252 214.302L193.772 201.102L199.508 168.972C199.508 168.972 202.034 156.888 209.828 153.426L211.478 185.526L195.578 225.864L187.484 219.24Z" fill="#106FA4"/>
<path d="M221.66 144.69L216.974 150.234L209.828 153.414C209.828 153.414 194.096 183.462 193.7 183.744C193.304 184.026 190.754 192.594 192.158 199.896C193.562 207.198 194.558 216.75 194.402 223.626C194.246 230.502 185.252 253.122 184.7 258.318C184.148 263.514 182.3 283.596 182.3 283.596L261.788 282.996C261.067 277.948 260.082 272.941 258.836 267.996C258.836 267.996 258.554 248.052 255.608 244.26C255.608 244.26 257.852 239.064 257.576 236.118C257.3 233.172 269.372 217.44 271.76 211.962C274.148 206.484 283.556 193.962 283.694 184.998C283.832 176.034 282.428 168.426 277.934 162.246C273.44 156.066 265.298 151.854 261.926 149.61L255.326 141.18L221.66 144.69Z" fill="#106FA4"/>
<path d="M193.322 283.597C193.314 283.517 193.314 283.437 193.322 283.357C193.322 283.183 193.322 282.949 193.322 282.649C193.322 282.013 193.388 281.107 193.436 279.943C193.538 277.579 193.676 274.183 193.85 269.995C193.922 267.895 194 265.591 194.03 263.119C194.03 261.919 194.03 260.611 194.03 259.297C194.005 257.93 194.14 256.565 194.432 255.229C195.107 252.393 195.975 249.607 197.03 246.889C197.571 245.456 198.029 243.994 198.404 242.509C198.553 241.744 198.655 240.971 198.71 240.193L198.944 237.793C199.268 234.601 199.58 231.487 199.88 228.475C200.036 226.969 200.18 225.475 200.33 224.041C200.48 222.607 200.66 221.179 200.702 219.793C201.038 214.89 201.706 210.014 202.7 205.201C203.51 201.073 204.254 197.749 204.734 195.445C204.974 194.311 205.16 193.423 205.286 192.799L205.436 192.109C205.45 192.03 205.47 191.951 205.496 191.875C205.493 191.956 205.483 192.036 205.466 192.115C205.436 192.289 205.4 192.517 205.352 192.811C205.232 193.411 205.064 194.329 204.854 195.475C204.41 197.785 203.702 201.109 202.916 205.243C201.952 210.067 201.306 214.95 200.984 219.859C200.948 221.251 200.75 222.661 200.618 224.113C200.486 225.565 200.33 227.041 200.18 228.547L199.25 237.871L199.016 240.271C198.958 241.061 198.851 241.846 198.698 242.623C198.324 244.121 197.862 245.596 197.312 247.039C196.257 249.743 195.387 252.515 194.708 255.337C194.419 256.649 194.28 257.99 194.294 259.333C194.336 260.659 194.33 261.937 194.294 263.173C194.252 265.645 194.162 267.973 194.078 270.049C193.898 274.249 193.706 277.651 193.568 279.997C193.49 281.161 193.43 282.067 193.388 282.703C193.364 282.999 193.346 283.233 193.334 283.405C193.333 283.469 193.329 283.533 193.322 283.597Z" fill="#263238"/>
<path d="M205.7 191.592C205.7 190.95 208.52 180.06 214.412 170.958C220.304 161.856 221.612 153.912 221.612 153.912L221.708 142.164L222.212 143.676L252.092 139.344L252.998 143.664L233 161.73C233 161.73 223.76 163.53 223.4 163.782C223.04 164.034 205.7 191.592 205.7 191.592Z" fill="#EFBDA8"/>
<path d="M261.926 149.621C261.851 149.767 261.763 149.906 261.662 150.035C261.482 150.305 261.212 150.701 260.858 151.199C260.15 152.201 259.094 153.629 257.756 155.369C256.418 157.109 254.792 159.155 253.04 161.465C252.164 162.623 251.24 163.865 250.34 165.125C250.114 165.463 249.863 165.784 249.59 166.085C249.292 166.416 248.885 166.629 248.444 166.685C248 166.688 247.565 166.563 247.19 166.325C246.818 166.109 246.482 165.881 246.128 165.653L242.012 163.013C241.346 162.587 240.698 162.155 240.056 161.765C239.475 161.345 238.769 161.133 238.052 161.165C237.377 161.289 236.745 161.585 236.216 162.023C235.676 162.431 235.142 162.845 234.584 163.187C233.551 163.821 232.426 164.288 231.248 164.573C229.548 164.999 227.775 165.04 226.058 164.693C225.789 164.644 225.522 164.58 225.26 164.501C225.032 164.435 224.84 164.381 224.66 164.321C224.501 164.274 224.349 164.209 224.204 164.129C224.365 164.163 224.523 164.207 224.678 164.261C224.834 164.309 225.026 164.357 225.278 164.411C225.541 164.478 225.807 164.533 226.076 164.573C227.775 164.873 229.519 164.801 231.188 164.363C232.337 164.067 233.434 163.595 234.44 162.965C234.98 162.629 235.496 162.221 236.048 161.801C236.61 161.327 237.286 161.008 238.01 160.877C238.788 160.828 239.561 161.039 240.206 161.477C240.86 161.879 241.502 162.299 242.174 162.725L246.29 165.359C246.992 165.785 247.67 166.379 248.414 166.343C248.781 166.297 249.118 166.117 249.362 165.839C249.626 165.549 249.869 165.241 250.088 164.915C251.006 163.637 251.924 162.413 252.806 161.261C254.57 158.957 256.22 156.929 257.606 155.207C258.992 153.485 260.042 152.075 260.78 151.097L261.638 149.969C261.727 149.847 261.823 149.731 261.926 149.621Z" fill="#263238"/>
<path d="M216.974 183.9C217.093 183.602 217.242 183.316 217.418 183.048C217.718 182.514 218.18 181.746 218.762 180.81C219.962 178.938 221.63 176.4 223.664 173.712C225.698 171.024 227.672 168.702 229.16 167.07C229.904 166.254 230.516 165.606 230.96 165.168C231.173 164.928 231.406 164.708 231.656 164.508C231.478 164.771 231.278 165.018 231.056 165.246C230.618 165.756 230.036 166.416 229.34 167.214C227.906 168.882 225.956 171.222 223.94 173.904C221.924 176.586 220.19 179.094 218.978 180.93C218.378 181.818 217.916 182.55 217.55 183.114C217.38 183.391 217.187 183.654 216.974 183.9Z" fill="#263238"/>
<path d="M219.554 186.204H219.668L220.01 186.276L221.336 186.558C222.5 186.81 224.204 187.158 226.376 187.62C227.462 187.836 228.668 188.07 229.976 188.298C230.636 188.412 231.32 188.508 232.034 188.616C232.748 188.724 233.486 188.904 234.236 189.102C235.736 189.486 237.308 189.99 238.946 190.56C239.768 190.848 240.602 191.16 241.454 191.49C241.88 191.658 242.306 191.826 242.738 192.012L243.38 192.294L243.704 192.45L243.872 192.54L243.956 192.594L243.998 192.63C244.038 192.667 244.065 192.715 244.076 192.768V192.804L237.812 212.808C237.467 213.453 237.066 214.065 236.612 214.638C236.159 215.245 235.626 215.788 235.028 216.252C234.806 216.421 234.559 216.555 234.296 216.648L233.552 216.9L232.076 217.398L229.184 218.4L223.556 220.29L223.472 220.32L223.406 220.26L217.52 214.806L216.128 213.51C215.657 213.095 215.208 212.654 214.784 212.19C214.367 211.711 214.093 211.125 213.992 210.498C213.913 209.9 213.925 209.293 214.028 208.698C214.832 204.102 215.738 200.076 216.56 196.734C217.382 193.392 218.138 190.734 218.672 188.934L219.308 186.864L219.482 186.336C219.499 186.274 219.523 186.213 219.554 186.156C219.554 186.156 219.554 186.222 219.512 186.342C219.47 186.462 219.422 186.654 219.362 186.882L218.762 188.958C218.258 190.758 217.532 193.416 216.734 196.758C215.936 200.1 215.054 204.132 214.28 208.71C214.181 209.279 214.169 209.86 214.244 210.432C214.338 211.011 214.596 211.55 214.988 211.986C215.402 212.44 215.841 212.871 216.302 213.276L217.7 214.62L223.592 220.062H223.442L229.064 218.16L231.98 217.176L233.456 216.678L234.2 216.426C234.431 216.342 234.647 216.222 234.842 216.072C235.416 215.623 235.928 215.101 236.366 214.518C236.799 213.952 237.182 213.35 237.512 212.718L243.818 192.726L243.932 192.768C240.763 191.405 237.508 190.25 234.188 189.312C233.444 189.114 232.712 188.946 232.01 188.82C231.308 188.694 230.606 188.604 229.946 188.484C228.632 188.25 227.426 188.004 226.346 187.776C224.174 187.314 222.476 186.918 221.318 186.642L219.998 186.318L219.662 186.228C219.59 186.222 219.548 186.21 219.554 186.204Z" fill="#263238"/>
<g opacity="0.3">
<path d="M220.208 255.496C213.26 254.446 203.606 251.548 195.686 249.892C192.86 249.292 190.412 248.62 187.586 248.032L187.1 249.598C195.125 251.33 202.89 254.099 210.2 257.836C214.592 260.086 218.948 262.714 223.832 263.428C229.298 264.232 234.788 262.552 240.032 260.89C243.032 259.948 246.122 258.922 248.24 256.642C249.734 255.028 250.586 252.94 251.372 250.888C253.44 245.46 255.25 239.94 256.802 234.328C247.37 244.924 234.23 257.62 220.208 255.496Z" fill="black"/>
</g>
<path d="M252.968 187.117L233 223.837C233 223.837 228.368 224.767 228.368 229.669C228.368 229.669 226.754 228.379 224.408 229.777C222.902 230.671 218.66 231.865 216.314 233.119C215.753 233.417 215.31 233.898 215.059 234.481C214.808 235.065 214.764 235.717 214.934 236.329L221.132 258.847C221.132 258.847 228.662 258.847 229.328 256.981L239.654 253.747C239.654 253.747 246.32 252.001 248.9 247.549C251.48 243.097 266.852 220.201 266.852 220.201" fill="#106FA4"/>
<path d="M266.852 220.201C266.852 220.201 266.81 220.285 266.714 220.435C266.618 220.585 266.468 220.807 266.288 221.095L264.608 223.645L258.32 233.149C256.982 235.189 255.506 237.433 253.916 239.869C252.326 242.305 250.616 244.921 248.9 247.759C247.962 249.217 246.71 250.447 245.234 251.359C243.711 252.337 242.07 253.117 240.35 253.681L229.376 257.125L229.472 257.029C229.309 257.378 229.031 257.661 228.686 257.833C228.365 258.003 228.027 258.14 227.678 258.241C226.984 258.449 226.273 258.6 225.554 258.691C224.088 258.889 222.611 258.993 221.132 259.003H221.012V258.889L217.514 246.181C216.882 243.897 216.26 241.635 215.648 239.395C215.348 238.267 215.048 237.187 214.748 236.047C214.654 235.451 214.745 234.841 215.008 234.299C215.271 233.756 215.693 233.307 216.218 233.011C218.228 232.072 220.287 231.243 222.386 230.527C222.89 230.329 223.388 230.131 223.868 229.927C224.338 229.66 224.825 229.426 225.326 229.225C225.844 229.032 226.4 228.964 226.949 229.026C227.498 229.087 228.025 229.277 228.488 229.579L228.248 229.693C228.222 228.277 228.698 226.897 229.592 225.799C230.484 224.765 231.678 224.039 233.006 223.723L232.91 223.795C238.874 212.875 243.884 203.707 247.4 197.257L251.51 189.781C251.99 188.923 252.356 188.269 252.608 187.807L252.896 187.309C252.926 187.25 252.96 187.194 252.998 187.141C252.998 187.141 252.998 187.201 252.914 187.315L252.644 187.831C252.404 188.293 252.044 188.959 251.588 189.823C250.646 191.569 249.278 194.113 247.55 197.335L233.15 223.927V223.981H233.084C231.82 224.288 230.683 224.982 229.832 225.967C228.983 227.013 228.534 228.328 228.566 229.675V229.957L228.332 229.789C227.908 229.518 227.427 229.35 226.927 229.298C226.428 229.246 225.922 229.311 225.452 229.489C224.963 229.687 224.488 229.917 224.03 230.179C223.538 230.413 223.034 230.617 222.524 230.815C220.439 231.526 218.393 232.352 216.398 233.287C215.929 233.552 215.551 233.955 215.316 234.44C215.082 234.926 215.001 235.472 215.084 236.005C215.342 237.079 215.684 238.207 215.978 239.317C216.59 241.553 217.212 243.817 217.844 246.109C219.044 250.459 220.214 254.725 221.336 258.811L221.192 258.697C222.657 258.691 224.12 258.591 225.572 258.397C226.276 258.304 226.972 258.158 227.654 257.959C227.981 257.864 228.296 257.735 228.596 257.575C228.879 257.439 229.109 257.213 229.25 256.933L229.28 256.867H229.346L240.32 253.447C242.01 252.891 243.623 252.123 245.12 251.161C246.564 250.273 247.794 249.076 248.72 247.657C250.448 244.819 252.17 242.209 253.76 239.773L258.2 233.071L264.5 223.561L266.216 221.035L266.666 220.387C266.792 220.243 266.852 220.201 266.852 220.201Z" fill="#263238"/>
<path d="M256.046 235.519C255.991 235.407 255.952 235.288 255.932 235.165C255.86 234.901 255.776 234.565 255.668 234.145C255.434 233.209 255.122 231.931 254.732 230.359C253.946 227.173 252.836 222.769 251.528 217.927C250.22 213.085 248.96 208.723 248.03 205.567L246.932 201.829L246.638 200.815C246.598 200.697 246.571 200.574 246.56 200.449C246.619 200.559 246.666 200.676 246.698 200.797L247.046 201.793C247.34 202.669 247.748 203.935 248.246 205.501C249.23 208.639 250.52 213.001 251.846 217.843C253.172 222.685 254.246 227.107 254.966 230.311C255.332 231.913 255.62 233.215 255.806 234.115L256.01 235.153C256.03 235.274 256.042 235.397 256.046 235.519Z" fill="white"/>
<path d="M248.762 246.996C248.678 246.996 247.01 238.314 245.042 227.574C243.074 216.834 241.538 208.104 241.622 208.086C241.706 208.068 243.374 216.768 245.348 227.514C247.322 238.26 248.846 246.984 248.762 246.996Z" fill="white"/>
<path d="M215.9 196.033C215.948 196.105 213.02 198.181 209.366 200.671C205.712 203.161 202.7 205.117 202.652 205.045C202.604 204.973 205.532 202.897 209.186 200.413C212.84 197.929 215.852 195.961 215.9 196.033Z" fill="white"/>
<path d="M213.956 203.867C213.831 204.036 213.686 204.19 213.524 204.323C213.23 204.605 212.804 204.995 212.264 205.469C211.184 206.423 209.672 207.707 207.95 209.069C206.228 210.431 204.638 211.625 203.468 212.459C202.868 212.879 202.406 213.209 202.07 213.431C201.901 213.555 201.72 213.661 201.53 213.749C201.667 213.59 201.824 213.448 201.998 213.329L203.336 212.279C204.476 211.403 206.042 210.191 207.758 208.823C209.474 207.455 211.01 206.207 212.12 205.295L213.446 204.227C213.6 204.085 213.771 203.964 213.956 203.867Z" fill="white"/>
<path d="M200.9 204.718C200.828 204.772 198.74 202.03 196.238 198.604C193.736 195.178 191.756 192.352 191.828 192.298C191.9 192.244 193.982 194.986 196.49 198.418C198.998 201.85 200.978 204.67 200.9 204.718Z" fill="white"/>
<path d="M199.862 215.238C199.472 214.974 199.115 214.664 198.8 214.314C198.2 213.714 197.348 212.838 196.49 211.824C195.632 210.81 194.912 209.85 194.42 209.13C194.129 208.761 193.885 208.358 193.694 207.93C194.033 208.253 194.337 208.611 194.6 208.998C195.134 209.682 195.878 210.612 196.73 211.62C197.582 212.628 198.38 213.522 198.956 214.164C199.293 214.491 199.596 214.851 199.862 215.238Z" fill="white"/>
<path d="M254.432 158.917C253.916 158.621 253.423 158.288 252.956 157.921L249.5 155.401C248.15 154.411 246.944 153.499 246.086 152.815C245.601 152.468 245.151 152.077 244.742 151.645C245.26 151.933 245.754 152.265 246.218 152.635L249.686 155.149C251.036 156.139 252.248 157.051 253.106 157.735C253.587 158.083 254.031 158.479 254.432 158.917Z" fill="white"/>
<path d="M257.168 155.124C255.661 154.077 254.215 152.945 252.836 151.734C251.39 150.599 250.008 149.385 248.696 148.098C250.207 149.145 251.655 150.279 253.034 151.494C254.48 152.624 255.86 153.836 257.168 155.124Z" fill="white"/>
<path d="M228.338 193.2C228.422 193.2 227.354 199.2 225.938 206.514C224.522 213.828 223.322 219.78 223.238 219.768C223.154 219.756 224.228 213.768 225.638 206.454C227.048 199.14 228.254 193.152 228.338 193.2Z" fill="white"/>
<path d="M243.53 237.85C243.348 237.79 243.175 237.707 243.014 237.604C242.684 237.43 242.228 237.154 241.67 236.794C240.234 235.837 238.896 234.742 237.674 233.524C236.453 232.305 235.358 230.966 234.404 229.528C234.044 228.976 233.768 228.52 233.594 228.19C233.489 228.029 233.408 227.853 233.354 227.668C233.396 227.668 233.822 228.34 234.59 229.402C235.586 230.79 236.692 232.096 237.896 233.308C239.109 234.509 240.413 235.614 241.796 236.614C242.864 237.376 243.56 237.802 243.53 237.85Z" fill="#263238"/>
<path d="M244.19 226.333C243.637 226.504 243.064 226.607 242.486 226.639C239.697 226.926 236.879 226.628 234.212 225.763C233.652 225.612 233.114 225.39 232.61 225.103C232.61 225.061 233.252 225.277 234.278 225.553C235.607 225.918 236.964 226.175 238.334 226.321C239.707 226.463 241.089 226.497 242.468 226.423C243.04 226.359 243.615 226.329 244.19 226.333Z" fill="#263238"/>
<path d="M201.284 169.289C201.277 169.339 201.263 169.387 201.242 169.433L201.08 169.841C200.948 170.201 200.72 170.723 200.414 171.383C199.814 172.709 198.776 174.557 197.444 176.783C195.82 179.36 194.438 182.081 193.316 184.913L193.1 185.513L192.92 186.113C192.806 186.533 192.686 186.965 192.572 187.397C192.444 187.831 192.35 188.274 192.29 188.723C192.218 189.173 192.14 189.629 192.062 190.091C191.954 191.015 191.894 191.963 191.84 192.923C191.84 193.403 191.84 193.889 191.84 194.381C191.84 194.873 191.84 195.359 191.882 195.851C192.173 199.595 192.69 203.318 193.43 206.999C194.017 210.001 194.43 213.034 194.666 216.083C194.786 217.379 194.726 218.567 194.744 219.605C194.66 220.637 194.612 221.531 194.522 222.257C194.432 222.983 194.3 223.511 194.228 223.913L194.144 224.339C194.136 224.389 194.122 224.437 194.102 224.483C194.096 224.433 194.096 224.383 194.102 224.333C194.102 224.221 194.12 224.077 194.156 223.901C194.21 223.499 194.288 222.941 194.39 222.245C194.492 221.549 194.492 220.631 194.558 219.599C194.522 218.567 194.558 217.391 194.432 216.095C194.163 213.06 193.73 210.042 193.136 207.053C192.382 203.383 191.857 199.67 191.564 195.935C191.522 195.437 191.516 194.945 191.522 194.447C191.528 193.949 191.522 193.469 191.522 192.977C191.582 192.011 191.642 191.051 191.75 190.115C191.834 189.653 191.912 189.191 191.99 188.735C192.05 188.281 192.144 187.831 192.272 187.391C192.398 186.953 192.518 186.521 192.638 186.095L192.818 185.459C192.89 185.249 192.968 185.045 193.04 184.859C194.177 182.017 195.583 179.291 197.24 176.717C198.59 174.491 199.64 172.667 200.288 171.359C200.606 170.705 200.852 170.201 201.008 169.847C201.08 169.685 201.14 169.559 201.194 169.451C201.214 169.392 201.244 169.337 201.284 169.289Z" fill="#263238"/>
<path d="M221.66 144.688L221.582 144.814L221.342 145.162C221.132 145.474 220.79 145.912 220.34 146.464C219.434 147.574 218.06 149.122 216.326 151.024C215.468 151.984 214.526 153.028 213.506 154.156C212.486 155.284 211.43 156.52 210.416 157.9C208.343 161.019 207.014 164.572 206.534 168.286L206.24 168.202C206.724 167.284 207.288 166.411 207.926 165.592C208.25 165.154 208.574 164.716 208.874 164.272C209.024 164.05 209.174 163.828 209.306 163.6L209.504 163.258L209.6 163.084L209.642 162.994V162.952L209.678 162.898C209.697 162.875 209.723 162.857 209.751 162.847C209.779 162.836 209.81 162.833 209.84 162.838C209.868 162.843 209.894 162.854 209.917 162.871C209.94 162.888 209.959 162.909 209.972 162.934V162.97V163.018L210.008 163.114L210.08 163.306C210.134 163.43 210.176 163.559 210.206 163.69C210.285 163.949 210.343 164.214 210.38 164.482C210.465 165.006 210.499 165.536 210.482 166.066C210.341 168.055 210.012 170.026 209.498 171.952C208.796 175.696 207.512 178.9 206.75 181.654C206.08 183.814 205.707 186.054 205.64 188.314C205.632 188.927 205.66 189.54 205.724 190.15C205.724 190.342 205.766 190.504 205.778 190.624C205.787 190.68 205.787 190.737 205.778 190.792C205.595 189.979 205.504 189.148 205.508 188.314C205.529 186.037 205.875 183.774 206.534 181.594C207.272 178.816 208.526 175.594 209.21 171.892C209.711 169.982 210.032 168.03 210.17 166.06C210.184 165.548 210.15 165.036 210.068 164.53C210.032 164.274 209.976 164.021 209.9 163.774C209.874 163.649 209.836 163.526 209.786 163.408L209.714 163.228L209.684 163.138V163.09C209.732 163.09 209.564 163.132 209.798 163.03C209.696 162.976 209.942 163.096 209.912 163.09V163.132L209.9 163.198L209.804 163.384L209.6 163.738C209.456 163.972 209.312 164.2 209.156 164.422C208.85 164.872 208.526 165.31 208.202 165.754C207.577 166.554 207.023 167.407 206.546 168.304L206.102 169.24L206.252 168.22C206.739 164.457 208.097 160.86 210.218 157.714C211.244 156.322 212.33 155.104 213.344 153.97C214.358 152.836 215.324 151.804 216.2 150.856C217.952 148.972 219.35 147.448 220.274 146.368C220.736 145.822 221.09 145.402 221.318 145.102L221.582 144.772C221.618 144.718 221.654 144.682 221.66 144.688Z" fill="#263238"/>
<path d="M222.902 230.32C222.981 230.379 223.051 230.447 223.112 230.524L223.67 231.154C223.968 231.481 224.247 231.826 224.504 232.186C224.81 232.606 225.188 233.068 225.53 233.62C225.872 234.172 226.28 234.772 226.64 235.45C227 236.128 227.378 236.854 227.756 237.634C228.523 239.348 229.142 241.125 229.604 242.944C230.035 244.772 230.31 246.632 230.426 248.506C230.426 249.37 230.492 250.192 230.426 250.96C230.415 251.674 230.367 252.387 230.282 253.096C230.24 253.75 230.12 254.332 230.042 254.842C229.979 255.281 229.891 255.716 229.778 256.144L229.574 256.96C229.558 257.058 229.528 257.153 229.484 257.242C229.479 257.143 229.489 257.044 229.514 256.948C229.556 256.72 229.604 256.45 229.658 256.12C229.712 255.79 229.814 255.328 229.868 254.812C229.922 254.296 230.036 253.726 230.066 253.072C230.096 252.418 230.174 251.722 230.168 250.954C230.162 250.186 230.168 249.382 230.12 248.524C229.989 246.671 229.708 244.831 229.28 243.022C228.826 241.22 228.224 239.458 227.48 237.754C227.114 236.98 226.784 236.236 226.4 235.576C226.016 234.916 225.68 234.292 225.332 233.746C224.984 233.2 224.642 232.714 224.354 232.294C224.066 231.874 223.79 231.514 223.562 231.232L223.052 230.566C222.993 230.49 222.942 230.408 222.902 230.32Z" fill="#263238"/>
<path d="M241.952 197.64C241.641 197.566 241.338 197.464 241.046 197.334L238.604 196.44C236.534 195.69 233.654 194.736 230.414 193.878C227.174 193.02 224.192 192.414 222.014 192.036L219.446 191.604C219.128 191.568 218.813 191.508 218.504 191.424C218.825 191.415 219.147 191.435 219.464 191.484C220.064 191.544 220.958 191.658 222.05 191.82C224.879 192.254 227.683 192.839 230.45 193.572C233.245 194.311 235.999 195.199 238.7 196.23C239.726 196.632 240.548 196.968 241.1 197.226C241.395 197.339 241.68 197.478 241.952 197.64Z" fill="#263238"/>
<g opacity="0.3">
<path d="M238.7 239.958C238.26 239.146 237.689 238.414 237.008 237.792L228.392 229.02V229.668C230.306 230.97 230.714 233.61 231.266 235.86C231.818 238.11 232.298 240.516 233.864 242.226C234.483 242.945 235.33 243.431 236.264 243.6C236.727 243.679 237.202 243.627 237.637 243.45C238.072 243.273 238.448 242.978 238.724 242.598C238.939 242.19 239.049 241.735 239.045 241.275C239.041 240.814 238.922 240.361 238.7 239.958Z" fill="black"/>
</g>
<g opacity="0.3">
<path d="M226.862 219.148C225.944 219.58 224.922 219.741 223.916 219.61C223.064 219.332 222.298 218.841 221.69 218.182L214.52 211.648C216.572 214.648 218.216 217.72 220.268 220.738C220.82 221.554 221.432 222.412 222.356 222.748C223.28 223.084 224.396 222.79 225.356 222.424C228.805 221.098 231.925 219.038 234.5 216.388L226.862 219.148Z" fill="black"/>
</g>
<g opacity="0.3">
<path d="M217.856 182.094C224.558 178.884 226.97 169.968 233.624 166.65C235.541 165.722 237.672 165.323 239.795 165.494C241.918 165.665 243.958 166.399 245.702 167.622C246.854 168.45 248.132 169.554 249.5 169.164C250.532 168.87 251.126 167.82 251.612 166.866C253.276 163.61 254.94 160.35 256.604 157.086L250.058 164.802C249.64 165.405 249.047 165.865 248.36 166.122C247.04 166.464 246.086 164.982 244.868 164.376C241.076 162.486 238.412 160.104 236.3 161.7C236.3 161.7 232.61 164.238 231.134 164.508L217.856 181.842" fill="black"/>
</g>
<g opacity="0.3">
<path d="M206.444 188.622C205.892 185.67 206.552 182.406 207.77 179.664C208.988 176.922 210.518 174.264 211.268 171.372C211.868 169.045 211.952 166.614 211.514 164.25C211.304 163.146 210.986 162.024 211.226 160.926C211.412 160.231 211.716 159.574 212.126 158.982C213.642 156.555 215.395 154.284 217.358 152.202L221.558 145.902C221.558 145.902 221.738 153.222 221.6 153.912C221.153 156.081 220.551 158.214 219.8 160.296C218.565 163.696 216.972 166.954 215.048 170.016C212.783 173.541 210.811 177.246 209.15 181.092L206.444 188.622Z" fill="black"/>
</g>
<path d="M233 161.731C224.498 159.727 221.888 155.497 221.786 148.021L221.66 138.505C221.66 138.505 212.246 138.019 210.05 123.997C208.958 117.025 208.01 105.757 208.622 96.3969C209.168 87.9969 217.904 73.1649 226.274 74.0709L249.278 85.2609C250.505 85.3943 251.637 85.9828 252.452 86.9103C253.266 87.8379 253.703 89.037 253.676 90.2709L251.876 144.613" fill="#EFBDA8"/>
<path d="M212.216 106.723C212.216 107.188 212.395 107.635 212.717 107.971C213.04 108.307 213.479 108.504 213.944 108.523C214.173 108.542 214.403 108.514 214.621 108.443C214.839 108.371 215.041 108.256 215.213 108.105C215.386 107.954 215.527 107.77 215.628 107.563C215.728 107.357 215.786 107.132 215.798 106.903C215.798 106.439 215.619 105.992 215.299 105.657C214.978 105.322 214.54 105.123 214.076 105.103C213.847 105.085 213.617 105.113 213.399 105.185C213.181 105.257 212.979 105.372 212.806 105.523C212.633 105.673 212.491 105.857 212.39 106.063C212.289 106.269 212.23 106.494 212.216 106.723Z" fill="#263238"/>
<path d="M211.1 102.853C211.292 103.021 212.708 102.853 214.586 103.291C216.464 103.729 217.748 104.587 217.97 104.491C218.084 104.491 217.898 104.191 217.34 103.813C216.515 103.289 215.609 102.908 214.658 102.685C213.744 102.447 212.794 102.38 211.856 102.487C211.238 102.601 211.004 102.769 211.1 102.853Z" fill="#263238"/>
<path d="M230.216 107.262C230.216 107.728 230.396 108.176 230.72 108.512C231.043 108.848 231.484 109.045 231.95 109.062C232.179 109.08 232.409 109.052 232.626 108.98C232.844 108.908 233.045 108.793 233.218 108.642C233.39 108.491 233.531 108.307 233.632 108.101C233.733 107.895 233.791 107.671 233.804 107.442C233.804 106.977 233.625 106.53 233.302 106.194C232.98 105.858 232.541 105.661 232.076 105.642C231.847 105.624 231.617 105.652 231.399 105.724C231.181 105.796 230.979 105.911 230.806 106.062C230.633 106.212 230.491 106.396 230.39 106.602C230.289 106.809 230.23 107.033 230.216 107.262Z" fill="#263238"/>
<path d="M230.144 104.357C230.426 104.423 231.668 103.475 233.696 102.935C235.724 102.395 237.398 102.545 237.572 102.335C237.662 102.245 237.344 102.071 236.612 101.987C235.55 101.9 234.481 102.003 233.456 102.293C232.457 102.54 231.515 102.981 230.684 103.589C230.144 104.027 230.012 104.327 230.144 104.357Z" fill="#263238"/>
<path d="M223.046 117.096C223.046 116.988 221.846 116.778 219.902 116.526C219.41 116.472 218.942 116.376 218.858 116.034C218.82 115.525 218.937 115.016 219.194 114.576C219.662 113.376 220.148 112.128 220.664 110.814C222.704 105.468 224.18 101.07 223.964 100.986C223.748 100.902 221.918 105.186 219.878 110.526L218.474 114.306C218.159 114.9 218.065 115.587 218.21 116.244C218.278 116.423 218.387 116.585 218.527 116.716C218.667 116.847 218.836 116.944 219.02 117C219.294 117.074 219.576 117.112 219.86 117.114C221.822 117.198 223.034 117.21 223.046 117.096Z" fill="#263238"/>
<path d="M221.66 138.642C228.257 138.758 234.756 137.04 240.434 133.68C240.434 133.68 235.7 143.556 221.66 142.2V138.642Z" fill="#D1967C"/>
<path d="M223.352 121.8C224.312 120.366 225.752 119.4 227.072 119.346C227.514 119.304 227.957 119.396 228.346 119.61C228.734 119.824 229.049 120.15 229.25 120.546C229.46 121.068 229.541 121.632 229.487 122.192C229.432 122.752 229.244 123.29 228.938 123.762C228.642 124.258 228.206 124.657 227.686 124.908C227.166 125.16 226.583 125.254 226.01 125.178C225.071 124.902 224.236 124.352 223.61 123.6C223.394 123.411 223.226 123.175 223.118 122.91C223.067 122.74 223.055 122.561 223.082 122.385C223.109 122.21 223.175 122.043 223.274 121.896" fill="#D1967C"/>
<path d="M228.734 118.446C228.416 118.446 228.41 120.528 226.61 122.046C224.81 123.564 222.578 123.294 222.56 123.588C222.53 123.72 223.058 123.996 224 124.026C225.23 124.042 226.427 123.628 227.384 122.856C228.302 122.108 228.891 121.031 229.028 119.856C229.1 118.956 228.878 118.434 228.734 118.446Z" fill="#263238"/>
<path d="M228.572 95.9022C228.812 96.4062 230.708 95.9682 232.994 96.0162C235.28 96.0642 237.164 96.5022 237.422 96.0162C237.53 95.7762 237.164 95.3142 236.378 94.8822C235.335 94.3578 234.186 94.0777 233.019 94.0631C231.851 94.0485 230.696 94.2999 229.64 94.7982C228.842 95.2062 228.464 95.6562 228.572 95.9022Z" fill="#263238"/>
<path d="M210.5 98.5907C210.926 99.0287 212.582 98.5907 214.568 98.5427C216.554 98.4947 218.246 98.8307 218.636 98.3747C218.804 98.1467 218.534 97.7087 217.802 97.2947C216.778 96.7762 215.637 96.5303 214.49 96.5807C213.351 96.5884 212.234 96.8946 211.25 97.4687C210.554 97.9247 210.32 98.3987 210.5 98.5907Z" fill="#263238"/>
<path d="M273.806 148.711C270.752 143.773 268.256 131.467 267.206 125.233C266.156 118.999 262.838 98.9954 257.522 88.4834C252.206 77.9714 245.948 73.7234 239.81 72.0674C237.482 71.3749 235.014 71.2937 232.646 71.8318C230.277 72.3698 228.087 73.509 226.286 75.1394C223.514 77.6174 222.566 84.8414 222.566 84.8414C222.566 84.8414 237.38 88.1354 242.366 96.5834C248.096 106.285 249.488 111.163 249.488 111.163L251.342 116.473C251.342 116.473 249.602 126.745 248.942 131.827C248.282 136.909 249.32 141.619 253.502 143.677L261.902 149.623C261.902 149.623 272.894 157.093 273.398 157.477C275.744 159.277 280.346 166.099 280.346 166.099C280.346 166.099 280.052 158.809 273.806 148.711Z" fill="#263238"/>
<path d="M222.14 84.9313C222.14 84.9313 213.668 84.0013 210.536 93.6013C209.126 97.9273 208.04 110.401 208.04 110.401C208.04 110.401 206.804 100.477 207.26 94.8013C207.716 89.1253 210.542 81.9733 214.886 78.0013C219.086 74.1433 222.686 72.3313 230.216 72.7933C230.216 72.7933 226.7 73.9933 224.768 76.8673C223.802 78.3253 223.382 79.5433 222.14 84.9313Z" fill="#263238"/>
<path d="M249.38 111.898C249.53 108.796 252.908 106.732 255.596 108.298C257.072 109.156 258.206 110.872 258.068 114.16C257.708 122.944 248.966 120.76 248.96 120.514C248.96 120.34 249.194 115.534 249.38 111.898Z" fill="#EFBDA8"/>
<path d="M251.78 117.281C251.822 117.281 251.93 117.395 252.182 117.527C252.539 117.697 252.948 117.721 253.322 117.593C254.264 117.293 255.122 115.853 255.218 114.275C255.27 113.523 255.153 112.769 254.876 112.067C254.803 111.794 254.665 111.542 254.474 111.333C254.282 111.124 254.044 110.965 253.778 110.867C253.603 110.813 253.415 110.821 253.246 110.892C253.077 110.962 252.939 111.089 252.854 111.251C252.728 111.491 252.776 111.665 252.728 111.683C252.68 111.701 252.548 111.527 252.632 111.167C252.689 110.951 252.818 110.761 252.998 110.627C253.25 110.459 253.557 110.393 253.856 110.441C254.213 110.529 254.542 110.706 254.812 110.956C255.082 111.206 255.283 111.52 255.398 111.869C255.74 112.644 255.886 113.491 255.824 114.335C255.698 116.105 254.726 117.725 253.424 118.037C253.186 118.096 252.938 118.101 252.698 118.051C252.458 118.002 252.233 117.898 252.038 117.749C251.786 117.497 251.75 117.299 251.78 117.281Z" fill="#D1967C"/>
<path d="M236.3 71.5135C236.3 71.5795 235.1 71.5135 233.186 71.7955C232.074 71.9465 230.993 72.2704 229.982 72.7555C228.758 73.374 227.666 74.2236 226.766 75.2575C225.094 77.1287 223.876 79.3606 223.208 81.7795C222.698 83.6395 222.638 84.8455 222.572 84.8395C222.555 84.5572 222.566 84.2739 222.602 83.9935C222.677 83.2291 222.808 82.4712 222.992 81.7255C223.612 79.2469 224.827 76.9568 226.532 75.0535C228.2 73.0859 230.566 71.8408 233.132 71.5795C233.897 71.4943 234.666 71.4562 235.436 71.4655C235.725 71.4521 236.014 71.4682 236.3 71.5135Z" fill="#455A64"/>
<path d="M257.504 118.247C257.496 118.199 257.496 118.151 257.504 118.103L257.576 117.695C257.612 117.509 257.66 117.287 257.708 117.029C257.756 116.771 257.792 116.429 257.84 116.117C258.091 114.167 258.065 112.192 257.762 110.249C257.321 107.37 256.288 104.614 254.726 102.155C252.734 99.1927 250.099 96.7191 247.016 94.9191C245.438 93.9603 243.801 93.1026 242.114 92.3511C240.488 91.6011 238.856 91.0191 237.314 90.3351C234.67 89.0976 232.124 87.6594 229.7 86.0331C227.618 84.6531 225.998 83.4411 224.9 82.5831C224.354 82.1511 223.928 81.8151 223.652 81.5751L223.334 81.3051C223.262 81.2391 223.226 81.2091 223.232 81.2031L223.352 81.2811L223.688 81.5271L224.978 82.4871C226.1 83.3151 227.738 84.4971 229.826 85.8471C232.267 87.4362 234.825 88.8401 237.476 90.0471C238.97 90.7191 240.614 91.3011 242.276 92.0451C243.975 92.8005 245.624 93.6622 247.214 94.6251C250.34 96.4491 253.008 98.9631 255.014 101.975C256.585 104.472 257.607 107.274 258.014 110.195C258.306 112.154 258.306 114.146 258.014 116.105L257.852 117.023C257.792 117.275 257.738 117.497 257.696 117.683L257.588 118.091C257.528 118.199 257.51 118.253 257.504 118.247Z" fill="#455A64"/>
<path d="M259.538 114.937C259.534 114.889 259.534 114.84 259.538 114.793C259.538 114.679 259.538 114.541 259.538 114.373C259.538 114.001 259.58 113.461 259.538 112.759C259.491 107.845 258.366 103.001 256.244 98.5686C254.691 95.3392 252.62 92.3861 250.112 89.8266C247.556 87.3125 244.665 85.1641 241.52 83.4426C238.652 81.7986 235.946 80.5326 233.72 79.4346C231.494 78.3366 229.646 77.4486 228.404 76.7886C227.804 76.4706 227.312 76.1886 226.988 76.0206L226.622 75.8106C226.578 75.788 226.538 75.7597 226.502 75.7266C226.502 75.7266 226.55 75.7266 226.64 75.7806L227.018 75.9606L228.458 76.6806C229.712 77.2806 231.548 78.1746 233.816 79.2306C236.084 80.2866 238.796 81.5586 241.688 83.1906C244.864 84.9124 247.782 87.0715 250.358 89.6046C252.886 92.1922 254.972 95.178 256.532 98.4426C257.785 101.115 258.684 103.938 259.208 106.843C259.553 108.797 259.712 110.78 259.682 112.765C259.682 113.467 259.616 114.013 259.598 114.379C259.598 114.547 259.568 114.685 259.562 114.799C259.56 114.845 259.552 114.892 259.538 114.937Z" fill="#455A64"/>
<path d="M259.28 147.75C259.225 147.668 259.181 147.579 259.148 147.486L258.818 146.706C258.674 146.364 258.506 145.944 258.35 145.446C258.194 144.948 257.984 144.384 257.828 143.742C257.744 143.418 257.654 143.088 257.564 142.74C257.474 142.392 257.408 142.02 257.324 141.642C257.144 140.88 257.036 140.058 256.892 139.2C256.647 137.321 256.505 135.43 256.466 133.536C256.437 130.099 256.608 126.663 256.976 123.246C257.114 121.938 257.234 120.882 257.33 120.15C257.378 119.814 257.414 119.55 257.444 119.31C257.454 119.21 257.475 119.111 257.504 119.016C257.518 119.115 257.518 119.216 257.504 119.316L257.444 120.162C257.378 120.942 257.294 121.962 257.192 123.27C256.988 125.892 256.706 129.522 256.772 133.53C256.809 135.411 256.943 137.29 257.174 139.158C257.306 140.016 257.408 140.838 257.57 141.558C257.648 141.936 257.708 142.302 257.792 142.656L258.038 143.652C258.176 144.294 258.368 144.852 258.512 145.362C258.656 145.872 258.8 146.286 258.926 146.634C259.052 146.982 259.124 147.234 259.202 147.432C259.247 147.532 259.274 147.64 259.28 147.75Z" fill="#455A64"/>
<path d="M148.208 228.348C148.208 228.348 157.748 240.588 161.168 241.548C164.588 242.508 177.542 245.718 177.542 245.718L220.052 255.54L215.048 237.318L174.788 236.772L148.208 228.348Z" fill="#EFBDA8"/>
<path d="M93.548 166.021C96.734 173.923 112.79 210.073 116.51 218.443C116.752 218.988 117.107 219.475 117.552 219.873C117.997 220.27 118.521 220.568 119.09 220.747L169.622 236.791L219.758 240.535V238.885L179.228 226.603L166.424 225.103L147.308 177.703C146.877 176.634 146.183 175.692 145.29 174.964C144.398 174.236 143.335 173.746 142.202 173.539L94.55 164.803C94.392 164.775 94.2295 164.79 94.079 164.845C93.9286 164.901 93.7957 164.996 93.6938 165.119C93.5919 165.243 93.5247 165.392 93.4991 165.55C93.4734 165.709 93.4903 165.871 93.548 166.021Z" fill="#455A64"/>
<path d="M219.758 238.882H219.596L219.134 238.846L217.334 238.684L210.764 238.024L201.026 236.998L189.092 235.798C184.856 235.378 180.818 235.06 177.14 234.85L171.914 234.526C171.511 234.501 171.11 234.449 170.714 234.37C170.506 234.333 170.305 234.268 170.114 234.178C169.92 234.083 169.761 233.93 169.658 233.74C169.344 233.073 169.067 232.387 168.83 231.688C167.852 229.102 167.03 226.996 166.496 225.514C166.232 224.8 166.028 224.236 165.896 223.828L165.74 223.384C165.72 223.336 165.706 223.286 165.698 223.234C165.698 223.234 165.698 223.276 165.77 223.378L165.95 223.804C166.118 224.206 166.34 224.764 166.628 225.472L169.058 231.616C169.295 232.297 169.569 232.964 169.88 233.614C169.962 233.764 170.087 233.886 170.24 233.962C170.409 234.036 170.586 234.09 170.768 234.124C171.164 234.199 171.565 234.245 171.968 234.262C173.6 234.34 175.358 234.46 177.194 234.568C180.878 234.76 184.928 235.066 189.164 235.486L201.098 236.686L210.836 237.772L217.4 238.528L219.2 238.75L219.662 238.81L219.758 238.882Z" fill="#263238"/>
<path d="M193.85 229.199C193.85 229.199 194.576 224.435 193.85 223.493C193.124 222.551 188.018 217.961 188.018 217.961L185.12 215.237L178.73 214.259C178.352 214.201 177.966 214.255 177.619 214.415C177.273 214.575 176.981 214.834 176.78 215.159L176.126 216.209L174.392 215.921L172.862 213.707H168.602L165.452 217.109V221.705C165.452 221.705 165.878 222.983 166.988 222.047C168.098 221.111 168.188 218.519 168.188 218.519L170.078 220.259L168.068 226.391C168.068 226.391 169.478 227.675 170.504 226.391C171.53 225.107 172.97 223.241 172.97 223.241C172.97 223.241 174.674 227.837 177.566 229.199C180.458 230.561 187.442 231.803 188.894 231.479C190.346 231.155 193.574 231.749 193.85 229.199Z" fill="#EFBDA8"/>
<path d="M183.74 218.749C183.74 218.749 183.74 218.821 183.626 218.923C183.486 219.068 183.313 219.177 183.122 219.241C182.823 219.343 182.508 219.388 182.192 219.373C181.826 219.373 181.424 219.283 180.992 219.241C180.533 219.161 180.061 219.235 179.648 219.451C179.222 219.798 178.844 220.202 178.526 220.651C178.107 221.17 177.59 221.6 177.004 221.919C176.418 222.237 175.775 222.436 175.112 222.505C174.563 222.545 174.013 222.445 173.514 222.213C173.015 221.981 172.584 221.625 172.262 221.179L172.196 221.083L172.28 220.999C173.4 219.819 174.433 218.56 175.37 217.231C176.06 216.241 176.432 215.635 176.468 215.653C176.416 215.816 176.341 215.972 176.246 216.115C176.09 216.403 175.85 216.823 175.52 217.315C174.637 218.691 173.633 219.986 172.52 221.185V220.999C172.815 221.402 173.208 221.723 173.661 221.933C174.115 222.143 174.614 222.234 175.112 222.199C176.367 222.062 177.519 221.44 178.322 220.465C178.664 220 179.068 219.584 179.522 219.229C179.988 218.991 180.521 218.917 181.034 219.019C181.484 219.079 181.88 219.175 182.234 219.199C182.53 219.225 182.828 219.2 183.116 219.127C183.348 219.045 183.56 218.916 183.74 218.749Z" fill="#D1967C"/>
<path d="M188.756 228.948C188.72 228.948 188.684 228.678 188.492 228.228C188.213 227.594 187.841 227.006 187.388 226.482C186.836 225.798 186.074 225.054 185.384 224.082C185.016 223.566 184.747 222.986 184.592 222.372C184.431 221.704 184.441 221.006 184.622 220.344C184.8 219.687 185.113 219.074 185.54 218.544C185.743 218.273 186.005 218.053 186.308 217.902C186.465 217.83 186.637 217.796 186.809 217.801C186.982 217.806 187.151 217.851 187.304 217.932C187.81 218.246 188.174 218.745 188.318 219.324C188.469 219.782 188.67 220.223 188.918 220.638C189.27 221.232 189.73 221.755 190.274 222.18C190.658 222.486 190.904 222.618 190.874 222.642C190.626 222.559 190.393 222.438 190.184 222.282C189.594 221.876 189.092 221.356 188.708 220.752C188.457 220.33 188.256 219.881 188.108 219.414C187.97 218.914 187.649 218.486 187.208 218.214C187.091 218.156 186.963 218.126 186.833 218.126C186.703 218.126 186.575 218.156 186.458 218.214C186.201 218.348 185.979 218.541 185.81 218.778C185.414 219.28 185.124 219.858 184.958 220.476C184.786 221.09 184.771 221.738 184.916 222.36C185.064 222.937 185.314 223.484 185.654 223.974C186.308 224.928 187.052 225.69 187.592 226.404C188.04 226.955 188.393 227.578 188.636 228.246C188.7 228.428 188.744 228.617 188.768 228.81C188.772 228.902 188.768 228.948 188.756 228.948Z" fill="#D1967C"/>
<path d="M172.52 217.201C172.175 217.204 171.844 217.339 171.596 217.579C171.064 218.246 170.676 219.016 170.456 219.841C170.108 220.801 169.808 221.677 169.562 222.301C169.456 222.652 169.292 222.982 169.076 223.279C169.126 222.919 169.218 222.566 169.352 222.229C169.544 221.587 169.814 220.699 170.162 219.733C170.395 218.866 170.838 218.07 171.452 217.417C171.665 217.225 171.94 217.117 172.226 217.111C172.43 217.087 172.526 217.153 172.52 217.201Z" fill="#D1967C"/>
<path d="M172.976 217.09C172.976 217.126 172.712 217.18 172.274 217.126C171.684 217.042 171.129 216.795 170.672 216.412H170.9L170.51 216.754C169.802 217.421 169.026 218.012 168.194 218.518C168.824 217.775 169.532 217.104 170.306 216.514L170.702 216.178L170.804 216.094L170.9 216.178C171.318 216.535 171.813 216.792 172.346 216.928C172.56 216.964 172.771 217.018 172.976 217.09Z" fill="#D1967C"/>
<path d="M179.738 228.065C179.83 227.68 179.984 227.313 180.194 226.979C180.643 226.143 181.186 225.362 181.814 224.651C182.441 223.937 183.145 223.295 183.914 222.737C184.219 222.482 184.563 222.279 184.934 222.137C183.925 222.987 182.961 223.89 182.048 224.843C181.218 225.873 180.447 226.948 179.738 228.065Z" fill="#D1967C"/>
<path d="M143.714 174.293C143.749 174.34 143.776 174.393 143.792 174.449L143.996 174.917L144.74 176.717L147.416 183.377C149.66 189.029 152.738 196.805 156.146 205.391C159.554 213.977 162.572 221.783 164.786 227.441C165.872 230.255 166.754 232.535 167.378 234.137L168.062 235.937C168.134 236.135 168.188 236.291 168.236 236.417C168.259 236.471 168.275 236.527 168.284 236.585C168.253 236.535 168.227 236.483 168.206 236.429C168.154 236.309 168.088 236.153 168.008 235.961C167.828 235.529 167.576 234.923 167.264 234.161L164.582 227.501C162.344 221.849 159.26 214.073 155.852 205.481C152.444 196.889 149.432 189.095 147.212 183.437L144.626 176.741C144.332 175.961 144.104 175.349 143.936 174.911L143.762 174.437C143.744 174.39 143.728 174.342 143.714 174.293Z" fill="#263238"/>
<path d="M132.889 201.54C134.18 200.606 134.195 198.421 132.921 196.659C131.648 194.897 129.568 194.227 128.276 195.161C126.985 196.094 126.97 198.28 128.244 200.041C129.518 201.803 131.597 202.474 132.889 201.54Z" fill="white"/>
<path d="M418.808 283.597C418.808 283.681 332.24 283.753 225.476 283.753C118.712 283.753 32.126 283.681 32.126 283.597C32.126 283.513 118.7 283.441 225.5 283.441C332.3 283.441 418.808 283.507 418.808 283.597Z" fill="#263238"/>
<path d="M172.79 74.4531H54.794C52.1861 74.4531 50.072 76.5672 50.072 79.1751V148.715C50.072 151.323 52.1861 153.437 54.794 153.437H172.79C175.398 153.437 177.512 151.323 177.512 148.715V79.1751C177.512 76.5672 175.398 74.4531 172.79 74.4531Z" fill="#263238"/>
<path d="M113.792 124.729C119.154 124.729 123.5 120.382 123.5 115.02C123.5 109.659 119.154 105.312 113.792 105.312C108.43 105.312 104.084 109.659 104.084 115.02C104.084 120.382 108.43 124.729 113.792 124.729Z" fill="#106FA4"/>
<path d="M111.452 117.857V112.127C111.452 112.063 111.469 112 111.501 111.945C111.533 111.89 111.579 111.844 111.634 111.811C111.689 111.779 111.752 111.762 111.816 111.762C111.879 111.761 111.942 111.778 111.998 111.809L117.116 114.695C117.172 114.727 117.219 114.773 117.251 114.829C117.284 114.885 117.301 114.948 117.301 115.013C117.301 115.078 117.284 115.141 117.251 115.197C117.219 115.253 117.172 115.299 117.116 115.331L111.998 118.199C111.941 118.232 111.875 118.248 111.809 118.247C111.743 118.245 111.679 118.226 111.623 118.191C111.567 118.156 111.522 118.106 111.491 118.048C111.461 117.989 111.448 117.923 111.452 117.857Z" fill="white"/>
<path d="M57.356 144.358V144.598H56.396V144.436L56.918 143.944C56.961 143.913 56.9963 143.873 57.0213 143.826C57.0462 143.779 57.0602 143.727 57.062 143.674C57.062 143.554 56.984 143.488 56.822 143.488C56.7643 143.485 56.7067 143.496 56.6537 143.519C56.6006 143.541 56.5535 143.576 56.516 143.62L56.348 143.494C56.4076 143.422 56.4831 143.365 56.5685 143.328C56.6539 143.29 56.7469 143.273 56.84 143.278C57.128 143.278 57.308 143.416 57.308 143.65C57.3062 143.73 57.2857 143.809 57.2482 143.88C57.2107 143.95 57.1572 144.012 57.092 144.058L56.744 144.388L57.356 144.358Z" fill="white"/>
<path d="M57.5 143.718C57.4992 143.698 57.5025 143.678 57.5096 143.659C57.5168 143.64 57.5277 143.623 57.5418 143.609C57.5558 143.594 57.5726 143.582 57.5912 143.574C57.6098 143.567 57.6298 143.562 57.65 143.563C57.6914 143.563 57.731 143.579 57.7603 143.608C57.7896 143.637 57.806 143.677 57.806 143.718C57.806 143.76 57.7896 143.8 57.7603 143.829C57.731 143.858 57.6914 143.874 57.65 143.874C57.6298 143.875 57.6098 143.87 57.5912 143.863C57.5726 143.855 57.5558 143.843 57.5418 143.828C57.5277 143.814 57.5168 143.797 57.5096 143.778C57.5025 143.759 57.4992 143.739 57.5 143.718ZM57.5 144.427C57.4992 144.406 57.5025 144.386 57.5096 144.367C57.5168 144.348 57.5277 144.331 57.5418 144.317C57.5558 144.302 57.5726 144.29 57.5912 144.282C57.6098 144.275 57.6298 144.27 57.65 144.27C57.6914 144.27 57.731 144.287 57.7603 144.316C57.7896 144.345 57.806 144.385 57.806 144.427C57.806 144.468 57.7896 144.508 57.7603 144.537C57.731 144.566 57.6914 144.582 57.65 144.582C57.6298 144.583 57.6098 144.578 57.5912 144.571C57.5726 144.563 57.5558 144.551 57.5418 144.536C57.5277 144.522 57.5168 144.505 57.5096 144.486C57.5025 144.467 57.4992 144.447 57.5 144.427Z" fill="white"/>
<path d="M58.4 143.266V144.598H58.154V143.5H57.884V143.296L58.4 143.266Z" fill="white"/>
<path d="M59.816 144.268H59.588V144.568H59.354V144.268H58.64V144.1L59.3 143.266H59.558L58.958 144.064H59.384V143.806H59.612V144.064H59.84L59.816 144.268Z" fill="white"/>
<path d="M160.64 143.754H61.94V144.204H160.64V143.754Z" fill="white"/>
<path d="M92.714 143.266H61.868V144.466H92.714V143.266Z" fill="#106FA4"/>
<path d="M93.704 144C93.704 144.297 93.6161 144.587 93.4512 144.833C93.2864 145.08 93.0522 145.272 92.7781 145.386C92.504 145.499 92.2024 145.529 91.9114 145.471C91.6204 145.413 91.3532 145.27 91.1434 145.061C90.9336 144.851 90.7907 144.584 90.7329 144.293C90.675 144.002 90.7047 143.7 90.8182 143.426C90.9318 143.152 91.124 142.918 91.3707 142.753C91.6174 142.588 91.9074 142.5 92.204 142.5C92.6019 142.5 92.9834 142.658 93.2647 142.939C93.546 143.221 93.704 143.602 93.704 144Z" fill="#106FA4"/>
<path d="M163.1 143.963C163.099 144.022 163.085 144.081 163.06 144.135C163.035 144.189 162.999 144.237 162.955 144.276C162.91 144.316 162.858 144.346 162.801 144.364C162.745 144.382 162.685 144.389 162.626 144.383C162.272 144.383 162.062 144.155 162.062 143.735C162.048 143.645 162.055 143.554 162.081 143.467C162.108 143.38 162.154 143.301 162.216 143.234C162.277 143.168 162.354 143.116 162.438 143.084C162.523 143.051 162.614 143.038 162.704 143.045C162.822 143.042 162.938 143.071 163.04 143.129L162.956 143.309C162.879 143.267 162.792 143.246 162.704 143.249C162.464 143.249 162.308 143.399 162.308 143.693C162.353 143.646 162.407 143.61 162.467 143.586C162.527 143.562 162.592 143.552 162.656 143.555C162.713 143.549 162.77 143.555 162.824 143.573C162.878 143.591 162.928 143.62 162.97 143.659C163.012 143.697 163.045 143.744 163.068 143.797C163.09 143.849 163.101 143.906 163.1 143.963ZM162.866 143.963C162.866 143.825 162.764 143.741 162.608 143.741C162.576 143.738 162.544 143.741 162.513 143.75C162.482 143.76 162.454 143.775 162.429 143.796C162.404 143.817 162.384 143.842 162.37 143.871C162.355 143.9 162.346 143.931 162.344 143.963C162.344 144.083 162.44 144.179 162.614 144.179C162.644 144.187 162.675 144.188 162.706 144.184C162.737 144.179 162.766 144.167 162.792 144.15C162.818 144.133 162.84 144.111 162.857 144.085C162.874 144.059 162.885 144.03 162.89 143.999L162.866 143.963Z" fill="white"/>
<path d="M163.244 143.513C163.243 143.493 163.246 143.474 163.254 143.455C163.261 143.436 163.272 143.42 163.286 143.405C163.3 143.391 163.317 143.38 163.336 143.373C163.354 143.366 163.374 143.363 163.394 143.363C163.414 143.363 163.434 143.366 163.453 143.373C163.472 143.38 163.489 143.391 163.504 143.405C163.519 143.419 163.53 143.436 163.538 143.455C163.546 143.473 163.55 143.493 163.55 143.513C163.55 143.555 163.534 143.594 163.504 143.624C163.475 143.653 163.435 143.669 163.394 143.669C163.374 143.669 163.354 143.665 163.335 143.657C163.317 143.65 163.3 143.638 163.286 143.623C163.272 143.609 163.261 143.592 163.254 143.573C163.247 143.554 163.243 143.534 163.244 143.513ZM163.244 144.221C163.243 144.201 163.246 144.182 163.254 144.163C163.261 144.144 163.272 144.128 163.286 144.113C163.3 144.099 163.317 144.088 163.336 144.081C163.354 144.074 163.374 144.071 163.394 144.071C163.414 144.071 163.434 144.074 163.453 144.081C163.472 144.088 163.489 144.099 163.504 144.113C163.519 144.127 163.53 144.144 163.538 144.163C163.546 144.181 163.55 144.201 163.55 144.221C163.55 144.263 163.534 144.302 163.504 144.332C163.475 144.361 163.435 144.377 163.394 144.377C163.374 144.377 163.354 144.373 163.335 144.365C163.317 144.358 163.3 144.346 163.286 144.331C163.272 144.317 163.261 144.3 163.254 144.281C163.247 144.262 163.243 144.242 163.244 144.221Z" fill="white"/>
<path d="M163.7 143.719C163.7 143.287 163.934 143.047 164.24 143.047C164.546 143.047 164.786 143.287 164.786 143.719C164.786 144.151 164.552 144.385 164.24 144.385C163.928 144.385 163.7 144.145 163.7 143.719ZM164.54 143.719C164.54 143.401 164.42 143.257 164.24 143.257C164.06 143.257 163.94 143.401 163.94 143.719C163.94 144.037 164.066 144.175 164.24 144.175C164.414 144.175 164.546 144.031 164.546 143.719H164.54Z" fill="white"/>
<path d="M164.954 143.719C164.954 143.287 165.188 143.047 165.494 143.047C165.8 143.047 166.04 143.287 166.04 143.719C166.04 144.151 165.806 144.385 165.494 144.385C165.182 144.385 164.954 144.145 164.954 143.719ZM165.8 143.719C165.8 143.401 165.674 143.257 165.494 143.257C165.314 143.257 165.194 143.401 165.194 143.719C165.194 144.037 165.32 144.175 165.494 144.175C165.668 144.175 165.8 144.031 165.8 143.719Z" fill="white"/>
<path d="M168.14 143.632H167.69V142.336H168.986V142.786H168.14V143.632Z" fill="white"/>
<path d="M168.986 145.325H167.69V144.035H168.14V144.875H168.986V145.325Z" fill="white"/>
<path d="M171.056 145.327H169.76V144.877H170.606V144.031H171.056V145.327Z" fill="white"/>
<path d="M171.056 143.632H170.606V142.786H169.76V142.336H171.056V143.632Z" fill="white"/>
<path d="M154.262 82.126C154.489 82.0818 154.721 82.0617 154.952 82.066C155.414 82.066 156.104 82.018 156.944 82H157.1V82.126C157.1 83.134 157.1 84.286 157.13 85.54V85.918L156.86 85.648L156.5 85.288L155.588 84.376H155.798L154.376 85.636L154.142 85.84V85.534C154.142 84.484 154.184 83.608 154.208 83.02C154.203 82.7184 154.227 82.417 154.28 82.12C154.28 82.12 154.316 82.504 154.346 83.104C154.376 83.704 154.4 84.544 154.412 85.504L154.184 85.402L155.588 84.118L155.696 84.022L155.798 84.124L156.716 85.036L157.07 85.39L156.806 85.504C156.806 84.25 156.806 83.104 156.806 82.09L156.932 82.216C156.146 82.216 155.492 82.174 155.018 82.15C154.766 82.1597 154.513 82.1517 154.262 82.126Z" fill="white"/>
<path d="M164.132 82.5529C163.924 82.8422 163.702 83.1205 163.466 83.3869C163.022 83.9269 162.362 84.7369 161.558 85.6369L161.3 85.9309V85.5409C161.3 85.0069 161.3 84.4369 161.3 83.8489V83.6809L161.348 83.7949L160.148 82.6369L159.884 82.3789H160.25C161.45 82.3789 162.434 82.4449 163.106 82.4809C163.778 82.5169 164.162 82.5349 164.132 82.5469C164.102 82.5589 163.664 82.5469 162.968 82.6009C162.272 82.6549 161.342 82.6729 160.25 82.6729L160.352 82.4209L161.552 83.5609L161.6 83.6089V83.8429C161.6 84.4429 161.6 85.0009 161.6 85.5349L161.342 85.4329C162.098 84.6049 162.782 83.9149 163.286 83.3989C163.79 82.8829 164.102 82.5709 164.132 82.5529Z" fill="white"/>
<path d="M164.132 82.5547C164.168 82.6387 163.592 82.9507 162.848 83.2627C162.416 83.4983 161.94 83.6413 161.45 83.6827C162.252 83.1179 163.167 82.7331 164.132 82.5547Z" fill="white"/>
<path d="M168.944 82.1264C169.101 82.0832 169.267 82.0832 169.424 82.1264C169.864 82.2106 170.26 82.4488 170.54 82.7984C170.753 83.0633 170.894 83.3782 170.951 83.7133C171.008 84.0483 170.978 84.3922 170.864 84.7124C170.725 85.1106 170.465 85.4556 170.121 85.6997C169.777 85.9439 169.366 86.075 168.944 86.075C168.522 86.075 168.111 85.9439 167.767 85.6997C167.423 85.4556 167.163 85.1106 167.024 84.7124C166.911 84.3925 166.88 84.0491 166.936 83.7143C166.992 83.3796 167.131 83.0644 167.342 82.7984C167.624 82.4451 168.021 82.2028 168.464 82.1144C168.621 82.0712 168.787 82.0712 168.944 82.1144C168.944 82.1444 168.776 82.1504 168.494 82.2344C168.102 82.3555 167.76 82.6022 167.522 82.9364C167.329 83.1992 167.213 83.5104 167.186 83.8354C167.159 84.1603 167.223 84.4863 167.37 84.7772C167.518 85.0681 167.743 85.3125 168.02 85.4832C168.298 85.6539 168.618 85.7442 168.944 85.7442C169.27 85.7442 169.59 85.6539 169.868 85.4832C170.145 85.3125 170.37 85.0681 170.518 84.7772C170.665 84.4863 170.729 84.1603 170.702 83.8354C170.675 83.5104 170.559 83.1992 170.366 82.9364C170.128 82.6022 169.786 82.3555 169.394 82.2344C169.1 82.1624 168.944 82.1564 168.944 82.1264Z" fill="white"/>
<path d="M169.592 84.8397C169.532 84.8997 169.118 84.5877 168.668 84.1437L168.626 84.0957V83.9997C168.626 83.3637 168.692 82.8477 168.782 82.8477C168.872 82.8477 168.938 83.3637 168.938 83.9997L168.89 83.8917C169.34 84.3657 169.652 84.7797 169.592 84.8397Z" fill="white"/>
<path d="M122.786 84.7146C122.786 84.8046 109.688 84.8706 93.536 84.8706C77.384 84.8706 64.28 84.8046 64.28 84.7146C64.28 84.6246 77.378 84.5586 93.536 84.5586C109.694 84.5586 122.786 84.6306 122.786 84.7146Z" fill="white"/>
<path d="M59.21 87.0223C60.4858 87.0223 61.52 85.9881 61.52 84.7123C61.52 83.4366 60.4858 82.4023 59.21 82.4023C57.9342 82.4023 56.9 83.4366 56.9 84.7123C56.9 85.9881 57.9342 87.0223 59.21 87.0223Z" fill="white"/>
<path d="M364.526 37.2227H277.01C274.402 37.2227 272.288 39.3368 272.288 41.9447V92.5967C272.288 95.2045 274.402 97.3186 277.01 97.3186H364.526C367.134 97.3186 369.248 95.2045 369.248 92.5967V41.9447C369.248 39.3368 367.134 37.2227 364.526 37.2227Z" fill="#F5F5F5"/>
<path d="M353.858 63.5086C351.542 62.0926 348.95 60.8866 346.232 60.9886C342.374 61.1326 339.158 63.8386 336.266 66.3886L322.766 78.3886C322.25 78.8506 321.632 79.3426 320.966 79.2406C320.431 79.0952 319.962 78.7686 319.64 78.3166L307.682 65.0566C305.204 62.3026 302.372 59.3686 298.682 59.0086C295.682 58.7206 292.838 60.2086 290.324 61.8646C283.126 66.5712 277.028 72.774 272.444 80.0506L272.3 92.5906C273.092 95.2966 275.51 97.3186 278.072 97.3186H363.5C364.947 97.3057 366.338 96.7571 367.404 95.7786C368.47 94.8001 369.136 93.4612 369.272 92.0206V80.2006C365.818 73.2894 360.473 67.5009 353.858 63.5086Z" fill="#455A64"/>
<path d="M277.826 90.4146V90.6006H277.1V90.4746L277.49 90.1026C277.586 90.0126 277.604 89.9586 277.604 89.8986C277.604 89.8386 277.544 89.7606 277.424 89.7606C277.38 89.7575 277.335 89.7651 277.295 89.7829C277.254 89.8006 277.218 89.828 277.19 89.8626L277.064 89.7606C277.109 89.7059 277.166 89.6627 277.23 89.6346C277.295 89.6064 277.366 89.5941 277.436 89.5986C277.652 89.5986 277.79 89.7066 277.79 89.8806C277.788 89.9414 277.772 90.0009 277.744 90.0549C277.716 90.1089 277.677 90.1559 277.628 90.1926L277.364 90.4446L277.826 90.4146Z" fill="#263238"/>
<path d="M277.928 89.9288C277.927 89.9133 277.93 89.8978 277.935 89.8833C277.94 89.8688 277.949 89.8555 277.959 89.8442C277.97 89.833 277.983 89.8241 277.997 89.818C278.011 89.8119 278.027 89.8087 278.042 89.8088C278.058 89.8079 278.074 89.8104 278.089 89.8161C278.104 89.8219 278.118 89.8307 278.129 89.842C278.14 89.8533 278.149 89.8669 278.155 89.8818C278.16 89.8968 278.163 89.9128 278.162 89.9288C278.162 89.9443 278.159 89.9596 278.153 89.9738C278.147 89.9881 278.138 90.0009 278.127 90.0116C278.115 90.0222 278.102 90.0305 278.088 90.0359C278.073 90.0412 278.058 90.0436 278.042 90.0428C278.012 90.0428 277.983 90.0308 277.961 90.0094C277.94 89.988 277.928 89.959 277.928 89.9288ZM277.928 90.4628C277.927 90.4476 277.93 90.4324 277.935 90.4181C277.94 90.4039 277.949 90.391 277.96 90.3802C277.97 90.3695 277.983 90.3611 277.997 90.3557C278.012 90.3502 278.027 90.3479 278.042 90.3488C278.058 90.348 278.073 90.3503 278.088 90.3557C278.102 90.361 278.115 90.3693 278.127 90.38C278.138 90.3906 278.147 90.4035 278.153 90.4177C278.159 90.4319 278.162 90.4473 278.162 90.4628C278.166 90.4803 278.166 90.4986 278.162 90.5162C278.158 90.5337 278.15 90.5502 278.139 90.5643C278.128 90.5784 278.113 90.5897 278.097 90.5976C278.081 90.6054 278.063 90.6094 278.045 90.6094C278.027 90.6094 278.009 90.6054 277.993 90.5976C277.977 90.5897 277.962 90.5784 277.951 90.5643C277.94 90.5502 277.932 90.5337 277.928 90.5162C277.924 90.4986 277.924 90.4803 277.928 90.4628Z" fill="#263238"/>
<path d="M278.618 89.5781V90.5981H278.438V89.7641H278.228V89.6081L278.618 89.5781Z" fill="#263238"/>
<path d="M279.698 90.3474H279.5V90.5994H279.32V90.3774H278.78V90.2454L279.266 89.6094H279.5L279.038 90.2094H279.362V89.9994H279.5V90.1974H279.674L279.698 90.3474Z" fill="#263238"/>
<path d="M356.414 89.8984H281.318V90.3484H356.414V89.8984Z" fill="#263238"/>
<path d="M304.724 89.4336H281.258V90.6336H304.724V89.4336Z" fill="#106FA4"/>
<path d="M305.486 90.1205C305.487 90.3474 305.421 90.5695 305.296 90.7588C305.171 90.948 304.992 91.0958 304.783 91.1835C304.573 91.2712 304.343 91.2947 304.12 91.2512C303.897 91.2076 303.693 91.099 303.532 90.9389C303.371 90.7789 303.261 90.5747 303.216 90.3523C303.172 90.1298 303.194 89.8991 303.281 89.6893C303.367 89.4796 303.514 89.3002 303.703 89.174C303.891 89.0478 304.113 88.9805 304.34 88.9805C304.643 88.9805 304.933 89.1004 305.148 89.314C305.363 89.5276 305.484 89.8176 305.486 90.1205Z" fill="#106FA4"/>
<path d="M358.298 90.1086C358.297 90.154 358.287 90.1989 358.269 90.2403C358.25 90.2817 358.223 90.3188 358.189 90.3492C358.155 90.3796 358.115 90.4027 358.072 90.4171C358.029 90.4314 357.983 90.4367 357.938 90.4326C357.668 90.4326 357.512 90.2586 357.512 89.9406C357.504 89.8737 357.511 89.8059 357.532 89.7419C357.552 89.6779 357.587 89.6191 357.632 89.5695C357.678 89.52 357.734 89.4809 357.796 89.4548C357.858 89.4287 357.925 89.4164 357.992 89.4186C358.084 89.4141 358.175 89.4349 358.256 89.4786L358.184 89.6166C358.129 89.581 358.064 89.5642 357.998 89.5686C357.812 89.5686 357.698 89.6826 357.698 89.9106C357.731 89.8747 357.773 89.8469 357.818 89.8292C357.864 89.8115 357.913 89.8045 357.962 89.8086C358.004 89.8044 358.047 89.809 358.087 89.8222C358.127 89.8353 358.164 89.8566 358.196 89.8848C358.227 89.913 358.253 89.9475 358.27 89.986C358.288 90.0245 358.297 90.0662 358.298 90.1086ZM358.124 90.1086C358.124 90.0066 358.046 89.9406 357.926 89.9406C357.901 89.9372 357.876 89.939 357.853 89.9458C357.829 89.9525 357.806 89.9642 357.787 89.98C357.768 89.9957 357.752 90.0153 357.741 90.0374C357.73 90.0596 357.723 90.0838 357.722 90.1086C357.722 90.2046 357.8 90.2766 357.926 90.2766C357.969 90.2768 358.011 90.2609 358.043 90.2321C358.075 90.2033 358.096 90.1635 358.1 90.1206L358.124 90.1086Z" fill="#263238"/>
<path d="M358.388 89.7725C358.387 89.7565 358.39 89.7405 358.395 89.7256C358.401 89.7106 358.41 89.6971 358.421 89.6857C358.433 89.6744 358.446 89.6656 358.461 89.6599C358.476 89.6542 358.492 89.6516 358.508 89.6525C358.523 89.6525 358.539 89.6556 358.553 89.6617C358.567 89.6678 358.58 89.6768 358.591 89.688C358.601 89.6992 358.61 89.7125 358.615 89.727C358.62 89.7416 358.623 89.757 358.622 89.7725C358.622 89.8027 358.61 89.8317 358.589 89.8531C358.567 89.8745 358.538 89.8865 358.508 89.8865C358.493 89.8873 358.477 89.885 358.463 89.8796C358.448 89.8743 358.435 89.866 358.423 89.8553C358.412 89.8447 358.403 89.8318 358.397 89.8176C358.391 89.8033 358.388 89.788 358.388 89.7725ZM358.388 90.3125C358.387 90.2965 358.39 90.2805 358.395 90.2656C358.401 90.2506 358.41 90.2371 358.421 90.2257C358.433 90.2144 358.446 90.2056 358.461 90.1999C358.476 90.1942 358.492 90.1917 358.508 90.1925C358.523 90.1925 358.539 90.1956 358.553 90.2017C358.567 90.2078 358.58 90.2168 358.591 90.228C358.601 90.2392 358.61 90.2525 358.615 90.267C358.62 90.2816 358.623 90.297 358.622 90.3125C358.622 90.3427 358.61 90.3717 358.589 90.3931C358.567 90.4145 358.538 90.4265 358.508 90.4265C358.493 90.4273 358.477 90.425 358.463 90.4196C358.448 90.4143 358.435 90.406 358.423 90.3953C358.412 90.3847 358.403 90.3718 358.397 90.3576C358.391 90.3433 358.388 90.328 358.388 90.3125Z" fill="#263238"/>
<path d="M358.742 89.922C358.742 89.598 358.916 89.418 359.15 89.418C359.384 89.418 359.564 89.598 359.564 89.922C359.564 90.246 359.39 90.432 359.15 90.432C358.91 90.432 358.742 90.246 358.742 89.922ZM359.384 89.922C359.384 89.682 359.288 89.574 359.15 89.574C359.012 89.574 358.928 89.682 358.928 89.922C358.928 90.162 359.018 90.27 359.15 90.27C359.282 90.27 359.384 90.162 359.384 89.922Z" fill="#263238"/>
<path d="M359.69 89.922C359.69 89.598 359.87 89.418 360.104 89.418C360.338 89.418 360.518 89.598 360.518 89.922C360.518 90.246 360.338 90.432 360.104 90.432C359.87 90.432 359.69 90.246 359.69 89.922ZM360.332 89.922C360.332 89.682 360.242 89.574 360.104 89.574C359.966 89.574 359.876 89.682 359.876 89.922C359.876 90.162 359.972 90.27 360.104 90.27C360.236 90.27 360.332 90.162 360.332 89.922Z" fill="#263238"/>
<path d="M362.174 89.8604H361.724V88.8164H362.762V89.2664H362.174V89.8604Z" fill="#263238"/>
<path d="M362.762 91.1982H361.724V90.1602H362.174V90.7482H362.762V91.1982Z" fill="#263238"/>
<path d="M364.388 91.1982H363.35V90.7482H363.938V90.1602H364.388V91.1982Z" fill="#263238"/>
<path d="M364.388 89.8544H363.938V89.2664H363.35V88.8164H364.388V89.8544Z" fill="#263238"/>
<path d="M351.554 43.0623C352.232 42.9749 352.916 42.9348 353.6 42.9423H353.72V43.0743C353.72 43.8063 353.72 44.7003 353.72 45.6663V46.0443L353.45 45.7743L353.18 45.5043L352.49 44.8083H352.7L351.614 45.7623L351.38 45.9663V45.6603C351.369 44.7924 351.413 43.9247 351.512 43.0623C351.607 43.925 351.653 44.7924 351.65 45.6603L351.422 45.5583L352.49 44.5803L352.598 44.4843L352.7 44.5863L353.396 45.2763L353.666 45.5523L353.402 45.6603C353.402 44.6943 353.402 43.8003 353.402 43.0683L353.528 43.1883C352.868 43.1854 352.209 43.1433 351.554 43.0623Z" fill="#263238"/>
<path d="M359.066 43.3928C358.921 43.6135 358.76 43.824 358.586 44.0228C358.25 44.4368 357.752 45.0667 357.134 45.7627L356.876 46.0508V45.6607C356.876 45.2527 356.876 44.8207 356.876 44.3707V44.2447L356.924 44.3588L356.018 43.4768L355.754 43.2188H356.12C357.026 43.2188 357.8 43.2847 358.31 43.3207C358.565 43.3224 358.82 43.3445 359.072 43.3867C359.042 43.3867 358.706 43.3868 358.172 43.4408C357.638 43.4948 356.936 43.5127 356.12 43.5127L356.222 43.2607L357.14 44.1308L357.188 44.1728V44.4008C357.188 44.8508 357.188 45.2828 357.188 45.6908L356.924 45.5888C357.524 44.9888 358.016 44.4607 358.412 44.0707C358.808 43.6807 359.036 43.4048 359.066 43.3928Z" fill="#263238"/>
<path d="M359.066 43.3897C359.102 43.4677 358.67 43.7257 358.106 43.9897C357.542 44.2537 357.056 44.3557 357.026 44.2717C356.996 44.1877 357.422 43.9357 357.986 43.7017C358.55 43.4677 359.036 43.3057 359.066 43.3897Z" fill="#263238"/>
<path d="M362.726 43.0622C362.847 43.0262 362.977 43.0262 363.098 43.0622C363.442 43.1238 363.752 43.3095 363.968 43.5842C364.134 43.7889 364.244 44.0327 364.288 44.2922C364.332 44.5517 364.309 44.8183 364.22 45.0662C364.117 45.3825 363.916 45.6581 363.647 45.8535C363.377 46.049 363.053 46.1542 362.72 46.1542C362.387 46.1542 362.063 46.049 361.794 45.8535C361.524 45.6581 361.323 45.3825 361.22 45.0662C361.132 44.8183 361.108 44.5517 361.152 44.2922C361.196 44.0327 361.307 43.7889 361.472 43.5842C361.688 43.3095 361.998 43.1238 362.342 43.0622C362.582 43.0262 362.714 43.0622 362.708 43.0622C362.702 43.0622 362.582 43.0982 362.372 43.1702C362.081 43.2659 361.828 43.4532 361.652 43.7042C361.511 43.8994 361.426 44.1299 361.407 44.3703C361.388 44.6107 361.436 44.8515 361.546 45.0663C361.655 45.2811 361.822 45.4614 362.028 45.5873C362.234 45.7132 362.47 45.7799 362.711 45.7799C362.952 45.7799 363.189 45.7132 363.394 45.5873C363.6 45.4614 363.767 45.2811 363.876 45.0663C363.986 44.8515 364.034 44.6107 364.015 44.3703C363.996 44.1299 363.912 43.8994 363.77 43.7042C363.594 43.4532 363.341 43.2659 363.05 43.1702C362.858 43.0982 362.726 43.0922 362.726 43.0622Z" fill="#263238"/>
<path d="M363.224 45.125C363.158 45.185 362.834 44.963 362.492 44.621L362.45 44.573V44.501C362.45 44.015 362.516 43.625 362.606 43.625C362.696 43.625 362.762 44.015 362.762 44.501L362.714 44.387C363.056 44.741 363.284 45.065 363.224 45.125Z" fill="#263238"/>
<path d="M327.608 45.031C327.608 45.121 317.642 45.187 305.354 45.187C293.066 45.187 283.1 45.121 283.1 45.031C283.1 44.941 293.066 44.875 305.36 44.875C317.654 44.875 327.608 44.947 327.608 45.031Z" fill="#263238"/>
<path d="M280.994 45.0294C280.995 45.3776 280.893 45.7183 280.7 46.0083C280.508 46.2983 280.233 46.5246 279.912 46.6584C279.59 46.7922 279.236 46.8275 278.895 46.7599C278.553 46.6922 278.239 46.5247 277.993 46.2784C277.747 46.0322 277.579 45.7184 277.512 45.3768C277.444 45.0353 277.479 44.6813 277.613 44.3598C277.747 44.0383 277.973 43.7638 278.263 43.5711C278.553 43.3784 278.894 43.2762 279.242 43.2774C279.706 43.2789 280.151 43.464 280.479 43.7923C280.807 44.1205 280.992 44.5652 280.994 45.0294Z" fill="#263238"/>
<path d="M364.526 97.3184C364.526 97.3184 364.802 97.3184 365.312 97.2284C366.073 97.0983 366.789 96.7784 367.394 96.2984C367.891 95.9169 368.307 95.4393 368.616 94.8941C368.925 94.3489 369.122 93.7471 369.194 93.1244C369.254 91.6484 369.194 89.9204 369.194 87.9824C369.194 80.2364 369.164 69.0344 369.146 55.1924C369.146 51.7364 369.146 48.1064 369.146 44.3324C369.146 43.3904 369.146 42.4184 369.146 41.4824C369.044 40.5248 368.646 39.6227 368.007 38.902C367.368 38.1814 366.521 37.6781 365.582 37.4624C365.098 37.3696 364.605 37.3314 364.112 37.3484H362.594H336.602H277.058C276.419 37.3468 275.786 37.4801 275.202 37.7396C274.618 37.9991 274.095 38.379 273.668 38.8544C273.241 39.3276 272.914 39.8828 272.707 40.4862C272.501 41.0895 272.42 41.7286 272.468 42.3644V50.1644C272.468 55.3044 272.468 60.3684 272.468 65.3564V80.0204C272.468 82.4204 272.468 84.7904 272.468 87.1304V92.3564C272.45 92.9174 272.527 93.4773 272.696 94.0124C273.04 95.0711 273.759 95.9674 274.718 96.5324C275.191 96.808 275.709 96.9988 276.248 97.0964C276.795 97.1691 277.347 97.1932 277.898 97.1684H297.098L319.7 97.1984L352.49 97.2524H361.4H363.722H364.508C364.508 97.2524 364.244 97.2524 363.722 97.2524H361.4L352.49 97.2824L319.7 97.3304H297.056H284.456H277.856C277.289 97.3579 276.72 97.3317 276.158 97.2524C275.289 97.1028 274.478 96.7185 273.812 96.1411C273.145 95.5637 272.65 94.8152 272.378 93.9764C272.203 93.4136 272.122 92.8257 272.138 92.2364V90.5084C272.138 89.3444 272.138 88.1804 272.138 87.0104V80.0264C272.138 75.2264 272.138 70.3384 272.138 65.3624V42.3944C272.101 41.725 272.184 41.0544 272.384 40.4144C272.707 39.4396 273.329 38.5914 274.162 37.9904C274.994 37.3894 275.995 37.0661 277.022 37.0664H336.566H362.558H364.1C364.611 37.0487 365.123 37.091 365.624 37.1924C366.625 37.4193 367.528 37.9569 368.204 38.7284C368.872 39.4861 369.291 40.4307 369.404 41.4344C369.452 42.4184 369.404 43.3544 369.404 44.3084C369.404 48.0824 369.404 51.7124 369.404 55.1684C369.404 69.0104 369.362 80.2124 369.35 87.9584C369.35 89.8964 369.35 91.6124 369.308 93.1124C369.231 93.7429 369.03 94.3518 368.715 94.9039C368.401 95.4559 367.981 95.9401 367.478 96.3284C366.859 96.8035 366.131 97.1169 365.36 97.2404C365.162 97.2732 364.961 97.2892 364.76 97.2884L364.526 97.3184Z" fill="#263238"/>
<path d="M322.394 64.7083C325.953 64.7083 328.838 61.8232 328.838 58.2643C328.838 54.7054 325.953 51.8203 322.394 51.8203C318.835 51.8203 315.95 54.7054 315.95 58.2643C315.95 61.8232 318.835 64.7083 322.394 64.7083Z" fill="#455A64"/>
<path d="M222.932 60.5154C223.479 60.4638 224.003 60.2738 224.456 59.9634C224.99 59.5715 225.374 59.0081 225.542 58.3674C225.629 57.9535 225.659 57.5296 225.632 57.1074C225.632 56.6514 225.632 56.1594 225.632 55.6434C225.632 51.4734 225.674 45.4914 225.71 38.1054C225.71 36.2574 225.71 34.3134 225.746 32.2974C225.746 31.2834 225.746 30.2574 225.746 29.2074C225.774 28.6929 225.756 28.1768 225.692 27.6654C225.598 27.1889 225.369 26.7494 225.032 26.3994C224.677 26.0196 224.211 25.7631 223.7 25.6674C223.159 25.6238 222.616 25.6137 222.074 25.6374H218.648L211.496 25.6794L179.648 25.8534C179.006 25.871 178.394 26.1262 177.929 26.5696C177.465 27.013 177.181 27.6131 177.134 28.2534C177.134 29.6374 177.116 31.0154 177.08 32.3874C177.056 35.1354 177.03 37.8434 177.002 40.5114C176.942 45.8394 176.888 50.9754 176.84 55.8714C176.84 56.4714 176.84 57.0714 176.84 57.6714C176.809 58.2292 176.947 58.7835 177.236 59.2614C177.518 59.7187 177.938 60.074 178.436 60.2754C178.969 60.433 179.527 60.4859 180.08 60.4314H186.83H198.938H216.5H221.27H222.506C222.648 60.4184 222.79 60.4184 222.932 60.4314C222.79 60.4419 222.648 60.4419 222.506 60.4314L221.3 60.5994L216.53 60.6714L198.998 60.8454L186.884 60.9354L180.14 60.9834C179.534 61.0361 178.923 60.973 178.34 60.7974C177.733 60.567 177.217 60.146 176.87 59.5974C176.531 59.0427 176.366 58.399 176.396 57.7494C176.396 57.1494 176.396 56.5494 176.396 55.9494C176.438 51.0534 176.486 45.9114 176.528 40.5834C176.552 37.9194 176.576 35.2114 176.6 32.4594C176.6 31.0794 176.618 29.6794 176.654 28.2594C176.715 27.4858 177.06 26.7621 177.623 26.228C178.185 25.6939 178.926 25.3873 179.702 25.3674L211.514 25.1994H218.666H222.098C222.669 25.1792 223.24 25.1972 223.808 25.2534C224.397 25.3642 224.937 25.6533 225.356 26.0814C225.761 26.5021 226.04 27.0281 226.16 27.5994C226.226 28.1408 226.242 28.6871 226.208 29.2314C226.208 30.2814 226.208 31.3134 226.172 32.3214C226.148 34.3454 226.124 36.2834 226.1 38.1354C225.992 45.5154 225.908 51.5034 225.848 55.6674C225.848 56.1894 225.848 56.6754 225.818 57.1374C225.838 57.5732 225.796 58.0097 225.692 58.4334C225.504 59.1001 225.09 59.681 224.522 60.0774C224.174 60.3157 223.776 60.4698 223.358 60.5274C223.216 60.5421 223.073 60.538 222.932 60.5154Z" fill="#106FA4"/>
<path d="M203.132 40.0658L209.048 43.6178L203.036 47.1878L197.024 50.7518L197.114 43.6298L197.21 36.5078L203.132 40.0658Z" fill="#106FA4"/>
</svg>
