<svg width="100" height="100" viewBox="0 0 100 100" fill="none" xmlns="http://www.w3.org/2000/svg">
<path fill-rule="evenodd" clip-rule="evenodd" d="M81.5836 31.444C81.1645 29.029 79.2245 27.1668 76.7945 26.8466C67.9154 25.6172 58.9637 24.9866 50 24.9594C41.0362 24.9866 32.0845 25.6172 23.2055 26.8466C20.7754 27.1668 18.8355 29.029 18.4164 31.444C16.0565 43.7012 16.0565 56.296 18.4164 68.5532C18.8352 70.9688 20.775 72.832 23.2055 73.1533C32.0844 74.3838 41.0362 75.0134 50 75.0379C58.9637 75.0134 67.9156 74.3838 76.7945 73.1533C79.2249 72.832 81.1647 70.9688 81.5836 68.5532C83.9434 56.296 83.9434 43.7012 81.5836 31.444ZM59.606 47.5985L43.1457 39.2099C42.2731 38.7338 41.217 38.7404 40.3504 39.2274C39.4839 39.7143 38.929 40.613 38.8819 41.6059V58.3913C38.9326 59.3826 39.4878 60.2788 40.3529 60.7655C41.218 61.2521 42.2722 61.2614 43.1457 60.7901L59.606 52.3987C60.5287 51.9554 61.1156 51.0223 61.1156 49.9986C61.1156 48.9749 60.5287 48.0418 59.606 47.5985ZM75.1018 67.7138C75.7048 67.6338 76.1856 67.1709 76.2886 66.5715C78.2943 55.5955 78.2764 44.3453 76.2358 33.3757C76.1314 32.7764 75.6494 32.3147 75.0462 32.2361C66.7436 31.1235 58.3768 30.558 50 30.5434C41.6235 30.5534 33.2567 31.1143 24.9538 32.2222C24.3506 32.3008 23.8685 32.7625 23.7641 33.3618C21.7232 44.3323 21.7053 55.5834 23.7113 66.5603C23.8143 67.1598 24.2952 67.6227 24.8982 67.7027C33.2176 68.8408 41.6032 69.4267 50 69.4566C58.3965 69.4304 66.7821 68.8482 75.1018 67.7138Z" fill="#EE2D24"/>
<mask id="mask0_4158_1463" style="mask-type:alpha" maskUnits="userSpaceOnUse" x="16" y="24" width="68" height="52">
<path fill-rule="evenodd" clip-rule="evenodd" d="M81.5836 31.444C81.1645 29.029 79.2245 27.1668 76.7945 26.8466C67.9154 25.6172 58.9637 24.9866 50 24.9594C41.0362 24.9866 32.0845 25.6172 23.2055 26.8466C20.7754 27.1668 18.8355 29.029 18.4164 31.444C16.0565 43.7012 16.0565 56.296 18.4164 68.5532C18.8352 70.9688 20.775 72.832 23.2055 73.1533C32.0844 74.3838 41.0362 75.0134 50 75.0379C58.9637 75.0134 67.9156 74.3838 76.7945 73.1533C79.2249 72.832 81.1647 70.9688 81.5836 68.5532C83.9434 56.296 83.9434 43.7012 81.5836 31.444ZM59.606 47.5985L43.1457 39.2099C42.2731 38.7338 41.217 38.7404 40.3504 39.2274C39.4839 39.7143 38.929 40.613 38.8819 41.6059V58.3913C38.9326 59.3826 39.4878 60.2788 40.3529 60.7655C41.218 61.2521 42.2722 61.2614 43.1457 60.7901L59.606 52.3987C60.5287 51.9554 61.1156 51.0223 61.1156 49.9986C61.1156 48.9749 60.5287 48.0418 59.606 47.5985ZM75.1018 67.7138C75.7048 67.6338 76.1856 67.1709 76.2886 66.5715C78.2943 55.5955 78.2764 44.3453 76.2358 33.3757C76.1314 32.7764 75.6494 32.3147 75.0462 32.2361C66.7436 31.1235 58.3768 30.558 50 30.5434C41.6235 30.5534 33.2567 31.1143 24.9538 32.2222C24.3506 32.3008 23.8685 32.7625 23.7641 33.3618C21.7232 44.3323 21.7053 55.5834 23.7113 66.5603C23.8143 67.1598 24.2952 67.6227 24.8982 67.7027C33.2176 68.8408 41.6032 69.4267 50 69.4566C58.3965 69.4304 66.7821 68.8482 75.1018 67.7138Z" fill="white"/>
</mask>
<g mask="url(#mask0_4158_1463)">
</g>
</svg>
