<svg width="300" height="359" viewBox="0 0 300 359" fill="none" xmlns="http://www.w3.org/2000/svg">
<path fill-rule="evenodd" clip-rule="evenodd" d="M149.459 1.375C179.869 1.36942 209.067 13.2953 230.777 34.5892C252.487 55.883 264.975 84.8447 265.558 115.249C266.964 114.834 268.347 114.343 269.699 113.778L265.52 125.117H265.326C265.848 125.151 266.338 125.382 266.697 125.762C267.056 126.143 267.257 126.645 267.261 127.168V127.323C267.261 127.867 267.045 128.389 266.66 128.773C266.276 129.158 265.754 129.374 265.21 129.374H265.016C265.46 130.757 265.427 132.248 264.921 133.61C264.416 134.971 263.468 136.123 262.23 136.882C263.14 139.804 262.424 144.815 260.953 149.421H261.34C261.07 153.308 259.912 157.081 257.954 160.45C258.302 162.828 258.117 165.254 257.412 167.551C258.346 167.673 259.215 168.094 259.889 168.751C257.525 170 255.525 171.84 254.084 174.092C258.65 175.64 258.573 180.574 257.489 184.831H258.341C258.071 188.685 256.969 192.435 255.109 195.822C256.418 196.732 257.407 198.032 257.934 199.537L259.482 198.589C257.702 205.032 259.173 211.127 257.025 215.442C257.334 216.291 257.485 217.19 257.47 218.093C258.239 218.086 258.998 218.274 259.674 218.639C260.351 219.005 260.924 219.536 261.34 220.183C262.219 219.817 263.124 219.52 264.049 219.293C264.104 221.934 263.798 224.571 263.14 227.13C264.22 227.143 265.293 227.299 266.332 227.594C262.578 228.658 261.359 233.012 264.533 234.347C268.473 232.822 272.674 232.086 276.897 232.18C284.444 232.393 286.088 242.339 277.071 242.706C272.06 243.093 272.873 250.446 279.587 249.633L282.16 249.75L289.165 250.117C296.905 252.168 296.537 262.075 290.597 260.856C287.23 260.856 285.373 260.353 282.102 260.334C281.628 260.711 281.272 261.216 281.077 261.79C280.882 262.364 280.857 262.981 281.004 263.569C281.151 264.157 281.464 264.69 281.906 265.105C282.348 265.519 282.9 265.798 283.496 265.907H283.631C297.486 266.855 302.226 276.452 292.59 279.761C300.91 308.399 304.568 334.463 278.484 343.906C224.111 343.596 203.561 347.099 150.311 356.948C97.0598 347.099 76.5103 343.596 22.1566 343.906C-4.00444 334.425 -0.250525 308.264 8.10861 279.529L6.56059 279.761C-3.11434 276.452 1.66508 266.855 15.5196 265.907H15.655C16.2511 265.798 16.8031 265.519 17.245 265.105C17.6869 264.69 18.0001 264.157 18.1471 263.569C18.294 262.981 18.2685 262.364 18.0737 261.79C17.8788 261.216 17.5228 260.711 17.0482 260.334C13.7781 260.334 11.9205 260.818 8.55362 260.856C2.61321 262.075 2.28431 252.168 9.98555 250.117L16.9902 249.75L19.5637 249.633C26.2781 250.446 27.0908 243.093 22.0792 242.706C13.0622 242.339 14.7069 232.393 22.2533 232.18C26.477 232.086 30.678 232.822 34.6179 234.347C37.7719 233.012 36.5529 228.658 32.8183 227.594C34.4164 227.149 36.0853 227.018 37.7332 227.207C37.9792 223.392 39.0486 219.675 40.8679 216.313C40.8679 218.248 40.1519 220.57 41.6999 222.215C41.816 222.35 41.9515 222.486 42.0676 222.64C40.3454 217.184 41.8547 212.269 43.4414 207.973C43.7123 209.908 43.1125 212.211 44.7959 213.662C45.1442 213.972 45.4925 214.281 45.8408 214.63C43.2286 209.076 44.4283 203.794 45.8408 199.15C46.2278 201.085 45.8408 203.349 47.5629 204.626L48.2595 205.168C45.3571 199.982 46.1698 194.757 47.176 190.152C47.6791 191.932 47.4468 194.235 49.2657 195.357L49.614 195.57C47.2363 191.566 46.4166 186.827 47.3114 182.257C46.2173 179.049 45.783 175.653 46.0343 172.273C46.8664 173.879 47.0405 176.143 48.9755 176.82L49.2463 176.917C45.2603 173.047 44.6218 168.035 44.3702 163.507C43.451 161.763 42.7987 159.892 42.4352 157.954C38.7587 153.368 35.4306 141.913 36.9979 136.805C35.7597 136.046 34.812 134.894 34.3067 133.532C33.8015 132.171 33.768 130.68 34.2115 129.297H34.018C33.474 129.297 32.9524 129.081 32.5677 128.696C32.1831 128.311 31.9669 127.79 31.9669 127.246V127.091C31.9707 126.568 32.1723 126.066 32.5313 125.685C32.8903 125.305 33.3799 125.074 33.9019 125.04H33.7084L29.5289 113.701C30.8814 114.266 32.2637 114.757 33.6697 115.171C34.2715 84.8344 46.726 55.9385 68.3672 34.6698C90.0085 13.401 119.116 1.44995 149.459 1.375Z" stroke="black" stroke-width="1.42" stroke-linecap="round" stroke-linejoin="round"/>
<path fill-rule="evenodd" clip-rule="evenodd" d="M192.026 90.9628C202.669 99.7863 208.338 110.525 210.641 124.67C200.463 134.751 189.569 140.15 175.811 140.924C171.459 152.224 163.228 161.607 152.591 167.395C153.113 167.531 153.624 167.706 154.12 167.917L154.817 201.895L156.616 205.398L156.81 210.429C170.355 217.162 165.536 235.932 149.592 237.344C133.648 235.932 128.772 217.162 142.375 210.429L142.568 205.398L144.368 201.895L145.064 167.917C145.538 167.717 146.023 167.543 146.516 167.395C135.848 161.619 127.608 152.205 123.296 140.866C109.499 139.976 98.6054 134.616 88.466 124.535C90.7687 110.39 96.4382 99.6509 107.158 90.8467C103.733 77.4372 105.475 65.4403 111.918 52.6307C126.082 50.4636 138.04 52.5146 149.728 60.003C161.338 52.6114 173.373 50.541 187.537 52.7081C193.981 65.5177 195.722 77.534 192.22 90.9628H192.026ZM149.457 234.655C155.378 233.223 155.475 225.87 149.457 224.883C143.439 225.87 143.536 233.223 149.457 234.655ZM159.693 178.173C155.339 185.08 156.694 203.037 159.867 211.067C167.462 210.266 174.899 208.363 181.945 205.417C179.584 197.445 178.578 189.531 185.447 187.77C191.306 186.27 196.964 184.074 202.301 181.23C206.964 178.676 206.636 177.36 208.106 172.213C211.022 161.793 212.609 151.046 212.827 140.228C212.827 138.293 213.814 129.798 212.827 129.314C208.377 127.07 206.829 132.546 205.707 136.338C196.032 184.19 171.012 160.003 159.615 178.173H159.693ZM161.628 236.609C155.32 237.093 151.043 239.299 149.476 241.388C147.909 239.299 143.671 237.093 137.324 236.609C125.966 235.738 109.867 237.905 104.256 238.215L90.9041 265.46C90.5702 268.769 89.0758 271.854 86.6858 274.167C99.1084 274.167 118.11 267.975 138.466 274.496C141.833 276.934 143.439 281.094 144.503 281.617C147.811 281.488 151.122 281.488 154.43 281.617C155.513 281.094 157.119 276.934 160.486 274.496C180.823 267.975 199.844 274.109 212.266 274.167C209.877 271.851 208.378 268.769 208.029 265.46L194.639 238.215C189.027 237.905 172.928 235.738 161.57 236.609H161.628ZM71.7477 113.776L67.5682 125.115H67.2006C67.743 125.12 68.2617 125.338 68.6453 125.722C69.0289 126.105 69.2466 126.624 69.2516 127.166V127.321C69.2549 127.827 69.0709 128.317 68.7352 128.695C68.3994 129.074 67.9356 129.315 67.4328 129.372H65.4978L63.2532 143.672L72.6379 178.501L72.9087 212.073L65.8654 247.271L57.2741 245.336L50.6758 256.481C50.6758 256.481 56.7903 270.026 57.6224 270.51C84.48 284.326 118.594 289.434 150.115 289.724C181.636 289.434 215.769 284.326 242.626 270.51C242.065 269.484 242.491 264.705 244.155 260.99L247.444 253.947L242.046 246.207L229.468 226.373L225.482 208.649L231.287 179.972L236.531 145.046L235.525 121.981L232.371 110.371C230.236 89.4057 220.226 70.0316 204.362 56.1604C188.497 42.2893 167.961 34.9546 146.898 35.6375C125.836 36.3203 105.817 44.9698 90.8848 59.8393C75.9521 74.7089 67.2179 94.6907 66.4459 115.75C68.2454 115.111 70.0643 114.492 71.8445 113.815L71.7477 113.776ZM93.1293 136.338C92.0071 132.468 90.459 127.07 86.0086 129.314C85.0411 129.798 86.0086 138.293 86.0086 140.228C86.218 151.046 87.8046 161.795 90.7299 172.213C92.2392 177.36 91.9103 178.676 96.5349 181.23C101.872 184.074 107.53 186.27 113.389 187.77C120.258 189.531 119.194 197.445 116.891 205.417C123.936 208.365 131.374 210.268 138.969 211.067C142.143 203.037 143.497 185.08 139.143 178.173C127.824 160.003 102.843 184.19 93.1293 136.338Z" fill="#FFF100" stroke="black" stroke-width="0.57" stroke-miterlimit="22.93"/>
<path fill-rule="evenodd" clip-rule="evenodd" d="M150.134 356.986C203.385 347.137 223.935 343.635 278.308 343.945C304.798 334.27 300.599 307.606 292.027 278.426C278.804 270.905 262.344 268.261 242.646 270.493C215.788 284.308 181.655 289.417 150.134 289.707C118.613 289.417 84.4996 284.308 57.6421 270.493C37.931 268.274 21.4707 270.918 8.26122 278.426C-0.330113 307.606 -4.52904 334.347 21.9803 343.945C76.4114 343.635 96.9416 347.137 150.134 356.986Z" fill="black" stroke="black" stroke-width="0.73" stroke-linejoin="round"/>
<path fill-rule="evenodd" clip-rule="evenodd" d="M67.2005 129.376C66.6259 125.415 66.3349 121.419 66.3297 117.417C67.2545 95.9914 76.4167 75.7499 91.9048 60.9159C107.393 46.0819 128.011 37.8011 149.457 37.8011C170.903 37.8011 191.52 46.0819 207.008 60.9159C222.497 75.7499 231.659 95.9914 232.584 117.417C232.578 121.419 232.287 125.415 231.713 129.376H248.818C249.292 125.407 249.531 121.414 249.534 117.417C249.534 90.8804 238.992 65.4302 220.228 46.6657C201.463 27.9012 176.013 17.3594 149.476 17.3594C122.939 17.3594 97.4888 27.9012 78.7243 46.6657C59.9598 65.4302 49.418 90.8804 49.418 117.417C49.421 121.414 49.6601 125.407 50.1339 129.376H67.2005Z" fill="white" stroke="black" stroke-width="0.73" stroke-linejoin="round"/>
<path fill-rule="evenodd" clip-rule="evenodd" d="M50.1163 129.371C49.6425 125.402 49.4034 121.409 49.4004 117.413C49.4004 90.8756 59.9422 65.4255 78.7067 46.661C97.4713 27.8965 122.921 17.3547 149.458 17.3547C175.995 17.3547 201.446 27.8965 220.21 46.661C238.975 65.4255 249.516 90.8756 249.516 117.413C249.513 121.409 249.274 125.402 248.801 129.371H264.88C266.639 113.163 264.964 96.767 259.965 81.2496C254.966 65.7322 246.755 51.4415 235.867 39.308C224.978 27.1745 211.657 17.4702 196.769 10.8268C181.881 4.18343 165.761 0.75 149.458 0.75C133.156 0.75 117.036 4.18343 102.148 10.8268C87.2603 17.4702 73.9386 27.1745 63.0502 39.308C52.1619 51.4415 43.9509 65.7322 38.952 81.2496C33.9531 96.767 32.2783 113.163 34.0366 129.371H50.1163Z" fill="#E6001A" stroke="black" stroke-width="0.73" stroke-linejoin="round"/>
<path fill-rule="evenodd" clip-rule="evenodd" d="M150.135 341.508C170.955 340.328 185.216 344.739 260.623 320.784C266.931 313.277 272.774 305.304 275.251 293.965C265.483 288.301 254.295 285.554 243.014 286.051C214.647 295.436 186.803 302.924 150.135 301.841C113.525 302.924 85.6806 295.436 57.2557 286.051C45.9492 285.546 34.7347 288.292 24.9414 293.965C27.4375 305.304 33.2618 313.315 39.5699 320.784C115.112 344.739 129.392 340.328 150.135 341.508Z" fill="#B1312D" stroke="black" stroke-width="0.73" stroke-linejoin="round"/>
<path fill-rule="evenodd" clip-rule="evenodd" d="M46.4962 308.203C47.4836 308.203 48.4488 307.911 49.2698 307.362C50.0907 306.813 50.7306 306.034 51.1084 305.121C51.4863 304.209 51.5852 303.205 51.3925 302.237C51.1999 301.269 50.7245 300.379 50.0263 299.681C49.3281 298.983 48.4385 298.507 47.4701 298.315C46.5017 298.122 45.4979 298.221 44.5857 298.599C43.6735 298.977 42.8938 299.617 42.3453 300.438C41.7967 301.258 41.5039 302.224 41.5039 303.211C41.509 304.533 42.0366 305.8 42.9717 306.735C43.9069 307.671 45.1737 308.198 46.4962 308.203Z" fill="white" stroke="black" stroke-width="0.73" stroke-linejoin="round"/>
<path fill-rule="evenodd" clip-rule="evenodd" d="M125.58 307.117H154.179V312.109H134.655C134.173 312.107 133.708 312.284 133.351 312.606C132.993 312.928 132.768 313.372 132.72 313.851V317.392C132.714 317.558 132.743 317.723 132.805 317.877C132.866 318.031 132.959 318.171 133.077 318.287C133.195 318.403 133.336 318.494 133.491 318.553C133.646 318.612 133.812 318.638 133.978 318.63H150.812C152.747 318.804 154.179 319.385 154.198 320.817V333.472C153.908 334.575 153.772 335.291 151.992 335.407H123.8L123.664 329.602H142.491C144.697 328.963 145.239 323.681 141.137 324.377H126.102C125.493 324.238 124.943 323.911 124.53 323.442C124.116 322.974 123.861 322.387 123.8 321.765V309.342C123.847 308.838 124.04 308.359 124.356 307.963C124.673 307.568 125.098 307.274 125.58 307.117Z" fill="white" stroke="black" stroke-width="0.73" stroke-linecap="round" stroke-linejoin="round"/>
<path fill-rule="evenodd" clip-rule="evenodd" d="M199.788 303.576L200.291 303.441L227.535 296.688L228.155 299.203L228.735 301.525L209.733 306.227C209.239 306.321 208.801 306.604 208.512 307.016C208.223 307.428 208.106 307.936 208.185 308.433L209.037 311.877C209.073 312.04 209.141 312.194 209.239 312.329C209.337 312.464 209.461 312.578 209.604 312.663C209.747 312.748 209.907 312.803 210.072 312.824C210.237 312.846 210.405 312.833 210.565 312.787H210.759L226.897 308.801C228.832 308.472 230.341 308.704 230.767 310.097L233.863 322.365C233.863 323.487 233.863 324.3 232.218 324.764L204.857 331.556L203.309 325.886L221.595 321.339C223.53 320.198 222.814 314.934 219.021 316.599L204.432 320.043C203.812 320.058 203.204 319.88 202.691 319.533C202.177 319.186 201.785 318.688 201.568 318.108L198.511 306.092C198.45 305.593 198.539 305.088 198.767 304.64C198.994 304.192 199.349 303.822 199.788 303.576Z" fill="white" stroke="black" stroke-width="0.73" stroke-linecap="round" stroke-linejoin="round"/>
<path d="M181.846 304.92L172.539 305.773L175.229 335.101L184.536 334.247L181.846 304.92Z" fill="white" stroke="black" stroke-width="0.73" stroke-linecap="round" stroke-linejoin="round"/>
<path fill-rule="evenodd" clip-rule="evenodd" d="M83.5917 297.217L108.263 306.718C108.463 306.797 108.646 306.914 108.8 307.065C108.955 307.215 109.078 307.394 109.163 307.592C109.247 307.79 109.292 308.003 109.293 308.218C109.295 308.433 109.254 308.647 109.172 308.846L100.155 332.318C100.003 332.725 99.6963 333.057 99.302 333.241C98.9077 333.426 98.4568 333.449 98.0461 333.305L73.3557 323.804C73.1546 323.723 72.9714 323.603 72.8167 323.451C72.6621 323.299 72.5389 323.118 72.4544 322.919C72.3699 322.719 72.3257 322.505 72.3243 322.288C72.3229 322.071 72.3643 321.857 72.4463 321.656L81.4633 298.204C81.6158 297.792 81.9252 297.456 82.324 297.272C82.7228 297.087 83.1785 297.067 83.5917 297.217ZM88.4873 305.247C88.1196 305.112 87.6746 305.421 87.4811 305.944L82.0824 319.934C81.9729 320.136 81.9439 320.372 82.0014 320.594C82.0588 320.817 82.1984 321.01 82.392 321.133L93.1312 325.255C93.4989 325.39 93.9633 325.1 94.1568 324.578L99.536 310.568C99.7295 310.065 99.536 309.524 99.2458 309.388L88.4873 305.247Z" fill="white" stroke="black" stroke-width="0.73" stroke-linecap="round" stroke-linejoin="round"/>
<path fill-rule="evenodd" clip-rule="evenodd" d="M149.458 224.883C143.44 225.87 143.537 233.223 149.458 234.655C155.379 233.223 155.476 225.87 149.458 224.883ZM149.458 237.345C133.514 235.932 128.637 217.163 142.24 210.429L142.434 205.398L144.233 201.896L144.93 167.917C146.364 167.317 147.903 167.008 149.458 167.008C151.012 167.008 152.552 167.317 153.986 167.917L154.682 201.896L156.482 205.398L156.675 210.429C170.259 217.163 165.402 235.932 149.458 237.345Z" fill="black" stroke="black" stroke-width="0.73" stroke-linejoin="round"/>
<path fill-rule="evenodd" clip-rule="evenodd" d="M149.46 189.492L147.699 190.363V206.888H149.46H151.202V190.363L149.46 189.492Z" fill="white" stroke="black" stroke-width="0.73" stroke-linejoin="round"/>
<path fill-rule="evenodd" clip-rule="evenodd" d="M106.965 90.8439C96.2456 99.6481 90.5761 110.387 88.2734 124.532C98.4515 134.613 109.345 140.012 123.103 140.863C128.173 153.789 136.648 162.477 149.38 169.037C162.112 162.477 170.568 153.789 175.677 140.921C189.531 140.109 200.425 134.749 210.506 124.667C208.204 110.523 202.534 99.7835 191.892 90.96C195.394 77.5312 193.653 65.515 187.209 52.7054C173.045 50.5382 161.087 52.6086 149.4 60.0003C137.79 52.5119 125.754 50.4608 111.59 52.628C105.282 65.4376 103.54 77.4345 106.965 90.8439Z" fill="white" stroke="black" stroke-width="0.73" stroke-linejoin="round"/>
<path fill-rule="evenodd" clip-rule="evenodd" d="M149.457 60.0391L160.545 89.4315L191.93 90.9021L167.414 110.542L175.715 140.863L149.457 123.584L123.199 140.863L131.5 110.542L106.965 90.9021L138.35 89.4508L149.457 60.0391Z" stroke="black" stroke-width="0.73" stroke-linejoin="round"/>
<path d="M160.544 89.4375L149.457 104.724M149.457 104.724L131.5 110.529M149.457 104.724L167.413 110.529M149.457 104.724L138.35 89.4568" stroke="black" stroke-width="0.73" stroke-linejoin="round"/>
<path fill-rule="evenodd" clip-rule="evenodd" d="M139.048 211.065C131.453 210.266 124.015 208.363 116.97 205.415C119.331 197.443 120.337 189.529 113.468 187.768C107.609 186.268 101.951 184.072 96.6141 181.228C91.9508 178.674 92.2798 177.358 90.8092 172.211C87.8838 161.793 86.2973 151.044 86.0878 140.225C86.0878 138.29 85.0816 129.796 86.0878 129.312C90.5383 127.067 92.0863 132.543 93.2086 136.336C102.883 184.188 127.903 160.001 139.3 178.17C143.576 185.078 142.222 203.035 139.048 211.065Z" fill="#B53B2F" stroke="black" stroke-width="0.73" stroke-linejoin="round"/>
<path fill-rule="evenodd" clip-rule="evenodd" d="M159.811 211.065C167.405 210.264 174.843 208.361 181.889 205.415C179.528 197.443 178.522 189.529 185.391 187.768C191.25 186.268 196.908 184.072 202.245 181.228C206.908 178.674 206.579 177.358 208.05 172.211C210.966 161.791 212.552 151.044 212.771 140.225C212.771 138.29 213.758 129.796 212.771 129.312C208.321 127.067 206.773 132.543 205.65 136.336C195.975 184.188 170.956 160.001 159.559 178.17C155.341 185.078 156.695 203.035 159.811 211.065Z" fill="#B53B2F" stroke="black" stroke-width="0.73" stroke-linejoin="round"/>
<path fill-rule="evenodd" clip-rule="evenodd" d="M255.07 306.89C256.063 306.894 257.035 306.603 257.862 306.054C258.689 305.505 259.334 304.722 259.716 303.806C260.098 302.889 260.199 301.88 260.006 300.906C259.813 299.932 259.336 299.037 258.633 298.335C257.931 297.633 257.037 297.155 256.063 296.963C255.089 296.77 254.08 296.871 253.163 297.252C252.246 297.634 251.464 298.279 250.915 299.107C250.366 299.934 250.074 300.905 250.078 301.898C250.083 303.221 250.611 304.487 251.546 305.423C252.481 306.358 253.748 306.885 255.07 306.89Z" fill="white" stroke="black" stroke-width="0.73" stroke-linejoin="round"/>
<path fill-rule="evenodd" clip-rule="evenodd" d="M231.715 129.371C229.238 129.12 223.82 132.912 229.625 138.582C233.998 146.206 231.173 153.133 229.044 158.125L255.399 159.286C259.501 156.132 263.855 142.568 262.094 136.879C263.332 136.12 264.28 134.968 264.785 133.607C265.29 132.245 265.324 130.754 264.88 129.371H231.715Z" fill="white" stroke="black" stroke-width="0.73" stroke-linejoin="round"/>
<path d="M229.625 138.584C230.979 138.971 240.093 138.43 248.394 137.578C253.909 136.998 255.883 136.243 260.004 136.146C254.954 135.488 254.199 128.542 263.216 129.374" stroke="black" stroke-width="0.73" stroke-linejoin="round"/>
<path fill-rule="evenodd" clip-rule="evenodd" d="M228.095 152.398C226.16 149.108 228.269 144.116 234.268 145.703C233.823 138.814 240.808 137.789 244.794 140.73C248.973 136.647 254.256 139.704 254.295 143.478C268.304 142.762 255.92 167.53 245.22 166.93C242.394 165.807 229.759 155.358 228.095 152.398Z" fill="white" stroke="black" stroke-width="0.73" stroke-linejoin="round"/>
<path fill-rule="evenodd" clip-rule="evenodd" d="M233.61 164.916C230.393 160.238 228.397 154.831 227.805 149.185C231.133 149.185 232.081 149.707 235.061 152.474C235.932 150.23 236.202 147.269 238.157 145.489C239.884 147.07 241.388 148.88 242.627 150.868C242.891 148.274 243.968 145.829 245.703 143.883C246.574 145.45 249.148 148.449 249.341 150.617C250.372 148.384 251.966 146.457 253.966 145.024C254.585 147.134 255.688 149.785 254.894 152.165C255.669 151.249 256.645 150.526 257.747 150.053C258.848 149.58 260.044 149.368 261.241 149.436C261.357 154.312 257.661 161.356 255.301 164.684L233.61 164.916Z" fill="#4CB45C" stroke="black" stroke-width="0.73" stroke-linejoin="round"/>
<path fill-rule="evenodd" clip-rule="evenodd" d="M256.56 169.794C259.115 162.906 258.495 155.359 252.4 157.101C252.245 151.044 245.666 149.922 241.448 153.057C235.508 148.045 229.296 153.889 229.006 157.72C217.396 160.158 226.2 172.968 226.723 173.316C237.056 170.433 246.266 172.677 256.56 169.794Z" fill="white" stroke="black" stroke-width="0.83" stroke-linejoin="round"/>
<path fill-rule="evenodd" clip-rule="evenodd" d="M221.73 164.824C225.33 165.753 227.381 163.857 229.838 165.753C230.496 163.006 232.392 161.341 233.031 158.594C234.734 160.684 236.378 162.212 238.062 164.302C239.784 162.793 241.932 160.432 243.615 158.845C244.486 160.896 247.156 161.419 248.046 163.47C248.754 162.301 249.764 161.345 250.969 160.701C252.175 160.058 253.531 159.751 254.896 159.813C253.435 162.899 252.237 166.103 251.316 169.391C253.019 167.456 257.605 166.585 259.714 168.772C250.581 174.132 253.174 179.279 249.73 187.502C234.385 182.259 223.046 182.955 221.73 164.824Z" fill="#4CB45C" stroke="black" stroke-width="0.73" stroke-linejoin="round"/>
<path fill-rule="evenodd" clip-rule="evenodd" d="M221.845 193.866C218.575 186.126 217.491 176.315 224.283 177.089C224.031 169.852 232.313 167.898 237.112 170.723C243.227 163.486 250.386 169.137 250.966 173.626C263.776 174.051 255.088 191.176 254.527 191.698C243.11 190.402 233.339 195.104 221.845 193.866Z" fill="white" stroke="black" stroke-width="0.73" stroke-linejoin="round"/>
<path fill-rule="evenodd" clip-rule="evenodd" d="M224.825 202.611C221.084 196.945 218.822 190.433 218.246 183.668C222.232 183.764 223.354 184.403 226.818 187.77C227.921 185.138 228.327 181.597 230.688 179.527C232.713 181.466 234.465 183.673 235.893 186.086C235.893 182.642 238.234 179.875 239.763 177.805C240.769 179.74 243.769 183.358 243.943 185.97C245.223 183.318 247.178 181.049 249.612 179.391C250.289 181.926 251.547 185.196 250.522 187.944C251.474 186.878 252.658 186.044 253.983 185.507C255.308 184.971 256.739 184.745 258.165 184.848C258.165 190.653 253.579 199.012 250.657 202.921L224.825 202.611Z" fill="#4CB45C" stroke="black" stroke-width="0.73" stroke-linejoin="round"/>
<path fill-rule="evenodd" clip-rule="evenodd" d="M224.034 198.649C224.808 192.96 231.368 190.813 235.973 194.779C239.843 188.22 249.111 191.47 249.789 196.482C253.291 192.283 259.657 198.049 258.109 204.841C256.561 211.633 250.369 219.721 227.285 216.857C224.341 216.374 221.666 214.858 219.738 212.581C216.236 208.943 215.52 196.327 224.034 198.649Z" fill="white" stroke="black" stroke-width="0.73" stroke-linejoin="round"/>
<path fill-rule="evenodd" clip-rule="evenodd" d="M228.6 224.826C220.357 223.182 217.919 213.894 216.312 210.275C217.706 209.589 219.279 209.35 220.813 209.593C222.348 209.835 223.77 210.547 224.884 211.63C224.556 210.508 224.884 202.903 226.181 201.761C227.632 201.471 232.741 208.573 234.192 207.895C235.275 205.612 236.475 202.342 236.901 201.374C239.336 202.884 241.453 204.856 243.131 207.179C243.886 203.774 244.37 198.646 245.821 196.305C247.659 198.027 248.704 202.613 250.697 205.031C252.206 203.097 257.005 200.078 259.308 198.646C257.257 206.038 259.521 212.965 255.651 217.28L228.6 224.826Z" fill="#4CB45C" stroke="black" stroke-width="0.73" stroke-linejoin="round"/>
<path fill-rule="evenodd" clip-rule="evenodd" d="M232.49 220.163C229.433 209.172 243.423 208.882 245.783 214.803C249.092 209.926 257.297 210.933 257.297 218.111C261.496 218.498 262.289 221.188 261.36 224.729C254.646 230.766 250.369 237.423 229.704 237.868C226.879 235.933 225.369 233.282 226.801 230.321C221.48 226.741 224.77 217.744 232.49 220.163Z" fill="white" stroke="black" stroke-width="0.73" stroke-linejoin="round"/>
<path fill-rule="evenodd" clip-rule="evenodd" d="M236.689 243.439C232.045 243.168 227.555 236.241 223.879 234.983C226.499 233.549 229.523 233.031 232.47 233.513C230.342 230.649 233.863 229.972 232.664 226.914C235.76 228.617 238.682 227.108 239.843 229.797C239.088 227.862 240.055 224.863 240.23 221.574C242.493 223.102 246.48 223.373 248.182 226.45C248.55 222.58 249.827 221.767 250.737 218.188C252.13 219.871 255.806 221.574 256.135 224.205C258.025 221.677 260.781 219.934 263.875 219.31C264.301 223.799 261.824 229.643 262.076 234.79L236.689 243.439Z" fill="#4CB45C" stroke="black" stroke-width="0.73" stroke-linejoin="round"/>
<path fill-rule="evenodd" clip-rule="evenodd" d="M292.475 279.799C302.15 276.49 297.37 266.892 283.516 265.944C282.905 265.859 282.332 265.596 281.868 265.189C281.405 264.782 281.071 264.247 280.908 263.652C280.746 263.057 280.761 262.427 280.953 261.84C281.145 261.254 281.504 260.736 281.987 260.352C285.257 260.352 287.115 260.836 290.482 260.874C296.422 262.093 296.751 252.186 289.05 250.135L279.375 249.651C272.661 250.464 271.848 243.111 276.859 242.724C285.876 242.357 284.232 232.411 276.685 232.198C272.462 232.104 268.261 232.84 264.321 234.365C261.147 233.03 262.386 228.676 266.12 227.612C259.735 225.677 250.331 229.837 245.339 235.855C240.714 230.05 231.271 236.784 225.621 236.881C227.75 243.498 220.222 256.695 238.779 249.651C240.714 249.148 241.178 250.929 240.346 252.573C239.514 254.218 238.566 255.36 238.74 256.037C239.301 257.237 240.83 257.546 245.706 258.456C242.765 261.861 241.836 269.214 242.61 270.491L258.922 274.826L292.475 279.799Z" fill="white" stroke="black" stroke-width="0.73" stroke-linejoin="round"/>
<path d="M238.875 249.654C246.483 243.177 255.114 238.011 264.417 234.367" stroke="black" stroke-width="0.73" stroke-linejoin="round"/>
<path d="M276.955 242.648C258.379 243.5 245.241 248.144 238.836 255.961" stroke="black" stroke-width="0.73" stroke-linejoin="round"/>
<path d="M245.801 258.455C249.5 255.245 253.756 252.739 258.359 251.063C262.674 249.573 277.399 249.651 282.043 249.767" stroke="black" stroke-width="0.73" stroke-linejoin="round"/>
<path d="M242.707 270.493C242.978 264.862 255.71 261.34 259.406 260.141C267.939 260.295 275.524 259.966 281.987 260.353" stroke="black" stroke-width="0.73" stroke-linejoin="round"/>
<path d="M260.95 250.505C266.407 250.272 264.472 259.038 259.402 260.179" stroke="black" stroke-width="0.73" stroke-linejoin="round"/>
<path d="M246.148 271.42C247.522 268.324 256.365 265.615 261.841 265.383L283.378 265.925" stroke="black" stroke-width="0.73" stroke-linejoin="round"/>
<path d="M262.171 265.383C265.925 267.743 262.926 275.522 255.457 273.877" stroke="black" stroke-width="0.73" stroke-linejoin="round"/>
<path fill-rule="evenodd" clip-rule="evenodd" d="M227.168 113.777L231.348 125.116H265.442L269.622 113.777C265.036 115.712 259.366 116.428 255.864 119.698C253.929 116.621 250.891 114.88 248.395 112.461C245.899 114.88 242.725 116.524 240.926 119.698C236.495 116.699 231.754 115.75 227.168 113.777Z" fill="white" stroke="black" stroke-width="0.73" stroke-linejoin="round"/>
<path d="M265.074 125.117H231.715C230.582 125.117 229.664 126.035 229.664 127.168V127.342C229.664 128.475 230.582 129.394 231.715 129.394H265.074C266.207 129.394 267.125 128.475 267.125 127.342V127.168C267.125 126.035 266.207 125.117 265.074 125.117Z" fill="white" stroke="black" stroke-width="0.93" stroke-linejoin="round"/>
<path d="M225.93 246.81C226.704 253.292 241.177 247.139 245.454 244.469" stroke="black" stroke-width="0.73" stroke-linejoin="round"/>
<path fill-rule="evenodd" clip-rule="evenodd" d="M46.9822 147.946C47.0843 144.889 46.7851 141.831 46.0921 138.852C48.4915 142.412 52.2647 145.411 54.548 149.842C54.548 150.481 54.664 151.119 54.7608 151.777C54.1803 147.907 54.7608 144.037 53.503 140.787C54.9053 142.63 56.4173 144.388 58.0309 146.05C59.0442 144.517 59.5394 142.699 59.4435 140.864C60.2793 143.976 60.9255 147.136 61.3785 150.326C62.3072 151.758 62.4233 153.383 63.0425 151.971C63.1805 151.335 63.2582 150.687 63.2747 150.036C63.3021 150.381 63.3539 150.724 63.4295 151.061C64.0014 150.01 64.648 149.001 65.3645 148.043C66.5155 146.407 67.0751 144.428 66.9512 142.431C67.2608 144.966 70.0278 150.287 68.8862 157.215L69.0023 157.079C70.2841 155.545 70.971 153.602 70.9373 151.603C71.2856 154.525 73.7623 160.369 71.6532 167.47C71.9628 167.141 72.2918 166.851 72.6207 166.561C74.0316 165.168 74.8907 163.313 75.0394 161.336C75.2136 164.587 76.9744 170.721 73.9171 177.435C74.4009 177.068 74.8846 176.739 75.3684 176.429C76.916 175.194 77.9503 173.429 78.2708 171.475C78.2708 174.862 79.1609 180.725 75.8715 186.588L76.5487 186.239C78.1731 185.11 79.3129 183.411 79.7414 181.479C79.5673 185.349 80.0123 191.464 75.8715 197.056C76.3939 196.843 76.9164 196.63 77.4388 196.456C79.3738 195.74 80.2058 193.689 81.0572 192.064C80.5348 196.127 80.2639 202.222 75.4651 207.157C76.065 206.982 76.6455 206.847 77.2066 206.731C79.277 206.286 80.1671 204.215 81.1927 202.687C80.3219 206.982 79.3545 212.903 74.1494 217.122C74.7686 217.122 75.3684 216.948 75.9489 216.909C78.0774 216.754 79.0642 214.664 80.2832 213.271C79.0642 217.528 77.5549 222.946 72.5433 226.448H73.3173C75.4651 226.448 76.51 224.359 77.8258 223.062C76.3165 227.629 74.3622 233.008 68.9249 236.026L70.2407 236.162C72.3691 236.472 73.5108 234.324 74.9814 233.163C72.0983 240.148 68.0154 248.101 54.1029 246.417C54.5001 245.469 54.9524 244.546 55.4574 243.65C54.4057 244.049 53.3167 244.341 52.2066 244.521C49.7061 244.908 47.1607 244.908 44.6602 244.521C45.7102 242.056 47.2058 239.806 49.0719 237.884C47.8081 235.627 47.0365 233.127 46.808 230.551L46.1114 229.777C47.0672 234.038 46.463 238.5 44.4086 242.354C34.4434 231.363 37.5781 223.004 40.7902 216.309C40.7902 218.244 40.0743 220.566 41.6223 222.211L42.0286 222.656C40.2871 217.199 41.7964 212.265 43.3831 207.969C43.654 209.904 43.0541 212.207 44.7376 213.774C45.0859 214.064 45.4535 214.393 45.8018 214.742C43.1702 209.188 44.3892 203.906 45.8018 199.262C46.1888 201.1 45.8018 203.441 47.524 204.738L48.2399 205.28C45.3374 200.094 46.1501 194.85 47.1563 190.245C47.6594 192.044 47.4078 194.366 49.2461 195.489L49.5944 195.701C47.2067 191.694 46.3865 186.945 47.2918 182.369C46.1977 179.161 45.7633 175.765 46.0147 172.385C46.8467 173.991 47.0208 176.255 48.9558 176.951H49.2267C45.2407 173.081 44.6021 168.07 44.3506 163.542C42.8954 160.642 42.0149 157.488 41.7577 154.254C42.7832 155.667 43.2864 157.834 45.2407 158.124L45.9566 158.24C40.887 154.931 39.6679 149.629 38.8939 144.869C39.9388 146.205 40.5193 148.352 42.4543 148.565C44.0111 148.711 45.5373 149.09 46.9822 149.687C46.7693 148.759 46.5758 147.753 46.421 146.92C46.5564 147.288 46.7693 147.617 46.9822 147.946ZM47.5626 167.509C46.5542 166.704 45.6735 165.752 44.9505 164.684C45.4922 165.922 46.0727 167.141 47.4659 167.489L47.5626 167.509Z" fill="#FDD000" stroke="black" stroke-width="0.73" stroke-linecap="round" stroke-linejoin="round"/>
<path fill-rule="evenodd" clip-rule="evenodd" d="M67.2021 129.371C69.6789 129.12 75.0774 132.912 69.2918 138.582C64.9188 146.206 67.7438 153.133 69.8723 158.125L43.5178 159.286C39.4157 156.132 35.062 142.568 36.8228 136.879C35.5846 136.12 34.6368 134.968 34.1316 133.607C33.6264 132.245 33.5928 130.754 34.0364 129.371H67.2021Z" fill="white" stroke="black" stroke-width="0.73" stroke-linejoin="round"/>
<path d="M69.2906 138.584C67.9167 138.971 58.8223 138.43 50.5212 137.578C45.0065 136.998 43.0328 136.243 38.9113 136.146C43.9616 135.488 44.7162 128.542 35.6992 129.374" stroke="black" stroke-width="0.73" stroke-linejoin="round"/>
<path fill-rule="evenodd" clip-rule="evenodd" d="M71.7504 113.777L67.5709 125.116H33.4764L29.2969 113.777C33.8828 115.712 39.5523 116.428 43.0546 119.698C44.9896 116.621 48.0275 114.88 50.5237 112.461C53.0198 114.88 56.1932 116.524 57.9927 119.698C62.4238 116.699 67.1645 115.75 71.7504 113.777Z" fill="white" stroke="black" stroke-width="0.73" stroke-linejoin="round"/>
<path d="M67.2032 125.117H33.8441C32.7113 125.117 31.793 126.035 31.793 127.168V127.342C31.793 128.475 32.7113 129.394 33.8441 129.394H67.2032C68.336 129.394 69.2543 128.475 69.2543 127.342V127.168C69.2543 126.035 68.336 125.117 67.2032 125.117Z" fill="white" stroke="black" stroke-width="0.93" stroke-linejoin="round"/>
<path d="M41.7773 247.638C60.9724 218.613 66.9322 182.564 47.7178 141.891" stroke="black" stroke-width="0.72" stroke-linecap="round" stroke-linejoin="round"/>
<path fill-rule="evenodd" clip-rule="evenodd" d="M55.9582 162.903C43.4002 154.351 48.4505 145.701 46.0898 138.852C50.2694 145.063 58.6865 149.591 55.9582 162.903Z" fill="white" stroke="black" stroke-width="0.77" stroke-linecap="round" stroke-linejoin="round"/>
<path fill-rule="evenodd" clip-rule="evenodd" d="M56.9291 165.418C51.6853 156.478 54.7814 150.441 57.7612 146.397C58.9408 144.793 59.535 142.833 59.4447 140.844C59.8317 144.462 65.1141 153.924 56.9291 165.418Z" fill="white" stroke="black" stroke-width="0.77" stroke-linecap="round" stroke-linejoin="round"/>
<path fill-rule="evenodd" clip-rule="evenodd" d="M58.783 174.362C54.2938 164.9 57.9509 159.211 61.279 155.515C62.5461 153.988 63.2316 152.062 63.214 150.078C63.6784 154.122 68.0322 163.797 58.783 174.362Z" fill="white" stroke="black" stroke-width="0.73" stroke-linecap="round" stroke-linejoin="round"/>
<path fill-rule="evenodd" clip-rule="evenodd" d="M59.8872 183.439C56.5397 173.397 60.8934 168.269 64.686 165.076C66.1212 163.707 67.0143 161.866 67.2015 159.891C67.3756 164.36 70.4329 174.287 59.8872 183.439Z" fill="white" stroke="black" stroke-width="0.73" stroke-linecap="round" stroke-linejoin="round"/>
<path fill-rule="evenodd" clip-rule="evenodd" d="M60.1793 192.59C58.0702 182.102 63.0624 177.613 67.242 174.981C68.8136 173.777 69.8824 172.033 70.2412 170.086C70.1057 174.923 71.8473 185.005 60.1793 192.59Z" fill="white" stroke="black" stroke-width="0.73" stroke-linecap="round" stroke-linejoin="round"/>
<path fill-rule="evenodd" clip-rule="evenodd" d="M59.5978 201.7C58.4368 190.942 63.816 186.994 68.2471 184.808C69.9016 183.724 71.0786 182.049 71.5366 180.125C71.169 185.446 71.9817 195.373 59.5978 201.7Z" fill="white" stroke="black" stroke-width="0.73" stroke-linecap="round" stroke-linejoin="round"/>
<path fill-rule="evenodd" clip-rule="evenodd" d="M58.1836 210.757C58.319 199.786 64.1627 196.613 68.8453 195.045C70.7803 194.387 71.6898 192.336 72.5605 190.711C71.7285 196.438 71.2834 206.171 58.1836 210.757Z" fill="white" stroke="black" stroke-width="0.73" stroke-linecap="round" stroke-linejoin="round"/>
<path fill-rule="evenodd" clip-rule="evenodd" d="M55.9219 219.623C57.3731 208.632 63.6618 206.233 68.4412 205.323C70.5117 204.917 71.4405 202.866 72.5047 201.453C71.1502 207.432 69.5442 216.836 55.9219 219.623Z" fill="white" stroke="black" stroke-width="0.73" stroke-linecap="round" stroke-linejoin="round"/>
<path fill-rule="evenodd" clip-rule="evenodd" d="M52.8828 228.253C55.5918 217.359 62.0547 215.772 66.9889 215.482C69.1173 215.366 70.1429 213.296 71.3813 211.922C69.4463 218.307 66.7567 227.17 52.8828 228.253Z" fill="white" stroke="black" stroke-width="0.73" stroke-linecap="round" stroke-linejoin="round"/>
<path fill-rule="evenodd" clip-rule="evenodd" d="M49.0898 236.575C52.6889 225.778 59.2872 224.791 64.2407 224.965C66.3692 224.965 67.4529 222.933 68.8073 221.656C66.4467 228.371 63.0604 236.846 49.0898 236.575Z" fill="white" stroke="black" stroke-width="0.73" stroke-linecap="round" stroke-linejoin="round"/>
<path fill-rule="evenodd" clip-rule="evenodd" d="M44.6211 244.579C49.3812 234.091 56.0569 233.879 60.9717 234.672C63.0809 235.001 64.2805 232.892 65.7705 231.75C62.7519 238.639 58.4949 246.514 44.6211 244.579Z" fill="white" stroke="black" stroke-width="0.72" stroke-linecap="round" stroke-linejoin="round"/>
<path fill-rule="evenodd" clip-rule="evenodd" d="M54.5283 161.246C52.5933 150.971 46.7884 149.171 42.3572 148.649C40.4223 148.436 39.8418 146.308 38.7969 144.953C39.8418 151.706 41.8929 159.582 54.5283 161.246Z" fill="white" stroke="black" stroke-width="0.72" stroke-linecap="round" stroke-linejoin="round"/>
<path fill-rule="evenodd" clip-rule="evenodd" d="M57.0239 171.48C55.5534 161.07 49.7097 158.941 45.1431 158.206C43.2081 157.877 42.6857 155.71 41.6602 154.336C42.5309 161.147 44.2337 169.119 57.0239 171.48Z" fill="white" stroke="black" stroke-width="0.73" stroke-linecap="round" stroke-linejoin="round"/>
<path fill-rule="evenodd" clip-rule="evenodd" d="M58.5146 181.907C57.7986 171.323 52.0324 168.653 47.4658 167.492C45.5308 166.989 45.1632 164.763 44.2344 163.273C44.602 170.22 45.6469 178.424 58.5146 181.907Z" fill="white" stroke="black" stroke-width="0.73" stroke-linecap="round" stroke-linejoin="round"/>
<path fill-rule="evenodd" clip-rule="evenodd" d="M58.9205 192.433C59.0173 181.713 53.3865 178.501 48.8586 176.953C46.9236 176.276 46.7495 174.012 45.9175 172.406C45.7433 179.372 46.2464 187.731 58.9205 192.433Z" fill="white" stroke="black" stroke-width="0.73" stroke-linecap="round" stroke-linejoin="round"/>
<path fill-rule="evenodd" clip-rule="evenodd" d="M58.1658 202.905C59.501 192.146 54.1991 188.199 49.8067 186.032C47.8717 185.084 48.0072 182.781 47.3686 181.078C46.3818 188.102 45.9561 196.577 58.1658 202.905Z" fill="white" stroke="black" stroke-width="0.73" stroke-linecap="round" stroke-linejoin="round"/>
<path fill-rule="evenodd" clip-rule="evenodd" d="M56.2879 213.257C58.4551 202.517 53.4047 198.048 49.1478 195.435C47.3289 194.313 47.5805 191.991 47.058 190.211C45.6455 197.216 44.4458 205.73 56.2879 213.257Z" fill="white" stroke="black" stroke-width="0.73" stroke-linecap="round" stroke-linejoin="round"/>
<path fill-rule="evenodd" clip-rule="evenodd" d="M53.3877 223.297C56.3482 212.616 51.5881 207.643 47.5827 204.624C45.8219 203.347 46.2475 201.006 45.8605 199.148C43.7127 206.172 41.9326 214.686 53.3877 223.297Z" fill="white" stroke="black" stroke-width="0.73" stroke-linecap="round" stroke-linejoin="round"/>
<path fill-rule="evenodd" clip-rule="evenodd" d="M49.3231 233.086C53.0576 222.521 48.6265 217.083 44.7179 213.736C43.0344 212.284 43.6343 209.963 43.3634 208.047C40.8092 214.877 38.4679 223.295 49.3231 233.086Z" fill="white" stroke="black" stroke-width="0.73" stroke-linecap="round" stroke-linejoin="round"/>
<path fill-rule="evenodd" clip-rule="evenodd" d="M44.3674 242.373C49.1275 232.06 45.1801 226.08 41.6004 222.23C40.0524 220.585 40.8651 218.36 40.7684 216.328C37.5563 223.023 34.4022 231.363 44.3674 242.373Z" fill="white" stroke="black" stroke-width="0.75" stroke-linecap="round" stroke-linejoin="round"/>
<path d="M51.4531 249.629C70.0677 220.197 75.3115 184.071 55.3231 143.766" stroke="black" stroke-width="0.72" stroke-linecap="round" stroke-linejoin="round"/>
<path fill-rule="evenodd" clip-rule="evenodd" d="M63.8174 164.632C51.1046 156.331 55.9807 147.565 53.5039 140.773C57.7996 146.888 66.2942 151.28 63.8174 164.632Z" fill="white" stroke="black" stroke-width="0.77" stroke-linecap="round" stroke-linejoin="round"/>
<path fill-rule="evenodd" clip-rule="evenodd" d="M64.8432 167.179C59.4446 158.336 62.4245 152.241 65.3076 148.158C66.4586 146.522 67.0182 144.543 66.8943 142.547C67.3394 146.107 72.738 155.569 64.8432 167.179Z" fill="white" stroke="black" stroke-width="0.77" stroke-linecap="round" stroke-linejoin="round"/>
<path fill-rule="evenodd" clip-rule="evenodd" d="M66.9325 176.026C62.2692 166.66 65.8102 160.894 69.0803 157.14C70.3531 155.601 71.0387 153.661 71.0153 151.664C71.383 155.689 75.9302 165.248 66.9325 176.026Z" fill="white" stroke="black" stroke-width="0.73" stroke-linecap="round" stroke-linejoin="round"/>
<path fill-rule="evenodd" clip-rule="evenodd" d="M68.1513 185.083C64.6103 175.117 68.8673 169.893 72.6018 166.642C74.0096 165.24 74.8678 163.38 75.0205 161.398C75.2721 165.868 78.5422 175.737 68.1513 185.083Z" fill="white" stroke="black" stroke-width="0.73" stroke-linecap="round" stroke-linejoin="round"/>
<path fill-rule="evenodd" clip-rule="evenodd" d="M68.6137 194.276C66.3111 183.807 71.2066 179.241 75.3475 176.532C76.8952 175.297 77.9295 173.532 78.2499 171.578C78.1919 176.435 80.1462 186.419 68.6137 194.276Z" fill="white" stroke="black" stroke-width="0.73" stroke-linecap="round" stroke-linejoin="round"/>
<path fill-rule="evenodd" clip-rule="evenodd" d="M68.2074 203.35C66.8336 192.611 72.0773 188.567 76.5278 186.303C78.1579 185.188 79.3001 183.492 79.7205 181.562C79.469 186.884 80.4752 196.791 68.2074 203.35Z" fill="white" stroke="black" stroke-width="0.73" stroke-linecap="round" stroke-linejoin="round"/>
<path fill-rule="evenodd" clip-rule="evenodd" d="M66.9297 212.423C66.9297 201.471 72.7346 198.162 77.3205 196.517C79.2555 195.821 80.0876 193.75 80.939 192.125C80.2424 197.853 79.9715 207.586 66.9297 212.423Z" fill="white" stroke="black" stroke-width="0.73" stroke-linecap="round" stroke-linejoin="round"/>
<path fill-rule="evenodd" clip-rule="evenodd" d="M64.8789 221.365C66.1173 210.336 72.2706 207.82 77.108 206.814C79.1785 206.388 80.0685 204.318 81.1134 202.789C79.875 208.865 78.4238 218.288 64.8789 221.365Z" fill="white" stroke="black" stroke-width="0.73" stroke-linecap="round" stroke-linejoin="round"/>
<path fill-rule="evenodd" clip-rule="evenodd" d="M61.9961 230.012C64.4922 219.079 70.9357 217.357 75.8699 216.989C77.979 216.815 78.9852 214.745 80.1849 213.352C78.3661 219.756 75.8506 228.735 61.9961 230.012Z" fill="white" stroke="black" stroke-width="0.73" stroke-linecap="round" stroke-linejoin="round"/>
<path fill-rule="evenodd" clip-rule="evenodd" d="M58.3789 238.408C61.7651 227.552 68.3248 226.43 73.2977 226.527C75.4262 226.527 76.471 224.437 77.8062 223.141C75.5616 229.894 72.3301 238.427 58.3789 238.408Z" fill="white" stroke="black" stroke-width="0.73" stroke-linecap="round" stroke-linejoin="round"/>
<path fill-rule="evenodd" clip-rule="evenodd" d="M54.0625 246.517C58.6097 235.932 65.2854 235.584 70.2196 236.28C72.3288 236.59 73.4897 234.442 74.9603 233.281C72.0772 240.228 67.975 248.181 54.0625 246.517Z" fill="white" stroke="black" stroke-width="0.72" stroke-linecap="round" stroke-linejoin="round"/>
<path fill-rule="evenodd" clip-rule="evenodd" d="M62.3653 162.983C60.3142 152.766 54.4705 151.063 49.962 150.638C48.027 150.444 47.3885 148.335 46.3242 147C47.582 153.734 49.6911 161.57 62.3653 162.983Z" fill="white" stroke="black" stroke-width="0.72" stroke-linecap="round" stroke-linejoin="round"/>
<path fill-rule="evenodd" clip-rule="evenodd" d="M64.9974 173.181C63.3333 162.79 57.4316 160.797 52.8651 160.12C50.9301 159.849 50.3496 157.682 49.3047 156.25C50.3689 163.119 52.2265 171.053 64.9974 173.181Z" fill="white" stroke="black" stroke-width="0.73" stroke-linecap="round" stroke-linejoin="round"/>
<path fill-rule="evenodd" clip-rule="evenodd" d="M66.7379 183.574C65.8284 173.009 60.0235 170.455 55.4376 169.371C53.5026 168.926 53.0769 166.701 52.1094 165.211C52.6125 172.158 53.8896 180.342 66.7379 183.574Z" fill="white" stroke="black" stroke-width="0.73" stroke-linecap="round" stroke-linejoin="round"/>
<path fill-rule="evenodd" clip-rule="evenodd" d="M67.337 194.08C67.337 183.36 61.5321 180.264 57.0042 178.755C55.0692 178.116 54.8177 175.833 53.9663 174.266C53.9276 181.29 54.5855 189.649 67.337 194.08Z" fill="white" stroke="black" stroke-width="0.73" stroke-linecap="round" stroke-linejoin="round"/>
<path fill-rule="evenodd" clip-rule="evenodd" d="M66.7968 204.567C67.9191 193.789 62.5399 189.958 58.1281 187.849C56.1931 186.959 56.1931 184.637 55.5739 182.953C54.7419 189.996 54.4709 198.472 66.7968 204.567Z" fill="white" stroke="black" stroke-width="0.73" stroke-linecap="round" stroke-linejoin="round"/>
<path fill-rule="evenodd" clip-rule="evenodd" d="M65.131 214.957C67.066 204.18 61.9383 199.807 57.6426 197.291C55.8044 196.207 55.9979 193.866 55.4561 192.086C54.0629 199.129 53.1341 207.663 65.131 214.957Z" fill="white" stroke="black" stroke-width="0.73" stroke-linecap="round" stroke-linejoin="round"/>
<path fill-rule="evenodd" clip-rule="evenodd" d="M62.3461 225.119C65.1131 214.38 60.2563 209.503 56.1154 206.562C54.3352 205.305 54.7222 202.963 54.1804 201.125C52.3616 208.13 50.7942 216.663 62.3461 225.119Z" fill="white" stroke="black" stroke-width="0.73" stroke-linecap="round" stroke-linejoin="round"/>
<path fill-rule="evenodd" clip-rule="evenodd" d="M58.5327 234.91C62.0737 224.268 57.5265 218.908 53.5598 215.56C51.857 214.128 52.3988 211.787 52.1085 209.891C49.6705 216.876 47.5807 225.409 58.5327 234.91Z" fill="white" stroke="black" stroke-width="0.73" stroke-linecap="round" stroke-linejoin="round"/>
<path fill-rule="evenodd" clip-rule="evenodd" d="M53.7553 244.296C58.3218 233.905 54.2777 228.003 50.6012 224.23C49.0339 222.604 49.8079 220.36 49.6724 218.328C46.5958 225.081 43.5966 233.498 53.7553 244.296Z" fill="white" stroke="black" stroke-width="0.75" stroke-linecap="round" stroke-linejoin="round"/>
<path fill-rule="evenodd" clip-rule="evenodd" d="M6.4434 279.799C-3.23153 276.49 1.5479 266.892 15.4024 265.944C16.0136 265.859 16.5864 265.596 17.0499 265.189C17.5133 264.782 17.8471 264.247 18.0098 263.652C18.1726 263.057 18.1571 262.427 17.9653 261.84C17.7736 261.254 17.414 260.736 16.931 260.352C13.6609 260.352 11.8033 260.836 8.43643 260.874C2.49603 262.093 2.16712 252.186 9.86836 250.135L19.4465 249.651C26.1609 250.464 26.9736 243.111 21.962 242.724C12.945 242.357 14.5897 232.411 22.1362 232.198C26.3598 232.104 30.5609 232.84 34.5007 234.365C37.6547 233.03 36.4357 228.676 32.7012 227.612C39.0673 225.677 48.4906 229.837 53.4829 235.855C58.1075 230.05 67.5502 236.784 73.2004 236.881C71.0719 243.498 78.599 256.695 60.0425 249.651C58.1075 249.148 57.6431 250.929 58.4752 252.573C59.3072 254.218 60.2553 255.36 60.0812 256.037C59.52 257.237 57.9914 257.546 53.1152 258.456C56.0564 261.861 56.9852 269.214 56.2112 270.491L39.8413 274.826L6.4434 279.799Z" fill="white" stroke="black" stroke-width="0.73" stroke-linejoin="round"/>
<path d="M60.0418 249.654C52.4342 243.177 43.8025 238.011 34.5 234.367" stroke="black" stroke-width="0.73" stroke-linejoin="round"/>
<path d="M21.9609 242.648C40.5368 243.5 53.6753 248.144 60.0801 255.961" stroke="black" stroke-width="0.73" stroke-linejoin="round"/>
<path d="M53.1172 258.455C49.4134 255.241 45.15 252.735 40.5398 251.063C36.2442 249.573 21.519 249.651 16.875 249.767" stroke="black" stroke-width="0.73" stroke-linejoin="round"/>
<path d="M56.2099 270.493C55.939 264.862 43.2067 261.34 39.5109 260.141C30.9776 260.295 23.3925 259.966 16.9297 260.353" stroke="black" stroke-width="0.73" stroke-linejoin="round"/>
<path d="M37.908 250.505C32.4514 250.272 34.3863 259.038 39.456 260.179" stroke="black" stroke-width="0.73" stroke-linejoin="round"/>
<path d="M52.7681 271.42C51.3943 268.324 42.5321 265.615 37.0755 265.383L15.5391 265.925" stroke="black" stroke-width="0.73" stroke-linejoin="round"/>
<path d="M36.7468 265.383C32.9929 267.743 35.9921 275.522 43.4612 273.877" stroke="black" stroke-width="0.73" stroke-linejoin="round"/>
<path d="M72.9888 246.81C72.1955 253.292 57.7412 247.139 53.4648 244.469" stroke="black" stroke-width="0.73" stroke-linejoin="round"/>
<path fill-rule="evenodd" clip-rule="evenodd" d="M149.458 241.391C147.891 239.301 143.653 237.095 137.306 236.611C125.948 235.74 109.849 237.908 104.238 238.217L90.8862 265.462C90.5523 268.771 89.058 271.856 86.668 274.169C99.0906 274.169 118.092 267.977 138.448 274.498C141.815 276.936 143.421 281.096 144.485 281.619C146.137 281.852 147.816 281.82 149.458 281.522C151.093 281.82 152.766 281.853 154.412 281.619C155.495 281.096 157.101 276.936 160.468 274.498C180.805 267.977 199.826 274.111 212.248 274.169C209.859 271.853 208.36 268.771 208.011 265.462L194.64 238.217C189.029 237.908 172.93 235.74 161.571 236.611C155.302 237.095 151.026 239.301 149.458 241.391Z" fill="white" stroke="black" stroke-width="0.73" stroke-linecap="round" stroke-linejoin="round"/>
<path d="M149.459 241.391V272.234C142.222 259.715 102.555 263.991 90.8867 265.462" stroke="black" stroke-width="0.73" stroke-linecap="round" stroke-linejoin="round"/>
<path d="M149.457 272.231C156.675 259.711 196.361 263.988 208.01 265.458" stroke="black" stroke-width="0.73" stroke-linecap="round" stroke-linejoin="round"/>
</svg>
