<svg width="33" height="32" viewBox="0 0 33 32" fill="none" xmlns="http://www.w3.org/2000/svg">
<path d="M21.1667 18.6667H20.1133L19.74 18.3067C21.0467 16.7867 21.8333 14.8133 21.8333 12.6667C21.8333 7.88 17.9533 4 13.1667 4C8.38 4 4.5 7.88 4.5 12.6667C4.5 17.4533 8.38 21.3333 13.1667 21.3333C15.3133 21.3333 17.2867 20.5467 18.8067 19.24L19.1667 19.6133V20.6667L25.8333 27.32L27.82 25.3333L21.1667 18.6667ZM13.1667 18.6667C9.84667 18.6667 7.16667 15.9867 7.16667 12.6667C7.16667 9.34667 9.84667 6.66667 13.1667 6.66667C16.4867 6.66667 19.1667 9.34667 19.1667 12.6667C19.1667 15.9867 16.4867 18.6667 13.1667 18.6667Z" fill="#A3A3A3"/>
</svg>
