<svg width="21" height="26" viewBox="0 0 21 26" fill="none" xmlns="http://www.w3.org/2000/svg">
<path d="M1.92856 0.744141H14.0664L20.5 7.61664V23.7239C20.5 24.5703 19.86 25.2559 19.0714 25.2559H1.92856C1.13997 25.2559 0.5 24.5703 0.5 23.7239V2.27611C0.5 1.42972 1.14004 0.744141 1.92856 0.744141Z" fill="#E2574C"/>
<path d="M20.4794 7.63837H15.5001C14.7115 7.63837 14.0715 6.95208 14.0715 6.1064V0.759766L20.4794 7.63837Z" fill="#B53629"/>
<path d="M15.1415 12.3582C15.3808 12.3582 15.498 12.1346 15.498 11.9178C15.498 11.6933 15.3758 11.4766 15.1415 11.4766H13.7787C13.5122 11.4766 13.3637 11.7132 13.3637 11.9745V15.5662C13.3637 15.8864 13.5336 16.0641 13.7636 16.0641C13.9922 16.0641 14.163 15.8864 14.163 15.5662V14.5804H14.9873C15.243 14.5804 15.3708 14.3559 15.3708 14.133C15.3708 13.9148 15.243 13.6979 14.9873 13.6979H14.163V12.3582H15.1415ZM10.5351 11.4766H9.5379C9.26718 11.4766 9.07502 11.6757 9.07502 11.9714V15.5693C9.07502 15.9361 9.35143 16.0511 9.54928 16.0511H10.5957C11.8343 16.0511 12.6521 15.1771 12.6521 13.8281C12.6515 12.4019 11.8815 11.4766 10.5351 11.4766ZM10.583 15.1641H9.97507V12.3636H10.5229C11.3523 12.3636 11.7129 12.9603 11.7129 13.7837C11.7129 14.5544 11.3586 15.1641 10.583 15.1641ZM6.93007 11.4766H5.94222C5.66293 11.4766 5.5072 11.6742 5.5072 11.9745V15.5662C5.5072 15.8864 5.68576 16.0641 5.92574 16.0641C6.16572 16.0641 6.34428 15.8864 6.34428 15.5662V14.5175H6.96355C7.72783 14.5175 8.35856 13.9369 8.35856 13.0031C8.35863 12.0894 7.75008 11.4766 6.93007 11.4766ZM6.91366 13.675H6.34435V12.3199H6.91366C7.2651 12.3199 7.48867 12.6141 7.48867 12.9978C7.48793 13.3809 7.2651 13.675 6.91366 13.675Z" fill="white"/>
</svg>
