<svg width="312" height="312" viewBox="0 0 312 312" fill="none" xmlns="http://www.w3.org/2000/svg">
<path d="M281.624 129.618C277.256 121.842 269.674 115.178 260.52 113.961C251.104 112.713 241.869 117.318 234.48 123.041C227.06 128.763 220.721 135.764 215.76 143.714C212.871 148.369 209.92 153.773 204.485 155.289C199.368 156.712 193.989 154.041 189.864 150.809C185.74 147.576 182.033 143.633 177.06 141.792C164.106 136.993 149.654 148.5 136.2 145.18C124.613 142.322 119.065 130.204 111.864 121.062C99.971 106.012 79.3042 97.313 59.8478 100.47C40.3915 103.628 25.584 136.332 22.907 155.008L289.411 154.921C287.739 146.235 286.01 137.386 281.624 129.618Z" fill="#EBEBEB"/>
<path d="M73.2264 62.157C73.4636 60.416 71.0112 58.9871 69.1642 58.8373C68.2826 58.873 67.3999 58.7976 66.5371 58.6127C64.7338 57.9887 64.0412 55.6487 62.2503 54.9061C60.9336 54.3508 59.4173 54.8437 58.1444 55.4864C56.8714 56.1292 55.6047 56.9404 54.1757 57.0277C52.9277 57.1088 51.5861 56.6471 50.5004 57.2524C49.6954 57.7079 49.2524 58.6376 48.5223 59.1868C47.7496 59.6728 46.8516 59.9222 45.9389 59.9044C45.0318 59.8822 44.1284 60.0282 43.2744 60.3349C42.8509 60.5001 42.4921 60.7977 42.2515 61.1834C42.0108 61.5691 41.9013 62.0222 41.9391 62.4753L73.2264 62.157Z" fill="#F5F5F5"/>
<path d="M156.144 78.7117C156.381 76.9707 153.928 75.5418 152.081 75.392C151.2 75.4277 150.317 75.3523 149.454 75.1674C147.651 74.5434 146.958 72.2034 145.167 71.4608C143.851 70.9055 142.334 71.3984 141.061 72.0411C139.788 72.6839 138.522 73.4951 137.093 73.5887C135.845 73.6635 134.503 73.208 133.424 73.8133C132.613 74.2626 132.176 75.1923 131.446 75.7477C130.668 76.2247 129.768 76.4673 128.856 76.4466C127.948 76.4233 127.044 76.5715 126.192 76.8834C125.769 77.0483 125.411 77.3449 125.171 77.7293C124.93 78.1137 124.82 78.5655 124.856 79.0175L156.144 78.7117Z" fill="#F5F5F5"/>
<path d="M292.094 77.6882C292.525 74.5682 288.107 71.9786 284.781 71.7103C283.196 71.5855 281.555 71.8289 280.051 71.3047C276.8 70.169 275.502 65.9695 272.326 64.6279C269.955 63.6295 267.228 64.5218 264.925 65.6762C262.623 66.8306 260.352 68.2908 257.787 68.4593C255.553 68.5965 253.126 67.7729 251.166 68.8649C249.712 69.6761 248.951 71.3609 247.603 72.3468C246.255 73.3327 244.577 73.5199 242.948 73.5948C241.32 73.6697 239.629 73.7009 238.143 74.381C236.658 75.0612 235.435 76.6274 235.741 78.2311L292.094 77.6882Z" fill="#EBEBEB"/>
<path d="M163.825 46.6254C164.368 42.663 158.783 39.4058 154.577 39.0688C152.574 38.9066 150.496 39.2123 148.599 38.5509C144.487 37.1157 142.846 31.8054 138.834 30.1144C135.832 28.8664 132.382 29.9771 129.474 31.4373C126.566 32.8974 123.696 34.7445 120.432 34.9442C117.605 35.1251 114.535 34.0768 112.064 35.4621C110.192 36.4854 109.256 38.5821 107.559 39.8301C105.862 41.0781 103.734 41.3152 101.668 41.4275C99.6029 41.5398 97.475 41.5586 95.5968 42.4197C93.7186 43.2808 92.171 45.2651 92.5579 47.2931L163.825 46.6254Z" fill="#EBEBEB"/>
<path d="M11.6251 227.373L13.6094 209.171L126.822 216.578C129.276 216.74 131.701 215.966 133.608 214.412C135.515 212.859 136.762 210.64 137.099 208.204L144.481 154.752H170.146L181.247 209.421C181.708 211.696 182.968 213.732 184.799 215.159C186.63 216.586 188.912 217.311 191.231 217.202L297.586 212.335V231.442L204.204 247.354C202.021 247.57 199.904 248.226 197.981 249.281C196.057 250.337 194.367 251.77 193.012 253.496C191.657 255.221 190.664 257.202 190.095 259.321C189.525 261.44 189.389 263.652 189.696 265.824L194.064 296.962H128.238L130.903 268.451C131.396 263.185 129.868 257.928 126.63 253.747C123.391 249.565 118.684 246.771 113.462 245.931L11.6251 227.373Z" fill="#E0E0E0"/>
<path d="M162.209 204.017H156L157.473 177.359L160.168 177.366L162.209 204.017Z" fill="#F5F5F5"/>
<path d="M164.443 265.543H156L157.504 232.534L162.121 232.546L164.443 265.543Z" fill="#F5F5F5"/>
<path d="M202.5 233.888L201.901 228.727L234.799 225.851L235.691 229.276L202.5 233.888Z" fill="#F5F5F5"/>
<path d="M269.181 226.793L268.588 221.632L297.579 219.093V222.843L269.181 226.793Z" fill="#F5F5F5"/>
<path d="M117.705 230.811L118.304 225.651L85.4069 222.768L84.5146 226.2L117.705 230.811Z" fill="#F5F5F5"/>
<path d="M44.8157 222.768L45.2899 218.65L13.0229 214.531L12.611 218.294L44.8157 222.768Z" fill="#F5F5F5"/>
<path d="M200.129 205.415H194.763V42.6754C194.763 41.9638 195.046 41.2813 195.549 40.7781C196.052 40.2749 196.734 39.9922 197.446 39.9922C198.157 39.9938 198.839 40.2771 199.342 40.7799C199.844 41.2827 200.128 41.9643 200.129 42.6754V205.415Z" fill="#263238"/>
<path d="M171.999 108.514L186.869 107.135L223.629 126.922L221.171 131.483L216.534 131.465L219.623 134.366L216.26 140.612L179.737 120.956L171.999 108.514Z" fill="#106FA4"/>
<path opacity="0.3" d="M171.999 108.514L186.869 107.135L223.629 126.922L221.171 131.483L216.534 131.465L219.623 134.366L216.26 140.612L179.737 120.956L171.999 108.514Z" fill="black"/>
<path d="M171.544 106.623L182.04 105.649C183.221 105.539 184.408 105.78 185.453 106.342L220.609 125.262L218.15 129.829H213.514L216.603 132.731L213.24 138.971L178.133 120.076C177.209 119.577 176.43 118.846 175.874 117.955L170.352 109.044C170.208 108.815 170.125 108.553 170.111 108.283C170.097 108.013 170.153 107.743 170.272 107.501C170.392 107.258 170.571 107.05 170.794 106.896C171.016 106.743 171.275 106.648 171.544 106.623Z" fill="#106FA4"/>
<g opacity="0.2">
<path d="M211.729 138.197C211.602 137.662 211.391 137.151 211.105 136.681C210.225 135.466 209.109 134.441 207.823 133.667C203.757 130.819 199.415 128.386 194.863 126.403C192.198 125.237 189.577 124.326 187.219 123.427C185.112 122.663 183.052 121.777 181.047 120.775C179.697 120.093 178.41 119.291 177.204 118.379C176.773 118.061 176.467 117.755 176.249 117.599C176.134 117.511 176.029 117.411 175.937 117.299C175.937 117.299 176.411 117.661 177.278 118.273C178.504 119.144 179.8 119.912 181.153 120.569C183.162 121.54 185.222 122.4 187.325 123.146C189.684 124.026 192.317 124.931 194.994 126.104C199.566 128.095 203.913 130.567 207.96 133.48C209.253 134.28 210.363 135.343 211.218 136.6C211.431 136.957 211.583 137.347 211.667 137.754C211.694 137.858 211.711 137.965 211.717 138.072C211.729 138.16 211.736 138.197 211.729 138.197Z" fill="black"/>
<path d="M172.792 106.704C172.629 107.37 172.612 108.064 172.742 108.738C172.903 109.524 173.226 110.268 173.69 110.922C174.32 111.778 175.068 112.54 175.912 113.187C178.1 114.906 180.392 116.488 182.776 117.923C185.465 119.558 188.517 121.193 191.755 122.846L208.341 131.32C210.432 132.412 212.141 133.292 213.333 133.922L214.687 134.646C214.846 134.726 215.001 134.816 215.149 134.915C214.978 134.86 214.813 134.789 214.656 134.702L213.277 134.035L208.216 131.539L191.618 123.115C188.379 121.455 185.322 119.808 182.632 118.123C180.241 116.67 177.948 115.061 175.768 113.306C174.915 112.639 174.165 111.85 173.541 110.966C173.075 110.287 172.76 109.517 172.617 108.707C172.523 108.195 172.523 107.671 172.617 107.159C172.662 107.002 172.72 106.85 172.792 106.704Z" fill="black"/>
<path d="M187.244 113.499C187.127 113.361 187.022 113.213 186.932 113.056C186.646 112.623 186.335 112.206 186.002 111.808C184.778 110.374 183.258 109.222 181.547 108.432C180.988 108.164 180.402 107.955 179.799 107.808C179.162 107.647 178.491 107.677 177.871 107.896C177.548 108.006 177.257 108.196 177.026 108.448C176.795 108.699 176.63 109.005 176.548 109.337C176.481 110.077 176.705 110.813 177.172 111.39C178.969 113.98 181.821 116.089 184.979 117.88C185.771 118.329 186.564 118.772 187.35 119.171C188.097 119.587 188.93 119.826 189.783 119.87C190.184 119.89 190.583 119.818 190.951 119.659C191.319 119.5 191.645 119.258 191.905 118.953C192.355 118.318 192.539 117.532 192.417 116.763C192.295 116.017 192.032 115.301 191.643 114.654C191.275 114.03 190.869 113.406 190.476 112.825C189.737 111.759 188.902 110.762 187.98 109.849C186.632 108.531 185.084 107.434 183.394 106.598C182.77 106.304 182.32 106.099 181.99 105.974C181.823 105.911 181.661 105.838 181.503 105.755C181.678 105.793 181.849 105.845 182.015 105.911C182.503 106.079 182.982 106.273 183.45 106.492C185.179 107.291 186.763 108.373 188.136 109.693C189.086 110.603 189.947 111.602 190.707 112.676C191.106 113.256 191.518 113.861 191.899 114.548C192.31 115.223 192.589 115.971 192.722 116.75C192.859 117.603 192.655 118.474 192.155 119.178C191.866 119.52 191.503 119.793 191.093 119.973C190.683 120.154 190.237 120.238 189.79 120.22C188.882 120.183 187.995 119.935 187.2 119.496C186.395 119.09 185.609 118.647 184.81 118.198C181.634 116.401 178.745 114.26 176.923 111.596C176.424 110.948 176.2 110.13 176.299 109.318C176.392 108.942 176.579 108.595 176.842 108.309C177.105 108.023 177.435 107.808 177.803 107.684C178.474 107.452 179.199 107.424 179.887 107.602C180.502 107.745 181.101 107.954 181.671 108.226C183.887 109.251 185.748 110.91 187.019 112.994C187.104 113.158 187.179 113.326 187.244 113.499Z" fill="black"/>
<path d="M219.548 127.339C219.548 127.371 219.043 127.127 218.088 126.934C216.726 126.717 215.338 126.717 213.976 126.934C212.247 127.127 210.232 127.664 207.854 127.689C206.619 127.695 205.391 127.484 204.229 127.065C202.987 126.613 201.819 125.983 200.76 125.193C198.742 123.65 197.028 121.745 195.705 119.577C194.631 117.819 193.664 115.998 192.81 114.123C192.055 112.538 191.437 111.265 190.975 110.379L190.451 109.381C190.38 109.269 190.324 109.15 190.283 109.025C190.368 109.125 190.443 109.234 190.507 109.349C190.651 109.568 190.844 109.892 191.088 110.317C191.581 111.171 192.236 112.432 193.016 114.004C193.894 115.855 194.875 117.655 195.955 119.396C197.271 121.521 198.963 123.39 200.947 124.912C202.926 126.445 205.345 127.301 207.848 127.352C210.145 127.352 212.216 126.84 213.945 126.672C215.33 126.481 216.737 126.528 218.107 126.809C218.476 126.893 218.837 127.008 219.186 127.152C219.315 127.198 219.437 127.261 219.548 127.339Z" fill="black"/>
<path d="M206.675 121.056C206.546 121.021 206.421 120.975 206.301 120.918C206.064 120.819 205.72 120.663 205.277 120.438C204.834 120.213 204.316 119.926 203.724 119.552C203.424 119.369 203.112 119.161 202.788 118.928C202.411 118.712 202.09 118.411 201.852 118.048C201.778 117.931 201.745 117.792 201.759 117.655C201.772 117.517 201.831 117.387 201.926 117.287C202.034 117.202 202.161 117.145 202.296 117.122C202.431 117.098 202.57 117.107 202.7 117.149C203.187 117.281 203.642 117.443 204.135 117.611C205.109 117.954 206.138 118.366 207.193 118.859C208.297 119.369 209.372 119.94 210.413 120.569C211.012 120.87 211.528 121.314 211.917 121.861C212.023 122.017 212.093 122.195 212.121 122.382C212.148 122.57 212.133 122.761 212.076 122.941C212.018 123.121 211.921 123.286 211.791 123.423C211.661 123.56 211.501 123.666 211.324 123.733C210.673 123.959 209.98 124.036 209.296 123.957C208.648 123.926 208.003 123.842 207.368 123.708C206.164 123.465 205.001 123.056 203.911 122.491C202.365 121.693 200.996 120.593 199.883 119.257C198.771 117.92 197.938 116.374 197.434 114.71C197.321 114.35 197.231 113.983 197.165 113.611C197.133 113.483 197.116 113.351 197.115 113.218C197.147 113.218 197.246 113.749 197.558 114.672C197.997 115.974 198.628 117.202 199.43 118.316C200.634 119.963 202.21 121.301 204.029 122.223C205.098 122.766 206.236 123.161 207.411 123.396C208.029 123.522 208.654 123.601 209.283 123.633C209.914 123.71 210.555 123.641 211.155 123.433C211.292 123.378 211.415 123.294 211.515 123.186C211.616 123.078 211.691 122.95 211.736 122.809C211.774 122.674 211.782 122.531 211.76 122.392C211.737 122.253 211.684 122.121 211.605 122.004C211.245 121.501 210.77 121.092 210.219 120.812C209.188 120.189 208.126 119.618 207.037 119.103C205.995 118.61 204.978 118.192 204.017 117.855C203.536 117.68 203.056 117.505 202.619 117.387C202.527 117.352 202.428 117.34 202.331 117.351C202.233 117.361 202.14 117.395 202.057 117.449C201.998 117.513 201.962 117.595 201.955 117.683C201.948 117.77 201.971 117.857 202.02 117.929C202.24 118.265 202.534 118.545 202.881 118.747C203.193 118.984 203.505 119.19 203.786 119.371C204.366 119.752 204.884 120.057 205.309 120.294C205.733 120.532 206.07 120.712 206.301 120.831C206.435 120.889 206.561 120.964 206.675 121.056Z" fill="black"/>
</g>
<path d="M230.256 93.2881L230.175 93.2195L219.66 86.9795L178.015 84.0654L177.653 89.2321L181.584 91.7281L177.428 92.5331L176.929 99.6093L215.941 102.336C217.472 102.443 219.003 102.148 220.384 101.481L228.103 97.7373C229.726 96.9573 230.256 95.1477 230.256 93.2881Z" fill="#106FA4"/>
<path opacity="0.3" d="M230.256 93.2881L230.175 93.2195L219.66 86.9795L178.015 84.0654L177.653 89.2321L181.584 91.7281L177.428 92.5331L176.929 99.6093L215.941 102.336C217.472 102.443 219.003 102.148 220.384 101.481L228.103 97.7373C228.821 97.2504 229.399 96.5827 229.777 95.8016C230.155 95.0205 230.32 94.1535 230.256 93.2881Z" fill="black"/>
<path d="M229.632 92.4517L221.283 86.0182C220.344 85.2897 219.211 84.8554 218.026 84.7702L178.196 81.981L177.834 87.1539L181.765 89.6125L177.609 90.4174L177.11 97.4936L216.884 100.283C217.932 100.356 218.982 100.154 219.929 99.6963L229.357 95.1349C229.599 95.0158 229.807 94.8371 229.961 94.6158C230.115 94.3944 230.21 94.1375 230.238 93.8693C230.265 93.601 230.224 93.3302 230.118 93.0823C230.012 92.8343 229.845 92.6173 229.632 92.4517Z" fill="#106FA4"/>
<g opacity="0.2">
<path d="M178.77 97.6748C178.77 97.6748 178.77 97.6373 178.832 97.5812C178.896 97.4941 178.967 97.4127 179.044 97.3378C179.336 97.0426 179.673 96.7961 180.043 96.6077C181.438 95.9917 182.948 95.6811 184.473 95.6967C189.451 95.3912 194.447 95.6234 199.374 96.3893C202.263 96.8261 204.99 97.4689 207.436 97.9868C209.613 98.4795 211.815 98.8524 214.032 99.1037C215.526 99.2686 217.03 99.3124 218.531 99.2348C219.592 99.1786 220.178 99.0913 220.185 99.1287C220.046 99.1699 219.904 99.1971 219.76 99.2098C219.347 99.2827 218.931 99.3327 218.512 99.3596C217.005 99.4972 215.489 99.4972 213.982 99.3596C211.753 99.1358 209.538 98.7837 207.349 98.305C204.853 97.7996 202.17 97.1693 199.299 96.7325C194.391 95.9809 189.421 95.7196 184.461 95.9525C182.966 95.9214 181.481 96.1909 180.093 96.745C179.606 96.9842 179.16 97.2979 178.77 97.6748Z" fill="black"/>
<path d="M228.521 91.834C228.495 92.0111 228.449 92.1848 228.384 92.3519C228.196 92.8367 227.921 93.283 227.573 93.6685C227.015 94.2735 226.337 94.7559 225.582 95.085C224.586 95.4963 223.535 95.7611 222.462 95.8713C219.681 96.1918 216.881 96.3252 214.082 96.2706C210.931 96.2332 207.468 95.9961 203.842 95.6466L185.303 93.8557L179.687 93.2692L178.158 93.0945C177.982 93.0824 177.806 93.0552 177.634 93.0133C177.811 92.9968 177.988 92.9968 178.164 93.0133L179.7 93.1257L185.316 93.6061L203.867 95.3034C207.486 95.6341 210.937 95.8775 214.082 95.9274C216.867 95.9975 219.654 95.8891 222.425 95.6029C223.494 95.5079 224.544 95.2621 225.545 94.8729C226.286 94.5699 226.956 94.115 227.51 93.5375C227.963 93.0465 228.307 92.4662 228.521 91.834Z" fill="black"/>
<path d="M212.665 89.8563C212.815 89.7568 212.972 89.6672 213.133 89.5879C213.598 89.3628 214.075 89.1649 214.562 88.9951C216.368 88.386 218.287 88.1878 220.178 88.4148C220.815 88.4837 221.442 88.6197 222.05 88.8204C222.728 89.0352 223.327 89.4455 223.773 89.9998C224.017 90.3024 224.181 90.6618 224.25 91.0446C224.318 91.4274 224.289 91.8213 224.166 92.19C223.809 92.9267 223.177 93.4937 222.406 93.7687C219.436 95.0167 215.854 95.31 212.204 95.1291C211.286 95.0854 210.388 95.0417 209.496 94.9543C208.591 94.9016 207.712 94.6411 206.925 94.1931C206.536 93.9699 206.203 93.6603 205.953 93.288C205.703 92.9158 205.543 92.4909 205.483 92.0465C205.437 91.1856 205.731 90.341 206.301 89.694C206.828 89.1045 207.463 88.6216 208.173 88.2713C208.84 87.9219 209.508 87.6473 210.163 87.3478C211.372 86.8481 212.626 86.4637 213.907 86.1996C215.773 85.8153 217.691 85.7478 219.579 85.9999C220.092 86.0624 220.6 86.154 221.102 86.2745C221.28 86.307 221.456 86.355 221.626 86.418C221.446 86.4017 221.267 86.3746 221.089 86.3369C220.746 86.2745 220.228 86.1934 219.567 86.1247C217.691 85.9271 215.795 86.0282 213.951 86.4243C212.682 86.7018 211.442 87.0945 210.244 87.5974C209.62 87.8782 208.934 88.1777 208.279 88.5209C207.605 88.8607 207.002 89.3243 206.5 89.8875C205.985 90.4727 205.718 91.2363 205.758 92.0153C205.814 92.413 205.962 92.7922 206.189 93.1234C206.417 93.4546 206.717 93.7289 207.068 93.9247C207.813 94.3434 208.643 94.5867 209.496 94.6361C210.375 94.7172 211.28 94.7609 212.191 94.8046C215.817 94.9855 219.355 94.7235 222.25 93.4942C222.951 93.255 223.531 92.7511 223.866 92.0902C223.976 91.766 224.003 91.4191 223.943 91.0819C223.883 90.7448 223.738 90.4283 223.523 90.162C223.115 89.6457 222.564 89.2615 221.938 89.0575C221.354 88.8538 220.749 88.7157 220.135 88.6457C218.265 88.3964 216.364 88.556 214.562 89.1137C213.938 89.3134 213.452 89.5193 213.127 89.6503C212.979 89.7309 212.824 89.7998 212.665 89.8563Z" fill="black"/>
<path d="M177.965 84.3148C178.097 84.3105 178.229 84.3231 178.358 84.3522C178.732 84.4143 179.1 84.5104 179.456 84.6393C180.763 85.1315 181.976 85.8426 183.044 86.7421C184.436 87.8217 185.896 89.3442 187.837 90.5797C189.98 91.8735 192.483 92.4424 194.975 92.2021C197.477 91.9832 199.917 91.3086 202.176 90.2116C204.019 89.3163 205.811 88.3184 207.542 87.2226C209.04 86.3116 210.269 85.594 211.137 85.1385C211.573 84.9076 211.917 84.7391 212.148 84.633C212.263 84.5662 212.387 84.5138 212.516 84.477C212.412 84.5601 212.299 84.6313 212.179 84.6892L211.199 85.2508C210.35 85.7375 209.146 86.4988 207.667 87.4223C205.943 88.5482 204.154 89.5692 202.307 90.4799C200.028 91.6078 197.558 92.3019 195.025 92.5266C193.71 92.6267 192.387 92.5321 191.1 92.2458C189.896 91.9786 188.749 91.5013 187.712 90.8356C185.734 89.5876 184.292 88.0151 182.932 86.9231C181.892 86.0195 180.715 85.2884 179.444 84.7578C178.959 84.5831 178.466 84.4352 177.965 84.3148Z" fill="black"/>
<path d="M192.192 85.875C192.323 85.8626 192.454 85.8626 192.585 85.875C192.841 85.875 193.209 85.9312 193.708 85.9562C194.208 85.9811 194.794 85.9998 195.487 85.9874C195.836 85.9874 196.204 85.9874 196.597 85.9374C196.997 85.9452 197.394 85.8642 197.758 85.7003C197.839 85.6661 197.905 85.6053 197.946 85.528C197.987 85.4508 198 85.3618 197.983 85.276C197.945 85.1138 197.758 84.9952 197.546 84.9203C197.109 84.7893 196.61 84.6832 196.117 84.5709C195.112 84.3525 194.033 84.1653 192.885 84.0217C191.736 83.8782 190.532 83.7971 189.278 83.7722C188.664 83.7097 188.045 83.7997 187.475 84.0342C187.344 84.0927 187.228 84.1788 187.135 84.2865C187.041 84.3943 186.972 84.5211 186.932 84.6582C186.899 84.7986 186.897 84.9443 186.926 85.0854C186.956 85.2265 187.015 85.3596 187.1 85.4757C187.499 85.9713 188.004 86.3702 188.579 86.6426C189.131 86.9562 189.707 87.2254 190.301 87.4475C191.42 87.8777 192.591 88.1548 193.783 88.2712C195.815 88.4608 197.863 88.1701 199.761 87.4226C201.041 86.9154 202.236 86.2168 203.305 85.3509C204.067 84.7269 204.435 84.34 204.454 84.3587C204.472 84.3774 204.379 84.471 204.204 84.6645C203.961 84.9543 203.7 85.2293 203.424 85.4882C202.111 86.6281 200.582 87.4919 198.927 88.0279C197.273 88.5639 195.528 88.7613 193.796 88.6082C192.572 88.4997 191.369 88.2247 190.22 87.7907C189.613 87.5637 189.024 87.2882 188.461 86.967C187.84 86.6812 187.295 86.2538 186.869 85.719C186.758 85.565 186.682 85.3888 186.645 85.2025C186.608 85.0162 186.613 84.8241 186.657 84.6395C186.709 84.4599 186.8 84.2937 186.923 84.1526C187.046 84.0115 187.198 83.8987 187.369 83.8221C187.985 83.5649 188.656 83.4641 189.322 83.5288C190.538 83.5537 191.753 83.6454 192.96 83.8034C194.114 83.9531 195.206 84.1528 196.211 84.3837C196.722 84.5022 197.19 84.6083 197.671 84.7581C197.803 84.7931 197.925 84.8597 198.026 84.952C198.127 85.0444 198.204 85.1598 198.251 85.2885C198.279 85.424 198.261 85.5651 198.2 85.6893C198.139 85.8136 198.038 85.914 197.914 85.9749C197.522 86.1499 197.095 86.2332 196.666 86.2182C196.267 86.2182 195.892 86.2182 195.543 86.2182C194.844 86.2182 194.245 86.1746 193.758 86.1309C193.272 86.0872 192.891 86.0373 192.635 85.9936C192.482 85.9762 192.333 85.9362 192.192 85.875Z" fill="black"/>
</g>
<path d="M170.726 65.4389L183.456 73.2514L225.17 71.7538L224.989 66.5746L220.821 64.5341L224.871 63.2986L224.615 56.21L183.169 57.6951L170.726 65.4389Z" fill="#106FA4"/>
<path opacity="0.3" d="M170.726 65.4389L183.456 73.2514L225.17 71.7538L224.989 66.5746L220.821 64.5341L224.871 63.2986L224.615 56.21L183.169 57.6951L170.726 65.4389Z" fill="black"/>
<path d="M169.478 66.9366L178.464 72.4465C179.475 73.0692 180.647 73.3776 181.834 73.3326L221.732 71.9036L221.545 66.7244L217.377 64.6902L221.426 63.4422L221.177 56.3535L181.334 57.7887C180.282 57.8255 179.258 58.1374 178.364 58.6935L169.472 64.2284C169.242 64.3715 169.051 64.5712 168.92 64.8085C168.788 65.0458 168.719 65.3128 168.72 65.5842C168.72 65.8556 168.79 66.1223 168.923 66.359C169.056 66.5957 169.247 66.7945 169.478 66.9366Z" fill="#106FA4"/>
<g opacity="0.2">
<path d="M219.486 56.3721C219.473 56.4084 219.454 56.4422 219.43 56.4719C219.377 56.5643 219.316 56.6519 219.249 56.734C218.988 57.0584 218.678 57.3405 218.331 57.5702C217.008 58.325 215.541 58.7928 214.026 58.943C209.107 59.7704 204.113 60.0675 199.131 59.829C196.211 59.698 193.452 59.3423 190.944 59.0865C188.728 58.8243 186.499 58.6806 184.267 58.6559C182.765 58.6484 181.264 58.7632 179.781 58.9991C178.732 59.1676 178.158 59.3174 178.146 59.2799C178.281 59.2308 178.418 59.1891 178.558 59.1551C178.832 59.0865 179.232 58.9679 179.756 58.8743C181.243 58.5899 182.753 58.4395 184.267 58.425C186.508 58.4109 188.748 58.5255 190.975 58.7682C193.471 59.0116 196.242 59.3548 199.143 59.4858C204.106 59.7176 209.079 59.4521 213.988 58.6934C215.482 58.5668 216.935 58.1424 218.263 57.4454C218.721 57.1502 219.134 56.7885 219.486 56.3721Z" fill="black"/>
<path d="M170.627 67.4358C170.631 67.2563 170.658 67.078 170.708 66.9054C170.842 66.4042 171.069 65.9324 171.375 65.5139C171.864 64.8505 172.487 64.2977 173.204 63.8915C174.158 63.3754 175.181 62.9992 176.243 62.7745C178.973 62.1782 181.739 61.7613 184.523 61.5265C187.643 61.2332 191.137 61.1022 194.775 61.046L213.408 60.8401H219.055H220.59C220.769 60.8254 220.948 60.8254 221.127 60.8401C220.949 60.8691 220.77 60.8837 220.59 60.8838L219.055 60.9275L213.439 61.046L194.813 61.3143C191.175 61.3705 187.718 61.4891 184.585 61.7699C181.798 62.0143 179.028 62.4332 176.292 63.0241C175.247 63.2328 174.237 63.5878 173.291 64.0787C172.586 64.4591 171.968 64.9818 171.475 65.6137C171.066 66.1541 170.777 66.7751 170.627 67.4358Z" fill="black"/>
<path d="M186.576 67.7039C186.44 67.823 186.294 67.9296 186.139 68.0221C185.703 68.2996 185.248 68.5477 184.779 68.7647C183.043 69.5659 181.149 69.9668 179.238 69.9378C178.608 69.9328 177.981 69.8638 177.366 69.7319C176.672 69.5893 176.035 69.244 175.537 68.7397C175.262 68.464 175.061 68.1234 174.952 67.7494C174.843 67.3753 174.83 66.9799 174.913 66.5994C175.191 65.8297 175.761 65.2 176.498 64.846C179.313 63.2672 182.851 62.6245 186.482 62.4124C187.4 62.3624 188.298 62.3125 189.197 62.3C190.101 62.2588 191.002 62.4275 191.83 62.793C192.241 62.973 192.605 63.245 192.894 63.588C193.182 63.931 193.389 64.3358 193.496 64.7711C193.632 65.6233 193.428 66.4949 192.928 67.1984C192.464 67.839 191.881 68.3854 191.212 68.8084C190.588 69.2327 189.964 69.5946 189.34 69.9378C188.185 70.5646 186.974 71.0807 185.721 71.4791C183.906 72.0543 182.008 72.3243 180.105 72.2778C179.59 72.2683 179.075 72.2308 178.564 72.1655C178.385 72.1541 178.207 72.1248 178.033 72.0781C178.212 72.0657 178.391 72.0657 178.57 72.0781C178.92 72.0781 179.437 72.1343 180.105 72.1343C181.99 72.1297 183.862 71.8286 185.653 71.242C186.887 70.8355 188.08 70.3132 189.216 69.682C189.84 69.3388 190.464 68.9706 191.088 68.5525C191.724 68.1479 192.277 67.6246 192.716 67.0112C193.165 66.3729 193.348 65.5855 193.228 64.8148C193.129 64.4259 192.942 64.065 192.681 63.7599C192.42 63.4548 192.093 63.2137 191.724 63.0551C190.937 62.717 190.083 62.5633 189.228 62.6058C188.348 62.6058 187.443 62.6682 186.532 62.7181C182.907 62.9303 179.419 63.5605 176.667 65.0893C175.992 65.398 175.468 65.9611 175.207 66.6556C175.134 66.9886 175.146 67.3346 175.242 67.6617C175.338 67.9888 175.515 68.2865 175.756 68.5276C176.216 68.9986 176.804 69.3241 177.447 69.4636C178.049 69.6024 178.664 69.6756 179.281 69.682C181.166 69.7296 183.039 69.3699 184.773 68.6274C185.242 68.423 185.7 68.1939 186.145 67.941C186.284 67.8531 186.428 67.7739 186.576 67.7039Z" fill="black"/>
<path d="M221.695 69.576C221.564 69.5883 221.432 69.5883 221.302 69.576C220.923 69.5535 220.547 69.4971 220.178 69.4075C218.826 69.0548 217.543 68.4746 216.385 67.6915C214.887 66.768 213.265 65.4077 211.218 64.3843C208.95 63.3241 206.401 63.0221 203.948 63.5232C201.495 64.0097 199.15 64.9379 197.028 66.2625C195.289 67.3478 193.612 68.529 192.005 69.8006C190.613 70.8677 189.465 71.7101 188.648 72.2529C188.242 72.5275 187.918 72.7334 187.699 72.8769C187.589 72.9527 187.472 73.0175 187.35 73.0704C187.445 72.977 187.55 72.8934 187.662 72.8208L188.579 72.1593C189.372 71.5853 190.489 70.7179 191.861 69.6321C193.452 68.3291 195.119 67.1227 196.853 66.0192C199 64.6601 201.38 63.7102 203.873 63.2174C205.172 62.9765 206.499 62.9302 207.811 63.0801C209.036 63.2231 210.227 63.5778 211.33 64.1285C213.427 65.1893 215.024 66.5745 216.491 67.5105C217.63 68.2871 218.885 68.8788 220.21 69.264C221.152 69.5385 221.701 69.5385 221.695 69.576Z" fill="black"/>
<path d="M207.368 69.5258C207.237 69.5338 207.106 69.5338 206.975 69.5258C206.719 69.5258 206.351 69.5259 205.851 69.5633C205.352 69.6007 204.766 69.6382 204.079 69.7255C203.736 69.7692 203.368 69.8254 202.981 69.894C202.582 69.9246 202.196 70.0463 201.852 70.2497C201.775 70.2917 201.716 70.3586 201.683 70.4392C201.65 70.5198 201.646 70.6093 201.671 70.6927C201.72 70.7774 201.789 70.8492 201.871 70.9023C201.954 70.9554 202.047 70.9884 202.145 70.9985C202.588 71.0858 203.1 71.142 203.605 71.1982C204.622 71.3105 205.72 71.3854 206.869 71.3978C208.076 71.42 209.284 71.3783 210.488 71.273C211.104 71.267 211.71 71.1129 212.254 70.8238C212.376 70.7517 212.482 70.6542 212.564 70.538C212.645 70.4218 212.701 70.2895 212.728 70.1498C212.744 70.0072 212.729 69.8628 212.685 69.7262C212.641 69.5896 212.568 69.4639 212.472 69.3574C212.024 68.9064 211.48 68.5629 210.881 68.3527C210.299 68.0984 209.698 67.8898 209.084 67.7287C207.926 67.4207 206.731 67.2696 205.533 67.2794C203.493 67.3027 201.487 67.8095 199.68 68.7583C198.46 69.3941 197.345 70.2127 196.373 71.1857C195.686 71.8783 195.356 72.3151 195.331 72.2964C195.395 72.1796 195.471 72.0689 195.555 71.9657C195.779 71.6624 196.021 71.3728 196.279 71.0983C197.467 69.8287 198.898 68.8102 200.486 68.1028C202.074 67.3954 203.788 67.0136 205.527 66.9799C206.754 66.9593 207.978 67.1063 209.165 67.4167C209.793 67.5779 210.409 67.7865 211.006 68.0407C211.655 68.2696 212.242 68.6454 212.722 69.139C212.849 69.2796 212.943 69.4463 213 69.6273C213.056 69.8084 213.071 69.9995 213.046 70.1873C213.016 70.3735 212.945 70.5505 212.837 70.7051C212.728 70.8596 212.587 70.9877 212.422 71.0796C211.833 71.3979 211.176 71.5691 210.506 71.5788C209.295 71.6813 208.078 71.7167 206.862 71.6849C205.695 71.6849 204.591 71.5788 203.568 71.454C203.05 71.3854 202.569 71.3292 202.076 71.2294C201.943 71.2081 201.816 71.155 201.708 71.0747C201.599 70.9943 201.512 70.889 201.452 70.7676C201.411 70.6352 201.415 70.4927 201.463 70.3628C201.512 70.2328 201.602 70.1228 201.721 70.05C202.101 69.8273 202.529 69.6989 202.969 69.6756C203.355 69.6132 203.73 69.5695 204.079 69.5321C204.772 69.4634 205.371 69.4323 205.864 69.426C206.357 69.4198 206.737 69.426 206.993 69.426C207.122 69.4414 207.248 69.475 207.368 69.5258Z" fill="black"/>
</g>
<path d="M278.741 154.752C278.741 154.839 224.278 154.914 157.111 154.914C89.9434 154.914 35.4744 154.808 35.4744 154.752C35.4744 154.696 89.9247 154.59 157.111 154.59C224.297 154.59 278.741 154.627 278.741 154.752Z" fill="#263238"/>
<path d="M41.9141 256.707C41.8579 256.707 41.6333 255.784 41.1778 254.305C40.58 252.381 39.8417 250.504 38.9688 248.689C38.0924 246.874 37.0829 245.126 35.9487 243.46C35.0751 242.181 34.4823 241.419 34.5259 241.388C34.7001 241.532 34.8572 241.695 34.9939 241.875C35.281 242.206 35.6741 242.699 36.1359 243.329C37.3305 244.973 38.3748 246.721 39.2559 248.552C40.141 250.381 40.8554 252.288 41.3899 254.249C41.5959 255.004 41.7394 255.615 41.8143 256.046C41.8725 256.262 41.906 256.484 41.9141 256.707Z" fill="#263238"/>
<path d="M46.02 259.397C45.9389 259.397 44.3602 254.18 42.5069 247.69C40.6536 241.201 39.2184 235.916 39.312 235.872C39.4056 235.828 40.9718 241.088 42.8251 247.578C44.6784 254.068 46.1074 259.372 46.02 259.397Z" fill="#263238"/>
<path d="M49.3771 245.332C49.34 246.044 49.2587 246.752 49.1338 247.454C48.9653 248.758 48.7718 250.574 48.6658 252.57C48.5597 254.567 48.5535 256.389 48.5847 257.706C48.6233 258.417 48.6233 259.129 48.5847 259.84C48.5184 259.658 48.4825 259.466 48.4786 259.272C48.4287 258.904 48.385 258.374 48.3413 257.712C48.2396 255.994 48.2396 254.27 48.3413 252.552C48.4316 250.832 48.6212 249.12 48.9091 247.422C49.0214 246.767 49.1275 246.243 49.2149 245.887C49.2454 245.696 49.2999 245.51 49.3771 245.332Z" fill="#263238"/>
<path d="M227.429 138.285C227.517 138.285 228.646 141.923 229.925 146.465C231.205 151.008 232.222 154.715 232.141 154.74C232.059 154.765 230.924 151.102 229.613 146.559C228.303 142.016 227.342 138.31 227.429 138.285Z" fill="#263238"/>
<path d="M234.842 139.445C234.892 139.445 234.655 140.294 234.387 141.667C234.033 143.448 233.824 145.255 233.763 147.071C233.712 148.885 233.81 150.701 234.056 152.499C234.243 153.885 234.431 154.727 234.374 154.74C234.287 154.555 234.224 154.36 234.187 154.159C234.041 153.625 233.922 153.083 233.832 152.537C233.196 148.912 233.309 145.196 234.162 141.617C234.284 141.075 234.434 140.54 234.612 140.013C234.658 139.813 234.736 139.621 234.842 139.445Z" fill="#263238"/>
<path d="M239.454 142.359C239.497 142.39 239.067 142.983 238.474 144.056C237.707 145.423 237.08 146.863 236.602 148.356C236.14 149.853 235.835 151.394 235.691 152.955C235.579 154.159 235.585 154.908 235.529 154.908C235.478 154.738 235.455 154.561 235.46 154.384C235.435 153.903 235.435 153.422 235.46 152.942C235.624 149.752 236.59 146.655 238.268 143.938C238.522 143.528 238.796 143.133 239.092 142.752C239.31 142.49 239.435 142.347 239.454 142.359Z" fill="#263238"/>
<path d="M198.7 197.964C198.37 196.716 199.206 195.406 200.148 194.482C201.09 193.559 202.207 192.722 202.694 191.499C203.486 189.509 202.426 186.938 203.773 185.259C204.566 184.286 205.995 183.962 206.7 182.919C207.023 182.34 207.234 181.705 207.324 181.047C208.075 177.747 209.698 174.709 212.023 172.249C212.172 175.193 211.525 178.122 210.151 180.729C209.511 181.716 209.039 182.802 208.753 183.943C208.453 185.815 209.508 187.78 209.046 189.627C208.516 191.749 206.132 193.165 206.02 195.349C205.926 197.221 207.536 198.813 207.418 200.653C207.318 201.438 207.036 202.188 206.594 202.844C205.165 205.215 203.075 206.85 199.898 206.794L196.011 206.931L198.7 197.964Z" fill="#106FA4"/>
<g opacity="0.3">
<path d="M198.7 197.964C198.37 196.716 199.206 195.406 200.148 194.482C201.09 193.559 202.207 192.722 202.694 191.499C203.486 189.509 202.426 186.938 203.773 185.259C204.566 184.286 205.995 183.962 206.7 182.919C207.023 182.34 207.234 181.705 207.324 181.047C208.075 177.747 209.698 174.709 212.023 172.249C212.172 175.193 211.525 178.122 210.151 180.729C209.511 181.716 209.039 182.802 208.753 183.943C208.453 185.815 209.508 187.78 209.046 189.627C208.516 191.749 206.132 193.165 206.02 195.349C205.926 197.221 207.536 198.813 207.418 200.653C207.318 201.438 207.036 202.188 206.594 202.844C205.165 205.215 203.075 206.85 199.898 206.794L196.011 206.931L198.7 197.964Z" fill="black"/>
</g>
<path d="M195.256 207.068C194.903 207.13 194.542 207.13 194.189 207.068C193.764 207.001 193.346 206.895 192.941 206.75C192.378 206.55 191.852 206.262 191.381 205.895C191.106 205.663 190.891 205.368 190.757 205.034C190.641 204.658 190.58 204.267 190.576 203.873C190.566 203.456 190.534 203.04 190.482 202.625C190.408 202.182 190.247 201.758 190.008 201.377C189.553 200.573 188.791 199.811 188.542 198.719C188.354 197.585 188.39 196.426 188.648 195.306C188.93 194.102 188.9 192.845 188.56 191.656C188.142 190.439 187.312 189.341 186.863 187.968C186.414 186.595 186.632 185.091 186.545 183.6C186.517 182.854 186.346 182.121 186.039 181.441C185.721 180.748 185.284 180.099 184.947 179.375C184.255 177.909 184.136 176.255 183.943 174.627C183.855 173.803 183.762 172.973 183.668 172.131C183.611 171.285 183.465 170.449 183.231 169.635C182.97 168.814 182.66 168.009 182.302 167.226C182.118 166.823 181.968 166.406 181.852 165.978C181.786 165.535 181.745 165.09 181.728 164.643C181.686 163.745 181.719 162.845 181.827 161.953C181.933 161.055 182.096 160.162 182.196 159.264V159.108V158.927L182.352 159.008C183.176 159.429 183.893 160.033 184.448 160.774C184.986 161.5 185.419 162.298 185.734 163.145C186.29 164.804 186.695 166.511 186.944 168.243C187.189 169.893 187.73 171.485 188.542 172.942C188.966 173.634 189.484 174.271 189.933 174.945C190.418 175.601 190.749 176.358 190.9 177.16C191.131 178.807 190.226 180.249 190.414 181.709C190.504 182.424 190.746 183.111 191.125 183.725C191.474 184.349 191.892 184.923 192.286 185.503C192.687 186.069 193.036 186.67 193.328 187.3C193.602 187.915 193.765 188.575 193.808 189.247C193.902 190.557 193.715 191.805 193.808 192.991C193.911 194.109 194.236 195.195 194.763 196.186C195.237 197.147 195.761 198.008 196.198 198.85C196.417 199.268 196.622 199.68 196.785 200.098C196.942 200.501 197.057 200.92 197.128 201.346C197.247 202.081 197.257 202.83 197.159 203.568C197.058 204.598 196.671 205.579 196.042 206.401C195.947 206.523 195.843 206.638 195.73 206.744C195.652 206.823 195.566 206.894 195.474 206.956C195.331 207.062 195.25 207.112 195.25 207.112C195.531 206.897 195.785 206.648 196.005 206.369C196.605 205.545 196.97 204.572 197.059 203.555C197.147 202.829 197.131 202.093 197.009 201.371C196.938 200.959 196.823 200.555 196.666 200.167C196.491 199.741 196.293 199.324 196.073 198.919C195.63 198.089 195.106 197.228 194.626 196.267C194.081 195.258 193.742 194.151 193.627 193.01C193.527 191.812 193.708 190.564 193.627 189.266C193.584 188.619 193.426 187.985 193.159 187.394C192.872 186.775 192.525 186.186 192.123 185.634C191.73 185.06 191.312 184.48 190.95 183.843C190.557 183.205 190.304 182.49 190.208 181.746C190.021 180.193 190.919 178.739 190.688 177.21C190.538 176.442 190.218 175.717 189.752 175.088C189.309 174.427 188.791 173.79 188.354 173.079C187.522 171.599 186.967 169.979 186.72 168.299C186.468 166.584 186.065 164.895 185.515 163.251C185.21 162.426 184.79 161.649 184.267 160.942C183.739 160.23 183.053 159.65 182.264 159.245L182.439 159.145V159.301C182.339 160.212 182.177 161.105 182.071 161.991C181.963 162.87 181.929 163.757 181.971 164.643C181.987 165.077 182.027 165.51 182.089 165.941C182.2 166.356 182.346 166.761 182.526 167.151C182.883 167.944 183.195 168.757 183.462 169.585C183.695 170.412 183.842 171.261 183.899 172.118C183.993 172.954 184.086 173.784 184.174 174.614C184.361 176.249 184.486 177.884 185.147 179.3C185.478 179.999 185.915 180.654 186.239 181.366C186.555 182.072 186.731 182.833 186.757 183.606C186.844 185.104 186.645 186.57 187.05 187.899C187.456 189.228 188.298 190.326 188.735 191.587C189.082 192.807 189.11 194.097 188.816 195.331C188.559 196.427 188.517 197.563 188.691 198.676C188.916 199.718 189.652 200.473 190.12 201.303C190.363 201.701 190.528 202.141 190.607 202.601C190.657 203.015 190.684 203.431 190.688 203.849C190.688 204.233 190.743 204.615 190.85 204.984C190.99 205.303 191.204 205.583 191.474 205.802C191.932 206.167 192.447 206.456 192.997 206.657C193.402 206.809 193.819 206.923 194.245 207C194.507 207.045 194.772 207.07 195.037 207.075L195.256 207.068Z" fill="#263238"/>
<path d="M182.969 161.248C182.988 161.285 183.001 161.325 183.007 161.367C183.007 161.46 183.057 161.579 183.094 161.716C183.169 162.022 183.263 162.49 183.406 163.064C183.55 163.638 183.912 164.312 184.211 165.098C184.57 166 184.88 166.921 185.141 167.856C185.434 168.892 185.696 170.046 185.971 171.276C186.209 172.594 186.629 173.873 187.219 175.076C187.537 175.7 187.893 176.324 188.18 177.048C188.459 177.766 188.648 178.516 188.741 179.282C188.938 180.863 189.217 182.434 189.577 183.987C190.357 187.169 191.1 190.227 191.78 192.972L193.652 200.298C194.164 202.376 194.582 204.042 194.9 205.246C195.037 205.82 195.144 206.27 195.218 206.594L195.293 206.95C195.293 207.025 195.293 207.068 195.293 207.068C195.276 207.032 195.262 206.994 195.25 206.956L195.15 206.607C195.062 206.282 194.944 205.839 194.788 205.271L193.49 200.342C192.947 198.257 192.304 195.78 191.618 193.028C190.932 190.277 190.183 187.225 189.396 184.037C189.033 182.478 188.753 180.901 188.56 179.313C188.474 178.567 188.294 177.835 188.024 177.135C187.749 176.455 187.4 175.818 187.075 175.182C186.482 173.961 186.062 172.663 185.827 171.326C185.559 170.078 185.309 168.936 185.022 167.9C184.735 166.864 184.442 165.947 184.142 165.148C183.843 164.349 183.518 163.688 183.369 163.089C183.219 162.49 183.163 162.041 183.1 161.729C183.1 161.585 183.057 161.466 183.038 161.373C183.007 161.336 182.984 161.294 182.969 161.248Z" fill="#263238"/>
<path d="M194.569 207.081C192.03 205.571 191.3 200.99 192.36 198.232C193.421 195.474 195.275 192.947 195.562 190.008C195.78 187.749 195.044 185.428 195.562 183.219C196.273 180.236 199.187 177.921 199.15 174.857C199.15 173.135 198.151 171.519 198.232 169.803C198.326 167.694 199.942 166.021 200.947 164.187C202.482 161.348 202.582 157.984 203.106 154.827C203.63 151.669 204.847 148.225 207.667 146.659C208.085 149.361 208.797 151.214 208.578 154.883C208.497 156.2 206.968 158.721 206.756 161.603C206.631 163.326 206.55 165.054 206.444 166.783C206.425 168.466 206.15 170.137 205.627 171.737C205.165 172.942 204.429 174.04 204.085 175.282C203.461 177.622 204.285 180.149 203.767 182.52C203.324 184.529 201.939 186.264 201.652 188.292C201.252 191.15 203.106 194.12 202.157 196.847C201.689 198.201 200.572 199.287 200.285 200.685C200.036 201.77 200.285 202.919 200.079 204.011C199.724 205.764 196.379 207.131 194.588 207.018" fill="#106FA4"/>
<path d="M206.975 149.292C206.982 149.344 206.982 149.396 206.975 149.448C206.975 149.56 206.943 149.704 206.918 149.891C206.862 150.284 206.794 150.858 206.663 151.595C206.532 152.331 206.138 153.186 205.833 154.197C205.527 155.208 205.209 156.368 204.897 157.672C204.585 158.976 204.366 160.424 204.11 161.972C203.906 163.645 203.469 165.281 202.812 166.833C202.451 167.644 202.051 168.461 201.752 169.329C201.461 170.218 201.28 171.14 201.215 172.074C201.073 174.06 200.825 176.037 200.472 177.996C199.692 182.002 198.956 185.821 198.276 189.297C197.596 192.772 196.928 195.88 196.404 198.507C195.88 201.134 195.418 203.224 195.112 204.709C194.956 205.427 194.832 205.989 194.744 206.388C194.707 206.569 194.669 206.712 194.644 206.825C194.636 206.876 194.621 206.927 194.601 206.975C194.597 206.925 194.597 206.875 194.601 206.825C194.601 206.706 194.644 206.563 194.676 206.382C194.757 205.976 194.863 205.408 194.994 204.684C195.287 203.199 195.705 201.084 196.242 198.444C196.778 195.805 197.384 192.691 198.076 189.228C198.769 185.765 199.48 181.933 200.254 177.927C200.607 175.976 200.854 174.008 200.997 172.031C201.066 171.077 201.252 170.136 201.552 169.229C201.864 168.343 202.27 167.525 202.625 166.733C203.282 165.202 203.721 163.587 203.929 161.934C204.198 160.38 204.447 158.939 204.753 157.629C205.017 156.453 205.34 155.29 205.72 154.147C206.045 153.13 206.444 152.275 206.594 151.57C206.744 150.864 206.819 150.265 206.893 149.879L206.975 149.436V149.292Z" fill="#263238"/>
<path d="M249.276 265.581C249.882 265.87 250.425 266.279 250.87 266.783C251.315 267.287 251.653 267.876 251.865 268.514C252.281 269.795 252.398 271.155 252.208 272.488C251.915 275.066 250.455 277.668 248.876 279.733C246.705 277.861 246.205 274.529 246.056 272.838C245.819 270.161 247.023 265.181 249.276 265.581Z" fill="#106FA4"/>
<path d="M251.397 283.989C251.25 283.251 251.301 282.488 251.543 281.776C251.785 281.064 252.21 280.428 252.776 279.933C253.351 279.449 254.016 279.085 254.732 278.861C255.449 278.637 256.203 278.558 256.951 278.628C257.298 278.625 257.641 278.698 257.958 278.84C258.275 278.982 258.557 279.191 258.785 279.452C258.954 279.735 259.043 280.059 259.043 280.388C259.043 280.718 258.954 281.041 258.785 281.324C258.457 281.886 257.985 282.351 257.419 282.672C255.547 283.851 253.5 284.65 251.372 284.014" fill="#106FA4"/>
<path d="M248.614 291.895C248.625 291.716 248.65 291.539 248.689 291.364L248.951 289.929C249.197 288.335 249.696 286.791 250.43 285.355C251.195 283.922 252.328 282.718 253.712 281.867C254.135 281.618 254.585 281.42 255.054 281.274C255.18 281.234 255.31 281.202 255.441 281.181C255.486 281.172 255.533 281.172 255.578 281.181C254.951 281.386 254.348 281.661 253.781 281.998C252.445 282.868 251.35 284.062 250.598 285.468C249.874 286.889 249.363 288.409 249.082 289.979C248.951 290.603 248.845 291.065 248.764 291.396C248.73 291.566 248.68 291.734 248.614 291.895Z" fill="#263238"/>
<path d="M248.695 269.456C248.706 269.532 248.706 269.61 248.695 269.686C248.695 269.855 248.695 270.08 248.739 270.348C248.739 270.928 248.801 271.764 248.832 272.794C248.901 274.859 248.951 277.717 248.939 280.875C248.926 284.032 248.851 286.884 248.764 288.949C248.72 289.979 248.683 290.821 248.645 291.395C248.645 291.664 248.614 291.888 248.602 292.057C248.6 292.135 248.59 292.212 248.57 292.288C248.564 292.211 248.564 292.134 248.57 292.057C248.57 291.882 248.57 291.664 248.57 291.389C248.57 290.765 248.608 289.96 248.633 288.943C248.683 286.878 248.739 284.026 248.751 280.869C248.764 277.711 248.751 274.866 248.701 272.8C248.701 271.783 248.67 270.928 248.664 270.354V269.686C248.665 269.608 248.675 269.531 248.695 269.456Z" fill="#263238"/>
<path d="M247.641 285.555C247.377 283.994 246.747 282.518 245.801 281.248C244.855 279.979 243.62 278.953 242.199 278.254C241.469 277.905 240.521 277.674 239.928 278.217C239.335 278.76 239.466 279.727 239.753 280.476C240.388 282.037 241.471 283.376 242.866 284.323C244.261 285.269 245.905 285.78 247.591 285.792" fill="#106FA4"/>
<path d="M242.549 280.694C242.708 280.751 242.862 280.819 243.011 280.9C243.188 280.982 243.361 281.074 243.528 281.174C243.722 281.299 243.959 281.418 244.19 281.592C244.454 281.768 244.708 281.958 244.951 282.16C245.232 282.392 245.501 282.638 245.756 282.897C246.34 283.492 246.854 284.152 247.291 284.862C247.714 285.582 248.053 286.349 248.302 287.146C248.402 287.52 248.502 287.87 248.558 288.207C248.62 288.518 248.663 288.833 248.689 289.149C248.703 289.409 248.703 289.669 248.689 289.929C248.702 290.126 248.702 290.324 248.689 290.522C248.686 290.69 248.667 290.857 248.633 291.021C248.589 291.021 248.633 290.303 248.533 289.149C248.5 288.839 248.45 288.53 248.383 288.226C248.313 287.875 248.224 287.53 248.115 287.19C247.622 285.618 246.767 284.184 245.619 283.003C245.373 282.743 245.113 282.497 244.839 282.266C244.589 282.042 244.333 281.861 244.103 281.686C243.185 281.031 242.53 280.731 242.549 280.694Z" fill="#263238"/>
<path d="M230.256 246.33C230.217 246.436 230.164 246.537 230.1 246.63C229.975 246.855 229.813 247.129 229.613 247.46C229.414 247.791 229.133 248.252 228.852 248.777C228.571 249.301 228.228 249.875 227.885 250.542C227.186 251.853 226.425 253.463 225.657 255.272C224.843 257.249 224.128 259.265 223.517 261.313C222.893 263.497 222.419 265.612 222.063 267.553C221.707 269.493 221.508 271.259 221.389 272.744C221.314 273.487 221.289 274.161 221.252 274.747C221.214 275.334 221.196 275.852 221.183 276.27C221.171 276.688 221.183 276.975 221.183 277.231C221.187 277.342 221.174 277.454 221.146 277.562C221.122 277.453 221.111 277.342 221.114 277.231C221.114 276.975 221.114 276.657 221.114 276.264C221.114 275.871 221.114 275.334 221.114 274.741C221.114 274.148 221.114 273.493 221.208 272.726C221.328 270.975 221.536 269.232 221.832 267.503C222.197 265.386 222.676 263.29 223.267 261.225C223.881 259.167 224.608 257.144 225.445 255.166C226.231 253.344 227.017 251.747 227.748 250.436C228.097 249.775 228.453 249.188 228.758 248.689C229.064 248.19 229.332 247.747 229.57 247.397C229.807 247.048 229.963 246.817 230.112 246.605C230.262 246.393 230.256 246.324 230.256 246.33Z" fill="#263238"/>
<path d="M220.403 255.328C220.42 255.607 220.407 255.888 220.366 256.164C220.309 256.788 220.235 257.537 220.153 258.448C219.966 260.37 219.729 263.035 219.529 265.974C219.33 268.913 219.211 271.59 219.13 273.518L219.024 275.808C219.03 276.091 219.005 276.373 218.949 276.65C218.904 276.372 218.887 276.09 218.899 275.808C218.899 275.265 218.899 274.485 218.899 273.511C218.899 271.577 219.005 268.9 219.205 265.955C219.405 263.01 219.679 260.339 219.923 258.423C220.047 257.462 220.153 256.688 220.241 256.152C220.271 255.873 220.325 255.597 220.403 255.328Z" fill="#263238"/>
<path d="M210.837 263.49C211.003 263.602 211.154 263.734 211.286 263.883C211.675 264.266 212.042 264.67 212.385 265.094C213.522 266.493 214.464 268.04 215.186 269.693C215.908 271.344 216.399 273.087 216.647 274.872C216.725 275.412 216.773 275.955 216.79 276.501C216.816 276.708 216.816 276.917 216.79 277.125C216.734 277.125 216.678 276.282 216.441 274.934C215.819 271.422 214.374 268.107 212.222 265.262C211.38 264.145 210.793 263.528 210.837 263.49Z" fill="#263238"/>
<path d="M249.057 160.705C249.164 160.791 249.262 160.887 249.35 160.992L250.149 161.853L250.717 162.477C250.923 162.714 251.129 162.983 251.341 163.263C251.79 163.838 252.327 164.468 252.839 165.229L253.662 166.402C253.943 166.814 254.199 167.263 254.486 167.719C255.079 168.624 255.603 169.647 256.177 170.708C258.585 175.39 260.15 180.459 260.801 185.684C260.919 186.888 261.063 188.03 261.088 189.103C261.088 189.646 261.144 190.164 261.144 190.663V192.099C261.144 193.01 261.063 193.833 261.013 194.557C261.013 194.919 260.963 195.262 260.932 195.568C260.901 195.874 260.851 196.155 260.813 196.41C260.745 196.891 260.688 197.278 260.639 197.571C260.63 197.709 260.602 197.846 260.557 197.977C260.549 197.839 260.549 197.702 260.557 197.565C260.589 197.265 260.626 196.878 260.67 196.398C260.67 196.142 260.726 195.861 260.757 195.555C260.788 195.25 260.795 194.931 260.813 194.545C260.844 193.827 260.919 193.003 260.894 192.092V190.663C260.894 190.17 260.838 189.652 260.813 189.122C260.782 188.049 260.632 186.919 260.501 185.721C259.82 180.54 258.269 175.511 255.915 170.845C255.347 169.784 254.835 168.761 254.261 167.862C253.98 167.407 253.725 166.951 253.45 166.539C253.176 166.128 252.907 165.735 252.651 165.36C252.158 164.593 251.634 163.956 251.197 163.376C250.979 163.089 250.779 162.814 250.573 162.577L250.024 161.953L249.276 161.055C249.19 160.947 249.116 160.83 249.057 160.705Z" fill="#263238"/>
<path d="M267.696 173.023C267.639 173.339 267.558 173.65 267.453 173.953C267.272 174.577 267.022 175.4 266.729 176.449C265.201 181.999 264.313 187.707 264.083 193.459C264.039 194.563 264.014 195.456 264.002 196.074C264.014 196.395 263.998 196.716 263.952 197.034C263.896 196.719 263.871 196.4 263.877 196.08C263.877 195.456 263.833 194.563 263.877 193.453C263.977 187.669 264.872 181.926 266.535 176.386C266.86 175.326 267.159 174.477 267.359 173.89C267.445 173.592 267.558 173.301 267.696 173.023Z" fill="#263238"/>
<path d="M269.044 185.241C268.259 186.678 267.573 188.166 266.991 189.696C266.518 191.261 266.151 192.856 265.893 194.47C265.823 193.988 265.823 193.498 265.893 193.016C266.024 191.849 266.281 190.701 266.66 189.59C267.037 188.477 267.538 187.41 268.152 186.408C268.389 185.976 268.69 185.583 269.044 185.241Z" fill="#263238"/>
<path d="M90.8731 275.733L90.0183 295.994L79.0733 295.745L79.897 275.446L90.8731 275.733Z" fill="#106FA4"/>
<path d="M84.6456 295.108C84.552 295.108 84.7204 290.665 85.02 285.199C85.3195 279.733 85.644 275.302 85.7313 275.309C85.8187 275.315 85.6564 279.751 85.3507 285.218C85.0449 290.684 84.7329 295.114 84.6456 295.108Z" fill="#263238"/>
<path d="M90.0744 294.597L79.1357 294.316L79.0733 295.745L90.0183 295.994L90.0744 294.597Z" fill="#263238"/>
<path d="M79.3353 289.261C79.4117 289.101 79.5152 288.955 79.6411 288.831C79.9471 288.466 80.2877 288.131 80.6582 287.832C81.2114 287.383 81.8247 287.013 82.4803 286.734C83.6235 286.234 84.897 286.116 86.1127 286.396C87.3285 286.675 88.4221 287.339 89.232 288.288C89.5413 288.664 89.7917 289.084 89.9745 289.536C90.0554 289.693 90.1061 289.865 90.1243 290.041C89.8169 289.482 89.4575 288.954 89.051 288.462C88.0127 287.334 86.5706 286.661 85.0387 286.59C83.5044 286.568 82.0088 287.072 80.8017 288.019C79.872 288.724 79.379 289.299 79.3353 289.261Z" fill="#263238"/>
<g opacity="0.3">
<path d="M79.6598 281.224L79.5724 283.458L90.5361 283.651L90.611 281.973L79.6598 281.224Z" fill="black"/>
</g>
<path d="M116.626 276.944L116.095 289.28C116.095 289.28 128.45 293.96 128.575 296.25L104.632 296.076L104.676 276.825L116.626 276.944Z" fill="#106FA4"/>
<path d="M108.857 288.232C108.623 288.299 108.423 288.451 108.295 288.657C108.167 288.863 108.121 289.11 108.164 289.349C108.225 289.584 108.373 289.786 108.579 289.915C108.784 290.044 109.031 290.089 109.269 290.042C109.515 289.969 109.725 289.807 109.859 289.588C109.993 289.369 110.04 289.108 109.993 288.856C109.953 288.732 109.889 288.617 109.805 288.518C109.72 288.42 109.617 288.339 109.5 288.28C109.384 288.222 109.257 288.188 109.127 288.18C108.997 288.171 108.867 288.189 108.745 288.232" fill="#E0E0E0"/>
<path d="M104.626 296.069V294.147L127.801 295.021C127.801 295.021 128.869 295.495 128.744 296.269L104.626 296.069Z" fill="#263238"/>
<path d="M116.307 289.355C116.307 289.473 115.715 289.523 115.134 289.898C114.554 290.272 114.242 290.765 114.13 290.715C114.017 290.665 114.204 289.991 114.916 289.548C115.627 289.105 116.339 289.249 116.307 289.355Z" fill="#263238"/>
<path d="M118.835 290.422C118.835 290.534 118.348 290.734 117.942 291.227C117.537 291.72 117.418 292.25 117.318 292.244C117.218 292.238 117.131 291.57 117.649 290.996C118.167 290.422 118.828 290.309 118.835 290.422Z" fill="#263238"/>
<path d="M120.245 293.461C120.139 293.461 119.976 292.893 120.288 292.25C120.6 291.608 121.143 291.358 121.193 291.458C121.243 291.558 120.9 291.895 120.657 292.425C120.413 292.955 120.363 293.448 120.245 293.461Z" fill="#263238"/>
<path d="M116.12 286.516C116.07 286.622 115.496 286.453 114.872 286.516C114.248 286.578 113.68 286.759 113.624 286.659C113.568 286.559 114.061 286.141 114.872 286.104C115.683 286.066 116.176 286.416 116.12 286.516Z" fill="#263238"/>
<path d="M116.569 283.857C116.173 283.967 115.755 283.967 115.359 283.857C114.929 283.774 114.51 283.64 114.111 283.458C113.871 283.352 113.639 283.226 113.418 283.084C113.284 283.007 113.161 282.91 113.056 282.797C112.98 282.713 112.934 282.606 112.925 282.493C112.916 282.38 112.944 282.268 113.006 282.173C113.064 282.089 113.142 282.021 113.232 281.974C113.322 281.927 113.423 281.903 113.524 281.904C113.678 281.908 113.831 281.931 113.98 281.973C114.237 282.038 114.487 282.125 114.729 282.235C115.135 282.423 115.51 282.674 115.839 282.978C116.395 283.496 116.582 283.939 116.538 283.964C116.495 283.988 116.214 283.627 115.652 283.196C115.321 282.945 114.961 282.735 114.579 282.572C114.354 282.479 114.123 282.404 113.886 282.347C113.63 282.279 113.412 282.279 113.35 282.391C113.287 282.503 113.35 282.453 113.35 282.528C113.426 282.61 113.514 282.68 113.612 282.734C113.812 282.869 114.021 282.992 114.236 283.102C114.61 283.292 115 283.446 115.403 283.564C115.798 283.634 116.188 283.732 116.569 283.857Z" fill="#263238"/>
<path d="M116.413 284.026C116.183 283.682 116.074 283.272 116.101 282.859C116.083 282.411 116.142 281.964 116.276 281.536C116.356 281.283 116.461 281.039 116.588 280.806C116.652 280.643 116.758 280.5 116.895 280.39C117.032 280.281 117.195 280.209 117.368 280.182C117.475 280.186 117.579 280.221 117.667 280.282C117.756 280.342 117.825 280.427 117.867 280.525C117.931 280.666 117.971 280.815 117.986 280.968C118.041 281.329 118.022 281.696 117.931 282.049C117.839 282.402 117.678 282.733 117.456 283.021C116.981 283.645 116.488 283.783 116.482 283.745C116.476 283.708 116.85 283.458 117.218 282.859C117.431 282.516 117.565 282.13 117.612 281.73C117.643 281.498 117.643 281.263 117.612 281.031C117.574 280.775 117.481 280.569 117.381 280.594C117.281 280.619 117.056 280.781 116.956 280.987C116.836 281.185 116.736 281.394 116.657 281.611C116.518 281.999 116.436 282.404 116.413 282.815C116.357 283.57 116.476 284.007 116.413 284.026Z" fill="#263238"/>
<g opacity="0.3">
<path d="M104.62 284.219L104.645 286.959H116.195V284.475L104.62 284.219Z" fill="black"/>
</g>
<path d="M97.9805 198.45L94.4424 232.558L91.9027 283.92H78.3494L77.9813 174.607L116.788 177.372L124.831 234.724L117.867 284.924H102.997L106.473 237.195L97.9805 198.45Z" fill="#263238"/>
<path d="M97.968 198.432C98.7663 199.378 99.6499 200.249 100.608 201.034C101.488 201.902 102.444 202.689 103.465 203.386C102.67 202.439 101.789 201.568 100.832 200.784C99.9506 199.915 98.9919 199.128 97.968 198.432Z" fill="#455A64"/>
<path d="M98.0242 197.771C98.0792 196.314 98.0542 194.856 97.9493 193.403C97.9453 191.943 97.862 190.485 97.6997 189.035C97.5293 190.484 97.5 191.947 97.6123 193.403C97.6089 194.869 97.7468 196.331 98.0242 197.771Z" fill="#455A64"/>
<path d="M93.5376 185.041C93.465 185.033 93.3918 185.033 93.3192 185.041L92.6515 185.003L90.0806 184.879L80.8953 184.492H80.7331V184.648C80.7331 187.518 80.7331 190.763 80.7331 194.189V194.488L80.8392 194.532L86.8171 196.922H86.8733H86.9294L92.2147 195.087L92.2958 195.056V194.969C92.6827 191.992 93.0072 189.515 93.238 187.736C93.3379 186.907 93.419 186.239 93.4814 185.746C93.5154 185.521 93.5362 185.294 93.5438 185.066C93.525 185.129 93.5125 185.194 93.5064 185.259C93.5064 185.409 93.4502 185.584 93.4128 185.796C93.3316 186.295 93.2256 186.969 93.0945 187.811C92.8325 189.559 92.4705 192.005 92.0213 194.931L92.1148 194.819L86.8171 196.616H86.9294L80.9577 194.207L81.0638 194.363V194.176C81.0638 190.75 81.0638 187.506 81.0638 184.635L80.9078 184.791L89.9933 185.016L92.6078 185.06H93.5625L93.5376 185.041Z" fill="#455A64"/>
<path d="M113.106 185.203H112.907H112.283L109.955 185.134L101.575 184.935H101.419V185.091C101.512 187.924 101.612 191.181 101.724 194.657V194.688L101.793 194.738L102.767 195.362L107.677 198.563L107.765 198.619L107.852 198.569L113.387 195.193L113.456 195.149V195.068C113.35 192.098 113.262 189.621 113.2 187.842C113.169 187.019 113.137 186.351 113.119 185.858C113.1 185.365 113.075 185.172 113.069 185.178C113.06 185.244 113.06 185.311 113.069 185.378V185.952C113.069 186.457 113.069 187.131 113.069 187.973C113.069 189.727 113.131 192.179 113.175 195.112L113.243 194.993L107.684 198.326H107.858L102.96 195.1L101.993 194.476L102.068 194.613C101.943 191.137 101.824 187.874 101.718 185.041L101.568 185.197L109.861 185.24H112.85L113.106 185.203Z" fill="#455A64"/>
<path d="M82.1683 200.653C82.7822 200.7 83.3993 200.681 84.0091 200.597C85.1386 200.516 86.6986 200.36 88.4146 200.135C90.1306 199.911 91.6781 199.667 92.7826 199.462C93.3919 199.382 93.9918 199.242 94.5735 199.043C93.96 199.051 93.3483 199.112 92.7451 199.224L88.3771 199.805L84.0091 200.36C83.3884 200.406 82.7726 200.504 82.1683 200.653Z" fill="#455A64"/>
<path d="M82.4866 238.674C82.4866 238.674 82.5427 238.867 82.8048 239.104C83.1983 239.416 83.688 239.581 84.1901 239.572C84.9348 239.554 85.6507 239.281 86.2181 238.798C86.8978 238.233 87.5244 237.606 88.0901 236.926C89.1207 235.726 90.0377 234.433 90.8294 233.064C91.1861 232.512 91.4752 231.919 91.6906 231.298C91.3085 231.826 90.9544 232.374 90.6298 232.939C89.783 234.248 88.849 235.499 87.8342 236.683C87.2903 237.344 86.6935 237.96 86.0496 238.524C85.5398 238.977 84.8954 239.251 84.2151 239.304C83.7554 239.334 83.2982 239.216 82.9109 238.967C82.6176 238.817 82.5115 238.655 82.4866 238.674Z" fill="#455A64"/>
<path d="M109.256 239.872C109.256 239.872 109.256 240.046 109.437 240.308C109.676 240.672 109.997 240.976 110.373 241.194C110.94 241.528 111.588 241.699 112.245 241.687C113.042 241.654 113.815 241.408 114.485 240.976C115.655 240.166 116.586 239.056 117.181 237.762C117.47 237.26 117.694 236.724 117.849 236.165C117.52 236.638 117.226 237.135 116.969 237.65C116.338 238.862 115.424 239.905 114.304 240.689C113.687 241.093 112.975 241.33 112.239 241.375C111.637 241.398 111.039 241.265 110.504 240.989C110.01 240.714 109.584 240.332 109.256 239.872Z" fill="#455A64"/>
<path d="M108.389 234.724C108.718 235.001 109.097 235.213 109.506 235.348C110.468 235.752 111.495 235.981 112.538 236.022C113.595 236.071 114.652 235.929 115.658 235.603C116.076 235.492 116.47 235.304 116.819 235.048C115.448 235.468 114.022 235.679 112.588 235.672C111.148 235.574 109.731 235.254 108.389 234.724Z" fill="#455A64"/>
<path d="M97.4813 115.546L82.861 115.365L84.4958 103.347C84.4958 103.347 83.4974 103.141 83.4288 97.9118C83.3602 92.6827 83.1106 83.7969 83.1106 83.7969C86.1948 82.5176 89.5578 82.0584 92.8721 82.4641C96.1864 82.8698 99.3393 84.1265 102.024 86.1119L102.829 86.7359L97.4813 115.546Z" fill="#FFBE9D"/>
<path d="M101.132 93.1196C101.225 93.0822 104.876 92.0588 104.732 95.6156C104.589 99.1724 100.919 98.3363 100.919 98.2302C100.919 98.1241 101.132 93.1196 101.132 93.1196Z" fill="#FFBE9D"/>
<path d="M83.7408 92.3516C83.6472 92.3142 80.3525 91.4593 80.4648 95.0286C80.5771 98.5979 84.2774 97.7555 84.2837 97.6494C84.2899 97.5433 83.7408 92.3516 83.7408 92.3516Z" fill="#FFBE9D"/>
<path d="M102.336 92.7202C101.787 95.7154 101.893 97.2879 101.381 99.2909C100.57 102.455 98.9415 104.907 95.9899 106.467C93.0384 108.027 89.0386 108.021 86.5051 105.843C84.7392 104.345 83.4912 102.661 83.2291 100.408C82.9671 98.1553 82.7112 94.1679 82.6925 91.9153C82.6925 87.8343 82.3805 83.9343 82.3805 83.9343L94.4549 81.8252L101.319 85.7689L102.336 92.7202Z" fill="#263238"/>
<path d="M89.856 108.27C90.5323 108.519 91.2628 108.581 91.9714 108.451C92.6896 108.431 93.3886 108.216 93.9931 107.827C93.9931 107.74 93.0696 108.008 91.9339 108.127C90.7983 108.245 89.8872 108.177 89.856 108.27Z" fill="#263238"/>
<path d="M101.749 97.8119C102.099 94.7418 102.33 91.2349 102.829 87.9964C103.016 86.7484 103.453 85.0324 103.353 83.8093C103.317 82.5715 103.046 81.3519 102.554 80.2151C102.188 79.5123 101.668 78.9011 101.032 78.4269C100.397 77.9526 99.6633 77.6276 98.8853 77.4757C98.0995 77.3301 97.2914 77.358 96.5175 77.5574C95.7436 77.7568 95.0226 78.1229 94.405 78.6301C93.9397 77.9957 93.3014 77.5088 92.5666 77.2277C91.8318 76.9466 91.0315 76.8832 90.2616 77.0452C89.5027 77.2194 88.8125 77.6147 88.2783 78.1812C87.7441 78.7476 87.3897 79.4598 87.2602 80.2276C86.8121 79.8402 86.2559 79.5996 85.6668 79.5382C85.0776 79.4769 84.4838 79.5977 83.9655 79.8844C83.4695 80.183 83.0843 80.635 82.8682 81.172C82.652 81.7091 82.6166 82.3019 82.7674 82.8608C82.3387 82.9315 81.9333 83.1045 81.5857 83.3652C81.2381 83.6259 80.9585 83.9666 80.7706 84.3584C80.5967 84.7493 80.5239 85.1775 80.5588 85.6039C80.5937 86.0302 80.7352 86.4409 80.9703 86.7983C81.5319 87.6282 82.5427 88.0837 83.1543 88.8762C83.5034 89.3341 83.7077 89.8858 83.7411 90.4606C83.7744 91.0354 83.6353 91.6071 83.3415 92.1023" fill="#263238"/>
<path d="M84.9763 86.736C84.9956 86.8554 85.0426 86.9687 85.1136 87.0667C85.286 87.3717 85.5249 87.6341 85.8125 87.8342C86.2705 88.1609 86.8225 88.3296 87.385 88.3147C87.7496 88.3032 88.1083 88.2196 88.4403 88.0685C88.7723 87.9175 89.0711 87.7021 89.3194 87.4348L89.0635 87.3662C89.1563 87.7784 89.3538 88.1598 89.6369 88.4735C89.9199 88.7872 90.2791 89.0226 90.6797 89.1571C91.1265 89.324 91.6069 89.381 92.0803 89.3235C92.5538 89.2659 93.0065 89.0954 93.4003 88.8264C94.1057 88.3596 94.6436 87.6797 94.9354 86.8857L94.6421 86.9232C94.9522 87.3614 95.3613 87.7204 95.8362 87.9709C96.3111 88.2213 96.8384 88.3562 97.3752 88.3646C97.7998 88.3741 98.2221 88.299 98.6174 88.1436C99.0127 87.9883 99.3732 87.7558 99.6778 87.4598C100.071 87.0863 100.358 86.6145 100.508 86.0932C100.574 85.9117 100.6 85.7179 100.583 85.5254C100.583 85.5254 100.526 85.7251 100.402 86.062C100.214 86.5401 99.9168 86.9675 99.5342 87.31C98.9463 87.8375 98.1771 88.1171 97.3877 88.09C96.8958 88.0732 96.4146 87.9428 95.9815 87.709C95.5485 87.4751 95.1755 87.1442 94.8917 86.7422L94.717 86.4739L94.5984 86.7734C94.3237 87.4978 93.8309 88.1192 93.1882 88.5518C92.8393 88.7919 92.438 88.9449 92.0179 88.9981C91.5977 89.0513 91.171 89.0031 90.7733 88.8575C90.4215 88.7437 90.1043 88.5427 89.8511 88.2732C89.598 88.0037 89.4172 87.6745 89.3256 87.3163L89.2757 87.0168L89.0698 87.2476C88.6764 87.6844 88.1415 87.9683 87.5593 88.0493C86.9772 88.1304 86.3851 88.0034 85.8874 87.6907C85.5243 87.435 85.2147 87.1106 84.9763 86.736Z" fill="#455A64"/>
<path d="M85.0012 85.3069C85.0707 84.839 85.2457 84.393 85.5129 84.0027C85.8205 83.5914 86.2618 83.3002 86.7609 83.179C87.0746 83.1078 87.3995 83.1009 87.7159 83.1588C88.0323 83.2167 88.3337 83.3382 88.6017 83.516L88.895 83.7219L88.8638 83.3725C88.835 83.0244 88.8775 82.674 88.9886 82.3429C89.1098 81.9787 89.304 81.6432 89.5594 81.3567C89.8147 81.0702 90.1259 80.8389 90.4737 80.6768C91.0635 80.4207 91.7207 80.3637 92.3457 80.5146C92.925 80.6791 93.4602 80.9712 93.912 81.3694C93.912 81.3694 93.8433 81.201 93.6124 80.9701C93.2692 80.6544 92.8567 80.4236 92.4081 80.2962C91.6534 80.0643 90.8378 80.1386 90.1374 80.5028C89.4369 80.867 88.9078 81.4921 88.6641 82.243C88.5408 82.6167 88.4962 83.0119 88.5331 83.4037L88.7952 83.2539C88.4873 83.0521 88.1406 82.9169 87.7775 82.8567C87.4143 82.7965 87.0426 82.8128 86.686 82.9045C86.1228 83.0496 85.6336 83.3987 85.3132 83.8842C85.1042 84.1906 84.9755 84.5446 84.9388 84.9138C84.9451 85.1696 84.9825 85.3069 85.0012 85.3069Z" fill="#455A64"/>
<path d="M92.7015 85.4065C92.7451 85.4065 92.7015 85.2068 92.7015 84.9198C92.738 84.54 92.8688 84.1754 93.0821 83.859C93.3255 83.4908 93.6125 83.1164 93.781 82.9105C93.9495 82.7046 94.1367 82.8606 94.1679 82.8419C94.1991 82.8232 94.1679 82.7608 94.0867 82.6984C94.0157 82.6596 93.9351 82.6419 93.8544 82.6475C93.7737 82.653 93.6963 82.6815 93.6312 82.7296C93.4768 82.8506 93.3365 82.9888 93.2131 83.1414C93.0583 83.3137 92.9164 83.4972 92.7888 83.6905C92.5425 84.0578 92.4281 84.4978 92.4643 84.9385C92.5143 85.263 92.664 85.4252 92.7015 85.4065Z" fill="#455A64"/>
<path d="M99.84 80.9139C99.8774 80.9139 99.84 80.6331 99.6154 80.2899C99.4772 80.0615 99.2869 79.8691 99.06 79.7283C98.7677 79.5469 98.4209 79.474 98.0803 79.5224C97.4973 79.6224 96.9736 79.9388 96.6139 80.4085C96.3456 80.7392 96.2208 80.9638 96.252 80.9888C96.2832 81.0138 96.4891 80.839 96.7886 80.5645C97.1514 80.1951 97.6165 79.943 98.124 79.8406C98.3712 79.8162 98.6206 79.8569 98.8472 79.9587C99.0738 80.0605 99.2698 80.2199 99.4157 80.421C99.6965 80.7018 99.84 80.9326 99.84 80.9139Z" fill="#455A64"/>
<path d="M97.968 96.0958C99.0775 94.7273 99.6872 93.0214 99.6965 91.2598C99.5966 91.2598 99.4032 92.383 98.929 93.7121C98.4547 95.0412 97.8994 96.0209 97.968 96.0958Z" fill="#455A64"/>
<path d="M96.3643 96.9322C96.7764 96.4605 97.0808 95.9047 97.2566 95.3036C97.5343 94.7465 97.6855 94.135 97.6997 93.5127C97.3725 94.0351 97.1184 94.5999 96.9446 95.1913C96.6672 95.7401 96.4717 96.3267 96.3643 96.9322Z" fill="#455A64"/>
<path d="M86.1868 97.1753C86.0158 98.2338 86.1612 99.3192 86.6049 100.295C86.9597 101.333 87.6104 102.244 88.4769 102.916C87.8957 102.048 87.3865 101.134 86.9544 100.183C86.6177 99.2028 86.361 98.1969 86.1868 97.1753Z" fill="#455A64"/>
<path d="M84.5645 94.5669C84.1768 95.4575 84.0935 96.4509 84.3273 97.3936C84.4533 98.3633 84.8914 99.2657 85.5753 99.9645C85.1947 99.1168 84.8878 98.2379 84.6581 97.3375C84.5435 96.4186 84.5122 95.4913 84.5645 94.5669Z" fill="#455A64"/>
<path d="M65.0146 144.599V159.575C65.0146 159.575 76.2466 184.398 76.2466 184.017C76.2466 183.637 80.2589 168.349 80.2589 168.349L75.7411 156.424L75.3168 148.637L66.0442 130.091C66.0442 130.091 63.7416 142.571 64.116 143.32C64.3465 143.791 64.6497 144.223 65.0146 144.599Z" fill="#106FA4"/>
<path d="M79.0047 114.859C79.0047 114.859 68.796 120.157 67.5355 121.792C66.2751 123.427 66.0255 130.11 66.0255 130.11L79.0047 156.068L79.6287 166.527C79.6287 166.527 75.7224 174.67 75.7224 180.361V180.985L75.0984 188.797L90.6984 190.182C90.6984 190.182 91.5845 185.895 91.5845 186.276C91.5845 186.657 92.7202 190.182 92.7202 190.182H118.56L117.605 172.979L113.206 146.421C113.206 146.421 115.078 131.189 115.172 130.634C115.334 129.648 131.695 122.391 131.695 122.391L139.402 118.229C140.385 117.694 141.206 116.904 141.779 115.942C142.352 114.98 142.656 113.882 142.659 112.763C142.655 111.606 142.33 110.472 141.72 109.489C141.109 108.506 140.238 107.713 139.202 107.197L117.456 96.4326L112.395 104.944L119.022 109.2L123.77 112.488L110.598 113.736C110.598 113.736 108.258 110.679 107.253 110.679C106.248 110.679 98.1802 112.551 98.1802 112.551L98.305 110.535C98.305 110.535 96.1647 108.139 93.7685 108.264C91.3723 108.388 81.2885 111.29 81.2885 111.29L79.0047 114.859Z" fill="#106FA4"/>
<path d="M115.64 99.4842L109.968 96.1832L101.338 91.5032C101.338 91.5032 98.4922 89.3442 97.369 89.4066C96.8918 89.4935 96.4384 89.6801 96.0384 89.9543C95.6384 90.2285 95.3008 90.5841 95.0477 90.9978C94.9978 91.2536 95.4658 91.7279 96.1896 91.5282C96.4267 91.4658 97.0882 90.9853 97.4376 91.0602C98.1068 91.2186 98.6858 91.636 99.0475 92.2208C99.0922 92.2785 99.1197 92.3475 99.1269 92.4201C99.134 92.4927 99.1205 92.5658 99.0879 92.631C99.0553 92.6963 99.0049 92.7509 98.9426 92.7888C98.8802 92.8266 98.8084 92.846 98.7355 92.8448C98.7355 92.8448 93.8496 91.5968 92.0275 92.5952C91.8127 92.6997 91.6437 92.8794 91.5528 93.1004C91.4619 93.3213 91.4554 93.5679 91.5346 93.7933C91.6656 94.1116 92.015 94.4173 92.8699 94.2301C94.5859 93.8994 97.4189 95.216 97.4189 95.216C97.4189 95.216 91.079 95.0101 89.9933 95.553C89.5627 95.7652 89.0947 97.1504 90.3864 97.294C91.909 97.4562 94.9104 97.3938 94.9104 97.3938C94.9104 97.3938 97.7434 97.7869 97.2878 98.3173C96.8323 98.8477 92.483 98.8914 92.1523 98.9413C91.8216 98.9912 90.349 98.9413 90.4301 100.139C90.4738 100.82 91.7467 101.25 93.3941 101.194C94.7918 101.15 99.1286 101.063 99.6341 101.855C100.14 102.648 99.7963 103.222 99.397 103.422C98.1284 103.734 96.8367 103.942 95.5344 104.046C94.9603 104.046 94.2053 105.106 95.603 105.443C97.1256 105.818 98.411 105.512 99.7277 105.512C101.044 105.512 102.729 105.618 106.423 104.17C106.423 104.17 108.919 103.041 112.314 104.988L115.64 99.4842Z" fill="#FFBE9D"/>
<path d="M97.5437 112.676C97.5437 112.769 93.5688 113.3 88.6392 113.924C83.7096 114.548 79.6973 114.934 79.691 114.841C79.6848 114.747 83.6659 114.217 88.6018 113.593C93.5376 112.969 97.5375 112.588 97.5437 112.676Z" fill="#263238"/>
<path d="M96.6576 167.856C96.7217 167.732 96.7947 167.613 96.876 167.5L97.5624 166.508C98.1864 165.653 99.0163 164.399 100.058 162.826C101.1 161.254 102.255 159.369 103.497 157.21C104.738 155.051 105.993 152.674 107.284 150.109C108.576 147.545 109.631 145.055 110.573 142.765C111.515 140.475 112.276 138.397 112.882 136.612C113.487 134.828 113.961 133.405 114.267 132.4C114.417 131.932 114.535 131.552 114.629 131.252C114.668 131.117 114.718 130.986 114.779 130.859C114.766 130.999 114.738 131.137 114.697 131.271C114.616 131.57 114.516 131.957 114.385 132.438C114.117 133.455 113.687 134.934 113.1 136.687C112.513 138.44 111.765 140.575 110.847 142.877C109.93 145.18 108.832 147.682 107.578 150.253C106.323 152.824 105.007 155.245 103.759 157.36C102.511 159.476 101.306 161.385 100.252 162.939C99.1973 164.492 98.3174 165.728 97.681 166.558L96.9509 167.519C96.8669 167.643 96.7685 167.756 96.6576 167.856Z" fill="#263238"/>
<path d="M75.504 184.042C75.4957 183.926 75.4957 183.809 75.504 183.693C75.504 183.443 75.5602 183.106 75.5976 182.694C75.6912 181.827 75.8722 180.56 76.153 178.982C76.9499 174.733 78.0659 170.551 79.4914 166.47V166.533C79.3541 164.361 79.2106 162.021 79.067 159.594C78.9922 158.39 78.9235 157.204 78.8549 156.075V156.137C76.0781 150.727 73.7818 145.878 72.2155 142.359C71.4293 140.606 70.8302 139.177 70.4309 138.191C70.2499 137.717 70.1002 137.336 69.9878 137.049C69.9421 136.921 69.9087 136.79 69.888 136.656C69.9625 136.776 70.0252 136.904 70.0752 137.036L70.5682 138.153C71.005 139.121 71.629 140.537 72.4402 142.278C74.0563 145.766 76.3901 150.602 79.1669 156.006V156.037C79.2355 157.167 79.3104 158.352 79.379 159.557C79.5288 161.984 79.6661 164.324 79.7909 166.495V166.527C78.3584 170.588 77.2096 174.743 76.3526 178.963C76.0406 180.535 75.8347 181.796 75.7286 182.657L75.5789 183.649C75.577 183.784 75.5517 183.917 75.504 184.042Z" fill="#263238"/>
<path d="M92.4518 178.951C92.3258 180.873 92.0946 182.788 91.7592 184.685C91.5292 186.596 91.1917 188.491 90.7483 190.364C90.8707 188.443 91.102 186.53 91.4409 184.635C91.6713 182.723 92.0088 180.825 92.4518 178.951Z" fill="#263238"/>
<path d="M110.941 125.979C110.811 125.845 110.699 125.694 110.61 125.53C110.417 125.23 110.155 124.781 109.855 124.213C109.084 122.724 108.471 121.157 108.027 119.54C107.578 117.923 107.298 116.265 107.191 114.591C107.153 113.967 107.147 113.431 107.16 113.075C107.151 112.888 107.168 112.702 107.209 112.52C107.266 112.52 107.284 113.306 107.422 114.572C107.758 117.877 108.651 121.1 110.061 124.107C110.386 124.716 110.68 125.34 110.941 125.979Z" fill="#263238"/>
<g opacity="0.3">
<path d="M97.344 166.664C97.9861 166.935 98.6826 167.052 99.378 167.007C100.073 166.961 100.749 166.754 101.35 166.402C102.544 165.683 103.591 164.742 104.433 163.631C110.983 155.676 114.25 145.521 113.568 135.239C109.882 146.208 104.589 156.569 97.8619 165.984" fill="black"/>
</g>
<g opacity="0.3">
<path d="M70.3997 137.954C69.8545 137.302 69.1553 136.796 68.3654 136.481C67.9982 136.337 67.5894 136.341 67.2251 136.492C66.8607 136.644 66.5693 136.931 66.4123 137.292C66.3446 137.715 66.401 138.149 66.5746 138.54C67.7789 142.091 69.0206 145.723 71.3794 148.637C71.8043 149.108 72.3039 149.507 72.8582 149.816C73.4198 150.172 74.9486 150.484 75.1608 149.879C75.2703 149.364 75.2703 148.833 75.1608 148.319C75.1608 148.319 71.7974 141.455 70.1688 137.929" fill="black"/>
</g>
<g opacity="0.3">
<path d="M123.633 112.482C125.134 112.836 126.701 112.808 128.188 112.401C125.848 110.629 122.797 110.242 119.889 109.849L123.633 112.482Z" fill="black"/>
</g>
<path d="M133.268 112.744C132.784 112.793 132.297 112.793 131.814 112.744L128.332 112.645L124.85 112.588C124.366 112.609 123.881 112.582 123.402 112.507C123.875 112.399 124.359 112.349 124.844 112.358C125.736 112.314 126.972 112.289 128.338 112.32C129.705 112.351 130.94 112.432 131.832 112.514C132.318 112.534 132.8 112.611 133.268 112.744Z" fill="#263238"/>
<path d="M68.64 154.752C68.64 154.715 68.9707 154.939 69.445 155.301C70.0362 155.786 70.6861 156.195 71.3794 156.518C72.0722 156.818 72.8355 156.918 73.5821 156.805C74.1499 156.699 74.4619 156.487 74.4931 156.537C74.5243 156.587 74.2373 156.855 73.632 157.03C72.8379 157.224 72.0019 157.149 71.2546 156.818C70.5303 156.484 69.8678 156.031 69.2952 155.476C68.8709 155.033 68.64 154.752 68.64 154.752Z" fill="#263238"/>
<path opacity="0.3" d="M92.4518 180.13L95.5219 190.214H92.7389L91.4472 185.677L92.4518 180.13Z" fill="black"/>
</svg>
