<svg width="52" height="52" viewBox="0 0 52 52" fill="none" xmlns="http://www.w3.org/2000/svg">
<rect width="52" height="52" rx="8" fill="#1054BA"/>
<path d="M24.925 28.05L30.6 22.4L29.175 20.975L24.925 25.225L22.8 23.1L21.4 24.5L24.925 28.05ZM15 35V33H37V35H15ZM18 32C17.45 32 16.9793 31.8043 16.588 31.413C16.1967 31.0217 16.0007 30.5507 16 30V19C16 18.45 16.196 17.9793 16.588 17.588C16.98 17.1967 17.4507 17.0007 18 17H34C34.55 17 35.021 17.196 35.413 17.588C35.805 17.98 36.0007 18.4507 36 19V30C36 30.55 35.8043 31.021 35.413 31.413C35.0217 31.805 34.5507 32.0007 34 32H18ZM18 30H34V19H18V30Z" fill="white"/>
</svg>
