<svg width="52" height="52" viewBox="0 0 52 52" fill="none" xmlns="http://www.w3.org/2000/svg">
<rect width="52" height="52" rx="8" fill="#10BAB0"/>
<path d="M32 26.75L33.434 29.5272L36.5 29.9728L34.25 32L34.8283 35L32 33.3125L29.1718 35L29.75 32L27.5 29.9728L30.65 29.5272L32 26.75ZM18.5 26H23V27.5H18.5V26ZM18.5 23H26V24.5H18.5V23ZM18.5 20H26V21.5H18.5V20Z" fill="white"/>
<path d="M26 33.5H17V18.5H35V26H36.5V18.5C36.5 18.1022 36.342 17.7206 36.0607 17.4393C35.7794 17.158 35.3978 17 35 17H17C16.6022 17 16.2206 17.158 15.9393 17.4393C15.658 17.7206 15.5 18.1022 15.5 18.5V33.5C15.5 33.8978 15.658 34.2794 15.9393 34.5607C16.2206 34.842 16.6022 35 17 35H26V33.5Z" fill="white"/>
</svg>
