<svg width="52" height="52" viewBox="0 0 52 52" fill="none" xmlns="http://www.w3.org/2000/svg">
<rect width="52" height="52" rx="8" fill="#3210BA"/>
<g clip-path="url(#clip0_19102_25191)">
<path fill-rule="evenodd" clip-rule="evenodd" d="M12 16V35H26.9247V33.6429H13.3333V17.3571H31.3333V18.7957H32.6667V16H12ZM32.6667 22.7857C32.6667 23.1457 32.5262 23.4908 32.2761 23.7454C32.0261 23.9999 31.687 24.1429 31.3333 24.1429C30.9797 24.1429 30.6406 23.9999 30.3905 23.7454C30.1405 23.4908 30 23.1457 30 22.7857C30 22.4258 30.1405 22.0806 30.3905 21.8261C30.6406 21.5716 30.9797 21.4286 31.3333 21.4286C31.687 21.4286 32.0261 21.5716 32.2761 21.8261C32.5262 22.0806 32.6667 22.4258 32.6667 22.7857ZM34 22.7857C34 23.5056 33.719 24.196 33.219 24.705C32.7189 25.214 32.0406 25.5 31.3333 25.5C30.6261 25.5 29.9478 25.214 29.4477 24.705C28.9476 24.196 28.6667 23.5056 28.6667 22.7857C28.6667 22.0658 28.9476 21.3755 29.4477 20.8664C29.9478 20.3574 30.6261 20.0714 31.3333 20.0714C32.0406 20.0714 32.7189 20.3574 33.219 20.8664C33.719 21.3755 34 22.0658 34 22.7857Z" fill="white"/>
<path fill-rule="evenodd" clip-rule="evenodd" d="M28.2831 26.5533C28.6446 26.1984 29.125 26.0003 29.6247 26H32.2701C33.2189 26 34.1022 26.332 34.7827 26.9933C35.4373 27.6293 35.7782 28.4447 35.9175 29.2173C36.1366 30.432 35.9097 31.7593 35.3517 32.936V38.3333C35.3517 38.7515 35.1989 39.1545 34.9235 39.4622C34.6481 39.7699 34.2704 39.9598 33.8652 39.9943C33.46 40.0288 33.057 39.9053 32.7362 39.6484C32.4154 39.3914 32.2002 39.0198 32.1334 38.6073L31.7873 36.4713L31.4412 38.6073C31.3744 39.0198 31.1592 39.3914 30.8384 39.6484C30.5176 39.9053 30.1146 40.0288 29.7094 39.9943C29.3042 39.9598 28.9264 39.7699 28.6511 39.4622C28.3757 39.1545 28.2228 38.7515 28.2229 38.3333V32.062C27.9273 32.2375 27.592 32.33 27.2507 32.33H23.9442C23.4286 32.33 22.9341 32.1193 22.5695 31.7442C22.2048 31.3691 22 30.8604 22 30.33C22 29.7995 22.2048 29.2908 22.5695 28.9158C22.9341 28.5407 23.4286 28.33 23.9442 28.33H26.4717L28.2831 26.5533ZM29.519 34.3166V38.3333C29.5192 38.4168 29.5499 38.4971 29.605 38.5585C29.66 38.6198 29.7355 38.6577 29.8164 38.6646C29.8973 38.6714 29.9777 38.6468 30.0418 38.5956C30.1059 38.5444 30.149 38.4703 30.1626 38.3879L30.8385 34.2173C30.8637 34.0616 30.9417 33.9202 31.0587 33.8181C31.1757 33.7161 31.3241 33.66 31.4775 33.66H32.0971C32.2505 33.66 32.3989 33.7161 32.5159 33.8181C32.6329 33.9202 32.7109 34.0616 32.7361 34.2173L33.412 38.3879C33.4256 38.4703 33.4686 38.5444 33.5327 38.5956C33.5968 38.6468 33.6773 38.6714 33.7582 38.6646C33.8391 38.6577 33.9145 38.6198 33.9696 38.5585C34.0247 38.4971 34.0553 38.4168 34.0556 38.3333V32.778C34.0556 32.6712 34.0804 32.5661 34.1282 32.4713C34.6285 31.4773 34.8106 30.3886 34.6434 29.4606C34.5416 28.8967 34.3038 28.362 33.8929 27.9627C33.4736 27.5553 32.9175 27.3333 32.2701 27.3333H29.6253C29.4587 27.3333 29.298 27.3993 29.1775 27.5173L27.1788 29.4787C27.0584 29.597 26.8982 29.6632 26.7316 29.6633H23.9442C23.7724 29.6633 23.6075 29.7336 23.486 29.8586C23.3644 29.9836 23.2962 30.1532 23.2962 30.33C23.2962 30.5068 23.3644 30.6764 23.486 30.8014C23.6075 30.9264 23.7724 30.9966 23.9442 30.9966H27.2507C27.4173 30.9965 27.5775 30.9304 27.6979 30.812L28.4238 30.1C28.5156 30.0099 28.6311 29.9496 28.756 29.9264C28.8808 29.9033 29.0095 29.9183 29.1261 29.9697C29.2428 30.0211 29.3421 30.1066 29.412 30.2155C29.4818 30.3245 29.519 30.4521 29.519 30.5826V34.3166Z" fill="white"/>
</g>
<defs>
<clipPath id="clip0_19102_25191">
<rect width="24" height="24" fill="white" transform="translate(15 13)"/>
</clipPath>
</defs>
</svg>
