<svg width="16" height="16" viewBox="0 0 16 16" fill="none" xmlns="http://www.w3.org/2000/svg">
<path d="M10.4395 4.91394L8.31461 2.78906C8.13795 2.6224 7.86198 2.6224 7.68532 2.78906L5.56089 4.91394C5.43374 5.04113 5.39571 5.23238 5.46452 5.39853C5.53334 5.56469 5.69546 5.67304 5.8753 5.67308H7.22192C7.28333 5.67308 7.3331 5.72286 7.3331 5.78426V12.6654C7.3331 13.0339 7.63177 13.3325 8.00019 13.3325C8.36861 13.3325 8.66727 13.0339 8.66727 12.6654V5.78426C8.66715 5.75474 8.67883 5.72639 8.6997 5.70551C8.72058 5.68464 8.74893 5.67296 8.77845 5.67308H10.1251C10.3049 5.67304 10.467 5.56469 10.5358 5.39853C10.6047 5.23238 10.5666 5.04113 10.4395 4.91394Z" fill="#3EB449"/>
<mask id="mask0_11472_89071" style="mask-type:alpha" maskUnits="userSpaceOnUse" x="5" y="2" width="6" height="12">
<path d="M10.4395 4.91394L8.31461 2.78906C8.13795 2.6224 7.86198 2.6224 7.68532 2.78906L5.56089 4.91394C5.43374 5.04113 5.39571 5.23238 5.46452 5.39853C5.53334 5.56469 5.69546 5.67304 5.8753 5.67308H7.22192C7.28333 5.67308 7.3331 5.72286 7.3331 5.78426V12.6654C7.3331 13.0339 7.63177 13.3325 8.00019 13.3325C8.36861 13.3325 8.66727 13.0339 8.66727 12.6654V5.78426C8.66715 5.75474 8.67883 5.72639 8.6997 5.70551C8.72058 5.68464 8.74893 5.67296 8.77845 5.67308H10.1251C10.3049 5.67304 10.467 5.56469 10.5358 5.39853C10.6047 5.23238 10.5666 5.04113 10.4395 4.91394Z" fill="white"/>
</mask>
<g mask="url(#mask0_11472_89071)">
</g>
</svg>
