<svg width="22" height="22" viewBox="0 0 22 22" fill="none" xmlns="http://www.w3.org/2000/svg">
<path d="M15.8431 5.85938V17.3065" stroke="white" stroke-width="1.5"/>
<path d="M6.15698 5.85938H15.843" stroke="white" stroke-width="1.5"/>
<path d="M6.15698 17.3065V5.85938" stroke="white" stroke-width="1.5"/>
<path d="M15.843 17.3125H6.15698" stroke="white" stroke-width="1.5"/>
<path fill-rule="evenodd" clip-rule="evenodd" d="M15.843 5.86266H6.15698L7.03753 4.10156H14.9625L15.843 5.86266Z" stroke="white" stroke-width="1.5"/>
<path d="M4.396 17.3125H17.6042" stroke="white" stroke-width="1.5"/>
<path fill-rule="evenodd" clip-rule="evenodd" d="M12.3208 15.9927C12.3208 15.2632 11.7295 14.6719 11 14.6719C10.2706 14.6719 9.6792 15.2632 9.6792 15.9927V17.3135H12.3208V15.9927Z" stroke="white" stroke-width="1.5"/>
<path d="M8.3584 7.40625C8.47998 7.40625 8.57854 7.50481 8.57854 7.62639" stroke="white" stroke-width="1.5"/>
<path d="M8.13843 7.62639C8.13843 7.50481 8.23699 7.40625 8.35857 7.40625" stroke="white" stroke-width="1.5"/>
<path d="M8.35857 7.84514C8.23699 7.84514 8.13843 7.74658 8.13843 7.625" stroke="white" stroke-width="1.5"/>
<path d="M8.57854 7.625C8.57854 7.74658 8.47998 7.84514 8.3584 7.84514" stroke="white" stroke-width="1.5"/>
<path d="M8.3584 10.0469C8.47998 10.0469 8.57854 10.1454 8.57854 10.267" stroke="white" stroke-width="1.5"/>
<path d="M8.13843 10.267C8.13843 10.1454 8.23699 10.0469 8.35857 10.0469" stroke="white" stroke-width="1.5"/>
<path d="M8.35857 10.4858C8.23699 10.4858 8.13843 10.3872 8.13843 10.2656" stroke="white" stroke-width="1.5"/>
<path d="M8.57854 10.2656C8.57854 10.3872 8.47998 10.4858 8.3584 10.4858" stroke="white" stroke-width="1.5"/>
<path d="M8.3584 12.6875C8.47998 12.6875 8.57854 12.7861 8.57854 12.9076" stroke="white" stroke-width="1.5"/>
<path d="M8.13843 12.9076C8.13843 12.7861 8.23699 12.6875 8.35857 12.6875" stroke="white" stroke-width="1.5"/>
<path d="M8.35857 13.1264C8.23699 13.1264 8.13843 13.0278 8.13843 12.9062" stroke="white" stroke-width="1.5"/>
<path d="M8.57854 12.9062C8.57854 13.0278 8.47998 13.1264 8.3584 13.1264" stroke="white" stroke-width="1.5"/>
<path d="M11 7.40625C11.1216 7.40625 11.2201 7.50481 11.2201 7.62639" stroke="white" stroke-width="1.5"/>
<path d="M10.78 7.62639C10.78 7.50481 10.8786 7.40625 11.0002 7.40625" stroke="white" stroke-width="1.5"/>
<path d="M11.0002 7.84514C10.8786 7.84514 10.78 7.74658 10.78 7.625" stroke="white" stroke-width="1.5"/>
<path d="M11.2201 7.625C11.2201 7.74658 11.1216 7.84514 11 7.84514" stroke="white" stroke-width="1.5"/>
<path d="M11 10.0469C11.1216 10.0469 11.2201 10.1454 11.2201 10.267" stroke="white" stroke-width="1.5"/>
<path d="M10.78 10.267C10.78 10.1454 10.8786 10.0469 11.0002 10.0469" stroke="white" stroke-width="1.5"/>
<path d="M11.0002 10.4858C10.8786 10.4858 10.78 10.3872 10.78 10.2656" stroke="white" stroke-width="1.5"/>
<path d="M11.2201 10.2656C11.2201 10.3872 11.1216 10.4858 11 10.4858" stroke="white" stroke-width="1.5"/>
<path d="M11 12.6875C11.1216 12.6875 11.2201 12.7861 11.2201 12.9076" stroke="white" stroke-width="1.5"/>
<path d="M10.78 12.9076C10.78 12.7861 10.8786 12.6875 11.0002 12.6875" stroke="white" stroke-width="1.5"/>
<path d="M11.0002 13.1264C10.8786 13.1264 10.78 13.0278 10.78 12.9062" stroke="white" stroke-width="1.5"/>
<path d="M11.2201 12.9062C11.2201 13.0278 11.1216 13.1264 11 13.1264" stroke="white" stroke-width="1.5"/>
<path d="M13.6418 7.40625C13.7634 7.40625 13.862 7.50481 13.862 7.62639" stroke="white" stroke-width="1.5"/>
<path d="M13.4216 7.62639C13.4216 7.50481 13.5202 7.40625 13.6418 7.40625" stroke="white" stroke-width="1.5"/>
<path d="M13.6418 7.84514C13.5202 7.84514 13.4216 7.74658 13.4216 7.625" stroke="white" stroke-width="1.5"/>
<path d="M13.862 7.625C13.862 7.74658 13.7634 7.84514 13.6418 7.84514" stroke="white" stroke-width="1.5"/>
<path d="M13.6418 10.0469C13.7634 10.0469 13.862 10.1454 13.862 10.267" stroke="white" stroke-width="1.5"/>
<path d="M13.4216 10.267C13.4216 10.1454 13.5202 10.0469 13.6418 10.0469" stroke="white" stroke-width="1.5"/>
<path d="M13.6418 10.4858C13.5202 10.4858 13.4216 10.3872 13.4216 10.2656" stroke="white" stroke-width="1.5"/>
<path d="M13.862 10.2656C13.862 10.3872 13.7634 10.4858 13.6418 10.4858" stroke="white" stroke-width="1.5"/>
<path d="M13.6418 12.6875C13.7634 12.6875 13.862 12.7861 13.862 12.9076" stroke="white" stroke-width="1.5"/>
<path d="M13.4216 12.9076C13.4216 12.7861 13.5202 12.6875 13.6418 12.6875" stroke="white" stroke-width="1.5"/>
<path d="M13.6418 13.1264C13.5202 13.1264 13.4216 13.0278 13.4216 12.9062" stroke="white" stroke-width="1.5"/>
<path d="M13.862 12.9062C13.862 13.0278 13.7634 13.1264 13.6418 13.1264" stroke="white" stroke-width="1.5"/>
</svg>
