<svg width="22" height="22" viewBox="0 0 22 22" fill="none" xmlns="http://www.w3.org/2000/svg">
<path fill-rule="evenodd" clip-rule="evenodd" d="M16.1978 5.80429H5.80237C5.68497 5.80412 5.57803 5.73675 5.5272 5.63092C5.47637 5.52509 5.49063 5.3995 5.56389 5.30776L6.60342 4.00834C6.77685 3.79039 7.04034 3.6636 7.31887 3.66406H14.6812C14.9598 3.6636 15.2233 3.79039 15.3967 4.00834L16.4368 5.30776C16.5102 5.39959 16.5244 5.52531 16.4734 5.63119C16.4224 5.73707 16.3153 5.80436 16.1978 5.80429ZM5.80233 6.72153H16.1977C16.3666 6.72153 16.5035 6.85842 16.5035 7.02728V17.4227C16.5035 17.9292 16.0928 18.3399 15.5862 18.3399H12.5288C12.3599 18.3399 12.223 18.203 12.223 18.0342V16.8112C12.223 16.1357 11.6755 15.5882 11 15.5882C10.3246 15.5882 9.77703 16.1357 9.77703 16.8112V18.0342C9.77703 18.203 9.64015 18.3399 9.47129 18.3399H6.41382C5.90724 18.3399 5.49658 17.9292 5.49658 17.4227V7.02728C5.49658 6.85842 5.63347 6.72153 5.80233 6.72153ZM8.55405 13.7537C8.55405 13.9226 8.41716 14.0594 8.2483 14.0594H7.02531C6.85646 14.0594 6.71957 13.9226 6.71957 13.7537V12.5307C6.71957 12.0241 7.13023 11.6135 7.63681 11.6135C8.14339 11.6135 8.55405 12.0241 8.55405 12.5307V13.7537ZM8.2483 10.3905C8.41716 10.3905 8.55405 10.2536 8.55405 10.0847V8.86176C8.55405 8.35518 8.14339 7.94452 7.63681 7.94452C7.13023 7.94452 6.71957 8.35518 6.71957 8.86176V10.0847C6.71957 10.2536 6.85646 10.3905 7.02531 10.3905H8.2483ZM11.9173 13.7537C11.9173 13.9226 11.7804 14.0594 11.6115 14.0594H10.3885C10.2197 14.0594 10.0828 13.9226 10.0828 13.7537V12.5307C10.0828 12.0241 10.4934 11.6135 11 11.6135C11.5066 11.6135 11.9173 12.0241 11.9173 12.5307V13.7537ZM11.6115 10.3905C11.7804 10.3905 11.9173 10.2536 11.9173 10.0847V8.86176C11.9173 8.35518 11.5066 7.94452 11 7.94452C10.4934 7.94452 10.0828 8.35518 10.0828 8.86176V10.0847C10.0828 10.2536 10.2197 10.3905 10.3885 10.3905H11.6115ZM15.2805 13.7537C15.2805 13.9226 15.1436 14.0594 14.9747 14.0594H13.7517C13.5829 14.0594 13.446 13.9226 13.446 13.7537V12.5307C13.446 12.0241 13.8567 11.6135 14.3632 11.6135C14.8698 11.6135 15.2805 12.0241 15.2805 12.5307V13.7537ZM14.9747 10.3905C15.1436 10.3905 15.2805 10.2536 15.2805 10.0847V8.86176C15.2805 8.35518 14.8698 7.94452 14.3632 7.94452C13.8567 7.94452 13.446 8.35518 13.446 8.86176V10.0847C13.446 10.2536 13.5829 10.3905 13.7517 10.3905H14.9747Z" fill="white"/>
<mask id="mask0_7265_58570" style="mask-type:alpha" maskUnits="userSpaceOnUse" x="5" y="3" width="12" height="16">
<path fill-rule="evenodd" clip-rule="evenodd" d="M16.1978 5.80429H5.80237C5.68497 5.80412 5.57803 5.73675 5.5272 5.63092C5.47637 5.52509 5.49063 5.3995 5.56389 5.30776L6.60342 4.00834C6.77685 3.79039 7.04034 3.6636 7.31887 3.66406H14.6812C14.9598 3.6636 15.2233 3.79039 15.3967 4.00834L16.4368 5.30776C16.5102 5.39959 16.5244 5.52531 16.4734 5.63119C16.4224 5.73707 16.3153 5.80436 16.1978 5.80429ZM5.80233 6.72153H16.1977C16.3666 6.72153 16.5035 6.85842 16.5035 7.02728V17.4227C16.5035 17.9292 16.0928 18.3399 15.5862 18.3399H12.5288C12.3599 18.3399 12.223 18.203 12.223 18.0342V16.8112C12.223 16.1357 11.6755 15.5882 11 15.5882C10.3246 15.5882 9.77703 16.1357 9.77703 16.8112V18.0342C9.77703 18.203 9.64015 18.3399 9.47129 18.3399H6.41382C5.90724 18.3399 5.49658 17.9292 5.49658 17.4227V7.02728C5.49658 6.85842 5.63347 6.72153 5.80233 6.72153ZM8.55405 13.7537C8.55405 13.9226 8.41716 14.0594 8.2483 14.0594H7.02531C6.85646 14.0594 6.71957 13.9226 6.71957 13.7537V12.5307C6.71957 12.0241 7.13023 11.6135 7.63681 11.6135C8.14339 11.6135 8.55405 12.0241 8.55405 12.5307V13.7537ZM8.2483 10.3905C8.41716 10.3905 8.55405 10.2536 8.55405 10.0847V8.86176C8.55405 8.35518 8.14339 7.94452 7.63681 7.94452C7.13023 7.94452 6.71957 8.35518 6.71957 8.86176V10.0847C6.71957 10.2536 6.85646 10.3905 7.02531 10.3905H8.2483ZM11.9173 13.7537C11.9173 13.9226 11.7804 14.0594 11.6115 14.0594H10.3885C10.2197 14.0594 10.0828 13.9226 10.0828 13.7537V12.5307C10.0828 12.0241 10.4934 11.6135 11 11.6135C11.5066 11.6135 11.9173 12.0241 11.9173 12.5307V13.7537ZM11.6115 10.3905C11.7804 10.3905 11.9173 10.2536 11.9173 10.0847V8.86176C11.9173 8.35518 11.5066 7.94452 11 7.94452C10.4934 7.94452 10.0828 8.35518 10.0828 8.86176V10.0847C10.0828 10.2536 10.2197 10.3905 10.3885 10.3905H11.6115ZM15.2805 13.7537C15.2805 13.9226 15.1436 14.0594 14.9747 14.0594H13.7517C13.5829 14.0594 13.446 13.9226 13.446 13.7537V12.5307C13.446 12.0241 13.8567 11.6135 14.3632 11.6135C14.8698 11.6135 15.2805 12.0241 15.2805 12.5307V13.7537ZM14.9747 10.3905C15.1436 10.3905 15.2805 10.2536 15.2805 10.0847V8.86176C15.2805 8.35518 14.8698 7.94452 14.3632 7.94452C13.8567 7.94452 13.446 8.35518 13.446 8.86176V10.0847C13.446 10.2536 13.5829 10.3905 13.7517 10.3905H14.9747Z" fill="white"/>
</mask>
<g mask="url(#mask0_7265_58570)">
</g>
</svg>
