<svg width="52" height="52" viewBox="0 0 52 52" fill="none" xmlns="http://www.w3.org/2000/svg">
<rect width="52" height="52" rx="26" fill="#E9F6FD"/>
<path fill-rule="evenodd" clip-rule="evenodd" d="M10.6162 26.0009C10.6162 17.5047 17.5037 10.6172 26 10.6172C34.4962 10.6172 41.3837 17.5047 41.3837 26.0009C41.3837 34.4971 34.4962 41.3847 26 41.3847C17.5037 41.3847 10.6162 34.4971 10.6162 26.0009ZM26 13.3672C19.0225 13.3672 13.3662 19.0235 13.3662 26.0009C13.3662 32.9784 19.0225 38.6347 26 38.6347C32.9774 38.6347 38.6337 32.9784 38.6337 26.0009C38.6337 19.0235 32.9774 13.3672 26 13.3672ZM27.375 25.4315V20.9978H24.625V26.5704L31.2808 33.2277L33.2256 31.2833L27.375 25.4315Z" fill="#106FA4"/>
</svg>
