<svg width="53" height="52" viewBox="0 0 53 52" fill="none" xmlns="http://www.w3.org/2000/svg">
<rect x="0.5" width="52" height="52" rx="26" fill="#E9F6FD"/>
<path fill-rule="evenodd" clip-rule="evenodd" d="M11.5186 26.0005C11.5186 17.7268 18.2258 11.0195 26.4996 11.0195C34.7733 11.0195 41.4806 17.7268 41.4806 26.0005C41.4806 34.2743 34.7733 40.9815 26.4996 40.9815C18.2258 40.9815 11.5186 34.2743 11.5186 26.0005ZM26.4996 12.8529C19.2383 12.8529 13.3519 18.7393 13.3519 26.0005C13.3519 33.2618 19.2383 39.1482 26.4996 39.1482C33.7608 39.1482 39.6472 33.2618 39.6472 26.0005C39.6472 18.7393 33.7608 12.8529 26.4996 12.8529ZM24.8314 22.2289C24.1987 21.5961 23.3003 21.3061 22.417 21.4493C21.5339 21.5926 20.7734 22.1515 20.373 22.9517C19.8373 24.0237 20.0475 25.3182 20.8947 26.1658L20.9084 26.1794L26.4996 32.0137L32.1042 26.1668C32.9515 25.3193 33.1617 24.0251 32.6262 22.9531M24.8314 22.2289L26.4988 23.9002L28.1689 22.2301C28.8014 21.5974 29.6996 21.3073 30.5827 21.4505C31.4657 21.5938 32.2261 22.153 32.6262 22.9531M22.1235 19.6397C23.5885 19.402 25.0783 19.8831 26.1278 20.9325L26.5003 21.3059L26.8725 20.9338C27.9217 19.8843 29.4115 19.4032 30.8763 19.6409C32.3411 19.8785 33.6024 20.8059 34.266 22.1332C35.1528 23.9079 34.8071 26.0504 33.4081 27.4559L26.4995 34.6632L19.5909 27.4547C18.192 26.0491 17.8463 23.9069 18.733 22.1322C19.3969 20.8049 20.6586 19.8773 22.1235 19.6397Z" fill="#106FA4"/>
</svg>
