<svg width="22" height="22" viewBox="0 0 22 22" fill="none" xmlns="http://www.w3.org/2000/svg">
<path fill-rule="evenodd" clip-rule="evenodd" d="M6.71957 6.10686C6.71957 6.95115 6.03514 7.63559 5.19084 7.63559C4.34655 7.63559 3.66211 6.95115 3.66211 6.10686C3.66211 5.26256 4.34655 4.57812 5.19084 4.57812C6.03514 4.57812 6.71957 5.26256 6.71957 6.10686ZM17.7265 6.71957H8.8598C8.52208 6.71957 8.24831 6.4458 8.24831 6.10808C8.24831 5.77036 8.52208 5.49659 8.8598 5.49659H17.7265C18.0642 5.49659 18.3379 5.77036 18.3379 6.10808C18.3379 6.4458 18.0642 6.71957 17.7265 6.71957ZM5.19084 12.5275C6.03514 12.5275 6.71957 11.8431 6.71957 10.9988C6.71957 10.1545 6.03514 9.47007 5.19084 9.47007C4.34655 9.47007 3.66211 10.1545 3.66211 10.9988C3.66211 11.8431 4.34655 12.5275 5.19084 12.5275ZM8.8598 10.3885H17.7265C18.0642 10.3885 18.3379 10.6623 18.3379 11C18.3379 11.3377 18.0642 11.6115 17.7265 11.6115H8.8598C8.52208 11.6115 8.24831 11.3377 8.24831 11C8.24831 10.6623 8.52208 10.3885 8.8598 10.3885ZM5.19084 17.4195C6.03514 17.4195 6.71957 16.735 6.71957 15.8907C6.71957 15.0465 6.03514 14.362 5.19084 14.362C4.34655 14.362 3.66211 15.0465 3.66211 15.8907C3.66211 16.735 4.34655 17.4195 5.19084 17.4195ZM8.8598 15.2805H17.7265C18.0642 15.2805 18.3379 15.5543 18.3379 15.892C18.3379 16.2297 18.0642 16.5035 17.7265 16.5035H8.8598C8.52208 16.5035 8.24831 16.2297 8.24831 15.892C8.24831 15.5543 8.52208 15.2805 8.8598 15.2805Z" fill="white"/>
<mask id="mask0_7265_58563" style="mask-type:alpha" maskUnits="userSpaceOnUse" x="3" y="4" width="16" height="14">
<path fill-rule="evenodd" clip-rule="evenodd" d="M6.71957 6.10686C6.71957 6.95115 6.03514 7.63559 5.19084 7.63559C4.34655 7.63559 3.66211 6.95115 3.66211 6.10686C3.66211 5.26256 4.34655 4.57812 5.19084 4.57812C6.03514 4.57812 6.71957 5.26256 6.71957 6.10686ZM17.7265 6.71957H8.8598C8.52208 6.71957 8.24831 6.4458 8.24831 6.10808C8.24831 5.77036 8.52208 5.49659 8.8598 5.49659H17.7265C18.0642 5.49659 18.3379 5.77036 18.3379 6.10808C18.3379 6.4458 18.0642 6.71957 17.7265 6.71957ZM5.19084 12.5275C6.03514 12.5275 6.71957 11.8431 6.71957 10.9988C6.71957 10.1545 6.03514 9.47007 5.19084 9.47007C4.34655 9.47007 3.66211 10.1545 3.66211 10.9988C3.66211 11.8431 4.34655 12.5275 5.19084 12.5275ZM8.8598 10.3885H17.7265C18.0642 10.3885 18.3379 10.6623 18.3379 11C18.3379 11.3377 18.0642 11.6115 17.7265 11.6115H8.8598C8.52208 11.6115 8.24831 11.3377 8.24831 11C8.24831 10.6623 8.52208 10.3885 8.8598 10.3885ZM5.19084 17.4195C6.03514 17.4195 6.71957 16.735 6.71957 15.8907C6.71957 15.0465 6.03514 14.362 5.19084 14.362C4.34655 14.362 3.66211 15.0465 3.66211 15.8907C3.66211 16.735 4.34655 17.4195 5.19084 17.4195ZM8.8598 15.2805H17.7265C18.0642 15.2805 18.3379 15.5543 18.3379 15.892C18.3379 16.2297 18.0642 16.5035 17.7265 16.5035H8.8598C8.52208 16.5035 8.24831 16.2297 8.24831 15.892C8.24831 15.5543 8.52208 15.2805 8.8598 15.2805Z" fill="white"/>
</mask>
<g mask="url(#mask0_7265_58563)">
</g>
</svg>
