<svg width="20" height="20" viewBox="0 0 20 20" fill="none" xmlns="http://www.w3.org/2000/svg">
<path d="M9.99992 0.835938C4.93992 0.835938 0.833252 4.9426 0.833252 10.0026C0.833252 15.0626 4.93992 19.1693 9.99992 19.1693C15.0599 19.1693 19.1666 15.0626 19.1666 10.0026C19.1666 4.9426 15.0599 0.835938 9.99992 0.835938ZM9.99992 3.58594C11.5216 3.58594 12.7499 4.81427 12.7499 6.33594C12.7499 7.8576 11.5216 9.08594 9.99992 9.08594C8.47825 9.08594 7.24992 7.8576 7.24992 6.33594C7.24992 4.81427 8.47825 3.58594 9.99992 3.58594ZM9.99992 16.6026C7.70825 16.6026 5.68242 15.4293 4.49992 13.6509C4.52742 11.8268 8.16658 10.8276 9.99992 10.8276C11.8241 10.8276 15.4724 11.8268 15.4999 13.6509C14.3174 15.4293 12.2916 16.6026 9.99992 16.6026Z" fill="white"/>
</svg>
