<svg width="1001" height="482" viewBox="0 0 1001 482" fill="none" xmlns="http://www.w3.org/2000/svg">
<g clip-path="url(#clip0_2030_132890)">
<path d="M672.41 220.608L672.363 220.643C661.256 180.905 638.359 72.074 488.918 23.0337C458.787 13.1515 329.026 -25.7902 187.686 52.7691C158.365 69.0695 91.4825 125.887 53.8744 210.641C48.261 223.288 -4.88342 366.346 54.4801 479.14C59.1098 487.91 103.211 544.164 146.078 560.487C156.811 564.577 871.068 562.754 876.268 560.487C1156.98 437.954 906.947 -7.77522 672.41 220.608Z" fill="#43A7FF"/>
<path fill-rule="evenodd" clip-rule="evenodd" d="M810.792 225.938C808.243 244.527 820.741 250.284 808.504 267.491C808.504 267.491 801.006 259.236 797.8 258.655C794.594 258.074 794.164 247.978 794.164 247.455C794.164 246.932 797.016 226.815 797.016 226.815L810.792 225.938Z" fill="#005B94"/>
<path d="M187.407 341.848C187.407 341.848 202.298 335.069 200.086 324.577C197.873 314.086 185.769 315.201 187.407 306.9C189.045 298.599 196.996 285.708 189.26 276.314C181.523 266.921 168.67 272.55 167.056 257.992C165.755 246.251 160.336 237.944 149.829 240.378C140.107 242.632 132.853 250.161 132.673 268.077C132.481 287.148 119.053 281.786 118.885 295.839C118.716 309.99 129.989 309.99 134.386 319.483C136.465 323.968 131.046 339.722 147.065 341.848H187.407Z" fill="#21AC58"/>
<path d="M151.452 248.008C151.452 248.008 151.418 248.328 151.359 248.949C151.191 250.826 150.848 255.403 150.848 261.776C150.848 280.429 153.787 314.507 172.338 341.7C172.402 341.788 172.448 341.888 172.473 341.994C172.498 342.1 172.501 342.21 172.483 342.317C172.464 342.424 172.424 342.527 172.365 342.619C172.307 342.71 172.23 342.789 172.14 342.851C172.05 342.912 171.949 342.955 171.842 342.977C171.736 342.998 171.626 342.998 171.519 342.976C171.412 342.955 171.311 342.912 171.221 342.85C171.131 342.788 171.055 342.709 170.996 342.618C152.144 314.948 149.228 280.598 149.222 261.753C149.189 257.098 149.395 252.444 149.838 247.811C149.847 247.702 149.877 247.596 149.928 247.499C149.978 247.402 150.048 247.317 150.132 247.247C150.216 247.178 150.314 247.127 150.418 247.096C150.523 247.065 150.633 247.055 150.741 247.068C150.85 247.08 150.954 247.114 151.049 247.168C151.144 247.222 151.227 247.295 151.294 247.381C151.36 247.468 151.408 247.567 151.436 247.673C151.463 247.778 151.469 247.888 151.452 247.996" fill="#008C3F"/>
<path fill-rule="evenodd" clip-rule="evenodd" d="M169.502 341.848C169.502 341.848 171.825 328.893 163.055 323.624C154.285 318.355 145.288 314.242 146.264 305.749C147.24 297.256 144.841 287.224 130.757 287.032C122.045 286.921 125.321 277.737 116.475 275.907C111.103 274.798 107.554 280.409 106.869 285.922C106.085 292.196 109.639 298.372 105.562 303.484C100.277 310.106 98.1278 322.462 109.494 325.977C120.86 329.492 110.731 340.256 126.209 341.848H169.502Z" fill="#A9CA5B"/>
<path d="M117.072 282.088C117.368 290.343 121.027 302.084 127.288 313.29C133.549 324.496 142.389 335.197 152.971 341.494C153.066 341.547 153.149 341.619 153.216 341.705C153.282 341.791 153.331 341.889 153.359 341.994C153.387 342.1 153.393 342.209 153.378 342.317C153.363 342.425 153.326 342.528 153.27 342.621C153.214 342.715 153.14 342.796 153.052 342.86C152.964 342.924 152.865 342.97 152.759 342.995C152.653 343.02 152.543 343.023 152.436 343.005C152.329 342.986 152.226 342.947 152.135 342.888C141.216 336.376 132.231 325.46 125.871 314.086C119.512 302.711 115.771 290.797 115.446 282.135C115.442 282.028 115.459 281.922 115.496 281.821C115.533 281.721 115.589 281.629 115.662 281.55C115.734 281.472 115.821 281.409 115.918 281.364C116.015 281.319 116.12 281.294 116.227 281.29C116.443 281.281 116.653 281.359 116.811 281.505C116.89 281.578 116.953 281.665 116.998 281.762C117.043 281.859 117.068 281.964 117.072 282.071" fill="#009844"/>
<path fill-rule="evenodd" clip-rule="evenodd" d="M419.119 414.539H235.792C223.328 414.539 213.141 427.732 213.141 443.853C213.141 459.973 223.334 473.166 235.792 473.166H419.119C431.583 473.166 441.77 459.973 441.77 443.853C441.77 427.732 431.572 414.539 419.119 414.539Z" fill="#092978"/>
<path fill-rule="evenodd" clip-rule="evenodd" d="M271.463 464.232H111.094C118.145 453.735 120.892 438.823 111.094 423.469H271.463C277.149 423.469 281.818 432.653 281.818 443.848C281.818 455.042 277.172 464.232 271.463 464.232Z" fill="#D8D8D8"/>
<path fill-rule="evenodd" clip-rule="evenodd" d="M117.448 443.58C117.372 437.19 115.508 430.388 111.094 423.469H271.463C277.102 423.469 281.743 432.508 281.812 443.58H117.448Z" fill="#EDEEEE"/>
<path fill-rule="evenodd" clip-rule="evenodd" d="M105.797 473.172H272.032C280.221 473.172 288.875 459.811 288.875 443.678C288.875 427.546 280.221 414.539 272.032 414.539H105.797L105.872 423.323L271.468 423.474C277.154 423.474 281.824 432.658 281.824 443.853C281.824 455.047 277.178 464.237 271.468 464.237L105.872 464.086L105.797 473.172Z" fill="#1B42A2"/>
<path fill-rule="evenodd" clip-rule="evenodd" d="M371.398 473.172C383.856 473.172 394.049 459.979 394.049 443.853C394.049 427.726 383.851 414.539 371.398 414.539H401.513C413.971 414.539 424.164 427.732 424.164 443.858C424.164 459.985 413.965 473.172 401.513 473.172H371.398Z" fill="#1B42A2"/>
<path fill-rule="evenodd" clip-rule="evenodd" d="M301.141 473.563C313.604 473.563 323.792 460.37 323.792 444.243C323.792 428.117 313.593 414.93 301.141 414.93H330.761C343.225 414.93 353.412 428.123 353.412 444.243C353.412 460.364 343.213 473.563 330.761 473.563H301.141Z" fill="#1B42A2"/>
<path fill-rule="evenodd" clip-rule="evenodd" d="M419.119 368.891H235.792C229.767 368.931 224.004 371.353 219.76 375.63C215.515 379.907 213.136 385.689 213.141 391.715C213.137 397.74 215.518 403.521 219.762 407.797C224.006 412.072 229.768 414.494 235.792 414.534H419.119C425.143 414.494 430.905 412.072 435.149 407.797C439.393 403.521 441.773 397.74 441.77 391.715C441.773 385.69 439.393 379.908 435.15 375.632C430.906 371.355 425.143 368.932 419.119 368.891Z" fill="#00A0E8"/>
<path fill-rule="evenodd" clip-rule="evenodd" d="M244.168 407.566H83.8047C90.8497 399.398 93.5969 387.815 83.8047 375.836H244.174C249.86 375.836 254.523 382.981 254.523 391.701C254.523 400.421 249.836 407.566 244.168 407.566Z" fill="#EDEEEE"/>
<path fill-rule="evenodd" clip-rule="evenodd" d="M90.1586 391.577C90.1005 386.599 88.2361 381.26 83.8047 375.852H244.174C249.831 375.852 254.477 382.921 254.523 391.577H90.1586Z" fill="#D8D8D8"/>
<path fill-rule="evenodd" clip-rule="evenodd" d="M78.5 414.534H244.741C252.93 414.534 261.584 404.13 261.584 391.576C261.584 379.022 252.924 368.891 244.741 368.891H78.5L78.5755 375.728L244.177 375.85C249.863 375.85 254.527 382.995 254.527 391.715C254.527 400.435 249.834 407.563 244.172 407.563L78.5697 407.447L78.5 414.534Z" fill="#4895D1"/>
<path fill-rule="evenodd" clip-rule="evenodd" d="M284.102 383.328H384.766C387.14 383.334 389.416 384.281 391.096 385.96C392.775 387.64 393.721 389.916 393.727 392.292C393.721 394.667 392.775 396.944 391.096 398.623C389.416 400.303 387.14 401.249 384.766 401.255H284.102C281.727 401.249 279.452 400.303 277.772 398.623C276.093 396.944 275.147 394.667 275.141 392.292C275.147 389.916 276.093 387.64 277.772 385.96C279.452 384.281 281.727 383.334 284.102 383.328Z" fill="#76C5FB"/>
<path fill-rule="evenodd" clip-rule="evenodd" d="M410.282 383.328H416.555C418.929 383.334 421.205 384.281 422.885 385.96C424.564 387.64 425.51 389.916 425.516 392.292C425.51 394.667 424.564 396.944 422.885 398.623C421.205 400.303 418.929 401.249 416.555 401.255H410.282C407.908 401.248 405.633 400.301 403.954 398.622C402.275 396.942 401.328 394.667 401.32 392.292C401.328 389.917 402.275 387.641 403.954 385.962C405.633 384.283 407.908 383.336 410.282 383.328Z" fill="#76C5FB"/>
<path fill-rule="evenodd" clip-rule="evenodd" d="M116.04 340.305H246.858C250.633 340.328 254.245 341.845 256.905 344.523C259.565 347.202 261.056 350.826 261.053 354.601C261.055 358.376 259.563 361.998 256.903 364.675C254.243 367.353 250.632 368.869 246.858 368.892H116.04C112.268 368.868 108.658 367.351 106 364.673C103.341 361.996 101.85 358.375 101.852 354.601C101.848 350.827 103.339 347.204 105.998 344.526C108.656 341.847 112.267 340.329 116.04 340.305Z" fill="#8B5452"/>
<path fill-rule="evenodd" clip-rule="evenodd" d="M241.614 364.538H395.101C390.687 359.425 388.968 352.152 395.101 344.664H241.614C238.054 344.664 235.133 349.143 235.133 354.604C235.133 360.064 238.037 364.538 241.614 364.538Z" fill="#EDEEEE"/>
<path fill-rule="evenodd" clip-rule="evenodd" d="M398.423 368.892H241.254C236.12 368.892 230.695 362.374 230.695 354.514C230.695 346.654 236.12 340.305 241.254 340.305H398.423L398.371 344.586L241.608 344.662C238.048 344.662 235.127 349.141 235.127 354.601C235.127 360.062 238.031 364.535 241.608 364.535L398.371 364.465L398.423 368.892Z" fill="#A76C6A"/>
<path fill-rule="evenodd" clip-rule="evenodd" d="M248.422 354.851H260.619C265.294 356.594 263.947 363.641 266.717 368.213L259.521 364.419L254.294 367.969C250.228 363.803 252.551 356.693 248.428 354.828" fill="#76C5FB"/>
<path fill-rule="evenodd" clip-rule="evenodd" d="M125.077 340.305H162.916C157.276 340.305 152.665 346.736 152.665 354.601C152.665 362.461 157.276 368.892 162.916 368.892H125.077C119.438 368.892 114.82 362.461 114.82 354.601C114.82 346.736 119.467 340.305 125.077 340.305Z" fill="#A26A68"/>
<path fill-rule="evenodd" clip-rule="evenodd" d="M183.575 340.305H224.771C218.632 340.305 213.608 346.736 213.608 354.601C213.608 362.461 218.632 368.892 224.771 368.892H183.575C177.436 368.892 172.406 362.461 172.406 354.601C172.406 346.736 177.436 340.305 183.575 340.305Z" fill="#A26A68"/>
<path fill-rule="evenodd" clip-rule="evenodd" d="M216.75 435.727H230.509V457.639L223.963 452.562L216.75 457.639V435.727Z" fill="#BB3048"/>
<path fill-rule="evenodd" clip-rule="evenodd" d="M4.91402 473.172H996.08C997.25 473.175 998.372 473.641 999.2 474.468C1000.03 475.295 1000.5 476.416 1000.5 477.587C1000.5 478.758 1000.03 479.88 999.2 480.708C998.373 481.536 997.251 482.003 996.08 482.008H4.91402C3.74376 482.003 2.62283 481.536 1.79587 480.707C0.968904 479.879 0.503059 478.757 0.5 477.587C0.503066 476.417 0.969095 475.296 1.79622 474.468C2.62335 473.641 3.74429 473.175 4.91402 473.172Z" fill="#1A47B6"/>
<path fill-rule="evenodd" clip-rule="evenodd" d="M304.484 444.586H435.302C439.075 444.609 442.687 446.125 445.346 448.803C448.006 451.48 449.498 455.102 449.496 458.877C449.498 462.652 448.006 466.274 445.347 468.953C442.687 471.631 439.076 473.149 435.302 473.173H304.484C300.71 473.149 297.098 471.631 294.439 468.953C291.779 466.274 290.287 462.652 290.289 458.877C290.287 455.102 291.779 451.48 294.439 448.803C297.099 446.125 300.71 444.609 304.484 444.586Z" fill="#A31C4D"/>
<path fill-rule="evenodd" clip-rule="evenodd" d="M430.058 468.811H583.544C579.13 463.693 577.411 456.42 583.544 448.938H430.058C426.498 448.938 423.57 453.411 423.57 458.871C423.57 464.332 426.474 468.811 430.058 468.811Z" fill="#EDEEEE"/>
<path fill-rule="evenodd" clip-rule="evenodd" d="M586.862 473.173H429.699C424.565 473.173 419.141 466.655 419.141 458.79C419.141 450.924 424.565 444.586 429.699 444.586H586.862L586.816 448.867L430.054 448.943C426.494 448.943 423.566 453.416 423.566 458.877C423.566 464.337 426.47 468.816 430.054 468.816L586.816 468.741L586.862 473.173Z" fill="#D4066E"/>
<path fill-rule="evenodd" clip-rule="evenodd" d="M436.852 459.125H449.048C453.695 460.868 452.37 467.914 455.147 472.486L447.951 468.693L442.723 472.248C438.658 468.077 440.981 460.966 436.863 459.102" fill="#F2DE00"/>
<path fill-rule="evenodd" clip-rule="evenodd" d="M586.867 398.938H403.534C397.511 398.979 391.749 401.401 387.505 405.677C383.262 409.952 380.881 415.732 380.883 421.756C380.88 427.782 383.26 433.563 387.503 437.84C391.747 442.116 397.51 444.539 403.534 444.581H586.867C592.891 444.539 598.654 442.116 602.898 437.84C607.141 433.563 609.522 427.782 609.518 421.756C609.521 415.731 607.141 409.95 602.897 405.675C598.653 401.399 592.891 398.977 586.867 398.938Z" fill="#9D1F39"/>
<path fill-rule="evenodd" clip-rule="evenodd" d="M411.918 437.621H251.578C258.623 429.453 261.376 417.869 251.578 405.891H411.947C417.633 405.891 422.303 413.042 422.303 421.756C422.303 430.47 417.656 437.621 411.947 437.621" fill="#EDEEEE"/>
<path fill-rule="evenodd" clip-rule="evenodd" d="M246.242 444.581H412.489C420.678 444.581 429.332 434.171 429.332 421.623C429.332 409.075 420.672 398.938 412.489 398.938H246.242L246.324 405.775L411.92 405.891C417.606 405.891 422.275 413.042 422.275 421.756C422.275 430.47 417.629 437.621 411.92 437.621L246.353 437.505L246.242 444.581Z" fill="#BB3048"/>
<path fill-rule="evenodd" clip-rule="evenodd" d="M607.565 340.305H424.237C411.773 340.305 401.586 353.498 401.586 369.618C401.586 385.745 411.785 398.938 424.237 398.938H607.565C620.028 398.938 630.216 385.745 630.216 369.618C630.216 353.498 620.017 340.305 607.565 340.305Z" fill="#092978"/>
<path fill-rule="evenodd" clip-rule="evenodd" d="M459.908 390.006H299.539C306.584 379.508 309.337 364.596 299.539 349.242H459.908C465.594 349.242 470.258 358.427 470.258 369.621C470.258 380.816 465.611 390.006 459.908 390.006Z" fill="#D8D8D8"/>
<path fill-rule="evenodd" clip-rule="evenodd" d="M305.893 369.354C305.817 362.964 303.953 356.155 299.539 349.242H459.908C465.547 349.242 470.182 358.281 470.258 369.354H305.893Z" fill="#EDEEEE"/>
<path fill-rule="evenodd" clip-rule="evenodd" d="M294.234 398.938H460.481C468.67 398.938 477.324 385.576 477.324 369.444C477.324 353.312 468.664 340.305 460.481 340.305H294.234L294.316 349.088L459.912 349.239C465.598 349.239 470.262 358.424 470.262 369.618C470.262 380.813 465.615 390.003 459.912 390.003L294.316 389.852L294.234 398.938Z" fill="#1B42A2"/>
<path fill-rule="evenodd" clip-rule="evenodd" d="M489.586 399.322C502.05 399.322 512.237 386.135 512.237 370.009C512.237 353.882 502.038 340.695 489.586 340.695H519.206C531.67 340.695 541.857 353.888 541.857 370.009C541.857 386.129 531.659 399.322 519.206 399.322H489.586Z" fill="#1B42A2"/>
<path fill-rule="evenodd" clip-rule="evenodd" d="M607.565 294.664H424.237C418.213 294.705 412.45 297.129 408.207 301.405C403.963 305.681 401.583 311.463 401.586 317.489C401.584 323.513 403.965 329.293 408.209 333.568C412.452 337.843 418.214 340.266 424.237 340.307H607.565C613.587 340.266 619.349 337.843 623.593 333.568C627.837 329.293 630.217 323.513 630.216 317.489C630.219 311.463 627.839 305.681 623.595 301.405C619.351 297.129 613.588 294.705 607.565 294.664Z" fill="#00A0E8"/>
<path fill-rule="evenodd" clip-rule="evenodd" d="M432.613 333.355H272.25C279.295 325.187 282.042 313.604 272.25 301.625H432.613C438.305 301.625 442.969 308.77 442.969 317.49C442.969 326.21 438.322 333.355 432.613 333.355Z" fill="#EDEEEE"/>
<path fill-rule="evenodd" clip-rule="evenodd" d="M278.604 317.351C278.546 312.372 276.681 307.033 272.25 301.625H432.613C438.27 301.625 442.916 308.695 442.969 317.351H278.604Z" fill="#D8D8D8"/>
<path fill-rule="evenodd" clip-rule="evenodd" d="M266.938 340.307H433.178C441.373 340.307 450.021 329.903 450.021 317.349C450.021 304.795 441.362 294.664 433.178 294.664H266.938L267.013 301.502L432.609 301.624C438.301 301.624 442.965 308.769 442.965 317.489C442.965 326.208 438.318 333.354 432.609 333.354L267.013 333.238L266.938 340.307Z" fill="#4895D1"/>
<path fill-rule="evenodd" clip-rule="evenodd" d="M472.52 309.102H573.184C575.558 309.108 577.834 310.054 579.514 311.734C581.193 313.413 582.139 315.69 582.145 318.065C582.139 320.441 581.193 322.717 579.514 324.397C577.834 326.076 575.558 327.023 573.184 327.029H472.52C470.148 327.018 467.876 326.07 466.199 324.391C464.523 322.712 463.578 320.438 463.57 318.065C463.578 315.689 464.525 313.413 466.206 311.733C467.886 310.054 470.162 309.108 472.538 309.102" fill="#76C5FB"/>
<path fill-rule="evenodd" clip-rule="evenodd" d="M598.729 309.102H605.002C607.382 309.102 609.664 310.045 611.349 311.725C613.034 313.405 613.985 315.685 613.993 318.065C613.985 320.44 613.038 322.716 611.36 324.395C609.681 326.074 607.406 327.021 605.031 327.029H598.759C596.384 327.023 594.108 326.076 592.428 324.397C590.749 322.717 589.803 320.441 589.797 318.065C589.803 315.69 590.749 313.413 592.428 311.734C594.108 310.054 596.384 309.108 598.759 309.102" fill="#76C5FB"/>
<path fill-rule="evenodd" clip-rule="evenodd" d="M337.109 444.586H389.473C385.699 444.609 382.088 446.125 379.429 448.803C376.769 451.48 375.277 455.102 375.278 458.877C375.277 462.652 376.769 466.274 379.428 468.953C382.088 471.631 385.699 473.149 389.473 473.173H337.109C333.335 473.149 329.723 471.631 327.064 468.953C324.404 466.274 322.912 462.652 322.914 458.877C322.912 455.102 324.404 451.48 327.064 448.803C329.724 446.125 333.335 444.609 337.109 444.586Z" fill="#851C39"/>
<path fill-rule="evenodd" clip-rule="evenodd" d="M405.195 361.492H418.954V383.405L412.409 378.327L405.195 383.405V361.492Z" fill="#BB3048"/>
<path fill-rule="evenodd" clip-rule="evenodd" d="M455.812 413.375H537.704C539.636 413.381 541.486 414.151 542.852 415.517C544.217 416.883 544.987 418.734 544.993 420.666C544.987 422.597 544.217 424.448 542.852 425.814C541.486 427.18 539.636 427.95 537.704 427.956H455.812C453.881 427.95 452.031 427.18 450.665 425.814C449.299 424.448 448.53 422.597 448.523 420.666C448.53 418.734 449.299 416.883 450.665 415.517C452.031 414.151 453.881 413.381 455.812 413.375Z" fill="#BB3048"/>
<path fill-rule="evenodd" clip-rule="evenodd" d="M374.953 418.555H395.089V434.286L385.512 430.644L374.953 434.286V418.555Z" fill="#BB3048"/>
<path fill-rule="evenodd" clip-rule="evenodd" d="M604.901 236.039H421.573C409.109 236.039 398.922 249.232 398.922 265.353C398.922 281.473 409.115 294.666 421.573 294.666H604.901C617.364 294.666 627.552 281.473 627.552 265.353C627.552 249.232 617.353 236.039 604.901 236.039Z" fill="#092978"/>
<path fill-rule="evenodd" clip-rule="evenodd" d="M457.246 285.727H296.883C303.934 275.235 306.681 260.323 296.883 244.969H457.252C462.938 244.969 467.607 254.147 467.607 265.348C467.607 276.548 462.961 285.727 457.252 285.727" fill="#D8D8D8"/>
<path fill-rule="evenodd" clip-rule="evenodd" d="M303.229 265.075C303.153 258.684 301.289 251.882 296.875 244.969H457.244C462.883 244.969 467.524 254.002 467.594 265.075H303.229Z" fill="#EDEEEE"/>
<path fill-rule="evenodd" clip-rule="evenodd" d="M291.57 294.666H457.811C466 294.666 474.654 281.305 474.654 265.178C474.654 249.052 465.994 236.039 457.811 236.039H291.57L291.646 244.823L457.242 244.974C462.928 244.974 467.597 254.152 467.597 265.353C467.597 276.553 462.951 285.731 457.242 285.731L291.652 285.575L291.57 294.666Z" fill="#1B42A2"/>
<path fill-rule="evenodd" clip-rule="evenodd" d="M557.172 294.666C569.63 294.666 579.823 281.473 579.823 265.353C579.823 249.232 569.624 236.039 557.172 236.039H587.274C599.732 236.039 609.925 249.226 609.925 265.353C609.925 281.479 599.727 294.666 587.274 294.666H557.172Z" fill="#1B42A2"/>
<path fill-rule="evenodd" clip-rule="evenodd" d="M486.93 295.049C499.388 295.049 509.581 281.856 509.581 265.735C509.581 249.615 499.382 236.422 486.93 236.422H516.55C529.014 236.422 539.201 249.609 539.201 265.735C539.201 281.862 529.002 295.049 516.55 295.049H486.93Z" fill="#1B42A2"/>
<path fill-rule="evenodd" clip-rule="evenodd" d="M604.901 190.391H421.573C415.55 190.431 409.787 192.853 405.543 197.128C401.299 201.403 398.919 207.185 398.922 213.209C398.917 219.235 401.297 225.018 405.541 229.295C409.785 233.571 415.549 235.994 421.573 236.034H604.901C610.924 235.993 616.687 233.569 620.931 229.293C625.175 225.017 627.555 219.235 627.552 213.209C627.553 207.185 625.173 201.405 620.929 197.13C616.685 192.855 610.923 190.432 604.901 190.391Z" fill="#00A0E8"/>
<path fill-rule="evenodd" clip-rule="evenodd" d="M429.941 229.08H269.578C276.623 220.906 279.376 209.328 269.578 197.344H429.947C435.633 197.344 440.297 204.495 440.297 213.209C440.297 221.923 435.65 229.08 429.941 229.08Z" fill="#EDEEEE"/>
<path fill-rule="evenodd" clip-rule="evenodd" d="M275.932 213.075C275.874 208.091 274.01 202.752 269.578 197.344H429.947C435.604 197.344 440.25 204.419 440.297 213.075H275.932Z" fill="#D8D8D8"/>
<path fill-rule="evenodd" clip-rule="evenodd" d="M264.273 236.034H430.514C438.709 236.034 447.357 225.624 447.357 213.076C447.357 200.528 438.698 190.391 430.514 190.391H264.273L264.349 197.228L429.951 197.344C435.637 197.344 440.301 204.496 440.301 213.209C440.301 221.923 435.654 229.08 429.951 229.08L264.355 228.958L264.273 236.034Z" fill="#4895D1"/>
<path fill-rule="evenodd" clip-rule="evenodd" d="M469.852 204.82H570.516C572.889 204.826 575.164 205.772 576.844 207.45C578.523 209.129 579.469 211.404 579.477 213.778C579.47 216.153 578.523 218.429 576.844 220.108C575.165 221.787 572.89 222.734 570.516 222.742H469.852C467.478 222.734 465.203 221.787 463.524 220.108C461.845 218.429 460.898 216.153 460.891 213.778C460.898 211.404 461.845 209.129 463.524 207.45C465.203 205.772 467.478 204.826 469.852 204.82Z" fill="#76C5FB"/>
<path fill-rule="evenodd" clip-rule="evenodd" d="M596.063 204.82H602.336C604.71 204.826 606.985 205.772 608.664 207.45C610.343 209.129 611.29 211.404 611.297 213.778C611.29 216.153 610.343 218.429 608.664 220.108C606.985 221.787 604.71 222.734 602.336 222.742H596.063C593.689 222.734 591.414 221.787 589.735 220.108C588.056 218.429 587.109 216.153 587.102 213.778C587.111 211.404 588.058 209.13 589.737 207.452C591.416 205.774 593.69 204.828 596.063 204.82Z" fill="#76C5FB"/>
<path fill-rule="evenodd" clip-rule="evenodd" d="M402.523 257.219H416.282V279.131L409.737 274.054L402.523 279.131V257.219Z" fill="#BB3048"/>
<path fill-rule="evenodd" clip-rule="evenodd" d="M559.836 398.938C572.3 398.938 582.487 385.745 582.487 369.618C582.487 353.492 572.288 340.305 559.836 340.305H589.95C602.414 340.305 612.601 353.498 612.601 369.618C612.601 385.739 602.402 398.938 589.95 398.938H559.836Z" fill="#1B42A2"/>
<path fill-rule="evenodd" clip-rule="evenodd" d="M564.279 398.938H543.516C549.539 398.977 555.302 401.399 559.546 405.675C563.79 409.95 566.17 415.731 566.167 421.756C566.165 425.037 565.457 428.279 564.093 431.262C562.728 434.245 560.737 436.899 558.256 439.045L557.007 444.581H564.267C570.291 444.539 576.054 442.116 580.298 437.84C584.541 433.563 586.922 427.782 586.918 421.756C586.922 415.731 584.541 409.95 580.297 405.675C576.053 401.399 570.291 398.977 564.267 398.938" fill="#BB3048"/>
<path fill-rule="evenodd" clip-rule="evenodd" d="M877.094 414.539H693.76C681.297 414.539 671.109 427.732 671.109 443.853C671.109 459.973 681.302 473.166 693.76 473.166H877.094C889.558 473.166 899.745 459.973 899.745 443.853C899.745 427.732 889.546 414.539 877.094 414.539Z" fill="#092978"/>
<path fill-rule="evenodd" clip-rule="evenodd" d="M729.431 464.232H569.062C576.113 453.735 578.861 438.823 569.062 423.469H729.431C735.117 423.469 739.787 432.653 739.787 443.848C739.787 455.042 735.141 464.232 729.431 464.232Z" fill="#D8D8D8"/>
<path fill-rule="evenodd" clip-rule="evenodd" d="M575.416 443.58C575.341 437.19 573.477 430.388 569.062 423.469H729.431C735.071 423.469 739.711 432.508 739.781 443.58H575.416Z" fill="#EDEEEE"/>
<path fill-rule="evenodd" clip-rule="evenodd" d="M563.758 473.172H729.999C738.188 473.172 746.842 459.811 746.842 443.678C746.842 427.546 738.182 414.539 729.999 414.539H563.758L563.833 423.323L729.429 423.474C735.115 423.474 739.785 432.658 739.785 443.853C739.785 455.047 735.139 464.237 729.429 464.237L563.833 464.086L563.758 473.172Z" fill="#1B42A2"/>
<path fill-rule="evenodd" clip-rule="evenodd" d="M829.359 473.172C841.823 473.172 852.01 459.979 852.01 443.853C852.01 427.726 841.817 414.539 829.359 414.539H859.474C871.932 414.539 882.125 427.732 882.125 443.858C882.125 459.985 871.926 473.172 859.474 473.172H829.359Z" fill="#1B42A2"/>
<path fill-rule="evenodd" clip-rule="evenodd" d="M759.117 473.563C771.575 473.563 781.768 460.37 781.768 444.243C781.768 428.117 771.569 414.93 759.117 414.93H788.738C801.202 414.93 811.389 428.123 811.389 444.243C811.389 460.364 801.19 473.563 788.738 473.563H759.117Z" fill="#1B42A2"/>
<path fill-rule="evenodd" clip-rule="evenodd" d="M877.094 368.891H693.76C687.736 368.931 681.972 371.353 677.728 375.63C673.484 379.907 671.105 385.689 671.109 391.715C671.106 397.74 673.486 403.521 677.73 407.797C681.974 412.072 687.737 414.494 693.76 414.534H877.094C883.117 414.494 888.88 412.072 893.124 407.797C897.368 403.521 899.748 397.74 899.745 391.715C899.748 385.69 897.368 379.908 893.124 375.632C888.88 371.355 883.118 368.932 877.094 368.891Z" fill="#00A0E8"/>
<path fill-rule="evenodd" clip-rule="evenodd" d="M702.137 407.566H541.773C548.818 399.398 551.571 387.815 541.773 375.836H702.142C707.828 375.836 712.492 382.981 712.492 391.701C712.492 400.421 707.846 407.566 702.137 407.566Z" fill="#EDEEEE"/>
<path fill-rule="evenodd" clip-rule="evenodd" d="M548.127 391.577C548.069 386.599 546.205 381.26 541.773 375.852H702.142C707.799 375.852 712.446 382.921 712.492 391.577H548.127Z" fill="#D8D8D8"/>
<path fill-rule="evenodd" clip-rule="evenodd" d="M536.461 414.534H702.707C710.897 414.534 719.551 404.13 719.551 391.576C719.551 379.022 710.891 368.891 702.707 368.891H536.461L536.536 375.728L702.138 375.85C707.824 375.85 712.488 382.995 712.488 391.715C712.488 400.435 707.842 407.58 702.138 407.58L536.536 407.464L536.461 414.534Z" fill="#4895D1"/>
<path fill-rule="evenodd" clip-rule="evenodd" d="M742.04 383.328H842.703C845.078 383.334 847.354 384.281 849.033 385.96C850.712 387.64 851.658 389.916 851.664 392.292C851.658 394.667 850.712 396.944 849.033 398.623C847.354 400.303 845.078 401.249 842.703 401.255H742.04C739.661 401.255 737.379 400.312 735.694 398.631C734.01 396.951 733.061 394.671 733.055 392.292C733.061 389.916 734.007 387.64 735.686 385.96C737.366 384.281 739.641 383.334 742.016 383.328" fill="#76C5FB"/>
<path fill-rule="evenodd" clip-rule="evenodd" d="M868.257 383.328H874.529C876.903 383.336 879.177 384.283 880.855 385.962C882.534 387.642 883.479 389.917 883.485 392.292C883.479 394.667 882.533 396.944 880.853 398.623C879.174 400.303 876.898 401.249 874.523 401.255H868.251C865.876 401.248 863.601 400.301 861.922 398.622C860.243 396.942 859.297 394.667 859.289 392.292C859.297 389.917 860.243 387.641 861.922 385.962C863.601 384.283 865.876 383.336 868.251 383.328" fill="#76C5FB"/>
<path fill-rule="evenodd" clip-rule="evenodd" d="M574.009 340.305H704.833C708.607 340.329 712.217 341.847 714.876 344.526C717.534 347.204 719.025 350.827 719.022 354.601C719.023 358.375 717.532 361.996 714.874 364.673C712.215 367.351 708.606 368.868 704.833 368.892H574.009C570.237 368.868 566.627 367.351 563.968 364.673C561.31 361.996 559.819 358.375 559.82 354.601C559.817 350.827 561.308 347.204 563.966 344.526C566.625 341.847 570.236 340.329 574.009 340.305Z" fill="#8B5452"/>
<path fill-rule="evenodd" clip-rule="evenodd" d="M699.575 364.538H853.062C848.654 359.425 846.929 352.152 853.062 344.664H699.575C696.015 344.664 693.094 349.143 693.094 354.604C693.094 360.064 695.998 364.538 699.575 364.538Z" fill="#EDEEEE"/>
<path fill-rule="evenodd" clip-rule="evenodd" d="M856.394 368.892H699.225C694.097 368.892 688.666 362.374 688.672 354.514C688.678 346.654 694.097 340.305 699.225 340.305H856.394L856.341 344.586L699.579 344.662C696.019 344.662 693.098 349.141 693.098 354.601C693.098 360.062 696.002 364.535 699.579 364.535L856.341 364.465L856.394 368.892Z" fill="#A76C6A"/>
<path fill-rule="evenodd" clip-rule="evenodd" d="M706.391 354.851H718.587C723.234 356.594 721.909 363.641 724.686 368.213L717.484 364.419L712.257 367.969C708.191 363.803 710.514 356.693 706.391 354.828" fill="#76C5FB"/>
<path fill-rule="evenodd" clip-rule="evenodd" d="M583.048 340.305H620.892C615.247 340.305 610.636 346.736 610.636 354.601C610.636 362.461 615.247 368.892 620.892 368.892H583.048C577.408 368.892 572.797 362.461 572.797 354.601C572.797 346.736 577.408 340.305 583.048 340.305Z" fill="#A26A68"/>
<path fill-rule="evenodd" clip-rule="evenodd" d="M641.544 340.305H682.739C676.6 340.305 671.577 346.736 671.577 354.601C671.577 362.461 676.6 368.892 682.739 368.892H641.544C635.405 368.892 630.375 362.461 630.375 354.601C630.375 346.736 635.405 340.305 641.544 340.305Z" fill="#A26A68"/>
<path fill-rule="evenodd" clip-rule="evenodd" d="M674.719 435.727H688.478V457.639L681.932 452.562L674.719 457.639V435.727Z" fill="#BB3048"/>
<path fill-rule="evenodd" clip-rule="evenodd" d="M719.449 170.882C719.809 173.206 718.131 176.592 716.295 177.963L713.484 172.874C713.862 170.434 715.349 168.483 716.795 167.82L719.449 170.882Z" fill="#F974A6"/>
<path fill-rule="evenodd" clip-rule="evenodd" d="M715.395 166.058C715.238 165.048 714.559 161.045 713.885 160.342C713.542 159.982 713.45 160.133 713.304 160.342C713.116 160.655 713.023 161.017 713.037 161.382C713.089 162.12 713.113 162.794 713.194 163.195C711.126 161.916 709.221 159.07 707.758 157.112C707.177 156.316 706.155 156.345 706.701 157.74C707.142 158.901 709.808 162.66 709.808 162.66L705.696 160.034C704.97 159.575 704.929 160.534 705.266 160.958C705.847 161.649 709.332 164.223 709.332 164.223L705.382 163.409C705.326 163.458 705.282 163.518 705.254 163.587C705.225 163.655 705.213 163.729 705.218 163.803C705.223 163.877 705.245 163.949 705.283 164.012C705.32 164.076 705.372 164.13 705.435 164.17C705.911 164.507 709.669 165.995 709.669 165.995L707.09 165.913C707.058 165.989 707.042 166.07 707.044 166.152C707.046 166.234 707.065 166.315 707.1 166.389C707.135 166.463 707.185 166.529 707.248 166.582C707.31 166.635 707.383 166.674 707.462 166.697C707.804 166.831 708.699 166.988 709.541 167.331C710.156 167.589 710.74 167.914 711.283 168.301C711.893 168.822 712.462 169.389 712.985 169.997C713.467 171.043 714.071 172.664 714.071 172.664C715.44 171.524 716.371 169.945 716.708 168.196L715.395 166.058Z" fill="#F4B1B1"/>
<path fill-rule="evenodd" clip-rule="evenodd" d="M721.442 171.368C721.807 173.692 720.135 177.061 718.305 178.427L715.5 173.373C715.878 170.944 717.359 168.998 718.799 168.336L721.442 171.368Z" fill="#F974A6"/>
<path fill-rule="evenodd" clip-rule="evenodd" d="M643.3 342.573H672.81C673.471 342.572 674.11 342.332 674.607 341.896C675.105 341.46 675.428 340.859 675.516 340.203C675.537 340.01 675.537 339.815 675.516 339.622L674.32 324.123C673.368 323.709 672.38 323.383 671.37 323.147C670.864 323.034 670.397 322.791 670.013 322.443C669.629 322.094 669.342 321.653 669.18 321.16C669.18 321.091 669.139 321.015 669.122 320.934C668.442 317.954 664.144 317.007 663.349 319.917C663.244 320.295 663.157 320.661 663.082 321.015C663.059 321.101 663.041 321.188 663.029 321.277C662.902 321.904 662.809 322.479 662.739 322.985V323.014C662.644 323.713 662.594 324.417 662.588 325.122L661.426 326.586L660.88 327.301C660.493 327.804 660.106 328.292 659.719 328.765L659.208 329.415C658.795 329.927 658.389 330.415 657.988 330.868C657.808 331.071 657.622 331.274 657.407 331.449C655.886 333.046 654.352 334.144 652.54 334.394C649.34 334.83 644.113 335.184 641.586 339.884C641.536 339.979 641.493 340.078 641.459 340.18C641.373 340.453 641.353 340.743 641.4 341.026C641.447 341.308 641.56 341.576 641.729 341.807C641.899 342.037 642.121 342.225 642.376 342.354C642.632 342.483 642.915 342.551 643.201 342.55" fill="#9D1F39"/>
<path d="M643.297 342.573H672.807C673.468 342.572 674.107 342.332 674.604 341.896C675.102 341.46 675.425 340.859 675.513 340.203H641.56C641.474 340.476 641.454 340.766 641.501 341.049C641.548 341.331 641.661 341.599 641.831 341.83C642.001 342.061 642.222 342.248 642.478 342.377C642.734 342.507 643.016 342.574 643.303 342.573" fill="#343851"/>
<path fill-rule="evenodd" clip-rule="evenodd" d="M708.109 220.609V238.775C708.109 258.91 704.554 303.13 703.265 327.569L689.756 327.308L678.668 239.164L659.717 241.883L658.782 217.826C658.561 134.679 701.139 154.041 697.417 201.183C697.004 206.371 710.095 214.916 708.109 220.609Z" fill="#000446"/>
<path fill-rule="evenodd" clip-rule="evenodd" d="M658.523 225.5H683.596L674.611 327.667L660.365 328.039L658.523 225.5Z" fill="#000446"/>
<path fill-rule="evenodd" clip-rule="evenodd" d="M685.039 341.118C685.289 345.423 700.546 343.941 702.986 342.646C703.932 342.146 704.327 341.182 704.397 340.02C704.519 338.161 703.816 335.785 703.235 333.92C702.26 330.888 702.393 330.946 701.714 328.872C701.714 328.872 701.894 325.497 696.893 324.225C691.892 322.952 690.057 331.329 689.203 332.939C688.419 334.42 685.382 336.424 685.068 340.084C685.045 340.43 685.045 340.778 685.068 341.124" fill="#9D1F39"/>
<path d="M685.039 341.121C685.289 345.426 700.546 343.945 702.986 342.649C703.932 342.15 704.327 341.185 704.397 340.023C701.693 341.293 698.737 341.937 695.749 341.906C690.574 341.987 686.84 341.063 685.057 340.082C685.033 340.428 685.033 340.775 685.057 341.121" fill="#343851"/>
<path fill-rule="evenodd" clip-rule="evenodd" d="M678.668 239.164L672.453 326.756L674.527 326.599L680.863 256.592L678.668 239.164Z" fill="black"/>
<path fill-rule="evenodd" clip-rule="evenodd" d="M671.913 158.164C667.267 168.336 664.258 171.566 651.005 173.541C640.248 175.145 619.77 150.949 618.225 147.644C616.68 144.338 622.557 135.706 624.451 136.705C626.344 137.704 648.42 154.58 649.93 154.47C651.44 154.359 656.667 151.978 668.475 144.309C669.59 143.589 675.189 153.25 671.925 158.164" fill="#76C5FB"/>
<path fill-rule="evenodd" clip-rule="evenodd" d="M714.933 148.808C719.353 155.395 706.279 196.234 709.967 229.701C689.308 233.251 668.307 232.862 655.953 228.929C655.953 203.606 657.347 168.82 662.592 149.923C663.823 146.856 666.268 144.695 672.302 142.952C687.002 138.833 708.893 139.768 714.921 148.796" fill="#0097D6"/>
<path fill-rule="evenodd" clip-rule="evenodd" d="M678.223 141.709C670.092 145.839 668.1 180.677 665.898 229.307C672.794 230.013 679.743 230.013 686.639 229.307C687.492 181.857 695.438 149.307 698.51 141.227C691.895 140.791 686.313 140.46 678.223 141.72" fill="#0097D6"/>
<path fill-rule="evenodd" clip-rule="evenodd" d="M676.504 129.591C677.759 132.577 680.222 135.342 682.411 136.562L682.045 140.75L681.401 141.233C678.839 143.626 680.767 149.854 683.102 152.125C687.168 151.933 696.321 144.608 694.463 141.407L693.632 140.344L693.835 134.395C694.195 134.395 696.879 133.105 697.663 132.92C698.447 132.734 699.678 131.334 699.858 129.771C700.038 128.208 697.587 128.557 697.587 128.557C700.787 124.746 704.33 121.696 700.276 117.792C696.222 113.888 686.488 111.117 686.488 111.117L680.68 108.648C681.296 110.751 679.321 116.52 677.503 120.691C675.871 124.426 674.82 125.565 676.504 129.573" fill="#F4B1B1"/>
<path fill-rule="evenodd" clip-rule="evenodd" d="M690.979 135.047C690.979 135.047 687.228 140.583 684.428 140.92C681.629 141.257 683.069 140.966 682.047 140.769L682.413 136.581C684.295 137.016 686.165 136.993 690.979 135.047Z" fill="#E98385"/>
<path fill-rule="evenodd" clip-rule="evenodd" d="M681.816 204.57L680.37 204.023L674.742 206.649L674.016 209.339C674.016 209.339 674.829 211.471 675.328 211.953C675.808 212.284 676.372 212.473 676.954 212.499C677.156 212.951 677.389 213.387 677.651 213.806C677.779 213.905 678.703 214.352 679.173 214.126C679.644 213.899 680.009 215.119 680.009 215.119C680.523 215.225 681.048 215.269 681.572 215.253C682.065 215.171 682.071 215.985 682.071 215.985C682.071 215.985 684.168 215.456 685.062 213.795C685.957 212.133 687.386 209.833 687.386 209.833C687.386 209.833 683.767 206.771 682.855 206.312C682.1 205.685 682.304 204.029 681.804 204.57" fill="#F4B1B1"/>
<path fill-rule="evenodd" clip-rule="evenodd" d="M702.948 160.053C697.721 148.696 704.179 143.613 710.463 144.606C721.847 147.511 733.428 182.169 730.431 191.173C728.329 197.261 690.205 210.884 686.796 209.966C686.006 209.757 679.019 207.474 680.599 202.838C681.093 201.386 712.014 183.046 712.467 180.879C713.228 177.277 704.632 163.294 702.948 160.053Z" fill="#76C5FB"/>
<path fill-rule="evenodd" clip-rule="evenodd" d="M623.911 137.872C624.405 140.997 621.495 146.034 619.265 146.928C619.015 146.487 617.522 144.605 616.558 143.117C614.456 139.969 619.422 133.398 620.879 134.857L623.911 137.872Z" fill="#76C5FB"/>
<path fill-rule="evenodd" clip-rule="evenodd" d="M617.868 133.171C617.561 131.736 616.254 126.067 615.197 125.114C614.656 124.626 614.529 124.847 614.291 125.154C614.03 125.611 613.914 126.136 613.96 126.659C614.03 127.525 614.152 128.387 614.325 129.238C611.125 127.565 608.065 123.638 605.724 120.949C604.777 119.856 603.261 119.973 604.179 121.925C604.922 123.516 607.879 127.089 607.879 127.089L603.813 124.486C602.692 123.905 602.698 125.259 603.232 125.84C604.109 126.787 606.81 129.326 606.81 129.326L603.865 128.251C602.739 127.844 603.325 129.227 603.627 129.471C604.318 130.052 606.764 131.591 606.764 131.591L605.41 131.144C603.883 130.638 604.998 132.608 605.445 132.747C605.538 132.776 610.817 136.122 611.741 136.674C614.035 138.051 615.127 140.328 616.753 142.239C618.624 140.576 619.836 138.296 620.168 135.814L617.868 133.171Z" fill="#F4B1B1"/>
<path fill-rule="evenodd" clip-rule="evenodd" d="M677.804 104.442C675.678 109.838 676.927 114.445 682.258 116.368C686.237 117.803 691.783 117.867 694.455 121.451C695.768 123.229 695.46 125.64 693.607 129.27C693.061 130.339 692.381 131.106 694.298 130.374C695.181 130.037 696.621 129.578 697.08 129.997C698.085 130.938 697.423 132.715 696.534 133.238C696.133 133.476 695.373 133.819 695.373 133.819C696.085 134.096 696.849 134.214 697.612 134.164C698.374 134.114 699.117 133.897 699.787 133.529C702.11 132.268 708.888 128.422 709.021 121.137C709.213 110.338 698.979 105.946 689.994 99.6432C686.051 96.8838 679.494 100.154 677.798 104.418" fill="black"/>
<path fill-rule="evenodd" clip-rule="evenodd" d="M500.986 111.563C510.233 123.123 519.821 138.75 523.306 150.032C523.462 150.508 523.717 150.946 524.053 151.317C524.389 151.688 524.799 151.985 525.258 152.187L555.459 151.379C556.83 150.758 557.782 149.875 558.078 148.608C560.82 137.699 581.949 103.668 581.676 103.767C585.904 96.2048 588.01 87.6397 587.769 78.9787C587.054 52.1167 564.479 30.9303 537.356 31.6507C510.233 32.371 488.819 54.7425 489.533 81.6103C489.755 90.2335 492.29 98.6385 496.874 105.945C498.338 107.845 499.389 109.681 500.998 111.574" fill="#FCA700"/>
<path fill-rule="evenodd" clip-rule="evenodd" d="M529.704 106.219C528.821 98.8415 523.623 98.8299 523.095 104.134C523.004 105.317 523.169 106.505 523.577 107.619C524.012 108.88 526.446 109.745 529.814 110.245L529.704 106.219ZM548.952 105.702C549.439 98.2896 554.632 97.9991 555.439 103.268C555.593 104.447 555.494 105.645 555.149 106.783C554.777 108.061 552.396 109.054 549.062 109.734L548.952 105.702ZM540.164 114.648H539.583H539.002C537.106 114.661 535.21 114.576 533.322 114.393V115.601L534.292 151.926L530.941 152.014L529.971 115.694L529.925 113.951C525.122 113.08 521.416 111.419 520.551 108.903C519.956 107.24 519.724 105.469 519.871 103.71C520.012 102.173 520.533 100.696 521.387 99.4108C522.134 98.2961 523.156 97.3935 524.355 96.7908C529.536 95.4024 533.253 100.857 533.067 106.086L533.189 110.628C535.169 110.774 537.312 110.82 539.467 110.785C541.622 110.75 543.759 110.547 545.728 110.297L545.612 105.749C545.141 100.549 548.568 94.9144 553.819 96.024C555.046 96.5659 556.114 97.414 556.92 98.4871C557.844 99.723 558.443 101.171 558.662 102.699C558.904 104.451 558.766 106.234 558.256 107.927C557.53 110.489 553.923 112.348 549.172 113.469L549.219 115.212L550.189 151.537L546.832 151.624L545.867 115.299L545.833 114.091C543.957 114.385 542.066 114.579 540.17 114.672L540.164 114.648Z" fill="white"/>
<path fill-rule="evenodd" clip-rule="evenodd" d="M528.202 152.041L551.811 151.408C553.412 151.37 554.963 151.968 556.126 153.071C557.288 154.173 557.967 155.691 558.014 157.293C558.039 158.891 557.437 160.436 556.338 161.595C555.238 162.755 553.727 163.438 552.13 163.497H551.253C551.103 163.541 550.971 163.634 550.879 163.761C550.787 163.888 550.739 164.041 550.744 164.198C550.749 164.355 550.805 164.506 550.905 164.627C551.004 164.748 551.141 164.833 551.294 164.868C553.344 164.816 554.453 166.466 554.465 168.516C554.482 169.504 554.111 170.46 553.431 171.177C552.751 171.894 551.817 172.315 550.829 172.35L548.791 172.408C548.639 172.45 548.505 172.541 548.411 172.667C548.317 172.793 548.268 172.947 548.272 173.105C548.276 173.262 548.333 173.413 548.433 173.535C548.534 173.656 548.672 173.74 548.826 173.774C550.063 174.314 550.893 175.487 551.149 177.259C551.172 178.208 550.818 179.127 550.165 179.815C549.512 180.504 548.612 180.905 547.664 180.931L533.887 181.297C532.939 181.32 532.02 180.966 531.332 180.313C530.644 179.659 530.243 178.76 530.217 177.811C530.198 176.948 530.491 176.107 531.041 175.443C531.591 174.778 532.363 174.334 533.214 174.192C533.355 174.137 533.475 174.04 533.558 173.913C533.64 173.787 533.681 173.637 533.674 173.486C533.667 173.335 533.612 173.19 533.518 173.072C533.424 172.954 533.295 172.868 533.15 172.827L530.287 172.908C529.297 172.931 528.339 172.562 527.622 171.88C526.905 171.199 526.487 170.261 526.459 169.271C526.436 168.282 526.804 167.324 527.484 166.606C528.164 165.888 529.101 165.468 530.089 165.437C530.234 165.389 530.359 165.295 530.447 165.17C530.534 165.044 530.579 164.895 530.575 164.742C530.572 164.589 530.519 164.442 530.425 164.321C530.331 164.201 530.201 164.113 530.054 164.072L528.509 164.113C526.908 164.15 525.357 163.552 524.195 162.45C523.032 161.347 522.354 159.83 522.306 158.228C522.267 156.627 522.864 155.075 523.965 153.913C525.067 152.75 526.583 152.071 528.184 152.024" fill="#3882C8"/>
<path d="M551.903 42.8015C551.319 42.532 550.687 42.3825 550.045 42.3618C549.403 42.3412 548.763 42.4499 548.163 42.6814C547.564 42.9128 547.017 43.2625 546.555 43.7095C546.093 44.1564 545.726 44.6917 545.475 45.2834C545.224 45.8751 545.094 46.5113 545.094 47.1541C545.093 47.7969 545.222 48.4332 545.472 49.0253C545.722 49.6175 546.089 50.1533 546.55 50.601C547.011 51.0487 547.557 51.3991 548.156 51.6316C554.127 54.1818 559.418 58.8467 563.402 64.4991C567.52 70.3432 570.18 77.1691 570.714 83.751C570.764 84.3807 570.936 84.9946 571.223 85.5576C571.509 86.1206 571.904 86.6217 572.384 87.0322C572.864 87.4427 573.42 87.7546 574.02 87.9502C574.621 88.1457 575.254 88.221 575.884 88.1718C576.513 88.1226 577.127 87.9498 577.69 87.6634C578.253 87.3769 578.754 86.9824 579.164 86.5023C579.574 86.0222 579.886 85.4659 580.082 84.8653C580.277 84.2646 580.353 83.6313 580.303 83.0016C579.63 74.6885 576.337 66.1547 571.26 58.9687C566.306 51.9337 559.604 46.0837 551.914 42.8015" fill="#FFCF74"/>
<path fill-rule="evenodd" clip-rule="evenodd" d="M594.307 399.081H522.649C526.366 411.861 530.081 424.63 533.794 437.387H605.453C601.736 424.607 598.021 411.838 594.307 399.081ZM580.949 353.223H509.32C513.033 366.003 516.748 378.772 520.465 391.529H592.106C588.389 378.76 584.674 365.991 580.961 353.223H580.949ZM567.591 307.33H495.967C499.684 320.11 503.399 332.879 507.113 345.636H578.754C575.044 332.871 571.329 320.104 567.608 307.335L567.591 307.33ZM554.233 261.436H482.621C486.338 274.217 490.053 286.987 493.766 299.748H565.407C561.69 286.984 557.975 274.215 554.262 261.442L554.233 261.436ZM540.874 215.584H469.268C472.985 228.364 476.7 241.133 480.414 253.89H552.055C548.345 241.125 544.632 228.358 540.915 215.59L540.874 215.584ZM467.026 208.032H538.667C535.821 198.241 532.968 188.435 530.106 178.614C529.526 176.557 530.687 174.82 532.784 174.82C533.888 174.891 534.945 175.289 535.821 175.965C536.696 176.641 537.35 177.564 537.697 178.614C551.799 227.098 565.906 275.572 580.02 324.037C594.133 372.502 608.227 420.966 622.302 469.431C622.882 471.488 621.68 473.19 619.595 473.19C618.498 473.127 617.446 472.735 616.575 472.064C615.705 471.393 615.057 470.476 614.716 469.431C612.347 461.298 609.981 453.152 607.619 444.992H536.001C538.375 453.124 540.746 461.271 543.116 469.431C543.697 471.488 542.535 473.19 540.427 473.19C539.33 473.127 538.278 472.735 537.407 472.064C536.537 471.393 535.889 470.476 535.548 469.431C521.458 420.97 507.357 372.506 493.243 324.037C479.13 275.568 465.028 227.094 450.938 178.614C450.357 176.557 451.519 174.82 453.61 174.82C454.712 174.89 455.767 175.289 456.64 175.965C457.513 176.641 458.163 177.564 458.506 178.614C461.364 188.416 464.213 198.214 467.055 208.009L467.026 208.032Z" fill="#231916"/>
<path fill-rule="evenodd" clip-rule="evenodd" d="M379.512 104.148H410.445C414.302 104.148 423.804 111.456 425.476 120.995C428.618 136.332 427.219 170.084 416.358 182.12L404.045 181.958L366.328 172.605V108.918C370.026 105.832 374.691 104.144 379.506 104.148" fill="#986633"/>
<path fill-rule="evenodd" clip-rule="evenodd" d="M410.445 104.25C425.714 105.749 427.137 124.948 426.94 136.927H410.451L410.445 104.25Z" fill="#986633"/>
<path fill-rule="evenodd" clip-rule="evenodd" d="M413.921 137.028L426.943 136.93C426.943 136.93 427.175 142.942 420.775 147.282C405.093 157.913 395.29 163.6 391.079 163.344C387.35 163.118 388.425 158.767 388.047 157.785C387.036 155.153 395.812 154.88 413.921 137.028Z" fill="#F4B1B1"/>
<path fill-rule="evenodd" clip-rule="evenodd" d="M431.254 259.852L432.752 270.61L436.597 274.171C436.597 274.171 439.594 274.026 439.942 275.066C440.291 276.106 439.942 278.337 439.942 278.337H420.271C418.911 272.472 418.15 266.485 418 260.467L431.254 259.852Z" fill="#231916"/>
<path fill-rule="evenodd" clip-rule="evenodd" d="M341.691 166.914H407.048C407.774 166.915 408.499 166.981 409.214 167.112C427.463 167.112 430.448 178.782 431.006 191.714L434.211 265.689H416.526L405.433 190.395H341.691C340.15 190.395 338.623 190.091 337.199 189.501C335.775 188.911 334.481 188.047 333.391 186.956C332.301 185.866 331.436 184.572 330.847 183.147C330.257 181.723 329.953 180.196 329.953 178.655C329.953 177.113 330.257 175.586 330.847 174.162C331.436 172.737 332.301 171.443 333.391 170.353C334.481 169.263 335.775 168.398 337.199 167.808C338.623 167.218 340.15 166.914 341.691 166.914Z" fill="#092978"/>
<path fill-rule="evenodd" clip-rule="evenodd" d="M359.539 234.536L368.512 254.63C368.512 254.63 367.932 258.267 366.421 260.341C364.911 262.414 364.772 263.931 365.713 265.18C366.654 266.429 366.874 266.737 366.874 266.737L382.12 250.825L374.158 232.125L359.539 234.536Z" fill="#231916"/>
<path fill-rule="evenodd" clip-rule="evenodd" d="M347.943 170.335C350.598 171.638 352.843 173.648 354.431 176.144C359.803 184.277 380.682 239.337 380.682 239.337H359.687L335.706 194.501C334.858 192.637 330.641 184.858 330.252 181.32C329.003 169.928 338.459 165.995 347.943 170.346" fill="#092978"/>
<path fill-rule="evenodd" clip-rule="evenodd" d="M376.243 88.6839C373.008 94.4583 378.566 102.51 385.396 101.923V103.759L381.668 109.069L385.338 114.529L389.166 115.918L398.394 113.542V96.9157C398.731 96.8111 398.743 97.4153 399.428 96.997C400.114 96.5787 401.641 93.5114 401.362 91.8907C401.083 90.2699 399.039 89.3869 399.039 89.3869C400.962 84.6639 402.477 83.9145 397.535 81.2888C392.592 78.663 382.608 78.8547 382.608 78.8547L378.084 80.3767C377.887 84.7685 378.496 84.6872 376.255 88.6839" fill="#F4B1B1"/>
<path fill-rule="evenodd" clip-rule="evenodd" d="M384.395 101.944C384.73 101.965 385.065 101.965 385.4 101.944C388.239 101.884 391.044 101.308 393.676 100.242C392.865 102.39 391.239 104.131 389.152 105.087C385.847 106.615 383.628 106.667 383.344 106.667L385.371 103.763V101.927L384.395 101.944Z" fill="#DD7577"/>
<path fill-rule="evenodd" clip-rule="evenodd" d="M371.87 69.1199C370.656 75.2893 373.136 80.8023 379.205 81.8131C383.021 82.4521 386.105 81.906 388.44 82.1849C389.69 82.3895 390.857 82.9456 391.803 83.7882C393.992 85.5601 395.688 89.9286 396.182 92.8274C396.182 92.8274 398.737 91.7527 399.574 92.2872C400.41 92.8216 399.882 94.0939 399.76 94.6109C399.638 95.1279 398.453 95.7088 398.07 96.04C396.908 97.0217 399.876 98.8284 403.035 96.2781C405.26 94.4831 410.876 89.1444 410.47 81.2496C410.063 73.3548 406.927 71.5307 405.713 70.8278C404.929 70.363 398.639 68.446 393.894 66.831C388.086 64.8617 387.639 63.3455 383.939 61.6027C379.188 59.43 372.828 64.1936 371.87 69.0792" fill="black"/>
<path fill-rule="evenodd" clip-rule="evenodd" d="M366.665 108.648C358.261 116.142 356.512 127.29 355.711 137.114C361.217 136.754 361.658 137.027 367.112 136.852L366.665 108.648Z" fill="#986633"/>
<path fill-rule="evenodd" clip-rule="evenodd" d="M389.291 125.236C389.49 125.236 389.686 125.296 389.852 125.407C390.018 125.518 390.148 125.676 390.224 125.86C390.301 126.045 390.321 126.248 390.282 126.444C390.243 126.641 390.147 126.821 390.005 126.962C389.864 127.103 389.684 127.2 389.488 127.239C389.292 127.278 389.089 127.258 388.904 127.181C388.719 127.105 388.561 126.975 388.45 126.809C388.339 126.643 388.28 126.447 388.28 126.247C388.28 125.979 388.387 125.722 388.576 125.533C388.766 125.343 389.023 125.236 389.291 125.236ZM389.291 119.369C389.49 119.369 389.686 119.428 389.852 119.539C390.018 119.651 390.148 119.808 390.224 119.993C390.301 120.178 390.321 120.381 390.282 120.577C390.243 120.773 390.147 120.953 390.005 121.095C389.864 121.236 389.684 121.332 389.488 121.371C389.292 121.41 389.089 121.39 388.904 121.314C388.719 121.237 388.561 121.108 388.45 120.941C388.339 120.775 388.28 120.58 388.28 120.38C388.278 120.246 388.304 120.113 388.354 119.99C388.404 119.866 388.478 119.753 388.572 119.658C388.666 119.563 388.778 119.487 388.901 119.436C389.025 119.384 389.157 119.357 389.291 119.357V119.369ZM385.388 103.742C381.903 109.732 385.707 113.99 389.157 115.907C394.012 112.752 398.386 109.679 398.386 103.742C398.386 103.742 400.064 103.742 401.15 106.374C402.945 110.684 399.937 120.368 399.937 120.368C399.937 120.368 396.556 115.994 393.751 115.762C392.176 115.589 390.582 115.798 389.105 116.372C385.515 113.74 383.065 117.156 380.666 119.66C379.905 113.269 380.004 108.68 384.778 103.742H385.388Z" fill="white"/>
<path fill-rule="evenodd" clip-rule="evenodd" d="M326.695 134.475L350.821 166.914H371.219C371.219 166.914 378.549 163.283 382.184 162.848C385.82 162.412 388.219 162.226 388.219 162.226L368.251 132.273C368.251 132.273 357.495 132.483 351.879 135.707C346.262 138.931 345.432 139.657 345.432 139.657C341.947 136.654 330.86 128.59 326.713 134.429" fill="#FCA700"/>
<path fill-rule="evenodd" clip-rule="evenodd" d="M326.695 134.473L350.821 166.912H364.987L345.414 139.672C341.93 136.669 330.842 128.606 326.695 134.444" fill="#E29703"/>
<path fill-rule="evenodd" clip-rule="evenodd" d="M383.086 154.932C383.01 155.061 382.977 155.212 382.993 155.362C383.009 155.511 383.072 155.652 383.173 155.763C383.266 155.879 384.654 157.854 384.654 157.854L378.469 161.682C378.593 161.973 378.825 162.205 379.116 162.329C379.407 162.453 379.735 162.461 380.031 162.35C381.135 161.961 385.793 160.636 385.793 160.636L380.223 163.785C380.273 164.002 380.403 164.192 380.587 164.317C380.771 164.442 380.996 164.493 381.216 164.459C382.012 164.337 386.513 162.85 386.513 162.85L382.151 165.754L382.517 166.237C383.701 165.858 384.865 165.416 386.002 164.912C386.532 164.633 387.086 164.402 387.657 164.221L383.946 167.021L384.741 167.335C384.741 167.335 388.516 165.418 388.609 165.342C389.823 164.36 392.483 162.437 393.157 161.026C394.057 159.173 392.658 157.831 391.508 156.407C391.275 156.123 388.726 156.988 387.605 156.465C385.671 155.542 383.225 154.612 383.069 154.943" fill="#F4B1B1"/>
<path d="M845.707 294.766H824.031V316.446H845.707V294.766Z" fill="#A5DBFD"/>
<path fill-rule="evenodd" clip-rule="evenodd" d="M813.703 343.459L831.051 348.688C831.051 348.688 833.003 351.011 833.485 353.062C833.967 355.113 834.838 356.019 836.122 356.106C838.445 356.257 839.473 341.043 839.827 338.638L820.08 333.078L813.703 343.459Z" fill="#F4B1B1"/>
<path fill-rule="evenodd" clip-rule="evenodd" d="M804.649 252H775.453C771.817 252 762.855 258.89 761.276 267.882C758.313 282.342 759.632 314.171 769.871 325.516L781.487 325.365L817.055 316.547V256.525C813.569 253.616 809.172 252.025 804.632 252.029" fill="#00A0E8"/>
<path fill-rule="evenodd" clip-rule="evenodd" d="M775.451 252.094C761.054 253.511 759.712 271.607 759.898 282.883H775.451V252.094Z" fill="#00A0E8"/>
<path fill-rule="evenodd" clip-rule="evenodd" d="M799.11 251.624C802.415 257.277 798.814 261.285 795.561 263.103C790.973 260.123 786.849 257.224 786.849 251.624C786.849 251.624 782.343 250.003 781.32 252.513C790.84 277.214 788.087 308.532 788.087 308.532C794.702 308.323 812.335 305.377 812.48 305.9C813.194 299.876 813.101 260.82 801.677 251.729L799.11 251.624Z" fill="white"/>
<path fill-rule="evenodd" clip-rule="evenodd" d="M774.064 283.017L759.922 282.906C759.922 291.457 773.826 311.18 790.332 311.18H810.927C810.927 311.18 806.548 305.568 800.775 305.098C795.002 304.627 794.781 305.423 794.781 305.423C791.593 305.533 776.928 297.005 774.064 283.017Z" fill="#F4B1B1"/>
<path fill-rule="evenodd" clip-rule="evenodd" d="M840.316 311.18H778.688C778.002 311.178 777.318 311.243 776.644 311.371C760.027 311.371 759.719 321.677 758.477 333.325H840.322C843.258 333.325 846.074 332.158 848.15 330.082C850.226 328.005 851.392 325.189 851.392 322.252C851.392 319.316 850.226 316.499 848.15 314.423C846.074 312.346 843.258 311.18 840.322 311.18" fill="#092978"/>
<path fill-rule="evenodd" clip-rule="evenodd" d="M843.079 312.293C840.599 311.712 837.852 310.852 834.948 311.236C825.812 312.398 771.484 328.855 771.484 328.855L781.062 339.968C792.259 339.266 837.161 343.239 845.71 337.366C854.619 331.249 856.664 315.389 843.085 312.293" fill="#092978"/>
<path fill-rule="evenodd" clip-rule="evenodd" d="M807.06 238.518C808.221 242.816 802.878 250.095 799.103 249.892V251.635C802.384 257.276 798.789 261.278 795.543 263.091C790.972 260.122 786.86 257.229 786.831 251.664V245.175C786.511 245.076 786.5 245.651 785.855 245.256C785.21 244.861 783.77 241.945 784.031 240.44C784.293 238.936 786.221 238.082 786.221 238.082C784.409 233.626 782.98 232.917 787.644 230.443C792.308 227.968 801.717 228.119 801.717 228.119L805.985 229.554C806.171 233.696 805.898 234.329 807.037 238.5" fill="#F4B1B1"/>
<path fill-rule="evenodd" clip-rule="evenodd" d="M800.042 249.929C799.728 249.947 799.414 249.947 799.101 249.929C796.421 249.868 793.775 249.323 791.289 248.32C792.055 250.347 793.589 251.989 795.558 252.892C797.026 253.599 798.592 254.079 800.204 254.315C799.972 253.386 799.604 252.495 799.112 251.672V249.929H800.042Z" fill="#ED8D8F"/>
<path fill-rule="evenodd" clip-rule="evenodd" d="M816.762 256.25C824.69 263.314 829.29 273.097 832.107 283.315C826.914 282.978 821.49 283.002 816.344 282.833L816.762 256.25Z" fill="#00A0E8"/>
<path fill-rule="evenodd" clip-rule="evenodd" d="M802.495 275.695H847.094C848.836 275.695 850.579 277.148 850.224 278.827L843.557 308.308C843.179 309.987 842.151 311.434 840.432 311.434H795.833C794.091 311.434 792.348 309.987 792.703 308.308L799.37 278.827C799.748 277.148 800.776 275.695 802.495 275.695Z" fill="#E8F5FC"/>
<path fill-rule="evenodd" clip-rule="evenodd" d="M804.495 275.695H849.094C850.836 275.695 852.579 277.148 852.224 278.827L845.557 308.308C845.179 309.987 844.151 311.434 842.432 311.434H797.833C796.091 311.434 794.348 309.987 794.703 308.308L801.37 278.827C801.748 277.148 802.776 275.695 804.495 275.695Z" fill="#94BBE3"/>
<path fill-rule="evenodd" clip-rule="evenodd" d="M824.407 290.65C825.754 291.086 826.428 292.747 825.905 294.368C825.382 295.989 823.872 296.941 822.525 296.512C821.177 296.082 820.509 294.414 821.026 292.794C821.543 291.173 823.059 290.22 824.407 290.65Z" fill="white"/>
<path fill-rule="evenodd" clip-rule="evenodd" d="M771.546 308.533H794.197V311.438H770.094V309.974C770.095 309.588 770.249 309.218 770.522 308.944C770.795 308.671 771.165 308.517 771.552 308.516" fill="#E8F5FC"/>
<path fill-rule="evenodd" clip-rule="evenodd" d="M771.225 311.815C780.424 312.256 827.823 330.242 827.823 330.242L822.811 347.332C815.841 346.478 766.253 339.914 762.49 337.759C746.558 328.621 757.884 310.618 771.201 311.815" fill="#092978"/>
<path fill-rule="evenodd" clip-rule="evenodd" d="M579.647 10.9929C580.279 11.3597 580.739 11.9618 580.927 12.6674C581.116 13.3731 581.017 14.1246 580.652 14.7573L574.635 25.1849C574.268 25.8163 573.666 26.277 572.961 26.4664C572.256 26.6557 571.505 26.5585 570.871 26.1958C570.555 26.015 570.278 25.7737 570.056 25.4857C569.833 25.1976 569.67 24.8685 569.575 24.5171C569.48 24.1658 569.455 23.7991 569.502 23.4382C569.549 23.0773 569.667 22.7292 569.849 22.4139L575.872 11.9863C576.239 11.3549 576.84 10.8942 577.545 10.7049C578.25 10.5155 579.002 10.6128 579.635 10.9755M497.616 10.9755C498.249 10.6128 499.001 10.5155 499.706 10.7049C500.411 10.8942 501.012 11.3549 501.379 11.9863L507.414 22.4139C507.776 23.0477 507.874 23.7992 507.684 24.5045C507.495 25.2097 507.034 25.8115 506.403 26.1783C505.769 26.541 505.018 26.6383 504.313 26.4489C503.608 26.2596 503.006 25.7989 502.64 25.1675L496.623 14.7399C496.263 14.1088 496.167 13.3614 496.355 12.66C496.544 11.9586 497.001 11.3596 497.627 10.9929L497.616 10.9755ZM467.629 41.0035C467.998 40.3729 468.601 39.9131 469.306 39.7239C470.012 39.5347 470.764 39.6313 471.399 39.9927L481.853 46.0169C482.484 46.3826 482.944 46.9837 483.133 47.6884C483.321 48.393 483.222 49.1437 482.858 49.7755C482.491 50.4069 481.889 50.8676 481.184 51.057C480.479 51.2463 479.728 51.149 479.094 50.7863L468.64 44.7621C468.01 44.3953 467.551 43.7946 467.361 43.0908C467.172 42.3869 467.268 41.6368 467.629 41.0035ZM609.692 41.0035C610.054 41.6373 610.151 42.3889 609.962 43.0941C609.773 43.7994 609.312 44.4011 608.681 44.768L598.227 50.7922C597.593 51.1549 596.842 51.2521 596.137 51.0628C595.432 50.8734 594.83 50.4127 594.463 49.7813C594.1 49.1482 594.002 48.3972 594.19 47.6921C594.378 46.9869 594.838 46.3848 595.468 46.0169L605.922 39.9927C606.555 39.637 607.301 39.5437 608.002 39.7327C608.702 39.9217 609.301 40.378 609.668 41.0035H609.692ZM620.68 82.0227C620.677 82.7531 620.385 83.4526 619.868 83.9685C619.352 84.4844 618.652 84.7748 617.921 84.7763H605.858C605.129 84.7748 604.429 84.4842 603.913 83.9681C603.397 83.452 603.107 82.7525 603.105 82.0227C603.107 81.2924 603.397 80.5923 603.913 80.0753C604.429 79.5583 605.128 79.2664 605.858 79.2633H617.898C618.632 79.2664 619.335 79.5605 619.852 80.0811C620.369 80.6017 620.659 81.3062 620.657 82.0402L620.68 82.0227ZM474.192 82.0227C474.191 82.7525 473.9 83.452 473.384 83.9681C472.868 84.4842 472.169 84.7748 471.439 84.7763H459.399C458.669 84.7748 457.969 84.4844 457.452 83.9685C456.936 83.4526 456.644 82.7531 456.641 82.0227C456.644 81.2918 456.935 80.5917 457.452 80.0749C457.969 79.5581 458.669 79.2664 459.399 79.2633H471.439C472.168 79.2725 472.864 79.5695 473.376 80.0896C473.887 80.6097 474.172 81.3108 474.169 82.0402L474.192 82.0227ZM538.66 -0.015625C539.39 -0.0125669 540.088 0.278527 540.604 0.794264C541.119 1.31 541.41 2.00861 541.413 2.73797V14.7805C541.412 15.5109 541.122 16.211 540.606 16.728C540.09 17.245 539.391 17.5369 538.66 17.5399C537.93 17.5369 537.231 17.245 536.715 16.728C536.199 16.211 535.909 15.5109 535.907 14.7805V2.75539C535.91 2.03003 536.198 1.33488 536.709 0.819793C537.22 0.304709 537.912 0.0109392 538.637 0.00180207L538.66 -0.015625Z" fill="#FCA700"/>
<mask id="mask0_2030_132890" style="mask-type:luminance" maskUnits="userSpaceOnUse" x="185" y="213" width="145" height="261">
<path d="M311.72 213.078H203.5C198.726 213.092 194.151 214.992 190.772 218.366C187.393 221.739 185.484 226.312 185.461 231.087V455.098C185.476 459.878 187.382 464.459 190.762 467.839C194.141 471.22 198.721 473.126 203.5 473.141H311.72C316.499 473.126 321.079 471.22 324.459 467.839C327.838 464.459 329.744 459.878 329.759 455.098V231.116C329.736 226.341 327.827 221.768 324.448 218.395C321.069 215.022 316.494 213.121 311.72 213.107" fill="white"/>
</mask>
<g mask="url(#mask0_2030_132890)">
<path d="M329.761 213.078H185.469V473.17H329.761V213.078Z" fill="url(#paint0_linear_2030_132890)"/>
</g>
<path d="M311.72 228.258H203.5C198.288 228.258 194.062 232.484 194.062 237.698V422.688C194.062 427.901 198.288 432.128 203.5 432.128H311.72C316.932 432.128 321.158 427.901 321.158 422.688V237.698C321.158 232.484 316.932 228.258 311.72 228.258Z" fill="#76C5FB"/>
<path fill-rule="evenodd" clip-rule="evenodd" d="M265.761 222.282C265.931 222.319 266.106 222.317 266.275 222.277C266.443 222.237 266.601 222.159 266.736 222.05C266.871 221.941 266.98 221.804 267.054 221.647C267.129 221.491 267.168 221.32 267.168 221.146C267.168 220.973 267.129 220.802 267.054 220.645C266.98 220.489 266.871 220.351 266.736 220.242C266.601 220.133 266.443 220.056 266.275 220.016C266.106 219.976 265.931 219.974 265.761 220.011H244.69C244.43 220.067 244.198 220.21 244.031 220.416C243.864 220.623 243.773 220.881 243.773 221.146C243.773 221.412 243.864 221.669 244.031 221.876C244.198 222.083 244.43 222.226 244.69 222.282H265.761ZM269.554 220.011C269.294 220.067 269.062 220.21 268.895 220.416C268.728 220.623 268.637 220.881 268.637 221.146C268.637 221.412 268.728 221.669 268.895 221.876C269.062 222.083 269.294 222.226 269.554 222.282H270.53C270.699 222.319 270.874 222.317 271.043 222.277C271.212 222.237 271.369 222.159 271.504 222.05C271.639 221.941 271.748 221.804 271.823 221.647C271.897 221.491 271.936 221.32 271.936 221.146C271.936 220.973 271.897 220.802 271.823 220.645C271.748 220.489 271.639 220.351 271.504 220.242C271.369 220.133 271.212 220.056 271.043 220.016C270.874 219.976 270.699 219.974 270.53 220.011H269.554Z" fill="white"/>
<path fill-rule="evenodd" clip-rule="evenodd" d="M251.353 447.068H265.513C267.282 447.074 268.976 447.78 270.227 449.032C271.477 450.284 272.182 451.979 272.186 453.749C272.172 455.512 271.464 457.199 270.215 458.443C268.965 459.687 267.276 460.388 265.513 460.395H251.353C249.585 460.388 247.891 459.683 246.641 458.433C245.391 457.182 244.686 455.488 244.68 453.72C244.684 451.95 245.389 450.255 246.639 449.003C247.889 447.751 249.584 447.045 251.353 447.039" fill="#76C5FB"/>
<path fill-rule="evenodd" clip-rule="evenodd" d="M306.221 289.438H212.231C210.918 289.438 209.844 290.355 209.844 291.471C209.844 292.586 210.918 293.504 212.231 293.504H306.221C307.533 293.504 308.614 292.592 308.614 291.471C308.614 290.35 307.533 289.438 306.221 289.438Z" fill="white"/>
<path fill-rule="evenodd" clip-rule="evenodd" d="M242.185 270.805H213.43C211.502 270.805 209.945 271.717 209.945 272.838C209.945 273.959 211.525 274.871 213.43 274.871H242.185C244.113 274.871 245.67 273.953 245.67 272.838C245.67 271.723 244.09 270.805 242.185 270.805Z" fill="white"/>
<path fill-rule="evenodd" clip-rule="evenodd" d="M306.221 280.148H212.231C210.918 280.148 209.844 281.066 209.844 282.182C209.844 283.297 210.918 284.215 212.231 284.215H306.221C307.533 284.215 308.614 283.303 308.614 282.182C308.614 281.06 307.533 280.148 306.221 280.148Z" fill="white"/>
<path fill-rule="evenodd" clip-rule="evenodd" d="M306.221 298.719H212.231C210.918 298.719 209.844 299.637 209.844 300.752C209.844 301.867 210.918 302.785 212.231 302.785H306.221C307.533 302.785 308.614 301.873 308.614 300.752C308.614 299.631 307.533 298.719 306.221 298.719Z" fill="white"/>
<path fill-rule="evenodd" clip-rule="evenodd" d="M306.221 308.414H212.231C210.918 308.414 209.844 309.326 209.844 310.447C209.844 311.568 210.918 312.481 212.231 312.481H306.221C307.533 312.481 308.614 311.563 308.614 310.447C308.614 309.332 307.533 308.414 306.221 308.414Z" fill="white"/>
<path fill-rule="evenodd" clip-rule="evenodd" d="M306.221 336.969H254.332C253.02 336.969 251.945 337.881 251.945 339.002C251.945 340.123 253.02 341.035 254.332 341.035H306.221C307.533 341.035 308.613 340.123 308.613 339.002C308.613 337.881 307.533 336.969 306.221 336.969Z" fill="white"/>
<path fill-rule="evenodd" clip-rule="evenodd" d="M306.221 327.688H254.332C253.02 327.688 251.945 328.6 251.945 329.721C251.945 330.842 253.02 331.754 254.332 331.754H306.221C307.533 331.754 308.613 330.842 308.613 329.721C308.613 328.6 307.533 327.688 306.221 327.688Z" fill="white"/>
<path fill-rule="evenodd" clip-rule="evenodd" d="M306.221 346.258H254.332C253.02 346.258 251.945 347.17 251.945 348.291C251.945 349.412 253.02 350.324 254.332 350.324H306.221C307.533 350.324 308.613 349.406 308.613 348.291C308.613 347.176 307.533 346.258 306.221 346.258Z" fill="white"/>
<path fill-rule="evenodd" clip-rule="evenodd" d="M306.221 355.945H254.332C253.02 355.945 251.945 356.863 251.945 357.979C251.945 359.094 253.02 360.018 254.332 360.018H306.221C307.533 360.018 308.613 359.1 308.613 357.979C308.613 356.857 307.533 355.945 306.221 355.945Z" fill="white"/>
<path fill-rule="evenodd" clip-rule="evenodd" d="M213.867 327.703H242.14C243.08 327.706 243.981 328.081 244.646 328.746C245.311 329.411 245.686 330.312 245.689 331.253V356.604C245.686 357.545 245.311 358.447 244.646 359.113C243.982 359.779 243.081 360.155 242.14 360.159H213.867C212.926 360.155 212.024 359.779 211.359 359.113C210.693 358.447 210.317 357.546 210.312 356.604V331.253C210.317 330.312 210.693 329.411 211.359 328.746C212.025 328.081 212.926 327.706 213.867 327.703Z" fill="white"/>
<path fill-rule="evenodd" clip-rule="evenodd" d="M237.159 337.096C234.952 340 232.681 343.921 231.891 346.721C231.855 346.84 231.794 346.95 231.713 347.044C231.632 347.138 231.533 347.214 231.42 347.268H223.969C223.814 347.215 223.674 347.128 223.559 347.012C223.444 346.896 223.358 346.755 223.307 346.599C222.563 343.921 217.144 335.661 217.208 335.684C216.124 333.839 215.558 331.736 215.571 329.596C215.576 326.38 216.858 323.299 219.135 321.029C221.412 318.759 224.497 317.487 227.712 317.492C230.927 317.498 234.008 318.78 236.277 321.058C238.546 323.335 239.818 326.421 239.813 329.636C239.811 331.765 239.237 333.853 238.152 335.684C237.803 336.16 237.571 336.619 237.17 337.096" fill="#FCA700"/>
<path fill-rule="evenodd" clip-rule="evenodd" d="M230.041 335.957C230.21 334.133 231.493 334.098 231.656 335.376C231.687 335.669 231.654 335.964 231.557 336.242C231.458 336.556 230.866 336.782 230.035 336.927L230.041 335.957ZM225.29 335.957C225.122 334.133 223.844 334.093 223.676 335.376C223.643 335.668 223.674 335.964 223.769 336.242C223.867 336.556 224.46 336.782 225.29 336.933V335.957ZM227.515 338.113H227.811C228.287 338.113 228.758 338.066 229.211 338.014V338.31V347.274H230.035V338.304V337.857C231.197 337.613 232.121 337.177 232.318 336.55C232.452 336.136 232.498 335.699 232.452 335.266C232.41 334.887 232.272 334.525 232.051 334.215C231.86 333.946 231.604 333.73 231.307 333.587C230.018 333.279 229.135 334.644 229.211 335.911V337.032C228.723 337.079 228.194 337.108 227.66 337.108C227.126 337.108 226.603 337.108 226.115 337.026V335.905C226.202 334.621 225.319 333.25 224.036 333.581C223.735 333.724 223.476 333.939 223.281 334.209C223.062 334.518 222.924 334.878 222.88 335.254C222.829 335.687 222.873 336.125 223.008 336.538C223.205 337.166 224.106 337.601 225.285 337.851V338.287V347.251H226.115V338.287V337.991C226.579 338.05 227.047 338.083 227.515 338.089V338.113Z" fill="white"/>
<path fill-rule="evenodd" clip-rule="evenodd" d="M230.668 347.251H224.86C224.465 347.251 224.086 347.407 223.806 347.686C223.527 347.965 223.369 348.343 223.367 348.738C223.37 349.133 223.527 349.51 223.805 349.791C224.083 350.071 224.46 350.231 224.854 350.237H225.069C225.106 350.247 225.139 350.269 225.162 350.299C225.186 350.33 225.199 350.367 225.199 350.405C225.199 350.444 225.186 350.481 225.162 350.512C225.139 350.542 225.106 350.564 225.069 350.574C224.564 350.574 224.302 350.986 224.308 351.492C224.311 351.736 224.409 351.969 224.582 352.141C224.754 352.314 224.988 352.412 225.232 352.415H225.731C225.768 352.426 225.801 352.448 225.825 352.478C225.849 352.508 225.863 352.545 225.865 352.584C225.864 352.623 225.851 352.661 225.827 352.691C225.803 352.722 225.769 352.743 225.731 352.752C225.565 352.832 225.424 352.955 225.321 353.108C225.219 353.262 225.16 353.44 225.15 353.624C225.15 353.857 225.242 354.081 225.407 354.246C225.571 354.411 225.794 354.505 226.027 354.507H229.431C229.664 354.505 229.888 354.412 230.053 354.246C230.218 354.081 230.312 353.857 230.314 353.624C230.313 353.411 230.236 353.205 230.096 353.044C229.956 352.883 229.764 352.777 229.553 352.746C229.518 352.735 229.489 352.714 229.468 352.684C229.447 352.655 229.436 352.62 229.436 352.584C229.437 352.546 229.448 352.509 229.47 352.478C229.492 352.446 229.523 352.423 229.558 352.41H230.267C230.512 352.41 230.747 352.312 230.92 352.139C231.093 351.966 231.191 351.731 231.191 351.486C231.189 351.241 231.091 351.007 230.918 350.834C230.745 350.662 230.511 350.564 230.267 350.562C230.231 350.552 230.199 350.53 230.177 350.499C230.155 350.468 230.144 350.431 230.145 350.394C230.146 350.356 230.159 350.319 230.182 350.289C230.205 350.258 230.237 350.236 230.273 350.225H230.668C230.871 350.238 231.075 350.209 231.267 350.14C231.459 350.071 231.634 349.963 231.783 349.823C231.931 349.684 232.05 349.515 232.131 349.328C232.212 349.141 232.253 348.939 232.253 348.735C232.253 348.531 232.212 348.33 232.131 348.142C232.05 347.955 231.931 347.787 231.783 347.647C231.634 347.507 231.459 347.4 231.267 347.331C231.075 347.262 230.871 347.232 230.668 347.245" fill="#3882C8"/>
<path d="M224.178 320.426C224.32 320.362 224.472 320.326 224.628 320.321C224.783 320.316 224.937 320.341 225.083 320.396C225.228 320.451 225.361 320.534 225.475 320.64C225.588 320.746 225.679 320.874 225.743 321.015C225.807 321.157 225.843 321.31 225.848 321.465C225.853 321.62 225.827 321.775 225.773 321.92C225.718 322.066 225.635 322.199 225.529 322.312C225.423 322.425 225.295 322.517 225.154 322.581C223.651 323.314 222.377 324.445 221.472 325.852C220.501 327.272 219.921 328.923 219.787 330.638C219.771 330.952 219.631 331.246 219.398 331.456C219.165 331.667 218.858 331.776 218.544 331.76C218.231 331.743 217.937 331.603 217.727 331.37C217.516 331.137 217.407 330.83 217.423 330.516C217.578 328.373 218.295 326.309 219.503 324.533C220.654 322.76 222.272 321.338 224.178 320.426Z" fill="#FFCF74"/>
<path fill-rule="evenodd" clip-rule="evenodd" d="M273.531 379.922H301.804C302.744 379.925 303.645 380.3 304.31 380.965C304.975 381.63 305.35 382.531 305.353 383.471V408.823C305.351 409.764 304.977 410.667 304.312 411.333C303.647 411.999 302.745 412.375 301.804 412.378H273.531C272.589 412.375 271.687 412 271.021 411.333C270.355 410.667 269.98 409.765 269.977 408.823V383.471C269.981 382.53 270.357 381.629 271.023 380.965C271.689 380.3 272.59 379.925 273.531 379.922Z" fill="white"/>
<path fill-rule="evenodd" clip-rule="evenodd" d="M296.824 389.323C294.617 392.228 292.346 396.143 291.557 398.949C291.52 399.067 291.459 399.175 291.378 399.268C291.297 399.361 291.197 399.436 291.086 399.489H283.634C283.48 399.437 283.339 399.349 283.225 399.233C283.11 399.117 283.023 398.976 282.972 398.821C282.229 396.149 276.81 387.882 276.874 387.906C275.788 386.065 275.216 383.966 275.219 381.829C275.293 378.659 276.606 375.644 278.876 373.43C281.146 371.216 284.192 369.979 287.363 369.984C290.533 369.99 293.575 371.237 295.838 373.458C298.1 375.68 299.403 378.699 299.467 381.87C299.465 383.998 298.891 386.087 297.806 387.917C297.457 388.394 297.225 388.853 296.824 389.335" fill="#FCA700"/>
<path fill-rule="evenodd" clip-rule="evenodd" d="M289.705 388.182C289.874 386.358 291.157 386.323 291.32 387.601C291.348 387.892 291.315 388.185 291.221 388.461C291.123 388.775 290.53 389.001 289.7 389.146L289.705 388.182ZM284.954 388.182C284.786 386.352 283.502 386.312 283.34 387.601C283.307 387.893 283.338 388.189 283.433 388.467C283.532 388.78 284.124 389.007 284.949 389.158L284.954 388.182ZM287.179 390.332H287.475C287.943 390.323 288.41 390.29 288.875 390.233V390.529V399.493H289.7V390.523V390.093C290.861 389.849 291.785 389.414 291.982 388.786C292.116 388.372 292.162 387.935 292.116 387.502C292.072 387.126 291.934 386.766 291.715 386.457C291.526 386.183 291.267 385.965 290.966 385.824C289.682 385.516 288.799 386.881 288.875 388.147V389.268C287.846 389.373 286.808 389.373 285.779 389.268V388.147C285.866 386.863 284.983 385.492 283.694 385.824C283.395 385.966 283.138 386.182 282.945 386.451C282.726 386.76 282.588 387.12 282.544 387.497C282.493 387.929 282.537 388.367 282.672 388.78C282.869 389.408 283.77 389.849 284.949 390.093V390.529V399.493H285.779V390.529V390.233C286.244 390.292 286.711 390.327 287.179 390.337V390.332Z" fill="white"/>
<path fill-rule="evenodd" clip-rule="evenodd" d="M290.355 399.477H284.547C284.151 399.477 283.772 399.634 283.492 399.914C283.212 400.194 283.055 400.574 283.055 400.97C283.055 401.366 283.212 401.745 283.492 402.025C283.772 402.305 284.151 402.463 284.547 402.463H284.762C284.799 402.472 284.832 402.494 284.856 402.525C284.879 402.555 284.892 402.593 284.892 402.631C284.892 402.669 284.879 402.707 284.856 402.737C284.832 402.768 284.799 402.79 284.762 402.799C284.257 402.799 283.996 403.212 284.001 403.717C284.003 403.962 284.101 404.196 284.274 404.369C284.446 404.542 284.68 404.639 284.925 404.641H285.424C285.462 404.652 285.496 404.675 285.52 404.706C285.544 404.738 285.557 404.776 285.558 404.815C285.557 404.854 285.543 404.891 285.519 404.922C285.495 404.952 285.462 404.974 285.424 404.984C285.258 405.063 285.115 405.185 285.013 405.339C284.911 405.492 284.852 405.671 284.844 405.855C284.845 406.088 284.938 406.311 285.102 406.476C285.266 406.641 285.488 406.735 285.721 406.738H289.124C289.358 406.737 289.581 406.643 289.747 406.478C289.912 406.313 290.005 406.089 290.007 405.855C290.005 405.642 289.927 405.437 289.788 405.276C289.649 405.115 289.456 405.01 289.246 404.978C289.212 404.967 289.182 404.945 289.161 404.916C289.14 404.886 289.129 404.851 289.13 404.815C289.128 404.778 289.14 404.741 289.162 404.71C289.184 404.679 289.216 404.657 289.252 404.647H289.96C290.204 404.645 290.437 404.548 290.61 404.377C290.782 404.205 290.881 403.972 290.884 403.729C290.884 403.484 290.786 403.249 290.613 403.076C290.44 402.903 290.205 402.805 289.96 402.805C289.925 402.792 289.894 402.768 289.872 402.737C289.85 402.706 289.838 402.669 289.838 402.631C289.839 402.594 289.851 402.558 289.873 402.527C289.894 402.497 289.925 402.475 289.96 402.463H290.344C290.739 402.461 291.118 402.303 291.397 402.024C291.677 401.744 291.835 401.365 291.836 400.97C291.836 400.575 291.68 400.196 291.401 399.916C291.122 399.636 290.744 399.478 290.349 399.477" fill="#3882C8"/>
<path d="M283.842 372.676C284.128 372.546 284.453 372.536 284.747 372.646C285.041 372.757 285.278 372.979 285.408 373.265C285.537 373.551 285.548 373.877 285.437 374.17C285.326 374.464 285.104 374.701 284.818 374.831C283.315 375.564 282.041 376.695 281.136 378.102C280.166 379.525 279.586 381.177 279.451 382.894C279.443 383.049 279.404 383.201 279.337 383.342C279.27 383.482 279.176 383.608 279.06 383.711C278.944 383.815 278.809 383.895 278.663 383.947C278.516 383.999 278.361 384.021 278.206 384.012C278.05 384.004 277.898 383.965 277.758 383.898C277.618 383.831 277.492 383.737 277.389 383.621C277.285 383.505 277.205 383.37 277.153 383.224C277.102 383.077 277.079 382.922 277.088 382.766C277.241 380.621 277.958 378.555 279.167 376.777C280.312 375.009 281.919 373.589 283.813 372.67" fill="#FFCF74"/>
<path fill-rule="evenodd" clip-rule="evenodd" d="M260.159 389.076H212.302C212.022 389.055 211.741 389.092 211.476 389.184C211.211 389.277 210.968 389.423 210.762 389.614C210.556 389.805 210.392 390.036 210.28 390.294C210.167 390.551 210.109 390.829 210.109 391.109C210.109 391.39 210.167 391.668 210.28 391.925C210.392 392.182 210.556 392.414 210.762 392.605C210.968 392.795 211.211 392.942 211.476 393.034C211.741 393.127 212.022 393.164 212.302 393.143H260.159C260.439 393.164 260.72 393.127 260.985 393.034C261.25 392.942 261.493 392.795 261.699 392.605C261.905 392.414 262.069 392.182 262.181 391.925C262.294 391.668 262.352 391.39 262.352 391.109C262.352 390.829 262.294 390.551 262.181 390.294C262.069 390.036 261.905 389.805 261.699 389.614C261.493 389.423 261.25 389.277 260.985 389.184C260.72 389.092 260.439 389.055 260.159 389.076Z" fill="white"/>
<path fill-rule="evenodd" clip-rule="evenodd" d="M260.159 379.795H212.302C212.022 379.774 211.741 379.811 211.476 379.903C211.211 379.996 210.968 380.142 210.762 380.333C210.556 380.524 210.392 380.755 210.28 381.012C210.167 381.27 210.109 381.547 210.109 381.828C210.109 382.109 210.167 382.387 210.28 382.644C210.392 382.901 210.556 383.132 210.762 383.323C210.968 383.514 211.211 383.661 211.476 383.753C211.741 383.846 212.022 383.883 212.302 383.861H260.159C260.439 383.883 260.72 383.846 260.985 383.753C261.25 383.661 261.493 383.514 261.699 383.323C261.905 383.132 262.069 382.901 262.181 382.644C262.294 382.387 262.352 382.109 262.352 381.828C262.352 381.547 262.294 381.27 262.181 381.012C262.069 380.755 261.905 380.524 261.699 380.333C261.493 380.142 261.25 379.996 260.985 379.903C260.72 379.811 260.439 379.774 260.159 379.795Z" fill="white"/>
<path fill-rule="evenodd" clip-rule="evenodd" d="M260.159 398.357H212.302C212.022 398.336 211.741 398.373 211.476 398.466C211.211 398.558 210.968 398.705 210.762 398.895C210.556 399.086 210.392 399.318 210.28 399.575C210.167 399.832 210.109 400.11 210.109 400.391C210.109 400.671 210.167 400.949 210.28 401.206C210.392 401.464 210.556 401.695 210.762 401.886C210.968 402.077 211.211 402.223 211.476 402.316C211.741 402.408 212.022 402.445 212.302 402.424H260.159C260.439 402.445 260.72 402.408 260.985 402.316C261.25 402.223 261.493 402.077 261.699 401.886C261.905 401.695 262.069 401.464 262.181 401.206C262.294 400.949 262.352 400.671 262.352 400.391C262.352 400.11 262.294 399.832 262.181 399.575C262.069 399.318 261.905 399.086 261.699 398.895C261.493 398.705 261.25 398.558 260.985 398.466C260.72 398.373 260.439 398.336 260.159 398.357Z" fill="white"/>
<path fill-rule="evenodd" clip-rule="evenodd" d="M260.159 408.051H212.301C212.016 408.02 211.727 408.05 211.455 408.138C211.182 408.226 210.93 408.371 210.717 408.563C210.504 408.755 210.333 408.989 210.216 409.251C210.099 409.513 210.039 409.797 210.039 410.084C210.039 410.371 210.099 410.654 210.216 410.917C210.333 411.179 210.504 411.413 210.717 411.605C210.93 411.797 211.182 411.941 211.455 412.03C211.727 412.118 212.016 412.148 212.301 412.117H260.159C260.444 412.148 260.732 412.118 261.005 412.03C261.278 411.941 261.529 411.797 261.743 411.605C261.956 411.413 262.127 411.179 262.243 410.917C262.36 410.654 262.421 410.371 262.421 410.084C262.421 409.797 262.36 409.513 262.243 409.251C262.127 408.989 261.956 408.755 261.743 408.563C261.529 408.371 261.278 408.226 261.005 408.138C260.732 408.05 260.444 408.02 260.159 408.051Z" fill="white"/>
<path fill-rule="evenodd" clip-rule="evenodd" d="M793.601 231.16C793.601 231.16 801.779 233.042 808.017 231.537C815.886 229.638 812.762 220.889 807.755 217.351C800.24 212.042 786.957 214.174 782.671 223.195C777.153 234.814 776.776 239.694 764.962 246.264C760.159 248.93 755.792 251.835 755.205 259.91C755.135 260.868 756.947 259.91 759.962 259.126C756.477 263.599 759.607 271.598 760.357 272.528C761.518 252.015 782.561 252.515 786.957 251.998C787.16 249.511 788.119 247.879 788.119 246.328C788.119 246.328 785.732 244.701 785.888 242.151C786.045 239.601 786.376 240.333 786.667 240.408C787.338 240.716 787.991 241.061 788.624 241.442C789.205 238.137 789.083 231.567 793.59 231.177" fill="#005B94"/>
<path fill-rule="evenodd" clip-rule="evenodd" d="M284.725 215.344C290.394 215.344 295.936 217.025 300.649 220.176C305.363 223.326 309.036 227.804 311.206 233.043C313.375 238.282 313.942 244.046 312.836 249.608C311.729 255.169 308.999 260.277 304.99 264.286C300.981 268.295 295.873 271.025 290.313 272.131C284.753 273.237 278.989 272.668 273.752 270.497C268.515 268.326 264.039 264.651 260.89 259.936C257.741 255.22 256.061 249.677 256.063 244.007C256.063 240.242 256.804 236.514 258.244 233.036C259.685 229.559 261.796 226.399 264.458 223.737C267.119 221.075 270.279 218.964 273.757 217.524C277.234 216.084 280.961 215.343 284.725 215.344Z" fill="#FCA700"/>
<path fill-rule="evenodd" clip-rule="evenodd" d="M297.753 247.664H298.037C298.492 247.636 298.927 247.467 299.282 247.181C299.637 246.895 299.895 246.505 300.019 246.067C300.143 245.628 300.128 245.161 299.976 244.732C299.824 244.302 299.542 243.93 299.17 243.667C299.041 243.57 298.919 243.466 298.804 243.353C298.68 243.234 298.55 243.122 298.415 243.016C297.658 242.352 296.848 241.752 295.993 241.221C295.824 241.123 295.743 241.059 295.575 240.96L294.669 240.46C293.899 240.04 293.104 239.67 292.287 239.351C290.044 238.477 287.666 237.998 285.26 237.933C283.166 237.854 281.072 238.097 279.051 238.654C275.998 239.478 273.162 240.959 270.74 242.993C270.583 243.115 270.537 243.196 270.38 243.318C269.7 243.847 268.998 244.562 268.998 245.474C269.008 245.81 269.091 246.14 269.242 246.441C269.392 246.742 269.606 247.006 269.869 247.216C270.142 247.441 270.466 247.594 270.812 247.663C271.159 247.732 271.517 247.714 271.855 247.611C272.511 247.402 273.29 246.45 274.033 245.869C274.655 245.384 275.307 244.94 275.985 244.538C276.701 244.118 277.448 243.752 278.221 243.446C282.079 241.872 286.386 241.791 290.301 243.22C292.128 243.892 293.831 244.862 295.342 246.089L296.37 246.99C296.539 247.19 296.747 247.353 296.982 247.468C297.217 247.583 297.474 247.648 297.735 247.658M276.548 253.549C278.029 253.549 278.052 252.625 280.033 251.44C281.224 250.738 282.561 250.321 283.94 250.22C285.319 250.12 286.703 250.338 287.984 250.859C288.621 251.131 289.227 251.472 289.79 251.875C289.993 252.006 290.187 252.149 290.371 252.305C291.12 253.002 291.683 253.671 292.868 253.467C293.206 253.391 293.523 253.241 293.796 253.028C294.069 252.815 294.292 252.545 294.448 252.236C294.645 251.843 294.712 251.397 294.639 250.964C294.566 250.53 294.357 250.131 294.041 249.825C293.727 249.519 293.393 249.234 293.042 248.971C292.346 248.394 291.593 247.89 290.795 247.466L289.505 246.885C287.726 246.164 285.809 245.842 283.891 245.943C281.974 246.043 280.101 246.563 278.406 247.466C277.354 247.995 276.387 248.678 275.537 249.494L275.293 249.72C274.917 250.017 274.641 250.423 274.503 250.882C274.455 251.192 274.471 251.509 274.548 251.814C274.626 252.118 274.765 252.403 274.956 252.653C275.147 252.902 275.386 253.11 275.66 253.264C275.934 253.418 276.236 253.515 276.548 253.549ZM284.511 262.448C285.558 262.436 286.57 262.07 287.383 261.41C288.196 260.75 288.762 259.835 288.99 258.813C289.218 257.791 289.094 256.722 288.638 255.779C288.183 254.836 287.422 254.075 286.479 253.618C285.653 253.225 284.726 253.092 283.822 253.239C282.919 253.385 282.081 253.803 281.421 254.437C280.574 255.223 280.05 256.296 279.951 257.447C279.951 259.114 280.224 259.974 281.368 261.13C282.219 261.95 283.347 262.421 284.528 262.448H284.511ZM265.617 241.831C266.616 241.831 266.779 241.634 267.551 240.96C268.266 240.293 269.021 239.671 269.811 239.095C272.482 237.137 275.514 235.728 278.732 234.947C281.664 234.215 284.709 234.046 287.705 234.448C290.34 234.795 292.904 235.55 295.308 236.684C297.281 237.612 299.118 238.806 300.767 240.234L302.08 241.396C303.654 242.557 305.512 241.099 305.512 239.734C305.512 238.532 305.158 238.421 304.432 237.689C302.41 235.841 300.145 234.278 297.7 233.042L296.382 232.461C296.15 232.351 295.952 232.281 295.726 232.182C295.279 231.985 294.814 231.839 294.332 231.648C292.08 230.848 289.74 230.328 287.362 230.097C287.136 230.097 286.781 230.056 286.503 230.021C286.224 229.986 285.922 230.021 285.591 230.021C285.26 230.021 284.935 229.975 284.644 229.969H284.383C284.203 229.969 283.999 229.969 283.761 230.009C283.523 230.05 283.128 230.009 282.838 230.009C281.147 230.134 279.467 230.386 277.814 230.765C276.339 231.126 274.891 231.592 273.481 232.159L270.287 233.704L267.337 235.598L264.723 237.724C264.549 237.887 264.403 238.044 264.229 238.218C263.876 238.566 263.669 239.035 263.648 239.531V239.752C263.683 240.276 263.901 240.772 264.264 241.152C264.627 241.532 265.112 241.773 265.635 241.831H265.617Z" fill="white"/>
<path d="M182.812 197.518L129.703 167.953C129.384 167.776 129.102 167.538 128.875 167.252C128.648 166.966 128.48 166.638 128.38 166.288C128.28 165.937 128.25 165.57 128.292 165.208C128.334 164.845 128.447 164.495 128.625 164.176L167.931 93.8498C168.217 93.3384 168.681 92.9485 169.234 92.7527L176.955 90.0469L224.685 124.399L191.02 193.416L182.812 197.518Z" fill="#FFE576"/>
<path d="M174.889 141.742L129.438 167.499L182.714 197.511L192.728 192.461L206.683 162.309L174.889 141.742Z" fill="#E59405"/>
<path d="M189.824 193.14L137.456 163.968C136.982 163.703 136.633 163.261 136.484 162.739C136.336 162.218 136.401 161.658 136.664 161.184L175.797 91.0967C175.928 90.862 176.104 90.6553 176.315 90.4885C176.526 90.3217 176.767 90.1981 177.026 90.1247C177.285 90.0513 177.556 90.0295 177.823 90.0607C178.09 90.0918 178.349 90.1753 178.584 90.3063L230.952 119.483C231.532 119.807 231.96 120.348 232.142 120.987C232.323 121.626 232.244 122.311 231.921 122.892L193.224 192.171C192.9 192.748 192.36 193.174 191.723 193.356C191.086 193.537 190.403 193.459 189.824 193.14Z" fill="#FCB912"/>
<path d="M132.922 167.98L184.402 196.932L188.678 194.777L136.739 165.562L132.922 167.98Z" fill="#FCECCA"/>
<path d="M158.878 145.806C158.254 138.424 159.943 132.241 161.27 127.364C162.09 124.324 163.67 119.365 172.49 102.613C174.982 97.875 177.225 93.7758 179.062 90.48L178.748 90.3063C178.512 90.1753 178.253 90.0918 177.985 90.0607C177.716 90.0295 177.445 90.0512 177.185 90.1246C176.925 90.198 176.682 90.3217 176.471 90.4884C176.259 90.6552 176.082 90.8618 175.951 91.0966L136.665 161.182C136.401 161.657 136.336 162.216 136.485 162.737C136.633 163.259 136.984 163.701 137.46 163.966L190.021 193.134C190.568 193.438 191.21 193.528 191.821 193.386C192.431 193.245 192.967 192.883 193.324 192.369C187.327 188.163 181.798 183.332 176.832 177.957C168.815 169.259 160.061 159.763 158.878 145.806Z" fill="#FFC71F"/>
<path d="M204.622 127.165L185.507 116.502C183.549 115.409 181.075 116.112 179.983 118.071L169.322 137.189C168.23 139.149 168.932 141.623 170.891 142.715L190.005 153.378C191.964 154.471 194.437 153.769 195.53 151.81L206.19 132.691C207.283 130.732 206.581 128.258 204.622 127.165Z" fill="#FCECA9"/>
<path d="M189.495 160.649L165.65 147.346C164.997 146.982 164.174 147.216 163.81 147.869L163.356 148.683C162.992 149.335 163.226 150.159 163.879 150.523L187.724 163.825C188.376 164.189 189.2 163.955 189.564 163.303L190.018 162.489C190.381 161.836 190.147 161.013 189.495 160.649Z" fill="#FCECA9"/>
<path d="M168.93 140.437C169.26 141.368 169.913 142.147 170.768 142.631L189.932 153.427C190.4 153.691 190.913 153.858 191.445 153.921C191.976 153.983 192.514 153.94 193.029 153.792C193.543 153.645 194.024 153.396 194.443 153.061C194.863 152.726 195.213 152.31 195.473 151.839L206.164 132.48C206.458 131.949 206.631 131.358 206.672 130.751C206.713 130.144 206.619 129.535 206.398 128.969C204.533 130.586 202.546 132.054 200.453 133.358C190.363 139.62 179.216 141.139 168.93 140.437Z" fill="#FFE07D"/>
<path d="M923.57 185.946L863.64 214.266C862.913 214.609 862.079 214.65 861.321 214.379C860.563 214.108 859.944 213.548 859.6 212.822L821.994 133.365C821.72 132.785 821.667 132.125 821.848 131.509L824.334 122.951L885.112 102.438L925.124 176.063L923.57 185.946Z" fill="#95BBE8"/>
<path d="M869.09 157.828L862.977 214.55L923.224 186.074L925.122 173.972L907.394 142.516L869.09 157.828Z" fill="#7DA6E2"/>
<path d="M825.469 121.46L884.496 93.5395C885.153 93.2291 885.905 93.1922 886.588 93.4368C887.272 93.6814 887.83 94.1875 888.14 94.8438L925.114 173.044C925.424 173.7 925.461 174.453 925.216 175.136C924.972 175.82 924.466 176.378 923.81 176.689L864.782 204.609C864.518 204.735 864.231 204.807 863.938 204.821C863.646 204.835 863.353 204.792 863.078 204.693C862.802 204.594 862.548 204.442 862.331 204.246C862.114 204.049 861.938 203.811 861.813 203.547L824.409 124.435C824.283 124.17 824.21 123.883 824.195 123.59C824.18 123.297 824.224 123.004 824.322 122.728C824.421 122.451 824.573 122.197 824.769 121.98C824.966 121.762 825.204 121.586 825.469 121.46Z" fill="#C0D7FF"/>
<path d="M865.305 211.644L923.734 183.756L924.546 178.531L865.604 206.663L865.305 211.644Z" fill="#DCDCF9"/>
<path d="M862.002 173.982C855.085 169.859 850.655 164.427 847.165 160.158C845.009 157.515 841.591 152.956 832.31 134.539C829.686 129.321 827.468 124.738 825.69 121.023L825.336 121.189C824.802 121.444 824.391 121.901 824.192 122.459C823.994 123.018 824.024 123.633 824.277 124.169L861.629 203.395C861.882 203.932 862.337 204.345 862.893 204.546C863.45 204.746 864.063 204.716 864.598 204.463L923.544 176.473C924.16 176.185 924.647 175.677 924.909 175.047C925.172 174.418 925.19 173.713 924.962 173.071C917.454 175.702 909.687 177.521 901.794 178.498C889.038 180.088 875.113 181.805 862.002 173.982Z" fill="#B1D0FC"/>
<path d="M876.863 120.719L851.009 132.949C849.964 133.443 849.518 134.691 850.012 135.736L851.621 139.14C852.115 140.185 853.363 140.632 854.408 140.137L880.262 127.908C881.307 127.414 881.753 126.166 881.259 125.121L879.65 121.717C879.155 120.672 877.908 120.225 876.863 120.719Z" fill="white"/>
<path d="M882.544 131.308L855.578 144.064C854.84 144.412 854.525 145.293 854.874 146.031L855.309 146.952C855.658 147.689 856.538 148.005 857.276 147.656L884.243 134.9C884.98 134.551 885.295 133.67 884.947 132.932L884.511 132.012C884.163 131.274 883.282 130.959 882.544 131.308Z" fill="white"/>
<path d="M341.628 41.6804C341.496 39.9984 341.899 38.2532 342.839 36.4449C343.779 34.6367 345.234 33.0859 347.205 31.7928C349.179 30.4979 351.542 29.7423 354.294 29.5258C356.848 29.3255 359.143 29.6214 361.178 30.4137C363.213 31.206 364.827 32.3734 366.02 33.9159C367.193 35.4026 367.896 37.2069 368.038 39.0966C368.177 40.468 367.97 41.8523 367.437 43.1224C366.951 44.2482 366.298 45.2939 365.5 46.224C364.727 47.1119 363.332 48.614 361.316 50.7303C360.844 51.2248 360.4 51.7454 359.987 52.2896C359.701 52.6606 359.461 53.0646 359.271 53.4929C359.126 53.8367 359.015 54.1944 358.941 54.5604C358.871 54.9135 358.773 55.5308 358.648 56.4124C358.459 58.2786 357.484 59.2805 355.725 59.4181C355.3 59.4622 354.87 59.4211 354.46 59.2973C354.05 59.1734 353.669 58.9693 353.339 58.6967C352.665 58.1457 352.282 57.2773 352.189 56.0917C352.071 54.6061 352.199 53.3014 352.572 52.1777C352.926 51.0888 353.468 50.0705 354.171 49.1686C355.064 48.0638 356.011 47.0051 357.01 45.9965C358.062 44.9179 358.818 44.1067 359.28 43.5628C359.741 43.0239 360.123 42.4229 360.417 41.7773C360.712 41.1346 360.835 40.4259 360.774 39.721C360.73 39.0456 360.542 38.3875 360.222 37.7915C359.902 37.1955 359.457 36.6758 358.919 36.2677C357.792 35.3795 356.4 34.9999 354.743 35.1291C352.796 35.2815 351.406 35.8846 350.573 36.9382C349.739 37.9919 349.077 39.4963 348.585 41.4514C348.142 43.4975 347.084 44.5863 345.409 44.7178C344.943 44.7637 344.472 44.7115 344.028 44.5646C343.583 44.4178 343.174 44.1795 342.826 43.8651C342.092 43.2222 341.692 42.494 341.628 41.6804ZM356.831 69.7413C355.796 69.8371 354.762 69.542 353.931 68.9137C353.074 68.2796 352.596 67.3344 352.497 66.078C352.446 65.5559 352.503 65.0288 352.665 64.5302C352.827 64.0316 353.091 63.5722 353.44 63.1811C353.786 62.7785 354.21 62.45 354.686 62.2153C355.162 61.9805 355.68 61.8444 356.21 61.8149C356.729 61.7667 357.253 61.8234 357.75 61.9817C358.247 62.14 358.707 62.3967 359.104 62.7365C359.5 63.0763 359.825 63.4924 360.058 63.9601C360.292 64.4278 360.429 64.9376 360.462 65.4594C360.561 66.6961 360.241 67.7001 359.502 68.4714C358.804 69.2182 357.85 69.672 356.831 69.7413Z" fill="#9D9DED"/>
</g>
<defs>
<linearGradient id="paint0_linear_2030_132890" x1="257.615" y1="230.244" x2="257.615" y2="461.953" gradientUnits="userSpaceOnUse">
<stop stop-color="#0048FF"/>
<stop offset="0.13" stop-color="#0242E7"/>
<stop offset="0.41" stop-color="#0537B7"/>
<stop offset="0.66" stop-color="#073095"/>
<stop offset="0.87" stop-color="#082B80"/>
<stop offset="1" stop-color="#092978"/>
</linearGradient>
<clipPath id="clip0_2030_132890">
<rect width="1000" height="482" fill="white" transform="translate(0.5)"/>
</clipPath>
</defs>
</svg>
