<svg width="672" height="217" viewBox="0 0 672 217" fill="none" xmlns="http://www.w3.org/2000/svg">
<path d="M-76 57.1491C-59.6749 36.5203 -10.0124 11.5783 58.0373 76.8402C143.099 158.418 186.404 72.3392 283.323 99.9068C380.242 127.474 306.006 195.549 381.789 226.492C442.415 251.247 566.863 263.812 621.509 267" stroke="#A8CDE2"/>
<path d="M-59.5032 45.8971C-43.1781 25.2684 6.48441 0.32632 74.5341 65.5882C159.596 147.166 202.901 61.0873 299.82 88.6548C396.739 116.222 322.503 184.297 398.286 215.24C458.912 239.995 583.36 252.56 638.006 255.748" stroke="#A8CDE2"/>
<path d="M-43.0061 34.6452C-26.6811 14.0164 22.9815 -10.9256 91.0312 54.3363C176.093 135.914 219.398 49.8353 316.317 77.4029C413.236 104.97 339 173.045 414.783 203.988C475.409 228.743 599.857 241.308 654.503 244.496" stroke="#A8CDE2"/>
<path d="M-26.5093 23.3932C-10.1842 2.76446 39.4783 -22.1776 107.528 43.0843C192.59 124.662 235.894 38.5834 332.814 66.1509C429.733 93.7184 355.497 161.793 431.28 192.736C491.906 217.491 616.354 230.056 671 233.244" stroke="#A8CDE2"/>
</svg>
