<svg width="16" height="16" viewBox="0 0 16 16" fill="none" xmlns="http://www.w3.org/2000/svg">
<path fill-rule="evenodd" clip-rule="evenodd" d="M6.75815 1.68119C6.75815 0.995397 7.3141 0.439453 7.99989 0.439453C8.68568 0.439453 9.24162 0.995397 9.24162 1.68119V7.48706C9.24162 7.57548 9.3133 7.64716 9.40173 7.64716H11.1045C11.3478 7.64725 11.5686 7.78935 11.6695 8.01071C11.7704 8.23207 11.7328 8.49196 11.5733 8.67564L8.46866 12.2465C8.3508 12.3824 8.17977 12.4604 7.99989 12.4604C7.82001 12.4604 7.64898 12.3824 7.53112 12.2465L4.42646 8.67564C4.26695 8.49196 4.22935 8.23207 4.33024 8.01071C4.43114 7.78935 4.65196 7.64725 4.89523 7.64716H6.59805C6.68647 7.64716 6.75815 7.57548 6.75815 7.48706V1.68119ZM14.0549 12.0627C14.0549 11.634 14.4024 11.2865 14.831 11.2865C15.0374 11.2857 15.2357 11.3671 15.3819 11.5127C15.5282 11.6584 15.6104 11.8563 15.6104 12.0627V13.2507C15.6104 14.6654 14.4635 15.8123 13.0488 15.8123H2.95098C1.53749 15.8105 0.392578 14.6641 0.392578 13.2507V12.0627C0.392578 11.634 0.740079 11.2865 1.16874 11.2865C1.59741 11.2865 1.94491 11.634 1.94491 12.0627V13.2507C1.94561 13.8059 2.39574 14.2557 2.95098 14.2561H13.0488C13.604 14.2557 14.0542 13.8059 14.0549 13.2507V12.0627Z" fill="#9CA3AF"/>
</svg>
