<svg width="44" height="44" viewBox="0 0 44 44" fill="none" xmlns="http://www.w3.org/2000/svg">
<rect width="44" height="44" rx="22" fill="#FAFAFA"/>
<path fill-rule="evenodd" clip-rule="evenodd" d="M27.0035 20.3314H26.5032V18.497C26.5032 16.0101 24.4872 13.9941 22.0004 13.9941C19.5135 13.9941 17.4976 16.0101 17.4976 18.497V20.3314H16.9973C16.2604 20.3314 15.6631 20.9288 15.6631 21.6656V28.67C15.6631 29.4068 16.2604 30.0041 16.9973 30.0041H27.0035C27.7403 30.0041 28.3377 29.4068 28.3377 28.67V21.6656C28.3377 20.9288 27.7403 20.3314 27.0035 20.3314ZM20.6662 24.3339C20.6633 23.6857 21.1267 23.1292 21.7647 23.0147C22.4028 22.9002 23.0308 23.2609 23.2534 23.8697C23.476 24.4785 23.2288 25.1592 22.6675 25.4833V27.0023C22.6675 27.3707 22.3688 27.6693 22.0004 27.6693C21.632 27.6693 21.3333 27.3707 21.3333 27.0023V25.4833C20.9218 25.2467 20.6675 24.8086 20.6662 24.3339ZM22.0004 15.6618C20.4346 15.6618 19.1653 16.9312 19.1653 18.497V19.9979C19.1653 20.1821 19.3146 20.3314 19.4988 20.3314H24.5019C24.6861 20.3314 24.8355 20.1821 24.8355 19.9979V18.497C24.8355 16.9312 23.5662 15.6618 22.0004 15.6618Z" fill="#106FA4"/>
<mask id="mask0_6399_44907" style="mask-type:alpha" maskUnits="userSpaceOnUse" x="15" y="13" width="14" height="18">
<path fill-rule="evenodd" clip-rule="evenodd" d="M27.0035 20.3314H26.5032V18.497C26.5032 16.0101 24.4872 13.9941 22.0004 13.9941C19.5135 13.9941 17.4976 16.0101 17.4976 18.497V20.3314H16.9973C16.2604 20.3314 15.6631 20.9288 15.6631 21.6656V28.67C15.6631 29.4068 16.2604 30.0041 16.9973 30.0041H27.0035C27.7403 30.0041 28.3377 29.4068 28.3377 28.67V21.6656C28.3377 20.9288 27.7403 20.3314 27.0035 20.3314ZM20.6662 24.3339C20.6633 23.6857 21.1267 23.1292 21.7647 23.0147C22.4028 22.9002 23.0308 23.2609 23.2534 23.8697C23.476 24.4785 23.2288 25.1592 22.6675 25.4833V27.0023C22.6675 27.3707 22.3688 27.6693 22.0004 27.6693C21.632 27.6693 21.3333 27.3707 21.3333 27.0023V25.4833C20.9218 25.2467 20.6675 24.8086 20.6662 24.3339ZM22.0004 15.6618C20.4346 15.6618 19.1653 16.9312 19.1653 18.497V19.9979C19.1653 20.1821 19.3146 20.3314 19.4988 20.3314H24.5019C24.6861 20.3314 24.8355 20.1821 24.8355 19.9979V18.497C24.8355 16.9312 23.5662 15.6618 22.0004 15.6618Z" fill="white"/>
</mask>
<g mask="url(#mask0_6399_44907)">
</g>
</svg>
