<svg width="40" height="40" viewBox="0 0 40 40" fill="none" xmlns="http://www.w3.org/2000/svg">
<path fill-rule="evenodd" clip-rule="evenodd" d="M28.3382 17.2204H27.5043V14.1629C27.5043 10.0182 24.1444 6.6582 19.9997 6.6582C15.8549 6.6582 12.495 10.0182 12.495 14.1629V17.2204H11.6611C10.433 17.2204 9.4375 18.2159 9.4375 19.444V31.1179C9.4375 32.346 10.433 33.3415 11.6611 33.3415H28.3382C29.5663 33.3415 30.5618 32.346 30.5618 31.1179V19.444C30.5618 18.2159 29.5663 17.2204 28.3382 17.2204ZM17.776 23.8912C17.7712 22.8108 18.5435 21.8833 19.6069 21.6925C20.6703 21.5017 21.7169 22.1028 22.088 23.1175C22.459 24.1321 22.0471 25.2666 21.1115 25.8068V28.3384C21.1115 28.9524 20.6137 29.4502 19.9997 29.4502C19.3856 29.4502 18.8878 28.9524 18.8878 28.3384V25.8068C18.202 25.4124 17.7783 24.6824 17.776 23.8912ZM19.9997 9.43772C17.39 9.43772 15.2745 11.5532 15.2745 14.1629V16.6645C15.2745 16.9715 15.5234 17.2204 15.8304 17.2204H24.1689C24.4759 17.2204 24.7248 16.9715 24.7248 16.6645V14.1629C24.7248 11.5532 22.6093 9.43772 19.9997 9.43772Z" fill="#106FA4"/>
<mask id="mask0_16021_9421" style="mask-type:alpha" maskUnits="userSpaceOnUse" x="9" y="6" width="22" height="28">
<path fill-rule="evenodd" clip-rule="evenodd" d="M28.3382 17.2204H27.5043V14.1629C27.5043 10.0182 24.1444 6.6582 19.9997 6.6582C15.8549 6.6582 12.495 10.0182 12.495 14.1629V17.2204H11.6611C10.433 17.2204 9.4375 18.2159 9.4375 19.444V31.1179C9.4375 32.346 10.433 33.3415 11.6611 33.3415H28.3382C29.5663 33.3415 30.5618 32.346 30.5618 31.1179V19.444C30.5618 18.2159 29.5663 17.2204 28.3382 17.2204ZM17.776 23.8912C17.7712 22.8108 18.5435 21.8833 19.6069 21.6925C20.6703 21.5017 21.7169 22.1028 22.088 23.1175C22.459 24.1321 22.0471 25.2666 21.1115 25.8068V28.3384C21.1115 28.9524 20.6137 29.4502 19.9997 29.4502C19.3856 29.4502 18.8878 28.9524 18.8878 28.3384V25.8068C18.202 25.4124 17.7783 24.6824 17.776 23.8912ZM19.9997 9.43772C17.39 9.43772 15.2745 11.5532 15.2745 14.1629V16.6645C15.2745 16.9715 15.5234 17.2204 15.8304 17.2204H24.1689C24.4759 17.2204 24.7248 16.9715 24.7248 16.6645V14.1629C24.7248 11.5532 22.6093 9.43772 19.9997 9.43772Z" fill="white"/>
</mask>
<g mask="url(#mask0_16021_9421)">
</g>
</svg>
