<svg width="21" height="27" viewBox="0 0 21 27" fill="none" xmlns="http://www.w3.org/2000/svg">
<path d="M1.49338 0.444336H14.1819L20.9074 7.62864V24.4667C20.9074 25.3515 20.2384 26.0682 19.414 26.0682H1.49338C0.669002 26.0682 0 25.3515 0 24.4667V2.04581C0 1.16102 0.669079 0.444336 1.49338 0.444336Z" fill="#E2574C"/>
<path d="M20.8861 7.65114H15.6809C14.8565 7.65114 14.1875 6.93371 14.1875 6.04966V0.460449L20.8861 7.65114Z" fill="#B53629"/>
<path d="M15.3058 12.5862C15.556 12.5862 15.6784 12.3524 15.6784 12.1258C15.6784 11.8912 15.5507 11.6646 15.3058 11.6646H13.8811C13.6026 11.6646 13.4473 11.912 13.4473 12.185V15.9397C13.4473 16.2744 13.625 16.4602 13.8654 16.4602C14.1044 16.4602 14.2829 16.2744 14.2829 15.9397V14.9092H15.1445C15.4119 14.9092 15.5455 14.6745 15.5455 14.4416C15.5455 14.2134 15.4119 13.9867 15.1445 13.9867H14.2829V12.5862H15.3058ZM10.4904 11.6646H9.44795C9.16494 11.6646 8.96407 11.8728 8.96407 12.1818V15.9429C8.96407 16.3265 9.25302 16.4466 9.45985 16.4466H10.5538C11.8485 16.4466 12.7035 15.533 12.7035 14.1228C12.7028 12.6319 11.8979 11.6646 10.4904 11.6646ZM10.5404 15.5194H9.90495V12.5918H10.4777C11.3446 12.5918 11.7217 13.2157 11.7217 14.0764C11.7217 14.882 11.3513 15.5194 10.5404 15.5194ZM6.7218 11.6646H5.68913C5.39716 11.6646 5.23438 11.8711 5.23438 12.185V15.9397C5.23438 16.2744 5.42104 16.4602 5.6719 16.4602C5.92277 16.4602 6.10943 16.2744 6.10943 15.9397V14.8435H6.7568C7.55575 14.8435 8.2151 14.2365 8.2151 13.2604C8.21518 12.3052 7.57901 11.6646 6.7218 11.6646ZM6.70465 13.9627H6.10951V12.5462H6.70465C7.07202 12.5462 7.30574 12.8537 7.30574 13.2548C7.30497 13.6553 7.07202 13.9627 6.70465 13.9627Z" fill="white"/>
</svg>
