<svg width="281" height="282" viewBox="0 0 281 282" fill="none" xmlns="http://www.w3.org/2000/svg">
<path d="M142.127 256.599C211.487 256.599 267.714 226.032 267.714 188.325C267.714 150.619 211.487 120.052 142.127 120.052C72.7679 120.052 16.541 150.619 16.541 188.325C16.541 226.032 72.7679 256.599 142.127 256.599Z" fill="#F5F5F5"/>
<path d="M205.661 180.105C220.125 180.105 231.85 173.335 231.85 164.984C231.85 156.632 220.125 149.862 205.661 149.862C191.198 149.862 179.473 156.632 179.473 164.984C179.473 173.335 191.198 180.105 205.661 180.105Z" fill="#E0E0E0"/>
<path d="M63.9933 218.45C78.4569 218.45 90.1819 211.68 90.1819 203.328C90.1819 194.977 78.4569 188.207 63.9933 188.207C49.5297 188.207 37.8047 194.977 37.8047 203.328C37.8047 211.68 49.5297 218.45 63.9933 218.45Z" fill="#E0E0E0"/>
<path d="M245.018 159.695L241.233 157.533C241.233 157.533 239.42 147.533 240.773 138.942C242.682 126.858 250.908 122.686 253.901 123.888C256.894 125.089 257.59 128.672 252.217 135.679C249.01 139.773 244.939 148.476 245.018 159.695Z" fill="#106FA4"/>
<g opacity="0.1">
<path d="M245.018 159.695L241.233 157.533C241.233 157.533 239.42 147.533 240.773 138.942C242.682 126.858 250.908 122.686 253.901 123.888C256.894 125.089 257.59 128.672 252.217 135.679C249.01 139.773 244.939 148.476 245.018 159.695Z" fill="black"/>
</g>
<path d="M243.216 154.776H243.256C243.291 154.773 243.326 154.762 243.357 154.745C243.388 154.728 243.416 154.706 243.438 154.678C243.461 154.65 243.478 154.618 243.488 154.584C243.498 154.55 243.501 154.514 243.497 154.479C242.262 143.125 247.169 130.895 252.425 126.027C252.478 125.978 252.509 125.91 252.512 125.838C252.514 125.766 252.488 125.695 252.439 125.643C252.39 125.59 252.322 125.558 252.25 125.556C252.178 125.553 252.107 125.579 252.054 125.628C246.709 130.564 241.706 143.035 242.958 154.54C242.967 154.604 242.998 154.662 243.045 154.705C243.092 154.748 243.153 154.773 243.216 154.776Z" fill="white"/>
<path d="M255.512 165.753C256.107 166.096 257.337 165.349 257.809 165.029C258.618 164.48 259.272 163.732 259.707 162.856C260.194 161.86 260.361 160.738 260.184 159.644C260.085 159.075 259.95 158.512 259.78 157.96C259.617 157.398 259.459 156.837 259.302 156.303C259.107 155.764 259.025 155.191 259.061 154.619C259.201 153.496 260.184 152.693 261.122 152.008C262.132 151.25 263.188 150.25 263.182 148.886C263.106 147.827 262.684 146.823 261.981 146.028C261.329 145.202 260.554 144.472 259.965 143.602C259.498 142.995 259.256 142.245 259.28 141.479C259.34 141.012 259.497 140.563 259.74 140.16C260.294 139.315 260.778 138.427 261.189 137.504C261.52 136.549 261.475 135.359 260.729 134.696C260.394 134.452 260.015 134.276 259.612 134.179C259.209 134.083 258.79 134.068 258.381 134.135C257.607 134.229 256.862 134.49 256.197 134.899C254.03 136.106 252.794 138.672 250.498 139.598C249.594 139.865 248.675 140.078 247.746 140.239C247.275 140.324 246.826 140.509 246.43 140.78C246.035 141.05 245.701 141.402 245.45 141.811C244.608 143.495 246.174 145.573 245.579 147.358C245.051 148.942 243.513 149.548 242.654 150.974C242.3 151.604 242.159 152.33 242.249 153.046C242.323 154.258 242.618 155.445 243.12 156.55C243.683 157.648 244.327 158.703 245.046 159.706C245.051 159.728 255.417 165.703 255.512 165.753Z" fill="#106FA4"/>
<path d="M249.37 162.485C249.406 162.484 249.441 162.476 249.474 162.462C249.507 162.447 249.536 162.426 249.561 162.4C249.585 162.374 249.605 162.343 249.617 162.309C249.63 162.276 249.635 162.24 249.634 162.204C249.19 151.496 254.233 139.676 257.905 136.24C257.931 136.216 257.951 136.187 257.966 136.154C257.98 136.122 257.988 136.087 257.989 136.051C257.991 136.016 257.985 135.981 257.972 135.948C257.959 135.914 257.94 135.884 257.916 135.858C257.892 135.832 257.862 135.812 257.83 135.797C257.798 135.783 257.763 135.775 257.727 135.774C257.692 135.773 257.657 135.778 257.623 135.791C257.59 135.804 257.56 135.823 257.534 135.847C253.789 139.351 248.646 151.367 249.112 162.238C249.117 162.303 249.146 162.365 249.194 162.41C249.241 162.456 249.304 162.482 249.37 162.485Z" fill="white"/>
<path d="M250.975 149.835H251.054C253.59 149.134 256.197 148.714 258.825 148.583C258.896 148.579 258.963 148.547 259.011 148.495C259.059 148.442 259.085 148.373 259.083 148.302C259.083 148.266 259.076 148.231 259.062 148.198C259.047 148.165 259.026 148.135 259 148.111C258.973 148.087 258.942 148.068 258.908 148.057C258.874 148.045 258.838 148.041 258.803 148.044C256.129 148.179 253.477 148.606 250.897 149.319C250.863 149.329 250.831 149.346 250.804 149.368C250.776 149.391 250.753 149.418 250.737 149.45C250.72 149.481 250.71 149.515 250.706 149.551C250.703 149.586 250.707 149.622 250.717 149.655C250.735 149.709 250.77 149.756 250.816 149.788C250.863 149.82 250.919 149.837 250.975 149.835Z" fill="white"/>
<path d="M27.3168 171.856L31.0789 169.683C31.0789 169.683 32.9038 159.682 31.5449 151.091C29.6414 139.008 21.4378 134.841 18.4225 136.037C15.4072 137.233 14.7334 140.821 20.107 147.829C23.3132 151.922 27.4178 160.643 27.3168 171.856Z" fill="#106FA4"/>
<g opacity="0.1">
<path d="M27.3168 171.856L31.0789 169.683C31.0789 169.683 32.9038 159.682 31.5449 151.091C29.6414 139.008 21.4378 134.841 18.4225 136.037C15.4072 137.233 14.7334 140.821 20.107 147.829C23.3132 151.922 27.4178 160.643 27.3168 171.856Z" fill="black"/>
</g>
<path d="M29.322 171.277C29.2485 171.273 29.1796 171.24 29.1303 171.185C29.0809 171.131 29.055 171.059 29.0581 170.985C29.9452 154.14 27.5757 144.555 21.1296 138.867C21.0778 138.814 21.0488 138.742 21.0488 138.668C21.0488 138.593 21.0778 138.522 21.1296 138.468C21.183 138.417 21.2545 138.388 21.3289 138.388C21.4033 138.388 21.4748 138.417 21.5283 138.468C28.1147 144.28 30.546 154.022 29.6476 171.036C29.6429 171.073 29.6306 171.11 29.6114 171.142C29.5923 171.175 29.5667 171.203 29.5363 171.226C29.5059 171.249 29.4712 171.265 29.4344 171.274C29.3975 171.282 29.3593 171.284 29.322 171.277Z" fill="white"/>
<path d="M28.4562 171.194C28.5348 167.577 26.4292 155.601 19.343 151.243C12.2568 146.886 8.81475 152.316 11.684 155.606C13.7897 158.015 17.709 159.756 21.3981 164.736C23.9305 168.161 25.3904 172.974 25.3904 172.974L28.4562 171.194Z" fill="#106FA4"/>
<path d="M27.1872 172.597C27.1156 172.597 27.0466 172.57 26.9944 172.521C26.9422 172.472 26.9108 172.405 26.9065 172.333C26.2271 163.203 21.0444 155.011 14.3007 152.417C14.266 152.403 14.2343 152.383 14.2074 152.358C14.1804 152.332 14.1588 152.302 14.1437 152.268C14.1285 152.234 14.1202 152.197 14.1192 152.16C14.1182 152.123 14.1246 152.086 14.1378 152.052C14.1511 152.017 14.1711 151.985 14.1966 151.958C14.2221 151.931 14.2527 151.91 14.2866 151.895C14.3205 151.88 14.357 151.871 14.3941 151.87C14.4312 151.869 14.4682 151.876 14.5028 151.889C21.4599 154.567 26.7717 162.956 27.468 172.294C27.471 172.331 27.4666 172.369 27.4549 172.404C27.4432 172.44 27.4245 172.473 27.3999 172.501C27.3753 172.529 27.3453 172.552 27.3117 172.569C27.2781 172.585 27.2415 172.595 27.2041 172.597H27.1872Z" fill="white"/>
<path d="M169.966 64.6852C170.82 65.3871 171.797 65.7521 172.92 66.8414C173.63 67.6492 174.526 68.2718 175.531 68.6551C176.828 69.1717 178.046 69.0201 181.646 68.4417C186.042 67.7398 187.935 66.9986 189.832 65.3815C192.05 63.4892 197.014 57.7787 199.412 55.5383C201.95 53.1688 205.437 54.084 205.437 54.084C204.358 57.5962 202.752 60.9244 200.675 63.9553C198.755 66.6898 195.167 69.312 193.544 70.6597C190.944 72.8214 189.563 73.6749 183.858 74.1073C179.551 74.433 178.979 74.534 175.435 74.433C174.161 74.3937 173.369 74.3824 171.28 74.2084C170.373 74.149 169.476 73.9928 168.602 73.7423C167.614 73.5149 166.667 73.1361 165.794 72.6193C164.656 71.8799 163.737 70.8482 163.133 69.6321C162.803 68.9635 162.634 68.2271 162.639 67.4815C162.648 66.7301 162.922 66.0062 163.414 65.4377C163.51 65.3216 163.633 65.2309 163.773 65.1737C164.045 65.1273 164.325 65.1877 164.554 65.3422C165.901 66.0328 167.26 66.9874 168.675 67.5321C169.865 67.9869 170.775 68.1497 170.685 67.9083C170.595 67.6668 169.877 67.4478 169.135 66.6112C168.394 65.7746 168.209 64.6122 168.686 64.2473C169.163 63.8823 169.135 63.9777 169.966 64.6852Z" fill="#FFA8A7"/>
<path d="M206.458 54.0672C205.101 53.4149 203.562 53.2465 202.096 53.5899C199.878 54.23 198.098 55.6787 195.981 57.9528C193.864 60.2269 190.287 63.8992 190.287 63.8992C190.287 63.8992 192.05 68.3519 196.003 69.9354L204.291 62.2708L206.458 54.0672Z" fill="#E0E0E0"/>
<path d="M218.637 155.812H213.611V164.414H218.637V155.812Z" fill="#FFA8A7"/>
<path d="M204.728 157.979L199.708 158.153L199.455 149.051L204.728 148.877V157.979Z" fill="#FFA8A7"/>
<path d="M220.792 91.5916C220.792 96.3868 219.944 124.294 219.944 124.294C220.057 125.675 221.387 128.129 221.494 133.104C221.64 140.313 218.866 160.112 218.866 160.112C217.996 160.542 217.042 160.775 216.071 160.794C215.101 160.814 214.138 160.619 213.251 160.224C213.251 160.224 210.971 133.384 210.067 126.248C209.281 120.015 207.951 103.091 207.951 103.091L205.587 123.429C206.162 126.049 206.367 128.737 206.193 131.414C205.957 134.715 205.025 155.16 205.025 155.16C204.15 155.655 203.177 155.951 202.174 156.028C201.172 156.104 200.165 155.959 199.225 155.603C199.225 155.603 195.682 126.455 195.625 123.429C195.558 119.976 196.934 84.7188 196.934 84.7188L220.792 91.5916Z" fill="#37474F"/>
<path d="M217.473 56.2954C218.579 56.7856 219.449 57.6911 219.893 58.8165C220.409 60.2043 220.658 61.6768 220.629 63.157V73.0002L220.775 91.5916C213.559 95.393 204.396 95.6457 196.697 90.025C196.697 90.025 197.13 66.0993 197.13 62.1856C197.13 62.0115 197.13 61.8318 197.13 61.6241C197.41 56.009 202.913 52.1964 208.36 53.5889L212.93 54.7905L217.501 56.2954H217.473Z" fill="#F0F0F0"/>
<path d="M206.158 44.7185C209.871 43.8423 212.17 40.1225 211.294 36.4102C210.418 32.6978 206.698 30.3986 202.985 31.2748C199.273 32.151 196.974 35.8708 197.85 39.5832C198.726 43.2955 202.446 45.5947 206.158 44.7185Z" fill="#106FA4"/>
<path opacity="0.5" d="M206.158 44.7185C209.871 43.8423 212.17 40.1225 211.294 36.4102C210.418 32.6978 206.698 30.3986 202.985 31.2748C199.273 32.151 196.974 35.8708 197.85 39.5832C198.726 43.2955 202.446 45.5947 206.158 44.7185Z" fill="black"/>
<path d="M216.507 42.8926C216.507 42.8926 215.384 48.1539 214.94 49.013C214.643 49.5504 214.15 49.9526 213.564 50.136L213.643 46.4357L216.507 42.8926Z" fill="#106FA4"/>
<path opacity="0.5" d="M216.507 42.8926C216.507 42.8926 215.384 48.1539 214.94 49.013C214.643 49.5504 214.15 49.9526 213.564 50.136L213.643 46.4357L216.507 42.8926Z" fill="black"/>
<path d="M215.104 35.3622C215.496 35.3164 215.893 35.3609 216.265 35.4923C216.636 35.6237 216.973 35.8385 217.249 36.1202C218.17 37.0579 217.653 40.0058 216.508 42.892L214.402 43.139L215.104 35.3622Z" fill="#106FA4"/>
<path opacity="0.5" d="M215.104 35.3622C215.496 35.3164 215.893 35.3609 216.265 35.4923C216.636 35.6237 216.973 35.8385 217.249 36.1202C218.17 37.0579 217.653 40.0058 216.508 42.892L214.402 43.139L215.104 35.3622Z" fill="black"/>
<path d="M213.767 43.1399C214.189 43.3926 214.795 42.5784 215.312 42.0169C215.828 41.4554 217.558 40.7255 218.383 42.5167C219.208 44.3079 217.636 46.7448 216.294 47.1659C213.986 47.8903 213.644 46.4079 213.644 46.4079L213.492 55.0102C210.623 58.688 202.661 58.3792 205.979 54.5329V52.0005C204.951 52.1633 203.908 52.216 202.869 52.1577C201.184 51.8938 200.1 50.5574 199.584 48.7213C198.758 45.7678 198.461 43.387 199.146 37.581C199.915 31.2192 207.316 31.1518 211.314 33.6505C215.312 36.1492 213.767 43.1399 213.767 43.1399Z" fill="#FFA8A7"/>
<path d="M213.768 43.8469C213.981 43.8469 214.79 42.5106 215.312 42.0333C216.042 41.3707 215.104 35.3626 215.104 35.3626C215.296 34.843 215.332 34.2786 215.207 33.7389C215.082 33.1991 214.803 32.7077 214.402 32.3249C213.403 31.2018 211.735 31.1064 208.883 30.6403C207.389 30.4045 205.12 29.989 203.627 29.7082C201.847 29.3769 200.37 29.0288 199.135 30.1238C198.64 30.5499 198.29 31.1192 198.133 31.753C197.976 32.3867 198.02 33.0535 198.259 33.6612C198.611 34.4182 199.24 35.0112 200.016 35.3177C200.016 35.3177 200.791 36.0083 203.498 36.3396C205.994 36.5245 208.501 36.4756 210.988 36.1936C211.774 36.0869 211.943 36.8506 212.364 38.9225C212.746 40.7474 213.055 43.8357 213.768 43.8469Z" fill="#106FA4"/>
<path opacity="0.5" d="M213.768 43.8469C213.981 43.8469 214.79 42.5106 215.312 42.0333C216.042 41.3707 215.104 35.3626 215.104 35.3626C215.296 34.843 215.332 34.2786 215.207 33.7389C215.082 33.1991 214.803 32.7077 214.402 32.3249C213.403 31.2018 211.735 31.1064 208.883 30.6403C207.389 30.4045 205.12 29.989 203.627 29.7082C201.847 29.3769 200.37 29.0288 199.135 30.1238C198.64 30.5499 198.29 31.1192 198.133 31.753C197.976 32.3867 198.02 33.0535 198.259 33.6612C198.611 34.4182 199.24 35.0112 200.016 35.3177C200.016 35.3177 200.791 36.0083 203.498 36.3396C205.994 36.5245 208.501 36.4756 210.988 36.1936C211.774 36.0869 211.943 36.8506 212.364 38.9225C212.746 40.7474 213.055 43.8357 213.768 43.8469Z" fill="black"/>
<path d="M215.098 35.8278L217.653 34.4578C217.571 34.2883 217.456 34.137 217.315 34.0126C217.174 33.8883 217.009 33.7935 216.831 33.7339C216.652 33.6742 216.464 33.6509 216.276 33.6653C216.088 33.6797 215.906 33.7315 215.738 33.8177C215.393 34.0061 215.135 34.3201 215.015 34.6945C214.896 35.0688 214.926 35.4748 215.098 35.8278Z" fill="#106FA4"/>
<path opacity="0.5" d="M215.098 35.8278L217.653 34.4578C217.571 34.2883 217.456 34.137 217.315 34.0126C217.174 33.8883 217.009 33.7935 216.831 33.7339C216.652 33.6742 216.464 33.6509 216.276 33.6653C216.088 33.6797 215.906 33.7315 215.738 33.8177C215.393 34.0061 215.135 34.3201 215.015 34.6945C214.896 35.0688 214.926 35.4748 215.098 35.8278Z" fill="black"/>
<path d="M205.963 51.9994C205.963 51.9994 209.753 51.2358 211.078 50.5283C211.866 50.1243 212.513 49.4896 212.931 48.709C212.732 49.4829 212.379 50.2086 211.892 50.8427C210.921 52.0836 205.985 52.9933 205.985 52.9933L205.963 51.9994Z" fill="#F28F8F"/>
<path d="M206.148 42.1906C206.153 42.3395 206.201 42.4838 206.287 42.6055C206.373 42.7272 206.493 42.8208 206.632 42.8748C206.77 42.9287 206.922 42.9406 207.068 42.9088C207.213 42.8771 207.346 42.8032 207.45 42.6963C207.554 42.5895 207.624 42.4544 207.651 42.308C207.679 42.1616 207.662 42.0104 207.604 41.8732C207.546 41.7359 207.449 41.6189 207.325 41.5365C207.201 41.4542 207.055 41.4102 206.906 41.4102C206.703 41.4146 206.509 41.4989 206.367 41.645C206.226 41.791 206.147 41.9871 206.148 42.1906Z" fill="#263238"/>
<path d="M206.951 39.3212L208.58 40.2196C208.694 39.9965 208.718 39.738 208.647 39.4976C208.576 39.2572 208.415 39.0534 208.198 38.9282C208.091 38.8693 207.973 38.8328 207.851 38.8208C207.73 38.8088 207.607 38.8215 207.49 38.8583C207.374 38.895 207.266 38.955 207.173 39.0345C207.081 39.1141 207.005 39.2116 206.951 39.3212Z" fill="#263238"/>
<path d="M206.305 47.4355L204.57 48.0869C204.609 48.2023 204.671 48.3087 204.752 48.3998C204.833 48.4909 204.931 48.5648 205.041 48.6172C205.151 48.6695 205.27 48.6993 205.392 48.7047C205.514 48.71 205.635 48.6909 205.749 48.6484C205.98 48.5566 206.167 48.3793 206.271 48.1534C206.374 47.9275 206.387 47.6704 206.305 47.4355Z" fill="#F28F8F"/>
<path d="M199.594 39.9566L201.077 38.8336C201.01 38.7306 200.923 38.6424 200.821 38.5745C200.719 38.5066 200.604 38.4604 200.484 38.4388C200.363 38.4172 200.239 38.4206 200.12 38.449C200.001 38.4773 199.889 38.5298 199.791 38.6033C199.588 38.7584 199.453 38.9869 199.416 39.2399C199.38 39.4928 199.444 39.7501 199.594 39.9566Z" fill="#263238"/>
<path d="M200.051 41.9714C200.056 42.1211 200.106 42.2659 200.193 42.3878C200.28 42.5096 200.401 42.6031 200.541 42.6566C200.681 42.7101 200.834 42.7213 200.98 42.6887C201.126 42.6562 201.26 42.5813 201.364 42.4735C201.468 42.3657 201.538 42.2296 201.565 42.0823C201.592 41.935 201.576 41.7829 201.517 41.645C201.459 41.5071 201.361 41.3894 201.236 41.3067C201.111 41.224 200.964 41.1798 200.815 41.1797C200.712 41.1811 200.611 41.2028 200.518 41.2435C200.424 41.2841 200.339 41.3429 200.268 41.4165C200.197 41.4901 200.141 41.5771 200.104 41.6723C200.067 41.7675 200.049 41.8692 200.051 41.9714Z" fill="#263238"/>
<path d="M203.919 41.2529L203.672 45.8236L201.285 45.0094L203.919 41.2529Z" fill="#F28F8F"/>
<path d="M213.61 161.931V161.213C213.128 161.426 212.01 165.705 210.017 167.502C208.433 168.95 206.272 170.618 205.721 172.229C205.171 173.841 208.731 174.829 210.213 174.571C211.932 174.262 214.913 173.055 215.666 171.932C216.418 170.809 216.761 169.152 217.35 168.327C217.94 167.502 219.36 166.586 219.686 165.632C219.866 165.11 219.652 163.947 219.4 162.998C219.147 162.049 218.917 161.134 218.613 161.213C218.613 161.325 218.613 161.774 218.613 161.774C217.896 162.336 217.009 162.635 216.098 162.622C215.385 162.639 213.605 162.493 213.61 161.931Z" fill="#263238"/>
<path d="M199.657 156.602C199.393 156.602 199.18 156.979 198.607 157.602C197.748 158.471 196.75 159.19 195.654 159.73C193.773 160.668 190.112 162.116 188.455 162.863C187.422 163.329 187.473 164.581 188.539 165.289C189.606 165.996 192.189 166.513 195.277 165.822C196.962 165.441 199.163 163.885 200.556 163.969C201.948 164.054 204.548 164.031 205.575 163.324C206.603 162.616 206.193 161.106 205.901 159.803C205.587 158.388 205.188 156.176 204.722 156.277V156.765C204.116 157.681 200.999 158.051 199.668 157.377L199.657 156.602Z" fill="#263238"/>
<path d="M207.955 103.091C205.358 102.283 202.97 100.914 200.959 99.082C200.959 99.082 202.307 101.609 206.321 103.962L205.76 121.722L207.955 103.091Z" fill="#263238"/>
<path d="M58.9299 70.8008H60.7211C63.3882 70.8008 65.9462 71.8603 67.8321 73.7463C69.7181 75.6323 70.7776 78.1902 70.7776 80.8574V102.195H48.8789V80.8574C48.8789 78.1902 49.9384 75.6323 51.8244 73.7463C53.7104 71.8603 56.2683 70.8008 58.9355 70.8008H58.9299Z" fill="#263238"/>
<path d="M58.2101 207.095L56.8008 205.842C55.4363 204.596 54.3975 202.473 53.7967 201.047C53.4576 200.224 53.2821 199.343 53.2801 198.453V195.646H48.3613V200.211V200.317C48.5972 201.339 50.86 204.062 52.1403 205.837C53.005 207.027 54.639 208.538 56.593 208.802C58.4628 209.082 59.4118 208.498 58.2101 207.095Z" fill="#FFA8A7"/>
<path d="M72.4339 199.605C72.5718 199.525 72.6922 199.418 72.7876 199.291C73.1695 198.763 72.8663 198.476 72.5855 198.055C72.2483 197.471 71.9664 196.856 71.7432 196.219C71.513 195.658 71.2154 194.658 71.2154 194.658C71.2154 194.658 71.2154 193.923 71.2154 193.625V190.817H66.291V195.506C66.5437 196.629 67.5432 197.657 68.1945 198.527C68.6999 199.201 70.0026 199.543 70.7887 199.712C71.1332 199.8 71.4909 199.825 71.8443 199.785C72.0506 199.763 72.2508 199.702 72.4339 199.605Z" fill="#FFA8A7"/>
<path d="M49.3388 123.874C45.5205 132.213 49.4792 161.579 49.4792 161.579C49.3612 162.933 47.7946 165.594 47.2331 171.546C46.5537 178.582 48.3 196.252 48.3 196.252C49.0516 196.688 49.898 196.933 50.7659 196.967C51.6338 197.002 52.497 196.824 53.2805 196.449C53.2805 196.449 57.9691 169.845 58.8507 162.848C59.6199 156.745 61.0967 143.325 61.0967 143.325L64.0334 162.843C63.4232 164.812 62.9817 166.829 62.7138 168.873C62.3152 172.984 66.3019 192.142 66.3019 192.142C66.3019 192.142 67.9864 192.765 71.2263 192.288C71.2263 192.288 72.6356 166.869 73.0062 161.911C73.6295 153.589 72.6806 127.591 71.1533 122.667L49.3388 123.874Z" fill="#37474F"/>
<path d="M61.1074 143.319L62.3427 135.576C62.3427 135.576 67.5872 134.487 69.9624 132.252C69.9624 132.252 67.4693 135.357 63.7858 136.373L62.3933 142.331L63.6398 160.018L61.1074 143.319Z" fill="#263238"/>
<path d="M53.2975 199.476V198.763C53.7692 198.97 54.8697 203.159 56.8294 204.939C58.3848 206.36 60.5129 207.999 61.0519 209.583C61.591 211.166 58.0928 212.138 56.6385 211.885C54.954 211.582 52.0229 210.391 51.2873 209.291C50.5518 208.19 50.2036 206.562 49.6028 205.753C49.002 204.945 47.6263 204.046 47.2894 203.126C47.1097 202.615 47.3231 201.486 47.5702 200.537C47.8172 199.588 48.0474 198.707 48.345 198.785V199.347C49.0478 199.897 49.9172 200.193 50.8101 200.183C51.5512 200.172 53.3031 200.026 53.2975 199.476Z" fill="#263238"/>
<path d="M71.2154 194.658C71.4681 194.658 71.7769 195.051 72.3384 195.663C73.183 196.516 74.1642 197.222 75.2414 197.752C77.0888 198.678 80.6824 200.099 82.3108 200.835C83.3271 201.289 83.2766 202.519 82.2265 203.215C81.1765 203.912 78.6441 204.417 75.6008 203.738C73.9163 203.367 71.7825 201.834 70.4125 201.918C69.0424 202.003 66.4819 201.98 65.4825 201.284C64.483 200.588 64.876 199.105 65.1624 197.831C65.4768 196.438 65.8643 194.265 66.3247 194.36V194.843C66.9199 195.742 69.9801 196.107 71.2828 195.444L71.2154 194.658Z" fill="#263238"/>
<path d="M64.2196 94.6872C65.4169 94.582 66.6211 94.7847 67.7179 95.2761C68.8147 95.7675 69.7676 96.5313 70.486 97.4948C72.4569 100.066 77.6452 110.6 77.6452 110.6C77.6452 110.6 89.0382 109.837 89.5828 109.18C90.1275 108.523 89.8243 107.186 89.6727 106.451C89.5211 105.715 89.274 104.087 89.1112 103.643C88.8248 102.84 90.0096 103.082 90.7058 103.806C91.4021 104.53 91.7109 106.013 92.0591 106.265C92.4072 106.518 95.0519 103.458 96.3321 102.004C97.6124 100.549 98.2188 99.5106 99.0779 100.117C99.7012 100.555 99.3025 101.425 98.3816 102.683C97.9515 103.22 97.554 103.783 97.1912 104.368C97.0845 104.598 97.4215 104.777 97.5562 104.895C97.8089 105.12 98.2469 105.485 98.2806 105.833C98.275 106.021 98.2863 106.209 98.3142 106.395C98.4322 106.816 98.9544 107.012 99.1004 107.422C99.207 107.72 99.1004 108.051 99.1453 108.36C99.1846 108.556 99.2969 108.736 99.3306 108.921C99.344 109.12 99.3143 109.319 99.2435 109.505C99.1728 109.691 99.0626 109.86 98.9207 109.999C98.0166 111.072 96.7869 111.482 95.6022 112.139C94.6195 112.7 93.6088 112.919 92.4746 113.425C91.3403 113.93 77.4936 117.512 75.4217 116.361C73.3497 115.21 65.4044 102.734 65.4044 102.734C62.3049 97.5958 64.2196 94.6872 64.2196 94.6872Z" fill="#FFA8A7"/>
<path d="M56.0702 94.9116C51.1795 95.2485 50.837 97.6124 49.6129 100.195C48.6752 102.166 48.984 104.513 49.6971 106.568L52.791 116.367C52.791 116.367 51.1907 120.23 49.3378 123.874C57.8951 128.652 68.5806 126.12 71.1523 122.656C71.2646 121.914 70.5907 116.137 70.1977 112.358C71.7025 108.579 72.1012 106.181 71.4667 103.682C70.2819 99.0443 65.7 94.5242 63.673 94.6982L56.0702 94.9116Z" fill="#106FA4"/>
<path d="M48.3443 75.3203L49.8267 77.7011C49.6753 77.8061 49.5043 77.8793 49.3239 77.9164C49.1435 77.9535 48.9574 77.9537 48.777 77.917C48.5965 77.8803 48.4253 77.8074 48.2737 77.7027C48.1222 77.5981 47.9934 77.4638 47.8951 77.308C47.7017 76.9821 47.6404 76.5944 47.724 76.2247C47.8075 75.8551 48.0295 75.5314 48.3443 75.3203Z" fill="#263238"/>
<path d="M67.1846 75.2305C68.3413 75.9099 69.7675 78.8185 69.6271 84.9221C69.5092 90.0879 67.8303 91.3681 66.9936 91.7331C66.157 92.0981 64.5286 91.8791 62.9508 91.6152V94.7203C62.9508 94.7203 65.1294 97.2527 64.9947 98.6509C64.8599 100.049 61.8446 100.408 59.8064 99.0215C58.4758 98.0703 57.3334 96.8803 56.4373 95.5121V88.016C56.4373 88.016 55.3761 89.4366 53.6298 88.2799C51.8835 87.1232 51.8218 84.2595 52.8325 83.2263C53.8432 82.1931 56.0274 82.5244 56.4317 83.945C56.4317 83.945 58.9473 84.0349 62.2995 82.1988C63.6033 81.5019 64.7249 80.5081 65.5735 79.2976C66.4222 78.087 66.9741 76.6938 67.1846 75.2305Z" fill="#FFA8A7"/>
<path d="M63.2753 83.62C63.2773 83.7478 63.2417 83.8734 63.1728 83.9811C63.104 84.0888 63.005 84.1739 62.8882 84.2257C62.7713 84.2776 62.6418 84.2939 62.5158 84.2726C62.3897 84.2514 62.2727 84.1935 62.1793 84.1063C62.0859 84.019 62.0202 83.9062 61.9905 83.7818C61.9608 83.6575 61.9683 83.5272 62.0121 83.4071C62.0559 83.287 62.1341 83.1825 62.2369 83.1065C62.3397 83.0306 62.4626 82.9865 62.5902 82.9799C62.6773 82.9769 62.764 82.9911 62.8456 83.0216C62.9271 83.0522 63.0018 83.0985 63.0654 83.158C63.129 83.2174 63.1803 83.2888 63.2163 83.3681C63.2523 83.4474 63.2724 83.533 63.2753 83.62Z" fill="#263238"/>
<path d="M64.0267 88.0166L65.5372 88.4995C65.512 88.6023 65.4661 88.6989 65.4024 88.7835C65.3386 88.868 65.2583 88.9387 65.1664 88.9912C65.0745 89.0437 64.9729 89.077 64.8677 89.089C64.7625 89.101 64.656 89.0915 64.5546 89.061C64.3466 88.9917 64.1745 88.8431 64.0757 88.6475C63.9768 88.4518 63.9592 88.2251 64.0267 88.0166Z" fill="#F28F8F"/>
<path d="M68.6274 81.6269L67.291 80.7172C67.3462 80.6283 67.4189 80.5516 67.5047 80.4918C67.5905 80.4319 67.6876 80.3902 67.7901 80.3692C67.8926 80.3482 67.9983 80.3483 68.1008 80.3695C68.2032 80.3907 68.3002 80.4326 68.3859 80.4927C68.5649 80.6139 68.6901 80.7997 68.7351 81.0112C68.7801 81.2226 68.7415 81.4433 68.6274 81.6269Z" fill="#263238"/>
<path d="M68.3 83.1537C68.3069 83.2402 68.2964 83.3272 68.2692 83.4095C68.242 83.4919 68.1987 83.568 68.1417 83.6334C68.0846 83.6988 68.0151 83.7521 67.9372 83.7903C67.8593 83.8284 67.7746 83.8506 67.688 83.8556C67.554 83.8678 67.4194 83.8396 67.3016 83.7746C67.1837 83.7096 67.0881 83.6109 67.0269 83.491C66.9657 83.3712 66.9417 83.2358 66.9582 83.1022C66.9746 82.9687 67.0307 82.8431 67.1191 82.7417C67.2075 82.6403 67.3243 82.5677 67.4544 82.5332C67.5844 82.4988 67.7218 82.504 67.8489 82.5483C67.9759 82.5927 68.0868 82.674 68.1672 82.7819C68.2476 82.8898 68.2939 83.0193 68.3 83.1537Z" fill="#263238"/>
<path d="M65.1289 82.7783L65.23 86.692L67.2907 86.0575L65.1289 82.7783Z" fill="#F28F8F"/>
<path d="M62.949 91.6154C61.2645 91.3964 57.8955 90.4138 57.334 89.0605C57.5445 89.7467 57.9623 90.3508 58.53 90.79C59.5519 91.6659 62.949 92.6486 62.949 92.6486V91.6154Z" fill="#F28F8F"/>
<path opacity="0.1" d="M58.2605 124.801C55.9303 124.239 53.5663 121.701 54.6332 119.214C54.9373 118.515 55.4593 117.934 56.1212 117.557C56.3652 117.418 56.6469 117.36 56.9261 117.39C57.2053 117.42 57.4679 117.538 57.6765 117.726C56.5535 116.99 54.6276 113.413 54.3693 112.11L53.0497 107.708C52.9269 106.701 53.0168 105.68 53.3136 104.71L49.8716 100.734L49.2371 101.172C48.6756 102.896 49.1023 104.845 49.6975 106.568L52.7914 116.367C52.7914 116.367 51.1911 120.23 49.3382 123.874C52.1227 125.369 55.1954 126.25 58.3492 126.458C61.503 126.665 64.6645 126.194 67.6208 125.076C64.5112 125.575 61.3354 125.481 58.2605 124.801Z" fill="black"/>
<path d="M98.6776 222.492L87.5485 216.069C86.3918 215.384 85.7461 213.666 85.7461 211.453L85.7012 162.642L96.9313 169.116L96.8864 218.085C96.8695 220.241 97.5658 221.779 98.6776 222.492Z" fill="#106FA4"/>
<path opacity="0.2" d="M98.6776 222.492L87.5485 216.069C86.3918 215.384 85.7461 213.666 85.7461 211.453L85.7012 162.642L96.9313 169.116L96.8864 218.085C96.8695 220.241 97.5658 221.779 98.6776 222.492Z" fill="black"/>
<path d="M98.7574 222.537L98.6788 222.492C97.5558 221.779 96.8707 220.246 96.8707 218.085L96.9157 169.116L85.6855 162.642L95.3827 156.987L95.4726 156.937L96.8483 156.139L98.398 155.061L98.4598 155.022L98.5216 154.977C98.6058 154.921 98.6732 154.859 98.7462 154.803L98.836 154.741L99.1055 154.539L99.3638 154.337C99.4349 154.269 99.5079 154.208 99.5828 154.152L99.667 154.084L99.7456 154.017C99.8916 153.905 100.032 153.781 100.167 153.663L100.38 153.467L100.459 153.382C100.723 153.141 100.987 152.877 101.228 152.613L101.318 152.529C101.419 152.42 101.514 152.314 101.604 152.209C101.652 152.158 101.695 152.104 101.733 152.046C101.779 152.003 101.82 151.956 101.857 151.906V151.866L101.891 151.816L101.952 151.748L102.25 151.372C102.329 151.26 102.413 151.142 102.486 151.024L102.548 150.951V150.917C102.654 150.766 102.75 150.614 102.845 150.462C102.941 150.311 103.008 150.199 103.087 150.064L103.115 150.013C103.176 149.89 103.244 149.777 103.306 149.654L103.401 149.48C103.48 149.328 103.553 149.177 103.62 149.019L103.744 148.733C103.793 148.639 103.834 148.542 103.867 148.441C103.908 148.362 103.942 148.279 103.968 148.194C103.996 148.115 104.036 148.026 104.064 147.947C104.137 147.75 104.198 147.548 104.266 147.34C104.316 147.178 104.372 147.004 104.417 146.83C104.417 146.83 104.417 146.785 104.417 146.757C104.474 146.571 104.513 146.38 104.552 146.195V146.133C104.552 145.987 104.62 145.836 104.648 145.678C104.687 145.465 104.732 145.218 104.76 144.988V144.87C104.76 144.819 104.76 144.769 104.76 144.713C104.763 144.692 104.763 144.671 104.76 144.651C104.757 144.599 104.757 144.546 104.76 144.494C104.788 144.219 104.81 143.932 104.833 143.685V143.562V143.253C104.833 142.848 104.844 142.439 104.867 142.023V141.922C104.867 141.804 104.867 141.697 104.867 141.574V141.271C104.867 141.136 104.867 140.99 104.867 140.861C104.87 140.825 104.87 140.79 104.867 140.754C104.869 140.719 104.869 140.683 104.867 140.647V140.496C104.867 140.288 104.839 140.086 104.822 139.901V139.867C104.822 139.687 104.782 139.519 104.766 139.356C104.664 138.597 104.508 137.846 104.299 137.11C104.17 136.661 104.03 136.251 103.906 135.863C103.579 134.984 103.349 134.07 103.221 133.14C103.221 132.955 103.176 132.764 103.16 132.579C103.143 132.393 103.16 132.146 103.12 131.916V131.815C103.115 131.761 103.115 131.706 103.12 131.652C103.109 131.534 103.109 131.416 103.12 131.298C103.12 128.71 104.693 125.683 106.641 124.56C106.834 124.446 107.042 124.359 107.259 124.302C107.398 124.264 107.541 124.241 107.685 124.235C107.823 124.217 107.963 124.217 108.101 124.235C108.168 124.244 108.233 124.259 108.297 124.279C108.493 124.338 108.682 124.419 108.859 124.521L120.286 131.029C120.352 131.066 120.415 131.107 120.476 131.152C121.139 131.658 121.51 132.618 121.51 133.864C121.51 134.033 121.51 134.207 121.476 134.476V134.549C121.399 136.17 121.139 137.777 120.701 139.339C120.606 139.738 120.51 140.136 120.42 140.558C120.381 140.698 120.353 140.844 120.325 140.984C120.224 141.411 120.134 141.855 120.061 142.332C120.033 142.483 120.01 142.646 119.988 142.804L127.849 138.351L139.079 144.825V157.706C139.079 161.322 138.804 163.736 138.242 165.084C137.849 166.016 137.249 166.6 135.862 167.397C134.773 168.07 133.525 168.44 132.246 168.47C131.841 168.47 131.459 168.543 131.072 168.593L130.617 168.672C130.471 168.7 130.331 168.728 130.179 168.768C129.91 168.829 129.618 168.919 129.348 169.009L129.124 169.093C128.7 169.257 128.286 169.445 127.883 169.655C127.831 169.675 127.782 169.702 127.737 169.733H127.697L127.63 169.767C127.478 169.834 127.304 169.919 127.125 170.02C125.46 171.055 124.047 172.448 122.986 174.096C122.425 174.931 121.931 175.81 121.51 176.724C121.108 177.589 120.767 178.48 120.488 179.391L121.105 178.734C121.69 178.077 122.312 177.454 122.97 176.87C123.518 176.396 124.11 175.974 124.738 175.612C125.637 175.096 126.355 174.68 126.889 175.011L138.018 181.643L138.147 181.738C138.178 181.767 138.206 181.799 138.231 181.834C138.252 181.847 138.267 181.867 138.276 181.89C138.309 181.926 138.337 181.965 138.36 182.008C138.36 182.008 138.36 182.008 138.36 182.036C138.395 182.09 138.425 182.146 138.45 182.204C138.737 182.811 138.928 183.889 139.012 185.697C139.012 185.893 139.012 186.101 139.012 186.326C139.012 186.887 139.012 187.527 139.012 188.229V201.105L102.345 222.273C101.749 222.639 101.077 222.862 100.38 222.925C100.16 222.945 99.938 222.945 99.7176 222.925C99.6445 222.921 99.5725 222.906 99.5042 222.88C99.2398 222.803 98.9882 222.688 98.7574 222.537Z" fill="#106FA4"/>
<path opacity="0.1" d="M126.882 175.011L137.999 181.642C137.472 181.306 136.747 181.732 135.849 182.249C135.221 182.609 134.631 183.031 134.086 183.507C133.424 184.086 132.799 184.707 132.216 185.365C130.931 186.855 129.453 188.166 127.819 189.262C127.6 189.419 127.342 189.582 127.101 189.723C123.03 192.075 119.717 189.571 119.717 184.141C119.737 182.525 119.996 180.92 120.486 179.38C120.694 179.161 120.89 178.942 121.092 178.734C121.677 178.076 122.299 177.454 122.957 176.87C123.503 176.395 124.093 175.974 124.72 175.612C125.624 175.095 126.354 174.68 126.882 175.011Z" fill="black"/>
<path opacity="0.1" d="M119.953 142.808L127.853 138.35L139.083 144.829L129.431 150.4L126.528 151.916H126.494H126.466L126.258 152.005L126.152 152.045L125.669 152.241L125.399 152.337L125.326 152.365C125.169 152.415 125.017 152.471 124.871 152.511L124.557 152.595C124.394 152.64 124.243 152.668 124.091 152.696H124.04L123.833 152.73C123.646 152.755 123.459 152.77 123.271 152.775H123.091C122.873 152.772 122.655 152.749 122.44 152.707L122.328 152.679C122.162 152.634 122.001 152.576 121.845 152.505C121.799 152.49 121.755 152.467 121.716 152.438C121.575 152.357 121.44 152.267 121.311 152.168H121.283L121.188 152.084C121.043 151.95 120.911 151.801 120.795 151.64L120.739 151.573C120.436 151.106 120.212 150.592 120.076 150.051L120.048 149.956C119.975 149.67 119.925 149.394 119.874 149.086V148.934C119.823 148.597 119.784 148.238 119.762 147.873C119.728 147.39 119.717 146.969 119.717 146.548C119.701 145.297 119.78 144.047 119.953 142.808Z" fill="black"/>
<path opacity="0.1" d="M96.9157 169.116L85.6855 162.641L95.3827 156.987L95.467 156.937H95.5007L96.8764 156.139L98.4317 155.061L98.4879 155.022L98.5496 154.977C98.6339 154.921 98.7012 154.859 98.7742 154.803L98.8585 154.741L99.1336 154.539L99.3919 154.337C99.463 154.269 99.536 154.208 99.6109 154.152L99.6951 154.084L99.7737 154.017C99.9197 153.904 100.06 153.781 100.195 153.663L100.408 153.466L100.487 153.382C100.751 153.141 101.015 152.877 101.256 152.613L101.346 152.529C101.447 152.42 101.542 152.314 101.632 152.209C101.68 152.158 101.723 152.104 101.761 152.046C101.806 152.001 101.84 151.95 101.879 151.905L101.913 151.866L101.952 151.821L102.009 151.748C102.11 151.625 102.216 151.501 102.306 151.372L102.548 151.03L102.604 150.951V150.917C102.71 150.766 102.806 150.614 102.901 150.462C102.997 150.311 103.064 150.199 103.143 150.064V150.008C103.21 149.89 103.278 149.777 103.339 149.654C103.376 149.598 103.41 149.54 103.44 149.48C103.508 149.323 103.586 149.171 103.654 149.019L103.777 148.733C103.822 148.643 103.861 148.548 103.906 148.447C103.951 148.346 103.974 148.284 104.002 148.194C104.03 148.104 104.069 148.025 104.097 147.947C104.17 147.745 104.232 147.554 104.299 147.34C104.35 147.178 104.406 147.004 104.451 146.829C104.451 146.829 104.451 146.785 104.451 146.756C104.496 146.577 104.547 146.38 104.586 146.195V146.139C104.614 145.982 104.648 145.836 104.676 145.678C104.715 145.465 104.76 145.218 104.788 144.988V144.87C104.788 144.825 104.788 144.769 104.788 144.713C104.791 144.692 104.791 144.671 104.788 144.651C104.788 144.6 104.788 144.544 104.788 144.488C104.822 144.207 104.844 143.927 104.861 143.685V143.562C104.861 143.455 104.861 143.365 104.861 143.253C104.861 142.848 104.872 142.439 104.895 142.023V141.922C104.895 141.804 104.895 141.697 104.895 141.574V141.271C104.895 141.136 104.895 140.99 104.895 140.855V140.754C104.897 140.718 104.897 140.683 104.895 140.647V140.496C104.895 140.288 104.867 140.086 104.85 139.901V139.861L104.799 139.356C104.698 138.597 104.542 137.846 104.333 137.11C104.21 136.655 104.069 136.245 103.94 135.863C103.612 134.983 103.382 134.07 103.255 133.14C103.255 132.955 103.21 132.764 103.193 132.578C103.176 132.393 103.193 132.152 103.16 131.916V131.815C103.16 131.759 103.16 131.703 103.16 131.646C103.149 131.529 103.149 131.41 103.16 131.293C103.16 128.704 104.732 125.678 106.68 124.555C106.873 124.441 107.081 124.354 107.298 124.296C107.437 124.258 107.58 124.236 107.725 124.229C107.862 124.206 108.003 124.206 108.14 124.229C108.207 124.238 108.273 124.253 108.337 124.274C108.533 124.332 108.721 124.413 108.898 124.515L120.286 131.029C120.047 130.891 119.78 130.81 119.505 130.793C119.305 130.785 119.105 130.802 118.91 130.843C118.583 130.917 118.27 131.042 117.983 131.214C117.64 131.418 117.322 131.661 117.034 131.938C116.249 132.712 115.625 133.634 115.198 134.65C115.097 134.869 115.019 135.094 114.934 135.324C114.828 135.646 114.74 135.975 114.67 136.307C114.547 136.841 114.483 137.387 114.48 137.935C114.48 138.087 114.48 138.261 114.48 138.452V138.508C114.503 139.418 114.633 140.323 114.867 141.203C114.901 141.349 114.946 141.49 114.985 141.63C115.075 141.916 115.165 142.191 115.254 142.472C115.384 142.86 115.524 143.264 115.653 143.719C115.698 143.876 115.737 144.033 115.777 144.19C115.816 144.348 115.855 144.522 115.9 144.696C116.025 145.282 116.117 145.874 116.175 146.47V146.498C116.17 146.597 116.17 146.697 116.175 146.796V147.099V147.178V147.256C116.175 147.324 116.175 147.391 116.175 147.464C116.181 147.533 116.181 147.603 116.175 147.672C116.175 147.739 116.175 147.812 116.175 147.879V148.188C116.175 148.295 116.175 148.407 116.175 148.531V148.581C116.175 148.789 116.175 148.997 116.175 149.205C116.175 149.412 116.175 149.615 116.147 149.822C116.147 149.923 116.147 150.03 116.147 150.126V150.249C116.147 150.513 116.108 150.782 116.074 151.052C116.074 151.181 116.041 151.305 116.024 151.439V151.546L115.906 152.248L115.805 152.703V152.759C115.805 152.866 115.76 152.972 115.726 153.085C115.692 153.197 115.67 153.298 115.642 153.393C115.614 153.489 115.642 153.483 115.614 153.528C115.586 153.573 115.53 153.781 115.496 153.91C115.434 154.112 115.367 154.314 115.294 154.511C115.221 154.707 115.165 154.848 115.103 155.011C115.041 155.173 114.94 155.398 114.856 155.572L114.626 156.044C114.581 156.128 114.536 156.223 114.485 156.308L114.345 156.572L114.311 156.628C114.276 156.698 114.237 156.765 114.193 156.83L114.154 156.897C114.13 156.941 114.102 156.982 114.07 157.021C113.974 157.178 113.879 157.33 113.778 157.481V157.515L113.722 157.594C113.684 157.652 113.643 157.709 113.598 157.762C113.562 157.82 113.523 157.877 113.48 157.93L113.373 158.071C113.314 158.155 113.25 158.235 113.182 158.312L113.126 158.385L113.065 158.469L112.935 158.621L112.896 158.666C112.896 158.7 112.84 158.739 112.806 158.773L112.66 158.936C112.621 158.986 112.57 159.037 112.52 159.093L112.436 159.177C112.192 159.447 111.933 159.704 111.661 159.946L111.582 160.03L111.363 160.227C111.234 160.351 111.094 160.468 110.948 160.586L110.869 160.648L110.83 160.687L110.79 160.721L110.571 160.901L110.01 161.305L109.926 161.372L109.701 161.541L109.578 161.625L108.022 162.703L106.647 163.501L106.602 163.534L106.512 163.579L96.9157 169.116Z" fill="black"/>
<mask id="mask0_6918_46978" style="mask-type:luminance" maskUnits="userSpaceOnUse" x="119" y="113" width="66" height="89">
<path d="M127.114 184.562C127.232 184.495 127.366 184.399 127.512 184.298C128.741 183.469 129.852 182.477 130.814 181.35C131.314 180.789 131.757 180.34 132.263 179.851L132.341 179.773L132.487 179.632L132.555 179.565C132.807 179.329 133.055 179.11 133.302 178.897L137.956 181.676C138.052 181.735 138.136 181.811 138.204 181.901C138.244 181.948 138.279 181.999 138.31 182.052V182.086C138.34 182.137 138.366 182.189 138.389 182.243V182.294L138.456 182.468C138.456 182.468 138.456 182.513 138.456 182.535C138.48 182.598 138.501 182.661 138.518 182.726C138.518 182.754 138.518 182.782 138.518 182.81C138.518 182.838 138.557 182.962 138.58 183.046V183.119C138.58 183.22 138.619 183.327 138.642 183.445C138.642 183.574 138.681 183.709 138.703 183.849V183.883L138.754 184.287C138.754 184.332 138.754 184.377 138.754 184.422L138.787 184.77C138.787 184.832 138.787 184.893 138.787 184.95C138.787 185.006 138.787 185.18 138.816 185.303C138.844 185.427 138.816 185.444 138.816 185.517V185.882C138.816 185.96 138.816 186.045 138.816 186.129C138.816 186.213 138.816 186.393 138.816 186.527C138.816 186.662 138.816 186.69 138.816 186.775C138.816 186.859 138.816 187.095 138.816 187.257V187.482C138.816 187.729 138.816 187.976 138.816 188.24V201.104L184.859 174.511V167.251C184.862 167.208 184.862 167.165 184.859 167.122V113.071L175.201 118.647L175.021 118.754L174.909 118.821L173.006 120C172.243 120.505 171.51 121.052 170.81 121.64L170.765 121.679L170.647 121.775C170.473 121.921 170.31 122.072 170.148 122.224L170.103 122.269L169.895 122.471C169.743 122.617 169.597 122.763 169.451 122.914L169.176 123.212C169.041 123.364 168.907 123.515 168.778 123.673C168.648 123.83 168.609 123.88 168.514 124.009C168.418 124.139 168.261 124.335 168.143 124.498L167.941 124.796L167.896 124.874L167.84 124.953C167.744 125.099 167.649 125.245 167.565 125.391C167.48 125.537 167.436 125.61 167.379 125.728L167.329 125.812C167.16 126.126 166.992 126.458 166.846 126.794L166.807 126.879C166.745 127.019 166.677 127.159 166.621 127.305C166.565 127.451 166.509 127.603 166.458 127.755L166.419 127.867C166.357 128.041 166.296 128.209 166.245 128.389C166.195 128.569 166.138 128.754 166.088 128.951C166.037 129.147 165.992 129.332 165.948 129.512C165.903 129.692 165.869 129.883 165.835 130.074C165.802 130.265 165.762 130.478 165.734 130.686V130.725C165.734 130.893 165.684 131.062 165.661 131.236C165.639 131.41 165.616 131.685 165.594 131.927V132.061C165.594 132.191 165.594 132.32 165.566 132.449C165.566 132.724 165.566 133.01 165.566 133.415V133.471C165.566 133.544 165.566 133.611 165.566 133.684C165.521 135.753 165.864 137.811 166.576 139.754C167.047 141.013 167.309 142.341 167.351 143.685V143.746C167.351 143.932 167.379 144.106 167.379 144.263C167.352 145.637 166.998 146.984 166.346 148.193C165.792 149.341 164.931 150.312 163.859 151.001C163.689 151.096 163.513 151.179 163.331 151.248L163.241 151.282C163.081 151.337 162.915 151.374 162.747 151.394H162.657C162.498 151.411 162.338 151.411 162.18 151.394H162.146C161.986 151.368 161.831 151.319 161.686 151.248L161.641 151.22L156.784 148.368C156.784 148.222 156.784 148.081 156.823 147.935C156.862 147.789 156.862 147.598 156.885 147.43C156.93 147.082 156.975 146.745 157.031 146.419C157.087 146.093 157.132 145.824 157.188 145.538C157.222 145.386 157.25 145.24 157.278 145.1C157.413 144.476 157.553 143.853 157.716 143.185C158.201 141.47 158.458 139.699 158.479 137.918C158.479 136.233 158.334 135.475 157.879 135.206L152.342 132.011L142.943 137.429L139.074 135.183V139.675L135.705 141.635L134.627 142.253L139.119 144.836V151.506V157.717C139.119 161.333 138.844 163.747 138.282 165.095C137.889 166.021 137.288 166.605 135.901 167.408C134.811 168.081 133.561 168.451 132.28 168.481C131.887 168.481 131.494 168.554 131.117 168.604L130.657 168.683C130.517 168.711 130.371 168.739 130.219 168.778C129.938 168.845 129.661 168.925 129.388 169.02H129.332L129.163 169.076C128.739 169.239 128.325 169.427 127.922 169.637L127.771 169.71H127.737H127.67C127.495 169.785 127.324 169.87 127.159 169.963C125.497 170.998 124.087 172.39 123.032 174.04C122.762 174.433 122.509 174.843 122.268 175.264L122.173 175.449C121.965 175.82 121.768 176.196 121.611 176.572L121.572 176.662C121.17 177.526 120.828 178.417 120.55 179.329C120.298 180.152 120.11 180.993 119.988 181.845L124.907 184.686C125.254 184.857 125.64 184.936 126.027 184.914C126.413 184.893 126.788 184.771 127.114 184.562Z" fill="white"/>
</mask>
<g mask="url(#mask0_6918_46978)">
<path d="M139.753 169.164L127.799 162.264L128.063 161.899L128.091 161.865L128.22 161.68C128.411 161.399 128.591 161.118 128.781 160.82L128.832 160.731C129.006 160.422 129.175 160.085 129.337 159.731C129.371 159.647 129.41 159.563 129.444 159.473V159.417C129.528 159.215 129.629 158.973 129.725 158.704C129.77 158.586 129.809 158.468 129.854 158.339V158.266C129.921 158.063 129.989 157.861 130.045 157.654C130.101 157.446 130.14 157.322 130.185 157.148C130.23 156.974 130.275 156.772 130.326 156.587C130.376 156.401 130.404 156.216 130.438 156.025C130.472 155.834 130.511 155.671 130.539 155.497V155.413C130.573 155.245 130.601 155.065 130.629 154.885C130.657 154.706 130.657 154.678 130.674 154.577V154.464C130.797 153.566 130.87 152.623 130.932 151.601V151.488L130.994 148.731V135.62L142.903 142.594V155.711L142.842 158.473V158.58C142.791 159.602 142.712 160.545 142.594 161.438V161.556C142.594 161.663 142.566 161.764 142.55 161.871C142.533 161.977 142.499 162.224 142.465 162.393V162.471C142.437 162.657 142.404 162.825 142.37 163.005C142.336 163.184 142.291 163.37 142.246 163.566C142.201 163.763 142.162 163.948 142.117 164.128C142.072 164.307 142.022 164.47 141.977 164.633C141.932 164.796 141.853 165.043 141.78 165.24V165.324C141.741 165.442 141.696 165.571 141.651 165.689C141.561 165.947 141.455 166.194 141.37 166.402L141.342 166.452L141.241 166.711C141.078 167.059 140.91 167.396 140.736 167.716L140.685 167.806C140.523 168.086 140.343 168.367 140.152 168.665C140.112 168.726 140.067 168.785 140.017 168.839V168.878L139.753 169.164Z" fill="#106FA4"/>
<path d="M131 191.968L131.034 181.142L130.865 181.316C131.359 180.754 131.814 180.3 132.308 179.817L132.393 179.738L132.539 179.598L132.64 179.541C133.584 178.632 134.632 177.837 135.762 177.172L135.885 177.11H135.913L135.997 177.06C136.267 176.908 136.559 176.773 136.8 176.644C136.873 176.605 136.952 176.577 137.025 176.543L137.104 176.504C137.283 176.436 137.474 176.352 137.665 176.29C137.766 176.245 137.862 176.223 137.951 176.189H137.996C138.159 176.15 138.316 176.105 138.462 176.077C138.608 176.049 138.687 176.032 138.794 176.021C138.932 176.01 139.071 176.01 139.209 176.021C139.314 176.015 139.419 176.015 139.524 176.021C139.647 176.031 139.769 176.052 139.889 176.083H139.939L140.169 176.139C140.287 176.18 140.399 176.233 140.506 176.296C140.627 176.355 140.741 176.424 140.849 176.504C140.979 176.596 141.101 176.7 141.214 176.813C141.278 176.88 141.338 176.951 141.393 177.026L141.433 177.082L141.466 177.121C141.525 177.195 141.579 177.272 141.629 177.352C141.701 177.459 141.765 177.572 141.82 177.689C141.876 177.795 141.927 177.891 141.972 177.997C142.017 178.104 142.084 178.267 142.14 178.413C142.196 178.559 142.213 178.626 142.247 178.739C142.281 178.851 142.342 179.053 142.387 179.221L142.455 179.502V179.547C142.494 179.732 142.539 179.923 142.573 180.109C142.573 180.159 142.573 180.215 142.573 180.271V180.339C142.696 181.131 142.786 182.023 142.848 183.073V183.118L142.91 185.623V198.919L131 191.968Z" fill="#106FA4"/>
<path d="M124.677 184.663L112.925 177.858C112.144 177.442 111.689 176.353 111.689 174.91C111.739 173.198 112.277 171.536 113.239 170.12L113.464 169.806C113.408 169.896 113.34 169.985 113.284 170.07L125.233 176.97C125.202 177.009 125.174 177.051 125.149 177.094C124.183 178.507 123.645 180.168 123.599 181.878C123.599 183.231 124.015 184.197 124.677 184.663Z" fill="#106FA4"/>
<path d="M139.753 169.164L127.799 162.264L128.063 161.899L128.091 161.865L128.22 161.68C128.411 161.399 128.591 161.118 128.781 160.82L128.832 160.731C129.006 160.422 129.175 160.085 129.337 159.731C129.371 159.647 129.41 159.563 129.444 159.473V159.417C129.528 159.215 129.629 158.973 129.725 158.704C129.77 158.586 129.809 158.468 129.854 158.339V158.266C129.921 158.063 129.989 157.861 130.045 157.654C130.101 157.446 130.14 157.322 130.185 157.148C130.23 156.974 130.275 156.772 130.326 156.587C130.376 156.401 130.404 156.216 130.438 156.025C130.472 155.834 130.511 155.671 130.539 155.497V155.413C130.573 155.245 130.601 155.065 130.629 154.885C130.657 154.706 130.657 154.678 130.674 154.577V154.464C130.797 153.566 130.87 152.623 130.932 151.601V151.488L130.994 148.731V135.62L142.903 142.594V155.711L142.842 158.473V158.58C142.791 159.602 142.712 160.545 142.594 161.438V161.556C142.594 161.663 142.566 161.764 142.55 161.871C142.533 161.977 142.499 162.224 142.465 162.393V162.471C142.437 162.657 142.404 162.825 142.37 163.005C142.336 163.184 142.291 163.37 142.246 163.566C142.201 163.763 142.162 163.948 142.117 164.128C142.072 164.307 142.022 164.47 141.977 164.633C141.932 164.796 141.853 165.043 141.78 165.24V165.324C141.741 165.442 141.696 165.571 141.651 165.689C141.561 165.947 141.455 166.194 141.37 166.402L141.342 166.452L141.241 166.711C141.078 167.059 140.91 167.396 140.736 167.716L140.685 167.806C140.523 168.086 140.343 168.367 140.152 168.665C140.112 168.726 140.067 168.785 140.017 168.839V168.878L139.753 169.164Z" fill="#263238"/>
<path d="M131 191.968L131.034 181.142L130.865 181.316C131.359 180.754 131.814 180.3 132.308 179.817L132.393 179.738L132.539 179.598L132.64 179.541C133.584 178.632 134.632 177.837 135.762 177.172L135.885 177.11H135.913L135.997 177.06C136.267 176.908 136.559 176.773 136.8 176.644C136.873 176.605 136.952 176.577 137.025 176.543L137.104 176.504C137.283 176.436 137.474 176.352 137.665 176.29C137.766 176.245 137.862 176.223 137.951 176.189H137.996C138.159 176.15 138.316 176.105 138.462 176.077C138.608 176.049 138.687 176.032 138.794 176.021C138.932 176.01 139.071 176.01 139.209 176.021C139.314 176.015 139.419 176.015 139.524 176.021C139.647 176.031 139.769 176.052 139.889 176.083H139.939L140.169 176.139C140.287 176.18 140.399 176.233 140.506 176.296C140.627 176.355 140.741 176.424 140.849 176.504C140.979 176.596 141.101 176.7 141.214 176.813C141.278 176.88 141.338 176.951 141.393 177.026L141.433 177.082L141.466 177.121C141.525 177.195 141.579 177.272 141.629 177.352C141.701 177.459 141.765 177.572 141.82 177.689C141.876 177.795 141.927 177.891 141.972 177.997C142.017 178.104 142.084 178.267 142.14 178.413C142.196 178.559 142.213 178.626 142.247 178.739C142.281 178.851 142.342 179.053 142.387 179.221L142.455 179.502V179.547C142.494 179.732 142.539 179.923 142.573 180.109C142.573 180.159 142.573 180.215 142.573 180.271V180.339C142.696 181.131 142.786 182.023 142.848 183.073V183.118L142.91 185.623V198.919L131 191.968Z" fill="#263238"/>
<path d="M124.677 184.663L112.925 177.858C112.144 177.442 111.689 176.353 111.689 174.91C111.739 173.198 112.277 171.536 113.239 170.12L113.464 169.806C113.408 169.896 113.34 169.985 113.284 170.07L125.233 176.97C125.202 177.009 125.174 177.051 125.149 177.094C124.183 178.507 123.645 180.168 123.599 181.878C123.599 183.231 124.015 184.197 124.677 184.663Z" fill="#263238"/>
<path d="M124.778 184.702L124.7 184.657C124.037 184.191 123.621 183.225 123.621 181.894C123.667 180.184 124.206 178.523 125.171 177.11C125.196 177.067 125.224 177.026 125.255 176.987L113.307 170.086C113.363 170.002 113.43 169.912 113.486 169.822C113.638 169.625 113.795 169.44 113.958 169.26C114.034 169.172 114.115 169.088 114.199 169.008C114.282 168.916 114.372 168.832 114.469 168.755C114.7 168.54 114.954 168.352 115.227 168.194C115.327 168.135 115.43 168.083 115.536 168.036L115.671 167.98H115.704C116.201 167.715 116.726 167.51 117.271 167.368L117.462 167.323C117.954 167.223 118.454 167.157 118.955 167.127C120.724 167.065 122.445 166.54 123.947 165.605L124.34 165.364C124.458 165.296 124.565 165.223 124.677 165.145C124.789 165.066 124.851 165.038 124.935 164.982H124.969L125.385 164.678L125.778 164.37L125.851 164.314L125.912 164.257L125.957 164.218L126.126 164.072C126.176 164.027 126.238 163.982 126.289 163.932C126.339 163.881 126.491 163.752 126.592 163.651L126.732 163.511L126.794 163.443L127.041 163.185C127.142 163.078 127.243 162.966 127.339 162.854L127.378 162.809L127.541 162.618C127.614 162.517 127.704 162.416 127.777 162.309L139.737 169.215L139.95 168.923V168.884C140 168.83 140.045 168.772 140.085 168.71C140.276 168.418 140.455 168.149 140.618 167.851L140.669 167.761C140.843 167.441 141.011 167.104 141.174 166.756L141.275 166.498L141.303 166.447C141.388 166.239 141.494 165.992 141.584 165.734C141.629 165.616 141.674 165.487 141.713 165.369V165.285C141.786 165.088 141.848 164.886 141.91 164.678C141.971 164.471 142 164.347 142.05 164.173C142.101 163.999 142.14 163.797 142.179 163.612C142.219 163.426 142.263 163.247 142.303 163.05C142.342 162.854 142.37 162.702 142.398 162.517V162.438C142.432 162.27 142.454 162.096 142.482 161.916C142.511 161.736 142.511 161.708 142.527 161.601V161.484C142.645 160.591 142.724 159.647 142.774 158.625V158.519L142.836 155.756V142.6L130.927 135.626L135.812 132.819L138.333 131.364L140.579 130.062L141.455 129.568C141.685 129.455 141.893 129.332 142.106 129.231C142.852 128.822 143.638 128.495 144.453 128.254L144.7 128.192C144.954 128.131 145.216 128.112 145.475 128.136C145.621 128.136 145.7 128.265 145.812 128.332L157.862 135.183C157.978 135.258 158.077 135.356 158.154 135.471C158.232 135.586 158.285 135.715 158.311 135.851C158.311 135.946 158.362 136.059 158.384 136.176C158.407 136.294 158.418 136.429 158.435 136.575V136.8C158.435 136.957 158.435 137.125 158.435 137.311C158.435 137.496 158.435 137.693 158.435 137.906C158.435 138.439 158.435 138.922 158.367 139.383C158.367 139.501 158.367 139.613 158.367 139.725C158.367 139.837 158.367 139.944 158.328 140.056C158.289 140.169 158.328 140.27 158.278 140.382C158.227 140.494 158.25 140.596 158.233 140.702C158.193 140.91 158.16 141.112 158.12 141.325C158.081 141.539 158.031 141.735 157.991 141.938C157.986 141.952 157.986 141.968 157.991 141.982C158.957 139.821 159.479 137.488 159.524 135.121C159.524 134.79 159.524 134.458 159.49 134.178C159.434 132.377 159.089 130.597 158.469 128.905C157.935 127.504 157.674 126.013 157.699 124.514C157.699 121.74 157.699 120.213 163.584 116.827L173.191 111.324L185.14 118.225V167.11C185.14 171.181 182.658 175.925 179.609 177.689L142.943 198.857V185.572L142.881 183.068V183.023C142.819 181.984 142.73 181.08 142.606 180.288V180.221C142.606 180.165 142.606 180.109 142.606 180.058C142.572 179.856 142.527 179.665 142.488 179.497V179.452L142.421 179.171C142.376 179.003 142.336 178.845 142.28 178.688C142.224 178.531 142.213 178.469 142.174 178.362C142.134 178.256 142.067 178.076 142.005 177.947C141.943 177.818 141.91 177.745 141.854 177.638C141.798 177.521 141.734 177.409 141.663 177.301C141.612 177.222 141.558 177.145 141.5 177.071L141.466 177.032L141.427 176.975C141.371 176.901 141.311 176.83 141.247 176.762C141.134 176.649 141.012 176.546 140.882 176.453C140.775 176.374 140.66 176.304 140.54 176.246C140.433 176.182 140.32 176.129 140.203 176.088L139.973 176.032H139.922C139.802 176.002 139.68 175.981 139.557 175.97C139.452 175.965 139.347 175.965 139.243 175.97C139.104 175.96 138.965 175.96 138.827 175.97C138.72 175.97 138.614 176.004 138.496 176.027C138.378 176.049 138.193 176.1 138.03 176.139H137.985C137.895 176.173 137.8 176.195 137.698 176.24C137.508 176.302 137.317 176.386 137.137 176.453L137.058 176.493C136.985 176.526 136.907 176.554 136.834 176.594C136.564 176.723 136.3 176.858 136.031 177.009L135.947 177.06H135.918L135.795 177.121C134.651 177.8 133.591 178.612 132.639 179.542L132.566 179.609L132.42 179.749L132.336 179.828C131.842 180.311 131.387 180.794 130.893 181.327C129.93 182.454 128.82 183.446 127.591 184.275C127.445 184.376 127.316 184.472 127.193 184.539C126.864 184.742 126.497 184.874 126.115 184.926C125.879 184.972 125.637 184.972 125.401 184.926C125.182 184.889 124.971 184.813 124.778 184.702Z" fill="#37474F"/>
<path d="M142.949 142.594L131.039 135.62L135.924 132.813L138.445 131.358L140.691 130.056L141.567 129.562C141.798 129.449 142.005 129.326 142.219 129.225C142.964 128.816 143.751 128.489 144.566 128.248L144.813 128.186C145.066 128.125 145.328 128.106 145.588 128.13C145.734 128.13 145.812 128.259 145.925 128.326L157.828 135.182C157.786 135.159 157.741 135.142 157.694 135.132C157.636 135.103 157.573 135.09 157.508 135.092C157.322 135.065 157.133 135.065 156.947 135.092C156.789 135.112 156.633 135.146 156.481 135.194C155.12 135.637 153.819 136.246 152.607 137.007L150.36 138.31L147.834 139.77L142.949 142.594Z" fill="black"/>
<path d="M158.356 155.919C157.233 154.796 156.671 152.904 156.671 150.618C156.666 150.29 156.679 149.962 156.711 149.636C156.711 149.636 156.711 149.636 156.711 149.596C156.711 149.035 156.767 148.513 156.828 147.912C156.828 147.743 156.868 147.581 156.89 147.412C156.93 147.064 156.98 146.722 157.036 146.401C157.092 146.081 157.137 145.806 157.193 145.52C157.227 145.368 157.255 145.222 157.283 145.082C157.418 144.459 157.558 143.835 157.721 143.167C157.828 142.746 157.923 142.342 158.013 141.938C158.973 139.791 159.491 137.472 159.535 135.121C159.535 134.79 159.535 134.464 159.496 134.183C159.442 132.379 159.099 130.595 158.479 128.899C157.948 127.499 157.687 126.011 157.71 124.514C157.71 121.746 157.71 120.218 163.595 116.821L173.202 111.324L185.151 118.225L175.504 123.795C169.62 127.164 169.62 128.72 169.62 131.488C169.59 132.988 169.851 134.479 170.389 135.879C171.004 137.574 171.347 139.355 171.405 141.157C171.405 141.438 171.444 141.763 171.439 142.089C171.439 147.519 168.132 153.853 164.049 156.2C161.837 157.486 159.765 157.379 158.356 155.919Z" fill="black"/>
<path d="M125.232 176.992L113.283 170.091C113.339 170.007 113.407 169.917 113.463 169.827C113.614 169.631 113.772 169.446 113.935 169.266C114.011 169.178 114.091 169.093 114.176 169.013C114.259 168.922 114.349 168.837 114.446 168.761C114.677 168.546 114.931 168.357 115.204 168.199C115.304 168.141 115.407 168.088 115.512 168.042L115.647 167.991H115.681C116.177 167.727 116.703 167.521 117.247 167.379L117.438 167.334C117.931 167.234 118.43 167.168 118.932 167.138C120.7 167.076 122.422 166.552 123.924 165.616L124.317 165.375C124.435 165.307 124.541 165.234 124.654 165.156C124.741 165.105 124.826 165.048 124.906 164.987H124.94L125.356 164.684L125.754 164.375L125.822 164.319L125.883 164.263L125.934 164.224L126.097 164.078C126.147 164.033 126.209 163.988 126.26 163.937C126.31 163.887 126.462 163.758 126.563 163.656L126.703 163.516C126.723 163.493 126.745 163.472 126.771 163.454L127.012 163.19C127.113 163.084 127.214 162.971 127.31 162.859L127.349 162.814L127.512 162.623C127.585 162.522 127.675 162.421 127.748 162.314L139.713 169.221L139.663 169.277C139.584 169.389 139.5 169.496 139.416 169.608C139.331 169.721 139.309 169.726 139.258 169.788L139.214 169.833C139.034 170.041 138.854 170.237 138.652 170.423L138.54 170.535C138.512 170.569 138.478 170.597 138.456 170.63L138.147 170.911L137.821 171.192L137.776 171.237L137.636 171.343C137.377 171.562 137.108 171.765 136.833 171.961C136.833 171.961 136.799 171.961 136.771 172C136.456 172.225 136.13 172.433 135.794 172.624L135.446 172.803L135.036 173.011C134.123 173.486 133.139 173.81 132.122 173.971L131.605 174.039H131.347L130.87 174.084C130.158 174.109 129.454 174.23 128.775 174.443C128.567 174.51 128.348 174.595 128.107 174.696C127.955 174.763 127.787 174.842 127.618 174.931L127.478 174.988C127.372 175.033 127.269 175.086 127.169 175.145C126.895 175.309 126.636 175.497 126.394 175.706C126.308 175.779 126.225 175.855 126.147 175.937C126.063 176.015 125.979 176.105 125.9 176.195C125.794 176.3 125.697 176.412 125.608 176.532C125.546 176.603 125.488 176.678 125.434 176.756C125.339 176.863 125.277 176.925 125.232 176.992Z" fill="black"/>
</g>
<mask id="mask1_6918_46978" style="mask-type:luminance" maskUnits="userSpaceOnUse" x="127" y="51" width="59" height="106">
<path d="M139.078 139.676V126.762L139.207 122.831V122.752C139.207 122.657 139.207 122.567 139.207 122.483V122.354C139.207 122.101 139.252 121.86 139.28 121.624C139.286 121.503 139.301 121.383 139.325 121.264V121.152C139.325 120.922 139.381 120.692 139.409 120.473C139.437 120.254 139.454 120.169 139.482 120.029C139.527 119.782 139.561 119.541 139.611 119.305V119.226C139.611 119.131 139.65 119.03 139.673 118.934C139.74 118.608 139.825 118.294 139.903 117.98C139.903 117.98 139.903 117.918 139.931 117.867C140.027 117.514 140.15 117.149 140.274 116.789L140.324 116.638C140.437 116.334 140.566 116.037 140.684 115.745C140.684 115.689 140.74 115.621 140.773 115.56V115.515C140.903 115.245 141.032 114.953 141.178 114.706L141.29 114.515C141.46 114.211 141.647 113.916 141.852 113.634C142.288 112.996 142.783 112.4 143.328 111.854L143.373 111.809C143.603 111.584 143.867 111.343 144.148 111.112L144.204 111.056C144.798 110.575 145.429 110.141 146.091 109.759C146.802 109.336 147.554 108.988 148.337 108.72C148.73 108.59 149.132 108.485 149.539 108.406C150.048 108.319 150.561 108.261 151.077 108.232C152.213 108.203 153.328 107.913 154.334 107.384H154.362C154.514 107.322 154.662 107.25 154.806 107.171C155.876 106.482 156.735 105.51 157.287 104.363C157.455 104.049 157.603 103.724 157.731 103.392C158.11 102.459 158.31 101.462 158.321 100.455C158.321 100.287 158.321 100.124 158.321 99.9665C158.324 99.9235 158.324 99.8803 158.321 99.8374C158.316 99.7279 158.303 99.619 158.281 99.5117C158.281 99.4611 158.281 99.4275 158.281 99.3825C158.281 99.3376 158.236 99.1804 158.214 99.0962C158.191 99.0119 158.186 99.0176 158.175 98.9839C158.163 98.9502 158.113 98.7986 158.073 98.7087L158.034 98.6301C157.999 98.5403 157.956 98.4538 157.905 98.3718C157.897 98.3503 157.883 98.331 157.866 98.3157C157.815 98.2314 157.759 98.1528 157.697 98.0686C157.636 97.9844 157.697 98.0686 157.669 98.0349L157.456 97.8215C157.376 97.7535 157.289 97.6933 157.198 97.6419L152.093 94.6996C151.28 95.4294 150.506 96.2016 149.774 97.013C148.742 98.2451 147.515 99.2998 146.141 100.135C145.26 100.64 144.536 101.061 144.013 100.758L139.078 97.9058C139.044 96.7828 139.044 95.5643 139.078 94.2728V83.3965L127.129 76.5012L169.697 51.8848L185.189 60.8239L185.161 118.238L175.508 123.808C169.629 127.177 169.629 128.732 169.629 131.501C169.602 133 169.861 134.49 170.393 135.892C171.015 137.585 171.36 139.367 171.415 141.17C171.415 141.445 171.449 141.776 171.454 142.107C171.373 145.213 170.511 148.249 168.95 150.934L159.168 156.578C158.87 156.391 158.595 156.171 158.349 155.921C157.259 154.798 156.664 152.911 156.664 150.626C156.664 150.317 156.664 149.991 156.709 149.632C156.709 149.632 156.709 149.632 156.709 149.598C156.709 149.036 156.76 148.514 156.827 147.913C156.827 147.751 156.866 147.577 156.889 147.414C156.928 147.06 156.979 146.723 157.035 146.403C157.091 146.083 157.136 145.808 157.192 145.521C157.226 145.37 157.254 145.224 157.282 145.083C157.411 144.46 157.557 143.837 157.725 143.169C158.206 141.453 158.461 139.683 158.483 137.902C158.483 136.217 158.337 135.459 157.877 135.19L152.346 131.995L142.941 137.43L139.078 139.676Z" fill="white"/>
</mask>
<g mask="url(#mask1_6918_46978)">
<path d="M161.743 151.237L149.766 144.319C149.71 144.291 149.656 144.259 149.604 144.224C148.935 143.719 148.627 142.669 148.627 141.416C148.614 141.214 148.614 141.012 148.627 140.81V140.737C148.712 139.117 148.973 137.511 149.407 135.947C149.598 135.144 149.8 134.263 149.969 133.359L152.563 131.86L152.664 131.803L152.726 131.77L154.77 130.675L154.826 130.647C155.468 130.327 156.132 130.053 156.813 129.827H156.892L157.156 129.743C157.261 129.709 157.367 129.682 157.476 129.664H157.538C157.661 129.63 157.79 129.597 157.92 129.574L158.256 129.529C158.386 129.529 158.52 129.529 158.649 129.529C158.779 129.529 158.852 129.529 158.947 129.529C159.081 129.532 159.215 129.547 159.346 129.574H159.396L159.587 129.608C159.742 129.65 159.894 129.702 160.042 129.765L160.177 129.821C160.578 130.035 160.923 130.341 161.182 130.714C161.205 130.746 161.226 130.78 161.244 130.815C161.366 130.992 161.472 131.18 161.558 131.377C161.558 131.416 161.597 131.461 161.614 131.495V131.534C161.698 131.742 161.771 131.966 161.844 132.202L161.889 132.382C161.964 132.657 162.02 132.936 162.058 133.218L162.086 133.348C162.195 134.146 162.246 134.951 162.238 135.756C162.215 138.201 161.875 140.632 161.227 142.989C160.798 144.555 160.538 146.162 160.452 147.784V147.851C160.452 148.11 160.424 148.295 160.424 148.463C160.424 149.715 160.789 150.676 161.451 151.181L161.743 151.237Z" fill="#106FA4"/>
<path d="M142.939 137.429L131.035 130.461V117.58C130.995 115.69 131.115 113.801 131.394 111.931C131.81 109.635 132.439 108.938 134.247 107.894C135.339 107.221 136.591 106.851 137.874 106.821C138.295 106.788 138.694 106.748 139.098 106.687L139.418 106.631L139.98 106.513C140.21 106.445 140.457 106.378 140.715 106.288C140.822 106.257 140.927 106.22 141.03 106.176C141.441 106.026 141.842 105.849 142.231 105.648L142.282 105.62C142.524 105.522 142.759 105.406 142.984 105.272C145.196 103.997 147.274 101.487 148.677 98.3989C148.773 98.1967 148.851 97.9946 148.936 97.7981L148.638 98.0956C149.02 97.7194 149.39 97.3152 149.761 96.8996C151.048 95.4176 152.524 94.1112 154.152 93.014C154.382 92.8413 154.624 92.6855 154.876 92.548C158.947 90.1897 162.266 92.6996 162.266 98.1237C162.219 100.631 161.645 103.101 160.581 105.373C159.172 108.467 157.094 110.988 154.882 112.251C154.656 112.381 154.421 112.495 154.18 112.594C154.164 112.599 154.146 112.599 154.13 112.594C153.74 112.804 153.339 112.992 152.928 113.155L152.613 113.268C152.372 113.351 152.127 113.422 151.878 113.481C151.681 113.531 151.502 113.571 151.316 113.604L150.991 113.661C150.592 113.717 150.188 113.767 149.767 113.795C148.485 113.822 147.234 114.192 146.145 114.868C144.337 115.907 143.702 116.603 143.292 118.899C143.009 120.772 142.885 122.666 142.922 124.559V133.038L142.939 137.429Z" fill="#106FA4"/>
<path d="M144.033 100.646L132.072 93.7284C131.371 93.3016 131.051 91.5273 131.051 87.0689L131 74.2666L142.949 81.1675V94.0372C142.949 98.5293 143.325 100.242 144.038 100.641L144.033 100.646Z" fill="#106FA4"/>
<path opacity="0.2" d="M161.743 151.237L149.766 144.319C149.71 144.291 149.656 144.259 149.604 144.224C148.935 143.719 148.627 142.669 148.627 141.416C148.614 141.214 148.614 141.012 148.627 140.81V140.737C148.712 139.117 148.973 137.511 149.407 135.947C149.598 135.144 149.8 134.263 149.969 133.359L152.563 131.86L152.664 131.803L152.726 131.77L154.77 130.675L154.826 130.647C155.468 130.327 156.132 130.053 156.813 129.827H156.892L157.156 129.743C157.261 129.709 157.367 129.682 157.476 129.664H157.538C157.661 129.63 157.79 129.597 157.92 129.574L158.256 129.529C158.386 129.529 158.52 129.529 158.649 129.529C158.779 129.529 158.852 129.529 158.947 129.529C159.081 129.532 159.215 129.547 159.346 129.574H159.396L159.587 129.608C159.742 129.65 159.894 129.702 160.042 129.765L160.177 129.821C160.578 130.035 160.923 130.341 161.182 130.714C161.205 130.746 161.226 130.78 161.244 130.815C161.366 130.992 161.472 131.18 161.558 131.377C161.558 131.416 161.597 131.461 161.614 131.495V131.534C161.698 131.742 161.771 131.966 161.844 132.202L161.889 132.382C161.964 132.657 162.02 132.936 162.058 133.218L162.086 133.348C162.195 134.146 162.246 134.951 162.238 135.756C162.215 138.201 161.875 140.632 161.227 142.989C160.798 144.555 160.538 146.162 160.452 147.784V147.851C160.452 148.11 160.424 148.295 160.424 148.463C160.424 149.715 160.789 150.676 161.451 151.181L161.743 151.237Z" fill="black"/>
<path opacity="0.2" d="M142.939 137.429L131.035 130.461V117.58C130.995 115.69 131.115 113.801 131.394 111.931C131.81 109.635 132.439 108.938 134.247 107.894C135.339 107.221 136.591 106.851 137.874 106.821C138.295 106.788 138.694 106.748 139.098 106.687L139.418 106.631L139.98 106.513C140.21 106.445 140.457 106.378 140.715 106.288C140.822 106.257 140.927 106.22 141.03 106.176C141.441 106.026 141.842 105.849 142.231 105.648L142.282 105.62C142.524 105.522 142.759 105.406 142.984 105.272C145.196 103.997 147.274 101.487 148.677 98.3989C148.773 98.1967 148.851 97.9946 148.936 97.7981L148.638 98.0956C149.02 97.7194 149.39 97.3152 149.761 96.8996C151.048 95.4176 152.524 94.1112 154.152 93.014C154.382 92.8413 154.624 92.6855 154.876 92.548C158.947 90.1897 162.266 92.6996 162.266 98.1237C162.219 100.631 161.645 103.101 160.581 105.373C159.172 108.467 157.094 110.988 154.882 112.251C154.656 112.381 154.421 112.495 154.18 112.594C154.164 112.599 154.146 112.599 154.13 112.594C153.74 112.804 153.339 112.992 152.928 113.155L152.613 113.268C152.372 113.351 152.127 113.422 151.878 113.481C151.681 113.531 151.502 113.571 151.316 113.604L150.991 113.661C150.592 113.717 150.188 113.767 149.767 113.795C148.485 113.822 147.234 114.192 146.145 114.868C144.337 115.907 143.702 116.603 143.292 118.899C143.009 120.772 142.885 122.666 142.922 124.559V133.038L142.939 137.429Z" fill="black"/>
<path opacity="0.2" d="M144.033 100.646L132.072 93.7284C131.371 93.3016 131.051 91.5273 131.051 87.0689L131 74.2666L142.949 81.1675V94.0372C142.949 98.5293 143.325 100.242 144.038 100.641L144.033 100.646Z" fill="black"/>
<path d="M161.834 151.293L161.744 151.243L161.553 151.119C160.891 150.614 160.526 149.654 160.526 148.402C160.526 148.233 160.526 148.048 160.554 147.79V147.722C160.64 146.101 160.9 144.493 161.329 142.927C161.977 140.57 162.316 138.139 162.339 135.695C162.347 134.889 162.297 134.084 162.188 133.286L162.16 133.157C162.122 132.874 162.066 132.595 161.991 132.32L161.946 132.14C161.873 131.905 161.8 131.68 161.716 131.472V131.433C161.716 131.399 161.682 131.354 161.66 131.315C161.573 131.118 161.468 130.93 161.345 130.753C161.327 130.718 161.307 130.685 161.284 130.652C161.024 130.279 160.68 129.973 160.279 129.76L160.144 129.703C159.996 129.64 159.844 129.588 159.689 129.546L159.498 129.513H159.448C159.316 129.485 159.183 129.47 159.049 129.468C158.953 129.468 158.852 129.468 158.751 129.468C158.65 129.468 158.487 129.468 158.358 129.468L158.021 129.513C157.892 129.513 157.763 129.569 157.64 129.602H157.578C157.469 129.621 157.362 129.647 157.258 129.681L156.994 129.765H156.915C156.234 129.991 155.57 130.265 154.927 130.585L154.871 130.613L152.827 131.708L152.766 131.742L152.665 131.798L150.07 133.297L142.939 137.43V133.033V124.554C142.901 122.663 143.023 120.771 143.304 118.9C143.714 116.604 144.349 115.907 146.157 114.868C147.246 114.193 148.497 113.823 149.778 113.796C150.2 113.796 150.604 113.717 151.003 113.661L151.328 113.605C151.514 113.571 151.693 113.532 151.89 113.482C152.138 113.423 152.384 113.352 152.625 113.268L152.94 113.156C153.351 112.992 153.752 112.805 154.141 112.594C154.158 112.6 154.175 112.6 154.192 112.594C154.433 112.496 154.668 112.382 154.894 112.252C157.106 110.966 159.184 108.467 160.593 105.373C161.657 103.102 162.231 100.632 162.278 98.1244C162.278 92.7002 158.959 90.1903 154.888 92.5486C154.636 92.6862 154.394 92.8419 154.164 93.0147C152.536 94.1118 151.06 95.4182 149.773 96.9003C149.385 97.3158 149.015 97.7201 148.65 98.0963C148.057 98.6908 147.406 99.2249 146.707 99.691L146.454 99.8482L146.162 100.022C145.825 100.213 145.522 100.393 145.236 100.522L144.961 100.634C144.878 100.67 144.791 100.695 144.702 100.707C144.625 100.734 144.543 100.747 144.461 100.747C144.312 100.751 144.164 100.715 144.034 100.64C143.321 100.241 142.945 98.5399 142.945 94.0366V81.1669L130.996 74.266L167.707 53.0298C167.842 52.9569 167.966 52.8839 168.1 52.8221C168.22 52.7602 168.344 52.7077 168.471 52.6649L168.842 52.547C168.957 52.5083 169.075 52.4801 169.195 52.4627C169.346 52.4351 169.498 52.4182 169.65 52.4122C170.266 52.3846 170.876 52.5473 171.396 52.8782L183.188 59.6781C183.553 59.8783 183.872 60.1517 184.126 60.481C184.213 60.594 184.294 60.7121 184.367 60.8348C184.42 60.9163 184.469 61.0007 184.513 61.0875C184.603 61.2671 184.687 61.4524 184.766 61.649C184.794 61.75 184.833 61.8511 184.861 61.9578C185.073 62.6873 185.173 63.4444 185.159 64.2038V113.088L175.507 118.659L175.333 118.771L175.215 118.838H175.187L173.272 120.023C172.509 120.524 171.775 121.07 171.076 121.657L171.026 121.696L170.914 121.792L170.414 122.241L170.374 122.286C170.301 122.348 170.228 122.421 170.161 122.488C170.094 122.555 169.864 122.78 169.723 122.932C169.583 123.083 169.532 123.128 169.448 123.229C169.364 123.33 169.173 123.532 169.044 123.69L168.78 124.021L168.409 124.515L168.207 124.813L168.162 124.891L168.112 124.97C168.016 125.11 167.915 125.256 167.825 125.408C167.735 125.56 167.702 125.627 167.646 125.739L167.601 125.829C167.427 126.143 167.258 126.475 167.107 126.812L167.073 126.896C167.005 127.036 166.944 127.182 166.888 127.323C166.837 127.469 166.781 127.615 166.73 127.766L166.685 127.879L166.517 128.395C166.461 128.58 166.41 128.766 166.36 128.957C166.309 129.148 166.264 129.338 166.219 129.518C166.174 129.698 166.141 129.894 166.107 130.08C166.073 130.265 166.034 130.49 166.006 130.697V130.731C166.006 130.905 165.95 131.079 165.933 131.253C165.916 131.427 165.888 131.691 165.866 131.938V132.073C165.866 132.202 165.866 132.331 165.838 132.46C165.838 132.736 165.838 133.022 165.838 133.426V133.499C165.838 133.567 165.838 133.64 165.838 133.707C165.796 135.775 166.139 137.833 166.848 139.777C167.319 141.036 167.58 142.364 167.623 143.707V143.769C167.623 143.949 167.651 144.134 167.657 144.286C167.657 146.874 166.073 149.901 164.131 151.024C163.776 151.241 163.38 151.38 162.968 151.434C162.884 151.442 162.8 151.442 162.716 151.434H162.676C162.624 151.442 162.571 151.442 162.519 151.434C162.473 151.442 162.425 151.442 162.379 151.434L162.266 151.406L162.132 151.366C162.096 151.36 162.061 151.346 162.031 151.327C161.963 151.336 161.895 151.324 161.834 151.293Z" fill="#106FA4"/>
<path opacity="0.3" d="M142.939 81.1669L130.99 74.266L167.701 53.0298C167.836 52.9569 167.96 52.8839 168.095 52.8221C168.214 52.7602 168.338 52.7077 168.465 52.6649L168.836 52.547C168.951 52.5083 169.069 52.4801 169.189 52.4627C169.34 52.4351 169.492 52.4182 169.644 52.4122C170.26 52.3846 170.87 52.5473 171.391 52.8782L183.047 59.6163C182.946 59.5631 182.838 59.5216 182.727 59.4928C182.702 59.4859 182.678 59.4765 182.654 59.4647C182.552 59.4298 182.447 59.4053 182.34 59.3917H182.233C182.164 59.3828 182.094 59.3828 182.025 59.3917H181.823C181.807 59.3889 181.79 59.3889 181.773 59.3917C181.676 59.3833 181.578 59.3833 181.481 59.3917L181.256 59.4254C181.104 59.4442 180.953 59.478 180.807 59.5265L180.582 59.5938L180.144 59.7679C179.976 59.8465 179.808 59.9364 179.628 60.0374L142.939 81.1669Z" fill="white"/>
</g>
<mask id="mask2_6918_46978" style="mask-type:luminance" maskUnits="userSpaceOnUse" x="84" y="76" width="75" height="89">
<path d="M96.8702 164.039L84.9102 157.144L84.9551 108.169C84.9985 106.221 85.4641 104.305 86.3195 102.554C87.3359 100.409 88.8295 98.5618 90.4971 97.596L127.119 76.5059L139.067 83.4011V94.1652V97.7982L143.997 100.645C144.531 100.954 145.244 100.538 146.131 100.027C147.505 99.1921 148.732 98.1375 149.764 96.9054C150.496 96.094 151.27 95.3218 152.083 94.592L157.187 97.5342C157.227 97.5545 157.265 97.579 157.299 97.6072C157.306 97.6043 157.312 97.6027 157.319 97.6027C157.326 97.6027 157.333 97.6043 157.339 97.6072C157.384 97.6332 157.426 97.6653 157.462 97.7027C157.644 97.862 157.796 98.0521 157.912 98.2642C157.954 98.3208 157.988 98.3832 158.013 98.4495C158.04 98.4974 158.063 98.5483 158.08 98.6011C158.176 98.8229 158.248 99.0545 158.293 99.2918C158.297 99.3291 158.297 99.3667 158.293 99.4041C158.293 99.5444 158.338 99.7017 158.355 99.8589C158.372 100.016 158.355 100.179 158.355 100.347C158.364 100.505 158.364 100.662 158.355 100.819C158.355 100.988 158.327 101.15 158.305 101.308C158.282 101.465 158.254 101.633 158.226 101.796C158.198 101.959 158.175 102.043 158.142 102.167C158.122 102.256 158.098 102.344 158.069 102.431C157.895 103.064 157.65 103.677 157.339 104.255C156.787 105.402 155.928 106.374 154.857 107.063C154.713 107.143 154.565 107.214 154.413 107.276H154.385C153.379 107.805 152.265 108.095 151.129 108.124C150.769 108.124 150.404 108.18 150.006 108.237L149.596 108.298C148.614 108.493 147.667 108.836 146.788 109.315C146.681 109.365 146.58 109.416 146.485 109.472L146.165 109.652C145.503 110.033 144.872 110.467 144.278 110.949L144.222 111.005C143.941 111.235 143.66 111.476 143.447 111.701L143.402 111.746C142.856 112.293 142.362 112.889 141.925 113.526C141.721 113.809 141.534 114.103 141.364 114.407L141.252 114.598C141.106 114.868 140.976 115.16 140.847 115.407V115.452C140.814 115.514 140.786 115.581 140.758 115.637C140.64 115.929 140.51 116.227 140.398 116.53L140.348 116.682C140.224 117.041 140.101 117.406 140.005 117.76C140.005 117.81 139.977 117.855 139.977 117.872C139.898 118.186 139.814 118.501 139.747 118.827C139.747 118.922 139.707 119.023 139.685 119.119V119.197C139.635 119.433 139.601 119.674 139.556 119.921C139.556 120.062 139.505 120.213 139.483 120.365C139.46 120.517 139.421 120.814 139.399 121.044V121.157C139.375 121.275 139.36 121.395 139.354 121.516C139.354 121.752 139.303 121.993 139.281 122.246V122.375C139.281 122.459 139.281 122.549 139.281 122.645V122.723L139.152 126.654V139.569L135.783 141.523L134.71 142.146L132.593 143.353L129.511 145.139C127.366 146.38 125.883 147.009 124.962 147.082C124.821 147.099 124.677 147.099 124.536 147.082C124.44 147.061 124.347 147.027 124.26 146.98L119.864 144.409C119.861 144.39 119.861 144.371 119.864 144.353C119.914 143.791 119.982 143.23 120.06 142.724C120.111 142.399 120.167 142.084 120.229 141.792C120.392 140.871 120.599 140.046 120.79 139.26C121.226 137.697 121.484 136.09 121.56 134.47V134.436V134.391C121.56 134.128 121.56 133.954 121.588 133.791C121.588 132.539 121.217 131.573 120.555 131.073C120.522 131.049 120.488 131.026 120.453 131.006L120.364 130.955L115.45 128.119C114.089 129.628 112.991 131.355 112.205 133.229C112.098 133.487 111.992 133.746 111.896 133.993C111.801 134.24 111.7 134.515 111.615 134.779L111.576 134.891C111.486 135.155 111.408 135.419 111.329 135.683C111.25 135.947 111.183 136.216 111.121 136.48C111.059 136.744 111.037 136.845 110.998 137.042C110.958 137.238 110.925 137.407 110.902 137.603C110.834 137.975 110.785 138.35 110.756 138.726C110.728 138.928 110.711 139.136 110.7 139.338C110.689 139.54 110.672 139.861 110.672 140.113C110.672 140.366 110.672 140.45 110.672 140.613C110.672 140.776 110.672 140.922 110.706 141.062C110.706 141.304 110.706 141.528 110.745 141.747C110.775 142.255 110.833 142.762 110.919 143.263C110.919 143.465 110.981 143.662 111.02 143.825C111.198 144.666 111.431 145.495 111.716 146.307C112.059 147.211 112.291 148.154 112.407 149.114V149.221V149.305V149.423C112.441 149.838 112.458 150.248 112.458 150.675C112.458 153.443 112.458 154.971 106.573 158.368L96.8702 164.039Z" fill="white"/>
</mask>
<g mask="url(#mask2_6918_46978)">
<path d="M124.154 147.071L112.244 140.086C111.778 139.81 111.632 139.041 111.632 137.379C111.634 136.009 111.798 134.645 112.121 133.314C111.762 134.141 111.458 134.99 111.211 135.857C112.334 131.73 114.956 127.805 117.949 126.065C119.92 124.942 121.773 124.88 123.171 125.936C124.569 126.991 125.338 129.007 125.338 131.646C125.338 131.899 125.338 132.146 125.31 132.37V132.494C125.31 132.556 125.31 132.618 125.31 132.679C125.31 133.241 125.243 133.802 125.181 134.392C125.176 134.486 125.164 134.58 125.148 134.673V134.757C125.097 135.156 125.046 135.543 124.985 135.93C124.94 136.161 124.895 136.391 124.856 136.615C124.816 136.84 124.766 137.07 124.721 137.295C124.597 137.856 124.457 138.468 124.311 139.08C123.824 140.797 123.565 142.569 123.542 144.353C123.536 146.026 123.654 146.796 124.154 147.071Z" fill="#106FA4"/>
<path d="M96.8702 164.039L84.9102 157.144L84.9551 108.175C84.9944 106.226 85.4601 104.309 86.3195 102.56L98.2571 109.449C97.379 111.224 96.9016 113.169 96.859 115.149L96.8702 164.039Z" fill="#106FA4"/>
<path d="M124.154 147.071L112.245 140.086C111.779 139.81 111.633 139.041 111.633 137.379C111.635 136.009 111.799 134.645 112.121 133.314C113.469 130.186 115.586 127.44 117.972 126.065C119.943 124.942 121.796 124.88 123.194 125.936C124.592 126.991 125.339 129.007 125.339 131.646C125.339 131.899 125.339 132.146 125.311 132.37V132.494C125.311 132.556 125.311 132.618 125.311 132.679C125.311 133.241 125.244 133.802 125.182 134.392C125.176 134.486 125.165 134.58 125.148 134.673V134.757C125.098 135.156 125.047 135.543 124.985 135.93C124.94 136.161 124.896 136.391 124.856 136.615C124.817 136.84 124.766 137.07 124.722 137.295C124.598 137.856 124.458 138.468 124.312 139.08C123.825 140.797 123.566 142.569 123.542 144.353C123.537 146.026 123.655 146.796 124.154 147.071Z" fill="#263238"/>
<path d="M96.8702 164.039L84.9102 157.144L84.9551 108.175C84.9944 106.226 85.4601 104.309 86.3195 102.56L98.2571 109.449C97.379 111.224 96.9016 113.169 96.859 115.149L96.8702 164.039Z" fill="#263238"/>
<path d="M96.8695 164.039V115.143C96.9122 113.164 97.3895 111.218 98.2677 109.444L86.3301 102.554C86.3638 102.481 86.3918 102.414 86.4255 102.347C86.4749 102.235 86.5312 102.126 86.594 102.021C86.6726 101.869 86.7512 101.723 86.8354 101.577C86.9197 101.431 87.0376 101.224 87.1499 101.061L87.2116 100.943C87.2267 100.919 87.2436 100.897 87.2622 100.875C87.3576 100.718 87.4699 100.555 87.5822 100.398L87.6833 100.258C87.7406 100.169 87.8044 100.084 87.8742 100.005C87.9349 99.919 88.0005 99.8365 88.0707 99.7581L88.1269 99.6851C88.228 99.5559 88.3347 99.4268 88.447 99.3089L88.5817 99.1685C88.6106 99.1321 88.6425 99.0983 88.6772 99.0674L88.7389 98.9944L88.8569 98.8877L89.0646 98.6856C89.0826 98.6658 89.1034 98.6487 89.1264 98.635C89.1881 98.5789 89.2443 98.5171 89.3004 98.4722L89.3622 98.4217H89.3903L89.5419 98.3094C89.598 98.2588 89.6598 98.2195 89.716 98.1746C89.7721 98.1297 89.8283 98.0848 89.8844 98.0399C89.951 97.9892 90.0204 97.9424 90.0922 97.8995C90.2143 97.8049 90.3439 97.7204 90.4796 97.6468L127.107 76.5566L139.055 83.4576V94.216L139.23 94.0363C140.193 92.9076 141.305 91.9158 142.537 91.0884H142.582C142.697 91.0015 142.817 90.9209 142.941 90.847C143.276 90.6152 143.67 90.4842 144.077 90.4693C144.484 90.4543 144.887 90.5562 145.238 90.7627L157.147 97.6412C157.212 97.6732 157.272 97.7127 157.327 97.7591L157.428 97.8377C157.842 98.2243 158.125 98.7309 158.236 99.2864C158.27 99.4268 158.298 99.5784 158.321 99.73C158.353 99.9794 158.368 100.231 158.366 100.482C158.335 101.846 157.983 103.183 157.338 104.385C156.783 105.532 155.922 106.503 154.851 107.192C154.707 107.275 154.559 107.35 154.407 107.417H154.379C153.373 107.946 152.259 108.236 151.122 108.265C149.353 108.33 147.631 108.858 146.13 109.798C145.468 110.176 144.839 110.61 144.249 111.095L144.182 111.145C143.907 111.376 143.62 111.611 143.407 111.847L143.373 111.887C142.825 112.429 142.33 113.023 141.897 113.661C141.711 113.936 141.532 114.222 141.335 114.543L141.251 114.694V114.739C141.105 114.997 140.97 115.301 140.841 115.548V115.587C140.81 115.649 140.784 115.712 140.762 115.778C140.633 116.064 140.515 116.339 140.403 116.671L140.347 116.817C140.218 117.176 140.1 117.547 140.004 117.895L139.976 118.013C139.892 118.321 139.813 118.641 139.746 118.967C139.746 119.057 139.701 119.158 139.684 119.254V119.332C139.639 119.574 139.6 119.809 139.555 120.056C139.555 120.197 139.505 120.348 139.488 120.494C139.471 120.64 139.42 120.949 139.392 121.185V121.297C139.392 121.41 139.364 121.528 139.359 121.651C139.359 121.887 139.308 122.134 139.291 122.376V122.505C139.291 122.594 139.291 122.684 139.263 122.774V122.858L139.134 126.789V139.704L135.765 141.663L132.581 143.499L129.499 145.279C127.359 146.52 125.866 147.149 124.956 147.217C124.885 147.222 124.814 147.222 124.743 147.217C124.569 147.215 124.398 147.172 124.243 147.093C123.766 146.818 123.625 146.049 123.625 144.375C123.649 142.592 123.908 140.819 124.395 139.103C124.541 138.491 124.681 137.896 124.804 137.317C124.849 137.093 124.9 136.868 124.939 136.638C124.979 136.408 125.023 136.183 125.068 135.953C125.13 135.565 125.181 135.178 125.231 134.779V134.695C125.248 134.602 125.259 134.508 125.265 134.414C125.327 133.825 125.372 133.291 125.394 132.702C125.394 132.64 125.394 132.578 125.394 132.516V132.376C125.394 132.151 125.428 131.904 125.422 131.652C125.422 129.018 124.658 126.991 123.26 125.935C121.862 124.88 120.009 124.919 118.038 126.065C115.652 127.44 113.546 130.186 112.187 133.314C111.91 133.931 111.67 134.565 111.469 135.212C111.401 135.425 111.334 135.644 111.278 135.857C111.222 136.071 111.143 136.368 111.081 136.627C111.063 136.67 111.052 136.715 111.048 136.761C110.991 137.008 110.941 137.261 110.902 137.508C110.805 138.041 110.736 138.579 110.694 139.12C110.682 139.28 110.682 139.442 110.694 139.602C110.694 139.793 110.694 139.984 110.694 140.164C110.694 140.495 110.694 140.843 110.733 141.113C110.788 142.912 111.131 144.69 111.749 146.38C112.089 147.285 112.321 148.228 112.44 149.187V149.3V149.333V149.378C112.437 149.418 112.437 149.457 112.44 149.496C112.468 149.912 112.491 150.322 112.491 150.748C112.491 153.517 112.491 155.044 106.612 158.441L96.8695 164.039Z" fill="#37474F"/>
<path d="M145.3 90.6442L157.21 97.5226C156.844 97.3411 156.437 97.2624 156.03 97.295C155.623 97.3277 155.233 97.4704 154.902 97.7079C154.801 97.7641 154.672 97.8539 154.542 97.9438L154.503 97.9831H154.475C153.242 98.809 152.13 99.801 151.168 100.931C149.737 102.593 148.052 104.018 146.176 105.153L145.94 105.283L145.85 105.328L145.783 105.361C145.603 105.457 145.429 105.558 145.266 105.636L144.952 105.771L144.845 105.81L144.784 105.844L144.39 105.99C144.273 106.036 144.153 106.074 144.031 106.102H143.986L143.588 106.198C143.453 106.232 143.329 106.237 143.2 106.26H142.829C142.712 106.26 142.594 106.26 142.481 106.26C142.369 106.26 142.262 106.22 142.156 106.204C142.048 106.183 141.943 106.153 141.841 106.114C141.742 106.08 141.646 106.037 141.555 105.985H141.504C141.421 105.944 141.341 105.899 141.263 105.85C141.187 105.796 141.116 105.736 141.05 105.67L141.005 105.636L140.96 105.591C140.898 105.541 140.831 105.479 140.769 105.417C140.697 105.333 140.629 105.245 140.567 105.153L140.533 105.103C140.408 104.923 140.296 104.736 140.196 104.541L140.162 104.468C140.114 104.383 140.071 104.295 140.033 104.205C139.994 104.109 139.949 103.991 139.91 103.879V103.8V103.733C139.876 103.632 139.837 103.542 139.803 103.43C139.769 103.317 139.724 103.126 139.685 102.969C139.646 102.812 139.612 102.7 139.59 102.559C139.567 102.419 139.522 102.222 139.494 102.043C139.466 101.863 139.444 101.751 139.421 101.605C139.399 101.459 139.376 101.229 139.354 101.043C139.331 100.858 139.32 100.734 139.303 100.577C139.286 100.42 139.264 100.167 139.253 99.9483C139.253 99.836 139.253 99.7013 139.253 99.5721V99.4037C139.253 99.2071 139.253 98.9994 139.219 98.786V98.7018L139.18 96.4558V94.1311C139.23 94.0694 139.292 94.0132 139.343 93.9571C140.306 92.8284 141.418 91.8365 142.65 91.0092H142.678L142.723 90.9755C142.835 90.8892 142.954 90.8104 143.077 90.7396C143.403 90.523 143.783 90.3997 144.175 90.3828C144.567 90.366 144.956 90.4564 145.3 90.6442Z" fill="black"/>
<path d="M98.2731 109.449L86.3242 102.548C86.3579 102.476 86.386 102.414 86.4253 102.346C86.4747 102.234 86.5309 102.126 86.5937 102.021C86.6723 101.869 86.751 101.723 86.8352 101.577C86.9194 101.431 87.0373 101.223 87.1496 101.061C87.1816 100.996 87.2192 100.934 87.2619 100.875C87.3574 100.718 87.4697 100.555 87.582 100.398L87.6831 100.258C87.7403 100.169 87.8041 100.084 87.874 100.005C87.9519 99.8934 88.0363 99.7865 88.1266 99.6848C88.2277 99.5557 88.3344 99.4265 88.4467 99.3086L88.5815 99.1682C88.6103 99.1319 88.6423 99.0981 88.6769 99.0672L88.8566 98.8875L89.0644 98.6853C89.0823 98.6655 89.1031 98.6485 89.1261 98.6348C89.1993 98.5579 89.2781 98.4866 89.362 98.4214H89.39L89.5416 98.3091C89.6509 98.2132 89.7652 98.1232 89.8842 98.0396C89.9507 97.989 90.0201 97.9421 90.0919 97.8992C90.214 97.8047 90.3436 97.7202 90.4794 97.6465L127.101 76.5508L139.05 83.4517L122.951 92.7446L102.378 104.632C102.22 104.722 102.069 104.817 101.917 104.918C101.766 105.019 101.636 105.12 101.507 105.232C101.431 105.282 101.36 105.339 101.294 105.401C101.159 105.508 101.024 105.637 100.895 105.76C100.766 105.884 100.581 106.069 100.429 106.226C100.092 106.595 99.7784 106.985 99.4915 107.394C99.3792 107.552 99.2669 107.709 99.1602 107.877C98.8316 108.382 98.5353 108.907 98.2731 109.449Z" fill="#455A64"/>
</g>
<path d="M80.67 121.55C81.2552 121.583 81.8325 121.402 82.2928 121.039C83.5337 120.079 84.4602 120.157 85.791 119.584C86.8354 119.13 87.2565 118.574 87.4755 118.765C87.6931 119.006 87.8112 119.321 87.806 119.646C87.8008 119.971 87.6727 120.282 87.4474 120.517C87.0461 120.984 86.5811 121.392 86.0661 121.729C87.3002 121.653 88.5175 121.403 89.6822 120.988C92.4897 120.034 93.8205 120.427 92.5459 123.992C91.7485 126.238 89.7383 127.474 84.23 127.361C82.1943 127.224 80.1702 126.95 78.1713 126.541C72.7191 125.469 61.7417 123.824 59.8269 121.246C54.4084 113.947 49.4391 107.928 48.754 102.481C48.1925 97.9103 51.0001 95.3555 53.5998 95.3555C55.0766 96.9108 55.975 98.7638 57.3339 103.127C57.3339 103.127 64.3864 115.755 65.0995 116.676C66.8738 117.647 79.5133 121.364 80.67 121.55Z" fill="#FFA8A7"/>
<path d="M182.51 74.7656C183.459 75.3271 184.475 75.5685 185.739 76.4894C186.555 77.1905 187.531 77.682 188.58 77.9212C189.933 78.2525 200.585 74.6533 202.556 73.1316C206.571 70.0377 210.035 64.2149 211.967 62.0082C213.556 60.1889 215.336 57.4487 217.318 57.4375C220.558 58.4145 219.828 63.2322 217.116 67.5446C214.87 71.1326 210.614 75.664 205.796 78.8253C203.46 80.3582 192.696 83.1376 189.119 83.3734C188.035 83.4408 187.232 83.6879 185.189 83.9799C184.339 84.1522 183.469 84.1995 182.606 84.1202C181.546 83.9554 180.516 83.6396 179.545 83.1825C178.314 82.6083 177.259 81.7145 176.491 80.594C176.072 79.9779 175.802 79.2721 175.705 78.5333C175.607 77.789 175.778 77.0341 176.188 76.4052C176.265 76.2739 176.375 76.1653 176.508 76.0907C176.769 76.0057 177.053 76.0259 177.299 76.1469C178.737 76.6466 180.208 77.399 181.685 77.7415C182.931 78.0279 183.852 78.0616 183.729 77.837C183.605 77.6124 182.864 77.4889 182.016 76.7701C181.168 76.0514 180.82 74.9172 181.241 74.4904C181.662 74.0637 181.567 74.1816 182.51 74.7656Z" fill="#FFA8A7"/>
<path d="M217.525 56.298C219.917 57.4715 220.895 59.2571 219.828 63.2326C218.873 66.8037 215.212 72.8961 212.332 75.8777C212.332 75.8777 207.402 73.5418 204.779 70.5041C207.373 66.5342 208.626 64.1984 211.063 60.8349C213.499 57.4715 216.066 55.8993 217.525 56.298Z" fill="#E0E0E0"/>
</svg>
