<svg width="22" height="22" viewBox="0 0 22 22" fill="none" xmlns="http://www.w3.org/2000/svg">
<path d="M9.48332 15.9834L17.1208 8.34591L15.6042 6.82925L9.48332 12.9501L6.39582 9.86258L4.87916 11.3792L9.48332 15.9834ZM11 21.8334C9.50138 21.8334 8.09305 21.5489 6.77499 20.9797C5.45693 20.4106 4.31041 19.6389 3.33541 18.6647C2.36041 17.6897 1.58871 16.5431 1.02032 15.2251C0.451934 13.907 0.167379 12.4987 0.166656 11.0001C0.166656 9.50147 0.451212 8.09314 1.02032 6.77508C1.58943 5.45703 2.36113 4.3105 3.33541 3.3355C4.31041 2.3605 5.45693 1.5888 6.77499 1.02041C8.09305 0.452026 9.50138 0.16747 11 0.166748C12.4986 0.166748 13.9069 0.451304 15.225 1.02041C16.543 1.58953 17.6896 2.36122 18.6646 3.3355C19.6396 4.3105 20.4116 5.45703 20.9807 6.77508C21.5498 8.09314 21.834 9.50147 21.8333 11.0001C21.8333 12.4987 21.5488 13.907 20.9797 15.2251C20.4105 16.5431 19.6389 17.6897 18.6646 18.6647C17.6896 19.6397 16.543 20.4117 15.225 20.9808C13.9069 21.5499 12.4986 21.8341 11 21.8334Z" fill="#3EB449"/>
</svg>
