<svg width="17" height="16" viewBox="0 0 17 16" fill="none" xmlns="http://www.w3.org/2000/svg">
<path d="M11.664 6.32016C11.539 6.19198 11.3695 6.11997 11.1927 6.11997C11.0159 6.11997 10.8464 6.19198 10.7214 6.32016L9.19271 7.88803V2.01726C9.19271 1.83591 9.12247 1.66199 8.99745 1.53376C8.87242 1.40553 8.70285 1.3335 8.52604 1.3335C8.34923 1.3335 8.17966 1.40553 8.05464 1.53376C7.92961 1.66199 7.85938 1.83591 7.85938 2.01726V7.88803L6.33071 6.32016C6.26921 6.25486 6.19565 6.20277 6.11431 6.16693C6.03298 6.1311 5.9455 6.11223 5.85698 6.11144C5.76846 6.11066 5.68067 6.12796 5.59874 6.16234C5.51681 6.19672 5.44237 6.24749 5.37978 6.31169C5.31718 6.37589 5.26768 6.45223 5.23416 6.53626C5.20064 6.62029 5.18377 6.71033 5.18454 6.80112C5.18531 6.89191 5.2037 6.98163 5.23864 7.06505C5.27358 7.14848 5.32437 7.22393 5.38804 7.287L8.05471 10.022C8.11664 10.0857 8.1902 10.1362 8.2712 10.1707C8.35219 10.2052 8.43902 10.2229 8.52671 10.2229C8.6144 10.2229 8.70123 10.2052 8.78222 10.1707C8.86321 10.1362 8.93678 10.0857 8.99871 10.022L11.6654 7.287C11.7902 7.1586 11.8602 6.98461 11.8599 6.8033C11.8597 6.62199 11.7892 6.44821 11.664 6.32016Z" fill="#3498DB"/>
<path d="M13.8594 9.19674H12.1594L10.176 11.2309C9.95937 11.4532 9.70213 11.6295 9.41902 11.7498C9.13592 11.8701 8.83248 11.932 8.52604 11.932C8.2196 11.932 7.91617 11.8701 7.63306 11.7498C7.34995 11.6295 7.09271 11.4532 6.87604 11.2309L4.89271 9.19674H3.19271C2.83909 9.19674 2.49995 9.34082 2.2499 9.59728C1.99985 9.85374 1.85938 10.2016 1.85938 10.5643V13.2993C1.85938 13.662 1.99985 14.0098 2.2499 14.2663C2.49995 14.5228 2.83909 14.6668 3.19271 14.6668H13.8594C14.213 14.6668 14.5521 14.5228 14.8022 14.2663C15.0522 14.0098 15.1927 13.662 15.1927 13.2993V10.5643C15.1927 10.2016 15.0522 9.85374 14.8022 9.59728C14.5521 9.34082 14.213 9.19674 13.8594 9.19674ZM12.1927 13.2993C11.9949 13.2993 11.8016 13.2392 11.6371 13.1265C11.4727 13.0138 11.3445 12.8536 11.2688 12.6662C11.1931 12.4788 11.1733 12.2725 11.2119 12.0736C11.2505 11.8746 11.3457 11.6919 11.4856 11.5484C11.6255 11.405 11.8036 11.3073 11.9976 11.2677C12.1916 11.2282 12.3927 11.2485 12.5754 11.3261C12.7581 11.4037 12.9143 11.5352 13.0242 11.7039C13.1341 11.8725 13.1927 12.0708 13.1927 12.2737C13.1927 12.5457 13.0874 12.8066 12.8998 12.9989C12.7123 13.1912 12.4579 13.2993 12.1927 13.2993Z" fill="#3498DB"/>
</svg>
