<svg width="282" height="282" viewBox="0 0 282 282" fill="none" xmlns="http://www.w3.org/2000/svg">
<g clip-path="url(#clip0_2239_16366)">
<path d="M281.367 215.141H0.617188V215.281H281.367V215.141Z" fill="#EBEBEB"/>
<path d="M253.236 224.174H204.441V224.314H253.236V224.174Z" fill="#EBEBEB"/>
<path d="M206.323 218.963H201.443V219.103H206.323V218.963Z" fill="#EBEBEB"/>
<path d="M168.679 223.619H157.904V223.76H168.679V223.619Z" fill="#EBEBEB"/>
<path d="M42.2026 219.906H30.0742V220.047H42.2026V219.906Z" fill="#EBEBEB"/>
<path d="M62.8819 219.906H47.1992V220.047H62.8819V219.906Z" fill="#EBEBEB"/>
<path d="M143.525 222.209H117.225V222.349H143.525V222.209Z" fill="#EBEBEB"/>
<path d="M133.693 190.097H25.2728C24.4235 190.095 23.6094 189.757 23.0093 189.156C22.4093 188.555 22.0723 187.74 22.0723 186.891V34.4828C22.0797 33.6383 22.4199 32.8308 23.0192 32.2358C23.6185 31.6407 24.4283 31.3061 25.2728 31.3047H133.693C134.543 31.3047 135.359 31.6425 135.96 32.2438C136.561 32.845 136.899 33.6605 136.899 34.5109V186.891C136.899 187.741 136.561 188.557 135.96 189.158C135.359 189.759 134.543 190.097 133.693 190.097ZM25.2728 31.417C24.4607 31.4185 23.6823 31.7421 23.1086 32.3169C22.5349 32.8917 22.2126 33.6707 22.2126 34.4828V186.891C22.2126 187.703 22.5349 188.482 23.1086 189.057C23.6823 189.631 24.4607 189.955 25.2728 189.957H133.693C134.506 189.955 135.284 189.632 135.859 189.057C136.434 188.482 136.757 187.703 136.759 186.891V34.4828C136.757 33.6701 136.434 32.8912 135.859 32.3166C135.284 31.742 134.506 31.4185 133.693 31.417H25.2728Z" fill="#EBEBEB"/>
<path d="M255.151 190.097H146.726C145.876 190.095 145.061 189.757 144.46 189.156C143.859 188.555 143.521 187.741 143.52 186.891V34.4828C143.528 33.6378 143.87 32.8303 144.47 32.2354C145.07 31.6405 145.881 31.3061 146.726 31.3047H255.151C255.995 31.3076 256.803 31.6429 257.401 32.2377C257.999 32.8326 258.339 33.6393 258.346 34.4828V186.891C258.346 187.739 258.01 188.553 257.411 189.154C256.812 189.755 256 190.094 255.151 190.097ZM146.726 31.417C145.913 31.4185 145.134 31.742 144.559 32.3166C143.985 32.8912 143.661 33.6701 143.66 34.4828V186.891C143.661 187.703 143.985 188.482 144.559 189.057C145.134 189.632 145.913 189.955 146.726 189.957H255.151C255.964 189.955 256.743 189.632 257.318 189.057C257.892 188.482 258.216 187.703 258.217 186.891V34.4828C258.216 33.6701 257.892 32.8912 257.318 32.3166C256.743 31.742 255.964 31.4185 255.151 31.417H146.726Z" fill="#EBEBEB"/>
<path d="M117.768 41.3789H30.9434V165.543H117.768V41.3789Z" fill="#E6E6E6"/>
<path d="M120.374 41.3789H32.1621V165.543H120.374V41.3789Z" fill="#F0F0F0"/>
<path d="M117.768 165.543H30.9434V167.817H117.768V165.543Z" fill="#E6E6E6"/>
<path d="M121.76 165.543H33.5488V167.817H121.76V165.543Z" fill="#F0F0F0"/>
<path d="M116.73 161.892L116.73 45.0215L35.8127 45.0215L35.8127 161.892H116.73Z" fill="#FAFAFA"/>
<path d="M73.1973 161.892L92.8273 45.0273H102.934L83.3043 161.892H73.1973Z" fill="white"/>
<path d="M47.6934 161.892L67.3234 45.0273H77.4304L57.8004 161.892H47.6934Z" fill="white"/>
<path d="M37.4958 103.234C37.3442 103.234 37.2207 103.048 37.2207 102.818V47.5329C37.2207 47.3027 37.3442 47.123 37.4958 47.123C37.6474 47.123 37.7766 47.3027 37.7766 47.5329V102.818C37.7766 103.048 37.6755 103.234 37.4958 103.234Z" fill="#F0F0F0"/>
<path d="M85.4766 161.892L105.107 45.0273H109.043L89.4127 161.892H85.4766Z" fill="white"/>
<path d="M116.73 161.898L116.73 45.0273H116.27L116.27 161.898H116.73Z" fill="#E6E6E6"/>
<path opacity="0.5" d="M121.238 55.5677H34.4131L34.0762 46.4434H120.901L121.238 55.5677Z" fill="#E0E0E0"/>
<path opacity="0.5" d="M121.238 70.5582H34.4131L34.0762 61.4395H120.901L121.238 70.5582Z" fill="#E0E0E0"/>
<path opacity="0.5" d="M121.238 85.5563H34.4131L34.0762 76.4375H120.901L121.238 85.5563Z" fill="#E0E0E0"/>
<path opacity="0.5" d="M121.238 100.554H34.4131L34.0762 91.4297H120.901L121.238 100.554Z" fill="#E0E0E0"/>
<path opacity="0.5" d="M121.238 115.546H34.4131L34.0762 106.428H120.901L121.238 115.546Z" fill="#E0E0E0"/>
<path opacity="0.5" d="M121.238 130.545H34.4131L34.0762 121.426H120.901L121.238 130.545Z" fill="#E0E0E0"/>
<path opacity="0.5" d="M121.238 63.0638H34.4131L34.0762 53.9395H120.901L121.238 63.0638Z" fill="#E0E0E0"/>
<path opacity="0.5" d="M121.238 78.0599H34.4131L34.0762 68.9355H120.901L121.238 78.0599Z" fill="#E0E0E0"/>
<path opacity="0.5" d="M121.238 93.0524H34.4131L34.0762 83.9336H120.901L121.238 93.0524Z" fill="#E0E0E0"/>
<path opacity="0.5" d="M121.238 108.05H34.4131L34.0762 98.9316H120.901L121.238 108.05Z" fill="#E0E0E0"/>
<path opacity="0.5" d="M121.238 123.048H34.4131L34.0762 113.924H120.901L121.238 123.048Z" fill="#E0E0E0"/>
<path opacity="0.5" d="M121.238 138.046H34.4131L34.0762 128.922H120.901L121.238 138.046Z" fill="#E0E0E0"/>
<path d="M167.423 126.508H150.117V213.231H167.423V126.508Z" fill="#F0F0F0"/>
<path d="M238.778 213.23H153.441V215.14H238.778V213.23Z" fill="#F0F0F0"/>
<path d="M167.416 213.23H242.09V126.507L167.416 126.507V213.23Z" fill="#F5F5F5"/>
<path d="M233.505 175.368H176.002C175.456 175.366 174.933 175.149 174.547 174.763C174.16 174.377 173.943 173.853 173.941 173.307V159.887C173.941 159.34 174.158 158.816 174.545 158.428C174.931 158.041 175.455 157.823 176.002 157.821H185.508C185.892 157.827 186.266 157.939 186.59 158.144C186.914 158.349 187.175 158.639 187.344 158.983C187.529 159.324 187.802 159.608 188.136 159.806C188.469 160.004 188.849 160.108 189.237 160.106H220.282C220.849 160.105 221.392 159.879 221.792 159.477C221.955 159.312 222.091 159.122 222.197 158.916C222.366 158.579 222.626 158.295 222.947 158.097C223.269 157.899 223.638 157.793 224.016 157.793H233.505C234.053 157.793 234.579 158.011 234.966 158.398C235.354 158.786 235.572 159.311 235.572 159.859V173.307C235.57 173.854 235.352 174.378 234.964 174.765C234.577 175.151 234.052 175.368 233.505 175.368ZM176.002 158.388C175.604 158.39 175.223 158.549 174.942 158.831C174.661 159.113 174.503 159.495 174.503 159.893V173.307C174.504 173.704 174.663 174.085 174.944 174.366C175.224 174.647 175.605 174.805 176.002 174.806H233.505C233.903 174.806 234.285 174.649 234.567 174.368C234.849 174.087 235.009 173.705 235.01 173.307V159.887C235.01 159.488 234.852 159.106 234.569 158.823C234.287 158.541 233.904 158.383 233.505 158.383H224.016C223.744 158.382 223.477 158.456 223.244 158.596C223.012 158.737 222.822 158.939 222.696 159.18C222.565 159.44 222.392 159.677 222.185 159.882C221.936 160.133 221.639 160.332 221.313 160.468C220.986 160.604 220.636 160.673 220.282 160.673H189.237C188.747 160.674 188.267 160.541 187.846 160.29C187.426 160.039 187.082 159.679 186.85 159.247C186.727 158.994 186.537 158.78 186.3 158.627C186.064 158.475 185.79 158.39 185.508 158.383L176.002 158.388Z" fill="#EBEBEB"/>
<path d="M233.505 198.8H176.002C175.456 198.798 174.933 198.581 174.547 198.195C174.16 197.808 173.943 197.285 173.941 196.739V183.325C173.941 182.778 174.158 182.253 174.545 181.866C174.931 181.478 175.455 181.26 176.002 181.259H185.508C185.892 181.265 186.266 181.376 186.59 181.581C186.914 181.786 187.175 182.077 187.344 182.421C187.529 182.761 187.802 183.046 188.136 183.243C188.469 183.441 188.849 183.545 189.237 183.544H220.282C220.562 183.545 220.84 183.49 221.098 183.382C221.357 183.274 221.591 183.115 221.787 182.915C221.952 182.751 222.091 182.561 222.197 182.353C222.366 182.016 222.626 181.733 222.947 181.534C223.269 181.336 223.638 181.231 224.016 181.23H233.505C234.053 181.23 234.579 181.448 234.966 181.836C235.354 182.223 235.572 182.749 235.572 183.297V196.711C235.575 196.984 235.523 197.255 235.421 197.509C235.318 197.762 235.167 197.992 234.974 198.187C234.782 198.381 234.553 198.535 234.301 198.64C234.049 198.746 233.779 198.8 233.505 198.8ZM176.002 181.82C175.604 181.822 175.223 181.981 174.942 182.263C174.661 182.545 174.503 182.927 174.503 183.325V196.739C174.504 197.136 174.663 197.517 174.944 197.798C175.224 198.078 175.605 198.237 176.002 198.238H233.505C233.903 198.238 234.285 198.081 234.567 197.8C234.849 197.519 235.009 197.137 235.01 196.739V183.325C235.01 182.926 234.852 182.543 234.569 182.261C234.287 181.979 233.904 181.82 233.505 181.82H224.016C223.744 181.819 223.477 181.893 223.244 182.034C223.012 182.174 222.822 182.376 222.696 182.617C222.565 182.877 222.392 183.114 222.185 183.319C221.937 183.572 221.641 183.772 221.314 183.908C220.987 184.044 220.636 184.113 220.282 184.111H189.237C188.747 184.111 188.267 183.979 187.846 183.728C187.426 183.477 187.082 183.116 186.85 182.685C186.727 182.432 186.537 182.217 186.3 182.065C186.064 181.912 185.79 181.828 185.508 181.82H176.002Z" fill="#EBEBEB"/>
<path d="M235.572 209.232H173.941V204.246H235.572V209.232ZM174.503 208.671H235.01V204.808H174.503V208.671Z" fill="#EBEBEB"/>
<path d="M233.505 151.942H176.002C175.456 151.941 174.933 151.723 174.547 151.337C174.16 150.951 173.943 150.428 173.941 149.881V136.467C173.941 135.92 174.158 135.395 174.545 135.008C174.931 134.621 175.455 134.402 176.002 134.401H185.508C185.891 134.406 186.265 134.517 186.589 134.721C186.913 134.925 187.174 135.215 187.344 135.558C187.529 135.899 187.802 136.183 188.135 136.381C188.468 136.579 188.849 136.682 189.237 136.681H220.282C220.849 136.679 221.392 136.453 221.792 136.052C221.955 135.886 222.091 135.697 222.197 135.49C222.366 135.153 222.626 134.869 222.947 134.671C223.269 134.473 223.638 134.368 224.016 134.367H233.505C233.777 134.367 234.045 134.421 234.296 134.524C234.547 134.628 234.775 134.781 234.966 134.972C235.158 135.164 235.311 135.392 235.414 135.643C235.518 135.893 235.572 136.162 235.572 136.434V149.848C235.575 150.121 235.525 150.393 235.422 150.647C235.32 150.901 235.169 151.132 234.976 151.327C234.784 151.522 234.555 151.677 234.303 151.782C234.05 151.888 233.779 151.942 233.505 151.942ZM176.002 134.962C175.604 134.964 175.223 135.123 174.942 135.405C174.661 135.687 174.503 136.069 174.503 136.467V149.881C174.504 150.279 174.663 150.659 174.944 150.94C175.224 151.221 175.605 151.379 176.002 151.381H233.505C233.903 151.381 234.285 151.223 234.567 150.942C234.849 150.661 235.009 150.28 235.01 149.881V136.467C235.01 136.068 234.852 135.685 234.569 135.403C234.287 135.121 233.904 134.962 233.505 134.962H224.016C223.744 134.961 223.477 135.035 223.244 135.176C223.012 135.317 222.822 135.519 222.696 135.76C222.565 136.02 222.392 136.257 222.185 136.462C221.936 136.713 221.64 136.912 221.313 137.048C220.986 137.184 220.636 137.254 220.282 137.253H189.237C188.747 137.253 188.267 137.12 187.847 136.869C187.427 136.618 187.082 136.258 186.85 135.827C186.727 135.574 186.537 135.36 186.3 135.207C186.064 135.055 185.79 134.97 185.508 134.962H176.002Z" fill="#EBEBEB"/>
<path d="M244.404 125.109H167.422V126.508H244.404V125.109Z" fill="#F0F0F0"/>
<path d="M147.702 126.508H167.422V125.11H147.702V126.508Z" fill="#E6E6E6"/>
<path d="M227.643 44.3711H161.594V109.926H227.643V44.3711Z" fill="#E6E6E6"/>
<path d="M231.209 44.3711H162.268V109.926H231.209V44.3711Z" fill="#F0F0F0"/>
<path d="M228.025 106.748V47.5547L165.452 47.5547V106.748H228.025Z" fill="white"/>
<path d="M196.738 101.519C191.918 101.519 187.207 100.09 183.199 97.4125C179.192 94.7348 176.069 90.9289 174.224 86.476C172.38 82.0231 171.897 77.1233 172.837 72.3962C173.778 67.669 176.099 63.3269 179.507 59.9188C182.915 56.5107 187.257 54.1898 191.984 53.2495C196.711 52.3092 201.611 52.7918 206.064 54.6362C210.517 56.4807 214.323 59.6041 217 63.6116C219.678 67.6191 221.107 72.3306 221.107 77.1504C221.1 83.6112 218.53 89.8052 213.962 94.3737C209.393 98.9422 203.199 101.512 196.738 101.519ZM196.738 53.2024C192.002 53.2024 187.372 54.6069 183.433 57.2383C179.495 59.8698 176.426 63.61 174.613 67.9859C172.801 72.3618 172.326 77.1769 173.25 81.8224C174.174 86.4678 176.455 90.735 179.804 94.0841C183.154 97.4333 187.421 99.7141 192.066 100.638C196.712 101.562 201.527 101.088 205.903 99.2754C210.279 97.4628 214.019 94.3934 216.65 90.4552C219.282 86.5169 220.686 81.8868 220.686 77.1504C220.68 70.8008 218.155 64.713 213.665 60.2232C209.176 55.7333 203.088 53.2083 196.738 53.2024Z" fill="#F5F5F5"/>
<path d="M140.992 240.498C201.119 240.498 249.862 237.652 249.862 234.141C249.862 230.631 201.119 227.785 140.992 227.785C80.8655 227.785 32.123 230.631 32.123 234.141C32.123 237.652 80.8655 240.498 140.992 240.498Z" fill="#F5F5F5"/>
<path d="M38.6758 202.326H176.182L186.064 116.781H48.5638L38.6758 202.326Z" fill="#106FA4"/>
<path opacity="0.4" d="M38.6758 202.326H176.182L186.064 116.781H48.5638L38.6758 202.326Z" fill="white"/>
<path d="M203.19 205.532H65.6846L48.5645 116.781H186.065L203.19 205.532Z" fill="#106FA4"/>
<path opacity="0.6" d="M203.19 205.532H65.6846L48.5645 116.781H186.065L203.19 205.532Z" fill="white"/>
<path d="M197.923 200.772H69.109L55.2793 129.062H184.093L197.923 200.772Z" fill="white"/>
<g opacity="0.5">
<path d="M79.1365 146.451H65.6661L63.0664 132.975H76.5368L79.1365 146.451Z" fill="#106FA4"/>
<path d="M180.414 146.451H166.938L164.344 132.975H177.814L180.414 146.451Z" fill="#106FA4"/>
<path d="M163.529 146.451H150.059L147.459 132.975H160.935L163.529 146.451Z" fill="#106FA4"/>
<path d="M146.652 146.451H133.182L130.582 132.975H144.058L146.652 146.451Z" fill="#106FA4"/>
<path d="M129.773 146.451H116.303L113.703 132.975H127.174L129.773 146.451Z" fill="#106FA4"/>
<path d="M112.894 146.451H99.424L96.8242 132.975H110.295L112.894 146.451Z" fill="#106FA4"/>
<path d="M96.0154 146.451H82.5451L79.9453 132.975H93.4157L96.0154 146.451Z" fill="#106FA4"/>
<path opacity="0.5" d="M82.3768 163.252H68.9064L66.3066 149.781H79.777L82.3768 163.252Z" fill="#106FA4"/>
<path d="M183.654 163.252H170.184L167.584 149.781H181.054L183.654 163.252Z" fill="#106FA4"/>
<path opacity="0.5" d="M166.775 163.252H153.305L150.705 149.781H164.175L166.775 163.252Z" fill="#106FA4"/>
<path d="M149.896 163.252H136.42L133.826 149.781H147.297L149.896 163.252Z" fill="#106FA4"/>
<path d="M133.012 163.252H119.541L116.941 149.781H130.417L133.012 163.252Z" fill="#106FA4"/>
<path d="M116.135 163.252H102.664L100.064 149.781H113.535L116.135 163.252Z" fill="#106FA4"/>
<path d="M99.2557 163.252H85.7853L83.1855 149.781H96.6559L99.2557 163.252Z" fill="#106FA4"/>
<path d="M85.617 180.05H72.1466L69.5469 166.58H83.0173L85.617 180.05Z" fill="#106FA4"/>
<path d="M186.894 180.05H173.424L170.824 166.58H184.295L186.894 180.05Z" fill="#106FA4"/>
<path d="M170.015 180.05H156.545L153.945 166.58H167.416L170.015 180.05Z" fill="#106FA4"/>
<path d="M153.137 180.05H139.666L137.066 166.58H150.537L153.137 180.05Z" fill="#106FA4"/>
<path d="M136.258 180.05H122.782L120.188 166.58H133.658L136.258 180.05Z" fill="#106FA4"/>
<path d="M119.373 180.05H105.902L103.303 166.58H116.779L119.373 180.05Z" fill="#106FA4"/>
<path d="M102.496 180.05H89.0255L86.4258 166.58H99.8962L102.496 180.05Z" fill="#106FA4"/>
<path d="M88.8553 196.857H75.3849L72.7852 183.381H86.2612L88.8553 196.857Z" fill="#106FA4"/>
<path d="M190.135 196.857H176.664L174.064 183.381H187.535L190.135 196.857Z" fill="#106FA4"/>
<path d="M173.256 196.857H159.785L157.186 183.381H170.656L173.256 196.857Z" fill="#106FA4"/>
<path d="M156.377 196.857H142.906L140.307 183.381H153.777L156.377 196.857Z" fill="#106FA4"/>
<path d="M139.498 196.857H126.027L123.428 183.381H136.898L139.498 196.857Z" fill="#106FA4"/>
<path d="M122.619 196.857H109.143L106.549 183.381H120.019L122.619 196.857Z" fill="#106FA4"/>
<path opacity="0.5" d="M105.74 196.857H92.264L89.6699 183.381H103.14L105.74 196.857Z" fill="#106FA4"/>
</g>
<path d="M65.5205 122.874L65.3465 121.981C66.9355 121.981 67.8227 119.6 67.278 116.782C66.7334 113.963 64.9309 111.577 63.3475 111.577C61.7641 111.577 60.8713 113.963 61.4103 116.782H60.5232C59.8606 113.362 61.0285 110.689 63.1735 110.689C65.3184 110.689 67.5195 113.362 68.1764 116.782C68.8334 120.201 67.6654 122.874 65.5205 122.874Z" fill="#263238"/>
<path d="M78.8174 122.874L78.6433 121.981C80.2324 121.981 81.1195 119.6 80.5749 116.782C80.0302 113.963 78.2278 111.577 76.6444 111.577C75.061 111.577 74.1682 113.963 74.7072 116.782H73.82C73.1575 113.362 74.3254 110.689 76.4703 110.689C78.6153 110.689 80.8163 113.362 81.4733 116.782C82.1302 120.201 80.9623 122.874 78.8174 122.874Z" fill="#263238"/>
<path d="M92.1411 122.874L91.9671 121.981C93.5561 121.981 94.4433 119.6 93.8986 116.782C93.354 113.963 91.5516 111.577 89.9681 111.577C88.3847 111.577 87.4863 113.963 88.0309 116.782H87.0876C86.4251 113.362 87.593 110.689 89.7379 110.689C91.8828 110.689 94.0839 113.362 94.7409 116.782C95.3978 120.201 94.258 122.874 92.1411 122.874Z" fill="#263238"/>
<path d="M105.405 122.874L105.236 121.981C106.825 121.981 107.713 119.6 107.168 116.782C106.623 113.963 104.821 111.577 103.237 111.577C101.654 111.577 100.761 113.963 101.306 116.782H100.413C99.7562 113.362 100.924 110.689 103.069 110.689C105.214 110.689 107.409 113.362 108.072 116.782C108.735 120.201 107.555 122.874 105.405 122.874Z" fill="#263238"/>
<path d="M118.702 122.874L118.533 121.981C120.122 121.981 121.01 119.6 120.465 116.782C119.92 113.963 118.118 111.577 116.534 111.577C114.951 111.577 114.058 113.963 114.603 116.782H113.71C113.053 113.362 114.221 110.689 116.366 110.689C118.511 110.689 120.706 113.362 121.369 116.782C122.031 120.201 120.852 122.874 118.702 122.874Z" fill="#263238"/>
<path d="M132.009 122.874L131.84 121.981C133.429 121.981 134.317 119.6 133.772 116.782C133.227 113.963 131.425 111.577 129.841 111.577C128.258 111.577 127.365 113.963 127.91 116.782H127.017C126.36 113.362 127.522 110.689 129.673 110.689C131.824 110.689 134.013 113.362 134.676 116.782C135.339 120.201 134.148 122.874 132.009 122.874Z" fill="#263238"/>
<path d="M145.294 122.874L145.126 121.981C146.715 121.981 147.602 119.6 147.057 116.782C146.512 113.963 144.71 111.577 143.127 111.577C141.543 111.577 140.65 113.963 141.195 116.782H140.302C139.645 113.362 140.808 110.689 142.958 110.689C145.109 110.689 147.299 113.362 147.961 116.782C148.624 120.201 147.445 122.874 145.294 122.874Z" fill="#263238"/>
<path d="M158.589 122.874L158.42 121.981C160.01 121.981 160.897 119.6 160.352 116.782C159.807 113.963 158.005 111.577 156.422 111.577C154.838 111.577 153.945 113.963 154.49 116.782H153.597C152.94 113.362 154.103 110.689 156.253 110.689C158.404 110.689 160.593 113.362 161.256 116.782C161.919 120.201 160.734 122.874 158.589 122.874Z" fill="#263238"/>
<path d="M171.874 122.874L171.706 121.981C173.295 121.981 174.182 119.6 173.637 116.782C173.093 113.963 171.29 111.577 169.707 111.577C168.123 111.577 167.231 113.963 167.775 116.782H166.882C166.225 113.362 167.388 110.689 169.538 110.689C171.689 110.689 173.879 113.362 174.536 116.782C175.193 120.201 174.03 122.874 171.874 122.874Z" fill="#263238"/>
<path d="M114.427 144.554H67.1935L64.5938 131.084H111.827L114.427 144.554Z" fill="#106FA4"/>
<path d="M134.558 161.359H121.082L118.488 147.883H131.959L134.558 161.359Z" fill="#106FA4"/>
<path d="M176.704 178.608L175.974 177.974C174.476 176.662 172.808 175.557 171.016 174.689L171.482 173.313C173.151 174.121 174.722 175.118 176.165 176.284C178.652 172.596 181.908 169.49 185.71 167.182L186.715 168.552C182.845 170.903 179.567 174.114 177.136 177.934L176.704 178.608Z" fill="#106FA4"/>
<path d="M129.616 150.113H128.397L126.359 153.802L122.906 150.113H121.688L125.91 154.622L123.423 159.125H124.647L126.679 155.442L130.132 159.125H131.357L127.128 154.622L129.616 150.113Z" fill="white"/>
<path d="M154.586 182.381L156.832 194.066H145.153L142.907 182.381H154.592M155.316 181.488H141.84L144.44 194.964H157.916L155.321 181.488H155.316Z" fill="#106FA4"/>
<path d="M120.908 178.16H90.5587L87.959 164.689H118.308L120.908 178.16Z" fill="#263238"/>
<path d="M100.003 170.063C100.084 170.375 100.09 170.703 100.022 171.019C99.9536 171.335 99.8122 171.63 99.6093 171.882C99.4063 172.133 99.1473 172.334 98.8529 172.468C98.5586 172.601 98.2371 172.664 97.9141 172.651C97.185 172.624 96.4856 172.355 95.9264 171.886C95.3673 171.417 94.98 170.776 94.8259 170.063C94.7463 169.75 94.7407 169.423 94.8095 169.107C94.8783 168.792 95.0197 168.497 95.2225 168.246C95.4252 167.994 95.6837 167.794 95.9774 167.66C96.2711 167.526 96.592 167.462 96.9147 167.474C97.6435 167.502 98.3424 167.772 98.9014 168.24C99.4604 168.709 99.8479 169.35 100.003 170.063Z" fill="white"/>
<path d="M100.625 172.51C100.339 172.907 99.9607 173.227 99.5221 173.444C99.0835 173.66 98.5984 173.766 98.1096 173.751C96.9951 173.724 95.9303 173.284 95.1224 172.515C94.6225 172.786 94.2208 173.207 93.9747 173.719C93.7286 174.232 93.6508 174.809 93.7523 175.368H103.096C102.927 174.736 102.617 174.15 102.189 173.655C101.761 173.16 101.226 172.768 100.625 172.51Z" fill="white"/>
<path d="M115.848 170.584H105.517L105.23 169.096H115.562L115.848 170.584Z" fill="white"/>
<path d="M113.001 173.746H106.128L105.842 172.258H112.715L113.001 173.746Z" fill="white"/>
<path d="M167.249 132.341C169.91 132.341 173.678 132.729 176.525 134.587C177.042 134.892 177.493 135.298 177.851 135.78C178.208 136.262 178.466 136.811 178.608 137.395C179.108 139.601 177.934 142.01 176.637 143.319C174.588 145.385 171.398 146.688 167.653 146.946C167.226 146.98 166.788 146.996 166.356 146.996C163.719 146.973 161.109 146.455 158.663 145.469C156.255 144.509 153.7 143.223 152.981 140.719C152.793 140.142 152.736 139.53 152.813 138.928C152.889 138.327 153.098 137.749 153.425 137.238C153.849 136.588 154.41 136.04 155.07 135.632C158.181 133.707 161.726 132.597 165.379 132.403C166.002 132.364 166.631 132.341 167.249 132.341ZM167.08 131.477C166.412 131.477 165.766 131.477 165.16 131.544C161.38 131.743 157.711 132.89 154.491 134.879C153.751 135.34 153.121 135.957 152.644 136.687C152.263 137.294 152.02 137.977 151.932 138.688C151.844 139.4 151.912 140.121 152.133 140.803C152.975 143.712 155.856 145.222 158.472 146.261C161.03 147.294 163.76 147.836 166.519 147.856C166.974 147.856 167.423 147.856 167.872 147.811C171.432 147.552 174.981 146.339 177.316 143.981C179.652 141.623 181.14 136.62 176.901 133.874C174.043 132.027 170.303 131.477 167.075 131.477H167.08Z" fill="#263238"/>
<path d="M217.928 230.165L221.949 229.098L219.989 219.643L215.969 220.715L217.928 230.165Z" fill="#B55B52"/>
<path d="M222.078 228.356L217.636 229.816C217.56 229.837 217.496 229.887 217.457 229.956C217.418 230.024 217.408 230.105 217.428 230.181L218.372 233.769C218.431 233.954 218.561 234.108 218.734 234.198C218.906 234.287 219.107 234.305 219.293 234.246C220.831 233.685 221.539 233.376 223.493 232.736C224.694 232.337 227.603 231.444 229.259 230.9C230.916 230.355 230.337 228.732 229.585 228.811C226.216 229.182 224.245 228.884 222.847 228.379C222.601 228.283 222.329 228.275 222.078 228.356Z" fill="#263238"/>
<path opacity="0.2" d="M215.969 220.715L219.989 219.643L221 224.516L216.974 225.589L215.969 220.715Z" fill="black"/>
<path d="M205.661 124.355C205.661 124.355 211.276 158.242 212.96 170.062C214.785 183.004 221.619 221.939 221.619 221.939L214.881 224.488C214.881 224.488 204.128 186.21 201.158 173.627C197.929 159.966 190.82 124.355 190.82 124.355H205.661Z" fill="#263238"/>
<path opacity="0.3" d="M196.637 138.252C199.512 145.433 199.838 157.64 198.67 162.643C196.907 154.428 194.885 144.602 193.33 136.96C193.886 135.001 194.897 133.883 196.637 138.252Z" fill="black"/>
<path d="M214.576 225.442L222.398 223.095L222.173 219.895L212.863 222.618L214.576 225.442Z" fill="#263238"/>
<path d="M223.707 228.586C223.341 228.693 222.965 228.761 222.584 228.788C222.566 228.789 222.547 228.786 222.531 228.778C222.514 228.77 222.5 228.758 222.489 228.743C222.48 228.727 222.475 228.708 222.475 228.69C222.475 228.671 222.48 228.652 222.489 228.636C222.584 228.507 223.455 227.373 223.999 227.401C224.061 227.405 224.12 227.425 224.172 227.459C224.224 227.492 224.267 227.538 224.297 227.592C224.358 227.671 224.395 227.766 224.403 227.865C224.412 227.965 224.393 228.065 224.347 228.153C224.192 228.369 223.965 228.522 223.707 228.586ZM222.815 228.586C223.573 228.49 224.084 228.299 224.207 228.058C224.232 228.001 224.241 227.938 224.234 227.876C224.227 227.814 224.205 227.755 224.168 227.704C224.154 227.677 224.133 227.654 224.107 227.637C224.082 227.621 224.052 227.611 224.022 227.609C223.73 227.581 223.18 228.131 222.815 228.574V228.586Z" fill="#106FA4"/>
<path d="M222.628 228.783C222.613 228.789 222.597 228.789 222.583 228.783C222.567 228.781 222.552 228.774 222.539 228.765C222.527 228.755 222.516 228.742 222.51 228.727C222.51 228.677 222.027 227.57 222.297 227.043C222.332 226.977 222.382 226.919 222.442 226.875C222.502 226.83 222.571 226.799 222.645 226.784C222.725 226.761 222.811 226.765 222.888 226.797C222.966 226.829 223.03 226.885 223.072 226.958C223.307 227.357 222.987 228.379 222.673 228.738C222.656 228.772 222.645 228.783 222.628 228.783ZM222.628 227.003C222.556 227.029 222.495 227.081 222.459 227.149C222.365 227.601 222.418 228.072 222.611 228.491C222.885 228.072 222.985 227.563 222.892 227.071C222.864 227.02 222.813 226.964 222.673 226.992L222.628 227.003Z" fill="#106FA4"/>
<path d="M204.806 89.4689C204.969 89.7328 205.193 90.1034 205.401 90.4234L206.041 91.4341C206.485 92.1023 206.923 92.7705 207.389 93.4275C208.304 94.7358 209.27 96.0048 210.269 97.212C211.244 98.3923 212.299 99.5048 213.425 100.542C214.443 101.493 215.575 102.315 216.794 102.99L215.907 102.737C216.776 102.916 217.667 102.967 218.551 102.889C219.034 102.844 219.528 102.782 220.034 102.692C220.539 102.602 221.05 102.479 221.567 102.338C222.63 102.049 223.674 101.694 224.694 101.277C225.216 101.064 225.739 100.845 226.261 100.609C226.783 100.373 227.316 100.109 227.771 99.8959L227.923 99.8229C228.359 99.6145 228.859 99.5873 229.315 99.7473C229.771 99.9072 230.144 100.241 230.354 100.676C230.511 101.012 230.564 101.387 230.505 101.752C230.446 102.118 230.278 102.457 230.023 102.726C229.512 103.254 229.063 103.675 228.557 104.118C228.052 104.562 227.547 104.955 227.013 105.348C225.927 106.141 224.778 106.844 223.577 107.448C222.309 108.085 220.974 108.577 219.596 108.914C218.856 109.084 218.106 109.206 217.35 109.279C216.556 109.346 215.758 109.346 214.963 109.279C214.738 109.256 214.517 109.202 214.307 109.116L214.082 109.02C212.226 108.217 210.493 107.157 208.933 105.87C207.454 104.677 206.077 103.363 204.817 101.94C203.587 100.577 202.435 99.1449 201.37 97.6499C200.842 96.9013 200.333 96.1526 199.842 95.4039C199.601 95.0165 199.359 94.6347 199.124 94.236C198.888 93.8374 198.674 93.4668 198.416 92.9839C197.938 92.1432 197.814 91.1471 198.07 90.2147C198.326 89.2822 198.943 88.4898 199.783 88.0118C200.624 87.5338 201.62 87.4093 202.553 87.6657C203.485 87.9221 204.277 88.5384 204.755 89.379L204.806 89.4689Z" fill="#263238"/>
<path opacity="0.3" d="M208.265 99.7383C206.075 95.2463 202.341 95.5046 200.836 96.8915L201.263 97.5147C202.282 98.9595 203.38 100.347 204.553 101.67C205.754 103.03 207.052 104.301 208.439 105.471C208.877 105.831 209.331 106.184 209.792 106.521C209.729 104.182 209.21 101.878 208.265 99.7383Z" fill="black"/>
<path d="M229.019 99.2458L231.826 96.9043L233.511 100.537C233.511 100.537 229.327 103.53 228.367 102.474L228.255 101.121C228.223 100.77 228.276 100.417 228.409 100.091C228.542 99.7644 228.751 99.4747 229.019 99.2458Z" fill="#B55B52"/>
<path d="M235.571 97.3471L236.452 100.155L233.488 100.52L231.814 96.8867L235.571 97.3471Z" fill="#B55B52"/>
<path d="M182.756 230.03H186.917L187.456 220.389H183.295L182.756 230.03Z" fill="#B55B52"/>
<path d="M187.136 229.547H182.459C182.42 229.546 182.381 229.552 182.344 229.565C182.308 229.579 182.274 229.6 182.245 229.626C182.216 229.653 182.193 229.685 182.177 229.72C182.161 229.756 182.152 229.794 182.15 229.833L181.92 233.534C181.92 233.728 181.996 233.915 182.133 234.054C182.27 234.193 182.455 234.272 182.65 234.275C184.278 234.247 185.059 234.151 187.114 234.151C188.377 234.151 191.864 234.281 193.61 234.281C195.357 234.281 195.295 232.551 194.571 232.394C191.246 231.698 189.029 230.709 187.833 229.805C187.636 229.643 187.391 229.552 187.136 229.547Z" fill="#263238"/>
<path opacity="0.2" d="M183.296 220.395H187.457L187.176 225.364H183.016L183.296 220.395Z" fill="black"/>
<path d="M197.53 124.355C197.53 124.355 197.17 160.522 196.496 172.442C195.755 185.492 188.961 224.162 188.961 224.162H181.336C181.336 224.162 184.66 186.542 184.2 173.627C183.7 159.59 183.397 124.355 183.397 124.355H197.53Z" fill="#263238"/>
<path d="M180.723 224.161H190.022L190.476 221.27L180.33 221.719L180.723 224.161Z" fill="#263238"/>
<path d="M188.607 230.271C188.228 230.263 187.852 230.214 187.484 230.125C187.465 230.122 187.448 230.113 187.434 230.099C187.421 230.086 187.412 230.069 187.408 230.05C187.404 230.031 187.406 230.012 187.414 229.994C187.421 229.977 187.434 229.962 187.45 229.951C187.585 229.856 188.758 229.053 189.269 229.255C189.327 229.277 189.377 229.313 189.417 229.361C189.456 229.408 189.483 229.464 189.494 229.525C189.52 229.615 189.523 229.711 189.503 229.804C189.482 229.896 189.439 229.982 189.376 230.052C189.155 230.217 188.881 230.295 188.607 230.271ZM187.765 229.985C188.511 230.131 189.062 230.109 189.253 229.918C189.295 229.872 189.324 229.815 189.337 229.754C189.35 229.692 189.346 229.629 189.326 229.57C189.321 229.539 189.308 229.51 189.288 229.486C189.268 229.463 189.243 229.445 189.213 229.435C188.944 229.328 188.247 229.676 187.765 229.985Z" fill="#106FA4"/>
<path d="M187.524 230.124C187.51 230.13 187.494 230.13 187.479 230.124C187.464 230.117 187.452 230.106 187.443 230.092C187.434 230.078 187.429 230.062 187.429 230.046C187.429 229.995 187.328 228.799 187.749 228.395C187.803 228.343 187.867 228.304 187.938 228.281C188.009 228.258 188.084 228.25 188.159 228.26C188.241 228.263 188.321 228.293 188.385 228.346C188.449 228.399 188.494 228.471 188.512 228.552C188.608 229.007 187.984 229.877 187.575 230.124C187.558 230.129 187.54 230.129 187.524 230.124ZM188.086 228.44C188.008 228.44 187.933 228.47 187.878 228.524C187.647 228.923 187.55 229.385 187.603 229.843C187.968 229.54 188.378 228.878 188.316 228.58C188.316 228.524 188.271 228.457 188.13 228.44H188.086Z" fill="#106FA4"/>
<path d="M203.909 90.5363C203.699 89.8342 203.302 89.2022 202.761 88.7078C202.22 88.2133 201.555 87.875 200.837 87.7288C199.811 87.4861 198.77 87.308 197.721 87.1954C194.57 87.0156 191.411 87.0156 188.26 87.1954C186.609 87.274 184.924 87.4762 183.582 87.6727H183.532C183.179 87.7223 182.84 87.8425 182.534 88.0259C182.229 88.2094 181.964 88.4524 181.754 88.7405C181.545 89.0287 181.395 89.3561 181.315 89.7032C181.234 90.0503 181.224 90.41 181.286 90.7609C182.343 96.3455 183.035 101.993 183.358 107.668C183.684 115.905 183.24 122.373 183.397 124.361H205.661C207.014 104.254 205.268 95.1182 203.909 90.5363Z" fill="#E6E6E6"/>
<path d="M188.889 86.8242C190.64 93.9328 192.258 111.946 192.229 126.028H182.819C182.65 123.928 183.122 117.112 182.779 108.425C182.442 102.454 181.72 96.5099 180.618 90.6312C180.554 90.2628 180.564 89.8853 180.648 89.5209C180.732 89.1564 180.887 88.8124 181.106 88.5091C181.325 88.2057 181.602 87.9491 181.921 87.7542C182.24 87.5594 182.595 87.4303 182.965 87.3745H183.015C184.43 87.1667 186.205 86.9534 187.945 86.8691L188.889 86.8242Z" fill="#263238"/>
<path d="M205.054 90.6363C204.815 89.8603 204.379 89.1593 203.789 88.6015C203.198 88.0436 202.474 87.6479 201.685 87.4526C200.197 87.2187 198.698 87.065 197.193 86.9922C198.973 93.1687 202.466 111.985 201.427 126.028H207.368C208.777 104.955 206.379 94.4882 205.054 90.6363Z" fill="#263238"/>
<path d="M239.755 110.104L195.458 129.06L190.135 116.685L234.437 97.7285L239.755 110.104Z" fill="#106FA4"/>
<path d="M202.37 117.298C202.572 117.769 202.629 118.288 202.536 118.791C202.442 119.294 202.201 119.758 201.844 120.125C201.486 120.491 201.028 120.743 200.528 120.849C200.027 120.955 199.506 120.911 199.031 120.721C198.556 120.531 198.147 120.205 197.857 119.783C197.568 119.361 197.409 118.863 197.403 118.351C197.396 117.84 197.541 117.337 197.819 116.908C198.098 116.479 198.498 116.142 198.968 115.939C199.28 115.805 199.616 115.733 199.957 115.729C200.297 115.724 200.635 115.787 200.951 115.913C201.267 116.039 201.555 116.227 201.799 116.464C202.042 116.702 202.236 116.985 202.37 117.298Z" fill="white"/>
<path d="M203.487 119.486C203.322 119.979 203.055 120.431 202.704 120.813C202.352 121.195 201.923 121.498 201.446 121.702C200.969 121.907 200.454 122.009 199.935 122C199.416 121.992 198.904 121.874 198.434 121.654C198.035 122.107 197.766 122.658 197.653 123.251C197.54 123.843 197.589 124.455 197.794 125.023L206.385 121.351C206.114 120.808 205.702 120.348 205.192 120.02C204.682 119.692 204.093 119.508 203.487 119.486Z" fill="white"/>
<path d="M233.455 104.567L207.564 115.646L206.98 114.276L232.871 103.197L233.455 104.567Z" fill="white"/>
<path d="M231.529 108.829L208.816 118.549L208.227 117.179L230.939 107.459L231.529 108.829Z" fill="white"/>
<path opacity="0.3" d="M185.727 97.8416C185.57 93.1194 182.083 91.317 181.1 92.586C181.057 92.6373 181.018 92.6917 180.982 92.7488C181.594 96.3873 182.341 101.396 182.667 106.331C184.323 105.377 185.873 102.328 185.727 97.8416Z" fill="black"/>
<path d="M197.272 87.1841C194.52 86.5328 194.038 84.8314 194.223 82.9617C194.267 82.4933 194.34 82.0282 194.442 81.5691L190.994 78.7055L188.462 76.6055C189.164 79.6544 189.955 85.2077 187.9 87.2403C187.9 87.2403 189.585 90.0478 194.318 89.8007C198.266 89.5817 197.272 87.1841 197.272 87.1841Z" fill="#B55B52"/>
<path d="M192.426 92.3103C192.752 91.3746 193.281 90.523 193.976 89.8172C191.863 89.1238 189.94 87.9472 188.361 86.3809L186.918 86.9424C186.918 86.9424 187.429 90.609 192.426 92.3103Z" fill="white"/>
<path d="M196.277 91.6817C195.652 90.9025 194.867 90.2667 193.975 89.8175C195.362 89.4244 195.901 86.6113 195.901 86.6113L197.254 86.8921C197.254 86.8921 199.752 90.5587 196.277 91.6817Z" fill="white"/>
<path opacity="0.2" d="M194.441 81.5687C194.339 82.0278 194.266 82.4929 194.222 82.9612C192.937 82.703 191.218 81.3329 191.039 80.019C190.976 79.584 190.96 79.1434 190.994 78.7051L194.441 81.5687Z" fill="black"/>
<path d="M196.047 66.5935C197.782 66.279 199.803 68.0983 198.854 71.7929C197.905 75.4876 193.396 67.0707 196.047 66.5935Z" fill="#263238"/>
<path d="M187.416 72.2206C188.298 76.269 188.606 78.6778 190.998 80.5251C191.769 81.1332 192.691 81.519 193.665 81.6408C194.639 81.7626 195.628 81.6159 196.525 81.2164C197.422 80.8169 198.192 80.1798 198.753 79.3742C199.314 78.5685 199.644 77.6248 199.707 76.6452C200.022 72.8775 198.534 66.8919 194.272 65.7465C193.356 65.4736 192.385 65.4463 191.456 65.6674C190.526 65.8885 189.671 66.3502 188.977 67.0061C188.282 67.662 187.772 68.4891 187.498 69.4044C187.224 70.3197 187.196 71.2909 187.416 72.2206Z" fill="#B55B52"/>
<path d="M189.045 76.6054C189.64 75.2016 190.168 71.2936 189.685 69.6709C191.622 69.6091 195.693 69.2497 197.389 67.3631C199.994 64.4657 196.558 61.0406 192.234 63.7695C189.427 65.527 183.368 65.1788 184.373 67.1385C181.42 70.3896 184.738 74.0618 189.045 76.6054Z" fill="#263238"/>
<path d="M184.368 67.2837C184.348 67.2836 184.328 67.2789 184.309 67.2702C184.291 67.2615 184.275 67.2488 184.262 67.2332C183.902 66.7896 183.79 66.419 183.914 66.1102C184.211 65.369 185.755 65.1669 187.535 64.9423C189.22 64.7289 191.084 64.4875 191.679 63.7294C191.706 63.705 191.741 63.6914 191.777 63.6914C191.814 63.6914 191.849 63.705 191.876 63.7294C191.889 63.742 191.9 63.7572 191.907 63.7741C191.914 63.7911 191.918 63.8093 191.918 63.8277C191.918 63.8461 191.914 63.8643 191.907 63.8812C191.9 63.8981 191.889 63.9133 191.876 63.926C191.207 64.7738 189.349 65.0096 187.552 65.2399C185.997 65.442 184.391 65.6441 184.183 66.2393C184.099 66.4527 184.183 66.7391 184.481 67.0928C184.506 67.1191 184.521 67.1543 184.521 67.1911C184.521 67.2278 184.506 67.2631 184.481 67.2893C184.444 67.3004 184.404 67.2984 184.368 67.2837Z" fill="#263238"/>
<path d="M186.793 75.488C187.276 76.244 188.006 76.8095 188.859 77.0883C189.943 77.414 190.313 76.4145 189.876 75.3589C189.477 74.4043 188.432 73.0848 187.416 73.2252C186.4 73.3656 186.181 74.5391 186.793 75.488Z" fill="#B55B52"/>
<path d="M193.212 72.6242C193.263 72.9555 193.482 73.1857 193.701 73.1857C193.92 73.1857 194.049 72.8713 193.998 72.54C193.948 72.2087 193.729 71.9785 193.51 71.9785C193.291 71.9785 193.162 72.293 193.212 72.6242Z" fill="#263238"/>
<path d="M196.979 72.1748C197.03 72.5061 197.249 72.7363 197.468 72.7363C197.687 72.7363 197.821 72.4162 197.765 72.0849C197.709 71.7537 197.496 71.5234 197.282 71.5234C197.069 71.5234 196.929 71.8435 196.979 72.1748Z" fill="#263238"/>
<path d="M196.4 72.4844C196.957 73.454 197.641 74.3453 198.433 75.1347C198.226 75.3241 197.98 75.4655 197.712 75.549C197.444 75.6325 197.161 75.6559 196.883 75.6175L196.4 72.4844Z" fill="#A02724"/>
<path d="M195.66 76.6791C195.27 76.6843 194.884 76.6104 194.524 76.4618C194.164 76.3131 193.838 76.0929 193.565 75.8144C193.557 75.8048 193.55 75.7936 193.546 75.7815C193.542 75.7694 193.54 75.7566 193.541 75.7438C193.542 75.7311 193.545 75.7186 193.551 75.7071C193.556 75.6956 193.564 75.6853 193.574 75.6768C193.583 75.6683 193.595 75.6618 193.607 75.6576C193.619 75.6535 193.632 75.6517 193.644 75.6525C193.657 75.6533 193.67 75.6566 193.681 75.6622C193.693 75.6678 193.703 75.6756 193.711 75.6852C194.014 75.9801 194.379 76.2029 194.78 76.3371C195.18 76.4712 195.606 76.5133 196.025 76.4601C196.038 76.4577 196.051 76.458 196.064 76.461C196.077 76.464 196.089 76.4697 196.099 76.4776C196.11 76.4855 196.119 76.4955 196.125 76.507C196.132 76.5185 196.136 76.5312 196.137 76.5443C196.139 76.5569 196.138 76.5696 196.134 76.5818C196.131 76.594 196.125 76.6053 196.117 76.6153C196.11 76.6252 196.1 76.6335 196.089 76.6396C196.078 76.6457 196.065 76.6496 196.053 76.651C195.923 76.6683 195.791 76.6777 195.66 76.6791Z" fill="#263238"/>
<path d="M191.982 71.5516C191.949 71.5493 191.916 71.5397 191.887 71.5235C191.864 71.5107 191.844 71.4935 191.828 71.473C191.812 71.4525 191.801 71.429 191.794 71.4039C191.787 71.3789 191.785 71.3527 191.789 71.327C191.792 71.3012 191.801 71.2764 191.814 71.254C191.958 70.9803 192.168 70.7465 192.425 70.5732C192.682 70.3999 192.977 70.2923 193.285 70.2601C193.311 70.2586 193.336 70.2622 193.361 70.2707C193.385 70.2792 193.408 70.2924 193.427 70.3096C193.446 70.3268 193.462 70.3477 193.473 70.371C193.485 70.3943 193.491 70.4196 193.493 70.4454C193.494 70.4712 193.49 70.4971 193.482 70.5215C193.473 70.5459 193.46 70.5684 193.443 70.5877C193.426 70.607 193.405 70.6228 193.382 70.634C193.358 70.6452 193.333 70.6517 193.307 70.6532C193.065 70.6819 192.833 70.7696 192.632 70.9086C192.432 71.0476 192.268 71.2336 192.156 71.4505C192.139 71.4815 192.114 71.5072 192.083 71.525C192.052 71.5428 192.018 71.552 191.982 71.5516Z" fill="#263238"/>
<path d="M198.668 70.6923C198.636 70.6925 198.604 70.6843 198.575 70.6686C198.547 70.6529 198.523 70.6301 198.506 70.6025C198.369 70.3901 198.186 70.2119 197.97 70.0814C197.754 69.951 197.51 69.8719 197.259 69.8501C197.207 69.8501 197.157 69.8294 197.12 69.7925C197.083 69.7557 197.062 69.7057 197.062 69.6536C197.062 69.6014 197.083 69.5514 197.12 69.5146C197.157 69.4777 197.207 69.457 197.259 69.457C197.575 69.4791 197.881 69.5743 198.154 69.7351C198.427 69.8958 198.659 70.1178 198.831 70.3835C198.859 70.4277 198.869 70.4811 198.859 70.5324C198.848 70.5837 198.818 70.629 198.775 70.6586C198.744 70.68 198.706 70.6917 198.668 70.6923Z" fill="#263238"/>
<path d="M186.238 93.4893L186.198 93.5511L186.103 93.7083L185.901 94.062C185.76 94.3147 185.626 94.573 185.491 94.8425C185.233 95.404 184.98 95.9655 184.755 96.527C184.307 97.703 183.95 98.912 183.689 100.143C183.167 102.685 183.014 105.289 183.234 107.875C183.264 108.419 183.337 108.96 183.453 109.492C183.581 110.03 183.759 110.554 183.986 111.059C184.507 112.21 185.145 113.305 185.89 114.327C187.529 116.544 189.363 118.611 191.37 120.503L191.448 120.582C191.761 120.885 191.954 121.291 191.993 121.724C192.032 122.158 191.913 122.591 191.66 122.946C191.406 123.3 191.034 123.551 190.611 123.654C190.188 123.757 189.742 123.705 189.354 123.507C187.946 122.787 186.598 121.955 185.323 121.02C184.026 120.083 182.803 119.046 181.667 117.92C180.462 116.721 179.406 115.381 178.523 113.928C178.038 113.137 177.634 112.3 177.316 111.429C177.005 110.548 176.778 109.64 176.636 108.717C176.345 107.092 176.195 105.444 176.187 103.793C176.161 102.121 176.287 100.45 176.563 98.8011C176.841 97.1271 177.279 95.4838 177.871 93.8936C178.173 93.0832 178.52 92.2902 178.91 91.5184C179.112 91.1254 179.32 90.738 179.556 90.3505C179.674 90.154 179.797 89.9575 179.926 89.7553L180.134 89.4521L180.415 89.0647C181.009 88.325 181.868 87.846 182.81 87.729C183.752 87.6121 184.702 87.8664 185.459 88.4382C186.216 89.01 186.721 89.8542 186.867 90.7919C187.012 91.7296 186.786 92.687 186.238 93.4612V93.4893Z" fill="#263238"/>
<path d="M192.56 120.549L194.879 120.426L192.189 124.918C192.189 124.918 188.438 124.441 188.82 122.526L189.342 121.964C190.197 121.101 191.347 120.596 192.56 120.549Z" fill="#B55B52"/>
<path d="M197.282 122.037L195.261 126.81L192.189 124.935L194.879 120.426L197.282 122.037Z" fill="#B55B52"/>
</g>
<defs>
<clipPath id="clip0_2239_16366">
<rect width="280.75" height="280.75" fill="white" transform="translate(0.617188 0.421875)"/>
</clipPath>
</defs>
</svg>
