<svg width="281" height="281" viewBox="0 0 281 281" fill="none" xmlns="http://www.w3.org/2000/svg">
<g clip-path="url(#clip0_3469_21949)">
<path d="M280.875 214.719H0.125V214.859H280.875V214.719Z" fill="#EBEBEB"/>
<path d="M252.744 223.752H234.147V223.892H252.744V223.752Z" fill="#EBEBEB"/>
<path d="M186.105 225.279H181.226V225.42H186.105V225.279Z" fill="#EBEBEB"/>
<path d="M233.585 218.541H222.81V218.681H233.585V218.541Z" fill="#EBEBEB"/>
<path d="M53.8322 219.484H29.5811V219.625H53.8322V219.484Z" fill="#EBEBEB"/>
<path d="M62.3897 219.484H58.8354V219.625H62.3897V219.484Z" fill="#EBEBEB"/>
<path d="M126.547 221.855H73.9453V221.996H126.547V221.855Z" fill="#EBEBEB"/>
<path d="M133.201 189.675H24.7806C23.9313 189.674 23.1172 189.335 22.5172 188.734C21.9171 188.133 21.5801 187.318 21.5801 186.469V34.0609C21.5875 33.2164 21.9278 32.409 22.527 31.8139C23.1263 31.2188 23.9361 30.8843 24.7806 30.8828H133.201C134.051 30.8828 134.867 31.2206 135.468 31.8219C136.069 32.4231 136.407 33.2386 136.407 34.089V186.469C136.407 187.319 136.069 188.135 135.468 188.736C134.867 189.337 134.051 189.675 133.201 189.675ZM24.7806 30.9951C23.9685 30.9966 23.1902 31.3203 22.6164 31.895C22.0427 32.4698 21.7205 33.2488 21.7205 34.0609V186.469C21.7205 187.281 22.0427 188.06 22.6164 188.635C23.1902 189.209 23.9685 189.533 24.7806 189.535H133.201C134.013 189.533 134.792 189.21 135.367 188.635C135.941 188.06 136.265 187.281 136.266 186.469V34.0609C136.265 33.2483 135.941 32.4693 135.367 31.8947C134.792 31.3201 134.013 30.9966 133.201 30.9951H24.7806Z" fill="#EBEBEB"/>
<path d="M254.659 189.675H146.233C145.383 189.674 144.569 189.335 143.968 188.734C143.367 188.133 143.028 187.319 143.027 186.469V34.0609C143.036 33.2159 143.377 32.4085 143.977 31.8136C144.578 31.2187 145.388 30.8842 146.233 30.8828H254.659C255.502 30.8857 256.311 31.221 256.909 31.8159C257.507 32.4108 257.846 33.2174 257.854 34.0609V186.469C257.854 187.317 257.517 188.131 256.919 188.732C256.32 189.333 255.507 189.672 254.659 189.675ZM146.233 30.9951C145.42 30.9966 144.641 31.3201 144.067 31.8947C143.492 32.4693 143.169 33.2483 143.167 34.0609V186.469C143.169 187.281 143.492 188.06 144.067 188.635C144.641 189.21 145.42 189.533 146.233 189.535H254.659C255.471 189.533 256.25 189.21 256.825 188.635C257.399 188.06 257.723 187.281 257.724 186.469V34.0609C257.723 33.2483 257.399 32.4693 256.825 31.8947C256.25 31.3201 255.471 30.9966 254.659 30.9951H146.233Z" fill="#EBEBEB"/>
<path d="M176.459 59.6211H124.829V175.93H176.459V59.6211Z" fill="#EBEBEB"/>
<path d="M174.51 173.751V61.8047H126.777V173.751H174.51Z" fill="#FAFAFA"/>
<path d="M151.191 61.2383H150.096V174.835H151.191V61.2383Z" fill="#F5F5F5"/>
<path d="M177.649 58.1035H123.638V63.5781H177.649V58.1035Z" fill="#E0E0E0"/>
<path d="M177.649 64.1855H123.638V64.8369H177.649V64.1855Z" fill="#F5F5F5"/>
<path d="M177.649 65.6562H123.638V66.3076H177.649V65.6562Z" fill="#F5F5F5"/>
<path d="M177.649 67.127H123.638V67.7783H177.649V67.127Z" fill="#F5F5F5"/>
<path d="M177.649 68.6035H123.638V69.2549H177.649V68.6035Z" fill="#F5F5F5"/>
<path d="M177.649 70.0762H123.638V70.7275H177.649V70.0762Z" fill="#F5F5F5"/>
<path d="M177.649 71.5469H123.638V72.1982H177.649V71.5469Z" fill="#F5F5F5"/>
<path d="M177.649 73.0176H123.638V73.6689H177.649V73.0176Z" fill="#F5F5F5"/>
<path d="M177.649 74.4941H123.638V75.1455H177.649V74.4941Z" fill="#F5F5F5"/>
<path d="M177.649 75.9648H123.638V76.6162H177.649V75.9648Z" fill="#F5F5F5"/>
<path d="M177.649 77.4375H123.638V78.0888H177.649V77.4375Z" fill="#F5F5F5"/>
<path d="M177.649 78.9082H123.638V79.5595H177.649V78.9082Z" fill="#F5F5F5"/>
<path d="M177.649 80.3848H123.638V81.0361H177.649V80.3848Z" fill="#F5F5F5"/>
<path d="M177.649 81.8555H123.638V82.5068H177.649V81.8555Z" fill="#F5F5F5"/>
<path d="M177.649 83.3262H123.638V83.9775H177.649V83.3262Z" fill="#F5F5F5"/>
<path d="M177.649 84.7988H123.638V85.4502H177.649V84.7988Z" fill="#F5F5F5"/>
<path d="M177.649 86.2754H123.638V86.9267H177.649V86.2754Z" fill="#F5F5F5"/>
<path d="M177.649 87.7461H123.638V88.3974H177.649V87.7461Z" fill="#F5F5F5"/>
<path d="M177.649 89.2168H123.638V89.8681H177.649V89.2168Z" fill="#F5F5F5"/>
<path d="M237.584 59.6211H185.954V175.93H237.584V59.6211Z" fill="#EBEBEB"/>
<path d="M235.635 173.751V61.8047H187.902V173.751H235.635Z" fill="#FAFAFA"/>
<path d="M212.316 61.2383H211.221V174.835H212.316V61.2383Z" fill="#F5F5F5"/>
<path d="M238.774 58.1035H184.763V63.5781H238.774V58.1035Z" fill="#E0E0E0"/>
<path d="M238.774 64.1855H184.763V64.8369H238.774V64.1855Z" fill="#F5F5F5"/>
<path d="M238.774 65.6562H184.763V66.3076H238.774V65.6562Z" fill="#F5F5F5"/>
<path d="M238.774 67.127H184.763V67.7783H238.774V67.127Z" fill="#F5F5F5"/>
<path d="M238.774 68.6035H184.763V69.2549H238.774V68.6035Z" fill="#F5F5F5"/>
<path d="M238.774 70.0762H184.763V70.7275H238.774V70.0762Z" fill="#F5F5F5"/>
<path d="M238.774 71.5469H184.763V72.1982H238.774V71.5469Z" fill="#F5F5F5"/>
<path d="M238.774 73.0176H184.763V73.6689H238.774V73.0176Z" fill="#F5F5F5"/>
<path d="M238.774 74.4941H184.763V75.1455H238.774V74.4941Z" fill="#F5F5F5"/>
<path d="M238.774 75.9648H184.763V76.6162H238.774V75.9648Z" fill="#F5F5F5"/>
<path d="M238.774 77.4375H184.763V78.0888H238.774V77.4375Z" fill="#F5F5F5"/>
<path d="M238.774 78.9082H184.763V79.5595H238.774V78.9082Z" fill="#F5F5F5"/>
<path d="M238.774 80.3848H184.763V81.0361H238.774V80.3848Z" fill="#F5F5F5"/>
<path d="M238.774 81.8555H184.763V82.5068H238.774V81.8555Z" fill="#F5F5F5"/>
<path d="M238.774 83.3262H184.763V83.9775H238.774V83.3262Z" fill="#F5F5F5"/>
<path d="M238.774 84.7988H184.763V85.4502H238.774V84.7988Z" fill="#F5F5F5"/>
<path d="M238.774 86.2754H184.763V86.9267H238.774V86.2754Z" fill="#F5F5F5"/>
<path d="M238.774 87.7461H184.763V88.3974H238.774V87.7461Z" fill="#F5F5F5"/>
<path d="M238.774 89.2168H184.763V89.8681H238.774V89.2168Z" fill="#F5F5F5"/>
<path d="M105.412 126.404V75.9199H40.4466V126.404H105.412Z" fill="#E0E0E0"/>
<path d="M41.3447 125.506L104.508 125.506V76.8238H41.3447L41.3447 125.506Z" fill="#EBEBEB"/>
<path d="M72.1484 85.6172H71.5869V92.4057H72.1484V85.6172Z" fill="#E0E0E0"/>
<path d="M56.7129 114.259H56.1514V92.125H85.3662V104.944H84.8047V92.6865H56.7129V114.259Z" fill="#E0E0E0"/>
<path d="M93.7044 111.846H93.1429V105.226H77.9487V111.615H77.3872V104.664H93.7044V111.846Z" fill="#E0E0E0"/>
<path d="M79.1168 83.125H64.6245V88.1111H79.1168V83.125Z" fill="#F5F5F5"/>
<path d="M92.2055 95.0898H78.3926V100.508H92.2055V95.0898Z" fill="#F5F5F5"/>
<path d="M82.4185 108.818H72.9292V114.411H82.4185V108.818Z" fill="#F5F5F5"/>
<path d="M98.4998 109.723H88.3423V113.968H98.4998V109.723Z" fill="#F5F5F5"/>
<path d="M65.4556 96.2422H49.7617V103.48H65.4556V96.2422Z" fill="#F5F5F5"/>
<path d="M61.4407 111.615H51.418V116.905H61.4407V111.615Z" fill="#F5F5F5"/>
<path d="M74.0315 92.5877L71.8677 90.4238L69.7038 92.5877L71.8677 94.7516L74.0315 92.5877Z" fill="#F5F5F5"/>
<path d="M87.2459 104.941L85.082 102.777L82.9182 104.941L85.082 107.105L87.2459 104.941Z" fill="#F5F5F5"/>
<path d="M72.9293 68.8186C77.9841 68.8186 82.0818 64.7209 82.0818 59.6661C82.0818 54.6114 77.9841 50.5137 72.9293 50.5137C67.8745 50.5137 63.7769 54.6114 63.7769 59.6661C63.7769 64.7209 67.8745 68.8186 72.9293 68.8186Z" fill="#E0E0E0"/>
<path d="M72.9289 67.4476C77.227 67.4476 80.7113 63.9633 80.7113 59.6652C80.7113 55.3671 77.227 51.8828 72.9289 51.8828C68.6308 51.8828 65.1465 55.3671 65.1465 59.6652C65.1465 63.9633 68.6308 67.4476 72.9289 67.4476Z" fill="#F0F0F0"/>
<path d="M73.2939 54.3262V59.7671L76.8988 57.7289" fill="#F0F0F0"/>
<path d="M73.2939 60.3276C73.1956 60.3283 73.0988 60.3031 73.0132 60.2546C72.9275 60.2051 72.8564 60.1339 72.8071 60.0481C72.7578 59.9623 72.732 59.8651 72.7324 59.7661V54.3252C72.7324 54.1763 72.7916 54.0334 72.8969 53.9281C73.0022 53.8228 73.145 53.7637 73.2939 53.7637C73.4428 53.7637 73.5857 53.8228 73.691 53.9281C73.7963 54.0334 73.8554 54.1763 73.8554 54.3252V58.8172L76.6236 57.2506C76.7532 57.1761 76.907 57.1562 77.0513 57.1951C77.1955 57.2341 77.3184 57.3288 77.3929 57.4583C77.4673 57.5879 77.4873 57.7417 77.4483 57.886C77.4094 58.0303 77.3147 58.1531 77.1851 58.2276L73.5747 60.2658C73.488 60.3104 73.3913 60.3317 73.2939 60.3276Z" fill="#E0E0E0"/>
<path d="M140.5 240.076C200.627 240.076 249.369 237.23 249.369 233.719C249.369 230.209 200.627 227.363 140.5 227.363C80.3733 227.363 31.6309 230.209 31.6309 233.719C31.6309 237.23 80.3733 240.076 140.5 240.076Z" fill="#F5F5F5"/>
<path d="M55.416 217.475H54.8882C54.8882 216.689 55.5395 198.131 58.7682 195.015C62.0866 191.781 65.989 194.965 66.0283 195.015L65.6858 195.425C65.5455 195.302 62.1147 192.516 59.1387 195.425C56.0617 198.35 55.4216 217.301 55.416 217.475Z" fill="#106FA4"/>
<path d="M55.1521 221.198L54.6243 221.148C54.6243 220.923 56.7074 198.62 48.6274 189.35L49.0317 189.002C57.2577 198.446 55.1521 220.974 55.1521 221.198Z" fill="#106FA4"/>
<path d="M55.4107 218.818C55.3377 217.763 53.7823 192.989 59.9925 187.268L60.3519 187.655C54.327 193.197 55.9216 218.538 55.9385 218.785L55.4107 218.818Z" fill="#106FA4"/>
<path d="M54.6243 218.8C54.6243 218.632 54.4277 201.955 50.0144 199.446C49.6382 199.199 49.2083 199.046 48.7607 199C48.3132 198.954 47.8611 199.016 47.4427 199.182C44.8486 200.248 43.4729 205.195 43.4617 205.246L42.9507 205.105C43.0068 204.892 44.405 199.861 47.2405 198.687C47.7338 198.491 48.2671 198.415 48.7956 198.467C49.3241 198.519 49.8325 198.696 50.2783 198.985C54.9556 201.663 55.1465 218.076 55.1521 218.795L54.6243 218.8Z" fill="#106FA4"/>
<path d="M56.4378 218.817C56.4097 218.256 55.7247 205.65 59.307 200.978C60.256 199.738 61.3116 199.142 62.4571 199.227C65.0007 199.406 66.9491 202.854 67.0614 203L66.5953 203.258C66.5953 203.224 64.6806 199.889 62.4234 199.754C61.4688 199.687 60.5592 200.209 59.7282 201.299C56.2637 205.819 56.96 218.654 56.9712 218.784L56.4378 218.817Z" fill="#106FA4"/>
<path d="M55.7135 220.564L55.1857 220.525C55.1857 220.222 57.4317 190.131 53.7314 185.117L54.1582 184.797C57.9932 189.974 55.8202 219.318 55.7135 220.564Z" fill="#106FA4"/>
<path d="M46.2075 201.686C46.2075 201.686 48.504 202.528 47.819 204.527C47.1339 206.526 39.8906 209.805 39.8906 209.805C39.8906 209.805 36.8529 206.998 39.6379 202.506C42.423 198.014 46.1682 200.254 46.2075 201.686Z" fill="#106FA4"/>
<path opacity="0.4" d="M46.2075 201.686C46.2075 201.686 48.504 202.528 47.819 204.527C47.1339 206.526 39.8906 209.805 39.8906 209.805C39.8906 209.805 36.8529 206.998 39.6379 202.506C42.423 198.014 46.1682 200.254 46.2075 201.686Z" fill="white"/>
<path d="M56.174 197.885C56.174 197.885 53.7315 197.784 53.5967 199.89C53.4619 201.995 58.886 207.812 58.886 207.812C58.886 207.812 62.7548 206.414 61.9238 201.164C61.0927 195.914 56.7804 196.594 56.174 197.885Z" fill="#106FA4"/>
<path opacity="0.4" d="M56.174 197.885C56.174 197.885 53.7315 197.784 53.5967 199.89C53.4619 201.995 58.886 207.812 58.886 207.812C58.886 207.812 62.7548 206.414 61.9238 201.164C61.0927 195.914 56.7804 196.594 56.174 197.885Z" fill="white"/>
<path d="M58.2403 187.817C58.2403 187.817 56.6119 187.637 56.7467 186.649C56.8815 185.661 63.0748 183.106 66.7302 187.211C66.7302 187.211 64.3887 191.231 61.0029 191.281C57.617 191.332 58.2403 187.817 58.2403 187.817Z" fill="#106FA4"/>
<path opacity="0.4" d="M58.2403 187.817C58.2403 187.817 56.6119 187.637 56.7467 186.649C56.8815 185.661 63.0748 183.106 66.7302 187.211C66.7302 187.211 64.3887 191.231 61.0029 191.281C57.617 191.332 58.2403 187.817 58.2403 187.817Z" fill="white"/>
<path d="M55.2084 185.408C55.2084 185.408 56.6851 186.121 57.095 185.212C57.5049 184.302 53.6025 178.855 48.3131 180.422C48.3131 180.422 48.1728 185.077 51.0196 186.907C53.8664 188.738 55.2084 185.408 55.2084 185.408Z" fill="#106FA4"/>
<path opacity="0.4" d="M55.2084 185.408C55.2084 185.408 56.6851 186.121 57.095 185.212C57.5049 184.302 53.6025 178.855 48.3131 180.422C48.3131 180.422 48.1728 185.077 51.0196 186.907C53.8664 188.738 55.2084 185.408 55.2084 185.408Z" fill="white"/>
<path d="M62.9177 200.883C62.9177 200.883 61.7947 199.973 63.0019 199.535C64.2091 199.097 70.1666 199.215 70.2284 205.111C70.2284 205.111 63.2995 206.234 62.4404 203.988C61.5813 201.742 62.9177 200.883 62.9177 200.883Z" fill="#106FA4"/>
<path opacity="0.4" d="M62.9177 200.883C62.9177 200.883 61.7947 199.973 63.0019 199.535C64.2091 199.097 70.1666 199.215 70.2284 205.111C70.2284 205.111 63.2995 206.234 62.4404 203.988C61.5813 201.742 62.9177 200.883 62.9177 200.883Z" fill="white"/>
<path d="M48.7905 187.666C48.7905 187.666 49.9135 186.762 48.7006 186.319C47.4878 185.875 41.5359 185.999 41.4741 191.894C41.4741 191.894 48.403 193.045 49.2621 190.799C50.1212 188.553 48.7905 187.666 48.7905 187.666Z" fill="#106FA4"/>
<path opacity="0.4" d="M48.7905 187.666C48.7905 187.666 49.9135 186.762 48.7006 186.319C47.4878 185.875 41.5359 185.999 41.4741 191.894C41.4741 191.894 48.403 193.045 49.2621 190.799C50.1212 188.553 48.7905 187.666 48.7905 187.666Z" fill="white"/>
<path d="M52.4513 192.415C52.4513 192.415 52.5468 191.292 51.6596 191.741C50.7724 192.19 47.6673 195.52 50.8847 198.692C50.8847 198.692 55.2083 195.492 54.4278 193.818C53.6473 192.145 52.4513 192.415 52.4513 192.415Z" fill="#106FA4"/>
<path opacity="0.4" d="M52.4513 192.415C52.4513 192.415 52.5468 191.292 51.6596 191.741C50.7724 192.19 47.6673 195.52 50.8847 198.692C50.8847 198.692 55.2083 195.492 54.4278 193.818C53.6473 192.145 52.4513 192.415 52.4513 192.415Z" fill="white"/>
<path d="M63.9174 193.982C63.9174 193.982 63.2492 193.106 64.2318 192.994C65.2145 192.881 69.6222 194.06 68.5947 198.463C68.5947 198.463 63.2268 198.058 62.9797 196.217C62.7326 194.375 63.9174 193.982 63.9174 193.982Z" fill="#106FA4"/>
<path opacity="0.4" d="M63.9174 193.982C63.9174 193.982 63.2492 193.106 64.2318 192.994C65.2145 192.881 69.6222 194.06 68.5947 198.463C68.5947 198.463 63.2268 198.058 62.9797 196.217C62.7326 194.375 63.9174 193.982 63.9174 193.982Z" fill="white"/>
<path d="M46.6063 235.134H63.9679L66.2757 218.25H44.3042L46.6063 235.134Z" fill="#263238"/>
<path opacity="0.2" d="M46.6063 235.134H63.9679L66.2757 218.25H44.3042L46.6063 235.134Z" fill="white"/>
<path d="M68.4484 216.885V218.485C68.4491 218.74 68.3994 218.993 68.302 219.229C68.2046 219.465 68.0615 219.68 67.881 219.86C67.7004 220.041 67.486 220.184 67.2499 220.281C67.0139 220.379 66.7609 220.429 66.5056 220.428H43.849C43.5937 220.429 43.3407 220.379 43.1047 220.281C42.8687 220.184 42.6542 220.041 42.4736 219.86C42.2931 219.68 42.15 219.465 42.0526 219.229C41.9553 218.993 41.9055 218.74 41.9063 218.485V216.885H68.4484Z" fill="#263238"/>
<path d="M209.211 220.265C209.084 220.006 209.023 219.72 209.031 219.432C209.039 219.144 209.116 218.862 209.257 218.61C209.398 218.359 209.597 218.145 209.839 217.987C210.08 217.829 210.356 217.733 210.643 217.705C210.395 216.968 210.378 216.174 210.593 215.427C210.809 214.681 211.248 214.018 211.85 213.527C211.997 213.396 212.182 213.315 212.378 213.297C212.586 213.318 212.783 213.404 212.939 213.544L216.308 215.947C216.576 216.11 216.803 216.333 216.971 216.598C217.656 217.924 215.191 219.619 216.202 220.714C216.494 221.029 216.965 221.09 217.325 221.321C218.122 221.815 218.217 222.91 218.588 223.769C218.959 224.628 220.272 225.302 220.75 224.504C220.385 223.679 221.485 222.966 222.384 222.859C223.282 222.753 224.22 222.708 224.714 221.865C225.989 222.988 228.841 219.872 228.774 218.62C229.824 218.699 230.537 219.681 230.767 220.658C230.912 221.692 230.948 222.739 230.874 223.78C230.907 225.807 231.559 227.795 231.525 229.822C231.497 231.4 230.885 233.152 229.442 233.786C228.722 234.04 227.957 234.143 227.196 234.089L210.744 233.983C210.349 234.008 209.953 233.942 209.587 233.792C208.846 233.404 208.689 232.427 208.621 231.591C208.329 228.019 208.035 224.446 207.74 220.872L209.211 220.265Z" fill="#106FA4"/>
<path opacity="0.3" d="M209.211 220.265C209.084 220.006 209.023 219.72 209.031 219.432C209.039 219.144 209.116 218.862 209.257 218.61C209.398 218.359 209.597 218.145 209.839 217.987C210.08 217.829 210.356 217.733 210.643 217.705C210.395 216.968 210.378 216.174 210.593 215.427C210.809 214.681 211.248 214.018 211.85 213.527C211.997 213.396 212.182 213.315 212.378 213.297C212.586 213.318 212.783 213.404 212.939 213.544L216.308 215.947C216.576 216.11 216.803 216.333 216.971 216.598C217.656 217.924 215.191 219.619 216.202 220.714C216.494 221.029 216.965 221.09 217.325 221.321C218.122 221.815 218.217 222.91 218.588 223.769C218.959 224.628 220.272 225.302 220.75 224.504C220.385 223.679 221.485 222.966 222.384 222.859C223.282 222.753 224.22 222.708 224.714 221.865C225.989 222.988 228.841 219.872 228.774 218.62C229.824 218.699 230.537 219.681 230.767 220.658C230.912 221.692 230.948 222.739 230.874 223.78C230.907 225.807 231.559 227.795 231.525 229.822C231.497 231.4 230.885 233.152 229.442 233.786C228.722 234.04 227.957 234.143 227.196 234.089L210.744 233.983C210.349 234.008 209.953 233.942 209.587 233.792C208.846 233.404 208.689 232.427 208.621 231.591C208.329 228.019 208.035 224.446 207.74 220.872L209.211 220.265Z" fill="white"/>
<path d="M205.375 202.881L205.589 205.458L205.735 207.3L206.122 212.095L206.341 214.841L206.644 218.507L206.757 220.108L206.79 220.574L206.942 222.415L207.144 224.953L207.273 226.52L207.402 228.109L207.554 229.956L207.666 231.366L207.796 232.932L207.88 233.584H231.306L231.362 232.899L231.463 231.338L231.575 229.94L231.727 228.092L231.861 226.498L231.985 224.931L232.187 222.399L232.339 220.551L232.384 220.085L232.507 218.513L232.799 214.846L233.024 212.095L233.411 207.305L233.563 205.464L233.771 202.886H205.375V202.881ZM206.673 204.077H207.206L206.712 204.571L206.673 204.077ZM208.919 204.077H209.48L211.827 206.424L209.205 209.041L206.92 206.761L206.875 206.132L208.919 204.077ZM207.386 212.55L209.194 210.742L211.81 213.37L209.188 215.992L207.504 214.307L207.386 212.55ZM231.665 214.302L229.98 215.986L227.358 213.37L229.975 210.759L231.788 212.567L231.665 214.302ZM212.664 207.266L215.28 209.888L212.664 212.511L210.042 209.888L212.664 207.266ZM212.664 205.582L211.165 204.082H214.163L212.664 205.582ZM216.128 210.747L218.75 213.358L216.128 215.981L213.495 213.37L216.128 210.747ZM219.593 219.445L216.982 216.829L219.593 214.212L222.215 216.829L219.593 219.445ZM223.063 217.676L225.679 220.299L223.04 222.915L220.418 220.293L223.063 217.676ZM218.75 220.293L216.106 222.915L213.495 220.293L216.111 217.671L218.75 220.293ZM216.982 209.894L219.593 207.272L222.215 209.894L219.593 212.516L216.982 209.894ZM223.04 210.742L225.657 213.353L223.04 215.975L220.424 213.37L223.04 210.742ZM223.888 209.888L226.51 207.266L229.127 209.888L226.51 212.511L223.888 209.888ZM229.127 216.823L226.51 219.439L223.888 216.823L226.51 214.206L229.127 216.823ZM226.51 221.141L229.127 223.757L226.51 226.374L223.888 223.757L226.51 221.141ZM225.657 227.227L223.04 229.844L220.424 227.227L223.04 224.6L225.657 227.227ZM219.57 226.374L216.959 223.757L219.57 221.141L222.192 223.757L219.57 226.374ZM218.728 227.227L216.106 229.844L213.495 227.227L216.111 224.605L218.728 227.227ZM215.258 230.692L213.573 232.376H211.726L210.042 230.692L212.664 228.07L215.258 230.692ZM212.641 226.374L210.019 223.757L212.641 221.141L215.258 223.757L212.641 226.374ZM212.641 219.439L210.019 216.823L212.641 214.206L215.258 216.823L212.641 219.439ZM215.831 204.077H216.392L218.739 206.424L216.117 209.041L213.495 206.424L215.831 204.077ZM218.077 204.077H221.069L219.57 205.576L218.077 204.077ZM222.76 204.077H223.321L225.662 206.424L223.04 209.041L220.424 206.424L222.76 204.077ZM228.004 204.077L226.51 205.576L225.011 204.077H228.004ZM230.25 204.077L232.305 206.132L232.254 206.761L229.975 209.041L227.358 206.424L229.7 204.077H230.25ZM232.496 204.077L232.451 204.565L231.968 204.077H232.496ZM231.934 210.978L230.845 209.888L232.125 208.608L231.934 210.978ZM231.412 217.39L230.851 216.829L231.525 216.155L231.418 217.396L231.412 217.39ZM231.053 221.854L229.975 222.915L227.358 220.299L229.975 217.676L231.266 218.973L231.053 221.854ZM230.901 223.814L230.845 223.757L230.907 223.701V223.814H230.901ZM230.441 229.395L229.997 229.838L227.381 227.227L229.997 224.605L230.772 225.38L230.441 229.395ZM229.149 232.388L229.997 231.54L230.25 231.787L230.205 232.388H229.149ZM227.465 232.388H225.618L223.933 230.703L226.555 228.081L229.172 230.703L227.465 232.388ZM222.22 232.388L223.074 231.54L223.922 232.388H222.22ZM218.683 232.388L216.999 230.703L219.61 228.081L222.232 230.703L220.547 232.388H218.683ZM215.286 232.388L216.139 231.54L216.993 232.388H215.286ZM208.952 231.787L209.205 231.54L210.058 232.388H209.003L208.952 231.787ZM208.436 225.38L209.171 224.6L211.793 227.222L209.171 229.833L208.722 229.389L208.436 225.38ZM208.295 223.696L208.363 223.757L208.307 223.814V223.696H208.295ZM207.88 218.985L209.171 217.688L211.793 220.31L209.171 222.915L208.11 221.86L207.88 218.985ZM207.65 216.177L208.329 216.851L207.767 217.412L207.65 216.177ZM207.038 208.597L208.329 209.888L207.206 211.011L207.015 208.619L207.038 208.597Z" fill="#106FA4"/>
<g opacity="0.6">
<path d="M205.375 202.881L205.589 205.458L205.735 207.3L206.122 212.095L206.341 214.841L206.644 218.507L206.757 220.108L206.79 220.574L206.942 222.415L207.144 224.953L207.273 226.52L207.402 228.109L207.554 229.956L207.666 231.366L207.796 232.932L207.88 233.584H231.306L231.362 232.899L231.463 231.338L231.575 229.94L231.727 228.092L231.861 226.498L231.985 224.931L232.187 222.399L232.339 220.551L232.384 220.085L232.507 218.513L232.799 214.846L233.024 212.095L233.411 207.305L233.563 205.464L233.771 202.886H205.375V202.881ZM206.673 204.077H207.206L206.712 204.571L206.673 204.077ZM208.919 204.077H209.48L211.827 206.424L209.205 209.041L206.92 206.761L206.875 206.132L208.919 204.077ZM207.386 212.55L209.194 210.742L211.81 213.37L209.188 215.992L207.504 214.307L207.386 212.55ZM231.665 214.302L229.98 215.986L227.358 213.37L229.975 210.759L231.788 212.567L231.665 214.302ZM212.664 207.266L215.28 209.888L212.664 212.511L210.042 209.888L212.664 207.266ZM212.664 205.582L211.165 204.082H214.163L212.664 205.582ZM216.128 210.747L218.75 213.358L216.128 215.981L213.495 213.37L216.128 210.747ZM219.593 219.445L216.982 216.829L219.593 214.212L222.215 216.829L219.593 219.445ZM223.063 217.676L225.679 220.299L223.04 222.915L220.418 220.293L223.063 217.676ZM218.75 220.293L216.106 222.915L213.495 220.293L216.111 217.671L218.75 220.293ZM216.982 209.894L219.593 207.272L222.215 209.894L219.593 212.516L216.982 209.894ZM223.04 210.742L225.657 213.353L223.04 215.975L220.424 213.37L223.04 210.742ZM223.888 209.888L226.51 207.266L229.127 209.888L226.51 212.511L223.888 209.888ZM229.127 216.823L226.51 219.439L223.888 216.823L226.51 214.206L229.127 216.823ZM226.51 221.141L229.127 223.757L226.51 226.374L223.888 223.757L226.51 221.141ZM225.657 227.227L223.04 229.844L220.424 227.227L223.04 224.6L225.657 227.227ZM219.57 226.374L216.959 223.757L219.57 221.141L222.192 223.757L219.57 226.374ZM218.728 227.227L216.106 229.844L213.495 227.227L216.111 224.605L218.728 227.227ZM215.258 230.692L213.573 232.376H211.726L210.042 230.692L212.664 228.07L215.258 230.692ZM212.641 226.374L210.019 223.757L212.641 221.141L215.258 223.757L212.641 226.374ZM212.641 219.439L210.019 216.823L212.641 214.206L215.258 216.823L212.641 219.439ZM215.831 204.077H216.392L218.739 206.424L216.117 209.041L213.495 206.424L215.831 204.077ZM218.077 204.077H221.069L219.57 205.576L218.077 204.077ZM222.76 204.077H223.321L225.662 206.424L223.04 209.041L220.424 206.424L222.76 204.077ZM228.004 204.077L226.51 205.576L225.011 204.077H228.004ZM230.25 204.077L232.305 206.132L232.254 206.761L229.975 209.041L227.358 206.424L229.7 204.077H230.25ZM232.496 204.077L232.451 204.565L231.968 204.077H232.496ZM231.934 210.978L230.845 209.888L232.125 208.608L231.934 210.978ZM231.412 217.39L230.851 216.829L231.525 216.155L231.418 217.396L231.412 217.39ZM231.053 221.854L229.975 222.915L227.358 220.299L229.975 217.676L231.266 218.973L231.053 221.854ZM230.901 223.814L230.845 223.757L230.907 223.701V223.814H230.901ZM230.441 229.395L229.997 229.838L227.381 227.227L229.997 224.605L230.772 225.38L230.441 229.395ZM229.149 232.388L229.997 231.54L230.25 231.787L230.205 232.388H229.149ZM227.465 232.388H225.618L223.933 230.703L226.555 228.081L229.172 230.703L227.465 232.388ZM222.22 232.388L223.074 231.54L223.922 232.388H222.22ZM218.683 232.388L216.999 230.703L219.61 228.081L222.232 230.703L220.547 232.388H218.683ZM215.286 232.388L216.139 231.54L216.993 232.388H215.286ZM208.952 231.787L209.205 231.54L210.058 232.388H209.003L208.952 231.787ZM208.436 225.38L209.171 224.6L211.793 227.222L209.171 229.833L208.722 229.389L208.436 225.38ZM208.295 223.696L208.363 223.757L208.307 223.814V223.696H208.295ZM207.88 218.985L209.171 217.688L211.793 220.31L209.171 222.915L208.11 221.86L207.88 218.985ZM207.65 216.177L208.329 216.851L207.767 217.412L207.65 216.177ZM207.038 208.597L208.329 209.888L207.206 211.011L207.015 208.619L207.038 208.597Z" fill="white"/>
</g>
<path d="M234.484 201.809H204.663C204.154 201.809 203.742 202.221 203.742 202.729V204.229C203.742 204.737 204.154 205.15 204.663 205.15H234.484C234.992 205.15 235.405 204.737 235.405 204.229V202.729C235.405 202.221 234.992 201.809 234.484 201.809Z" fill="#106FA4"/>
<path d="M206.942 235.133H232.198C232.707 235.133 233.119 234.721 233.119 234.212V232.713C233.119 232.204 232.707 231.792 232.198 231.792H206.942C206.433 231.792 206.021 232.204 206.021 232.713V234.212C206.021 234.721 206.433 235.133 206.942 235.133Z" fill="#106FA4"/>
<path d="M127.338 64.9707H108.545C106.831 64.9707 105.187 65.6516 103.975 66.8636C102.763 68.0757 102.082 69.7195 102.082 71.4336V89.6936C102.082 91.4076 102.763 93.0515 103.975 94.2635C105.187 95.4755 106.831 96.1564 108.545 96.1564H111.1V102.979L115.429 96.1564H127.321C129.036 96.1564 130.679 95.4755 131.891 94.2635C133.103 93.0515 133.784 91.4076 133.784 89.6936V71.4336C133.784 69.7224 133.106 68.0811 131.897 66.8696C130.689 65.658 129.049 64.9752 127.338 64.9707Z" fill="#106FA4"/>
<path opacity="0.4" d="M127.338 64.9707H108.545C106.831 64.9707 105.187 65.6516 103.975 66.8636C102.763 68.0757 102.082 69.7195 102.082 71.4336V89.6936C102.082 91.4076 102.763 93.0515 103.975 94.2635C105.187 95.4755 106.831 96.1564 108.545 96.1564H111.1V102.979L115.429 96.1564H127.321C129.036 96.1564 130.679 95.4755 131.891 94.2635C133.103 93.0515 133.784 91.4076 133.784 89.6936V71.4336C133.784 69.7224 133.106 68.0811 131.897 66.8696C130.689 65.658 129.049 64.9752 127.338 64.9707Z" fill="white"/>
<path d="M121.049 77.5757C121.049 76.2 119.876 75.2736 117.989 75.2736C117.221 75.2297 116.453 75.3789 115.757 75.7074C115.061 76.0359 114.457 76.5334 114.003 77.1546L111.627 75.6161C112.998 73.7519 115.199 72.6289 118.259 72.6289C121.858 72.6289 124.261 74.2685 124.261 77.0816C124.261 81.0739 120.072 81.4388 120.072 84.3306H116.962C116.962 80.7089 121.049 80.0239 121.049 77.5757ZM116.557 88.2723C116.55 87.8856 116.657 87.5053 116.866 87.1799C117.075 86.8545 117.376 86.5987 117.731 86.445C118.086 86.2913 118.479 86.2467 118.859 86.317C119.24 86.3872 119.59 86.569 119.867 86.8393C120.144 87.1096 120.334 87.4562 120.413 87.8348C120.492 88.2134 120.456 88.6069 120.311 88.9654C120.166 89.3238 119.917 89.6308 119.596 89.8474C119.276 90.0639 118.898 90.1802 118.511 90.1814C118.257 90.1906 118.003 90.1478 117.766 90.0555C117.529 89.9632 117.313 89.8233 117.131 89.6446C116.95 89.4658 116.807 89.2519 116.711 89.0159C116.615 88.78 116.569 88.5269 116.574 88.2723H116.557Z" fill="white"/>
<path d="M80.3354 151.668C80.3354 151.668 81.9189 183.376 88.7579 188.834H81.4584C81.4584 188.834 74.945 178.03 74.4565 151.668H80.3354Z" fill="#263238"/>
<path opacity="0.2" d="M80.3354 151.668C80.3354 151.668 81.9189 183.376 88.7579 188.834H81.4584C81.4584 188.834 74.945 178.03 74.4565 151.668H80.3354Z" fill="white"/>
<path d="M74.8494 156.137H81.7615C83.7885 156.137 85.254 154.317 85.0294 152.071L84.7375 149.073C84.5129 146.827 82.6936 145.008 80.6666 145.008H73.7545C71.7275 145.008 70.2676 146.833 70.4866 149.073L70.7842 152.071C71.0032 154.317 72.8224 156.137 74.8494 156.137Z" fill="#263238"/>
<path d="M73.777 158.607H85.473C88.8982 158.607 91.3744 155.524 90.9982 151.729L90.4984 146.675C90.1278 142.874 87.0452 139.797 83.6201 139.797H71.924C68.4933 139.797 66.0226 142.874 66.3932 146.675L66.893 151.729C67.2692 155.536 70.3518 158.607 73.777 158.607Z" fill="#263238"/>
<path opacity="0.5" d="M73.777 158.607H85.473C88.8982 158.607 91.3744 155.524 90.9982 151.729L90.4984 146.675C90.1278 142.874 87.0452 139.797 83.6201 139.797H71.924C68.4933 139.797 66.0226 142.874 66.3932 146.675L66.893 151.729C67.2692 155.536 70.3518 158.607 73.777 158.607Z" fill="white"/>
<path d="M79.5158 185.594H112.347C112.678 185.594 113.006 185.659 113.311 185.786C113.617 185.912 113.895 186.098 114.129 186.332C114.363 186.566 114.549 186.844 114.676 187.15C114.803 187.456 114.868 187.784 114.868 188.115V190.849H76.9946V188.104C76.9976 187.437 77.2645 186.799 77.737 186.328C78.2095 185.858 78.8491 185.594 79.5158 185.594Z" fill="#263238"/>
<path opacity="0.5" d="M79.5158 185.594H112.347C112.678 185.594 113.006 185.659 113.311 185.786C113.617 185.912 113.895 186.098 114.129 186.332C114.363 186.566 114.549 186.844 114.676 187.15C114.803 187.456 114.868 187.784 114.868 188.115V190.849H76.9946V188.104C76.9976 187.437 77.2645 186.799 77.737 186.328C78.2095 185.858 78.8491 185.594 79.5158 185.594Z" fill="white"/>
<path d="M78.3139 224.909L92.9129 223.634V204.459H98.045V223.629L112.7 224.909C113.318 224.977 113.889 225.27 114.304 225.734C114.718 226.197 114.947 226.797 114.946 227.419V229.362H76.0342V227.407C76.0381 226.783 76.2733 226.182 76.6943 225.72C77.1153 225.259 77.6922 224.97 78.3139 224.909Z" fill="#263238"/>
<path d="M110.252 231.777C110.252 232.444 110.45 233.095 110.82 233.649C111.19 234.203 111.716 234.635 112.332 234.89C112.947 235.145 113.625 235.211 114.278 235.081C114.932 234.951 115.532 234.631 116.003 234.159C116.474 233.688 116.795 233.088 116.925 232.434C117.055 231.781 116.988 231.104 116.734 230.488C116.479 229.872 116.047 229.346 115.493 228.976C114.939 228.606 114.287 228.408 113.621 228.408C112.727 228.408 111.871 228.763 111.239 229.395C110.607 230.027 110.252 230.884 110.252 231.777Z" fill="#263238"/>
<path d="M80.7619 231.777C80.7619 232.444 80.5643 233.095 80.1941 233.649C79.824 234.203 79.2978 234.635 78.6822 234.89C78.0666 235.145 77.3892 235.211 76.7357 235.081C76.0821 234.951 75.4818 234.631 75.0107 234.159C74.5395 233.688 74.2187 233.088 74.0887 232.434C73.9587 231.781 74.0254 231.104 74.2804 230.488C74.5354 229.872 74.9672 229.346 75.5212 228.976C76.0752 228.606 76.7266 228.408 77.3929 228.408C78.2864 228.408 79.1434 228.763 79.7752 229.395C80.407 230.027 80.7619 230.884 80.7619 231.777Z" fill="#263238"/>
<path d="M96.849 208.367H94.1201C93.8465 208.367 93.5756 208.313 93.3229 208.209C93.0701 208.104 92.8405 207.95 92.647 207.757C92.4536 207.564 92.3002 207.334 92.1955 207.081C92.0908 206.828 92.0369 206.558 92.0369 206.284V189.596H98.9321V206.284C98.9321 206.837 98.7127 207.366 98.322 207.757C97.9313 208.148 97.4014 208.367 96.849 208.367Z" fill="#263238"/>
<path opacity="0.2" d="M96.849 208.367H94.1201C93.8465 208.367 93.5756 208.313 93.3229 208.209C93.0701 208.104 92.8405 207.95 92.647 207.757C92.4536 207.564 92.3002 207.334 92.1955 207.081C92.0908 206.828 92.0369 206.558 92.0369 206.284V189.596H98.9321V206.284C98.9321 206.837 98.7127 207.366 98.322 207.757C97.9313 208.148 97.4014 208.367 96.849 208.367Z" fill="white"/>
<path d="M115.294 188.832H76.5676C76.0063 188.832 75.5513 189.287 75.5513 189.848V190.444C75.5513 191.005 76.0063 191.46 76.5676 191.46H115.294C115.856 191.46 116.311 191.005 116.311 190.444V189.848C116.311 189.287 115.856 188.832 115.294 188.832Z" fill="#263238"/>
<path opacity="0.2" d="M110.252 231.777C110.252 232.444 110.45 233.095 110.82 233.649C111.19 234.203 111.716 234.635 112.332 234.89C112.947 235.145 113.625 235.211 114.278 235.081C114.932 234.951 115.532 234.631 116.003 234.159C116.474 233.688 116.795 233.088 116.925 232.434C117.055 231.781 116.988 231.104 116.734 230.488C116.479 229.872 116.047 229.346 115.493 228.976C114.939 228.606 114.287 228.408 113.621 228.408C112.727 228.408 111.871 228.763 111.239 229.395C110.607 230.027 110.252 230.884 110.252 231.777Z" fill="white"/>
<path opacity="0.2" d="M80.7619 231.777C80.7619 232.444 80.5643 233.095 80.1941 233.649C79.824 234.203 79.2978 234.635 78.6822 234.89C78.0666 235.145 77.3892 235.211 76.7357 235.081C76.0821 234.951 75.4818 234.631 75.0107 234.159C74.5395 233.688 74.2187 233.088 74.0887 232.434C73.9587 231.781 74.0254 231.104 74.2804 230.488C74.5354 229.872 74.9672 229.346 75.5212 228.976C76.0752 228.606 76.7266 228.408 77.3929 228.408C78.2864 228.408 79.1434 228.763 79.7752 229.395C80.407 230.027 80.7619 230.884 80.7619 231.777Z" fill="white"/>
<path d="M82.1042 109.779C82.1042 109.779 83.0869 106.624 87.2083 106.051C91.3297 105.478 96.3495 106.865 97.3714 108.583C98.3934 110.302 97.6073 111.992 98.9829 112.559C100.359 113.126 102.318 114.524 101.936 115.928C101.555 117.332 100.168 120.178 101.695 120.734C103.222 121.29 104.182 123.542 103.514 124.665C102.846 125.788 102.605 127.18 103.368 127.573C104.132 127.966 105.053 128.736 104.418 129.904C103.784 131.072 103.177 131.234 104.132 132.228C105.086 133.222 103.436 135.457 103.436 135.457C103.436 135.457 81.3911 138.079 78.7296 135.771C76.0681 133.464 77.7245 131.425 78.2973 130.819C78.87 130.212 77.4494 130.448 77.2529 128.157C77.0564 125.866 78.4433 125.53 78.7296 124.188C79.016 122.846 77.6066 121.56 78.5387 120.257C79.4708 118.954 79.7684 118.224 79.1002 116.854C78.432 115.484 78.3197 109.875 82.1042 109.779Z" fill="#263238"/>
<path d="M119.932 132.251L124.817 131.599L121.83 127.018C121.83 127.018 117.456 128.837 117.989 131.044L119.932 132.251Z" fill="#E4897B"/>
<path d="M128.619 128.529L124.711 125.463L121.83 127.018L124.817 131.6L128.619 128.529Z" fill="#E4897B"/>
<path d="M121.112 132.291C121.112 132.291 115.497 152.072 111.089 150.876C108.652 150.214 106.311 147.867 104.446 145.43C102.888 143.355 101.518 141.145 100.353 138.827V138.754L99.7915 129.365C104.154 130.438 110.55 142.19 110.55 142.19L117.614 130.595L121.112 132.291Z" fill="#106FA4"/>
<path opacity="0.7" d="M98.9491 142.762C94.8841 139.095 90.3757 135.953 85.5293 133.407C85.9748 133.351 86.424 133.306 86.8769 133.272C89.9537 132.947 93.0498 132.842 96.1416 132.958C96.9109 133.003 97.697 133.065 98.4719 133.132C100.409 137.529 98.9491 142.762 98.9491 142.762Z" fill="white"/>
<path d="M85.5518 162.465C85.1307 157.72 83.4293 149.017 80.4983 139.876C79.5437 136.905 81.1609 133.553 81.1609 133.553C81.1609 133.553 85.1419 133.446 85.5462 133.407C85.9504 133.368 86.4389 133.306 86.8938 133.272C89.9706 132.947 93.0667 132.842 96.1585 132.958C96.9278 133.003 97.7139 133.065 98.4887 133.132C98.7358 133.132 101.538 133.183 101.779 133.205C101.779 133.205 105.659 137.641 105.895 141.234C106.181 143.997 106.288 146.774 106.215 149.55C106.215 152.813 105.957 157.114 105.743 161.696L85.5518 162.465Z" fill="#106FA4"/>
<path opacity="0.8" d="M85.5518 162.465C85.1307 157.72 83.4293 149.017 80.4983 139.876C79.5437 136.905 81.1609 133.553 81.1609 133.553C81.1609 133.553 85.1419 133.446 85.5462 133.407C85.9504 133.368 86.4389 133.306 86.8938 133.272C89.9706 132.947 93.0667 132.842 96.1585 132.958C96.9278 133.003 97.7139 133.065 98.4887 133.132C98.7358 133.132 101.538 133.183 101.779 133.205C101.779 133.205 105.659 137.641 105.895 141.234C106.181 143.997 106.288 146.774 106.215 149.55C106.215 152.813 105.957 157.114 105.743 161.696L85.5518 162.465Z" fill="white"/>
<path d="M85.5517 162.464L105.766 161.1C105.766 161.1 106.372 167.175 106.232 167.085C106.091 166.995 84.5859 167.843 84.5859 167.843L85.5517 162.464Z" fill="#263238"/>
<path d="M85.7371 162.801L105.749 161.695V163.593L85.5518 164.666L85.7371 162.801Z" fill="black"/>
<path d="M97.0008 164.368C96.8611 164.369 96.7262 164.317 96.6224 164.224C96.5186 164.13 96.4533 164.002 96.4393 163.863L96.3495 162.74C96.3415 162.595 96.3897 162.453 96.4838 162.343C96.578 162.234 96.7109 162.164 96.8548 162.15L99.0447 161.982C99.1202 161.977 99.1959 161.987 99.2673 162.012C99.3388 162.037 99.4043 162.077 99.4602 162.128C99.5143 162.179 99.5575 162.241 99.5874 162.309C99.6173 162.378 99.6332 162.452 99.6343 162.526V163.7C99.6347 163.841 99.5818 163.978 99.486 164.082C99.3902 164.186 99.2587 164.25 99.1177 164.261L97.0121 164.374L97.0008 164.368ZM99.1064 162.319L96.911 162.487C96.8817 162.489 96.8531 162.497 96.8269 162.51C96.8008 162.524 96.7776 162.542 96.7587 162.565C96.7398 162.587 96.7257 162.613 96.7171 162.642C96.7086 162.67 96.7058 162.699 96.7088 162.728L96.7987 163.851C96.7993 163.88 96.8059 163.909 96.818 163.935C96.8302 163.961 96.8477 163.984 96.8693 164.003C96.891 164.022 96.9163 164.036 96.9438 164.045C96.9713 164.054 97.0003 164.057 97.0289 164.054L99.1345 163.941C99.1906 163.938 99.2435 163.914 99.2822 163.873C99.3208 163.833 99.3423 163.778 99.3423 163.722V162.549C99.3426 162.518 99.3368 162.488 99.3252 162.46C99.3136 162.432 99.2965 162.407 99.2749 162.386C99.2533 162.363 99.227 162.346 99.198 162.334C99.1689 162.322 99.1377 162.317 99.1064 162.319Z" fill="white"/>
<path d="M107.001 165.834C101.628 165.301 94.6481 164.868 85.5518 164.666C85.5518 164.666 78.7745 180.629 86.8095 185.397C89.2408 186.84 93.2499 187.412 97.6633 187.502C98.8784 187.531 100.087 187.316 101.218 186.871C102.349 186.426 103.38 185.759 104.25 184.91C105.119 184.061 105.811 183.047 106.283 181.927C106.756 180.807 107 179.605 107.001 178.389V165.834Z" fill="#263238"/>
<path d="M87.1911 176.361L80.2061 175.092L84.2713 160.055C84.2713 160.055 83.227 156.321 82.104 152.043C81.8176 150.965 81.5425 149.859 81.2392 148.764C80.936 147.669 80.7114 146.725 80.4756 145.776C79.9273 143.82 79.4961 141.832 79.1842 139.825C79.055 137.427 78.6563 130.942 80.9585 129.925C82.3229 129.319 85.1192 130.751 86.8879 131.082C89.5426 136.173 90.9966 141.805 91.1385 147.545C91.4192 157.265 87.1911 176.361 87.1911 176.361Z" fill="#106FA4"/>
<path d="M93.8281 131.306C93.8281 131.306 100.353 132.121 103.132 146.018C104.255 151.633 106.928 175.682 106.928 175.682L108.444 174.924L106.338 160.589C106.338 160.589 107.096 143.98 106.507 140.571C105.917 137.163 102.93 129.774 99.8193 129.341C98.556 129.195 93.8281 131.306 93.8281 131.306Z" fill="#106FA4"/>
<path d="M94.1313 131.111L94.457 130.83C98.2295 131.343 101.668 133.265 104.081 136.209L102.565 137.692L105.126 139.814L103.89 151.19C103.89 151.19 99.9597 137.77 98.2359 134.547C98.2471 134.519 95.3891 131.728 94.1313 131.111Z" fill="#106FA4"/>
<path opacity="0.2" d="M94.1313 131.11L94.4346 130.863C98.2066 131.361 101.648 133.277 104.059 136.22L102.543 137.702L105.126 139.814L103.89 151.19C103.89 151.19 99.9597 137.77 98.2359 134.547C98.2471 134.519 95.3891 131.728 94.1313 131.11Z" fill="black"/>
<path d="M87.034 131.688C87.034 131.688 92.0875 138.123 90.9926 152.279L85.5629 142.099L87.2923 139.319L83.2495 135.529C83.2495 135.529 85.8605 130.476 87.3597 130.863L87.034 131.688Z" fill="#106FA4"/>
<path opacity="0.2" d="M87.034 131.688C87.034 131.688 92.0875 138.123 90.9926 152.279L85.5629 142.099L87.2923 139.319L83.2495 135.529C83.2495 135.529 85.8605 130.476 87.3597 130.863L87.034 131.688Z" fill="black"/>
<path d="M87.4609 130.555C87.4609 130.555 88.9882 131.116 93.8901 130.751C93.8901 130.751 95.7431 132.469 96.327 134.272C96.911 136.074 95.0468 137.82 92.0821 136.243C89.1174 134.665 87.4609 130.555 87.4609 130.555Z" fill="#106FA4"/>
<path opacity="0.5" d="M87.4609 130.555C87.4609 130.555 88.9882 131.116 93.8901 130.751C93.8901 130.751 95.7431 132.469 96.327 134.272C96.911 136.074 95.0468 137.82 92.0821 136.243C89.1174 134.665 87.4609 130.555 87.4609 130.555Z" fill="white"/>
<path d="M97.3599 134.267L96.2369 140.977L87.4101 133.256C89.2799 131.196 88.1008 125.772 87.1968 122.812L89.6955 124.688L93.4126 127.467C93.3425 128.234 93.4033 129.007 93.5923 129.753C93.873 130.937 94.3784 132.049 94.9342 132.285L97.3599 134.267Z" fill="#E4897B"/>
<path opacity="0.2" d="M93.5926 129.753C92.1102 129.421 90.1674 127.889 89.853 126.384C89.7322 125.831 89.6794 125.265 89.6958 124.699L93.4129 127.479C93.3441 128.241 93.4048 129.01 93.5926 129.753Z" fill="black"/>
<path d="M87.4606 130.555C90.6098 133.66 93.486 137.03 96.0572 140.628C96.0572 140.628 96.9331 133.89 93.8898 130.751L94.5917 130.667C97.0478 132.277 99.2394 134.258 101.088 136.54L98.1628 135.614L96.1414 141.027L90.1334 136.052L86.0849 136.754C86.0849 136.754 85.8996 131.756 87.4606 130.555Z" fill="#106FA4"/>
<path opacity="0.7" d="M87.4606 130.555C90.6098 133.66 93.486 137.03 96.0572 140.628C96.0572 140.628 96.9331 133.89 93.8898 130.751L94.5917 130.667C97.0478 132.277 99.2394 134.258 101.088 136.54L98.1628 135.614L96.1414 141.027L90.1334 136.052L86.0849 136.754C86.0849 136.754 85.8996 131.756 87.4606 130.555Z" fill="white"/>
<path d="M84.4454 116.915C85.5122 121.699 85.866 123.743 88.6903 125.956C92.9409 129.291 98.5559 127.258 98.9321 122.334C99.269 117.898 97.4666 110.823 92.4468 109.419C91.382 109.078 90.2452 109.027 89.1541 109.272C88.063 109.517 87.0573 110.049 86.2412 110.814C85.4251 111.579 84.8283 112.547 84.5125 113.62C84.1968 114.693 84.1736 115.831 84.4454 116.915Z" fill="#E4897B"/>
<path d="M90.6222 117.511C90.6952 117.915 90.9647 118.218 91.223 118.19C91.4813 118.162 91.6385 117.814 91.5655 117.409C91.4925 117.005 91.223 116.696 90.9591 116.724C90.6952 116.753 90.5267 117.106 90.6222 117.511Z" fill="#263238"/>
<path d="M95.6699 116.792C95.7429 117.196 96.0124 117.499 96.2707 117.471C96.529 117.443 96.6862 117.095 96.6132 116.685C96.5402 116.275 96.2707 115.978 96.0124 116.006C95.7541 116.034 95.5801 116.399 95.6699 116.792Z" fill="#263238"/>
<path d="M95.9004 116.058L96.8044 115.676C96.8044 115.676 96.4507 116.484 95.9004 116.058Z" fill="#263238"/>
<path d="M94.2832 117.865C94.8037 118.753 95.4359 119.57 96.1642 120.297C95.9829 120.467 95.7655 120.593 95.5282 120.667C95.2909 120.741 95.0399 120.76 94.7942 120.723L94.2832 117.865Z" fill="#DE5753"/>
<path d="M90.9703 113.66C90.9087 113.676 90.8562 113.717 90.8243 113.772C90.6958 114.033 90.5043 114.258 90.2671 114.427C90.0299 114.595 89.7543 114.702 89.4654 114.738C89.4351 114.739 89.4054 114.747 89.3782 114.76C89.3509 114.773 89.3268 114.792 89.3072 114.816C89.2877 114.839 89.2732 114.866 89.2647 114.895C89.2562 114.924 89.2538 114.955 89.2577 114.985C89.2648 115.049 89.296 115.108 89.3451 115.15C89.3941 115.191 89.4573 115.213 89.5216 115.209C89.8894 115.172 90.2419 115.042 90.5462 114.832C90.8505 114.622 91.0968 114.338 91.2622 114.008C91.2879 113.95 91.2906 113.885 91.2697 113.825C91.2488 113.766 91.206 113.717 91.1499 113.688C91.0954 113.657 91.0316 113.647 90.9703 113.66Z" fill="#263238"/>
<path d="M95.4789 112.56C95.4497 112.557 95.4203 112.56 95.3923 112.568C95.3644 112.577 95.3384 112.591 95.316 112.61C95.2721 112.655 95.2476 112.716 95.2476 112.779C95.2476 112.842 95.2721 112.902 95.316 112.947C95.56 113.247 95.8698 113.486 96.2213 113.647C96.5729 113.808 96.9567 113.885 97.343 113.874C97.3735 113.871 97.4031 113.862 97.4299 113.847C97.4566 113.833 97.48 113.812 97.4986 113.788C97.5171 113.764 97.5303 113.736 97.5373 113.706C97.5444 113.676 97.5452 113.645 97.5396 113.615C97.5249 113.555 97.4888 113.503 97.4382 113.468C97.3875 113.433 97.3257 113.417 97.2644 113.424C96.9581 113.428 96.6549 113.363 96.3777 113.232C96.1004 113.102 95.8564 112.91 95.6642 112.672C95.643 112.641 95.6155 112.615 95.5836 112.596C95.5516 112.577 95.5159 112.564 95.4789 112.56Z" fill="#263238"/>
<path d="M90.8525 116.759L91.7566 116.377C91.7566 116.377 91.4028 117.191 90.8525 116.759Z" fill="#263238"/>
<path d="M86.8992 119.689C86.8992 119.689 89.2519 116.264 87.4607 111.194C87.4607 111.194 92.7781 108.611 96.8041 112.547C96.8041 112.547 93.0589 105.977 85.2315 109.122C77.4042 112.266 83.3056 119.79 84.277 120.413C85.2484 121.037 86.8992 119.689 86.8992 119.689Z" fill="#263238"/>
<path d="M83.4909 121.054C84.1184 121.884 85.0492 122.431 86.0795 122.576C87.4046 122.733 87.764 121.397 87.2025 120.173C86.641 119.05 85.3158 117.652 84.103 118.067C82.8901 118.483 82.6655 120.004 83.4909 121.054Z" fill="#E4897B"/>
<path d="M94.7994 122.97C94.7774 122.97 94.7555 122.965 94.7353 122.956C94.715 122.948 94.6967 122.935 94.6815 122.919C94.2965 122.562 93.8361 122.297 93.3346 122.142C92.833 121.988 92.3031 121.948 91.7842 122.026C91.7631 122.03 91.7415 122.03 91.7206 122.026C91.6996 122.022 91.6797 122.013 91.6619 122.001C91.6442 121.989 91.629 121.974 91.6172 121.956C91.6054 121.938 91.5973 121.918 91.5932 121.897C91.5867 121.854 91.597 121.81 91.6221 121.775C91.6473 121.739 91.6852 121.714 91.728 121.706C92.2998 121.614 92.8852 121.655 93.4385 121.827C93.9918 121.998 94.4979 122.295 94.9173 122.694C94.9479 122.725 94.965 122.766 94.965 122.81C94.965 122.853 94.9479 122.894 94.9173 122.925C94.9021 122.94 94.8836 122.952 94.8633 122.96C94.8429 122.968 94.8211 122.971 94.7994 122.97Z" fill="#263238"/>
<path opacity="0.2" d="M81.2168 148.764C80.9472 147.737 80.689 146.726 80.4531 145.777C81.7446 144.222 82.4296 137.557 82.4296 137.557C82.4296 137.557 83.328 145.682 81.2168 148.764Z" fill="black"/>
<path d="M64.7312 132.811L59.8462 132.16L62.8334 127.578C62.8334 127.578 67.2075 129.515 66.6796 131.728L64.7312 132.811Z" fill="#E4897B"/>
<path d="M56.0449 129.089L59.953 126.023L62.8335 127.579L59.8463 132.161L56.0449 129.089Z" fill="#E4897B"/>
<path d="M63.5747 132.851C63.5747 132.851 69.1897 152.633 73.5975 151.437C76.04 150.774 78.3758 148.427 80.24 145.99C81.7186 144.062 82.6845 141.79 83.0475 139.387L80.9756 129.926C78.3478 130.487 74.1309 142.75 74.1309 142.75L67.0616 131.155L63.5747 132.851Z" fill="#106FA4"/>
<path d="M89.4429 178.983V186.485C96.1247 188.411 109.999 187.675 118.248 187.007C120.039 186.861 121.71 186.045 122.927 184.722C124.144 183.4 124.819 181.668 124.817 179.871V173.694C124.818 172.699 124.516 171.727 123.95 170.908C123.384 170.09 122.582 169.463 121.651 169.112C117.653 167.607 110.376 165.367 102.762 165.485C99.211 165.526 95.8202 166.967 93.3263 169.495C90.8323 172.023 89.4367 175.433 89.4429 178.983Z" fill="#263238"/>
<path d="M124.116 200.676C121.684 207.245 118.877 215.471 115.879 225.853C115.822 226.044 115.766 226.235 115.716 226.415C115.665 226.595 115.598 226.814 115.542 227.016L112.425 226.286L111.257 225.999C111.257 225.999 111.308 225.539 111.403 224.725C111.403 224.556 111.443 224.377 111.46 224.163C112.296 216.92 115.508 190.338 118.697 184.819C118.697 184.819 115.087 185.487 112.347 185.027C110.376 184.695 107.984 171.04 107.984 171.04C111.314 170.135 114.742 169.642 118.192 169.574H118.265C118.265 169.574 129.821 171.388 131.741 174.229C134.133 177.727 130.427 183.612 124.116 200.676Z" fill="#E4897B"/>
<path d="M120.106 235.129L112.852 231.928L110.561 229.368L109.848 230.334L108.983 229.958C108.579 226.735 110.14 225.23 110.965 224.545C111.021 224.494 111.106 224.432 111.207 224.359C111.235 224.33 111.267 224.306 111.302 224.286L111.341 224.258L111.454 224.174L111.521 224.135L115.502 225.892C115.502 225.892 115.57 226.1 115.693 226.454C116.092 227.577 117.074 230.132 118.164 231.507C118.209 231.563 118.254 231.625 118.298 231.676C118.422 231.821 118.557 231.957 118.703 232.08C121.78 234.483 120.106 235.129 120.106 235.129Z" fill="#106FA4"/>
<path d="M118.321 231.63C117.198 232.073 115.586 230.95 114.39 229.485C113.646 228.475 112.989 227.405 112.425 226.284C112.154 225.722 111.811 225.197 111.403 224.723C111.235 224.572 111.078 224.51 110.943 224.572C110.999 224.521 111.083 224.459 111.184 224.386C111.213 224.358 111.245 224.334 111.28 224.313L111.319 224.285L111.431 224.201L111.499 224.162C111.914 223.847 112.38 223.527 112.38 223.527L115.581 224.942C115.581 224.942 115.671 225.319 115.834 225.897C116.249 227.379 117.131 230.192 118.141 231.512C118.231 231.517 118.276 231.579 118.321 231.63Z" fill="#E4897B"/>
<path opacity="0.1" d="M124.116 200.676C121.684 207.245 118.877 215.471 115.878 225.853C116.294 227.336 117.175 230.149 118.186 231.468C118.231 231.525 118.276 231.586 118.321 231.637C118.444 231.783 118.579 231.918 118.725 232.041C121.78 234.489 120.106 235.135 120.106 235.135L112.852 231.934L110.561 229.374L109.848 230.34L108.983 229.964C108.579 226.741 110.14 225.236 110.965 224.551C111.021 224.5 111.106 224.438 111.207 224.365C111.235 224.336 111.267 224.312 111.302 224.292L111.341 224.264L111.454 224.18C112.29 216.937 115.502 190.355 118.691 184.836C118.691 184.836 115.081 185.504 112.341 185.044C110.37 184.712 107.978 171.057 107.978 171.057C111.309 170.145 114.739 169.647 118.192 169.574H118.265C118.265 169.574 117.046 169.692 115.39 171.77C115.39 171.77 122.128 173.027 123.975 176.599C124.711 178.058 124.559 188.615 124.116 200.676Z" fill="black"/>
<path d="M107.995 171.033C107.995 171.033 119.556 172.847 121.471 175.682C124.801 180.567 118.804 190.169 107.866 228.463L103.599 227.419C103.599 227.419 104.722 192.662 108.427 186.255C108.427 186.255 104.817 186.924 102.083 186.463C98.5788 185.857 96.3608 174.144 107.995 171.033Z" fill="#E4897B"/>
<path d="M102.919 234.887H103.868L104.126 233.719L107.259 235.134H115.188C115.188 235.134 116.451 233.865 112.672 232.854C112.487 232.804 112.309 232.734 112.139 232.646C110.123 231.703 107.259 228.514 107.259 228.514H102.908C102.775 228.716 102.655 228.926 102.548 229.143C102.071 230.097 101.251 232.107 102.919 234.887Z" fill="#106FA4"/>
<path d="M102.548 229.143C103.11 228.503 105.738 231.316 107.652 232.276C109.365 233.13 111.285 233.506 112.144 232.636C110.129 231.692 106.962 227.582 106.962 227.582H103.441C103.441 227.582 102.756 228.733 102.548 229.143Z" fill="#E4897B"/>
<g opacity="0.3">
<path d="M178.07 158.05V233.291C178.07 233.529 178.117 233.764 178.208 233.984C178.299 234.204 178.433 234.403 178.601 234.571C178.77 234.739 178.97 234.872 179.19 234.963C179.41 235.054 179.646 235.1 179.883 235.099H214.983C215.073 235.099 215.162 235.081 215.245 235.047C215.328 235.012 215.404 234.962 215.467 234.898C215.531 234.835 215.581 234.759 215.616 234.676C215.65 234.593 215.668 234.504 215.668 234.414V232.168C215.668 231.986 215.596 231.811 215.468 231.682C215.339 231.552 215.165 231.479 214.983 231.477H181.691V159.858H214.416C214.581 159.857 214.744 159.824 214.897 159.76C215.049 159.696 215.187 159.603 215.303 159.486C215.42 159.368 215.512 159.229 215.574 159.076C215.637 158.924 215.669 158.76 215.668 158.595V156.236H179.883C179.645 156.236 179.409 156.282 179.189 156.373C178.968 156.464 178.768 156.597 178.599 156.766C178.431 156.934 178.297 157.135 178.206 157.355C178.115 157.575 178.069 157.812 178.07 158.05Z" fill="white"/>
</g>
<path opacity="0.2" d="M178.07 158.05V177.242C179.275 177.549 180.482 177.845 181.691 178.129V159.858H214.416C214.581 159.857 214.744 159.824 214.897 159.76C215.049 159.696 215.187 159.603 215.303 159.486C215.42 159.368 215.512 159.229 215.574 159.076C215.637 158.924 215.669 158.76 215.668 158.595V156.236H179.883C179.645 156.236 179.409 156.282 179.189 156.373C178.968 156.464 178.768 156.597 178.599 156.766C178.431 156.934 178.297 157.135 178.206 157.355C178.115 157.575 178.069 157.812 178.07 158.05Z" fill="black"/>
<path d="M173.977 151.071L173.528 149.393H155.24L146.817 150.229L146.497 151.071H173.977Z" fill="#263238"/>
<path opacity="0.5" d="M173.977 151.071L173.528 149.393H155.24L146.817 150.229L146.497 151.071H173.977Z" fill="white"/>
<path opacity="0.2" d="M155.239 149.393V151.071H173.977L173.527 149.393H155.239Z" fill="black"/>
<path d="M161.427 138.561C161.397 138.823 161.423 139.089 161.503 139.34C161.584 139.591 161.717 139.822 161.894 140.018C162.071 140.214 162.288 140.369 162.53 140.474C162.772 140.579 163.033 140.632 163.297 140.627H199.306C199.867 140.613 200.404 140.396 200.817 140.016C201.23 139.636 201.491 139.119 201.552 138.561L203.692 115.506C203.715 115.28 203.698 115.052 203.641 114.832C203.542 114.427 203.307 114.068 202.977 113.814C202.646 113.56 202.239 113.426 201.822 113.434H165.824C165.262 113.447 164.724 113.665 164.31 114.046C163.897 114.428 163.636 114.947 163.578 115.506L161.427 138.561Z" fill="#263238"/>
<path opacity="0.5" d="M161.427 138.561C161.397 138.823 161.423 139.089 161.503 139.34C161.584 139.591 161.717 139.822 161.894 140.018C162.071 140.214 162.288 140.369 162.53 140.474C162.772 140.579 163.033 140.632 163.297 140.627H199.306C199.867 140.613 200.404 140.396 200.817 140.016C201.23 139.636 201.491 139.119 201.552 138.561L203.692 115.506C203.715 115.28 203.698 115.052 203.641 114.832C203.542 114.427 203.307 114.068 202.977 113.814C202.646 113.56 202.239 113.426 201.822 113.434H165.824C165.262 113.447 164.724 113.665 164.31 114.046C163.897 114.428 163.636 114.947 163.578 115.506L161.427 138.561Z" fill="white"/>
<path opacity="0.1" d="M163.42 140.627H199.306C199.867 140.613 200.404 140.396 200.817 140.016C201.23 139.636 201.491 139.119 201.552 138.561L203.691 115.506C203.715 115.28 203.698 115.052 203.641 114.832H167.761C167.199 114.848 166.662 115.066 166.249 115.447C165.837 115.828 165.576 116.346 165.515 116.904L163.375 139.954C163.353 140.179 163.368 140.407 163.42 140.627Z" fill="black"/>
<path d="M188.16 126.488H180.715L182.697 147.82L170.917 149.588V151.071H195.729V149.588L190.648 147.82L188.16 126.488Z" fill="#263238"/>
<path opacity="0.5" d="M188.16 126.488H180.715L182.697 147.82L170.917 149.588V151.071H195.729V149.588L190.648 147.82L188.16 126.488Z" fill="white"/>
<path opacity="0.2" d="M180.715 126.488L186.234 150.734L190.648 150.599L188.16 126.488H180.715Z" fill="white"/>
<path d="M128.585 235.133H163.684C163.867 235.133 164.043 235.06 164.173 234.93C164.302 234.801 164.375 234.625 164.375 234.442V232.196C164.375 232.105 164.357 232.016 164.322 231.932C164.288 231.848 164.237 231.772 164.173 231.708C164.108 231.644 164.032 231.593 163.949 231.558C163.865 231.523 163.775 231.505 163.684 231.505H130.393V159.852H163.112C163.276 159.853 163.44 159.821 163.592 159.759C163.745 159.696 163.884 159.604 164.001 159.488C164.117 159.371 164.21 159.233 164.273 159.081C164.337 158.928 164.369 158.765 164.369 158.6V156.236H128.585C128.105 156.236 127.645 156.427 127.306 156.766C126.967 157.105 126.777 157.565 126.777 158.044V233.319C126.777 233.799 126.967 234.26 127.306 234.6C127.645 234.939 128.105 235.131 128.585 235.133Z" fill="#263238"/>
<g opacity="0.4">
<path d="M128.585 235.133H163.684C163.867 235.133 164.043 235.06 164.173 234.93C164.302 234.801 164.375 234.625 164.375 234.442V232.196C164.375 232.105 164.357 232.016 164.322 231.932C164.288 231.848 164.237 231.772 164.173 231.708C164.108 231.644 164.032 231.593 163.949 231.558C163.865 231.523 163.775 231.505 163.684 231.505H130.393V159.852H163.112C163.276 159.853 163.44 159.821 163.592 159.759C163.745 159.696 163.884 159.604 164.001 159.488C164.117 159.371 164.21 159.233 164.273 159.081C164.337 158.928 164.369 158.765 164.369 158.6V156.236H128.585C128.105 156.236 127.645 156.427 127.306 156.766C126.967 157.105 126.777 157.565 126.777 158.044V233.319C126.777 233.799 126.967 234.26 127.306 234.6C127.645 234.939 128.105 235.131 128.585 235.133Z" fill="white"/>
</g>
<path d="M217.79 152.818V155.744C217.783 156.032 217.666 156.306 217.462 156.51C217.258 156.714 216.984 156.832 216.696 156.839H124.009C123.865 156.839 123.723 156.81 123.591 156.755C123.458 156.7 123.338 156.619 123.237 156.518C123.135 156.416 123.055 156.295 123.001 156.162C122.946 156.03 122.919 155.887 122.919 155.744V152.818H217.79Z" fill="#106FA4"/>
<path opacity="0.2" d="M122.919 154.828H217.791V152.818H122.919V154.828Z" fill="black"/>
<path d="M220.913 152.205C220.913 152.502 220.794 152.788 220.584 152.999C220.373 153.209 220.088 153.328 219.79 153.328H120.966C120.817 153.328 120.669 153.3 120.531 153.243C120.393 153.186 120.268 153.102 120.163 152.996C120.105 152.94 120.056 152.876 120.017 152.805C119.897 152.624 119.833 152.411 119.832 152.193C119.832 151.895 119.95 151.61 120.16 151.399C120.371 151.189 120.657 151.07 120.955 151.07H219.779C220.076 151.07 220.362 151.189 220.573 151.399C220.783 151.61 220.902 151.895 220.902 152.193L220.913 152.205Z" fill="#106FA4"/>
<path opacity="0.2" d="M168.918 151.402C168.812 151.296 168.687 151.212 168.549 151.155C168.412 151.098 168.264 151.069 168.115 151.07H120.949C120.651 151.07 120.365 151.189 120.155 151.399C119.944 151.61 119.826 151.895 119.826 152.193C119.827 152.411 119.891 152.624 120.011 152.805C120.05 152.876 120.099 152.94 120.157 152.996C120.262 153.102 120.387 153.186 120.525 153.243C120.663 153.3 120.811 153.328 120.96 153.328H122.948V155.731C122.947 155.874 122.975 156.017 123.029 156.149C123.083 156.282 123.163 156.403 123.265 156.505C123.366 156.606 123.486 156.687 123.619 156.742C123.751 156.797 123.893 156.826 124.037 156.826H165.038C165.181 156.826 165.323 156.797 165.456 156.742C165.588 156.687 165.709 156.606 165.81 156.505C165.911 156.403 165.991 156.282 166.046 156.149C166.1 156.017 166.128 155.874 166.127 155.731V153.328H168.115C168.306 153.33 168.495 153.283 168.663 153.191C168.831 153.1 168.973 152.967 169.075 152.805C169.216 152.588 169.278 152.328 169.249 152.07C169.22 151.812 169.103 151.572 168.918 151.39V151.402Z" fill="white"/>
<path d="M178.07 158.05V233.291C178.07 233.529 178.117 233.764 178.208 233.984C178.299 234.204 178.433 234.403 178.601 234.571C178.77 234.739 178.97 234.872 179.19 234.963C179.41 235.054 179.646 235.1 179.883 235.099H214.983C215.073 235.099 215.162 235.081 215.245 235.047C215.328 235.012 215.404 234.962 215.467 234.898C215.531 234.835 215.581 234.759 215.616 234.676C215.65 234.593 215.668 234.504 215.668 234.414V232.168C215.668 231.986 215.596 231.811 215.468 231.682C215.339 231.552 215.165 231.479 214.983 231.477H181.691V159.858H214.416C214.581 159.857 214.744 159.824 214.897 159.76C215.049 159.696 215.187 159.603 215.303 159.486C215.42 159.368 215.512 159.229 215.574 159.076C215.637 158.924 215.669 158.76 215.668 158.595V156.236H179.883C179.645 156.236 179.409 156.282 179.189 156.373C178.968 156.464 178.768 156.597 178.599 156.766C178.431 156.934 178.297 157.135 178.206 157.355C178.115 157.575 178.069 157.812 178.07 158.05Z" fill="#263238"/>
</g>
<defs>
<clipPath id="clip0_3469_21949">
<rect width="280.75" height="280.75" fill="white" transform="translate(0.125)"/>
</clipPath>
</defs>
</svg>
