<svg width="281" height="282" viewBox="0 0 281 282" fill="none" xmlns="http://www.w3.org/2000/svg">
<g clip-path="url(#clip0_2458_17993)">
<path d="M280.875 215.143H0.125V215.283H280.875V215.143Z" fill="#EBEBEB"/>
<path d="M252.744 224.176H234.147V224.316H252.744V224.176Z" fill="#EBEBEB"/>
<path d="M186.105 225.703H181.226V225.844H186.105V225.703Z" fill="#EBEBEB"/>
<path d="M233.585 218.965H222.81V219.105H233.585V218.965Z" fill="#EBEBEB"/>
<path d="M53.8325 219.908H29.5813V220.049H53.8325V219.908Z" fill="#EBEBEB"/>
<path d="M62.3897 219.908H58.8354V220.049H62.3897V219.908Z" fill="#EBEBEB"/>
<path d="M126.547 222.279H73.9454V222.42H126.547V222.279Z" fill="#EBEBEB"/>
<path d="M133.201 190.099H24.7805C23.9311 190.097 23.1171 189.759 22.517 189.158C21.9169 188.557 21.5799 187.742 21.5799 186.893V34.4847C21.5873 33.6402 21.9276 32.8328 22.5269 32.2377C23.1261 31.6427 23.936 31.3081 24.7805 31.3066H133.201C134.051 31.3066 134.866 31.6444 135.468 32.2457C136.069 32.847 136.407 33.6625 136.407 34.5128V186.893C136.407 187.743 136.069 188.559 135.468 189.16C134.866 189.761 134.051 190.099 133.201 190.099ZM24.7805 31.4189C23.9684 31.4204 23.19 31.7441 22.6163 32.3189C22.0425 32.8937 21.7203 33.6726 21.7203 34.4847V186.893C21.7203 187.705 22.0425 188.484 22.6163 189.059C23.19 189.633 23.9684 189.957 24.7805 189.958H133.201C134.013 189.957 134.792 189.634 135.367 189.059C135.941 188.484 136.265 187.705 136.266 186.893V34.4847C136.265 33.6721 135.941 32.8932 135.367 32.3185C134.792 31.7439 134.013 31.4204 133.201 31.4189H24.7805Z" fill="#EBEBEB"/>
<path d="M254.659 190.099H146.233C145.383 190.097 144.568 189.759 143.967 189.158C143.366 188.557 143.028 187.743 143.027 186.893V34.4847C143.036 33.6397 143.377 32.8323 143.977 32.2374C144.577 31.6425 145.388 31.3081 146.233 31.3066H254.659C255.502 31.3096 256.31 31.6448 256.909 32.2397C257.507 32.8346 257.846 33.6412 257.853 34.4847V186.893C257.853 187.741 257.517 188.555 256.918 189.156C256.32 189.757 255.507 190.096 254.659 190.099ZM146.233 31.4189C145.42 31.4204 144.641 31.7439 144.067 32.3185C143.492 32.8932 143.169 33.6721 143.167 34.4847V186.893C143.169 187.705 143.492 188.484 144.067 189.059C144.641 189.634 145.42 189.957 146.233 189.958H254.659C255.471 189.957 256.25 189.634 256.825 189.059C257.399 188.484 257.723 187.705 257.724 186.893V34.4847C257.723 33.6721 257.399 32.8932 256.825 32.3185C256.25 31.7439 255.471 31.4204 254.659 31.4189H146.233Z" fill="#EBEBEB"/>
<path d="M36.1621 215.236V188.397H38.4586V175.611H41.8164V131.146H46.6621V125.413L57.0162 120.584V114.801H58.448V131.146H60.4582V175.611H62.4684V152.231H67.9149V140.186H69.4366V175.611H73.5748V162.13H76.3037V158.688H82.615V146.924H86.0682V138.609H90.3188V126.486H91.8292V138.609H96.0797V146.924H99.533V158.688H105.844V162.13H108.573V175.611H111.802V158.688H118.113V122.258H120.123V118.243H133.605V122.258H136.474V148.648H147.946V151.225H152.247V153.236H147.946V163.562H159.99V129.142H162.573V121.825H168.165V95.8672H169.743V121.825H173.763V129.142H197.307V126.733H198.739V143.084H200.749V143.37H201.951V159.721H203.961V164.168H208.206V152.118H209.727V180.805H211.417V168.756H212.939V187.543H213.866V174.062H216.589V170.62H222.9V158.862H226.353V150.54H230.604V138.423H232.12V150.54H236.371V158.862H239.824V170.62H246.135V174.062H248.858V187.257H249.347V187.543H250.7V215.236H36.1621Z" fill="#E6E6E6"/>
<path d="M184.168 130.748H182.545V132.371H184.168V130.748Z" fill="#F0F0F0"/>
<path d="M184.168 133.477H182.545V135.099H184.168V133.477Z" fill="#F0F0F0"/>
<path d="M184.168 144.375H182.545V145.998H184.168V144.375Z" fill="#F0F0F0"/>
<path d="M184.168 147.1H182.545V148.722H184.168V147.1Z" fill="#F0F0F0"/>
<path d="M184.168 149.828H182.545V151.456H184.168V149.828Z" fill="#F0F0F0"/>
<path d="M184.168 157.998H182.545V159.621H184.168V157.998Z" fill="#F0F0F0"/>
<path d="M184.168 160.727H182.545V162.355H184.168V160.727Z" fill="#F0F0F0"/>
<path d="M181.585 141.652H179.962V143.275H181.585V141.652Z" fill="#F0F0F0"/>
<path d="M181.585 144.375H179.962V145.998H181.585V144.375Z" fill="#F0F0F0"/>
<path d="M181.585 147.1H179.962V148.722H181.585V147.1Z" fill="#F0F0F0"/>
<path d="M181.585 149.828H179.962V151.456H181.585V149.828Z" fill="#F0F0F0"/>
<path d="M181.585 152.551H179.962V154.179H181.585V152.551Z" fill="#F0F0F0"/>
<path d="M181.585 157.998H179.962V159.621H181.585V157.998Z" fill="#F0F0F0"/>
<path d="M181.585 160.727H179.962V162.355H181.585V160.727Z" fill="#F0F0F0"/>
<path d="M179.002 130.748H177.379V132.371H179.002V130.748Z" fill="#F0F0F0"/>
<path d="M179.002 133.477H177.379V135.099H179.002V133.477Z" fill="#F0F0F0"/>
<path d="M179.002 136.201H177.379V137.83H179.002V136.201Z" fill="#F0F0F0"/>
<path d="M179.002 138.924H177.379V140.552H179.002V138.924Z" fill="#F0F0F0"/>
<path d="M179.002 141.652H177.379V143.275H179.002V141.652Z" fill="#F0F0F0"/>
<path d="M179.002 144.375H177.379V145.998H179.002V144.375Z" fill="#F0F0F0"/>
<path d="M179.002 147.1H177.379V148.722H179.002V147.1Z" fill="#F0F0F0"/>
<path d="M179.002 149.828H177.379V151.456H179.002V149.828Z" fill="#F0F0F0"/>
<path d="M179.002 152.551H177.379V154.179H179.002V152.551Z" fill="#F0F0F0"/>
<path d="M179.002 155.275H177.379V156.904H179.002V155.275Z" fill="#F0F0F0"/>
<path d="M179.002 160.727H177.379V162.355H179.002V160.727Z" fill="#F0F0F0"/>
<path d="M176.419 130.748H174.796V132.371H176.419V130.748Z" fill="#F0F0F0"/>
<path d="M176.419 133.477H174.796V135.099H176.419V133.477Z" fill="#F0F0F0"/>
<path d="M176.419 136.201H174.796V137.83H176.419V136.201Z" fill="#F0F0F0"/>
<path d="M176.419 138.924H174.796V140.552H176.419V138.924Z" fill="#F0F0F0"/>
<path d="M176.419 141.652H174.796V143.275H176.419V141.652Z" fill="#F0F0F0"/>
<path d="M176.419 144.375H174.796V145.998H176.419V144.375Z" fill="#F0F0F0"/>
<path d="M176.419 147.1H174.796V148.722H176.419V147.1Z" fill="#F0F0F0"/>
<path d="M176.419 171.625H174.796V173.248H176.419V171.625Z" fill="#F0F0F0"/>
<path d="M173.836 130.748H172.214V132.371H173.836V130.748Z" fill="#F0F0F0"/>
<path d="M173.836 133.477H172.214V135.099H173.836V133.477Z" fill="#F0F0F0"/>
<path d="M173.836 136.201H172.214V137.83H173.836V136.201Z" fill="#F0F0F0"/>
<path d="M173.836 138.924H172.214V140.552H173.836V138.924Z" fill="#F0F0F0"/>
<path d="M173.836 141.652H172.214V143.275H173.836V141.652Z" fill="#F0F0F0"/>
<path d="M173.836 144.375H172.214V145.998H173.836V144.375Z" fill="#F0F0F0"/>
<path d="M173.836 147.1H172.214V148.722H173.836V147.1Z" fill="#F0F0F0"/>
<path d="M173.836 149.828H172.214V151.456H173.836V149.828Z" fill="#F0F0F0"/>
<path d="M173.836 166.174H172.214V167.797H173.836V166.174Z" fill="#F0F0F0"/>
<path d="M173.836 168.902H172.214V170.525H173.836V168.902Z" fill="#F0F0F0"/>
<path d="M173.836 171.625H172.214V173.248H173.836V171.625Z" fill="#F0F0F0"/>
<path d="M173.836 174.35H172.214V175.978H173.836V174.35Z" fill="#F0F0F0"/>
<path d="M173.836 185.254H172.214V186.877H173.836V185.254Z" fill="#F0F0F0"/>
<path d="M171.259 130.748H169.636V132.371H171.259V130.748Z" fill="#F0F0F0"/>
<path d="M171.259 133.477H169.636V135.099H171.259V133.477Z" fill="#F0F0F0"/>
<path d="M171.259 136.201H169.636V137.83H171.259V136.201Z" fill="#F0F0F0"/>
<path d="M171.259 138.924H169.636V140.552H171.259V138.924Z" fill="#F0F0F0"/>
<path d="M171.259 141.652H169.636V143.275H171.259V141.652Z" fill="#F0F0F0"/>
<path d="M171.259 144.375H169.636V145.998H171.259V144.375Z" fill="#F0F0F0"/>
<path d="M171.259 147.1H169.636V148.722H171.259V147.1Z" fill="#F0F0F0"/>
<path d="M171.259 149.828H169.636V151.456H171.259V149.828Z" fill="#F0F0F0"/>
<path d="M171.259 152.551H169.636V154.179H171.259V152.551Z" fill="#F0F0F0"/>
<path d="M171.259 155.275H169.636V156.904H171.259V155.275Z" fill="#F0F0F0"/>
<path d="M171.259 163.449H169.636V165.072H171.259V163.449Z" fill="#F0F0F0"/>
<path d="M171.259 166.174H169.636V167.797H171.259V166.174Z" fill="#F0F0F0"/>
<path d="M171.259 168.902H169.636V170.525H171.259V168.902Z" fill="#F0F0F0"/>
<path d="M171.259 171.625H169.636V173.248H171.259V171.625Z" fill="#F0F0F0"/>
<path d="M171.259 174.35H169.636V175.978H171.259V174.35Z" fill="#F0F0F0"/>
<path d="M171.259 185.254H169.636V186.877H171.259V185.254Z" fill="#F0F0F0"/>
<path d="M168.676 130.748H167.053V132.371H168.676V130.748Z" fill="#F0F0F0"/>
<path d="M168.676 133.477H167.053V135.099H168.676V133.477Z" fill="#F0F0F0"/>
<path d="M168.676 136.201H167.053V137.83H168.676V136.201Z" fill="#F0F0F0"/>
<path d="M168.676 138.924H167.053V140.552H168.676V138.924Z" fill="#F0F0F0"/>
<path d="M168.676 141.652H167.053V143.275H168.676V141.652Z" fill="#F0F0F0"/>
<path d="M168.676 144.375H167.053V145.998H168.676V144.375Z" fill="#F0F0F0"/>
<path d="M168.676 147.1H167.053V148.722H168.676V147.1Z" fill="#F0F0F0"/>
<path d="M168.676 149.828H167.053V151.456H168.676V149.828Z" fill="#F0F0F0"/>
<path d="M168.676 152.551H167.053V154.179H168.676V152.551Z" fill="#F0F0F0"/>
<path d="M168.676 155.275H167.053V156.904H168.676V155.275Z" fill="#F0F0F0"/>
<path d="M168.676 157.998H167.053V159.621H168.676V157.998Z" fill="#F0F0F0"/>
<path d="M168.676 160.727H167.053V162.355H168.676V160.727Z" fill="#F0F0F0"/>
<path d="M168.676 163.449H167.053V165.072H168.676V163.449Z" fill="#F0F0F0"/>
<path d="M168.676 166.174H167.053V167.797H168.676V166.174Z" fill="#F0F0F0"/>
<path d="M168.676 168.902H167.053V170.525H168.676V168.902Z" fill="#F0F0F0"/>
<path d="M168.676 171.625H167.053V173.248H168.676V171.625Z" fill="#F0F0F0"/>
<path d="M168.676 174.35H167.053V175.978H168.676V174.35Z" fill="#F0F0F0"/>
<path d="M168.676 177.078H167.053V178.706H168.676V177.078Z" fill="#F0F0F0"/>
<path d="M166.093 130.748H164.47V132.371H166.093V130.748Z" fill="#F0F0F0"/>
<path d="M166.093 133.477H164.47V135.099H166.093V133.477Z" fill="#F0F0F0"/>
<path d="M166.093 136.201H164.47V137.83H166.093V136.201Z" fill="#F0F0F0"/>
<path d="M166.093 138.924H164.47V140.552H166.093V138.924Z" fill="#F0F0F0"/>
<path d="M166.093 141.652H164.47V143.275H166.093V141.652Z" fill="#F0F0F0"/>
<path d="M166.093 144.375H164.47V145.998H166.093V144.375Z" fill="#F0F0F0"/>
<path d="M166.093 147.1H164.47V148.722H166.093V147.1Z" fill="#F0F0F0"/>
<path d="M166.093 149.828H164.47V151.456H166.093V149.828Z" fill="#F0F0F0"/>
<path d="M166.093 152.551H164.47V154.179H166.093V152.551Z" fill="#F0F0F0"/>
<path d="M166.093 155.275H164.47V156.904H166.093V155.275Z" fill="#F0F0F0"/>
<path d="M166.093 163.449H164.47V165.072H166.093V163.449Z" fill="#F0F0F0"/>
<path d="M166.093 166.174H164.47V167.797H166.093V166.174Z" fill="#F0F0F0"/>
<path d="M166.093 168.902H164.47V170.525H166.093V168.902Z" fill="#F0F0F0"/>
<path d="M166.093 171.625H164.47V173.248H166.093V171.625Z" fill="#F0F0F0"/>
<path d="M163.51 130.748H161.888V132.371H163.51V130.748Z" fill="#F0F0F0"/>
<path d="M163.51 133.477H161.888V135.099H163.51V133.477Z" fill="#F0F0F0"/>
<path d="M163.51 136.201H161.888V137.83H163.51V136.201Z" fill="#F0F0F0"/>
<path d="M163.51 138.924H161.888V140.552H163.51V138.924Z" fill="#F0F0F0"/>
<path d="M163.51 141.652H161.888V143.275H163.51V141.652Z" fill="#F0F0F0"/>
<path d="M163.51 144.375H161.888V145.998H163.51V144.375Z" fill="#F0F0F0"/>
<path d="M163.51 147.1H161.888V148.722H163.51V147.1Z" fill="#F0F0F0"/>
<path d="M163.51 149.828H161.888V151.456H163.51V149.828Z" fill="#F0F0F0"/>
<path d="M163.51 152.551H161.888V154.179H163.51V152.551Z" fill="#F0F0F0"/>
<path d="M163.51 155.275H161.888V156.904H163.51V155.275Z" fill="#F0F0F0"/>
<path d="M163.51 163.449H161.888V165.072H163.51V163.449Z" fill="#F0F0F0"/>
<path d="M163.51 166.174H161.888V167.797H163.51V166.174Z" fill="#F0F0F0"/>
<path d="M163.51 168.902H161.888V170.525H163.51V168.902Z" fill="#F0F0F0"/>
<path d="M134.447 123.674H132.824V125.297H134.447V123.674Z" fill="#F0F0F0"/>
<path d="M134.447 126.402H132.824V128.025H134.447V126.402Z" fill="#F0F0F0"/>
<path d="M134.447 129.125H132.824V130.748H134.447V129.125Z" fill="#F0F0F0"/>
<path d="M134.447 131.85H132.824V133.472H134.447V131.85Z" fill="#F0F0F0"/>
<path d="M134.447 134.578H132.824V136.201H134.447V134.578Z" fill="#F0F0F0"/>
<path d="M134.447 137.301H132.824V138.924H134.447V137.301Z" fill="#F0F0F0"/>
<path d="M134.447 140.023H132.824V141.646H134.447V140.023Z" fill="#F0F0F0"/>
<path d="M134.447 142.748H132.824V144.371H134.447V142.748Z" fill="#F0F0F0"/>
<path d="M134.447 150.924H132.824V152.547H134.447V150.924Z" fill="#F0F0F0"/>
<path d="M134.447 153.652H132.824V155.275H134.447V153.652Z" fill="#F0F0F0"/>
<path d="M131.87 123.674H130.241V125.297H131.87V123.674Z" fill="#F0F0F0"/>
<path d="M131.87 126.402H130.241V128.025H131.87V126.402Z" fill="#F0F0F0"/>
<path d="M131.87 129.125H130.241V130.748H131.87V129.125Z" fill="#F0F0F0"/>
<path d="M131.87 131.85H130.241V133.472H131.87V131.85Z" fill="#F0F0F0"/>
<path d="M131.87 134.578H130.241V136.201H131.87V134.578Z" fill="#F0F0F0"/>
<path d="M131.87 137.301H130.241V138.924H131.87V137.301Z" fill="#F0F0F0"/>
<path d="M131.87 140.023H130.241V141.646H131.87V140.023Z" fill="#F0F0F0"/>
<path d="M131.87 142.748H130.241V144.371H131.87V142.748Z" fill="#F0F0F0"/>
<path d="M131.87 153.652H130.241V155.275H131.87V153.652Z" fill="#F0F0F0"/>
<path d="M129.287 123.674H127.659V125.297H129.287V123.674Z" fill="#F0F0F0"/>
<path d="M129.287 126.402H127.659V128.025H129.287V126.402Z" fill="#F0F0F0"/>
<path d="M129.287 129.125H127.659V130.748H129.287V129.125Z" fill="#F0F0F0"/>
<path d="M129.287 131.85H127.659V133.472H129.287V131.85Z" fill="#F0F0F0"/>
<path d="M129.287 134.578H127.659V136.201H129.287V134.578Z" fill="#F0F0F0"/>
<path d="M129.287 137.301H127.659V138.924H129.287V137.301Z" fill="#F0F0F0"/>
<path d="M129.287 140.023H127.659V141.646H129.287V140.023Z" fill="#F0F0F0"/>
<path d="M129.287 142.748H127.659V144.371H129.287V142.748Z" fill="#F0F0F0"/>
<path d="M126.704 123.674H125.076V125.297H126.704V123.674Z" fill="#F0F0F0"/>
<path d="M126.704 126.402H125.076V128.025H126.704V126.402Z" fill="#F0F0F0"/>
<path d="M126.704 129.125H125.076V130.748H126.704V129.125Z" fill="#F0F0F0"/>
<path d="M126.704 131.85H125.076V133.472H126.704V131.85Z" fill="#F0F0F0"/>
<path d="M126.704 134.578H125.076V136.201H126.704V134.578Z" fill="#F0F0F0"/>
<path d="M126.704 137.301H125.076V138.924H126.704V137.301Z" fill="#F0F0F0"/>
<path d="M126.704 142.748H125.076V144.371H126.704V142.748Z" fill="#F0F0F0"/>
<path d="M126.704 145.477H125.076V147.099H126.704V145.477Z" fill="#F0F0F0"/>
<path d="M126.704 153.652H125.076V155.275H126.704V153.652Z" fill="#F0F0F0"/>
<path d="M126.704 156.375H125.076V157.998H126.704V156.375Z" fill="#F0F0F0"/>
<path d="M126.704 159.098H125.076V160.72H126.704V159.098Z" fill="#F0F0F0"/>
<path d="M126.704 161.828H125.076V163.451H126.704V161.828Z" fill="#F0F0F0"/>
<path d="M126.704 164.551H125.076V166.174H126.704V164.551Z" fill="#F0F0F0"/>
<path d="M126.704 167.273H125.076V168.896H126.704V167.273Z" fill="#F0F0F0"/>
<path d="M126.704 169.998H125.076V171.626H126.704V169.998Z" fill="#F0F0F0"/>
<path d="M124.121 123.674H122.498V125.297H124.121V123.674Z" fill="#F0F0F0"/>
<path d="M124.121 126.402H122.498V128.025H124.121V126.402Z" fill="#F0F0F0"/>
<path d="M124.121 129.125H122.498V130.748H124.121V129.125Z" fill="#F0F0F0"/>
<path d="M124.121 131.85H122.498V133.472H124.121V131.85Z" fill="#F0F0F0"/>
<path d="M124.121 134.578H122.498V136.201H124.121V134.578Z" fill="#F0F0F0"/>
<path d="M124.121 137.301H122.498V138.924H124.121V137.301Z" fill="#F0F0F0"/>
<path d="M124.121 145.477H122.498V147.099H124.121V145.477Z" fill="#F0F0F0"/>
<path d="M124.121 148.199H122.498V149.822H124.121V148.199Z" fill="#F0F0F0"/>
<path d="M124.121 150.924H122.498V152.547H124.121V150.924Z" fill="#F0F0F0"/>
<path d="M124.121 153.652H122.498V155.275H124.121V153.652Z" fill="#F0F0F0"/>
<path d="M124.121 156.375H122.498V157.998H124.121V156.375Z" fill="#F0F0F0"/>
<path d="M124.121 159.098H122.498V160.72H124.121V159.098Z" fill="#F0F0F0"/>
<path d="M124.121 161.828H122.498V163.451H124.121V161.828Z" fill="#F0F0F0"/>
<path d="M124.121 164.551H122.498V166.174H124.121V164.551Z" fill="#F0F0F0"/>
<path d="M124.121 167.273H122.498V168.896H124.121V167.273Z" fill="#F0F0F0"/>
<path d="M124.121 169.998H122.498V171.626H124.121V169.998Z" fill="#F0F0F0"/>
<path d="M124.121 172.727H122.498V174.349H124.121V172.727Z" fill="#F0F0F0"/>
<path d="M124.121 178.172H122.498V179.795H124.121V178.172Z" fill="#F0F0F0"/>
<path d="M121.544 123.674H119.915V125.297H121.544V123.674Z" fill="#F0F0F0"/>
<path d="M121.544 126.402H119.915V128.025H121.544V126.402Z" fill="#F0F0F0"/>
<path d="M121.544 129.125H119.915V130.748H121.544V129.125Z" fill="#F0F0F0"/>
<path d="M121.544 131.85H119.915V133.472H121.544V131.85Z" fill="#F0F0F0"/>
<path d="M121.544 134.578H119.915V136.201H121.544V134.578Z" fill="#F0F0F0"/>
<path d="M121.544 137.301H119.915V138.924H121.544V137.301Z" fill="#F0F0F0"/>
<path d="M121.544 145.477H119.915V147.099H121.544V145.477Z" fill="#F0F0F0"/>
<path d="M121.544 148.199H119.915V149.822H121.544V148.199Z" fill="#F0F0F0"/>
<path d="M121.544 150.924H119.915V152.547H121.544V150.924Z" fill="#F0F0F0"/>
<path d="M121.544 153.652H119.915V155.275H121.544V153.652Z" fill="#F0F0F0"/>
<path d="M121.544 161.828H119.915V163.451H121.544V161.828Z" fill="#F0F0F0"/>
<path d="M121.544 164.551H119.915V166.174H121.544V164.551Z" fill="#F0F0F0"/>
<path d="M121.544 167.273H119.915V168.896H121.544V167.273Z" fill="#F0F0F0"/>
<path d="M121.544 169.998H119.915V171.626H121.544V169.998Z" fill="#F0F0F0"/>
<path d="M121.544 172.727H119.915V174.349H121.544V172.727Z" fill="#F0F0F0"/>
<path d="M121.544 178.172H119.915V179.795H121.544V178.172Z" fill="#F0F0F0"/>
<path d="M121.544 180.902H119.915V182.525H121.544V180.902Z" fill="#F0F0F0"/>
<path d="M98.1124 149.014H96.4896V150.636H98.1124V149.014Z" fill="#F0F0F0"/>
<path d="M98.1124 151.736H96.4896V153.359H98.1124V151.736Z" fill="#F0F0F0"/>
<path d="M98.1124 154.461H96.4896V156.084H98.1124V154.461Z" fill="#F0F0F0"/>
<path d="M98.1124 157.189H96.4896V158.812H98.1124V157.189Z" fill="#F0F0F0"/>
<path d="M98.1124 159.912H96.4896V161.535H98.1124V159.912Z" fill="#F0F0F0"/>
<path d="M98.1124 162.637H96.4896V164.259H98.1124V162.637Z" fill="#F0F0F0"/>
<path d="M98.1124 165.365H96.4896V166.988H98.1124V165.365Z" fill="#F0F0F0"/>
<path d="M98.1124 173.541H96.4896V175.164H98.1124V173.541Z" fill="#F0F0F0"/>
<path d="M98.1124 176.264H96.4896V177.886H98.1124V176.264Z" fill="#F0F0F0"/>
<path d="M98.1124 178.986H96.4896V180.609H98.1124V178.986Z" fill="#F0F0F0"/>
<path d="M95.5295 149.014H93.9067V150.636H95.5295V149.014Z" fill="#F0F0F0"/>
<path d="M95.5295 151.736H93.9067V153.359H95.5295V151.736Z" fill="#F0F0F0"/>
<path d="M95.5295 154.461H93.9067V156.084H95.5295V154.461Z" fill="#F0F0F0"/>
<path d="M95.5295 157.189H93.9067V158.812H95.5295V157.189Z" fill="#F0F0F0"/>
<path d="M95.5295 159.912H93.9067V161.535H95.5295V159.912Z" fill="#F0F0F0"/>
<path d="M95.5295 162.637H93.9067V164.259H95.5295V162.637Z" fill="#F0F0F0"/>
<path d="M95.5295 165.365H93.9067V166.988H95.5295V165.365Z" fill="#F0F0F0"/>
<path d="M92.9466 149.014H91.3238V150.636H92.9466V149.014Z" fill="#F0F0F0"/>
<path d="M92.9466 151.736H91.3238V153.359H92.9466V151.736Z" fill="#F0F0F0"/>
<path d="M92.9466 154.461H91.3238V156.084H92.9466V154.461Z" fill="#F0F0F0"/>
<path d="M92.9466 157.189H91.3238V158.812H92.9466V157.189Z" fill="#F0F0F0"/>
<path d="M92.9466 159.912H91.3238V161.535H92.9466V159.912Z" fill="#F0F0F0"/>
<path d="M92.9466 162.637H91.3238V164.259H92.9466V162.637Z" fill="#F0F0F0"/>
<path d="M92.9466 165.365H91.3238V166.988H92.9466V165.365Z" fill="#F0F0F0"/>
<path d="M90.3693 149.014H88.7466V150.636H90.3693V149.014Z" fill="#F0F0F0"/>
<path d="M90.3693 151.736H88.7466V153.359H90.3693V151.736Z" fill="#F0F0F0"/>
<path d="M90.3693 154.461H88.7466V156.084H90.3693V154.461Z" fill="#F0F0F0"/>
<path d="M90.3693 157.189H88.7466V158.812H90.3693V157.189Z" fill="#F0F0F0"/>
<path d="M90.3693 159.912H88.7466V161.535H90.3693V159.912Z" fill="#F0F0F0"/>
<path d="M90.3693 162.637H88.7466V164.259H90.3693V162.637Z" fill="#F0F0F0"/>
<path d="M90.3693 165.365H88.7466V166.988H90.3693V165.365Z" fill="#F0F0F0"/>
<path d="M90.3693 168.088H88.7466V169.711H90.3693V168.088Z" fill="#F0F0F0"/>
<path d="M90.3693 170.811H88.7466V172.433H90.3693V170.811Z" fill="#F0F0F0"/>
<path d="M90.3693 173.541H88.7466V175.164H90.3693V173.541Z" fill="#F0F0F0"/>
<path d="M90.3693 176.264H88.7466V177.886H90.3693V176.264Z" fill="#F0F0F0"/>
<path d="M87.7864 149.014H86.1636V150.636H87.7864V149.014Z" fill="#F0F0F0"/>
<path d="M87.7864 151.736H86.1636V153.359H87.7864V151.736Z" fill="#F0F0F0"/>
<path d="M87.7864 154.461H86.1636V156.084H87.7864V154.461Z" fill="#F0F0F0"/>
<path d="M87.7864 157.189H86.1636V158.812H87.7864V157.189Z" fill="#F0F0F0"/>
<path d="M87.7864 159.912H86.1636V161.535H87.7864V159.912Z" fill="#F0F0F0"/>
<path d="M87.7864 162.637H86.1636V164.259H87.7864V162.637Z" fill="#F0F0F0"/>
<path d="M87.7864 165.365H86.1636V166.988H87.7864V165.365Z" fill="#F0F0F0"/>
<path d="M87.7864 168.088H86.1636V169.711H87.7864V168.088Z" fill="#F0F0F0"/>
<path d="M87.7864 170.811H86.1636V172.433H87.7864V170.811Z" fill="#F0F0F0"/>
<path d="M87.7864 173.541H86.1636V175.164H87.7864V173.541Z" fill="#F0F0F0"/>
<path d="M87.7864 176.264H86.1636V177.886H87.7864V176.264Z" fill="#F0F0F0"/>
<path d="M87.7864 178.986H86.1636V180.609H87.7864V178.986Z" fill="#F0F0F0"/>
<path d="M87.7864 187.162H86.1636V188.785H87.7864V187.162Z" fill="#F0F0F0"/>
<path d="M87.7864 189.885H86.1636V191.507H87.7864V189.885Z" fill="#F0F0F0"/>
<path d="M85.2035 149.014H83.5807V150.636H85.2035V149.014Z" fill="#F0F0F0"/>
<path d="M85.2035 151.736H83.5807V153.359H85.2035V151.736Z" fill="#F0F0F0"/>
<path d="M85.2035 154.461H83.5807V156.084H85.2035V154.461Z" fill="#F0F0F0"/>
<path d="M85.2035 162.637H83.5807V164.259H85.2035V162.637Z" fill="#F0F0F0"/>
<path d="M85.2035 165.365H83.5807V166.988H85.2035V165.365Z" fill="#F0F0F0"/>
<path d="M85.2035 168.088H83.5807V169.711H85.2035V168.088Z" fill="#F0F0F0"/>
<path d="M85.2035 170.811H83.5807V172.433H85.2035V170.811Z" fill="#F0F0F0"/>
<path d="M85.2035 173.541H83.5807V175.164H85.2035V173.541Z" fill="#F0F0F0"/>
<path d="M85.2035 176.264H83.5807V177.886H85.2035V176.264Z" fill="#F0F0F0"/>
<path d="M85.2035 178.986H83.5807V180.609H85.2035V178.986Z" fill="#F0F0F0"/>
<path d="M85.2035 187.162H83.5807V188.785H85.2035V187.162Z" fill="#F0F0F0"/>
<path d="M85.2035 189.885H83.5807V191.507H85.2035V189.885Z" fill="#F0F0F0"/>
<path d="M85.2035 192.615H83.5807V194.244H85.2035V192.615Z" fill="#F0F0F0"/>
<path d="M58.1504 132.662H56.5221V134.285H58.1504V132.662Z" fill="#F0F0F0"/>
<path d="M58.1504 135.387H56.5221V137.009H58.1504V135.387Z" fill="#F0F0F0"/>
<path d="M58.1504 138.115H56.5221V139.738H58.1504V138.115Z" fill="#F0F0F0"/>
<path d="M58.1504 140.838H56.5221V142.461H58.1504V140.838Z" fill="#F0F0F0"/>
<path d="M58.1504 143.562H56.5221V145.185H58.1504V143.562Z" fill="#F0F0F0"/>
<path d="M58.1504 146.285H56.5221V147.908H58.1504V146.285Z" fill="#F0F0F0"/>
<path d="M58.1504 149.014H56.5221V150.636H58.1504V149.014Z" fill="#F0F0F0"/>
<path d="M58.1504 151.736H56.5221V153.359H58.1504V151.736Z" fill="#F0F0F0"/>
<path d="M58.1504 154.461H56.5221V156.084H58.1504V154.461Z" fill="#F0F0F0"/>
<path d="M58.1504 157.189H56.5221V158.812H58.1504V157.189Z" fill="#F0F0F0"/>
<path d="M58.1504 159.912H56.5221V161.535H58.1504V159.912Z" fill="#F0F0F0"/>
<path d="M58.1504 162.637H56.5221V164.259H58.1504V162.637Z" fill="#F0F0F0"/>
<path d="M58.1504 165.365H56.5221V166.988H58.1504V165.365Z" fill="#F0F0F0"/>
<path d="M58.1504 168.088H56.5221V169.711H58.1504V168.088Z" fill="#F0F0F0"/>
<path d="M58.1504 170.811H56.5221V172.433H58.1504V170.811Z" fill="#F0F0F0"/>
<path d="M58.1504 173.541H56.5221V175.164H58.1504V173.541Z" fill="#F0F0F0"/>
<path d="M58.1504 176.264H56.5221V177.886H58.1504V176.264Z" fill="#F0F0F0"/>
<path d="M58.1504 178.986H56.5221V180.609H58.1504V178.986Z" fill="#F0F0F0"/>
<path d="M58.1504 181.711H56.5221V183.334H58.1504V181.711Z" fill="#F0F0F0"/>
<path d="M58.1504 184.439H56.5221V186.062H58.1504V184.439Z" fill="#F0F0F0"/>
<path d="M58.1504 187.162H56.5221V188.785H58.1504V187.162Z" fill="#F0F0F0"/>
<path d="M58.1504 189.885H56.5221V191.507H58.1504V189.885Z" fill="#F0F0F0"/>
<path d="M58.1504 192.615H56.5221V194.244H58.1504V192.615Z" fill="#F0F0F0"/>
<path d="M55.5619 132.662H53.9391V134.285H55.5619V132.662Z" fill="#F0F0F0"/>
<path d="M55.5619 135.387H53.9391V137.009H55.5619V135.387Z" fill="#F0F0F0"/>
<path d="M55.5619 138.115H53.9391V139.738H55.5619V138.115Z" fill="#F0F0F0"/>
<path d="M55.5619 140.838H53.9391V142.461H55.5619V140.838Z" fill="#F0F0F0"/>
<path d="M55.5619 143.562H53.9391V145.185H55.5619V143.562Z" fill="#F0F0F0"/>
<path d="M55.5619 146.285H53.9391V147.908H55.5619V146.285Z" fill="#F0F0F0"/>
<path d="M55.5619 149.014H53.9391V150.636H55.5619V149.014Z" fill="#F0F0F0"/>
<path d="M55.5619 151.736H53.9391V153.359H55.5619V151.736Z" fill="#F0F0F0"/>
<path d="M55.5619 154.461H53.9391V156.084H55.5619V154.461Z" fill="#F0F0F0"/>
<path d="M55.5619 157.189H53.9391V158.812H55.5619V157.189Z" fill="#F0F0F0"/>
<path d="M55.5619 159.912H53.9391V161.535H55.5619V159.912Z" fill="#F0F0F0"/>
<path d="M55.5619 162.637H53.9391V164.259H55.5619V162.637Z" fill="#F0F0F0"/>
<path d="M55.5619 165.365H53.9391V166.988H55.5619V165.365Z" fill="#F0F0F0"/>
<path d="M55.5619 168.088H53.9391V169.711H55.5619V168.088Z" fill="#F0F0F0"/>
<path d="M55.5619 170.811H53.9391V172.433H55.5619V170.811Z" fill="#F0F0F0"/>
<path d="M55.5619 173.541H53.9391V175.164H55.5619V173.541Z" fill="#F0F0F0"/>
<path d="M55.5619 176.264H53.9391V177.886H55.5619V176.264Z" fill="#F0F0F0"/>
<path d="M55.5619 178.986H53.9391V180.609H55.5619V178.986Z" fill="#F0F0F0"/>
<path d="M55.5619 181.711H53.9391V183.334H55.5619V181.711Z" fill="#F0F0F0"/>
<path d="M52.9846 132.662H51.3619V134.285H52.9846V132.662Z" fill="#F0F0F0"/>
<path d="M52.9846 135.387H51.3619V137.009H52.9846V135.387Z" fill="#F0F0F0"/>
<path d="M52.9846 138.115H51.3619V139.738H52.9846V138.115Z" fill="#F0F0F0"/>
<path d="M52.9846 140.838H51.3619V142.461H52.9846V140.838Z" fill="#F0F0F0"/>
<path d="M52.9846 143.562H51.3619V145.185H52.9846V143.562Z" fill="#F0F0F0"/>
<path d="M52.9846 146.285H51.3619V147.908H52.9846V146.285Z" fill="#F0F0F0"/>
<path d="M52.9846 149.014H51.3619V150.636H52.9846V149.014Z" fill="#F0F0F0"/>
<path d="M52.9846 151.736H51.3619V153.359H52.9846V151.736Z" fill="#F0F0F0"/>
<path d="M52.9846 154.461H51.3619V156.084H52.9846V154.461Z" fill="#F0F0F0"/>
<path d="M52.9846 157.189H51.3619V158.812H52.9846V157.189Z" fill="#F0F0F0"/>
<path d="M52.9846 159.912H51.3619V161.535H52.9846V159.912Z" fill="#F0F0F0"/>
<path d="M52.9846 162.637H51.3619V164.259H52.9846V162.637Z" fill="#F0F0F0"/>
<path d="M52.9846 165.365H51.3619V166.988H52.9846V165.365Z" fill="#F0F0F0"/>
<path d="M52.9846 168.088H51.3619V169.711H52.9846V168.088Z" fill="#F0F0F0"/>
<path d="M52.9846 170.811H51.3619V172.433H52.9846V170.811Z" fill="#F0F0F0"/>
<path d="M52.9846 173.541H51.3619V175.164H52.9846V173.541Z" fill="#F0F0F0"/>
<path d="M52.9846 176.264H51.3619V177.886H52.9846V176.264Z" fill="#F0F0F0"/>
<path d="M52.9846 178.986H51.3619V180.609H52.9846V178.986Z" fill="#F0F0F0"/>
<path d="M52.9846 181.711H51.3619V183.334H52.9846V181.711Z" fill="#F0F0F0"/>
<path d="M50.4017 132.662H48.779V134.285H50.4017V132.662Z" fill="#F0F0F0"/>
<path d="M50.4017 135.387H48.779V137.009H50.4017V135.387Z" fill="#F0F0F0"/>
<path d="M50.4017 138.115H48.779V139.738H50.4017V138.115Z" fill="#F0F0F0"/>
<path d="M50.4017 140.838H48.779V142.461H50.4017V140.838Z" fill="#F0F0F0"/>
<path d="M50.4017 143.562H48.779V145.185H50.4017V143.562Z" fill="#F0F0F0"/>
<path d="M50.4017 146.285H48.779V147.908H50.4017V146.285Z" fill="#F0F0F0"/>
<path d="M50.4017 149.014H48.779V150.636H50.4017V149.014Z" fill="#F0F0F0"/>
<path d="M50.4017 151.736H48.779V153.359H50.4017V151.736Z" fill="#F0F0F0"/>
<path d="M50.4017 154.461H48.779V156.084H50.4017V154.461Z" fill="#F0F0F0"/>
<path d="M50.4017 157.189H48.779V158.812H50.4017V157.189Z" fill="#F0F0F0"/>
<path d="M50.4017 159.912H48.779V161.535H50.4017V159.912Z" fill="#F0F0F0"/>
<path d="M50.4017 162.637H48.779V164.259H50.4017V162.637Z" fill="#F0F0F0"/>
<path d="M50.4017 165.365H48.779V166.988H50.4017V165.365Z" fill="#F0F0F0"/>
<path d="M50.4017 168.088H48.779V169.711H50.4017V168.088Z" fill="#F0F0F0"/>
<path d="M50.4017 170.811H48.779V172.433H50.4017V170.811Z" fill="#F0F0F0"/>
<path d="M47.8188 132.662H46.1961V134.285H47.8188V132.662Z" fill="#F0F0F0"/>
<path d="M47.8188 135.387H46.1961V137.009H47.8188V135.387Z" fill="#F0F0F0"/>
<path d="M47.8188 138.115H46.1961V139.738H47.8188V138.115Z" fill="#F0F0F0"/>
<path d="M47.8188 140.838H46.1961V142.461H47.8188V140.838Z" fill="#F0F0F0"/>
<path d="M47.8188 143.562H46.1961V145.185H47.8188V143.562Z" fill="#F0F0F0"/>
<path d="M47.8188 146.285H46.1961V147.908H47.8188V146.285Z" fill="#F0F0F0"/>
<path d="M47.8188 149.014H46.1961V150.636H47.8188V149.014Z" fill="#F0F0F0"/>
<path d="M47.8188 151.736H46.1961V153.359H47.8188V151.736Z" fill="#F0F0F0"/>
<path d="M47.8188 154.461H46.1961V156.084H47.8188V154.461Z" fill="#F0F0F0"/>
<path d="M47.8188 157.189H46.1961V158.812H47.8188V157.189Z" fill="#F0F0F0"/>
<path d="M47.8188 159.912H46.1961V161.535H47.8188V159.912Z" fill="#F0F0F0"/>
<path d="M47.8188 162.637H46.1961V164.259H47.8188V162.637Z" fill="#F0F0F0"/>
<path d="M47.8188 165.365H46.1961V166.988H47.8188V165.365Z" fill="#F0F0F0"/>
<path d="M45.2359 132.662H43.6132V134.285H45.2359V132.662Z" fill="#F0F0F0"/>
<path d="M45.2359 135.387H43.6132V137.009H45.2359V135.387Z" fill="#F0F0F0"/>
<path d="M45.2359 138.115H43.6132V139.738H45.2359V138.115Z" fill="#F0F0F0"/>
<path d="M45.2359 140.838H43.6132V142.461H45.2359V140.838Z" fill="#F0F0F0"/>
<path d="M45.2359 143.562H43.6132V145.185H45.2359V143.562Z" fill="#F0F0F0"/>
<path d="M45.2359 146.285H43.6132V147.908H45.2359V146.285Z" fill="#F0F0F0"/>
<path d="M45.2359 149.014H43.6132V150.636H45.2359V149.014Z" fill="#F0F0F0"/>
<path d="M45.2359 151.736H43.6132V153.359H45.2359V151.736Z" fill="#F0F0F0"/>
<path d="M45.2359 154.461H43.6132V156.084H45.2359V154.461Z" fill="#F0F0F0"/>
<path d="M45.2359 157.189H43.6132V158.812H45.2359V157.189Z" fill="#F0F0F0"/>
<path d="M45.2359 159.912H43.6132V161.535H45.2359V159.912Z" fill="#F0F0F0"/>
<path d="M45.2359 162.637H43.6132V164.259H45.2359V162.637Z" fill="#F0F0F0"/>
<path d="M234.939 152.551H233.316V154.179H234.939V152.551Z" fill="#F0F0F0"/>
<path d="M234.939 155.275H233.316V156.904H234.939V155.275Z" fill="#F0F0F0"/>
<path d="M234.939 157.998H233.316V159.621H234.939V157.998Z" fill="#F0F0F0"/>
<path d="M234.939 160.727H233.316V162.355H234.939V160.727Z" fill="#F0F0F0"/>
<path d="M234.939 163.449H233.316V165.072H234.939V163.449Z" fill="#F0F0F0"/>
<path d="M234.939 166.174H233.316V167.797H234.939V166.174Z" fill="#F0F0F0"/>
<path d="M234.939 168.902H233.316V170.525H234.939V168.902Z" fill="#F0F0F0"/>
<path d="M234.939 171.625H233.316V173.248H234.939V171.625Z" fill="#F0F0F0"/>
<path d="M234.939 174.35H233.316V175.978H234.939V174.35Z" fill="#F0F0F0"/>
<path d="M234.939 177.078H233.316V178.706H234.939V177.078Z" fill="#F0F0F0"/>
<path d="M234.939 179.801H233.316V181.429H234.939V179.801Z" fill="#F0F0F0"/>
<path d="M234.939 182.523H233.316V184.146H234.939V182.523Z" fill="#F0F0F0"/>
<path d="M234.939 185.254H233.316V186.877H234.939V185.254Z" fill="#F0F0F0"/>
<path d="M234.939 187.977H233.316V189.599H234.939V187.977Z" fill="#F0F0F0"/>
<path d="M234.939 190.699H233.316V192.322H234.939V190.699Z" fill="#F0F0F0"/>
<path d="M234.939 193.424H233.316V195.047H234.939V193.424Z" fill="#F0F0F0"/>
<path d="M234.939 196.152H233.316V197.775H234.939V196.152Z" fill="#F0F0F0"/>
<path d="M234.939 198.875H233.316V200.498H234.939V198.875Z" fill="#F0F0F0"/>
<path d="M234.939 201.598H233.316V203.22H234.939V201.598Z" fill="#F0F0F0"/>
<path d="M234.939 204.328H233.316V205.951H234.939V204.328Z" fill="#F0F0F0"/>
<path d="M232.356 152.551H230.733V154.179H232.356V152.551Z" fill="#F0F0F0"/>
<path d="M232.356 155.275H230.733V156.904H232.356V155.275Z" fill="#F0F0F0"/>
<path d="M232.356 157.998H230.733V159.621H232.356V157.998Z" fill="#F0F0F0"/>
<path d="M232.356 160.727H230.733V162.355H232.356V160.727Z" fill="#F0F0F0"/>
<path d="M232.356 163.449H230.733V165.072H232.356V163.449Z" fill="#F0F0F0"/>
<path d="M232.356 166.174H230.733V167.797H232.356V166.174Z" fill="#F0F0F0"/>
<path d="M232.356 168.902H230.733V170.525H232.356V168.902Z" fill="#F0F0F0"/>
<path d="M232.356 171.625H230.733V173.248H232.356V171.625Z" fill="#F0F0F0"/>
<path d="M232.356 174.35H230.733V175.978H232.356V174.35Z" fill="#F0F0F0"/>
<path d="M232.356 177.078H230.733V178.706H232.356V177.078Z" fill="#F0F0F0"/>
<path d="M232.356 179.801H230.733V181.429H232.356V179.801Z" fill="#F0F0F0"/>
<path d="M232.356 182.523H230.733V184.146H232.356V182.523Z" fill="#F0F0F0"/>
<path d="M232.356 185.254H230.733V186.877H232.356V185.254Z" fill="#F0F0F0"/>
<path d="M232.356 187.977H230.733V189.599H232.356V187.977Z" fill="#F0F0F0"/>
<path d="M232.356 190.699H230.733V192.322H232.356V190.699Z" fill="#F0F0F0"/>
<path d="M232.356 193.424H230.733V195.047H232.356V193.424Z" fill="#F0F0F0"/>
<path d="M232.356 196.152H230.733V197.775H232.356V196.152Z" fill="#F0F0F0"/>
<path d="M232.356 198.875H230.733V200.498H232.356V198.875Z" fill="#F0F0F0"/>
<path d="M229.773 152.551H228.15V154.179H229.773V152.551Z" fill="#F0F0F0"/>
<path d="M229.773 155.275H228.15V156.904H229.773V155.275Z" fill="#F0F0F0"/>
<path d="M229.773 157.998H228.15V159.621H229.773V157.998Z" fill="#F0F0F0"/>
<path d="M229.773 160.727H228.15V162.355H229.773V160.727Z" fill="#F0F0F0"/>
<path d="M229.773 163.449H228.15V165.072H229.773V163.449Z" fill="#F0F0F0"/>
<path d="M229.773 166.174H228.15V167.797H229.773V166.174Z" fill="#F0F0F0"/>
<path d="M229.773 168.902H228.15V170.525H229.773V168.902Z" fill="#F0F0F0"/>
<path d="M229.773 171.625H228.15V173.248H229.773V171.625Z" fill="#F0F0F0"/>
<path d="M229.773 174.35H228.15V175.978H229.773V174.35Z" fill="#F0F0F0"/>
<path d="M229.773 177.078H228.15V178.706H229.773V177.078Z" fill="#F0F0F0"/>
<path d="M229.773 179.801H228.15V181.429H229.773V179.801Z" fill="#F0F0F0"/>
<path d="M229.773 182.523H228.15V184.146H229.773V182.523Z" fill="#F0F0F0"/>
<path d="M229.773 185.254H228.15V186.877H229.773V185.254Z" fill="#F0F0F0"/>
<path d="M229.773 187.977H228.15V189.599H229.773V187.977Z" fill="#F0F0F0"/>
<path d="M229.773 190.699H228.15V192.322H229.773V190.699Z" fill="#F0F0F0"/>
<path d="M229.773 193.424H228.15V195.047H229.773V193.424Z" fill="#F0F0F0"/>
<path d="M229.773 196.152H228.15V197.775H229.773V196.152Z" fill="#F0F0F0"/>
<path d="M229.773 198.875H228.15V200.498H229.773V198.875Z" fill="#F0F0F0"/>
<path d="M244.591 172.439H242.968V174.068H244.591V172.439Z" fill="#F0F0F0"/>
<path d="M244.591 175.162H242.968V176.785H244.591V175.162Z" fill="#F0F0F0"/>
<path d="M244.591 177.887H242.968V179.509H244.591V177.887Z" fill="#F0F0F0"/>
<path d="M244.591 180.615H242.968V182.238H244.591V180.615Z" fill="#F0F0F0"/>
<path d="M244.591 183.338H242.968V184.961H244.591V183.338Z" fill="#F0F0F0"/>
<path d="M244.591 186.062H242.968V187.685H244.591V186.062Z" fill="#F0F0F0"/>
<path d="M244.591 188.791H242.968V190.414H244.591V188.791Z" fill="#F0F0F0"/>
<path d="M244.591 191.514H242.968V193.136H244.591V191.514Z" fill="#F0F0F0"/>
<path d="M244.591 194.236H242.968V195.859H244.591V194.236Z" fill="#F0F0F0"/>
<path d="M244.591 196.961H242.968V198.584H244.591V196.961Z" fill="#F0F0F0"/>
<path d="M244.591 199.689H242.968V201.312H244.591V199.689Z" fill="#F0F0F0"/>
<path d="M244.591 202.412H242.968V204.035H244.591V202.412Z" fill="#F0F0F0"/>
<path d="M244.591 205.137H242.968V206.759H244.591V205.137Z" fill="#F0F0F0"/>
<path d="M242.014 172.439H240.391V174.068H242.014V172.439Z" fill="#F0F0F0"/>
<path d="M242.014 175.162H240.391V176.785H242.014V175.162Z" fill="#F0F0F0"/>
<path d="M242.014 177.887H240.391V179.509H242.014V177.887Z" fill="#F0F0F0"/>
<path d="M242.014 180.615H240.391V182.238H242.014V180.615Z" fill="#F0F0F0"/>
<path d="M242.014 183.338H240.391V184.961H242.014V183.338Z" fill="#F0F0F0"/>
<path d="M242.014 186.062H240.391V187.685H242.014V186.062Z" fill="#F0F0F0"/>
<path d="M242.014 188.791H240.391V190.414H242.014V188.791Z" fill="#F0F0F0"/>
<path d="M242.014 191.514H240.391V193.136H242.014V191.514Z" fill="#F0F0F0"/>
<path d="M242.014 194.236H240.391V195.859H242.014V194.236Z" fill="#F0F0F0"/>
<path d="M242.014 196.961H240.391V198.584H242.014V196.961Z" fill="#F0F0F0"/>
<path d="M242.014 199.689H240.391V201.312H242.014V199.689Z" fill="#F0F0F0"/>
<path d="M242.014 202.412H240.391V204.035H242.014V202.412Z" fill="#F0F0F0"/>
<path d="M242.014 205.137H240.391V206.759H242.014V205.137Z" fill="#F0F0F0"/>
<path d="M239.431 172.439H237.808V174.068H239.431V172.439Z" fill="#F0F0F0"/>
<path d="M239.431 175.162H237.808V176.785H239.431V175.162Z" fill="#F0F0F0"/>
<path d="M239.431 177.887H237.808V179.509H239.431V177.887Z" fill="#F0F0F0"/>
<path d="M239.431 180.615H237.808V182.238H239.431V180.615Z" fill="#F0F0F0"/>
<path d="M239.431 183.338H237.808V184.961H239.431V183.338Z" fill="#F0F0F0"/>
<path d="M239.431 186.062H237.808V187.685H239.431V186.062Z" fill="#F0F0F0"/>
<path d="M239.431 188.791H237.808V190.414H239.431V188.791Z" fill="#F0F0F0"/>
<path d="M239.431 191.514H237.808V193.136H239.431V191.514Z" fill="#F0F0F0"/>
<path d="M239.431 194.236H237.808V195.859H239.431V194.236Z" fill="#F0F0F0"/>
<path d="M239.431 196.961H237.808V198.584H239.431V196.961Z" fill="#F0F0F0"/>
<path d="M239.431 199.689H237.808V201.312H239.431V199.689Z" fill="#F0F0F0"/>
<path d="M239.431 202.412H237.808V204.035H239.431V202.412Z" fill="#F0F0F0"/>
<path d="M239.431 205.137H237.808V206.759H239.431V205.137Z" fill="#F0F0F0"/>
<path d="M239.431 207.865H237.808V209.488H239.431V207.865Z" fill="#F0F0F0"/>
<path d="M225.09 173.248H223.467V174.871H225.09V173.248Z" fill="#F0F0F0"/>
<path d="M225.09 175.977H223.467V177.599H225.09V175.977Z" fill="#F0F0F0"/>
<path d="M225.09 178.701H223.467V180.324H225.09V178.701Z" fill="#F0F0F0"/>
<path d="M225.09 181.424H223.467V183.047H225.09V181.424Z" fill="#F0F0F0"/>
<path d="M225.09 184.152H223.467V185.775H225.09V184.152Z" fill="#F0F0F0"/>
<path d="M225.09 186.875H223.467V188.498H225.09V186.875Z" fill="#F0F0F0"/>
<path d="M225.09 189.6H223.467V191.222H225.09V189.6Z" fill="#F0F0F0"/>
<path d="M225.09 192.328H223.467V193.956H225.09V192.328Z" fill="#F0F0F0"/>
<path d="M225.09 195.051H223.467V196.674H225.09V195.051Z" fill="#F0F0F0"/>
<path d="M225.09 197.775H223.467V199.398H225.09V197.775Z" fill="#F0F0F0"/>
<path d="M225.09 205.949H223.467V207.572H225.09V205.949Z" fill="#F0F0F0"/>
<path d="M222.513 173.248H220.884V174.871H222.513V173.248Z" fill="#F0F0F0"/>
<path d="M222.513 175.977H220.884V177.599H222.513V175.977Z" fill="#F0F0F0"/>
<path d="M222.513 178.701H220.884V180.324H222.513V178.701Z" fill="#F0F0F0"/>
<path d="M222.513 181.424H220.884V183.047H222.513V181.424Z" fill="#F0F0F0"/>
<path d="M222.513 184.152H220.884V185.775H222.513V184.152Z" fill="#F0F0F0"/>
<path d="M222.513 186.875H220.884V188.498H222.513V186.875Z" fill="#F0F0F0"/>
<path d="M222.513 189.6H220.884V191.222H222.513V189.6Z" fill="#F0F0F0"/>
<path d="M222.513 192.328H220.884V193.956H222.513V192.328Z" fill="#F0F0F0"/>
<path d="M222.513 195.051H220.884V196.674H222.513V195.051Z" fill="#F0F0F0"/>
<path d="M222.513 203.227H220.884V204.855H222.513V203.227Z" fill="#F0F0F0"/>
<path d="M222.513 205.949H220.884V207.572H222.513V205.949Z" fill="#F0F0F0"/>
<path d="M219.93 173.248H218.301V174.871H219.93V173.248Z" fill="#F0F0F0"/>
<path d="M219.93 175.977H218.301V177.599H219.93V175.977Z" fill="#F0F0F0"/>
<path d="M219.93 178.701H218.301V180.324H219.93V178.701Z" fill="#F0F0F0"/>
<path d="M219.93 181.424H218.301V183.047H219.93V181.424Z" fill="#F0F0F0"/>
<path d="M219.93 184.152H218.301V185.775H219.93V184.152Z" fill="#F0F0F0"/>
<path d="M219.93 186.875H218.301V188.498H219.93V186.875Z" fill="#F0F0F0"/>
<path d="M219.93 189.6H218.301V191.222H219.93V189.6Z" fill="#F0F0F0"/>
<path d="M219.93 192.328H218.301V193.956H219.93V192.328Z" fill="#F0F0F0"/>
<path d="M219.93 200.504H218.301V202.127H219.93V200.504Z" fill="#F0F0F0"/>
<path d="M219.93 203.227H218.301V204.855H219.93V203.227Z" fill="#F0F0F0"/>
<path d="M219.93 205.949H218.301V207.572H219.93V205.949Z" fill="#F0F0F0"/>
<path d="M195.926 131.85H194.303V133.472H195.926V131.85Z" fill="#F0F0F0"/>
<path d="M195.926 134.578H194.303V136.201H195.926V134.578Z" fill="#F0F0F0"/>
<path d="M195.926 137.301H194.303V138.924H195.926V137.301Z" fill="#F0F0F0"/>
<path d="M195.926 140.023H194.303V141.646H195.926V140.023Z" fill="#F0F0F0"/>
<path d="M195.926 142.748H194.303V144.371H195.926V142.748Z" fill="#F0F0F0"/>
<path d="M195.926 145.477H194.303V147.099H195.926V145.477Z" fill="#F0F0F0"/>
<path d="M195.926 148.199H194.303V149.822H195.926V148.199Z" fill="#F0F0F0"/>
<path d="M195.926 150.924H194.303V152.547H195.926V150.924Z" fill="#F0F0F0"/>
<path d="M195.926 153.652H194.303V155.275H195.926V153.652Z" fill="#F0F0F0"/>
<path d="M195.926 156.375H194.303V157.998H195.926V156.375Z" fill="#F0F0F0"/>
<path d="M195.926 159.098H194.303V160.72H195.926V159.098Z" fill="#F0F0F0"/>
<path d="M195.926 161.828H194.303V163.451H195.926V161.828Z" fill="#F0F0F0"/>
<path d="M195.926 164.551H194.303V166.174H195.926V164.551Z" fill="#F0F0F0"/>
<path d="M195.926 167.273H194.303V168.896H195.926V167.273Z" fill="#F0F0F0"/>
<path d="M195.926 169.998H194.303V171.626H195.926V169.998Z" fill="#F0F0F0"/>
<path d="M195.926 172.727H194.303V174.349H195.926V172.727Z" fill="#F0F0F0"/>
<path d="M195.926 175.449H194.303V177.072H195.926V175.449Z" fill="#F0F0F0"/>
<path d="M195.926 180.902H194.303V182.525H195.926V180.902Z" fill="#F0F0F0"/>
<path d="M195.926 183.625H194.303V185.248H195.926V183.625Z" fill="#F0F0F0"/>
<path d="M195.926 186.348H194.303V187.97H195.926V186.348Z" fill="#F0F0F0"/>
<path d="M195.926 189.076H194.303V190.699H195.926V189.076Z" fill="#F0F0F0"/>
<path d="M195.926 191.801H194.303V193.424H195.926V191.801Z" fill="#F0F0F0"/>
<path d="M193.343 131.85H191.72V133.472H193.343V131.85Z" fill="#F0F0F0"/>
<path d="M193.343 134.578H191.72V136.201H193.343V134.578Z" fill="#F0F0F0"/>
<path d="M193.343 137.301H191.72V138.924H193.343V137.301Z" fill="#F0F0F0"/>
<path d="M193.343 140.023H191.72V141.646H193.343V140.023Z" fill="#F0F0F0"/>
<path d="M193.343 142.748H191.72V144.371H193.343V142.748Z" fill="#F0F0F0"/>
<path d="M193.343 145.477H191.72V147.099H193.343V145.477Z" fill="#F0F0F0"/>
<path d="M193.343 148.199H191.72V149.822H193.343V148.199Z" fill="#F0F0F0"/>
<path d="M193.343 150.924H191.72V152.547H193.343V150.924Z" fill="#F0F0F0"/>
<path d="M193.343 153.652H191.72V155.275H193.343V153.652Z" fill="#F0F0F0"/>
<path d="M193.343 156.375H191.72V157.998H193.343V156.375Z" fill="#F0F0F0"/>
<path d="M193.343 159.098H191.72V160.72H193.343V159.098Z" fill="#F0F0F0"/>
<path d="M193.343 161.828H191.72V163.451H193.343V161.828Z" fill="#F0F0F0"/>
<path d="M193.343 164.551H191.72V166.174H193.343V164.551Z" fill="#F0F0F0"/>
<path d="M193.343 167.273H191.72V168.896H193.343V167.273Z" fill="#F0F0F0"/>
<path d="M193.343 169.998H191.72V171.626H193.343V169.998Z" fill="#F0F0F0"/>
<path d="M193.343 172.727H191.72V174.349H193.343V172.727Z" fill="#F0F0F0"/>
<path d="M193.343 189.076H191.72V190.699H193.343V189.076Z" fill="#F0F0F0"/>
<path d="M193.343 191.801H191.72V193.424H193.343V191.801Z" fill="#F0F0F0"/>
<path d="M190.765 131.85H189.143V133.472H190.765V131.85Z" fill="#F0F0F0"/>
<path d="M190.765 134.578H189.143V136.201H190.765V134.578Z" fill="#F0F0F0"/>
<path d="M190.765 137.301H189.143V138.924H190.765V137.301Z" fill="#F0F0F0"/>
<path d="M190.765 140.023H189.143V141.646H190.765V140.023Z" fill="#F0F0F0"/>
<path d="M190.765 142.748H189.143V144.371H190.765V142.748Z" fill="#F0F0F0"/>
<path d="M190.765 145.477H189.143V147.099H190.765V145.477Z" fill="#F0F0F0"/>
<path d="M190.765 148.199H189.143V149.822H190.765V148.199Z" fill="#F0F0F0"/>
<path d="M190.765 150.924H189.143V152.547H190.765V150.924Z" fill="#F0F0F0"/>
<path d="M190.765 153.652H189.143V155.275H190.765V153.652Z" fill="#F0F0F0"/>
<path d="M190.765 156.375H189.143V157.998H190.765V156.375Z" fill="#F0F0F0"/>
<path d="M190.765 159.098H189.143V160.72H190.765V159.098Z" fill="#F0F0F0"/>
<path d="M190.765 161.828H189.143V163.451H190.765V161.828Z" fill="#F0F0F0"/>
<path d="M190.765 164.551H189.143V166.174H190.765V164.551Z" fill="#F0F0F0"/>
<path d="M190.765 167.273H189.143V168.896H190.765V167.273Z" fill="#F0F0F0"/>
<path d="M190.765 169.998H189.143V171.626H190.765V169.998Z" fill="#F0F0F0"/>
<path d="M190.765 172.727H189.143V174.349H190.765V172.727Z" fill="#F0F0F0"/>
<path d="M190.765 178.172H189.143V179.795H190.765V178.172Z" fill="#F0F0F0"/>
<path d="M190.765 180.902H189.143V182.525H190.765V180.902Z" fill="#F0F0F0"/>
<path d="M190.765 183.625H189.143V185.248H190.765V183.625Z" fill="#F0F0F0"/>
<path d="M190.765 186.348H189.143V187.97H190.765V186.348Z" fill="#F0F0F0"/>
<path d="M190.765 191.801H189.143V193.424H190.765V191.801Z" fill="#F0F0F0"/>
<path d="M205.303 166.174H203.674V167.797H205.303V166.174Z" fill="#F0F0F0"/>
<path d="M205.303 168.902H203.674V170.525H205.303V168.902Z" fill="#F0F0F0"/>
<path d="M205.303 171.625H203.674V173.248H205.303V171.625Z" fill="#F0F0F0"/>
<path d="M205.303 174.35H203.674V175.978H205.303V174.35Z" fill="#F0F0F0"/>
<path d="M205.303 177.078H203.674V178.706H205.303V177.078Z" fill="#F0F0F0"/>
<path d="M205.303 179.801H203.674V181.429H205.303V179.801Z" fill="#F0F0F0"/>
<path d="M205.303 182.523H203.674V184.146H205.303V182.523Z" fill="#F0F0F0"/>
<path d="M205.303 187.977H203.674V189.599H205.303V187.977Z" fill="#F0F0F0"/>
<path d="M205.303 190.699H203.674V192.322H205.303V190.699Z" fill="#F0F0F0"/>
<path d="M205.303 193.424H203.674V195.047H205.303V193.424Z" fill="#F0F0F0"/>
<path d="M205.303 196.152H203.674V197.775H205.303V196.152Z" fill="#F0F0F0"/>
<path d="M205.303 198.875H203.674V200.498H205.303V198.875Z" fill="#F0F0F0"/>
<path d="M205.303 201.598H203.674V203.22H205.303V201.598Z" fill="#F0F0F0"/>
<path d="M205.303 204.328H203.674V205.951H205.303V204.328Z" fill="#F0F0F0"/>
<path d="M205.303 207.051H203.674V208.674H205.303V207.051Z" fill="#F0F0F0"/>
<path d="M202.714 166.174H201.091V167.797H202.714V166.174Z" fill="#F0F0F0"/>
<path d="M202.714 168.902H201.091V170.525H202.714V168.902Z" fill="#F0F0F0"/>
<path d="M202.714 171.625H201.091V173.248H202.714V171.625Z" fill="#F0F0F0"/>
<path d="M202.714 174.35H201.091V175.978H202.714V174.35Z" fill="#F0F0F0"/>
<path d="M202.714 177.078H201.091V178.706H202.714V177.078Z" fill="#F0F0F0"/>
<path d="M202.714 179.801H201.091V181.429H202.714V179.801Z" fill="#F0F0F0"/>
<path d="M202.714 187.977H201.091V189.599H202.714V187.977Z" fill="#F0F0F0"/>
<path d="M202.714 190.699H201.091V192.322H202.714V190.699Z" fill="#F0F0F0"/>
<path d="M202.714 193.424H201.091V195.047H202.714V193.424Z" fill="#F0F0F0"/>
<path d="M202.714 196.152H201.091V197.775H202.714V196.152Z" fill="#F0F0F0"/>
<path d="M202.714 198.875H201.091V200.498H202.714V198.875Z" fill="#F0F0F0"/>
<path d="M202.714 201.598H201.091V203.22H202.714V201.598Z" fill="#F0F0F0"/>
<path d="M202.714 204.328H201.091V205.951H202.714V204.328Z" fill="#F0F0F0"/>
<path d="M202.714 207.051H201.091V208.674H202.714V207.051Z" fill="#F0F0F0"/>
<path d="M200.137 166.174H198.509V167.797H200.137V166.174Z" fill="#F0F0F0"/>
<path d="M200.137 168.902H198.509V170.525H200.137V168.902Z" fill="#F0F0F0"/>
<path d="M200.137 171.625H198.509V173.248H200.137V171.625Z" fill="#F0F0F0"/>
<path d="M200.137 174.35H198.509V175.978H200.137V174.35Z" fill="#F0F0F0"/>
<path d="M200.137 177.078H198.509V178.706H200.137V177.078Z" fill="#F0F0F0"/>
<path d="M200.137 179.801H198.509V181.429H200.137V179.801Z" fill="#F0F0F0"/>
<path d="M200.137 185.254H198.509V186.877H200.137V185.254Z" fill="#F0F0F0"/>
<path d="M200.137 187.977H198.509V189.599H200.137V187.977Z" fill="#F0F0F0"/>
<path d="M200.137 190.699H198.509V192.322H200.137V190.699Z" fill="#F0F0F0"/>
<path d="M200.137 193.424H198.509V195.047H200.137V193.424Z" fill="#F0F0F0"/>
<path d="M200.137 196.152H198.509V197.775H200.137V196.152Z" fill="#F0F0F0"/>
<path d="M200.137 198.875H198.509V200.498H200.137V198.875Z" fill="#F0F0F0"/>
<path d="M200.137 201.598H198.509V203.22H200.137V201.598Z" fill="#F0F0F0"/>
<path d="M200.137 204.328H198.509V205.951H200.137V204.328Z" fill="#F0F0F0"/>
<path d="M200.137 207.051H198.509V208.674H200.137V207.051Z" fill="#F0F0F0"/>
<path d="M145.728 150.924H144.105V152.547H145.728V150.924Z" fill="#F0F0F0"/>
<path d="M145.728 153.652H144.105V155.275H145.728V153.652Z" fill="#F0F0F0"/>
<path d="M145.728 156.375H144.105V157.998H145.728V156.375Z" fill="#F0F0F0"/>
<path d="M145.728 159.098H144.105V160.72H145.728V159.098Z" fill="#F0F0F0"/>
<path d="M145.728 161.828H144.105V163.451H145.728V161.828Z" fill="#F0F0F0"/>
<path d="M145.728 164.551H144.105V166.174H145.728V164.551Z" fill="#F0F0F0"/>
<path d="M145.728 167.273H144.105V168.896H145.728V167.273Z" fill="#F0F0F0"/>
<path d="M145.728 169.998H144.105V171.626H145.728V169.998Z" fill="#F0F0F0"/>
<path d="M145.728 172.727H144.105V174.349H145.728V172.727Z" fill="#F0F0F0"/>
<path d="M145.728 175.449H144.105V177.072H145.728V175.449Z" fill="#F0F0F0"/>
<path d="M145.728 178.172H144.105V179.795H145.728V178.172Z" fill="#F0F0F0"/>
<path d="M145.728 180.902H144.105V182.525H145.728V180.902Z" fill="#F0F0F0"/>
<path d="M145.728 183.625H144.105V185.248H145.728V183.625Z" fill="#F0F0F0"/>
<path d="M145.728 189.076H144.105V190.699H145.728V189.076Z" fill="#F0F0F0"/>
<path d="M145.728 191.801H144.105V193.424H145.728V191.801Z" fill="#F0F0F0"/>
<path d="M145.728 194.523H144.105V196.146H145.728V194.523Z" fill="#F0F0F0"/>
<path d="M145.728 197.252H144.105V198.875H145.728V197.252Z" fill="#F0F0F0"/>
<path d="M145.728 202.699H144.105V204.328H145.728V202.699Z" fill="#F0F0F0"/>
<path d="M145.728 205.428H144.105V207.05H145.728V205.428Z" fill="#F0F0F0"/>
<path d="M145.728 208.15H144.105V209.773H145.728V208.15Z" fill="#F0F0F0"/>
<path d="M143.145 150.924H141.522V152.547H143.145V150.924Z" fill="#F0F0F0"/>
<path d="M143.145 153.652H141.522V155.275H143.145V153.652Z" fill="#F0F0F0"/>
<path d="M143.145 156.375H141.522V157.998H143.145V156.375Z" fill="#F0F0F0"/>
<path d="M143.145 159.098H141.522V160.72H143.145V159.098Z" fill="#F0F0F0"/>
<path d="M143.145 161.828H141.522V163.451H143.145V161.828Z" fill="#F0F0F0"/>
<path d="M143.145 164.551H141.522V166.174H143.145V164.551Z" fill="#F0F0F0"/>
<path d="M143.145 167.273H141.522V168.896H143.145V167.273Z" fill="#F0F0F0"/>
<path d="M143.145 169.998H141.522V171.626H143.145V169.998Z" fill="#F0F0F0"/>
<path d="M143.145 172.727H141.522V174.349H143.145V172.727Z" fill="#F0F0F0"/>
<path d="M143.145 175.449H141.522V177.072H143.145V175.449Z" fill="#F0F0F0"/>
<path d="M143.145 178.172H141.522V179.795H143.145V178.172Z" fill="#F0F0F0"/>
<path d="M143.145 180.902H141.522V182.525H143.145V180.902Z" fill="#F0F0F0"/>
<path d="M143.145 183.625H141.522V185.248H143.145V183.625Z" fill="#F0F0F0"/>
<path d="M143.145 191.801H141.522V193.424H143.145V191.801Z" fill="#F0F0F0"/>
<path d="M143.145 194.523H141.522V196.146H143.145V194.523Z" fill="#F0F0F0"/>
<path d="M143.145 199.977H141.522V201.599H143.145V199.977Z" fill="#F0F0F0"/>
<path d="M143.145 202.699H141.522V204.328H143.145V202.699Z" fill="#F0F0F0"/>
<path d="M143.145 205.428H141.522V207.05H143.145V205.428Z" fill="#F0F0F0"/>
<path d="M143.145 208.15H141.522V209.773H143.145V208.15Z" fill="#F0F0F0"/>
<path d="M140.567 150.924H138.945V152.547H140.567V150.924Z" fill="#F0F0F0"/>
<path d="M140.567 153.652H138.945V155.275H140.567V153.652Z" fill="#F0F0F0"/>
<path d="M140.567 156.375H138.945V157.998H140.567V156.375Z" fill="#F0F0F0"/>
<path d="M140.567 159.098H138.945V160.72H140.567V159.098Z" fill="#F0F0F0"/>
<path d="M140.567 161.828H138.945V163.451H140.567V161.828Z" fill="#F0F0F0"/>
<path d="M140.567 164.551H138.945V166.174H140.567V164.551Z" fill="#F0F0F0"/>
<path d="M140.567 167.273H138.945V168.896H140.567V167.273Z" fill="#F0F0F0"/>
<path d="M140.567 169.998H138.945V171.626H140.567V169.998Z" fill="#F0F0F0"/>
<path d="M140.567 172.727H138.945V174.349H140.567V172.727Z" fill="#F0F0F0"/>
<path d="M140.567 175.449H138.945V177.072H140.567V175.449Z" fill="#F0F0F0"/>
<path d="M140.567 178.172H138.945V179.795H140.567V178.172Z" fill="#F0F0F0"/>
<path d="M140.567 180.902H138.945V182.525H140.567V180.902Z" fill="#F0F0F0"/>
<path d="M140.567 183.625H138.945V185.248H140.567V183.625Z" fill="#F0F0F0"/>
<path d="M140.567 186.348H138.945V187.97H140.567V186.348Z" fill="#F0F0F0"/>
<path d="M140.567 191.801H138.945V193.424H140.567V191.801Z" fill="#F0F0F0"/>
<path d="M140.567 197.252H138.945V198.875H140.567V197.252Z" fill="#F0F0F0"/>
<path d="M140.567 199.977H138.945V201.599H140.567V199.977Z" fill="#F0F0F0"/>
<path d="M140.567 202.699H138.945V204.328H140.567V202.699Z" fill="#F0F0F0"/>
<path d="M140.567 205.428H138.945V207.05H140.567V205.428Z" fill="#F0F0F0"/>
<path d="M140.567 208.15H138.945V209.773H140.567V208.15Z" fill="#F0F0F0"/>
<path d="M156.25 166.459H154.622V168.082H156.25V166.459Z" fill="#F0F0F0"/>
<path d="M156.25 169.189H154.622V170.812H156.25V169.189Z" fill="#F0F0F0"/>
<path d="M156.25 171.912H154.622V173.535H156.25V171.912Z" fill="#F0F0F0"/>
<path d="M156.25 174.635H154.622V176.257H156.25V174.635Z" fill="#F0F0F0"/>
<path d="M156.25 177.363H154.622V178.986H156.25V177.363Z" fill="#F0F0F0"/>
<path d="M156.25 180.088H154.622V181.711H156.25V180.088Z" fill="#F0F0F0"/>
<path d="M156.25 188.264H154.622V189.886H156.25V188.264Z" fill="#F0F0F0"/>
<path d="M156.25 190.986H154.622V192.609H156.25V190.986Z" fill="#F0F0F0"/>
<path d="M156.25 193.715H154.622V195.338H156.25V193.715Z" fill="#F0F0F0"/>
<path d="M156.25 196.438H154.622V198.066H156.25V196.438Z" fill="#F0F0F0"/>
<path d="M156.25 199.162H154.622V200.785H156.25V199.162Z" fill="#F0F0F0"/>
<path d="M156.25 201.885H154.622V203.507H156.25V201.885Z" fill="#F0F0F0"/>
<path d="M156.25 204.613H154.622V206.236H156.25V204.613Z" fill="#F0F0F0"/>
<path d="M153.667 166.459H152.044V168.082H153.667V166.459Z" fill="#F0F0F0"/>
<path d="M153.667 169.189H152.044V170.812H153.667V169.189Z" fill="#F0F0F0"/>
<path d="M153.667 171.912H152.044V173.535H153.667V171.912Z" fill="#F0F0F0"/>
<path d="M153.667 174.635H152.044V176.257H153.667V174.635Z" fill="#F0F0F0"/>
<path d="M153.667 177.363H152.044V178.986H153.667V177.363Z" fill="#F0F0F0"/>
<path d="M153.667 180.088H152.044V181.711H153.667V180.088Z" fill="#F0F0F0"/>
<path d="M153.667 188.264H152.044V189.886H153.667V188.264Z" fill="#F0F0F0"/>
<path d="M153.667 190.986H152.044V192.609H153.667V190.986Z" fill="#F0F0F0"/>
<path d="M153.667 193.715H152.044V195.338H153.667V193.715Z" fill="#F0F0F0"/>
<path d="M153.667 196.438H152.044V198.066H153.667V196.438Z" fill="#F0F0F0"/>
<path d="M153.667 199.162H152.044V200.785H153.667V199.162Z" fill="#F0F0F0"/>
<path d="M153.667 201.885H152.044V203.507H153.667V201.885Z" fill="#F0F0F0"/>
<path d="M153.667 207.336H152.044V208.959H153.667V207.336Z" fill="#F0F0F0"/>
<path d="M67.8981 154.461H66.2753V156.084H67.8981V154.461Z" fill="#F0F0F0"/>
<path d="M67.8981 157.189H66.2753V158.812H67.8981V157.189Z" fill="#F0F0F0"/>
<path d="M67.8981 159.912H66.2753V161.535H67.8981V159.912Z" fill="#F0F0F0"/>
<path d="M67.8981 162.637H66.2753V164.259H67.8981V162.637Z" fill="#F0F0F0"/>
<path d="M67.8981 165.365H66.2753V166.988H67.8981V165.365Z" fill="#F0F0F0"/>
<path d="M67.8981 168.088H66.2753V169.711H67.8981V168.088Z" fill="#F0F0F0"/>
<path d="M67.8981 170.811H66.2753V172.433H67.8981V170.811Z" fill="#F0F0F0"/>
<path d="M67.8981 173.541H66.2753V175.164H67.8981V173.541Z" fill="#F0F0F0"/>
<path d="M67.8981 176.264H66.2753V177.886H67.8981V176.264Z" fill="#F0F0F0"/>
<path d="M67.8981 178.986H66.2753V180.609H67.8981V178.986Z" fill="#F0F0F0"/>
<path d="M67.8981 181.711H66.2753V183.334H67.8981V181.711Z" fill="#F0F0F0"/>
<path d="M67.8981 187.162H66.2753V188.785H67.8981V187.162Z" fill="#F0F0F0"/>
<path d="M67.8981 189.885H66.2753V191.507H67.8981V189.885Z" fill="#F0F0F0"/>
<path d="M67.8981 192.615H66.2753V194.244H67.8981V192.615Z" fill="#F0F0F0"/>
<path d="M67.8981 195.338H66.2753V196.961H67.8981V195.338Z" fill="#F0F0F0"/>
<path d="M67.8981 198.061H66.2753V199.683H67.8981V198.061Z" fill="#F0F0F0"/>
<path d="M67.8981 200.789H66.2753V202.412H67.8981V200.789Z" fill="#F0F0F0"/>
<path d="M67.8981 203.514H66.2753V205.136H67.8981V203.514Z" fill="#F0F0F0"/>
<path d="M67.8981 206.236H66.2753V207.859H67.8981V206.236Z" fill="#F0F0F0"/>
<path d="M65.3208 154.461H63.6924V156.084H65.3208V154.461Z" fill="#F0F0F0"/>
<path d="M65.3208 157.189H63.6924V158.812H65.3208V157.189Z" fill="#F0F0F0"/>
<path d="M65.3208 159.912H63.6924V161.535H65.3208V159.912Z" fill="#F0F0F0"/>
<path d="M65.3208 162.637H63.6924V164.259H65.3208V162.637Z" fill="#F0F0F0"/>
<path d="M65.3208 165.365H63.6924V166.988H65.3208V165.365Z" fill="#F0F0F0"/>
<path d="M65.3208 168.088H63.6924V169.711H65.3208V168.088Z" fill="#F0F0F0"/>
<path d="M65.3208 170.811H63.6924V172.433H65.3208V170.811Z" fill="#F0F0F0"/>
<path d="M65.3208 173.541H63.6924V175.164H65.3208V173.541Z" fill="#F0F0F0"/>
<path d="M65.3208 176.264H63.6924V177.886H65.3208V176.264Z" fill="#F0F0F0"/>
<path d="M65.3208 178.986H63.6924V180.609H65.3208V178.986Z" fill="#F0F0F0"/>
<path d="M65.3208 181.711H63.6924V183.334H65.3208V181.711Z" fill="#F0F0F0"/>
<path d="M65.3208 184.439H63.6924V186.062H65.3208V184.439Z" fill="#F0F0F0"/>
<path d="M65.3208 187.162H63.6924V188.785H65.3208V187.162Z" fill="#F0F0F0"/>
<path d="M65.3208 189.885H63.6924V191.507H65.3208V189.885Z" fill="#F0F0F0"/>
<path d="M65.3208 192.615H63.6924V194.244H65.3208V192.615Z" fill="#F0F0F0"/>
<path d="M65.3208 195.338H63.6924V196.961H65.3208V195.338Z" fill="#F0F0F0"/>
<path d="M65.3208 198.061H63.6924V199.683H65.3208V198.061Z" fill="#F0F0F0"/>
<path d="M65.3208 200.789H63.6924V202.412H65.3208V200.789Z" fill="#F0F0F0"/>
<path d="M65.3208 203.514H63.6924V205.136H65.3208V203.514Z" fill="#F0F0F0"/>
<path d="M65.3208 206.236H63.6924V207.859H65.3208V206.236Z" fill="#F0F0F0"/>
<path d="M80.616 165.078H78.9933V166.701H80.616V165.078Z" fill="#F0F0F0"/>
<path d="M80.616 167.801H78.9933V169.424H80.616V167.801Z" fill="#F0F0F0"/>
<path d="M80.616 170.525H78.9933V172.148H80.616V170.525Z" fill="#F0F0F0"/>
<path d="M80.616 173.248H78.9933V174.871H80.616V173.248Z" fill="#F0F0F0"/>
<path d="M80.616 175.977H78.9933V177.599H80.616V175.977Z" fill="#F0F0F0"/>
<path d="M80.616 178.701H78.9933V180.324H80.616V178.701Z" fill="#F0F0F0"/>
<path d="M80.616 181.424H78.9933V183.047H80.616V181.424Z" fill="#F0F0F0"/>
<path d="M80.616 184.152H78.9933V185.775H80.616V184.152Z" fill="#F0F0F0"/>
<path d="M80.616 186.875H78.9933V188.498H80.616V186.875Z" fill="#F0F0F0"/>
<path d="M80.616 189.6H78.9933V191.222H80.616V189.6Z" fill="#F0F0F0"/>
<path d="M78.0331 165.078H76.4104V166.701H78.0331V165.078Z" fill="#F0F0F0"/>
<path d="M78.0331 167.801H76.4104V169.424H78.0331V167.801Z" fill="#F0F0F0"/>
<path d="M78.0331 170.525H76.4104V172.148H78.0331V170.525Z" fill="#F0F0F0"/>
<path d="M78.0331 173.248H76.4104V174.871H78.0331V173.248Z" fill="#F0F0F0"/>
<path d="M78.0331 175.977H76.4104V177.599H78.0331V175.977Z" fill="#F0F0F0"/>
<path d="M78.0331 178.701H76.4104V180.324H78.0331V178.701Z" fill="#F0F0F0"/>
<path d="M78.0331 181.424H76.4104V183.047H78.0331V181.424Z" fill="#F0F0F0"/>
<path d="M78.0331 184.152H76.4104V185.775H78.0331V184.152Z" fill="#F0F0F0"/>
<path d="M78.0331 186.875H76.4104V188.498H78.0331V186.875Z" fill="#F0F0F0"/>
<path d="M105.125 85.6429C105.125 84.4173 104.639 83.2419 103.772 82.3752C102.905 81.5086 101.73 81.0217 100.504 81.0217C100.054 81.0214 99.6058 81.0856 99.1736 81.2127C99.3842 79.8194 99.2909 78.3971 98.9001 77.0433C98.5093 75.6895 97.8304 74.4362 96.9098 73.3695C95.9891 72.3027 94.8487 71.4477 93.5666 70.8631C92.2845 70.2785 90.8912 69.9782 89.4821 69.9826C88.8775 69.9845 88.2742 70.0409 87.6797 70.1511C86.7134 68.5658 85.258 67.3374 83.5328 66.6512C81.8076 65.965 79.9062 65.8581 78.115 66.3466C76.3238 66.8352 74.7399 67.8926 73.6019 69.3597C72.464 70.8267 71.8337 72.6238 71.8061 74.4803H71.6657C69.5734 74.4803 67.5668 75.3114 66.0873 76.7909C64.6078 78.2704 63.7766 80.277 63.7766 82.3693C63.7766 84.4617 64.6078 86.4683 66.0873 87.9478C67.5668 89.4272 69.5734 90.2584 71.6657 90.2584H100.633C101.835 90.2234 102.976 89.7221 103.814 88.8606C104.653 87.9991 105.123 86.845 105.125 85.6429Z" fill="#F0F0F0"/>
<path d="M233.877 73.8674C233.877 73.0841 233.566 72.3329 233.012 71.779C232.459 71.2251 231.707 70.9139 230.924 70.9139C230.636 70.9139 230.351 70.9575 230.076 71.0431C230.121 70.742 230.144 70.4379 230.143 70.1335C230.145 69.3118 229.984 68.498 229.671 67.7384C229.358 66.9789 228.897 66.2886 228.317 65.7071C227.737 65.1256 227.047 64.6643 226.288 64.3495C225.529 64.0348 224.716 63.8727 223.894 63.8727C223.506 63.8712 223.119 63.907 222.737 63.9794C222.117 62.9775 221.189 62.2031 220.092 61.7717C218.996 61.3404 217.789 61.2752 216.652 61.5859C215.515 61.8966 214.509 62.5666 213.785 63.4958C213.06 64.4251 212.655 65.5638 212.63 66.742H212.535C211.27 66.8455 210.091 67.421 209.231 68.3542C208.371 69.2873 207.894 70.5098 207.894 71.7787C207.894 73.0476 208.371 74.27 209.231 75.2032C210.091 76.1363 211.27 76.7118 212.535 76.8153H231.031C231.795 76.7891 232.519 76.467 233.05 75.917C233.581 75.3669 233.878 74.6321 233.877 73.8674Z" fill="#F0F0F0"/>
<path d="M153.819 67.6187C153.819 67.1391 153.628 66.6793 153.289 66.3402C152.95 66.0011 152.49 65.8106 152.011 65.8106C151.834 65.8103 151.658 65.8368 151.489 65.8892C151.516 65.7033 151.529 65.5156 151.528 65.3277C151.528 64.3121 151.124 63.3381 150.406 62.6199C149.688 61.9018 148.714 61.4983 147.698 61.4983C147.463 61.4986 147.228 61.5193 146.997 61.5601C146.611 60.9533 146.041 60.4858 145.371 60.2259C144.701 59.966 143.965 59.9273 143.271 60.1155C142.577 60.3037 141.962 60.709 141.515 61.2719C141.068 61.8349 140.812 62.5261 140.786 63.2446H140.73C139.911 63.2446 139.126 63.5699 138.546 64.1491C137.967 64.7283 137.642 65.5138 137.642 66.3328C137.642 67.1519 137.967 67.9374 138.546 68.5166C139.126 69.0957 139.911 69.4211 140.73 69.4211H152.061C152.531 69.4065 152.976 69.2106 153.304 68.8745C153.631 68.5383 153.816 68.0882 153.819 67.6187Z" fill="#F0F0F0"/>
<path d="M140.5 240.499C200.627 240.499 249.369 237.654 249.369 234.143C249.369 230.633 200.627 227.787 140.5 227.787C80.3732 227.787 31.6308 230.633 31.6308 234.143C31.6308 237.654 80.3732 240.499 140.5 240.499Z" fill="#F5F5F5"/>
<path d="M229.2 117.361L215.735 118.192L219.222 120.158L145.233 158.132L125.401 150.855L65.3881 180.833L61.3116 182.872L66.0339 185.533L70.9807 183.062L125.676 155.74L145.525 163.028L223.922 122.797L226.718 124.369L229.2 117.361Z" fill="#407BFF"/>
<path d="M226.965 153.988L213.495 154.819L216.645 156.588L126.586 201.396L122.481 203.44L127.221 206.101L132.145 203.653L221.378 159.25L224.478 160.996L226.965 153.988Z" fill="#407BFF"/>
<path d="M171.63 101.195L158.165 102.026L161.315 103.795L71.2502 148.603L67.1456 150.647L71.8847 153.308L76.809 150.86L166.043 106.457L169.148 108.203L171.63 101.195Z" fill="#407BFF"/>
<path opacity="0.3" d="M229.2 117.361L215.735 118.192L219.222 120.158L145.233 158.132L125.401 150.855L65.3881 180.833L61.3116 182.872L66.0339 185.533L70.9807 183.062L125.676 155.74L145.525 163.028L223.922 122.797L226.718 124.369L229.2 117.361Z" fill="white"/>
<path opacity="0.7" d="M226.965 153.988L213.495 154.819L216.645 156.588L126.586 201.396L122.481 203.44L127.221 206.101L132.145 203.653L221.378 159.25L224.478 160.996L226.965 153.988Z" fill="white"/>
<path opacity="0.5" d="M171.63 101.195L158.165 102.026L161.315 103.795L71.2502 148.603L67.1456 150.647L71.8847 153.308L76.809 150.86L166.043 106.457L169.148 108.203L171.63 101.195Z" fill="white"/>
<path d="M54.0178 234.518H218.082L212.692 228.622L201.361 225.843L196.92 218.465L188.924 208.684H179.148L168.805 221.379L154.285 223.204L132.886 228.622L119.691 231.391L114.609 229.257L82.8957 231.885L72.8224 230.189L54.0178 234.518Z" fill="#263238"/>
<path opacity="0.7" d="M54.0178 234.518H218.082L212.692 228.622L201.361 225.843L196.92 218.465L188.924 208.684H179.148L168.805 221.379L154.285 223.204L132.886 228.622L119.691 231.391L114.609 229.257L82.8957 231.885L72.8224 230.189L54.0178 234.518Z" fill="white"/>
<path opacity="0.2" d="M72.8224 230.189L70.0542 233.002L81.3067 234.142L84.2714 233.002H107.517L113.739 229.577L120.146 231.997L119.023 233.592L149.478 231.997L147.356 227.236L154.285 223.204L162.281 225.821L164.386 229.184L168.53 231.076L168.805 221.379L179.148 208.684L181.226 214.344L188.081 212.53L181.226 219.975L176.677 221.761L175.347 230.307L186.897 226.371L197.408 228.707L201.361 225.843L199.334 230.307L189.412 231.997L186.105 234.518H54.0178L72.8224 230.189Z" fill="black"/>
<path d="M162.135 87.8262H155.851L153.375 97.1583L162.135 87.8262Z" fill="#407BFF"/>
<path d="M175.296 84.4915V61.4756C175.296 58.1419 172.594 55.4395 169.26 55.4395H146.244C142.91 55.4395 140.208 58.1419 140.208 61.4756V84.4915C140.208 87.8251 142.91 90.5276 146.244 90.5276H169.26C172.594 90.5276 175.296 87.8251 175.296 84.4915Z" fill="#407BFF"/>
<path opacity="0.8" d="M169.266 55.4512H146.244C145.452 55.4504 144.667 55.6059 143.935 55.9086C143.202 56.2113 142.537 56.6554 141.976 57.2155C141.416 57.7755 140.971 58.4406 140.668 59.1726C140.364 59.9046 140.208 60.6893 140.208 61.4817V84.5032C140.208 86.1041 140.844 87.6394 141.976 88.7714C143.108 89.9034 144.643 90.5393 146.244 90.5393H155.133L153.37 97.1762L159.591 90.5225H169.254C170.049 90.5254 170.836 90.3715 171.571 90.0695C172.306 89.7674 172.974 89.3233 173.537 88.7625C174.1 88.2017 174.547 87.5353 174.851 86.8015C175.156 86.0677 175.313 85.2809 175.313 84.4864V61.4648C175.307 59.8659 174.667 58.3347 173.533 57.2072C172.399 56.0797 170.865 55.4482 169.266 55.4512Z" fill="white"/>
<path d="M154.813 81.5996H146.413V84.8058H154.813V81.5996Z" fill="#263238"/>
<path opacity="0.4" d="M154.813 81.5996H146.413V84.8058H154.813V81.5996Z" fill="white"/>
<path opacity="0.2" d="M154.274 80.9375L152.701 84.8062H156.2L154.274 80.9375Z" fill="black"/>
<path d="M169.103 79.9375H161.09V84.8113H169.103V79.9375Z" fill="#263238"/>
<path opacity="0.4" d="M169.103 79.9375H161.09V84.8113H169.103V79.9375Z" fill="white"/>
<path opacity="0.2" d="M161.523 79.9375L163.864 84.8057H159.479L160.31 79.9375H161.523Z" fill="black"/>
<path d="M157.755 62.0645L152.426 64.3441L157.755 66.5565V62.0645Z" fill="#407BFF"/>
<path d="M157.963 61.5039H157.547V78.77H157.963V61.5039Z" fill="#263238"/>
<path opacity="0.2" d="M157.963 61.5039H157.547V78.77H157.963V61.5039Z" fill="white"/>
<path d="M158.126 61.521C158.126 61.5943 158.104 61.6659 158.063 61.7269C158.022 61.7878 157.964 61.8353 157.897 61.8634C157.829 61.8914 157.754 61.8987 157.683 61.8845C157.611 61.8702 157.545 61.8349 157.493 61.783C157.441 61.7312 157.406 61.6652 157.391 61.5933C157.377 61.5214 157.384 61.4469 157.413 61.3792C157.441 61.3114 157.488 61.2536 157.549 61.2128C157.61 61.1721 157.682 61.1504 157.755 61.1504C157.853 61.1504 157.947 61.1894 158.017 61.2589C158.086 61.3284 158.126 61.4227 158.126 61.521Z" fill="#263238"/>
<path d="M161.528 77.2715H153.987V84.8124H161.528V77.2715Z" fill="#263238"/>
<path opacity="0.4" d="M161.528 77.2715H153.987V84.8124H161.528V77.2715Z" fill="white"/>
<path d="M152.954 118.771C152.954 118.771 163.364 118.154 165.638 117.513C167.912 116.873 178.12 111.943 178.12 111.943L179.575 114.891C179.575 114.891 168.446 122.017 165.767 122.926C163.089 123.836 151.477 126.121 151.477 126.121L152.954 118.771Z" fill="#263238"/>
<path opacity="0.4" d="M179.552 114.891C179.552 114.891 168.446 122.017 165.767 122.926C164.083 123.488 158.754 124.644 155.099 125.391C153.01 125.818 151.472 126.121 151.472 126.121L152.466 121.152L152.937 118.771C152.937 118.771 163.347 118.154 165.622 117.513C167.896 116.873 178.12 111.943 178.12 111.943L179.552 114.891Z" fill="white"/>
<path opacity="0.2" d="M155.099 125.391C153.01 125.818 151.472 126.121 151.472 126.121L152.718 122.803C153.266 123.056 153.758 123.415 154.167 123.859C154.575 124.304 154.892 124.824 155.099 125.391Z" fill="black"/>
<path d="M149.108 111.247C147.985 113.072 145.335 114.161 144.122 115.273C142.909 116.385 143.47 120.22 135.564 119.08C127.658 117.94 124.699 119.529 124.699 119.529C124.699 119.529 124.256 117.811 127.731 116.39C127.731 116.39 125.048 116.913 124.278 118.311C124.278 118.311 124.104 113.993 127.647 112.696C131.19 111.399 130.685 105.896 133.2 103.01C135.716 100.124 142.229 98.5796 146.008 101.275C149.787 103.97 150.573 108.877 149.108 111.247Z" fill="#263238"/>
<path d="M124.278 153.713C124.278 153.713 143.813 153.842 147.889 151.826C151.966 149.81 151.466 129.928 151.466 129.928L134.11 135.464C134.11 135.464 133.61 145.335 124.278 153.713Z" fill="#263238"/>
<path opacity="0.1" d="M124.278 153.713C124.278 153.713 143.813 153.842 147.889 151.826C151.966 149.81 151.466 129.928 151.466 129.928L134.11 135.464C134.11 135.464 133.61 145.335 124.278 153.713Z" fill="white"/>
<path d="M137.255 120.209C139.192 119.838 142.544 119.086 144.369 119.086C146.194 119.086 147.541 120.125 147.889 120.984C148.237 121.843 138.159 125.24 136.603 124.409C135.048 123.578 134.84 120.669 137.255 120.209Z" fill="#263238"/>
<path opacity="0.1" d="M137.255 120.209C139.192 119.838 142.544 119.086 144.369 119.086C146.194 119.086 147.541 120.125 147.889 120.984C148.237 121.843 138.159 125.24 136.603 124.409C135.048 123.578 134.84 120.669 137.255 120.209Z" fill="white"/>
<path d="M109.713 231.79H110.516L110.74 230.796L113.402 231.997H120.14C120.14 231.997 121.212 230.919 118.001 230.06C117.844 230.018 117.691 229.959 117.546 229.886C115.861 229.083 113.396 226.371 113.396 226.371H109.696C109.582 226.551 109.481 226.739 109.393 226.933C108.994 227.719 108.292 229.431 109.713 231.79Z" fill="#263238"/>
<path d="M109.398 226.905C109.887 226.343 112.111 228.752 113.739 229.566C115.193 230.291 116.827 230.611 117.551 229.875C115.867 229.072 113.144 225.568 113.144 225.568H110.179C110.179 225.568 109.573 226.557 109.398 226.905Z" fill="#FFC2BC"/>
<path d="M112.829 227.237L119.023 213.997L113.666 212.531L109.943 225.592" fill="#FFC2BC"/>
<path d="M115.064 224.524C114.13 224.432 113.207 224.254 112.307 223.99C111.564 223.785 110.867 223.44 110.252 222.974C112.335 211.935 117.091 194.759 124.127 186.28C132.909 152.657 143.51 147.346 143.51 147.346L152.69 149.749C152.69 149.749 152.69 154.701 149.473 160.923C145.694 168.222 138.349 179.289 133.116 188.487C127.063 199.127 120.286 211.688 115.064 224.524Z" fill="#263238"/>
<path opacity="0.2" d="M141.443 174.651C138.596 179.278 135.615 184.09 133.116 188.486C127.069 199.127 120.314 211.682 115.07 224.518C114.136 224.427 113.214 224.25 112.313 223.99C111.568 223.783 110.869 223.438 110.252 222.974C112.341 211.929 117.091 194.758 124.127 186.274C126.805 176.032 129.646 168.413 132.313 162.775C134.92 167.051 137.981 171.033 141.443 174.651Z" fill="white"/>
<path d="M151.848 225.615H152.656L152.875 224.626L155.537 225.828H162.275C162.275 225.828 163.353 224.744 160.152 223.902C159.995 223.859 159.843 223.801 159.698 223.728C157.985 222.925 155.548 220.213 155.548 220.213H151.848C151.734 220.393 151.633 220.581 151.545 220.774C151.129 221.544 150.433 223.251 151.848 225.615Z" fill="#263238"/>
<path d="M151.533 220.729C152.022 220.167 154.245 222.576 155.874 223.39C157.328 224.115 158.962 224.435 159.686 223.699C157.974 222.896 155.284 219.387 155.284 219.387H152.291C152.291 219.387 151.73 220.381 151.533 220.729Z" fill="#FFC2BC"/>
<path d="M155.172 221.076L159.091 206.993L153.572 206.438L152.056 219.936" fill="#FFC2BC"/>
<path d="M165.464 174.647C154.953 162.592 135.941 145.854 135.941 145.854C134.515 147.157 133.392 148.755 132.649 150.538C131.906 152.321 131.562 154.244 131.64 156.174C131.718 158.103 132.217 159.992 133.101 161.709C133.986 163.426 135.235 164.929 136.76 166.112C143.552 171.293 150.76 175.903 158.311 179.897C153.729 193.373 152.19 207.911 152.028 217.276C152.76 217.644 153.547 217.892 154.358 218.012C155.332 218.211 156.337 218.211 157.311 218.012C159.967 207.035 164.145 192.845 166.789 182.385C167.705 178.915 167.547 176.669 165.464 174.647Z" fill="#263238"/>
<path opacity="0.2" d="M165.464 174.647C154.953 162.592 135.941 145.854 135.941 145.854C134.515 147.157 133.392 148.755 132.649 150.538C131.906 152.321 131.562 154.244 131.64 156.174C131.718 158.103 132.217 159.992 133.101 161.709C133.986 163.426 135.235 164.929 136.76 166.112C143.552 171.293 150.76 175.903 158.311 179.897C153.729 193.373 152.19 207.911 152.028 217.276C152.76 217.644 153.547 217.892 154.358 218.012C155.332 218.211 156.337 218.211 157.311 218.012C159.967 207.035 164.145 192.845 166.789 182.385C167.705 178.915 167.547 176.669 165.464 174.647Z" fill="white"/>
<path d="M178.48 111.977L181.287 108.574L183.5 112.202C183.5 112.202 180.338 114.97 179.294 114.167L178.48 111.977Z" fill="#EEC1BB"/>
<path d="M185.263 108.451L186.15 111.371L183.522 112.202L181.31 108.575L185.263 108.451Z" fill="#EEC1BB"/>
<path d="M176.924 112.006L178.542 115.774L180.041 114.92L178.558 111.383L176.924 112.006Z" fill="#407BFF"/>
<path opacity="0.4" d="M176.924 112.006L178.542 115.774L180.041 114.92L178.558 111.383L176.924 112.006Z" fill="white"/>
<path d="M137.215 121.337C137.215 121.337 144.728 124.465 143.875 119.967C143.875 119.967 148.821 119.507 152.729 119.08C152.729 119.08 153.791 129.187 152.364 145.257L153.381 153.028L147.508 154.836L145.553 149.165L143.206 155.1L130.954 151.26L134.66 143.792C134.66 143.792 134.065 132.152 130.954 125.857C130.954 125.857 131.471 123.611 137.215 121.337Z" fill="#407BFF"/>
<path d="M137.833 112.785C138.518 115.323 139.36 119.967 137.715 121.662C137.715 121.662 135.407 123.908 142.106 123.678C142.667 125.076 144.941 127.609 144.941 127.609C144.941 127.609 145.379 123.678 144.913 122.662C146.789 120.86 142.971 119.506 142.971 119.506C142.971 119.506 142.634 118.866 142.971 116.895L137.833 112.785Z" fill="#EEC1BB"/>
<path opacity="0.2" d="M139.938 114.471L142.982 116.913C142.893 117.374 142.848 117.842 142.847 118.311C141.752 118.16 140.18 116.969 139.983 115.841C139.884 115.391 139.869 114.926 139.938 114.471Z" fill="black"/>
<path d="M135.671 107.67C136.44 111.769 136.676 113.51 139.012 115.475C142.527 118.429 147.356 116.868 147.816 112.696C148.232 108.934 146.907 102.869 142.684 101.516C141.788 101.195 140.822 101.119 139.887 101.297C138.952 101.475 138.081 101.9 137.365 102.528C136.65 103.156 136.115 103.964 135.817 104.868C135.519 105.772 135.469 106.74 135.671 107.67Z" fill="#EEC1BB"/>
<path d="M139.192 104.74C136.946 107.655 141.572 111.007 136.946 110.816C132.319 110.625 134.189 104.078 136.946 102.573C139.703 101.068 139.192 104.74 139.192 104.74Z" fill="#263238"/>
<path d="M142.184 108.378C142.235 108.727 142.454 108.99 142.673 108.974C142.892 108.957 143.038 108.665 142.987 108.317C142.937 107.969 142.718 107.705 142.493 107.721C142.269 107.738 142.106 108.03 142.184 108.378Z" fill="#263238"/>
<path d="M146.34 108.13C146.385 108.478 146.609 108.742 146.828 108.731C147.047 108.72 147.193 108.417 147.143 108.074C147.092 107.732 146.873 107.457 146.648 107.473C146.424 107.49 146.289 107.782 146.34 108.13Z" fill="#263238"/>
<path d="M146.553 107.502L147.333 107.199C147.333 107.199 147.008 107.884 146.553 107.502Z" fill="#263238"/>
<path d="M145.256 108.793C145.673 109.561 146.186 110.272 146.783 110.91C146.624 111.05 146.435 111.151 146.231 111.208C146.027 111.264 145.812 111.274 145.604 111.235L145.256 108.793Z" fill="#D4827D"/>
<path d="M143.869 112.652C144.056 112.668 144.244 112.668 144.431 112.652C144.444 112.65 144.456 112.646 144.468 112.64C144.479 112.633 144.489 112.624 144.497 112.614C144.505 112.603 144.511 112.591 144.514 112.578C144.517 112.566 144.517 112.552 144.515 112.539C144.511 112.513 144.497 112.488 144.476 112.471C144.456 112.453 144.43 112.444 144.402 112.444C143.968 112.478 143.532 112.414 143.125 112.256C142.719 112.099 142.353 111.852 142.055 111.534C142.037 111.516 142.011 111.506 141.985 111.506C141.959 111.506 141.934 111.516 141.915 111.534C141.905 111.543 141.898 111.554 141.892 111.566C141.887 111.578 141.884 111.591 141.884 111.604C141.884 111.618 141.887 111.631 141.892 111.643C141.898 111.655 141.905 111.666 141.915 111.675C142.425 112.228 143.12 112.576 143.869 112.652Z" fill="#263238"/>
<path d="M140.988 106.514C141.015 106.517 141.042 106.513 141.067 106.502C141.091 106.491 141.113 106.474 141.129 106.453C141.291 106.266 141.497 106.123 141.728 106.035C141.959 105.947 142.209 105.917 142.454 105.947C142.48 105.953 142.506 105.953 142.532 105.948C142.557 105.942 142.582 105.932 142.603 105.916C142.624 105.901 142.642 105.881 142.655 105.859C142.668 105.836 142.676 105.811 142.679 105.784C142.685 105.73 142.671 105.676 142.638 105.632C142.606 105.588 142.558 105.558 142.505 105.549C142.194 105.501 141.876 105.533 141.582 105.642C141.287 105.752 141.025 105.934 140.82 106.172C140.787 106.214 140.771 106.267 140.776 106.321C140.782 106.374 140.807 106.423 140.848 106.458C140.867 106.476 140.889 106.491 140.913 106.5C140.937 106.51 140.963 106.515 140.988 106.514Z" fill="#263238"/>
<path d="M147.277 106.143C147.328 106.145 147.378 106.129 147.418 106.098C147.437 106.079 147.451 106.057 147.462 106.032C147.472 106.008 147.477 105.982 147.477 105.955C147.477 105.928 147.472 105.902 147.462 105.877C147.451 105.853 147.437 105.831 147.418 105.812C147.209 105.558 146.944 105.356 146.644 105.221C146.344 105.087 146.017 105.024 145.688 105.037C145.662 105.039 145.637 105.048 145.614 105.061C145.591 105.074 145.572 105.091 145.556 105.113C145.541 105.134 145.53 105.158 145.525 105.184C145.52 105.209 145.52 105.236 145.525 105.261C145.535 105.316 145.565 105.364 145.608 105.397C145.652 105.431 145.707 105.446 145.761 105.441C146.022 105.433 146.281 105.486 146.517 105.595C146.754 105.704 146.962 105.867 147.126 106.07C147.165 106.113 147.219 106.139 147.277 106.143Z" fill="#263238"/>
<path d="M142.37 107.749L143.15 107.445C143.15 107.445 142.825 108.13 142.37 107.749Z" fill="#263238"/>
<path d="M140.775 102.465C140.775 102.465 139.972 107.294 136.766 108.08C133.56 108.866 136.16 103.117 136.16 103.117C136.16 103.117 136.833 100.5 141.168 100.5C145.503 100.5 150.495 104.902 149.108 111.225C149.224 109.924 148.973 108.617 148.383 107.451C147.423 105.812 146.435 107.244 140.775 102.465Z" fill="#263238"/>
<path d="M135.272 111.646C135.44 112.007 135.682 112.329 135.982 112.591C136.281 112.853 136.633 113.05 137.013 113.168C137.962 113.421 138.378 112.331 138.063 111.242C137.777 110.259 136.94 108.94 136.002 109.181C135.065 109.423 134.79 110.686 135.272 111.646Z" fill="#EEC1BB"/>
<path d="M136.334 121.219C136.334 121.219 137.659 136.542 132.212 146.537C126.766 156.531 124.216 158.036 124.216 158.036L121.97 153.713C121.97 153.713 132.044 142.399 132.358 140.922C132.673 139.445 130.517 125.385 130.517 125.385C132.262 123.744 134.218 122.343 136.334 121.219Z" fill="#263238"/>
<path opacity="0.4" d="M132.212 146.538C126.771 156.522 124.216 158.038 124.216 158.038L121.97 153.714C121.97 153.714 132.044 142.4 132.358 140.923C132.389 139.597 132.303 138.271 132.1 136.959C131.87 134.904 131.538 132.4 131.23 130.249C130.848 127.537 130.517 125.387 130.517 125.387C132.257 123.745 134.207 122.342 136.317 121.215C136.317 121.215 137.659 136.544 132.212 146.538Z" fill="white"/>
<path d="M137.255 120.209C137.255 120.209 135.621 120.411 135.25 121.214C134.879 122.017 131.471 126.268 131.471 126.268L135.042 125.392L132.942 127.256C134.045 130.799 134.797 134.442 135.188 138.132C135.188 138.132 138.372 129.569 136.311 121.22L137.255 120.209Z" fill="#263238"/>
<path opacity="0.25" d="M137.255 120.209C137.255 120.209 135.621 120.411 135.25 121.214C134.879 122.017 131.471 126.268 131.471 126.268L135.042 125.392L132.942 127.256C134.045 130.799 134.797 134.442 135.188 138.132C135.188 138.132 138.372 129.569 136.311 121.22L137.255 120.209Z" fill="white"/>
<path d="M146.283 119.406C146.283 119.406 151.898 121.461 152.69 141.097C152.69 141.097 153.954 126.105 152.954 118.771L146.283 119.406Z" fill="#263238"/>
<path opacity="0.4" d="M146.283 119.406C146.283 119.406 151.898 121.461 152.69 141.097C152.69 141.097 153.954 126.105 152.954 118.771L146.283 119.406Z" fill="white"/>
<path d="M144.122 119.08L146.121 118.771C146.935 118.642 153.246 122.196 153.246 122.196L150.197 122.831L152.443 123.639C152.443 123.639 153.224 130.939 152.241 135.498C152.241 135.498 150.427 124.633 146.671 120.237C146.362 119.862 145.972 119.563 145.53 119.363C145.088 119.163 144.607 119.066 144.122 119.08Z" fill="#263238"/>
<path opacity="0.25" d="M144.122 119.08L146.121 118.771C146.935 118.642 153.246 122.196 153.246 122.196L150.197 122.831L152.443 123.639C152.443 123.639 153.224 130.939 152.241 135.498C152.241 135.498 150.427 124.633 146.671 120.237C146.362 119.862 145.972 119.563 145.53 119.363C145.088 119.163 144.607 119.066 144.122 119.08Z" fill="white"/>
<path d="M142.971 119.529C142.971 119.529 145.177 121.068 144.913 122.685L149.344 122.803C149.344 122.803 146.452 119.799 142.971 119.529Z" fill="#407BFF"/>
<path d="M136.833 125.392L142.106 123.679C142.106 123.679 139.298 121.433 138.445 120.209L136.704 121.517C136.659 121.618 136.143 122.899 136.833 125.392Z" fill="#407BFF"/>
<path opacity="0.4" d="M142.971 119.529C142.971 119.529 145.177 121.068 144.913 122.685L149.344 122.803C149.344 122.803 146.452 119.799 142.971 119.529Z" fill="white"/>
<path opacity="0.4" d="M136.833 125.392L142.106 123.679C142.106 123.679 139.298 121.433 138.445 120.209L136.704 121.517C136.659 121.618 136.143 122.899 136.833 125.392Z" fill="white"/>
<path d="M111.15 137.166L107.147 135.279L106.675 139.502C106.675 139.502 110.712 140.675 111.319 139.502L111.15 137.166Z" fill="#EEC1BB"/>
<path d="M103.514 136.84L103.946 139.861L106.675 139.502L107.147 135.279L103.514 136.84Z" fill="#EEC1BB"/>
<path d="M110.072 97.8832C110.072 97.8832 99.9934 93.6944 90.796 100.303C85.4505 104.138 82.0535 112.976 70.0935 109.54C70.0935 109.54 80.9866 121.663 88.1233 120.147C95.2599 118.631 93.8281 114.61 108.281 118.558L110.072 97.8832Z" fill="#407BFF"/>
<path d="M110.725 96.9565L109.385 96.8711L100.682 233.313L102.021 233.399L110.725 96.9565Z" fill="#263238"/>
<path d="M110.965 96.8954C110.919 97.0717 110.822 97.2304 110.686 97.3515C110.549 97.4725 110.38 97.5504 110.2 97.5753C110.019 97.6002 109.836 97.571 109.672 97.4914C109.508 97.4117 109.371 97.2853 109.279 97.128C109.187 96.9708 109.144 96.7897 109.155 96.6079C109.166 96.426 109.23 96.2514 109.341 96.1063C109.451 95.9612 109.601 95.852 109.774 95.7925C109.946 95.7331 110.132 95.7261 110.308 95.7724C110.543 95.8358 110.744 95.9891 110.867 96.1992C110.99 96.4094 111.025 96.6595 110.965 96.8954Z" fill="#263238"/>
<path d="M125.514 111.321C125.495 111.32 125.477 111.315 125.46 111.308C125.443 111.3 125.428 111.289 125.416 111.275C125.403 111.262 125.394 111.246 125.387 111.229C125.381 111.211 125.378 111.193 125.379 111.175C125.383 111.139 125.399 111.106 125.425 111.082C125.45 111.057 125.484 111.042 125.519 111.04C125.676 111.04 129.45 111.04 130.797 106.48C131.179 105.13 131.929 103.912 132.963 102.963C133.998 102.014 135.275 101.371 136.654 101.107C136.691 101.102 136.729 101.111 136.759 101.134C136.789 101.157 136.809 101.19 136.814 101.228C136.819 101.265 136.809 101.303 136.787 101.333C136.764 101.363 136.73 101.382 136.693 101.388C135.371 101.647 134.147 102.268 133.156 103.181C132.165 104.094 131.446 105.263 131.078 106.559C129.646 111.27 125.648 111.321 125.514 111.321Z" fill="#263238"/>
<path d="M148.243 113.348C148.213 113.348 148.184 113.337 148.16 113.319C148.137 113.301 148.119 113.275 148.111 113.246C148.103 113.217 148.104 113.187 148.115 113.158C148.125 113.13 148.145 113.106 148.17 113.09C148.327 112.989 151.949 110.614 149.214 105.094C146.688 99.9903 140.579 100.658 140.517 100.664C140.498 100.666 140.48 100.665 140.462 100.66C140.444 100.655 140.427 100.647 140.412 100.635C140.398 100.624 140.386 100.609 140.377 100.593C140.367 100.577 140.362 100.559 140.36 100.541C140.356 100.52 140.358 100.499 140.363 100.479C140.369 100.459 140.378 100.441 140.392 100.425C140.405 100.409 140.422 100.396 140.44 100.387C140.459 100.378 140.479 100.373 140.5 100.372C140.562 100.372 146.867 99.6758 149.484 104.96C152.336 110.709 148.361 113.292 148.333 113.315C148.321 113.327 148.307 113.336 148.292 113.342C148.276 113.347 148.26 113.35 148.243 113.348Z" fill="#263238"/>
<path opacity="0.2" d="M132.117 136.964C131.887 134.909 131.555 132.405 131.246 130.254C131.444 130.021 131.694 129.838 131.976 129.721C131.976 129.721 133.762 133.898 132.117 136.964Z" fill="black"/>
<path d="M130.533 125.391C130.533 125.391 123.925 135.722 122.442 136.447C120.96 137.171 111.864 136.868 111.864 136.868L111.302 140.304C111.302 140.304 121.673 142.09 124.486 141.096C127.299 140.102 131.971 133.768 131.971 133.768C131.971 133.768 132.639 127.771 130.533 125.391Z" fill="#263238"/>
<path opacity="0.4" d="M130.533 125.391C130.533 125.391 123.925 135.722 122.442 136.447C120.96 137.171 111.864 136.868 111.864 136.868L111.302 140.304C111.302 140.304 121.673 142.09 124.486 141.096C127.299 140.102 131.971 133.768 131.971 133.768C131.971 133.768 132.639 127.771 130.533 125.391Z" fill="white"/>
<path d="M111.897 140.738L112.425 136.672L110.701 136.639L110.168 140.434L111.897 140.738Z" fill="#407BFF"/>
<path opacity="0.4" d="M111.897 140.738L112.425 136.672L110.701 136.639L110.168 140.434L111.897 140.738Z" fill="white"/>
</g>
<defs>
<clipPath id="clip0_2458_17993">
<rect width="280.75" height="280.75" fill="white" transform="translate(0.125 0.423828)"/>
</clipPath>
</defs>
</svg>
