<svg width="56" height="57" viewBox="0 0 56 57" fill="none" xmlns="http://www.w3.org/2000/svg">
<path fill-rule="evenodd" clip-rule="evenodd" d="M0.140625 28.4222C0.140625 13.04 12.6103 0.570312 27.9925 0.570312C43.3678 0.586942 55.8278 13.0469 55.8444 28.4222C55.8444 43.8044 43.3747 56.2741 27.9925 56.2741C12.6103 56.2741 0.140625 43.8044 0.140625 28.4222ZM36.7816 40.6836C37.7342 41.5293 39.1862 41.4656 40.0611 40.5397V40.5421C40.4766 40.0868 40.6939 39.485 40.6651 38.8693C40.6364 38.2537 40.364 37.6748 39.9079 37.2602L29.1525 27.4006V15.6564C29.1525 14.3745 28.1133 13.3354 26.8315 13.3354C25.5496 13.3354 24.5105 14.3745 24.5105 15.6564V28.4218C24.5128 29.0736 24.7891 29.6944 25.2718 30.1324L36.7816 40.6836Z" fill="#FAB317"/>
</svg>
