<svg width="227" height="201" viewBox="0 0 227 201" fill="none" xmlns="http://www.w3.org/2000/svg">
<path d="M31.2159 183.972C31.2069 183.728 30.3929 159.616 26.4677 155.804C22.6511 152.096 18.2738 155.664 18.0929 155.817L17.6995 155.347C17.7492 155.306 22.6918 151.273 26.8973 155.361C30.9943 159.345 31.7992 182.95 31.8309 183.949L31.2159 183.967V183.972Z" fill="#E0E0E0"/>
<path d="M31.5505 188.711C31.5234 188.421 28.8689 159.765 39.3375 147.75L39.7987 148.152C29.5065 159.964 32.1339 188.363 32.161 188.648L31.5505 188.706V188.711Z" fill="#E0E0E0"/>
<path d="M31.1662 185.677L30.5557 185.636C30.5784 185.311 32.6042 153.055 24.9258 145.991L25.3418 145.539C33.2328 152.797 31.2567 184.334 31.1662 185.677Z" fill="#E0E0E0"/>
<path d="M32.1655 185.658H31.5505C31.5596 184.762 31.8038 163.866 37.7412 160.461C39.0617 159.706 40.355 159.579 41.5805 160.085C45.171 161.569 46.9481 167.958 47.025 168.23L46.4326 168.392C46.4145 168.329 44.66 162.021 41.3453 160.655C40.3007 160.226 39.1928 160.339 38.0442 160.994C32.4097 164.223 32.1655 185.445 32.161 185.658H32.1655Z" fill="#E0E0E0"/>
<path d="M29.8502 185.67L29.2397 185.634C29.2488 185.471 30.1351 169.119 25.7216 163.358C24.6544 161.961 23.4922 161.296 22.2667 161.382C19.3771 161.585 16.9488 165.813 16.9262 165.859L16.3926 165.556C16.4966 165.37 19.0018 160.997 22.2215 160.771C23.664 160.667 25.0071 161.413 26.21 162.987C30.7592 168.929 29.8909 184.991 29.8502 185.67Z" fill="#E0E0E0"/>
<path d="M30.8179 187.895C30.6958 186.308 27.9329 148.974 32.7986 142.395L33.2915 142.761C28.5614 149.16 31.4013 187.461 31.4329 187.85L30.8225 187.895H30.8179Z" fill="#E0E0E0"/>
<path d="M42.9054 163.875C42.9054 163.875 39.9886 164.952 40.8569 167.493C41.7251 170.035 50.9501 174.213 50.9501 174.213C50.9501 174.213 54.8165 170.672 51.2667 164.911C47.7168 159.15 42.9868 162.062 42.9054 163.88V163.875Z" fill="#EBEBEB"/>
<path d="M30.2164 159.036C30.2164 159.036 33.3231 158.905 33.4995 161.582C33.6758 164.259 26.7661 171.671 26.7661 171.671C26.7661 171.671 21.8371 169.889 22.8952 163.206C23.9534 156.522 29.4432 157.39 30.2119 159.036H30.2164Z" fill="#EBEBEB"/>
<path d="M27.5891 146.223C27.5891 146.223 29.6602 146.001 29.4929 144.74C29.3256 143.478 21.4391 140.231 16.7859 145.481C16.7859 145.481 19.7659 150.6 24.0709 150.668C28.3759 150.736 27.5846 146.228 27.5846 146.228L27.5891 146.223Z" fill="#EBEBEB"/>
<path d="M31.4465 143.156C31.4465 143.156 29.5698 144.065 29.0453 142.903C28.5207 141.745 33.495 134.817 40.2238 136.811C40.2238 136.811 40.4002 142.731 36.7825 145.064C33.1649 147.398 31.451 143.151 31.451 143.151L31.4465 143.156Z" fill="#EBEBEB"/>
<path d="M21.6381 162.855C21.6381 162.855 23.067 161.702 21.525 161.136C19.983 160.571 12.4131 160.734 12.3317 168.232C12.3317 168.232 21.1497 169.697 22.2395 166.839C23.3293 163.981 21.6381 162.85 21.6381 162.85V162.855Z" fill="#EBEBEB"/>
<path d="M39.6223 146.031C39.6223 146.031 38.1934 144.878 39.7354 144.312C41.2774 143.747 48.8473 143.91 48.9287 151.407C48.9287 151.407 40.1107 152.873 39.0209 150.015C37.9311 147.157 39.6223 146.026 39.6223 146.026V146.031Z" fill="#EBEBEB"/>
<path d="M34.96 152.075C34.96 152.075 34.8334 150.673 35.9684 151.22C37.1035 151.772 41.0467 156.027 36.9588 160.07C36.9588 160.07 31.4509 155.991 32.4458 153.866C33.4406 151.741 34.9645 152.075 34.9645 152.075H34.96Z" fill="#EBEBEB"/>
<path d="M20.3628 154.071C20.3628 154.071 21.2175 152.949 19.9649 152.814C18.7123 152.673 13.1049 154.17 14.4118 159.773C14.4118 159.773 21.2446 159.257 21.5385 156.933C21.8325 154.609 20.3628 154.075 20.3628 154.075V154.071Z" fill="#EBEBEB"/>
<path d="M37.9084 196.475H24.1252L20.4578 179.562H41.2276L37.9084 196.475Z" fill="#F0F0F0"/>
<path d="M42.4214 179.32H19.2052V184.182H42.4214V179.32Z" fill="#E6E6E6"/>
<path d="M200.743 146.954H119.007C117.546 146.954 116.357 145.764 116.357 144.304V25.2515C116.357 23.7909 117.546 22.6016 119.007 22.6016H200.743C202.204 22.6016 203.393 23.7909 203.393 25.2515V144.304C203.393 145.764 202.204 146.954 200.743 146.954ZM119.007 22.7101C117.61 22.7101 116.47 23.8497 116.47 25.247V144.304C116.47 145.701 117.61 146.841 119.007 146.841H200.743C202.141 146.841 203.28 145.701 203.28 144.304V25.2515C203.28 23.8542 202.141 22.7146 200.743 22.7146H119.007V22.7101Z" fill="#E0E0E0"/>
<path d="M106.49 146.954H24.7582C23.2976 146.954 22.1083 145.764 22.1083 144.304V25.2515C22.1083 23.7909 23.2976 22.6016 24.7582 22.6016H106.49C107.951 22.6016 109.14 23.7909 109.14 25.2515V144.304C109.14 145.764 107.951 146.954 106.49 146.954ZM24.7582 22.7101C23.3609 22.7101 22.2213 23.8497 22.2213 25.247V144.304C22.2213 145.701 23.3609 146.841 24.7582 146.841H106.49C107.887 146.841 109.027 145.701 109.027 144.304V25.2515C109.027 23.8542 107.887 22.7146 106.49 22.7146H24.7582V22.7101Z" fill="#E0E0E0"/>
<path d="M226.103 174.57H0V174.683H226.103V174.57Z" fill="#E0E0E0"/>
<path d="M30.6279 181.023H23.3655V181.136H30.6279V181.023Z" fill="#E0E0E0"/>
<path d="M101.24 179.797H77.0332V179.91H101.24V179.797Z" fill="#E0E0E0"/>
<path d="M47.4725 185.227H31.0801V185.34H47.4725V185.227Z" fill="#E0E0E0"/>
<path d="M190.623 179.738H171.092V179.851H190.623V179.738Z" fill="#E0E0E0"/>
<path d="M197.515 179.738H194.652V179.851H197.515V179.738Z" fill="#E0E0E0"/>
<path d="M167.361 182.555H142.992V182.668H167.361V182.555Z" fill="#E0E0E0"/>
<path d="M80.5831 29.3582C86.2809 28.7296 90.6854 25.5234 92.5892 20.1151C94.4884 14.7067 93.8961 8.24014 89.8443 4.18385C87.7687 2.10823 85.0057 0.624992 82.0709 0.507419C77.9061 0.340102 73.9402 3.02168 71.8962 6.65742C69.8523 10.2932 69.1423 14.0148 69.8885 18.1163C70.6255 22.1816 73.0222 27.1514 78.616 29.114C78.616 29.114 76.7936 32.1799 77.6257 32.6547C78.4578 33.1296 79.5069 31.3705 79.5069 31.3705C79.5069 31.3705 81.3473 33.7853 81.5734 32.6547C81.9081 30.9906 80.5876 29.3536 80.5876 29.3536L80.5831 29.3582Z" fill="#F5F5F5"/>
<g opacity="0.3">
<path d="M73.1895 16.2478C72.4117 16.3653 71.6385 16.4874 70.8607 16.605C70.3723 14.0048 70.6843 11.2599 71.7515 8.83611C72.8142 6.41229 74.623 4.3231 76.866 2.92578C76.866 2.92578 74.3969 6.53891 73.6553 9.67722C72.8549 13.0823 73.1895 16.2478 73.1895 16.2478Z" fill="white"/>
</g>
<path d="M151.303 38.9005C155.812 35.5406 157.951 30.6432 156.875 25.1263C155.798 19.6049 152.09 14.4316 146.646 13.0117C143.86 12.2837 140.785 12.4058 138.248 13.7579C134.64 15.6843 132.618 19.9214 132.695 24.0094C132.768 28.0973 134.016 31.5974 136.679 34.6995C139.32 37.7745 143.815 40.7862 149.517 39.6738C149.517 39.6738 149.499 43.1738 150.435 43.1648C151.371 43.1558 151.389 41.1434 151.389 41.1434C151.389 41.1434 154.143 42.2694 153.777 41.2068C153.234 39.6331 151.308 38.9005 151.308 38.9005H151.303Z" fill="#EBEBEB"/>
<g opacity="0.3">
<path d="M138.542 31.4748C137.945 31.9587 137.344 32.447 136.747 32.9309C135.042 30.9728 133.948 28.4948 133.645 25.9172C133.342 23.3396 133.835 20.6761 135.042 18.3789C135.042 18.3789 134.744 22.6613 135.675 25.6866C136.684 28.965 138.542 31.4748 138.542 31.4748Z" fill="white"/>
</g>
<path d="M46.0888 53.542C50.3622 51.4799 52.9171 47.7673 52.9081 43.0237C52.899 38.28 50.6561 33.4007 46.3782 31.3522C44.1895 30.3031 41.621 29.9097 39.3012 30.6242C36.0046 31.6417 33.6531 34.8252 33.0562 38.2258C32.4638 41.6264 32.9341 44.724 34.6435 47.7176C36.3392 50.684 39.577 53.9038 44.479 53.8947C44.479 53.8947 43.9047 56.7888 44.6824 56.9335C45.4602 57.0782 45.7949 55.4141 45.7949 55.4141C45.7949 55.4141 47.8976 56.7888 47.762 55.8482C47.563 54.46 46.0843 53.542 46.0843 53.542H46.0888Z" fill="#EBEBEB"/>
<g opacity="0.3">
<path d="M36.7101 45.3499C36.1358 45.6574 35.566 45.9649 34.9917 46.2679C33.8929 44.3732 33.3819 42.1438 33.5447 39.9642C33.7075 37.78 34.544 35.6547 35.9097 33.9453C35.9097 33.9453 34.9782 37.4409 35.2631 40.0998C35.5751 42.9759 36.7101 45.3545 36.7101 45.3545V45.3499Z" fill="white"/>
</g>
<path d="M24.5277 127.697C29.0407 129.153 33.4542 128.231 36.7237 124.789C39.9931 121.353 41.7341 116.27 40.0519 111.834C39.1882 109.564 37.6055 107.506 35.4349 106.425C32.3463 104.888 28.4438 105.566 25.6718 107.619C22.8952 109.668 21.1 112.236 20.2679 115.587C19.4449 118.906 19.5715 123.469 23.1258 126.842C23.1258 126.842 20.7111 128.538 21.1768 129.18C21.6426 129.822 23.0309 128.85 23.0309 128.85C23.0309 128.85 23.6007 131.297 24.1569 130.523C24.9708 129.379 24.5322 127.697 24.5322 127.697H24.5277Z" fill="#F5F5F5"/>
<path d="M193.137 132.369C197.65 133.825 202.064 132.902 205.333 129.461C208.603 126.024 210.343 120.942 208.661 116.505C207.798 114.235 206.215 112.178 204.044 111.097C200.956 109.56 197.053 110.238 194.281 112.291C191.505 114.339 189.709 116.908 188.877 120.259C188.054 123.578 188.181 128.141 191.735 131.514C191.735 131.514 189.32 133.21 189.786 133.852C190.252 134.494 191.64 133.522 191.64 133.522C191.64 133.522 192.21 135.968 192.766 135.195C193.58 134.051 193.142 132.369 193.142 132.369H193.137Z" fill="#EBEBEB"/>
<g opacity="0.3">
<path d="M192.002 119.969C191.378 119.797 190.749 119.621 190.125 119.449C190.636 117.319 191.808 115.357 193.431 113.887C195.054 112.417 197.126 111.454 199.296 111.16C199.296 111.16 196.208 113.046 194.584 115.167C192.825 117.464 192.007 119.969 192.007 119.969H192.002Z" fill="white"/>
</g>
<path d="M115.851 183.445C119.807 180.831 121.842 176.811 121.205 172.108C120.563 167.41 117.687 162.869 113.174 161.413C110.863 160.667 108.267 160.622 106.065 161.639C102.931 163.086 101.027 166.559 100.892 170.005C100.756 173.451 101.638 176.463 103.736 179.203C105.812 181.916 109.452 184.675 114.309 184.01C114.309 184.01 114.123 186.954 114.915 186.995C115.706 187.031 115.814 185.34 115.814 185.34C115.814 185.34 118.08 186.42 117.822 185.507C117.438 184.155 115.851 183.449 115.851 183.449V183.445Z" fill="#EBEBEB"/>
<g opacity="0.3">
<path d="M105.459 176.579C104.93 176.959 104.405 177.339 103.876 177.719C102.538 175.987 101.733 173.848 101.602 171.664C101.47 169.48 102.013 167.259 103.139 165.383C103.139 165.383 102.682 168.973 103.32 171.564C104.012 174.373 105.454 176.575 105.454 176.575L105.459 176.579Z" fill="white"/>
</g>
<path d="M139.171 147.802C134.807 149.66 132.08 153.246 131.859 157.985C131.642 162.725 133.65 167.703 137.828 169.955C139.967 171.104 142.513 171.62 144.86 171.018C148.202 170.159 150.702 167.088 151.457 163.719C152.213 160.351 151.887 157.235 150.322 154.16C148.771 151.116 145.687 147.748 140.79 147.526C140.79 147.526 141.504 144.664 140.731 144.483C139.962 144.302 139.546 145.948 139.546 145.948C139.546 145.948 137.511 144.474 137.602 145.423C137.733 146.821 139.166 147.806 139.166 147.806L139.171 147.802Z" fill="#EBEBEB"/>
<g opacity="0.3">
<path d="M148.152 156.43C148.74 156.15 149.327 155.874 149.911 155.594C150.919 157.538 151.322 159.786 151.055 161.961C150.788 164.131 149.852 166.221 148.41 167.862C148.41 167.862 149.508 164.412 149.346 161.748C149.169 158.859 148.147 156.43 148.147 156.43H148.152Z" fill="white"/>
</g>
<path d="M195.33 35.636C200.047 35.116 203.692 32.4661 205.265 27.9892C206.839 23.5124 206.351 18.1628 202.995 14.8074C201.281 13.0891 198.993 11.8636 196.565 11.7641C193.119 11.6239 189.836 13.8442 188.145 16.8514C186.454 19.8586 185.866 22.9381 186.481 26.3296C187.091 29.6941 189.072 33.8046 193.698 35.428C193.698 35.428 192.192 37.9649 192.875 38.3583C193.562 38.7517 194.43 37.2956 194.43 37.2956C194.43 37.2956 195.954 39.2944 196.14 38.3583C196.416 36.9791 195.326 35.627 195.326 35.627L195.33 35.636Z" fill="#F5F5F5"/>
<g opacity="0.3">
<path d="M189.212 24.7898C188.57 24.8893 187.928 24.9842 187.286 25.0837C186.883 22.9312 187.141 20.6611 188.023 18.6579C188.905 16.6546 190.401 14.9272 192.255 13.7695C192.255 13.7695 190.211 16.7586 189.596 19.3543C188.932 22.1715 189.212 24.7898 189.212 24.7898Z" fill="white"/>
</g>
<path d="M208.214 197.729C208.214 199.262 165.923 200.501 113.761 200.501C61.5995 200.501 19.3092 199.258 19.3092 197.729C19.3092 196.201 61.5995 194.957 113.761 194.957C165.923 194.957 208.214 196.201 208.214 197.729Z" fill="#F5F5F5"/>
<path d="M195.633 185.041C195.624 184.815 194.869 162.49 191.238 158.958C187.706 155.526 183.65 158.831 183.483 158.971L183.116 158.533C183.162 158.492 187.738 154.761 191.636 158.546C195.43 162.236 196.172 184.092 196.203 185.019L195.633 185.037V185.041Z" fill="#263238"/>
<path d="M195.945 189.43C195.918 189.164 193.463 162.624 203.154 151.504L203.583 151.875C194.051 162.814 196.484 189.109 196.511 189.376L195.945 189.43Z" fill="#263238"/>
<path d="M195.588 186.624L195.023 186.588C195.041 186.285 196.918 156.416 189.809 149.878L190.193 149.457C197.501 156.181 195.67 185.38 195.588 186.624Z" fill="#263238"/>
<path d="M196.515 186.608H195.945C195.954 185.781 196.181 166.426 201.679 163.279C202.9 162.578 204.099 162.461 205.238 162.931C208.562 164.306 210.208 170.22 210.276 170.474L209.729 170.623C209.711 170.564 208.087 164.726 205.021 163.455C204.053 163.058 203.027 163.162 201.964 163.772C196.746 166.761 196.52 186.409 196.52 186.608H196.515Z" fill="#263238"/>
<path d="M194.372 186.621L193.806 186.589C193.816 186.435 194.634 171.295 190.551 165.959C189.56 164.666 188.484 164.051 187.349 164.132C184.672 164.318 182.424 168.238 182.406 168.279L181.913 167.999C182.013 167.827 184.328 163.775 187.313 163.567C188.647 163.472 189.89 164.164 191.003 165.616C195.217 171.119 194.412 185.992 194.376 186.621H194.372Z" fill="#263238"/>
<path d="M195.267 188.679C195.154 187.209 192.595 152.638 197.099 146.547L197.555 146.886C193.178 152.81 195.805 188.281 195.832 188.638L195.267 188.683V188.679Z" fill="#263238"/>
<path d="M207.273 164.837C207.273 164.837 204.397 165.9 205.374 168.184C208.123 174.623 214.676 175.311 214.676 175.311C214.676 175.311 217.751 170.44 215.232 166.66C211.755 161.446 207.346 163.151 207.273 164.833V164.837Z" fill="#FAB317"/>
<path d="M194.711 161.956C194.711 161.956 197.587 161.834 197.75 164.317C197.913 166.795 191.518 173.655 191.518 173.655C191.518 173.655 186.956 172.004 187.932 165.818C188.914 159.632 193.996 160.432 194.711 161.956Z" fill="#FAB317"/>
<path d="M196.108 147.504C196.108 147.504 194.901 147.355 194.444 146.27C193.087 143.027 197.745 139.527 203.977 141.377C203.977 141.377 204.139 146.857 200.789 149.019C197.438 151.181 196.108 147.504 196.108 147.504Z" fill="#FAB317"/>
<path d="M185.432 164.503C185.432 164.503 186.436 163.128 184.921 162.993C183.406 162.857 176.849 165.796 178.572 172.525C178.572 172.525 187.01 169.776 187.299 166.959C187.589 164.141 185.432 164.503 185.432 164.503Z" fill="#FAB317"/>
<path d="M203.42 149.91C203.42 149.91 203.8 148.662 205.229 148.142C206.658 147.622 211.967 147.947 212.039 154.893C212.039 154.893 203.873 156.25 202.864 153.604C201.856 150.959 203.42 149.914 203.42 149.914V149.91Z" fill="#FAB317"/>
<path d="M199.011 155.68C199.011 155.68 199.559 154.725 200.608 155.236C201.657 155.747 204.75 158.926 201.801 162.77C201.801 162.77 196.321 159.474 196.768 157.163C197.18 155.033 199.011 155.68 199.011 155.68Z" fill="#FAB317"/>
<path d="M185.585 157.358C185.585 157.358 186.377 156.323 185.219 156.191C184.061 156.065 178.866 157.449 180.073 162.635C180.073 162.635 186.399 162.161 186.671 160.003C186.942 157.851 185.581 157.354 185.581 157.354L185.585 157.358Z" fill="#FAB317"/>
<path opacity="0.3" d="M190.953 171.483C190.899 171.483 190.849 171.442 190.84 171.388C190.388 168.163 191.912 164.338 194.634 161.873C194.679 161.833 194.752 161.833 194.792 161.882C194.833 161.927 194.829 162 194.783 162.041C192.115 164.455 190.618 168.2 191.062 171.356C191.071 171.419 191.025 171.474 190.967 171.483C190.962 171.483 190.958 171.483 190.949 171.483H190.953Z" fill="black"/>
<path opacity="0.3" d="M201.589 160.792C201.535 160.792 201.49 160.756 201.476 160.701C201.123 158.92 200.214 157.238 198.93 155.958C198.885 155.913 198.885 155.84 198.93 155.8C198.975 155.754 199.048 155.754 199.088 155.8C200.409 157.111 201.336 158.838 201.698 160.661C201.711 160.724 201.67 160.783 201.607 160.792C201.598 160.792 201.594 160.792 201.584 160.792H201.589Z" fill="black"/>
<path opacity="0.3" d="M213.59 171.125C213.55 171.125 213.509 171.103 213.491 171.062C212.229 168.471 209.769 166.065 207.232 164.939C207.174 164.912 207.151 164.849 207.174 164.79C207.196 164.731 207.264 164.709 207.323 164.731C209.91 165.88 212.41 168.326 213.694 170.963C213.722 171.017 213.694 171.085 213.64 171.112C213.622 171.121 213.609 171.125 213.59 171.125Z" fill="black"/>
<path opacity="0.3" d="M210.511 153.178C210.475 153.178 210.439 153.16 210.416 153.124C209.679 151.952 208.558 151.034 207.264 150.542C205.894 150.017 204.741 149.646 203.448 150.017C203.384 150.035 203.326 149.999 203.307 149.94C203.289 149.881 203.326 149.818 203.384 149.8C204.741 149.411 205.93 149.791 207.341 150.329C208.68 150.84 209.837 151.79 210.606 153.002C210.638 153.056 210.624 153.124 210.57 153.16C210.552 153.173 210.529 153.178 210.511 153.178Z" fill="black"/>
<path d="M191.966 151.082C191.966 151.082 193.883 151.313 193.992 150.137C194.105 148.966 187.661 144.398 182.37 148.174C182.37 148.174 183.998 153.411 187.869 154.365C191.74 155.319 191.962 151.086 191.962 151.086L191.966 151.082Z" fill="#FAB317"/>
<path opacity="0.3" d="M191.907 151.29C191.871 151.29 191.839 151.272 191.817 151.245C189.886 148.649 184.988 147.695 183.302 148.305C183.243 148.323 183.18 148.296 183.157 148.237C183.134 148.179 183.166 148.115 183.225 148.093C184.939 147.473 189.936 148.337 191.998 151.109C192.034 151.159 192.025 151.231 191.975 151.267C191.957 151.281 191.93 151.29 191.907 151.29Z" fill="black"/>
<path opacity="0.3" d="M181.33 160.726C181.33 160.726 181.289 160.721 181.271 160.708C181.217 160.676 181.199 160.604 181.235 160.554C182.325 158.768 184.441 157.777 185.603 157.343C185.662 157.321 185.726 157.352 185.748 157.411C185.771 157.47 185.739 157.533 185.68 157.556C184.541 157.976 182.479 158.944 181.425 160.672C181.402 160.708 181.366 160.726 181.33 160.726Z" fill="black"/>
<path opacity="0.3" d="M179.472 170.083C179.472 170.083 179.435 170.083 179.417 170.07C179.363 170.043 179.34 169.975 179.368 169.916C180.674 167.411 182.827 165.421 185.427 164.313C185.481 164.291 185.549 164.313 185.576 164.372C185.599 164.431 185.576 164.494 185.518 164.521C183.003 165.593 180.833 167.596 179.571 170.02C179.553 170.061 179.512 170.079 179.472 170.079V170.083Z" fill="black"/>
<path opacity="0.3" d="M196.361 147.484C196.361 147.484 196.33 147.484 196.312 147.475C196.257 147.448 196.23 147.38 196.257 147.326C197.293 145.115 199.301 143.355 201.625 142.618C201.684 142.6 201.747 142.632 201.765 142.691C201.783 142.75 201.752 142.813 201.693 142.831C199.427 143.55 197.469 145.264 196.461 147.421C196.443 147.461 196.402 147.484 196.357 147.484H196.361Z" fill="black"/>
<path d="M202.968 196.715H189.054L187.552 181.48H204.47L202.968 196.715Z" fill="#263238"/>
<path d="M205.216 179.797H186.811V183.157H205.216V179.797Z" fill="#263238"/>
<path opacity="0.3" d="M187.756 183.117L187.955 185.365H204.135L204.356 183.117H187.756Z" fill="black"/>
<path d="M62.0607 94.3609L113.594 58.4648L165.132 94.3609L114.693 134.3L62.0607 94.3609Z" fill="#263238"/>
<path d="M159.877 37.7266H67.3198V127.915H159.877V37.7266Z" fill="#FAB317"/>
<path opacity="0.8" d="M159.877 37.7266H67.3198V127.915H159.877V37.7266Z" fill="white"/>
<path opacity="0.2" d="M67.3198 95.4492L113.594 118.751L159.873 95.4492L158.62 112.384L110.202 131.391L66.4606 100.329L67.3198 95.4492Z" fill="#263238"/>
<path d="M110.202 96.9492H76.9653V98.8394H110.202V96.9492Z" fill="#263238"/>
<path opacity="0.7" d="M110.202 96.9492H76.9653V98.8394H110.202V96.9492Z" fill="white"/>
<path d="M155.007 96.9492H112.486V98.8394H155.007V96.9492Z" fill="#263238"/>
<path opacity="0.7" d="M155.007 96.9492H112.486V98.8394H155.007V96.9492Z" fill="white"/>
<path d="M148.853 106.098H81.614V107.988H148.853V106.098Z" fill="#263238"/>
<path opacity="0.7" d="M148.853 106.098H81.614V107.988H148.853V106.098Z" fill="white"/>
<path d="M141.848 110.68H88.5328V112.57H141.848V110.68Z" fill="#263238"/>
<path opacity="0.7" d="M141.848 110.68H88.5328V112.57H141.848V110.68Z" fill="white"/>
<path d="M142.309 115.316H88.994V117.207H142.309V115.316Z" fill="#263238"/>
<path opacity="0.7" d="M142.309 115.316H88.994V117.207H142.309V115.316Z" fill="white"/>
<path d="M125.749 101.527H76.9653V103.418H125.749V101.527Z" fill="#263238"/>
<path opacity="0.7" d="M125.749 101.527H76.9653V103.418H125.749V101.527Z" fill="white"/>
<path d="M148.848 101.527H127.59V103.418H148.848V101.527Z" fill="#263238"/>
<path opacity="0.7" d="M148.848 101.527H127.59V103.418H148.848V101.527Z" fill="white"/>
<path d="M62.0607 158.35V94.3633L113.345 121.749L165.132 94.3633V158.35H62.0607Z" fill="#FAB317"/>
<path d="M59.5599 110.513V148.082C59.5599 148.52 60.2382 148.52 60.2382 148.082V110.513C60.2382 110.074 59.5599 110.074 59.5599 110.513Z" fill="#FAB317"/>
<path d="M60.2744 109.051V106.356C60.2744 105.918 59.5961 105.918 59.5961 106.356V109.051C59.5961 109.49 60.2744 109.49 60.2744 109.051Z" fill="#FAB317"/>
<path opacity="0.2" d="M165.001 158.527L113.35 122.025L62.1918 158.527L61.9296 158.161L113.345 121.469L165.263 158.161L165.001 158.527Z" fill="#263238"/>
<path d="M88.626 55.9065C90.2666 53.4194 89.5803 50.0732 87.0932 48.4326C84.6061 46.792 81.2599 47.4783 79.6193 49.9654C77.9788 52.4525 78.665 55.7987 81.1521 57.4393C83.6393 59.0799 86.9854 58.3936 88.626 55.9065Z" fill="#FAB317"/>
<path d="M112.622 49.8945H94.6964V51.7848H112.622V49.8945Z" fill="#FAB317"/>
<path d="M144.181 53.582H94.5968V55.4722H144.181V53.582Z" fill="#263238"/>
<path opacity="0.7" d="M144.181 53.582H94.5968V55.4722H144.181V53.582Z" fill="white"/>
<path d="M102.14 65.5547H76.8387V67.4449H102.14V65.5547Z" fill="#263238"/>
<path opacity="0.7" d="M102.14 65.5547H76.8387V67.4449H102.14V65.5547Z" fill="white"/>
<path d="M114.58 70.6719H76.6172V72.5621H114.58V70.6719Z" fill="#263238"/>
<path opacity="0.7" d="M114.58 70.6719H76.6172V72.5621H114.58V70.6719Z" fill="white"/>
<path d="M151.72 75.0781H113.757V76.9683H151.72V75.0781Z" fill="#263238"/>
<path opacity="0.7" d="M151.72 75.0781H113.757V76.9683H151.72V75.0781Z" fill="white"/>
<path d="M110.202 75.0781H76.9653V76.9683H110.202V75.0781Z" fill="#263238"/>
<path opacity="0.7" d="M110.202 75.0781H76.9653V76.9683H110.202V75.0781Z" fill="white"/>
<path d="M127.092 70.6719H117.962V72.5621H127.092V70.6719Z" fill="#263238"/>
<path opacity="0.7" d="M127.092 70.6719H117.962V72.5621H127.092V70.6719Z" fill="white"/>
<path d="M151.72 70.6719H129.602V72.5621H151.72V70.6719Z" fill="#263238"/>
<path opacity="0.7" d="M151.72 70.6719H129.602V72.5621H151.72V70.6719Z" fill="white"/>
<path d="M87.7866 89.6428H84.1011L83.3957 91.3431H81.51L85.0508 83.4023H86.8687L90.4185 91.3431H88.4875L87.7821 89.6428H87.7866ZM87.2078 88.2455L85.9461 85.2066L84.6845 88.2455H87.2033H87.2078Z" fill="#FAB317"/>
<path d="M91.246 83.4023H94.8546C95.7183 83.4023 96.478 83.5651 97.1427 83.8952C97.803 84.2254 98.3185 84.6866 98.6848 85.2835C99.051 85.8804 99.2364 86.5768 99.2364 87.3727C99.2364 88.1686 99.051 88.865 98.6848 89.4619C98.3185 90.0588 97.803 90.5246 97.1427 90.8502C96.4825 91.1803 95.7183 91.3431 94.8546 91.3431H91.246V83.4023ZM94.7641 89.8372C95.56 89.8372 96.1931 89.6157 96.6634 89.1725C97.1382 88.7293 97.3734 88.1324 97.3734 87.3727C97.3734 86.613 97.1382 86.0161 96.6634 85.5729C96.1886 85.1298 95.5555 84.9082 94.7641 84.9082H93.0865V89.8327H94.7641V89.8372Z" fill="#FAB317"/>
<path d="M107.846 91.3437L107.837 86.5774L105.5 90.5026H104.672L102.348 86.6769V91.3392H100.625V83.3984H102.144L105.115 88.332L108.041 83.3984H109.551L109.574 91.3392H107.851L107.846 91.3437Z" fill="#FAB317"/>
<path d="M111.455 83.4023H113.291V91.3431H111.455V83.4023Z" fill="#FAB317"/>
<path d="M116.823 84.8991H114.281V83.4023H121.205V84.8991H118.663V91.3431H116.827V84.8991H116.823Z" fill="#FAB317"/>
<path d="M123.95 84.8991H121.408V83.4023H128.331V84.8991H125.79V91.3431H123.954V84.8991H123.95Z" fill="#FAB317"/>
<path d="M135.467 89.8689V91.3431H129.317V83.4023H135.318V84.8765H131.144V86.5994H134.834V88.0284H131.144V89.8644H135.467V89.8689Z" fill="#FAB317"/>
<path d="M136.932 83.4023H140.541C141.405 83.4023 142.164 83.5651 142.829 83.8952C143.489 84.2254 144.005 84.6866 144.371 85.2835C144.737 85.8804 144.923 86.5768 144.923 87.3727C144.923 88.1686 144.737 88.865 144.371 89.4619C144.005 90.0588 143.489 90.5246 142.829 90.8502C142.169 91.1803 141.405 91.3431 140.541 91.3431H136.932V83.4023ZM140.451 89.8372C141.246 89.8372 141.88 89.6157 142.35 89.1725C142.825 88.7293 143.06 88.1324 143.06 87.3727C143.06 86.613 142.825 86.0161 142.35 85.5729C141.875 85.1298 141.242 84.9082 140.451 84.9082H138.773V89.8327H140.451V89.8372Z" fill="#FAB317"/>
<path d="M19.8068 72.777L21.2493 72.2344C21.2493 72.2344 20.874 73.7628 22.9315 74.2015L21.6246 75.1421C21.6246 75.1421 19.8656 74.4864 19.8113 72.777H19.8068Z" fill="#FAB317"/>
<path d="M100.43 27.8594L100.874 29.3336C100.874 29.3336 99.3723 28.8588 98.798 30.8801L97.9479 29.5145C97.9479 29.5145 98.7211 27.8006 100.43 27.8639V27.8594Z" fill="#FAB317"/>
<path d="M56.4309 46.8284L56.5575 45.7703C56.5575 45.7703 57.376 46.4848 58.2985 45.3633L58.4613 46.4667C58.4613 46.4667 57.4981 47.3394 56.4309 46.8284Z" fill="#FAB317"/>
<path d="M52.6233 16.0706L52.7499 15.0125C52.7499 15.0125 53.5684 15.7269 54.4909 14.6055L54.6537 15.7089C54.6537 15.7089 53.6905 16.5816 52.6233 16.0706Z" fill="#FAB317"/>
<path d="M110.483 13.8128L110.61 12.7546C110.61 12.7546 111.428 13.4691 112.351 12.3477L112.513 13.451C112.513 13.451 111.55 14.3238 110.483 13.8128Z" fill="#FAB317"/>
<path d="M39.8259 29.421L40.0068 27.8926C40.0068 27.8926 41.1916 28.9281 42.5256 27.3047L42.7607 28.8965C42.7607 28.8965 41.3679 30.1581 39.8259 29.421Z" fill="#FAB317"/>
<path opacity="0.7" d="M39.8259 29.421L40.0068 27.8926C40.0068 27.8926 41.1916 28.9281 42.5256 27.3047L42.7607 28.8965C42.7607 28.8965 41.3679 30.1581 39.8259 29.421Z" fill="white"/>
<path d="M62.4182 30.3245L63.7794 29.6055C63.7794 29.6055 63.5985 31.1701 65.6922 31.3465L64.5119 32.4453C64.5119 32.4453 62.6805 32.0157 62.4137 30.3245H62.4182Z" fill="#FAB317"/>
<path opacity="0.7" d="M62.4182 30.3245L63.7794 29.6055C63.7794 29.6055 63.5985 31.1701 65.6922 31.3465L64.5119 32.4453C64.5119 32.4453 62.6805 32.0157 62.4137 30.3245H62.4182Z" fill="white"/>
<path d="M119.509 25.7385L120.87 25.0195C120.87 25.0195 120.689 26.5842 122.783 26.7605L121.603 27.8594C121.603 27.8594 119.771 27.4298 119.505 25.7385H119.509Z" fill="#FAB317"/>
<path opacity="0.7" d="M119.509 25.7385L120.87 25.0195C120.87 25.0195 120.689 26.5842 122.783 26.7605L121.603 27.8594C121.603 27.8594 119.771 27.4298 119.505 25.7385H119.509Z" fill="white"/>
<path d="M173.484 43.1562L173.927 44.6304C173.927 44.6304 172.426 44.1556 171.852 46.177L171.002 44.8113C171.002 44.8113 171.775 43.0975 173.484 43.1608V43.1562Z" fill="#FAB317"/>
<path d="M185.432 59.3695L185.296 57.8365C185.296 57.8365 186.666 58.6053 187.643 56.7422L188.199 58.2526C188.199 58.2526 187.096 59.772 185.432 59.365V59.3695Z" fill="#FAB317"/>
<path d="M208.146 111.416L208.01 109.883C208.01 109.883 209.38 110.652 210.357 108.789L210.913 110.299C210.913 110.299 209.81 111.819 208.146 111.412V111.416Z" fill="#FAB317"/>
<path d="M17.4462 121.745L17.3105 120.212C17.3105 120.212 18.6807 120.98 19.6575 119.117L20.2137 120.628C20.2137 120.628 19.1103 122.147 17.4462 121.74V121.745Z" fill="#FAB317"/>
<path d="M184.88 26.6526L185.007 25.5945C185.007 25.5945 185.825 26.309 186.748 25.1875L186.91 26.2909C186.91 26.2909 185.947 27.1636 184.88 26.6526Z" fill="#FAB317"/>
<path d="M143.702 29.3245L143.829 28.2664C143.829 28.2664 144.647 28.9808 145.57 27.8594L145.733 28.9628C145.733 28.9628 144.769 29.8355 143.702 29.3245Z" fill="#FAB317"/>
<path d="M194.919 37.1292L196.28 36.4102C196.28 36.4102 196.099 37.9748 198.193 38.1511L197.013 39.25C197.013 39.25 195.181 38.8204 194.915 37.1292H194.919Z" fill="#FAB317"/>
<path opacity="0.7" d="M194.919 37.1292L196.28 36.4102C196.28 36.4102 196.099 37.9748 198.193 38.1511L197.013 39.25C197.013 39.25 195.181 38.8204 194.915 37.1292H194.919Z" fill="white"/>
<path d="M205.862 57.7229L207.224 57.0039C207.224 57.0039 207.043 58.5685 209.136 58.7449L207.956 59.8438C207.956 59.8438 206.125 59.4142 205.858 57.7229H205.862Z" fill="#FAB317"/>
<path opacity="0.7" d="M205.862 57.7229L207.224 57.0039C207.224 57.0039 207.043 58.5685 209.136 58.7449L207.956 59.8438C207.956 59.8438 206.125 59.4142 205.858 57.7229H205.862Z" fill="white"/>
<path d="M196.56 127.215L197.922 126.496C197.922 126.496 197.741 128.061 199.834 128.237L198.654 129.336C198.654 129.336 196.823 128.906 196.556 127.215H196.56Z" fill="#FAB317"/>
<path opacity="0.7" d="M196.56 127.215L197.922 126.496C197.922 126.496 197.741 128.061 199.834 128.237L198.654 129.336C198.654 129.336 196.823 128.906 196.556 127.215H196.56Z" fill="white"/>
<path d="M21.5658 140.164L22.9269 139.445C22.9269 139.445 22.7461 141.01 24.8398 141.186L23.6595 142.285C23.6595 142.285 21.8281 141.856 21.5613 140.164H21.5658Z" fill="#FAB317"/>
<path opacity="0.7" d="M21.5658 140.164L22.9269 139.445C22.9269 139.445 22.7461 141.01 24.8398 141.186L23.6595 142.285C23.6595 142.285 21.8281 141.856 21.5613 140.164H21.5658Z" fill="white"/>
<path d="M165.738 28.2445L166.177 26.7703C166.177 26.7703 167.167 27.9913 168.759 26.6211L168.718 28.2309C168.718 28.2309 167.131 29.2348 165.734 28.2445H165.738Z" fill="#FAB317"/>
<path opacity="0.7" d="M165.738 28.2445L166.177 26.7703C166.177 26.7703 167.167 27.9913 168.759 26.6211L168.718 28.2309C168.718 28.2309 167.131 29.2348 165.734 28.2445H165.738Z" fill="white"/>
<path d="M147.492 12.7211L147.93 11.2469C147.93 11.2469 148.921 12.4678 150.512 11.0977L150.472 12.7075C150.472 12.7075 148.884 13.7114 147.487 12.7211H147.492Z" fill="#FAB317"/>
<path opacity="0.7" d="M147.492 12.7211L147.93 11.2469C147.93 11.2469 148.921 12.4678 150.512 11.0977L150.472 12.7075C150.472 12.7075 148.884 13.7114 147.487 12.7211H147.492Z" fill="white"/>
<path d="M21.0367 46.6002C20.5755 41.6983 24.1795 37.3481 29.0815 36.8913C33.9834 36.4301 38.3336 40.0342 38.7903 44.9361C39.143 48.721 37.0719 52.1668 33.8568 53.7541L33.1423 56.3362L30.8903 54.6223C30.8405 54.6268 30.7953 54.6404 30.7456 54.6449C25.8437 55.1062 21.4934 51.5021 21.0367 46.6002Z" fill="#FAB317"/>
<path d="M20.8965 41.553C20.8965 41.553 20.8694 41.553 20.8558 41.544C20.7971 41.5214 20.7699 41.458 20.788 41.3993C21.819 38.6634 24.3378 36.5064 27.2003 35.905C27.2591 35.8914 27.3224 35.9321 27.336 35.9909C27.3495 36.0497 27.3088 36.113 27.25 36.1265C24.4599 36.7144 22.009 38.8172 21.0005 41.4807C20.9825 41.5259 20.9418 41.553 20.8965 41.553Z" fill="#FAB317"/>
<path d="M20.173 44.0987C20.1097 44.0987 20.06 44.0444 20.0645 43.9811C20.0735 43.5243 20.1821 43.0676 20.372 42.6516C20.3991 42.5928 20.467 42.5702 20.5212 42.5973C20.5755 42.6245 20.6026 42.6923 20.5755 42.7466C20.3946 43.1309 20.2951 43.5605 20.2861 43.9856C20.2861 44.0489 20.2363 44.0941 20.173 44.0941V44.0987Z" fill="#FAB317"/>
<path d="M29.9135 50.5144C29.5789 50.5144 29.2985 50.4059 29.0724 50.1888C28.8463 49.9717 28.7333 49.7095 28.7333 49.3974C28.7333 49.0854 28.8418 48.8277 29.0634 48.6196C29.285 48.4116 29.5653 48.3076 29.909 48.3076C30.2527 48.3076 30.5331 48.4116 30.7546 48.6196C30.9762 48.8277 31.0847 49.0899 31.0847 49.3974C31.0847 49.7049 30.9717 49.9717 30.7456 50.1888C30.5195 50.4059 30.2391 50.5144 29.9045 50.5144H29.9135ZM30.6732 47.4349H29.1538L28.774 41.832H31.0531L30.6732 47.4349Z" fill="white"/>
<path d="M204.718 83.489C204.709 82.4083 203.94 81.323 202.873 81.1376C203.818 80.7803 204.718 80.1246 205.057 79.1705C205.392 78.2163 204.962 76.9682 203.999 76.6698C203.203 76.4211 202.367 76.8416 201.629 77.2305C200.522 77.8093 199.269 78.3565 198.057 78.058C196.768 77.7415 195.886 76.5567 195.29 75.3719C194.693 74.1872 194.24 72.8893 193.313 71.9352C192.391 70.981 190.781 70.5017 189.732 71.3202L189.036 75.2634C189.32 78.5962 189.935 82.0962 192.196 84.5608C194.534 87.1112 196.904 87.8528 200.214 87.3554C201.286 87.1926 202.358 86.8806 203.226 86.2339C204.094 85.5873 204.732 84.5698 204.723 83.489H204.718Z" fill="#263238"/>
<path d="M189.727 71.3164C189.981 71.5289 193.702 73.686 192.147 77.0504C190.591 80.4148 189.691 79.5646 189.691 79.5646L189.732 71.3164H189.727Z" fill="black"/>
<path d="M178.137 86.5006C178.843 86.1931 179.11 85.8358 179.3 85.0626C179.453 84.4702 179.503 83.8099 179.512 83.1497L180.593 82.6252L185.974 80.4727C184.785 82.9553 182.501 86.8126 183.876 89.042C183.876 89.042 185.829 91.0452 186.747 91.7597C185.884 92.0039 176.794 96.4898 173.145 94.5408C169.83 92.7681 173.855 86.7945 174.836 86.0393C175.944 86.1614 177.124 86.3106 178.137 86.5006Z" fill="#E9B376"/>
<path opacity="0.2" d="M179.164 85.3889C180.349 85.5607 182.194 85.4431 182.944 84.3081C183.252 83.8423 183.46 83.3404 183.564 82.9922L179.535 83.7519C179.385 84.2493 179.507 84.7241 179.164 85.3889Z" fill="black"/>
<path d="M189.139 77.0333C187.1 80.7142 186.318 82.3151 183.451 83.4546C179.141 85.1685 175.008 82.1342 175.89 77.9874C176.686 74.2522 179.887 68.8574 184.364 68.9026C188.773 68.9478 191.179 73.3523 189.139 77.0378V77.0333Z" fill="#E9B376"/>
<path d="M183.198 76.1675C183.048 76.5338 182.718 76.7599 182.451 76.674C182.189 76.5881 182.094 76.2263 182.243 75.8645C182.393 75.4983 182.723 75.2721 182.985 75.3581C183.247 75.444 183.342 75.8058 183.193 76.1675H183.198Z" fill="#263238"/>
<path d="M184.78 75.3004C184.73 75.2823 184.685 75.2461 184.663 75.1964C184.319 74.3869 183.573 74.2784 183.564 74.2784C183.451 74.2648 183.378 74.1608 183.401 74.0523C183.424 73.9438 183.532 73.8669 183.645 73.8805C183.686 73.885 184.626 74.0206 185.052 75.0291C185.092 75.1285 185.042 75.2506 184.934 75.2959C184.884 75.3185 184.825 75.3185 184.78 75.3049V75.3004Z" fill="#263238"/>
<path d="M179.535 71.9986C179.494 71.9669 179.471 71.9217 179.467 71.8674C179.458 71.7589 179.548 71.6639 179.661 71.6549C180.832 71.5735 181.434 72.288 181.461 72.3196C181.533 72.4056 181.515 72.5277 181.42 72.5955C181.325 72.6633 181.194 72.6452 181.122 72.5593C181.099 72.5322 180.624 71.985 179.693 72.0483C179.634 72.0483 179.575 72.0348 179.535 71.9986Z" fill="#263238"/>
<path d="M180.95 74.6836C180.95 74.6836 179.716 75.8548 178.648 76.4517C178.463 76.5557 178.436 76.818 178.59 76.9672C178.988 77.3516 179.612 77.4375 179.612 77.4375L180.955 74.6836H180.95Z" fill="#D58745"/>
<path d="M183.125 75.447L182.289 74.918C182.289 74.918 182.677 75.8179 183.125 75.447Z" fill="#263238"/>
<path d="M179.702 74.6165C179.553 74.9783 179.223 75.2089 178.956 75.123C178.693 75.037 178.599 74.6753 178.748 74.3135C178.897 73.9518 179.227 73.7211 179.489 73.807C179.752 73.893 179.847 74.2547 179.697 74.6165H179.702Z" fill="#263238"/>
<path d="M179.575 73.826L178.739 73.2969C178.739 73.2969 179.128 74.1968 179.575 73.826Z" fill="#263238"/>
<path d="M185.214 82.517C187.548 82.024 190.537 79.6274 191.233 76.792C191.961 73.8346 190.519 70.7551 187.145 69.1271C180.534 65.9391 177.346 74.1331 177.346 74.1331C181.456 66.9972 187.105 72.2926 187.105 72.2926C184.626 74.8114 186.521 77.8185 186.521 77.8185C186.67 80.2514 185.214 82.5124 185.214 82.5124V82.517Z" fill="#263238"/>
<path d="M188.922 80.6726C188.122 81.2605 187.168 81.4323 186.417 81.3012C185.291 81.1113 185.486 79.2436 186.277 78.3799C186.991 77.6021 188.258 77.4348 189.158 78.0679C190.044 78.692 189.831 79.9988 188.918 80.6726H188.922Z" fill="#E9B376"/>
<path opacity="0.2" d="M187.399 80.4694C187.294 80.4694 187.181 80.4603 187.059 80.4422C186.996 80.4332 186.955 80.3744 186.964 80.3156C186.973 80.2523 187.028 80.2116 187.091 80.2207C187.697 80.3111 188.063 80.1257 188.262 79.9539C188.479 79.7685 188.556 79.5469 188.556 79.4157C188.556 79.1535 188.339 78.8595 188.032 78.855C187.968 78.855 187.919 78.8053 187.919 78.742C187.919 78.6786 187.968 78.6289 188.032 78.6289C188.479 78.6334 188.778 79.0404 188.778 79.4157C188.778 79.6554 188.633 79.9222 188.407 80.1212C188.212 80.2885 187.891 80.4649 187.394 80.4649L187.399 80.4694Z" fill="black"/>
<path d="M191.342 75.6386C191.428 74.0287 190.682 70.1081 185.468 68.2405C180.254 66.3729 178.002 69.4343 178.002 69.4343C179.119 68.8193 180.38 68.4982 181.656 68.5118C180.168 68.7198 178.856 69.6061 178.119 70.9175C178.495 70.5151 179.942 70.7547 179.942 70.7547C180.534 70.2211 181.208 69.7825 181.936 69.4614C181.176 69.787 180.697 71.1889 180.697 71.1889L182.198 71.9079C182.555 71.0577 183.193 70.3523 184.002 69.9136C183.464 70.6417 183.161 71.5235 183.139 72.4279C183.351 71.424 183.975 70.5558 184.853 70.0312C184.274 70.8135 183.844 71.6953 183.595 72.6359C184.296 73.2735 184.911 73.9971 185.422 74.7929C185.617 73.7167 186.169 72.7399 186.983 72.0119C185.454 74.4221 186.657 77.4429 186.657 77.4429C186.657 77.4429 191.256 77.2439 191.342 75.634V75.6386Z" fill="#263238"/>
<path d="M180.344 79.0544C180.511 79.5111 180.652 80.3567 180.652 80.3567C180.728 80.3567 180.81 80.3567 180.887 80.3567C181.954 80.3477 182.447 79.9905 182.673 79.6016C182.795 79.3845 182.831 79.1584 182.836 78.9685C182.845 78.7514 182.804 78.5977 182.804 78.5977C182.239 78.9413 181.244 79.0227 180.71 79.0453C180.489 79.0589 180.344 79.0544 180.344 79.0544Z" fill="#263238"/>
<path d="M180.706 79.046L180.805 79.4258C181.814 79.4168 182.519 79.2721 182.831 78.9646C182.84 78.7475 182.8 78.5938 182.8 78.5938C182.234 78.9374 181.24 79.0188 180.706 79.0414V79.046Z" fill="white"/>
<path d="M180.882 80.3567C181.949 80.3477 182.442 79.9905 182.668 79.6016C182.307 79.6197 181.868 79.6784 181.484 79.8458C181.19 79.9724 181.004 80.1668 180.882 80.3613V80.3567Z" fill="#C15854"/>
<path d="M166.841 85.7901C166.841 85.7901 163.409 74.8331 163.698 72.7937C163.988 70.7542 169.084 60.6836 169.084 60.6836L172.15 62.2799L168.356 73.1419L173.163 83.7099L166.841 85.7901Z" fill="#E9B376"/>
<path d="M167.524 91.2789C167.307 87.4171 165.236 81.3032 165.236 81.3032L171.192 78.3594C171.192 78.3594 173.05 83.6683 175.619 85.8389C175.619 85.8389 167.633 93.6213 167.524 91.2789Z" fill="#263238"/>
<path d="M167.058 64.9082L169.084 60.6846C169.084 60.6846 168.863 59.7078 168.872 58.9888C168.881 58.2653 168.94 57.3518 169.754 56.47C170.567 55.5882 170.708 56.47 170.708 56.47C171.644 55.7013 172.25 56.5514 172.25 56.5514C173.05 55.8596 173.769 56.7052 173.769 56.7052C173.769 56.7052 174.719 57.5418 174.913 58.0889C175.103 58.6361 174.203 60.5218 174.203 60.5218L172.318 61.9417L170.735 66.3326C170.658 66.301 167.063 64.9082 167.063 64.9082H167.058Z" fill="#E9B376"/>
<path opacity="0.3" d="M171.287 59.8943C171.788 59.3924 172.48 59.1437 173.186 59.2025C173.231 59.2025 173.272 59.1663 173.285 59.1256C173.394 58.7548 173.507 58.3794 173.615 58.0086C173.629 57.9634 173.606 57.9182 173.57 57.8956C173.208 57.683 172.697 57.3439 172.914 56.8555C172.914 56.8555 172.928 56.8465 172.924 56.8465C172.96 56.8465 172.996 56.8555 173.046 56.8736C173.245 56.955 173.43 57.0952 173.602 57.2218C174.004 57.5157 174.384 57.8323 174.764 58.1533C174.863 58.2347 175.008 58.0946 174.909 58.0086C174.551 57.7102 174.19 57.4117 173.814 57.1268C173.615 56.9776 173.412 56.8239 173.19 56.7153C172.982 56.6158 172.774 56.6023 172.688 56.851C172.494 57.4162 173.05 57.8187 173.466 58.0674L173.421 57.9544C173.312 58.3252 173.199 58.7005 173.091 59.0713L173.19 58.9944C172.435 58.9311 171.684 59.2115 171.146 59.7451C171.051 59.8355 171.196 59.9803 171.291 59.8898L171.287 59.8943Z" fill="black"/>
<path opacity="0.3" d="M169.166 57.4082C169.062 57.5936 169.062 57.8152 169.157 58.0006C169.252 58.186 169.455 58.3036 169.668 58.3126C169.88 58.3217 170.075 58.2131 170.201 58.0368C170.332 57.8559 170.391 57.6253 170.477 57.4173C170.59 57.1369 170.735 56.8656 170.898 56.6078C170.966 56.4948 170.794 56.3953 170.721 56.5038C170.568 56.748 170.432 57.0058 170.319 57.2726C170.228 57.4896 170.17 57.7428 170.025 57.9328C169.898 58.1001 169.668 58.1589 169.478 58.0504C169.288 57.9418 169.234 57.6886 169.338 57.5032C169.401 57.3901 169.225 57.2861 169.161 57.3992L169.166 57.4082Z" fill="black"/>
<path opacity="0.3" d="M170.301 57.8473C170.364 58.1277 170.527 58.4035 170.785 58.5392C171.015 58.6568 171.318 58.6568 171.535 58.503C171.793 58.3176 171.834 57.9694 171.942 57.6936C172.069 57.3635 172.25 57.0469 172.467 56.7666C172.548 56.6625 172.403 56.5178 172.322 56.6219C172.141 56.857 171.983 57.1057 171.856 57.3725C171.797 57.5037 171.743 57.6348 171.693 57.7705C171.644 57.9061 171.617 58.0553 171.544 58.1865C171.422 58.4035 171.16 58.4714 170.934 58.3855C170.685 58.2905 170.545 58.0418 170.491 57.7931C170.463 57.6664 170.264 57.7207 170.296 57.8473H170.301Z" fill="black"/>
<path opacity="0.3" d="M171.883 58.1217C171.992 58.4111 172.254 58.6146 172.562 58.6462C172.869 58.6779 173.177 58.4925 173.317 58.2212C173.376 58.1036 173.204 58.0041 173.141 58.1172C173.032 58.3252 172.81 58.4563 172.58 58.4427C172.363 58.4292 172.155 58.2709 172.078 58.0674C172.06 58.0177 172.01 57.9815 171.951 57.9951C171.901 58.0086 171.861 58.0674 171.879 58.1217H171.883Z" fill="black"/>
<path d="M184.984 89.0086C182.438 91.0616 175.338 91.3917 175.338 91.3917C174.832 88.4931 175.551 86.8923 176.496 86.0195L176.975 86.1326C179.399 86.7973 181.769 87.6384 184.07 88.6468C184.36 88.7644 184.667 88.9001 184.988 89.0086H184.984Z" fill="#E9B376"/>
<path d="M161.935 108.69L182.89 114.523L184.215 111.476L173.489 105.574L163.346 105.778L161.935 108.69Z" fill="#263238"/>
<path opacity="0.2" d="M161.935 108.69L182.89 114.523L184.215 111.476L173.489 105.574L163.346 105.778L161.935 108.69Z" fill="black"/>
<path d="M176.975 86.1225C179.395 86.7918 181.769 87.6284 184.07 88.6368C186.236 89.5412 188.33 90.6039 190.338 91.8158C182.727 103.808 181.402 107.752 179.44 114.205C176.428 113.146 169.79 113.015 163.585 110.845C165.471 93.3442 171.888 85.8919 171.888 85.8919C173.579 85.5708 175.32 85.6522 176.975 86.127V86.1225Z" fill="#E9B376"/>
<path d="M182.316 112.587C180.955 109.757 174.728 108.359 169.912 107.486C165.096 106.614 161.93 108.689 161.93 108.689L162.717 105.899C163.291 103.842 164.191 100.685 166.059 94.5488C166.81 92.0843 168.085 89.2128 169.478 87.6391C169.975 86.7031 170.599 85.8348 171.327 85.0616C172.616 83.818 173.661 83.7909 175.867 85.9253C175.867 85.9253 175.863 87.9466 177.88 89.0274C180.9 90.6418 184.816 88.6521 184.816 88.6521C184.816 88.6521 189.022 90.6463 190.157 91.8266C190.632 92.324 189.723 94.1193 188.226 96.9229C188.19 96.9817 188.136 97.0405 188.131 97.0993C187.313 98.5961 185.147 102.137 184.093 104.172C182.221 107.722 188.194 111.769 182.886 114.527L182.311 112.596L182.316 112.587Z" fill="#263238"/>
<path opacity="0.2" d="M185.807 96.8566C185.933 96.4134 186.033 96.1602 186.033 96.1602C186.879 96.1737 187.702 96.445 188.393 96.9289C188.357 96.9877 188.303 97.0465 188.298 97.1053C187.48 98.6021 186.295 100.049 185.246 102.084C184.948 100.216 185.264 98.6609 185.811 96.852L185.807 96.8566Z" fill="black"/>
<path d="M197.333 98.7562C197.017 99.5204 196.89 100.533 196.7 101.46C194.344 99.0999 192.422 95.9797 190.822 93.1172L185.264 95.8485V95.8621C187.683 100.588 190.885 105.006 195.529 107.782C197.207 108.791 199.382 108.248 200.39 106.57C200.422 106.516 200.454 106.466 200.481 106.412C201.625 104.495 201.507 103.825 201.874 101.926L197.333 98.7517V98.7562Z" fill="#E9B376"/>
<path d="M185.16 96.413C184.776 98.6424 188.289 102.531 188.289 102.531L194.001 97.0551C194.001 97.0551 191.559 92.3522 189.985 91.6241C188.199 90.7785 185.549 94.1881 185.165 96.4175L185.16 96.413Z" fill="#263238"/>
<path d="M206.296 85.8903L206.409 95.3776L193.06 99.2395L193.472 88.8659L205.075 85.5195L206.296 85.8903Z" fill="#FAB317"/>
<path opacity="0.2" d="M206.296 85.8903L206.409 95.3776L193.06 99.2395L193.472 88.8659L205.075 85.5195L206.296 85.8903Z" fill="black"/>
<path d="M197.691 89.4806L196.488 99.3749L193.897 98.3529L193.942 89.3359L197.691 89.4806Z" fill="#FAB317"/>
<path opacity="0.7" d="M197.691 89.4806L196.488 99.3749L193.897 98.3529L193.942 89.3359L197.691 89.4806Z" fill="white"/>
<path d="M205.075 85.5195L206.296 85.8903L207.264 95.9836L195.149 99.6193L195.158 89.8833L193.472 88.8659L205.075 85.5195Z" fill="#FAB317"/>
<path d="M198.423 96.455L198.649 91.7747C198.649 91.7747 198.066 90.9607 197.795 90.2914C197.523 89.6222 197.22 88.7585 197.632 87.628C198.043 86.502 198.509 87.2526 198.509 87.2526C199.074 86.1764 199.961 86.7326 199.961 86.7326C200.431 85.783 201.421 86.2849 201.421 86.2849C201.421 86.2849 202.624 86.6874 203.013 87.117C203.402 87.5466 203.303 89.6357 203.303 89.6357L202.118 91.6797L202.181 96.3465C202.1 96.3465 198.423 96.455 198.423 96.455Z" fill="#E9B376"/>
<path d="M196.705 101.46L198.649 91.7734L202.127 91.8729C202.127 91.8729 202.584 102.794 200.992 105.466C199.4 108.139 198.138 106.23 198.138 106.23L196.705 101.46Z" fill="#E9B376"/>
<path d="M173.349 192.477L169.383 193.304L165.313 183.473L171.341 182.148L173.349 192.477Z" fill="#E9B376"/>
<path d="M168.505 191.946L169.876 191.503C170.188 191.403 170.522 191.467 170.789 191.656C171.929 192.479 172.39 191.878 172.924 190.585C173.448 190.345 173.801 190.924 173.9 191.078L176.13 194.474C176.32 194.754 176.243 195.138 175.962 195.328C175.913 195.36 175.858 195.387 175.8 195.405C174.135 195.943 173.349 196.197 171.277 196.87L164.942 198.919C163.215 199.48 162.292 197.852 162.952 197.463C165.923 195.722 167.881 194.044 168.569 192.796C168.7 192.574 168.474 192.511 168.505 191.946Z" fill="#263238"/>
<path d="M166.873 193.878C167.303 193.728 167.714 193.534 168.103 193.299C168.139 193.272 168.144 193.222 168.117 193.186C168.103 193.168 168.08 193.154 168.058 193.154C167.836 193.122 165.865 192.878 165.53 193.321C165.467 193.398 165.453 193.507 165.498 193.597C165.557 193.774 165.697 193.914 165.874 193.968C166.208 194.045 166.556 194.013 166.873 193.878ZM167.8 193.281C167.325 193.538 166.425 193.968 165.941 193.801C165.815 193.756 165.715 193.656 165.666 193.529C165.643 193.493 165.648 193.444 165.679 193.412C165.865 193.168 166.986 193.195 167.8 193.281Z" fill="#FAB317"/>
<path d="M168.085 193.308C168.085 193.308 168.121 193.303 168.139 193.29C168.157 193.262 168.153 193.226 168.139 193.204C168.117 193.131 167.167 191.576 166.263 191.987C166.041 192.096 166.009 192.227 166.032 192.326C166.118 192.792 167.47 193.29 168.053 193.339L168.089 193.312L168.085 193.308ZM166.398 192.091C166.995 191.897 167.655 192.769 167.9 193.127C167.244 193.014 166.235 192.561 166.195 192.277C166.186 192.254 166.168 192.191 166.335 192.118L166.398 192.096V192.091Z" fill="#FAB317"/>
<path d="M169.301 193.801C169.274 193.801 169.252 193.792 169.229 193.774C168.867 193.471 168.379 193.34 167.913 193.425C167.854 193.439 167.791 193.394 167.782 193.335C167.773 193.276 167.814 193.213 167.872 193.204C168.397 193.109 168.958 193.258 169.369 193.602C169.419 193.642 169.424 193.715 169.383 193.76C169.36 193.787 169.329 193.801 169.297 193.801H169.301Z" fill="#FAB317"/>
<path d="M168.659 194.719C168.632 194.719 168.609 194.71 168.587 194.692C168.225 194.389 167.737 194.262 167.271 194.343C167.208 194.352 167.149 194.312 167.14 194.253C167.131 194.19 167.171 194.131 167.23 194.122C167.759 194.027 168.32 194.176 168.727 194.52C168.777 194.56 168.781 194.633 168.741 194.678C168.718 194.705 168.686 194.719 168.655 194.719H168.659Z" fill="#FAB317"/>
<path d="M167.773 195.598C167.746 195.598 167.723 195.589 167.701 195.571C167.339 195.268 166.85 195.141 166.385 195.222C166.326 195.236 166.262 195.191 166.253 195.132C166.244 195.069 166.285 195.01 166.344 195.001C166.873 194.906 167.434 195.055 167.841 195.399C167.89 195.439 167.895 195.512 167.854 195.557C167.832 195.584 167.8 195.598 167.768 195.598H167.773Z" fill="#FAB317"/>
<path opacity="0.3" d="M168.08 190.158L168.424 190.995L172.815 189.719L172.616 188.711L168.08 190.158Z" fill="black"/>
<path d="M204.713 167.567L202.159 170.714L192.798 165.658L196.633 160.824L204.713 167.567Z" fill="#E9B376"/>
<path d="M200.702 170.129L201.485 168.922C201.661 168.646 201.964 168.483 202.29 168.465C203.691 168.384 203.673 167.629 203.266 166.29C203.524 165.77 204.157 166.001 204.334 166.055L208.209 167.28C208.535 167.38 208.72 167.723 208.621 168.049C208.602 168.108 208.575 168.162 208.544 168.212C207.594 169.682 207.142 170.373 205.962 172.205L202.344 177.794C201.358 179.318 199.617 178.64 199.884 177.921C201.087 174.696 201.548 172.16 201.29 170.753C201.25 170.5 201.037 170.595 200.702 170.129Z" fill="#263238"/>
<path d="M200.657 172.658C200.897 172.269 201.091 171.858 201.245 171.433C201.254 171.392 201.227 171.347 201.186 171.338C201.164 171.333 201.137 171.338 201.119 171.351C200.924 171.469 199.242 172.522 199.265 173.074C199.265 173.174 199.323 173.269 199.414 173.309C199.572 173.409 199.766 173.427 199.943 173.359C200.25 173.21 200.504 172.961 200.662 172.658H200.657ZM201.001 171.609C200.797 172.111 200.368 173.011 199.889 173.187C199.762 173.232 199.622 173.219 199.504 173.151C199.463 173.133 199.436 173.097 199.441 173.051C199.432 172.749 200.318 172.057 201.001 171.609Z" fill="#FAB317"/>
<path d="M201.236 171.447C201.236 171.447 201.263 171.42 201.268 171.401C201.263 171.37 201.241 171.343 201.209 171.334C201.146 171.293 199.427 170.687 198.984 171.573C198.88 171.795 198.939 171.921 199.016 171.98C199.378 172.288 200.739 171.817 201.223 171.487L201.232 171.442L201.236 171.447ZM199.156 171.569C199.495 171.044 200.562 171.302 200.974 171.424C200.395 171.75 199.328 172.039 199.115 171.84C199.097 171.826 199.038 171.79 199.124 171.628L199.156 171.569Z" fill="#FAB317"/>
<path d="M201.091 171.686C201.064 171.686 201.037 171.677 201.019 171.659C200.974 171.618 200.965 171.546 201.005 171.501C201.354 171.094 201.874 170.863 202.416 170.863C202.48 170.863 202.529 170.918 202.529 170.976C202.529 171.04 202.48 171.089 202.416 171.089C202.412 171.089 202.403 171.089 202.398 171.089C201.937 171.089 201.48 171.297 201.177 171.65C201.155 171.677 201.123 171.691 201.091 171.691V171.686Z" fill="#FAB317"/>
<path d="M201.173 172.8C201.146 172.8 201.119 172.791 201.1 172.773C201.055 172.732 201.046 172.66 201.087 172.614C201.435 172.207 201.96 171.968 202.498 171.977C202.561 171.977 202.611 172.031 202.611 172.09C202.611 172.153 202.561 172.203 202.498 172.203C202.489 172.203 202.484 172.203 202.48 172.203C202.018 172.203 201.562 172.411 201.259 172.764C201.236 172.791 201.204 172.804 201.173 172.804V172.8Z" fill="#FAB317"/>
<path d="M201.042 174.046C201.014 174.046 200.987 174.037 200.969 174.019C200.924 173.978 200.915 173.905 200.956 173.86C201.299 173.458 201.819 173.223 202.348 173.223H202.371C202.434 173.223 202.484 173.277 202.484 173.336C202.484 173.399 202.434 173.449 202.371 173.449C202.367 173.449 202.358 173.449 202.353 173.449C201.892 173.449 201.435 173.657 201.132 174.01C201.109 174.037 201.078 174.05 201.046 174.05L201.042 174.046Z" fill="#FAB317"/>
<path opacity="0.3" d="M198.034 168.569L199.445 169.247L202 165.299L201.087 164.535L198.034 168.569Z" fill="black"/>
<path d="M175.709 111.329C175.709 111.329 170.653 141.509 169.107 154.654L174.077 188.416L166.321 190.614C166.321 190.614 156.78 164.241 157.449 151.9C156.526 140.618 161.609 111.116 163.594 110.379L175.709 111.324V111.329Z" fill="#FAB317"/>
<path opacity="0.2" d="M175.709 111.329C175.709 111.329 170.653 141.509 169.107 154.654L174.077 188.416L166.321 190.614C166.321 190.614 156.78 164.241 157.449 151.9C156.526 140.618 161.609 111.116 163.594 110.379L175.709 111.324V111.329Z" fill="black"/>
<path opacity="0.2" d="M173.416 121.633C171.87 129.013 170.807 143.818 169.432 152.076C168.424 146.427 166.76 129.465 171.445 121.619C173.593 117.997 173.113 117.36 173.421 121.628L173.416 121.633Z" fill="black"/>
<path d="M180.226 111.695C180.226 111.695 184.654 117.067 185.011 126.396C185.309 134.179 182.094 144.417 182.813 150.427C190.279 152.231 201.123 164.504 201.123 164.504L198.346 169.035C198.346 169.035 174.886 159.643 172.467 153.827C170.282 141.97 168.162 110.75 168.162 110.75L180.226 111.691V111.695Z" fill="#FAB317"/>
<path opacity="0.2" d="M180.226 111.695C180.226 111.695 184.654 117.067 185.011 126.396C185.309 134.179 182.094 144.417 182.813 150.427C190.279 152.231 201.123 164.504 201.123 164.504L198.346 169.035C198.346 169.035 174.886 159.643 172.467 153.827C170.282 141.97 168.162 110.75 168.162 110.75L180.226 111.691V111.695Z" fill="black"/>
<path d="M50.4343 78.6133L61.7937 67.1363L63.0192 53.6289L66.4831 54.9177C66.4831 54.9177 67.7312 68.0905 66.8087 69.5737C65.8817 71.0614 55.8337 82.4118 55.8337 82.4118L50.4388 78.6178L50.4343 78.6133Z" fill="#E9B376"/>
<path d="M66.7906 58.3349L66.4831 53.6591C66.4831 53.6591 67.0484 52.8361 67.3107 52.1623C67.5729 51.4885 67.8578 50.6158 67.4282 49.4988C66.9986 48.3774 66.5419 49.1416 66.5419 49.1416C65.9586 48.0789 65.0813 48.6442 65.0813 48.6442C64.5974 47.7036 63.6116 48.2191 63.6116 48.2191C63.6116 48.2191 62.4178 48.6396 62.0334 49.0783C61.649 49.5169 61.7847 51.6016 61.7847 51.6016L63.0057 53.623L62.8429 58.2897C62.9243 58.2897 66.7816 58.3349 66.7816 58.3349H66.7906Z" fill="#E9B376"/>
<path opacity="0.3" d="M64.9185 52.0101C64.62 51.3137 64.0186 50.7801 63.2996 50.5585L63.3765 50.658C63.4126 50.2691 63.4488 49.8847 63.485 49.4958L63.4081 49.5953C63.8422 49.5275 64.3442 49.4144 64.5251 48.9577C64.5748 48.8356 64.6065 48.6412 64.507 48.5281C64.4346 48.4512 64.3171 48.4377 64.2176 48.4422C64.005 48.4422 63.788 48.501 63.58 48.5552C63.078 48.6819 62.5851 48.8401 62.0922 49.0029C61.9701 49.0436 62.0199 49.2381 62.1465 49.1974C62.6213 49.0436 63.1006 48.8853 63.5845 48.7632C63.797 48.709 64.0231 48.6457 64.2447 48.6457C64.299 48.6457 64.3261 48.6502 64.3532 48.6683C64.3532 48.6683 64.3623 48.6683 64.3623 48.6954C64.3623 48.6728 64.3623 48.7542 64.3623 48.7723C64.3487 48.908 64.2673 49.03 64.1678 49.1205C63.9462 49.3195 63.6297 49.3602 63.3493 49.4054C63.3041 49.4144 63.277 49.4642 63.2725 49.5049C63.2363 49.8938 63.2001 50.2781 63.1639 50.667C63.1639 50.7123 63.2001 50.753 63.2408 50.7665C63.9191 50.9745 64.4618 51.472 64.7421 52.1231C64.7919 52.2452 64.9682 52.1412 64.9185 52.0191V52.0101Z" fill="black"/>
<path opacity="0.3" d="M67.4282 50.6038C67.4508 50.8073 67.3332 51.0199 67.1252 51.0696C66.9172 51.1193 66.7001 50.9746 66.6368 50.7666C66.569 50.5315 66.6142 50.2647 66.6097 50.0205C66.6007 49.7311 66.569 49.4462 66.5193 49.1658C66.4966 49.0392 66.2977 49.0935 66.3248 49.2201C66.3881 49.5728 66.4152 49.93 66.4062 50.2873C66.4017 50.5677 66.3836 50.8842 66.5961 51.0967C66.7725 51.2776 67.0664 51.3319 67.2925 51.2234C67.5186 51.1148 67.6633 50.8525 67.6317 50.6038C67.6181 50.4772 67.4146 50.4727 67.4282 50.6038Z" fill="black"/>
<path opacity="0.3" d="M66.2434 50.4646C66.1032 50.6681 65.8816 50.8354 65.6284 50.8399C65.3933 50.8399 65.1671 50.6862 65.1265 50.4465C65.1038 50.3108 65.1265 50.1752 65.14 50.0395C65.1491 49.8858 65.1536 49.7365 65.14 49.5828C65.1265 49.2843 65.0722 48.9859 64.9908 48.701C64.9546 48.5744 64.7602 48.6286 64.7963 48.7552C64.8958 49.108 64.9456 49.4697 64.941 49.8315C64.941 50.139 64.837 50.4917 65.0405 50.763C65.1988 50.971 65.4746 51.0705 65.7324 51.0344C66.0218 50.9937 66.257 50.8037 66.4152 50.5686C66.4876 50.4601 66.3112 50.3606 66.2389 50.4646H66.2434Z" fill="black"/>
<path opacity="0.3" d="M64.6879 50.1048C64.5341 50.2721 64.2899 50.3444 64.0729 50.2766C63.8558 50.2088 63.6975 50.0053 63.6749 49.7837C63.6704 49.7294 63.6342 49.6797 63.5709 49.6797C63.5212 49.6797 63.4624 49.7249 63.4669 49.7837C63.4986 50.0912 63.7021 50.367 63.996 50.4665C64.2899 50.566 64.6246 50.4711 64.8281 50.2495C64.914 50.1545 64.7738 50.0098 64.6833 50.1048H64.6879Z" fill="black"/>
<path d="M80.3343 187.99L75.9027 176.396L83.5721 174.18L85.9643 188.519L80.3343 187.99Z" fill="#FAB317"/>
<path opacity="0.7" d="M80.3343 187.99L75.9027 176.396L83.5721 174.18L85.9643 188.519L80.3343 187.99Z" fill="white"/>
<path d="M81.2433 194.068L84.4495 193.86C84.4495 193.86 85.078 193.493 85.4624 193.511C85.8468 193.53 87.1808 193.683 87.1808 193.683L95.7004 193.132C95.6099 192.801 95.5059 192.508 95.3929 192.25C95.2527 191.933 95.1034 191.671 94.9361 191.449C94.3573 190.676 93.6157 190.432 92.8289 190.436C91.6305 190.445 87.7234 188.334 87.7234 188.334C87.7234 188.334 86.3307 187.976 86.1679 186.62C86.1046 186.113 85.2634 185.539 84.8791 185.512C84.0922 185.458 83.6898 185.946 83.6265 186.688L83.5496 187.547L81.7317 187.402C81.7317 187.402 79.846 186.656 79.9862 187.488C80.0676 187.963 80.5153 190.079 80.8228 191.761C80.8951 192.155 80.963 192.526 81.0172 192.851C81.1484 193.575 81.2388 194.072 81.2388 194.072L81.2433 194.068Z" fill="#263238"/>
<g opacity="0.7">
<path d="M95.705 193.132L87.1854 193.683C87.1854 193.683 85.8469 193.534 85.467 193.512C85.0827 193.494 84.4541 193.86 84.4541 193.86L81.248 194.068C81.248 194.068 81.1575 193.57 81.0264 192.851L95.3975 192.25C95.5105 192.508 95.6145 192.802 95.705 193.132Z" fill="white"/>
</g>
<path d="M89.6544 189.09C89.6137 189.058 89.5504 189.058 89.5052 189.09C89.3017 189.235 89.1389 189.434 89.0304 189.673C88.9761 189.8 89.1751 189.909 89.2294 189.778C89.3243 189.565 89.469 189.389 89.6454 189.262C89.7042 189.221 89.7087 189.14 89.6544 189.095V189.09Z" fill="white"/>
<path d="M88.9489 188.758C88.9082 188.726 88.8449 188.726 88.7996 188.758C88.5962 188.903 88.4334 189.102 88.3248 189.341C88.2706 189.468 88.4695 189.577 88.5238 189.445C88.6188 189.233 88.7635 189.057 88.9398 188.93C88.9986 188.889 89.0031 188.808 88.9489 188.763V188.758Z" fill="white"/>
<path d="M88.2299 188.45C88.1892 188.418 88.1259 188.418 88.0807 188.45C87.8772 188.594 87.7144 188.793 87.6058 189.033C87.5516 189.159 87.7505 189.268 87.8048 189.137C87.8998 188.924 88.0445 188.748 88.2208 188.621C88.2796 188.581 88.2842 188.499 88.2299 188.454V188.45Z" fill="white"/>
<path d="M76.6398 178.44L83.8932 176.129L84.1464 177.626L77.2548 179.927L76.6398 178.44Z" fill="#FAB317"/>
<path d="M77.4041 180.434L84.2278 178.109L84.3183 178.648L77.6573 181.085L77.4041 180.434Z" fill="#FAB317"/>
<path d="M37.9354 190.581L37.9671 178.168L45.9169 178.855L43.0001 193.095L37.9354 190.581Z" fill="#FAB317"/>
<path opacity="0.7" d="M37.9354 190.581L37.9671 178.168L45.9169 178.855L43.0001 193.095L37.9354 190.581Z" fill="white"/>
<path d="M36.9134 196.453L41.0782 196.978C41.0782 196.978 41.752 196.707 42.1273 196.783C42.5027 196.86 43.805 197.204 43.805 197.204L52.1573 197.941C52.1166 197.602 52.0578 197.294 51.9809 197.023C51.8905 196.693 51.7774 196.408 51.6463 196.164C51.185 195.314 50.6424 194.934 49.8646 194.821C48.6798 194.654 45.1209 191.995 45.1209 191.995C45.1209 191.995 43.796 191.434 43.8367 190.068C43.8502 189.557 43.0996 188.87 42.7243 188.784C41.9555 188.612 41.4852 189.042 41.3134 189.761L41.1144 190.597L39.3372 190.186C39.3372 190.186 37.5782 189.173 37.6008 190.018C37.6143 190.502 36.7868 192.402 36.8411 194.106C36.8546 194.504 36.8637 194.88 36.8772 195.21C36.8998 195.942 36.9179 196.449 36.9179 196.449L36.9134 196.453Z" fill="#263238"/>
<path opacity="0.7" d="M52.1572 197.942L43.805 197.205C43.805 197.205 42.5026 196.861 42.1273 196.784C41.752 196.707 41.0782 196.978 41.0782 196.978L36.9134 196.454C36.9134 196.454 36.8953 195.952 36.8727 195.215L51.9809 197.019C52.0532 197.29 52.1165 197.598 52.1572 197.937V197.942Z" fill="white"/>
<path d="M46.9207 193.022C46.8845 192.982 46.8257 192.973 46.776 193C46.5544 193.113 46.3599 193.285 46.2243 193.506C46.1519 193.624 46.3328 193.76 46.4052 193.637C46.5273 193.439 46.6991 193.289 46.889 193.19C46.9523 193.158 46.9704 193.077 46.9207 193.022Z" fill="white"/>
<path d="M46.2741 192.585C46.2379 192.544 46.1791 192.535 46.1294 192.562C45.9078 192.675 45.7133 192.847 45.5777 193.069C45.5053 193.186 45.6862 193.322 45.7586 193.2C45.8807 193.001 46.0525 192.852 46.2424 192.752C46.3057 192.721 46.3238 192.639 46.2741 192.585Z" fill="white"/>
<path d="M45.6049 192.179C45.5687 192.138 45.5099 192.129 45.4602 192.156C45.2386 192.269 45.0441 192.441 44.9085 192.663C44.8361 192.78 45.017 192.916 45.0894 192.794C45.2115 192.595 45.3833 192.446 45.5732 192.346C45.6365 192.314 45.6546 192.233 45.6049 192.179Z" fill="white"/>
<path d="M37.9219 180.34L45.5144 180.792L45.216 182.275L37.9581 181.95L37.9219 180.34Z" fill="#FAB317"/>
<path d="M37.9128 182.473L45.1165 182.753L45.008 183.291L37.9174 183.174L37.9128 182.473Z" fill="#FAB317"/>
<path d="M36.2849 188.018L44.8542 187.525C44.8542 187.525 50.7962 160.835 51.1806 154.093C51.565 147.351 50.8776 130.538 50.8776 130.538V130.569C51.2077 130.913 53.7401 134.892 57.0276 138.578C61.3281 143.403 65.918 148.617 66.9942 150.028C70.1506 154.174 77.707 185.693 77.707 185.693L85.7834 184.368C85.7834 184.368 80.7729 151.362 79.3394 147.26C75.9976 137.687 58.3345 118.278 57.5929 117.207C56.6432 115.841 54.2556 111.473 54.2556 111.473L33.2868 115.298C33.2868 115.298 33.124 118.491 33.3094 121.267C34.0103 131.677 38.7856 149.024 39.3644 152.791C37.2391 161.441 36.2894 188.027 36.2894 188.027L36.2849 188.018Z" fill="#263238"/>
<path opacity="0.2" d="M52.2477 128.621L50.8776 130.566C51.1489 131.045 55.6664 137.349 56.8422 138.298C57.1451 133.993 56.1051 130.557 52.2477 128.621Z" fill="black"/>
<path d="M43.9181 86.9625C45.017 88.5633 46.7399 90.3088 50.2174 88.595C52.5553 87.4418 55.6845 84.0774 59.9624 80.4733L52.5824 75.0469C49.9913 77.2175 49.1592 78.2847 45.6863 81.3144C41.1325 86.0264 43.9227 86.967 43.9227 86.967L43.9181 86.9625Z" fill="#FAB317"/>
<path opacity="0.7" d="M43.9181 86.9625C45.017 88.5633 46.7399 90.3088 50.2174 88.595C52.5553 87.4418 55.6845 84.0774 59.9624 80.4733L52.5824 75.0469C49.9913 77.2175 49.1592 78.2847 45.6863 81.3144C41.1325 86.0264 43.9227 86.967 43.9227 86.967L43.9181 86.9625Z" fill="#263238"/>
<path d="M53.2697 91.8748C52.6276 89.6952 51.7142 86.9955 50.959 84.834C50.1495 82.5096 48.205 80.8546 45.7405 80.8953C41.9646 80.9631 37.9897 80.9676 31.6226 82.6724L30.2344 93.747L33.6711 111.415C33.6711 111.415 33.6485 115.702 32.7577 119.595C41.9691 122.412 53.3014 121.779 58.85 118.026C58.85 118.026 54.5585 96.2522 53.2652 91.8703L53.2697 91.8748Z" fill="#FAB317"/>
<path opacity="0.7" d="M35.4799 81.8035C35.4799 81.8035 38.3649 84.987 42.6157 84.0238C46.8664 83.0606 45.8851 80.8945 45.8851 80.8945C45.8851 80.8945 45.4374 80.9036 44.732 80.9081C42.7965 80.9217 38.7493 81.0302 35.4799 81.8035Z" fill="#263238"/>
<path d="M41.4174 103.103L36.6195 98.1602L34.0601 108.923C34.0601 108.923 36.0226 112.703 36.0769 112.509C36.1312 112.314 41.4174 103.107 41.4174 103.107V103.103Z" fill="#263238"/>
<path d="M40.834 103.246L36.6783 99.1037L34.4218 98.7148L34.3087 107.858L36.9858 109.5L40.834 103.246Z" fill="#FAB317"/>
<path opacity="0.7" d="M40.834 103.246L36.6783 99.1037L34.4218 98.7148L34.3087 107.858L36.9858 109.5L40.834 103.246Z" fill="white"/>
<path d="M34.2952 97.7148L38.6092 102.626L41.4174 103.078L37.9988 117.363L34.0148 118.023L31.1388 112.33L34.2952 97.7148Z" fill="#FAB317"/>
<path d="M34.2952 97.7148L38.6092 102.626L41.4174 103.078L37.9988 117.363L34.0148 118.023L31.1388 112.33L34.2952 97.7148Z" fill="#263238"/>
<path d="M38.5008 103.478L33.3049 98.9336L31.6001 109.863C31.6001 109.863 33.8566 113.472 33.8973 113.273C33.9335 113.074 38.5008 103.478 38.5008 103.478Z" fill="#FAB317"/>
<path opacity="0.4" d="M38.5008 103.478L33.3049 98.9336L31.6001 109.863C31.6001 109.863 33.8566 113.472 33.8973 113.273C33.9335 113.074 38.5008 103.478 38.5008 103.478Z" fill="black"/>
<path d="M37.94 103.691L33.4677 99.8877L31.1886 99.6797L31.7946 108.805L34.5937 110.234L37.94 103.691Z" fill="#FAB317"/>
<path opacity="0.7" d="M37.94 103.691L33.4677 99.8877L31.1886 99.6797L31.7946 108.805L34.5937 110.234L37.94 103.691Z" fill="white"/>
<path d="M30.9851 98.6914L35.6699 103.25L38.5007 103.476L36.2261 117.992L32.301 118.955L28.9908 113.515L30.9851 98.6914Z" fill="#FAB317"/>
<path opacity="0.2" d="M30.9851 98.6914L35.6699 103.25L38.5007 103.476L36.2261 117.992L32.301 118.955L28.9908 113.515L30.9851 98.6914Z" fill="black"/>
<path d="M26.1871 87.4023C25.8253 88.0626 17.8258 101.57 17.5228 104.518C17.1701 107.973 17.8665 109.009 19.3588 109.918C20.8465 110.831 35.3759 111.234 35.3759 111.234L34.8513 106.888L24.7943 104.08L33.5535 90.405L26.1871 87.4069V87.4023Z" fill="#E9B376"/>
<path d="M31.7673 82.6783C31.7673 82.6783 28.127 82.3663 26.282 86.0925C24.5817 89.5247 20.3807 97.0404 20.3807 97.0404L29.14 100.753L34.0012 92.1023L31.7673 82.6828V82.6783Z" fill="#FAB317"/>
<path opacity="0.7" d="M31.7673 82.6783C31.7673 82.6783 28.127 82.3663 26.282 86.0925C24.5817 89.5247 20.3807 97.0404 20.3807 97.0404L29.14 100.753L34.0012 92.1023L31.7673 82.6828V82.6783Z" fill="#263238"/>
<path d="M29.5605 110.814L35.3714 111.234C35.3714 111.234 36.2894 112.076 37.0717 112.51C37.8585 112.944 38.8805 113.446 40.3366 113.111C41.7927 112.772 40.929 112.085 40.929 112.085C42.3399 111.546 41.7882 110.371 41.7882 110.371C43.0318 109.932 42.5615 108.634 42.5615 108.634C42.5615 108.634 42.2449 107.092 41.7746 106.545C41.2998 105.998 38.7087 105.812 38.7087 105.812L36.009 106.97L30.2569 106.192C30.2434 106.296 29.5605 110.814 29.5605 110.814Z" fill="#E9B376"/>
<path d="M36.6556 82.0985C38.8172 80.0274 38.3831 74.411 37.8088 71.5078L44.6145 76.7534C44.4788 77.0926 44.3612 77.4408 44.2753 77.798C44.0899 78.4356 44.0763 79.1049 44.2256 79.7515C44.3748 80.2806 45.0576 81.7458 45.0576 81.7458C45.0576 81.7458 45.4782 83.4008 41.0646 83.5772C39.1382 83.8621 36.6556 82.103 36.6556 82.103V82.0985Z" fill="#E9B376"/>
<path opacity="0.2" d="M39.1428 74.4147C38.9528 77.8514 42.4665 79.3075 44.2301 79.7507C44.0763 79.1041 44.0944 78.4348 44.2798 77.7972L39.1428 74.4102V74.4147Z" fill="black"/>
<path d="M36.5518 69.0218C37.5828 73.0103 38.0847 75.2803 40.5809 76.9354C44.3387 79.4316 49.0055 76.6867 49.2226 72.4586C49.417 68.6555 47.6941 62.7723 43.3168 61.9674C39.0027 61.176 35.5162 65.0288 36.5518 69.0173V69.0218Z" fill="#E9B376"/>
<path d="M34.8107 63.5939C34.9644 61.1022 41.0873 59.9265 43.0318 60.8219C43.3212 60.9575 40.0337 63.4085 40.2372 63.2864L38.6364 64.1818C38.3605 64.1727 37.9038 64.5707 37.7862 65.4163C37.7862 65.4163 39.2559 71.9914 37.6958 74.266C36.0045 73.8228 35.4076 71.2181 34.6208 69.7529C33.445 67.5643 31.9121 64.3265 34.8062 63.5984L34.8107 63.5939Z" fill="#263238"/>
<path d="M35.5613 72.6937C36.0949 73.6704 37.0445 74.308 37.9444 74.5522C39.301 74.9185 39.509 73.5167 39.1473 72.2641C38.8217 71.1381 38.2067 69.8086 36.841 69.994C35.4934 70.1749 34.9553 71.5722 35.5613 72.6891V72.6937Z" fill="#E9B376"/>
<path d="M42.1952 68.8961C42.2766 69.3076 42.566 69.597 42.8419 69.5427C43.1177 69.4885 43.2805 69.1086 43.1991 68.6971C43.1177 68.2856 42.8283 67.9917 42.5524 68.0505C42.2766 68.1047 42.1138 68.4846 42.1952 68.8961Z" fill="#263238"/>
<path d="M46.3917 68.4156C46.4731 68.8271 46.7625 69.1211 47.0384 69.0623C47.3142 69.008 47.477 68.6282 47.3956 68.2166C47.3142 67.8051 47.0248 67.5112 46.749 67.57C46.4731 67.6243 46.3103 68.0041 46.3917 68.4156Z" fill="#263238"/>
<path d="M45.5054 68.3984C45.5054 68.3984 47.2464 70.1982 47.8388 70.9534C47.3459 71.582 46.2832 71.5367 46.2832 71.5367L45.5054 68.403V68.3984Z" fill="#FEEAA2"/>
<path d="M41.3089 67.3193C41.3768 67.3328 41.4536 67.3102 41.5034 67.2559C42.1048 66.5912 42.8419 66.6816 42.8509 66.6816C42.9595 66.6952 43.0635 66.6183 43.0816 66.5143C43.0997 66.4058 43.0228 66.3063 42.9097 66.2927C42.869 66.2882 41.942 66.1752 41.2004 67.0027C41.128 67.0841 41.1326 67.2107 41.2185 67.2785C41.2456 67.3012 41.2773 67.3147 41.3089 67.3238V67.3193Z" fill="#263238"/>
<path opacity="0.2" d="M38.4238 72.3678C38.3741 72.3678 38.3334 72.3361 38.3153 72.2909C38.2113 71.9699 38.0259 71.6804 37.7726 71.4498C37.6098 71.3006 37.3476 71.1197 37.0355 71.1061C36.7597 71.0971 36.4884 71.2373 36.3934 71.4498C36.3663 71.5086 36.303 71.5312 36.2442 71.5086C36.1854 71.4815 36.1628 71.4182 36.1854 71.3594C36.3165 71.0609 36.6738 70.8619 37.0446 70.8846C37.4244 70.9026 37.7319 71.1152 37.9219 71.287C38.2067 71.5448 38.4148 71.8658 38.5278 72.2276C38.5459 72.2864 38.5142 72.3497 38.4555 72.3678C38.4464 72.3678 38.4328 72.3723 38.4193 72.3723L38.4238 72.3678Z" fill="black"/>
<path d="M48.413 66.2848C48.4492 66.2712 48.4808 66.2441 48.5034 66.2124C48.5668 66.122 48.5396 65.9999 48.4492 65.9366C47.5222 65.3351 46.6675 65.6969 46.6268 65.7059C46.5228 65.7511 46.4776 65.8642 46.5183 65.9682C46.5635 66.0677 46.6765 66.1129 46.7805 66.0722C46.8167 66.0541 47.4769 65.7873 48.2231 66.2712C48.2819 66.3074 48.3542 66.3119 48.413 66.2893V66.2848Z" fill="#263238"/>
<path d="M46.2108 72.9201C45.8898 73.3904 45.6003 73.8788 45.3516 74.3898C45.2567 74.3627 45.1572 74.3355 45.0667 74.2993C43.7689 73.8878 43.3031 73.2728 43.1856 72.7121C43.1313 72.4363 43.1449 72.1514 43.2217 71.88C43.2624 71.7263 43.3212 71.5816 43.4026 71.4414C43.9588 72.07 45.1346 72.5448 45.7767 72.7709C46.0571 72.8568 46.2153 72.9201 46.2153 72.9201H46.2108Z" fill="#263238"/>
<path d="M45.7858 72.7637L45.519 73.1888C44.3026 72.7999 43.4976 72.3658 43.2308 71.8683C43.2715 71.7146 43.3303 71.5699 43.4117 71.4297C43.9725 72.0628 45.1437 72.5331 45.7858 72.7592V72.7637Z" fill="white"/>
<path d="M45.0758 74.2904C43.7779 73.8789 43.3122 73.2639 43.1946 72.7031C43.683 72.8659 44.1397 73.1192 44.5422 73.4402C44.8044 73.6618 44.9898 73.9603 45.0758 74.2904Z" fill="#FDDB73"/>
<path d="M36.7867 62.9062C36.7867 62.9062 38.6634 56.7562 44.2979 56.901C43.7914 57.1135 43.3256 57.4165 42.9322 57.8054C42.9322 57.8054 47.5899 56.5211 49.6746 59.5735L48.6707 59.2117C48.6707 59.2117 50.3801 61.7396 49.3038 63.8152L48.8742 62.9515C48.8742 62.9515 47.3774 65.7099 44.3567 65.5607L45.2611 64.8643C45.2611 64.8643 40.2552 65.6285 38.8081 64.593C38.071 64.1091 37.3927 63.5439 36.7822 62.9062H36.7867Z" fill="#263238"/>
</svg>
