<svg width="49" height="48" viewBox="0 0 49 48" fill="none" xmlns="http://www.w3.org/2000/svg">
<rect x="0.270081" width="48" height="48" rx="24" fill="#E9F6FD"/>
<g clip-path="url(#clip0_12199_111122)">
<path d="M38.0967 24.7861C38.8165 25.386 39.2964 26.1658 39.4164 27.0655C39.4164 27.0655 39.4164 27.0655 39.4764 27.1255C39.4764 27.1855 39.4764 27.2455 39.4764 27.3055C39.4164 27.4854 39.4164 27.7254 39.4764 27.9053C39.4764 27.9653 39.4764 28.0853 39.4764 28.1453C39.4164 28.1453 39.4164 28.2053 39.4164 28.2652C39.1164 29.465 38.4566 30.3647 37.3169 30.8446C37.3169 30.9046 37.2569 30.9046 37.2569 30.9046C36.717 30.7246 36.5971 30.4247 36.5971 29.7049C36.6571 29.5249 36.837 29.405 36.957 29.225C37.0769 29.0451 37.2569 29.0451 37.4369 29.0451C37.9167 29.0451 38.0367 28.9251 38.0367 28.4452C38.0367 27.8454 38.0367 27.1855 38.0367 26.5857C38.0367 26.1058 37.9167 25.9858 37.4369 25.9858C36.837 25.9858 36.2372 25.9858 35.6373 25.9858C35.2174 25.9858 34.7975 26.0458 34.3176 25.9258C34.3176 25.7459 34.3176 25.7459 34.4976 25.7459C34.8575 25.7459 35.1574 25.7459 35.5173 25.7459C34.9775 25.386 34.8575 24.9061 35.0974 24.1863C35.1574 24.1263 35.2174 24.1263 35.2774 24.0663C36.2372 23.8863 37.1369 24.0063 37.9767 24.5462C37.9767 24.6061 38.0367 24.7261 38.0967 24.7861Z" fill="#FEB232"/>
<path d="M9.00385 26.1042C9.06385 26.0442 9.06385 25.9242 9.06385 25.8642C9.24385 25.5042 9.54385 25.3242 9.96385 25.3242C10.3838 25.3842 10.6838 25.5642 10.8038 25.9842C10.8638 26.8242 10.2038 27.3042 9.36385 27.0642C9.24385 27.0642 9.18385 26.9442 9.12385 26.8842C9.00385 26.7642 9.12385 26.6442 9.00385 26.5242C9.00385 26.4042 9.00385 26.2842 9.00385 26.1042Z" fill="#E8EEFE"/>
<path d="M39.4764 27.9047C39.3564 27.7247 39.3564 27.4847 39.4764 27.3047C39.4764 27.4847 39.4764 27.7247 39.4764 27.9047Z" fill="#FEC056"/>
<path d="M28.0193 10.0898C27.8393 10.2698 27.6593 10.2698 27.4793 10.1498V10.0898C27.6593 10.0898 27.8393 10.0898 28.0193 10.0898Z" fill="#CAEDFD"/>
<path d="M10.7434 25.9845C10.3835 25.2647 9.72368 25.2047 9.18381 25.7446C9.12383 25.8046 9.12383 25.8046 9.06384 25.8046C9.12383 24.005 9.42375 22.2055 10.0836 20.5259C10.0836 20.4659 10.1436 20.4059 10.1436 20.3459C10.3235 20.3459 10.2635 20.4659 10.2635 20.5859C10.3235 20.8858 10.4435 21.1257 10.5635 21.4257C10.9234 22.1455 11.5232 22.4454 12.303 22.2655C12.9629 22.0855 13.5627 21.7256 14.1026 21.3657C15.3023 20.4659 16.3221 19.3262 17.2818 18.1865C18.0016 17.2867 18.6615 16.3269 19.2013 15.3072C19.3813 14.9473 19.5613 14.5874 19.6212 14.1675C19.6812 13.5076 19.4413 12.9678 18.9614 12.5479C18.9014 12.4879 18.6615 12.4279 18.8414 12.2479C19.8612 11.888 20.8809 11.6481 21.9607 11.5281C22.8005 11.4081 23.6402 11.4681 24.48 11.4681C24.6 11.4681 24.72 11.5281 24.84 11.5281C24.8999 11.7081 24.78 11.768 24.72 11.888C24.0601 13.0277 24.0601 14.2274 24.72 15.3672C25.4398 16.5669 26.5195 17.1067 27.8992 17.1067C28.3191 17.1067 28.739 16.9868 29.1589 16.7468C30.2986 16.147 31.0184 15.1872 31.0784 13.8675C31.0784 13.8075 31.0784 13.6876 31.1984 13.6276C32.0982 14.1675 32.878 14.8273 33.6578 15.4871C33.6578 15.6071 33.5378 15.6671 33.4178 15.7271C32.4581 16.3869 31.9782 17.2867 31.9782 18.3664C31.9182 20.4059 33.4778 21.9055 35.2774 21.9655C35.9372 21.9655 36.5371 21.8456 37.0769 21.5456C37.1369 21.4856 37.2569 21.4257 37.3169 21.4856C37.6168 22.3254 37.7968 23.1652 37.9167 24.005C37.9767 24.245 37.9767 24.4849 37.9767 24.7249C37.017 24.065 35.9972 23.8251 34.8575 24.125C34.7975 24.245 34.6775 24.245 34.5576 24.305C33.0579 24.9048 32.1581 26.3445 32.3981 27.9641C32.578 29.4637 33.7778 30.6634 35.2774 30.9033C35.7573 30.9633 36.1772 30.9633 36.657 30.8433C36.777 30.7834 36.897 30.7834 37.0769 30.7834H37.1369C37.0169 31.3832 36.717 31.9231 36.4171 32.5229C35.7573 33.7826 34.9775 34.9223 34.0177 35.8821C33.8377 35.9421 33.7777 35.7621 33.7178 35.7021C33.4178 35.2822 33.0579 34.8624 32.698 34.5024C32.0382 33.9026 31.3783 33.4227 30.5385 33.3027C29.9987 33.1828 29.4588 33.2428 28.9189 33.3027C27.5993 33.4227 26.2796 33.6027 24.9599 33.9626C24.3001 34.1425 23.6402 34.3825 23.0404 34.7424C22.6205 35.0423 22.2606 35.4022 22.0806 35.8821C21.8407 36.482 21.9607 37.0818 22.2606 37.6817C22.6805 38.5814 23.2803 39.3612 23.9402 40.0811C24.0601 40.201 24.1801 40.261 24.1801 40.441C23.2204 40.501 22.2606 40.441 21.3608 40.321C20.8809 40.141 20.641 39.7212 20.3411 39.4212C20.2211 39.3013 20.1011 39.1213 19.9812 39.0013C19.3213 38.4015 18.7814 37.6817 18.1216 37.0818C18.1216 37.0818 18.0616 37.0218 18.0616 36.9018C18.0616 36.7819 18.1816 36.7219 18.3016 36.6619C18.6015 36.4819 18.7814 36.182 18.9614 35.8821C19.3213 35.1023 19.3213 34.3825 18.9014 33.6626C18.8414 33.6027 18.8414 33.5427 18.8414 33.4827C18.9014 33.3627 19.0214 33.3027 19.0814 33.2428C19.6212 32.9428 20.1611 32.5829 20.761 32.283C21.0609 32.103 21.3008 31.9231 21.4208 31.5632C21.4208 31.5032 21.4808 31.4432 21.5408 31.4432C22.0806 31.2033 22.6805 31.0233 23.2803 30.9033C24.3601 30.6634 25.3798 30.4834 26.4596 30.5434C27.4793 30.5434 28.4991 30.6034 29.4588 30.9033C29.5788 30.9633 29.6388 31.0833 29.7587 31.2033C30.0587 31.5032 30.4786 31.6231 30.8385 31.3832C31.1984 31.1433 31.3184 30.7234 31.1384 30.3635C30.7785 29.6436 30.3586 28.9238 29.9387 28.204C28.559 25.7446 27.1194 23.3452 25.7397 20.8858C25.0799 19.6861 24.3601 18.4264 23.6402 17.2267C23.4003 16.8668 23.2204 16.4469 22.9804 16.087C22.8005 15.7871 22.5605 15.5471 22.1406 15.6071C21.6008 15.6071 21.2408 16.147 21.4208 16.6868C21.4808 16.8068 21.5408 16.9268 21.5408 17.0467C21.5408 17.2867 21.4208 17.5266 21.3608 17.7666C20.581 19.866 19.3813 21.6656 17.7617 23.1652C17.5218 23.4052 17.3418 23.6451 17.0419 23.7651C16.682 23.7051 16.382 23.8251 16.0821 24.005C15.1823 24.5449 14.2226 25.0848 13.3228 25.6246C12.9629 25.8046 12.7229 26.0445 12.7229 26.5244C12.7229 26.5844 12.7229 26.6444 12.663 26.7044C12.363 26.9443 12.0031 27.1243 11.7032 27.3042C11.6432 27.3642 11.5832 27.3642 11.5232 27.3042C11.1033 26.8243 10.8634 26.4044 10.7434 25.9845Z" fill="#746BF8"/>
<path d="M24.3001 40.4433C23.7002 39.8434 23.1604 39.1836 22.6805 38.4638C22.3806 37.9239 22.0806 37.384 22.0206 36.7842C21.9607 35.8244 22.4405 35.1646 23.1604 34.6847C24.1201 34.0848 25.1999 33.8449 26.3396 33.605C27.2394 33.425 28.1991 33.305 29.1589 33.245C29.6988 33.1851 30.2386 33.1251 30.7785 33.245C31.5583 33.425 32.2181 33.9049 32.818 34.4448C33.2379 34.8646 33.5978 35.3445 33.9577 35.8244C34.0177 35.8844 34.0177 35.9444 34.1377 35.9444C33.5978 36.6042 32.9979 37.0841 32.3381 37.564C30.4786 38.9436 28.4391 39.8434 26.2196 40.2633C25.5598 40.3833 24.8999 40.5033 24.3001 40.4433Z" fill="#817DF8"/>
<path d="M13.1428 36.0042C12.423 35.3444 11.8832 34.6246 11.4033 33.8448C11.1033 33.3649 10.8034 32.885 10.5635 32.3451C10.5635 31.8652 10.8034 31.5653 11.1633 31.3254C11.8232 30.9055 12.543 30.4856 13.2628 30.1257C13.6827 29.9457 14.1026 29.8857 14.5225 30.0657C14.6425 30.1257 14.7025 30.2456 14.7624 30.3656C15.4223 31.5053 16.0821 32.6451 16.742 33.7248C16.8019 33.7848 16.8019 33.8448 16.8019 33.9047C16.502 34.1447 16.1421 34.2647 15.8422 34.5046C15.0624 34.9845 14.2226 35.4044 13.4428 35.8843C13.3228 35.9442 13.2628 36.0042 13.1428 36.0042Z" fill="#FE7185"/>
<path d="M14.5225 30.1265C14.0426 30.0065 13.6227 30.0065 13.2028 30.2464C12.603 30.6063 12.0031 30.9063 11.4033 31.2062C10.9234 31.4461 10.6834 31.806 10.5035 32.2859C9.90364 31.0862 9.48375 29.8265 9.2438 28.5069C9.2438 28.4469 9.2438 28.3869 9.2438 28.3269C9.36378 28.1469 9.60372 28.087 9.78367 27.967C10.2036 27.727 10.6235 27.4871 11.0434 27.2472C11.1633 27.1872 11.2233 27.1272 11.3433 27.1272C11.7032 26.9472 12.0631 26.7073 12.423 26.5273C12.543 26.5273 12.603 26.6473 12.603 26.7673C13.2628 27.787 13.8627 28.7468 14.4625 29.7665C14.5225 29.8865 14.5825 29.9465 14.5225 30.1265Z" fill="#FE4155"/>
<path d="M13.1429 36.0049C14.0426 35.4651 14.9424 34.9252 15.8422 34.4453C16.3221 34.8652 16.742 35.2851 17.1619 35.765C17.4018 36.0649 17.7017 36.3049 17.9417 36.5448C18.0017 36.6048 18.1216 36.6648 18.0616 36.8447C17.8817 36.9047 17.6417 36.9047 17.4618 36.9647C16.742 37.0847 16.3821 37.5046 16.2621 38.1044C16.2621 38.2244 16.3221 38.4043 16.0821 38.3444C15.0624 37.7445 14.1626 37.0247 13.3828 36.1849C13.2628 36.1249 13.2028 36.0649 13.1429 36.0049Z" fill="#D2DBFA"/>
<path d="M16.0821 38.4034C16.2021 38.4034 16.2021 38.2834 16.2021 38.2234C16.2621 37.5036 16.682 37.0237 17.4018 36.9037C17.5818 36.9037 17.8217 36.8438 18.0016 36.8438C18.0016 36.8438 18.0616 36.8437 18.0616 36.9037C19.0814 37.9835 20.1011 39.0632 21.1809 40.1429C21.2409 40.2029 21.3608 40.2629 21.4208 40.3229C20.701 40.2029 20.0411 40.023 19.3213 39.843C18.1816 39.4831 17.1019 39.0032 16.0821 38.4034Z" fill="#E8EEFE"/>
<path d="M9.84384 28.0272C9.66384 28.1472 9.48384 28.2672 9.30384 28.3272C9.18384 27.8472 9.18384 27.3672 9.12384 26.8872C9.24384 26.8272 9.24384 27.0072 9.30384 27.0072C9.54384 27.3072 9.78384 27.6072 9.84384 28.0272Z" fill="#756CF8"/>
<path d="M18.8414 12.1875C18.7815 12.3075 18.9014 12.3075 18.9614 12.3675C19.7412 13.0873 19.8612 13.9271 19.4413 14.8868C18.9614 15.9666 18.2416 16.9263 17.5218 17.8861C16.8019 18.7859 16.0221 19.6857 15.1823 20.4655C14.4025 21.1853 13.5627 21.9051 12.483 22.205C11.8832 22.385 11.3433 22.325 10.9234 21.9651C10.6235 21.7251 10.4435 21.3053 10.3235 20.9453C10.2636 20.7654 10.2036 20.5254 10.1436 20.3455C10.2636 20.1055 10.4435 19.8056 10.5635 19.5057C12.3031 16.0865 14.9424 13.6871 18.4815 12.3075C18.6015 12.3075 18.7215 12.2475 18.8414 12.1875Z" fill="#817DF8"/>
<path d="M29.2789 16.7493C28.0192 17.4092 26.2196 17.1092 25.1999 16.0295C24.54 15.3097 24.2401 14.4699 24.2401 13.5101C24.2401 12.7303 24.54 12.0705 24.9599 11.4706C25.4398 10.9308 25.9797 10.5109 26.6395 10.2709C26.6995 10.2709 26.7595 10.2109 26.8795 10.2109C26.9394 10.3309 26.9394 10.4509 26.8795 10.5109C26.7595 10.9907 26.8795 11.4706 27.2994 11.7706C27.3593 11.8305 27.4193 11.8905 27.4193 11.9505C27.2994 12.1305 27.0594 12.0705 26.9394 12.1305C26.3396 12.3104 25.9197 12.6703 25.5598 13.2102C25.4398 13.4501 25.3798 13.6301 25.5598 13.8101C26.2196 14.7098 27.0594 15.1297 28.1392 15.0098C28.2591 15.0098 28.3791 14.9498 28.4991 15.0098C28.619 15.0697 28.619 15.2497 28.619 15.3697C28.4991 15.9095 28.739 16.2095 29.1589 16.4494C29.1589 16.6294 29.2789 16.6294 29.2789 16.7493Z" fill="#1AA8E7"/>
<path d="M29.2789 16.7493C29.1589 16.6893 28.9789 16.6294 28.859 16.5094C28.499 16.2694 28.3191 15.9095 28.4391 15.4896C28.4391 15.3697 28.499 15.2497 28.3791 15.1897C28.3791 15.1297 28.4391 15.1297 28.4391 15.0697C29.0389 14.8298 29.5788 14.5299 29.9987 13.99C30.2386 13.6901 30.2386 13.5101 29.9987 13.2102C29.6388 12.7903 29.2189 12.3704 28.619 12.2504C28.3191 12.1305 28.0192 12.0705 27.6592 12.1305C27.5393 12.1305 27.4193 12.1305 27.3593 12.0705C27.0594 11.8305 26.8195 11.5906 26.7595 11.1707C26.6995 10.8708 26.8195 10.5708 26.8195 10.3309C26.9994 10.2109 27.2394 10.2109 27.4793 10.2109C27.6593 10.2109 27.8392 10.2109 28.0192 10.2109C29.7587 10.3909 31.0784 11.7106 31.2584 13.5101C31.2584 13.5701 31.2584 13.6901 31.3183 13.7501C31.1984 13.87 31.2584 14.11 31.1984 14.2899C30.9584 15.4297 30.2986 16.2694 29.2789 16.7493Z" fill="#42C2FB"/>
<path d="M37.4369 21.5484C36.777 21.9683 36.0572 22.1483 35.2774 22.0883C33.7178 22.0283 32.2181 20.7087 31.9782 19.149C31.7982 17.5894 32.3981 16.3897 33.7178 15.5499C33.9577 15.43 34.1377 15.31 34.4376 15.25C34.4976 15.37 34.4976 15.37 34.4376 15.4899C34.3176 15.7299 34.2576 15.9698 34.2576 16.2098C34.2576 16.4497 34.3776 16.6297 34.4976 16.8096C34.5576 16.9296 34.6775 16.9896 34.6775 17.1695C34.6175 17.2895 34.4976 17.2295 34.3776 17.2895C33.8977 17.4095 33.5978 17.7094 33.5378 18.1893C33.4778 18.6692 33.5978 19.0291 34.0177 19.329C34.4376 19.6289 34.8575 19.9288 35.2174 20.2288C35.3974 20.4087 35.5173 20.4087 35.6973 20.2288C35.8772 20.0488 36.0572 19.9288 36.2371 19.8089C36.3571 19.7489 36.4171 19.6289 36.5371 19.6889C36.657 19.7489 36.717 19.8089 36.717 19.9288C36.837 20.5287 37.1969 20.8286 37.8567 20.8886C37.9167 20.8886 38.0967 20.8886 38.0967 21.0086C37.9167 21.1885 37.6768 21.3085 37.4369 21.5484Z" fill="#E70054"/>
<path d="M34.6775 17.1089C34.6775 17.1089 34.6775 17.0489 34.6175 17.0489C34.1377 16.509 34.0177 15.9092 34.4376 15.3093V15.2494C35.9972 14.7695 37.6168 15.3693 38.4566 16.749C39.2964 18.0687 39.1164 19.8082 38.0967 20.9479C37.9767 20.828 37.7968 20.888 37.6168 20.888C37.0769 20.768 36.777 20.4081 36.657 19.9282C36.657 19.8082 36.657 19.7482 36.5371 19.6883V19.6283C36.657 19.5083 36.777 19.4483 36.957 19.3283C37.4968 18.9684 37.5568 18.3686 37.3169 17.8887C37.0769 17.4088 36.4771 17.1089 35.9972 17.3488C35.5173 17.5288 35.0974 17.3488 34.6775 17.1089C34.6775 17.1689 34.6775 17.1689 34.6775 17.1089Z" fill="#FE4155"/>
<path d="M37.1969 30.8445C35.3374 31.6243 32.9979 30.5445 32.5181 28.3251C32.1581 26.5255 33.1779 24.786 34.8575 24.2461C34.9175 24.2461 34.9775 24.2461 34.9775 24.2461C35.0374 24.486 34.8575 24.666 34.9175 24.9059C34.9774 25.3258 35.1574 25.5058 35.5773 25.8657C35.2174 25.8657 34.8575 25.8657 34.4976 25.8657C34.3776 25.8657 34.2576 25.8057 34.1976 25.9257C33.9577 26.2256 33.8977 26.5255 33.8977 26.8854C33.8977 27.4253 33.8977 27.9052 33.8977 28.4451C33.8977 28.9249 34.0777 29.1049 34.5576 29.1049C34.9175 29.1049 35.2774 29.1049 35.5773 29.1049C35.8172 29.0449 35.9972 29.1649 36.1172 29.4048C36.2371 29.5848 36.2971 29.7047 36.4771 29.8247C36.5371 29.8847 36.5371 29.9447 36.5371 30.0047C36.5371 30.3646 36.777 30.6645 37.1969 30.8445Z" fill="#FE9000"/>
<path d="M36.5371 29.7634C36.2971 29.7634 36.2372 29.5235 36.1172 29.4035C35.9972 29.2236 35.9372 29.1036 35.6973 29.1636C35.3374 29.1636 35.2174 28.9836 35.2174 28.6237C35.2174 28.1438 35.2174 27.604 35.2174 27.1241C35.2174 26.9441 35.2174 26.7042 35.2174 26.5242C35.2174 26.2243 35.3374 26.0444 35.6373 25.9844C36.2372 25.9844 36.897 25.9844 37.4968 25.9844C37.8568 25.9844 38.0367 26.1643 38.0367 26.5842C38.0367 27.304 38.0367 27.9639 38.0367 28.6837C38.0367 29.0436 37.8568 29.2236 37.5568 29.2236C37.0769 29.1636 36.837 29.3435 36.6571 29.7634C36.6571 29.6435 36.5971 29.7035 36.5371 29.7634Z" fill="#E8EEFE"/>
<path d="M35.5773 25.8672C35.3374 26.0471 35.2774 26.2271 35.2774 26.527C35.2774 27.1869 35.2774 27.8467 35.2774 28.5065C35.2774 28.8065 35.3974 29.0464 35.6973 29.1064C35.2174 29.1664 34.7375 29.1664 34.2576 29.1064C33.9577 29.1064 33.8377 28.8664 33.8377 28.6265C33.8377 27.9067 33.8377 27.1269 33.8377 26.4071C33.8377 26.1671 33.9577 25.9872 34.1977 25.8672C34.6775 25.8672 35.1574 25.8672 35.5773 25.8672Z" fill="#BDC7F6"/>
<path d="M9.84377 28.0244C9.66377 27.6644 9.42377 27.3644 9.30377 27.0044C9.54377 27.0044 9.84377 27.1244 10.0838 27.0044C10.5638 26.8244 10.7438 26.5244 10.7438 25.9844C10.9838 26.3444 11.2238 26.7044 11.4038 27.1244C10.8638 27.4844 10.3838 27.7844 9.84377 28.0244Z" fill="#D2DBFA"/>
<path d="M29.4588 30.9654C28.4391 30.7255 27.3593 30.6055 26.3396 30.6055C24.66 30.6055 23.0404 30.9054 21.4808 31.5053C21.0609 30.4255 20.3411 29.4658 19.8012 28.446C19.6212 28.0861 19.3813 27.8462 19.2613 27.4863C19.2613 27.3063 19.3813 27.2463 19.4413 27.1863C20.2811 26.5265 21.0609 25.8667 21.7807 25.0869C22.6205 24.1871 23.3403 23.2273 24.0002 22.1476C24.0601 22.0276 24.1201 21.9076 24.1801 21.8477C24.3001 21.8477 24.3001 21.9676 24.3601 22.0276C25.9797 24.7869 27.5393 27.5463 29.0989 30.2456C29.2789 30.4855 29.5188 30.6655 29.4588 30.9654Z" fill="#D2DBFA"/>
<path d="M24.2401 21.8457C24.2401 22.0856 24.0602 22.2656 23.9402 22.5055C23.1004 23.8252 22.0806 25.0249 20.9409 26.1046C20.461 26.5245 19.9812 26.8844 19.5013 27.3043C19.4413 27.3643 19.3813 27.4243 19.3813 27.4843C19.3213 27.4843 19.2613 27.4243 19.2014 27.3643C18.6015 26.4046 18.0616 25.3848 17.5218 24.4251C17.3418 24.1251 17.1619 23.9452 16.9819 23.7052C19.0814 21.9657 20.581 19.8662 21.4208 17.2268C21.4208 17.1668 21.4808 17.1069 21.4808 17.0469C21.6008 17.0469 21.6607 17.1668 21.6607 17.2268C22.5005 18.7265 23.3403 20.1661 24.2401 21.6657C24.1801 21.6657 24.2401 21.7257 24.2401 21.8457Z" fill="#BDC7F6"/>
<path d="M29.4588 30.9636C29.0989 30.3038 28.739 29.6439 28.3191 28.9841C27.5993 27.7244 26.8795 26.5247 26.1596 25.265C25.5598 24.1853 24.9 23.1055 24.3001 22.0858C24.2401 22.0258 24.2401 21.9058 24.1801 21.8458C24.1201 21.426 24.3001 21.126 24.6 20.9461C24.9 20.7061 25.3199 20.5862 25.6798 20.8261C27.4793 23.8853 29.2189 27.0046 31.0184 30.0638C31.3184 30.6037 31.2584 31.1436 30.7785 31.3835C30.2986 31.6834 29.8187 31.5035 29.4588 31.0236C29.5188 31.0236 29.4588 30.9636 29.4588 30.9636Z" fill="#E8EEFE"/>
<path d="M19.2613 27.304C19.3213 27.364 19.3213 27.364 19.3813 27.424C20.0411 28.5637 20.641 29.7034 21.3008 30.7831C21.4208 31.0231 21.4808 31.203 21.4808 31.503C21.3608 31.8629 21.1809 32.1028 20.821 32.2828C20.1611 32.6427 19.5013 33.0626 18.7815 33.4225C18.4815 33.7224 18.0616 33.9024 17.7017 34.1423C17.4618 34.2023 17.2218 34.2023 16.9819 34.0823C16.8619 34.0223 16.8019 34.0223 16.742 33.9024C16.2621 33.3025 15.9622 32.5827 15.5423 31.9229C15.1823 31.323 14.8824 30.6632 14.4625 30.1233C14.5225 30.0033 14.5225 29.8834 14.6425 29.7634C14.8824 29.4035 15.1823 29.4035 15.5423 29.4635C15.9622 29.7634 16.0221 29.7634 16.502 29.5234C16.9219 29.2835 17.3418 28.9836 17.8217 28.7436C18.2416 28.5037 18.3016 28.4437 18.2416 27.9638C18.4215 27.424 18.6615 27.244 19.2613 27.304Z" fill="#FE4155"/>
<path d="M15.6022 29.5269C15.5422 29.5269 15.5422 29.5869 15.4823 29.5869C14.9424 29.5269 14.8824 29.5869 14.6425 30.0668C14.6425 30.1268 14.5825 30.1268 14.5225 30.1268C14.2226 29.5269 13.8627 28.987 13.5627 28.3872C13.2028 27.7873 12.8429 27.1875 12.483 26.5276C12.423 25.9878 12.663 25.6279 13.1428 25.3879C14.1026 24.8481 15.0624 24.3082 16.0221 23.7683C16.3221 23.5884 16.622 23.5284 16.9219 23.6484C17.1618 23.7683 17.3418 23.9483 17.4618 24.1882C18.0616 25.268 18.6615 26.2877 19.2613 27.3674L19.2013 27.4274C18.6615 27.3674 18.4815 27.6674 18.3016 28.0873C17.9417 27.9673 17.7017 28.0873 17.4018 28.2672C17.0419 28.5072 16.622 28.7471 16.2021 28.9271C15.9022 29.047 15.6622 29.167 15.6022 29.5269Z" fill="#E70054"/>
<path d="M25.6798 20.8265C25.3798 20.7665 25.0799 20.7665 24.78 20.8865C24.4201 21.0664 24.2401 21.4263 24.1801 21.8462C23.7602 21.1264 23.3403 20.4666 22.9804 19.7468C22.4406 18.847 21.9007 17.8872 21.3608 16.9874C21.2409 16.7475 21.1209 16.4476 21.1809 16.1476C21.3008 15.7877 21.6008 15.4878 21.9607 15.4878C22.3806 15.4278 22.6805 15.6078 22.9204 16.0277C23.7003 17.3474 24.4201 18.667 25.1999 19.9867C25.3798 20.2266 25.5598 20.5266 25.6798 20.8265Z" fill="#D2DBFA"/>
<path d="M16.8019 33.9023C17.1019 34.1423 17.4018 34.1423 17.7617 34.0823C17.8817 34.2023 17.8217 34.3222 17.8217 34.4422C17.8217 35.0421 18.1216 35.5219 18.6615 35.7619C18.7814 35.8219 18.9014 35.8219 18.9614 35.9418C18.7814 36.3617 18.4215 36.6017 18.0616 36.9016L18.0016 36.8416C17.3418 36.1818 16.7419 35.462 16.0821 34.8021C15.9621 34.6822 15.9021 34.5622 15.8422 34.4422C16.1421 34.2623 16.442 34.0223 16.8019 33.9023Z" fill="#BDC7F6"/>
<path d="M18.9614 35.9438C18.1816 35.7638 17.6417 35.164 17.7017 34.3242C17.7017 34.2642 17.7017 34.1442 17.7017 34.0842C18.0616 33.9043 18.4215 33.6643 18.7815 33.4844C19.3813 34.2642 19.4413 35.104 18.9614 35.9438Z" fill="#D2DBFA"/>
<path d="M28.4391 15.1268L28.3791 15.1868C27.5993 15.3067 26.8195 15.1868 26.1596 14.7069C25.8597 14.4669 25.6198 14.227 25.3798 13.9271C25.2599 13.6871 25.2599 13.5072 25.3798 13.3272C25.7397 12.7874 26.2196 12.4274 26.8195 12.1875C26.8795 12.3075 26.7595 12.3675 26.7595 12.4874C26.5196 12.9073 26.5795 13.3272 26.8795 13.6871C27.1194 14.047 27.5393 14.167 27.9592 14.107C28.0192 14.107 28.1392 14.047 28.1991 14.107C28.1392 14.407 28.1991 14.7669 28.4391 15.1268Z" fill="#BDC7F6"/>
<path d="M28.1995 14.0478C27.5995 14.2278 27.1195 14.0478 26.8195 13.6278C26.4595 13.2078 26.5195 12.7278 26.8795 12.1278C27.0595 12.0678 27.2395 12.0678 27.3595 12.0078C27.8395 12.0078 28.2595 12.0078 28.6795 12.1878C29.0995 12.4878 29.0395 12.9078 28.9195 13.3278C28.8595 13.6878 28.6795 14.0478 28.1995 14.0478Z" fill="#47477F"/>
<path d="M28.1991 14.047C28.9789 13.6271 29.1589 12.9673 28.679 12.1875C29.3388 12.3675 29.8187 12.8473 30.1786 13.3872C30.2986 13.5672 30.2386 13.7471 30.1187 13.8671C29.6988 14.4669 29.1589 14.8868 28.4391 15.0668C28.0792 14.8268 28.0192 14.4669 28.1991 14.047Z" fill="#E8EEFE"/>
<path d="M36.5371 19.5674C36.2371 19.8073 35.9972 20.0473 35.7573 20.2872C35.5773 20.4672 35.3974 20.4672 35.2774 20.2872C34.9175 19.9273 34.5576 19.6274 34.1377 19.3874C33.5978 19.0275 33.3579 18.5476 33.5378 18.0677C33.7178 17.4679 34.0777 17.168 34.7375 17.168C34.7975 17.228 34.7975 17.3479 34.7975 17.4079C34.7375 17.7678 34.8575 18.0078 35.1574 18.1277C35.6373 18.4277 36.0572 18.7276 36.2971 19.2675C36.3571 19.3874 36.4771 19.4474 36.5371 19.5674Z" fill="#BDC7F6"/>
<path d="M36.5371 19.5672C36.3571 19.5072 36.2371 19.3872 36.1172 19.2073C35.9372 18.8474 35.6373 18.5474 35.2774 18.3675C34.7375 18.1275 34.4976 17.7676 34.6775 17.1678C35.2174 17.3477 35.6973 17.3477 36.2971 17.1678C36.777 17.0478 37.2569 17.4077 37.4368 17.8876C37.6168 18.3675 37.4368 18.9074 37.0169 19.2673C36.897 19.3872 36.717 19.4472 36.5371 19.5672Z" fill="#E8EEFE"/>
<path d="M15.6022 29.5265C15.5422 29.2865 15.6622 29.1066 15.9022 28.9866C16.502 28.6867 17.0419 28.3268 17.6417 28.0268C17.8817 27.9069 18.1216 27.8469 18.3016 28.0868C18.4815 28.4467 18.4215 28.5667 18.1216 28.7467C17.5218 29.1066 16.9819 29.4665 16.382 29.7664C16.0221 29.9464 15.7822 29.8264 15.6022 29.5265Z" fill="#FE7085"/>
<path d="M17.7017 32.6453C17.4618 32.6453 17.3418 32.5253 17.2818 32.3453C17.2218 32.1654 17.2218 31.9254 17.4618 31.8055C17.7617 31.6255 18.0616 31.4455 18.3616 31.2656C18.6615 31.0856 18.9614 30.9057 19.2613 30.7257C19.5613 30.5458 19.8012 30.6058 19.9812 30.8457C20.1011 31.0257 20.0411 31.3256 19.7412 31.4456C19.1414 31.8055 18.5415 32.1654 17.9417 32.4653C17.8817 32.6453 17.7617 32.7052 17.7017 32.6453Z" fill="#FE7085"/>
<path d="M16.7419 31.2661C16.622 31.2661 16.502 31.2061 16.442 30.9662C16.382 30.7862 16.442 30.5463 16.622 30.4263C17.2818 30.0664 17.8817 29.7065 18.5415 29.2866C18.7814 29.1666 18.9614 29.2866 19.0814 29.4665C19.2013 29.6465 19.2013 29.8864 18.9614 30.0064C18.6015 30.2463 18.1816 30.4863 17.7617 30.7262C17.5218 30.8462 17.2818 30.9662 17.0419 31.1461C17.0419 31.2061 16.9219 31.2661 16.7419 31.2661Z" fill="#FE7085"/>
<path d="M16.742 25.4453C16.742 25.6253 16.622 25.7453 16.502 25.8652C15.9022 26.2251 15.3023 26.5851 14.6425 26.945C14.4025 27.0649 14.1626 27.005 14.0426 26.765C13.9227 26.5851 13.9826 26.3451 14.2226 26.1652C14.8224 25.8052 15.4823 25.4453 16.0821 25.0854C16.382 24.9055 16.742 25.1454 16.742 25.4453Z" fill="#FE7085"/>
<path d="M15.2423 28.4436C15.0024 28.4436 14.8224 28.3237 14.7624 28.0837C14.7024 27.8438 14.8224 27.7238 15.0024 27.6038C15.3623 27.3639 15.7222 27.184 16.1421 26.944C16.382 26.824 16.622 26.7041 16.8619 26.5241C17.1019 26.4041 17.3418 26.4041 17.5217 26.6441C17.6417 26.884 17.5817 27.124 17.3418 27.2439C16.7419 27.6038 16.1421 27.9638 15.4823 28.3237C15.3623 28.3837 15.3023 28.3837 15.2423 28.4436Z" fill="#FE7085"/>
<path d="M28.5592 12.7887C28.5592 13.0287 28.3792 13.2087 28.1392 13.2087C27.8992 13.2087 27.7192 12.9687 27.7192 12.7887C27.7192 12.5487 27.8992 12.3687 28.1392 12.3687C28.3192 12.3087 28.5592 12.5487 28.5592 12.7887Z" fill="#5E5E9A"/>
</g>
<defs>
<clipPath id="clip0_12199_111122">
<rect width="30.4125" height="30.5325" fill="white" transform="translate(9.06384 9.91016)"/>
</clipPath>
</defs>
</svg>
