<svg width="49" height="48" viewBox="0 0 49 48" fill="none" xmlns="http://www.w3.org/2000/svg">
<rect x="0.57666" width="48" height="48" rx="24" fill="#FEF6D0"/>
<g clip-path="url(#clip0_12199_111081)">
<path d="M15.2779 10.3555C21.0372 10.3555 26.7965 10.3555 32.4957 10.3555C33.0957 10.4755 33.3356 10.8354 33.3956 11.4953C33.3956 12.2752 33.3956 13.1151 33.3956 13.895C33.3956 17.5546 33.3956 21.2741 33.3956 24.9337C33.3956 25.1136 33.4556 25.3536 33.2757 25.5336C33.1557 25.6536 32.9757 25.6536 32.8557 25.6536C29.5561 25.6536 26.2565 25.6536 22.9569 25.6536C22.8369 25.6536 22.657 25.6536 22.537 25.5936C22.477 25.5336 22.417 25.4736 22.417 25.4136C22.417 24.7537 22.357 24.0938 22.417 23.4938C22.537 23.2539 22.657 23.4339 22.8369 23.4938C23.4369 23.8538 23.8568 23.8538 24.2168 23.4339C24.3368 23.3139 24.3967 23.1939 24.4567 23.0139C24.7567 22.234 25.0567 21.5141 25.2966 20.7342C25.4166 20.4342 25.5366 20.1343 25.6566 19.8943C25.7166 19.7743 25.7766 19.5943 25.8966 19.5343C26.0165 19.4743 26.1965 19.5343 26.3165 19.5343C28.1163 19.5343 29.9161 19.5343 31.7158 19.5343C31.8358 19.5343 31.8958 19.5343 32.0158 19.5343C32.3158 19.4743 32.4957 19.3544 32.4957 19.0544C32.4957 18.9344 32.4957 18.8144 32.4957 18.7544C32.4957 17.0146 32.4957 15.2749 32.4957 13.5351C32.4957 13.4151 32.4957 13.2951 32.4957 13.2351C32.4358 12.8752 32.3158 12.7552 31.9558 12.7552C31.5359 12.7552 31.1759 12.7552 30.756 12.7552C28.5962 12.7552 26.4365 12.7552 24.3368 12.7552C24.2168 12.7552 24.0368 12.7552 23.9168 12.8152C23.6768 12.9352 23.6168 13.1151 23.6168 13.3551C23.6168 13.955 23.6168 14.6149 23.6168 15.2149C23.6168 16.4147 23.6168 17.6746 23.6168 18.8744C23.6168 19.0544 23.6168 19.2944 23.7368 19.4743C23.8568 19.7743 23.6168 20.0143 23.5569 20.3142C23.4969 20.4942 23.4369 20.6142 23.3769 20.7942C23.1969 21.2741 22.8369 21.3941 22.417 21.1541C21.997 20.9142 21.6371 20.6742 21.2771 20.3742C20.9172 20.1343 20.5572 19.9543 20.1373 19.8343C20.0173 19.8343 19.8973 19.8343 19.7773 19.7143C19.7773 19.5343 19.9573 19.5343 20.0773 19.5343C21.3371 19.1144 21.8771 17.7346 21.1571 16.5947C20.7972 15.9948 19.8373 15.4548 18.9374 15.8148C17.6776 16.2947 17.3176 17.6146 17.8576 18.6344C18.0975 19.0544 18.4575 19.3544 18.9374 19.5343C19.0574 19.5943 19.1774 19.5943 19.2374 19.6543C19.1774 19.8343 19.0574 19.7743 18.9374 19.8343C18.5175 19.9543 18.0975 20.0743 17.7376 20.3742C16.8377 21.0342 16.5377 21.934 16.5377 23.0139C16.5377 23.7938 16.5377 24.5737 16.5377 25.3536C16.5377 25.5336 16.5377 25.6536 16.4177 25.7736C15.9378 25.8935 15.3979 25.8336 14.9179 25.8336C14.7379 25.8336 14.558 25.8336 14.378 25.7736C14.318 25.6536 14.318 25.5336 14.318 25.3536C14.318 21.8141 14.318 18.3345 14.318 14.7949C14.318 14.7349 14.318 14.6749 14.318 14.6149C14.318 13.955 14.318 13.2951 14.318 12.6352C14.318 12.3352 14.318 12.0353 14.318 11.7353C14.318 11.4353 14.378 11.1954 14.558 10.9554C14.7379 10.4755 14.9779 10.4155 15.2779 10.3555Z" fill="#4FAAF6"/>
<path d="M9.39856 32.9718C9.39856 32.4918 9.39856 32.0719 9.39856 31.592C9.45855 31.532 9.57854 31.472 9.69852 31.472C10.2984 31.472 10.8384 31.472 11.4383 31.472C12.4582 31.472 13.4781 31.472 14.4379 31.472C15.6978 31.412 17.0176 31.472 18.2775 31.472C18.6974 31.472 19.1174 31.472 19.5373 31.472C19.6573 31.472 19.7773 31.472 19.8973 31.472C24.1567 31.472 28.4162 31.472 32.6757 31.472C32.8557 31.472 33.0956 31.472 33.2756 31.472C33.4556 31.532 33.5756 31.532 33.7556 31.532C35.1354 31.532 36.5752 31.532 37.955 31.532C38.435 31.532 38.435 31.592 38.495 32.0119C38.495 32.1919 38.495 32.4319 38.495 32.6118C38.495 33.5117 37.955 34.2316 37.0551 34.5316C37.4151 34.4716 37.7751 34.3516 38.135 34.5916C38.075 34.7716 37.895 34.7116 37.7751 34.7116C37.4751 34.7116 37.1751 34.7116 36.8752 34.7116C34.2355 34.7116 31.5958 34.7116 28.9561 34.7116C28.8962 34.7116 28.7762 34.7116 28.7162 34.7116C28.4162 34.7116 28.3562 34.7716 28.3562 35.0715C28.3562 36.0914 28.3562 37.1113 28.3562 38.1312C28.3562 38.3111 28.3562 38.4911 28.2962 38.6111C28.2962 38.6711 28.2362 38.6711 28.1762 38.6111C28.0563 38.4911 28.1162 38.3111 28.1162 38.1312C28.1162 37.1113 28.1162 36.0914 28.1162 35.1315C28.1162 34.7116 28.1162 34.7116 27.6963 34.7116C25.7165 34.7116 23.7368 34.7116 21.757 34.7116C21.3371 34.7116 21.3371 34.7116 21.3371 35.1315C21.3371 36.1514 21.3371 37.1713 21.3371 38.1312C21.3371 38.3111 21.3371 38.4311 21.2771 38.6111C21.2771 38.6711 21.2171 38.6711 21.1571 38.6711C21.0371 38.5511 21.0371 38.3711 21.0371 38.1911C21.0371 37.2313 21.0371 36.2114 21.0371 35.2515C21.0371 34.7116 21.0371 34.7116 20.4972 34.7116C17.6775 34.7116 14.8579 34.7116 12.0982 34.7116C11.8583 34.7116 11.6183 34.7116 11.4383 34.6516C10.1785 34.5916 9.63853 34.0517 9.39856 32.9718Z" fill="#E8EEFE"/>
<path d="M11.4383 31.5936C10.7784 31.5936 10.1185 31.5936 9.39856 31.5936C9.39856 25.7743 9.39856 19.895 9.39856 14.0757C9.57854 12.9959 10.3584 12.3359 11.5583 12.3359C12.3982 12.3359 13.2381 12.3359 14.018 12.3359C14.138 12.3359 14.318 12.3359 14.4379 12.4559C14.4379 13.1158 14.4379 13.7758 14.4379 14.4957C14.318 14.4957 14.198 14.4957 14.018 14.4957C13.538 14.4957 13.1181 14.4957 12.6382 14.4957C11.8583 14.4957 11.4983 14.8556 11.4983 15.6355C11.4983 19.1151 11.4983 22.5947 11.4983 26.0742C11.4983 27.754 11.4983 29.3738 11.4983 31.0536C11.4983 31.2336 11.5583 31.4136 11.4383 31.5936Z" fill="#3C589F"/>
<path d="M39.7548 14.0751C39.7548 19.8944 39.7548 25.7737 39.7548 31.5929C39.6948 31.6529 39.5748 31.7129 39.4548 31.7129C39.0949 31.7129 38.6749 31.7729 38.315 31.6529C38.195 31.4729 38.195 31.293 38.195 31.113C38.195 29.3732 38.195 27.6334 38.195 25.8936C38.195 22.1141 38.195 18.3946 38.195 14.615C38.195 13.6551 37.7751 12.9952 36.9352 12.5753C36.8752 12.5153 36.7552 12.5153 36.6952 12.4553C36.6952 12.3353 36.8152 12.3353 36.8752 12.3353C37.2951 12.3353 37.7151 12.2753 38.195 12.3953C39.0349 12.5753 39.6348 13.1152 39.7548 14.0751Z" fill="#2A428B"/>
<path d="M28.1162 38.6733C28.7161 38.6733 29.316 38.6733 29.976 38.6733C30.2759 38.7933 30.3359 38.9732 30.3359 39.2732C30.3359 39.5732 30.3359 39.8131 30.3359 40.1131C30.3359 40.4131 30.2159 40.653 29.916 40.713C25.8965 40.713 21.877 40.713 17.8575 40.713C17.6175 40.593 17.5575 40.3531 17.5575 40.0531C17.5575 39.7531 17.5575 39.4532 17.5575 39.2132C17.5575 38.8533 17.7375 38.7333 18.0974 38.7333C19.0573 38.7333 20.0772 38.7333 21.0371 38.7333H21.0971C21.1571 38.6733 21.277 38.6133 21.397 38.6133C21.937 38.6133 22.5369 38.6133 23.0768 38.6133C23.3768 38.6133 23.6767 38.6133 23.9767 38.6133C24.3967 38.6133 24.7566 38.6133 25.1766 38.6133C25.4765 38.6133 25.7765 38.6133 26.0764 38.6133C26.6164 38.6133 27.2163 38.6133 27.7562 38.6133C27.8762 38.6133 27.9962 38.6133 28.0562 38.7333C28.0562 38.6733 28.1162 38.6733 28.1162 38.6733Z" fill="#E8EEFE"/>
<path d="M33.2756 25.5322C33.2756 20.9128 33.2756 16.2933 33.2756 11.6739C33.2756 11.074 33.0357 10.654 32.4957 10.4141C32.9757 10.4141 33.4556 10.4141 33.9356 10.4141C34.4755 10.534 34.7754 10.834 34.7754 11.4339C34.7754 11.7939 34.7754 12.0939 34.7754 12.4538C34.7754 13.1137 34.7754 13.7736 34.7754 14.4336C34.7754 14.4936 34.7754 14.4936 34.7754 14.5536C34.7754 14.6735 34.7754 14.7335 34.7754 14.8535C34.7754 18.2731 34.7754 21.6327 34.7754 25.0523C34.7754 25.2322 34.7754 25.4122 34.7155 25.5922C34.6555 25.6522 34.5955 25.7122 34.4755 25.7122C34.1155 25.6522 33.6956 25.7122 33.2756 25.5322Z" fill="#1885E9"/>
<path d="M38.315 31.5916C38.795 31.5916 39.2749 31.5916 39.7548 31.5916C39.7548 32.0715 39.7548 32.5515 39.7548 33.0314C39.5749 33.6913 39.1549 34.2313 38.495 34.5312C38.315 34.5912 38.195 34.6512 38.0151 34.6512C37.6551 34.6512 37.2951 34.6512 36.8752 34.6512C37.1152 34.4712 37.4151 34.4112 37.5951 34.2313C38.135 33.7513 38.375 33.1514 38.315 32.4315C38.255 31.7116 38.315 31.7116 37.5951 31.7116C36.2753 31.7116 34.9554 31.7116 33.6356 31.7116C33.5156 31.7116 33.3956 31.7716 33.2756 31.6516C33.2756 31.6516 33.2756 31.6516 33.3356 31.5916C33.8156 31.4716 34.2355 31.5316 34.7155 31.5316C35.2554 31.5316 35.7953 31.5316 36.2753 31.5316C36.6952 31.5316 37.1752 31.5316 37.5951 31.5316C37.6551 31.5316 37.6551 31.5316 37.7151 31.5316C37.8951 31.4716 38.135 31.4716 38.315 31.5916Z" fill="#D2DBFA"/>
<path d="M29.916 40.7105C30.156 40.5305 30.336 40.2905 30.276 39.9905C30.276 39.8105 30.276 39.6305 30.276 39.5105C30.276 39.2105 30.216 38.9105 29.976 38.7305C30.336 38.7305 30.756 38.7305 31.116 38.7305C31.476 38.7305 31.716 38.9705 31.716 39.2705C31.716 39.5705 31.716 39.8705 31.716 40.1705C31.716 40.4105 31.536 40.5905 31.356 40.7105C30.816 40.7105 30.396 40.7105 29.916 40.7105Z" fill="#D2DBFA"/>
<path d="M33.2756 31.5909C28.8362 31.5909 24.3967 31.5909 19.9573 31.5909C19.8373 31.5909 19.6573 31.5909 19.5373 31.5909C19.4174 31.4709 19.4174 31.3509 19.4174 31.171C19.4174 29.4312 19.4174 27.6914 19.4174 25.8916C19.4174 25.7716 19.4174 25.5916 19.4774 25.4717C19.5373 25.4117 19.6573 25.3517 19.7773 25.3517C20.3772 25.3517 20.9772 25.3517 21.5771 25.3517C21.8771 25.3517 22.237 25.2317 22.537 25.4117C23.3769 25.4117 24.2768 25.4117 25.1167 25.4117C27.8163 25.4117 30.516 25.4117 33.2157 25.4117C33.3956 25.6516 33.3956 25.8316 33.3956 25.9516C33.3956 27.6914 33.3956 29.4312 33.3956 31.171C33.3956 31.2909 33.3956 31.4709 33.2756 31.5909Z" fill="#D2DBFA"/>
<path d="M11.4384 31.5915C11.4384 26.2521 11.4384 20.9128 11.4384 15.5735C11.4384 14.8535 11.8583 14.4336 12.5182 14.4336C13.1781 14.4336 13.7781 14.4336 14.438 14.4336C14.438 18.0331 14.438 21.5727 14.438 25.1723C14.438 25.2923 14.438 25.4722 14.438 25.5922C14.558 25.7122 14.498 25.8322 14.498 26.0122C14.498 27.7519 14.498 29.4917 14.498 31.2315C14.498 31.3515 14.498 31.5315 14.378 31.6515C13.4181 31.5915 12.3982 31.5915 11.4384 31.5915Z" fill="#9AD7F8"/>
<path d="M23.7367 19.3555C23.6168 19.2355 23.5568 19.1155 23.5568 18.9356C23.5568 16.9558 23.5568 14.976 23.5568 12.9963C23.5568 12.7563 23.6168 12.5763 23.9167 12.4564C24.0367 12.3964 24.0967 12.4564 24.2167 12.4564C26.3764 12.4564 28.5361 12.4564 30.6959 12.4564C31.1758 12.4564 31.3558 12.5763 31.3558 13.1163C31.3558 14.3761 31.3558 15.576 31.3558 16.8358C31.3558 17.4357 31.3558 18.0957 31.3558 18.6956C31.3558 18.8156 31.3558 18.9955 31.2958 19.1155C31.2358 19.4155 31.1158 19.5355 30.7559 19.5355C30.3959 19.5355 30.036 19.5355 29.616 19.5355C28.3562 19.5355 27.1563 19.5355 25.8965 19.5355C25.7165 19.4755 25.7765 19.3555 25.8365 19.2355C25.8965 19.0555 26.0165 18.8756 25.8965 18.6356C25.8965 18.4556 25.8965 18.3356 25.9565 18.1556C26.2564 17.0758 26.4964 15.9359 26.7964 14.8561C26.7964 14.7361 26.8564 14.6761 26.8564 14.5561C26.8564 14.3761 26.7964 14.2561 26.5564 14.1961C26.3764 14.1361 26.2564 14.1961 26.1364 14.3761C26.1964 14.4361 26.1964 14.5561 26.1364 14.6761C25.8965 15.576 25.6565 16.4759 25.4765 17.3757C25.4165 17.4957 25.4165 17.6757 25.2965 17.7957C25.1766 17.8557 24.9966 17.8557 24.8766 17.8557C24.6966 17.9157 24.5766 17.9757 24.4567 18.0957C24.1567 18.3356 24.1567 18.7556 23.9767 19.0555C23.9167 19.1755 23.9167 19.2955 23.7367 19.3555Z" fill="#E8EEFE"/>
<path d="M14.438 31.5933C14.438 29.5536 14.438 27.5738 14.438 25.534C15.0979 25.534 15.7578 25.534 16.4777 25.534C16.5977 25.4141 16.7177 25.4141 16.8377 25.4141C17.6176 25.4141 18.3375 25.4141 19.1174 25.4141C19.2374 25.4141 19.4174 25.4141 19.5374 25.534C19.5374 27.5138 19.5374 29.5536 19.5374 31.5333C19.1174 31.5333 18.7575 31.5333 18.3375 31.5333C17.0177 31.5933 15.7578 31.5933 14.438 31.5933Z" fill="#F4EA37"/>
<path d="M19.5373 25.5317C18.6374 25.5317 17.7375 25.5317 16.7776 25.5317C16.6576 25.5317 16.5376 25.5317 16.4776 25.5317C16.4776 24.3919 16.4177 23.312 16.5376 22.1722C16.5976 21.2723 17.0176 20.6124 17.7975 20.0724C17.9175 20.0124 17.9775 20.1324 18.0974 20.1924C18.3974 20.4324 18.6374 20.6124 18.9373 20.8523C19.3573 21.2123 19.7772 21.2123 20.1972 20.8523C20.4971 20.6124 20.7971 20.3724 21.0371 20.1924C21.1571 20.1324 21.2171 20.0124 21.337 20.0724C21.697 20.3124 22.057 20.5524 22.4769 20.7923C22.8969 21.0923 23.1968 20.9723 23.4368 20.4924C23.4968 20.3724 23.5568 20.1924 23.6168 20.0724C23.9167 20.0124 24.0967 20.0724 24.2767 20.3124C24.2767 20.4324 24.2767 20.5524 24.2167 20.6723C23.9167 21.5122 23.6168 22.3521 23.2568 23.132C23.1968 23.312 23.1368 23.492 22.9568 23.492C22.8369 23.432 22.7769 23.372 22.6569 23.312C22.5369 23.192 22.5369 23.0121 22.5369 22.8921C22.5369 22.7121 22.5369 22.5921 22.4769 22.4121C22.4169 22.2921 22.3569 22.1722 22.2369 22.1722C22.057 22.1722 21.997 22.2322 21.877 22.3521C21.757 22.5321 21.757 22.7121 21.757 22.8921C21.757 23.612 21.757 24.3919 21.757 25.1118C21.757 25.2318 21.757 25.4118 21.637 25.5317C20.9171 25.5317 20.1972 25.5317 19.5373 25.5317Z" fill="#4ED3DD"/>
<path d="M25.8965 19.4137C27.4563 19.4137 29.0761 19.4137 30.6359 19.4137C31.0559 19.4137 31.2358 19.2937 31.2358 18.8137C31.2358 17.6139 31.2358 16.414 31.2358 15.2142C31.2358 14.4943 31.2358 13.7144 31.2358 12.9945C31.2358 12.5745 31.0559 12.4545 30.6959 12.4545C28.4162 12.4545 26.1365 12.4545 23.9167 12.4545C24.0367 12.3945 24.0967 12.3945 24.2167 12.3945C26.7964 12.3945 29.4361 12.3945 32.0157 12.3945C32.4357 12.3945 32.6757 12.5745 32.6757 12.9945C32.6757 14.9142 32.6757 16.894 32.6757 18.8137C32.6757 19.2937 32.4357 19.4737 31.9558 19.4737C29.976 19.4737 27.9363 19.4737 25.8965 19.4137Z" fill="#D2DBFA"/>
<path d="M18.8776 19.3542C17.9776 18.9942 17.4976 18.3342 17.4976 17.4342C17.4976 16.5342 18.0376 15.8742 18.8776 15.5742C19.6576 15.8142 20.0176 16.3542 20.1976 17.1342C20.3776 17.9742 19.9576 18.8742 19.1776 19.2942C19.0576 19.2942 18.9976 19.3542 18.8776 19.3542Z" fill="#FBAC6D"/>
<path d="M18.8774 19.3534C19.2374 19.1134 19.5974 18.8734 19.8374 18.5134C20.4374 17.5534 20.1374 16.1734 19.1174 15.6934C18.9974 15.6334 18.9374 15.6334 18.8774 15.5134C19.8974 15.1534 21.0374 15.6934 21.3974 16.7734C21.7574 17.8534 21.2174 18.9934 20.1374 19.3534C20.0174 19.4134 19.8974 19.4134 19.7174 19.4734C19.5374 19.6534 19.3574 19.5934 19.1774 19.4734C19.1174 19.4134 18.9974 19.4134 18.8774 19.3534Z" fill="#FC985B"/>
<path d="M22.8369 23.4953C23.0169 23.2553 23.0769 22.8953 23.1969 22.5353C23.4369 21.7553 23.6169 21.0353 23.8569 20.2553C23.8569 20.2553 23.9169 20.2553 23.9169 20.1953C24.2169 20.3153 24.5769 20.3753 24.8169 20.6153C24.5769 21.4553 24.3369 22.2953 24.0969 23.1353C23.9169 23.7353 23.3169 24.0953 22.8369 23.4953Z" fill="#4ED3DD"/>
<path d="M19.2375 19.4727C19.4175 19.4727 19.5975 19.4727 19.7775 19.4727C20.3175 19.5327 20.8575 19.7127 21.2775 20.0727C20.9175 20.3727 20.5575 20.6727 20.1975 20.9127C19.7175 21.2727 19.2375 21.2727 18.8175 20.9127C18.4575 20.6127 18.0975 20.3727 17.7375 20.0727C18.1575 19.7127 18.6975 19.5927 19.2375 19.4727Z" fill="#E8EEFE"/>
<path d="M22.057 25.5348C22.057 24.7548 22.057 24.0348 22.057 23.2548C22.057 23.1948 22.057 23.0748 22.057 23.0148C22.117 22.8348 22.237 22.7148 22.417 22.7148C22.597 22.7148 22.717 22.8948 22.717 23.0748C22.717 23.3148 22.717 23.4948 22.717 23.7348C22.717 24.3348 22.717 24.9348 22.717 25.4748C22.537 25.5348 22.297 25.5348 22.057 25.5348Z" fill="#4ED3DD"/>
<path d="M25.4167 20.7344C24.9967 20.6144 24.6367 20.4944 24.2167 20.3144C24.0967 20.1944 24.1567 20.0744 24.2167 19.9544C24.3367 19.7144 24.3967 19.4744 24.5167 19.2344C24.6367 18.9344 24.6967 18.5744 24.4567 18.2744C24.3967 18.2144 24.3367 18.0944 24.3967 18.0344C24.6367 17.7344 24.9367 17.7344 25.2967 17.7344C25.4167 17.9144 25.2967 18.0344 25.2967 18.2144C25.2967 18.3344 25.2367 18.5144 25.2967 18.6344C25.4167 18.8144 25.6567 18.8744 25.8367 18.6944C25.8967 18.6344 25.9567 18.5144 26.0767 18.5144C26.1967 18.6944 26.0767 18.9344 26.0167 19.1144C26.0167 19.2344 25.9567 19.2944 25.8967 19.4144C25.8967 19.4144 25.8967 19.4744 25.8367 19.4744C25.7167 19.8944 25.5367 20.3144 25.4167 20.7344Z" fill="#FC985B"/>
<path d="M24.3968 18.0352C24.6968 18.4552 24.7568 18.8752 24.5168 19.3552C24.3968 19.6552 24.2168 19.9552 24.2168 20.3152C24.0368 20.1952 23.7968 20.1352 23.5568 20.0752C23.6168 19.8352 23.7368 19.5952 23.7968 19.3552C23.9168 19.0552 24.0368 18.7552 24.1568 18.5152C24.1568 18.2752 24.2168 18.1552 24.3968 18.0352Z" fill="#FBAC6D"/>
<path d="M23.0769 38.6732C22.4169 38.6732 21.757 38.6732 21.0371 38.6732C21.0371 37.4134 21.0371 36.2136 21.0371 34.9537C21.0371 34.7137 21.0971 34.5938 21.3371 34.5938C23.4368 34.5938 25.5965 34.5938 27.6963 34.5938C27.9963 34.5938 27.9963 34.7137 27.9963 34.9537C27.9963 36.2136 27.9963 37.4134 27.9963 38.6732C27.3363 38.6732 26.6764 38.6732 25.9565 38.6732C25.8365 38.5533 25.8965 38.4333 25.8365 38.3133C25.8365 37.9533 25.8365 37.5934 25.8365 37.2334C25.8365 36.6335 25.4766 36.2735 24.8766 36.2735C24.5767 36.2735 24.2767 36.2735 24.0367 36.2735C23.4368 36.2735 23.1368 36.6335 23.0769 37.2334C23.0769 37.5934 23.0769 37.9533 23.0769 38.3133C23.1968 38.4333 23.1968 38.5533 23.0769 38.6732Z" fill="#D2DBFA"/>
<path d="M38.315 31.5947C38.135 31.5947 37.8951 31.5947 37.7151 31.5947C37.5951 31.4147 37.6551 31.2347 37.6551 31.0547C37.6551 25.9554 37.6551 20.856 37.6551 15.8166C37.6551 15.6966 37.6551 15.5167 37.6551 15.3967C37.5351 14.7967 37.1751 14.5568 36.5752 14.5568C36.0953 14.5568 35.6153 14.5568 35.0754 14.5568C34.9554 14.5568 34.8354 14.5568 34.7155 14.4968C34.7155 13.8369 34.7155 13.1769 34.7155 12.457C35.3754 12.457 36.0353 12.457 36.7552 12.457C37.2351 12.637 37.6551 12.817 37.9551 13.2369C38.195 13.5969 38.375 13.9568 38.375 14.4368C38.315 20.1361 38.315 25.8354 38.315 31.5947Z" fill="#3C589F"/>
<path d="M23.0769 38.6723C23.0769 38.1923 23.0769 37.7123 23.0769 37.2323C23.0769 36.5723 23.4969 36.1523 24.1569 36.1523C24.4569 36.1523 24.7569 36.1523 25.0569 36.1523C25.6569 36.1523 26.0769 36.5723 26.0769 37.1723C26.0769 37.6523 26.0769 38.1323 26.0769 38.6723C25.7769 38.6723 25.4769 38.6723 25.1769 38.6723C24.9969 38.6123 24.9969 38.4923 24.9969 38.3123C24.9969 38.0123 24.9969 37.7723 24.9969 37.4723C24.9969 37.2923 24.9369 37.1723 24.6969 37.1723C24.0969 37.1123 24.0969 37.1723 24.0969 37.7123C24.0969 37.8923 24.0969 38.1323 24.0969 38.3123C24.0969 38.4323 24.0969 38.5523 23.9169 38.6123C23.6769 38.6723 23.3769 38.6723 23.0769 38.6723Z" fill="#BDC7F6"/>
<path d="M23.9768 38.6708C24.0968 38.2508 24.0368 37.8908 24.0368 37.4708C24.0368 37.0508 24.0368 37.0508 24.4568 37.0508C25.1168 37.0508 25.1168 37.0508 25.1168 37.7108C25.1168 38.0108 25.0568 38.3108 25.1768 38.6708C24.7568 38.6708 24.3368 38.6708 23.9768 38.6708Z" fill="#D2DBFA"/>
<path d="M36.2753 31.5935C35.7353 31.5935 35.1954 31.5935 34.6555 31.5935C34.5955 31.4735 34.5955 31.2935 34.5955 31.1736C34.5955 29.4338 34.5955 27.694 34.5955 25.9542C34.5955 25.8342 34.5955 25.6542 34.7154 25.5342C34.7154 21.9347 34.7154 18.3351 34.7154 14.6756C34.7154 14.6156 34.7154 14.4956 34.7154 14.4356C35.0154 14.3756 35.3154 14.3756 35.6753 14.4356C36.0953 14.4956 36.2753 14.7956 36.3952 15.1555C36.3952 15.3355 36.3952 15.5155 36.3952 15.6955C36.3952 20.7948 36.3952 25.8942 36.3952 31.0536C36.3952 31.2335 36.4552 31.4135 36.2753 31.5935Z" fill="#9AD7F8"/>
<path d="M36.2753 31.5915C36.2753 26.2521 36.2753 20.9128 36.2753 15.5735C36.2753 15.2735 36.2153 15.0335 36.0353 14.7935C35.8553 14.5536 35.6153 14.4336 35.3154 14.4936C35.1354 14.4936 34.8954 14.4936 34.7155 14.4936V14.4336C35.3754 14.4336 36.0353 14.4336 36.6352 14.4336C37.2351 14.4336 37.5951 14.7336 37.7151 15.3335C37.6551 15.4535 37.7151 15.5735 37.7151 15.6934C37.7151 20.9128 37.7151 26.0722 37.7151 31.2915C37.7151 31.4115 37.7151 31.5315 37.7151 31.6515C37.1752 31.5915 36.7552 31.5915 36.2753 31.5915Z" fill="#73C2F8"/>
<path d="M34.7155 25.5352C34.7155 27.5749 34.7155 29.5547 34.7155 31.5944C34.2355 31.5944 33.7556 31.5944 33.2756 31.5944C33.2756 29.5547 33.2756 27.5749 33.2756 25.5352C33.7556 25.5352 34.2355 25.5352 34.7155 25.5352Z" fill="#BDC7F6"/>
<path d="M37.655 31.5939C37.655 26.3146 37.655 20.9752 37.655 15.6959C37.655 15.5759 37.595 15.4559 37.715 15.3359C37.715 15.4559 37.715 15.6359 37.715 15.7559C37.715 21.0352 37.715 26.3146 37.715 31.6539C37.715 31.5939 37.655 31.5939 37.655 31.5939Z" fill="#76C3F7"/>
<path d="M24.5167 28.2333C24.5767 28.1133 24.6966 28.1133 24.7566 28.1133C27.3363 28.1133 29.916 28.1133 32.4957 28.1133C32.7356 28.1133 32.9156 28.1133 33.0356 28.3533C33.2156 28.5932 33.0356 28.9532 32.7956 29.0132C32.7356 29.0132 32.6157 29.0132 32.5557 29.0132C29.916 29.0132 27.2763 29.0132 24.6366 29.0132C24.5766 29.0132 24.5167 29.0132 24.4567 29.0132C24.4567 28.7732 24.4567 28.4732 24.5167 28.2333Z" fill="#3434F4"/>
<path d="M24.5169 28.2342C24.6369 28.5342 24.6369 28.7742 24.4569 29.0742C24.0369 29.7942 23.1369 29.7942 22.6569 29.0742C22.4169 28.8342 22.4169 28.5342 22.5969 28.2342C22.7769 27.8142 23.0769 27.5742 23.4969 27.5742C23.9769 27.5742 24.3369 27.7542 24.5169 28.2342Z" fill="#E8EEFE"/>
<path d="M22.5971 28.2351C22.4771 28.5351 22.4771 28.7751 22.6571 29.0751C22.2971 29.0751 21.9371 29.0751 21.5171 29.0751C21.2771 29.0751 21.0971 28.8951 21.0371 28.6551C21.0371 28.4151 21.1571 28.2351 21.3971 28.1751C21.7571 28.1151 22.1171 28.1751 22.4771 28.1751C22.5971 28.1151 22.5971 28.1751 22.5971 28.2351Z" fill="#3434F4"/>
<path d="M26.0165 18.5154C25.8365 18.8754 25.6565 18.9954 25.3566 18.8754C25.1166 18.7554 25.0566 18.5754 25.1166 18.2754C25.1766 18.1555 25.1766 17.9755 25.2366 17.8555C25.2366 17.7955 25.2366 17.7355 25.2366 17.7355C25.5366 16.6556 25.7765 15.5158 26.0765 14.4359C26.1365 14.2559 26.1965 14.076 26.3765 14.016C26.5564 13.956 26.7364 13.956 26.8564 14.076C27.0364 14.1959 27.0364 14.3759 26.9764 14.6159C26.7364 15.6358 26.4364 16.6556 26.1965 17.6755C26.1965 17.9755 26.1365 18.2754 26.0165 18.5154Z" fill="#3C589F"/>
<path d="M17.0177 29.0114C16.9577 29.0114 16.8977 29.0114 16.8377 29.0114C16.5377 29.0114 16.3577 28.8314 16.2977 28.5914C16.2977 28.3514 16.4177 28.1714 16.7177 28.1114C16.8977 28.0514 17.1377 28.0514 17.3177 28.1114C17.5577 28.1714 17.7377 28.4114 17.7377 28.6514C17.6777 28.8914 17.4977 29.0114 17.2577 29.0714C17.1377 29.0114 17.0777 29.0114 17.0177 29.0114Z" fill="#BABA04"/>
</g>
<defs>
<clipPath id="clip0_12199_111081">
<rect width="30.3563" height="31.0762" fill="white" transform="translate(9.39856 9.63672)"/>
</clipPath>
</defs>
</svg>
