<svg width="49" height="50" viewBox="0 0 49 50" fill="none" xmlns="http://www.w3.org/2000/svg">
<rect x="0.423401" width="48" height="48" rx="24" fill="#E3FBDA"/>
<g clip-path="url(#clip0_12199_110669)">
<path d="M24.63 1.96875C25.9181 2.40622 27.2427 2.69786 28.5551 3.06242C30.6573 3.64571 32.7718 4.2047 34.874 4.77584C35.5059 4.94597 35.6761 5.21331 35.5789 5.88166C35.6032 6.13685 35.433 6.28267 35.2508 6.36774C34.8619 6.56217 34.4609 6.70799 34.0113 6.65938C33.3308 6.84166 32.6381 7.02394 31.9576 7.21837C31.8361 7.25483 31.6781 7.24267 31.6052 7.3885C31.5687 7.42495 31.5323 7.44926 31.4837 7.47356C29.3085 8.08115 27.109 8.64014 24.9338 9.23559C24.5814 9.3328 24.2168 9.3328 23.8523 9.24774C21.6528 8.65229 19.4533 8.069 17.2538 7.47356C17.2052 7.46141 17.1687 7.4371 17.1323 7.40065C16.8163 7.14546 16.4032 7.13331 16.0264 7.02394C15.2973 6.80521 14.5682 6.62293 13.827 6.44065C13.4016 6.33128 13.11 6.08824 13.0857 5.63862C13.0614 5.23761 13.3287 4.94597 13.8391 4.81229C17.0837 3.93736 20.3404 3.06242 23.5849 2.17533C23.7551 2.12672 23.9495 2.12672 24.0832 1.99305C24.2654 1.96875 24.4477 1.96875 24.63 1.96875Z" fill="#464F5E"/>
<path d="M46.8801 44.5994C47.269 44.6237 47.4999 44.8668 47.6943 45.1706C47.6943 45.8754 47.6943 46.568 47.6943 47.2728C47.4999 47.5645 47.2811 47.8318 46.8801 47.8318C46.7464 47.8804 46.6128 47.8561 46.4791 47.8561C43.028 47.8561 39.589 47.8561 36.1378 47.8561C35.591 47.8561 35.5424 47.8197 35.5302 47.2728C35.5181 46.5559 35.5181 45.8511 35.5302 45.1341C35.5302 44.9518 35.5302 44.7696 35.6518 44.6116C35.8462 44.4536 36.0771 44.4779 36.308 44.4779C39.6376 44.4779 42.955 44.4779 46.2847 44.4779C46.4791 44.4779 46.6857 44.4658 46.8801 44.5994Z" fill="#ECC000"/>
<path d="M1.83301 44.5976C1.83301 38.3637 1.83301 32.1176 1.83301 25.8837C1.83301 25.6893 1.84516 25.4948 1.85731 25.2882C2.01529 25.1789 2.18541 25.1546 2.37984 25.1546C5.9282 25.1546 9.4887 25.1303 13.0371 25.1667C13.596 25.2032 14.1793 25.0331 14.7262 25.2882C14.872 25.4948 14.8477 25.7257 14.8477 25.9444C14.8477 31.911 14.8477 37.8655 14.8477 43.832C14.8477 44.5976 14.7869 44.6462 14.0092 44.6584C13.7419 44.6584 13.4624 44.6219 13.195 44.707C13.1343 44.7191 13.0735 44.7313 13.0128 44.7313C12.6482 44.7799 12.2836 44.7556 11.9191 44.7556C8.8082 44.7556 5.70946 44.7556 2.59858 44.7556C2.34339 44.7677 2.05174 44.8406 1.83301 44.5976Z" fill="#85B3CB"/>
<path d="M31.5566 7.36328C31.5688 7.36328 31.5931 7.36328 31.6052 7.37543C31.6174 9.14961 31.6295 10.9238 31.6295 12.698C31.6295 12.8924 31.6538 13.099 31.6295 13.2934C31.5688 13.7673 31.6417 14.1076 32.2371 14.1319C32.4437 14.144 32.6381 14.2777 32.7839 14.4357C34.2422 15.8939 35.6883 17.3643 37.1465 18.8225C36.9034 19.0534 36.5996 18.9805 36.3201 18.9805C31.6903 18.9805 27.0604 18.9805 22.4305 18.9805C19.0645 18.9805 15.6862 18.9805 12.3201 18.9805C12.0528 18.9805 11.7733 19.0413 11.5303 18.8468C12.7212 17.4129 13.912 15.9668 15.1029 14.5451C15.4553 14.1319 15.9414 14.0347 16.4639 14.0347C17.1566 14.0347 17.0837 14.1319 17.0837 13.3906C17.0837 11.5557 17.0837 9.72075 17.0837 7.88581C17.0837 7.71569 17.0958 7.55771 17.108 7.38758C17.1201 7.37543 17.1323 7.37543 17.1566 7.37543C17.3389 7.58202 17.3024 7.83721 17.3024 8.06809C17.3024 9.78151 17.3024 11.4949 17.3024 13.2083C17.3024 13.8281 17.3267 13.8645 17.9343 13.8645C22.2118 13.8645 26.4893 13.8645 30.7789 13.8645C31.3865 13.8645 31.4108 13.8402 31.4108 13.2083C31.4108 11.4949 31.4108 9.78151 31.4108 8.06809C31.4108 7.8129 31.3743 7.55771 31.5566 7.36328Z" fill="#4396D4"/>
<path d="M13.0735 44.6234C13.0978 44.6113 13.1343 44.6113 13.1586 44.5991C15.8199 44.429 18.4933 44.4655 21.1545 44.4898C23.2811 44.4655 25.4077 44.4655 27.5343 44.4898C30.1834 44.4898 32.8325 44.4412 35.4816 44.5262C35.5424 44.5505 35.591 44.5748 35.6275 44.6234C35.6275 45.5348 35.6396 46.4462 35.6153 47.3576C35.6031 47.71 35.7004 47.8194 36.0649 47.8194C39.4918 47.8072 42.9186 47.8072 46.3576 47.8072C46.5277 47.8072 46.6857 47.8194 46.8558 47.8315C46.6978 47.953 46.5034 47.8923 46.3211 47.9044C42.9186 47.9044 39.5161 47.9044 36.1135 47.9044C35.834 47.9044 35.6396 47.9409 35.5059 48.2325C35.3723 48.512 35.1171 48.6457 34.7647 48.6457C27.8138 48.6336 20.8507 48.6336 13.8999 48.6457C13.5475 48.6457 13.2923 48.512 13.1586 48.2325C13.0249 47.9287 12.8305 47.9044 12.551 47.9044C9.14846 47.9166 5.74593 47.9044 2.3434 47.9044C2.16112 47.9044 1.97884 47.953 1.80872 47.8315C2.02745 47.6006 2.3191 47.6736 2.58644 47.6736C5.75808 47.6736 8.91758 47.6736 12.0892 47.6736C12.8791 47.6736 12.8791 47.6736 12.8791 46.8594C12.8791 46.3125 12.8791 45.7657 12.8791 45.2189C12.9156 45.0123 12.8912 44.7936 13.0735 44.6234Z" fill="#F7E7AA"/>
<path d="M11.5303 18.8364C19.8543 18.8364 28.1784 18.8364 36.5024 18.8364C36.709 18.8364 36.9277 18.8242 37.1343 18.8242C37.1586 18.8607 37.1829 18.8971 37.2072 18.9214C37.2923 19.5898 37.2437 20.2703 37.3166 20.9387C37.4138 21.85 36.952 22.2632 36.0163 22.2389C35.8827 22.2389 35.749 22.2268 35.6153 22.2024C35.3237 22.1538 35.0442 22.1538 34.7525 22.1538C27.8138 22.1538 20.8872 22.1538 13.9485 22.1538C13.6568 22.1538 13.3774 22.1538 13.0857 22.2024C13.0128 22.2146 12.9399 22.2268 12.867 22.2268C11.6639 22.2997 11.1536 21.7042 11.4087 20.5255C11.5303 19.9908 11.3844 19.444 11.4938 18.9093C11.506 18.8971 11.5181 18.8728 11.5303 18.8364Z" fill="#2B5781"/>
<path d="M11.4938 18.9219C11.4938 19.6267 11.4938 20.3315 11.4938 21.0363C11.4938 21.814 11.7733 22.0935 12.551 22.0935C12.7211 22.0935 12.8791 22.0935 13.0492 22.0935C13.1707 22.2029 13.1829 22.3609 13.1829 22.5067C13.195 23.2844 13.195 24.0743 13.1829 24.852C13.1829 24.9978 13.1586 25.1558 13.0492 25.2773C9.31857 25.2773 5.58794 25.2773 1.84515 25.2773C2.50136 23.9528 3.14541 22.6161 3.82591 21.3036C4.12971 20.7204 4.66439 20.453 5.3206 20.4652C7.20414 20.4773 9.07553 20.453 10.9591 20.4773C11.3358 20.4773 11.4573 20.3801 11.433 20.0034C11.433 19.651 11.3844 19.2743 11.4938 18.9219Z" fill="#4396D4"/>
<path d="M13.0735 44.622C13.0735 45.5334 13.0614 46.4447 13.0857 47.3561C13.0978 47.7085 12.9885 47.8179 12.6361 47.8179C9.20923 47.8058 5.77025 47.8058 2.34341 47.8058C2.17328 47.8058 2.01531 47.8179 1.84518 47.8301C1.24974 47.7207 1.03101 47.4655 1.03101 46.8822C1.03101 46.4447 1.03101 46.0073 1.03101 45.5577C1.03101 44.9744 1.23759 44.7313 1.84518 44.5977C4.15404 44.5977 6.45075 44.6098 8.75961 44.6098C10.1935 44.622 11.6396 44.622 13.0735 44.622Z" fill="#ECC000"/>
<path d="M35.6396 44.621C35.6153 44.6088 35.5789 44.5967 35.5546 44.5967C35.1414 44.5481 34.7404 44.5602 34.3272 44.5724C33.9991 44.5845 33.8898 44.4387 33.8776 44.1471C33.8654 44.0012 33.8655 43.8433 33.8655 43.6974C33.8655 37.8281 33.8655 31.9587 33.8655 26.1015C33.8655 25.8342 33.8168 25.5547 33.9748 25.2995C34.3515 25.0443 34.7647 25.1901 35.1657 25.1536C35.3358 25.1415 35.4938 25.1536 35.6639 25.1658C38.9206 25.1415 42.1652 25.1658 45.4219 25.1536C45.7136 25.1536 45.993 25.1536 46.2847 25.1536C46.4791 25.1536 46.6736 25.1779 46.8437 25.2995C46.8558 25.4939 46.868 25.6883 46.868 25.8949C46.868 32.1288 46.868 38.3749 46.868 44.6088C44.5348 44.6088 42.2017 44.621 39.8563 44.621C38.4589 44.621 37.0492 44.621 35.6396 44.621Z" fill="#85B3CB"/>
<path d="M46.8558 25.2895C43.1252 25.2895 39.3824 25.2895 35.6518 25.2895C35.5302 25.1679 35.5181 25.0221 35.5181 24.8642C35.5059 24.0864 35.5059 23.2966 35.5181 22.5188C35.5181 22.373 35.5302 22.215 35.6518 22.1057C37.11 22.1057 37.2437 21.9598 37.2072 20.5016C37.1951 19.9791 37.2072 19.4444 37.2072 18.9219C37.3166 19.2986 37.2558 19.6753 37.2437 20.052C37.2315 20.3923 37.3287 20.4895 37.6811 20.4895C39.5404 20.4773 41.4118 20.4895 43.271 20.4773C44.073 20.4652 44.6199 20.8054 44.9723 21.5224C45.6042 22.774 46.2239 24.0378 46.8558 25.2895Z" fill="#4396D4"/>
<path d="M34.0113 6.64838C34.2665 6.57547 34.5338 6.49041 34.789 6.42965C35.1293 6.34458 35.4087 6.19876 35.5789 5.88281C35.6882 6.89142 35.6153 7.90003 35.6153 8.92079C35.6153 9.45547 35.6396 9.91724 36.1257 10.294C36.466 10.5491 36.4295 11.0352 36.15 11.3512C35.8827 11.655 35.4695 11.7279 35.1293 11.497C34.4244 11.0231 34.0477 10.3669 34.0234 9.51623C33.9991 8.55623 34.0113 7.60838 34.0113 6.64838Z" fill="#ECC001"/>
<path d="M31.5566 7.36241C31.5566 9.44039 31.5566 11.5184 31.5687 13.6085C31.5687 13.9123 31.508 14.0338 31.1677 14.0338C26.6229 14.0217 22.0902 14.0217 17.5454 14.0338C17.2173 14.0338 17.1444 13.9123 17.1444 13.6085C17.1566 11.5305 17.1566 9.45254 17.1566 7.36241C17.9586 7.44748 18.6999 7.72697 19.4776 7.93355C20.948 8.31026 22.4183 8.72343 23.8887 9.12444C24.3262 9.24596 24.7515 9.16089 25.1768 9.03937C27.2426 8.48039 29.3085 7.9214 31.3743 7.37456C31.435 7.35026 31.4958 7.36241 31.5566 7.36241Z" fill="#393F4B"/>
<path d="M34.0113 25.3143C34.0113 31.5239 34.0113 37.7335 34.0113 43.9553C34.0113 44.5386 34.0113 44.5264 34.6067 44.5386C34.9227 44.5507 35.2386 44.4657 35.5424 44.5994C32.869 44.5994 30.2077 44.5994 27.5343 44.5994C27.3399 44.3806 27.3885 44.1133 27.3885 43.8581C27.3885 41.0996 27.3885 38.3411 27.3885 35.5826C27.3885 35.4125 27.3885 35.2545 27.3885 35.0844C27.352 34.5862 27.1212 34.3189 26.6229 34.3067C25.1039 34.2702 23.585 34.2702 22.0781 34.3067C21.5556 34.3189 21.3126 34.5983 21.3126 35.1816C21.3004 36.6034 21.3126 38.0373 21.3126 39.4591C21.3126 40.9416 21.3126 42.4363 21.3126 43.9189C21.3126 44.1497 21.3612 44.4049 21.1667 44.6115C18.4933 44.6115 15.832 44.6115 13.1586 44.6115C13.4989 44.4657 13.8513 44.5386 14.1915 44.5507C14.5804 44.5629 14.7141 44.4657 14.7141 44.0525C14.6898 41.9381 14.7019 39.8358 14.7019 37.7214C14.7019 33.5897 14.7019 29.4581 14.7019 25.3264C14.8599 25.1442 15.0908 25.1685 15.2974 25.1685C21.3369 25.1685 27.3764 25.1685 33.4158 25.1685C33.6224 25.1563 33.8533 25.132 34.0113 25.3143Z" fill="#A0C7D2"/>
<path d="M34.0113 25.3143C32.0791 25.3143 30.1591 25.3022 28.227 25.3022C23.7186 25.3022 19.2103 25.3143 14.7019 25.3143C14.1551 25.3022 13.6082 25.3022 13.0614 25.29C13.0614 24.2328 13.0614 23.1634 13.0614 22.1062C13.2072 21.9725 13.3774 22.0333 13.5353 22.0333C20.7536 22.0333 27.9596 22.0333 35.1779 22.0333C35.3358 22.0333 35.5181 21.9725 35.6518 22.1062C35.6518 23.1634 35.6518 24.2328 35.6518 25.29C35.1049 25.3022 34.5581 25.3022 34.0113 25.3143Z" fill="#317FBB"/>
<path d="M9.86542 30.1483C9.86542 29.881 9.85327 29.6015 9.86542 29.3341C9.90188 28.8602 10.2421 28.5078 10.6674 28.5078C11.0806 28.5078 11.4573 28.8602 11.4695 29.3341C11.4938 29.8567 11.4938 30.3914 11.4695 30.926C11.4452 31.4 11.0806 31.7402 10.6553 31.7402C10.2178 31.7402 9.87758 31.4 9.85327 30.926C9.85327 30.6587 9.86542 30.4035 9.86542 30.1483Z" fill="#464F5E"/>
<path d="M11.4938 34.9603C11.4938 35.2276 11.5181 35.5071 11.4938 35.7744C11.4573 36.2241 11.1049 36.5522 10.7039 36.5643C10.2786 36.5765 9.9019 36.2362 9.88975 35.7623C9.86545 35.2155 9.86545 34.6686 9.88975 34.1339C9.91405 33.6722 10.2665 33.3562 10.6796 33.3441C11.0685 33.3319 11.4573 33.6722 11.4938 34.1096C11.5181 34.3891 11.4938 34.6808 11.4938 34.9603Z" fill="#464F5E"/>
<path d="M6.66946 39.7971C6.66946 40.0644 6.69377 40.3439 6.66946 40.6112C6.63301 41.0609 6.2806 41.389 5.86744 41.389C5.44212 41.4011 5.07757 41.0487 5.05326 40.5748C5.02896 40.0523 5.02896 39.5176 5.05326 38.9829C5.07757 38.4968 5.41782 38.1566 5.84314 38.1566C6.2563 38.1444 6.63301 38.4968 6.66946 38.9707C6.68162 39.2502 6.66946 39.5176 6.66946 39.7971Z" fill="#464F5E"/>
<path d="M11.4938 39.7966C11.4938 40.064 11.5181 40.3435 11.4938 40.6108C11.4573 41.0604 11.1049 41.3885 10.6918 41.4007C10.2665 41.4128 9.88975 41.0604 9.8776 40.5865C9.8533 40.0397 9.8533 39.4928 9.8776 38.9582C9.90191 38.4964 10.2543 38.1804 10.6675 38.1683C11.0563 38.1561 11.4452 38.4964 11.4817 38.9339C11.5181 39.2133 11.4938 39.505 11.4938 39.7966Z" fill="#464F5E"/>
<path d="M6.66946 30.1248C6.66946 30.3921 6.69377 30.6716 6.66946 30.9389C6.63301 31.4129 6.2563 31.7531 5.83098 31.7288C5.41782 31.7167 5.06541 31.3764 5.05326 30.9268C5.02896 30.3799 5.02896 29.8331 5.05326 29.2984C5.07757 28.8488 5.42997 28.5207 5.83098 28.4964C6.24415 28.4842 6.62086 28.8367 6.65731 29.2984C6.68162 29.5779 6.66946 29.8574 6.66946 30.1248Z" fill="#464F5E"/>
<path d="M6.66946 34.9603C6.66946 35.2276 6.69376 35.5071 6.66946 35.7744C6.633 36.2241 6.2806 36.5522 5.87959 36.5643C5.45427 36.5765 5.07756 36.2362 5.06541 35.7623C5.0411 35.2155 5.0411 34.6686 5.06541 34.1339C5.08971 33.6843 5.44212 33.3562 5.85528 33.3441C6.24414 33.3319 6.633 33.6722 6.66946 34.1096C6.68161 34.3891 6.65731 34.6808 6.66946 34.9603C6.65731 34.9603 6.65731 34.9603 6.66946 34.9603Z" fill="#464F5E"/>
<path d="M21.1667 44.5965C21.1667 41.3884 21.1545 38.1924 21.1545 34.9843C21.1545 34.4861 21.4826 34.158 21.9809 34.1458C23.5606 34.1337 25.1404 34.1337 26.7201 34.1458C27.2183 34.1458 27.5464 34.4861 27.5464 34.9843C27.5464 38.1924 27.5464 41.3884 27.5343 44.5965C25.4199 44.5965 23.2933 44.5965 21.1667 44.5965Z" fill="#567580"/>
<path d="M38.8356 30.1366C38.8356 30.4039 38.8477 30.6834 38.8356 30.9508C38.7991 31.4004 38.4588 31.7285 38.0457 31.7285C37.6325 31.7406 37.2558 31.4125 37.2315 30.9629C37.195 30.4039 37.2072 29.845 37.2315 29.286C37.2558 28.8363 37.6325 28.4961 38.0214 28.4961C38.4467 28.4961 38.7991 28.8363 38.8356 29.3103C38.8599 29.5898 38.8356 29.8693 38.8356 30.1366Z" fill="#464F5E"/>
<path d="M43.672 39.7723C43.672 40.0397 43.6842 40.3192 43.672 40.5865C43.6356 41.0604 43.271 41.4007 42.8457 41.3885C42.4325 41.3764 42.0801 41.0483 42.0558 40.5987C42.0315 40.0518 42.0315 39.505 42.0558 38.9703C42.0801 38.4964 42.4568 38.1561 42.8822 38.1683C43.3196 38.1804 43.6477 38.5207 43.672 39.0068C43.6842 39.262 43.672 39.5171 43.672 39.7723Z" fill="#464F5E"/>
<path d="M43.672 30.1366C43.672 30.4039 43.6963 30.6834 43.672 30.9508C43.6356 31.4004 43.2832 31.7285 42.87 31.7285C42.4568 31.7285 42.0923 31.4125 42.068 30.9629C42.0315 30.4039 42.0437 29.845 42.068 29.286C42.0923 28.8485 42.469 28.5082 42.87 28.4961C43.2953 28.4961 43.6477 28.8363 43.6842 29.3103C43.6842 29.6019 43.672 29.8693 43.672 30.1366Z" fill="#464F5E"/>
<path d="M37.2194 34.9485C37.2194 34.6812 37.2072 34.4017 37.2194 34.1344C37.2558 33.6847 37.6083 33.3445 38.0093 33.3323C38.4346 33.3202 38.8113 33.6726 38.8356 34.1344C38.8599 34.6812 38.8599 35.228 38.8356 35.7627C38.8113 36.2123 38.4589 36.5404 38.0457 36.5526C37.6204 36.5647 37.2558 36.2245 37.2194 35.7506C37.2072 35.4954 37.2194 35.228 37.2194 34.9485Z" fill="#464F5E"/>
<path d="M43.672 34.9721C43.672 35.2394 43.6963 35.5189 43.672 35.7863C43.6356 36.2359 43.2832 36.564 42.87 36.564C42.4568 36.564 42.0923 36.2359 42.068 35.7984C42.0437 35.2394 42.0437 34.6805 42.068 34.1215C42.0923 33.684 42.469 33.3438 42.87 33.3438C43.2953 33.3438 43.6477 33.6962 43.6842 34.1701C43.6842 34.4253 43.672 34.7048 43.672 34.9721Z" fill="#464F5E"/>
<path d="M38.8477 39.7723C38.8477 40.0397 38.8598 40.3192 38.8477 40.5865C38.8112 41.0604 38.4588 41.4007 38.0214 41.3885C37.6203 41.3764 37.2436 41.0361 37.2315 40.5987C37.2072 40.0518 37.2072 39.505 37.2315 38.9703C37.2558 38.4964 37.6447 38.1561 38.0578 38.1683C38.4953 38.1804 38.8112 38.5207 38.8477 39.0068C38.8598 39.262 38.8477 39.5171 38.8477 39.7723Z" fill="#464F5E"/>
<path d="M22.7222 29.3831C22.7222 29.6504 22.7343 29.9299 22.7222 30.1973C22.6979 30.5983 22.3333 30.9385 21.9444 30.9385C21.5556 30.9385 21.1789 30.6104 21.1667 30.1973C21.1424 29.6261 21.1424 29.0428 21.1667 28.4717C21.1789 28.0221 21.4948 27.7426 21.9323 27.7426C22.3941 27.7304 22.6979 28.0099 22.7343 28.4838C22.7343 28.5081 22.7343 28.5446 22.7343 28.5689C22.7343 28.8362 22.7343 29.1157 22.7222 29.3831Z" fill="#464F5E"/>
<path d="M27.5586 29.3466C27.5586 29.6383 27.5708 29.9178 27.5586 30.2094C27.5343 30.6104 27.1576 30.9385 26.7687 30.9385C26.3799 30.9385 26.0153 30.5983 25.991 30.1973C25.9667 29.6261 25.9667 29.0428 25.991 28.4717C26.0032 28.0221 26.3191 27.7426 26.7566 27.7426C27.2183 27.7304 27.5221 28.0099 27.5586 28.4838C27.5708 28.7633 27.5586 29.055 27.5586 29.3466Z" fill="#464F5E"/>
</g>
<defs>
<clipPath id="clip0_12199_110669">
<rect width="48" height="48" fill="white" transform="translate(0.423401 1.17969)"/>
</clipPath>
</defs>
</svg>
