<svg width="550" height="550" viewBox="0 0 550 550" fill="none" xmlns="http://www.w3.org/2000/svg">
<path d="M550 420.641H0V420.916H550V420.641Z" fill="#EBEBEB"/>
<path d="M494.89 438.34H458.458V438.615H494.89V438.34Z" fill="#EBEBEB"/>
<path d="M364.342 441.33H354.783V441.605H364.342V441.33Z" fill="#EBEBEB"/>
<path d="M457.358 428.131H436.249V428.406H457.358V428.131Z" fill="#EBEBEB"/>
<path d="M105.215 429.979H57.7061V430.254H105.215V429.979Z" fill="#EBEBEB"/>
<path d="M121.979 429.979H115.016V430.254H121.979V429.979Z" fill="#EBEBEB"/>
<path d="M247.665 434.621H144.617V434.896H247.665V434.621Z" fill="#EBEBEB"/>
<path d="M260.7 371.58H48.3013C46.6373 371.577 45.0426 370.914 43.867 369.736C42.6915 368.559 42.0312 366.963 42.0313 365.299V66.726C42.0457 65.0716 42.7124 63.4898 43.8863 62.324C45.0603 61.1583 46.6468 60.5028 48.3013 60.5H260.7C262.366 60.5 263.964 61.1617 265.142 62.3397C266.32 63.5176 266.981 65.1152 266.981 66.781V365.299C266.981 366.965 266.32 368.562 265.142 369.74C263.964 370.918 262.366 371.58 260.7 371.58ZM48.3013 60.72C46.7103 60.7229 45.1854 61.357 44.0615 62.483C42.9375 63.609 42.3062 65.135 42.3063 66.726V365.299C42.3062 366.89 42.9375 368.416 44.0615 369.542C45.1854 370.668 46.7103 371.302 48.3013 371.305H260.7C262.292 371.302 263.818 370.668 264.944 369.543C266.07 368.417 266.703 366.891 266.706 365.299V66.726C266.703 65.134 266.07 63.608 264.944 62.4823C263.818 61.3566 262.292 60.7229 260.7 60.72H48.3013Z" fill="#EBEBEB"/>
<path d="M498.641 371.58H286.231C284.566 371.577 282.97 370.914 281.793 369.737C280.616 368.56 279.953 366.964 279.95 365.299V66.726C279.968 65.0706 280.637 63.4888 281.812 62.3234C282.988 61.1579 284.576 60.5028 286.231 60.5H498.641C500.294 60.5057 501.877 61.1625 503.049 62.3279C504.221 63.4933 504.886 65.0735 504.9 66.726V365.299C504.9 366.961 504.241 368.555 503.068 369.733C501.895 370.91 500.303 371.574 498.641 371.58ZM286.231 60.72C284.639 60.7229 283.113 61.3566 281.988 62.4823C280.862 63.608 280.228 65.134 280.225 66.726V365.299C280.228 366.891 280.862 368.417 281.988 369.543C283.113 370.668 284.639 371.302 286.231 371.305H498.641C500.233 371.302 501.759 370.668 502.885 369.543C504.011 368.417 504.644 366.891 504.647 365.299V66.726C504.644 65.134 504.011 63.608 502.885 62.4823C501.759 61.3566 500.233 60.7229 498.641 60.72H286.231Z" fill="#EBEBEB"/>
<path d="M297.836 419.451H446.666V201.233L297.836 201.233V419.451Z" fill="#F0F0F0"/>
<path d="M303.094 248.412L441.408 248.412V208.108H303.094V248.412Z" fill="#E0E0E0"/>
<path d="M433.554 248.412H441.408V214.631H433.554V248.412Z" fill="#EBEBEB"/>
<path d="M395.56 248.412H403.414V214.631H395.56V248.412Z" fill="#EBEBEB"/>
<path d="M346.699 247.066L354.438 248.4L360.177 215.11L352.437 213.776L346.699 247.066Z" fill="#EBEBEB"/>
<path d="M423.819 248.412H431.673V219.086H423.819V248.412Z" fill="#EBEBEB"/>
<path d="M405.757 248.412H413.611V219.086H405.757V248.412Z" fill="#EBEBEB"/>
<path d="M360.173 248.412H368.027V219.086H360.173V248.412Z" fill="#EBEBEB"/>
<path d="M378.896 246.696L386.562 248.4L392.925 219.773L385.258 218.069L378.896 246.696Z" fill="#EBEBEB"/>
<path d="M417.021 248.412H420.948V212.959H417.021V248.412Z" fill="#EBEBEB"/>
<path d="M370.293 248.412H374.22V212.959H370.293V248.412Z" fill="#EBEBEB"/>
<path d="M441.408 254.793H303.094V295.097H441.408V254.793Z" fill="#E0E0E0"/>
<path d="M310.948 261.316H303.094V295.097H310.948V261.316Z" fill="#EBEBEB"/>
<path d="M348.942 261.316H341.088V295.097H348.942V261.316Z" fill="#EBEBEB"/>
<path d="M392.085 260.453L384.345 261.787L390.083 295.077L397.823 293.743L392.085 260.453Z" fill="#EBEBEB"/>
<path d="M320.683 265.771H312.829V295.097H320.683V265.771Z" fill="#EBEBEB"/>
<path d="M338.745 265.771H330.891V295.097H338.745V265.771Z" fill="#EBEBEB"/>
<path d="M384.329 265.771H376.475V295.097H384.329V265.771Z" fill="#EBEBEB"/>
<path d="M359.279 264.741L351.612 266.445L357.975 295.073L365.642 293.369L359.279 264.741Z" fill="#EBEBEB"/>
<path d="M327.481 259.645H323.554V295.098H327.481V259.645Z" fill="#EBEBEB"/>
<path d="M374.209 259.645H370.282V295.098H374.209V259.645Z" fill="#EBEBEB"/>
<path d="M433.554 295.098H441.408V261.317H433.554V295.098Z" fill="#EBEBEB"/>
<path d="M423.819 295.098H431.673V265.772H423.819V295.098Z" fill="#EBEBEB"/>
<path d="M405.757 295.098H413.611V265.772H405.757V295.098Z" fill="#EBEBEB"/>
<path d="M417.021 295.098H420.948V259.645H417.021V295.098Z" fill="#EBEBEB"/>
<path d="M303.094 341.781H441.408V301.477H303.094V341.781Z" fill="#E0E0E0"/>
<path d="M354.167 341.781H362.021V308H354.167V341.781Z" fill="#EBEBEB"/>
<path d="M305.307 340.43L313.047 341.764L318.785 308.474L311.045 307.139L305.307 340.43Z" fill="#EBEBEB"/>
<path d="M382.426 341.781H390.28V312.455H382.426V341.781Z" fill="#EBEBEB"/>
<path d="M364.364 341.781H372.218V312.455H364.364V341.781Z" fill="#EBEBEB"/>
<path d="M318.78 341.781H326.634V312.455H318.78V341.781Z" fill="#EBEBEB"/>
<path d="M337.501 340.06L345.168 341.764L351.53 313.136L343.863 311.432L337.501 340.06Z" fill="#EBEBEB"/>
<path d="M375.628 341.781H379.555V306.328H375.628V341.781Z" fill="#EBEBEB"/>
<path d="M328.9 341.781H332.827V306.328H328.9V341.781Z" fill="#EBEBEB"/>
<path d="M395.71 340.431L403.45 341.766L409.188 308.476L401.449 307.141L395.71 340.431Z" fill="#EBEBEB"/>
<path d="M409.178 341.781H417.032V312.455H409.178V341.781Z" fill="#EBEBEB"/>
<path d="M427.907 340.064L435.574 341.768L441.937 313.14L434.27 311.436L427.907 340.064Z" fill="#EBEBEB"/>
<path d="M419.287 341.781H423.214V306.328H419.287V341.781Z" fill="#EBEBEB"/>
<path d="M472.34 201.244H446.666V420.023H472.34V201.244Z" fill="#E0E0E0"/>
<path d="M114.862 154.264C114.862 154.264 113.575 145.772 119.768 140.316C125.961 134.86 125.422 131.626 123.651 131.208C121.88 130.79 120.252 136.235 117.524 137.731C117.524 137.731 117.436 129.965 120.208 127.105C122.98 124.245 124.421 116.875 121.792 116.743C119.163 116.611 118.888 121.143 118.338 124.311C117.788 127.479 114.862 132.011 114.862 132.011C114.862 132.011 114.29 125.059 112.497 122.199C110.704 119.339 115.478 112.794 113.597 109.934C111.716 107.074 108.493 112.53 108.757 118.657C109.021 124.784 113.157 131.329 112.167 137.731C112.167 137.731 110.363 133.232 108.746 132.825C107.129 132.418 105.446 129.437 104.346 128.337C103.246 127.237 101.893 131.054 104.346 134.596C106.799 138.138 113.069 147.609 112.112 155.276L114.862 154.264Z" fill="#E6E6E6"/>
<path d="M118.569 150.402L120.593 163.14C120.741 164.065 120.687 165.01 120.434 165.912C120.18 166.813 119.735 167.649 119.127 168.361C118.519 169.074 117.764 169.645 116.914 170.037C116.064 170.429 115.138 170.632 114.202 170.631H112.002C111.065 170.634 110.138 170.432 109.287 170.041C108.435 169.65 107.678 169.078 107.07 168.366C106.461 167.653 106.014 166.817 105.76 165.915C105.506 165.012 105.452 164.066 105.6 163.14L107.624 150.402H118.569Z" fill="#E6E6E6"/>
<path d="M87.8568 173.305L231.341 173.305V165.935L87.8568 165.935V173.305Z" fill="#E0E0E0"/>
<path d="M218.416 165.936H224.741V138.766H218.416V165.936Z" fill="#EBEBEB"/>
<path d="M187.858 165.936H194.183V138.766H187.858V165.936Z" fill="#EBEBEB"/>
<path d="M148.534 164.861L154.767 165.936L159.382 139.16L153.149 138.086L148.534 164.861Z" fill="#EBEBEB"/>
<path d="M210.584 165.936H216.909V142.341H210.584V165.936Z" fill="#EBEBEB"/>
<path d="M196.053 165.936H202.378V142.341H196.053V165.936Z" fill="#EBEBEB"/>
<path d="M159.379 165.936H165.704V142.341H159.379V165.936Z" fill="#EBEBEB"/>
<path d="M174.439 164.55L180.613 165.922L185.732 142.889L179.558 141.517L174.439 164.55Z" fill="#EBEBEB"/>
<path d="M205.128 165.924H208.285V137.401H205.128V165.924Z" fill="#EBEBEB"/>
<path d="M167.53 165.924H170.687V137.401H167.53V165.924Z" fill="#EBEBEB"/>
<path d="M231.352 220.969H87.8682V228.339H231.352V220.969Z" fill="#E0E0E0"/>
<path d="M100.793 193.799H94.4678V220.969H100.793V193.799Z" fill="#EBEBEB"/>
<path d="M131.362 193.799H125.037V220.969H131.362V193.799Z" fill="#EBEBEB"/>
<path d="M166.066 193.113L159.833 194.188L164.448 220.963L170.681 219.888L166.066 193.113Z" fill="#EBEBEB"/>
<path d="M108.625 197.373H102.3V220.968H108.625V197.373Z" fill="#EBEBEB"/>
<path d="M123.156 197.373H116.831V220.968H123.156V197.373Z" fill="#EBEBEB"/>
<path d="M159.83 197.373H153.505V220.968H159.83V197.373Z" fill="#EBEBEB"/>
<path d="M139.673 196.548L133.499 197.92L138.618 220.953L144.792 219.581L139.673 196.548Z" fill="#EBEBEB"/>
<path d="M114.081 192.445H110.924V220.968H114.081V192.445Z" fill="#EBEBEB"/>
<path d="M151.679 192.445H148.522V220.968H151.679V192.445Z" fill="#EBEBEB"/>
<path d="M217.58 199.463H186.78V220.726H217.58V199.463Z" fill="#EBEBEB"/>
<path d="M380.237 154.066C392.102 154.066 401.72 144.447 401.72 132.583C401.72 120.718 392.102 111.1 380.237 111.1C368.372 111.1 358.754 120.718 358.754 132.583C358.754 144.447 368.372 154.066 380.237 154.066Z" fill="#E0E0E0"/>
<path d="M380.237 150.854C390.328 150.854 398.508 142.674 398.508 132.583C398.508 122.493 390.328 114.312 380.237 114.312C370.146 114.312 361.966 122.493 361.966 132.583C361.966 142.674 370.146 150.854 380.237 150.854Z" fill="#F0F0F0"/>
<path d="M379.379 120.055V132.826L370.909 128.03" fill="#F0F0F0"/>
<path d="M379.379 133.924C379.191 133.921 379.006 133.872 378.84 133.781L370.37 128.985C370.117 128.842 369.93 128.604 369.852 128.324C369.774 128.043 369.81 127.743 369.952 127.489C370.023 127.362 370.119 127.251 370.233 127.161C370.347 127.071 370.478 127.005 370.619 126.966C370.759 126.927 370.905 126.916 371.049 126.934C371.194 126.952 371.333 126.999 371.459 127.071L378.279 130.932V120.053C378.279 119.761 378.395 119.482 378.601 119.275C378.808 119.069 379.088 118.953 379.379 118.953C379.671 118.953 379.951 119.069 380.157 119.275C380.363 119.482 380.479 119.761 380.479 120.053V132.824C380.479 133.116 380.363 133.396 380.157 133.602C379.951 133.808 379.671 133.924 379.379 133.924Z" fill="#E0E0E0"/>
<path d="M275 470.316C392.79 470.316 488.279 464.741 488.279 457.864C488.279 450.987 392.79 445.412 275 445.412C157.209 445.412 61.7207 450.987 61.7207 457.864C61.7207 464.741 157.209 470.316 275 470.316Z" fill="#F5F5F5"/>
<path d="M464.761 140.447H245.839V347.731H464.761V140.447Z" fill="#106FA4"/>
<path opacity="0.7" d="M464.761 140.447H245.839V347.731H464.761V140.447Z" fill="white"/>
<path d="M464.761 140.447H245.839V150.996H464.761V140.447Z" fill="#106FA4"/>
<path opacity="0.2" d="M464.76 151.008H457.522V347.93H464.76V151.008Z" fill="black"/>
<path opacity="0.6" d="M461.549 155.672H460.889C459.868 155.672 459.041 156.499 459.041 157.52V181.258C459.041 182.278 459.868 183.106 460.889 183.106H461.549C462.57 183.106 463.397 182.278 463.397 181.258V157.52C463.397 156.499 462.57 155.672 461.549 155.672Z" fill="white"/>
<path opacity="0.2" d="M452.738 287.1H250.338C250.193 287.097 250.055 287.038 249.952 286.936C249.85 286.833 249.791 286.695 249.788 286.55C249.788 286.404 249.846 286.264 249.949 286.161C250.052 286.058 250.192 286 250.338 286H452.738C452.884 286 453.024 286.058 453.127 286.161C453.23 286.264 453.288 286.404 453.288 286.55C453.288 286.696 453.23 286.836 453.127 286.939C453.024 287.042 452.884 287.1 452.738 287.1Z" fill="black"/>
<path opacity="0.2" d="M452.738 239.799H250.338C250.193 239.796 250.055 239.738 249.952 239.635C249.85 239.532 249.791 239.394 249.788 239.249C249.788 239.103 249.846 238.963 249.949 238.86C250.052 238.757 250.192 238.699 250.338 238.699H452.738C452.884 238.699 453.024 238.757 453.127 238.86C453.23 238.963 453.288 239.103 453.288 239.249C453.288 239.395 453.23 239.535 453.127 239.638C453.024 239.741 452.884 239.799 452.738 239.799Z" fill="black"/>
<path d="M452.749 155.66H250.393V186.603H452.749V155.66Z" fill="#106FA4"/>
<path opacity="0.6" d="M462.241 145.727C462.241 146.251 462.086 146.764 461.795 147.2C461.503 147.636 461.089 147.976 460.605 148.176C460.121 148.377 459.588 148.43 459.073 148.327C458.559 148.225 458.087 147.972 457.716 147.602C457.345 147.231 457.093 146.759 456.99 146.244C456.888 145.73 456.941 145.197 457.141 144.713C457.342 144.228 457.682 143.814 458.118 143.523C458.554 143.232 459.066 143.076 459.59 143.076C460.294 143.076 460.968 143.355 461.465 143.853C461.962 144.35 462.241 145.024 462.241 145.727Z" fill="white"/>
<path opacity="0.6" d="M452.892 145.727C452.892 146.251 452.736 146.764 452.445 147.2C452.154 147.636 451.74 147.976 451.255 148.176C450.771 148.377 450.238 148.43 449.724 148.327C449.209 148.225 448.737 147.972 448.366 147.602C447.996 147.231 447.743 146.759 447.641 146.244C447.538 145.73 447.591 145.197 447.792 144.713C447.992 144.228 448.332 143.814 448.768 143.523C449.204 143.232 449.717 143.076 450.241 143.076C450.944 143.076 451.618 143.355 452.115 143.853C452.613 144.35 452.892 145.024 452.892 145.727Z" fill="white"/>
<path opacity="0.6" d="M443.542 145.727C443.542 146.251 443.387 146.764 443.095 147.2C442.804 147.636 442.39 147.976 441.906 148.176C441.421 148.377 440.888 148.43 440.374 148.327C439.86 148.225 439.387 147.972 439.017 147.602C438.646 147.231 438.393 146.759 438.291 146.244C438.189 145.73 438.241 145.197 438.442 144.713C438.643 144.228 438.982 143.814 439.418 143.523C439.854 143.232 440.367 143.076 440.891 143.076C441.594 143.076 442.269 143.355 442.766 143.853C443.263 144.35 443.542 145.024 443.542 145.727Z" fill="white"/>
<path opacity="0.4" d="M259.061 207.327C257.78 207.327 256.527 206.947 255.461 206.235C254.396 205.523 253.566 204.511 253.075 203.328C252.585 202.144 252.457 200.841 252.707 199.584C252.957 198.327 253.574 197.173 254.48 196.267C255.386 195.361 256.54 194.744 257.797 194.494C259.054 194.244 260.357 194.372 261.54 194.862C262.724 195.353 263.736 196.183 264.448 197.249C265.16 198.314 265.54 199.567 265.54 200.848C265.537 202.566 264.854 204.212 263.639 205.426C262.425 206.641 260.778 207.324 259.061 207.327Z" fill="black"/>
<path d="M259.852 198.385V203.302H258.752V199.298H257.773V198.385H259.852Z" fill="white"/>
<path opacity="0.4" d="M443.993 194.566H271.634C270.941 194.566 270.38 195.128 270.38 195.82V196.601C270.38 197.294 270.941 197.855 271.634 197.855H443.993C444.685 197.855 445.247 197.294 445.247 196.601V195.82C445.247 195.128 444.685 194.566 443.993 194.566Z" fill="black"/>
<path opacity="0.4" d="M443.993 203.115H271.634C270.941 203.115 270.38 203.677 270.38 204.369V205.15C270.38 205.843 270.941 206.404 271.634 206.404H443.993C444.685 206.404 445.247 205.843 445.247 205.15V204.369C445.247 203.677 444.685 203.115 443.993 203.115Z" fill="black"/>
<path opacity="0.4" d="M384.373 211.65H271.634C270.941 211.65 270.38 212.212 270.38 212.904V213.685C270.38 214.378 270.941 214.939 271.634 214.939H384.373C385.065 214.939 385.627 214.378 385.627 213.685V212.904C385.627 212.212 385.065 211.65 384.373 211.65Z" fill="black"/>
<path opacity="0.2" d="M273.394 231.043C275.052 231.043 276.397 229.699 276.397 228.04C276.397 226.382 275.052 225.037 273.394 225.037C271.735 225.037 270.391 226.382 270.391 228.04C270.391 229.699 271.735 231.043 273.394 231.043Z" fill="black"/>
<path d="M275.462 228.041C275.464 228.453 275.344 228.856 275.116 229.2C274.888 229.543 274.564 229.812 274.183 229.97C273.803 230.129 273.384 230.171 272.98 230.091C272.576 230.011 272.204 229.813 271.913 229.522C271.621 229.23 271.423 228.859 271.343 228.455C271.263 228.05 271.305 227.631 271.464 227.251C271.623 226.871 271.891 226.546 272.235 226.318C272.578 226.091 272.982 225.971 273.394 225.973C273.942 225.973 274.468 226.191 274.856 226.578C275.244 226.966 275.462 227.492 275.462 228.041Z" fill="white"/>
<path opacity="0.4" d="M312.312 226.4H283.206C282.514 226.4 281.952 226.962 281.952 227.654V228.435C281.952 229.128 282.514 229.689 283.206 229.689H312.312C313.005 229.689 313.566 229.128 313.566 228.435V227.654C313.566 226.962 313.005 226.4 312.312 226.4Z" fill="black"/>
<path opacity="0.2" d="M337.414 227.974C337.414 228.568 337.238 229.148 336.908 229.642C336.578 230.136 336.109 230.521 335.56 230.748C335.012 230.975 334.408 231.035 333.825 230.919C333.243 230.803 332.708 230.517 332.288 230.097C331.868 229.677 331.582 229.142 331.466 228.56C331.35 227.977 331.41 227.373 331.637 226.825C331.864 226.276 332.249 225.807 332.743 225.477C333.237 225.147 333.817 224.971 334.411 224.971C335.208 224.971 335.971 225.287 336.535 225.85C337.098 226.413 337.414 227.177 337.414 227.974Z" fill="black"/>
<path d="M336.49 227.974C336.492 228.386 336.372 228.789 336.145 229.132C335.918 229.476 335.594 229.744 335.214 229.903C334.835 230.062 334.416 230.105 334.012 230.026C333.608 229.947 333.237 229.75 332.945 229.459C332.653 229.169 332.454 228.798 332.373 228.395C332.292 227.991 332.332 227.573 332.489 227.192C332.646 226.812 332.913 226.486 333.255 226.257C333.597 226.028 333.999 225.906 334.411 225.906C334.961 225.906 335.488 226.124 335.877 226.511C336.267 226.899 336.487 227.425 336.49 227.974Z" fill="#106FA4"/>
<path opacity="0.4" d="M373.351 226.336H344.234C343.541 226.336 342.979 226.897 342.979 227.59V228.371C342.979 229.064 343.541 229.625 344.234 229.625H373.351C374.043 229.625 374.604 229.064 374.604 228.371V227.59C374.604 226.897 374.043 226.336 373.351 226.336Z" fill="black"/>
<path opacity="0.2" d="M398.442 227.909C398.442 228.503 398.265 229.084 397.935 229.578C397.605 230.071 397.136 230.456 396.588 230.684C396.039 230.911 395.435 230.97 394.853 230.855C394.27 230.739 393.735 230.453 393.315 230.033C392.895 229.613 392.609 229.078 392.493 228.495C392.377 227.913 392.437 227.309 392.664 226.76C392.891 226.211 393.276 225.742 393.77 225.412C394.264 225.082 394.845 224.906 395.439 224.906C396.235 224.906 396.999 225.223 397.562 225.786C398.125 226.349 398.442 227.113 398.442 227.909Z" fill="black"/>
<path d="M397.517 227.909C397.517 228.32 397.395 228.722 397.167 229.064C396.939 229.406 396.614 229.672 396.234 229.83C395.854 229.987 395.436 230.028 395.033 229.948C394.629 229.868 394.259 229.67 393.968 229.379C393.678 229.088 393.48 228.718 393.399 228.315C393.319 227.911 393.36 227.493 393.518 227.113C393.675 226.734 393.941 226.409 394.283 226.18C394.625 225.952 395.027 225.83 395.438 225.83C395.99 225.83 396.519 226.049 396.908 226.439C397.298 226.829 397.517 227.358 397.517 227.909Z" fill="white"/>
<path opacity="0.4" d="M434.368 226.258H405.262C404.569 226.258 404.008 226.819 404.008 227.512V228.293C404.008 228.985 404.569 229.547 405.262 229.547H434.368C435.06 229.547 435.622 228.985 435.622 228.293V227.512C435.622 226.819 435.06 226.258 434.368 226.258Z" fill="black"/>
<path opacity="0.4" d="M259.061 262.13C262.639 262.13 265.54 259.229 265.54 255.651C265.54 252.073 262.639 249.172 259.061 249.172C255.483 249.172 252.582 252.073 252.582 255.651C252.582 259.229 255.483 262.13 259.061 262.13Z" fill="black"/>
<path d="M260.931 257.224V258.148H257.224V257.4L259.116 255.607C259.556 255.189 259.633 254.936 259.633 254.705C259.633 254.474 259.369 254.089 258.841 254.089C258.645 254.082 258.45 254.124 258.273 254.21C258.097 254.296 257.944 254.425 257.829 254.584L257.004 254.045C257.229 253.745 257.524 253.505 257.863 253.345C258.203 253.186 258.576 253.113 258.951 253.132C260.051 253.132 260.777 253.693 260.777 254.584C260.771 254.889 260.693 255.188 260.549 255.458C260.406 255.727 260.201 255.959 259.952 256.135L258.852 257.235L260.931 257.224Z" fill="white"/>
<path opacity="0.4" d="M443.993 249.402H271.634C270.941 249.402 270.38 249.964 270.38 250.656V251.437C270.38 252.13 270.941 252.691 271.634 252.691H443.993C444.685 252.691 445.247 252.13 445.247 251.437V250.656C445.247 249.964 444.685 249.402 443.993 249.402Z" fill="black"/>
<path opacity="0.4" d="M304.392 257.938H271.634C270.941 257.938 270.38 258.499 270.38 259.191V259.972C270.38 260.665 270.941 261.226 271.634 261.226H304.392C305.084 261.226 305.646 260.665 305.646 259.972V259.191C305.646 258.499 305.084 257.938 304.392 257.938Z" fill="black"/>
<path opacity="0.2" d="M273.394 277.199C275.052 277.199 276.397 275.855 276.397 274.196C276.397 272.538 275.052 271.193 273.394 271.193C271.735 271.193 270.391 272.538 270.391 274.196C270.391 275.855 271.735 277.199 273.394 277.199Z" fill="black"/>
<path d="M273.393 276.275C274.542 276.275 275.472 275.344 275.472 274.196C275.472 273.048 274.542 272.117 273.393 272.117C272.245 272.117 271.314 273.048 271.314 274.196C271.314 275.344 272.245 276.275 273.393 276.275Z" fill="white"/>
<path opacity="0.4" d="M312.312 272.557H283.206C282.514 272.557 281.952 273.118 281.952 273.811V274.592C281.952 275.284 282.514 275.846 283.206 275.846H312.312C313.005 275.846 313.566 275.284 313.566 274.592V273.811C313.566 273.118 313.005 272.557 312.312 272.557Z" fill="black"/>
<path opacity="0.2" d="M334.411 277.133C336.07 277.133 337.414 275.788 337.414 274.13C337.414 272.471 336.07 271.127 334.411 271.127C332.753 271.127 331.408 272.471 331.408 274.13C331.408 275.788 332.753 277.133 334.411 277.133Z" fill="black"/>
<path d="M334.411 276.209C335.559 276.209 336.49 275.278 336.49 274.13C336.49 272.982 335.559 272.051 334.411 272.051C333.263 272.051 332.332 272.982 332.332 274.13C332.332 275.278 333.263 276.209 334.411 276.209Z" fill="white"/>
<path opacity="0.4" d="M373.351 272.48H344.234C343.541 272.48 342.979 273.042 342.979 273.734V274.515C342.979 275.208 343.541 275.769 344.234 275.769H373.351C374.043 275.769 374.604 275.208 374.604 274.515V273.734C374.604 273.042 374.043 272.48 373.351 272.48Z" fill="black"/>
<path opacity="0.2" d="M398.442 274.064C398.442 274.657 398.265 275.238 397.935 275.732C397.605 276.226 397.136 276.611 396.588 276.838C396.039 277.065 395.435 277.125 394.853 277.009C394.27 276.893 393.735 276.607 393.315 276.187C392.895 275.767 392.609 275.232 392.493 274.649C392.377 274.067 392.437 273.463 392.664 272.914C392.891 272.366 393.276 271.897 393.77 271.567C394.264 271.237 394.845 271.061 395.439 271.061C396.235 271.061 396.999 271.377 397.562 271.94C398.125 272.503 398.442 273.267 398.442 274.064Z" fill="black"/>
<path d="M397.517 274.063C397.517 274.475 397.395 274.877 397.167 275.218C396.939 275.56 396.614 275.827 396.234 275.984C395.854 276.141 395.436 276.183 395.033 276.102C394.629 276.022 394.259 275.824 393.968 275.533C393.678 275.243 393.48 274.872 393.399 274.469C393.319 274.066 393.36 273.648 393.518 273.268C393.675 272.888 393.941 272.563 394.283 272.335C394.625 272.106 395.027 271.984 395.438 271.984C395.99 271.984 396.519 272.203 396.908 272.593C397.298 272.983 397.517 273.512 397.517 274.063Z" fill="#106FA4"/>
<path opacity="0.4" d="M434.368 272.414H405.262C404.569 272.414 404.008 272.975 404.008 273.668V274.449C404.008 275.142 404.569 275.703 405.262 275.703H434.368C435.06 275.703 435.622 275.142 435.622 274.449V273.668C435.622 272.975 435.06 272.414 434.368 272.414Z" fill="black"/>
<path opacity="0.4" d="M259.061 309.716C257.78 309.716 256.527 309.336 255.461 308.624C254.396 307.912 253.566 306.9 253.075 305.716C252.585 304.532 252.457 303.23 252.707 301.973C252.957 300.716 253.574 299.562 254.48 298.655C255.386 297.749 256.54 297.132 257.797 296.882C259.054 296.632 260.357 296.761 261.54 297.251C262.724 297.741 263.736 298.572 264.448 299.637C265.16 300.703 265.54 301.955 265.54 303.237C265.54 304.955 264.857 306.603 263.642 307.818C262.427 309.033 260.779 309.716 259.061 309.716Z" fill="black"/>
<path d="M260.886 304.149C260.886 304.974 260.248 305.733 258.851 305.733C258.189 305.749 257.538 305.565 256.981 305.205L257.421 304.336C257.83 304.624 258.319 304.777 258.818 304.776C259.39 304.776 259.742 304.545 259.742 304.149C259.742 303.753 259.467 303.544 258.818 303.544H258.301V302.796L259.313 301.696H257.223V300.783H260.699V301.52L259.599 302.785C259.946 302.81 260.27 302.964 260.509 303.216C260.747 303.469 260.882 303.802 260.886 304.149Z" fill="white"/>
<path opacity="0.4" d="M443.993 296.943H271.634C270.941 296.943 270.38 297.505 270.38 298.197V298.978C270.38 299.671 270.941 300.232 271.634 300.232H443.993C444.685 300.232 445.247 299.671 445.247 298.978V298.197C445.247 297.505 444.685 296.943 443.993 296.943Z" fill="black"/>
<path opacity="0.4" d="M443.993 305.48H271.634C270.941 305.48 270.38 306.042 270.38 306.734V307.515C270.38 308.208 270.941 308.769 271.634 308.769H443.993C444.685 308.769 445.247 308.208 445.247 307.515V306.734C445.247 306.042 444.685 305.48 443.993 305.48Z" fill="black"/>
<path opacity="0.4" d="M357.973 314.027H271.634C270.941 314.027 270.38 314.589 270.38 315.281V316.062C270.38 316.755 270.941 317.316 271.634 317.316H357.973C358.665 317.316 359.227 316.755 359.227 316.062V315.281C359.227 314.589 358.665 314.027 357.973 314.027Z" fill="black"/>
<path opacity="0.4" d="M336.974 327.623H331.848C331.605 327.623 331.408 327.82 331.408 328.063V333.189C331.408 333.432 331.605 333.629 331.848 333.629H336.974C337.217 333.629 337.414 333.432 337.414 333.189V328.063C337.414 327.82 337.217 327.623 336.974 327.623Z" fill="black"/>
<path d="M336.699 332.915V328.35H332.134V332.915H336.699Z" fill="white"/>
<path opacity="0.4" d="M373.351 328.986H344.234C343.541 328.986 342.979 329.548 342.979 330.24V331.021C342.979 331.714 343.541 332.275 344.234 332.275H373.351C374.043 332.275 374.604 331.714 374.604 331.021V330.24C374.604 329.548 374.043 328.986 373.351 328.986Z" fill="black"/>
<path d="M334.168 331.946C334.134 331.947 334.099 331.941 334.067 331.927C334.035 331.914 334.006 331.894 333.981 331.869L332.881 330.835C332.83 330.782 332.802 330.711 332.802 330.637C332.802 330.564 332.83 330.493 332.881 330.439C332.907 330.413 332.938 330.392 332.972 330.377C333.006 330.363 333.042 330.355 333.079 330.355C333.116 330.355 333.153 330.363 333.187 330.377C333.221 330.392 333.252 330.413 333.277 330.439L334.212 331.286L335.807 329.394C335.854 329.338 335.921 329.302 335.995 329.294C336.068 329.287 336.141 329.309 336.198 329.356C336.255 329.403 336.291 329.47 336.298 329.543C336.305 329.616 336.283 329.69 336.236 329.746L334.399 331.847C334.351 331.901 334.284 331.937 334.212 331.946H334.168Z" fill="#106FA4"/>
<path opacity="0.4" d="M398.002 327.557H392.876C392.633 327.557 392.436 327.754 392.436 327.997V333.123C392.436 333.366 392.633 333.563 392.876 333.563H398.002C398.245 333.563 398.442 333.366 398.442 333.123V327.997C398.442 327.754 398.245 327.557 398.002 327.557Z" fill="black"/>
<path d="M397.716 332.848V328.283H393.151V332.848H397.716Z" fill="white"/>
<path opacity="0.4" d="M434.368 328.91H405.262C404.569 328.91 404.008 329.472 404.008 330.164V330.945C404.008 331.638 404.569 332.199 405.262 332.199H434.368C435.06 332.199 435.622 331.638 435.622 330.945V330.164C435.622 329.472 435.06 328.91 434.368 328.91Z" fill="black"/>
<path d="M395.197 331.881C395.127 331.877 395.062 331.85 395.01 331.804L393.91 330.759C393.878 330.736 393.851 330.707 393.831 330.673C393.811 330.639 393.799 330.601 393.795 330.562C393.791 330.523 393.796 330.483 393.809 330.446C393.821 330.409 393.842 330.375 393.869 330.346C393.896 330.318 393.929 330.295 393.965 330.28C394.002 330.265 394.041 330.259 394.08 330.26C394.12 330.262 394.158 330.272 394.193 330.29C394.228 330.307 394.259 330.332 394.284 330.363L395.208 331.21L396.814 329.318C396.835 329.286 396.863 329.258 396.896 329.238C396.929 329.217 396.965 329.204 397.004 329.198C397.042 329.193 397.081 329.195 397.118 329.206C397.156 329.217 397.19 329.235 397.22 329.26C397.249 329.285 397.273 329.316 397.29 329.351C397.307 329.386 397.316 329.424 397.318 329.462C397.319 329.501 397.312 329.54 397.297 329.575C397.282 329.611 397.26 329.644 397.232 329.67L395.45 331.782C395.397 331.836 395.327 331.871 395.252 331.881H395.197Z" fill="#106FA4"/>
<path opacity="0.4" d="M275.946 327.689H270.82C270.577 327.689 270.38 327.886 270.38 328.129V333.255C270.38 333.498 270.577 333.695 270.82 333.695H275.946C276.189 333.695 276.386 333.498 276.386 333.255V328.129C276.386 327.886 276.189 327.689 275.946 327.689Z" fill="black"/>
<path d="M275.671 332.981V328.416H271.106V332.981H275.671Z" fill="white"/>
<path opacity="0.4" d="M312.312 329.053H283.206C282.514 329.053 281.952 329.614 281.952 330.307V331.088C281.952 331.78 282.514 332.342 283.206 332.342H312.312C313.005 332.342 313.566 331.78 313.566 331.088V330.307C313.566 329.614 313.005 329.053 312.312 329.053Z" fill="black"/>
<path d="M260.095 170.146C260.046 169.304 260.252 168.467 260.685 167.742C261.118 167.018 261.758 166.441 262.523 166.085C263.288 165.729 264.143 165.611 264.975 165.746C265.808 165.881 266.581 166.263 267.195 166.842C267.808 167.422 268.233 168.172 268.415 168.996C268.597 169.82 268.527 170.68 268.215 171.463C267.903 172.247 267.362 172.919 266.664 173.392C265.965 173.866 265.141 174.118 264.297 174.117C263.756 174.149 263.215 174.07 262.706 173.884C262.197 173.699 261.732 173.411 261.338 173.039C260.945 172.667 260.631 172.219 260.418 171.721C260.204 171.224 260.094 170.688 260.095 170.146ZM266.695 170.146C266.686 169.672 266.538 169.211 266.268 168.82C265.998 168.43 265.619 168.128 265.178 167.952C264.737 167.777 264.254 167.735 263.789 167.833C263.325 167.931 262.9 168.164 262.567 168.502C262.235 168.841 262.01 169.27 261.92 169.736C261.831 170.202 261.881 170.685 262.065 171.122C262.248 171.56 262.557 171.933 262.952 172.196C263.347 172.459 263.811 172.599 264.286 172.599C264.609 172.609 264.931 172.551 265.231 172.431C265.531 172.311 265.803 172.13 266.03 171.9C266.257 171.669 266.434 171.395 266.55 171.093C266.667 170.792 266.72 170.469 266.706 170.146H266.695Z" fill="white"/>
<path d="M275.748 170.609V173.986H274.043V170.873C274.043 169.916 273.603 169.476 272.844 169.476C272.085 169.476 271.425 169.982 271.425 171.071V173.986H269.72V168.079H271.348V168.772C271.601 168.513 271.907 168.309 272.244 168.174C272.581 168.04 272.943 167.977 273.306 167.991C273.648 167.969 273.99 168.022 274.309 168.148C274.628 168.275 274.914 168.47 275.148 168.721C275.382 168.971 275.557 169.271 275.661 169.597C275.764 169.924 275.794 170.27 275.748 170.609Z" fill="white"/>
<path d="M277.299 165.846H279.004V173.986H277.299V165.846Z" fill="white"/>
<path d="M280.39 166.308C280.392 166.17 280.423 166.034 280.481 165.91C280.539 165.785 280.622 165.674 280.726 165.584C280.83 165.493 280.951 165.426 281.083 165.386C281.215 165.346 281.353 165.334 281.49 165.351C281.624 165.33 281.761 165.339 281.892 165.376C282.023 165.412 282.144 165.477 282.248 165.564C282.353 165.651 282.437 165.76 282.496 165.883C282.554 166.005 282.586 166.139 282.59 166.275C282.526 166.508 282.388 166.713 282.196 166.86C282.004 167.007 281.77 167.086 281.528 167.086C281.287 167.086 281.052 167.007 280.86 166.86C280.668 166.713 280.53 166.508 280.467 166.275L280.39 166.308ZM280.599 168.079H282.315V173.986H280.599V168.079Z" fill="white"/>
<path d="M289.938 170.609V173.986H288.2V170.873C288.2 169.916 287.76 169.476 287.001 169.476C286.242 169.476 285.593 169.982 285.593 171.071V173.986H283.877V168.079H285.516V168.772C285.767 168.512 286.07 168.308 286.406 168.173C286.741 168.038 287.102 167.976 287.463 167.991C287.807 167.965 288.153 168.016 288.475 168.141C288.796 168.265 289.086 168.46 289.323 168.711C289.561 168.962 289.739 169.262 289.845 169.591C289.951 169.919 289.983 170.267 289.938 170.609Z" fill="white"/>
<path d="M297.297 171.523H292.831C292.922 171.889 293.142 172.211 293.452 172.427C293.761 172.643 294.138 172.74 294.514 172.7C294.786 172.71 295.058 172.666 295.313 172.569C295.568 172.473 295.801 172.327 295.999 172.139L296.912 173.118C296.599 173.446 296.219 173.702 295.797 173.867C295.375 174.033 294.922 174.103 294.47 174.075C294.045 174.116 293.617 174.069 293.212 173.935C292.807 173.801 292.434 173.585 292.117 173.299C291.8 173.014 291.547 172.665 291.372 172.276C291.198 171.887 291.106 171.465 291.104 171.039C291.099 170.628 291.178 170.22 291.336 169.841C291.495 169.462 291.729 169.119 292.024 168.834C292.32 168.549 292.671 168.327 293.056 168.182C293.44 168.037 293.85 167.972 294.261 167.992C294.669 167.971 295.077 168.037 295.459 168.184C295.841 168.331 296.187 168.556 296.476 168.845C296.766 169.134 296.991 169.481 297.138 169.863C297.285 170.244 297.35 170.653 297.33 171.061C297.33 171.193 297.308 171.38 297.297 171.523ZM292.809 170.522H295.713C295.653 170.18 295.475 169.87 295.209 169.647C294.943 169.424 294.608 169.302 294.261 169.302C293.914 169.302 293.578 169.424 293.312 169.647C293.047 169.87 292.868 170.18 292.809 170.522Z" fill="white"/>
<path d="M303.281 167.75H300.828V166.309H307.516V167.75H305.063V173.987H303.281V167.75Z" fill="white"/>
<path d="M313.5 171.522H309.034C309.125 171.888 309.345 172.209 309.655 172.426C309.964 172.642 310.341 172.739 310.717 172.699C310.989 172.709 311.261 172.664 311.516 172.568C311.771 172.472 312.004 172.325 312.202 172.138L313.115 173.117C312.802 173.445 312.422 173.701 312 173.866C311.578 174.031 311.125 174.102 310.673 174.074C310.248 174.115 309.82 174.067 309.415 173.934C309.01 173.8 308.637 173.584 308.32 173.298C308.004 173.012 307.75 172.664 307.575 172.275C307.401 171.885 307.309 171.464 307.307 171.038C307.302 170.628 307.381 170.221 307.538 169.843C307.696 169.464 307.929 169.122 308.224 168.837C308.518 168.551 308.868 168.329 309.251 168.184C309.634 168.038 310.043 167.973 310.453 167.991C310.862 167.968 311.272 168.033 311.655 168.179C312.038 168.325 312.385 168.55 312.676 168.84C312.966 169.129 313.193 169.476 313.34 169.859C313.488 170.241 313.553 170.65 313.533 171.06C313.5 171.192 313.5 171.379 313.5 171.522ZM309.012 170.521H311.916C311.856 170.179 311.678 169.869 311.412 169.646C311.147 169.423 310.811 169.3 310.464 169.3C310.117 169.3 309.781 169.423 309.516 169.646C309.25 169.869 309.072 170.179 309.012 170.521Z" fill="white"/>
<path d="M314.094 173.436L314.666 172.215C315.291 172.578 316 172.771 316.723 172.776C317.515 172.776 317.823 172.567 317.823 172.248C317.823 171.28 314.248 172.248 314.248 169.905C314.248 168.805 315.26 167.991 316.987 167.991C317.773 167.976 318.551 168.153 319.253 168.508L318.681 169.729C318.166 169.433 317.581 169.281 316.987 169.289C316.217 169.289 315.887 169.531 315.887 169.839C315.887 170.851 319.451 169.839 319.451 172.204C319.451 173.304 318.428 174.074 316.668 174.074C315.768 174.093 314.88 173.873 314.094 173.436Z" fill="white"/>
<path d="M324.302 173.7C323.884 173.962 323.398 174.093 322.905 174.074C322.614 174.116 322.317 174.091 322.038 174.001C321.758 173.91 321.502 173.758 321.29 173.554C321.078 173.351 320.915 173.102 320.814 172.826C320.713 172.55 320.675 172.255 320.705 171.962V169.531H319.792V168.211H320.705V166.781H322.41V168.211H323.884V169.531H322.41V171.94C322.396 172.042 322.406 172.145 322.437 172.242C322.469 172.34 322.522 172.429 322.593 172.503C322.664 172.577 322.751 172.634 322.846 172.67C322.942 172.706 323.045 172.719 323.147 172.71C323.396 172.713 323.639 172.636 323.84 172.49L324.302 173.7Z" fill="white"/>
<path d="M440.973 177.424C444.38 174.017 444.38 168.494 440.973 165.088C437.566 161.681 432.043 161.681 428.637 165.088C425.23 168.494 425.23 174.017 428.637 177.424C432.043 180.83 437.566 180.831 440.973 177.424Z" fill="white"/>
<path opacity="0.2" d="M442.53 167.2L434.83 171.27V162.547C436.415 162.55 437.97 162.984 439.326 163.804C440.683 164.624 441.79 165.798 442.53 167.2Z" fill="black"/>
<path d="M418.429 439.759C418.429 439.759 423.181 417.286 414.524 405.12C405.867 392.954 422.345 404.977 424.248 416.373C424.248 416.373 427.086 396.001 418.682 381.679C410.278 367.357 425.997 379.105 427.339 393.878C427.339 393.878 429.913 375.706 426.052 365.487C422.191 355.268 428.901 361.846 431.486 368.248C434.071 374.65 430.683 390.501 430.683 390.501C430.683 390.501 437.415 361.186 443.795 363.518C450.175 365.85 434.258 385.056 432.058 395.044C432.058 395.044 439.571 381.602 445.258 384.407C450.945 387.212 436.458 388.598 429.77 408.607L427.449 418.001C427.449 418.001 434.368 404.735 438.889 408.926C443.41 413.117 425.48 420.333 421.289 440.441L418.429 439.759Z" fill="#263238"/>
<path d="M419.364 441.1C419.364 441.1 420.354 412.775 434.357 400.785C448.36 388.795 425.029 398.288 419.364 411.367C419.364 411.367 422.026 386.122 436.348 371.459C450.67 356.796 428.351 366.212 422.356 383.493C422.356 383.493 424.688 360.965 432.355 349.888C440.022 338.811 430.023 344.663 425.029 351.56C420.035 358.457 419.364 378.4 419.364 378.4C419.364 378.4 420.024 341.286 411.664 342.188C403.304 343.09 416.658 370.788 416.328 383.438C416.328 383.438 411.323 365.101 403.667 366.751C396.011 368.401 412.995 374.451 414.997 400.389V412.346C414.997 412.346 410.663 394.394 403.997 398.046C397.331 401.698 416.658 415.712 415.657 441.034L419.364 441.1Z" fill="#263238"/>
<path opacity="0.2" d="M419.364 441.1C419.364 441.1 420.354 412.775 434.357 400.785C448.36 388.795 425.029 398.288 419.364 411.367C419.364 411.367 422.026 386.122 436.348 371.459C450.67 356.796 428.351 366.212 422.356 383.493C422.356 383.493 424.688 360.965 432.355 349.888C440.022 338.811 430.023 344.663 425.029 351.56C420.035 358.457 419.364 378.4 419.364 378.4C419.364 378.4 420.024 341.286 411.664 342.188C403.304 343.09 416.658 370.788 416.328 383.438C416.328 383.438 411.323 365.101 403.667 366.751C396.011 368.401 412.995 374.451 414.997 400.389V412.346C414.997 412.346 410.663 394.394 403.997 398.046C397.331 401.698 416.658 415.712 415.657 441.034L419.364 441.1Z" fill="white"/>
<path d="M426.272 461H409.31C406.101 461 403.024 459.725 400.754 457.456C398.485 455.187 397.21 452.109 397.21 448.9V446.623H438.361V448.9C438.361 452.107 437.088 455.183 434.821 457.452C432.554 459.721 429.48 460.997 426.272 461Z" fill="#106FA4"/>
<path d="M396.462 451.188H439.12C441.678 451.188 443.751 449.114 443.751 446.557V442.949C443.751 440.391 441.678 438.317 439.12 438.317H396.462C393.904 438.317 391.831 440.391 391.831 442.949V446.557C391.831 449.114 393.904 451.188 396.462 451.188Z" fill="#106FA4"/>
<path opacity="0.2" d="M396.462 451.188H439.12C441.678 451.188 443.751 449.114 443.751 446.557V442.949C443.751 440.391 441.678 438.317 439.12 438.317H396.462C393.904 438.317 391.831 440.391 391.831 442.949V446.557C391.831 449.114 393.904 451.188 396.462 451.188Z" fill="white"/>
<path d="M188.881 306.317C188.728 306.635 188.661 306.988 188.689 307.34C188.716 307.692 188.837 308.03 189.039 308.32C189.24 308.61 189.515 308.841 189.835 308.99C190.156 309.139 190.51 309.199 190.861 309.166H242.957C243.823 309.124 244.659 308.833 245.363 308.328C246.068 307.822 246.611 307.124 246.928 306.317L257.928 274.527C258.038 274.231 258.094 273.918 258.093 273.603C258.092 273.332 258.033 273.064 257.922 272.816C257.811 272.569 257.649 272.347 257.447 272.166C257.245 271.985 257.007 271.848 256.749 271.764C256.491 271.68 256.218 271.65 255.948 271.678H203.885C203.019 271.72 202.184 272.011 201.479 272.516C200.775 273.022 200.231 273.72 199.914 274.527L188.881 306.317Z" fill="#263238"/>
<path d="M243.354 307.571C243.778 307.552 244.188 307.409 244.534 307.161C244.88 306.913 245.146 306.571 245.301 306.174L256.301 274.384C256.347 274.258 256.369 274.123 256.367 273.988C256.367 273.548 256.048 273.273 255.542 273.273H203.501C203.076 273.293 202.666 273.436 202.32 273.684C201.975 273.932 201.708 274.274 201.554 274.67L190.554 306.46C190.497 306.589 190.473 306.729 190.483 306.869C190.492 307.009 190.535 307.144 190.609 307.263C190.691 307.37 190.798 307.453 190.921 307.507C191.044 307.561 191.179 307.583 191.313 307.571H243.354Z" fill="#106FA4"/>
<path opacity="0.8" d="M243.354 307.571C243.778 307.552 244.188 307.409 244.534 307.161C244.88 306.913 245.146 306.571 245.301 306.174L256.301 274.384C256.347 274.258 256.369 274.123 256.367 273.988C256.367 273.548 256.048 273.273 255.542 273.273H203.501C203.076 273.293 202.666 273.436 202.32 273.684C201.975 273.932 201.708 274.274 201.554 274.67L190.554 306.46C190.497 306.589 190.473 306.729 190.483 306.869C190.492 307.009 190.535 307.144 190.609 307.263C190.691 307.37 190.798 307.453 190.921 307.507C191.044 307.561 191.179 307.583 191.313 307.571H243.354Z" fill="white"/>
<path d="M166.584 306.812V308.275L176.902 310.926H242.715C243.202 310.926 243.669 310.733 244.014 310.388C244.358 310.044 244.552 309.577 244.552 309.089V306.812H166.584Z" fill="#263238"/>
<path opacity="0.2" d="M221.65 306.812V308.275L231.979 310.926H176.902L166.584 308.275V306.812H221.65Z" fill="white"/>
<g opacity="0.2">
<path d="M253.022 280.742H200.365L202.411 275H255.068L253.022 280.742Z" fill="#106FA4"/>
</g>
<g opacity="0.1">
<path d="M250.382 288.134H197.725C197.571 288.134 197.494 288.013 197.549 287.848C197.579 287.771 197.63 287.703 197.696 287.653C197.762 287.602 197.84 287.571 197.923 287.562H250.591C250.734 287.562 250.811 287.694 250.756 287.848C250.73 287.928 250.68 287.998 250.613 288.049C250.546 288.1 250.466 288.13 250.382 288.134Z" fill="black"/>
</g>
<g opacity="0.1">
<path d="M247.5 296.197H194.843C194.689 296.197 194.612 296.065 194.667 295.911C194.698 295.832 194.75 295.763 194.818 295.713C194.887 295.662 194.968 295.632 195.052 295.625H247.709C247.863 295.625 247.94 295.746 247.885 295.911C247.854 295.99 247.802 296.059 247.734 296.109C247.666 296.16 247.585 296.19 247.5 296.197Z" fill="black"/>
</g>
<g opacity="0.1">
<path d="M244.629 304.261H191.972C191.818 304.261 191.741 304.129 191.796 303.975C191.822 303.894 191.871 303.822 191.938 303.769C192.004 303.716 192.085 303.685 192.17 303.678H244.827C244.981 303.678 245.058 303.81 245.003 303.975C244.974 304.053 244.924 304.121 244.858 304.172C244.791 304.223 244.712 304.253 244.629 304.261Z" fill="black"/>
</g>
<path d="M227.117 460.867H232.848L243.155 317.383H235.543L227.117 460.867Z" fill="#263238"/>
<path opacity="0.2" d="M227.106 460.866H232.848L242.649 324.51L243.155 317.613H235.543L235.136 324.51L227.106 460.866Z" fill="white"/>
<path opacity="0.2" d="M235.137 324.169H242.65L243.156 317.613H235.544L235.137 324.169Z" fill="black"/>
<path d="M185.02 460.867H190.751L191.686 317.383H184.085L185.02 460.867Z" fill="#263238"/>
<path opacity="0.3" d="M184.074 317.613L184.228 340.757L185.009 460.866H190.751L191.543 340.757L191.686 317.613H184.074Z" fill="white"/>
<path opacity="0.2" d="M184.074 317.613L184.228 341.021H191.543L191.686 317.613H184.074Z" fill="black"/>
<path d="M124.124 460.867H129.855L140.162 317.383H132.55L124.124 460.867Z" fill="#263238"/>
<path opacity="0.3" d="M124.124 460.866H129.855L139.667 324.51L140.162 317.613H132.55L132.143 324.51L124.124 460.866Z" fill="white"/>
<path opacity="0.2" d="M132.144 324.169H139.668L140.163 317.613H132.551L132.144 324.169Z" fill="black"/>
<path d="M292.733 460.867H298.464L290.038 317.383H282.426L292.733 460.867Z" fill="#263238"/>
<path opacity="0.3" d="M282.426 317.613L282.932 324.51L292.733 460.866H298.464L290.445 324.51L290.038 317.613H282.426Z" fill="white"/>
<path opacity="0.2" d="M290.038 317.613H282.426L282.932 324.169H290.445L290.038 317.613Z" fill="black"/>
<path d="M293.689 320.98H128.887C128.575 320.98 128.266 320.919 127.978 320.8C127.689 320.68 127.427 320.505 127.207 320.284C126.986 320.064 126.811 319.802 126.692 319.514C126.572 319.225 126.511 318.916 126.511 318.604V313.797H296.087V318.604C296.087 318.918 296.025 319.229 295.904 319.519C295.783 319.808 295.606 320.071 295.383 320.292C295.16 320.513 294.896 320.688 294.605 320.806C294.314 320.924 294.003 320.983 293.689 320.98Z" fill="#106FA4"/>
<path opacity="0.2" d="M126.522 317.383H296.065V313.786H126.522V317.383Z" fill="black"/>
<path d="M122.969 314.722H299.618C300.155 314.722 300.67 314.509 301.05 314.129C301.429 313.749 301.642 313.235 301.642 312.698C301.642 312.161 301.429 311.646 301.05 311.267C300.67 310.887 300.155 310.674 299.618 310.674H122.969C122.433 310.674 121.918 310.887 121.538 311.267C121.159 311.646 120.945 312.161 120.945 312.698C120.945 313.235 121.159 313.749 121.538 314.129C121.918 314.509 122.433 314.722 122.969 314.722Z" fill="#106FA4"/>
<path d="M293.975 305.58C294.052 307.327 293.733 309.068 293.04 310.673H252.791V309.716H253.605V301.4H252.791V300.443H293.04C293.729 302.065 294.048 303.82 293.975 305.58Z" fill="#263238"/>
<path opacity="0.2" d="M293.975 305.58C294.052 307.327 293.733 309.068 293.04 310.673H252.791V309.716H253.605V301.4H252.791V300.443H293.04C293.729 302.065 294.048 303.82 293.975 305.58Z" fill="white"/>
<path opacity="0.2" d="M272.438 305.58C272.515 307.327 272.195 309.068 271.503 310.673H252.803V309.716H253.617V301.4H252.803V300.443H271.503C272.191 302.065 272.511 303.82 272.438 305.58Z" fill="black"/>
<path opacity="0.8" d="M270.457 305.58C270.521 306.999 270.261 308.413 269.698 309.716H253.605V301.4H269.698C270.257 302.721 270.516 304.148 270.457 305.58Z" fill="white"/>
<path opacity="0.6" d="M287.419 305.581C287.497 307.327 287.177 309.068 286.484 310.674H278.993C279.686 309.068 280.006 307.327 279.928 305.581C279.996 303.831 279.677 302.088 278.993 300.477H286.484C287.168 302.088 287.487 303.831 287.419 305.581Z" fill="white"/>
<path d="M297.561 295.383C297.638 297.13 297.319 298.871 296.626 300.476H256.377V299.519H257.191V291.236H256.377V290.279H296.626C297.308 291.892 297.627 293.634 297.561 295.383Z" fill="#106FA4"/>
<path opacity="0.2" d="M276.024 295.383C276.101 297.13 275.781 298.871 275.089 300.476H256.389V299.519H257.203V291.236H256.389V290.279H275.089C275.771 291.892 276.09 293.634 276.024 295.383Z" fill="black"/>
<path opacity="0.8" d="M274.043 295.383C274.107 296.802 273.847 298.216 273.284 299.519H257.191V291.236H273.284C273.838 292.546 274.097 293.962 274.043 295.383Z" fill="white"/>
<path opacity="0.2" d="M291.005 295.383C291.082 297.13 290.763 298.871 290.07 300.476H282.579C283.272 298.871 283.591 297.13 283.514 295.383C283.58 293.634 283.261 291.892 282.579 290.279H290.07C290.752 291.892 291.071 293.634 291.005 295.383Z" fill="black"/>
<path d="M162.525 436.336L158.983 452.726L150.59 452.583L154.099 436.336H162.525Z" fill="#EBB376"/>
<path opacity="0.2" d="M162.536 436.336L160.776 444.443L152.46 443.882L154.099 436.336H162.536Z" fill="black"/>
<path d="M160.248 452.309H160.424C160.424 452.309 160.611 452.375 160.633 452.397C160.643 452.401 160.654 452.404 160.666 452.404C160.677 452.404 160.689 452.401 160.699 452.397C161.413 452.626 162.151 452.774 162.899 452.837C163.452 452.938 164.022 452.824 164.494 452.518C164.649 452.386 164.761 452.21 164.816 452.015C164.871 451.819 164.866 451.611 164.802 451.418C164.786 451.292 164.74 451.172 164.667 451.068C164.594 450.965 164.497 450.881 164.384 450.824C163.58 450.691 162.756 450.842 162.052 451.253C162.55 450.736 162.843 450.055 162.877 449.339C162.846 449.17 162.76 449.016 162.633 448.9C162.506 448.785 162.344 448.715 162.173 448.701C162.01 448.671 161.843 448.676 161.683 448.714C161.522 448.752 161.37 448.822 161.238 448.921C160.358 449.68 160.215 452.056 160.215 452.221L160.248 452.309ZM161.15 451.825L160.985 451.924C160.932 451.015 161.179 450.115 161.689 449.361C161.746 449.306 161.813 449.265 161.887 449.238C161.961 449.212 162.04 449.201 162.118 449.207H162.217C162.492 449.207 162.558 449.394 162.558 449.515C162.378 450.427 161.879 451.246 161.15 451.825ZM161.271 452.243C162.283 451.682 163.724 451.077 164.263 451.319C164.317 451.346 164.364 451.386 164.398 451.436C164.433 451.486 164.454 451.544 164.461 451.605C164.491 451.726 164.49 451.854 164.457 451.975C164.425 452.097 164.361 452.208 164.274 452.298C163.9 452.65 162.8 452.628 161.271 452.243Z" fill="#106FA4"/>
<path d="M160.05 451.286L150.645 450.703C150.567 450.694 150.488 450.701 150.412 450.722C150.336 450.744 150.266 450.78 150.205 450.829C150.143 450.878 150.092 450.939 150.054 451.008C150.017 451.077 149.993 451.153 149.985 451.231L149.061 458.656C149.04 459.046 149.171 459.429 149.428 459.723C149.685 460.016 150.047 460.198 150.436 460.229C153.736 460.372 155.298 460.284 159.434 460.504C163.109 460.895 166.806 461.027 170.5 460.9C174.009 460.559 173.58 457.094 172.062 456.929C168.476 456.522 163.724 453.882 161.469 451.88C161.074 451.531 160.575 451.322 160.05 451.286Z" fill="#263238"/>
<path d="M211.662 436.336L208.12 452.726L199.716 452.583L203.236 436.336H211.662Z" fill="#EBB376"/>
<path opacity="0.2" d="M211.662 436.336L209.902 444.443L201.586 443.882L203.225 436.336H211.662Z" fill="black"/>
<path d="M209.375 452.31H209.551C209.551 452.31 209.738 452.376 209.771 452.398C209.781 452.403 209.792 452.405 209.804 452.405C209.815 452.405 209.826 452.403 209.837 452.398C210.551 452.626 211.289 452.774 212.037 452.838C212.593 452.942 213.168 452.828 213.643 452.519C213.796 452.386 213.905 452.21 213.958 452.014C214.011 451.818 214.005 451.611 213.94 451.419C213.927 451.292 213.882 451.171 213.809 451.067C213.736 450.963 213.637 450.879 213.522 450.825C212.718 450.692 211.893 450.844 211.19 451.254C211.686 450.735 211.982 450.057 212.026 449.34C211.991 449.171 211.902 449.017 211.774 448.902C211.645 448.788 211.482 448.717 211.311 448.702C211.148 448.673 210.981 448.678 210.82 448.716C210.66 448.754 210.508 448.824 210.376 448.922C209.496 449.681 209.353 452.057 209.353 452.222L209.375 452.31ZM210.277 451.826L210.112 451.925C210.064 451.017 210.311 450.118 210.816 449.362C210.873 449.308 210.94 449.267 211.014 449.24C211.088 449.214 211.166 449.203 211.245 449.208H211.344C211.619 449.208 211.685 449.395 211.696 449.516C211.506 450.427 211.004 451.244 210.277 451.826ZM210.398 452.244C211.41 451.683 212.851 451.078 213.39 451.32C213.444 451.347 213.49 451.388 213.525 451.438C213.56 451.488 213.581 451.545 213.588 451.606C213.619 451.727 213.62 451.854 213.589 451.975C213.558 452.096 213.497 452.208 213.412 452.299C212.983 452.651 211.883 452.629 210.398 452.244Z" fill="#106FA4"/>
<path d="M209.176 451.286L199.771 450.703C199.693 450.694 199.614 450.701 199.538 450.722C199.462 450.744 199.392 450.78 199.33 450.829C199.269 450.878 199.218 450.939 199.18 451.008C199.143 451.077 199.119 451.153 199.111 451.231L198.187 458.656C198.165 459.046 198.297 459.429 198.554 459.723C198.811 460.016 199.173 460.198 199.562 460.229C202.862 460.372 204.424 460.284 208.56 460.504C212.232 460.884 215.926 461.005 219.615 460.867C223.124 460.526 222.695 457.061 221.188 456.896C217.591 456.489 212.839 453.849 210.595 451.847C210.196 451.51 209.697 451.313 209.176 451.286Z" fill="#263238"/>
<path d="M177.584 405.14C174.387 417.469 170.299 429.55 165.352 441.286L150.018 440.12C150.018 440.12 156.31 415.546 158.587 393.04C159.995 379.147 159.874 367.652 155.804 366.761C153.241 366.189 147.257 366.211 139.579 366.387V337.787C161.117 342.187 182.545 350.547 184.173 357.235C186.45 366.662 182.468 386.594 177.584 405.14Z" fill="#106FA4"/>
<path opacity="0.4" d="M177.584 405.14C174.387 417.469 170.299 429.55 165.352 441.286L150.018 440.12C150.018 440.12 156.31 415.546 158.587 393.04C159.995 379.147 159.874 367.652 155.804 366.761C153.241 366.189 147.257 366.211 139.579 366.387V337.787C161.117 342.187 182.545 350.547 184.173 357.235C186.45 366.662 182.468 386.594 177.584 405.14Z" fill="white"/>
<path opacity="0.2" d="M177.584 405.14C171.864 401.51 165.165 397.253 158.587 393.04C159.995 379.147 159.874 367.652 155.804 366.761C153.241 366.189 147.257 366.211 139.579 366.387V337.787C161.117 342.187 182.545 350.547 184.173 357.235C186.45 366.662 182.468 386.594 177.584 405.14Z" fill="black"/>
<path d="M169.202 334.982L170.555 324.125L126.665 316.898C126.665 316.898 112.31 345.399 119.339 359.281C125.774 372.063 194.37 364.451 204.93 366.75C215.49 369.049 199.1 440.109 199.1 440.109L214.5 441.286C214.5 441.286 238.194 377.354 233.321 357.246C231.176 348.479 195.008 336.863 169.202 334.982Z" fill="#106FA4"/>
<path opacity="0.6" d="M169.202 334.982L170.555 324.125L126.665 316.898C126.665 316.898 112.31 345.399 119.339 359.281C125.774 372.063 194.37 364.451 204.93 366.75C215.49 369.049 199.1 440.109 199.1 440.109L214.5 441.286C214.5 441.286 238.194 377.354 233.321 357.246C231.176 348.479 195.008 336.863 169.202 334.982Z" fill="white"/>
<path d="M193.347 246.664C192.973 247.313 193.017 248.05 193.446 248.292C193.875 248.534 194.546 248.204 194.887 247.544C195.228 246.884 195.217 246.169 194.799 245.916C194.381 245.663 193.754 246.037 193.347 246.664Z" fill="#263238"/>
<path d="M192.654 243.155C192.564 243.111 192.488 243.042 192.434 242.957C192.392 242.848 192.393 242.728 192.436 242.62C192.479 242.512 192.561 242.424 192.665 242.374C193.305 242.082 194.006 241.947 194.708 241.982C195.41 242.016 196.094 242.219 196.702 242.572C196.798 242.633 196.867 242.729 196.894 242.84C196.92 242.951 196.903 243.068 196.845 243.166C196.779 243.262 196.677 243.329 196.562 243.351C196.447 243.374 196.328 243.351 196.229 243.287C195.747 243.016 195.207 242.864 194.654 242.843C194.102 242.822 193.552 242.932 193.05 243.166C192.988 243.195 192.92 243.209 192.851 243.207C192.782 243.206 192.715 243.187 192.654 243.155Z" fill="#263238"/>
<path d="M193.963 245.828C193.602 248.274 193.576 250.757 193.886 253.209C193.255 253.269 192.619 253.191 192.021 252.983C191.423 252.774 190.877 252.438 190.421 251.999L193.963 245.828Z" fill="#DE5753"/>
<path d="M190.025 255.023C189.761 255.342 189.497 255.65 189.211 255.936C187.608 257.619 185.527 258.771 183.249 259.236C182.673 259.356 182.088 259.434 181.5 259.467C179.956 259.57 178.408 259.327 176.97 258.757C175.531 258.186 174.238 257.301 173.184 256.167C172.239 255.134 171.51 253.922 171.039 252.603C168.993 247.103 171.039 242.703 174.02 235.102C174.678 233.306 175.785 231.707 177.235 230.459C178.685 229.211 180.43 228.355 182.305 227.973C184.179 227.59 186.12 227.693 187.944 228.273C189.767 228.853 191.411 229.89 192.72 231.285C198.682 237.511 194.7 249.05 190.025 255.023Z" fill="#E4897B"/>
<path opacity="0.2" d="M183.249 259.215C182.672 259.335 182.087 259.412 181.5 259.446C179.955 259.549 178.407 259.306 176.969 258.735C175.53 258.164 174.237 257.28 173.184 256.146C173.924 255.402 174.755 254.755 175.659 254.221C178.613 255.127 181.247 256.86 183.249 259.215Z" fill="black"/>
<path d="M158.466 259.5C159.214 264.89 170.984 266.903 170.984 266.903C170.984 266.903 176.792 269.543 177.034 267.244C174.625 264.461 174.361 262.03 175.197 259.907C175.749 258.62 176.553 257.457 177.562 256.486C178.105 255.927 178.678 255.399 179.278 254.902L175.681 240.162C173.096 245.761 164.252 258.708 158.466 259.5Z" fill="#E4897B"/>
<path d="M192.049 227.062C192.049 227.062 194.568 226.743 196.449 231.462C198.077 235.411 194.249 236.269 194.414 240.471C194.579 244.673 190.751 246.994 190.751 246.994C190.751 246.994 187.517 249.777 184.778 248.27C184.778 248.27 181.192 250.03 180.246 253.099C179.3 256.168 173.745 250.624 168.74 251.471C168.74 251.471 165.363 248.303 165.605 240.625C165.798 237.29 166.615 234.022 168.014 230.989C168.679 229.384 169.656 227.926 170.889 226.703C172.122 225.479 173.587 224.513 175.197 223.861C180.961 221.287 190.982 223.223 192.049 227.062Z" fill="#263238"/>
<path d="M184.129 245.981C183.959 246.742 183.96 247.531 184.131 248.292C184.302 249.053 184.639 249.766 185.119 250.381C186.34 251.712 188.298 250.018 189.101 247.686C189.783 245.607 190.025 242.351 188.232 241.988C186.439 241.625 184.514 243.737 184.129 245.981Z" fill="#E4897B"/>
<path d="M175.681 261.47C172.441 258.606 168.441 256.742 164.164 256.102C162.296 255.872 160.404 256.276 158.792 257.249C157.181 258.223 155.942 259.709 155.276 261.47L175.01 265.463L175.681 261.47Z" fill="#106FA4"/>
<path d="M172.326 303.116L180.367 304.315C182.197 303.744 184.074 303.343 185.977 303.116C188.045 302.941 190.124 302.941 192.192 303.116C192.192 303.116 195.8 304.48 195.8 308C195.8 308 187.308 310.277 184.052 308.913L172.326 308V303.116Z" fill="#E4897B"/>
<path opacity="0.2" d="M172.326 303.116L180.367 304.315C182.197 303.744 184.074 303.343 185.977 303.116C188.045 302.941 190.124 302.941 192.192 303.116C192.192 303.116 195.8 304.48 195.8 308C195.8 308 187.308 310.277 184.052 308.913L172.326 308V303.116Z" fill="black"/>
<path d="M185.394 264C183.759 268.576 182.292 272.976 180.994 277.2C180.158 279.818 179.399 282.381 178.706 284.9C178.112 286.979 177.606 288.992 177.067 290.95C176.825 291.885 176.583 292.82 176.352 293.744C175.087 298.804 174.064 303.435 173.261 307.505C171.924 313.912 170.933 320.385 170.291 326.898L125.191 321.255C126.753 313.5 127.974 306.735 129.679 299.431C130.614 295.427 131.692 291.269 133.067 286.704C134.035 283.404 135.157 279.939 136.499 276.155C141.02 263.164 145.2 259.567 145.2 259.567C162.514 256.718 185.394 264 185.394 264Z" fill="#106FA4"/>
<path d="M200.398 303.953L208.439 305.163C210.268 304.586 212.146 304.181 214.049 303.953C216.118 303.784 218.196 303.784 220.264 303.953C220.264 303.953 223.905 305.317 223.905 308.804C223.905 308.804 215.413 311.081 212.146 309.717L200.398 308.804V303.953Z" fill="#E4897B"/>
<path d="M148.39 440.836L166.65 442.046L169.334 434.159L149.215 433.213L148.39 440.836Z" fill="#106FA4"/>
<path opacity="0.2" d="M148.39 440.836L166.65 442.046L169.334 434.159L149.215 433.213L148.39 440.836Z" fill="white"/>
<path d="M197.516 440.836L215.776 442.046L218.46 434.159L198.341 433.213L197.516 440.836Z" fill="#106FA4"/>
<path opacity="0.2" d="M197.516 440.836L215.776 442.046L218.46 434.159L198.341 433.213L197.516 440.836Z" fill="white"/>
<path d="M125.048 321.838L145.387 324.511L146.047 321.508L125.675 318.549L125.048 321.838Z" fill="black"/>
<path d="M147.741 321.529L147.488 324.51L166.287 327.095V324.147L147.741 321.529Z" fill="black"/>
<path d="M167.453 324.312V327.095L170.181 327.459V324.764L167.453 324.312Z" fill="black"/>
<path opacity="0.2" d="M180.983 277.2C180.147 279.818 179.388 282.381 178.695 284.9C178.101 286.979 177.595 288.992 177.056 290.95C175.648 283.25 178.156 274.043 178.156 274.043L180.983 277.2Z" fill="black"/>
<path d="M184.03 266.596C187.704 267.333 189.607 292.853 190.421 296.23C191.136 299.178 208.439 305.162 208.439 305.162V309.309C208.439 309.309 189.299 308 184.8 306.152C180.301 304.304 177.584 279.103 177.584 279.103L184.03 266.596Z" fill="#E4897B"/>
<g opacity="0.2">
<path d="M185.394 264C183.759 268.576 182.292 272.976 180.994 277.2C180.158 279.818 179.399 282.381 178.706 284.9C178.112 286.979 177.606 288.992 177.067 290.95C176.825 291.885 176.583 292.82 176.352 293.744C175.087 298.804 174.064 303.435 173.261 307.505C171.924 313.912 170.933 320.385 170.291 326.898L125.191 321.255C126.753 313.5 127.974 306.735 129.679 299.431C130.614 295.427 131.692 291.269 133.067 286.704C134.035 283.404 135.157 279.939 136.499 276.155C141.02 263.164 145.2 259.567 145.2 259.567C162.514 256.718 185.394 264 185.394 264Z" fill="white"/>
</g>
<path d="M185.394 264C188.76 265.1 190.421 287.1 190.421 287.1L178.2 288.717L175.67 279.675C175.67 279.675 176.682 275.407 178.134 270.93C180.246 264.44 185.394 264 185.394 264Z" fill="#106FA4"/>
<path d="M106.557 457.116C106.557 456.35 106.33 455.601 105.904 454.964C105.478 454.327 104.873 453.831 104.165 453.538C103.457 453.245 102.677 453.169 101.926 453.319C101.175 453.47 100.485 453.84 99.9437 454.382C99.4026 454.925 99.0347 455.616 98.8865 456.367C98.7384 457.119 98.8166 457.898 99.1114 458.606C99.4061 459.313 99.9041 459.917 100.542 460.341C101.181 460.765 101.93 460.99 102.696 460.988C103.204 460.988 103.707 460.888 104.177 460.693C104.646 460.498 105.072 460.213 105.431 459.853C105.789 459.494 106.073 459.067 106.267 458.597C106.46 458.127 106.559 457.624 106.557 457.116Z" fill="#263238"/>
<path opacity="0.2" d="M106.557 457.116C106.557 456.35 106.33 455.601 105.904 454.964C105.478 454.327 104.873 453.831 104.165 453.538C103.457 453.245 102.677 453.169 101.926 453.319C101.175 453.47 100.485 453.84 99.9437 454.382C99.4026 454.925 99.0347 455.616 98.8865 456.367C98.7384 457.119 98.8166 457.898 99.1114 458.606C99.4061 459.313 99.9041 459.917 100.542 460.341C101.181 460.765 101.93 460.99 102.696 460.988C103.204 460.988 103.707 460.888 104.177 460.693C104.646 460.498 105.072 460.213 105.431 459.853C105.789 459.494 106.073 459.067 106.267 458.597C106.46 458.127 106.559 457.624 106.557 457.116Z" fill="white"/>
<path d="M199.628 457.116C199.628 456.35 199.401 455.602 198.975 454.965C198.55 454.328 197.945 453.832 197.238 453.539C196.53 453.246 195.752 453.169 195 453.319C194.249 453.468 193.559 453.837 193.018 454.378C192.476 454.92 192.108 455.61 191.958 456.361C191.809 457.112 191.885 457.89 192.179 458.598C192.472 459.305 192.968 459.91 193.605 460.336C194.241 460.761 194.99 460.988 195.756 460.988C196.265 460.99 196.769 460.89 197.239 460.696C197.71 460.502 198.137 460.217 198.497 459.857C198.857 459.497 199.142 459.07 199.336 458.6C199.53 458.129 199.629 457.625 199.628 457.116Z" fill="#263238"/>
<path opacity="0.2" d="M199.628 457.116C199.628 456.35 199.401 455.602 198.975 454.965C198.55 454.328 197.945 453.832 197.238 453.539C196.53 453.246 195.752 453.169 195 453.319C194.249 453.468 193.559 453.837 193.018 454.378C192.476 454.92 192.108 455.61 191.958 456.361C191.809 457.112 191.885 457.89 192.179 458.598C192.472 459.305 192.968 459.91 193.605 460.336C194.241 460.761 194.99 460.988 195.756 460.988C196.265 460.99 196.769 460.89 197.239 460.696C197.71 460.502 198.137 460.217 198.497 459.857C198.857 459.497 199.142 459.07 199.336 458.6C199.53 458.129 199.629 457.625 199.628 457.116Z" fill="white"/>
<path opacity="0.2" d="M104.621 457.116C104.621 456.732 104.507 456.358 104.294 456.039C104.081 455.72 103.778 455.472 103.423 455.326C103.069 455.18 102.679 455.142 102.303 455.218C101.927 455.293 101.582 455.479 101.312 455.751C101.042 456.022 100.858 456.368 100.785 456.745C100.711 457.121 100.751 457.511 100.9 457.864C101.048 458.218 101.298 458.519 101.617 458.731C101.937 458.942 102.313 459.054 102.696 459.052C102.95 459.052 103.201 459.002 103.435 458.904C103.67 458.807 103.882 458.664 104.061 458.484C104.24 458.304 104.382 458.091 104.478 457.856C104.574 457.621 104.622 457.369 104.621 457.116Z" fill="white"/>
<path opacity="0.2" d="M195.756 459.052C196.826 459.052 197.692 458.185 197.692 457.116C197.692 456.046 196.826 455.18 195.756 455.18C194.687 455.18 193.82 456.046 193.82 457.116C193.82 458.185 194.687 459.052 195.756 459.052Z" fill="white"/>
<path d="M152.427 440.154V398.562H146.025V440.154C121.121 440.792 105.985 449.504 102.949 451.407C102.776 451.518 102.634 451.671 102.535 451.852C102.437 452.032 102.387 452.235 102.388 452.441V455.895C102.388 456.218 102.516 456.529 102.745 456.758C102.974 456.987 103.285 457.116 103.609 457.116C103.831 457.123 104.051 457.069 104.244 456.96C104.438 456.852 104.599 456.693 104.709 456.5L106.183 453.904C119.086 449.79 132.517 447.567 146.058 447.304V454.145C146.061 454.564 146.229 454.964 146.526 455.258C146.822 455.553 147.224 455.719 147.642 455.719H150.876C151.294 455.719 151.695 455.553 151.992 455.258C152.289 454.964 152.457 454.564 152.46 454.145V447.304C166 447.567 179.431 449.79 192.335 453.904L193.809 456.5C193.919 456.693 194.079 456.852 194.273 456.96C194.467 457.069 194.687 457.123 194.909 457.116C195.233 457.116 195.543 456.987 195.772 456.758C196.001 456.529 196.13 456.218 196.13 455.895V452.441C196.131 452.235 196.08 452.032 195.982 451.852C195.884 451.671 195.742 451.518 195.569 451.407C192.5 449.504 177.331 440.792 152.427 440.154Z" fill="#263238"/>
<path opacity="0.2" d="M152.427 440.154V398.562H146.025V440.154C121.121 440.792 105.985 449.504 102.949 451.407C102.776 451.518 102.634 451.671 102.535 451.852C102.437 452.032 102.387 452.235 102.388 452.441V455.895C102.388 456.218 102.516 456.529 102.745 456.758C102.974 456.987 103.285 457.116 103.609 457.116C103.831 457.123 104.051 457.069 104.244 456.96C104.438 456.852 104.599 456.693 104.709 456.5L106.183 453.904C119.086 449.79 132.517 447.567 146.058 447.304V454.145C146.061 454.564 146.229 454.964 146.526 455.258C146.822 455.553 147.224 455.719 147.642 455.719H150.876C151.294 455.719 151.695 455.553 151.992 455.258C152.289 454.964 152.457 454.564 152.46 454.145V447.304C166 447.567 179.431 449.79 192.335 453.904L193.809 456.5C193.919 456.693 194.079 456.852 194.273 456.96C194.467 457.069 194.687 457.123 194.909 457.116C195.233 457.116 195.543 456.987 195.772 456.758C196.001 456.529 196.13 456.218 196.13 455.895V452.441C196.131 452.235 196.08 452.032 195.982 451.852C195.884 451.671 195.742 451.518 195.569 451.407C192.5 449.504 177.331 440.792 152.427 440.154Z" fill="black"/>
<path d="M150.48 453.254H147.972C147.504 453.254 147.125 453.633 147.125 454.101V460.14C147.125 460.608 147.504 460.987 147.972 460.987H150.48C150.948 460.987 151.327 460.608 151.327 460.14V454.101C151.327 453.633 150.948 453.254 150.48 453.254Z" fill="#263238"/>
<path opacity="0.2" d="M150.48 453.254H147.972C147.504 453.254 147.125 453.633 147.125 454.101V460.14C147.125 460.608 147.504 460.987 147.972 460.987H150.48C150.948 460.987 151.327 460.608 151.327 460.14V454.101C151.327 453.633 150.948 453.254 150.48 453.254Z" fill="white"/>
<path d="M107.305 357.621H191.158C193.465 357.621 195.679 358.538 197.31 360.17C198.942 361.801 199.859 364.014 199.859 366.322V371.58H98.5928V366.3C98.5986 363.994 99.5194 361.785 101.153 360.158C102.786 358.531 104.999 357.618 107.305 357.621Z" fill="#106FA4"/>
<path d="M134.706 323.059H190.454C191.137 323.037 191.816 323.175 192.437 323.461C193.058 323.747 193.603 324.174 194.03 324.708C194.457 325.242 194.754 325.868 194.897 326.536C195.04 327.205 195.025 327.897 194.854 328.559L184.8 371.591H182.501L190.993 333.839C191.141 333.183 191.138 332.501 190.985 331.846C190.832 331.191 190.533 330.579 190.109 330.056C189.686 329.533 189.15 329.113 188.541 328.827C187.932 328.541 187.266 328.397 186.593 328.405H135.85L134.706 323.059Z" fill="#263238"/>
<path d="M155.804 373.098V409.486C155.801 410.045 155.578 410.58 155.182 410.976C154.787 411.371 154.251 411.595 153.692 411.598H144.771C144.493 411.599 144.218 411.546 143.961 411.44C143.704 411.334 143.471 411.179 143.275 410.982C143.078 410.786 142.923 410.553 142.817 410.296C142.711 410.039 142.658 409.763 142.659 409.486V373.098H155.804Z" fill="#263238"/>
<path opacity="0.2" d="M155.815 373.098H142.659V388.212H155.815V373.098Z" fill="black"/>
<path d="M202.62 369.346V373.746C202.62 374.33 202.388 374.89 201.976 375.302C201.563 375.715 201.003 375.946 200.42 375.946H98.1199C97.5364 375.946 96.9769 375.715 96.5643 375.302C96.1517 374.89 95.9199 374.33 95.9199 373.746V369.346C95.9199 368.763 96.1517 368.203 96.5643 367.791C96.9769 367.378 97.5364 367.146 98.1199 367.146H200.42C201.003 367.146 201.563 367.378 201.976 367.791C202.388 368.203 202.62 368.763 202.62 369.346Z" fill="#263238"/>
<path d="M155.54 371.591H95.8322C95.8322 371.591 76.8682 340.043 76.8682 287.914V268.763C76.8682 264.97 78.3748 261.333 81.0565 258.651C83.7383 255.97 87.3756 254.463 91.1682 254.463H116.468C120.189 254.444 123.769 255.883 126.442 258.472C129.115 261.06 130.668 264.593 130.768 268.312C131.417 295.218 135.377 353.386 155.54 371.591Z" fill="#263238"/>
<path opacity="0.2" d="M142.406 371.591H98.5384C97.7064 371.593 96.8899 371.366 96.178 370.935C95.4661 370.504 94.8861 369.887 94.5014 369.149C90.1894 360.822 76.9014 331.584 76.9014 287.914V268.763C76.9014 264.97 78.408 261.333 81.0897 258.651C83.7715 255.97 87.4088 254.463 91.2014 254.463H113.08C116.796 254.461 120.367 255.906 123.036 258.491C125.705 261.076 127.263 264.598 127.38 268.312C128.04 292.303 131.263 341.286 146.322 364.441C146.806 365.136 147.086 365.953 147.131 366.798C147.176 367.644 146.984 368.485 146.577 369.228C146.171 369.971 145.565 370.585 144.828 371.003C144.091 371.42 143.253 371.624 142.406 371.591Z" fill="white"/>
<path opacity="0.2" d="M202.62 369.347V373.747C202.62 374.331 202.388 374.89 201.976 375.303C201.563 375.715 201.003 375.947 200.42 375.947H154.55C153.754 375.944 152.992 375.627 152.43 375.064C151.867 374.502 151.55 373.74 151.547 372.944V370.161C151.547 369.365 151.863 368.601 152.426 368.038C152.99 367.475 153.753 367.158 154.55 367.158H200.409C200.698 367.157 200.984 367.212 201.252 367.321C201.519 367.431 201.762 367.592 201.968 367.795C202.173 367.998 202.336 368.24 202.448 368.506C202.56 368.773 202.618 369.058 202.62 369.347Z" fill="black"/>
</svg>
